<svg width="41" height="48" viewBox="0 0 41 48" fill="none" xmlns="http://www.w3.org/2000/svg">
<path fill-rule="evenodd" clip-rule="evenodd" d="M35.0868 8.40049L25.4 5.80493C24.7313 5.62574 24.1892 6.04172 24.1892 6.73404V16.7625C24.1892 17.4549 24.7313 18.1614 25.4 18.3405L35.0868 20.9361C35.7555 21.1153 36.2977 20.6993 36.2977 20.007V9.9785C36.2977 9.28617 35.7555 8.57968 35.0868 8.40049ZM25.4 2.04424C22.7251 1.3275 20.5566 2.99141 20.5566 5.7607V15.7892C20.5566 18.5585 22.7251 21.3845 25.4 22.1012L35.0868 24.6968C37.7617 25.4135 39.9302 23.7496 39.9302 20.9803V10.9518C39.9302 8.18254 37.7617 5.35655 35.0868 4.63981L25.4 2.04424Z" fill="#121212"/>
<path fill-rule="evenodd" clip-rule="evenodd" d="M27.4812 16.5707L15.3727 13.3263C14.704 13.1471 14.1618 13.5631 14.1618 14.2554V26.791C14.1618 27.4833 14.704 28.1898 15.3727 28.369L27.4812 31.6135C28.1499 31.7927 28.692 31.3767 28.692 30.6844V18.1488C28.692 17.4564 28.1499 16.7499 27.4812 16.5707ZM15.3727 9.5656C12.6978 8.84886 10.5293 10.5128 10.5293 13.2821V25.8177C10.5293 28.587 12.6978 31.413 15.3727 32.1297L27.4812 35.3742C30.1561 36.0909 32.3245 34.427 32.3245 31.6577V19.1221C32.3245 16.3528 30.1561 13.5268 27.4812 12.8101L15.3727 9.5656Z" fill="#121212"/>
<path fill-rule="evenodd" clip-rule="evenodd" d="M19.8736 24.741L5.34339 20.8477C4.67466 20.6685 4.13254 21.0844 4.13254 21.7768V36.8195C4.13254 37.5118 4.67466 38.2183 5.34339 38.3975L19.8736 42.2909C20.5423 42.47 21.0844 42.0541 21.0844 41.3617V26.319C21.0844 25.6267 20.5423 24.9202 19.8736 24.741ZM5.34339 17.087C2.66846 16.3702 0.5 18.0341 0.5 20.8034V35.8462C0.5 38.6155 2.66846 41.4414 5.34339 42.1582L19.8736 46.0515C22.5485 46.7683 24.7169 45.1044 24.7169 42.3351V27.2923C24.7169 24.523 22.5485 21.6971 19.8736 20.9803L5.34339 17.087Z" fill="#121212"/>
</svg>
