<svg width="41" height="48" viewBox="0 0 41 48" fill="none" xmlns="http://www.w3.org/2000/svg">
<g clip-path="url(#clip0_2171_3614)">
<path d="M25.5887 5.05386L21.6557 4L18.3412 16.3696L15.3489 5.20224L11.4158 6.2561L14.6488 18.3216L6.59618 10.269L3.71699 13.1482L12.5497 21.981L1.54995 19.0336L0.496094 22.9666L12.5147 26.187C12.3771 25.5935 12.3043 24.9751 12.3043 24.3397C12.3043 19.8421 15.9503 16.1961 20.448 16.1961C24.9456 16.1961 28.5916 19.8421 28.5916 24.3397C28.5916 24.971 28.5197 25.5856 28.3838 26.1756L39.3065 29.1023L40.3603 25.1693L28.2939 21.9361L39.2944 18.9885L38.2405 15.0555L26.1746 18.2885L34.2272 10.2359L31.348 7.35674L22.6378 16.067L25.5887 5.05386Z" fill="#121212"/>
<path d="M28.3723 26.2214C28.0351 27.647 27.3232 28.9277 26.3464 29.9538L34.2594 37.8669L37.1386 34.9877L28.3723 26.2214Z" fill="#121212"/>
<path d="M26.2665 30.0366C25.2779 31.0463 24.0286 31.7998 22.6276 32.1881L25.507 42.9341L29.44 41.8802L26.2665 30.0366Z" fill="#121212"/>
<path d="M22.4807 32.2274C21.8307 32.3945 21.1494 32.4833 20.4473 32.4833C19.6951 32.4833 18.9667 32.3813 18.2752 32.1904L15.3932 42.9462L19.3262 44L22.4807 32.2274Z" fill="#121212"/>
<path d="M18.1361 32.1507C16.7565 31.7431 15.5294 30.98 14.561 29.9674L6.6285 37.8999L9.50769 40.7791L18.1361 32.1507Z" fill="#121212"/>
<path d="M14.4956 29.8973C13.5438 28.8783 12.8505 27.6147 12.5205 26.2111L1.56214 29.1474L2.61599 33.0804L14.4956 29.8973Z" fill="#121212"/>
</g>
<defs>
<clipPath id="clip0_2171_3614">
<rect width="40" height="48" fill="white" transform="translate(0.5)"/>
</clipPath>
</defs>
</svg>
