<svg width="134" height="40" viewBox="0 0 134 40" fill="none" xmlns="http://www.w3.org/2000/svg">
<path opacity="0.3" d="M129.642 40H4.35772C3.20198 40 2.09358 39.5786 1.27635 38.8284C0.459116 38.0783 0 37.0609 0 36V4C0 2.93913 0.459116 1.92172 1.27635 1.17157C2.09358 0.421427 3.20198 0 4.35772 0L129.642 0C130.798 0 131.906 0.421427 132.724 1.17157C133.541 1.92172 134 2.93913 134 4V36C134 37.0609 133.541 38.0783 132.724 38.8284C131.906 39.5786 130.798 40 129.642 40ZM4.35772 1C3.49092 1 2.65962 1.31607 2.04669 1.87868C1.43377 2.44129 1.08943 3.20435 1.08943 4V36C1.08943 36.7956 1.43377 37.5587 2.04669 38.1213C2.65962 38.6839 3.49092 39 4.35772 39H129.642C130.509 39 131.34 38.6839 131.953 38.1213C132.566 37.5587 132.911 36.7956 132.911 36V4C132.911 3.20435 132.566 2.44129 131.953 1.87868C131.34 1.31607 130.509 1 129.642 1H4.35772Z" fill="#121212"/>
<path fill-rule="evenodd" clip-rule="evenodd" d="M80.9999 29.45C79.2899 29.45 78.0499 28.61 77.8999 27.33H75.8999C76.0299 29.67 77.9699 31.15 80.8299 31.15C83.8999 31.15 85.8299 29.63 85.8299 27.21C85.8299 25.32 84.7299 24.26 82.0699 23.63L80.6499 23.28C78.9799 22.87 78.2999 22.28 78.2999 21.41C78.2999 20.27 79.3599 19.48 80.9199 19.48C82.4799 19.48 83.5499 20.26 83.6699 21.55H85.5999C85.5399 19.32 83.6599 17.78 80.9299 17.78C78.1999 17.78 76.2199 19.32 76.2199 21.55C76.2199 23.35 77.3299 24.46 79.6999 25.03L81.3799 25.44C83.0599 25.85 83.7599 26.44 83.7599 27.44C83.7599 28.44 82.5899 29.45 80.9999 29.45ZM47.2699 27.45H42.2999L41.1199 30.94H38.9999L43.6999 18H45.8699L50.5399 30.93H48.4099L47.2699 27.45ZM42.8499 25.83H46.7599L44.8299 20.16L42.8499 25.83ZM56.6899 31C59.0599 31 60.6199 29.12 60.6199 26.19C60.6199 23.26 59.0499 21.37 56.6199 21.37C56.0156 21.3507 55.4173 21.4959 54.8889 21.79C54.3606 22.0841 53.922 22.5161 53.6199 23.04V21.5H51.7399V34.05H53.6799V29.38C53.9754 29.9086 54.4156 30.3418 54.9488 30.6288C55.482 30.9158 56.0861 31.0446 56.6899 31ZM58.6299 26.19C58.6299 24.28 57.6299 23.02 56.1399 23.02C54.6499 23.02 53.6699 24.31 53.6699 26.19C53.6699 28.07 54.6699 29.36 56.1399 29.36C57.6099 29.36 58.6299 28.15 58.6299 26.22V26.19ZM67.0699 31C69.4399 31 70.9999 29.15 70.9999 26.22C70.9999 23.29 69.4299 21.4 66.9999 21.4C66.3956 21.3807 65.7973 21.5259 65.2689 21.82C64.7406 22.1141 64.302 22.5461 63.9999 23.07V21.5H62.1199V34.05H64.0599V29.38C64.3554 29.9086 64.7956 30.3418 65.3288 30.6288C65.862 30.9158 66.4661 31.0446 67.0699 31ZM68.9999 26.22C68.9999 24.31 67.9999 23.05 66.5099 23.05C65.0199 23.05 64.0399 24.34 64.0399 26.22C64.0399 28.1 65.0399 29.39 66.5099 29.39C67.9799 29.39 68.9999 28.15 68.9999 26.22ZM89.9999 19.27V21.5H91.7899V23H89.9999V28.19C89.9999 29 90.3499 29.38 91.1399 29.38C91.3542 29.3787 91.5681 29.3619 91.7799 29.33V30.9C91.4231 30.9606 91.0618 30.9907 90.6999 30.99C88.7999 30.99 88.0499 30.27 88.0499 28.44V23H86.6699V21.5H87.9999V19.27H89.9999ZM97.2999 21.39C94.5799 21.39 92.8299 23.25 92.8299 26.22C92.8299 29.19 94.5599 31.05 97.2999 31.05C100.04 31.05 101.77 29.19 101.77 26.22C101.77 23.25 99.9999 21.39 97.2899 21.39H97.2999ZM99.7999 26.22C99.7999 24.22 98.8699 22.98 97.2999 22.98C95.7299 22.98 94.7999 24.19 94.7999 26.22C94.7999 28.25 95.7299 29.45 97.2999 29.45C98.8699 29.45 99.7999 28.26 99.7999 26.22ZM105.22 21.5H103.36V30.93H105.3V25.34C105.268 25.0618 105.297 24.78 105.384 24.5139C105.471 24.2477 105.614 24.0033 105.804 23.7974C105.993 23.5916 106.225 23.4289 106.483 23.3207C106.742 23.2124 107.02 23.161 107.3 23.17C107.595 23.1592 107.889 23.1998 108.17 23.29V21.48C107.954 21.4282 107.732 21.4014 107.51 21.4C106.993 21.3822 106.486 21.5423 106.073 21.8535C105.659 22.1647 105.366 22.6082 105.24 23.11L105.22 21.5ZM117.12 28.16C116.86 29.88 115.19 31.05 113.06 31.05C110.31 31.05 108.61 29.21 108.61 26.26C108.61 23.31 110.32 21.39 112.98 21.39C115.64 21.39 117.23 23.18 117.23 26.04V26.7H110.57V26.82C110.537 27.1669 110.578 27.5169 110.692 27.8465C110.805 28.176 110.988 28.4774 111.228 28.7304C111.467 28.9834 111.759 29.182 112.082 29.3131C112.404 29.4441 112.752 29.5044 113.1 29.49C113.558 29.5337 114.018 29.4277 114.411 29.1879C114.804 28.9482 115.109 28.5875 115.28 28.16H117.12ZM115.29 25.35H110.58C110.583 25.0362 110.647 24.726 110.771 24.4375C110.894 24.149 111.074 23.8878 111.299 23.6692C111.524 23.4506 111.79 23.2789 112.082 23.164C112.374 23.0491 112.686 22.9934 113 23C113.313 22.9907 113.624 23.0473 113.913 23.1662C114.203 23.2851 114.464 23.4636 114.68 23.69C114.886 23.9126 115.045 24.1742 115.148 24.4593C115.251 24.7444 115.296 25.0473 115.28 25.35H115.29ZM64.7199 8H65.6499V14.52H64.7199V8ZM44.7199 9.15C44.4399 8.85594 44.0984 8.6273 43.7199 8.48037C43.3413 8.33344 42.935 8.27186 42.5299 8.3H40.3199V14.52H42.5699C44.4199 14.52 45.4899 13.38 45.4899 11.39C45.5502 10.9795 45.5158 10.5606 45.3893 10.1654C45.2627 9.77018 45.0475 9.40918 44.7599 9.11L44.7199 9.15ZM42.4199 13.64H41.2899V9.14H42.4599C42.7468 9.12832 43.0328 9.17854 43.2986 9.28725C43.5643 9.39596 43.8035 9.56061 43.9999 9.77C44.1962 9.98122 44.3429 10.2335 44.4294 10.5086C44.5159 10.7836 44.54 11.0745 44.4999 11.36C44.5434 11.6533 44.5211 11.9527 44.4346 12.2363C44.3481 12.5199 44.1997 12.7808 43.9999 13C43.8008 13.204 43.5604 13.363 43.2948 13.4665C43.0292 13.57 42.7446 13.6155 42.4599 13.6L42.4199 13.64ZM46.5399 12.17C46.4984 11.762 46.5697 11.3503 46.746 10.98C46.9224 10.6097 47.197 10.2949 47.5399 10.07C47.8894 9.83144 48.2998 9.69773 48.7228 9.68463C49.1457 9.67152 49.5636 9.77958 49.9272 9.99605C50.2908 10.2125 50.585 10.5284 50.775 10.9065C50.9651 11.2845 51.0431 11.7091 50.9999 12.13C51.0203 12.4334 50.9782 12.7377 50.8761 13.0242C50.774 13.3106 50.6142 13.573 50.4065 13.7951C50.1988 14.0172 49.9477 14.1943 49.6688 14.3154C49.3899 14.4364 49.089 14.4989 48.7849 14.4989C48.4809 14.4989 48.18 14.4364 47.9011 14.3154C47.6221 14.1943 47.3711 14.0172 47.1634 13.7951C46.9557 13.573 46.7959 13.3106 46.6938 13.0242C46.5917 12.7377 46.5495 12.4334 46.5699 12.13L46.5399 12.17ZM48.7599 10.56C49.5599 10.56 50.0199 11.15 50.0199 12.17C50.0199 13.17 49.5599 13.78 48.7599 13.78C47.9599 13.78 47.4999 13.19 47.4999 12.17C47.4999 11.15 47.9999 10.52 48.7999 10.52L48.7599 10.56ZM56.8499 14.56H55.8499L54.9999 11H54.9299L53.9299 14.46H52.9999L51.6799 9.79H52.6199L53.4599 13.37H53.5199L54.5199 9.79H55.4099L56.4099 13.37H56.4799L57.3199 9.79H58.2499L56.8499 14.56ZM60.1199 9.87H59.2199V14.56H60.1499V11.73C60.134 11.5758 60.1515 11.4199 60.2011 11.2731C60.2508 11.1262 60.3315 10.9917 60.4378 10.8788C60.544 10.7659 60.6734 10.6772 60.817 10.6188C60.9605 10.5603 61.115 10.5334 61.2699 10.54C61.9499 10.54 62.2699 10.92 62.2699 11.67V14.48H63.1999V11.48C63.2394 11.2546 63.2275 11.0233 63.1651 10.8031C63.1027 10.583 62.9914 10.3798 62.8395 10.2087C62.6876 10.0376 62.4991 9.90297 62.2879 9.81489C62.0767 9.72681 61.8484 9.68754 61.6199 9.7C61.3292 9.67519 61.038 9.74185 60.7869 9.89066C60.5359 10.0395 60.3377 10.263 60.2199 10.53H60.1599L60.1199 9.87ZM67.9999 10C67.6537 10.2216 67.3765 10.5359 67.1997 10.907C67.023 11.2782 66.9538 11.6915 66.9999 12.1C66.9706 12.4079 67.006 12.7185 67.1037 13.0119C67.2014 13.3054 67.3594 13.5752 67.5674 13.804C67.7755 14.0328 68.0291 14.2156 68.3119 14.3407C68.5948 14.4659 68.9007 14.5305 69.2099 14.5305C69.5192 14.5305 69.8251 14.4659 70.1079 14.3407C70.3908 14.2156 70.6444 14.0328 70.8525 13.804C71.0605 13.5752 71.2185 13.3054 71.3162 13.0119C71.4139 12.7185 71.4493 12.4079 71.4199 12.1C71.4638 11.6917 71.3935 11.2793 71.217 10.9086C71.0404 10.5378 70.7645 10.2233 70.4199 10C70.0607 9.76344 69.6401 9.63736 69.2099 9.63736C68.7798 9.63736 68.3592 9.76344 67.9999 10ZM70.4299 12.1C70.4299 11.1 69.9699 10.49 69.1699 10.49C68.3699 10.49 67.9099 11.08 67.9099 12.1C67.9099 13.12 68.3599 13.71 69.1699 13.71C69.9799 13.71 70.41 13.15 70.41 12.13L70.4299 12.1ZM74.0999 11.72C72.9799 11.79 72.3499 12.28 72.3499 13.12C72.3727 13.5013 72.5409 13.8592 72.8199 14.12C72.9675 14.2537 73.1421 14.3542 73.3319 14.4146C73.5217 14.475 73.7222 14.4939 73.9199 14.47C74.1985 14.4836 74.4757 14.4232 74.7233 14.295C74.971 14.1668 75.1803 13.9753 75.3299 13.74H75.3999V14.4H76.2899V11.27C76.2899 10.27 75.6299 9.7 74.4499 9.7C73.2699 9.7 72.6299 10.21 72.5399 11.02H73.4299C73.5299 10.69 73.8899 10.5 74.4299 10.5C74.9699 10.5 75.4299 10.78 75.4299 11.27V11.68L74.0999 11.72ZM75.3699 12.72V12.33L74.2199 12.4C73.5799 12.4 73.2799 12.66 73.2799 13.08C73.2799 13.5 73.6499 13.74 74.1499 13.74C74.2961 13.7566 74.4441 13.7437 74.5851 13.7021C74.7262 13.6604 74.8575 13.591 74.9712 13.4977C75.085 13.4045 75.1788 13.2894 75.2473 13.1593C75.3158 13.0291 75.3575 12.8865 75.3699 12.74V12.72ZM79.4499 9.72C78.2699 9.72 77.5099 10.66 77.5099 12.14C77.5099 13.62 78.2599 14.56 79.4499 14.56C79.7472 14.574 80.0426 14.5058 80.3037 14.3629C80.5648 14.22 80.7815 14.0079 80.9299 13.75H80.9999V14.49H81.8899V8H80.9599V10.57H80.8899C80.7573 10.2996 80.5484 10.074 80.2889 9.92115C80.0294 9.76829 79.7307 9.69488 79.4299 9.71L79.4499 9.72ZM78.4499 12.14C78.4499 13.14 78.9199 13.73 79.7099 13.73C80.4999 13.73 80.9999 13.12 80.9999 12.13C80.9999 11.14 80.5099 10.54 79.7399 10.54C78.9699 10.54 78.4799 11.14 78.4799 12.13L78.4499 12.14ZM86.7499 10.04C86.4054 10.2633 86.1295 10.5778 85.9529 10.9486C85.7764 11.3193 85.7061 11.7317 85.7499 12.14C85.7206 12.4479 85.756 12.7585 85.8537 13.0519C85.9514 13.3454 86.1094 13.6152 86.3174 13.844C86.5255 14.0728 86.7791 14.2556 87.0619 14.3807C87.3448 14.5059 87.6507 14.5705 87.9599 14.5705C88.2692 14.5705 88.5751 14.5059 88.8579 14.3807C89.1408 14.2556 89.3944 14.0728 89.6025 13.844C89.8105 13.6152 89.9685 13.3454 90.0662 13.0519C90.1639 12.7585 90.1993 12.4479 90.1699 12.14C90.2138 11.7317 90.1435 11.3193 89.967 10.9486C89.7904 10.5778 89.5145 10.2633 89.1699 10.04C88.8136 9.79537 88.3931 9.66111 87.961 9.654C87.5288 9.64689 87.1041 9.76723 86.7399 10L86.7499 10.04ZM89.1799 12.14C89.1799 11.14 88.7199 10.53 87.9199 10.53C87.1199 10.53 86.66 11.12 86.66 12.14C86.66 13.16 87.1199 13.75 87.9199 13.75C88.7199 13.75 89.1699 13.15 89.1699 12.13L89.1799 12.14ZM92.2599 9.8H91.3699V14.49H92.2999V11.73C92.284 11.5758 92.3015 11.4199 92.3511 11.2731C92.4008 11.1262 92.4815 10.9917 92.5878 10.8788C92.694 10.7659 92.8234 10.6772 92.9669 10.6188C93.1105 10.5603 93.265 10.5334 93.4199 10.54C94.0999 10.54 94.4199 10.92 94.4199 11.67V14.48H95.3499V11.48C95.3908 11.2502 95.3781 11.0141 95.313 10.79C95.2479 10.5658 95.132 10.3597 94.9744 10.1876C94.8167 10.0155 94.6216 9.88195 94.4041 9.7974C94.1865 9.71284 93.9524 9.67951 93.7199 9.7C93.4292 9.67519 93.138 9.74185 92.8869 9.89066C92.6359 10.0395 92.4377 10.263 92.3199 10.53H92.2499L92.2599 9.8ZM100.59 8.63V9.81H101.59V10.59H100.59V13C100.59 13.49 100.79 13.71 101.25 13.71C101.366 13.7202 101.484 13.7202 101.6 13.71V14.49C101.434 14.5052 101.266 14.5052 101.1 14.49C100.1 14.49 99.66 14.13 99.66 13.23V10.59H98.9199V9.81H99.66V8.62L100.59 8.63ZM103.78 8H102.86V14.52H103.78V11.74C103.769 11.5806 103.791 11.4206 103.847 11.2707C103.902 11.1207 103.988 10.9841 104.1 10.87C104.212 10.7554 104.348 10.6673 104.499 10.6119C104.649 10.5566 104.81 10.5354 104.97 10.55C105.62 10.55 105.97 10.93 105.97 11.68V14.48H106.89V11.48C106.923 11.2542 106.905 11.0238 106.838 10.8058C106.77 10.5878 106.655 10.3876 106.5 10.22C106.345 10.0539 106.155 9.92392 105.944 9.83924C105.734 9.75457 105.507 9.71727 105.28 9.73C104.984 9.70552 104.688 9.7731 104.432 9.92347C104.176 10.0738 103.973 10.2997 103.85 10.57H103.78V8ZM112.29 13.25C112.166 13.6737 111.899 14.0412 111.534 14.2893C111.169 14.5375 110.729 14.6509 110.29 14.61C109.981 14.617 109.675 14.5571 109.391 14.4344C109.108 14.3117 108.854 14.1291 108.648 13.8992C108.442 13.6693 108.288 13.3975 108.197 13.1025C108.106 12.8074 108.079 12.4961 108.12 12.19C108.079 11.8821 108.106 11.569 108.197 11.2722C108.289 10.9753 108.443 10.7017 108.65 10.47C108.854 10.2363 109.106 10.0499 109.389 9.92379C109.673 9.7977 109.98 9.73498 110.29 9.74C111.59 9.74 112.38 10.63 112.38 12.1V12.42H109V12.48C108.986 12.6502 109.008 12.8215 109.063 12.9831C109.118 13.1448 109.205 13.2935 109.32 13.42C109.439 13.5474 109.583 13.6487 109.743 13.7175C109.903 13.7864 110.076 13.8213 110.25 13.82C110.471 13.8458 110.694 13.8054 110.892 13.7039C111.089 13.6024 111.252 13.4444 111.36 13.25H112.29ZM111.41 11.74H109C108.995 11.5802 109.024 11.4212 109.084 11.2731C109.145 11.125 109.235 10.9911 109.35 10.88C109.578 10.6509 109.887 10.5214 110.21 10.52C110.368 10.5183 110.524 10.5492 110.67 10.6107C110.815 10.6722 110.947 10.7631 111.055 10.8775C111.164 10.992 111.248 11.1276 111.303 11.276C111.357 11.4244 111.38 11.5823 111.37 11.74H111.41ZM27.2799 8.25C27.3827 9.56817 26.9664 10.8743 26.1199 11.89C25.7149 12.3925 25.2012 12.7966 24.6175 13.072C24.0338 13.3474 23.3953 13.4869 22.7499 13.48C22.6754 12.2089 23.1027 10.9593 23.9399 10C24.7933 9.01699 25.986 8.39205 27.2799 8.25ZM31.4199 16C30.6875 16.4578 30.082 17.0925 29.6591 17.8457C29.2362 18.5989 29.0095 19.4463 28.9999 20.31C28.9985 21.2841 29.2817 22.2375 29.8146 23.0529C30.3476 23.8684 31.1071 24.5103 31.9999 24.9C31.641 26.0478 31.1082 27.1338 30.4199 28.12C29.4899 29.51 28.5099 30.87 26.9599 30.9C26.3489 30.8963 25.7468 30.7526 25.1999 30.48C24.5775 30.1739 23.8936 30.0132 23.1999 30.01C22.4722 30.0147 21.7546 30.1821 21.0999 30.5C20.5883 30.7441 20.0354 30.8899 19.4699 30.93C17.9899 30.99 16.8599 29.44 15.8999 28.06C13.9999 25.24 12.4999 20.12 14.5099 16.63C14.9755 15.7947 15.6494 15.0941 16.466 14.5964C17.2826 14.0987 18.2141 13.8209 19.1699 13.79C19.9853 13.8248 20.7849 14.0256 21.5199 14.38C21.9632 14.5958 22.4401 14.7344 22.9299 14.79C23.4011 14.727 23.8597 14.5921 24.2899 14.39C25.2227 13.9339 26.2521 13.7109 27.2899 13.74C28.1064 13.7708 28.9046 13.991 29.6213 14.3832C30.3381 14.7754 30.9539 15.3289 31.4199 16Z" fill="#121212"/>
</svg>
