<?xml version="1.0" encoding="UTF-8"?>
<svg width="150px" height="50px" viewBox="0 0 150 50" version="1.1" xmlns="http://www.w3.org/2000/svg" xmlns:xlink="http://www.w3.org/1999/xlink">
    <title>Badge/AppStore/L</title>
    <g id="Badge/AppStore/L" stroke="none" stroke-width="1" fill="none" fill-rule="evenodd">
        <rect id="Background" fill="#121212" x="0" y="0" width="150" height="50" rx="5"></rect>
        <path d="M53.862038,32.8876037 L47.9342957,32.8876037 L46.5107559,37.1745655 L44,37.1745655 L49.6146618,21.3139114 L52.2232491,21.3139114 L57.8379109,37.1745655 L55.284338,37.1745655 L53.862038,32.8876037 Z M48.5482217,30.90939 L53.2469349,30.90939 L50.9306271,23.9519681 L50.8658069,23.9519681 L48.5482217,30.90939 Z M69.9636717,31.3933456 C69.9636717,34.9868094 68.0778497,37.2955449 65.2319974,37.2955449 C63.7610012,37.3740238 62.3754031,36.588228 61.6645945,35.272411 L61.6107447,35.272411 L61.6107447,41 L59.2834289,41 L59.2834289,25.610874 L61.5361814,25.610874 L61.5361814,27.534205 L61.5789858,27.534205 C62.3213728,26.2266372 63.708465,25.4411796 65.189193,25.4898819 C68.0667917,25.4898947 69.9636717,27.809857 69.9636717,31.3933456 Z M67.5715358,31.3933456 C67.5715358,29.0521813 66.3852484,27.513003 64.5752545,27.513003 C62.797057,27.513003 61.6009891,29.0845974 61.6009891,31.3933456 C61.6009891,33.7232959 62.797057,35.2836634 64.5752545,35.2836634 C66.385261,35.2836634 67.5715358,33.7557248 67.5715358,31.3933456 Z M82.442863,31.3933456 C82.442863,34.9868094 80.5570409,37.2955449 77.7111886,37.2955449 C76.2401924,37.3740238 74.8545944,36.588228 74.1437858,35.272411 L74.0899359,35.272411 L74.0899359,41 L71.7626202,41 L71.7626202,25.610874 L74.0153226,25.610874 L74.0153226,27.534205 L74.0581269,27.534205 C74.8005194,26.226638 76.1876169,25.441185 77.6683467,25.4898947 C80.546033,25.4898947 82.442863,27.809857 82.442863,31.3933456 Z M80.0507396,31.3933456 C80.0507396,29.0521813 78.8644397,27.513003 77.0544458,27.513003 C75.2762483,27.513003 74.0801803,29.0845974 74.0801803,31.3933456 C74.0801803,33.7232959 75.2762483,35.2836634 77.0544458,35.2836634 C78.8644522,35.2836634 80.0507396,33.7557248 80.0507396,31.3933456 L80.0507396,31.3933456 Z M90.6905825,32.7553847 C90.8630272,34.3282308 92.3611804,35.3609359 94.4084143,35.3609359 C96.3700644,35.3609359 97.781369,34.3281797 97.781369,32.9099935 C97.781369,31.6789089 96.9301781,30.9417806 94.9147282,30.4366102 L92.8992782,29.9414278 C90.0436453,29.2379545 88.7179369,27.8759026 88.7179369,25.6656928 C88.7179369,22.9291233 91.0562606,21.049448 94.3766178,21.049448 C97.6627115,21.049448 99.9154515,22.9291233 99.9912796,25.6656928 L97.641923,25.6656928 C97.5012872,24.0828715 96.2183832,23.1274517 94.343569,23.1274517 C92.4687549,23.1274517 91.1858634,24.0941112 91.1858634,25.5010577 C91.1858634,26.6223771 92.0052579,27.2821946 94.0096999,27.7873011 L95.7230772,28.2163741 C98.9138065,28.9859568 100.239515,30.2931516 100.239515,32.6130884 C100.239515,35.5804025 97.9219798,37.4388757 94.2359444,37.4388757 C90.7871616,37.4388757 88.4586311,35.6240582 88.3082021,32.7552698 L90.6905825,32.7553847 Z M105.262279,22.8743045 L105.262279,25.610874 L107.418377,25.610874 L107.418377,27.4905493 L105.262279,27.4905493 L105.262279,33.8654772 C105.262279,34.8558294 105.693992,35.3173312 106.641787,35.3173312 C106.897751,35.3127791 107.153301,35.2944466 107.407369,35.2624103 L107.407369,37.1308587 C106.98124,37.2120645 106.548115,37.2488423 106.114685,37.2406239 C103.819178,37.2406239 102.923955,36.361276 102.923955,34.1186372 L102.923955,27.4905493 L101.275398,27.4905493 L101.275398,25.610874 L102.92393,25.610874 L102.92393,22.8743045 L105.262279,22.8743045 Z M108.66708,31.3933456 C108.66708,27.7549872 110.768139,25.4686927 114.04449,25.4686927 C117.331836,25.4686927 119.423114,27.7549361 119.423114,31.3933456 C119.423114,35.041692 117.342844,37.3179986 114.04449,37.3179986 C110.7473,37.3179986 108.66708,35.0416792 108.66708,31.3933456 Z M117.051766,31.3933456 C117.051766,28.8975086 115.930299,27.4244526 114.044477,27.4244526 C112.158655,27.4244526 111.038415,28.9087355 111.038415,31.3933456 C111.038415,33.8991578 112.158655,35.3609998 114.044477,35.3609998 C115.930299,35.3609998 117.051766,33.8991578 117.051766,31.3933456 L117.051766,31.3933456 Z M121.341897,25.610874 L123.561601,25.610874 L123.561601,27.5790869 L123.61545,27.5790869 C123.924995,26.312059 125.063301,25.4400464 126.34267,25.4898692 C126.610873,25.4889141 126.878335,25.5186206 127.140049,25.5784324 L127.140049,27.7986174 C126.80146,27.6930968 126.448253,27.6446489 126.09436,27.6551844 C125.410151,27.6268751 124.747989,27.9049785 124.281738,28.4164727 C123.815486,28.927967 123.591727,29.6217506 123.669213,30.3156565 L123.669213,37.17454 L121.341897,37.17454 L121.341897,25.610874 Z M137.87036,33.7781657 C137.557279,35.8773587 135.552824,37.3179858 132.988256,37.3179858 C129.689902,37.3179858 127.642656,35.0641202 127.642656,31.4482155 C127.642656,27.8210839 129.70091,25.4686799 132.890425,25.4686799 C136.027342,25.4686799 138,27.6664112 138,31.1725635 L138,31.985802 L129.991988,31.985802 L129.991988,32.129235 C129.917221,32.9901291 130.208691,33.8422948 130.792259,34.4689688 C131.375827,35.0956428 132.195245,35.4364244 133.042081,35.40463 C134.171478,35.5125555 135.236279,34.8511262 135.660462,33.778153 L137.87036,33.7781657 Z M130.002955,30.3269089 L135.671457,30.3269089 C135.713692,29.5533252 135.437594,28.796854 134.909682,28.2397366 C134.38177,27.6826193 133.649909,27.3753691 132.890425,27.3920109 C132.124933,27.3873519 131.38933,27.6947461 130.847118,28.2458695 C130.304906,28.7969929 130.001012,29.5461796 130.002955,30.3269089 Z M48.2565433,9.3755059 C49.2445586,9.30319443 50.2122978,9.68657222 50.8933971,10.4201171 C51.5744965,11.153662 51.8971643,12.1600543 51.7725884,13.1622914 C51.7725884,15.5970129 50.4823583,16.9965387 48.2565433,16.9965387 L45.5574506,16.9965387 L45.5574506,9.3755059 L48.2565433,9.3755059 Z M46.7180403,15.9187601 L48.1269029,15.9187601 C48.8329897,15.9618054 49.5205078,15.6780775 49.9985593,15.146357 C50.4766108,14.6146365 50.6943008,13.891532 50.5911851,13.1778225 C50.6867987,12.4670748 50.4659737,11.7499373 49.9891075,11.222553 C49.5122413,10.6951687 48.8292374,10.4127277 48.1269029,10.4524798 L46.7180403,10.4524798 L46.7180403,15.9187601 Z M53.083607,14.1182987 C52.9869116,13.0874265 53.4715811,12.0897647 54.3343463,11.5437298 C55.1971115,10.997695 56.288803,10.997695 57.1515682,11.5437298 C58.0143334,12.0897647 58.4990029,13.0874265 58.4023075,14.1182987 C58.5008426,15.1502787 58.0166156,16.1498756 57.1530854,16.6970859 C56.2895551,17.2442962 55.1963594,17.2442962 54.3328291,16.6970859 C53.4692989,16.1498756 52.9850719,15.1502787 53.083607,14.1182987 Z M57.2576098,14.1182987 C57.2576098,12.8716319 56.708479,12.1425885 55.7447919,12.1425885 C54.777423,12.1425885 54.2332389,12.8716319 54.2332389,14.1183115 C54.2332389,15.3749663 54.7774606,16.0983899 55.7447919,16.0983899 C56.708504,16.0983899 57.2576098,15.3699595 57.2576098,14.1182987 L57.2576098,14.1182987 Z M65.4723055,16.9964238 L64.3178271,16.9964238 L63.1523409,12.7606022 L63.0642901,12.7606022 L61.9036879,16.9964238 L60.7602049,16.9964238 L59.20581,11.2451421 L60.3346157,11.2451421 L61.344789,15.6337077 L61.4279557,15.6337077 L62.5873306,11.2451421 L63.6549855,11.2451421 L64.8143604,15.6337077 L64.9024112,15.6337077 L65.9076879,11.2451421 L67.0205891,11.2451421 L65.4723055,16.9964238 Z M68.3279384,11.2451421 L69.3992626,11.2451421 L69.3992626,12.1587838 L69.4824293,12.1587838 C69.7716342,11.4861019 70.4474224,11.0746158 71.1652374,11.1341252 C71.7210391,11.0915063 72.2656854,11.3089652 72.6453957,11.7251026 C73.0251059,12.14124 73.1986745,12.7108972 73.1170944,13.2732316 L73.1170944,16.9963599 L72.0041931,16.9963599 L72.0041931,13.5582585 C72.0041931,12.6340159 71.6104004,12.1743787 70.7873366,12.1743787 C70.4103448,12.1564708 70.0444843,12.3073673 69.7856724,12.5875078 C69.5268605,12.8676482 69.4009094,13.2490933 69.4408397,13.6318398 L69.4408397,16.9964238 L68.3279384,16.9964238 L68.3279384,11.2451421 Z M74.8904078,9 L76.0033091,9 L76.0033091,16.996411 L74.8904078,16.996411 L74.8904078,9 Z M77.5503654,14.1182987 C77.4537443,13.0873591 77.9384901,12.089672 78.8013194,11.5436287 C79.6641487,10.9975854 80.7558962,10.9975854 81.6187255,11.5436287 C82.4815547,12.089672 82.9663006,13.0873591 82.8696795,14.1182987 C82.9680895,15.1503156 82.4837737,16.1498843 81.6202006,16.6970705 C80.7566276,17.2442567 79.6634173,17.2442567 78.7998442,16.6970705 C77.9362712,16.1498843 77.4519554,15.1503156 77.5503654,14.1182987 L77.5503654,14.1182987 Z M81.7243681,14.1182987 C81.7243681,12.8716319 81.1752373,12.1425885 80.2115503,12.1425885 C79.2441814,12.1425885 78.6999973,12.8716319 78.6999973,14.1183115 C78.6999973,15.3749663 79.244219,16.0983899 80.2115503,16.0983899 C81.1752498,16.0983899 81.7243681,15.3699595 81.7243681,14.1182987 L81.7243681,14.1182987 Z M84.0412896,15.3699595 C84.0412896,14.3347 84.7970911,13.7378755 86.138679,13.6530546 L87.666174,13.5632525 L87.666174,13.0668311 C87.666174,12.4593928 87.2723813,12.1163925 86.5116957,12.1163925 C85.8904311,12.1163925 85.4599453,12.3490145 85.3364163,12.7556338 L84.2589808,12.7556338 C84.3727167,11.7677723 85.2838313,11.1341508 86.5630534,11.1341508 C87.9768126,11.1341508 88.7741912,11.8519546 88.7741912,13.0668311 L88.7741912,16.9964365 L87.7028671,16.9964365 L87.7028671,16.188192 L87.6148163,16.188192 C87.2509523,16.7784341 86.6038837,17.1233974 85.9210003,17.0911943 C85.4422827,17.1419793 84.9648412,16.9838566 84.6067079,16.6559171 C84.2485746,16.3279776 84.0431757,15.8608292 84.0412896,15.3699595 L84.0412896,15.3699595 Z M87.666174,14.8785194 L87.666174,14.397693 L86.2891079,14.4874951 C85.5125178,14.5405002 85.1603022,14.8099193 85.1603022,15.3169417 C85.1603022,15.8345651 85.6005686,16.1357872 86.2059913,16.1357872 C86.5643885,16.1727884 86.9221648,16.0598623 87.1974178,15.82286 C87.4726707,15.5858577 87.6418309,15.2450732 87.666174,14.8785194 Z M90.2368536,14.1182987 C90.2368536,12.3009907 91.1528647,11.149733 92.5776193,11.149733 C93.2970493,11.1159248 93.9708623,11.5090856 94.306901,12.1587454 L94.3900678,12.1587454 L94.3900678,9 L95.502969,9 L95.502969,16.996411 L94.4365414,16.996411 L94.4365414,16.0877506 L94.3484907,16.0877506 C93.9870506,16.7320203 93.3049362,17.1185353 92.5776318,17.0911943 C91.1430841,17.0912582 90.2368536,15.9399749 90.2368536,14.1182987 Z M91.3864854,14.1182987 C91.3864854,15.3381565 91.9502809,16.0721939 92.893192,16.0721939 C93.8311814,16.0721939 94.4108939,15.3275682 94.4108939,14.1232927 C94.4108939,12.924637 93.8250951,12.1693975 92.893192,12.1693975 C91.9563547,12.1693975 91.3864479,12.9084162 91.3864479,14.1182987 L91.3864854,14.1182987 Z M100.107458,14.1182987 C100.010762,13.0874265 100.495432,12.0897647 101.358197,11.5437298 C102.220962,10.997695 103.312653,10.997695 104.175419,11.5437298 C105.038184,12.0897647 105.522853,13.0874265 105.426158,14.1182987 C105.524693,15.1502787 105.040466,16.1498756 104.176936,16.6970859 C103.313406,17.2442962 102.22021,17.2442962 101.35668,16.6970859 C100.493149,16.1498756 100.008922,15.1502787 100.107458,14.1182987 L100.107458,14.1182987 Z M104.281448,14.1182987 C104.281448,12.8716319 103.732329,12.1425885 102.768642,12.1425885 C101.801274,12.1425885 101.257089,12.8716319 101.257089,14.1183115 C101.257089,15.3749663 101.801311,16.0983899 102.768642,16.0983899 C103.732342,16.0983899 104.281448,15.3699595 104.281448,14.1182987 Z M106.919402,11.2451421 L107.990726,11.2451421 L107.990726,12.1587838 L108.073893,12.1587838 C108.363098,11.4861019 109.038886,11.0746158 109.756701,11.1341252 C110.312503,11.0915063 110.857149,11.3089652 111.236859,11.7251026 C111.616569,12.14124 111.790138,12.7108972 111.708558,13.2732316 L111.708558,16.9963599 L110.595657,16.9963599 L110.595657,13.5582585 C110.595657,12.6340159 110.201864,12.1743787 109.3788,12.1743787 C109.001808,12.1564708 108.635948,12.3073673 108.377136,12.5875078 C108.118324,12.8676482 107.992373,13.2490933 108.032303,13.6318398 L108.032303,16.9964238 L106.919402,16.9964238 L106.919402,11.2451421 Z M117.997082,9.81325127 L117.997082,11.2713381 L119.218835,11.2713381 L119.218835,12.2273966 L117.997082,12.2273966 L117.997082,15.1847355 C117.997082,15.7871798 118.240458,16.0509791 118.79446,16.0509791 C118.936293,16.0505161 119.077983,16.0417698 119.218835,16.0247831 L119.218835,16.9702277 C119.018976,17.0066936 118.816483,17.0260939 118.613462,17.0282268 C117.375817,17.0282268 116.882953,16.5841847 116.882953,15.4753439 L116.882953,12.2273455 L115.987743,12.2273455 L115.987743,11.271287 L116.882953,11.271287 L116.882953,9.81325127 L117.997082,9.81325127 Z M120.738979,9 L121.842099,9 L121.842099,12.1693848 L121.93015,12.1693848 C122.233247,11.4908157 122.920863,11.0788052 123.649589,11.1391192 C124.202234,11.1084494 124.739508,11.3306958 125.115068,11.7453235 C125.490628,12.1599511 125.665358,12.7237741 125.591665,13.2832196 L125.591665,16.9964238 L124.477649,16.9964238 L124.477649,13.5632269 C124.477649,12.6445913 124.058121,12.1793472 123.271801,12.1793472 C122.884619,12.1469613 122.503162,12.2905186 122.229408,12.5716404 C121.955655,12.8527622 121.817519,13.2427828 121.85193,13.637434 L121.85193,16.9964238 L120.739029,16.9964238 L120.738979,9 Z M132.080811,15.4435408 C131.768741,16.5283946 130.739385,17.2293307 129.637317,17.1074279 C128.885378,17.1276723 128.162722,16.8097957 127.661088,16.2381383 C127.159454,15.666481 126.929554,14.8988349 127.032387,14.1388749 C126.932285,13.3768029 127.161324,12.6079268 127.660164,12.0314399 C128.159005,11.4549531 128.878563,11.1275816 129.632421,11.134138 C131.201493,11.134138 132.148073,12.2274477 132.148073,14.0334523 L132.148073,14.4295088 L128.166077,14.4295088 L128.166077,14.4931149 C128.130839,14.9198891 128.273752,15.3420236 128.55967,15.6557025 C128.845588,15.9693815 129.24798,16.1454992 129.667887,16.1407429 C130.212361,16.2074075 130.74237,15.9319578 131.009487,15.4435025 L132.080811,15.4435408 Z M128.166052,13.5900615 L131.014346,13.5900615 C131.042715,13.1997403 130.908147,12.8153508 130.643805,12.5316191 C130.379463,12.2478874 130.00993,12.0912006 129.626272,12.1001716 C129.237416,12.095189 128.863067,12.2505799 128.588142,12.5310952 C128.313218,12.8116104 128.161021,13.1934733 128.166077,13.5900615 L128.166052,13.5900615 Z M31.3135869,25.1666512 C31.3164751,27.8461359 32.9254759,30.2642727 35.4,31.308044 C34.924094,32.8498606 34.2067313,34.306935 33.274484,35.6252945 C32.0225122,37.4930489 30.7098302,39.3177776 28.6263648,39.3515058 C26.6019299,39.3981054 25.9215749,38.1633409 23.5996081,38.1633409 C21.255888,38.1633409 20.5307248,39.3177916 18.5890892,39.3981054 C16.6049132,39.4713972 15.0885152,37.4046381 13.7910212,35.5544038 C11.1976991,31.7758831 9.17833151,24.9059278 11.8855851,20.2314181 C13.1568704,17.9531255 15.533856,16.5074103 18.1468718,16.4232177 C20.1328397,16.3824674 21.9771037,17.7608141 23.1981254,17.7608141 C24.3959662,17.7608141 26.6748045,16.1119718 29.0254397,16.3580368 C31.2597107,16.4277525 33.3302145,17.5440697 34.6123488,19.3702324 C32.5891638,20.6107013 31.3441828,22.7983194 31.3135869,25.1666512 L31.3135869,25.1666512 Z M27.4897942,13.8730257 C26.3876678,15.2401109 24.7177105,16.0275491 22.9588961,16.0094889 C22.8470428,14.2953857 23.4229909,12.6072399 24.5598852,11.3168727 C25.7112241,10.0090253 27.3143796,9.18179228 29.0499226,9 C29.1854462,10.764912 28.6257861,12.5129977 27.4897942,13.8730257 L27.4897942,13.8730257 Z" id="App-Store" fill="#FFFFFF"></path>
    </g>
</svg>