<svg width="132" height="42" viewBox="0 0 132 42" fill="none" xmlns="http://www.w3.org/2000/svg">
<g clip-path="url(#clip0_2429_7364)">
<path d="M0.24707 15.651H19.5801V8.41101L0.24707 15.65V15.651Z" fill="#FF9D28"/>
<path d="M19.5801 8.41V34L28.7201 5L19.5801 8.41Z" fill="#68C5ED"/>
<path d="M12.2783 15.65L19.5803 33.982V15.65H12.2783Z" fill="#044D80"/>
<path d="M0.24707 15.65L14.1581 20.352L12.2781 15.65H0.24807H0.24707Z" fill="#E54747"/>
<path d="M128.044 21.945H127.674C127.551 21.9364 127.428 21.9364 127.305 21.945C126.866 21.945 126.427 22.033 125.987 22.103C125.582 22.1591 125.19 22.2839 124.827 22.472C124.507 22.644 124.226 22.88 124.001 23.166C123.77 23.4845 123.652 23.8715 123.667 24.265C123.65 24.7238 123.8 25.1731 124.089 25.53C124.274 25.7211 124.499 25.8678 124.749 25.9591C124.998 26.0503 125.265 26.0838 125.53 26.057C125.863 26.0536 126.194 26.0035 126.514 25.908C126.799 25.8309 127.072 25.7123 127.323 25.556C127.526 25.431 127.709 25.277 127.868 25.1C127.979 24.9723 128.047 24.812 128.061 24.643L128.044 21.945ZM131.453 25.029C131.375 26.0853 131.588 27.1428 132.068 28.087C131.786 28.2082 131.492 28.2967 131.19 28.351C130.9 28.4033 130.606 28.4327 130.311 28.439C129.8 28.4709 129.291 28.3385 128.861 28.061C128.521 27.8009 128.295 27.4204 128.228 26.998C127.787 27.4496 127.257 27.8057 126.673 28.044C125.931 28.342 125.134 28.4823 124.335 28.456C123.848 28.457 123.363 28.392 122.894 28.263C122.417 28.1351 121.971 27.9108 121.584 27.604C121.177 27.2791 120.847 26.8679 120.618 26.4C120.36 25.823 120.234 25.1958 120.249 24.564C120.222 23.79 120.447 23.0281 120.89 22.393C121.326 21.8257 121.889 21.3683 122.534 21.057C123.207 20.7323 123.923 20.5047 124.66 20.381C125.353 20.2655 126.051 20.1861 126.752 20.143C126.965 20.13 127.18 20.13 127.393 20.143H127.956V19.66C127.983 19.3913 127.948 19.1199 127.853 18.8669C127.759 18.6139 127.608 18.386 127.411 18.201C126.888 17.868 126.271 17.7136 125.653 17.761C124.956 17.7519 124.263 17.8775 123.614 18.131C123.011 18.387 122.424 18.681 121.857 19.01C121.609 18.7092 121.41 18.371 121.268 18.008C121.145 17.7542 121.07 17.4799 121.048 17.199C121.058 17.0557 121.101 16.9166 121.172 16.792C121.244 16.6674 121.342 16.5604 121.461 16.479C121.807 16.2077 122.192 15.9912 122.604 15.837C123.143 15.6359 123.699 15.483 124.265 15.38C124.915 15.265 125.573 15.206 126.233 15.204C127.051 15.182 127.869 15.2797 128.659 15.494C129.26 15.654 129.815 15.955 130.276 16.374C130.694 16.8 130.996 17.326 131.154 17.902C131.341 18.602 131.43 19.323 131.418 20.047L131.453 25.029ZM114.159 16.759C114.285 16.5749 114.423 16.3992 114.572 16.233C114.764 16.026 114.987 15.848 115.231 15.705C115.511 15.549 115.805 15.419 116.11 15.319C116.431 15.2058 116.77 15.1519 117.111 15.16C117.331 15.16 117.551 15.16 117.797 15.204C118.021 15.2455 118.239 15.3133 118.447 15.406C118.649 15.483 118.823 15.618 118.948 15.793C119.082 15.9697 119.153 16.1862 119.15 16.408C119.141 16.8679 119.042 17.3216 118.86 17.744C118.696 18.1886 118.499 18.6205 118.271 19.036C118.002 18.8106 117.708 18.6189 117.393 18.465C117.053 18.3264 116.688 18.2603 116.321 18.271C115.82 18.251 115.33 18.421 114.95 18.746C114.773 18.8835 114.63 19.0593 114.531 19.2603C114.432 19.4612 114.379 19.6819 114.378 19.906V28.544H110.696V15.512C110.802 15.482 110.911 15.467 111.021 15.468H111.9C112.414 15.4539 112.924 15.5655 113.385 15.793C113.577 15.9017 113.744 16.0492 113.876 16.2263C114.007 16.4033 114.101 16.6058 114.15 16.821L114.159 16.759ZM103.859 16.759C103.986 16.576 104.124 16.399 104.272 16.233C104.465 16.026 104.687 15.8481 104.931 15.705C105.211 15.549 105.506 15.419 105.81 15.319C106.131 15.2058 106.471 15.1519 106.812 15.16C107.032 15.16 107.251 15.16 107.489 15.204C107.716 15.244 107.937 15.312 108.148 15.406C108.346 15.488 108.519 15.622 108.649 15.793C108.783 15.9697 108.854 16.1862 108.851 16.408C108.841 16.8678 108.743 17.3215 108.561 17.744C108.397 18.1886 108.2 18.6205 107.972 19.036C107.702 18.8126 107.407 18.621 107.093 18.465C106.752 18.3277 106.388 18.2617 106.021 18.271C105.518 18.2529 105.026 18.4222 104.641 18.746C104.467 18.8858 104.327 19.0623 104.23 19.2629C104.132 19.4635 104.081 19.6831 104.079 19.906V28.544H100.45V15.512C100.555 15.4813 100.665 15.4665 100.775 15.468H101.645C102.162 15.454 102.674 15.5655 103.139 15.793C103.329 15.9039 103.495 16.0522 103.626 16.2288C103.757 16.4055 103.851 16.6069 103.903 16.821L103.859 16.759ZM94.2808 20.451C94.3108 19.7253 94.1339 19.006 93.7708 18.377C93.576 18.0982 93.3104 17.8764 93.0015 17.7342C92.6925 17.592 92.3513 17.5346 92.0128 17.568C91.6812 17.5543 91.3508 17.6161 91.0464 17.7486C90.7421 17.8811 90.4718 18.0809 90.2558 18.333C89.7823 18.9335 89.5472 19.6877 89.5958 20.451H94.2808ZM93.0508 25.855C93.4508 25.863 93.8508 25.813 94.2368 25.705C94.5389 25.6135 94.8327 25.4964 95.1148 25.355C95.3634 25.2253 95.5988 25.0719 95.8178 24.897L96.3458 24.432C96.5958 24.757 96.8218 25.101 97.0218 25.46C97.2218 25.769 97.3418 26.122 97.3738 26.488C97.3589 26.7068 97.2911 26.9186 97.1761 27.1054C97.0611 27.2921 96.9025 27.4481 96.7138 27.56C96.229 27.9012 95.6877 28.1541 95.1148 28.307C94.3332 28.5198 93.5259 28.6234 92.7158 28.615C91.8787 28.6137 91.0454 28.5014 90.2378 28.281C89.4094 28.0694 88.643 27.6643 88.0015 27.099C87.36 26.5337 86.8618 25.8242 86.5478 25.029C86.1213 23.9505 85.9205 22.7961 85.9578 21.637C85.9313 20.6479 86.1079 19.664 86.4768 18.746C86.7913 17.9863 87.2614 17.3009 87.8568 16.734C88.4269 16.2129 89.0962 15.8122 89.8248 15.556C90.5443 15.3144 91.2979 15.1895 92.0568 15.186C92.9259 15.1628 93.7905 15.3187 94.5968 15.644C95.2464 15.9224 95.8213 16.35 96.2748 16.892C96.7078 17.405 97.0278 18.004 97.2148 18.649C97.4148 19.337 97.5128 20.051 97.5048 20.767V21.145C97.5178 21.297 97.5178 21.45 97.5048 21.602V22.059C97.5188 22.176 97.5188 22.294 97.5048 22.41H89.6048C89.6188 23.313 89.9278 24.186 90.4848 24.897C90.8068 25.2373 91.2017 25.5004 91.6399 25.6663C92.0781 25.8322 92.5481 25.8967 93.0148 25.855H93.0508ZM76.8008 26.207C76.6756 25.8463 76.596 25.4714 76.5638 25.091C76.5421 24.6986 76.5421 24.3053 76.5638 23.913V11.557C76.6958 11.544 76.8278 11.544 76.9598 11.557H77.7678C78.0628 11.554 78.3578 11.584 78.6468 11.645C78.9258 11.685 79.1888 11.797 79.4108 11.97C79.6518 12.14 79.8478 12.367 79.9828 12.63C80.0968 12.941 80.1478 13.273 80.1318 13.605V15.503H83.8668V18.201H80.1498V23.887C80.1498 25.135 80.6498 25.741 81.6608 25.741C81.8958 25.738 82.1298 25.703 82.3548 25.636C82.5577 25.5562 82.7572 25.4681 82.9528 25.372C83.1348 25.282 83.3028 25.166 83.4528 25.029L83.7348 24.792C83.9648 25.11 84.1698 25.445 84.3498 25.794C84.4818 26.044 84.5568 26.32 84.5698 26.602C84.5686 26.7284 84.5423 26.8533 84.4926 26.9695C84.4428 27.0857 84.3705 27.1909 84.2798 27.279C84.0568 27.529 83.7928 27.736 83.4978 27.894C83.1138 28.11 82.6988 28.264 82.2678 28.351C81.7518 28.471 81.2238 28.531 80.6938 28.527C79.7922 28.5739 78.8968 28.3537 78.1198 27.894C77.5453 27.4545 77.1039 26.8643 76.8448 26.189L76.8008 26.207ZM70.2718 21.611C70.2743 21.1129 70.2301 20.6158 70.1398 20.126C70.0577 19.7039 69.9092 19.2975 69.6998 18.922C69.4967 18.5914 69.2087 18.3214 68.8658 18.14C68.4776 17.9312 68.0402 17.831 67.5998 17.85C67.0478 17.8 66.4962 17.9494 66.0448 18.271C65.9126 18.3899 65.8063 18.5347 65.7323 18.6963C65.6583 18.858 65.6183 19.0332 65.6148 19.211V24.871C65.8348 25.084 66.0948 25.254 66.3788 25.372C66.7688 25.576 67.2048 25.675 67.6438 25.662C68.0418 25.6856 68.4385 25.5978 68.7893 25.4084C69.1401 25.2191 69.4312 24.9356 69.6298 24.59C70.1062 23.6718 70.3279 22.6438 70.2718 21.611ZM65.4558 16.69C65.8305 16.2787 66.2696 15.9312 66.7558 15.661C67.4572 15.294 68.2418 15.1155 69.0328 15.143C69.6738 15.1387 70.3104 15.2488 70.9128 15.468C71.5128 15.7 72.0508 16.067 72.4868 16.54C72.989 17.1092 73.361 17.7812 73.5768 18.509C73.8878 19.479 74.0338 20.495 74.0068 21.514C74.0412 22.6784 73.8775 23.8403 73.5228 24.95C73.2729 25.7356 72.8565 26.458 72.3018 27.068C71.8365 27.5691 71.2581 27.9518 70.6148 28.184C70.0175 28.4009 69.3873 28.5138 68.7518 28.518C68.3035 28.5202 67.857 28.461 67.4248 28.342C67.0891 28.2459 66.7648 28.1135 66.4578 27.947C66.2371 27.8344 66.0306 27.6957 65.8428 27.534C65.7468 27.4475 65.6613 27.3502 65.5878 27.244V33.817H61.9498V15.53C62.0609 15.5184 62.1728 15.5184 62.2838 15.53C62.3888 15.53 62.5208 15.53 62.6528 15.486H63.1528C63.6713 15.4666 64.1876 15.5622 64.6648 15.766C64.8591 15.8608 65.0291 15.9989 65.1617 16.1696C65.2943 16.3404 65.386 16.5392 65.4298 16.751L65.4558 16.69ZM55.4198 21.962H55.0508C54.925 21.9532 54.7987 21.9532 54.6728 21.962C54.2338 21.962 53.7948 22.05 53.3638 22.121C52.9584 22.1745 52.5657 22.2994 52.2038 22.49C51.8808 22.66 51.5958 22.897 51.3688 23.184C51.1457 23.5057 51.0318 23.8906 51.0438 24.282C51.0278 24.74 51.1738 25.188 51.4568 25.548C51.6425 25.7403 51.8697 25.8877 52.1209 25.979C52.3722 26.0703 52.641 26.1031 52.9068 26.075C53.2238 26.062 53.5368 26.005 53.8388 25.908C54.125 25.8339 54.3977 25.7151 54.6468 25.556C54.8528 25.436 55.0368 25.281 55.1918 25.1C55.3052 24.9725 55.3759 24.8126 55.3938 24.643L55.4198 21.962ZM58.8478 25.029C58.7651 26.0856 58.9781 27.1444 59.4628 28.087C59.1808 28.207 58.8858 28.296 58.5838 28.351C58.2938 28.403 57.9998 28.432 57.7048 28.439C57.1786 28.4826 56.6529 28.3496 56.2108 28.061C55.8719 27.8006 55.6457 27.4201 55.5788 26.998C55.1371 27.4493 54.6075 27.8053 54.0228 28.044C53.2806 28.3409 52.4849 28.4812 51.6858 28.456C51.1986 28.4573 50.7135 28.3924 50.2438 28.263C49.7649 28.1334 49.3168 27.9094 48.9258 27.604C48.5215 27.2783 48.1943 26.8671 47.9678 26.4C47.7034 25.8248 47.5741 25.1968 47.5898 24.564C47.5612 23.7884 47.7898 23.0252 48.2398 22.393C48.6768 21.826 49.2398 21.368 49.8838 21.057C50.5537 20.731 51.267 20.5034 52.0018 20.381C52.6973 20.2655 53.3982 20.1861 54.1018 20.143C54.3126 20.1298 54.524 20.1298 54.7348 20.143H55.3328V19.66C55.3602 19.3912 55.3253 19.1198 55.2308 18.8668C55.1363 18.6137 54.9847 18.3859 54.7878 18.201C54.2636 17.8708 53.6477 17.7167 53.0298 17.761C52.3357 17.7525 51.6464 17.8782 50.9998 18.131C50.3948 18.384 49.8078 18.677 49.2428 19.01C48.9891 18.7116 48.787 18.3729 48.6448 18.008C48.5047 17.7306 48.4182 17.4294 48.3898 17.12C48.4006 16.9757 48.4443 16.8359 48.5174 16.7111C48.5906 16.5863 48.6913 16.4799 48.8118 16.4C49.1531 16.1267 49.5359 15.91 49.9458 15.758C50.485 15.5581 51.0404 15.4052 51.6058 15.301C52.2563 15.1864 52.9154 15.1275 53.5758 15.125C54.394 15.102 55.2111 15.1997 56.0008 15.415C56.604 15.5767 57.1607 15.8782 57.6258 16.295C58.0438 16.721 58.3458 17.247 58.5058 17.823C58.6918 18.523 58.7798 19.243 58.7688 19.967L58.8478 25.029ZM45.1558 27.059C44.9936 27.208 44.8171 27.3406 44.6288 27.455C44.3246 27.6442 44.0039 27.8059 43.6708 27.938C43.1948 28.118 42.7038 28.256 42.2028 28.351C41.5538 28.47 40.8948 28.529 40.2348 28.527C38.9636 28.545 37.7011 28.315 36.5178 27.85C35.5159 27.4146 34.6306 26.7493 33.9338 25.908C33.2566 25.0544 32.7629 24.0702 32.4838 23.017C32.1495 21.8125 31.9869 20.5669 32.0008 19.317C31.989 18.0585 32.1666 16.8055 32.5278 15.6C32.8418 14.5207 33.3711 13.5161 34.0838 12.647C34.7815 11.805 35.6659 11.1373 36.6668 10.697C37.8204 10.2126 39.0629 9.97578 40.3138 10.002C40.9305 9.99976 41.5458 10.0587 42.1508 10.178C42.6468 10.287 43.1338 10.431 43.6098 10.608C43.9688 10.749 44.3128 10.926 44.6378 11.136C44.8568 11.272 45.0628 11.428 45.2528 11.601C45.4238 11.737 45.5648 11.908 45.6658 12.102C45.7798 12.294 45.8408 12.512 45.8418 12.735C45.8268 13.117 45.6878 13.485 45.4458 13.781C45.1867 14.1374 44.8925 14.467 44.5678 14.765C44.3478 14.545 44.1108 14.335 43.8468 14.115C43.5739 13.8876 43.2795 13.6874 42.9678 13.517C42.61 13.3436 42.2363 13.2053 41.8518 13.104C41.3954 12.987 40.926 12.9279 40.4548 12.928C39.7122 12.8945 38.974 13.0593 38.3161 13.4053C37.6582 13.7513 37.1041 14.2661 36.7108 14.897C36.3313 15.5099 36.0638 16.1854 35.9208 16.892C35.7651 17.6464 35.6854 18.4146 35.6828 19.185C35.6838 19.985 35.7628 20.783 35.9198 21.567C36.0768 22.289 36.3758 22.973 36.7988 23.579C37.1623 24.175 37.6663 24.6729 38.2668 25.029C38.9897 25.3959 39.7936 25.5745 40.6038 25.548C41.0637 25.5515 41.5219 25.4922 41.9658 25.372C42.3365 25.2418 42.693 25.0742 43.0298 24.872C43.3358 24.712 43.6298 24.53 43.9078 24.326L44.4978 23.826C44.6028 23.957 44.7168 24.106 44.8658 24.282C45.0158 24.451 45.1478 24.633 45.2618 24.827C45.3938 25.029 45.4818 25.223 45.5868 25.416C45.6428 25.574 45.6698 25.741 45.6658 25.908C45.671 26.1122 45.6257 26.3145 45.5338 26.497C45.4158 26.687 45.2768 26.864 45.1208 27.024L45.1558 27.059Z" fill="#044D80"/>
</g>
<defs>
<clipPath id="clip0_2429_7364">
<rect width="132" height="42" fill="white"/>
</clipPath>
</defs>
</svg>
