<svg version="1.2" xmlns="http://www.w3.org/2000/svg" viewBox="0 0 68 42" width="68" height="42"><style>.a{fill:#f42525}.b{fill:#fff}</style><path class="a" d="m67.1 41.7h-66.5v-41.7h66.5z"/><path class="b" d="m14.2 11.8l1.8 5.1-4.3-3.2-4.3 3.2 1.8-5.1v-0.1l-4.5-3h5.4l1.5-5.1 1.6 5.1h5.5l-4.5 3z"/><path class="b" d="m26.1 17l0.3-1.1 0.4 1.1-0.3 1z"/><path class="b" d="m26.8 17h1.1l-0.9 0.6h-1z"/><path class="b" d="m27 17.6l0.4 1-0.9-0.6-0.4-1z"/><path class="b" d="m26.2 17h-1.1l0.9 0.6h1z"/><path class="b" d="m26 17.6l-0.4 1 0.9-0.6 0.3-1z"/><path class="b" d="m21.1 22.2l0.6-0.9 0.1 1.1-0.6 0.9z"/><path class="b" d="m21.8 22.4l1 0.3-1 0.4-1-0.4z"/><path class="b" d="m21.8 23.1v1.1l-0.6-0.9-0.1-1z"/><path class="b" d="m21.2 22.2l-1.1-0.3 0.7 0.9 1 0.2z"/><path class="b" d="m20.8 22.8l-0.7 0.9 1.1-0.4 0.6-0.9z"/><path class="b" d="m27.5 10.5l0.8-0.7-0.3 1.1-0.8 0.6z"/><path class="b" d="m28 10.9l0.9 0.6h-1.1l-0.8-0.6z"/><path class="b" d="m27.8 11.5l-0.2 1.1-0.4-1.1 0.2-1z"/><path class="b" d="m27.5 10.5l-0.9-0.6 0.4 1 0.8 0.6z"/><path class="b" d="m27 10.9l-0.9 0.7 1.1-0.1 0.8-0.6z"/><path class="b" d="m24.3 4.4l0.6-0.9 0.1 1.1-0.6 0.8z"/><path class="b" d="m25 4.6l1 0.3-1 0.3-1-0.3z"/><path class="b" d="m25 5.2v1.1l-0.6-0.8-0.1-1.1z"/><path class="b" d="m24.4 4.4l-1.1-0.3 0.7 0.8 1 0.3z"/><path class="b" d="m24 4.9l-0.7 0.9 1.1-0.3 0.5-0.9z"/></svg>