<svg version="1.2" xmlns="http://www.w3.org/2000/svg" viewBox="0 0 67 43" width="67" height="43"><style>.a{fill:#2e4593}.b{fill:#fcf5ff}.c{fill:#f42525}.d{fill:#fff}.e{fill:#cd002a}</style><path class="a" d="m66.7 0.9v41.7h-66.5v-41.7z"/><path class="b" d="m66.7 38.2v4.4h-6.9l-20.4-12.8-2.1-1.3-2.4-1.5-0.8-0.5-2.4-1.6-1-0.5-0.7-0.5-1.6-1-0.5-0.3-0.7-0.5-7.3-4.5-3.2-2.1-16.5-10.3v-4.3-0.1l0.2 0.1h6.7l20.8 13 2.1 1.3 0.5 0.3 3.3 2.1 0.3 0.2 1.3 0.8 1.9 1.2 0.4 0.2 1.7 1.1 1.6 1 4.5 2.8 3.3 2.1z"/><path class="c" d="m66.7 42.5l0.1 0.1h-4.5l-22.9-14.4-2-1.2-0.1-0.1-1.9-1.2-1.2-0.8-2.2-1.3-2-1.3-0.3-0.2-1.3-0.8-0.5-0.3-5.5-3.4-3.2-2.1-19-11.9v-2.8l0.2 0.1 23.4 14.6 3.2 2.1 0.9 0.5 2.1 1.3 0.7 0.5 1.3 0.8 2.3 1.4 3 1.9 0.4 0.2 1.1 0.7 0.6 0.4 2.6 1.7z"/><path class="b" d="m66.7 1.7v4.3l-15.1 9.5-3.3 2.1-7.3 4.5-1.6 1.1-1.7 1-0.4 0.3-0.7 0.4-1.2 0.8-1.3 0.8-0.8 0.5-3.3 2.1-2.1 1.3-19.5 12.2h-8.2v-3.5l19.2-12.1 3.3-2.1 4.5-2.8 0.7-0.4 0.5-0.4 1.6-0.9 0.7-0.5 3.4-2.1 0.3-0.2 2.9-1.8 0.4-0.3 1.7-1 21.7-13.6h5.1z"/><path class="c" d="m66.6 1.9l-21.8 13.6-3.2 2.1-2.2 1.3-1.7 1.1-0.4 0.2-3 1.9-2.3 1.5-1.3 0.8-0.7 0.4-0.2 0.1-1.9 1.2-1.3 0.9-24.9 15.6h-1.5v-2l21.7-13.6 3.3-2.1 2.7-1.7 0.5-0.3 1.3-0.8 0.3-0.2 2-1.2 3.4-2.1 1.5-1 0.4-0.3 2.1-1.2 0.8-0.6 23.4-14.6h2.3 0.8v0.9z"/><path class="d" d="m66.8 27h-66.7v-11.5h66.7z"/><path class="c" d="m66.8 24.9h-66.7v-7.3h66.7z"/><path class="e" d="m37.3 0.9v41.7h-7.3v-41.7z"/><path class="d" d="m37.3 27h2.1v15.6h-11.5v-15.6h2.1v-11.5h-2.1v-14.6h11.5v14.6h-2.1z"/><path class="c" d="m37.4 0.9v41.7h-7.5v-41.7z"/></svg>