<svg width="128" height="34" viewBox="0 0 128 34" fill="none" xmlns="http://www.w3.org/2000/svg">
<mask id="mask0_27502_7102" style="mask-type:luminance" maskUnits="userSpaceOnUse" x="1" y="1" width="32" height="32">
<path d="M9 2H25C28.866 2 32 5.134 32 9V25C32 28.866 28.866 32 25 32H9C5.134 32 2 28.866 2 25V9C2 5.134 5.134 2 9 2Z" fill="white" stroke="black" stroke-width="2"/>
</mask>
<g mask="url(#mask0_27502_7102)">
<path d="M9 2H25C28.866 2 32 5.134 32 9V25C32 28.866 28.866 32 25 32H9C5.134 32 2 28.866 2 25V9C2 5.134 5.134 2 9 2Z" fill="#E2FF5E" stroke="black" stroke-width="2"/>
<path d="M2 2H32V32H2V2Z" fill="url(#paint0_linear_27502_7102)" stroke="black" stroke-width="2"/>
<path d="M14.625 7.5C14.625 11.435 11.435 14.625 7.5 14.625V19.375H14.625V26.5H19.375C19.375 22.565 22.565 19.375 26.5 19.375V14.625H19.375V7.5H14.625Z" fill="url(#paint1_linear_27502_7102)"/>
<path fill-rule="evenodd" clip-rule="evenodd" d="M16.625 17.375V24.5H17.5949C18.3627 21.0661 21.0661 18.3627 24.5 17.5949V16.625H17.375V9.5H16.4051C15.6373 12.9339 12.9339 15.6373 9.5 16.4051V17.375H16.625ZM7.5 14.625C11.435 14.625 14.625 11.435 14.625 7.5H19.375V14.625H26.5V19.375C22.565 19.375 19.375 22.565 19.375 26.5H14.625V19.375H7.5V14.625Z" fill="black"/>
</g>
<path d="M24.9994 1.6665H8.99936C4.94926 1.6665 1.66602 4.94974 1.66602 8.99987V24.9999C1.66602 29.0499 4.94926 32.3332 8.99936 32.3332H24.9994C29.0495 32.3332 32.3327 29.0499 32.3327 24.9999V8.99987C32.3327 4.94974 29.0495 1.6665 24.9994 1.6665Z" stroke="black" stroke-width="2"/>
<path d="M127.584 25.2387H124.856L124.57 22.6867C124.159 23.6107 123.529 24.3221 122.678 24.8207C121.827 25.3047 120.808 25.5467 119.62 25.5467C117.699 25.5467 116.195 24.9747 115.11 23.8307C114.039 22.6867 113.504 21.0734 113.504 18.9907V18.8147C113.504 16.7614 114.054 15.1554 115.154 13.9967C116.269 12.8381 117.794 12.2587 119.73 12.2587C120.815 12.2587 121.754 12.4714 122.546 12.8967C123.353 13.3074 123.983 13.9161 124.438 14.7227V8.38672H127.584V25.2387ZM120.588 22.8407C121.849 22.8407 122.825 22.5034 123.514 21.8287C124.203 21.1541 124.548 20.2007 124.548 18.9687V18.8367C124.548 17.6194 124.203 16.6587 123.514 15.9547C122.825 15.2361 121.879 14.8767 120.676 14.8767C119.415 14.8767 118.454 15.2141 117.794 15.8887C117.149 16.5634 116.826 17.5461 116.826 18.8367V18.9907C116.826 20.2521 117.141 21.2127 117.772 21.8727C118.417 22.5181 119.356 22.8407 120.588 22.8407Z" fill="black"/>
<path d="M105.275 14.9428C104.102 14.9428 103.214 15.2875 102.613 15.9768C102.012 16.6661 101.711 17.6855 101.711 19.0348V25.2388H98.4551V12.5888H101.205L101.491 15.2288C101.916 14.2608 102.54 13.5201 103.361 13.0068C104.197 12.4935 105.187 12.2368 106.331 12.2368C108.003 12.2368 109.308 12.7282 110.247 13.7108C111.186 14.6935 111.655 16.0575 111.655 17.8028V25.2388H108.399V18.5948C108.399 17.3335 108.142 16.4095 107.629 15.8228C107.13 15.2362 106.346 14.9428 105.275 14.9428Z" fill="black"/>
<path d="M92.8872 21.4988H96.4072C95.9085 22.8628 95.0652 23.8895 93.8772 24.5788C92.7039 25.2682 91.2005 25.6128 89.3672 25.6128C87.0499 25.6128 85.2899 25.0702 84.0872 23.9848C82.8845 22.8848 82.2832 21.2862 82.2832 19.1888V18.9908C82.2832 16.9522 82.9359 15.3168 84.2412 14.0848C85.5465 12.8528 87.3065 12.2368 89.5212 12.2368C91.7065 12.2368 93.4225 12.8308 94.6692 14.0188C95.9305 15.1921 96.5612 16.7688 96.5612 18.7488V20.0908H85.4072C85.5685 21.0588 85.9939 21.7922 86.6832 22.2908C87.3725 22.7748 88.3259 23.0168 89.5432 23.0168C90.4232 23.0168 91.1345 22.8921 91.6772 22.6428C92.2199 22.3935 92.6232 22.0122 92.8872 21.4988ZM89.5872 14.7448C88.4432 14.7448 87.5192 14.9942 86.8152 15.4928C86.1112 15.9915 85.6565 16.7175 85.4512 17.6708H93.3712C93.2245 16.6882 92.8359 15.9548 92.2052 15.4708C91.5745 14.9868 90.7019 14.7448 89.5872 14.7448Z" fill="black"/>
<path d="M82.7407 25.2389H78.8467L75.3487 20.7509L71.7627 25.2389H67.8027L73.4567 18.5949L68.3747 12.5889H72.2687L75.3707 16.5709L78.5827 12.5889H82.4107L77.2847 18.5949L82.7407 25.2389Z" fill="black"/>
<path d="M64.6079 21.4988H68.1279C67.6292 22.8628 66.7859 23.8895 65.5979 24.5788C64.4246 25.2682 62.9212 25.6128 61.0879 25.6128C58.7706 25.6128 57.0106 25.0702 55.8079 23.9848C54.6052 22.8848 54.0039 21.2862 54.0039 19.1888V18.9908C54.0039 16.9522 54.6566 15.3168 55.9619 14.0848C57.2672 12.8528 59.0272 12.2368 61.2419 12.2368C63.4272 12.2368 65.1432 12.8308 66.3899 14.0188C67.6512 15.1921 68.2819 16.7688 68.2819 18.7488V20.0908H57.1279C57.2892 21.0588 57.7146 21.7922 58.4039 22.2908C59.0932 22.7748 60.0466 23.0168 61.2639 23.0168C62.1439 23.0168 62.8552 22.8921 63.3979 22.6428C63.9406 22.3935 64.3439 22.0122 64.6079 21.4988ZM61.3079 14.7448C60.1639 14.7448 59.2399 14.9942 58.5359 15.4928C57.8319 15.9915 57.3772 16.7175 57.1719 17.6708H65.0919C64.9452 16.6882 64.5566 15.9548 63.9259 15.4708C63.2952 14.9868 62.4226 14.7448 61.3079 14.7448Z" fill="black"/>
<path d="M52.946 22.2247V25.2387H41V9.55273H44.256V22.2247H52.946Z" fill="black"/>
<defs>
<linearGradient id="paint0_linear_27502_7102" x1="17" y1="1" x2="18.3333" y2="33" gradientUnits="userSpaceOnUse">
<stop stop-color="white" stop-opacity="0"/>
<stop offset="1" stop-color="white" stop-opacity="0.12"/>
</linearGradient>
<linearGradient id="paint1_linear_27502_7102" x1="17" y1="7.5" x2="17" y2="26.5" gradientUnits="userSpaceOnUse">
<stop stop-color="white" stop-opacity="0.8"/>
<stop offset="1" stop-color="white" stop-opacity="0.5"/>
</linearGradient>
</defs>
</svg>
