<svg width="109" height="19" viewBox="0 0 109 19" fill="none" xmlns="http://www.w3.org/2000/svg">
<path fill-rule="evenodd" clip-rule="evenodd" d="M9.125 9.875V17H10.0949C10.8627 13.5661 13.5661 10.8627 17 10.0949V9.125H9.875V2H8.90514C8.13726 5.43393 5.43393 8.13726 2 8.90514V9.875H9.125ZM0 7.125C3.935 7.125 7.125 3.935 7.125 0H11.875V7.125H19V11.875C15.065 11.875 11.875 15.065 11.875 19H7.125V11.875H0V7.125Z" fill="black"/>
<path d="M108.584 17.7387H105.856L105.57 15.1867C105.159 16.1107 104.529 16.8221 103.678 17.3207C102.827 17.8047 101.808 18.0467 100.62 18.0467C98.6986 18.0467 97.1952 17.4747 96.1099 16.3307C95.0392 15.1867 94.5039 13.5734 94.5039 11.4907V11.3147C94.5039 9.26139 95.0539 7.65539 96.1539 6.49672C97.2686 5.33805 98.7939 4.75872 100.73 4.75872C101.815 4.75872 102.754 4.97139 103.546 5.39672C104.353 5.80739 104.983 6.41605 105.438 7.22272V0.886719H108.584V17.7387ZM101.588 15.3407C102.849 15.3407 103.825 15.0034 104.514 14.3287C105.203 13.6541 105.548 12.7007 105.548 11.4687V11.3367C105.548 10.1194 105.203 9.15872 104.514 8.45472C103.825 7.73605 102.879 7.37672 101.676 7.37672C100.415 7.37672 99.4539 7.71405 98.7939 8.38872C98.1486 9.06339 97.8259 10.0461 97.8259 11.3367V11.4907C97.8259 12.7521 98.1412 13.7127 98.7719 14.3727C99.4172 15.0181 100.356 15.3407 101.588 15.3407Z" fill="black"/>
<path d="M87.2751 7.44282C86.1017 7.44282 85.2144 7.78748 84.6131 8.47682C84.0117 9.16615 83.7111 10.1855 83.7111 11.5348V17.7388H80.4551V5.08882H83.2051L83.4911 7.72882C83.9164 6.76082 84.5397 6.02015 85.3611 5.50682C86.1971 4.99348 87.1871 4.73682 88.3311 4.73682C90.0031 4.73682 91.3084 5.22815 92.2471 6.21082C93.1857 7.19348 93.6551 8.55748 93.6551 10.3028V17.7388H90.3991V11.0948C90.3991 9.83348 90.1424 8.90948 89.6291 8.32282C89.1304 7.73615 88.3457 7.44282 87.2751 7.44282Z" fill="black"/>
<path d="M75.8872 13.9988H79.4072C78.9085 15.3628 78.0652 16.3895 76.8772 17.0788C75.7039 17.7682 74.2005 18.1128 72.3672 18.1128C70.0499 18.1128 68.2899 17.5702 67.0872 16.4848C65.8845 15.3848 65.2832 13.7862 65.2832 11.6888V11.4908C65.2832 9.45215 65.9359 7.81682 67.2412 6.58482C68.5465 5.35282 70.3065 4.73682 72.5212 4.73682C74.7065 4.73682 76.4225 5.33082 77.6692 6.51882C78.9305 7.69215 79.5612 9.26882 79.5612 11.2488V12.5908H68.4072C68.5685 13.5588 68.9939 14.2922 69.6832 14.7908C70.3725 15.2748 71.3259 15.5168 72.5432 15.5168C73.4232 15.5168 74.1345 15.3921 74.6772 15.1428C75.2199 14.8935 75.6232 14.5122 75.8872 13.9988ZM72.5872 7.24482C71.4432 7.24482 70.5192 7.49415 69.8152 7.99282C69.1112 8.49148 68.6565 9.21748 68.4512 10.1708H76.3712C76.2245 9.18815 75.8359 8.45482 75.2052 7.97082C74.5745 7.48682 73.7019 7.24482 72.5872 7.24482Z" fill="black"/>
<path d="M66.7407 17.7389H62.8467L59.3487 13.2509L55.7627 17.7389H51.8027L57.4567 11.0949L52.3747 5.08887H56.2687L59.3707 9.07087L62.5827 5.08887H66.4107L61.2847 11.0949L66.7407 17.7389Z" fill="black"/>
<path d="M49.6079 13.9988H53.1279C52.6292 15.3628 51.7859 16.3895 50.5979 17.0788C49.4246 17.7682 47.9212 18.1128 46.0879 18.1128C43.7706 18.1128 42.0106 17.5702 40.8079 16.4848C39.6052 15.3848 39.0039 13.7862 39.0039 11.6888V11.4908C39.0039 9.45215 39.6566 7.81682 40.9619 6.58482C42.2672 5.35282 44.0272 4.73682 46.2419 4.73682C48.4272 4.73682 50.1432 5.33082 51.3899 6.51882C52.6512 7.69215 53.2819 9.26882 53.2819 11.2488V12.5908H42.1279C42.2892 13.5588 42.7146 14.2922 43.4039 14.7908C44.0932 15.2748 45.0466 15.5168 46.2639 15.5168C47.1439 15.5168 47.8552 15.3921 48.3979 15.1428C48.9406 14.8935 49.3439 14.5122 49.6079 13.9988ZM46.3079 7.24482C45.1639 7.24482 44.2399 7.49415 43.5359 7.99282C42.8319 8.49148 42.3772 9.21748 42.1719 10.1708H50.0919C49.9452 9.18815 49.5566 8.45482 48.9259 7.97082C48.2952 7.48682 47.4226 7.24482 46.3079 7.24482Z" fill="black"/>
<path d="M38.946 14.7247V17.7387H27V2.05273H30.256V14.7247H38.946Z" fill="black"/>
</svg>
