<svg width="117" height="40" viewBox="0 0 117 40" fill="none" xmlns="http://www.w3.org/2000/svg">
<g filter="url(#filter0_dd_1894_485083)">
<mask id="mask0_1894_485083" style="mask-type:luminance" maskUnits="userSpaceOnUse" x="4" y="3" width="32" height="32">
<path d="M28 3H12C7.58172 3 4 6.58172 4 11V27C4 31.4183 7.58172 35 12 35H28C32.4183 35 36 31.4183 36 27V11C36 6.58172 32.4183 3 28 3Z" fill="white"/>
</mask>
<g mask="url(#mask0_1894_485083)">
<path d="M28 3H12C7.58172 3 4 6.58172 4 11V27C4 31.4183 7.58172 35 12 35H28C32.4183 35 36 31.4183 36 27V11C36 6.58172 32.4183 3 28 3Z" fill="#178D72"/>
<path d="M4 3H36V35H4V3Z" fill="url(#paint0_linear_1894_485083)"/>
<path d="M17.625 9.5C17.625 13.435 14.435 16.625 10.5 16.625V21.375H17.625V28.5H22.375C22.375 24.565 25.565 21.375 29.5 21.375V16.625H22.375V9.5H17.625Z" fill="url(#paint1_linear_1894_485083)"/>
</g>
<path d="M28 3.66663H12C7.9499 3.66663 4.66666 6.94987 4.66666 11V27C4.66666 31.05 7.9499 34.3333 12 34.3333H28C32.0501 34.3333 35.3333 31.05 35.3333 27V11C35.3333 6.94987 32.0501 3.66663 28 3.66663Z" stroke="url(#paint2_linear_1894_485083)" stroke-width="2"/>
</g>
<path d="M113.052 16.4596V11.2962C113.052 10.3506 113.819 9.58398 114.764 9.58398V9.58398C115.71 9.58398 116.476 10.3506 116.476 11.2962V25.5686C116.476 26.6731 115.581 27.5686 114.476 27.5686H113.052V25.9238C111.974 27.4068 110.787 28 108.873 28C105.179 28 102.698 25.3576 102.698 21.4479C102.698 19.3447 103.399 17.5921 104.693 16.3788C105.88 15.2733 107.39 14.6531 108.927 14.6531C110.625 14.6531 111.839 15.1924 113.052 16.4596ZM109.736 17.5382C107.767 17.5382 106.338 19.183 106.338 21.4748C106.338 23.6319 107.767 25.2497 109.709 25.2497C111.596 25.2497 113.052 23.6049 113.052 21.4479C113.052 19.183 111.65 17.5382 109.736 17.5382Z" fill="white"/>
<path d="M90.2344 17.0845C90.2344 15.9799 91.1298 15.0845 92.2344 15.0845H93.6587V16.6214C94.5755 15.1923 95.4922 14.6531 97.0561 14.6531C98.2425 14.6531 99.375 15.0845 100.13 15.8125C100.939 16.6214 101.235 17.619 101.235 19.6683V27.5685H97.8111V19.83C97.8111 19.129 97.7302 18.7245 97.5145 18.374C97.1909 17.8617 96.5438 17.5382 95.8697 17.5382C94.5485 17.5382 93.6587 18.5358 93.6587 19.9918V27.5685H90.2344V17.0845Z" fill="white"/>
<path d="M88.8413 22.1489H79.0806C79.3772 23.8746 80.6445 24.9531 82.3432 24.9531C83.6104 24.9531 84.689 24.3329 85.2282 23.3353L88.383 24.1981C87.1426 26.6248 84.9586 28 82.3162 28C78.3526 28 75.5214 25.1958 75.5214 21.313C75.5214 17.4033 78.2447 14.6531 82.1005 14.6531C86.0911 14.6531 88.8683 17.4573 88.8683 21.4748L88.8413 22.1489ZM79.0806 20.1806H85.3361C85.0395 18.5358 83.8531 17.5382 82.1544 17.5382C80.5097 17.5382 79.4042 18.4819 79.0806 20.1806Z" fill="white"/>
<path d="M69.6765 24.1711L67.3846 27.5685H63.3401L67.6812 21.3669L63.0705 15.0845H67.3846L69.6765 18.401L71.8875 15.0845H76.0668L71.6179 21.3669L75.9859 27.5685H71.8336L69.6765 24.1711Z" fill="white"/>
<path d="M63.8507 22.1489H54.09C54.3866 23.8746 55.6538 24.9531 57.3525 24.9531C58.6198 24.9531 59.6983 24.3329 60.2376 23.3353L63.3923 24.1981C62.152 26.6248 59.968 28 57.3256 28C53.3619 28 50.5308 25.1958 50.5308 21.313C50.5308 17.4033 53.2541 14.6531 57.1099 14.6531C61.1004 14.6531 63.8777 17.4573 63.8777 21.4748L63.8507 22.1489ZM54.09 20.1806H60.3455C60.0489 18.5358 58.8625 17.5382 57.1638 17.5382C55.519 17.5382 54.4135 18.4819 54.09 20.1806Z" fill="white"/>
<path d="M49.0227 25.8564C49.0227 26.802 48.2562 27.5686 47.3105 27.5686V27.5686C46.3649 27.5686 45.5984 26.802 45.5984 25.8564V11.2962C45.5984 10.3506 46.3649 9.58398 47.3105 9.58398V9.58398C48.2562 9.58398 49.0227 10.3506 49.0227 11.2962V25.8564Z" fill="white"/>
<defs>
<filter id="filter0_dd_1894_485083" x="0.666656" y="0.666626" width="38.6667" height="38.6667" filterUnits="userSpaceOnUse" color-interpolation-filters="sRGB">
<feFlood flood-opacity="0" result="BackgroundImageFix"/>
<feColorMatrix in="SourceAlpha" type="matrix" values="0 0 0 0 0 0 0 0 0 0 0 0 0 0 0 0 0 0 127 0" result="hardAlpha"/>
<feOffset dy="1"/>
<feGaussianBlur stdDeviation="1"/>
<feColorMatrix type="matrix" values="0 0 0 0 0.0627451 0 0 0 0 0.0941176 0 0 0 0 0.156863 0 0 0 0.06 0"/>
<feBlend mode="normal" in2="BackgroundImageFix" result="effect1_dropShadow_1894_485083"/>
<feColorMatrix in="SourceAlpha" type="matrix" values="0 0 0 0 0 0 0 0 0 0 0 0 0 0 0 0 0 0 127 0" result="hardAlpha"/>
<feOffset dy="1"/>
<feGaussianBlur stdDeviation="1.5"/>
<feColorMatrix type="matrix" values="0 0 0 0 0.0627451 0 0 0 0 0.0941176 0 0 0 0 0.156863 0 0 0 0.1 0"/>
<feBlend mode="normal" in2="effect1_dropShadow_1894_485083" result="effect2_dropShadow_1894_485083"/>
<feBlend mode="normal" in="SourceGraphic" in2="effect2_dropShadow_1894_485083" result="shape"/>
</filter>
<linearGradient id="paint0_linear_1894_485083" x1="20" y1="3" x2="21.3333" y2="35" gradientUnits="userSpaceOnUse">
<stop stop-color="white" stop-opacity="0"/>
<stop offset="1" stop-color="white" stop-opacity="0.12"/>
</linearGradient>
<linearGradient id="paint1_linear_1894_485083" x1="20" y1="9.5" x2="20" y2="28.5" gradientUnits="userSpaceOnUse">
<stop stop-color="white" stop-opacity="0.8"/>
<stop offset="1" stop-color="white" stop-opacity="0.5"/>
</linearGradient>
<linearGradient id="paint2_linear_1894_485083" x1="20" y1="2.99996" x2="20" y2="35" gradientUnits="userSpaceOnUse">
<stop stop-color="white" stop-opacity="0.12"/>
<stop offset="1" stop-color="white" stop-opacity="0"/>
</linearGradient>
</defs>
</svg>
