<svg width="150" height="39" viewBox="0 0 150 39" fill="none" xmlns="http://www.w3.org/2000/svg">
<path d="M19.2895 20.2105V19.7105H18.7895H5.78947V18.7688C12.1688 17.1893 17.1893 12.1688 18.7688 5.78947H19.7105V18.7895V19.2895H20.2105H33.2105V20.2312C26.8312 21.8107 21.8107 26.8312 20.2312 33.2105H19.2895V20.2105ZM1.5 14.5H1V15V24V24.5H1.5H14.5V37.5V38H15H24H24.5V37.5C24.5 30.3204 30.3204 24.5 37.5 24.5H38V24V15V14.5H37.5H24.5V1.5V1H24H15H14.5V1.5C14.5 8.67965 8.67965 14.5 1.5 14.5Z" fill="#0F8465" stroke="#0F8465"/>
<path d="M52.656 7.724C54.512 7.724 55.856 7.76667 56.688 7.852C57.52 7.916 58.1173 8.076 58.48 8.332C58.864 8.588 59.056 9.004 59.056 9.58C59.056 10.0493 58.96 10.668 58.768 11.436L55.792 24.236C55.6 25.1533 55.504 25.708 55.504 25.9C55.504 26.2413 55.6107 26.4547 55.824 26.54C56.0587 26.6253 56.5173 26.668 57.2 26.668H58.352L57.488 30.764H53.776C52.4107 30.764 51.44 30.5827 50.864 30.22C50.288 29.8573 50 29.1853 50 28.204C50 27.6067 50.096 26.8813 50.288 26.028L53.2 13.548C53.3493 12.908 53.424 12.5133 53.424 12.364C53.424 12.108 53.3173 11.9587 53.104 11.916C52.912 11.852 52.4747 11.82 51.792 11.82L52.656 7.724ZM58.7708 22.316C59.0694 20.6093 59.7201 19.084 60.7228 17.74C61.7468 16.3747 63.0481 15.308 64.6268 14.54C66.2268 13.7507 67.9974 13.356 69.9388 13.356C71.0908 13.356 72.1361 13.548 73.0748 13.932C74.0348 14.2947 74.7921 14.8067 75.3468 15.468C75.9228 16.108 76.2108 16.844 76.2108 17.676C76.2108 17.8253 76.1894 18.028 76.1468 18.284C75.8054 20.2253 74.4828 21.6653 72.1788 22.604C69.8748 23.5213 66.9521 23.98 63.4108 23.98C63.4534 26.1133 64.6054 27.18 66.8668 27.18C67.6988 27.18 68.4774 26.956 69.2028 26.508C69.9494 26.06 70.4614 25.516 70.7388 24.876H75.7308C75.2828 26.0707 74.5788 27.1587 73.6188 28.14C72.6801 29.1 71.5708 29.868 70.2908 30.444C69.0108 30.9987 67.6774 31.276 66.2908 31.276C63.7094 31.276 61.7788 30.6467 60.4988 29.388C59.2188 28.1293 58.5788 26.4547 58.5788 24.364C58.5788 23.7027 58.6428 23.02 58.7708 22.316ZM63.8908 20.908C66.1948 20.908 67.9121 20.748 69.0428 20.428C70.1734 20.0867 70.8134 19.468 70.9628 18.572C71.0268 18.1453 70.8774 17.7933 70.5148 17.516C70.1521 17.2173 69.6721 17.068 69.0748 17.068C67.7094 17.068 66.5894 17.452 65.7148 18.22C64.8614 18.9667 64.2534 19.8627 63.8908 20.908ZM77.1878 13.868H82.9478L84.3558 18.06C84.4624 18.38 84.5158 18.668 84.5158 18.924C84.5158 19.0307 84.4944 19.1907 84.4518 19.404L84.4198 19.628C84.4198 19.9267 84.5584 20.076 84.8358 20.076C85.1771 20.076 85.3904 19.852 85.4758 19.404C85.6038 18.9347 85.8278 18.4867 86.1478 18.06L89.3478 13.868H95.1078L87.9078 21.932L92.0358 30.764H86.2758L84.5158 25.772C84.4091 25.4947 84.3558 25.228 84.3558 24.972C84.3558 24.8227 84.3771 24.6413 84.4198 24.428L84.4518 24.172C84.4518 23.8947 84.3131 23.756 84.0358 23.756C83.8438 23.756 83.7051 23.82 83.6198 23.948C83.5344 24.0547 83.4598 24.2147 83.3958 24.428C83.2038 25.004 82.9798 25.452 82.7238 25.772L78.8518 30.764H73.0917L80.9958 21.932L77.1878 13.868ZM93.052 22.316C93.3507 20.6093 94.0013 19.084 95.004 17.74C96.028 16.3747 97.3293 15.308 98.908 14.54C100.508 13.7507 102.279 13.356 104.22 13.356C105.372 13.356 106.417 13.548 107.356 13.932C108.316 14.2947 109.073 14.8067 109.628 15.468C110.204 16.108 110.492 16.844 110.492 17.676C110.492 17.8253 110.471 18.028 110.428 18.284C110.087 20.2253 108.764 21.6653 106.46 22.604C104.156 23.5213 101.233 23.98 97.692 23.98C97.7347 26.1133 98.8867 27.18 101.148 27.18C101.98 27.18 102.759 26.956 103.484 26.508C104.231 26.06 104.743 25.516 105.02 24.876H110.012C109.564 26.0707 108.86 27.1587 107.9 28.14C106.961 29.1 105.852 29.868 104.572 30.444C103.292 30.9987 101.959 31.276 100.572 31.276C97.9907 31.276 96.06 30.6467 94.78 29.388C93.5 28.1293 92.86 26.4547 92.86 24.364C92.86 23.7027 92.924 23.02 93.052 22.316ZM98.172 20.908C100.476 20.908 102.193 20.748 103.324 20.428C104.455 20.0867 105.095 19.468 105.244 18.572C105.308 18.1453 105.159 17.7933 104.796 17.516C104.433 17.2173 103.953 17.068 103.356 17.068C101.991 17.068 100.871 17.452 99.996 18.22C99.1427 18.9667 98.5347 19.8627 98.172 20.908ZM118.394 13.868L117.786 16.78C117.68 17.292 117.445 17.8467 117.082 18.444C116.72 19.0413 116.506 19.404 116.442 19.532C116.378 19.66 116.346 19.7773 116.346 19.884C116.346 20.0333 116.41 20.1293 116.538 20.172C116.581 20.1933 116.634 20.204 116.698 20.204C116.805 20.204 116.901 20.172 116.986 20.108C117.072 20.0227 117.125 19.948 117.146 19.884C118.128 18.092 119.354 16.556 120.826 15.276C122.32 13.996 123.877 13.356 125.498 13.356C126.693 13.356 127.536 13.612 128.026 14.124C128.538 14.6147 128.794 15.404 128.794 16.492C128.794 17.452 128.581 18.9667 128.154 21.036L126.074 30.764H120.954L122.778 22.188C123.141 20.5667 123.322 19.436 123.322 18.796C123.322 18.3693 123.237 18.06 123.066 17.868C122.917 17.676 122.661 17.58 122.298 17.58C121.701 17.58 120.901 18.2093 119.898 19.468C118.896 20.7053 117.946 22.2093 117.05 23.98C116.154 25.7293 115.546 27.3187 115.226 28.748L114.81 30.764H109.69L113.274 13.868H118.394ZM129.3 22.7C129.662 21.0147 130.324 19.4573 131.284 18.028C132.244 16.5987 133.417 15.468 134.804 14.636C136.19 13.7827 137.662 13.356 139.22 13.356C140.158 13.356 140.905 13.5587 141.46 13.964C142.036 14.3693 142.526 14.9027 142.932 15.564C143.038 15.7133 143.134 15.82 143.22 15.884C143.305 15.948 143.422 15.948 143.572 15.884C143.764 15.7773 143.86 15.6387 143.86 15.468C143.86 15.404 143.838 15.308 143.796 15.18C143.582 14.7107 143.476 14.3587 143.476 14.124C143.476 14.0387 143.497 13.868 143.54 13.612L144.788 7.724H149.908L146.708 22.828C146.366 24.3853 146.121 25.6227 145.972 26.54C145.822 27.436 145.748 28.204 145.748 28.844C145.748 29.5053 145.844 30.1453 146.036 30.764H140.852C140.745 30.3373 140.692 29.9747 140.692 29.676C140.692 29.1213 140.788 28.6093 140.98 28.14C141.172 27.6493 141.438 27.1267 141.78 26.572C141.95 26.316 142.068 26.124 142.132 25.996C142.196 25.868 142.228 25.7613 142.228 25.676C142.228 25.548 142.164 25.452 142.036 25.388C142.014 25.3667 141.961 25.356 141.876 25.356C141.79 25.356 141.694 25.388 141.588 25.452C141.502 25.4947 141.449 25.5587 141.428 25.644C139.358 29.3987 136.905 31.276 134.068 31.276C132.596 31.276 131.39 30.7213 130.452 29.612C129.513 28.5027 129.044 27.02 129.044 25.164C129.044 24.2893 129.129 23.468 129.3 22.7ZM134.388 22.892C134.281 23.468 134.228 23.9373 134.228 24.3C134.228 25.1533 134.42 25.804 134.804 26.252C135.209 26.7 135.732 26.924 136.372 26.924C137.182 26.924 137.982 26.6147 138.772 25.996C139.561 25.3773 140.265 24.5027 140.884 23.372C141.502 22.22 141.972 20.908 142.292 19.436C141.865 18.796 141.438 18.348 141.012 18.092C140.585 17.836 140.03 17.708 139.348 17.708C138.11 17.708 137.054 18.1773 136.18 19.116C135.326 20.0333 134.729 21.292 134.388 22.892Z" fill="white"/>
</svg>
