<svg width="135" height="40" viewBox="0 0 135 40" fill="none" xmlns="http://www.w3.org/2000/svg">
<g clip-path="url(#clip0_2481_7515)">
<path opacity="0.3" d="M131 40H4C2.93946 39.9989 1.92266 39.5772 1.17274 38.8273C0.422826 38.0773 0.00105895 37.0605 0 36V4C0.0013231 2.93954 0.423175 1.92289 1.17303 1.17303C1.92289 0.423175 2.93954 0.0013231 4 0L131 0C132.061 0.00105895 133.077 0.422826 133.827 1.17274C134.577 1.92266 134.999 2.93946 135 4V36C134.999 37.0605 134.577 38.0773 133.827 38.8273C133.077 39.5772 132.061 39.9989 131 40ZM4 1C3.20459 1.00079 2.44199 1.31712 1.87956 1.87956C1.31712 2.44199 1.00079 3.20459 1 4V36C1.00079 36.7954 1.31712 37.558 1.87956 38.1204C2.44199 38.6829 3.20459 38.9992 4 39H131C131.795 38.9992 132.558 38.6829 133.12 38.1204C133.683 37.558 133.999 36.7954 134 36V4C133.999 3.20459 133.683 2.44199 133.12 1.87956C132.558 1.31712 131.795 1.00079 131 1H4Z" fill="#121212"/>
<path d="M11.5063 33.0388L17.4803 26.8428L23.4533 20.6468L17.4853 14.4628L11.5163 8.27785C11.3451 8.38917 11.2133 8.55148 11.1393 8.74185C11.0427 8.98265 10.9954 9.24042 11.0003 9.49985V31.8288C10.9966 32.0835 11.0436 32.3364 11.1383 32.5728C11.2139 32.7602 11.3416 32.9219 11.5063 33.0388ZM23.8823 20.3048L25.6613 18.4588L27.4413 16.6128L20.1943 12.4928L12.9483 8.37085C12.8274 8.29808 12.6972 8.24191 12.5613 8.20385C12.4256 8.16564 12.2853 8.14612 12.1443 8.14585L18.0123 14.2248L23.8803 20.3038L23.8823 20.3048ZM23.8823 20.9908L17.9953 27.0958L12.1083 33.2018C12.2556 33.2044 12.4024 33.1859 12.5443 33.1468C12.687 33.1076 12.8233 33.0483 12.9493 32.9708L20.2093 28.8378L27.4693 24.7058L25.6763 22.8488L23.8823 20.9908ZM32.6903 19.6038L30.2793 18.2298L27.8673 16.8558L26.0393 18.7518L24.2113 20.6488L26.0533 22.5568L27.8953 24.4648L30.2923 23.0948L32.6893 21.7248C32.8999 21.6321 33.0817 21.4847 33.2161 21.298C33.3504 21.1112 33.4324 20.8919 33.4533 20.6628C33.4325 20.4342 33.3508 20.2153 33.2166 20.0291C33.0824 19.8428 32.9006 19.696 32.6903 19.6038ZM71.4114 13.2318C70.9835 13.2365 70.559 13.1563 70.1623 12.9958C69.7768 12.8342 69.4288 12.5945 69.1403 12.2918C68.8429 11.9892 68.6086 11.6305 68.451 11.2365C68.2934 10.8425 68.2157 10.4211 68.2223 9.99685C68.2177 9.56665 68.2958 9.13956 68.4524 8.73885C68.6092 8.35139 68.8433 7.99993 69.1403 7.70585C69.4279 7.40301 69.7752 7.16327 70.1604 7.00185C70.9605 6.68688 71.8502 6.68688 72.6503 7.00185C73.0378 7.16446 73.3881 7.40395 73.6803 7.70585C73.9757 8.00709 74.2094 8.36308 74.3683 8.75385C74.524 9.14959 74.6021 9.57159 74.5983 9.99685C74.5981 10.428 74.5174 10.8553 74.3603 11.2568C74.2049 11.6428 73.9737 11.9937 73.6803 12.2888C73.3936 12.5933 73.0461 12.8342 72.6604 12.9958C72.264 13.1563 71.8389 13.2365 71.4114 13.2318ZM44.4763 13.2318C44.0528 13.2353 43.6326 13.1562 43.2393 12.9988C42.8488 12.838 42.4937 12.6018 42.1943 12.3038C41.8913 12.0093 41.6521 11.6557 41.4913 11.2648C41.1765 10.4509 41.1765 9.54878 41.4913 8.73485C41.652 8.34368 41.8912 7.98969 42.1943 7.69485C42.4894 7.39609 42.8418 7.16004 43.2303 7.00085C43.6266 6.843 44.0498 6.76386 44.4763 6.76785C44.915 6.76696 45.3491 6.85685 45.7513 7.03185C45.9434 7.11323 46.1262 7.21516 46.2963 7.33585C46.4537 7.44763 46.5965 7.57865 46.7213 7.72585L46.7513 7.76185L46.7813 7.79785L46.4433 8.12985L46.1053 8.46085L46.0703 8.42084L46.0353 8.37885C45.854 8.15865 45.623 7.98457 45.3613 7.87085C44.9513 7.69623 44.4985 7.64768 44.0607 7.73139C43.623 7.81509 43.2201 8.02726 42.9033 8.34084C42.6887 8.54882 42.5206 8.80003 42.4103 9.07785C42.1896 9.67407 42.1896 10.3296 42.4103 10.9258C42.5206 11.2037 42.6887 11.4549 42.9033 11.6628C43.1079 11.8685 43.3516 12.031 43.6201 12.1408C43.8886 12.2505 44.1763 12.3053 44.4663 12.3018C44.7695 12.3054 45.0705 12.2511 45.3533 12.1418C45.624 12.0338 45.8691 11.8707 46.0733 11.6628C46.201 11.5336 46.3034 11.3816 46.3753 11.2148C46.4559 11.0262 46.5085 10.8267 46.5313 10.6228H44.3643V9.69085H47.4613L47.4683 9.73285L47.4743 9.77585C47.4853 9.85385 47.4963 9.93384 47.5043 10.0128C47.5134 10.0895 47.5184 10.1666 47.5193 10.2438C47.5249 10.6407 47.4592 11.0353 47.3253 11.4088C47.1998 11.749 47.0019 12.0577 46.7453 12.3138C46.4624 12.612 46.1191 12.8462 45.7383 13.0008C45.3365 13.1584 44.9079 13.2365 44.4763 13.2308V13.2318ZM80.2903 13.0998H79.3353L77.8733 10.7598L76.4103 8.41885L76.4223 8.83985L76.4353 9.26185V13.0968H75.4803V6.89985H76.5703L76.5853 6.92385L76.5993 6.94785L77.9753 9.15185L79.3503 11.3568L79.3383 10.9368L79.3253 10.5168V6.89985H80.2903V13.0998ZM64.2353 13.0998H63.2683V7.83285H61.5903V6.89985H65.9114V7.83285H64.2333V13.0998H64.2353ZM60.8013 13.0998H59.8363V6.89985H60.8013V13.0998ZM55.3783 13.0998H54.4123V7.83285H52.7343V6.89985H57.0563V7.83285H55.3783V13.0998ZM52.1233 13.0898H48.4233V6.89985H52.1233V7.83285H49.3903V9.53285H51.8563V10.4558H49.3903V12.1568H52.1233V13.0898ZM69.8493 11.6498C70.1617 11.9575 70.5569 12.1676 70.9866 12.2544C71.4163 12.3412 71.862 12.3011 72.2693 12.1388C72.5359 12.0262 72.7765 11.8601 72.9763 11.6508C73.1855 11.4429 73.3484 11.1931 73.4543 10.9178C73.6678 10.3241 73.6678 9.67458 73.4543 9.08085C73.3494 8.80607 73.1875 8.55661 72.9793 8.34885C72.6669 8.04137 72.2717 7.8315 71.8419 7.74484C71.4122 7.65818 70.9666 7.69849 70.5593 7.86085C70.0207 8.09724 69.596 8.53517 69.3763 9.08085C69.2665 9.37461 69.2123 9.68624 69.2164 9.99985C69.2122 10.3133 69.2658 10.6248 69.3743 10.9188C69.479 11.1938 69.6409 11.4433 69.8493 11.6508V11.6498ZM68.1334 21.7558C67.0089 21.7451 65.9253 22.1768 65.1163 22.9578C64.3147 23.77 63.8655 24.8655 63.8663 26.0067C63.867 27.1478 64.3176 28.2427 65.1203 29.0538C65.9319 29.8302 67.0116 30.2637 68.1347 30.2643C69.2579 30.2649 70.338 29.8324 71.1503 29.0568C71.9514 28.2438 72.4003 27.1482 72.4003 26.0068C72.4003 24.8655 71.9514 23.7699 71.1503 22.9568C70.3412 22.1762 69.2576 21.7449 68.1334 21.7558ZM68.1334 28.5788C67.8185 28.5783 67.5071 28.5139 67.2178 28.3897C66.9286 28.2654 66.6675 28.0838 66.4503 27.8558C65.9893 27.3461 65.734 26.6832 65.734 25.9958C65.734 25.3085 65.9893 24.6456 66.4503 24.1358C66.6685 23.9098 66.93 23.73 67.2191 23.6072C67.5083 23.4845 67.8192 23.4212 68.1334 23.4212C68.4475 23.4212 68.7584 23.4845 69.0476 23.6072C69.3367 23.73 69.5982 23.9098 69.8163 24.1358C70.2771 24.6466 70.532 25.31 70.532 25.9978C70.532 26.6857 70.2771 27.3491 69.8163 27.8598C69.5987 28.0869 69.3375 28.2676 69.0483 28.3912C68.759 28.5147 68.4478 28.5786 68.1334 28.5788ZM58.8233 21.7558C57.6989 21.7451 56.6153 22.1768 55.8063 22.9578C55.0048 23.7702 54.5558 24.8657 54.5568 26.0069C54.5577 27.1481 55.0085 28.2429 55.8113 29.0538C56.6229 29.8302 57.7026 30.2637 58.8257 30.2643C59.9489 30.2649 61.029 29.8324 61.8413 29.0568C62.6425 28.2438 63.0914 27.1481 63.0913 26.0066C63.0911 24.8652 62.6417 23.7697 61.8403 22.9568C61.0314 22.1764 59.9473 21.7451 58.8233 21.7558ZM58.8233 28.5788C58.5087 28.5781 58.1974 28.5137 57.9084 28.3895C57.6193 28.2652 57.3584 28.0837 57.1413 27.8558C56.6803 27.3461 56.425 26.6832 56.425 25.9958C56.425 25.3085 56.6803 24.6456 57.1413 24.1358C57.3595 23.9098 57.621 23.73 57.9101 23.6072C58.1993 23.4845 58.5102 23.4212 58.8243 23.4212C59.1385 23.4212 59.4494 23.4845 59.7386 23.6072C60.0277 23.73 60.2892 23.9098 60.5073 24.1358C60.968 24.6466 61.223 25.31 61.223 25.9978C61.223 26.6857 60.968 27.3491 60.5073 27.8598C60.2898 28.087 60.0286 28.2679 59.7394 28.3914C59.4501 28.515 59.1379 28.5787 58.8233 28.5788ZM47.7463 23.0548V24.8548H52.0683C52.015 25.3089 51.8982 25.7532 51.7213 26.1748C51.573 26.5274 51.3592 26.8487 51.0913 27.1218C50.7283 27.4938 50.302 27.7982 49.8323 28.0208C49.1802 28.3137 48.4711 28.4582 47.7563 28.4438C47.1305 28.4467 46.5105 28.3238 45.933 28.0827C45.3555 27.8415 44.8323 27.4869 44.3943 27.0398C43.5149 26.1279 43.0235 24.9103 43.0235 23.6433C43.0235 22.3764 43.5149 21.1588 44.3943 20.2468C45.0658 19.574 45.9226 19.1166 46.8552 18.9332C47.7879 18.7497 48.7541 18.8485 49.6303 19.2168C50.1396 19.4401 50.6065 19.7496 51.0103 20.1318L51.6493 19.4938L52.2873 18.8548C51.7322 18.313 51.0856 17.8735 50.3773 17.5568C49.5537 17.2011 48.6645 17.0223 47.7673 17.0318C46.0019 17.0351 44.3082 17.731 43.0503 18.9698C42.4229 19.574 41.9238 20.2985 41.5829 21.1001C41.242 21.9016 41.0662 22.7636 41.0661 23.6346C41.066 24.5056 41.2416 25.3677 41.5824 26.1693C41.9231 26.9709 42.4221 27.6955 43.0493 28.2998C44.0033 29.2168 45.1997 29.8416 46.4973 30.1005C47.795 30.3594 49.1396 30.2415 50.3723 29.7608C51.1304 29.4462 51.8136 28.9753 52.3773 28.3788C52.9427 27.8016 53.3641 27.0993 53.6073 26.3288C53.8327 25.627 53.9461 24.894 53.9433 24.1568C53.9433 23.9468 53.9353 23.7468 53.9193 23.5588C53.9047 23.3829 53.8797 23.2079 53.8443 23.0348H47.7443L47.7463 23.0438V23.0548ZM93.0563 24.4558C92.8119 23.8086 92.427 23.2236 91.9293 22.7428C91.2543 22.0921 90.3499 21.7339 89.4123 21.7458C88.8863 21.7424 88.365 21.845 87.8795 22.0474C87.394 22.2498 86.9542 22.5478 86.5863 22.9238C85.8015 23.753 85.3757 24.8584 85.4013 25.9998C85.3877 27.1268 85.8201 28.2134 86.6043 29.0228C87.3017 29.706 88.2101 30.1324 89.1812 30.2323C90.1523 30.3322 91.1285 30.0997 91.9503 29.5728C92.4313 29.2547 92.8449 28.8449 93.1673 28.3668L92.4453 27.8828L91.7233 27.3988C91.5002 27.7447 91.2031 28.0368 90.8533 28.2538C90.484 28.4712 90.0619 28.5826 89.6333 28.5758C89.2024 28.5877 88.7771 28.4752 88.4083 28.2518C88.046 28.0117 87.7551 27.6784 87.5663 27.2868L90.4103 26.1088L93.2543 24.9298L93.1543 24.6938L93.0563 24.4558ZM87.2563 25.8778C87.2375 25.5334 87.2939 25.189 87.4215 24.8685C87.5491 24.548 87.7449 24.2591 87.9953 24.0218C88.3961 23.6392 88.9236 23.4175 89.4773 23.3988C89.8235 23.3945 90.1648 23.4807 90.4673 23.6488C90.7314 23.7928 90.939 24.0219 91.0563 24.2988L89.1563 25.0888L87.2563 25.8778ZM82.6323 29.9998H84.5003V17.5008H82.6323V29.9998ZM79.5653 22.6998H79.4973C79.2503 22.416 78.9446 22.1891 78.6013 22.0348C78.1784 21.8414 77.7184 21.7425 77.2533 21.7448C76.7228 21.753 76.1992 21.8662 75.7128 22.078C75.2263 22.2899 74.7867 22.596 74.4193 22.9788C73.622 23.7872 73.1753 24.8774 73.1763 26.0128C73.1745 27.1415 73.62 28.225 74.4153 29.0258C74.7848 29.406 75.2257 29.7095 75.7127 29.9189C76.1997 30.1282 76.7233 30.2393 77.2533 30.2458C77.7169 30.2479 78.1753 30.1486 78.5963 29.9548C78.9427 29.7984 79.2503 29.5676 79.4973 29.2788H79.5653V29.8898C79.6064 30.5641 79.3886 31.2287 78.9563 31.7478C78.5496 32.1337 78.0177 32.3605 77.4576 32.3869C76.8976 32.4134 76.3467 32.2377 75.9053 31.8918C75.577 31.619 75.3191 31.2712 75.1533 30.8778L74.3424 31.2168L73.5303 31.5568C73.8105 32.2155 74.2533 32.7922 74.8173 33.2328C75.5957 33.8082 76.5467 34.1016 77.5139 34.0647C78.4812 34.0278 79.4071 33.6629 80.1393 33.0298C80.5609 32.5756 80.8849 32.0399 81.0914 31.4556C81.298 30.8714 81.3827 30.2511 81.3403 29.6328V21.9998H79.5753V22.6998H79.5653ZM77.4203 28.5798C77.1076 28.5796 76.7983 28.5151 76.5116 28.3904C76.2248 28.2657 75.9667 28.0834 75.7533 27.8548C75.2922 27.3538 75.0416 26.6946 75.0533 26.0138C75.0409 25.3279 75.2914 24.6631 75.7533 24.1558C75.9659 23.9258 76.2237 23.7421 76.5105 23.6163C76.7974 23.4905 77.1071 23.4253 77.4203 23.4248C77.7261 23.4245 78.0284 23.4901 78.3066 23.6171C78.5848 23.7441 78.8323 23.9295 79.0323 24.1608C79.4695 24.6779 79.7025 25.3369 79.6873 26.0138C79.7086 26.6867 79.4771 27.3432 79.0383 27.8538C78.8358 28.083 78.5867 28.2663 78.3077 28.3915C78.0287 28.5167 77.7262 28.5809 77.4203 28.5798ZM101.8 17.4998H97.3343V29.9998H99.2023V25.2668H101.803C102.84 25.2682 103.843 24.8965 104.628 24.2198C105.029 23.8646 105.35 23.4284 105.57 22.9401C105.789 22.4518 105.903 21.9225 105.903 21.387C105.904 20.8516 105.79 20.3221 105.571 19.8336C105.352 19.3451 105.032 18.9086 104.631 18.5528C103.845 17.8726 102.84 17.498 101.8 17.4998ZM101.855 23.5198H99.1993V19.2298H101.855C102.16 19.2244 102.462 19.2842 102.741 19.4053C103.021 19.5264 103.271 19.7059 103.475 19.9318C103.842 20.3224 104.046 20.8383 104.045 21.3741C104.045 21.91 103.839 22.4253 103.471 22.8148C103.268 23.0409 103.018 23.2207 102.74 23.3423C102.461 23.4639 102.159 23.5244 101.855 23.5198ZM113.389 21.7318C112.708 21.7257 112.036 21.8849 111.429 22.1958C110.82 22.5075 110.335 23.0176 110.055 23.6418L110.883 23.9868L111.711 24.3308C111.867 24.018 112.122 23.765 112.435 23.6108C112.741 23.4696 113.075 23.4001 113.411 23.4078C113.89 23.4025 114.359 23.5488 114.749 23.8258C114.941 23.9613 115.097 24.1399 115.207 24.3472C115.316 24.5544 115.375 24.7845 115.379 25.0188V25.1508C115.136 25.0187 114.878 24.9147 114.611 24.8408C114.229 24.7302 113.833 24.6733 113.434 24.6718C112.557 24.6583 111.696 24.9084 110.963 25.3898C110.615 25.6168 110.33 25.9271 110.132 26.2927C109.935 26.6583 109.832 27.0674 109.833 27.4828C109.83 27.8661 109.912 28.2453 110.074 28.5926C110.236 28.9399 110.474 29.2465 110.77 29.4898C111.382 29.9836 112.146 30.2482 112.932 30.2378C113.455 30.2531 113.973 30.127 114.43 29.8728C114.786 29.6599 115.087 29.3664 115.309 29.0158H115.376V29.9838H117.177V25.1958C117.196 24.7135 117.107 24.233 116.918 23.7889C116.729 23.3449 116.443 22.9483 116.082 22.6278C115.321 22.0161 114.365 21.6982 113.389 21.7318ZM113.154 28.5778C112.818 28.5792 112.487 28.4946 112.192 28.3318C112.041 28.254 111.914 28.1362 111.825 27.9913C111.737 27.8463 111.689 27.6798 111.688 27.5098C111.688 27.2947 111.749 27.0839 111.864 26.9017C111.978 26.7195 112.142 26.5733 112.335 26.4798C112.747 26.2708 113.204 26.1664 113.666 26.1758C113.996 26.1692 114.324 26.2096 114.642 26.2958C114.893 26.3731 115.135 26.4742 115.366 26.5978C115.301 27.1403 115.041 27.6405 114.634 28.0049C114.227 28.3693 113.701 28.573 113.154 28.5778ZM123.745 21.9998L122.673 24.7098L121.601 27.4208H121.533L120.423 24.7108L119.311 21.9998H117.301L118.968 25.7898L120.635 29.5788L119.685 31.6848L118.734 33.7908H120.68L123.244 27.8948L125.81 21.9998H123.745ZM106.932 29.9998H108.8V17.5008H106.932V29.9998Z" fill="#121212"/>
</g>
<defs>
<clipPath id="clip0_2481_7515">
<rect width="135" height="40" fill="white"/>
</clipPath>
</defs>
</svg>
