<svg width="55" height="49" viewBox="0 0 55 49" fill="none" xmlns="http://www.w3.org/2000/svg">
<path d="M33.4596 29.8725C25.7258 29.9562 19.0151 25.2663 17.4322 17.7206C17.459 17.0709 17.4409 16.4202 17.3781 15.7729C17.3359 15.4085 16.7762 15.2472 16.6679 15.6773C15.8915 19.5667 14.9646 23.3007 11.9855 26.1505C10.4539 27.6137 8.64335 28.7585 6.66004 29.5177C4.67673 30.2769 2.56063 30.6352 0.435932 30.5715C0.367695 30.5686 0.299915 30.5839 0.239753 30.616C0.179591 30.6481 0.129281 30.6958 0.0941395 30.7539C0.058998 30.8121 0.0403299 30.8785 0.0401075 30.9463C0.0398852 31.0141 0.0581169 31.0807 0.0928763 31.1391C-0.0154571 31.169 -0.0455497 31.3303 0.0928763 31.3422C0.231302 31.3542 0.32158 31.3841 0.429914 31.396H0.490099C4.48038 32.0472 8.91603 32.328 12.148 34.9807C15.9758 38.1292 16.3609 43.2552 16.2707 47.8555C16.2654 47.9865 16.2956 48.1166 16.358 48.2321C16.4204 48.3477 16.5129 48.4446 16.6258 48.5127V48.5724C16.5896 49.0683 17.366 49.1699 17.4984 48.68C17.4984 48.6262 17.5285 48.5724 17.5406 48.5007C17.6561 48.4367 17.7522 48.343 17.8189 48.2295C17.8856 48.116 17.9204 47.9869 17.9197 47.8555V47.043C18.7924 43.7571 19.5267 40.513 21.8137 37.7827C24.6725 34.4131 28.7471 32.561 33.0985 32.0592C33.308 32.0353 33.5009 31.9343 33.6391 31.7762C33.7772 31.618 33.8506 31.4141 33.8448 31.2048C33.9696 31.1167 34.0638 30.9922 34.1143 30.8487C34.1649 30.7051 34.1694 30.5495 34.1271 30.4034C34.0849 30.2572 33.9979 30.1276 33.8784 30.0326C33.7588 29.9375 33.6125 29.8816 33.4596 29.8725ZM41.0489 9.23693C44.2809 9.2907 47.0674 6.29154 47.7475 1.4702C47.7267 1.05623 47.7267 0.641486 47.7475 0.227519C47.7475 -0.00548275 48.0063 -0.113022 48.0424 0.167775C48.3674 2.65313 48.7586 5.02497 50.0045 6.86509C51.2503 8.7052 53.0137 9.7328 54.8193 9.69098C54.9698 9.69098 55.0059 9.89411 54.9637 10.0494C55.0059 10.0494 55.0179 10.1749 54.9637 10.1809C54.9167 10.1893 54.8705 10.2013 54.8253 10.2167H54.7892C53.1221 10.6349 51.2624 10.8142 49.9142 12.5169C48.3193 14.5303 48.1628 17.8042 48.1929 20.7436C48.2003 20.8991 48.1463 21.0513 48.0424 21.1678V21.1977C48.0424 21.5203 47.7355 21.5741 47.6813 21.2694V21.1559C47.6269 21.1021 47.5844 21.0377 47.5564 20.9667C47.5285 20.8957 47.5157 20.8198 47.5188 20.7436V20.2239C47.1577 18.1268 46.8508 16.0418 45.8938 14.3032C44.6901 12.1345 43.0049 10.9516 41.1753 10.6349C40.9707 10.5991 40.8624 10.3362 40.8624 10.0913C40.6577 9.85229 40.7119 9.23095 41.0489 9.23693Z" fill="#6B7280"/>
<path d="M33.4596 29.8725C25.7258 29.9562 19.0151 25.2663 17.4322 17.7206C17.459 17.0709 17.4409 16.4202 17.3781 15.7729C17.3359 15.4085 16.7762 15.2472 16.6679 15.6773C15.8915 19.5667 14.9646 23.3007 11.9855 26.1505C10.4539 27.6137 8.64335 28.7585 6.66004 29.5177C4.67673 30.2769 2.56063 30.6352 0.435932 30.5715C0.367695 30.5686 0.299915 30.5839 0.239753 30.616C0.179591 30.6481 0.129281 30.6958 0.0941395 30.7539C0.058998 30.8121 0.0403299 30.8785 0.0401075 30.9463C0.0398852 31.0141 0.0581169 31.0807 0.0928763 31.1391C-0.0154571 31.169 -0.0455497 31.3303 0.0928763 31.3422C0.231302 31.3542 0.32158 31.3841 0.429914 31.396H0.490099C4.48038 32.0472 8.91603 32.328 12.148 34.9807C15.9758 38.1292 16.3609 43.2552 16.2707 47.8555C16.2654 47.9865 16.2956 48.1166 16.358 48.2321C16.4204 48.3477 16.5129 48.4446 16.6258 48.5127V48.5724C16.5896 49.0683 17.366 49.1699 17.4984 48.68C17.4984 48.6262 17.5285 48.5724 17.5406 48.5007C17.6561 48.4367 17.7522 48.343 17.8189 48.2295C17.8856 48.116 17.9204 47.9869 17.9197 47.8555V47.043C18.7924 43.7571 19.5267 40.513 21.8137 37.7827C24.6725 34.4131 28.7471 32.561 33.0985 32.0592C33.308 32.0353 33.5009 31.9343 33.6391 31.7762C33.7772 31.618 33.8506 31.4141 33.8448 31.2048C33.9696 31.1167 34.0638 30.9922 34.1143 30.8487C34.1649 30.7051 34.1694 30.5495 34.1271 30.4034C34.0849 30.2572 33.9979 30.1276 33.8784 30.0326C33.7588 29.9375 33.6125 29.8816 33.4596 29.8725ZM41.0489 9.23693C44.2809 9.2907 47.0674 6.29154 47.7475 1.4702C47.7267 1.05623 47.7267 0.641486 47.7475 0.227519C47.7475 -0.00548275 48.0063 -0.113022 48.0424 0.167775C48.3674 2.65313 48.7586 5.02497 50.0045 6.86509C51.2503 8.7052 53.0137 9.7328 54.8193 9.69098C54.9698 9.69098 55.0059 9.89411 54.9637 10.0494C55.0059 10.0494 55.0179 10.1749 54.9637 10.1809C54.9167 10.1893 54.8705 10.2013 54.8253 10.2167H54.7892C53.1221 10.6349 51.2624 10.8142 49.9142 12.5169C48.3193 14.5303 48.1628 17.8042 48.1929 20.7436C48.2003 20.8991 48.1463 21.0513 48.0424 21.1678V21.1977C48.0424 21.5203 47.7355 21.5741 47.6813 21.2694V21.1559C47.6269 21.1021 47.5844 21.0377 47.5564 20.9667C47.5285 20.8957 47.5157 20.8198 47.5188 20.7436V20.2239C47.1577 18.1268 46.8508 16.0418 45.8938 14.3032C44.6901 12.1345 43.0049 10.9516 41.1753 10.6349C40.9707 10.5991 40.8624 10.3362 40.8624 10.0913C40.6577 9.85229 40.7119 9.23095 41.0489 9.23693Z" fill="black" fill-opacity="0.8"/>
</svg>
