<svg width="368" height="368" viewBox="0 0 368 368" fill="none" xmlns="http://www.w3.org/2000/svg">
<path d="M1.9 191.114C0.9 191.114 0.1 191.858 0.1 192.788C0.1 193.718 0.9 194.462 1.9 194.462C2.9 194.462 3.7 193.718 3.7 192.788C3.7 191.858 2.9 191.114 1.9 191.114Z" fill="#DDDDDD"/>
<path d="M1.9 173.538C0.9 173.538 0.1 174.282 0.1 175.212C0.1 176.142 0.9 176.886 1.9 176.886C2.9 176.886 3.7 176.142 3.7 175.212C3.7 174.282 2.9 173.538 1.9 173.538Z" fill="#DDDDDD"/>
<path d="M1.9 138.477C1.4 138.477 0.900001 138.663 0.600001 139.035C0.500001 139.593 0.300001 140.151 0.200001 140.709C0.400001 141.36 1.1 141.825 1.9 141.825C2.9 141.825 3.7 141.081 3.7 140.151C3.7 139.221 2.9 138.477 1.9 138.477Z" fill="#DDDDDD"/>
<path d="M1.9 155.961C1.8 155.961 1.6 155.961 1.5 155.961H1.4C1.3 155.961 1.2 156.054 1.1 156.054H1C0.9 156.147 0.8 156.147 0.7 156.24C0.3 156.519 0.1 156.984 0.1 157.449C0.1 158.007 0.4 158.379 0.8 158.751C0.8 158.751 0.8 158.751 0.9 158.751C1 158.844 1.2 158.937 1.4 159.03H1.5C1.7 159.123 1.9 159.123 2 159.123C3 159.123 3.8 158.379 3.8 157.449C3.7 156.705 2.9 155.961 1.9 155.961Z" fill="#DDDDDD"/>
<path d="M1.9 208.598C1.7 208.598 1.5 208.598 1.4 208.691H1.3C1.1 208.784 1 208.784 0.8 208.97C0.8 208.97 0.8 208.97 0.7 208.97C0.3 209.249 0 209.714 0 210.272C0 210.737 0.2 211.202 0.6 211.481C0.7 211.574 0.8 211.574 0.9 211.667H1C1.1 211.667 1.2 211.76 1.3 211.76H1.4C1.5 211.76 1.7 211.76 1.8 211.76C2.8 211.76 3.6 211.016 3.6 210.086C3.7 209.342 2.9 208.598 1.9 208.598Z" fill="#DDDDDD"/>
<path d="M26.2 103.323C25.2 103.323 24.4 104.067 24.4 104.997C24.4 105.927 25.2 106.671 26.2 106.671C27.2 106.671 28 105.927 28 104.997C28 104.067 27.2 103.323 26.2 103.323Z" fill="#DDDDDD"/>
<path d="M26.2 120.9C25.2 120.9 24.4 121.644 24.4 122.574C24.4 123.504 25.2 124.248 26.2 124.248C27.2 124.248 28 123.504 28 122.574C28 121.644 27.2 120.9 26.2 120.9Z" fill="#DDDDDD"/>
<path d="M26.2 85.7458C25.2 85.7458 24.4 86.4898 24.4 87.4198C24.4 88.3498 25.2 89.0938 26.2 89.0938C27.2 89.0938 28 88.3498 28 87.4198C28 86.4898 27.2 85.7458 26.2 85.7458Z" fill="#DDDDDD"/>
<path d="M26.2 191.114C25.2 191.114 24.4 191.858 24.4 192.788C24.4 193.718 25.2 194.462 26.2 194.462C27.2 194.462 28 193.718 28 192.788C28 191.858 27.2 191.114 26.2 191.114Z" fill="#DDDDDD"/>
<path d="M26.2 208.598C25.2 208.598 24.4 209.342 24.4 210.272C24.4 211.202 25.2 211.946 26.2 211.946C27.2 211.946 28 211.202 28 210.272C28 209.342 27.2 208.598 26.2 208.598Z" fill="#DDDDDD"/>
<path d="M26.2 138.477C25.2 138.477 24.4 139.221 24.4 140.151C24.4 141.081 25.2 141.825 26.2 141.825C27.2 141.825 28 141.081 28 140.151C28 139.221 27.2 138.477 26.2 138.477Z" fill="#DDDDDD"/>
<path d="M26.2 173.538C25.2 173.538 24.4 174.282 24.4 175.212C24.4 176.142 25.2 176.886 26.2 176.886C27.2 176.886 28 176.142 28 175.212C28 174.282 27.2 173.538 26.2 173.538Z" fill="#DDDDDD"/>
<path d="M26.2 155.961C25.2 155.961 24.4 156.705 24.4 157.635C24.4 158.565 25.2 159.309 26.2 159.309C27.2 159.309 28 158.565 28 157.635C28 156.705 27.2 155.961 26.2 155.961Z" fill="#DDDDDD"/>
<path d="M50.5 138.477C49.5 138.477 48.7 139.221 48.7 140.151C48.7 141.081 49.5 141.825 50.5 141.825C51.5 141.825 52.3 141.081 52.3 140.151C52.3 139.221 51.5 138.477 50.5 138.477Z" fill="#DDDDDD"/>
<path d="M50.5 173.538C49.5 173.538 48.7 174.282 48.7 175.212C48.7 176.142 49.5 176.886 50.5 176.886C51.5 176.886 52.3 176.142 52.3 175.212C52.3 174.282 51.5 173.538 50.5 173.538Z" fill="#DDDDDD"/>
<path d="M50.5 155.961C49.5 155.961 48.7 156.705 48.7 157.635C48.7 158.565 49.5 159.309 50.5 159.309C51.5 159.309 52.3 158.565 52.3 157.635C52.3 156.705 51.5 155.961 50.5 155.961Z" fill="#DDDDDD"/>
<path d="M50.5 85.7458C49.5 85.7458 48.7 86.4898 48.7 87.4198C48.7 88.3498 49.5 89.0938 50.5 89.0938C51.5 89.0938 52.3 88.3498 52.3 87.4198C52.3 86.4898 51.5 85.7458 50.5 85.7458Z" fill="#DDDDDD"/>
<path d="M50.5 120.9C49.5 120.9 48.7 121.644 48.7 122.574C48.7 123.504 49.5 124.248 50.5 124.248C51.5 124.248 52.3 123.504 52.3 122.574C52.3 121.644 51.5 120.9 50.5 120.9Z" fill="#DDDDDD"/>
<path d="M50.5 191.114C49.5 191.114 48.7 191.858 48.7 192.788C48.7 193.718 49.5 194.462 50.5 194.462C51.5 194.462 52.3 193.718 52.3 192.788C52.3 191.858 51.5 191.114 50.5 191.114Z" fill="#DDDDDD"/>
<path d="M50.5 103.323C49.5 103.323 48.7 104.067 48.7 104.997C48.7 105.927 49.5 106.671 50.5 106.671C51.5 106.671 52.3 105.927 52.3 104.997C52.3 104.067 51.5 103.323 50.5 103.323Z" fill="#DDDDDD"/>
<path d="M49.3 53.5679C49.6 53.8469 50 54.0329 50.5 54.0329C51.5 54.0329 52.3 53.2889 52.3 52.3589C52.3 51.8939 52.1 51.5219 51.8 51.2429C50.9 51.9869 50.1 52.8239 49.3 53.5679Z" fill="#DDDDDD"/>
<path d="M50.5 68.2618C49.5 68.2618 48.7 69.0058 48.7 69.9358C48.7 70.8658 49.5 71.6098 50.5 71.6098C51.5 71.6098 52.3 70.8658 52.3 69.9358C52.3 69.0058 51.5 68.2618 50.5 68.2618Z" fill="#DDDDDD"/>
<path d="M50.5 208.598C49.5 208.598 48.7 209.342 48.7 210.272C48.7 211.202 49.5 211.946 50.5 211.946C51.5 211.946 52.3 211.202 52.3 210.272C52.3 209.342 51.5 208.598 50.5 208.598Z" fill="#DDDDDD"/>
<path d="M74.8 138.477C73.8 138.477 73 139.221 73 140.151C73 141.081 73.8 141.825 74.8 141.825C75.8 141.825 76.6 141.081 76.6 140.151C76.6 139.221 75.7 138.477 74.8 138.477Z" fill="#DDDDDD"/>
<path d="M74.8 173.538C73.8 173.538 73 174.282 73 175.212C73 176.142 73.8 176.886 74.8 176.886C75.8 176.886 76.6 176.142 76.6 175.212C76.6 174.282 75.7 173.538 74.8 173.538Z" fill="#DDDDDD"/>
<path d="M74.8 155.961C73.8 155.961 73 156.705 73 157.635C73 158.565 73.8 159.309 74.8 159.309C75.8 159.309 76.6 158.565 76.6 157.635C76.6 156.705 75.7 155.961 74.8 155.961Z" fill="#DDDDDD"/>
<path d="M74.8 103.323C73.8 103.323 73 104.067 73 104.997C73 105.927 73.8 106.671 74.8 106.671C75.8 106.671 76.6 105.927 76.6 104.997C76.6 104.067 75.7 103.323 74.8 103.323Z" fill="#DDDDDD"/>
<path d="M74.8 50.6849C73.8 50.6849 73 51.4289 73 52.3589C73 53.2889 73.8 54.0329 74.8 54.0329C75.8 54.0329 76.6 53.2889 76.6 52.3589C76.6 51.4289 75.7 50.6849 74.8 50.6849Z" fill="#DDDDDD"/>
<path d="M74.8 68.2618C73.8 68.2618 73 69.0058 73 69.9358C73 70.8658 73.8 71.6098 74.8 71.6098C75.8 71.6098 76.6 70.8658 76.6 69.9358C76.6 69.0058 75.7 68.2618 74.8 68.2618Z" fill="#DDDDDD"/>
<path d="M74.8 85.7458C73.8 85.7458 73 86.4898 73 87.4198C73 88.3498 73.8 89.0938 74.8 89.0938C75.8 89.0938 76.6 88.3498 76.6 87.4198C76.6 86.4898 75.7 85.7458 74.8 85.7458Z" fill="#DDDDDD"/>
<path d="M74.8 120.9C73.8 120.9 73 121.644 73 122.574C73 123.504 73.8 124.248 74.8 124.248C75.8 124.248 76.6 123.504 76.6 122.574C76.6 121.644 75.7 120.9 74.8 120.9Z" fill="#DDDDDD"/>
<path d="M74.8 208.598C73.8 208.598 73 209.342 73 210.272C73 211.202 73.8 211.946 74.8 211.946C75.8 211.946 76.6 211.202 76.6 210.272C76.6 209.342 75.7 208.598 74.8 208.598Z" fill="#DDDDDD"/>
<path d="M74.8 191.114C73.8 191.114 73 191.858 73 192.788C73 193.718 73.8 194.462 74.8 194.462C75.8 194.462 76.6 193.718 76.6 192.788C76.6 191.858 75.7 191.114 74.8 191.114Z" fill="#DDDDDD"/>
<path d="M74.8 33.1079C74.7 33.1079 74.6 33.1079 74.6 33.1079C74.1 33.3869 73.7 33.7589 73.2 34.0379C73.1 34.2239 73 34.5029 73 34.7819C73 35.7119 73.8 36.4559 74.8 36.4559C75.8 36.4559 76.6 35.7119 76.6 34.7819C76.6 33.8519 75.7 33.1079 74.8 33.1079Z" fill="#DDDDDD"/>
<path d="M99 208.598C98 208.598 97.2 209.342 97.2 210.272C97.2 211.202 98 211.946 99 211.946C100 211.946 100.8 211.202 100.8 210.272C100.8 209.342 100 208.598 99 208.598Z" fill="#DDDDDD"/>
<path d="M99 191.114C98 191.114 97.2 191.858 97.2 192.788C97.2 193.718 98 194.462 99 194.462C100 194.462 100.8 193.718 100.8 192.788C100.8 191.858 100 191.114 99 191.114Z" fill="#DDDDDD"/>
<path d="M99 85.7458C98 85.7458 97.2 86.4898 97.2 87.4198C97.2 88.3498 98 89.0938 99 89.0938C100 89.0938 100.8 88.3498 100.8 87.4198C100.8 86.4898 100 85.7458 99 85.7458Z" fill="#DDDDDD"/>
<path d="M99 68.2618C98 68.2618 97.2 69.0058 97.2 69.9358C97.2 70.8658 98 71.6098 99 71.6098C100 71.6098 100.8 70.8658 100.8 69.9358C100.8 69.0058 100 68.2618 99 68.2618Z" fill="#DDDDDD"/>
<path d="M99 103.323C98 103.323 97.2 104.067 97.2 104.997C97.2 105.927 98 106.671 99 106.671C100 106.671 100.8 105.927 100.8 104.997C100.8 104.067 100 103.323 99 103.323Z" fill="#DDDDDD"/>
<path d="M99 173.538C98 173.538 97.2 174.282 97.2 175.212C97.2 176.142 98 176.886 99 176.886C100 176.886 100.8 176.142 100.8 175.212C100.8 174.282 100 173.538 99 173.538Z" fill="#DDDDDD"/>
<path d="M99 155.961C98 155.961 97.2 156.705 97.2 157.635C97.2 158.565 98 159.309 99 159.309C100 159.309 100.8 158.565 100.8 157.635C100.8 156.705 100 155.961 99 155.961Z" fill="#DDDDDD"/>
<path d="M99 138.477C98 138.477 97.2 139.221 97.2 140.151C97.2 141.081 98 141.825 99 141.825C100 141.825 100.8 141.081 100.8 140.151C100.8 139.221 100 138.477 99 138.477Z" fill="#DDDDDD"/>
<path d="M99 120.9C98 120.9 97.2 121.644 97.2 122.574C97.2 123.504 98 124.248 99 124.248C100 124.248 100.8 123.504 100.8 122.574C100.8 121.644 100 120.9 99 120.9Z" fill="#DDDDDD"/>
<path d="M99 50.6849C98 50.6849 97.2 51.4289 97.2 52.3589C97.2 53.2889 98 54.0329 99 54.0329C100 54.0329 100.8 53.2889 100.8 52.3589C100.8 51.4289 100 50.6849 99 50.6849Z" fill="#DDDDDD"/>
<path d="M99 33.1079C98 33.1079 97.2 33.8519 97.2 34.7819C97.2 35.7119 98 36.4559 99 36.4559C100 36.4559 100.8 35.7119 100.8 34.7819C100.8 33.8519 100 33.1079 99 33.1079Z" fill="#DDDDDD"/>
<path d="M123.3 191.114C122.3 191.114 121.5 191.858 121.5 192.788C121.5 193.718 122.3 194.462 123.3 194.462C124.3 194.462 125.1 193.718 125.1 192.788C125.1 191.858 124.3 191.114 123.3 191.114Z" fill="#DDDDDD"/>
<path d="M123.3 173.538C122.3 173.538 121.5 174.282 121.5 175.212C121.5 176.142 122.3 176.886 123.3 176.886C124.3 176.886 125.1 176.142 125.1 175.212C125.1 174.282 124.3 173.538 123.3 173.538Z" fill="#DDDDDD"/>
<path d="M123.3 208.598C122.3 208.598 121.5 209.342 121.5 210.272C121.5 211.202 122.3 211.946 123.3 211.946C124.3 211.946 125.1 211.202 125.1 210.272C125.1 209.342 124.3 208.598 123.3 208.598Z" fill="#DDDDDD"/>
<path d="M123.3 138.477C122.3 138.477 121.5 139.221 121.5 140.151C121.5 141.081 122.3 141.825 123.3 141.825C124.3 141.825 125.1 141.081 125.1 140.151C125.1 139.221 124.3 138.477 123.3 138.477Z" fill="#DDDDDD"/>
<path d="M123.3 155.961C122.3 155.961 121.5 156.705 121.5 157.635C121.5 158.565 122.3 159.309 123.3 159.309C124.3 159.309 125.1 158.565 125.1 157.635C125.1 156.705 124.3 155.961 123.3 155.961Z" fill="#DDDDDD"/>
<path d="M123.3 120.9C122.3 120.9 121.5 121.644 121.5 122.574C121.5 123.504 122.3 124.248 123.3 124.248C124.3 124.248 125.1 123.504 125.1 122.574C125.1 121.644 124.3 120.9 123.3 120.9Z" fill="#DDDDDD"/>
<path d="M123.3 50.6849C122.3 50.6849 121.5 51.4289 121.5 52.3589C121.5 53.2889 122.3 54.0329 123.3 54.0329C124.3 54.0329 125.1 53.2889 125.1 52.3589C125.1 51.4289 124.3 50.6849 123.3 50.6849Z" fill="#DDDDDD"/>
<path d="M123.3 15.624C122.3 15.624 121.5 16.368 121.5 17.298C121.5 18.228 122.3 18.972 123.3 18.972C124.3 18.972 125.1 18.228 125.1 17.298C125.1 16.368 124.3 15.624 123.3 15.624Z" fill="#DDDDDD"/>
<path d="M123.3 33.1079C122.3 33.1079 121.5 33.8519 121.5 34.7819C121.5 35.7119 122.3 36.4559 123.3 36.4559C124.3 36.4559 125.1 35.7119 125.1 34.7819C125.1 33.8519 124.3 33.1079 123.3 33.1079Z" fill="#DDDDDD"/>
<path d="M123.3 103.323C122.3 103.323 121.5 104.067 121.5 104.997C121.5 105.927 122.3 106.671 123.3 106.671C124.3 106.671 125.1 105.927 125.1 104.997C125.1 104.067 124.3 103.323 123.3 103.323Z" fill="#DDDDDD"/>
<path d="M123.3 68.2618C122.3 68.2618 121.5 69.0058 121.5 69.9358C121.5 70.8658 122.3 71.6098 123.3 71.6098C124.3 71.6098 125.1 70.8658 125.1 69.9358C125.1 69.0058 124.3 68.2618 123.3 68.2618Z" fill="#DDDDDD"/>
<path d="M123.3 85.7458C122.3 85.7458 121.5 86.4898 121.5 87.4198C121.5 88.3498 122.3 89.0938 123.3 89.0938C124.3 89.0938 125.1 88.3498 125.1 87.4198C125.1 86.4898 124.3 85.7458 123.3 85.7458Z" fill="#DDDDDD"/>
<path d="M147.6 138.477C146.6 138.477 145.8 139.221 145.8 140.151C145.8 141.081 146.6 141.825 147.6 141.825C148.6 141.825 149.4 141.081 149.4 140.151C149.4 139.221 148.6 138.477 147.6 138.477Z" fill="#DDDDDD"/>
<path d="M147.6 120.9C146.6 120.9 145.8 121.644 145.8 122.574C145.8 123.504 146.6 124.248 147.6 124.248C148.6 124.248 149.4 123.504 149.4 122.574C149.4 121.644 148.6 120.9 147.6 120.9Z" fill="#DDDDDD"/>
<path d="M147.6 15.624C146.6 15.624 145.8 16.368 145.8 17.298C145.8 18.228 146.6 18.972 147.6 18.972C148.6 18.972 149.4 18.228 149.4 17.298C149.4 16.368 148.6 15.624 147.6 15.624Z" fill="#DDDDDD"/>
<path d="M147.6 103.323C146.6 103.323 145.8 104.067 145.8 104.997C145.8 105.927 146.6 106.671 147.6 106.671C148.6 106.671 149.4 105.927 149.4 104.997C149.4 104.067 148.6 103.323 147.6 103.323Z" fill="#DDDDDD"/>
<path d="M147.6 173.538C146.6 173.538 145.8 174.282 145.8 175.212C145.8 176.142 146.6 176.886 147.6 176.886C148.6 176.886 149.4 176.142 149.4 175.212C149.4 174.282 148.6 173.538 147.6 173.538Z" fill="#DDDDDD"/>
<path d="M147.6 68.2618C146.6 68.2618 145.8 69.0058 145.8 69.9358C145.8 70.8658 146.6 71.6098 147.6 71.6098C148.6 71.6098 149.4 70.8658 149.4 69.9358C149.4 69.0058 148.6 68.2618 147.6 68.2618Z" fill="#DDDDDD"/>
<path d="M147.6 50.6849C146.6 50.6849 145.8 51.4289 145.8 52.3589C145.8 53.2889 146.6 54.0329 147.6 54.0329C148.6 54.0329 149.4 53.2889 149.4 52.3589C149.4 51.4289 148.6 50.6849 147.6 50.6849Z" fill="#DDDDDD"/>
<path d="M147.6 85.7458C146.6 85.7458 145.8 86.4898 145.8 87.4198C145.8 88.3498 146.6 89.0938 147.6 89.0938C148.6 89.0938 149.4 88.3498 149.4 87.4198C149.4 86.4898 148.6 85.7458 147.6 85.7458Z" fill="#DDDDDD"/>
<path d="M147.6 191.114C146.6 191.114 145.8 191.858 145.8 192.788C145.8 193.718 146.6 194.462 147.6 194.462C148.6 194.462 149.4 193.718 149.4 192.788C149.4 191.858 148.6 191.114 147.6 191.114Z" fill="#DDDDDD"/>
<path d="M147.6 155.961C146.6 155.961 145.8 156.705 145.8 157.635C145.8 158.565 146.6 159.309 147.6 159.309C148.6 159.309 149.4 158.565 149.4 157.635C149.4 156.705 148.6 155.961 147.6 155.961Z" fill="#DDDDDD"/>
<path d="M147.6 208.598C146.6 208.598 145.8 209.342 145.8 210.272C145.8 211.202 146.6 211.946 147.6 211.946C148.6 211.946 149.4 211.202 149.4 210.272C149.4 209.342 148.6 208.598 147.6 208.598Z" fill="#DDDDDD"/>
<path d="M147.6 33.1079C146.6 33.1079 145.8 33.8519 145.8 34.7819C145.8 35.7119 146.6 36.4559 147.6 36.4559C148.6 36.4559 149.4 35.7119 149.4 34.7819C149.4 33.8519 148.6 33.1079 147.6 33.1079Z" fill="#DDDDDD"/>
<path d="M171.9 1.395C172.4 1.395 172.8 1.209 173.2 0.929998C173.4 0.743998 173.6 0.371999 173.7 0.0930001C172.6 0.186 171.4 0.186 170.3 0.279C170.4 0.464999 170.5 0.743998 170.7 0.929998C171 1.209 171.4 1.395 171.9 1.395Z" fill="#DDDDDD"/>
<path d="M171.9 173.538C170.9 173.538 170.1 174.282 170.1 175.212C170.1 176.142 170.9 176.886 171.9 176.886C172.9 176.886 173.7 176.142 173.7 175.212C173.7 174.282 172.9 173.538 171.9 173.538Z" fill="#DDDDDD"/>
<path d="M171.9 155.961C170.9 155.961 170.1 156.705 170.1 157.635C170.1 158.565 170.9 159.309 171.9 159.309C172.9 159.309 173.7 158.565 173.7 157.635C173.7 156.705 172.9 155.961 171.9 155.961Z" fill="#DDDDDD"/>
<path d="M171.9 138.477C170.9 138.477 170.1 139.221 170.1 140.151C170.1 141.081 170.9 141.825 171.9 141.825C172.9 141.825 173.7 141.081 173.7 140.151C173.7 139.221 172.9 138.477 171.9 138.477Z" fill="#DDDDDD"/>
<path d="M171.9 191.114C170.9 191.114 170.1 191.858 170.1 192.788C170.1 193.718 170.9 194.462 171.9 194.462C172.9 194.462 173.7 193.718 173.7 192.788C173.7 191.858 172.9 191.114 171.9 191.114Z" fill="#DDDDDD"/>
<path d="M171.9 208.598C170.9 208.598 170.1 209.342 170.1 210.272C170.1 211.202 170.9 211.946 171.9 211.946C172.9 211.946 173.7 211.202 173.7 210.272C173.7 209.342 172.9 208.598 171.9 208.598Z" fill="#DDDDDD"/>
<path d="M171.9 15.624C170.9 15.624 170.1 16.368 170.1 17.298C170.1 18.228 170.9 18.972 171.9 18.972C172.9 18.972 173.7 18.228 173.7 17.298C173.7 16.368 172.9 15.624 171.9 15.624Z" fill="#DDDDDD"/>
<path d="M171.9 33.1079C170.9 33.1079 170.1 33.8519 170.1 34.7819C170.1 35.7119 170.9 36.4559 171.9 36.4559C172.9 36.4559 173.7 35.7119 173.7 34.7819C173.7 33.8519 172.9 33.1079 171.9 33.1079Z" fill="#DDDDDD"/>
<path d="M171.9 68.2618C170.9 68.2618 170.1 69.0058 170.1 69.9358C170.1 70.8658 170.9 71.6098 171.9 71.6098C172.9 71.6098 173.7 70.8658 173.7 69.9358C173.7 69.0058 172.9 68.2618 171.9 68.2618Z" fill="#DDDDDD"/>
<path d="M171.9 85.7458C170.9 85.7458 170.1 86.4898 170.1 87.4198C170.1 88.3498 170.9 89.0938 171.9 89.0938C172.9 89.0938 173.7 88.3498 173.7 87.4198C173.7 86.4898 172.9 85.7458 171.9 85.7458Z" fill="#DDDDDD"/>
<path d="M171.9 103.323C170.9 103.323 170.1 104.067 170.1 104.997C170.1 105.927 170.9 106.671 171.9 106.671C172.9 106.671 173.7 105.927 173.7 104.997C173.7 104.067 172.9 103.323 171.9 103.323Z" fill="#DDDDDD"/>
<path d="M171.9 120.9C170.9 120.9 170.1 121.644 170.1 122.574C170.1 123.504 170.9 124.248 171.9 124.248C172.9 124.248 173.7 123.504 173.7 122.574C173.7 121.644 172.9 120.9 171.9 120.9Z" fill="#DDDDDD"/>
<path d="M171.9 50.6849C170.9 50.6849 170.1 51.4289 170.1 52.3589C170.1 53.2889 170.9 54.0329 171.9 54.0329C172.9 54.0329 173.7 53.2889 173.7 52.3589C173.7 51.4289 172.9 50.6849 171.9 50.6849Z" fill="#DDDDDD"/>
<path d="M196.2 1.395C196.7 1.395 197.1 1.209 197.5 0.929998C197.7 0.743998 197.9 0.464999 198 0.186C196.8 0.0929998 195.7 0.0929997 194.5 0C194.5 0.371999 194.7 0.743998 195 0.929998C195.3 1.209 195.7 1.395 196.2 1.395Z" fill="#DDDDDD"/>
<path d="M196.2 155.961C195.2 155.961 194.4 156.705 194.4 157.635C194.4 158.565 195.2 159.309 196.2 159.309C197.2 159.309 198 158.565 198 157.635C198 156.705 197.2 155.961 196.2 155.961Z" fill="#DDDDDD"/>
<path d="M196.2 138.477C195.2 138.477 194.4 139.221 194.4 140.151C194.4 141.081 195.2 141.825 196.2 141.825C197.2 141.825 198 141.081 198 140.151C198 139.221 197.2 138.477 196.2 138.477Z" fill="#DDDDDD"/>
<path d="M196.2 103.323C195.2 103.323 194.4 104.067 194.4 104.997C194.4 105.927 195.2 106.671 196.2 106.671C197.2 106.671 198 105.927 198 104.997C198 104.067 197.2 103.323 196.2 103.323Z" fill="#DDDDDD"/>
<path d="M196.2 85.7458C195.2 85.7458 194.4 86.4898 194.4 87.4198C194.4 88.3498 195.2 89.0938 196.2 89.0938C197.2 89.0938 198 88.3498 198 87.4198C198 86.4898 197.2 85.7458 196.2 85.7458Z" fill="#DDDDDD"/>
<path d="M196.2 68.2618C195.2 68.2618 194.4 69.0058 194.4 69.9358C194.4 70.8658 195.2 71.6098 196.2 71.6098C197.2 71.6098 198 70.8658 198 69.9358C198 69.0058 197.2 68.2618 196.2 68.2618Z" fill="#DDDDDD"/>
<path d="M196.2 191.114C195.2 191.114 194.4 191.858 194.4 192.788C194.4 193.718 195.2 194.462 196.2 194.462C197.2 194.462 198 193.718 198 192.788C198 191.858 197.2 191.114 196.2 191.114Z" fill="#DDDDDD"/>
<path d="M196.2 173.538C195.2 173.538 194.4 174.282 194.4 175.212C194.4 176.142 195.2 176.886 196.2 176.886C197.2 176.886 198 176.142 198 175.212C198 174.282 197.2 173.538 196.2 173.538Z" fill="#DDDDDD"/>
<path d="M196.2 208.598C195.2 208.598 194.4 209.342 194.4 210.272C194.4 211.202 195.2 211.946 196.2 211.946C197.2 211.946 198 211.202 198 210.272C198 209.342 197.2 208.598 196.2 208.598Z" fill="#DDDDDD"/>
<path d="M196.2 50.6849C195.2 50.6849 194.4 51.4289 194.4 52.3589C194.4 53.2889 195.2 54.0329 196.2 54.0329C197.2 54.0329 198 53.2889 198 52.3589C198 51.4289 197.2 50.6849 196.2 50.6849Z" fill="#DDDDDD"/>
<path d="M196.2 120.9C195.2 120.9 194.4 121.644 194.4 122.574C194.4 123.504 195.2 124.248 196.2 124.248C197.2 124.248 198 123.504 198 122.574C198 121.644 197.2 120.9 196.2 120.9Z" fill="#DDDDDD"/>
<path d="M196.2 33.1079C195.2 33.1079 194.4 33.8519 194.4 34.7819C194.4 35.7119 195.2 36.4559 196.2 36.4559C197.2 36.4559 198 35.7119 198 34.7819C198 33.8519 197.2 33.1079 196.2 33.1079Z" fill="#DDDDDD"/>
<path d="M196.2 15.624C195.2 15.624 194.4 16.368 194.4 17.298C194.4 18.228 195.2 18.972 196.2 18.972C197.2 18.972 198 18.228 198 17.298C198 16.368 197.2 15.624 196.2 15.624Z" fill="#DDDDDD"/>
<path d="M220.5 208.598C219.5 208.598 218.7 209.342 218.7 210.272C218.7 211.202 219.5 211.946 220.5 211.946C221.5 211.946 222.3 211.202 222.3 210.272C222.3 209.342 221.5 208.598 220.5 208.598Z" fill="#DDDDDD"/>
<path d="M220.5 138.477C219.5 138.477 218.7 139.221 218.7 140.151C218.7 141.081 219.5 141.825 220.5 141.825C221.5 141.825 222.3 141.081 222.3 140.151C222.3 139.221 221.5 138.477 220.5 138.477Z" fill="#DDDDDD"/>
<path d="M220.5 191.114C219.5 191.114 218.7 191.858 218.7 192.788C218.7 193.718 219.5 194.462 220.5 194.462C221.5 194.462 222.3 193.718 222.3 192.788C222.3 191.858 221.5 191.114 220.5 191.114Z" fill="#DDDDDD"/>
<path d="M220.5 155.961C219.5 155.961 218.7 156.705 218.7 157.635C218.7 158.565 219.5 159.309 220.5 159.309C221.5 159.309 222.3 158.565 222.3 157.635C222.3 156.705 221.5 155.961 220.5 155.961Z" fill="#DDDDDD"/>
<path d="M220.5 120.9C219.5 120.9 218.7 121.644 218.7 122.574C218.7 123.504 219.5 124.248 220.5 124.248C221.5 124.248 222.3 123.504 222.3 122.574C222.3 121.644 221.5 120.9 220.5 120.9Z" fill="#DDDDDD"/>
<path d="M220.5 173.538C219.5 173.538 218.7 174.282 218.7 175.212C218.7 176.142 219.5 176.886 220.5 176.886C221.5 176.886 222.3 176.142 222.3 175.212C222.3 174.282 221.5 173.538 220.5 173.538Z" fill="#DDDDDD"/>
<path d="M220.5 50.6849C219.5 50.6849 218.7 51.4289 218.7 52.3589C218.7 53.2889 219.5 54.0329 220.5 54.0329C221.5 54.0329 222.3 53.2889 222.3 52.3589C222.3 51.4289 221.5 50.6849 220.5 50.6849Z" fill="#DDDDDD"/>
<path d="M220.5 15.624C219.5 15.624 218.7 16.368 218.7 17.298C218.7 18.228 219.5 18.972 220.5 18.972C221.5 18.972 222.3 18.228 222.3 17.298C222.3 16.368 221.5 15.624 220.5 15.624Z" fill="#DDDDDD"/>
<path d="M220.5 103.323C219.5 103.323 218.7 104.067 218.7 104.997C218.7 105.927 219.5 106.671 220.5 106.671C221.5 106.671 222.3 105.927 222.3 104.997C222.3 104.067 221.5 103.323 220.5 103.323Z" fill="#DDDDDD"/>
<path d="M220.5 33.1079C219.5 33.1079 218.7 33.8519 218.7 34.7819C218.7 35.7119 219.5 36.4559 220.5 36.4559C221.5 36.4559 222.3 35.7119 222.3 34.7819C222.3 33.8519 221.5 33.1079 220.5 33.1079Z" fill="#DDDDDD"/>
<path d="M220.5 68.2618C219.5 68.2618 218.7 69.0058 218.7 69.9358C218.7 70.8658 219.5 71.6098 220.5 71.6098C221.5 71.6098 222.3 70.8658 222.3 69.9358C222.3 69.0058 221.5 68.2618 220.5 68.2618Z" fill="#DDDDDD"/>
<path d="M220.5 85.7458C219.5 85.7458 218.7 86.4898 218.7 87.4198C218.7 88.3498 219.5 89.0938 220.5 89.0938C221.5 89.0938 222.3 88.3498 222.3 87.4198C222.3 86.4898 221.5 85.7458 220.5 85.7458Z" fill="#DDDDDD"/>
<path d="M244.8 15.624C243.8 15.624 243 16.368 243 17.298C243 18.228 243.8 18.972 244.8 18.972C245.8 18.972 246.6 18.228 246.6 17.298C246.6 16.368 245.8 15.624 244.8 15.624Z" fill="#DDDDDD"/>
<path d="M244.8 68.2618C243.8 68.2618 243 69.0058 243 69.9358C243 70.8658 243.8 71.6098 244.8 71.6098C245.8 71.6098 246.6 70.8658 246.6 69.9358C246.6 69.0058 245.8 68.2618 244.8 68.2618Z" fill="#DDDDDD"/>
<path d="M244.8 50.6849C243.8 50.6849 243 51.4289 243 52.3589C243 53.2889 243.8 54.0329 244.8 54.0329C245.8 54.0329 246.6 53.2889 246.6 52.3589C246.6 51.4289 245.8 50.6849 244.8 50.6849Z" fill="#DDDDDD"/>
<path d="M244.8 33.1079C243.8 33.1079 243 33.8519 243 34.7819C243 35.7119 243.8 36.4559 244.8 36.4559C245.8 36.4559 246.6 35.7119 246.6 34.7819C246.6 33.8519 245.8 33.1079 244.8 33.1079Z" fill="#DDDDDD"/>
<path d="M244.8 120.9C243.8 120.9 243 121.644 243 122.574C243 123.504 243.8 124.248 244.8 124.248C245.8 124.248 246.6 123.504 246.6 122.574C246.6 121.644 245.8 120.9 244.8 120.9Z" fill="#DDDDDD"/>
<path d="M244.8 208.598C243.8 208.598 243 209.342 243 210.272C243 211.202 243.8 211.946 244.8 211.946C245.8 211.946 246.6 211.202 246.6 210.272C246.6 209.342 245.8 208.598 244.8 208.598Z" fill="#DDDDDD"/>
<path d="M244.8 103.323C243.8 103.323 243 104.067 243 104.997C243 105.927 243.8 106.671 244.8 106.671C245.8 106.671 246.6 105.927 246.6 104.997C246.6 104.067 245.8 103.323 244.8 103.323Z" fill="#DDDDDD"/>
<path d="M244.8 85.7458C243.8 85.7458 243 86.4898 243 87.4198C243 88.3498 243.8 89.0938 244.8 89.0938C245.8 89.0938 246.6 88.3498 246.6 87.4198C246.6 86.4898 245.8 85.7458 244.8 85.7458Z" fill="#DDDDDD"/>
<path d="M244.8 191.114C243.8 191.114 243 191.858 243 192.788C243 193.718 243.8 194.462 244.8 194.462C245.8 194.462 246.6 193.718 246.6 192.788C246.6 191.858 245.8 191.114 244.8 191.114Z" fill="#DDDDDD"/>
<path d="M244.8 173.538C243.8 173.538 243 174.282 243 175.212C243 176.142 243.8 176.886 244.8 176.886C245.8 176.886 246.6 176.142 246.6 175.212C246.6 174.282 245.8 173.538 244.8 173.538Z" fill="#DDDDDD"/>
<path d="M244.8 155.961C243.8 155.961 243 156.705 243 157.635C243 158.565 243.8 159.309 244.8 159.309C245.8 159.309 246.6 158.565 246.6 157.635C246.6 156.705 245.8 155.961 244.8 155.961Z" fill="#DDDDDD"/>
<path d="M244.8 138.477C243.8 138.477 243 139.221 243 140.151C243 141.081 243.8 141.825 244.8 141.825C245.8 141.825 246.6 141.081 246.6 140.151C246.6 139.221 245.8 138.477 244.8 138.477Z" fill="#DDDDDD"/>
<path d="M269.1 155.961C268.1 155.961 267.3 156.705 267.3 157.635C267.3 158.565 268.1 159.309 269.1 159.309C270.1 159.309 270.9 158.565 270.9 157.635C270.9 156.705 270.1 155.961 269.1 155.961Z" fill="#DDDDDD"/>
<path d="M269.1 120.9C268.1 120.9 267.3 121.644 267.3 122.574C267.3 123.504 268.1 124.248 269.1 124.248C270.1 124.248 270.9 123.504 270.9 122.574C270.9 121.644 270.1 120.9 269.1 120.9Z" fill="#DDDDDD"/>
<path d="M269.1 138.477C268.1 138.477 267.3 139.221 267.3 140.151C267.3 141.081 268.1 141.825 269.1 141.825C270.1 141.825 270.9 141.081 270.9 140.151C270.9 139.221 270.1 138.477 269.1 138.477Z" fill="#DDDDDD"/>
<path d="M269.1 85.7458C268.1 85.7458 267.3 86.4898 267.3 87.4198C267.3 88.3498 268.1 89.0938 269.1 89.0938C270.1 89.0938 270.9 88.3498 270.9 87.4198C270.9 86.4898 270.1 85.7458 269.1 85.7458Z" fill="#DDDDDD"/>
<path d="M269.1 103.323C268.1 103.323 267.3 104.067 267.3 104.997C267.3 105.927 268.1 106.671 269.1 106.671C270.1 106.671 270.9 105.927 270.9 104.997C270.9 104.067 270.1 103.323 269.1 103.323Z" fill="#DDDDDD"/>
<path d="M269.1 68.2618C268.1 68.2618 267.3 69.0058 267.3 69.9358C267.3 70.8658 268.1 71.6098 269.1 71.6098C270.1 71.6098 270.9 70.8658 270.9 69.9358C270.9 69.0058 270.1 68.2618 269.1 68.2618Z" fill="#DDDDDD"/>
<path d="M269.1 33.1079C268.1 33.1079 267.3 33.8519 267.3 34.7819C267.3 35.7119 268.1 36.4559 269.1 36.4559C270.1 36.4559 270.9 35.7119 270.9 34.7819C270.9 33.8519 270.1 33.1079 269.1 33.1079Z" fill="#DDDDDD"/>
<path d="M269.1 18.879C269.6 18.879 270 18.693 270.4 18.414C269.4 17.949 268.4 17.484 267.4 17.019C267.4 17.112 267.4 17.205 267.4 17.298C267.3 18.135 268.1 18.879 269.1 18.879Z" fill="#DDDDDD"/>
<path d="M269.1 50.6849C268.1 50.6849 267.3 51.4289 267.3 52.3589C267.3 53.2889 268.1 54.0329 269.1 54.0329C270.1 54.0329 270.9 53.2889 270.9 52.3589C270.9 51.4289 270.1 50.6849 269.1 50.6849Z" fill="#DDDDDD"/>
<path d="M269.1 173.538C268.1 173.538 267.3 174.282 267.3 175.212C267.3 176.142 268.1 176.886 269.1 176.886C270.1 176.886 270.9 176.142 270.9 175.212C270.9 174.282 270.1 173.538 269.1 173.538Z" fill="#DDDDDD"/>
<path d="M269.1 191.114C268.1 191.114 267.3 191.858 267.3 192.788C267.3 193.718 268.1 194.462 269.1 194.462C270.1 194.462 270.9 193.718 270.9 192.788C270.9 191.858 270.1 191.114 269.1 191.114Z" fill="#DDDDDD"/>
<path d="M269.1 208.598C268.1 208.598 267.3 209.342 267.3 210.272C267.3 211.202 268.1 211.946 269.1 211.946C270.1 211.946 270.9 211.202 270.9 210.272C270.9 209.342 270.1 208.598 269.1 208.598Z" fill="#DDDDDD"/>
<path d="M293.4 68.2618C292.4 68.2618 291.6 69.0058 291.6 69.9358C291.6 70.8658 292.4 71.6098 293.4 71.6098C294.4 71.6098 295.2 70.8658 295.2 69.9358C295.2 69.0058 294.4 68.2618 293.4 68.2618Z" fill="#DDDDDD"/>
<path d="M293.4 208.598C292.4 208.598 291.6 209.342 291.6 210.272C291.6 211.202 292.4 211.946 293.4 211.946C294.4 211.946 295.2 211.202 295.2 210.272C295.2 209.342 294.4 208.598 293.4 208.598Z" fill="#DDDDDD"/>
<path d="M293.4 191.114C292.4 191.114 291.6 191.858 291.6 192.788C291.6 193.718 292.4 194.462 293.4 194.462C294.4 194.462 295.2 193.718 295.2 192.788C295.2 191.858 294.4 191.114 293.4 191.114Z" fill="#DDDDDD"/>
<path d="M293.4 103.323C292.4 103.323 291.6 104.067 291.6 104.997C291.6 105.927 292.4 106.671 293.4 106.671C294.4 106.671 295.2 105.927 295.2 104.997C295.2 104.067 294.4 103.323 293.4 103.323Z" fill="#DDDDDD"/>
<path d="M293.4 50.6849C292.4 50.6849 291.6 51.4289 291.6 52.3589C291.6 53.2889 292.4 54.0329 293.4 54.0329C294.4 54.0329 295.2 53.2889 295.2 52.3589C295.2 51.4289 294.4 50.6849 293.4 50.6849Z" fill="#DDDDDD"/>
<path d="M293.4 173.538C292.4 173.538 291.6 174.282 291.6 175.212C291.6 176.142 292.4 176.886 293.4 176.886C294.4 176.886 295.2 176.142 295.2 175.212C295.2 174.282 294.4 173.538 293.4 173.538Z" fill="#DDDDDD"/>
<path d="M293.4 33.1079C292.4 33.1079 291.6 33.8519 291.6 34.7819C291.6 35.7119 292.4 36.4559 293.4 36.4559C294.4 36.4559 295.2 35.7119 295.2 34.7819C295.2 33.8519 294.4 33.1079 293.4 33.1079Z" fill="#DDDDDD"/>
<path d="M293.4 85.7458C292.4 85.7458 291.6 86.4898 291.6 87.4198C291.6 88.3498 292.4 89.0938 293.4 89.0938C294.4 89.0938 295.2 88.3498 295.2 87.4198C295.2 86.4898 294.4 85.7458 293.4 85.7458Z" fill="#DDDDDD"/>
<path d="M293.4 138.477C292.4 138.477 291.6 139.221 291.6 140.151C291.6 141.081 292.4 141.825 293.4 141.825C294.4 141.825 295.2 141.081 295.2 140.151C295.2 139.221 294.4 138.477 293.4 138.477Z" fill="#DDDDDD"/>
<path d="M293.4 120.9C292.4 120.9 291.6 121.644 291.6 122.574C291.6 123.504 292.4 124.248 293.4 124.248C294.4 124.248 295.2 123.504 295.2 122.574C295.2 121.644 294.4 120.9 293.4 120.9Z" fill="#DDDDDD"/>
<path d="M293.4 155.961C292.4 155.961 291.6 156.705 291.6 157.635C291.6 158.565 292.4 159.309 293.4 159.309C294.4 159.309 295.2 158.565 295.2 157.635C295.2 156.705 294.4 155.961 293.4 155.961Z" fill="#DDDDDD"/>
<path d="M317.7 155.961C316.7 155.961 315.9 156.705 315.9 157.635C315.9 158.565 316.7 159.309 317.7 159.309C318.7 159.309 319.5 158.565 319.5 157.635C319.4 156.705 318.6 155.961 317.7 155.961Z" fill="#DDDDDD"/>
<path d="M317.7 138.477C316.7 138.477 315.9 139.221 315.9 140.151C315.9 141.081 316.7 141.825 317.7 141.825C318.7 141.825 319.5 141.081 319.5 140.151C319.4 139.221 318.6 138.477 317.7 138.477Z" fill="#DDDDDD"/>
<path d="M317.7 85.7458C316.7 85.7458 315.9 86.4898 315.9 87.4198C315.9 88.3498 316.7 89.0938 317.7 89.0938C318.7 89.0938 319.5 88.3498 319.5 87.4198C319.4 86.4898 318.6 85.7458 317.7 85.7458Z" fill="#DDDDDD"/>
<path d="M317.7 50.6849C316.7 50.6849 315.9 51.4289 315.9 52.3589C315.9 53.2889 316.7 54.0329 317.7 54.0329C318.7 54.0329 319.5 53.2889 319.5 52.3589C319.4 51.4289 318.6 50.6849 317.7 50.6849Z" fill="#DDDDDD"/>
<path d="M317.7 68.2618C316.7 68.2618 315.9 69.0058 315.9 69.9358C315.9 70.8658 316.7 71.6098 317.7 71.6098C318.7 71.6098 319.5 70.8658 319.5 69.9358C319.4 69.0058 318.6 68.2618 317.7 68.2618Z" fill="#DDDDDD"/>
<path d="M317.7 120.9C316.7 120.9 315.9 121.644 315.9 122.574C315.9 123.504 316.7 124.248 317.7 124.248C318.7 124.248 319.5 123.504 319.5 122.574C319.4 121.644 318.6 120.9 317.7 120.9Z" fill="#DDDDDD"/>
<path d="M317.7 208.598C316.7 208.598 315.9 209.342 315.9 210.272C315.9 211.202 316.7 211.946 317.7 211.946C318.7 211.946 319.5 211.202 319.5 210.272C319.4 209.342 318.6 208.598 317.7 208.598Z" fill="#DDDDDD"/>
<path d="M317.7 103.323C316.7 103.323 315.9 104.067 315.9 104.997C315.9 105.927 316.7 106.671 317.7 106.671C318.7 106.671 319.5 105.927 319.5 104.997C319.4 104.067 318.6 103.323 317.7 103.323Z" fill="#DDDDDD"/>
<path d="M317.7 191.114C316.7 191.114 315.9 191.858 315.9 192.788C315.9 193.718 316.7 194.462 317.7 194.462C318.7 194.462 319.5 193.718 319.5 192.788C319.4 191.858 318.6 191.114 317.7 191.114Z" fill="#DDDDDD"/>
<path d="M317.7 173.538C316.7 173.538 315.9 174.282 315.9 175.212C315.9 176.142 316.7 176.886 317.7 176.886C318.7 176.886 319.5 176.142 319.5 175.212C319.4 174.282 318.6 173.538 317.7 173.538Z" fill="#DDDDDD"/>
<path d="M341.9 120.9C340.9 120.9 340.1 121.644 340.1 122.574C340.1 123.504 340.9 124.248 341.9 124.248C342.9 124.248 343.7 123.504 343.7 122.574C343.7 121.644 342.9 120.9 341.9 120.9Z" fill="#DDDDDD"/>
<path d="M341.9 155.961C340.9 155.961 340.1 156.705 340.1 157.635C340.1 158.565 340.9 159.309 341.9 159.309C342.9 159.309 343.7 158.565 343.7 157.635C343.7 156.705 342.9 155.961 341.9 155.961Z" fill="#DDDDDD"/>
<path d="M341.9 208.598C340.9 208.598 340.1 209.342 340.1 210.272C340.1 211.202 340.9 211.946 341.9 211.946C342.9 211.946 343.7 211.202 343.7 210.272C343.7 209.342 342.9 208.598 341.9 208.598Z" fill="#DDDDDD"/>
<path d="M341.9 173.538C340.9 173.538 340.1 174.282 340.1 175.212C340.1 176.142 340.9 176.886 341.9 176.886C342.9 176.886 343.7 176.142 343.7 175.212C343.7 174.282 342.9 173.538 341.9 173.538Z" fill="#DDDDDD"/>
<path d="M341.9 85.7458C340.9 85.7458 340.1 86.4898 340.1 87.4198C340.1 88.3498 340.9 89.0938 341.9 89.0938C342.9 89.0938 343.7 88.3498 343.7 87.4198C343.7 86.4898 342.9 85.7458 341.9 85.7458Z" fill="#DDDDDD"/>
<path d="M341.9 103.323C340.9 103.323 340.1 104.067 340.1 104.997C340.1 105.927 340.9 106.671 341.9 106.671C342.9 106.671 343.7 105.927 343.7 104.997C343.7 104.067 342.9 103.323 341.9 103.323Z" fill="#DDDDDD"/>
<path d="M341.9 138.477C340.9 138.477 340.1 139.221 340.1 140.151C340.1 141.081 340.9 141.825 341.9 141.825C342.9 141.825 343.7 141.081 343.7 140.151C343.7 139.221 342.9 138.477 341.9 138.477Z" fill="#DDDDDD"/>
<path d="M341.9 191.114C340.9 191.114 340.1 191.858 340.1 192.788C340.1 193.718 340.9 194.462 341.9 194.462C342.9 194.462 343.7 193.718 343.7 192.788C343.7 191.858 342.9 191.114 341.9 191.114Z" fill="#DDDDDD"/>
<path d="M366.2 155.961C365.2 155.961 364.4 156.705 364.4 157.635C364.4 158.565 365.2 159.309 366.2 159.309C367.2 159.309 368 158.565 368 157.635C368 156.705 367.2 155.961 366.2 155.961Z" fill="#DDDDDD"/>
<path d="M366.2 141.732C367.2 141.732 368 140.988 368 140.058C368 139.128 367.2 138.384 366.2 138.384C365.2 138.384 364.4 139.128 364.4 140.058C364.4 140.988 365.2 141.732 366.2 141.732Z" fill="#DDDDDD"/>
<path d="M366.2 173.538C365.2 173.538 364.4 174.282 364.4 175.212C364.4 176.142 365.2 176.886 366.2 176.886C367.2 176.886 368 176.142 368 175.212C368 174.282 367.2 173.538 366.2 173.538Z" fill="#DDDDDD"/>
<path d="M366.2 208.598C365.2 208.598 364.4 209.342 364.4 210.272C364.4 211.202 365.2 211.946 366.2 211.946C367.2 211.946 368 211.202 368 210.272C368 209.342 367.2 208.598 366.2 208.598Z" fill="#DDDDDD"/>
<path d="M366.2 191.114C365.2 191.114 364.4 191.858 364.4 192.788C364.4 193.718 365.2 194.462 366.2 194.462C367.2 194.462 368 193.718 368 192.788C368 191.858 367.2 191.114 366.2 191.114Z" fill="#DDDDDD"/>
<path d="M366.2 124.248C365.9 123.225 365.5 122.202 365.2 121.272C364.8 121.551 364.5 122.016 364.5 122.574C364.4 123.504 365.2 124.155 366.2 124.248Z" fill="#DDDDDD"/>
<path d="M1.9 226.175C1.1 226.175 0.500001 226.64 0.200001 227.291C0.300001 227.849 0.400001 228.407 0.600001 228.965C0.900001 229.337 1.4 229.523 1.9 229.523C2.9 229.523 3.7 228.779 3.7 227.849C3.7 226.919 2.9 226.175 1.9 226.175Z" fill="#DDDDDD"/>
<path d="M26.2 261.329C25.2 261.329 24.4 262.073 24.4 263.003C24.4 263.933 25.2 264.677 26.2 264.677C27.2 264.677 28 263.933 28 263.003C28 262.073 27.2 261.329 26.2 261.329Z" fill="#DDDDDD"/>
<path d="M26.2 243.752C25.2 243.752 24.4 244.496 24.4 245.426C24.4 246.356 25.2 247.1 26.2 247.1C27.2 247.1 28 246.356 28 245.426C28 244.496 27.2 243.752 26.2 243.752Z" fill="#DDDDDD"/>
<path d="M26.2 278.813C25.2 278.813 24.4 279.557 24.4 280.487C24.4 281.417 25.2 282.161 26.2 282.161C27.2 282.161 28 281.417 28 280.487C28 279.557 27.2 278.813 26.2 278.813Z" fill="#DDDDDD"/>
<path d="M26.2 226.175C25.2 226.175 24.4 226.919 24.4 227.849C24.4 228.779 25.2 229.523 26.2 229.523C27.2 229.523 28 228.779 28 227.849C28 226.919 27.2 226.175 26.2 226.175Z" fill="#DDDDDD"/>
<path d="M50.5 226.175C49.5 226.175 48.7 226.919 48.7 227.849C48.7 228.779 49.5 229.523 50.5 229.523C51.5 229.523 52.3 228.779 52.3 227.849C52.3 226.919 51.5 226.175 50.5 226.175Z" fill="#DDDDDD"/>
<path d="M50.5 278.813C49.5 278.813 48.7 279.557 48.7 280.487C48.7 281.417 49.5 282.161 50.5 282.161C51.5 282.161 52.3 281.417 52.3 280.487C52.3 279.557 51.5 278.813 50.5 278.813Z" fill="#DDDDDD"/>
<path d="M50.5 243.752C49.5 243.752 48.7 244.496 48.7 245.426C48.7 246.356 49.5 247.1 50.5 247.1C51.5 247.1 52.3 246.356 52.3 245.426C52.3 244.496 51.5 243.752 50.5 243.752Z" fill="#DDDDDD"/>
<path d="M50.5 261.329C49.5 261.329 48.7 262.073 48.7 263.003C48.7 263.933 49.5 264.677 50.5 264.677C51.5 264.677 52.3 263.933 52.3 263.003C52.3 262.073 51.5 261.329 50.5 261.329Z" fill="#DDDDDD"/>
<path d="M50.5 313.967C50 313.967 49.6 314.153 49.3 314.432C50.1 315.269 51 316.013 51.8 316.85C52.1 316.571 52.3 316.199 52.3 315.734C52.3 314.711 51.5 313.967 50.5 313.967Z" fill="#DDDDDD"/>
<path d="M50.5 296.39C49.5 296.39 48.7 297.134 48.7 298.064C48.7 298.994 49.5 299.738 50.5 299.738C51.5 299.738 52.3 298.994 52.3 298.064C52.3 297.134 51.5 296.39 50.5 296.39Z" fill="#DDDDDD"/>
<path d="M74.8 226.175C73.8 226.175 73 226.919 73 227.849C73 228.779 73.8 229.523 74.8 229.523C75.8 229.523 76.6 228.779 76.6 227.849C76.6 226.919 75.7 226.175 74.8 226.175Z" fill="#DDDDDD"/>
<path d="M74.8 261.329C73.8 261.329 73 262.073 73 263.003C73 263.933 73.8 264.677 74.8 264.677C75.8 264.677 76.6 263.933 76.6 263.003C76.6 262.073 75.7 261.329 74.8 261.329Z" fill="#DDDDDD"/>
<path d="M74.8 313.967C73.8 313.967 73 314.711 73 315.641C73 316.571 73.8 317.315 74.8 317.315C75.8 317.315 76.6 316.571 76.6 315.641C76.6 314.711 75.7 313.967 74.8 313.967Z" fill="#DDDDDD"/>
<path d="M74.8 296.39C73.8 296.39 73 297.134 73 298.064C73 298.994 73.8 299.738 74.8 299.738C75.8 299.738 76.6 298.994 76.6 298.064C76.6 297.134 75.7 296.39 74.8 296.39Z" fill="#DDDDDD"/>
<path d="M74.8 278.813C73.8 278.813 73 279.557 73 280.487C73 281.417 73.8 282.161 74.8 282.161C75.8 282.161 76.6 281.417 76.6 280.487C76.6 279.557 75.7 278.813 74.8 278.813Z" fill="#DDDDDD"/>
<path d="M74.8 243.752C73.8 243.752 73 244.496 73 245.426C73 246.356 73.8 247.1 74.8 247.1C75.8 247.1 76.6 246.356 76.6 245.426C76.6 244.496 75.7 243.752 74.8 243.752Z" fill="#DDDDDD"/>
<path d="M74.8 331.451C73.8 331.451 73 332.195 73 333.125C73 333.404 73.1 333.59 73.2 333.869C73.7 334.148 74.1 334.52 74.6 334.799C74.7 334.799 74.8 334.799 74.8 334.799C75.8 334.799 76.6 334.055 76.6 333.125C76.6 332.195 75.7 331.451 74.8 331.451Z" fill="#DDDDDD"/>
<path d="M99 278.813C98 278.813 97.2 279.557 97.2 280.487C97.2 281.417 98 282.161 99 282.161C100 282.161 100.8 281.417 100.8 280.487C100.8 279.557 100 278.813 99 278.813Z" fill="#DDDDDD"/>
<path d="M99 296.39C98 296.39 97.2 297.134 97.2 298.064C97.2 298.994 98 299.738 99 299.738C100 299.738 100.8 298.994 100.8 298.064C100.8 297.134 100 296.39 99 296.39Z" fill="#DDDDDD"/>
<path d="M99 261.329C98 261.329 97.2 262.073 97.2 263.003C97.2 263.933 98 264.677 99 264.677C100 264.677 100.8 263.933 100.8 263.003C100.8 262.073 100 261.329 99 261.329Z" fill="#DDDDDD"/>
<path d="M99 226.175C98 226.175 97.2 226.919 97.2 227.849C97.2 228.779 98 229.523 99 229.523C100 229.523 100.8 228.779 100.8 227.849C100.8 226.919 100 226.175 99 226.175Z" fill="#DDDDDD"/>
<path d="M99 243.752C98 243.752 97.2 244.496 97.2 245.426C97.2 246.356 98 247.1 99 247.1C100 247.1 100.8 246.356 100.8 245.426C100.8 244.496 100 243.752 99 243.752Z" fill="#DDDDDD"/>
<path d="M99 313.967C98 313.967 97.2 314.711 97.2 315.641C97.2 316.571 98 317.315 99 317.315C100 317.315 100.8 316.571 100.8 315.641C100.8 314.711 100 313.967 99 313.967Z" fill="#DDDDDD"/>
<path d="M99 331.451C98 331.451 97.2 332.195 97.2 333.125C97.2 334.055 98 334.799 99 334.799C100 334.799 100.8 334.055 100.8 333.125C100.8 332.195 100 331.451 99 331.451Z" fill="#DDDDDD"/>
<path d="M123.3 226.175C122.3 226.175 121.5 226.919 121.5 227.849C121.5 228.779 122.3 229.523 123.3 229.523C124.3 229.523 125.1 228.779 125.1 227.849C125.1 226.919 124.3 226.175 123.3 226.175Z" fill="#DDDDDD"/>
<path d="M123.3 243.752C122.3 243.752 121.5 244.496 121.5 245.426C121.5 246.356 122.3 247.1 123.3 247.1C124.3 247.1 125.1 246.356 125.1 245.426C125.1 244.496 124.3 243.752 123.3 243.752Z" fill="#DDDDDD"/>
<path d="M123.3 313.967C122.3 313.967 121.5 314.711 121.5 315.641C121.5 316.571 122.3 317.315 123.3 317.315C124.3 317.315 125.1 316.571 125.1 315.641C125.1 314.711 124.3 313.967 123.3 313.967Z" fill="#DDDDDD"/>
<path d="M123.3 349.028C122.3 349.028 121.5 349.772 121.5 350.702C121.5 351.632 122.3 352.376 123.3 352.376C124.3 352.376 125.1 351.632 125.1 350.702C125.1 349.772 124.3 349.028 123.3 349.028Z" fill="#DDDDDD"/>
<path d="M123.3 331.451C122.3 331.451 121.5 332.195 121.5 333.125C121.5 334.055 122.3 334.799 123.3 334.799C124.3 334.799 125.1 334.055 125.1 333.125C125.1 332.195 124.3 331.451 123.3 331.451Z" fill="#DDDDDD"/>
<path d="M123.3 261.329C122.3 261.329 121.5 262.073 121.5 263.003C121.5 263.933 122.3 264.677 123.3 264.677C124.3 264.677 125.1 263.933 125.1 263.003C125.1 262.073 124.3 261.329 123.3 261.329Z" fill="#DDDDDD"/>
<path d="M123.3 296.39C122.3 296.39 121.5 297.134 121.5 298.064C121.5 298.994 122.3 299.738 123.3 299.738C124.3 299.738 125.1 298.994 125.1 298.064C125.1 297.134 124.3 296.39 123.3 296.39Z" fill="#DDDDDD"/>
<path d="M123.3 278.813C122.3 278.813 121.5 279.557 121.5 280.487C121.5 281.417 122.3 282.161 123.3 282.161C124.3 282.161 125.1 281.417 125.1 280.487C125.1 279.557 124.3 278.813 123.3 278.813Z" fill="#DDDDDD"/>
<path d="M147.6 226.175C146.6 226.175 145.8 226.919 145.8 227.849C145.8 228.779 146.6 229.523 147.6 229.523C148.6 229.523 149.4 228.779 149.4 227.849C149.4 226.919 148.6 226.175 147.6 226.175Z" fill="#DDDDDD"/>
<path d="M147.6 243.752C146.6 243.752 145.8 244.496 145.8 245.426C145.8 246.356 146.6 247.1 147.6 247.1C148.6 247.1 149.4 246.356 149.4 245.426C149.4 244.496 148.6 243.752 147.6 243.752Z" fill="#DDDDDD"/>
<path d="M147.6 349.028C146.6 349.028 145.8 349.772 145.8 350.702C145.8 351.632 146.6 352.376 147.6 352.376C148.6 352.376 149.4 351.632 149.4 350.702C149.4 349.772 148.6 349.028 147.6 349.028Z" fill="#DDDDDD"/>
<path d="M147.6 261.329C146.6 261.329 145.8 262.073 145.8 263.003C145.8 263.933 146.6 264.677 147.6 264.677C148.6 264.677 149.4 263.933 149.4 263.003C149.4 262.073 148.6 261.329 147.6 261.329Z" fill="#DDDDDD"/>
<path d="M147.6 296.39C146.6 296.39 145.8 297.134 145.8 298.064C145.8 298.994 146.6 299.738 147.6 299.738C148.6 299.738 149.4 298.994 149.4 298.064C149.4 297.134 148.6 296.39 147.6 296.39Z" fill="#DDDDDD"/>
<path d="M147.6 313.967C146.6 313.967 145.8 314.711 145.8 315.641C145.8 316.571 146.6 317.315 147.6 317.315C148.6 317.315 149.4 316.571 149.4 315.641C149.4 314.711 148.6 313.967 147.6 313.967Z" fill="#DDDDDD"/>
<path d="M147.6 278.813C146.6 278.813 145.8 279.557 145.8 280.487C145.8 281.417 146.6 282.161 147.6 282.161C148.6 282.161 149.4 281.417 149.4 280.487C149.4 279.557 148.6 278.813 147.6 278.813Z" fill="#DDDDDD"/>
<path d="M147.6 331.451C146.6 331.451 145.8 332.195 145.8 333.125C145.8 334.055 146.6 334.799 147.6 334.799C148.6 334.799 149.4 334.055 149.4 333.125C149.4 332.195 148.6 331.451 147.6 331.451Z" fill="#DDDDDD"/>
<path d="M171.9 366.605C171.4 366.605 171 366.791 170.6 367.07C170.4 367.256 170.3 367.442 170.2 367.721C171.3 367.814 172.5 367.907 173.6 367.907C173.5 367.628 173.4 367.349 173.1 367.07C172.8 366.791 172.4 366.605 171.9 366.605Z" fill="#DDDDDD"/>
<path d="M171.9 226.175C170.9 226.175 170.1 226.919 170.1 227.849C170.1 228.779 170.9 229.523 171.9 229.523C172.9 229.523 173.7 228.779 173.7 227.849C173.7 226.919 172.9 226.175 171.9 226.175Z" fill="#DDDDDD"/>
<path d="M171.9 349.028C170.9 349.028 170.1 349.772 170.1 350.702C170.1 351.632 170.9 352.376 171.9 352.376C172.9 352.376 173.7 351.632 173.7 350.702C173.7 349.772 172.9 349.028 171.9 349.028Z" fill="#DDDDDD"/>
<path d="M171.9 331.451C170.9 331.451 170.1 332.195 170.1 333.125C170.1 334.055 170.9 334.799 171.9 334.799C172.9 334.799 173.7 334.055 173.7 333.125C173.7 332.195 172.9 331.451 171.9 331.451Z" fill="#DDDDDD"/>
<path d="M171.9 296.39C170.9 296.39 170.1 297.134 170.1 298.064C170.1 298.994 170.9 299.738 171.9 299.738C172.9 299.738 173.7 298.994 173.7 298.064C173.7 297.134 172.9 296.39 171.9 296.39Z" fill="#DDDDDD"/>
<path d="M171.9 278.813C170.9 278.813 170.1 279.557 170.1 280.487C170.1 281.417 170.9 282.161 171.9 282.161C172.9 282.161 173.7 281.417 173.7 280.487C173.7 279.557 172.9 278.813 171.9 278.813Z" fill="#DDDDDD"/>
<path d="M171.9 261.329C170.9 261.329 170.1 262.073 170.1 263.003C170.1 263.933 170.9 264.677 171.9 264.677C172.9 264.677 173.7 263.933 173.7 263.003C173.7 262.073 172.9 261.329 171.9 261.329Z" fill="#DDDDDD"/>
<path d="M171.9 243.752C170.9 243.752 170.1 244.496 170.1 245.426C170.1 246.356 170.9 247.1 171.9 247.1C172.9 247.1 173.7 246.356 173.7 245.426C173.7 244.496 172.9 243.752 171.9 243.752Z" fill="#DDDDDD"/>
<path d="M171.9 313.967C170.9 313.967 170.1 314.711 170.1 315.641C170.1 316.571 170.9 317.315 171.9 317.315C172.9 317.315 173.7 316.571 173.7 315.641C173.7 314.711 172.9 313.967 171.9 313.967Z" fill="#DDDDDD"/>
<path d="M196.2 366.605C195.7 366.605 195.3 366.791 194.9 367.07C194.6 367.349 194.4 367.721 194.4 368C195.6 367.907 196.7 367.907 197.9 367.814C197.8 367.535 197.7 367.256 197.4 367.07C197.1 366.791 196.7 366.605 196.2 366.605Z" fill="#DDDDDD"/>
<path d="M196.2 226.175C195.2 226.175 194.4 226.919 194.4 227.849C194.4 228.779 195.2 229.523 196.2 229.523C197.2 229.523 198 228.779 198 227.849C198 226.919 197.2 226.175 196.2 226.175Z" fill="#DDDDDD"/>
<path d="M196.2 261.329C195.2 261.329 194.4 262.073 194.4 263.003C194.4 263.933 195.2 264.677 196.2 264.677C197.2 264.677 198 263.933 198 263.003C198 262.073 197.2 261.329 196.2 261.329Z" fill="#DDDDDD"/>
<path d="M196.2 278.813C195.2 278.813 194.4 279.557 194.4 280.487C194.4 281.417 195.2 282.161 196.2 282.161C197.2 282.161 198 281.417 198 280.487C198 279.557 197.2 278.813 196.2 278.813Z" fill="#DDDDDD"/>
<path d="M196.2 296.39C195.2 296.39 194.4 297.134 194.4 298.064C194.4 298.994 195.2 299.738 196.2 299.738C197.2 299.738 198 298.994 198 298.064C198 297.134 197.2 296.39 196.2 296.39Z" fill="#DDDDDD"/>
<path d="M196.2 313.967C195.2 313.967 194.4 314.711 194.4 315.641C194.4 316.571 195.2 317.315 196.2 317.315C197.2 317.315 198 316.571 198 315.641C198 314.711 197.2 313.967 196.2 313.967Z" fill="#DDDDDD"/>
<path d="M196.2 243.752C195.2 243.752 194.4 244.496 194.4 245.426C194.4 246.356 195.2 247.1 196.2 247.1C197.2 247.1 198 246.356 198 245.426C198 244.496 197.2 243.752 196.2 243.752Z" fill="#DDDDDD"/>
<path d="M196.2 331.451C195.2 331.451 194.4 332.195 194.4 333.125C194.4 334.055 195.2 334.799 196.2 334.799C197.2 334.799 198 334.055 198 333.125C198 332.195 197.2 331.451 196.2 331.451Z" fill="#DDDDDD"/>
<path d="M196.2 349.028C195.2 349.028 194.4 349.772 194.4 350.702C194.4 351.632 195.2 352.376 196.2 352.376C197.2 352.376 198 351.632 198 350.702C198 349.772 197.2 349.028 196.2 349.028Z" fill="#DDDDDD"/>
<path d="M220.5 226.175C219.5 226.175 218.7 226.919 218.7 227.849C218.7 228.779 219.5 229.523 220.5 229.523C221.5 229.523 222.3 228.779 222.3 227.849C222.3 226.919 221.5 226.175 220.5 226.175Z" fill="#DDDDDD"/>
<path d="M220.5 243.752C219.5 243.752 218.7 244.496 218.7 245.426C218.7 246.356 219.5 247.1 220.5 247.1C221.5 247.1 222.3 246.356 222.3 245.426C222.3 244.496 221.5 243.752 220.5 243.752Z" fill="#DDDDDD"/>
<path d="M220.5 313.967C219.5 313.967 218.7 314.711 218.7 315.641C218.7 316.571 219.5 317.315 220.5 317.315C221.5 317.315 222.3 316.571 222.3 315.641C222.3 314.711 221.5 313.967 220.5 313.967Z" fill="#DDDDDD"/>
<path d="M220.5 349.028C219.5 349.028 218.7 349.772 218.7 350.702C218.7 351.632 219.5 352.376 220.5 352.376C221.5 352.376 222.3 351.632 222.3 350.702C222.3 349.772 221.5 349.028 220.5 349.028Z" fill="#DDDDDD"/>
<path d="M220.5 261.329C219.5 261.329 218.7 262.073 218.7 263.003C218.7 263.933 219.5 264.677 220.5 264.677C221.5 264.677 222.3 263.933 222.3 263.003C222.3 262.073 221.5 261.329 220.5 261.329Z" fill="#DDDDDD"/>
<path d="M220.5 331.451C219.5 331.451 218.7 332.195 218.7 333.125C218.7 334.055 219.5 334.799 220.5 334.799C221.5 334.799 222.3 334.055 222.3 333.125C222.3 332.195 221.5 331.451 220.5 331.451Z" fill="#DDDDDD"/>
<path d="M220.5 296.39C219.5 296.39 218.7 297.134 218.7 298.064C218.7 298.994 219.5 299.738 220.5 299.738C221.5 299.738 222.3 298.994 222.3 298.064C222.3 297.134 221.5 296.39 220.5 296.39Z" fill="#DDDDDD"/>
<path d="M220.5 278.813C219.5 278.813 218.7 279.557 218.7 280.487C218.7 281.417 219.5 282.161 220.5 282.161C221.5 282.161 222.3 281.417 222.3 280.487C222.3 279.557 221.5 278.813 220.5 278.813Z" fill="#DDDDDD"/>
<path d="M244.8 349.028C243.8 349.028 243 349.772 243 350.702C243 351.632 243.8 352.376 244.8 352.376C245.8 352.376 246.6 351.632 246.6 350.702C246.6 349.772 245.8 349.028 244.8 349.028Z" fill="#DDDDDD"/>
<path d="M244.8 296.39C243.8 296.39 243 297.134 243 298.064C243 298.994 243.8 299.738 244.8 299.738C245.8 299.738 246.6 298.994 246.6 298.064C246.6 297.134 245.8 296.39 244.8 296.39Z" fill="#DDDDDD"/>
<path d="M244.8 313.967C243.8 313.967 243 314.711 243 315.641C243 316.571 243.8 317.315 244.8 317.315C245.8 317.315 246.6 316.571 246.6 315.641C246.6 314.711 245.8 313.967 244.8 313.967Z" fill="#DDDDDD"/>
<path d="M244.8 331.451C243.8 331.451 243 332.195 243 333.125C243 334.055 243.8 334.799 244.8 334.799C245.8 334.799 246.6 334.055 246.6 333.125C246.6 332.195 245.8 331.451 244.8 331.451Z" fill="#DDDDDD"/>
<path d="M244.8 243.752C243.8 243.752 243 244.496 243 245.426C243 246.356 243.8 247.1 244.8 247.1C245.8 247.1 246.6 246.356 246.6 245.426C246.6 244.496 245.8 243.752 244.8 243.752Z" fill="#DDDDDD"/>
<path d="M244.8 261.329C243.8 261.329 243 262.073 243 263.003C243 263.933 243.8 264.677 244.8 264.677C245.8 264.677 246.6 263.933 246.6 263.003C246.6 262.073 245.8 261.329 244.8 261.329Z" fill="#DDDDDD"/>
<path d="M244.8 278.813C243.8 278.813 243 279.557 243 280.487C243 281.417 243.8 282.161 244.8 282.161C245.8 282.161 246.6 281.417 246.6 280.487C246.6 279.557 245.8 278.813 244.8 278.813Z" fill="#DDDDDD"/>
<path d="M244.8 226.175C243.8 226.175 243 226.919 243 227.849C243 228.779 243.8 229.523 244.8 229.523C245.8 229.523 246.6 228.779 246.6 227.849C246.6 226.919 245.8 226.175 244.8 226.175Z" fill="#DDDDDD"/>
<path d="M269.1 243.752C268.1 243.752 267.3 244.496 267.3 245.426C267.3 246.356 268.1 247.1 269.1 247.1C270.1 247.1 270.9 246.356 270.9 245.426C270.9 244.496 270.1 243.752 269.1 243.752Z" fill="#DDDDDD"/>
<path d="M269.1 226.175C268.1 226.175 267.3 226.919 267.3 227.849C267.3 228.779 268.1 229.523 269.1 229.523C270.1 229.523 270.9 228.779 270.9 227.849C270.9 226.919 270.1 226.175 269.1 226.175Z" fill="#DDDDDD"/>
<path d="M269.1 278.813C268.1 278.813 267.3 279.557 267.3 280.487C267.3 281.417 268.1 282.161 269.1 282.161C270.1 282.161 270.9 281.417 270.9 280.487C270.9 279.557 270.1 278.813 269.1 278.813Z" fill="#DDDDDD"/>
<path d="M269.1 261.329C268.1 261.329 267.3 262.073 267.3 263.003C267.3 263.933 268.1 264.677 269.1 264.677C270.1 264.677 270.9 263.933 270.9 263.003C270.9 262.073 270.1 261.329 269.1 261.329Z" fill="#DDDDDD"/>
<path d="M269.1 296.39C268.1 296.39 267.3 297.134 267.3 298.064C267.3 298.994 268.1 299.738 269.1 299.738C270.1 299.738 270.9 298.994 270.9 298.064C270.9 297.134 270.1 296.39 269.1 296.39Z" fill="#DDDDDD"/>
<path d="M269.1 331.451C268.1 331.451 267.3 332.195 267.3 333.125C267.3 334.055 268.1 334.799 269.1 334.799C270.1 334.799 270.9 334.055 270.9 333.125C270.9 332.195 270.1 331.451 269.1 331.451Z" fill="#DDDDDD"/>
<path d="M267.3 350.702C267.3 350.795 267.3 350.888 267.3 350.981C268.3 350.516 269.3 350.051 270.3 349.586C270 349.307 269.5 349.121 269 349.121C268.1 349.028 267.3 349.772 267.3 350.702Z" fill="#DDDDDD"/>
<path d="M269.1 313.967C268.1 313.967 267.3 314.711 267.3 315.641C267.3 316.571 268.1 317.315 269.1 317.315C270.1 317.315 270.9 316.571 270.9 315.641C270.9 314.711 270.1 313.967 269.1 313.967Z" fill="#DDDDDD"/>
<path d="M293.4 296.39C292.4 296.39 291.6 297.134 291.6 298.064C291.6 298.994 292.4 299.738 293.4 299.738C294.4 299.738 295.2 298.994 295.2 298.064C295.2 297.134 294.4 296.39 293.4 296.39Z" fill="#DDDDDD"/>
<path d="M293.4 261.329C292.4 261.329 291.6 262.073 291.6 263.003C291.6 263.933 292.4 264.677 293.4 264.677C294.4 264.677 295.2 263.933 295.2 263.003C295.2 262.073 294.4 261.329 293.4 261.329Z" fill="#DDDDDD"/>
<path d="M293.4 313.967C292.4 313.967 291.6 314.711 291.6 315.641C291.6 316.571 292.4 317.315 293.4 317.315C294.4 317.315 295.2 316.571 295.2 315.641C295.2 314.711 294.4 313.967 293.4 313.967Z" fill="#DDDDDD"/>
<path d="M293.4 331.451C292.4 331.451 291.6 332.195 291.6 333.125C291.6 334.055 292.4 334.799 293.4 334.799C294.4 334.799 295.2 334.055 295.2 333.125C295.2 332.195 294.4 331.451 293.4 331.451Z" fill="#DDDDDD"/>
<path d="M293.4 278.813C292.4 278.813 291.6 279.557 291.6 280.487C291.6 281.417 292.4 282.161 293.4 282.161C294.4 282.161 295.2 281.417 295.2 280.487C295.2 279.557 294.4 278.813 293.4 278.813Z" fill="#DDDDDD"/>
<path d="M293.4 226.175C292.4 226.175 291.6 226.919 291.6 227.849C291.6 228.779 292.4 229.523 293.4 229.523C294.4 229.523 295.2 228.779 295.2 227.849C295.2 226.919 294.4 226.175 293.4 226.175Z" fill="#DDDDDD"/>
<path d="M293.4 243.752C292.4 243.752 291.6 244.496 291.6 245.426C291.6 246.356 292.4 247.1 293.4 247.1C294.4 247.1 295.2 246.356 295.2 245.426C295.2 244.496 294.4 243.752 293.4 243.752Z" fill="#DDDDDD"/>
<path d="M317.7 226.175C316.7 226.175 315.9 226.919 315.9 227.849C315.9 228.779 316.7 229.523 317.7 229.523C318.7 229.523 319.5 228.779 319.5 227.849C319.4 226.919 318.6 226.175 317.7 226.175Z" fill="#DDDDDD"/>
<path d="M317.7 278.813C316.7 278.813 315.9 279.557 315.9 280.487C315.9 281.417 316.7 282.161 317.7 282.161C318.7 282.161 319.5 281.417 319.5 280.487C319.4 279.557 318.6 278.813 317.7 278.813Z" fill="#DDDDDD"/>
<path d="M317.7 313.967C316.7 313.967 315.9 314.711 315.9 315.641C315.9 316.571 316.7 317.315 317.7 317.315C318.7 317.315 319.5 316.571 319.5 315.641C319.5 314.711 318.6 313.967 317.7 313.967Z" fill="#DDDDDD"/>
<path d="M317.7 296.39C316.7 296.39 315.9 297.134 315.9 298.064C315.9 298.994 316.7 299.738 317.7 299.738C318.7 299.738 319.5 298.994 319.5 298.064C319.4 297.134 318.6 296.39 317.7 296.39Z" fill="#DDDDDD"/>
<path d="M317.7 243.752C316.7 243.752 315.9 244.496 315.9 245.426C315.9 246.356 316.7 247.1 317.7 247.1C318.7 247.1 319.5 246.356 319.5 245.426C319.4 244.496 318.6 243.752 317.7 243.752Z" fill="#DDDDDD"/>
<path d="M317.7 261.329C316.7 261.329 315.9 262.073 315.9 263.003C315.9 263.933 316.7 264.677 317.7 264.677C318.7 264.677 319.5 263.933 319.5 263.003C319.4 262.073 318.6 261.329 317.7 261.329Z" fill="#DDDDDD"/>
<path d="M341.9 243.752C340.9 243.752 340.1 244.496 340.1 245.426C340.1 246.356 340.9 247.1 341.9 247.1C342.9 247.1 343.7 246.356 343.7 245.426C343.7 244.496 342.9 243.752 341.9 243.752Z" fill="#DDDDDD"/>
<path d="M341.9 278.813C340.9 278.813 340.1 279.557 340.1 280.487C340.1 281.417 340.9 282.161 341.9 282.161C342.9 282.161 343.7 281.417 343.7 280.487C343.7 279.557 342.9 278.813 341.9 278.813Z" fill="#DDDDDD"/>
<path d="M341.9 261.329C340.9 261.329 340.1 262.073 340.1 263.003C340.1 263.933 340.9 264.677 341.9 264.677C342.9 264.677 343.7 263.933 343.7 263.003C343.7 262.073 342.9 261.329 341.9 261.329Z" fill="#DDDDDD"/>
<path d="M341.9 226.175C340.9 226.175 340.1 226.919 340.1 227.849C340.1 228.779 340.9 229.523 341.9 229.523C342.9 229.523 343.7 228.779 343.7 227.849C343.7 226.919 342.9 226.175 341.9 226.175Z" fill="#DDDDDD"/>
<path d="M366.2 226.175C365.2 226.175 364.4 226.919 364.4 227.849C364.4 228.779 365.2 229.523 366.2 229.523C367.2 229.523 368 228.779 368 227.849C368 226.919 367.2 226.175 366.2 226.175Z" fill="#DDDDDD"/>
<path d="M364.4 245.426C364.4 245.984 364.7 246.449 365.1 246.728C365.4 245.705 365.8 244.775 366.1 243.752C365.2 243.752 364.4 244.496 364.4 245.426Z" fill="#DDDDDD"/>
</svg>
