<svg width="78" height="80" viewBox="0 0 78 80" fill="none" xmlns="http://www.w3.org/2000/svg">
<path d="M10.8037 14.1571C10.1987 14.5221 9.55568 14.9291 8.83668 15.4011C7.94168 15.9871 7.14168 16.525 6.40168 17.168C4.41368 18.891 2.40768 20.8291 1.20468 23.3131C0.789681 24.1691 0.306681 25.298 0.252681 26.444C0.212681 27.288 0.178681 27.987 0.356681 28.765C0.393681 28.928 0.428681 29.0941 0.464681 29.2591C0.565681 29.7281 0.670682 30.2131 0.807682 30.6711C1.13368 31.7641 1.48668 32.6961 1.88768 33.5201C3.40768 36.6581 5.18568 39.6771 7.02468 42.7511C7.70968 43.8961 8.43368 45.0441 9.13368 46.1541C9.90768 47.3811 10.7077 48.6491 11.4577 49.9191C12.3477 51.7171 13.1087 53.765 13.8537 56.364C13.9627 56.881 14.0927 57.5661 14.1287 58.2731C14.1877 59.3971 14.2017 60.5131 14.2077 61.3591L14.2087 61.5251C14.2217 63.3631 14.2357 65.2631 14.3217 67.1271C14.3707 68.1801 14.4197 69.128 14.5277 70.068C14.6857 71.47 15.0027 72.807 15.3127 74.055C15.3667 74.27 15.4357 74.4821 15.5037 74.6791C15.5687 74.8671 15.6357 75.0301 15.7137 75.2201C15.9327 75.7481 16.2127 76.3481 16.6257 76.7971C17.4727 77.7181 17.5817 77.8361 18.7077 78.4611C19.1847 78.7251 19.7647 78.8711 20.2697 78.9881C21.6547 79.3061 23.0107 79.002 24.1727 78.693C25.1797 78.426 26.2407 77.9511 27.4177 77.2401C27.7227 77.0561 28.0207 76.8651 28.3127 76.6711L28.4257 76.5961C28.8167 76.3371 29.2057 76.0781 29.5907 75.8081C31.3307 74.5841 32.8787 73.3551 34.3237 72.0491C35.9087 70.6161 37.4617 69.2211 39.0327 67.8901L39.7567 67.2761C41.1167 66.1231 42.5237 64.931 43.9247 63.778C45.4557 62.517 47.0987 61.3481 48.6867 60.2171L48.7377 60.181C50.3167 59.057 51.8677 57.8421 53.3667 56.6671C55.0337 55.3601 56.7587 54.009 58.5287 52.778L58.7097 52.6521C60.2707 51.5671 61.8847 50.4441 63.5077 49.3971C64.2337 48.9281 64.9647 48.4671 65.6957 48.0051C66.7057 47.3661 67.7507 46.7061 68.7657 46.0381C69.9277 45.2741 71.1357 44.4081 72.5667 43.3111C72.8937 43.0621 73.2177 42.8121 73.5417 42.5591C74.0167 42.1871 74.4467 41.7491 74.8637 41.3251L75.0427 41.1431C75.8877 40.2871 76.2607 38.9141 76.4077 38.1711C76.6097 37.1571 76.4017 36.3281 76.1617 35.3671L76.0827 35.0481C75.8397 34.0541 74.9227 33.0521 74.1967 32.3861C73.4097 31.6661 72.3917 30.9981 71.0857 30.3451C69.3297 29.4671 67.4227 28.8351 65.2537 28.4141C64.8347 28.3331 64.4157 28.2571 63.9977 28.1821C63.1087 28.0221 62.1887 27.8571 61.2937 27.6341C60.5787 27.3941 59.7407 27.0941 58.9447 26.6921C58.4797 26.3591 58.0157 25.9691 57.4427 25.4291C54.8887 22.5401 52.5717 19.4681 50.5557 16.2961C49.9447 15.3341 49.3657 14.3311 48.8057 13.3611C48.3977 12.6541 47.9747 11.9231 47.5437 11.2141L47.0937 10.4711C46.2127 9.01306 45.3017 7.50505 44.2807 6.11705C43.9997 5.73405 43.6847 5.38606 43.3857 5.06606C42.9647 4.61206 42.5397 4.18506 42.1797 3.82706C41.6177 3.26606 40.9207 2.85506 40.3127 2.52706C39.5447 2.11106 38.6637 1.84705 37.8337 1.78305C37.0687 1.72605 36.2607 1.68306 35.5287 1.84206C34.6027 2.04106 33.7597 2.24606 32.9527 2.47106C31.5317 2.86706 30.1797 3.54606 28.8707 4.20406C28.4837 4.39806 28.0987 4.59205 27.7127 4.77805C25.5087 5.84105 23.5717 6.87405 21.7917 7.93805L21.5287 8.09606C20.4397 8.75406 19.3497 9.45105 18.2957 10.1251C16.0767 11.2391 13.7027 12.4571 11.3477 13.8341C11.1657 13.9411 10.9847 14.0481 10.8037 14.1571Z" fill="#F7F7F4"/>
<path d="M10.3017 17.5253C9.50568 18.0163 8.78068 18.6033 8.06768 19.2023C6.58368 20.4503 5.02368 21.6813 3.92368 23.2943C3.54768 23.8453 3.19768 24.4223 2.86968 25.0023C2.73168 25.2473 2.61168 25.4973 2.50668 25.7573C2.19268 26.5333 2.11468 27.3313 2.15068 28.1593C2.19868 29.2503 2.54968 30.3313 3.00968 31.3143C3.58168 32.5433 4.34668 33.6793 5.02868 34.8513C5.82768 36.3973 6.49568 38.0053 7.32468 39.5363C8.37668 41.4803 9.45368 43.4343 10.6527 45.2933C11.6817 46.8883 12.8457 48.4033 13.9557 49.9413C14.1867 50.2603 14.4167 50.5803 14.6617 50.8893C15.0187 51.3363 15.4137 51.7583 15.8647 52.1123C16.3537 52.4953 16.9417 52.7753 17.5197 52.9983C18.1697 53.2473 18.8877 53.4453 19.5827 53.5203C20.2477 53.5943 20.9387 53.5623 21.6007 53.4613C23.2277 53.2123 24.8237 52.6863 26.2957 51.9593C27.2247 51.5013 28.1387 51.0083 29.0267 50.4753C29.7237 50.0583 30.3557 49.5373 31.0037 49.0493C32.1657 48.1733 33.3917 47.3943 34.6287 46.6283C35.2397 46.2493 35.8527 45.8773 36.4667 45.5043C36.5887 45.4303 36.7157 45.3563 36.8427 45.2803C37.5547 44.8623 38.3337 44.4033 38.7687 43.7193C38.8857 43.5253 39.0047 43.3313 39.1217 43.1373C39.3097 42.7083 39.3817 42.2603 39.3367 41.7953C39.2667 41.0873 38.9057 40.4233 38.3487 39.9793C37.8107 39.5503 37.1107 39.3423 36.4247 39.4123C35.7787 39.4763 34.9737 39.8293 34.6087 40.4003C34.6077 40.4033 34.6057 40.4053 34.6047 40.4073C34.3427 40.5953 34.0597 40.7583 33.7867 40.9273C33.3287 41.2113 32.8657 41.4903 32.4047 41.7703C31.6327 42.2413 30.8637 42.7173 30.1007 43.2023C29.3237 43.6943 28.5727 44.2223 27.8357 44.7703C27.0387 45.3643 26.2627 45.9583 25.4067 46.4613C24.1677 47.1203 22.9087 47.6963 21.5517 48.0683C21.1147 48.1573 20.6807 48.2203 20.2367 48.2403C20.0577 48.2143 19.8827 48.1783 19.7067 48.1373C19.5087 48.0653 19.3167 47.9863 19.1267 47.8963C19.0867 47.8663 19.0477 47.8353 19.0097 47.8033C18.4517 47.1273 17.9607 46.3903 17.4487 45.6823C16.8107 44.8003 16.1747 43.9173 15.5427 43.0313C14.9267 42.1663 14.3917 41.2513 13.8547 40.3373C13.3527 39.4853 12.8557 38.6303 12.3727 37.7683C11.6657 36.4443 11.0457 35.0843 10.3987 33.7303C9.72768 32.3303 8.89768 31.0223 8.12268 29.6813C7.88768 29.2213 7.68068 28.7543 7.52368 28.2623C7.49368 28.0813 7.47268 27.8993 7.45968 27.7173C7.54768 27.5133 7.64968 27.3163 7.75868 27.1223C8.17368 26.4723 8.61768 25.8603 9.14068 25.2903C9.51468 24.9553 9.89968 24.6363 10.2797 24.3093C10.8387 23.8273 11.3927 23.3443 11.9627 22.8773C12.9837 22.0413 14.1367 21.3783 15.2847 20.7333C16.0667 20.3163 16.8527 19.9233 17.6727 19.5813C18.8317 19.0983 19.9957 18.6403 21.1757 18.2103C22.5387 17.7153 23.2137 16.1023 22.6997 14.7703C22.1687 13.3963 20.6207 12.7513 19.2587 13.2473C17.1977 13.9953 15.1627 14.7993 13.2307 15.8423C12.3907 16.2953 11.5587 16.7653 10.7417 17.2583C10.5937 17.3463 10.4477 17.4353 10.3017 17.5253Z" fill="url(#paint0_linear_27465_7525)"/>
<path d="M16.778 54.6001C17.016 56.5391 17.23 58.4741 17.331 60.4261C17.367 61.1171 17.384 61.8091 17.398 62.5001C17.342 62.8591 17.286 63.2181 17.231 63.5761C17.054 64.7301 16.883 65.8861 16.726 67.0441C16.659 67.5461 16.598 68.0491 16.546 68.5521C16.509 68.9161 16.471 69.2811 16.439 69.6451C16.421 69.8451 16.41 70.0461 16.405 70.2471C16.393 70.5631 16.383 70.8801 16.375 71.1971C16.401 71.5181 16.466 71.8321 16.569 72.1411C16.7 72.4041 16.843 72.6591 17 72.9061C17.28 73.2811 17.633 73.5641 18.061 73.7551C18.69 74.0331 19.455 74.0701 20.097 73.8041C20.228 73.7501 20.354 73.6871 20.477 73.6191C20.715 73.6591 20.961 73.6691 21.208 73.6451C22.541 73.5121 23.4 72.6431 24.113 71.6431C24.977 71.2171 25.82 70.7471 26.664 70.2791C27.943 69.5791 29.219 68.8771 30.473 68.1331C31.619 67.4541 32.769 66.7831 33.937 66.1411C33.727 66.2561 33.519 66.3711 33.31 66.4851C34.521 65.8231 35.712 65.1441 36.866 64.3871C37.351 64.0701 37.827 63.7431 38.298 63.4061C38.951 62.9421 39.519 62.3811 40.079 61.8111C40.613 61.2681 41.046 60.6431 41.42 59.9811C41.78 59.7571 42.093 59.4381 42.341 59.1191C43.049 58.2111 43.325 56.9781 43.636 55.8991C43.789 55.3691 43.93 54.8371 44.082 54.3071C44.143 54.1061 44.203 53.9041 44.257 53.7011C44.451 52.9721 44.17 52.1461 43.766 51.5521C43.127 50.6141 41.71 50.1901 40.669 50.6541C40.21 50.8581 39.808 51.0861 39.501 51.4981C39.289 51.7801 39.115 52.0861 38.946 52.3941C38.753 52.3321 38.554 52.2851 38.361 52.2321C37.948 52.1191 37.265 52.2501 36.879 52.3861C36.585 52.4911 36.324 52.6651 36.055 52.8231C35.724 53.0141 35.457 53.3381 35.208 53.6271C35.096 53.7571 34.998 53.8961 34.909 54.0421C34.609 54.5301 34.339 54.9991 34.11 55.5201C33.948 55.8901 33.802 56.2661 33.652 56.6411C33.579 56.8241 33.507 57.0071 33.434 57.1901C32.938 56.9671 32.378 56.8621 31.871 56.9341C31.257 57.0201 30.798 57.1741 30.284 57.5171C29.934 57.7511 29.644 58.0681 29.363 58.3781C29.198 58.5591 29.068 58.7781 28.942 58.9861C28.71 59.3661 28.483 59.7421 28.271 60.1331C28.129 60.3981 27.988 60.6621 27.844 60.9261C27.58 60.7851 27.293 60.6991 26.979 60.6221C26.44 60.4881 25.904 60.5881 25.391 60.7781C24.802 60.9971 24.451 61.3921 24.016 61.8211C23.799 62.0351 23.598 62.2661 23.423 62.5161C23.171 62.8711 22.946 63.2431 22.733 63.6221C22.726 63.3741 22.72 63.1251 22.715 62.8771C22.827 62.1051 22.933 61.3321 23.028 60.5571C23.182 59.3091 23.269 58.0781 23.308 56.8221C23.302 57.0351 23.296 57.2491 23.289 57.4621C23.3 57.2411 23.314 57.0221 23.335 56.8021C23.878 56.4051 24.457 56.0531 25.037 55.7161C25.408 55.5161 25.78 55.3181 26.152 55.1211C26.443 54.9661 26.737 54.8111 27.027 54.6551C27.437 54.4361 27.878 54.2431 28.265 53.9801C28.415 53.8981 28.564 53.8151 28.714 53.7321C28.89 53.6331 29.066 53.5341 29.242 53.4351C30.288 52.8761 31.358 52.3631 32.388 51.7741C33.365 51.2151 34.245 50.5161 35.177 49.8871C36.18 49.2101 37.185 48.5541 38.145 47.8181C38.568 47.4931 38.995 47.1721 39.41 46.8371C39.904 46.4381 40.353 45.9831 40.825 45.5581C41.359 45.0741 41.747 44.5781 41.867 43.8451C41.981 43.1411 41.803 42.4081 41.378 41.8351C40.968 41.2821 40.345 40.9031 39.664 40.7921C39.016 40.6871 38.161 40.8251 37.655 41.2821C37.001 41.8731 36.364 42.4741 35.665 43.0121C34.953 43.5621 34.247 44.1231 33.502 44.6251C32.755 45.1281 31.995 45.6101 31.259 46.1321C30.63 46.5781 30.01 47.0261 29.348 47.4211C28.854 47.6821 28.355 47.9331 27.858 48.1891C27.151 48.5501 26.46 48.9411 25.768 49.3301C25.576 49.4091 25.394 49.5101 25.225 49.6311C24.543 49.9991 23.856 50.3571 23.173 50.7211C22.369 51.1491 21.583 51.5921 20.825 52.0861C20.347 51.7811 19.769 51.6271 19.157 51.6881C18.766 51.7271 18.396 51.8571 18.068 52.0541C17.213 52.5721 16.65 53.5581 16.778 54.6001ZM25.808 49.3141C25.836 49.2991 25.864 49.2831 25.893 49.2681C25.865 49.2821 25.837 49.2981 25.808 49.3141ZM22.987 57.0681C22.971 57.0941 22.955 57.1201 22.939 57.1471C22.952 57.1211 22.966 57.0971 22.982 57.0721C22.983 57.0701 22.985 57.0691 22.987 57.0681ZM39.149 52.3731C39.141 52.4011 39.133 52.4291 39.124 52.4561C39.133 52.4281 39.141 52.4001 39.149 52.3731Z" fill="url(#paint1_linear_27465_7525)"/>
<path d="M27.869 5.39328C26.847 6.05528 25.875 6.80128 24.891 7.52028C24.445 7.84728 23.987 8.15728 23.542 8.48528C23.114 8.79928 22.707 9.14229 22.276 9.45429C21.741 9.84029 21.24 10.2723 20.716 10.6733C20.238 11.0393 19.764 11.4113 19.294 11.7883C19.169 11.8883 19.045 11.9893 18.92 12.0893C18.851 12.1223 18.783 12.1603 18.718 12.2053C17.618 12.9653 16.5 13.6903 15.358 14.3843C14.394 14.9703 13.428 15.5533 12.462 16.1343C10.25 17.4623 8.032 18.7793 5.853 20.1623C4.924 20.7523 3.966 21.3133 3.072 21.9563C2.47 22.3893 1.913 22.9003 1.422 23.4533C1.049 23.8723 0.752997 24.3503 0.494998 24.8483C0.321998 25.1833 0.230997 25.5663 0.138997 25.9303C0.0939966 26.1063 0.0679965 26.2873 0.0419965 26.4673C-0.0140035 26.8563 -0.00400203 27.2723 0.014998 27.6663C0.028998 27.9513 0.0729981 28.2333 0.118998 28.5143C0.228998 29.1883 0.412998 29.8573 0.636998 30.5013C0.854998 31.1243 1.197 31.7173 1.511 32.2943C1.851 32.9233 2.2 33.5483 2.559 34.1683C2.884 34.7303 3.21 35.2923 3.554 35.8423C3.906 36.4083 4.285 36.9583 4.661 37.5083C5.356 38.5313 6.035 39.5663 6.735 40.5853C8.135 42.6263 9.4 44.7553 10.68 46.8733C12.037 49.1183 13.439 51.3383 15.017 53.4363C15.468 54.0363 15.988 54.6133 16.683 54.9293C17.334 55.2263 18.023 55.3253 18.732 55.3133C19.033 55.3083 19.328 55.2483 19.618 55.1813C20.035 55.0843 20.445 54.9733 20.856 54.8533C21.42 54.6883 21.984 54.4903 22.526 54.2583C24.936 53.2323 27.184 51.8423 29.422 50.4943C29.948 50.1783 30.474 49.8643 30.979 49.5163C31.528 49.1383 32.061 48.7383 32.6 48.3433C33.682 47.5473 34.83 46.8523 35.963 46.1313C38.156 44.7343 40.291 43.2493 42.423 41.7653C43.453 41.0463 44.458 40.2953 45.493 39.5863C46.044 39.2083 46.593 38.8283 47.131 38.4323C47.633 38.0653 48.128 37.6913 48.644 37.3443C49.155 36.9983 49.676 36.6693 50.187 36.3243C50.736 35.9533 51.28 35.5743 51.833 35.2093C52.285 34.9123 52.749 34.6323 53.195 34.3253C53.709 33.9703 54.196 33.5793 54.69 33.1953C55.226 32.7783 55.74 32.3293 56.212 31.8413C56.366 31.6823 56.496 31.5033 56.615 31.3193C56.856 30.9453 56.995 30.6253 57.117 30.1973C57.195 29.9263 57.183 29.6233 57.182 29.3483C57.18 29.1103 57.143 28.8673 57.105 28.6313C57.007 28.0293 56.865 27.4293 56.659 26.8553C56.218 25.6283 55.515 24.4953 54.856 23.3773C54.229 22.3093 53.587 21.2523 52.947 20.1923C51.727 18.1683 50.507 16.1433 49.282 14.1223C48.279 12.4643 47.251 10.8203 46.248 9.16228C45.291 7.57628 44.318 6.00029 43.415 4.38329C43.078 3.76629 42.741 3.14829 42.385 2.54029C42.125 2.09229 41.849 1.66928 41.499 1.28528C41.087 0.833281 40.656 0.415286 40.073 0.193286C39.436 -0.0497143 38.766 -0.0407133 38.108 0.0942867C37.395 0.240287 36.72 0.441284 36.055 0.738284C35.479 0.996284 34.904 1.26328 34.342 1.55228C33.216 2.12928 32.13 2.78328 31.045 3.43328C30.814 3.57228 30.582 3.71128 30.351 3.85028C29.518 4.35528 28.688 4.86428 27.869 5.39328ZM20.658 14.1063C21.114 13.7333 21.575 13.3653 22.046 13.0063C22.579 12.5993 23.089 12.1633 23.627 11.7623C24.066 11.4353 24.504 11.1113 24.933 10.7713C25.354 10.4393 25.806 10.1493 26.238 9.83228C26.727 9.47328 27.219 9.11829 27.709 8.76029C28.674 8.05429 29.658 7.39229 30.671 6.75829C32.046 5.90029 33.439 5.05628 34.857 4.26828C35.372 3.99128 35.896 3.73428 36.428 3.48728C37.023 3.21128 37.618 2.94028 38.252 2.76728C38.5 2.71328 38.749 2.66728 39.003 2.65128C39.031 2.65528 39.059 2.65929 39.087 2.66329C39.109 2.67229 39.13 2.68228 39.152 2.69228C39.233 2.75528 39.309 2.82128 39.383 2.89228C39.965 3.55028 40.378 4.33028 40.803 5.09528C40.746 4.99128 40.688 4.88729 40.632 4.78229C41.245 5.90129 41.862 7.01728 42.522 8.11028C43.106 9.07728 43.69 10.0453 44.275 11.0133C45.471 12.9913 46.694 14.9553 47.889 16.9343C48.799 18.4413 49.707 19.9463 50.618 21.4543C51.556 23.0073 52.513 24.5523 53.4 26.1343C53.796 26.8733 54.153 27.6303 54.373 28.4413C54.452 28.8073 54.516 29.1803 54.532 29.5533C54.529 29.5793 54.525 29.6053 54.521 29.6313C54.498 29.6853 54.473 29.7383 54.446 29.7903C54.334 29.9493 54.21 30.0953 54.076 30.2363C53.669 30.6073 53.241 30.9503 52.806 31.2893C52.337 31.6533 51.87 32.0193 51.374 32.3443C50.89 32.6623 50.397 32.9703 49.915 33.2913C49.355 33.6643 48.804 34.0543 48.243 34.4253C47.757 34.7483 47.265 35.0603 46.786 35.3933C46.259 35.7583 45.748 36.1483 45.23 36.5253C44.186 37.2823 43.11 37.9923 42.066 38.7513C40.003 40.2493 37.888 41.6813 35.762 43.0893C34.642 43.8313 33.493 44.5273 32.372 45.2653C31.24 46.0133 30.178 46.8603 29.049 47.6093C28.316 48.0953 27.546 48.5323 26.792 48.9843C25.972 49.4723 25.152 49.9563 24.318 50.4213C23.506 50.8603 22.681 51.2843 21.837 51.6593C20.985 52.0373 20.1 52.3233 19.201 52.5653C18.94 52.6183 18.68 52.6543 18.413 52.6613C18.271 52.6453 18.132 52.6193 17.994 52.5863C17.906 52.5543 17.82 52.5203 17.735 52.4803C17.664 52.4273 17.597 52.3703 17.531 52.3103C17.169 51.9003 16.854 51.4493 16.531 51.0093C16.195 50.5533 15.88 50.0803 15.564 49.6113C14.761 48.4193 13.983 47.2133 13.241 45.9843C12.578 44.8893 11.919 43.7923 11.25 42.7033C10.601 41.6523 9.96 40.5963 9.268 39.5723C8.392 38.2803 7.52 36.9843 6.643 35.6923C5.703 34.3063 4.85 32.8723 4.035 31.4093C3.8 30.9763 3.569 30.5413 3.361 30.0943C3.137 29.6123 2.978 29.1193 2.84 28.6103C2.73 28.0953 2.663 27.5783 2.658 27.0513C2.684 26.7793 2.729 26.5163 2.795 26.2533C2.872 26.0483 2.966 25.8563 3.07 25.6663C3.279 25.3613 3.518 25.0903 3.771 24.8233C4.192 24.4413 4.633 24.1043 5.106 23.7813C5.534 23.4903 5.979 23.2253 6.417 22.9513C7.428 22.3163 8.436 21.6763 9.447 21.0423C10.836 20.1693 12.249 19.3303 13.661 18.4903C14.422 18.0383 15.182 17.5863 15.939 17.1273C16.615 16.7193 17.293 16.3113 17.964 15.8943C18.205 15.7453 18.443 15.5923 18.68 15.4373C19.031 15.4053 19.37 15.2363 19.61 14.9473C19.627 14.9273 19.644 14.9083 19.661 14.8883C19.98 14.6163 20.331 14.3723 20.658 14.1063ZM53.29 25.9413C53.312 25.9813 53.334 26.0223 53.356 26.0623C53.334 26.0213 53.312 25.9813 53.29 25.9413Z" fill="white"/>
<path d="M55.5102 29.8471C55.5822 30.5651 56.2232 31.0841 56.9332 31.0411C57.1252 31.0651 57.3162 31.1011 57.5072 31.1301C57.7762 31.1711 58.0442 31.2101 58.3122 31.2581C59.1052 31.4021 59.8862 31.6021 60.6792 31.7441C62.4012 32.0521 64.1422 32.3051 65.8262 32.7911C65.8442 32.7961 65.8632 32.8021 65.8812 32.8081C65.9612 32.8321 66.0422 32.8561 66.1232 32.8801C66.2012 32.9111 66.2822 32.9351 66.3652 32.9521C66.5602 33.0101 66.7552 33.0671 66.9502 33.1261C67.7022 33.3531 68.4502 33.5951 69.1952 33.8421C69.9422 34.0881 70.6902 34.3681 71.3792 34.7521C71.5142 34.8411 71.6442 34.9341 71.7672 35.0381C71.7852 35.0611 71.8032 35.0851 71.8202 35.1101C71.8312 35.1361 71.8412 35.1621 71.8512 35.1891C71.8582 35.2431 71.8622 35.2971 71.8652 35.3511C71.8562 35.4331 71.8432 35.5141 71.8272 35.5941C71.8172 35.6181 71.8072 35.6421 71.7962 35.6651C71.6302 35.8881 71.4382 36.0901 71.2412 36.2871C70.4822 36.9981 69.6512 37.6321 68.8352 38.2761C67.8812 39.0311 66.9112 39.7651 65.9052 40.4491C64.8112 41.1931 63.7562 41.9911 62.6732 42.7511C61.5832 43.5131 60.4882 44.2681 59.4052 45.0391C58.3252 45.8091 57.2252 46.5511 56.1472 47.3251C55.0612 48.1061 53.9632 48.8691 52.8782 49.6491C51.8102 50.4171 50.7722 51.2251 49.7192 52.0151C48.6182 52.8411 47.4982 53.6401 46.3812 54.4441C45.2582 55.2551 44.1272 56.0561 43.0312 56.9041C41.9402 57.7451 40.8662 58.5981 39.7142 59.3531C38.5982 60.0871 37.4672 60.7931 36.3712 61.5571C35.2922 62.3091 34.2132 63.0591 33.1002 63.7601C30.8392 65.1821 28.5352 66.5371 26.2872 67.9841C25.2092 68.6781 24.1202 69.3491 23.0242 70.0131C21.9242 70.6771 20.8322 71.3581 19.7132 71.9881C19.1352 72.3001 18.5312 72.6151 17.9052 72.8151C17.8862 72.5941 17.8802 72.3731 17.8822 72.1501C17.9592 70.8741 18.1092 69.5991 18.2312 68.3261C18.3622 66.9571 18.4062 65.5821 18.5282 64.2121C18.6532 62.8191 18.8552 61.4381 19.0272 60.0511C19.1072 59.3971 19.1852 58.7421 19.2452 58.0861C19.3192 57.2921 19.4012 56.4951 19.4212 55.6981C19.4312 55.2321 19.4452 54.7661 19.4462 54.3001C19.4482 53.9611 19.2062 53.5951 18.9522 53.3931C18.6822 53.1781 18.3332 53.0751 17.9892 53.1091C17.6362 53.1441 17.3032 53.3251 17.0822 53.6031C16.8482 53.8971 16.7992 54.2041 16.7982 54.5651C16.7962 54.9421 16.7872 55.3181 16.7792 55.6941C16.6772 57.0791 16.5442 58.4581 16.3742 59.8371C16.2892 60.5181 16.1872 61.1971 16.1002 61.8771C16.0122 62.5701 15.9472 63.2651 15.8862 63.9591C15.7622 65.3451 15.7172 66.7351 15.5832 68.1201C15.4512 69.4971 15.2772 70.8791 15.2352 72.2611C15.2272 72.5731 15.2252 72.8861 15.2632 73.1961C15.3082 73.5661 15.3762 73.9361 15.5402 74.2721C15.7812 74.7701 16.1852 75.2001 16.7252 75.3671C16.9522 75.4361 17.1262 75.4821 17.3572 75.5031C17.5752 75.5221 17.7992 75.5191 18.0172 75.5021C18.2512 75.4841 18.4792 75.4051 18.7042 75.3511C18.9112 75.3001 19.1102 75.2101 19.3072 75.1291C19.6142 75.0031 19.9162 74.8571 20.2152 74.7081C21.4592 74.0831 22.6422 73.3381 23.8332 72.6191C24.9902 71.9211 26.1522 71.2291 27.2892 70.4981C28.4432 69.7551 29.6022 69.0241 30.7732 68.3101C31.9532 67.5911 33.1322 66.8691 34.3052 66.1381C35.4112 65.4481 36.4892 64.7191 37.5562 63.9741C38.6872 63.1851 39.8392 62.4351 40.9952 61.6881C42.1532 60.9401 43.2412 60.1111 44.3272 59.2641C46.4812 57.5861 48.7472 56.0531 50.9402 54.4261C52.0162 53.6291 53.0752 52.8061 54.1552 52.0121C55.2332 51.2171 56.3422 50.4641 57.4292 49.6821C58.4982 48.9101 59.5892 48.1701 60.6642 47.4081C61.7482 46.6411 62.8342 45.8801 63.9232 45.1221C65.0212 44.3581 66.0822 43.5451 67.1872 42.7951C68.1772 42.1231 69.1392 41.4151 70.0832 40.6811C70.9652 39.9961 71.8552 39.3111 72.6842 38.5601C73.2342 38.0611 73.7612 37.5541 74.1412 36.9111C74.4702 36.3551 74.5892 35.5741 74.5042 34.9331C74.4252 34.3431 74.1912 33.7591 73.7872 33.3161C73.2532 32.7301 72.5452 32.3191 71.8252 32.0021C70.7822 31.5441 69.6842 31.2081 68.5972 30.8691C68.2312 30.7541 67.8622 30.6451 67.4932 30.5371C67.3352 30.4901 67.1822 30.4381 67.0282 30.3981C66.9392 30.3601 66.8452 30.3321 66.7482 30.3151C66.8242 30.3371 66.8992 30.3601 66.9742 30.3831C66.9472 30.3751 66.9202 30.3671 66.8922 30.3581C66.8442 30.3441 66.7952 30.3291 66.7472 30.3141C66.7262 30.3081 66.7042 30.3011 66.6832 30.2951C66.6932 30.2981 66.7042 30.3011 66.7142 30.3041C66.3262 30.1871 65.9382 30.0731 65.5442 29.9731C65.0472 29.8481 64.5452 29.7511 64.0432 29.6501C63.1162 29.4641 62.1852 29.3081 61.2532 29.1451C60.4092 28.9991 59.5802 28.7871 58.7392 28.6341C58.4562 28.5831 58.1722 28.5431 57.8902 28.5001C57.4962 28.4391 57.1042 28.3611 56.7042 28.3941C56.5062 28.4101 56.3222 28.4741 56.1602 28.5711C55.7292 28.8271 55.4582 29.3291 55.5102 29.8471ZM57.0762 31.0331C57.0822 31.0331 57.0872 31.0331 57.0932 31.0341C57.0882 31.0331 57.0822 31.0331 57.0762 31.0331ZM17.5522 72.8301C17.5672 72.8391 17.5822 72.8481 17.5982 72.8571C17.5972 72.8571 17.5952 72.8571 17.5942 72.8561C17.5802 72.8491 17.5662 72.8401 17.5522 72.8301ZM17.9692 73.2161C17.9872 73.2481 18.0042 73.2811 18.0222 73.3131C18.0032 73.2811 17.9852 73.2491 17.9692 73.2161ZM66.7462 30.3111C66.7362 30.3081 66.7242 30.3041 66.7132 30.3011C66.7242 30.3041 66.7352 30.3081 66.7462 30.3111Z" fill="white"/>
<path d="M72.4981 34.2571C72.0431 34.8281 72.1471 35.6671 72.7091 36.1261C72.9831 36.3511 73.2472 36.5871 73.5032 36.8331C73.9612 37.3411 74.3372 37.9081 74.6872 38.4971C74.8612 38.8331 75.0151 39.1771 75.1391 39.5341C75.0151 39.6671 74.8811 39.7941 74.7511 39.9191C74.8031 39.8691 74.8542 39.8181 74.9072 39.7681C74.4772 40.1791 74.0192 40.5551 73.5662 40.9401C73.1212 41.3181 72.6811 41.7031 72.2341 42.0771C71.2811 42.8741 70.3081 43.6401 69.3321 44.4081C68.3011 45.2171 67.2962 46.0601 66.2442 46.8431C65.1722 47.6391 64.0571 48.3751 62.9981 49.1881C62.4551 49.6041 61.9171 50.0281 61.3611 50.4261C60.7741 50.8471 60.1741 51.2491 59.5711 51.6461C58.4501 52.3831 57.3642 53.1731 56.2472 53.9131C55.1452 54.6441 54.0121 55.3271 52.9301 56.0891C52.4001 56.4631 51.8791 56.8501 51.3461 57.2201C50.7941 57.6021 50.2221 57.9561 49.6541 58.3091C48.5341 59.0041 47.4471 59.7461 46.3581 60.4881C45.2971 61.2121 44.2342 61.9301 43.1972 62.6861C42.1482 63.4501 41.0832 64.1881 40.0272 64.9451C39.4922 65.3291 38.9701 65.7311 38.4281 66.1081C37.8721 66.4961 37.2981 66.8561 36.7261 67.2211C35.5651 67.9581 34.4521 68.76 33.3111 69.525C32.1741 70.288 30.9801 70.9611 29.8421 71.7221C29.2731 72.1021 28.7132 72.4951 28.1402 72.8691C27.5282 73.2661 26.8981 73.6331 26.2681 74.0011C25.1141 74.6781 23.9682 75.3681 22.8062 76.0321C22.7872 76.0421 22.7692 76.0531 22.7502 76.0631C22.2042 76.3521 21.6552 76.6041 21.0622 76.7761C20.8942 76.8051 20.7281 76.8251 20.5581 76.8331C20.5201 76.8291 20.4821 76.824 20.4431 76.818C20.4341 76.814 20.4252 76.8101 20.4162 76.8061C20.3352 76.7461 20.2562 76.6831 20.1802 76.6171C19.9432 76.3411 19.7441 76.046 19.5521 75.732C19.3351 75.38 19.1122 75.0301 18.9032 74.6741C18.6682 74.2031 18.5122 73.7141 18.3562 73.2091C18.1422 72.5161 17.2771 72.201 16.6371 72.447C16.3091 72.574 16.0421 72.829 15.9001 73.15C15.7491 73.489 15.7682 73.821 15.8762 74.167C15.9712 74.48 16.0641 74.7941 16.1781 75.1011C16.3141 75.4681 16.5102 75.8121 16.7032 76.1521C17.0092 76.6901 17.3372 77.2311 17.6822 77.7461C18.1962 78.5111 18.9772 79.2451 19.9042 79.4251C20.8922 79.6171 21.9212 79.3541 22.8342 78.9721C23.4862 78.7021 24.1042 78.3351 24.7142 77.9811C25.2762 77.6561 25.8312 77.3211 26.3882 76.9911C27.6142 76.2701 28.8681 75.5861 30.0461 74.7911C31.1961 74.0131 32.3512 73.2451 33.5342 72.5191C34.1002 72.1701 34.6651 71.8221 35.2131 71.4451C35.7911 71.0471 36.3601 70.6361 36.9431 70.2461C38.0541 69.5031 39.2081 68.8231 40.2931 68.0441C40.8391 67.6501 41.3742 67.2441 41.9242 66.8561C42.4322 66.4991 42.9462 66.1511 43.4522 65.7901C44.5142 65.0331 45.5561 64.2511 46.6341 63.5141C47.7411 62.7571 48.8472 61.9911 49.9682 61.2541C51.0642 60.5331 52.2002 59.8791 53.2712 59.1181C53.7982 58.7441 54.3161 58.3591 54.8491 57.9921C55.4281 57.5961 56.0172 57.2141 56.6082 56.8381C57.6862 56.1541 58.7352 55.4341 59.7852 54.7091C60.9362 53.9121 62.1261 53.1721 63.2521 52.3401C64.3311 51.5411 65.3802 50.7051 66.4822 49.9371C67.0452 49.5451 67.6081 49.1531 68.1531 48.7371C68.6601 48.3501 69.1561 47.9481 69.6521 47.5491C70.6771 46.7271 71.7242 45.9341 72.7442 45.1071C73.6632 44.3601 74.5542 43.5771 75.4622 42.8161C75.9662 42.3921 76.4481 41.9551 76.9161 41.4931C77.0641 41.3481 77.2061 41.1981 77.3451 41.0451C77.6971 40.6571 77.9052 40.1851 77.8822 39.6541C77.8662 39.2681 77.7301 38.8651 77.5991 38.5021C77.4971 38.2151 77.3731 37.9341 77.2351 37.6641C76.9001 37.0031 76.5172 36.3391 76.0642 35.7501C75.5762 35.1141 74.9892 34.5521 74.3692 34.0451C73.9302 33.6871 73.3082 33.6751 72.8432 33.9551C72.7122 34.0341 72.5951 34.1351 72.4981 34.2571Z" fill="white"/>
<path d="M24.4592 13.0013C23.9232 13.3573 23.3942 13.7273 22.8672 14.0963C21.9282 14.7533 21.0182 15.4503 20.1002 16.1373C19.2022 16.8093 18.2542 17.4003 17.3112 18.0083C15.7742 19.0003 14.2092 19.9453 12.7242 21.0163C12.0292 21.5173 11.3642 22.0473 10.7162 22.6053C10.3692 22.9013 10.0272 23.2013 9.67321 23.4883C9.51621 23.6163 9.3522 23.7433 9.1942 23.8783C9.0342 23.9233 8.8812 23.9973 8.7282 24.0923C8.4632 24.2563 8.19621 24.4253 7.95221 24.6233C7.60921 24.8993 7.2942 25.2083 6.9932 25.5283C6.5442 26.0053 6.14421 26.5703 5.89321 27.1743C5.54921 28.0013 5.45821 28.8833 5.56421 29.7663C5.64821 30.4713 5.9052 31.1563 6.1732 31.8093C6.4502 32.4903 6.8252 33.1343 7.1912 33.7683C7.4972 34.3013 7.83421 34.8193 8.19921 35.3153C8.91221 36.2843 9.6452 37.2393 10.3632 38.2043C10.7512 38.7293 11.1362 39.2573 11.5032 39.7963C11.8842 40.3553 12.2282 40.9373 12.6072 41.4963C13.3402 42.5753 14.1002 43.6423 14.8982 44.6743C15.7152 45.7293 16.6142 46.7293 17.5502 47.6793C18.0302 48.1663 18.5192 48.6263 19.1352 48.9403C19.7932 49.2773 20.5692 49.3793 21.2952 49.2783C21.9862 49.1843 22.6332 48.8713 23.2602 48.5893C23.8602 48.3193 24.4472 48.0223 25.0242 47.7113C26.2472 47.0543 27.4312 46.3263 28.6202 45.6123C29.2042 45.2613 29.7782 44.9023 30.3412 44.5193C30.8642 44.1643 31.3752 43.7933 31.9002 43.4383C32.9852 42.7053 34.1242 42.0543 35.2162 41.3303C36.2872 40.6193 37.3572 39.9073 38.4252 39.1913C39.4712 38.4883 40.5382 37.8193 41.5992 37.1373C42.6252 36.4783 43.6022 35.7263 44.5742 34.9893C45.5442 34.2523 46.5372 33.5373 47.5642 32.8833C48.0202 32.5923 48.4722 32.3043 48.9032 31.9793C49.3842 31.6183 49.8702 31.2573 50.3412 30.8823C50.6182 30.6613 50.8852 30.4013 51.1122 30.1273C51.3672 29.8193 51.5292 29.4783 51.6242 29.0933C51.7032 28.7763 51.7182 28.4933 51.7262 28.1643C51.7382 27.6873 51.6082 27.2023 51.4632 26.7463C51.3652 26.4413 51.2502 26.1433 51.1112 25.8533C50.5452 24.6603 49.8132 23.5413 49.1322 22.4103C48.5452 21.4383 47.9512 20.4683 47.3572 19.4983C45.9902 17.2713 44.6422 15.0293 43.3092 12.7813C42.6612 11.6913 42.0072 10.6073 41.3522 9.52133C41.0692 9.05233 40.7942 8.57433 40.4962 8.11533C39.9412 7.25733 38.9842 6.76632 37.9792 6.70532C36.3552 6.60932 34.8262 7.33932 33.3962 8.02832C32.6872 8.37132 31.9852 8.72933 31.2922 9.10533C30.5982 9.48333 29.9192 9.88533 29.2292 10.2703C28.1962 10.8223 27.1522 11.3463 26.1462 11.9523C25.9572 12.0663 25.7672 12.1793 25.5782 12.2933C25.2022 12.5253 24.8262 12.7563 24.4592 13.0013ZM11.9152 25.0693C12.3352 24.7103 12.7522 24.3473 13.1842 24.0033C14.0762 23.2953 15.0092 22.6313 15.9642 22.0133C16.9222 21.3913 17.8932 20.7903 18.8542 20.1753C19.7912 19.5733 20.7332 18.9843 21.6282 18.3183C22.7372 17.4943 23.8302 16.6543 24.9732 15.8753C25.6452 15.4173 26.3102 14.9553 27.0062 14.5343C27.5712 14.1913 28.1342 13.8503 28.7112 13.5263C29.2332 13.2473 29.7652 12.9843 30.2862 12.7043C30.9842 12.3303 31.6652 11.9223 32.3572 11.5353C33.1692 11.0983 33.9932 10.6853 34.8252 10.2903C35.5322 9.95233 36.2562 9.64433 37.0102 9.42833C37.2472 9.38433 37.4822 9.35832 37.7232 9.34932C37.8232 9.35932 37.9222 9.37232 38.0212 9.39032C38.0542 9.40332 38.0862 9.41732 38.1192 9.43132C38.1522 9.45632 38.1852 9.48133 38.2172 9.50833C38.4972 9.85833 38.7082 10.2693 38.9382 10.6513C39.2732 11.2063 39.6092 11.7623 39.9452 12.3193C40.5942 13.3983 41.2372 14.4803 41.8812 15.5623C43.1842 17.7533 44.5082 19.9333 45.8482 22.1023C46.3022 22.8373 46.7442 23.5803 47.1902 24.3203C47.5992 24.9973 48.0152 25.6723 48.4032 26.3613C48.6732 26.8753 48.8922 27.3973 49.0492 27.9533C49.0632 28.0543 49.0722 28.1513 49.0772 28.2493C49.0692 28.3163 49.0582 28.3833 49.0462 28.4493C48.9932 28.5143 48.9372 28.5773 48.8802 28.6383C48.4602 29.0063 47.9902 29.3233 47.5492 29.6663C47.1182 30.0033 46.6702 30.3133 46.2072 30.6033C45.1872 31.2413 44.2022 31.9363 43.2442 32.6613C42.2632 33.4013 41.2852 34.1503 40.2662 34.8383C39.7372 35.1943 39.1872 35.5193 38.6502 35.8623C38.1222 36.1983 37.6012 36.5473 37.0802 36.8953C36.0092 37.6123 34.9342 38.3213 33.8642 39.0393C32.7742 39.7703 31.6372 40.4273 30.5422 41.1523C29.4612 41.8673 28.4222 42.6363 27.3132 43.3103C26.2342 43.9633 25.1562 44.6253 24.0542 45.2393C23.5242 45.5233 22.9842 45.7913 22.4382 46.0463C21.9772 46.2603 21.5122 46.4773 21.0252 46.6283C20.9172 46.6443 20.8102 46.6543 20.7022 46.6593C20.6242 46.6493 20.5472 46.6353 20.4712 46.6193C20.3852 46.5863 20.3012 46.5493 20.2192 46.5083C19.8822 46.2633 19.5822 45.9743 19.2892 45.6783C18.4862 44.8353 17.7152 43.9633 17.0022 43.0433C16.2042 42.0113 15.4442 40.9403 14.7122 39.8613C14.3322 39.3013 13.9882 38.7183 13.6072 38.1593C13.2442 37.6263 12.8632 37.1043 12.4772 36.5863C11.7492 35.6043 11.0042 34.6313 10.2782 33.6473C9.87021 33.0923 9.5112 32.5033 9.1722 31.9053C8.8022 31.2113 8.4792 30.4953 8.2562 29.7393C8.2122 29.4973 8.1822 29.2563 8.1702 29.0103C8.1892 28.8153 8.21921 28.6243 8.26121 28.4323C8.32021 28.2673 8.3902 28.1083 8.4692 27.9513C8.6972 27.6123 8.96121 27.3043 9.24421 27.0103C9.42921 26.8483 9.62121 26.6983 9.82021 26.5563C10.1852 26.5343 10.5402 26.3713 10.7672 26.0633C10.7922 26.0293 10.8182 25.9973 10.8452 25.9663C11.1982 25.6623 11.5622 25.3723 11.9152 25.0693ZM49.0172 28.5343C49.0042 28.5583 48.9902 28.5813 48.9752 28.6043C48.9892 28.5813 49.0032 28.5583 49.0172 28.5343ZM23.9152 45.3163C23.9102 45.3193 23.9042 45.3223 23.8992 45.3243C23.9152 45.3153 23.9312 45.3063 23.9472 45.2983C23.9372 45.3043 23.9262 45.3103 23.9152 45.3163Z" fill="white"/>
<path d="M45.4842 49.6054C45.4782 49.6114 45.4722 49.6174 45.4662 49.6234C44.7972 50.2604 44.1112 50.8804 43.4442 51.5214C42.6742 52.2624 41.8632 52.9334 40.9902 53.5494C40.3982 53.9674 40.2892 54.8384 40.7132 55.4114C41.1522 56.0034 41.9822 56.1054 42.5742 55.6874C43.4722 55.0554 44.3002 54.3613 45.0912 53.5993C45.9082 52.8133 46.7552 52.0573 47.5652 51.2653C47.7972 51.0383 47.8792 50.6114 47.8492 50.3024C47.8142 49.9484 47.6322 49.6164 47.3552 49.3954C47.0852 49.1804 46.7362 49.0774 46.3932 49.1114C46.2772 49.1404 46.1622 49.1674 46.0462 49.1944C45.9722 49.2234 45.9022 49.2584 45.8372 49.2974C45.7022 49.3774 45.5852 49.4804 45.4842 49.6054Z" fill="white"/>
<path d="M33.4181 15.4671C33.2301 15.5931 33.0451 15.7231 32.8631 15.8541C32.5661 16.0681 32.2761 16.2951 32.0001 16.5361C31.4161 17.0431 30.8381 17.5551 30.2731 18.0821L30.2741 18.0831C30.0971 18.2151 29.9491 18.3921 29.8521 18.6041C29.8501 18.6071 29.8481 18.6101 29.8471 18.6121C29.6011 19.1561 29.7711 19.8221 30.2351 20.1901C30.4181 20.3351 30.6231 20.4251 30.8521 20.4651C31.1711 20.5171 31.6101 20.4511 31.8581 20.2201C31.9761 20.1091 32.0951 19.9991 32.2141 19.8881C31.9131 21.0381 31.6911 22.2111 31.4451 23.3731C31.1511 24.7621 30.8701 26.1551 30.5971 27.5501C30.4561 28.2671 30.3311 28.9851 30.2041 29.7031C30.0941 30.3361 29.9961 30.9741 29.8571 31.6021C29.5021 31.5441 29.1531 31.4571 28.8051 31.3611C28.1831 31.1711 27.5631 30.9741 26.9361 30.8001C26.3621 30.6411 25.7801 30.5151 25.2071 30.3541C24.2561 30.0651 23.3021 29.7841 22.3221 29.6001C22.1881 29.5761 22.0561 29.5561 21.9191 29.5501C21.5181 29.5321 21.0691 29.5671 20.7441 29.8431C20.6331 29.9341 20.5281 30.0341 20.4301 30.1391C20.2631 30.3491 20.1821 30.5761 20.1201 30.8321C20.0981 30.9251 20.0781 31.0171 20.0561 31.1101C19.9451 31.5881 19.8271 32.0611 19.7191 32.5381C19.2341 34.6731 18.8481 36.8291 18.3681 38.9651C18.2101 39.6741 18.7871 40.3801 19.4701 40.4921C19.8221 40.5491 20.1871 40.4591 20.4741 40.2471C20.7651 40.0311 20.9181 39.7361 20.9961 39.3911C21.3231 37.9281 21.6101 36.4591 21.9101 34.9911C22.0901 34.1081 22.2861 33.2271 22.4901 32.3491C22.5571 32.3651 22.6241 32.3811 22.6911 32.3971C23.0771 32.4851 23.4571 32.5871 23.8381 32.6971C24.3451 32.8521 24.8531 33.0061 25.3651 33.1401C25.8601 33.2691 26.3581 33.3861 26.8511 33.5221C27.4671 33.7131 28.0801 33.9181 28.7071 34.0771C28.9981 34.1511 29.2921 34.2181 29.5901 34.2561C30.3571 34.3551 31.2391 34.3481 31.7741 33.6881C32.0941 33.2931 32.2671 32.8731 32.3961 32.3851C32.4521 32.1711 32.5001 31.9571 32.5421 31.7391C32.6151 31.3551 32.6861 30.9691 32.7521 30.5821C32.8701 29.9101 32.9851 29.2391 33.1111 28.5681C33.3771 27.1361 33.6761 25.7071 33.9721 24.2781C34.2321 23.0161 34.4901 21.7521 34.7961 20.5011C34.9301 19.9561 35.0841 19.4161 35.2411 18.8771C35.2841 18.7781 35.3131 18.6761 35.3301 18.5751C35.3351 18.5581 35.3401 18.5411 35.3451 18.5241C35.4131 18.3011 35.4791 18.0781 35.5441 17.8541C35.7671 17.1481 36.1901 16.1941 35.6251 15.5471C35.3391 15.2201 34.8891 14.9161 34.4241 15.0151C34.2701 15.0471 34.1141 15.0671 33.9731 15.1381C33.8701 15.1901 33.7721 15.2451 33.6751 15.3041C33.5881 15.3561 33.5041 15.4101 33.4181 15.4671Z" fill="white"/>
<path d="M33.381 15.9852C33.252 16.2762 33.203 16.7072 33.355 17.0032C33.662 17.5912 33.965 18.1822 34.258 18.7772C34.427 19.1212 34.597 19.4642 34.776 19.8012C34.907 20.0462 35.041 20.2892 35.178 20.5332C35.265 20.6922 35.349 20.8542 35.465 20.9962C35.921 21.5592 36.724 21.7192 37.326 21.2722C37.89 20.8562 38.059 19.9762 37.603 19.4122C37.441 19.2122 37.326 18.9672 37.202 18.7422C37.259 18.8462 37.316 18.9512 37.373 19.0552C36.837 18.0662 36.358 17.0442 35.838 16.0432C35.668 15.7162 35.487 15.4612 35.137 15.3062C34.815 15.1642 34.447 15.1542 34.118 15.2812C34.046 15.3092 33.977 15.3432 33.912 15.3822C33.678 15.5232 33.492 15.7332 33.381 15.9852Z" fill="white"/>
<path d="M55.0784 33.8894C54.6674 34.1514 54.2554 34.4074 53.8464 34.6724C53.0954 35.1624 52.3584 35.6804 51.5764 36.1224C50.9804 36.4454 50.3824 36.7664 49.7964 37.1084C49.2624 37.4224 48.7604 37.7874 48.2744 38.1694C47.3064 38.9304 46.3574 39.7134 45.3584 40.4354C44.9004 40.7674 44.4594 41.1204 44.0114 41.4644C43.4894 41.8644 42.9484 42.2394 42.4174 42.6274C41.3534 43.4044 40.2254 44.0924 39.1344 44.8274C38.6274 45.1704 38.1364 45.5354 37.6224 45.8684C37.0864 46.2124 36.5494 46.5564 36.0184 46.9084C34.9394 47.6234 33.8274 48.2894 32.7304 48.9744C31.6454 49.6534 30.6134 50.4084 29.5314 51.0924C28.6134 51.6744 27.6804 52.2354 26.7514 52.7984C26.5594 52.9144 26.3694 53.0304 26.1744 53.1414C25.7144 53.3914 25.2504 53.6384 24.7834 53.8754C24.4374 54.0514 24.0814 54.2124 23.7364 54.3934C23.4074 54.5664 23.0764 54.7344 22.7524 54.9164C22.6024 55.0004 22.4444 55.0824 22.2894 55.1724C21.9924 55.2374 21.7224 55.4044 21.5324 55.6424C21.2974 55.9364 21.2544 56.2404 21.2494 56.6044C21.2424 57.0294 21.2324 57.4534 21.2244 57.8794C21.1984 58.4914 21.1564 59.0994 21.0934 59.7114C21.0314 60.3124 20.9714 60.9144 20.9274 61.5164C20.9054 61.8134 20.8834 62.1104 20.8714 62.4064C20.8524 62.8424 20.7994 63.3814 20.9714 63.7994C21.1374 64.2004 21.4334 64.5524 21.8564 64.6904C21.9654 64.7234 22.0744 64.7554 22.1824 64.7884C22.3594 64.8064 22.5364 64.8054 22.7124 64.7824C22.9444 64.7624 23.2174 64.6624 23.4414 64.5884C23.7004 64.5034 23.9414 64.3404 24.1754 64.2044C24.3274 64.1164 24.4734 64.0144 24.6174 63.9134C25.1344 63.5514 25.5804 63.1134 26.0614 62.7084C26.5864 62.2644 27.1424 61.8584 27.6744 61.4244C28.1824 61.0084 28.6624 60.5594 29.1534 60.1224C29.6334 59.6964 30.1404 59.3044 30.6604 58.9304C31.6504 58.2144 32.5914 57.4324 33.5984 56.7424C34.0874 56.4054 34.5724 56.0694 35.0434 55.7084C35.5214 55.3404 35.9974 54.9674 36.4884 54.6174C37.5154 53.8854 38.5994 53.2454 39.6484 52.5464C40.1754 52.1934 40.6924 51.8224 41.2194 51.4694C41.7084 51.1414 42.2004 50.8194 42.6894 50.4914C43.6994 49.8174 44.7164 49.1534 45.7244 48.4744C46.6484 47.8504 47.4954 47.1224 48.4214 46.4994C49.3784 45.8554 50.3674 45.2584 51.3514 44.6544C51.7054 44.4374 52.0624 44.2234 52.4194 44.0094C53.0864 43.6084 53.7544 43.2074 54.4074 42.7834C55.4204 42.1264 56.4494 41.4954 57.4684 40.8474C58.5434 40.1654 59.5924 39.4424 60.6644 38.7524C61.0794 38.4864 61.4984 38.2174 61.8704 37.8924C62.1044 37.6854 62.3144 37.4804 62.4464 37.1924C62.6314 36.7924 62.6354 36.3914 62.5104 35.9744C62.3854 35.5574 62.0484 35.2474 61.7394 34.9604C61.5264 34.7654 61.2504 34.6124 61.0044 34.4644C60.4484 34.1304 59.8584 33.8734 59.2624 33.6204C58.5214 33.3064 57.7264 32.8724 56.8984 33.0444C56.4344 33.1404 56.0724 33.2964 55.6664 33.5284C55.5994 33.5664 55.5334 33.6054 55.4674 33.6454C55.3374 33.7244 55.2074 33.8064 55.0784 33.8894ZM57.1644 35.6934C57.1904 35.6854 57.2164 35.6794 57.2424 35.6734C57.2414 35.6744 57.2404 35.6744 57.2394 35.6754C57.2144 35.6804 57.1894 35.6874 57.1644 35.6934ZM53.5654 38.0254C53.9834 37.7674 54.3954 37.4984 54.8044 37.2274C55.5424 36.7374 56.2834 36.2334 57.0494 35.7854C57.1314 35.7464 57.2144 35.7124 57.2994 35.6814C57.6794 35.8194 58.0474 35.9934 58.4184 36.1524C58.6924 36.2694 58.9634 36.3894 59.2304 36.5194C59.2234 36.5244 59.2164 36.5284 59.2094 36.5334C58.6594 36.8894 58.1044 37.2404 57.5584 37.6024C56.5224 38.2884 55.4854 38.9664 54.4284 39.6204C53.3864 40.2654 52.3654 40.9404 51.3174 41.5744C50.3674 42.1494 49.4194 42.7274 48.4744 43.3114C47.4824 43.9224 46.5134 44.5614 45.5914 45.2754C44.6954 45.9724 43.7524 46.5924 42.8094 47.2224C41.7904 47.9014 40.7704 48.5784 39.7514 49.2574C39.2104 49.6164 38.6794 49.9924 38.1414 50.3574C37.6164 50.7144 37.0774 51.0484 36.5394 51.3864C35.5144 52.0324 34.5344 52.7354 33.5774 53.4804C32.6594 54.1924 31.6764 54.8104 30.7624 55.5264C29.7504 56.3194 28.6714 57.0334 27.6994 57.8754C27.2034 58.3034 26.7264 58.7524 26.2284 59.1764C25.7104 59.6164 25.1504 60.0044 24.6304 60.4424C24.2844 60.7344 23.9494 61.0364 23.6044 61.3234C23.6404 60.9274 23.6804 60.5324 23.7214 60.1364C23.8174 59.1974 23.8564 58.2584 23.8794 57.3164C23.9014 57.3044 23.9234 57.2924 23.9434 57.2804C24.0524 57.2184 24.1604 57.1564 24.2684 57.0944C24.6764 56.8774 25.0924 56.6744 25.5094 56.4734C26.4554 56.0154 27.3904 55.5094 28.2884 54.9654C29.2134 54.4054 30.1384 53.8454 31.0544 53.2714C32.1364 52.5924 33.1644 51.8334 34.2474 51.1544C35.3414 50.4704 36.4494 49.8024 37.5294 49.0954C38.0634 48.7454 38.5974 48.3964 39.1354 48.0524C39.6554 47.7194 40.1504 47.3524 40.6604 47.0054C41.7474 46.2664 42.8764 45.5824 43.9404 44.8084C44.4704 44.4224 45.0094 44.0454 45.5324 43.6514C45.9804 43.3134 46.4124 42.9574 46.8674 42.6284C47.3014 42.3144 47.7384 42.0024 48.1554 41.6624C48.5764 41.3164 49.0024 40.9774 49.4314 40.6424C49.8714 40.2994 50.3084 39.9554 50.7664 39.6374C51.1734 39.3554 51.6064 39.1104 52.0394 38.8704C52.5264 38.6074 53.0194 38.3534 53.4934 38.0674C53.5194 38.0534 53.5424 38.0394 53.5654 38.0254ZM57.2404 35.6744C57.2414 35.6744 57.2424 35.6734 57.2424 35.6734C57.2494 35.6714 57.2564 35.6704 57.2634 35.6694C57.2554 35.6704 57.2474 35.6724 57.2404 35.6744Z" fill="white"/>
<defs>
<linearGradient id="paint0_linear_27465_7525" x1="4" y1="42" x2="37.5" y2="20.5" gradientUnits="userSpaceOnUse">
<stop stop-color="#46A3BB"/>
<stop offset="0.445" stop-color="#46A3BB"/>
<stop offset="0.4451" stop-color="#E2FF5E"/>
</linearGradient>
<linearGradient id="paint1_linear_27465_7525" x1="17.77" y1="64.4957" x2="44.1846" y2="48.9836" gradientUnits="userSpaceOnUse">
<stop stop-color="#46A3BB"/>
<stop offset="0.445" stop-color="#46A3BB"/>
<stop offset="0.4451" stop-color="#E2FF5E"/>
</linearGradient>
</defs>
</svg>
