<svg width="73" height="66" viewBox="0 0 73 66" fill="none" xmlns="http://www.w3.org/2000/svg">
<path d="M24.204 35.3061C23.613 35.4991 22.904 35.9951 22.673 36.6021C22.341 37.4741 21.962 38.3501 21.783 39.2711C21.701 39.6961 21.669 40.1351 21.668 40.5661C21.668 40.9981 21.86 41.7981 22.157 42.1481C22.331 42.3521 22.505 42.5581 22.68 42.7621C22.898 42.9181 23.118 43.0731 23.341 43.2231C23.501 43.3301 23.977 43.4941 24.252 43.5181C24.547 43.5961 24.839 43.6091 25.13 43.5561C25.433 43.5291 25.726 43.4671 26.013 43.3721C26.303 43.2831 26.581 43.1351 26.856 42.9891C26.908 42.9681 26.96 42.9491 27.014 42.9301C28.383 42.4541 29.172 40.9721 28.716 39.5731C28.53 39.0011 28.148 38.5251 27.667 38.2011C27.723 37.7981 27.688 37.4011 27.561 37.0061C27.348 36.3511 26.876 35.7951 26.265 35.4751C25.708 35.1831 25.054 35.1011 24.443 35.2391C24.361 35.2591 24.282 35.2811 24.204 35.3061Z" fill="#46A3BB"/>
<path d="M33.3695 19.6179C32.9215 20.1099 32.6025 20.8559 32.6795 21.5339C32.8515 23.0689 33.0105 24.6039 33.1485 26.1429C33.3065 27.9279 33.6195 29.6799 33.9755 31.4359C34.2565 32.8229 34.5535 34.2099 34.9455 35.5699C35.3145 36.8519 35.6065 38.1479 35.8915 39.4519C36.0325 40.0929 36.6285 40.6889 37.1875 40.9819C38.0055 41.4089 39.1035 41.3999 39.8715 40.8569C40.6945 40.2729 41.1445 39.4009 41.0785 38.3839C41.0605 38.1049 41.0005 37.8369 40.9045 37.5869C40.7545 36.8999 40.6065 36.2129 40.4415 35.5309C40.2645 34.8009 40.0445 34.0849 39.8475 33.3609C39.4425 31.8669 39.1335 30.3429 38.8435 28.8219C38.6475 27.6559 38.5185 26.4889 38.4135 25.3109C38.2915 23.9659 38.1465 22.6259 37.9945 21.2839C37.9145 20.5639 37.6745 19.9389 37.1285 19.4409C36.6075 18.9679 35.9135 18.7179 35.2125 18.7509C35.0585 18.7579 34.9055 18.7789 34.7555 18.8129C34.2255 18.9319 33.7375 19.2119 33.3695 19.6179Z" fill="#46A3BB"/>
<path d="M27.98 27.1357C27.549 27.6087 27.184 28.3937 27.29 29.0517C27.584 30.8957 27.881 32.7397 28.159 34.5857C28.294 35.4827 28.427 36.3757 28.613 37.2637C28.705 37.7077 28.811 38.1487 28.906 38.5917C28.923 38.7277 28.935 38.8647 28.944 39.0027C29.031 40.4507 30.265 41.6047 31.727 41.5347C33.162 41.4667 34.347 40.1997 34.259 38.7517C34.191 37.6227 33.859 36.5097 33.629 35.4017C33.488 34.5507 33.375 33.6937 33.243 32.8407C33.035 31.4937 32.817 30.1467 32.602 28.7997C32.56 28.5657 32.516 28.3317 32.474 28.0977C32.327 27.6527 32.08 27.2737 31.735 26.9567C31.216 26.4847 30.522 26.2327 29.82 26.2667C29.666 26.2737 29.514 26.2947 29.365 26.3287C28.837 26.4497 28.349 26.7307 27.98 27.1357Z" fill="#E2FF5E"/>
<path d="M39.7744 14.7822C38.3684 15.2422 37.6594 16.7502 38.0714 18.1392C38.4664 19.4652 38.8724 20.7892 39.2044 22.1332C39.4914 23.2912 39.7534 24.4542 40.0184 25.6162C40.5274 27.8532 41.0694 30.0872 41.5014 32.3392C41.7354 33.6862 41.9524 35.0372 42.2224 36.3762C42.3524 37.0152 42.9674 37.6172 43.5184 37.9072C44.1494 38.2372 44.9024 38.3002 45.5794 38.0792C46.2344 37.8642 46.7904 37.3922 47.1104 36.7832C47.1894 36.5672 47.2684 36.3502 47.3474 36.1352C47.4514 35.6582 47.4294 35.1882 47.2804 34.7232C47.2654 34.6482 47.2514 34.5732 47.2364 34.4982C46.9784 33.0332 46.7454 31.5642 46.4474 30.1072C46.1504 28.6602 45.8124 27.2202 45.4874 25.7792C45.1514 24.2872 44.8155 22.7972 44.4635 21.3092C44.0795 19.6832 43.6054 18.0872 43.1304 16.4872C42.7414 15.1742 41.2984 14.4292 40.0024 14.7212C39.9264 14.7362 39.8504 14.7572 39.7744 14.7822Z" fill="#E2FF5E"/>
<path d="M10.4682 55.2262C10.3472 55.9312 10.2472 56.6212 10.1882 57.3362C10.1142 58.2442 10.1902 59.2012 10.7022 59.9872C10.9072 60.3032 11.4112 60.8362 11.7742 60.9772C12.2242 61.1512 12.7172 61.3992 13.2242 61.3122C13.5552 61.2562 13.8912 61.2383 14.1972 61.0913C14.3212 61.0443 14.4422 60.9922 14.5602 60.9332C15.2442 61.7432 16.3982 62.1653 17.4292 61.7723C17.7892 61.6343 18.1512 61.5123 18.5062 61.3633C19.1112 61.1083 19.6972 60.7992 20.2792 60.4932C21.0142 60.1062 21.7382 59.6972 22.4762 59.3162C23.6432 58.7762 24.7982 58.2163 25.9532 57.6513C26.2032 57.6173 26.4532 57.5812 26.7012 57.5422C27.4802 57.4202 28.2342 57.2612 28.9792 57.0072C29.6162 56.7892 30.2382 56.5072 30.8542 56.2372C30.8862 56.2232 30.9182 56.2093 30.9492 56.1953C32.2762 55.8903 33.6052 55.5952 34.9422 55.3272C35.5532 55.2292 36.1642 55.1372 36.7732 55.0282C37.5042 54.8972 38.2412 54.7812 38.9602 54.5892C39.6882 54.3932 40.4282 54.0072 41.0752 53.6422C41.4762 53.4162 41.8142 53.0662 42.1382 52.7472C42.3222 52.4882 42.5052 52.2273 42.6862 51.9663C42.8992 51.5593 43.0672 50.9032 43.0302 50.4412C42.9652 49.6582 42.7072 48.9143 42.1042 48.3713C41.6552 47.9643 41.1502 47.7113 40.5562 47.5873C39.4962 47.3693 38.3562 47.5643 37.3272 47.8243C36.1592 48.1213 35.0132 48.5713 33.8892 49.0003C33.3882 49.1913 32.8972 49.4042 32.4122 49.6282C32.2662 49.6112 32.1222 49.6073 31.9842 49.6173C30.5832 49.7203 29.2212 50.0173 27.8542 50.3283C26.4742 50.6423 25.0942 50.9542 23.7162 51.2832C22.5882 51.5532 21.4622 51.8312 20.3412 52.1322C19.9732 52.0972 19.6032 52.0772 19.2372 52.0992C18.5622 52.1422 17.8792 52.3052 17.2622 52.5852C16.4322 52.9622 15.6442 53.3773 14.8782 53.8633C14.5352 53.5443 14.1102 53.3163 13.6502 53.2123C13.2722 53.1273 12.8782 53.1342 12.4992 53.2192C11.5172 53.4442 10.6452 54.1942 10.4682 55.2262Z" fill="#46A3BB"/>
<path d="M31.6341 6.86538C29.3781 7.45238 27.1401 8.10939 24.9071 8.77839C23.8921 9.08339 22.8661 9.35239 21.8451 9.63539C21.5261 9.72439 21.2041 9.80838 20.8821 9.88738C20.5561 9.72538 20.2261 9.72938 19.8781 9.81538C18.8381 10.0714 17.7951 10.3154 16.7541 10.5744C15.7321 10.8284 14.7251 11.1494 13.6941 11.3604C12.4601 11.5774 11.2201 11.7534 9.99009 11.9904C8.74509 12.2284 7.4841 12.4794 6.3061 12.9574C5.6561 13.2214 5.01011 13.5154 4.40611 13.8724C4.23111 13.9754 4.07709 14.1144 3.92009 14.2404C3.74809 14.3784 3.57211 14.5284 3.41011 14.6784C3.15611 14.9104 2.91109 15.1534 2.69609 15.4224C2.44709 15.7344 2.2181 16.0624 2.0081 16.4034C1.7871 16.7604 1.66611 17.1954 1.57411 17.6034C1.45311 18.1344 1.43711 18.6994 1.41011 19.2414C1.37611 19.9434 1.40011 20.6504 1.41111 21.3534C1.43411 22.7774 1.55709 24.2044 1.69709 25.6214C1.83709 27.0344 2.01709 28.4414 2.23909 29.8434C2.68709 32.6704 3.34511 35.4684 3.98811 38.2564C4.54511 40.6724 5.07711 43.0884 5.56111 45.5194C6.01611 47.8124 6.56611 50.0884 6.99311 52.3864C6.97911 52.3114 6.9651 52.2364 6.9521 52.1604C6.9711 52.2634 6.9901 52.3674 7.0081 52.4714C7.0101 52.4844 7.01309 52.4984 7.01509 52.5114C7.01309 52.4994 7.0111 52.4874 7.0081 52.4754C7.2221 53.6554 7.4371 54.8374 7.6761 56.0134C7.9191 57.2154 8.16009 58.4174 8.55409 59.5804C8.75909 60.1854 8.97211 60.8024 9.32811 61.3394C9.73211 61.9504 10.2881 62.5014 10.9591 62.8094C11.6821 63.1394 12.5101 63.2204 13.2931 63.1664C13.9261 63.1224 14.5471 62.9894 15.1711 62.8894C15.8721 62.7784 16.5721 62.6634 17.2651 62.5114C17.9051 62.3724 18.5291 62.1594 19.1541 61.9644C20.3971 61.5764 21.6611 61.2644 22.9191 60.9274C24.2181 60.5794 25.5041 60.1834 26.8021 59.8284C28.1051 59.4714 29.4121 59.1244 30.7131 58.7614C32.0191 58.3974 33.3231 58.0394 34.6421 57.7244C35.9551 57.4104 37.2681 57.1004 38.5811 56.7884C39.8581 56.4854 41.1331 56.1774 42.3971 55.8204C43.7001 55.4524 45.0101 55.1084 46.3291 54.7974C47.6581 54.4824 48.9821 54.1634 50.2991 53.8024C51.5851 53.4504 52.8711 53.0994 54.1551 52.7464C55.4181 52.3994 56.6881 52.0864 57.9621 51.7894C59.1921 51.5014 60.4371 51.2834 61.6721 51.0234C62.9461 50.7544 64.2141 50.4444 65.4811 50.1454C66.0371 50.0124 66.5981 49.8934 67.1491 49.7374C67.7521 49.5684 68.3191 49.2634 68.6891 48.7454C68.8571 48.5114 68.9901 48.2914 69.1131 48.0324C69.2161 47.8154 69.2871 47.5824 69.3691 47.3584C69.4491 47.1334 69.5111 46.9014 69.5801 46.6734C69.8431 45.7924 69.9051 44.8794 69.9211 43.9634C69.9321 43.2824 69.9421 42.5994 69.9171 41.9174C69.8651 40.4994 69.7851 39.0764 69.6061 37.6684C69.2401 34.8064 68.5961 31.9954 68.0671 29.1604C67.8201 27.8414 67.5471 26.5294 67.2121 25.2284C66.8761 23.9264 66.4181 22.6644 66.0421 21.3734C65.8101 20.5754 65.6111 19.7714 65.4501 18.9564C65.2501 17.7844 65.1311 16.6014 64.9311 15.4304C64.7031 14.0864 64.4771 12.7404 64.2151 11.4014C64.0931 10.7794 63.9801 10.1534 63.8101 9.54139C63.6461 8.95539 63.4531 8.37638 63.2721 7.79638C63.0931 7.22638 62.8971 6.65839 62.6721 6.10539C62.4561 5.57139 62.2271 5.04138 62.0231 4.50138C61.9211 4.23038 61.8011 3.95439 61.6551 3.70439C61.4211 3.30839 61.0881 3.01338 60.7071 2.76438C60.2161 2.44238 59.5881 2.34539 59.0151 2.29339C58.3101 2.23139 57.6041 2.20639 56.8981 2.18339C56.2271 2.16239 55.5561 2.15039 54.8841 2.17439C53.4611 2.22739 52.0481 2.38539 50.6481 2.64639C49.4231 2.87539 48.2101 3.16038 46.9961 3.44738C44.4231 4.05738 41.8251 4.55639 39.2431 5.12539C37.9401 5.41339 36.6391 5.70638 35.3381 5.99938C34.8411 6.11038 34.3431 6.22039 33.8461 6.33239C33.1071 6.50139 32.3681 6.67338 31.6341 6.86538ZM13.7931 11.3434C13.8631 11.3304 13.9321 11.3184 14.0021 11.3064C13.9321 11.3184 13.8621 11.3304 13.7931 11.3434ZM20.8211 12.6254C22.7681 12.1834 24.6851 11.6104 26.6011 11.0504C29.0691 10.3314 31.5331 9.57439 34.0431 9.00839C36.6121 8.42939 39.1801 7.84039 41.7561 7.29339C43.0391 7.02139 44.3271 6.77338 45.6081 6.49038C46.9051 6.20238 48.1981 5.88538 49.4921 5.58338C50.0801 5.44638 50.6721 5.32839 51.2641 5.21739C53.6891 4.80239 56.1531 4.74238 58.6061 4.90838C58.8421 4.93338 59.0761 4.96839 59.3051 5.03039C59.3231 5.03939 59.3411 5.04838 59.3591 5.05738C59.3841 5.09438 59.4081 5.13138 59.4311 5.16938C59.4991 5.33238 59.5591 5.49738 59.6221 5.66238C59.7481 5.99138 59.8891 6.31538 60.0251 6.64138C60.2961 7.28938 60.5341 7.95338 60.7441 8.62338C60.9551 9.29538 61.1911 9.96638 61.3581 10.6524C61.5361 11.3824 61.6701 12.1254 61.8081 12.8644C61.7951 12.7934 61.7821 12.7224 61.7691 12.6504C61.9931 13.8764 62.2191 15.1054 62.3971 16.3384C62.5891 17.6704 62.7411 19.0074 63.0321 20.3244C63.3221 21.6374 63.7321 22.9134 64.1471 24.1934C64.5561 25.4524 64.8811 26.7444 65.1521 28.0414C65.3931 29.1934 65.6021 30.3544 65.8271 31.5104C66.0551 32.6894 66.3081 33.8644 66.5331 35.0454C66.8101 36.6454 67.0441 38.2524 67.1471 39.8744C67.2551 41.5384 67.3321 43.2114 67.2381 44.8784C67.1631 45.4944 67.0021 46.1034 66.8011 46.6914C66.7391 46.8364 66.6721 46.9754 66.5971 47.1134C66.1211 47.2894 65.6201 47.3884 65.1271 47.5034C64.5201 47.6444 63.9141 47.7924 63.3061 47.9304C62.0151 48.2274 60.7251 48.5244 59.4261 48.7844C58.2231 49.0254 57.0261 49.2774 55.8341 49.5674C54.5151 49.8864 53.2091 50.2514 51.9001 50.6104C50.6041 50.9664 49.3111 51.3264 48.0121 51.6664C46.7041 52.0084 45.3801 52.2834 44.0691 52.6124C42.7721 52.9364 41.4921 53.3204 40.2021 53.6644C38.9431 53.9984 37.6661 54.2784 36.3981 54.5784C35.0911 54.8884 33.7801 55.1894 32.4761 55.5244C31.1481 55.8664 29.8311 56.2494 28.5081 56.6114C27.1851 56.9734 25.8571 57.3214 24.5391 57.6994C23.2511 58.0674 21.9631 58.4334 20.6671 58.7724C19.8351 58.9904 19.0061 59.2214 18.1851 59.4774C17.3971 59.7244 16.6161 59.9474 15.8091 60.1074C15.3301 60.1884 14.8481 60.2584 14.3691 60.3434C13.7821 60.4464 13.1951 60.5324 12.6001 60.5144C12.4451 60.4924 12.2921 60.4624 12.1411 60.4214C12.0871 60.3964 12.0341 60.3694 11.9811 60.3394C11.8831 60.2594 11.7911 60.1734 11.7021 60.0824C11.5911 59.9354 11.4921 59.7814 11.4011 59.6194C11.1661 59.0794 10.9921 58.5034 10.8281 57.9404C10.6431 57.3074 10.5151 56.6594 10.3791 56.0164C10.0961 54.6664 9.8441 53.3124 9.5951 51.9564C9.6171 52.0734 9.63811 52.1904 9.66111 52.3084C9.52511 51.5704 9.39511 50.8314 9.24311 50.0954C9.11011 49.4494 8.95911 48.8074 8.81611 48.1644C8.54111 46.9234 8.28809 45.6804 8.04109 44.4334C7.76909 43.0684 7.49209 41.7034 7.18809 40.3444C6.89009 39.0074 6.56809 37.6734 6.27009 36.3354C5.83309 34.3914 5.39509 32.4464 5.02909 30.4884C4.71409 28.6234 4.45609 26.7484 4.29609 24.8654C4.12309 22.8394 3.96811 20.7834 4.09111 18.7494C4.12511 18.4474 4.17209 18.1514 4.25709 17.8594C4.32809 17.7094 4.40909 17.5684 4.49809 17.4294C4.78509 17.0564 5.10212 16.7224 5.45012 16.4084C5.65212 16.2474 5.85409 16.0954 6.08409 15.9704C6.18509 15.9154 6.2871 15.8634 6.3881 15.8124C7.0621 15.5024 7.74909 15.2394 8.46409 15.0414C9.33609 14.8004 10.2251 14.6274 11.1141 14.4614C12.6791 14.1864 14.2641 14.0004 15.8001 13.5774C17.1361 13.2104 18.4821 12.8844 19.8281 12.5574C20.1511 12.7134 20.4661 12.7044 20.8091 12.6274C20.8131 12.6274 20.8171 12.6264 20.8211 12.6254ZM66.7231 46.9564C66.6961 46.9994 66.6671 47.0414 66.6361 47.0814C66.6651 47.0394 66.6941 46.9984 66.7231 46.9564ZM7.01011 52.4754C7.01011 52.4734 7.00911 52.4724 7.00911 52.4714C7.00411 52.4434 6.99811 52.4144 6.99311 52.3864C6.99911 52.4154 7.00411 52.4454 7.01011 52.4754Z" fill="#2B2B2B"/>
<path d="M66.6709 39.1566C66.3819 39.2246 66.0939 39.2956 65.8089 39.3766C65.3569 39.5056 64.9279 39.6896 64.4879 39.8496C63.9419 40.0486 63.3709 40.1865 62.8109 40.3425C62.2429 40.5035 61.6739 40.6596 61.1029 40.8076C59.7839 41.1536 58.4649 41.5096 57.1389 41.8236C56.0079 42.0916 54.8719 42.3346 53.7369 42.5826C52.3999 42.8746 51.0559 43.1486 49.7219 43.4536C48.3919 43.7576 47.0669 44.0796 45.7379 44.3876C44.3949 44.7006 43.0439 44.9736 41.6929 45.2466C40.4979 45.4866 39.3009 45.7295 38.1109 45.9975C35.5169 46.5835 32.9359 47.1965 30.3649 47.8785C29.5109 48.1065 28.6489 48.2986 27.7869 48.4926C27.4539 48.5676 27.1199 48.6415 26.7889 48.7175C25.5749 48.9975 24.3649 49.2855 23.1509 49.5665C22.1449 49.8005 21.1439 50.0626 20.1369 50.2976C19.1479 50.5266 18.1529 50.7276 17.1549 50.9136C15.9569 51.1306 14.7659 51.3656 13.5859 51.6676C12.9829 51.8236 12.3879 52.0106 11.7989 52.2116C11.5009 52.3136 11.2079 52.4235 10.9129 52.5335C10.2959 52.7595 9.72389 53.0796 9.15489 53.4056C8.52689 53.7666 8.38491 54.6646 8.76491 55.2466C9.17691 55.8786 9.97691 55.9976 10.6049 55.6376C10.8459 55.5006 11.0859 55.3615 11.3299 55.2315C12.2879 54.8135 13.3019 54.4976 14.3099 54.2246C15.1429 53.9996 15.9919 53.8115 16.8399 53.6485C18.1789 53.4115 19.5109 53.1536 20.8369 52.8546C22.1209 52.5666 23.3939 52.2295 24.6779 51.9345C25.8759 51.6595 27.0719 51.3725 28.2699 51.0975C29.4939 50.8175 30.7149 50.5346 31.9299 50.2126C34.4859 49.5336 37.0629 48.9495 39.6429 48.3695C40.8519 48.0975 42.0679 47.8676 43.2849 47.6256C44.6039 47.3616 45.9199 47.0725 47.2299 46.7605C48.5859 46.4365 49.9429 46.1155 51.3039 45.8125C52.5999 45.5235 53.9009 45.2596 55.1979 44.9736C56.3379 44.7226 57.4799 44.4775 58.6129 44.1965C59.9499 43.8645 61.2859 43.5166 62.6159 43.1566C63.1189 43.0206 63.6229 42.8765 64.1249 42.7355C64.6089 42.5995 65.0899 42.4665 65.5589 42.2865C66.1959 42.0425 66.8329 41.8426 67.4979 41.6866C67.8199 41.6106 68.1159 41.3205 68.2639 41.0375C68.4289 40.7215 68.4609 40.3465 68.3499 40.0075C68.2429 39.6805 68.0059 39.4016 67.7009 39.2426C67.3709 39.0696 67.0449 39.0726 66.6939 39.1516C66.6859 39.1526 66.6779 39.1546 66.6709 39.1566ZM17.1739 50.9106C17.2509 50.8966 17.3269 50.8825 17.4039 50.8695C17.3269 50.8835 17.2499 50.8966 17.1739 50.9106Z" fill="#2B2B2B"/>
<path d="M35.5908 55.3925C35.3798 55.6245 35.1889 56.0245 35.2469 56.3495C35.4789 57.6515 35.7099 58.9495 36.0499 60.2295C36.1999 60.7925 36.3879 61.3455 36.5539 61.9045C36.7129 62.4425 36.8248 63.0045 37.0588 63.5165C37.2108 63.8465 37.3749 64.1075 37.7079 64.2825C38.0239 64.4475 38.3989 64.4785 38.7379 64.3685C39.0649 64.2615 39.3438 64.0245 39.5028 63.7195C39.6528 63.4345 39.7299 62.9975 39.5889 62.6895C39.3979 62.2745 39.2969 61.8255 39.1729 61.3895C39.0439 60.9365 38.9009 60.4875 38.7639 60.0355C38.4689 59.0685 38.2458 58.0825 38.0588 57.0875C38.0068 56.8005 37.9558 56.5125 37.9038 56.2265C37.8838 56.1095 37.8618 55.9925 37.8398 55.8755C37.7668 55.6525 37.6439 55.4635 37.4709 55.3045C37.2109 55.0675 36.8649 54.9435 36.5139 54.9605C36.4369 54.9645 36.3598 54.9745 36.2848 54.9915C36.0198 55.0495 35.7758 55.1895 35.5908 55.3925Z" fill="#2B2B2B"/>
<path d="M45.8266 52.3915C45.4996 52.4985 45.2226 52.7345 45.0616 53.0405C44.8836 53.3785 44.8936 53.7086 44.9756 54.0706C45.5106 56.4456 46.0676 58.8146 46.6026 61.1906C46.6746 61.5126 46.9706 61.8095 47.2516 61.9565C47.5656 62.1215 47.9426 62.1535 48.2816 62.0425C48.6086 61.9355 48.8856 61.6996 49.0466 61.3936C49.2246 61.0556 49.2146 60.7256 49.1326 60.3636C48.5976 57.9886 48.0406 55.6195 47.5056 53.2435C47.4336 52.9215 47.1376 52.6245 46.8566 52.4785C46.5796 52.3325 46.2526 52.2905 45.9466 52.3595C45.9056 52.3675 45.8656 52.3785 45.8266 52.3915Z" fill="#2B2B2B"/>
<path d="M33.314 63.2477C32.993 63.3227 32.697 63.6117 32.549 63.8967C32.384 64.2107 32.353 64.5877 32.464 64.9267C32.57 65.2547 32.806 65.5317 33.111 65.6927C33.449 65.8697 33.781 65.8617 34.141 65.7777C35.507 65.4587 36.881 65.1637 38.252 64.8677C39.558 64.5867 40.865 64.3067 42.166 64.0037C43.414 63.7137 44.662 63.4227 45.914 63.1487C47.192 62.8687 48.483 62.6487 49.767 62.3947C51.078 62.1347 52.382 61.8347 53.686 61.5427C54.008 61.4697 54.303 61.1757 54.451 60.8937C54.616 60.5777 54.647 60.2027 54.536 59.8637C54.43 59.5357 54.194 59.2577 53.889 59.0977C53.549 58.9197 53.221 58.9297 52.859 59.0117C51.718 59.2687 50.576 59.5247 49.432 59.7637C48.182 60.0257 46.923 60.2407 45.672 60.4957C44.288 60.7767 42.912 61.1007 41.537 61.4227C40.393 61.6897 39.248 61.9577 38.101 62.2017C36.805 62.4787 35.507 62.7507 34.214 63.0417C33.914 63.1087 33.614 63.1777 33.314 63.2477Z" fill="#2B2B2B"/>
<path d="M22.6957 34.422C22.2087 34.542 21.7277 34.678 21.2587 34.86C21.0567 34.937 20.8637 35.033 20.6677 35.126C20.5257 35.185 20.3897 35.259 20.2617 35.344C20.0237 35.489 19.8567 35.714 19.7057 35.938C19.4337 36.346 19.4207 36.862 19.4887 37.332C19.6357 38.37 19.8687 39.398 20.0777 40.426C20.2987 41.522 20.5197 42.618 20.7297 43.717C20.7907 44.035 21.1057 44.339 21.3787 44.483C21.6947 44.648 22.0697 44.679 22.4087 44.569C22.7357 44.462 23.0147 44.225 23.1747 43.92C23.2147 43.812 23.2537 43.704 23.2937 43.596C23.3467 43.357 23.3347 43.123 23.2607 42.89C22.9507 41.272 22.5977 39.662 22.2907 38.045C22.3057 38.131 22.3217 38.217 22.3377 38.303C22.2787 37.994 22.2097 37.679 22.1627 37.365C22.8097 37.123 23.4787 36.96 24.1547 36.804C24.9897 36.613 25.8237 36.405 26.6637 36.246C26.9817 36.187 27.2867 35.871 27.4297 35.599C27.5957 35.283 27.6267 34.906 27.5157 34.568C27.4087 34.241 27.1737 33.963 26.8687 33.802C26.7607 33.762 26.6527 33.723 26.5447 33.683C26.3067 33.632 26.0697 33.642 25.8377 33.718C25.3707 33.806 24.9027 33.905 24.4367 34.01C23.8527 34.139 23.2727 34.28 22.6957 34.422ZM22.1197 36.943C22.1187 36.946 22.1177 36.95 22.1157 36.953C22.1167 36.949 22.1187 36.946 22.1197 36.943Z" fill="#2B2B2B"/>
<path d="M25.3371 26.314C25.2191 26.411 25.101 26.512 24.989 26.615C24.832 26.789 24.7261 26.989 24.6741 27.217C24.5481 27.565 24.5891 27.948 24.6501 28.305C24.7011 28.597 24.7611 28.886 24.8231 29.173C24.9791 29.902 25.1281 30.631 25.2671 31.363C25.4381 32.321 25.6001 33.282 25.7831 34.239C25.9451 35.093 26.1391 35.941 26.3051 36.794C26.4921 37.744 26.6731 38.692 26.8841 39.636C27.1071 40.625 27.3301 41.614 27.5531 42.605C27.6251 42.925 27.9201 43.222 28.2011 43.369C28.5161 43.536 28.892 43.566 29.231 43.455C29.558 43.348 29.8371 43.113 29.9971 42.808C30.1751 42.468 30.1641 42.139 30.0831 41.777C29.7401 40.255 29.3781 38.734 29.0741 37.203C28.7991 35.809 28.5051 34.418 28.2381 33.022C28.0811 32.13 27.931 31.238 27.761 30.349C27.646 29.753 27.5201 29.16 27.3961 28.567C27.6491 28.553 27.9021 28.544 28.1551 28.532C28.7021 28.506 29.248 28.48 29.795 28.441C30.578 28.382 31.3501 28.27 32.1181 28.108C32.4381 28.04 32.7381 27.738 32.8841 27.461C33.0491 27.145 33.0801 26.769 32.9701 26.431C32.8621 26.102 32.626 25.825 32.321 25.666C31.979 25.486 31.656 25.502 31.291 25.58C31.23 25.593 31.1691 25.605 31.1071 25.618C29.7871 25.836 28.4431 25.837 27.1091 25.92C26.8781 25.934 26.6501 25.955 26.4191 25.987C26.2811 26.006 26.1361 26.029 25.9931 26.061C25.7621 26.11 25.5321 26.188 25.3371 26.314Z" fill="#2B2B2B"/>
<path d="M34.4892 19.2836C33.9292 19.4566 33.3623 19.6166 32.7943 19.7716C32.0013 19.9866 30.9863 20.2186 30.6263 21.0516C30.3143 21.7736 30.5342 22.5536 30.6272 23.2996C30.7022 23.8946 30.7632 24.4907 30.8542 25.0837C30.9572 25.7637 31.0972 26.4396 31.2312 27.1146C31.4702 28.3306 31.7072 29.5476 31.9392 30.7636C31.9452 30.8756 31.9662 30.9846 31.9992 31.0886C32.2792 32.6406 32.5482 34.1936 32.8352 35.7426C33.1532 37.4596 33.5193 39.1636 33.9023 40.8656C33.9753 41.1876 34.2683 41.4846 34.5493 41.6316C34.8653 41.7966 35.2422 41.8286 35.5802 41.7176C35.9072 41.6106 36.1852 41.3746 36.3452 41.0686C36.5232 40.7306 36.5112 40.4016 36.4302 40.0386C36.0482 38.3456 35.6882 36.6486 35.3692 34.9416C35.2062 34.0326 35.0443 33.1236 34.8813 32.2146C34.7923 31.7246 34.7042 31.2346 34.6152 30.7446C34.5982 30.6486 34.5802 30.5526 34.5632 30.4566C34.5622 30.4496 34.5612 30.4436 34.5602 30.4366C34.5042 30.1346 34.4482 29.8306 34.3902 29.5266C34.3022 29.0626 34.2042 28.5996 34.1152 28.1356C33.9432 27.2406 33.7673 26.3476 33.5963 25.4536C33.4883 24.8326 33.4012 24.2106 33.3322 23.5846C33.2992 23.2966 33.2662 23.0087 33.2262 22.7217C33.2122 22.6237 33.1952 22.5226 33.1792 22.4226C33.2942 22.3896 33.4092 22.3576 33.5252 22.3256C33.9052 22.2236 34.2843 22.1116 34.6613 22.0046C35.0503 21.8946 35.4362 21.7766 35.8222 21.6536C36.2242 21.5266 36.6263 21.3776 37.0403 21.2906C37.3603 21.2236 37.6602 20.9206 37.8062 20.6436C37.9712 20.3276 38.0022 19.9527 37.8912 19.6137C37.7852 19.2847 37.5492 19.0076 37.2442 18.8476C36.9012 18.6676 36.5792 18.6836 36.2142 18.7616C36.1872 18.7676 36.1612 18.7726 36.1342 18.7796C35.5752 18.9056 35.0332 19.1166 34.4892 19.2836ZM31.9342 30.7316C31.9352 30.7396 31.9372 30.7476 31.9382 30.7566C31.9362 30.7476 31.9352 30.7396 31.9342 30.7316Z" fill="#2B2B2B"/>
<path d="M36.8935 14.6659C36.6555 14.7439 36.4225 14.8469 36.2065 14.9739C35.8825 15.1689 35.6335 15.5629 35.5705 15.9329C35.5005 16.3429 35.5795 16.6949 35.6535 17.0979C35.7535 17.6339 35.8775 18.1649 36.0095 18.6929C36.3315 19.9869 36.6835 21.2739 37.0235 22.5629C37.3775 23.9049 37.7345 25.2439 38.1025 26.5809C38.3655 27.5309 38.6475 28.4749 38.8795 29.4329C39.1275 30.4519 39.3615 31.4719 39.5915 32.4939C40.0135 34.3599 40.4395 36.2239 40.8685 38.0869C40.8105 38.1049 40.7515 38.1239 40.6925 38.1419C40.1055 38.3209 39.5215 38.5089 38.9275 38.6659C38.3875 38.8099 37.8455 38.9339 37.3015 39.0599C36.9935 39.1319 36.6835 39.1989 36.3745 39.2669C35.6245 39.4299 34.8735 39.5949 34.1395 39.8099C32.4675 40.3049 30.7865 40.7689 29.0885 41.1669C28.2705 41.3589 27.4495 41.5449 26.6285 41.7319C25.9305 41.8889 25.2345 42.0629 24.5325 42.2019C24.0095 42.2909 23.4865 42.3689 22.9645 42.4609C22.9975 42.4549 23.0295 42.4489 23.0625 42.4429C23.0235 42.4499 22.9845 42.4569 22.9465 42.4639C22.8715 42.4769 22.7965 42.4909 22.7215 42.5049C22.6945 42.5099 22.6675 42.5149 22.6395 42.5199C22.6405 42.5199 22.6425 42.5189 22.6435 42.5189C22.6415 42.5189 22.6395 42.5199 22.6385 42.5199C22.5235 42.5409 22.4085 42.5619 22.2935 42.5829C22.3825 42.5659 22.4725 42.5499 22.5615 42.5339C22.4615 42.5509 22.3625 42.5649 22.2615 42.5629C21.5355 42.5489 20.9625 43.2679 20.9955 43.9549C21.0125 44.3059 21.1695 44.6399 21.4285 44.8769C21.7035 45.1249 22.0245 45.2129 22.3875 45.2209C22.6555 45.2279 22.9415 45.1449 23.1985 45.0989C23.1735 45.1029 23.1485 45.1079 23.1235 45.1119C23.2245 45.0929 23.3255 45.0749 23.4265 45.0559C23.8465 44.9829 24.2695 44.9239 24.6895 44.8539C25.3385 44.7469 25.9765 44.5959 26.6185 44.4509C27.8005 44.1829 28.9835 43.9149 30.1625 43.6389C31.3985 43.3499 32.6245 43.0229 33.8415 42.6699C34.4575 42.4919 35.0705 42.2939 35.6945 42.1449C36.0315 42.0659 36.3705 41.9899 36.7085 41.9149C36.9025 41.8709 37.0965 41.8269 37.2905 41.7819C38.4085 41.5269 39.5265 41.2779 40.6255 40.9469C41.1795 40.7789 41.7355 40.6119 42.2865 40.4299C42.8855 40.2319 43.4745 40.0089 44.0775 39.8259C45.4005 39.4239 46.6855 38.9259 47.9555 38.3819C48.2275 38.2659 48.5015 38.1509 48.7745 38.0389C49.0105 37.9449 49.2535 37.8399 49.4625 37.6919C49.8295 37.4299 50.0505 37.0919 50.1735 36.6579C50.2565 36.3649 50.2285 35.9849 50.1975 35.6789C50.1535 35.2689 50.0655 34.8639 49.9825 34.4599C49.6535 32.8709 49.3065 31.2839 49.0055 29.6879C48.7725 28.3979 48.5455 27.1069 48.2765 25.8239C48.0095 24.5599 47.7145 23.3029 47.4295 22.0429C47.1245 20.6949 46.8355 19.3399 46.4765 18.0039C46.3005 17.3509 46.1095 16.6989 45.9035 16.0539C45.7825 15.6729 45.6565 15.2939 45.4835 14.9329C45.4345 14.8289 45.3845 14.7249 45.3355 14.6219C45.2455 14.4519 45.1325 14.3009 44.9955 14.1679C44.8525 14.0009 44.6835 13.8899 44.4985 13.7729C44.2795 13.6339 43.9535 13.5959 43.7075 13.5849C43.5885 13.5779 43.4795 13.5909 43.3615 13.6099C42.4625 13.7479 41.5745 13.9799 40.6805 14.1519C40.1275 14.2489 39.5725 14.3339 39.0125 14.3769C38.4265 14.4229 37.8365 14.4369 37.2635 14.5659C37.1365 14.5939 37.0145 14.6269 36.8935 14.6659ZM41.6725 29.7089C41.3485 28.3449 40.9755 26.9989 40.6025 25.6479C40.2355 24.3169 39.8815 22.9829 39.5305 21.6479C39.1295 20.1319 38.6795 18.6199 38.3475 17.0859C38.6645 17.0599 38.9825 17.0469 39.3005 17.0219C39.7925 16.9829 40.2835 16.8999 40.7695 16.8159C41.5795 16.6759 42.3815 16.4999 43.1865 16.3329C43.3315 16.7249 43.4485 17.1289 43.5675 17.5279C43.7275 18.0669 43.8805 18.6079 44.0265 19.1519C44.3205 20.2389 44.5485 21.3479 44.7975 22.4469C45.2695 24.5209 45.7485 26.5909 46.1395 28.6819C46.3545 29.8839 46.5775 31.0829 46.8205 32.2779C47.0425 33.3689 47.2825 34.4559 47.5015 35.5479C47.5095 35.5959 47.5165 35.6449 47.5225 35.6929C46.4945 36.1309 45.4595 36.5629 44.4065 36.9299C44.0725 37.0459 43.7345 37.1509 43.3975 37.2559C42.8215 34.7389 42.2705 32.2189 41.6725 29.7089ZM22.7215 42.5069C22.7915 42.4939 22.8605 42.4819 22.9305 42.4689C22.8615 42.4819 22.7915 42.4939 22.7215 42.5069ZM23.4425 45.0549C23.5345 45.0379 23.6265 45.0209 23.7185 45.0039C23.6275 45.0209 23.5355 45.0379 23.4425 45.0549ZM22.6365 42.5219C22.6375 42.5219 22.6375 42.5219 22.6385 42.5219C22.6125 42.5269 22.5855 42.5309 22.5595 42.5359C22.5845 42.5319 22.6105 42.5269 22.6365 42.5219Z" fill="#2B2B2B"/>
</svg>
