<svg width="82" height="82" viewBox="0 0 82 82" fill="none" xmlns="http://www.w3.org/2000/svg">
<path d="M3.35574 41.2086L10.9675 39.2477C11.3596 39.3368 11.7518 39.4616 12.1618 39.6042C11.9836 39.6577 11.8053 39.7112 11.627 39.7646C11.1279 39.9072 10.611 40.032 10.094 40.139L3.89052 41.6007C-0.156004 45.6472 0.182695 54.9168 4.354 64.2042C5.6553 67.0742 7.224 69.659 8.97095 71.8159C9.684 72.2081 10.094 72.422 10.094 72.422C14.4614 65.2916 21.5027 61.2807 27.5814 59.0525C27.7596 58.9812 27.9379 58.9277 28.1162 58.8742C28.1518 58.999 28.2231 59.1416 28.2588 59.2664C31.3427 68.7499 30.0414 77.5025 24.6936 80.0338C20.1479 82.2085 13.9444 79.2672 8.88182 73.1529C6.99225 70.9068 5.28095 68.2151 3.83704 65.2203C-0.779915 55.5051 -0.815565 45.5759 3.37357 41.2264L3.35574 41.2086Z" fill="black"/>
<path d="M10.0761 73.2955C10.3792 73.2955 10.6644 73.1351 10.8427 72.8677C15.2457 65.6659 22.5366 61.8333 27.8666 59.8725C34.0879 57.6086 39.3109 57.2164 39.3644 57.2164C39.8635 57.1807 40.2201 56.7529 40.1844 56.2716C40.1488 55.7725 39.6853 55.4159 39.2396 55.4516C39.0257 55.4516 33.7135 55.8616 27.2427 58.2146C19.524 61.049 13.4988 65.5412 9.75527 71.2455C9.68397 71.2099 9.61266 71.1742 9.52354 71.1207C7.86571 69.0351 6.38615 66.5929 5.13832 63.8299C1.14527 54.9346 0.824409 46.182 4.31832 42.4029L10.2722 41.0125C10.7892 40.9055 11.324 40.7807 11.8409 40.6203C26.2444 36.9838 35.1753 27.732 35.5496 27.3399C35.5853 27.3042 35.6209 27.2507 35.6566 27.1973C40.4874 19.4251 49.2935 15.8243 49.3827 15.7886C59.5435 12.0808 64.1605 8.78296 69.0627 5.30687C70.364 4.37991 71.7009 3.43515 73.1805 2.45471C73.8935 2.06254 74.874 2.25861 75.4088 2.936L77.1379 5.07513C78.3679 6.60817 78.867 8.58687 78.4926 10.5121C78.1183 12.4551 76.9061 14.113 75.1948 15.0756C68.7239 17.999 63.6792 20.5659 58.7948 24.149C58.4027 24.4342 58.3135 25.0046 58.5988 25.3968C58.884 25.789 59.4544 25.8781 59.8466 25.5929C64.6061 22.099 69.5439 19.5855 75.9791 16.6621C78.2252 15.4143 79.7583 13.3108 80.2396 10.8508C80.7209 8.40861 80.0792 5.89515 78.5283 3.95211L76.7992 1.81296C75.7118 0.47601 73.7509 0.0838331 72.2535 0.939485C70.7026 1.95557 69.3657 2.91818 68.0287 3.86296C63.2335 7.26774 58.6879 10.4764 48.7409 14.1308C48.3309 14.2912 39.3288 17.9812 34.1948 26.1812C33.3927 26.9833 24.6757 35.5399 11.3596 38.909C10.8605 39.0516 10.3614 39.1764 9.86224 39.2833L3.64092 40.7451C3.48049 40.7807 3.33788 40.8699 3.2131 40.9768C-1.04733 45.2372 -0.940376 54.7207 3.49832 64.5786C4.83527 67.5377 6.43963 70.1581 8.24006 72.3864C8.31136 72.4755 8.40049 72.5468 8.50745 72.6003C9.23832 72.9925 9.64832 73.2064 9.64832 73.2064C9.7731 73.2777 9.91571 73.3133 10.0583 73.3133L10.0761 73.2955Z" fill="black"/>
<path d="M55.8534 46.2712C56.2813 46.2712 56.7269 46.2355 57.1547 46.182C59.5256 45.8255 61.6113 44.4707 62.8769 42.4742C63.1978 41.9751 63.4652 41.4225 63.6791 40.8699C64.1782 39.5507 63.7682 38.0533 62.6808 37.1442C59.4365 34.4525 57.4043 31.9746 57.0834 30.3346C56.6021 27.8746 55.8891 26.6446 54.5521 24.9868C53.0013 23.0438 50.3273 22.4377 48.0813 23.5072L41.1113 26.8051C40.6656 27.019 40.4695 27.5538 40.6834 27.9994C40.8973 28.4451 41.4321 28.6233 41.8778 28.4272L48.8478 25.1294C50.363 24.4164 52.1278 24.8264 53.1617 26.1099C54.2134 27.429 54.8908 28.3916 55.3365 30.6912C55.8534 33.3472 59.0086 36.4312 61.5578 38.5346C62.0747 38.9625 62.253 39.6577 62.0213 40.2638C61.8608 40.7094 61.6469 41.1372 61.3795 41.5294C60.3634 43.1159 58.7769 44.1499 56.8873 44.4351C54.9443 44.7381 52.9478 44.1677 51.4326 42.8842C49.6678 41.3868 47.2613 38.8733 45.8886 35.3972C45.7104 34.9338 45.1934 34.7199 44.73 34.8981C44.2665 35.0764 44.0526 35.5933 44.2308 36.0568C45.746 39.8894 48.3665 42.6346 50.2917 44.2568C51.8604 45.5759 53.8391 46.289 55.8713 46.289L55.8534 46.2712Z" fill="black"/>
<path d="M60.7203 55.7369C61.1481 55.7369 61.6116 55.6834 62.0929 55.5942C68.9381 54.3286 75.4089 45.5047 75.4267 40.9056C75.4446 35.7538 66.282 22.4555 65.2481 20.9582C64.9985 20.5838 64.4993 20.4769 64.1071 20.6729C63.7149 20.869 63.519 21.3503 63.6794 21.7603C63.7151 21.8673 67.3159 31.939 67.9041 34.6308C68.5993 37.7325 64.4103 45.3264 57.9751 48.8382C55.8003 50.0147 53.0193 49.3908 51.6288 47.3764C50.5236 45.7721 50.0603 44.0429 50.2564 42.2603C50.3099 41.779 49.9533 41.3334 49.472 41.2799C48.9907 41.2264 48.5451 41.5829 48.4916 42.0642C48.2599 44.2925 48.8125 46.4316 50.1673 48.3925C51.5755 50.4603 53.9642 51.4764 56.3529 51.1912C56.4242 52.2073 56.7273 53.6512 57.779 54.6495C58.5455 55.3625 59.5438 55.719 60.756 55.719L60.7203 55.7369ZM67.7259 28.0529C70.6137 32.7412 73.6619 38.3742 73.6441 40.9056C73.6263 44.756 67.6367 52.7599 61.772 53.8473C60.5064 54.079 59.5616 53.9186 58.9733 53.366C58.2603 52.7064 58.0999 51.5299 58.082 50.7634C58.3316 50.6742 58.5633 50.5495 58.7951 50.4247C65.7115 46.6455 70.5246 38.3742 69.6155 34.2564C69.3481 33.0621 68.5459 30.5486 67.7081 28.0529H67.7259Z" fill="black"/>
<path d="M41.4853 50.1751C41.6457 50.1751 41.824 50.1216 41.9666 50.0325C48.3483 45.8612 48.5623 40.5134 48.5801 40.2995C48.5801 39.8003 48.2057 39.4081 47.7066 39.3903C47.2431 39.4438 46.8153 39.7647 46.7975 40.2638C46.7975 40.4599 46.5479 44.9342 41.004 48.5529C40.594 48.8203 40.4692 49.3729 40.7366 49.7829C40.9149 50.0503 41.2001 50.1929 41.4853 50.1929V50.1751Z" fill="black"/>
<path d="M45.8174 58.589C49.3826 58.589 52.9834 57.5551 55.8891 55.7012C56.6378 55.2199 57.44 54.7029 58.26 54.1682C58.67 53.9008 58.7948 53.3482 58.5095 52.9382C58.2421 52.5282 57.6895 52.4034 57.2795 52.6886C56.4595 53.2234 55.6752 53.7403 54.9087 54.2216C48.8656 58.0899 39.4713 58.0186 35.1395 51.7616C34.8543 51.3516 34.3017 51.2447 33.8917 51.5299C33.4817 51.8151 33.3926 52.3677 33.66 52.7777C36.4587 56.8242 41.0756 58.6247 45.7817 58.6247L45.8174 58.589Z" fill="black"/>
</svg>
