<svg width="69" height="70" viewBox="0 0 69 70" fill="none" xmlns="http://www.w3.org/2000/svg">
<path d="M17.3407 5.19362C15.5227 6.68962 13.8397 8.34063 12.2197 10.0476C11.9277 10.3546 11.6357 10.6626 11.3587 10.9816C10.7647 11.6626 10.2647 12.3746 9.81072 13.1616C9.34372 13.9726 8.95172 14.8256 8.54772 15.6686C7.70372 17.4356 6.72972 19.1386 5.93672 20.9286C5.57872 21.7376 5.28272 22.5736 4.99872 23.4086C4.63672 24.4766 4.29972 25.5566 4.01972 26.6496C3.53672 28.5186 3.28072 30.4476 3.09072 32.3656C2.97772 33.5136 2.88672 34.6676 2.88672 35.8226C2.88772 36.6976 2.96072 37.5716 3.04972 38.4406C3.39672 41.8466 4.15872 45.1726 5.35572 48.3796C6.00172 50.1146 6.66872 51.8506 7.50572 53.5036C8.00872 54.4976 8.55972 55.4496 9.21872 56.3476C9.88272 57.2466 10.6867 58.0416 11.4937 58.8106C12.8287 60.0856 14.1427 61.3986 15.6997 62.4066C17.4547 63.5406 19.2187 64.6436 21.1597 65.4356C22.9647 66.1716 24.8177 66.8476 26.7237 67.2746C28.6887 67.7156 30.7377 67.9086 32.7457 67.9946C34.4537 68.0686 36.1707 67.9836 37.8737 67.8666C38.7657 67.8036 39.6517 67.6826 40.5377 67.5616C41.4607 67.4346 42.3917 67.3256 43.3097 67.1566C45.0297 66.8406 46.7327 66.3756 48.4127 65.8966C49.0817 65.7056 49.7397 65.4766 50.4047 65.2746C50.9547 65.1066 51.5217 64.9806 52.0817 64.8546C52.7267 64.7086 53.3167 64.0456 53.5797 63.4756C53.8757 62.8386 53.9067 62.1016 53.6637 61.4406C53.4217 60.7816 52.9227 60.2376 52.2847 59.9426C52.0697 59.8736 51.8527 59.8046 51.6367 59.7366C51.1647 59.6536 50.7027 59.6946 50.2507 59.8576C49.0947 60.1196 47.9777 60.4726 46.8477 60.8226C45.6757 61.1836 44.4757 61.4946 43.2797 61.7726C42.3737 61.9486 41.4587 62.0686 40.5447 62.1946C39.5507 62.3336 38.5577 62.4706 37.5557 62.5516C35.9287 62.6836 34.2797 62.7516 32.6457 62.7016C30.5077 62.5626 28.3437 62.2806 26.2857 61.6806C25.1637 61.3066 24.0597 60.8846 22.9687 60.4286C21.6817 59.8906 20.4907 59.1796 19.3127 58.4446C18.8587 58.1566 18.4077 57.8626 17.9867 57.5296C17.5237 57.1636 17.0837 56.7696 16.6477 56.3696C15.8097 55.6056 14.9717 54.8286 14.1777 54.0176C13.4887 53.2216 12.9057 52.3606 12.3877 51.4456C11.5647 49.7756 10.9027 48.0316 10.2517 46.2886C9.71372 44.8476 9.27372 43.3746 8.91972 41.8786C8.69572 40.7716 8.54072 39.6536 8.40872 38.5316C8.26072 37.2776 8.16872 36.0186 8.19972 34.7576C8.39072 31.8636 8.81472 28.9666 9.64972 26.1856C10.2457 24.3766 10.9457 22.6296 11.8407 20.9406C12.3477 19.9856 12.8367 19.0236 13.3027 18.0496C13.7377 17.1376 14.1637 16.2156 14.6697 15.3396C15.2797 14.4936 16.0207 13.7476 16.7377 12.9926C17.4137 12.2806 18.1157 11.5976 18.8197 10.9126C19.3527 10.4426 19.8837 9.97165 20.4327 9.52065C20.9817 9.06965 21.3757 8.54265 21.5047 7.82665C21.6317 7.12465 21.4657 6.38862 21.0517 5.80962C20.6497 5.24762 20.0347 4.85862 19.3567 4.73662C18.7897 4.63462 18.1047 4.71865 17.5837 5.02065C17.4987 5.07365 17.4167 5.13062 17.3407 5.19362Z" fill="#E2FF5E"/>
<path d="M17.8371 42.0289C17.1961 43.1219 16.5541 44.2118 16.0691 45.3838C15.5451 46.6528 15.3301 47.9709 15.2201 49.3269C15.1181 50.5979 15.0671 51.8598 15.2231 53.1248C15.2781 53.5718 15.3741 54.0098 15.4351 54.4538C15.5301 55.1588 15.5031 55.9058 15.7711 56.5778C16.3081 57.9238 17.7941 58.6708 19.1851 58.1608C20.4691 57.6908 21.2471 56.2079 20.8211 54.8949C20.7981 54.6649 20.7851 54.4339 20.7601 54.2049C20.7191 53.8059 20.6361 53.4149 20.5731 53.0189C20.4481 52.2299 20.4111 51.4418 20.4311 50.6478C20.4921 49.6938 20.5851 48.7408 20.8261 47.8148C21.2951 46.5648 21.9891 45.4158 22.6641 44.2678C23.0031 43.6898 22.9701 42.8388 22.7491 42.2328C22.5071 41.5738 22.0071 41.0309 21.3701 40.7349C20.7341 40.4399 19.9951 40.4098 19.3361 40.6518C19.1251 40.7618 18.9151 40.8718 18.7051 40.9838C18.3241 41.2568 18.0351 41.6049 17.8371 42.0289Z" fill="#46A3BB"/>
<path d="M34.1765 33.5596C33.6055 34.3646 33.0675 35.2006 32.6135 36.0766C32.2205 36.8366 31.9705 37.6666 31.7535 38.4906C31.3465 40.0376 31.2795 41.6646 31.2155 43.2556C31.1665 44.4256 31.2625 45.5626 31.5115 46.7036C31.5695 46.9696 31.6255 47.2356 31.6835 47.5006C31.6835 47.5006 31.6835 47.5026 31.6845 47.5046C31.6855 47.5076 31.6865 47.5116 31.6865 47.5156C31.7115 47.6316 31.7375 47.7476 31.7635 47.8636C31.7645 47.8686 31.7655 47.8726 31.7665 47.8776C31.7905 47.9856 31.8145 48.0936 31.8385 48.2016C32.0035 48.6516 32.2715 49.0316 32.6405 49.3376C33.1725 49.7756 33.8685 49.9956 34.5545 49.9386C35.2655 49.8796 35.9345 49.5296 36.3875 48.9816C36.7785 48.5076 37.1265 47.6996 36.9885 47.0676C36.9725 46.9946 36.9565 46.9206 36.9405 46.8476C36.9215 46.6246 36.8735 46.4026 36.7955 46.1866C36.7165 45.8176 36.6425 45.4486 36.5935 45.0736C36.4955 44.3206 36.4945 43.5566 36.5215 42.7976C36.5975 41.5846 36.7425 40.3816 37.0575 39.2066C37.2905 38.6016 37.5835 38.0366 37.9115 37.4806C38.0335 37.3036 38.1545 37.1266 38.2785 36.9506C38.6905 36.3686 38.9405 35.7656 38.8795 35.0366C38.8215 34.3266 38.4725 33.6576 37.9225 33.2036C37.3915 32.7646 36.6965 32.5456 36.0085 32.6026C35.6235 32.6346 35.2045 32.7616 34.8425 32.9716C34.5785 33.1256 34.3455 33.3226 34.1765 33.5596Z" fill="#46A3BB"/>
<path d="M50.0817 26.4259C49.3357 27.2329 48.6407 28.0988 48.1907 29.1128C47.7857 30.0238 47.4997 31.0168 47.4467 32.0178C47.4157 32.5848 47.3887 33.1449 47.4057 33.7099C47.4207 34.2059 47.4797 34.7018 47.5307 35.1938C47.5697 35.5708 47.6036 35.9478 47.6656 36.3208C47.7156 36.6198 47.7837 36.9149 47.8527 37.2099C47.8607 37.2599 47.8677 37.3099 47.8727 37.3609C47.9167 37.7439 47.9827 38.1059 48.0847 38.4859C48.2597 39.1359 48.8727 39.7108 49.4637 39.9838C50.1007 40.2798 50.8377 40.3108 51.4977 40.0688C52.1587 39.8258 52.7017 39.3278 52.9957 38.6898C53.2317 38.1818 53.2687 37.6958 53.1947 37.1908C53.1997 37.2138 53.2047 37.2368 53.2097 37.2598C53.1567 36.8538 53.0877 36.4578 53.0047 36.0588C53.0217 36.1338 53.0377 36.2088 53.0537 36.2848C52.9257 35.7028 52.8707 35.1158 52.8107 34.5218C52.7507 33.9308 52.7067 33.3418 52.7057 32.7478C52.7397 32.3968 52.7946 32.0518 52.8746 31.7078C52.9846 31.4308 53.1107 31.1638 53.2537 30.9028C53.5407 30.5198 53.8587 30.1688 54.1847 29.8168C55.1687 28.7518 54.8997 26.9538 53.8287 26.0698C53.2977 25.6308 52.6027 25.4119 51.9147 25.4689C51.5157 25.5019 51.1587 25.6208 50.8377 25.8078C50.5617 25.9678 50.3107 26.1779 50.0817 26.4259Z" fill="#46A3BB"/>
<path d="M26.2282 20.0716C26.0402 20.1826 25.8722 20.3456 25.7102 20.4886C25.5162 20.6576 25.3352 20.8416 25.1532 21.0246C24.6602 21.5236 24.2782 22.1266 23.9702 22.7546C23.8362 23.0246 23.7262 23.3046 23.6252 23.5886C23.4892 23.9646 23.3432 24.3426 23.2492 24.7306C23.0702 25.4646 22.9212 26.1926 22.9012 26.9496C22.8822 27.7246 23.0142 28.4756 23.1822 29.2296C23.4952 30.6326 24.0872 31.9606 24.9142 33.1356C25.3632 33.7746 25.9572 34.3176 26.5672 34.7996C27.0982 35.2176 27.6982 35.5766 28.3242 35.8276C28.9262 36.0686 29.5612 36.1796 30.2012 36.2546C30.8432 36.3286 31.4892 36.3776 32.1362 36.3736C32.9812 36.3686 33.8012 36.0656 34.5542 35.7036C35.1462 35.4196 35.7242 35.0956 36.2922 34.7676C37.5142 34.0636 38.3112 32.8776 38.9822 31.6726C39.3032 31.0966 39.5032 30.4316 39.6222 29.7876C39.6972 29.3906 39.6912 28.9646 39.6952 28.5646C39.7002 28.2526 39.6912 27.9386 39.6712 27.6276C39.6222 26.8836 39.5272 26.1596 39.3542 25.4326C39.1802 24.7076 38.8322 24.0566 38.4802 23.4026C38.1902 22.8616 37.8182 22.3826 37.4092 21.9266C37.1592 21.6496 36.9032 21.3676 36.6212 21.1206C36.2932 20.8366 35.9272 20.6086 35.5592 20.3826C34.6762 19.8376 33.7152 19.4056 32.6832 19.2396C31.8022 19.0966 30.9002 19.0566 30.0152 19.1946C29.7492 19.2356 29.4872 19.2906 29.2262 19.3466C29.2632 19.3386 29.3002 19.3296 29.3372 19.3216C29.0142 19.3926 28.6952 19.4556 28.3632 19.4416C28.2212 19.4366 28.0832 19.4326 27.9422 19.4526C27.7512 19.4786 27.5582 19.5176 27.3762 19.5806C27.3322 19.5956 27.2882 19.6136 27.2452 19.6336C27.1462 19.6576 27.0472 19.6826 26.9492 19.7096C26.7912 19.7526 26.6422 19.8286 26.4992 19.9126C26.4042 19.9636 26.3152 20.0196 26.2282 20.0716ZM27.7772 22.2446C27.9892 22.2426 28.1992 22.1906 28.3872 22.0916C28.5172 22.0906 28.6472 22.0986 28.7792 22.0956C29.1192 22.0886 29.4692 21.9996 29.8022 21.9196C30.3442 21.8116 30.9022 21.7506 31.4542 21.7576C31.8982 21.7926 32.3482 21.8606 32.7782 21.9776C33.3242 22.1716 33.8332 22.4316 34.3312 22.7296C34.6802 22.9646 34.9942 23.2286 35.2902 23.5276C35.6792 23.9706 36.0162 24.4316 36.3072 24.9416C36.5172 25.3646 36.7012 25.7856 36.8262 26.2416C36.9932 27.1186 37.0452 28.0076 37.0392 28.9006C37.0142 29.2026 36.9722 29.4966 36.8952 29.7916C36.7312 30.2296 36.5232 30.6336 36.2832 31.0346C36.0362 31.4086 35.7752 31.7536 35.4692 32.0806C34.9982 32.4716 34.4692 32.7676 33.9292 33.0556C33.4582 33.2956 32.9832 33.5096 32.4782 33.6636C32.1702 33.7076 31.8672 33.7206 31.5522 33.7186C30.8642 33.6776 30.1622 33.6096 29.4982 33.4316C29.2022 33.3196 28.9232 33.1826 28.6502 33.0236C28.2282 32.7346 27.8402 32.4126 27.4682 32.0606C27.1222 31.6576 26.8252 31.2336 26.5512 30.7756C26.1962 30.0546 25.9212 29.3056 25.7282 28.5256C25.6282 27.9736 25.5532 27.4306 25.5512 26.8706C25.6122 26.2826 25.7272 25.6946 25.8902 25.1256C26.0962 24.5356 26.3202 23.9656 26.6262 23.4226C26.8452 23.1096 27.0932 22.8326 27.3632 22.5626C27.4972 22.4486 27.6322 22.3426 27.7772 22.2446Z" fill="white"/>
<path d="M32.6379 34.1338C32.1439 34.6108 31.6299 35.0788 31.1969 35.6138C30.7579 36.1558 30.4189 36.7728 30.1249 37.4028C29.8169 38.0638 29.5519 38.7668 29.4129 39.4838C29.2729 40.2188 29.2359 40.9738 29.2249 41.7218C29.2149 42.3678 29.2659 43.0178 29.3149 43.6608C29.3659 44.3378 29.4219 45.0148 29.4969 45.6888C29.5639 46.2888 29.6869 46.8798 29.8059 47.4698C29.9519 48.1868 30.0919 48.9038 30.2669 49.6138C30.3319 49.8768 30.4009 50.1368 30.4769 50.3968C30.5549 50.6618 30.6499 50.9018 30.7959 51.1438C30.8839 51.2898 30.9979 51.4238 31.1279 51.5348C31.3639 51.7378 31.5579 51.8038 31.8469 51.8928C32.2709 52.0258 32.7559 51.8888 33.1569 51.7298C33.4539 51.6118 33.7479 51.4828 34.0439 51.3598C35.3429 50.8118 36.5959 50.1518 37.8259 49.4678C38.9829 48.8238 40.1289 48.1558 41.2769 47.4988C42.4169 46.8458 43.5349 46.1688 44.6229 45.4308C45.6739 44.7178 46.7689 44.0798 47.8319 43.3888C48.2759 43.1008 48.7249 42.8248 49.1789 42.5538C49.3339 42.4618 49.4899 42.3718 49.6419 42.2768C50.1939 41.9328 50.5319 41.3518 50.4849 40.6918C50.4349 39.9758 50.0789 39.3378 49.7519 38.7178C49.4999 38.2428 49.1989 37.8058 48.8729 37.3768C47.9799 36.2078 46.9459 35.1788 45.8029 34.2538C44.0469 32.8298 41.8629 32.0888 39.6189 31.9798C38.8879 31.9438 38.1429 31.9128 37.4209 32.0518C37.0879 32.1178 36.7719 32.2118 36.4449 32.2898C36.2279 32.3418 36.0269 32.4188 35.8169 32.4908C35.1309 32.7278 34.7779 33.5258 35.0259 34.1978C35.2789 34.8888 36.0469 35.2258 36.7329 34.9888C37.0439 34.8808 37.3549 34.7788 37.6749 34.6978C38.2139 34.6008 38.7659 34.5878 39.3129 34.6068C40.1559 34.6598 40.9789 34.7968 41.7899 35.0328C42.3509 35.2318 42.8949 35.4868 43.4089 35.7878C44.3069 36.3908 45.1309 37.1308 45.8799 37.9098C46.4939 38.5918 47.0659 39.3308 47.5149 40.1338C47.5569 40.2168 47.5979 40.2998 47.6359 40.3838C47.5119 40.4578 47.3879 40.5318 47.2649 40.6068C46.7549 40.9148 46.2569 41.2428 45.7549 41.5638C45.2459 41.8878 44.7269 42.1948 44.2139 42.5148C43.6629 42.8608 43.1279 43.2318 42.5869 43.5928C41.5019 44.3168 40.3739 44.9648 39.2419 45.6108C38.0569 46.2878 36.8799 46.9808 35.6809 47.6298C35.5869 47.6818 35.4919 47.7318 35.3979 47.7818C34.8249 48.0778 34.2479 48.3628 33.6619 48.6298C33.3869 48.7558 33.1059 48.8708 32.8269 48.9868C32.7779 48.7858 32.7349 48.5828 32.6919 48.3848C32.7059 48.4468 32.7189 48.5088 32.7329 48.5698C32.4769 47.3708 32.2179 46.1758 32.0949 44.9548C31.9699 43.7198 31.8509 42.4608 31.8849 41.2178C31.9239 40.6108 32.0029 40.0198 32.1659 39.4328C32.3789 38.8228 32.6509 38.2318 32.9749 37.6728C33.4569 36.9818 34.0869 36.4108 34.6889 35.8278C34.9239 35.6028 35.0159 35.1818 34.9899 34.8708C34.9609 34.5168 34.7859 34.1818 34.5119 33.9548C34.2449 33.7348 33.8989 33.6258 33.5549 33.6538C33.3549 33.6708 33.1899 33.7278 33.0389 33.8158C32.8969 33.8988 32.7689 34.0078 32.6379 34.1338Z" fill="white"/>
<path d="M28.0387 28.9249C27.9747 29.2759 28.0577 29.6449 28.2657 29.9349C28.4657 30.2149 28.7727 30.4099 29.1117 30.4699C29.4887 30.5379 29.8007 30.4289 30.1217 30.2429C30.4057 30.0779 30.6017 29.7089 30.6577 29.3969C30.7217 29.0459 30.6387 28.6769 30.4307 28.3869C30.2307 28.1069 29.9237 27.9119 29.5847 27.8509C29.2077 27.7829 28.8957 27.8919 28.5747 28.0779C28.2907 28.2439 28.0947 28.6129 28.0387 28.9249Z" fill="white"/>
<path d="M32.3483 27.0489C32.2843 27.3999 32.3673 27.7689 32.5753 28.0589C32.7753 28.3389 33.0823 28.5339 33.4213 28.5949C33.7983 28.6629 34.1103 28.5539 34.4313 28.3679C34.7153 28.2029 34.9113 27.8339 34.9663 27.5219C35.0303 27.1709 34.9473 26.8019 34.7393 26.5119C34.5393 26.2319 34.2323 26.0369 33.8933 25.9759C33.5163 25.9079 33.2043 26.0169 32.8833 26.2029C32.6003 26.3679 32.4043 26.7369 32.3483 27.0489Z" fill="white"/>
<path d="M13.5909 31.2379C12.9409 31.7779 12.2499 32.3059 11.6799 32.9319C11.3669 33.2749 11.0699 33.686 10.8859 34.11C10.7179 34.496 10.5949 34.8979 10.4799 35.3029C10.2669 36.0429 10.2009 36.807 10.2159 37.576C10.2299 38.304 10.3949 39.027 10.6049 39.723C10.8139 40.412 11.1469 41.101 11.5469 41.696C11.7599 42.012 12.0219 42.3099 12.3009 42.5659C12.6269 42.8679 12.9929 43.0949 13.3699 43.3289C13.8739 43.6419 14.4269 43.881 14.9819 44.093C15.3639 44.239 15.7599 44.3589 16.1549 44.4609C16.6469 44.5869 17.1519 44.612 17.6589 44.58C18.3569 44.537 19.0359 44.2969 19.6719 44.0169C20.1159 43.8209 20.5489 43.5989 20.9659 43.3499C21.5009 43.0289 21.9729 42.55 22.4169 42.115C22.6249 41.912 22.7879 41.6829 22.9379 41.4349C23.1349 41.1119 23.2399 40.755 23.3519 40.395C23.4579 40.057 23.5659 39.7219 23.6409 39.3759C23.7909 38.6849 23.8089 37.9529 23.7579 37.2499C23.7199 36.7279 23.6659 36.222 23.5479 35.71C23.4669 35.357 23.3579 35.015 23.2389 34.674C23.0059 34.009 22.6469 33.3959 22.1949 32.8539C21.7019 32.2649 21.1689 31.728 20.5239 31.305C20.1699 31.074 19.8209 30.86 19.4359 30.687C19.0949 30.535 18.7149 30.4359 18.3489 30.3579C17.3039 30.1339 16.2449 30.5209 15.2469 30.8019C15.0209 30.8649 14.7959 30.929 14.5759 31.007C14.2899 30.953 13.9889 30.9869 13.7369 31.1339C13.6859 31.1649 13.6369 31.1989 13.5909 31.2379ZM14.7139 33.757C14.8459 33.751 14.9739 33.724 15.0869 33.671C15.3249 33.561 15.5699 33.4799 15.8209 33.4009C16.3039 33.2519 16.7959 33.1209 17.2859 32.9969C17.4209 32.9739 17.5549 32.959 17.6919 32.954C17.8629 32.977 18.0289 33.0119 18.1939 33.0569C18.4199 33.1479 18.6339 33.2519 18.8449 33.3719C19.1779 33.5989 19.4899 33.841 19.7809 34.123C20.0639 34.44 20.3299 34.767 20.5509 35.131C20.7359 35.539 20.8819 35.9669 20.9949 36.4019C21.0979 36.9869 21.1259 37.589 21.1229 38.184C21.0939 38.465 21.0559 38.7409 20.9969 39.0179C20.9269 39.3379 20.8189 39.6499 20.7219 39.9619C20.7549 39.8529 20.7899 39.746 20.8239 39.637C20.7659 39.807 20.7049 39.97 20.6279 40.128C20.5189 40.259 20.4049 40.381 20.2849 40.502C19.9489 40.799 19.6049 41.077 19.2169 41.305C18.7469 41.54 18.2629 41.7519 17.7579 41.8919C17.5539 41.9209 17.3509 41.938 17.1449 41.943C16.8849 41.906 16.6319 41.8479 16.3799 41.7769C15.7209 41.5499 15.0909 41.2679 14.4899 40.9149C14.3039 40.7799 14.1299 40.639 13.9649 40.482C13.8089 40.286 13.6659 40.0859 13.5349 39.8719C13.2979 39.3839 13.1149 38.882 12.9769 38.356C12.9009 37.93 12.8649 37.508 12.8659 37.075C12.9059 36.601 12.9979 36.145 13.1239 35.683C13.1969 35.477 13.2759 35.277 13.3739 35.081C13.5479 34.838 13.7409 34.6179 13.9519 34.4059C14.2049 34.1869 14.4589 33.971 14.7139 33.757Z" fill="white"/>
<path d="M18.0134 41.729C17.7544 41.921 17.4944 42.11 17.2414 42.309C16.8474 42.618 16.5354 42.986 16.2304 43.378C16.0324 43.634 15.8574 43.91 15.6774 44.179C15.4514 44.521 15.2284 44.875 15.0424 45.242C14.7004 45.919 14.4484 46.632 14.2354 47.36C14.0474 48 13.9144 48.643 13.8554 49.305C13.7374 50.64 13.6954 51.971 13.9264 53.294C14.1524 54.583 14.5604 55.857 15.0034 57.086C15.1214 57.414 15.2504 57.736 15.3874 58.056C15.5194 58.366 15.6584 58.724 15.8544 58.994C16.1744 59.437 16.7714 59.696 17.3134 59.579C17.5874 59.521 17.8134 59.464 18.0604 59.343C18.4414 59.156 18.8114 58.947 19.1854 58.746C20.5484 58.048 21.8804 57.306 23.2004 56.527C23.8664 56.136 24.5314 55.744 25.1984 55.356C25.8104 55.001 26.4164 54.632 27.0374 54.292C27.3284 54.146 27.6264 54.013 27.9194 53.869C28.2234 53.721 28.5214 53.5611 28.8184 53.4001C29.4324 53.0901 30.0774 52.842 30.7224 52.605C30.9544 52.52 31.1984 52.48 31.4294 52.394C31.8184 52.249 32.2274 52.0801 32.5764 51.8571C33.1854 51.4661 33.2894 50.568 32.8854 50.001C32.4564 49.399 31.6664 49.304 31.0594 49.672C30.8544 49.767 30.6444 49.8541 30.4324 49.9261C30.1584 50.0181 29.8774 50.078 29.6054 50.183C29.2384 50.325 28.8694 50.454 28.5144 50.625C28.3404 50.709 28.1604 50.781 27.9834 50.864C27.7344 50.978 27.4944 51.1141 27.2514 51.2451C26.5474 51.6061 25.8274 51.929 25.1404 52.326C24.4184 52.745 23.6984 53.163 22.9794 53.583C21.5934 54.392 20.2234 55.227 18.8074 55.981C18.4234 56.18 18.0394 56.38 17.6564 56.581C17.5574 56.324 17.4644 56.065 17.3734 55.805C17.0984 55.009 16.8374 54.196 16.6394 53.377C16.5474 52.92 16.4784 52.46 16.4394 51.996C16.3964 51.502 16.4044 51.006 16.4214 50.512C16.4474 50.065 16.4844 49.62 16.5464 49.177C16.6144 48.685 16.7474 48.204 16.8854 47.727C17.1184 47.067 17.4014 46.436 17.7584 45.834C18.0594 45.378 18.3674 44.923 18.7374 44.519C19.0034 44.301 19.2844 44.099 19.5614 43.895C20.1424 43.465 20.2974 42.637 19.8704 42.039C19.4814 41.493 18.7044 41.32 18.1294 41.654C18.0884 41.677 18.0504 41.702 18.0134 41.729Z" fill="white"/>
<path d="M20.5954 40.8898C20.6554 41.6148 21.3074 42.1618 22.0304 42.1068C22.4684 42.0728 22.9094 42.0298 23.3494 42.0278C23.6004 42.0558 23.8474 42.1087 24.0974 42.1417C24.3224 42.1727 24.5494 42.1777 24.7754 42.1947C25.1954 42.2277 25.6254 42.2498 26.0354 42.3518C26.4484 42.5028 26.8464 42.6938 27.2484 42.8698C27.6404 43.0418 28.0274 43.2268 28.3964 43.4428C28.5694 43.5588 28.7404 43.6788 28.9144 43.7918C29.2184 43.9898 29.4964 44.1238 29.8714 44.0928C30.2254 44.0638 30.5594 43.8888 30.7874 43.6148C31.0074 43.3488 31.1164 43.0018 31.0884 42.6578C31.0614 42.3358 30.8914 41.9257 30.6094 41.7407C30.2924 41.5347 29.9854 41.3188 29.6644 41.1198C29.3554 40.9278 29.0354 40.7667 28.7084 40.6117C27.9624 40.2577 27.1824 39.8808 26.3754 39.6998C25.8314 39.5778 25.2544 39.5928 24.7004 39.5408C24.2284 39.4938 23.7774 39.3878 23.3004 39.3778C22.8034 39.3678 22.3054 39.4178 21.8114 39.4558C21.6134 39.4708 21.4274 39.5318 21.2644 39.6268C20.8314 39.8768 20.5514 40.3678 20.5954 40.8898Z" fill="white"/>
<path d="M49.4266 25.7101C48.3456 26.4421 47.4306 27.4211 46.6486 28.4581C45.9406 29.3971 45.4836 30.4801 45.1646 31.6051C45.0086 32.1521 44.9446 32.7351 44.8896 33.2991C44.8216 33.9861 44.8366 34.6701 44.8866 35.3571C44.9386 36.0801 45.6046 36.6331 46.3216 36.5741C47.0486 36.5141 47.5906 35.8621 47.5386 35.1391C47.5096 34.7431 47.4926 34.3511 47.4966 33.9561C47.5446 33.2931 47.6306 32.6261 47.8096 31.9861C47.9926 31.4501 48.2196 30.9251 48.5026 30.4331C48.9776 29.7511 49.5146 29.1301 50.1086 28.5501C50.4986 28.2051 50.9176 27.8941 51.3636 27.6241C51.6376 27.4921 51.9246 27.3741 52.2146 27.2881C52.4586 27.2501 52.7056 27.2321 52.9506 27.2031C53.4076 27.1481 53.8596 27.1031 54.3196 27.1121C54.7836 27.1371 55.2536 27.1691 55.7036 27.2841C56.3376 27.5101 56.9466 27.7801 57.5206 28.1351C57.7136 28.2571 57.9076 28.3781 58.1016 28.5001C58.6516 28.8611 59.1526 29.2981 59.6736 29.7001C60.1406 30.0591 60.5976 30.4511 61.0146 30.8691C61.2726 31.1691 61.5016 31.4961 61.7366 31.8141C61.7596 31.8461 61.7836 31.8771 61.8086 31.9091C61.5096 32.1191 61.1986 32.3131 60.8876 32.5081C60.3316 32.8571 59.7726 33.2051 59.2216 33.5621C58.0866 34.3011 56.9486 35.0351 55.7966 35.7441C55.2216 36.0981 54.6606 36.4751 54.0906 36.8351C53.5546 37.1721 53.0126 37.4951 52.4696 37.8201C51.9626 38.1241 51.4556 38.4241 50.9456 38.7231C50.5066 38.9791 50.0726 39.2491 49.6256 39.4941C49.5346 39.5411 49.4426 39.5861 49.3476 39.6221C49.0736 39.6931 48.8326 39.8281 48.6436 40.0591C48.4236 40.3241 48.3146 40.6721 48.3416 41.0151C48.3996 41.7061 49.0586 42.3341 49.7776 42.2331C50.4366 42.1391 51.0106 41.7511 51.5766 41.4231C52.0816 41.1301 52.5866 40.8351 53.0906 40.5381C54.1976 39.8841 55.3016 39.2241 56.3806 38.5251C57.5126 37.7931 58.6556 37.0761 59.7916 36.3521C60.3916 35.9691 60.9876 35.5821 61.5886 35.2001C62.1436 34.8461 62.7096 34.5121 63.2576 34.1441C63.4216 34.0331 63.5816 33.9151 63.7406 33.7951C64.0146 33.5861 64.2986 33.3411 64.5106 33.0721C64.8426 32.6511 64.9816 32.0711 64.7916 31.5561C64.7066 31.3241 64.5776 31.1401 64.4306 30.9521C63.9956 30.3981 63.6026 29.8021 63.1386 29.2711C62.5716 28.6221 61.8956 28.0461 61.2076 27.5261C60.8856 27.2821 60.5776 27.0231 60.2596 26.7771C59.9056 26.5031 59.5226 26.2741 59.1436 26.0391C58.6346 25.7141 58.1276 25.3931 57.5666 25.1621C57.0146 24.9351 56.4486 24.7001 55.8586 24.5941C55.5816 24.5451 55.2926 24.5361 55.0146 24.5141C54.6156 24.4831 54.2156 24.4561 53.8166 24.4571C53.3606 24.4591 52.9076 24.5361 52.4556 24.5821C51.9606 24.6341 51.4736 24.7121 51.0066 24.8961C50.6036 25.0531 50.2156 25.2341 49.8436 25.4501C49.7016 25.5301 49.5626 25.6171 49.4266 25.7101ZM49.4646 39.5791C49.4496 39.5861 49.4346 39.5951 49.4176 39.6021C49.4646 39.5771 49.5126 39.5521 49.5596 39.5271C49.5286 39.5451 49.4966 39.5621 49.4646 39.5791Z" fill="white"/>
<path d="M42.4672 16.6147C41.9372 17.1237 41.5202 17.7037 41.1362 18.3297C40.7682 18.9297 40.4762 19.6067 40.3902 20.3107C40.2932 21.1067 40.3622 21.8697 40.5952 22.6377C40.7982 23.3077 41.1112 23.9777 41.4582 24.5827C41.6402 24.9027 41.8342 25.2107 42.0422 25.5157C42.3272 25.9307 42.6902 26.2947 43.0332 26.6607C43.4402 27.0957 43.9622 27.3837 44.4892 27.6497C44.8522 27.8317 45.2652 27.9637 45.6552 28.0677C46.4212 28.2727 47.2632 28.3017 48.0522 28.2997C48.5102 28.2997 48.9992 28.2247 49.4262 28.0657C49.7312 27.9527 50.0282 27.8127 50.3262 27.6847C50.6162 27.5597 50.8552 27.3797 51.0142 27.1137C51.2562 26.9057 51.4862 26.6847 51.7292 26.4797C52.1432 26.1277 52.5802 25.8227 52.9342 25.4027C53.2572 25.0217 53.5462 24.5737 53.7862 24.1377C54.0132 23.7267 54.1362 23.2497 54.1752 22.7847C54.2862 21.4677 54.0822 20.1247 53.5942 18.8987C53.1252 17.7167 52.3732 16.6937 51.4832 15.7957C50.3882 14.6907 48.7652 14.4277 47.2762 14.3897C46.7342 14.3757 46.1622 14.5057 45.6462 14.6537C45.1432 14.7977 44.6772 15.0757 44.2182 15.3187C44.1452 15.3577 44.0732 15.3977 44.0012 15.4387C43.4432 15.7637 42.9342 16.1697 42.4672 16.6147ZM45.8352 17.4507C46.1152 17.3207 46.3952 17.2027 46.6912 17.1177C46.9882 17.0687 47.2832 17.0457 47.5832 17.0447C48.0572 17.0857 48.5212 17.1747 48.9822 17.2957C49.0872 17.3367 49.1892 17.3827 49.2902 17.4347C49.4912 17.5787 49.6762 17.7367 49.8542 17.9107C50.2372 18.3437 50.5812 18.8117 50.8712 19.3127C51.1032 19.7897 51.2892 20.2797 51.4222 20.7937C51.5132 21.3127 51.5542 21.8437 51.5512 22.3707C51.5382 22.5057 51.5192 22.6377 51.4902 22.7707C51.4432 22.8827 51.3902 22.9907 51.3302 23.0957C51.1452 23.3727 50.9512 23.6447 50.7232 23.8877C50.4832 24.0907 50.2272 24.2727 49.9912 24.4817C49.7492 24.6947 49.5172 24.9187 49.2632 25.1187C49.1722 25.1907 49.0912 25.2727 49.0202 25.3597C48.8172 25.4497 48.6132 25.5367 48.4022 25.6017C48.1112 25.6397 47.8232 25.6497 47.5292 25.6437C47.0722 25.6147 46.6192 25.5697 46.1722 25.4607C45.8302 25.3387 45.5002 25.1917 45.1832 25.0127C45.0272 24.8967 44.8862 24.7667 44.7502 24.6287C44.3432 24.1627 43.9952 23.6727 43.6842 23.1397C43.4362 22.6387 43.2052 22.1197 43.0552 21.5807C43.0232 21.3637 43.0032 21.1487 42.9992 20.9287C43.0182 20.7337 43.0492 20.5437 43.0962 20.3527C43.2132 20.0567 43.3592 19.7757 43.5212 19.5017C43.7832 19.1267 44.0602 18.7747 44.3802 18.4487C44.8332 18.0637 45.3172 17.7397 45.8352 17.4507ZM44.5872 24.4597C44.6052 24.4787 44.6222 24.4967 44.6402 24.5157C44.6222 24.4977 44.6042 24.4787 44.5872 24.4597Z" fill="white"/>
<path d="M14.5104 38.6588C14.4464 39.0098 14.5294 39.3788 14.7374 39.6688C14.9374 39.9488 15.2444 40.1438 15.5834 40.2038C15.9614 40.2718 16.2724 40.1628 16.5934 39.9768C16.8774 39.8118 17.0734 39.4428 17.1294 39.1308C17.1934 38.7798 17.1094 38.4108 16.9024 38.1208C16.7024 37.8408 16.3954 37.6458 16.0564 37.5848C15.6794 37.5168 15.3674 37.6258 15.0464 37.8118C14.7624 37.9768 14.5664 38.3468 14.5104 38.6588Z" fill="white"/>
<path d="M17.6051 37.0768C17.5411 37.4278 17.6241 37.7967 17.8321 38.0867C18.0321 38.3667 18.3391 38.5618 18.6781 38.6228C19.0551 38.6908 19.3671 38.5818 19.6881 38.3958C19.9721 38.2308 20.1681 37.8618 20.2231 37.5498C20.2871 37.1988 20.2041 36.8297 19.9961 36.5397C19.7961 36.2597 19.4891 36.0647 19.1501 36.0047C18.7731 35.9367 18.4611 36.0458 18.1401 36.2318C17.8571 36.3948 17.6611 36.7648 17.6051 37.0768Z" fill="white"/>
<path d="M44.1745 22.589C44.1105 22.94 44.1934 23.309 44.4014 23.599C44.6014 23.879 44.9084 24.074 45.2474 24.134C45.6244 24.202 45.9365 24.093 46.2575 23.907C46.5415 23.742 46.7375 23.373 46.7925 23.061C46.8565 22.71 46.7735 22.341 46.5655 22.051C46.3655 21.771 46.0584 21.576 45.7194 21.515C45.3424 21.447 45.0305 21.556 44.7095 21.742C44.4265 21.908 44.2305 22.277 44.1745 22.589Z" fill="white"/>
<path d="M47.6862 20.6568C47.6222 21.0078 47.7052 21.3768 47.9132 21.6668C48.1132 21.9468 48.4202 22.1418 48.7592 22.2028C49.1362 22.2708 49.4482 22.1618 49.7692 21.9758C50.0532 21.8108 50.2492 21.4418 50.3042 21.1298C50.3682 20.7788 50.2852 20.4098 50.0772 20.1198C49.8772 19.8398 49.5702 19.6448 49.2312 19.5848C48.8542 19.5168 48.5422 19.6258 48.2212 19.8118C47.9382 19.9748 47.7422 20.3438 47.6862 20.6568Z" fill="white"/>
<path d="M16.3585 5.81188C16.3115 5.83588 16.2655 5.86289 16.2195 5.89089C15.6875 6.22389 15.1645 6.57087 14.6525 6.93087C14.0605 7.34487 13.4805 7.77687 12.9145 8.22887C10.9575 9.78987 9.17647 11.5819 7.60247 13.5259C7.58747 13.5439 7.57347 13.5629 7.55947 13.5819C7.52047 13.6309 7.48047 13.6799 7.44147 13.7289C4.87147 16.9569 2.91647 20.6759 1.66347 24.6009C1.01447 26.6339 0.546469 28.7079 0.273469 30.8239C0.00546882 32.9039 -0.0575307 35.0169 0.0494693 37.1099C0.257469 41.1999 1.26247 45.2689 2.90947 49.0129C3.75147 50.9279 4.78047 52.7679 5.94447 54.5039C7.12147 56.2569 8.48647 57.8709 9.95747 59.3829C12.7945 62.2999 16.2145 64.6529 19.8895 66.3809C23.5925 68.1219 27.6375 69.1709 31.7125 69.5019C33.8025 69.6729 35.9045 69.6529 37.9915 69.4489C40.0335 69.2479 42.0605 68.8319 44.0345 68.2759C48.0815 67.1369 51.9155 65.1709 55.2745 62.6529C58.5705 60.1799 61.3985 57.0849 63.5955 53.6009C64.7135 51.8279 65.6715 49.9729 66.4575 48.0309C67.2285 46.1209 67.8175 44.1299 68.2445 42.1179C69.0845 38.1489 69.1775 34.0019 68.5805 29.9929C68.2675 27.8949 67.7445 25.8209 67.0565 23.8159C66.3555 21.7769 65.4265 19.8249 64.3655 17.9499C62.3215 14.3319 59.5545 11.1149 56.3525 8.47188C53.2205 5.88788 49.5935 3.88988 45.7595 2.56588C43.7985 1.88988 41.7865 1.38887 39.7375 1.06487C37.6885 0.73987 35.5985 0.626881 33.5245 0.669881C30.9535 0.720881 28.4085 1.11787 25.9155 1.73787C23.5025 2.33587 21.1685 3.23689 18.9505 4.36089C18.3405 4.66989 17.7395 4.99588 17.1495 5.33788C16.8845 5.49288 16.6205 5.65088 16.3585 5.81188ZM19.5795 7.00887C22.1305 5.68487 24.8275 4.68989 27.6285 4.04589C30.4065 3.45989 33.2375 3.22787 36.0755 3.34887C38.8185 3.51387 41.5245 4.00589 44.1505 4.81789C46.7295 5.66389 49.1895 6.80688 51.4975 8.23488C53.7775 9.69988 55.8645 11.4269 57.7345 13.3919C59.6535 15.4839 61.2955 17.7999 62.6435 20.2969C63.9345 22.7969 64.9095 25.4339 65.5495 28.1739C66.1455 30.9489 66.3875 33.7739 66.2785 36.6089C66.1235 39.3939 65.6295 42.1379 64.8065 44.8019C63.9715 47.3509 62.8475 49.7819 61.4435 52.0669C59.9735 54.3689 58.2395 56.4779 56.2625 58.3639C54.1625 60.2959 51.8375 61.9479 49.3265 63.3029C46.8235 64.5959 44.1805 65.5729 41.4375 66.2129C38.6425 66.8119 35.7935 67.0529 32.9375 66.9359C30.1995 66.7749 27.5015 66.2889 24.8805 65.4859C22.2825 64.6399 19.8045 63.4939 17.4795 62.0559C15.2025 60.5949 13.1165 58.8729 11.2505 56.9139C9.30147 54.7939 7.63847 52.4439 6.27947 49.9069C5.00647 47.4259 4.04447 44.8099 3.41047 42.0939C2.81347 39.3019 2.57147 36.4599 2.68847 33.6079C2.84747 30.8689 3.33347 28.1709 4.13647 25.5479C4.98247 22.9459 6.13147 20.4649 7.56847 18.1379C8.77447 16.2609 10.1555 14.5129 11.7005 12.9129C12.0385 12.5639 12.3835 12.2219 12.7365 11.8869C14.8095 9.98089 17.1035 8.35087 19.5795 7.00887ZM7.71047 17.9069C7.68147 17.9539 7.65147 18.0009 7.62247 18.0479C7.65147 18.0009 7.68047 17.9539 7.71047 17.9069ZM11.3125 56.9819C11.3345 57.0059 11.3565 57.0289 11.3785 57.0529C11.3565 57.0289 11.3345 57.0049 11.3125 56.9819Z" fill="white"/>
<path d="M17.6318 6.5357C17.4968 6.8287 17.4448 7.2517 17.5898 7.5537C18.1828 8.7827 18.7768 10.0077 19.5398 11.1407C19.9458 11.7407 20.8188 11.8627 21.3968 11.4507C21.9988 11.0207 22.1118 10.1947 21.7068 9.59371C21.3898 9.12471 21.0998 8.6437 20.8288 8.1477C20.5758 7.6477 20.3318 7.14369 20.0888 6.63869C19.9288 6.30769 19.7438 6.0497 19.3998 5.8897C19.0808 5.7417 18.7108 5.7257 18.3818 5.8467C18.3098 5.8737 18.2398 5.90569 18.1738 5.94469C17.9378 6.08169 17.7478 6.2877 17.6318 6.5357Z" fill="white"/>
<path d="M4.92035 51.1439C5.04135 51.4739 5.28935 51.7449 5.60835 51.8929C5.94435 52.0479 6.27835 52.0359 6.62535 51.9359C7.70135 51.6209 8.82735 51.2869 9.76335 50.6489C10.3604 50.2409 10.4854 49.3729 10.0724 48.7929C9.64535 48.1929 8.81535 48.0749 8.21735 48.4819C8.15935 48.5219 8.10235 48.5589 8.04435 48.5949C7.75335 48.7319 7.45735 48.8589 7.15835 48.9759C6.68735 49.1599 6.19635 49.2939 5.71235 49.4359C5.62735 49.4609 5.54735 49.4959 5.47235 49.5389C4.94135 49.8469 4.71135 50.5769 4.92035 51.1439Z" fill="white"/>
<path d="M47.811 56.756C47.677 57.043 47.618 57.477 47.768 57.773C48.208 58.641 48.687 59.485 49.145 60.342C49.365 60.767 49.583 61.192 49.807 61.614C50.001 61.977 50.189 62.347 50.417 62.688C50.819 63.292 51.698 63.409 52.274 62.998C52.877 62.567 52.986 61.746 52.584 61.141C52.299 60.716 52.07 60.249 51.832 59.797C51.888 59.902 51.942 60.008 51.998 60.113C51.733 59.609 51.479 59.101 51.206 58.6C51 58.228 50.789 57.858 50.587 57.484C50.48 57.276 50.373 57.067 50.267 56.857C50.212 56.751 50.157 56.646 50.101 56.541C49.965 56.351 49.79 56.206 49.578 56.108C49.259 55.96 48.891 55.944 48.56 56.065C48.488 56.092 48.418 56.124 48.352 56.162C48.116 56.3 47.926 56.507 47.811 56.756Z" fill="white"/>
<path d="M58.3101 19.7807C58.2461 20.1297 58.3301 20.4987 58.5361 20.7887C58.7361 21.0687 59.0441 21.2627 59.3841 21.3247C59.7601 21.3927 60.0711 21.2847 60.3931 21.0987C60.4931 21.0407 60.5921 20.9827 60.6921 20.9257C61.3421 20.6117 61.9981 20.3067 62.6421 19.9817C62.9731 19.8157 63.2301 19.6407 63.3921 19.2927C63.5401 18.9737 63.5551 18.6057 63.4331 18.2747C63.3121 17.9447 63.0621 17.6747 62.7451 17.5257C62.4571 17.3927 62.0251 17.3347 61.7261 17.4827C60.7661 17.9677 59.7761 18.3907 58.8451 18.9307C58.5611 19.0977 58.3661 19.4667 58.3101 19.7807Z" fill="white"/>
<path d="M25.9384 21.8687C25.7444 22.0527 25.6254 22.4107 25.5484 22.6857C25.3874 22.6817 25.2244 22.7066 25.0714 22.7626C24.3724 23.0186 24.0544 23.7797 24.2794 24.4687C24.4274 24.9217 24.5714 25.3747 24.7404 25.8197C24.8394 26.0847 24.9764 26.3386 25.1194 26.5816C25.3184 26.9156 25.6324 27.1427 25.9574 27.3367C26.1864 27.4737 26.4544 27.4687 26.7084 27.4747C27.1944 27.4837 27.6314 27.0857 27.8404 26.6897C28.0194 26.3527 28.0174 25.9536 28.0254 25.5816C28.0284 25.4976 28.0294 25.4127 28.0304 25.3277C28.1964 25.4447 28.3774 25.5446 28.5664 25.6076C28.8754 25.7116 28.9844 25.7397 29.3184 25.7357C29.6584 25.7327 30.0704 25.5016 30.2694 25.2406C30.4494 25.0036 30.5154 24.8097 30.5994 24.5287C30.6074 24.4037 30.6144 24.2796 30.6204 24.1546C30.7164 24.2016 30.8144 24.2467 30.9144 24.2867C31.1474 24.3797 31.3874 24.4537 31.6274 24.5267C31.9564 24.6257 32.2864 24.6026 32.6144 24.4996C33.2884 24.2886 33.5954 23.5687 33.5824 22.9167C33.5764 22.6547 33.5054 22.3847 33.4464 22.1337C33.3734 21.8247 33.2784 21.5217 33.1994 21.2167C33.1144 20.8917 32.8044 20.6037 32.5104 20.4667C32.1914 20.3187 31.8224 20.3047 31.4924 20.4257C31.1614 20.5457 30.8914 20.7947 30.7434 21.1147C30.7284 21.1467 30.7144 21.1797 30.7034 21.2117C30.5374 21.1387 30.3664 21.0767 30.1844 21.0377C29.6854 20.9327 29.0894 20.9697 28.6644 21.2807C28.4754 21.4207 28.3094 21.5847 28.1894 21.7857C28.0634 21.6797 27.9284 21.5847 27.7744 21.5077C27.5064 21.3737 27.2264 21.3237 26.9274 21.3367C26.7294 21.3457 26.5624 21.4047 26.4114 21.4917C26.2374 21.5927 26.0884 21.7267 25.9384 21.8687Z" fill="white"/>
<path d="M11.1303 34.3279C10.9973 34.6139 10.9363 35.0499 11.0883 35.3449C11.2433 35.6479 11.3983 35.9509 11.5553 36.2529C11.8263 36.7789 12.0593 37.3799 12.6443 37.6309C12.8573 37.7289 13.0803 37.7699 13.3133 37.7509C13.6413 37.7239 14.0383 37.5539 14.2303 37.2719C14.2463 37.2469 14.2633 37.2219 14.2803 37.1959C14.4273 37.0169 14.5213 36.8129 14.5643 36.5849C14.6023 36.4549 14.6293 36.3319 14.6523 36.2009C14.7143 36.2319 14.7763 36.2599 14.8393 36.2859C15.1853 36.4269 15.5573 36.4699 15.9153 36.3379C16.2663 36.2099 16.5523 35.9409 16.7183 35.6099C16.8573 35.3349 16.9173 35.0309 16.9563 34.7269C16.9593 34.7049 16.9623 34.6829 16.9653 34.6599C17.1203 34.7149 17.2723 34.7759 17.4233 34.8409C17.4873 34.8689 17.5523 34.8979 17.6173 34.9259C17.7593 34.9879 17.9103 35.0319 18.0633 35.0649C18.3323 35.1229 18.5523 35.0558 18.8093 34.9908C19.2053 34.8918 19.4733 34.4989 19.6573 34.1749C19.6973 34.1039 19.7173 34.0099 19.7423 33.9299C19.7913 33.7779 19.8383 33.6339 19.8783 33.4819C19.9293 33.2909 19.9563 33.0919 19.9753 32.8939C20.0113 32.5269 19.9703 32.1949 19.7493 31.8859C19.5483 31.6039 19.2403 31.4109 18.9023 31.3489C18.5513 31.2859 18.1823 31.3679 17.8923 31.5759C17.7313 31.6909 17.5773 31.8609 17.4743 32.0519C17.1703 31.9599 16.8543 31.8759 16.5413 31.8549C16.2713 31.8369 15.8953 31.8159 15.6403 31.9399C15.5083 32.0049 15.3773 32.0719 15.2483 32.1429C15.1233 32.2529 14.9963 32.3629 14.8863 32.4899C14.7753 32.6219 14.6903 32.7689 14.6223 32.9259C14.4673 32.8379 14.3013 32.7639 14.1303 32.7469C13.8293 32.7169 13.5923 32.7158 13.3043 32.8228C12.9293 32.9608 12.6773 33.2369 12.5043 33.5669C12.2953 33.5409 12.0803 33.5629 11.8793 33.6369C11.8073 33.6629 11.7373 33.6959 11.6713 33.7349C11.4373 33.8709 11.2453 34.0779 11.1303 34.3279ZM16.2063 34.5149C16.2333 34.5079 16.2603 34.5019 16.2873 34.4969C16.2603 34.5029 16.2343 34.5089 16.2063 34.5149Z" fill="white"/>
<path d="M43.6703 17.1189C43.3743 17.3349 43.1983 17.6189 43.0763 17.9329C42.8573 17.8999 42.6303 17.9219 42.4193 17.9979C42.0893 18.1189 41.8173 18.3689 41.6703 18.6889C41.5353 18.9799 41.4823 19.4059 41.6283 19.7049C41.8123 20.0819 41.9933 20.4609 42.1873 20.8349C42.3753 21.2009 42.5883 21.6509 43.0143 21.7989C43.3763 21.9239 43.7073 22.0009 44.0813 21.8579C44.2963 21.7759 44.6163 21.6029 44.7483 21.3959C44.8463 21.2449 44.9483 21.1019 45.0163 20.9349C45.0963 20.7389 45.1483 20.5299 45.2043 20.3269C45.2443 20.1789 45.2803 20.0299 45.3153 19.8799C45.4273 19.9149 45.5393 19.9459 45.6513 19.9719C45.9603 20.0429 46.2993 20.0509 46.5993 19.9399C46.8183 19.8589 47.0813 19.7209 47.2183 19.5209C47.2973 19.4059 47.3713 19.2899 47.4423 19.1699C47.4893 19.0289 47.5323 18.8879 47.5743 18.7449C47.5803 18.7259 47.5853 18.7069 47.5893 18.6879C47.8713 18.7439 48.1563 18.7899 48.4383 18.8499C48.8503 18.9369 49.2843 19.0419 49.6903 18.8549C49.9393 18.7399 50.1213 18.6309 50.2913 18.4079C50.4753 18.1689 50.5483 17.9379 50.6223 17.6479C50.6503 17.5369 50.6573 17.4179 50.6653 17.3039C50.6923 16.9329 50.6633 16.6119 50.4373 16.2959C50.2383 16.0149 49.9303 15.8209 49.5903 15.7589C49.2403 15.6959 48.8723 15.7789 48.5823 15.9849C48.5243 16.0269 48.4653 16.0759 48.4103 16.1319C48.0223 16.0579 47.6353 15.9769 47.2473 15.8939C46.8573 15.8109 46.4643 15.7699 46.0753 15.8889C45.8123 15.9689 45.5583 16.1409 45.3823 16.3539C45.2263 16.5429 45.1553 16.7309 45.0893 16.9469C44.6553 16.8199 44.1963 16.8069 43.7913 17.0409C43.7503 17.0639 43.7103 17.0899 43.6703 17.1189Z" fill="white"/>
</svg>
