<svg width="49" height="60" viewBox="0 0 49 60" fill="none" xmlns="http://www.w3.org/2000/svg">
<path d="M9.3072 7.54971C8.7212 8.14171 8.20421 8.80971 7.67421 9.45271C6.35421 11.0527 5.06821 12.6997 4.18721 14.5897C3.71321 15.6067 3.33422 16.6727 2.96022 17.7277C2.64522 18.6147 2.37323 19.5067 2.16023 20.4227C1.91123 21.4897 1.76921 22.5747 1.66221 23.6657C1.57121 24.5757 1.51422 25.4967 1.56022 26.4087C1.61722 27.5327 1.7952 28.6457 1.9712 29.7547C2.1162 30.6777 2.29523 31.5967 2.56523 32.4927C2.74623 33.0917 3.03521 33.6847 3.29521 34.2477C3.50121 34.6957 3.71722 35.1387 3.93522 35.5827C4.33722 36.3947 4.79221 37.1957 5.35621 37.9077C6.07121 38.8097 6.80323 39.6987 7.69023 40.4367C8.53523 41.1397 9.46121 41.7427 10.3942 42.3197C11.1692 42.7987 11.9962 43.2267 12.8252 43.6037C13.4332 43.8787 14.0792 44.0877 14.7262 44.2507C15.3702 44.4117 16.0452 44.4637 16.7032 44.5327C17.6762 44.6367 18.6542 44.6797 19.6312 44.6947C20.6572 44.7117 21.6482 44.4507 22.6492 44.2647C23.2122 44.2017 23.7792 44.1677 24.3462 44.1237C25.0022 44.0727 25.6532 43.9877 26.3102 43.9887C26.3682 44.0197 26.4252 44.0517 26.4812 44.0847C27.4132 44.8657 28.1852 45.8127 28.9902 46.7217C29.4272 47.2147 30.2292 47.4517 30.8642 47.4387C31.5772 47.4237 32.2662 47.1157 32.7532 46.5957C33.2232 46.0917 33.4832 45.4117 33.4692 44.7227C33.4522 43.9557 33.1182 43.3897 32.6262 42.8337C32.0232 42.1527 31.4382 41.4447 30.7922 40.8007C30.3442 40.3547 29.8522 39.9827 29.3372 39.6157C28.8632 39.2797 28.3172 38.9957 27.7502 38.8557C27.1412 38.7047 26.5082 38.6557 25.8802 38.6657C25.3872 38.6737 24.8902 38.7487 24.4002 38.7907C23.9392 38.8297 23.4782 38.8537 23.0192 38.8947C22.0682 38.9787 21.1472 39.1777 20.2162 39.3477C19.1542 39.4357 18.0602 39.3597 16.9932 39.2537C16.3992 39.1707 15.8242 39.0507 15.2552 38.8707C14.0532 38.3547 12.9062 37.6617 11.8222 36.9337C11.1162 36.3867 10.4882 35.7837 9.89323 35.1167C9.10723 34.0577 8.50621 32.9077 7.94621 31.7147C7.52221 30.6457 7.29022 29.5317 7.10322 28.3977C6.99622 27.6277 6.90922 26.8597 6.86922 26.0817C6.83122 25.3297 6.88623 24.5667 6.95723 23.8127C7.08823 22.8457 7.27021 21.8937 7.50621 20.9467C7.73321 20.0387 8.05421 19.1527 8.38521 18.2767C8.64721 17.6177 8.92821 16.9757 9.25221 16.3437C9.53521 15.7937 9.87722 15.2697 10.2272 14.7567C10.9732 13.7647 11.7762 12.8137 12.5792 11.8677C13.2272 11.1057 13.9602 10.4037 14.7262 9.7557C15.1932 9.3907 15.6702 9.03771 16.1942 8.75871C16.5502 8.62471 16.9132 8.5077 17.2702 8.3787C17.9592 8.1317 18.5242 7.7387 18.8772 7.0787C19.2022 6.4717 19.2802 5.74671 19.0892 5.08471C18.8912 4.39971 18.4162 3.81171 17.7882 3.47671C17.2122 3.16871 16.4232 3.03871 15.7932 3.26571C14.9372 3.57371 14.0742 3.8457 13.2742 4.2927C12.4472 4.7557 11.6812 5.40771 10.9632 6.01571C10.8282 6.12971 10.6952 6.24571 10.5622 6.36271C10.1312 6.74571 9.7132 7.14271 9.3072 7.54971ZM8.61922 17.6627C8.55722 17.8277 8.49423 17.9917 8.43123 18.1567C8.49423 17.9927 8.55722 17.8277 8.61922 17.6627ZM25.9232 43.9237C25.9992 43.9287 26.0752 43.9367 26.1502 43.9487C26.0742 43.9407 25.9982 43.9327 25.9232 43.9237Z" fill="#E2FF5E"/>
<path d="M21.7668 21.4309C21.3958 21.7599 21.1968 22.3499 21.0398 22.7939C20.8268 23.4019 20.6898 24.0319 20.5028 24.6479C20.4978 24.6579 20.4928 24.6679 20.4878 24.6769C20.2908 24.7179 20.0928 24.7499 19.8918 24.7839C19.2578 24.8889 18.7058 25.1399 18.1248 25.4179C18.0398 25.4789 17.9578 25.5399 17.8738 25.5999C17.4648 25.8529 17.1468 26.1899 16.9198 26.6119C16.7288 26.9139 16.5848 27.2369 16.5398 27.5939C16.4698 28.1639 16.4258 28.5539 16.5858 29.1199C16.6828 29.4669 16.8498 29.7859 17.0008 30.1129C17.1708 30.4819 17.5968 30.9159 17.8278 31.1969C17.9728 31.3719 18.1198 31.5409 18.2718 31.7099C18.5488 32.0199 18.8288 32.3299 19.1068 32.6379C20.3178 33.9769 21.5408 35.3089 22.8248 36.5819C24.1378 37.8809 25.4878 39.1149 26.9268 40.2729C27.6778 40.8769 28.3608 41.5539 29.0418 42.2359C29.8498 43.0459 30.6488 43.8649 31.4498 44.6809C32.4658 45.7169 34.2528 45.5779 35.2108 44.5549C35.6818 44.0509 35.9418 43.3689 35.9278 42.6809C35.9138 42.0199 35.6558 41.4429 35.2358 40.9559C35.1748 40.6379 35.0558 40.3279 34.8908 40.0289C34.1228 38.6339 33.4218 37.2149 32.7648 35.7659C32.2538 34.6069 31.7468 33.4449 31.2878 32.2659C30.7698 30.9379 30.3018 29.5909 29.7778 28.2669C29.1258 26.6189 28.4078 24.9949 27.5678 23.4319C27.3618 23.0469 27.1348 22.6789 26.8968 22.3129C26.4578 21.6429 25.9518 21.1369 25.2458 20.7589C24.3848 20.2949 23.2698 20.3629 22.4428 20.8709C22.2258 21.0359 22.0168 21.2079 21.8138 21.3879C21.7968 21.4039 21.7818 21.4169 21.7668 21.4309ZM20.2438 24.8669C20.3058 24.8399 20.3678 24.8129 20.4298 24.7849L20.4278 24.7889C20.3678 24.8189 20.3068 24.8449 20.2438 24.8669ZM24.4738 30.6379C24.0598 30.1969 23.6418 29.7559 23.2288 29.3099C23.5718 29.1009 23.8848 28.8439 24.1828 28.5739C24.5908 29.5589 24.9688 30.5549 25.3438 31.5529C25.0518 31.2489 24.7618 30.9449 24.4738 30.6379Z" fill="#46A3BB"/>
<path d="M31.7767 46.4499C30.7657 47.5319 30.8737 49.1909 31.9037 50.2129C32.8827 51.1819 33.8417 52.1419 34.9787 52.9319C35.8097 53.5069 36.8157 53.9319 37.8137 54.0739C38.2227 54.1329 38.6277 54.1669 39.0397 54.1689C39.4797 54.1719 39.9257 54.0889 40.3617 53.9959C40.4717 53.9899 40.5807 53.9879 40.6917 53.9889C40.7597 54.0029 40.8267 54.0189 40.8937 54.0359C41.0717 54.1229 41.2427 54.2189 41.4117 54.3239C41.8137 54.6559 42.1767 55.0239 42.5507 55.3899C43.5867 56.4039 45.3377 56.3049 46.3107 55.2629C47.3177 54.1869 47.2217 52.5149 46.1837 51.5029C45.9257 51.2499 45.6737 50.9889 45.4077 50.7429C44.9917 50.3559 44.5187 50.0329 44.0527 49.7119C43.5577 49.3709 42.9817 49.1289 42.4137 48.9439C41.7667 48.7329 41.0817 48.6669 40.4037 48.6599C39.9737 48.6539 39.5427 48.7439 39.1177 48.8319C38.9857 48.8399 38.8547 48.8429 38.7227 48.8409C38.6187 48.8189 38.5157 48.7949 38.4127 48.7669C38.2007 48.6679 37.9957 48.5589 37.7957 48.4369C36.9947 47.7869 36.2717 47.0509 35.5377 46.3239C34.5667 45.3599 32.9397 45.4069 31.9467 46.2859C31.8867 46.3379 31.8307 46.3929 31.7767 46.4499Z" fill="#46A3BB"/>
<path d="M8.35579 9.37286C7.84279 9.87286 7.33579 10.3769 6.85179 10.9059C6.40779 11.3939 6.0018 11.9159 5.6158 12.4499C5.1638 13.0749 4.7278 13.7019 4.3318 14.3639C3.9778 14.9569 3.64481 15.5629 3.32881 16.1779C2.65281 17.4909 2.14681 18.8819 1.77681 20.3119C1.68381 20.6719 1.6008 21.0309 1.5248 21.3959C1.4508 21.7529 1.42079 22.1249 1.37679 22.4869C1.27779 23.2849 1.2338 24.0789 1.2188 24.8819C1.2058 25.5699 1.2568 26.2499 1.3528 26.9329C1.4638 27.7109 1.59379 28.4839 1.78679 29.2459C2.12779 30.5959 2.62581 31.9099 3.16381 33.1909C3.49181 33.9709 3.9008 34.7018 4.3358 35.4268C4.6758 35.9918 5.04681 36.5499 5.44881 37.0739C6.37181 38.2779 7.40081 39.3849 8.55281 40.3759C9.57381 41.2539 10.6938 42.0709 11.9118 42.6569C13.1878 43.2699 14.5218 43.7769 15.8738 44.1959C16.4778 44.3829 17.0858 44.5489 17.7088 44.6649C18.3958 44.7939 19.1098 44.8499 19.8088 44.8779C21.1348 44.9309 22.4338 44.6979 23.7308 44.4549C23.7758 44.4459 23.8218 44.4379 23.8678 44.4299C24.0838 44.3999 24.2998 44.3749 24.5168 44.3529C24.6798 44.3369 24.8438 44.3169 25.0088 44.3009C25.1378 44.4529 25.2578 44.6169 25.3788 44.7619C25.6308 45.0639 25.8798 45.3679 26.1288 45.6719C26.0538 45.5799 25.9778 45.4879 25.9018 45.3949C26.3978 46.0029 26.8898 46.6119 27.3818 47.2209C27.4358 47.2889 27.4908 47.3559 27.5458 47.4229C27.5908 47.7059 27.7258 47.9759 27.9448 48.1859C28.3298 48.5529 28.7368 48.9259 29.1968 49.1969C29.5878 49.4279 30.0628 49.5659 30.5168 49.5749C31.0618 49.5859 31.5478 49.3919 32.0168 49.1319C33.1328 48.5149 34.1318 47.6979 35.1258 46.9069C36.2378 46.0219 37.3298 45.1119 38.4188 44.1979C38.9298 43.7669 39.4238 43.3219 39.8998 42.8529C40.6268 42.1399 41.5338 41.2159 41.1048 40.1109C40.9028 39.5939 40.5868 39.1299 40.2618 38.6839C39.9608 38.2719 39.6468 37.8729 39.3388 37.4669C38.9638 36.9739 38.5988 36.4759 38.2048 35.9999C38.0098 35.7649 37.7998 35.5429 37.5928 35.3199C37.6578 35.2599 37.7228 35.1999 37.7858 35.1399C38.0458 34.8879 38.3008 34.6289 38.5428 34.3569C38.9148 33.9399 39.2758 33.5099 39.6288 33.0769C40.4708 32.0399 41.1238 30.8569 41.7988 29.7089C42.4648 28.5759 43.0598 27.3789 43.5378 26.1549C43.8108 25.4569 44.0608 24.7639 44.2578 24.0409C44.4288 23.4139 44.5388 22.7629 44.6558 22.1239C44.7118 21.8269 44.7658 21.5269 44.8108 21.2259C44.8768 20.7689 44.9558 20.3009 44.9788 19.8389C45.0188 19.0529 44.9898 18.2879 44.8668 17.5089C44.6608 16.2059 44.2888 14.9449 43.8118 13.7159C43.5598 13.0619 43.2758 12.4159 42.9158 11.8149C42.5428 11.1899 42.0648 10.6309 41.5888 10.0829C40.7008 9.05687 39.7058 8.11086 38.6618 7.24686C37.5288 6.30986 36.3468 5.43187 35.0908 4.66687C33.7998 3.88287 32.4838 3.15587 31.0578 2.64487C30.4208 2.41587 29.7758 2.21586 29.1198 2.05286C28.4028 1.87486 27.6748 1.78887 26.9428 1.71187C26.2778 1.64187 25.6068 1.63186 24.9398 1.63086C24.2998 1.63086 23.6538 1.66087 23.0178 1.73987C22.2878 1.83087 21.5528 1.93687 20.8378 2.11687C20.2018 2.27687 19.5778 2.46686 18.9598 2.68486C17.5908 3.16486 16.2538 3.69986 14.9578 4.35786C13.7628 4.96386 12.6678 5.71086 11.6088 6.52786C10.9988 6.99886 10.4038 7.49486 9.82381 8.00786C9.32181 8.45386 8.83279 8.90886 8.35579 9.37286ZM8.4858 13.0769C8.9228 12.5629 9.3988 12.0829 9.8738 11.6059C10.7698 10.7079 11.7218 9.86887 12.6878 9.04787C13.3888 8.48987 14.1058 7.95886 14.8578 7.46986C15.6368 6.96386 16.4778 6.54686 17.3188 6.15286C19.0348 5.41186 20.8228 4.78286 22.6648 4.45686C24.1418 4.26086 25.6308 4.24886 27.1128 4.38686C28.2078 4.54386 29.2628 4.81987 30.3048 5.18587C32.1108 5.91587 33.7948 6.91986 35.3848 8.04086C37.0908 9.33686 38.6948 10.7469 40.0788 12.3879C40.4608 12.8899 40.7898 13.4159 41.0618 13.9849C41.6048 15.2749 42.0258 16.6149 42.2678 17.9939C42.3338 18.6179 42.3488 19.2279 42.3188 19.8549C42.2198 20.6689 42.0778 21.4749 41.9198 22.2799C41.7558 23.1129 41.5448 23.9219 41.2608 24.7199C40.8288 25.8119 40.3398 26.8949 39.7618 27.9169C39.1828 28.9369 38.5998 29.9679 37.9338 30.9349C37.6488 31.3149 37.3428 31.6749 37.0348 32.0369C36.6528 32.4839 36.2618 32.9129 35.8428 33.3239C35.6338 33.5289 35.4138 33.7239 35.2088 33.9329C34.9638 34.1819 34.7718 34.5419 34.7098 34.8859C34.6238 35.3599 34.7238 35.7889 34.9368 36.2129C35.1428 36.6269 35.5028 36.9709 35.8198 37.3069C35.9828 37.4809 36.1418 37.6569 36.2958 37.8369C36.7138 38.3739 37.1208 38.9209 37.5348 39.4609C37.8218 39.8359 38.1168 40.2139 38.3728 40.6149C38.1568 40.8489 37.9268 41.0709 37.6978 41.2919C37.3278 41.6469 36.9468 41.9869 36.5528 42.3169C35.7858 42.9609 35.0148 43.6039 34.2388 44.2379C33.6228 44.7349 33.0088 45.2399 32.3718 45.7089C32.0468 45.9489 31.7148 46.1759 31.3778 46.3979C31.1088 46.5749 30.8388 46.7529 30.5538 46.9029C30.5098 46.8799 30.4678 46.8559 30.4248 46.8309C30.2198 46.6679 30.0248 46.4899 29.8348 46.3089C29.8108 46.1299 29.7538 45.9569 29.6508 45.8299C29.0778 45.1199 28.5048 44.4099 27.9258 43.7019C27.6838 43.4059 27.4408 43.1099 27.1958 42.8169C26.9848 42.5629 26.7818 42.2999 26.5478 42.0669C26.2488 41.7689 25.7868 41.6149 25.3658 41.6159C25.1808 41.6169 24.9968 41.6409 24.8118 41.6579C24.4828 41.6899 24.1538 41.7209 23.8248 41.7639C23.1468 41.8539 22.4778 41.9979 21.8038 42.1109C20.8268 42.2349 19.8588 42.2439 18.8798 42.1539C17.5498 41.9789 16.2738 41.5629 15.0158 41.1029C14.3758 40.8539 13.7448 40.5859 13.1268 40.2899C12.5598 40.0169 12.0248 39.6859 11.5078 39.3279C11.2188 39.1139 10.9348 38.8959 10.6538 38.6719C10.3198 38.4069 10.0108 38.1089 9.69679 37.8219C9.07479 37.2499 8.50579 36.6339 7.95479 35.9939C7.51279 35.4099 7.09981 34.8119 6.70281 34.1959C6.30281 33.5729 5.95979 32.9279 5.64079 32.2629C5.28379 31.3979 4.9608 30.5269 4.6758 29.6349C4.5218 29.1519 4.38281 28.6669 4.25881 28.1759C4.14981 27.7479 4.0828 27.3089 4.0118 26.8739C3.9778 26.6219 3.9458 26.3699 3.9178 26.1159C3.8748 25.7339 3.88079 25.3459 3.87779 24.9619C3.87379 24.3019 3.91679 23.6459 3.97679 22.9899C4.05479 22.3729 4.14779 21.7649 4.30379 21.1609C4.47079 20.5169 4.65879 19.8789 4.86379 19.2459C5.55679 17.5039 6.4648 15.8499 7.5298 14.3079C7.8368 13.8899 8.1498 13.4729 8.4858 13.0769ZM37.2058 35.6939C37.2008 35.7069 37.1958 35.7199 37.1918 35.7319C37.1958 35.7199 37.1998 35.7079 37.2038 35.6959L37.2058 35.6939Z" fill="white"/>
<path d="M28.6694 47.8191C28.5944 48.1351 28.6284 48.5551 28.8304 48.8251C29.2714 49.4181 29.7194 50.0031 30.1854 50.5781C30.4394 50.8921 30.6974 51.2061 30.9584 51.5161C31.0894 51.6731 31.2264 51.8241 31.3734 51.9671C31.5434 52.1341 31.7604 52.2651 31.9784 52.3531C32.1844 52.4621 32.4034 52.5141 32.6354 52.5111C32.8234 52.5351 33.0094 52.5211 33.1944 52.4701C33.8484 52.3591 34.4384 51.9691 34.9814 51.6041C35.2604 51.4151 35.5304 51.2131 35.8014 51.0171C36.4354 50.5571 37.0784 50.1101 37.6774 49.6041C38.7154 48.7271 39.6404 47.7341 40.6344 46.8081C41.0924 46.3821 41.5484 45.9571 41.9834 45.5071C42.3514 45.1251 42.7154 44.6941 42.8514 44.1711C43.0154 43.5361 42.9624 42.8451 42.7504 42.2301C42.5694 41.7081 42.2914 41.2191 42.0014 40.7521C41.6194 40.1371 40.7934 39.9321 40.1714 40.3141C39.5574 40.6911 39.3494 41.5271 39.7334 42.1441C39.8894 42.3921 40.0344 42.6441 40.1664 42.9061C40.2124 43.0281 40.2504 43.1491 40.2814 43.2761C40.2844 43.3251 40.2854 43.3741 40.2854 43.4231C39.9734 43.7841 39.6224 44.1121 39.2804 44.4431C38.8904 44.8201 38.4854 45.1821 38.0964 45.5601C37.6984 45.9461 37.3064 46.3411 36.9114 46.7301C36.5644 47.0731 36.1964 47.3931 35.8254 47.7091C35.3864 48.0411 34.9424 48.3641 34.4974 48.6871C33.9824 49.0611 33.4764 49.4451 32.9224 49.7541C32.7124 49.5281 32.5214 49.2781 32.3304 49.0391C32.3714 49.0891 32.4114 49.1391 32.4524 49.1881C31.9854 48.6141 31.5384 48.0281 31.0964 47.4361C30.8774 47.1421 30.6404 46.9261 30.2724 46.8371C29.9314 46.7561 29.5674 46.8131 29.2674 46.9971C29.2014 47.0371 29.1394 47.0831 29.0824 47.1341C28.8794 47.3131 28.7334 47.5531 28.6694 47.8191Z" fill="white"/>
<path d="M31.8856 50.4229C31.6496 50.6759 31.5206 51.016 31.5276 51.361C31.5346 51.741 31.7016 52.03 31.9486 52.305C32.4136 52.821 32.8786 53.34 33.3536 53.849C33.5506 54.061 33.7456 54.279 33.9646 54.468C34.1656 54.641 34.3816 54.7949 34.6036 54.9409C35.0756 55.2509 35.6806 55.235 36.1916 55.05C36.6346 54.89 37.0216 54.6189 37.4066 54.3549C37.7086 54.1469 38.0096 53.9359 38.3126 53.7299C38.8476 53.3649 39.3996 53.0199 39.9296 52.6469C41.1136 51.8169 42.2356 50.903 43.3286 49.955C43.5506 49.762 43.7746 49.57 43.9866 49.365C44.2606 49.099 44.4886 48.8169 44.7066 48.5009C44.8906 48.2339 45.0086 47.9529 45.1016 47.6389C45.1066 47.5849 45.1136 47.531 45.1196 47.478C45.1526 47.306 45.1636 47.134 45.1536 46.961C45.1486 46.72 45.0886 46.475 45.0426 46.24C44.9856 45.936 44.8406 45.6449 44.7136 45.3669C44.6326 45.1859 44.5516 45.0069 44.4666 44.8279C44.1546 44.1729 43.8136 43.5399 43.4446 42.9149C43.0756 42.2919 42.2256 42.102 41.6146 42.477C40.9896 42.862 40.8086 43.6829 41.1766 44.3069C41.6046 45.0319 41.9896 45.7729 42.3436 46.5349C42.4056 46.6949 42.4536 46.855 42.4916 47.021C42.4916 47.025 42.4916 47.029 42.4926 47.034C42.4766 47.061 42.4606 47.088 42.4446 47.115C42.1636 47.45 41.8416 47.739 41.5126 48.028C41.1456 48.351 40.7716 48.665 40.3956 48.978C39.6076 49.613 38.7946 50.2089 37.9576 50.7769C37.4876 51.0939 37.0116 51.4019 36.5426 51.7209C36.2326 51.9329 35.9296 52.1609 35.6116 52.3629C35.3876 52.1469 35.1786 51.9149 34.9676 51.6859C34.5636 51.2479 34.1656 50.804 33.7656 50.362C33.5436 50.116 33.1496 49.997 32.8296 50.003C32.5136 50.01 32.2076 50.132 31.9726 50.34C31.9416 50.366 31.9126 50.3939 31.8856 50.4229ZM42.5326 46.8589C42.5316 46.9029 42.5266 46.9459 42.5196 46.9879L42.5186 46.99C42.5236 46.946 42.5286 46.9019 42.5326 46.8589Z" fill="white"/>
<path d="M35.0058 53.1777C34.5188 53.6977 34.5278 54.5747 35.0688 55.0587C35.3488 55.3087 35.6258 55.5607 35.9158 55.7997C36.0728 55.9307 36.2568 56.0707 36.4278 56.1747C36.6418 56.3067 36.8398 56.3887 37.0788 56.4767C37.2498 56.5397 37.4138 56.5867 37.5908 56.6247C38.2408 56.7657 38.9398 56.7507 39.6028 56.7297C40.2588 56.7087 40.9308 56.6107 41.5508 56.3877C41.8468 56.2827 42.1408 56.1767 42.4408 56.0857C42.7578 55.9897 43.0838 55.9167 43.3958 55.8047C43.8898 55.6277 44.3778 55.4197 44.8208 55.1387C45.4138 54.7607 45.8888 54.1157 46.1538 53.4727C46.4868 52.6597 46.6248 51.7827 46.6568 50.9077C46.6808 50.2737 46.6428 49.6507 46.5478 49.0237C46.4408 48.3117 46.3378 47.6217 46.0848 46.9437C45.9568 46.5997 45.7668 46.3187 45.4348 46.1407C45.1298 45.9777 44.7688 45.9397 44.4368 46.0347C43.7818 46.2237 43.2738 47.0027 43.5278 47.6817C43.7098 48.1687 43.8168 48.6617 43.8998 49.1717C43.9478 49.5207 43.9838 49.8677 44.0018 50.2197C44.0218 50.5947 44.0028 50.9707 43.9688 51.3447C43.9158 51.6897 43.8478 52.0267 43.7438 52.3597C43.6878 52.4787 43.6248 52.5917 43.5548 52.7037C43.4988 52.7717 43.4408 52.8367 43.3798 52.8987C43.2488 52.9847 43.1118 53.0587 42.9708 53.1277C42.4968 53.3087 42.0048 53.4287 41.5218 53.5847C41.0268 53.7467 40.5508 53.9277 40.0428 54.0337C39.4928 54.0937 38.9298 54.0977 38.3778 54.0607C38.2138 54.0357 38.0528 54.0007 37.8938 53.9537C37.8578 53.9357 37.8238 53.9167 37.7888 53.8967C37.4758 53.6497 37.1828 53.3787 36.8848 53.1137C36.3758 52.6597 35.6038 52.6397 35.0958 53.0897C35.0648 53.1177 35.0348 53.1467 35.0058 53.1777Z" fill="white"/>
<path d="M43.7993 53.7C43.7953 53.718 43.7913 53.736 43.7873 53.755C43.7273 53.78 43.6693 53.8101 43.6133 53.8441C43.3143 54.0281 43.0983 54.3261 43.0153 54.6671C42.9403 54.9831 42.9733 55.404 43.1753 55.674C43.5323 56.151 43.8804 56.67 44.3244 57.07C44.6704 57.382 45.0533 57.63 45.5073 57.752C46.3603 57.981 47.3043 57.482 47.5143 56.608C47.6903 55.871 47.3273 55.0621 46.9723 54.4311C46.7533 54.0401 46.4963 53.672 46.2263 53.315C46.0053 53.023 45.7713 52.806 45.4033 52.717C45.0613 52.635 44.6964 52.693 44.3964 52.877C44.3304 52.917 44.2694 52.963 44.2124 53.014C44.0084 53.192 43.8633 53.433 43.7993 53.7Z" fill="white"/>
<path d="M16.2713 27.125C16.0363 27.377 15.9073 27.717 15.9133 28.062C15.9223 28.437 16.0843 28.737 16.3353 29.005C17.2833 30.024 18.2453 31.022 19.2383 31.997C20.2183 32.961 21.1763 33.944 22.1033 34.96C23.0313 35.979 23.9333 37.022 24.9083 37.997C25.3693 38.457 25.8443 38.904 26.3013 39.369C26.7623 39.839 27.2183 40.316 27.6693 40.795C28.5573 41.74 29.4643 42.662 30.3413 43.617C31.0103 44.344 31.6673 45.088 32.3883 45.765C32.9163 46.261 33.7743 46.229 34.2683 45.701C34.7643 45.171 34.7343 44.317 34.2063 43.821C33.4863 43.144 32.8273 42.4 32.1603 41.673C31.2833 40.718 30.3763 39.796 29.4873 38.853C29.0373 38.373 28.5813 37.897 28.1193 37.427C27.6633 36.961 27.1873 36.515 26.7263 36.055C25.7503 35.081 24.8483 34.035 23.9203 33.017C22.9953 32.001 22.0373 31.018 21.0573 30.055C20.0643 29.081 19.1023 28.082 18.1533 27.064C17.6863 26.562 16.8403 26.618 16.3523 27.05C16.3233 27.072 16.2973 27.098 16.2713 27.125Z" fill="white"/>
<path d="M23.9132 20.7077C23.9872 20.9637 24.1352 21.1807 24.3272 21.3447C24.3632 21.4197 24.3972 21.4947 24.4322 21.5697C24.5122 21.7387 24.5902 21.9087 24.6682 22.0787C24.8882 22.6047 25.0812 23.1427 25.2922 23.6737C25.5342 24.2827 25.7822 24.8877 26.0012 25.5067C26.4582 26.8077 26.9082 28.1107 27.3572 29.4147C27.8072 30.7177 28.3552 31.9887 28.8742 33.2667C29.4252 34.6237 30.0062 35.9667 30.6392 37.2877C31.1402 38.3287 31.6522 39.3677 32.1752 40.3977C32.7842 41.5997 33.4842 42.7587 34.1452 43.9307C34.5012 44.5637 35.3732 44.7377 35.9752 44.3697C36.6102 43.9807 36.7692 43.1727 36.4132 42.5397C35.5632 41.0357 34.7022 39.5407 33.9332 37.9937C33.3112 36.7417 32.7042 35.4857 32.1312 34.2117C31.5872 32.9267 31.0662 31.6327 30.5462 30.3357C30.0352 29.0617 29.6042 27.7597 29.1502 26.4637C28.9342 25.8437 28.7182 25.2257 28.5002 24.6077C28.2792 23.9767 28.0182 23.3627 27.7732 22.7427C27.5202 22.1077 27.2862 21.4687 27.0062 20.8437C26.8382 20.4657 26.6762 20.0747 26.4672 19.7167C26.1412 19.1567 25.4732 18.8217 24.8332 19.0067C24.6382 19.0637 24.4662 19.1607 24.3242 19.2867C23.9352 19.6287 23.7632 20.1827 23.9132 20.7077Z" fill="white"/>
<path d="M18.7602 23.173C18.7922 23.46 18.8651 23.686 18.9681 23.948C19.2141 24.575 19.4371 25.208 19.6421 25.85C19.7531 26.201 19.8671 26.555 19.9651 26.912C19.7081 26.848 19.4511 26.784 19.1921 26.728C18.5191 26.582 17.8261 26.536 17.1411 26.488C16.8001 26.463 16.4221 26.668 16.1971 26.909C15.9621 27.161 15.8312 27.501 15.8382 27.845C15.8462 28.201 16.0001 28.546 16.2591 28.789C16.5311 29.042 16.8381 29.123 17.1971 29.147C17.4231 29.163 17.6472 29.181 17.8722 29.201C18.5492 29.298 19.2051 29.464 19.8701 29.622C20.5891 29.793 21.4041 29.916 22.0341 29.43C22.2221 29.286 22.4831 29.08 22.5771 28.848C22.6351 28.707 22.6901 28.563 22.7421 28.421C22.7711 28.263 22.7911 28.102 22.8021 27.942C22.8201 27.611 22.7581 27.29 22.7071 26.963C22.6621 26.68 22.5941 26.4 22.5161 26.122C23.0561 26.372 23.6911 26.44 24.2051 26.073C24.6291 25.773 24.8661 25.349 24.9381 24.839C24.9701 24.622 24.9892 24.403 25.0102 24.184C25.0772 23.671 25.1701 23.161 25.2921 22.658C25.4341 22.072 25.5962 21.494 25.7262 20.906C25.8812 20.198 25.4581 19.474 24.7421 19.302C24.0471 19.136 23.2931 19.578 23.1381 20.286C22.9931 20.951 22.8101 21.606 22.6491 22.267C22.5941 22.494 22.5482 22.723 22.5102 22.954C22.1322 22.679 21.7552 22.403 21.3722 22.135C21.2232 22.029 21.0701 21.931 20.9051 21.852C20.6371 21.726 20.4641 21.687 20.1711 21.671C19.8791 21.654 19.6572 21.758 19.4022 21.884C19.3292 21.92 19.2621 21.967 19.1991 22.022C18.8891 22.296 18.7162 22.778 18.7602 23.173Z" fill="white"/>
</svg>
