<svg width="192" height="217" viewBox="0 0 192 217" fill="none" xmlns="http://www.w3.org/2000/svg">
<path opacity="0.17" d="M44.0882 207.237C41.0322 207.472 37.1862 208.732 36.5752 213.438C37.4762 216.285 39.9132 216.691 41.9382 216.703C62.1402 216.703 82.4202 216.351 102.701 216.732C104.517 216.766 106.428 216.765 108.017 215.383C109.606 214.001 110.682 210.73 109.828 208.214C108.981 205.723 106.866 205.269 105.069 205.153C97.8042 204.683 90.6092 205.439 83.3612 205.518C70.2642 205.658 57.1692 206.232 44.0882 207.237Z" fill="white"/>
<path d="M65.9634 139.703C60.4244 147.512 54.7454 155.643 52.9644 165.05C50.1214 180.064 57.6744 194.899 59.8504 210.024" stroke="white" stroke-width="3" stroke-miterlimit="10" stroke-linecap="round" stroke-linejoin="round"/>
<path d="M78.1572 142.818C82.1932 149.87 85.9352 157.1 89.3692 164.481C91.2012 168.418 92.9702 172.491 93.3722 176.836C93.7762 181.205 92.7722 185.567 91.7762 189.834C90.3402 195.984 88.9042 202.135 87.4672 208.286" stroke="white" stroke-width="3" stroke-miterlimit="10" stroke-linecap="round" stroke-linejoin="round"/>
<path d="M95.2379 121.532C95.4859 128.548 94.131 135.589 90.94 141.857C86.15 151.264 74.2779 161.054 63.3999 155.342C51.7999 149.252 47.031 132.699 47.6 120.509C48.166 108.359 54.36 92.8096 66.086 87.3736C76.321 82.6286 85.0459 92.4276 89.4979 100.562C92.9769 106.919 94.9789 114.211 95.2379 121.532Z" fill="#0E0E0F"/>
<path d="M95.2379 121.532C95.4859 128.548 94.131 135.589 90.94 141.857C86.15 151.264 74.2779 161.054 63.3999 155.342C51.7999 149.252 47.031 132.699 47.6 120.509C48.166 108.359 54.36 92.8096 66.086 87.3736C76.321 82.6286 85.0459 92.4276 89.4979 100.562C92.9769 106.919 94.9789 114.211 95.2379 121.532Z" stroke="white" stroke-miterlimit="10" stroke-linecap="round" stroke-linejoin="round"/>
<path d="M55.7096 96.5269C50.9616 99.6919 47.5676 103.097 43.8366 107.414C39.6066 112.308 35.6776 120.344 41.5506 125.747C44.0626 128.058 47.7426 128.499 51.1556 128.544C56.8156 128.617 62.8016 126.081 68.8546 124.191" stroke="white" stroke-width="3" stroke-miterlimit="10" stroke-linecap="round" stroke-linejoin="round"/>
<path d="M70.6055 94.5059C71.2885 107.449 71.1565 133.396 71.1565 133.396" stroke="white" stroke-miterlimit="10" stroke-linecap="round" stroke-linejoin="round"/>
<path d="M51.6468 84.4739C46.9438 75.7509 48.0868 62.5479 55.8298 55.7779C65.7858 47.0729 81.6688 48.5679 89.4218 58.9729C95.3248 66.8939 95.1418 78.0149 88.7328 85.5859C79.3208 96.7049 59.2508 98.5769 51.6468 84.4739Z" fill="#0E0E0F" stroke="white" stroke-miterlimit="10" stroke-linecap="round" stroke-linejoin="round"/>
<path d="M64.3776 67.4049C64.3776 69.4219 63.6626 71.0569 62.7796 71.0569C61.8976 71.0569 61.1816 69.4219 61.1816 67.4049C61.1816 65.3879 61.8966 63.7529 62.7796 63.7529C63.6626 63.7529 64.3776 65.3879 64.3776 67.4049Z" fill="white"/>
<path d="M65.4821 91.9648C64.9161 96.7548 64.4311 101.6 64.9801 106.392C65.6071 111.868 68.1941 121.628 75.4421 120.481C77.8761 120.096 79.9981 118.619 81.8331 116.973C85.8311 113.385 88.8871 108.834 91.1801 103.976" stroke="white" stroke-width="3" stroke-miterlimit="10" stroke-linecap="round" stroke-linejoin="round"/>
<path d="M74.8767 66.7955C74.8767 68.8125 74.1617 70.4475 73.2787 70.4475C72.3957 70.4475 71.6807 68.8125 71.6807 66.7955C71.6807 64.7785 72.3957 63.1436 73.2787 63.1436C74.1617 63.1436 74.8767 64.7785 74.8767 66.7955Z" fill="white"/>
<path d="M67.0956 54.3888C67.7486 51.7148 67.3386 48.7968 65.9746 46.4058" stroke="white" stroke-miterlimit="10" stroke-linecap="round" stroke-linejoin="round"/>
<path d="M70.3887 54.1505C70.7057 51.0215 71.1437 47.9055 71.7037 44.8115" stroke="white" stroke-miterlimit="10" stroke-linecap="round" stroke-linejoin="round"/>
<path d="M78.6485 104.307C78.6485 105.503 77.7065 106.472 76.5435 106.472C75.3815 106.472 74.4385 105.503 74.4385 104.307C74.4385 103.111 75.3805 102.142 76.5435 102.142C77.7065 102.142 78.6485 103.112 78.6485 104.307Z" fill="white"/>
<path d="M76.5435 117.307C77.706 117.307 78.6485 116.337 78.6485 115.142C78.6485 113.946 77.706 112.977 76.5435 112.977C75.3809 112.977 74.4385 113.946 74.4385 115.142C74.4385 116.337 75.3809 117.307 76.5435 117.307Z" fill="white"/>
<path d="M78.6485 128.856C78.6485 130.052 77.7065 131.021 76.5435 131.021C75.3815 131.021 74.4385 130.052 74.4385 128.856C74.4385 127.66 75.3805 126.691 76.5435 126.691C77.7065 126.691 78.6485 127.66 78.6485 128.856Z" fill="white"/>
<path d="M74.6104 54.1548C75.3674 51.4898 76.5384 48.9419 78.0684 46.6309" stroke="white" stroke-miterlimit="10" stroke-linecap="round" stroke-linejoin="round"/>
<path d="M74.0447 126.461C76.1857 125.777 78.3757 124.751 79.5687 122.846C80.0797 122.029 80.3817 121.05 80.2447 120.097C80.1077 119.143 79.4777 118.236 78.5677 117.92C77.6397 117.598 76.6237 117.91 75.6947 118.231C73.4797 118.995 71.2817 119.808 69.1017 120.668C69.8417 120.199 70.5327 119.685 71.0797 118.993C71.2787 118.741 71.4607 118.462 71.5087 118.145C71.5567 117.828 71.4387 117.467 71.1577 117.313C70.4537 116.927 68.7807 118.224 68.1517 118.593C67.1597 119.176 66.1927 119.819 65.3287 120.581C63.8247 121.908 62.4907 123.822 63.3507 125.884C64.8697 129.524 71.3857 127.311 74.0447 126.461Z" fill="#0E0E0F" stroke="white" stroke-miterlimit="10" stroke-linecap="round" stroke-linejoin="round"/>
<path d="M73.6741 91.6998C75.3951 90.4808 77.0421 88.9328 77.4761 86.8488C77.6621 85.9558 77.6011 84.9698 77.1471 84.1278C76.6931 83.2858 75.8051 82.6228 74.8651 82.5818C73.9061 82.5398 73.0851 83.1078 72.3471 83.6578C70.5861 84.9708 68.8571 86.3248 67.1621 87.7168C67.6761 87.0808 68.1311 86.4168 68.3931 85.6288C68.4881 85.3418 68.5581 85.0338 68.4931 84.7288C68.4281 84.4228 68.1961 84.1228 67.8861 84.0578C67.1101 83.8948 66.0271 85.5508 65.5801 86.0638C64.8741 86.8738 64.2121 87.7328 63.6851 88.6728C62.7671 90.3098 62.2081 92.4408 63.7041 94.1068C66.3441 97.0458 71.5371 93.2138 73.6741 91.6998Z" fill="#0E0E0F" stroke="white" stroke-miterlimit="10" stroke-linecap="round" stroke-linejoin="round"/>
<path d="M64.5469 79.8678C66.1829 78.2628 68.2419 77.0938 70.4579 76.5098Z" fill="#0E0E0F"/>
<path d="M64.5469 79.8678C66.1829 78.2628 68.2419 77.0938 70.4579 76.5098" stroke="white" stroke-miterlimit="10" stroke-linecap="round" stroke-linejoin="round"/>
<path d="M88.2637 211.76C87.1187 211.325 86.0707 210.538 85.5897 209.45C84.9277 207.954 85.4877 206.131 86.6787 204.975C87.8697 203.819 89.5787 203.262 91.2677 203.127C92.9567 202.992 94.6497 203.241 96.3247 203.489C97.3887 203.646 98.4517 203.802 99.5147 203.959C101.05 204.186 102.629 204.428 103.956 205.2C108.905 208.081 104.731 211.951 100.802 212.571C97.3187 213.12 91.5837 213.02 88.2637 211.76Z" fill="#0E0E0F" stroke="white" stroke-miterlimit="10" stroke-linecap="round" stroke-linejoin="round"/>
<path d="M94.8347 201.204C94.1137 202.461 93.7117 203.885 93.6727 205.319C93.6627 205.7 93.7397 206.169 94.1137 206.298C94.4867 206.426 94.8557 206.115 95.1107 205.824C95.9157 204.904 96.6237 203.906 97.2177 202.849C97.4367 202.46 97.7847 201.995 98.2317 202.105C98.3667 202.138 98.4827 202.224 98.5747 202.325C99.1037 202.907 98.8347 203.793 98.6687 204.548C98.5027 205.303 98.6607 206.337 99.4527 206.475C100.026 206.574 100.527 206.105 100.857 205.645C101.491 204.76 101.923 203.743 102.114 202.685" stroke="white" stroke-miterlimit="10" stroke-linecap="round" stroke-linejoin="round"/>
<path d="M49.2642 204.812C47.1332 205.41 40.5182 207.876 40.7532 210.808C41.0692 214.749 49.0452 214.298 51.6672 214.226C55.2622 214.128 64.0962 213.062 62.7032 207.437C61.4312 202.301 52.6622 203.86 49.2642 204.812Z" fill="#0E0E0F" stroke="white" stroke-miterlimit="10" stroke-linecap="round" stroke-linejoin="round"/>
<path d="M44.082 204.832C44.172 205.665 44.409 206.481 44.777 207.233C45.097 207.887 45.699 208.573 46.411 208.423C47.011 208.296 47.334 207.619 47.371 207.007C47.407 206.395 47.25 205.78 47.312 205.17C47.374 204.56 47.765 203.902 48.376 203.852C49.1 203.793 49.588 204.576 49.805 205.269C50.022 205.962 50.227 206.779 50.889 207.079C51.608 207.405 52.487 206.858 52.779 206.125C53.071 205.392 52.929 204.562 52.721 203.8C52.513 203.038 52.242 202.272 52.289 201.484" stroke="white" stroke-miterlimit="10" stroke-linecap="round" stroke-linejoin="round"/>
<path d="M89.8662 63.4517C90.6092 65.4087 91.0432 67.4817 91.1452 69.5727" stroke="white" stroke-miterlimit="10" stroke-linecap="round" stroke-linejoin="round"/>
<path d="M91.2526 72.7656C90.8846 77.1216 88.9176 81.3256 85.8086 84.4006" stroke="white" stroke-miterlimit="10" stroke-linecap="round" stroke-linejoin="round"/>
<path d="M75.7822 152.633C82.3192 149.952 86.2952 143.59 89.3352 137.539" stroke="white" stroke-miterlimit="10" stroke-linecap="round" stroke-linejoin="round"/>
<path d="M63.2891 152.042C65.4091 153.407 67.9531 153.961 70.4551 153.837" stroke="white" stroke-miterlimit="10" stroke-linecap="round" stroke-linejoin="round"/>
<path d="M108.869 17.1377C111.01 12.4337 115.476 8.5667 120.864 8.5287C123.766 8.5087 126.661 9.63771 128.783 11.6177C132.482 5.33571 139.263 0.935711 146.668 1.00071C153.502 1.06071 160.235 4.37971 164.445 9.76371C170.347 3.37071 181.955 4.2337 187.424 10.9997C192.893 17.7657 191.756 28.6407 185.523 34.7107C179.29 40.7807 169.04 41.8477 161.276 37.9227C158.108 44.5047 150.991 48.9857 143.686 48.9977C136.197 49.0097 129.776 43.8617 125.621 38.0057C121.646 41.3757 115.164 40.6907 111.359 37.1297C106.282 32.3777 105.858 23.7547 108.869 17.1377Z" fill="#0E0E0F" stroke="white" stroke-miterlimit="10" stroke-linecap="round" stroke-linejoin="round"/>
<path d="M94.0255 39.2359C94.4985 41.1439 95.4465 43.0079 97.0315 44.1709C98.6165 45.3339 100.914 45.6409 102.559 44.5659C103.495 43.9539 104.137 42.9749 104.579 41.9469C105.926 38.8109 105.25 33.7969 102.356 31.6679C97.3914 28.0119 92.8955 34.6809 94.0255 39.2359Z" fill="#0E0E0F" stroke="white" stroke-miterlimit="10" stroke-linecap="round" stroke-linejoin="round"/>
<path d="M88.4787 44.2498C87.4197 44.5898 86.4937 45.4488 86.2597 46.5368C86.0797 47.3748 86.3117 48.2508 86.6677 49.0308C87.2317 50.2698 88.1217 51.3718 89.2667 52.1068C89.8107 52.4558 90.4227 52.7248 91.0677 52.7658C91.7127 52.8068 92.3937 52.5938 92.8207 52.1088C93.2907 51.5758 93.3917 50.8118 93.3677 50.1008C93.2917 47.8058 91.4827 43.2848 88.4787 44.2498Z" fill="#0E0E0F" stroke="white" stroke-miterlimit="10" stroke-linecap="round" stroke-linejoin="round"/>
<path d="M187.402 16.7905C188.271 20.1245 188.27 23.6815 187.401 27.0155" stroke="white" stroke-miterlimit="10" stroke-linecap="round" stroke-linejoin="round"/>
<path d="M161.248 37.9077C161.674 37.1767 161.944 36.3547 162.036 35.5137" stroke="white" stroke-miterlimit="10" stroke-linecap="round" stroke-linejoin="round"/>
<path d="M164.356 9.19189C164.948 10.3309 165.11 11.6879 164.8 12.9339" stroke="white" stroke-miterlimit="10" stroke-linecap="round" stroke-linejoin="round"/>
<path d="M128.964 11.3428C128.509 12.5508 128.159 13.7978 127.92 15.0668" stroke="white" stroke-miterlimit="10" stroke-linecap="round" stroke-linejoin="round"/>
<path d="M186.36 29.8057C185.447 32.3467 183.014 33.9927 180.629 35.2577" stroke="white" stroke-miterlimit="10" stroke-linecap="round" stroke-linejoin="round"/>
<path d="M115.238 12.7285C113.531 14.0715 112.178 15.8595 111.35 17.8675" stroke="white" stroke-miterlimit="10" stroke-linecap="round" stroke-linejoin="round"/>
<path d="M109.988 22.7666C109.774 23.6816 109.641 24.6166 109.59 25.5546" stroke="white" stroke-miterlimit="10" stroke-linecap="round" stroke-linejoin="round"/>
<path d="M102.153 35.9155C102.403 37.4665 102.634 39.1445 101.904 40.5365" stroke="white" stroke-miterlimit="10" stroke-linecap="round" stroke-linejoin="round"/>
<path d="M1.78747 41.7686C3.1995 38.8915 6.71471 36.5663 10.4528 36.2135C14.7065 35.8127 19.0673 37.9437 20.1695 41.344C20.5403 42.4872 20.0676 43.7539 18.5987 44.2657C17.3434 44.703 15.479 44.2634 15.106 43.1122C14.3209 40.691 10.9765 39.8368 8.47781 41.4804C5.70333 43.3053 5.8623 46.4752 7.88524 48.5051C9.00833 49.6323 10.6159 50.407 11.9862 51.3137C13.6072 52.3861 14.9393 53.6136 15.9168 55.1302C17.8273 58.0947 17.9994 61.6263 18.0514 64.9711C18.0698 66.1683 17.1503 67.3028 15.6094 67.4803C14.2421 67.6378 12.6794 66.7961 12.6608 65.5922C12.6173 62.7764 12.6653 59.6462 11.0129 57.1479C9.29914 54.556 5.5354 53.4172 3.35556 51.1237C0.919366 48.5599 0.243216 44.9149 1.78747 41.7686Z" fill="#0E0E0F" stroke="white" stroke-miterlimit="10" stroke-linecap="round" stroke-linejoin="round"/>
<path d="M11.8528 73.186C11.9151 72.7769 12.0838 72.3632 12.3775 71.964C16.0242 67.0025 23.5435 74.3317 17.0487 76.5095C14.2358 77.4523 11.5175 75.3828 11.8528 73.186Z" fill="#0E0E0F" stroke="white" stroke-miterlimit="10" stroke-linecap="round" stroke-linejoin="round"/>
<path d="M2.88713 45.211C2.57061 46.0329 2.69359 46.9466 3.21745 47.6609" stroke="white" stroke-miterlimit="10" stroke-linecap="round" stroke-linejoin="round"/>
<path d="M14.8027 71.9565C13.8164 72.3132 13.2441 73.3308 13.5732 74.1444" stroke="white" stroke-miterlimit="10" stroke-linecap="round" stroke-linejoin="round"/>
<path d="M4.06754 49.4176C5.24677 51.669 8.7683 52.3966 10.4536 54.406" stroke="white" stroke-miterlimit="10" stroke-linecap="round" stroke-linejoin="round"/>
<path d="M149.442 87.4056C149.302 85.3589 147.783 83.1295 145.654 82.0149C143.23 80.7469 140.13 80.953 138.654 82.7006C138.157 83.2881 138.13 84.1531 138.876 84.8122C139.514 85.3754 140.725 85.5667 141.225 84.975C142.277 83.7307 144.466 84.0348 145.548 85.6139C146.75 87.3674 145.887 89.207 144.197 89.9196C143.259 90.3154 142.118 90.3849 141.087 90.5901C139.867 90.8328 138.78 91.2373 137.833 91.8991C135.983 93.1926 135.026 95.2434 134.184 97.2126C133.884 97.9174 134.153 98.8124 135.023 99.2908C135.795 99.7154 136.925 99.5953 137.228 98.8865C137.936 97.2287 138.666 95.3625 140.25 94.2826C141.893 93.1622 144.399 93.3993 146.246 92.5685C148.311 91.6397 149.595 89.6439 149.442 87.4056Z" fill="#0E0E0F" stroke="white" stroke-miterlimit="10" stroke-linecap="round" stroke-linejoin="round"/>
<path d="M135.867 103.581C135.929 103.324 135.929 103.038 135.852 102.73C134.893 98.9071 128.663 101.428 131.983 104.292C133.421 105.532 135.533 104.964 135.867 103.581Z" fill="#0E0E0F" stroke="white" stroke-miterlimit="10" stroke-linecap="round" stroke-linejoin="round"/>
<path d="M146.956 89.1788C146.945 89.7424 146.651 90.254 146.167 90.5503" stroke="white" stroke-width="0.5" stroke-miterlimit="10" stroke-linecap="round" stroke-linejoin="round"/>
<path d="M133.417 102.138C133.915 102.588 134.008 103.33 133.615 103.732" stroke="white" stroke-width="0.5" stroke-miterlimit="10" stroke-linecap="round" stroke-linejoin="round"/>
<path d="M145.238 91.385C143.994 92.4332 141.731 92.0111 140.246 92.7934" stroke="white" stroke-width="0.5" stroke-miterlimit="10" stroke-linecap="round" stroke-linejoin="round"/>
</svg>
