<svg width="192" height="217" viewBox="0 0 192 217" fill="none" xmlns="http://www.w3.org/2000/svg">
<path opacity="0.17" d="M44.5169 207.233C41.4609 207.468 37.6149 208.728 37.0039 213.434C37.9049 216.281 40.3419 216.687 42.3669 216.699C62.5689 216.699 82.8489 216.347 103.13 216.728C104.946 216.762 106.857 216.761 108.446 215.379C110.035 213.997 111.111 210.726 110.257 208.21C109.41 205.719 107.295 205.265 105.498 205.149C98.2329 204.679 91.0379 205.435 83.7899 205.514C70.6929 205.654 57.5979 206.228 44.5169 207.233Z" fill="#0E0E0F"/>
<path d="M66.3922 139.699C60.8532 147.508 55.1742 155.639 53.3932 165.046C50.5502 180.06 58.1032 194.895 60.2792 210.02" stroke="#0E0E0F" stroke-width="3" stroke-miterlimit="10" stroke-linecap="round" stroke-linejoin="round"/>
<path d="M78.5859 142.814C82.6219 149.866 86.3639 157.096 89.7979 164.477C91.6299 168.414 93.3989 172.487 93.8009 176.832C94.2049 181.201 93.2009 185.563 92.2049 189.83C90.7689 195.98 89.3329 202.131 87.8959 208.282" stroke="#0E0E0F" stroke-width="3" stroke-miterlimit="10" stroke-linecap="round" stroke-linejoin="round"/>
<path d="M95.6667 121.528C95.9147 128.544 94.5597 135.585 91.3687 141.853C86.5787 151.26 74.7067 161.05 63.8287 155.338C52.2287 149.248 47.4597 132.695 48.0287 120.505C48.5947 108.355 54.7887 92.8057 66.5147 87.3697C76.7497 82.6247 85.4747 92.4237 89.9267 100.558C93.4057 106.915 95.4077 114.207 95.6667 121.528Z" fill="white"/>
<path d="M95.6667 121.528C95.9147 128.544 94.5597 135.585 91.3687 141.853C86.5787 151.26 74.7067 161.05 63.8287 155.338C52.2287 149.248 47.4597 132.695 48.0287 120.505C48.5947 108.355 54.7887 92.8057 66.5147 87.3697C76.7497 82.6247 85.4747 92.4237 89.9267 100.558C93.4057 106.915 95.4077 114.207 95.6667 121.528Z" stroke="#0E0E0F" stroke-miterlimit="10" stroke-linecap="round" stroke-linejoin="round"/>
<path d="M56.1383 96.5229C51.3903 99.6879 47.9963 103.093 44.2653 107.41C40.0353 112.304 36.1063 120.34 41.9793 125.743C44.4913 128.054 48.1713 128.495 51.5843 128.54C57.2443 128.613 63.2303 126.077 69.2833 124.187" stroke="#0E0E0F" stroke-width="3" stroke-miterlimit="10" stroke-linecap="round" stroke-linejoin="round"/>
<path d="M71.0342 94.502C71.7172 107.445 71.5852 133.392 71.5852 133.392" stroke="#0E0E0F" stroke-miterlimit="10" stroke-linecap="round" stroke-linejoin="round"/>
<path d="M52.0755 84.47C47.3725 75.747 48.5155 62.544 56.2585 55.774C66.2145 47.069 82.0975 48.564 89.8505 58.969C95.7535 66.89 95.5705 78.011 89.1615 85.582C79.7495 96.701 59.6795 98.573 52.0755 84.47Z" fill="white" stroke="#0E0E0F" stroke-miterlimit="10" stroke-linecap="round" stroke-linejoin="round"/>
<path d="M64.8064 67.401C64.8064 69.418 64.0914 71.053 63.2084 71.053C62.3264 71.053 61.6104 69.418 61.6104 67.401C61.6104 65.384 62.3254 63.749 63.2084 63.749C64.0914 63.749 64.8064 65.384 64.8064 67.401Z" fill="#0E0E0F"/>
<path d="M65.9108 91.9609C65.3448 96.7509 64.8598 101.596 65.4088 106.388C66.0358 111.864 68.6228 121.624 75.8708 120.477C78.3048 120.092 80.4268 118.615 82.2618 116.969C86.2598 113.381 89.3158 108.83 91.6088 103.972" stroke="#0E0E0F" stroke-width="3" stroke-miterlimit="10" stroke-linecap="round" stroke-linejoin="round"/>
<path d="M75.3054 66.7916C75.3054 68.8086 74.5904 70.4436 73.7074 70.4436C72.8244 70.4436 72.1094 68.8086 72.1094 66.7916C72.1094 64.7746 72.8244 63.1396 73.7074 63.1396C74.5904 63.1396 75.3054 64.7746 75.3054 66.7916Z" fill="#0E0E0F"/>
<path d="M67.5243 54.3849C68.1773 51.7109 67.7673 48.7929 66.4033 46.4019" stroke="#0E0E0F" stroke-miterlimit="10" stroke-linecap="round" stroke-linejoin="round"/>
<path d="M70.8174 54.1466C71.1344 51.0176 71.5724 47.9016 72.1324 44.8076" stroke="#0E0E0F" stroke-miterlimit="10" stroke-linecap="round" stroke-linejoin="round"/>
<path d="M79.0772 104.303C79.0772 105.499 78.1352 106.468 76.9722 106.468C75.8102 106.468 74.8672 105.499 74.8672 104.303C74.8672 103.107 75.8092 102.138 76.9722 102.138C78.1352 102.138 79.0772 103.108 79.0772 104.303Z" fill="#0E0E0F"/>
<path d="M76.9722 117.303C78.1348 117.303 79.0772 116.333 79.0772 115.138C79.0772 113.942 78.1348 112.973 76.9722 112.973C75.8096 112.973 74.8672 113.942 74.8672 115.138C74.8672 116.333 75.8096 117.303 76.9722 117.303Z" fill="#0E0E0F"/>
<path d="M79.0772 128.852C79.0772 130.048 78.1352 131.017 76.9722 131.017C75.8102 131.017 74.8672 130.048 74.8672 128.852C74.8672 127.656 75.8092 126.687 76.9722 126.687C78.1352 126.687 79.0772 127.656 79.0772 128.852Z" fill="#0E0E0F"/>
<path d="M75.0391 54.1509C75.7961 51.4859 76.9671 48.938 78.4971 46.627" stroke="#0E0E0F" stroke-miterlimit="10" stroke-linecap="round" stroke-linejoin="round"/>
<path d="M74.4734 126.457C76.6144 125.773 78.8044 124.747 79.9974 122.842C80.5084 122.025 80.8104 121.046 80.6734 120.093C80.5364 119.139 79.9064 118.232 78.9964 117.916C78.0684 117.594 77.0524 117.906 76.1234 118.227C73.9084 118.991 71.7104 119.804 69.5304 120.664C70.2704 120.195 70.9614 119.681 71.5084 118.989C71.7074 118.737 71.8894 118.458 71.9374 118.141C71.9854 117.824 71.8674 117.463 71.5864 117.309C70.8824 116.923 69.2094 118.22 68.5804 118.589C67.5884 119.172 66.6214 119.815 65.7574 120.577C64.2534 121.904 62.9194 123.818 63.7794 125.88C65.2984 129.52 71.8144 127.307 74.4734 126.457Z" fill="white" stroke="#0E0E0F" stroke-miterlimit="10" stroke-linecap="round" stroke-linejoin="round"/>
<path d="M74.1028 91.6959C75.8238 90.4769 77.4708 88.9289 77.9048 86.8449C78.0908 85.9519 78.0298 84.9659 77.5758 84.1239C77.1218 83.2819 76.2338 82.6189 75.2938 82.5779C74.3348 82.5359 73.5138 83.1039 72.7758 83.6539C71.0148 84.9669 69.2858 86.3209 67.5908 87.7129C68.1048 87.0769 68.5598 86.4129 68.8218 85.6249C68.9168 85.3379 68.9868 85.0299 68.9218 84.7249C68.8568 84.4189 68.6248 84.1189 68.3148 84.0539C67.5388 83.8909 66.4558 85.5469 66.0088 86.0599C65.3028 86.8699 64.6408 87.7289 64.1138 88.6689C63.1958 90.3059 62.6368 92.4369 64.1328 94.1029C66.7728 97.0419 71.9658 93.2099 74.1028 91.6959Z" fill="white" stroke="#0E0E0F" stroke-miterlimit="10" stroke-linecap="round" stroke-linejoin="round"/>
<path d="M64.9756 79.8639C66.6116 78.2589 68.6706 77.0899 70.8866 76.5059Z" fill="white"/>
<path d="M64.9756 79.8639C66.6116 78.2589 68.6706 77.0899 70.8866 76.5059" stroke="#0E0E0F" stroke-miterlimit="10" stroke-linecap="round" stroke-linejoin="round"/>
<path d="M88.6924 211.757C87.5474 211.322 86.4994 210.535 86.0184 209.447C85.3564 207.951 85.9164 206.128 87.1074 204.972C88.2984 203.816 90.0074 203.259 91.6964 203.124C93.3854 202.989 95.0784 203.237 96.7534 203.485C97.8174 203.642 98.8804 203.799 99.9434 203.956C101.478 204.183 103.057 204.425 104.384 205.197C109.333 208.078 105.159 211.948 101.23 212.568C97.7474 213.117 92.0124 213.017 88.6924 211.757Z" fill="white" stroke="#0E0E0F" stroke-miterlimit="10" stroke-linecap="round" stroke-linejoin="round"/>
<path d="M95.2634 201.2C94.5424 202.457 94.1404 203.881 94.1014 205.315C94.0914 205.696 94.1684 206.165 94.5424 206.294C94.9154 206.422 95.2844 206.111 95.5394 205.82C96.3444 204.9 97.0524 203.902 97.6464 202.845C97.8654 202.456 98.2134 201.991 98.6604 202.101C98.7954 202.134 98.9114 202.22 99.0034 202.321C99.5324 202.903 99.2634 203.789 99.0974 204.544C98.9314 205.299 99.0894 206.333 99.8814 206.471C100.454 206.57 100.955 206.101 101.285 205.641C101.919 204.756 102.351 203.739 102.542 202.681" stroke="#0E0E0F" stroke-miterlimit="10" stroke-linecap="round" stroke-linejoin="round"/>
<path d="M49.6929 204.808C47.5619 205.406 40.9469 207.872 41.1819 210.804C41.4979 214.745 49.4739 214.294 52.0959 214.222C55.6909 214.124 64.5249 213.058 63.1319 207.433C61.8599 202.297 53.0909 203.856 49.6929 204.808Z" fill="white" stroke="#0E0E0F" stroke-miterlimit="10" stroke-linecap="round" stroke-linejoin="round"/>
<path d="M44.5107 204.828C44.6007 205.661 44.8377 206.477 45.2057 207.229C45.5257 207.883 46.1277 208.569 46.8397 208.419C47.4397 208.292 47.7627 207.615 47.7997 207.003C47.8357 206.391 47.6787 205.776 47.7407 205.166C47.8027 204.556 48.1937 203.898 48.8047 203.848C49.5287 203.789 50.0167 204.572 50.2337 205.265C50.4507 205.958 50.6557 206.775 51.3177 207.075C52.0367 207.401 52.9157 206.854 53.2077 206.121C53.4997 205.388 53.3577 204.558 53.1497 203.796C52.9417 203.034 52.6707 202.268 52.7177 201.48" stroke="#0E0E0F" stroke-miterlimit="10" stroke-linecap="round" stroke-linejoin="round"/>
<path d="M90.2949 63.4478C91.0379 65.4048 91.4719 67.4778 91.5739 69.5688" stroke="#0E0E0F" stroke-miterlimit="10" stroke-linecap="round" stroke-linejoin="round"/>
<path d="M91.6813 72.7617C91.3133 77.1177 89.3463 81.3217 86.2373 84.3967" stroke="#0E0E0F" stroke-miterlimit="10" stroke-linecap="round" stroke-linejoin="round"/>
<path d="M76.2109 152.629C82.7479 149.948 86.7239 143.586 89.7639 137.535" stroke="#0E0E0F" stroke-miterlimit="10" stroke-linecap="round" stroke-linejoin="round"/>
<path d="M63.7188 152.039C65.8387 153.404 68.3828 153.958 70.8848 153.834" stroke="#0E0E0F" stroke-miterlimit="10" stroke-linecap="round" stroke-linejoin="round"/>
<path d="M109.297 17.1338C111.438 12.4298 115.904 8.56279 121.292 8.52479C124.194 8.50479 127.089 9.63381 129.211 11.6138C132.91 5.33181 139.691 0.931804 147.096 0.996804C153.93 1.0568 160.663 4.3758 164.873 9.7598C170.775 3.3668 182.383 4.2298 187.852 10.9958C193.321 17.7618 192.184 28.6368 185.951 34.7068C179.718 40.7768 169.468 41.8438 161.704 37.9188C158.536 44.5008 151.419 48.9818 144.114 48.9938C136.625 49.0058 130.204 43.8578 126.049 38.0018C122.074 41.3718 115.592 40.6868 111.787 37.1258C106.71 32.3738 106.286 23.7508 109.297 17.1338Z" fill="white" stroke="#0E0E0F" stroke-miterlimit="10" stroke-linecap="round" stroke-linejoin="round"/>
<path d="M94.4542 39.232C94.9272 41.14 95.8752 43.004 97.4602 44.167C99.0452 45.33 101.343 45.637 102.988 44.562C103.924 43.95 104.566 42.971 105.008 41.943C106.355 38.807 105.679 33.793 102.785 31.664C97.8202 28.008 93.3242 34.677 94.4542 39.232Z" fill="white" stroke="#0E0E0F" stroke-miterlimit="10" stroke-linecap="round" stroke-linejoin="round"/>
<path d="M88.9074 44.2459C87.8484 44.5859 86.9224 45.4449 86.6884 46.5329C86.5084 47.3709 86.7404 48.2469 87.0964 49.0269C87.6604 50.2659 88.5504 51.3679 89.6954 52.1029C90.2394 52.4519 90.8514 52.7209 91.4964 52.7619C92.1414 52.8029 92.8224 52.5899 93.2494 52.1049C93.7194 51.5719 93.8204 50.8079 93.7964 50.0969C93.7204 47.8019 91.9114 43.2809 88.9074 44.2459Z" fill="white" stroke="#0E0E0F" stroke-miterlimit="10" stroke-linecap="round" stroke-linejoin="round"/>
<path d="M187.831 16.7866C188.7 20.1206 188.699 23.6776 187.83 27.0116" stroke="#0E0E0F" stroke-miterlimit="10" stroke-linecap="round" stroke-linejoin="round"/>
<path d="M161.677 37.9037C162.103 37.1727 162.373 36.3508 162.465 35.5098" stroke="#0E0E0F" stroke-miterlimit="10" stroke-linecap="round" stroke-linejoin="round"/>
<path d="M164.785 9.18799C165.377 10.327 165.539 11.684 165.229 12.93" stroke="#0E0E0F" stroke-miterlimit="10" stroke-linecap="round" stroke-linejoin="round"/>
<path d="M129.393 11.3389C128.938 12.5469 128.588 13.7939 128.349 15.0629" stroke="#0E0E0F" stroke-miterlimit="10" stroke-linecap="round" stroke-linejoin="round"/>
<path d="M186.789 29.8018C185.876 32.3428 183.443 33.9888 181.058 35.2538" stroke="#0E0E0F" stroke-miterlimit="10" stroke-linecap="round" stroke-linejoin="round"/>
<path d="M115.666 12.7246C113.959 14.0676 112.606 15.8556 111.778 17.8636" stroke="#0E0E0F" stroke-miterlimit="10" stroke-linecap="round" stroke-linejoin="round"/>
<path d="M110.417 22.7627C110.203 23.6777 110.07 24.6127 110.019 25.5507" stroke="#0E0E0F" stroke-miterlimit="10" stroke-linecap="round" stroke-linejoin="round"/>
<path d="M102.582 35.9116C102.832 37.4626 103.063 39.1406 102.333 40.5326" stroke="#0E0E0F" stroke-miterlimit="10" stroke-linecap="round" stroke-linejoin="round"/>
<path d="M2.21618 41.7647C3.62822 38.8876 7.14342 36.5623 10.8815 36.2096C15.1353 35.8088 19.496 37.9398 20.5982 41.3401C20.9691 42.4833 20.4963 43.75 19.0275 44.2618C17.7721 44.6991 15.9077 44.2595 15.5347 43.1083C14.7496 40.6871 11.4052 39.8329 8.90652 41.4764C6.13204 43.3014 6.29102 46.4713 8.31395 48.5012C9.43704 49.6284 11.0446 50.403 12.415 51.3098C14.0359 52.3822 15.368 53.6097 16.3455 55.1263C18.256 58.0908 18.4281 61.6224 18.4801 64.9672C18.4985 66.1644 17.579 67.2988 16.0381 67.4764C14.6708 67.6339 13.1081 66.7922 13.0896 65.5883C13.046 62.7725 13.0941 59.6422 11.4417 57.144C9.72785 54.5521 5.96411 53.4133 3.78427 51.1198C1.34808 48.556 0.671926 44.911 2.21618 41.7647Z" fill="white" stroke="#0E0E0F" stroke-miterlimit="10" stroke-linecap="round" stroke-linejoin="round"/>
<path d="M12.2815 73.1821C12.3438 72.773 12.5125 72.3593 12.8062 71.9601C16.4529 66.9986 23.9722 74.3278 17.4774 76.5055C14.6645 77.4484 11.9462 75.3789 12.2815 73.1821Z" fill="white" stroke="#0E0E0F" stroke-miterlimit="10" stroke-linecap="round" stroke-linejoin="round"/>
<path d="M3.31584 45.2071C2.99932 46.029 3.1223 46.9427 3.64616 47.657" stroke="#0E0E0F" stroke-miterlimit="10" stroke-linecap="round" stroke-linejoin="round"/>
<path d="M15.2314 71.9526C14.2452 72.3093 13.6728 73.3269 14.0019 74.1405" stroke="#0E0E0F" stroke-miterlimit="10" stroke-linecap="round" stroke-linejoin="round"/>
<path d="M4.49626 49.4137C5.67549 51.6651 9.19701 52.3927 10.8823 54.4021" stroke="#0E0E0F" stroke-miterlimit="10" stroke-linecap="round" stroke-linejoin="round"/>
<path d="M149.871 87.4017C149.731 85.355 148.212 83.1256 146.082 82.011C143.659 80.743 140.559 80.9491 139.082 82.6967C138.586 83.2842 138.559 84.1492 139.305 84.8083C139.943 85.3715 141.154 85.5628 141.654 84.9711C142.706 83.7268 144.894 84.0309 145.977 85.61C147.178 87.3635 146.316 89.2031 144.626 89.9157C143.687 90.3114 142.547 90.381 141.515 90.5862C140.295 90.8289 139.209 91.2334 138.262 91.8952C136.412 93.1887 135.454 95.2395 134.613 97.2087C134.312 97.9135 134.582 98.8084 135.452 99.2869C136.224 99.7115 137.354 99.5914 137.657 98.8826C138.364 97.2248 139.094 95.3586 140.679 94.2787C142.322 93.1583 144.828 93.3954 146.675 92.5646C148.74 91.6358 150.023 89.64 149.871 87.4017Z" fill="white" stroke="#0E0E0F" stroke-miterlimit="10" stroke-linecap="round" stroke-linejoin="round"/>
<path d="M136.295 103.578C136.358 103.32 136.358 103.034 136.281 102.726C135.322 98.9032 129.091 101.424 132.412 104.288C133.85 105.528 135.962 104.96 136.295 103.578Z" fill="white" stroke="#0E0E0F" stroke-miterlimit="10" stroke-linecap="round" stroke-linejoin="round"/>
<path d="M147.385 89.1749C147.374 89.7385 147.079 90.2501 146.596 90.5464" stroke="#0E0E0F" stroke-width="0.5" stroke-miterlimit="10" stroke-linecap="round" stroke-linejoin="round"/>
<path d="M133.846 102.134C134.344 102.585 134.436 103.326 134.044 103.728" stroke="#0E0E0F" stroke-width="0.5" stroke-miterlimit="10" stroke-linecap="round" stroke-linejoin="round"/>
<path d="M145.667 91.3811C144.423 92.4293 142.16 92.0072 140.674 92.7895" stroke="#0E0E0F" stroke-width="0.5" stroke-miterlimit="10" stroke-linecap="round" stroke-linejoin="round"/>
</svg>
