<svg width="100" height="194" viewBox="0 0 100 194" fill="none" xmlns="http://www.w3.org/2000/svg">
<path d="M26.9274 72.7617C2.89643 83.9967 -2.92859 113.495 4.93341 136.942" stroke="#0E0E0F" stroke-width="3" stroke-miterlimit="10" stroke-linecap="round" stroke-linejoin="round"/>
<path d="M50.7256 73.1924C70.2696 87.1264 75.3966 113.786 67.8616 136.257" stroke="#0E0E0F" stroke-width="3" stroke-miterlimit="10" stroke-linecap="round" stroke-linejoin="round"/>
<path d="M71.0054 139.185C70.5464 141.385 69.7524 143.669 67.9814 145.053C67.2224 145.646 66.2794 146.048 65.3174 146.01C64.3544 145.972 63.3864 145.44 62.9784 144.567C62.5614 143.677 62.7674 142.635 62.9904 141.678C63.5204 139.396 64.1014 137.125 64.7314 134.868C64.3414 135.652 63.9024 136.393 63.2704 137.009C63.0404 137.233 62.7814 137.443 62.4714 137.524C62.1614 137.605 61.7894 137.525 61.6074 137.261C61.1504 136.601 62.2674 134.802 62.5694 134.138C63.0464 133.091 63.5864 132.063 64.2544 131.124C65.4184 129.49 67.1844 127.966 69.3244 128.608C73.1024 129.741 71.5754 136.452 71.0054 139.185Z" fill="white" stroke="#0E0E0F" stroke-miterlimit="10" stroke-linecap="round" stroke-linejoin="round"/>
<path d="M32.3248 118.052C26.7858 125.861 21.1068 133.992 19.3258 143.399C16.4828 158.413 24.0358 173.248 26.2118 188.373" stroke="#0E0E0F" stroke-width="3" stroke-miterlimit="10" stroke-linecap="round" stroke-linejoin="round"/>
<path d="M54.2611 122.436C49.9281 131.053 44.4971 141.414 44.1701 151.117C43.6771 165.747 52.5681 174.206 55.8361 188.204" stroke="#0E0E0F" stroke-width="3" stroke-miterlimit="10" stroke-linecap="round" stroke-linejoin="round"/>
<path d="M61.4019 99.6727C61.6499 106.689 60.2949 113.73 57.1039 119.998C52.3139 129.405 40.4419 139.195 29.5639 133.483C17.9649 127.393 13.1949 110.84 13.7629 98.6497C14.3289 86.4997 20.5229 70.9507 32.2489 65.5147C42.4849 60.7697 51.2089 70.5687 55.6609 78.7027C59.1409 85.0587 61.1429 92.3517 61.4019 99.6727Z" fill="white"/>
<mask id="mask0_27484_8179" style="mask-type:luminance" maskUnits="userSpaceOnUse" x="13" y="64" width="49" height="72">
<path d="M61.4019 99.6727C61.6499 106.689 60.2949 113.73 57.1039 119.998C52.3139 129.405 40.4419 139.195 29.5639 133.483C17.9649 127.393 13.1949 110.84 13.7629 98.6497C14.3289 86.4997 20.5229 70.9507 32.2489 65.5147C42.4849 60.7697 51.2089 70.5687 55.6609 78.7027C59.1409 85.0587 61.1429 92.3517 61.4019 99.6727Z" fill="white"/>
</mask>
<g mask="url(#mask0_27484_8179)">
<path d="M11.9063 65.8157C27.1473 61.0157 43.0433 58.2987 59.0133 57.7637C40.4683 60.9157 22.1043 65.1387 4.04535 70.4037C21.2403 66.0557 38.5793 61.6857 56.2973 60.8917C39.6523 65.6247 22.7413 69.4187 5.67035 72.2517C22.2953 69.1867 38.9213 66.1217 55.5463 63.0567C37.3783 67.0687 19.2103 71.0807 1.04333 75.0927C22.7873 69.4677 45.1853 66.3707 67.6393 65.8857C45.6433 70.2697 23.4263 73.5417 1.10034 75.6847C22.6623 71.9647 44.2773 68.2377 66.1183 66.9157C43.0593 71.3517 20.0003 75.7877 -3.05865 80.2247C19.0533 75.6167 41.2533 71.4317 63.5253 67.6747C42.0053 70.7427 20.6623 75.0547 -0.360657 80.5807C24.8463 76.7567 50.0523 72.9337 75.2593 69.1097C49.8213 72.6267 24.4753 76.8077 -0.743652 81.6487C24.7783 77.6657 50.3003 73.6837 75.8223 69.7007C51.8623 72.8407 27.7253 76.0197 4.81534 83.7057C30.9843 80.6387 57.0603 76.7807 82.9953 72.1377C53.4933 75.0367 24.2763 80.8187 -4.10565 89.3767C22.3333 87.2547 48.3243 81.4797 74.2153 75.7207C46.7223 79.1227 19.5813 85.3677 -6.63367 94.3247C20.8623 90.4947 48.2363 85.7827 75.4303 80.1967C46.1043 82.1697 17.0544 88.1927 -10.6396 98.0397C18.1054 96.0857 46.2163 88.9637 74.1413 81.8717C48.8453 84.1637 23.8103 89.3257 -0.328674 97.2297C25.8053 94.2487 51.7343 89.4717 77.2153 82.9447C48.8103 84.8857 20.6844 90.8647 -6.05365 100.645C18.1063 97.6237 42.0513 93.1137 65.9783 88.6057C40.3863 92.8427 14.9893 98.2627 -10.1027 104.845C16.3653 100.585 42.8474 96.3207 69.0544 90.6717C44.8314 91.9827 20.8193 97.1217 -1.81866 105.841C24.0103 104.563 49.2464 97.9847 74.2654 91.4427C48.2754 94.8127 22.6354 100.873 -2.11365 109.494C24.7344 105.135 51.4513 99.9667 77.9883 93.9967C56.8973 96.5647 35.9953 100.678 15.5043 106.293C9.67433 107.89 3.72534 109.685 -1.05466 113.386C24.7063 111.501 50.2203 106.261 74.6383 97.8397C48.7413 100.16 23.2023 106.432 -0.822662 116.373C-0.715662 118.19 1.85433 118.445 3.64633 118.126C27.4063 113.895 50.8853 108.09 73.8783 100.76C47.7213 104.186 21.9003 110.17 -3.09766 118.599C21.0423 115.014 44.9263 109.706 68.3123 102.728C43.5093 106.301 19.0883 112.511 -4.40866 121.22C19.8353 116.977 43.8253 111.283 67.3904 104.18C46.2744 107.687 25.3593 112.408 4.78433 118.312C26.6223 114.513 48.4613 110.713 70.2993 106.914C46.7093 112.486 23.1194 118.057 -0.471649 123.629C21.2214 118.837 43.0273 114.555 64.9223 110.788C42.1583 116.677 19.5193 123.05 -2.97467 129.902C20.3143 124.287 43.6043 118.673 66.8933 113.058C42.9313 120.423 18.9693 127.788 -4.99268 135.153C17.5383 128.865 40.2073 123.075 62.9943 117.788C43.2463 122.609 23.7513 128.47 4.61835 135.338C25.3533 130.167 46.0883 124.995 66.8243 119.824C45.8853 124.977 24.9473 130.131 4.00833 135.284C23.9873 128.507 44.5373 123.413 65.3693 120.074C45.6263 126.296 25.6753 131.861 5.56134 136.756C25.6623 129.923 46.3753 124.895 67.3713 121.751C49.0913 128.505 30.2353 133.698 11.0743 137.254C29.8033 133.037 48.5323 128.821 67.2603 124.604C49.7783 130.281 32.2973 135.959 14.8153 141.637C30.9783 137.779 47.2914 134.551 63.7054 131.964C43.6104 133.916 23.6633 137.388 4.09134 142.34" stroke="#C2C1BA" stroke-width="0.5" stroke-miterlimit="10" stroke-linecap="round" stroke-linejoin="round"/>
</g>
<path d="M61.4019 99.6727C61.6499 106.689 60.2949 113.73 57.1039 119.998C52.3139 129.405 40.4419 139.195 29.5639 133.483C17.9649 127.393 13.1949 110.84 13.7629 98.6497C14.3289 86.4997 20.5229 70.9507 32.2489 65.5147C42.4849 60.7697 51.2089 70.5687 55.6609 78.7027C59.1409 85.0587 61.1429 92.3517 61.4019 99.6727Z" stroke="#0E0E0F" stroke-miterlimit="10" stroke-linecap="round" stroke-linejoin="round"/>
<path d="M36.9658 71.8555C37.6488 84.7985 37.5168 110.745 37.5168 110.745" stroke="#0E0E0F" stroke-miterlimit="10" stroke-linecap="round" stroke-linejoin="round"/>
<path d="M18.0071 61.8229C13.3041 53.0999 14.4472 39.8969 22.1902 33.1269C32.1462 24.4219 48.0291 25.9159 55.7821 36.3219C61.6841 44.2429 61.5011 55.3639 55.0931 62.9349C45.6811 74.0549 25.6111 75.9259 18.0071 61.8229Z" fill="white" stroke="#0E0E0F" stroke-miterlimit="10" stroke-linecap="round" stroke-linejoin="round"/>
<path d="M26.7876 52.7675C28.1567 52.7675 29.2666 50.2312 29.2666 47.1025C29.2666 43.9738 28.1567 41.4375 26.7876 41.4375C25.4185 41.4375 24.3086 43.9738 24.3086 47.1025C24.3086 50.2312 25.4185 52.7675 26.7876 52.7675Z" fill="#0E0E0F"/>
<path d="M45.5537 46.1582C45.5537 49.2872 44.4437 51.8232 43.0747 51.8232C41.7057 51.8232 40.5957 49.2872 40.5957 46.1582C40.5957 43.0292 41.7057 40.4932 43.0747 40.4932C44.4437 40.4932 45.5537 43.0292 45.5537 46.1582Z" fill="#0E0E0F"/>
<path d="M33.456 31.7389C34.109 29.0649 33.699 26.1469 32.335 23.7559" stroke="#0E0E0F" stroke-miterlimit="10" stroke-linecap="round" stroke-linejoin="round"/>
<path d="M36.748 31.4992C37.064 28.3712 37.503 25.2542 38.063 22.1602" stroke="#0E0E0F" stroke-miterlimit="10" stroke-linecap="round" stroke-linejoin="round"/>
<path d="M45.0098 81.6562C45.0098 82.8522 44.0678 83.8212 42.9048 83.8212C41.7428 83.8212 40.7998 82.8522 40.7998 81.6562C40.7998 80.4602 41.7418 79.4912 42.9048 79.4912C44.0668 79.4912 45.0098 80.4602 45.0098 81.6562Z" fill="#0E0E0F"/>
<path d="M45.0098 93.5166C45.0098 94.7126 44.0678 95.6815 42.9048 95.6815C41.7428 95.6815 40.7998 94.7126 40.7998 93.5166C40.7998 92.3206 41.7418 91.3516 42.9048 91.3516C44.0668 91.3516 45.0098 92.3206 45.0098 93.5166Z" fill="#0E0E0F"/>
<path d="M45.0098 106.205C45.0098 107.401 44.0678 108.37 42.9048 108.37C41.7428 108.37 40.7998 107.401 40.7998 106.205C40.7998 105.009 41.7418 104.04 42.9048 104.04C44.0668 104.04 45.0098 105.01 45.0098 106.205Z" fill="#0E0E0F"/>
<path d="M40.9717 31.5045C41.7287 28.8385 42.8997 26.2915 44.4297 23.9805" stroke="#0E0E0F" stroke-miterlimit="10" stroke-linecap="round" stroke-linejoin="round"/>
<path d="M1.79052 139.868C2.24952 142.068 3.0425 144.352 4.8145 145.736C5.5735 146.329 6.5165 146.731 7.4785 146.693C8.4415 146.655 9.40849 146.123 9.81749 145.25C10.2345 144.36 10.0285 143.318 9.8055 142.361C9.2745 140.079 8.6945 137.808 8.0645 135.551C8.4545 136.335 8.8935 137.076 9.5255 137.692C9.7555 137.916 10.0145 138.126 10.3245 138.207C10.6345 138.288 11.0055 138.208 11.1885 137.944C11.6455 137.284 10.5285 135.485 10.2265 134.821C9.74949 133.774 9.20949 132.746 8.54149 131.807C7.37749 130.174 5.61152 128.649 3.47152 129.291C-0.306484 130.424 1.22052 137.135 1.79052 139.868Z" fill="white" stroke="#0E0E0F" stroke-miterlimit="10" stroke-linecap="round" stroke-linejoin="round"/>
<path d="M55.0408 191.678C56.1868 191.243 57.2338 190.456 57.7148 189.368C58.3768 187.872 57.8168 186.049 56.6258 184.893C55.4348 183.737 53.7258 183.18 52.0368 183.045C50.3478 182.91 48.6548 183.158 46.9798 183.406C45.9168 183.563 44.8528 183.72 43.7898 183.878C42.2558 184.105 40.6758 184.347 39.3488 185.119C34.3998 188 38.5738 191.87 42.5028 192.49C45.9848 193.039 51.7198 192.938 55.0408 191.678Z" fill="white" stroke="#0E0E0F" stroke-miterlimit="10" stroke-linecap="round" stroke-linejoin="round"/>
<path d="M48.4694 181.123C49.1904 182.38 49.5924 183.804 49.6314 185.238C49.6414 185.619 49.5644 186.088 49.1914 186.217C48.8184 186.345 48.4494 186.034 48.1954 185.743C47.3894 184.823 46.6824 183.825 46.0874 182.768C45.8684 182.379 45.5204 181.914 45.0734 182.024C44.9384 182.057 44.8224 182.143 44.7304 182.244C44.2014 182.826 44.4694 183.712 44.6364 184.467C44.8024 185.222 44.6444 186.257 43.8524 186.394C43.2794 186.493 42.7784 186.024 42.4484 185.564C41.8144 184.679 41.3824 183.662 41.1914 182.605" stroke="#0E0E0F" stroke-miterlimit="10" stroke-linecap="round" stroke-linejoin="round"/>
<path d="M15.6255 183.16C13.4945 183.758 6.8795 186.225 7.1145 189.157C7.4305 193.098 15.4065 192.647 18.0285 192.575C21.6235 192.477 30.4575 191.411 29.0645 185.786C27.7925 180.649 19.0225 182.208 15.6255 183.16Z" fill="white" stroke="#0E0E0F" stroke-miterlimit="10" stroke-linecap="round" stroke-linejoin="round"/>
<path d="M10.4424 183.181C10.5324 184.014 10.7694 184.83 11.1374 185.582C11.4574 186.235 12.0594 186.922 12.7714 186.772C13.3714 186.645 13.6944 185.969 13.7304 185.357C13.7664 184.745 13.6094 184.13 13.6714 183.52C13.7334 182.91 14.1244 182.252 14.7354 182.202C15.4594 182.143 15.9474 182.925 16.1644 183.618C16.3814 184.311 16.5864 185.128 17.2484 185.428C17.9674 185.754 18.8464 185.207 19.1384 184.474C19.4304 183.741 19.2884 182.911 19.0804 182.15C18.8724 181.389 18.6014 180.621 18.6484 179.833" stroke="#0E0E0F" stroke-miterlimit="10" stroke-linecap="round" stroke-linejoin="round"/>
<path d="M56.2266 40.8008C56.9696 42.7578 57.4036 44.8308 57.5056 46.9218" stroke="#0E0E0F" stroke-miterlimit="10" stroke-linecap="round" stroke-linejoin="round"/>
<path d="M57.6139 50.1143C57.2449 54.4713 55.2789 58.6743 52.1699 61.7493" stroke="#0E0E0F" stroke-miterlimit="10" stroke-linecap="round" stroke-linejoin="round"/>
<path d="M44.3076 128.998C50.5606 125.709 53.9146 118.997 56.3656 112.685" stroke="#0E0E0F" stroke-miterlimit="10" stroke-linecap="round" stroke-linejoin="round"/>
<path d="M33.0771 130.607C35.4571 131.439 38.0601 131.383 40.4651 130.679" stroke="#0E0E0F" stroke-miterlimit="10" stroke-linecap="round" stroke-linejoin="round"/>
<path d="M96.5155 9.83445C93.7595 4.57445 87.7796 0.853434 81.8066 1.00443C75.0096 1.17743 68.5045 6.28046 67.3815 13.1155C67.0035 15.4135 67.9816 17.7624 70.3966 18.4264C72.4606 18.9934 75.3276 17.7254 75.7076 15.4114C76.5076 10.5444 81.6386 8.14245 85.8876 10.7694C90.6056 13.6864 90.9316 19.8645 88.1036 24.2495C86.5336 26.6845 84.1336 28.5445 82.1326 30.6075C79.7656 33.0475 77.8835 35.7234 76.6145 38.8804C74.1345 45.0514 74.5055 51.9334 75.0325 58.4264C75.2215 60.7504 76.8816 62.7434 79.3496 62.7434C81.5396 62.7434 83.8565 60.7634 83.6665 58.4264C83.2225 52.9604 82.5766 46.9054 84.7336 41.6954C86.9706 36.2904 92.7126 33.2434 95.7406 28.3124C99.1246 22.8004 99.5295 15.5865 96.5155 9.83445Z" fill="white" stroke="#0E0E0F" stroke-miterlimit="10" stroke-linecap="round" stroke-linejoin="round"/>
<path d="M86.3265 72.9612C86.1535 72.1822 85.8115 71.4182 85.2745 70.7102C78.6065 61.9102 68.0555 77.7912 78.7185 80.5612C83.3365 81.7602 87.2565 77.1432 86.3265 72.9612Z" fill="white" stroke="#0E0E0F" stroke-miterlimit="10" stroke-linecap="round" stroke-linejoin="round"/>
<path d="M95.4041 16.75C96.0541 18.272 96.0261 20.07 95.3281 21.571" stroke="#0E0E0F" stroke-miterlimit="10" stroke-linecap="round" stroke-linejoin="round"/>
<path d="M81.4395 71.2373C83.0635 71.7083 84.1535 73.5523 83.7815 75.2023" stroke="#0E0E0F" stroke-miterlimit="10" stroke-linecap="round" stroke-linejoin="round"/>
<path d="M94.3042 25.165C92.8502 29.791 87.4162 31.987 85.1182 36.257" stroke="#0E0E0F" stroke-miterlimit="10" stroke-linecap="round" stroke-linejoin="round"/>
</svg>
