<svg width="424" height="96" viewBox="0 0 424 96" fill="none" xmlns="http://www.w3.org/2000/svg">
<path fill-rule="evenodd" clip-rule="evenodd" d="M5 5H419V91H5V5ZM6.48921 6.44944V89.5506H417.511V6.44944H6.48921Z" fill="#12715B"/>
<path d="M0 0H10V10H0V0Z" fill="white"/>
<path fill-rule="evenodd" clip-rule="evenodd" d="M8.5 1.5H1.5V8.5H8.5V1.5ZM0 0V10H10V0H0Z" fill="#12715B"/>
<path d="M414 0H424V10H414V0Z" fill="white"/>
<path fill-rule="evenodd" clip-rule="evenodd" d="M422.5 1.5H415.5V8.5H422.5V1.5ZM414 0V10H424V0H414Z" fill="#12715B"/>
<path d="M0 86H10V96H0V86Z" fill="white"/>
<path fill-rule="evenodd" clip-rule="evenodd" d="M8.5 87.5H1.5V94.5H8.5V87.5ZM0 86V96H10V86H0Z" fill="#12715B"/>
<path d="M414 86H424V96H414V86Z" fill="white"/>
<path fill-rule="evenodd" clip-rule="evenodd" d="M422.5 87.5H415.5V94.5H422.5V87.5ZM414 86V96H424V86H414Z" fill="#12715B"/>
</svg>
