<svg width="424" height="96" viewBox="0 0 424 96" fill="none" xmlns="http://www.w3.org/2000/svg">
<path fill-rule="evenodd" clip-rule="evenodd" d="M5 5H419V91H5V5ZM6.48921 6.44944V89.5506H417.511V6.44944H6.48921Z" fill="#12715B"/>
<path d="M0 0H10V10H0V0Z" fill="white"/>
<path fill-rule="evenodd" clip-rule="evenodd" d="M8.5 1.5H1.5V8.5H8.5V1.5ZM0 0V10H10V0H0Z" fill="#12715B"/>
<path d="M0 43H10V53H0V43Z" fill="white"/>
<path fill-rule="evenodd" clip-rule="evenodd" d="M8.5 44.5H1.5V51.5H8.5V44.5ZM0 43V53H10V43H0Z" fill="#12715B"/>
<path d="M414 0H424V10H414V0Z" fill="white"/>
<path fill-rule="evenodd" clip-rule="evenodd" d="M422.5 1.5H415.5V8.5H422.5V1.5ZM414 0V10H424V0H414Z" fill="#12715B"/>
<path d="M414 43H424V53H414V43Z" fill="white"/>
<path fill-rule="evenodd" clip-rule="evenodd" d="M422.5 44.5H415.5V51.5H422.5V44.5ZM414 43V53H424V43H414Z" fill="#12715B"/>
<path d="M207 0H217V10H207V0Z" fill="white"/>
<path fill-rule="evenodd" clip-rule="evenodd" d="M215.5 1.5H208.5V8.5H215.5V1.5ZM207 0V10H217V0H207Z" fill="#12715B"/>
<path d="M207 86H217V96H207V86Z" fill="white"/>
<path fill-rule="evenodd" clip-rule="evenodd" d="M215.5 87.5H208.5V94.5H215.5V87.5ZM207 86V96H217V86H207Z" fill="#12715B"/>
<path d="M0 86H10V96H0V86Z" fill="white"/>
<path fill-rule="evenodd" clip-rule="evenodd" d="M8.5 87.5H1.5V94.5H8.5V87.5ZM0 86V96H10V86H0Z" fill="#12715B"/>
<path d="M414 86H424V96H414V86Z" fill="white"/>
<path fill-rule="evenodd" clip-rule="evenodd" d="M422.5 87.5H415.5V94.5H422.5V87.5ZM414 86V96H424V86H414Z" fill="#12715B"/>
</svg>
