<svg version="1.2" xmlns="http://www.w3.org/2000/svg" viewBox="0 0 135 122" width="135" height="122"><style>.a{fill:#26224d}</style><path fill-rule="evenodd" class="a" d="m134.8 76c-0.3 2.1-1.5 3.1-3.1 3.7-2.2 0.8-4.5 1.4-6.7 2.1-9.3 3.2-15.4 9.5-18.6 18.7-2 5.6-2.5 11.4-3.1 17.2-0.3 2.7-0.9 3.8-2.4 3.9-1.4 0-2.5-1.1-3.1-3.5-1.7-6.2-3.2-12.4-5.1-18.5-1.7-5.4-4.5-10.2-9.7-12.9-2.9-1.6-6-2.6-9.3-2.9-2-0.2-4-0.7-6-1.1-1.3-0.3-2.2-1.2-2.4-2.6-0.1-1.4 0.9-2.2 2-2.8 1.1-0.6 2.3-1 3.4-1.5 10.7-4.4 17.9-12 20.9-23.2 1.1-4.2 1.8-8.6 2.7-12.9 0.2-1.1 0.3-2.2 0.7-3.2 0.7-1.7 2.5-1.8 3.4-0.2 0.4 0.7 0.5 1.5 0.7 2.2 1.6 5.6 2.7 11.2 4.9 16.5 4.3 10.9 12.8 16.8 24.5 18 1.4 0.1 2.9 0.3 4.2 0.9 0.9 0.4 1.6 1.5 2.1 2.1zm-14.8 1.3c-1-0.6-1.4-1-1.9-1.2-9.3-3.7-15.5-10.4-19.1-19.7-0.3-0.9-0.9-1.7-1.6-3-0.6 1.2-1 1.7-1.2 2.2-2.8 8.9-8.4 15.6-15.9 20.8-0.7 0.5-1.3 1.1-2.3 2.1 1.7 0.6 2.9 1.2 4.2 1.6 5.5 1.9 9.9 5.2 12.7 10.4 1.4 2.7 2.4 5.6 3.6 8.4 0.4 0.9 0.3 2.3 2.2 2.6 1.5-5.1 3.9-9.7 7.1-14 3.2-4.2 7.4-7.3 12.2-10.2z"/><path fill-rule="evenodd" class="a" d="m32.4 81.1c-0.6-0.6-1.6-1.2-2-2.1-0.8-1.7-1.4-3.6-1.7-5.5-1.3-7.4-4.6-13.8-8.9-19.9-3.3-4.7-8.2-6.8-13.5-8.2-1.3-0.4-2.7-0.5-4-0.9-1.3-0.3-2.2-1.2-2.1-2.6 0-1.6 1.1-2.2 2.4-2.2 6.1-0.3 10.9-3.2 15.3-7.2 3-2.8 5.1-6 6.4-9.8 1.9-5.6 3.5-11.4 3.7-17.4 0-1.1 0.3-2.3 0.8-3.2 0.3-0.6 1.2-1.3 1.8-1.2 0.7 0.1 1.7 0.8 1.9 1.5 0.5 1.6 0.5 3.3 1 4.9q1.1 4.6 2.6 9c0.5 1.5 1.5 2.9 2 4.3 2.8 7.9 9 11.8 16.5 14.1 1.3 0.4 2.7 0.5 3.9 1.2 0.8 0.4 1.8 1.6 1.8 2.4-0.1 0.8-1.2 1.7-2 2.4-0.3 0.3-1 0.4-1.6 0.5-9.2 1.7-15.3 6.9-18.4 15.9-1.9 5.5-3.1 11.2-2.8 17.2 0 1.3 0 2.7-0.1 4-0.1 1.5-1 2.5-3 2.8zm-1.5-62.9q-0.4 0.1-0.9 0.1c-1.1 3-2 6.2-3.5 9-1.5 2.9-3.5 5.7-5.7 8.2-2.1 2.3-4.7 4.2-7.2 6.4 0.6 0.6 0.9 1 1.3 1.1 5.4 2.5 8.9 6.7 11.6 11.8q1.3 2.3 2.7 4.6c0.4 0.6 1 1.1 1.9 2.1 1.2-3.4 2-6.4 3.4-9.1 1.4-2.8 3.1-5.5 5.2-7.8 2.1-2.3 4.8-4 7.6-6.2-1.2-0.8-2.1-1.6-3-2.3-5.2-3.3-9.3-7.4-11.1-13.5-0.5-1.5-1.5-2.9-2.3-4.4z"/></svg>