<svg width="24" height="24" viewBox="0 0 24 24" fill="none" xmlns="http://www.w3.org/2000/svg">
<path d="M12 7L21 7V3L12 3V7Z" fill="white"/>
<path d="M3 7L12 7V3L3 3V7Z" fill="white"/>
<path d="M17 7V21H21V7H17Z" fill="white"/>
<path d="M12.5 14C13.8807 14 15 12.8807 15 11.5C15 10.1193 13.8807 9 12.5 9C11.1193 9 10 10.1193 10 11.5C10 12.8807 11.1193 14 12.5 14Z" fill="#93E85F"/>
<path d="M7.5 19C8.88071 19 10 17.8807 10 16.5C10 15.1193 8.88071 14 7.5 14C6.11929 14 5 15.1193 5 16.5C5 17.8807 6.11929 19 7.5 19Z" fill="#93E85F"/>
</svg>
