<svg width="49" height="48" viewBox="0 0 49 48" fill="none" xmlns="http://www.w3.org/2000/svg">
<path fill-rule="evenodd" clip-rule="evenodd" d="M7.66658 12.4888C8.65328 13.1481 9.81332 13.5 11 13.5C12.5908 13.4982 14.1158 12.8655 15.2407 11.7407C16.3655 10.6158 16.9982 9.09075 17 7.5C17 6.31331 16.6481 5.15328 15.9888 4.16658C15.3295 3.17989 14.3925 2.41085 13.2961 1.95673C12.1997 1.5026 10.9933 1.38378 9.82946 1.61529C8.66558 1.8468 7.59648 2.41825 6.75736 3.25736C5.91825 4.09648 5.3468 5.16558 5.11529 6.32946C4.88378 7.49335 5.0026 8.69975 5.45673 9.7961C5.91085 10.8925 6.67989 11.8295 7.66658 12.4888ZM9.33329 5.00559C9.82664 4.67595 10.4067 4.5 11 4.5C11.7954 4.50084 12.558 4.81717 13.1204 5.3796C13.6828 5.94203 13.9992 6.70461 14 7.5C14 8.09335 13.8241 8.67337 13.4944 9.16671C13.1648 9.66006 12.6962 10.0446 12.1481 10.2716C11.5999 10.4987 10.9967 10.5581 10.4147 10.4424C9.83279 10.3266 9.29824 10.0409 8.87868 9.62132C8.45912 9.20177 8.1734 8.66722 8.05765 8.08527C7.94189 7.50333 8.0013 6.90013 8.22836 6.35195C8.45543 5.80377 8.83994 5.33524 9.33329 5.00559ZM30.5 45H26C25.2046 44.9992 24.442 44.6828 23.8796 44.1204C23.3172 43.558 23.0008 42.7954 23 42V34.5H26V42H30.5V34.5H33.5V28.5C33.4996 28.1023 33.3414 27.721 33.0602 27.4398C32.779 27.1586 32.3977 27.0004 32 27H18.9189L15.9189 18H6.5C6.10231 18.0004 5.72103 18.1586 5.43982 18.4398C5.15861 18.721 5.00044 19.1023 5 19.5V28.5H8V42H14V31.5H17V42C16.9992 42.7954 16.6828 43.558 16.1204 44.1204C15.558 44.6828 14.7954 44.9992 14 45H8C7.20461 44.9992 6.44203 44.6828 5.8796 44.1204C5.31717 43.558 5.00083 42.7954 5 42V31.5C4.20461 31.4992 3.44203 31.1828 2.8796 30.6204C2.31717 30.058 2.00083 29.2954 2 28.5V19.5C2.00131 18.3069 2.47584 17.1631 3.31947 16.3195C4.1631 15.4758 5.30693 15.0013 6.5 15H15.9189C16.5487 14.9995 17.1626 15.1974 17.6736 15.5656C18.1845 15.9337 18.5664 16.4535 18.7652 17.0511L21.0811 24H32C33.1931 24.0013 34.3369 24.4758 35.1805 25.3195C36.0242 26.1631 36.4987 27.3069 36.5 28.5V34.5C36.4992 35.2954 36.1828 36.058 35.6204 36.6204C35.058 37.1828 34.2954 37.4992 33.5 37.5V42C33.4992 42.7954 33.1828 43.558 32.6204 44.1204C32.058 44.6828 31.2954 44.9992 30.5 45ZM42.5 45H39.5V28.5H44V19.5C43.9996 19.1023 43.8414 18.721 43.5602 18.4398C43.279 18.1586 42.8977 18.0004 42.5 18H36.5V15H42.5C43.6931 15.0013 44.8369 15.4758 45.6805 16.3195C46.5242 17.1631 46.9987 18.3069 47 19.5V28.5C46.9992 29.2954 46.6828 30.058 46.1204 30.6204C45.558 31.1828 44.7954 31.4992 44 31.5H42.5V45ZM38 13.5C36.8133 13.5 35.6533 13.1481 34.6666 12.4888C33.6799 11.8295 32.9109 10.8925 32.4567 9.7961C32.0026 8.69975 31.8838 7.49335 32.1153 6.32946C32.3468 5.16558 32.9182 4.09648 33.7574 3.25736C34.5965 2.41825 35.6656 1.8468 36.8295 1.61529C37.9933 1.38378 39.1997 1.5026 40.2961 1.95673C41.3925 2.41085 42.3295 3.17989 42.9888 4.16658C43.6481 5.15328 44 6.31331 44 7.5C43.9982 9.09075 43.3655 10.6158 42.2407 11.7407C41.1158 12.8655 39.5908 13.4982 38 13.5ZM38 4.5C37.4067 4.5 36.8266 4.67595 36.3333 5.00559C35.8399 5.33524 35.4554 5.80377 35.2284 6.35195C35.0013 6.90013 34.9419 7.50333 35.0576 8.08527C35.1734 8.66722 35.4591 9.20177 35.8787 9.62132C36.2982 10.0409 36.8328 10.3266 37.4147 10.4424C37.9967 10.5581 38.5999 10.4987 39.1481 10.2716C39.6962 10.0446 40.1648 9.66006 40.4944 9.16671C40.8241 8.67337 41 8.09335 41 7.5C40.9992 6.70461 40.6828 5.94203 40.1204 5.3796C39.558 4.81717 38.7954 4.50084 38 4.5ZM25.3333 21.6152C26.1966 22.1921 27.2117 22.5 28.25 22.5C29.6419 22.4984 30.9763 21.9447 31.9605 20.9605C32.9447 19.9763 33.4984 18.6419 33.5 17.25C33.5 16.2117 33.1921 15.1966 32.6152 14.3333C32.0383 13.4699 31.2184 12.797 30.2591 12.3996C29.2998 12.0023 28.2442 11.8983 27.2258 12.1009C26.2074 12.3035 25.2719 12.8035 24.5377 13.5377C23.8035 14.2719 23.3035 15.2074 23.1009 16.2258C22.8983 17.2442 23.0023 18.2998 23.3996 19.2591C23.797 20.2184 24.4699 21.0383 25.3333 21.6152ZM27 15.3792C27.37 15.132 27.805 15 28.25 15C28.8465 15.0007 29.4184 15.2379 29.8402 15.6598C30.2621 16.0816 30.4993 16.6535 30.5 17.25C30.5 17.695 30.368 18.13 30.1208 18.5C29.8736 18.87 29.5222 19.1584 29.111 19.3287C28.6999 19.499 28.2475 19.5436 27.8111 19.4568C27.3746 19.37 26.9737 19.1557 26.659 18.841C26.3443 18.5263 26.1301 18.1254 26.0432 17.689C25.9564 17.2525 26.001 16.8001 26.1713 16.389C26.3416 15.9778 26.63 15.6264 27 15.3792Z" fill="#0F8465"/>
</svg>
