<svg width="49" height="48" viewBox="0 0 49 48" fill="none" xmlns="http://www.w3.org/2000/svg">
<path d="M24.5 3C20.3466 3 16.2865 4.23163 12.833 6.53914C9.3796 8.84665 6.68798 12.1264 5.09854 15.9636C3.5091 19.8009 3.09323 24.0233 3.90352 28.0969C4.71381 32.1705 6.71386 35.9123 9.65077 38.8492C12.5877 41.7861 16.3295 43.7862 20.4031 44.5965C24.4767 45.4068 28.6991 44.9909 32.5364 43.4015C36.3736 41.812 39.6534 39.1204 41.9609 35.667C44.2684 32.2135 45.5 28.1534 45.5 24C45.5 18.4305 43.2875 13.089 39.3493 9.15076C35.411 5.21249 30.0696 3 24.5 3ZM42.5 22.5H33.5C33.3249 16.9756 31.8937 11.5637 29.315 6.675C32.8679 7.64685 36.037 9.68527 38.3948 12.5151C40.7526 15.345 42.1855 18.8301 42.5 22.5ZM24.5 42C24.1654 42.0225 23.8296 42.0225 23.495 42C20.3874 37.0443 18.6628 31.3472 18.5 25.5H30.5C30.3508 31.343 28.6417 37.0398 25.55 42C25.2004 42.0245 24.8496 42.0245 24.5 42ZM18.5 22.5C18.6492 16.657 20.3583 10.9602 23.45 6C24.1179 5.92495 24.7921 5.92495 25.46 6C28.5834 10.9512 30.3237 16.6486 30.5 22.5H18.5ZM19.64 6.675C17.077 11.5675 15.6612 16.9792 15.5 22.5H6.50001C6.81456 18.8301 8.24742 15.345 10.6052 12.5151C12.963 9.68527 16.1322 7.64685 19.685 6.675H19.64ZM6.57501 25.5H15.575C15.7315 31.0196 17.1422 36.4313 19.7 41.325C16.1583 40.3427 13.0022 38.2998 10.6558 35.4708C8.30951 32.6417 6.88543 29.1623 6.57501 25.5ZM29.315 41.325C31.8937 36.4363 33.3249 31.0244 33.5 25.5H42.5C42.1855 29.1699 40.7526 32.655 38.3948 35.4849C36.037 38.3147 32.8679 40.3532 29.315 41.325Z" fill="#0F8465"/>
</svg>
