<svg width="24" height="24" viewBox="0 0 24 24" fill="none" xmlns="http://www.w3.org/2000/svg">
<path d="M12 8.68421L3 3V9.63158L12 15.3158V8.68421Z" fill="#2D2E2E"/>
<path d="M12 8.68421L3 3V9.63158L12 15.3158V8.68421Z" fill="#2D2E2E"/>
<path d="M12 15.3162L3 21.0004V14.3688L12 8.68457V15.3162Z" fill="#2D2E2E"/>
<path d="M12 15.3162L3 21.0004V14.3688L12 8.68457V15.3162Z" fill="#1F9176"/>
<path d="M12 8.68421L21 3V9.63158L12 15.3158V8.68421Z" fill="#2D2E2E"/>
<path d="M12 8.68421L21 3V9.63158L12 15.3158V8.68421Z" fill="#1F9176"/>
<path d="M12 15.3162L21 21.0004V14.3688L12 8.68457V15.3162Z" fill="#2D2E2E"/>
<path d="M12 15.3162L21 21.0004V14.3688L12 8.68457V15.3162Z" fill="#2D2E2E"/>
</svg>
