<svg width="179" height="48" viewBox="0 0 179 48" fill="none" xmlns="http://www.w3.org/2000/svg">
<g opacity="0.9">
<path d="M25.8001 35.7873C22.3001 34.4873 18.7001 34.2873 15.4001 35.1873C13.1001 35.7873 10.9001 36.9873 8.90012 38.4873L7.50009 39.6873L7.1001 40.0873L8.00009 40.8873C8.10009 40.8873 8.1001 40.9873 8.2001 41.0873C8.4001 41.2873 8.60012 41.3873 8.90012 41.5873L9.50009 41.9873L10.1001 41.4873C10.2001 41.3873 10.4001 41.1873 10.6001 41.0873C12.4001 39.5873 14.4001 38.5873 16.5001 38.0873C19.2001 37.3873 22.1001 37.4873 25.0001 38.5873C27.4001 39.4873 32.3001 40.5873 38.2001 38.0873L38.4001 37.9873L38.7001 37.6873C38.7001 37.5873 38.8001 37.5873 38.9001 37.4873C39.4001 36.8873 39.9001 36.2873 40.3001 35.5873L42.3001 32.4873L39.1001 34.2873C34.4001 36.8873 30.1001 37.3873 25.8001 35.7873Z" fill="white"/>
<path d="M12.1 24.9876C14.8 24.2876 17.7 24.3876 20.6 25.4876C23.8 26.6876 32 28.3876 41.2 20.0876L42.7 18.5876L42.8 18.4876L43.2 18.0876L43 17.5876C42.9 17.1876 42.7 16.6876 42.5 16.1876L42 14.7876L41 15.7876C40.9 15.9876 40.7 16.0876 40.5 16.2876C36.1 20.7876 29.3 25.3876 21.5 22.5876C18 21.2876 14.4 21.0876 11.1 21.9876C7.90001 22.8876 5.1 24.5876 2.5 26.9876V26.8876L1 28.4876C1 28.5876 0.900018 28.5876 0.800018 28.6876L0.5 28.9876L0.600006 29.3876C0.700006 29.8876 0.9 30.3876 1 30.8876L1.60001 32.4876L2.60001 31.1876C2.70001 30.9876 2.9 30.8876 3 30.6876C5.1 28.7876 8.00001 26.0876 12.1 24.9876Z" fill="white"/>
<path d="M2.40002 23.1874C4.70002 20.7874 7.30001 19.2874 10.1 18.4874C12.8 17.7874 15.7 17.8874 18.6 18.9874C27.6 22.2874 35.4 16.8874 38.8 13.9874L40.1 12.6874L40.6 12.2874L40.2 11.6874C39.9 11.3874 39.7 10.9874 39.4 10.5874L38.8 9.78735L38.1 10.4874C38 10.5874 37.8 10.7874 37.7 10.8874C33.5 14.8874 27 18.9874 19.6 16.1874C16.1 14.8874 12.5 14.6874 9.20001 15.5874C7.10001 16.1874 5.10001 17.1874 3.10001 18.4874L1 20.1874C0.8 20.3874 0.7 20.4874 0.5 20.6874L0.300018 20.8874V21.1874C0.200018 21.8874 0.200006 22.5874 0.100006 23.1874L0 25.6874L1.70001 23.8874C1.90001 23.6874 2.10002 23.3874 2.40002 23.1874Z" fill="white"/>
<path d="M28.7 42.5875L28.5 43.1875L28.7 42.5875C28.4 42.4875 28.2 42.3875 27.9 42.2875C24.4 40.9875 20.8 40.7875 17.5 41.6875C16.8 41.8875 16.1 42.0875 15.4 42.3875L13 43.4875L12.4 43.7875L14.4 44.4875C15 44.6875 15.6 44.8875 16.2 45.0875L16.5 45.1875L16.8 45.0875C17.1 44.9875 17.4 44.7875 17.7 44.7875C17.9 44.7875 18.1 44.6875 18.3 44.5875C20.7 43.9875 23.3 43.9875 26.1 44.8875C26.4 44.9875 26.6 45.0875 26.9 45.1875L27.4 45.3875L27.7 45.2875C28.4 45.0875 29.2 44.8875 29.8 44.5875L32.6 43.5875L29.7 42.8875C29.4 42.7875 29 42.6875 28.7 42.5875Z" fill="white"/>
<path d="M44 21.8875L42.5 23.3875C42.3 23.5875 42.1001 23.7875 41.9001 23.9875C37.8001 27.8875 31.2 32.0874 23.8 29.2874C20.3 27.9874 16.7001 27.7875 13.4001 28.6875C10.3001 29.5875 7.50003 31.1875 5.00003 33.5875L3.70004 34.9875L3.30005 35.4875L3.70004 36.0875C4.00004 36.4875 4.20005 36.7875 4.40005 37.1875L5.00003 38.0875L5.70004 37.1875C5.80004 37.0875 6.00004 36.8874 6.10004 36.7874C8.50004 34.1874 11.1 32.5874 14.1 31.7874C16.8 31.0874 19.7 31.1874 22.6 32.2874C25.1 33.1874 27.7 33.4875 30.3 33.1875C34.9 32.6875 39.5001 30.0875 42.9001 27.1875C43.1001 26.9875 43.3 26.8875 43.5 26.6875L43.8 26.3875V26.0875C43.8 25.4875 43.9001 24.7875 43.9001 24.1875L44 21.8875Z" fill="white"/>
<path d="M6.00018 12.6877L5.7002 12.0876L6.00018 12.6877C6.60018 12.3877 7.30021 12.1876 7.90021 11.9876C10.6002 11.2876 13.5002 11.3876 16.4002 12.4876C18.3002 13.1876 20.2002 13.4876 22.3002 13.4876C26.5002 13.4876 30.7002 11.9876 34.6002 9.08765L36.1002 7.88763L36.6002 7.48764L35.7002 6.78763C35.4002 6.48763 35.0002 6.18764 34.6002 5.98764L34.0002 5.58765L33.5002 5.98764C33.3002 6.08764 33.2002 6.28763 33.0002 6.38763C27.7002 10.3876 22.4002 11.4876 17.4002 9.58765C13.8002 8.28765 10.2002 7.98765 6.60019 9.08765C6.30019 9.18765 6.00019 9.28763 5.60019 9.38763L5.40021 9.48764L5.10019 9.78763C5.10019 9.88763 5.00021 9.88764 4.90021 9.98764C4.50021 10.5876 4.00019 11.0877 3.60019 11.6877L1.7002 14.5876L4.8002 12.9876C5.3002 12.9876 5.70018 12.7877 6.00018 12.6877Z" fill="white"/>
<path d="M14.2 5.88748L14.5 5.98749C15.8 6.48749 17.8 6.98749 20.3 6.98749C22.9 6.98749 25.4 6.38748 27.9 5.38748L31 3.88748L28.9 3.1875C28.3 2.9875 27.7 2.7875 27 2.6875H26.7L26.4 2.78748C26.1 2.88748 25.8 3.0875 25.5 3.1875C22.5 4.2875 19.5 4.4875 16.6 3.6875C16.3 3.5875 16 3.48748 15.7 3.38748L15.4 3.28748L15.1 3.38748C14.5 3.58748 13.9 3.78749 13.3 4.08749L11 5.08749L13.4 5.78748C13.6 5.68748 13.9 5.78748 14.2 5.88748Z" fill="white"/>
<path d="M61.2798 33.9091H56.6661L63.696 13.5454H69.2443L76.2642 33.9091H71.6505L66.5497 18.1988H66.3906L61.2798 33.9091ZM60.9914 25.9048H71.8892V29.2656H60.9914V25.9048Z" fill="white"/>
<path d="M82.8714 13.5454V33.9091H78.6356V13.5454H82.8714Z" fill="white"/>
<path d="M94.3881 18.6363V21.8182H85.1906V18.6363H94.3881ZM87.2787 14.9773H91.5145V29.2159C91.5145 29.607 91.5742 29.9119 91.6935 30.1307C91.8128 30.3428 91.9785 30.4919 92.1906 30.5781C92.4094 30.6643 92.6613 30.7074 92.9463 30.7074C93.1452 30.7074 93.344 30.6908 93.5429 30.6576C93.7418 30.6179 93.8942 30.588 94.0003 30.5682L94.6665 33.7201C94.4544 33.7864 94.1561 33.8627 93.7716 33.9488C93.3871 34.0416 92.9198 34.098 92.3696 34.1179C91.3488 34.1577 90.4539 34.0218 89.685 33.7102C88.9226 33.3987 88.3294 32.9148 87.9051 32.2585C87.4809 31.6023 87.2721 30.7737 87.2787 29.7727V14.9773Z" fill="white"/>
<path d="M102.728 32.8054V18.7258H106.288V32.8054H102.728ZM97.468 27.5454V23.9858H111.548V27.5454H97.468Z" fill="white"/>
<path d="M126.84 19.402C126.761 18.5999 126.419 17.9768 125.816 17.5326C125.213 17.0885 124.394 16.8665 123.36 16.8665C122.657 16.8665 122.064 16.9659 121.58 17.1648C121.096 17.357 120.725 17.6255 120.467 17.9701C120.215 18.3148 120.089 18.7059 120.089 19.1434C120.075 19.508 120.152 19.8262 120.317 20.098C120.49 20.3698 120.725 20.6051 121.023 20.804C121.322 20.9962 121.666 21.1652 122.057 21.3111C122.449 21.4503 122.866 21.5696 123.31 21.669L125.14 22.1065C126.028 22.3054 126.843 22.5705 127.586 22.902C128.328 23.2334 128.971 23.6411 129.515 24.125C130.058 24.6089 130.479 25.179 130.778 25.8352C131.083 26.4915 131.238 27.2438 131.245 28.0923C131.238 29.3385 130.92 30.419 130.29 31.3338C129.667 32.2419 128.766 32.9479 127.586 33.4517C126.413 33.9488 124.997 34.1974 123.34 34.1974C121.696 34.1974 120.264 33.9455 119.045 33.4417C117.832 32.938 116.884 32.1922 116.201 31.2045C115.525 30.2102 115.17 28.9806 115.137 27.5156H119.303C119.35 28.1984 119.545 28.7684 119.89 29.2258C120.241 29.6766 120.709 30.018 121.292 30.25C121.882 30.4754 122.548 30.588 123.29 30.588C124.02 30.588 124.653 30.482 125.19 30.2699C125.733 30.0577 126.154 29.7628 126.452 29.3849C126.751 29.0071 126.9 28.5729 126.9 28.0824C126.9 27.625 126.764 27.2405 126.492 26.929C126.227 26.6174 125.836 26.3523 125.319 26.1335C124.808 25.9148 124.182 25.7159 123.44 25.5369L121.222 24.9801C119.505 24.5625 118.15 23.9095 117.155 23.0213C116.161 22.133 115.667 20.9365 115.674 19.4318C115.667 18.1988 115.995 17.1217 116.658 16.2003C117.328 15.2789 118.246 14.5596 119.413 14.0426C120.579 13.5255 121.905 13.267 123.39 13.267C124.901 13.267 126.22 13.5255 127.347 14.0426C128.481 14.5596 129.362 15.2789 129.992 16.2003C130.622 17.1217 130.947 18.1889 130.967 19.402H126.84Z" fill="white"/>
<path d="M138.297 25.0795V33.9091H134.061V13.5454H138.178V21.3309H138.357C138.702 20.4294 139.258 19.7235 140.027 19.213C140.796 18.696 141.761 18.4375 142.921 18.4375C143.981 18.4375 144.906 18.6695 145.695 19.1335C146.49 19.5909 147.107 20.2505 147.544 21.1122C147.988 21.9673 148.207 22.9915 148.201 24.1846V33.9091H143.965V24.9403C143.971 23.999 143.733 23.2666 143.249 22.7429C142.772 22.2192 142.102 21.9574 141.24 21.9574C140.664 21.9574 140.153 22.08 139.709 22.3253C139.272 22.5705 138.927 22.9285 138.675 23.3991C138.43 23.8631 138.304 24.4233 138.297 25.0795Z" fill="white"/>
<path d="M151.534 33.9091V18.6363H155.77V33.9091H151.534ZM153.662 16.6676C153.032 16.6676 152.492 16.4588 152.041 16.0412C151.597 15.6169 151.375 15.1098 151.375 14.5199C151.375 13.9365 151.597 13.4361 152.041 13.0184C152.492 12.5942 153.032 12.3821 153.662 12.3821C154.292 12.3821 154.829 12.5942 155.273 13.0184C155.723 13.4361 155.949 13.9365 155.949 14.5199C155.949 15.1098 155.723 15.6169 155.273 16.0412C154.829 16.4588 154.292 16.6676 153.662 16.6676Z" fill="white"/>
<path d="M168.89 18.6363V21.8182H157.95V18.6363H168.89ZM160.108 33.9091V17.5326C160.108 16.4256 160.323 15.5076 160.754 14.7784C161.191 14.0492 161.788 13.5023 162.544 13.1378C163.299 12.7732 164.158 12.5909 165.119 12.5909C165.769 12.5909 166.362 12.6406 166.899 12.74C167.442 12.8395 167.847 12.929 168.112 13.0085L167.356 16.1903C167.19 16.1373 166.985 16.0876 166.74 16.0412C166.501 15.9948 166.256 15.9716 166.004 15.9716C165.381 15.9716 164.947 16.1174 164.701 16.4091C164.456 16.6941 164.333 17.0951 164.333 17.6122V33.9091H160.108Z" fill="white"/>
<path d="M178.087 18.6363V21.8182H168.89V18.6363H178.087ZM170.978 14.9773H175.214V29.2159C175.214 29.607 175.273 29.9119 175.393 30.1307C175.512 30.3428 175.678 30.4919 175.89 30.5781C176.109 30.6643 176.361 30.7074 176.646 30.7074C176.844 30.7074 177.043 30.6908 177.242 30.6576C177.441 30.6179 177.593 30.588 177.7 30.5682L178.366 33.7201C178.154 33.7864 177.855 33.8627 177.471 33.9488C177.086 34.0416 176.619 34.098 176.069 34.1179C175.048 34.1577 174.153 34.0218 173.384 33.7102C172.622 33.3987 172.029 32.9148 171.604 32.2585C171.18 31.6023 170.971 30.7737 170.978 29.7727V14.9773Z" fill="white"/>
</g>
</svg>
