<svg width="152" height="48" viewBox="0 0 152 48" fill="none" xmlns="http://www.w3.org/2000/svg">
<path fill-rule="evenodd" clip-rule="evenodd" d="M34.5868 8.40049L24.9 5.80493C24.2313 5.62574 23.6892 6.04172 23.6892 6.73404V16.7625C23.6892 17.4549 24.2313 18.1614 24.9 18.3405L34.5868 20.9361C35.2555 21.1153 35.7977 20.6993 35.7977 20.007V9.9785C35.7977 9.28617 35.2555 8.57968 34.5868 8.40049ZM24.9 2.04424C22.2251 1.3275 20.0566 2.99141 20.0566 5.7607V15.7892C20.0566 18.5585 22.2251 21.3845 24.9 22.1012L34.5868 24.6968C37.2617 25.4135 39.4302 23.7496 39.4302 20.9803V10.9518C39.4302 8.18254 37.2617 5.35655 34.5868 4.63981L24.9 2.04424Z" fill="#0F8465"/>
<path fill-rule="evenodd" clip-rule="evenodd" d="M26.9812 16.5707L14.8727 13.3263C14.204 13.1471 13.6618 13.5631 13.6618 14.2554V26.791C13.6618 27.4833 14.204 28.1898 14.8727 28.369L26.9812 31.6135C27.6499 31.7927 28.192 31.3767 28.192 30.6844V18.1488C28.192 17.4564 27.6499 16.7499 26.9812 16.5707ZM14.8727 9.5656C12.1978 8.84886 10.0293 10.5128 10.0293 13.2821V25.8177C10.0293 28.587 12.1978 31.413 14.8727 32.1297L26.9812 35.3742C29.6561 36.0909 31.8245 34.427 31.8245 31.6577V19.1221C31.8245 16.3528 29.6561 13.5268 26.9812 12.8101L14.8727 9.5656Z" fill="#0F8465"/>
<path fill-rule="evenodd" clip-rule="evenodd" d="M19.3736 24.741L4.84339 20.8477C4.17466 20.6685 3.63254 21.0844 3.63254 21.7768V36.8195C3.63254 37.5118 4.17466 38.2183 4.84339 38.3975L19.3736 42.2909C20.0423 42.47 20.5844 42.0541 20.5844 41.3617V26.319C20.5844 25.6267 20.0423 24.9202 19.3736 24.741ZM4.84339 17.087C2.16846 16.3702 0 18.0341 0 20.8034V35.8462C0 38.6155 2.16846 41.4414 4.84339 42.1582L19.3736 46.0515C22.0485 46.7683 24.2169 45.1044 24.2169 42.3351V27.2923C24.2169 24.523 22.0485 21.6971 19.3736 20.9803L4.84339 17.087Z" fill="#0F8465"/>
<path d="M53.64 32.608C54.7787 33.1307 56.0853 33.392 57.56 33.392C59.0347 33.392 60.3227 33.14 61.424 32.636C62.544 32.1134 63.412 31.3854 64.028 30.452C64.644 29.5 64.952 28.3894 64.952 27.12V26.784C64.952 25.608 64.6813 24.656 64.14 23.928C63.5987 23.1814 62.908 22.6307 62.068 22.276C61.2467 21.9214 60.3973 21.744 59.52 21.744H58.484V21.296L64.392 18.16V13.4H50.504V16.592H60.416V17.04L54.088 20.4V24.32H58.008C58.6427 24.32 59.212 24.4134 59.716 24.6C60.22 24.768 60.6213 25.0387 60.92 25.412C61.2187 25.7854 61.368 26.2707 61.368 26.868V27.148C61.368 28.0254 61.032 28.7534 60.36 29.332C59.7067 29.9107 58.7733 30.2 57.56 30.2C56.3653 30.2 55.404 29.892 54.676 29.276C53.948 28.6414 53.584 27.8014 53.584 26.756V26.364H50V26.868C50 28.212 50.3173 29.3787 50.952 30.368C51.6053 31.3387 52.5013 32.0854 53.64 32.608Z" fill="#121212"/>
<path fill-rule="evenodd" clip-rule="evenodd" d="M77.8432 14.156C76.9098 13.652 75.8272 13.4 74.5952 13.4H66.5312V33H70.2272V25.832H74.5952C75.7898 25.832 76.8538 25.5894 77.7872 25.104C78.7392 24.6 79.4858 23.9 80.0272 23.004C80.5872 22.0894 80.8672 21.0254 80.8672 19.812V19.42C80.8672 18.188 80.5965 17.124 80.0552 16.228C79.5325 15.332 78.7952 14.6414 77.8432 14.156ZM76.3592 21.744C75.8178 22.2294 75.1085 22.472 74.2312 22.472H70.2272V16.76H74.2312C75.1085 16.76 75.8178 17.0027 76.3592 17.488C76.9005 17.9734 77.1712 18.636 77.1712 19.476V19.756C77.1712 20.596 76.9005 21.2587 76.3592 21.744Z" fill="#121212"/>
<path fill-rule="evenodd" clip-rule="evenodd" d="M88.4215 33.392C87.0401 33.392 85.7988 33.112 84.6975 32.552C83.5961 31.992 82.7281 31.18 82.0935 30.116C81.4588 29.052 81.1415 27.7734 81.1415 26.28V25.832C81.1415 24.3387 81.4588 23.06 82.0935 21.996C82.7281 20.932 83.5961 20.12 84.6975 19.56C85.7988 19 87.0401 18.72 88.4215 18.72C89.8028 18.72 91.0441 19 92.1455 19.56C93.2468 20.12 94.1148 20.932 94.7495 21.996C95.3841 23.06 95.7015 24.3387 95.7015 25.832V26.28C95.7015 27.7734 95.3841 29.052 94.7495 30.116C94.1148 31.18 93.2468 31.992 92.1455 32.552C91.0441 33.112 89.8028 33.392 88.4215 33.392ZM88.4215 30.256C89.5041 30.256 90.4001 29.9107 91.1095 29.22C91.8188 28.5107 92.1735 27.5027 92.1735 26.196V25.916C92.1735 24.6094 91.8188 23.6107 91.1095 22.92C90.4188 22.2107 89.5228 21.856 88.4215 21.856C87.3388 21.856 86.4428 22.2107 85.7335 22.92C85.0241 23.6107 84.6695 24.6094 84.6695 25.916V26.196C84.6695 27.5027 85.0241 28.5107 85.7335 29.22C86.4428 29.9107 87.3388 30.256 88.4215 30.256Z" fill="#121212"/>
<path d="M102.542 19.448C102.075 19.7094 101.739 20.12 101.534 20.68H101.03V19.112H97.558V33H101.086V25.104C101.086 24.1147 101.375 23.3867 101.954 22.92C102.533 22.4347 103.27 22.192 104.166 22.192H105.902V22.19H109.5V29.864C109.5 30.816 109.78 31.5814 110.34 32.16C110.918 32.72 111.665 33 112.58 33H116.5V30.088H113.812C113.289 30.088 113.028 29.808 113.028 29.248V22.19H116.836V19.06H113.028V14.8H109.5V19.06H105.902V19.056H104.222C103.587 19.056 103.027 19.1867 102.542 19.448Z" fill="#121212"/>
<path fill-rule="evenodd" clip-rule="evenodd" d="M120.281 32.888C121.065 33.224 121.952 33.392 122.941 33.392C123.912 33.392 124.677 33.252 125.237 32.972C125.797 32.692 126.208 32.3747 126.469 32.02C126.73 31.6467 126.898 31.348 126.973 31.124H127.505V31.152C127.505 31.712 127.729 32.16 128.177 32.496C128.625 32.832 129.194 33 129.885 33H132.237V30.088H131.117C130.594 30.088 130.333 29.808 130.333 29.248V24.068C130.333 22.332 129.801 21.0067 128.737 20.092C127.673 19.1774 126.226 18.72 124.397 18.72C123.202 18.72 122.185 18.9067 121.345 19.28C120.524 19.6347 119.861 20.1107 119.357 20.708C118.872 21.2867 118.517 21.9307 118.293 22.64L121.541 23.732C121.672 23.0974 121.952 22.584 122.381 22.192C122.81 21.7814 123.464 21.576 124.341 21.576C125.237 21.576 125.89 21.7907 126.301 22.22C126.712 22.6307 126.917 23.1627 126.917 23.816V24.6H123.109C122.064 24.6 121.13 24.768 120.309 25.104C119.506 25.4214 118.872 25.9067 118.405 26.56C117.957 27.1947 117.733 27.988 117.733 28.94C117.733 29.892 117.957 30.704 118.405 31.376C118.872 32.0294 119.497 32.5334 120.281 32.888ZM125.965 29.724C125.349 30.2654 124.546 30.536 123.557 30.536C122.81 30.536 122.241 30.3774 121.849 30.06C121.457 29.7427 121.261 29.332 121.261 28.828C121.261 28.324 121.448 27.932 121.821 27.652C122.194 27.372 122.708 27.232 123.361 27.232H126.917V27.512C126.917 28.4267 126.6 29.164 125.965 29.724Z" fill="#121212"/>
<path d="M140.77 32.216C141.927 33 143.411 33.392 145.222 33.392C146.995 33.392 148.405 33 149.45 32.216C150.514 31.4134 151.046 30.284 151.046 28.828C151.046 27.8574 150.794 27.092 150.29 26.532C149.805 25.9534 149.133 25.5147 148.274 25.216C147.434 24.8987 146.491 24.6467 145.446 24.46L144.662 24.32C144.027 24.208 143.523 24.0494 143.15 23.844C142.777 23.62 142.59 23.284 142.59 22.836C142.59 22.4254 142.767 22.108 143.122 21.884C143.477 21.6414 143.99 21.52 144.662 21.52C145.334 21.52 145.894 21.6694 146.342 21.968C146.809 22.2667 147.117 22.7707 147.266 23.48L150.542 22.472C150.225 21.352 149.553 20.4467 148.526 19.756C147.499 19.0654 146.211 18.72 144.662 18.72C143.019 18.72 141.694 19.0934 140.686 19.84C139.678 20.568 139.174 21.6227 139.174 23.004C139.174 23.9187 139.417 24.6654 139.902 25.244C140.387 25.8227 141.031 26.28 141.834 26.616C142.637 26.9334 143.523 27.1854 144.494 27.372L145.278 27.512C146.099 27.6614 146.697 27.8574 147.07 28.1C147.443 28.324 147.63 28.6507 147.63 29.08C147.63 29.5094 147.434 29.8734 147.042 30.172C146.65 30.452 146.043 30.592 145.222 30.592C144.681 30.592 144.177 30.5174 143.71 30.368C143.262 30.2 142.879 29.9294 142.562 29.556C142.263 29.1827 142.049 28.6694 141.918 28.016L138.67 28.856C138.913 30.312 139.613 31.432 140.77 32.216Z" fill="#121212"/>
<path d="M133.417 33V13.4H136.945V33H133.417Z" fill="#121212"/>
</svg>
