<svg width="32" height="32" viewBox="0 0 32 32" fill="none" xmlns="http://www.w3.org/2000/svg">
<path fill-rule="evenodd" clip-rule="evenodd" d="M11.1933 3.33301L20.8055 3.33301C21.8202 3.333 22.621 3.333 23.269 3.38404C23.931 3.4362 24.4866 3.54453 24.9998 3.7901C25.841 4.19261 26.5423 4.83792 27.0133 5.64278C27.3006 6.13382 27.4547 6.67846 27.5617 7.33394C27.6664 7.97539 27.7329 8.77343 27.8171 9.78468L28.7554 21.0436C28.8535 22.2205 28.9306 23.1459 28.9298 23.8916C28.9291 24.651 28.8492 25.2885 28.5931 25.8729C28.1762 26.8241 27.4539 27.6091 26.5405 28.1036C25.9795 28.4073 25.3508 28.5399 24.5941 28.6037C23.8511 28.6663 22.9225 28.6663 21.7415 28.6663H10.2573C9.07632 28.6663 8.14772 28.6663 7.40469 28.6037C6.64804 28.5399 6.01934 28.4073 5.45828 28.1036C4.54492 27.6091 3.82261 26.8241 3.40572 25.8729C3.14963 25.2885 3.06973 24.651 3.06898 23.8916C3.06823 23.146 3.14536 22.2205 3.24344 21.0436L4.18168 9.78468C4.26595 8.77343 4.33245 7.97539 4.43712 7.33394C4.54408 6.67846 4.69818 6.13382 4.98552 5.64278C5.4565 4.83791 6.15781 4.19261 6.99901 3.7901C7.51222 3.54453 8.06777 3.4362 8.72987 3.38404C9.37779 3.333 10.1786 3.333 11.1933 3.33301ZM8.83458 4.71326C8.2533 4.75905 7.88011 4.84661 7.57452 4.99284C6.97366 5.28034 6.47272 5.74127 6.1363 6.31618C5.96521 6.60858 5.84695 6.9732 5.75305 7.54867C5.65782 8.13223 5.5952 8.87798 5.50806 9.92355L4.57473 21.1235C4.47353 22.338 4.40163 23.2075 4.40231 23.8903C4.40298 24.566 4.47631 24.994 4.62693 25.3377C4.92471 26.0171 5.44064 26.5778 6.09304 26.931C6.42302 27.1097 6.84344 27.2183 7.51674 27.2751C8.19718 27.3325 9.06962 27.333 10.2883 27.333H21.7106C22.9292 27.333 23.8016 27.3325 24.4821 27.2751C25.1554 27.2183 25.5758 27.1097 25.9058 26.931C26.5582 26.5778 27.0741 26.0171 27.3719 25.3377C27.5225 24.994 27.5958 24.566 27.5965 23.8903C27.5972 23.2074 27.5253 22.338 27.4241 21.1235L26.4908 9.92355C26.4036 8.87798 26.341 8.13223 26.2458 7.54867C26.1519 6.97321 26.0336 6.60858 25.8625 6.31618C25.5261 5.74128 25.0252 5.28034 24.4243 4.99284C24.1187 4.84661 23.7455 4.75905 23.1642 4.71326C22.5748 4.66682 21.8264 4.66634 20.7772 4.66634L11.2216 4.66634C10.1724 4.66634 9.42403 4.66682 8.83458 4.71326ZM10.6661 9.99967C11.0343 9.99967 11.3327 10.2982 11.3327 10.6663C11.3327 11.904 11.8244 13.091 12.6996 13.9662C13.5747 14.8413 14.7617 15.333 15.9994 15.333C17.2371 15.333 18.4241 14.8413 19.2992 13.9662C20.1744 13.091 20.6661 11.904 20.6661 10.6663C20.6661 10.2982 20.9646 9.99967 21.3327 9.99967C21.7009 9.99967 21.9994 10.2982 21.9994 10.6663C21.9994 12.2576 21.3673 13.7838 20.2421 14.909C19.1168 16.0342 17.5907 16.6663 15.9994 16.6663C14.4081 16.6663 12.882 16.0342 11.7568 14.909C10.6316 13.7838 9.99941 12.2576 9.99941 10.6663C9.99941 10.2982 10.2979 9.99967 10.6661 9.99967Z" fill="#12715B"/>
</svg>
