<svg width="32" height="32" viewBox="0 0 32 32" fill="none" xmlns="http://www.w3.org/2000/svg">
<path fill-rule="evenodd" clip-rule="evenodd" d="M18.6667 3.99967C18.6667 3.63148 18.9651 3.33301 19.3333 3.33301L22.6639 3.33301C22.6648 3.33301 22.6657 3.33301 22.6667 3.33301C22.6676 3.33301 22.6685 3.33301 22.6694 3.33301L26 3.33302C26.3682 3.33302 26.6667 3.6315 26.6667 3.99969C26.6667 4.36788 26.3682 4.66635 26 4.66635L23.3333 4.66635V8.66634H25.0952C25.8177 8.66633 26.4005 8.66633 26.8724 8.70489C27.3583 8.74459 27.7851 8.82846 28.18 9.02965C28.8072 9.34923 29.3171 9.85917 29.6367 10.4864C29.8379 10.8812 29.9218 11.308 29.9615 11.7939C30 12.2658 30 12.8486 30 13.5711V18.4282C30 19.1507 30 19.7335 29.9615 20.2054C29.9218 20.6913 29.8379 21.1181 29.6367 21.513C29.3171 22.1402 28.8072 22.6501 28.18 22.9697C27.7851 23.1709 27.3583 23.2548 26.8724 23.2945C26.4005 23.333 25.8177 23.333 25.0952 23.333H23.3333V27.333L26 27.333C26.3682 27.333 26.6667 27.6315 26.6667 27.9997C26.6667 28.3679 26.3682 28.6663 26 28.6663L19.3333 28.6663C18.9651 28.6663 18.6667 28.3679 18.6667 27.9997C18.6667 27.6315 18.9651 27.333 19.3333 27.333L22 27.333V22.6678C22 22.6673 22 22.6668 22 22.6663C22 22.6659 22 22.6654 22 22.6649L22 9.33377C22 9.33351 22 9.33402 22 9.33377C22 9.33351 22 9.3325 22 9.33225V4.66635L19.3333 4.66634C18.9651 4.66634 18.6667 4.36786 18.6667 3.99967ZM23.3333 9.99967V21.9997H25.0667C25.8244 21.9997 26.3526 21.9992 26.7638 21.9656C27.1673 21.9326 27.3991 21.8711 27.5746 21.7817C27.951 21.5899 28.2569 21.284 28.4487 20.9077C28.5381 20.7321 28.5996 20.5003 28.6325 20.0968C28.6661 19.6856 28.6667 19.1574 28.6667 18.3997V13.5997C28.6667 12.8419 28.6661 12.3137 28.6325 11.9025C28.5996 11.4991 28.5381 11.2673 28.4487 11.0917C28.2569 10.7154 27.951 10.4094 27.5746 10.2177C27.3991 10.1282 27.1673 10.0668 26.7638 10.0338C26.3526 10.0002 25.8244 9.99967 25.0667 9.99967H23.3333ZM6.90478 8.66634H17.3333C17.7015 8.66634 18 8.96482 18 9.33301C18 9.7012 17.7015 9.99967 17.3333 9.99967H6.93333C6.1756 9.99967 5.64739 10.0002 5.23616 10.0338C4.83272 10.0668 4.60092 10.1282 4.42535 10.2177C4.04903 10.4094 3.74307 10.7154 3.55132 11.0917C3.46186 11.2673 3.40041 11.4991 3.36745 11.9025C3.33385 12.3137 3.33333 12.8419 3.33333 13.5997V18.3997C3.33333 19.1574 3.33385 19.6856 3.36745 20.0968C3.40041 20.5003 3.46186 20.7321 3.55132 20.9077C3.74307 21.284 4.04903 21.5899 4.42535 21.7817C4.60092 21.8711 4.83272 21.9326 5.23616 21.9656C5.64739 21.9992 6.1756 21.9997 6.93333 21.9997H17.3333C17.7015 21.9997 18 22.2981 18 22.6663C18 23.0345 17.7015 23.333 17.3333 23.333H6.90478C6.18226 23.333 5.5995 23.333 5.12758 23.2945C4.64168 23.2548 4.21489 23.1709 3.82003 22.9697C3.19283 22.6501 2.68289 22.1402 2.36331 21.513C2.16212 21.1181 2.07825 20.6913 2.03855 20.2054C1.99999 19.7335 1.99999 19.1507 2 18.4282V13.5711C1.99999 12.8486 1.99999 12.2658 2.03855 11.7939C2.07825 11.308 2.16212 10.8812 2.36331 10.4864C2.68289 9.85917 3.19283 9.34923 3.82003 9.02965C4.21489 8.82846 4.64168 8.74459 5.12758 8.70489C5.5995 8.66633 6.18226 8.66633 6.90478 8.66634Z" fill="#12715B"/>
</svg>
