<svg width="32" height="32" viewBox="0 0 32 32" fill="none" xmlns="http://www.w3.org/2000/svg">
<path fill-rule="evenodd" clip-rule="evenodd" d="M4.66669 5.33366C4.66669 4.96547 4.96516 4.66699 5.33335 4.66699H10.6667C11.0349 4.66699 11.3334 4.96547 11.3334 5.33366C11.3334 5.70185 11.0349 6.00033 10.6667 6.00033H8.66669V15.3337L23.3334 15.3337V6.00033H21.3334C20.9652 6.00033 20.6667 5.70185 20.6667 5.33366C20.6667 4.96547 20.9652 4.66699 21.3334 4.66699H26.6667C27.0349 4.66699 27.3334 4.96547 27.3334 5.33366C27.3334 5.70185 27.0349 6.00033 26.6667 6.00033H24.6667V26.0003H26.6667C27.0349 26.0003 27.3334 26.2988 27.3334 26.667C27.3334 27.0352 27.0349 27.3337 26.6667 27.3337H21.3334C20.9652 27.3337 20.6667 27.0352 20.6667 26.667C20.6667 26.2988 20.9652 26.0003 21.3334 26.0003H23.3334V16.667L8.66669 16.667V26.0003H10.6667C11.0349 26.0003 11.3334 26.2988 11.3334 26.667C11.3334 27.0352 11.0349 27.3337 10.6667 27.3337H5.33335C4.96516 27.3337 4.66669 27.0352 4.66669 26.667C4.66669 26.2988 4.96516 26.0003 5.33335 26.0003H7.33335V6.00033H5.33335C4.96516 6.00033 4.66669 5.70185 4.66669 5.33366Z" fill="#12715B"/>
</svg>
