<svg width="32" height="32" viewBox="0 0 32 32" fill="none" xmlns="http://www.w3.org/2000/svg">
<path fill-rule="evenodd" clip-rule="evenodd" d="M25.3333 2C25.7015 2 26 2.29848 26 2.66667V6H29.3333C29.7015 6 30 6.29848 30 6.66667C30 7.03486 29.7015 7.33333 29.3333 7.33333H26V10.6667C26 11.0349 25.7015 11.3333 25.3333 11.3333C24.9651 11.3333 24.6666 11.0349 24.6666 10.6667V7.33333H21.3333C20.9651 7.33333 20.6666 7.03486 20.6666 6.66667C20.6666 6.29848 20.9651 6 21.3333 6H24.6666V2.66667C24.6666 2.29848 24.9651 2 25.3333 2ZM10.3704 3.33333L16.6666 3.33333C17.0348 3.33333 17.3333 3.63181 17.3333 4C17.3333 4.36819 17.0348 4.66667 16.6666 4.66667H10.4C9.26887 4.66667 8.46064 4.66719 7.82708 4.71895C7.20129 4.77008 6.80486 4.86786 6.48668 5.02998C5.85947 5.34956 5.34954 5.85949 5.02996 6.4867C4.86784 6.80488 4.77006 7.20131 4.71893 7.8271C4.66717 8.46066 4.66665 9.26889 4.66665 10.4V21.6C4.66665 22.7311 4.66717 23.5393 4.71893 24.1729C4.77006 24.7987 4.86784 25.1951 5.02996 25.5133C5.34954 26.1405 5.85947 26.6504 6.48668 26.97C6.65204 27.0543 6.83854 27.1212 7.06739 27.1731C7.11102 26.8213 7.3351 26.5515 7.50139 26.3716C7.6834 26.1747 7.93922 25.9421 8.23704 25.6714L19.5554 15.382C19.7798 15.178 19.9751 15.0004 20.1489 14.865C20.3337 14.7209 20.5315 14.5939 20.7708 14.5162C21.1314 14.3991 21.5179 14.3869 21.8853 14.481C22.1289 14.5435 22.3344 14.6578 22.5279 14.7899C22.7099 14.9141 22.916 15.079 23.1528 15.2685L26.9005 18.2667C26.9205 18.2827 26.9402 18.2984 26.9597 18.314C27.407 18.6717 27.7163 18.9189 27.9554 19.2236C28.2549 19.6052 28.4675 20.0476 28.5784 20.5198C28.6669 20.8969 28.6668 21.2929 28.6667 21.8656C28.6667 21.8905 28.6666 21.9157 28.6666 21.9413V21.9665C28.6666 22.2022 28.6666 22.4253 28.666 22.6367C28.6664 22.6466 28.6666 22.6566 28.6666 22.6667C28.6666 22.7061 28.6667 22.745 28.6667 22.7833C28.6668 23.9116 28.667 24.6132 28.5076 25.2078C28.3188 25.9124 27.9719 26.5495 27.5064 27.0794C27.3527 27.2544 27.1861 27.4177 27.008 27.5679C26.4926 28.0025 25.881 28.3273 25.2078 28.5077C24.6132 28.667 23.9116 28.6669 22.7834 28.6667C22.745 28.6667 22.7061 28.6667 22.6666 28.6667H22.0128C21.9975 28.6667 21.9821 28.6667 21.9666 28.6667H10.3704C10.3548 28.6667 10.3393 28.6667 10.3238 28.6667H9.39502C9.03108 28.6667 8.71354 28.6667 8.45855 28.6495C8.19223 28.6411 7.9463 28.6286 7.7185 28.61C7.01026 28.5521 6.41883 28.4319 5.88136 28.158C5.00327 27.7106 4.28936 26.9967 3.84195 26.1186C3.5681 25.5812 3.44789 24.9897 3.39002 24.2815C3.3333 23.5873 3.33331 22.7246 3.33331 21.6296V10.3704C3.33331 9.27536 3.3333 8.41273 3.39002 7.71852C3.44789 7.01028 3.5681 6.41885 3.84195 5.88138C4.28936 5.00329 5.00327 4.28938 5.88136 3.84197C6.41883 3.56812 7.01026 3.44791 7.7185 3.39004C8.41271 3.33333 9.27534 3.33333 10.3704 3.33333ZM26.5903 26.098C26.7824 25.8608 26.9426 25.5964 27.0647 25.311C27.1843 25.0313 27.2568 24.6865 27.2947 24.1476C27.3329 23.6024 27.3333 22.9101 27.3333 21.9413C27.3333 21.264 27.3292 21.0324 27.2804 20.8246C27.2139 20.5412 27.0863 20.2758 26.9066 20.0468C26.7747 19.8789 26.5965 19.7309 26.0676 19.3079L22.338 16.3241C22.0778 16.116 21.9113 15.9834 21.7762 15.8911C21.6479 15.8036 21.5883 15.7814 21.5541 15.7726C21.4317 15.7412 21.3029 15.7453 21.1826 15.7843C21.1491 15.7952 21.091 15.8212 20.9685 15.9166C20.8395 16.0172 20.6817 16.1601 20.4351 16.3842L9.15663 26.6374C8.82976 26.9345 8.61819 27.1277 8.48059 27.2766C8.46928 27.2888 8.45906 27.3001 8.44986 27.3106C8.4637 27.3121 8.47888 27.3137 8.49549 27.3151C8.50595 27.316 8.51662 27.3169 8.52754 27.3177C9.03788 27.3331 9.64748 27.3333 10.4 27.3333H21.9413C22.9101 27.3333 23.6024 27.333 24.1475 27.2947C24.6865 27.2568 25.0313 27.1843 25.311 27.0647C25.6378 26.9249 25.9371 26.7351 26.1995 26.5046C26.341 26.3804 26.4717 26.2444 26.5903 26.098ZM11.3333 9.33333C10.2287 9.33333 9.33331 10.2288 9.33331 11.3333C9.33331 12.4379 10.2287 13.3333 11.3333 13.3333C12.4379 13.3333 13.3333 12.4379 13.3333 11.3333C13.3333 10.2288 12.4379 9.33333 11.3333 9.33333ZM7.99998 11.3333C7.99998 9.49238 9.49236 8 11.3333 8C13.1743 8 14.6666 9.49238 14.6666 11.3333C14.6666 13.1743 13.1743 14.6667 11.3333 14.6667C9.49236 14.6667 7.99998 13.1743 7.99998 11.3333Z" fill="#12715B"/>
</svg>
