<svg width="32" height="32" viewBox="0 0 32 32" fill="none" xmlns="http://www.w3.org/2000/svg">
<path fill-rule="evenodd" clip-rule="evenodd" d="M15.8833 3.33302C15.9217 3.33303 15.9606 3.33303 16 3.33303C16.0394 3.33303 16.0783 3.33303 16.1167 3.33302C17.2449 3.33284 17.9466 3.33273 18.5412 3.49204C20.1516 3.92356 21.4095 5.18145 21.841 6.79188C21.9727 7.28338 21.9954 7.84805 21.9993 8.66637H25.0952C25.8177 8.66636 26.4005 8.66635 26.8724 8.70491C27.3583 8.74461 27.7851 8.82849 28.18 9.02968C28.8072 9.34926 29.3171 9.85919 29.6367 10.4864C29.8379 10.8813 29.9218 11.3081 29.9615 11.794C30 12.2659 30 12.8486 30 13.5711V23.7616C30 24.4841 30 25.0669 29.9615 25.5388C29.9218 26.0247 29.8379 26.4515 29.6367 26.8463C29.3171 27.4735 28.8072 27.9835 28.18 28.3031C27.7851 28.5042 27.3583 28.5881 26.8724 28.6278C26.4005 28.6664 25.8177 28.6664 25.0952 28.6664H6.90478C6.18226 28.6664 5.5995 28.6664 5.12758 28.6278C4.64168 28.5881 4.21489 28.5042 3.82003 28.3031C3.19283 27.9835 2.68289 27.4735 2.36331 26.8463C2.16212 26.4515 2.07825 26.0247 2.03855 25.5388C1.99999 25.0669 1.99999 24.4841 2 23.7616V13.5712C1.99999 12.8486 1.99999 12.2659 2.03855 11.794C2.07825 11.3081 2.16212 10.8813 2.36331 10.4864C2.68289 9.85919 3.19283 9.34926 3.82003 9.02968C4.21489 8.82849 4.64168 8.74461 5.12758 8.70491C5.5995 8.66635 6.18226 8.66636 6.90478 8.66637H10.0007C10.0046 7.84805 10.0273 7.28338 10.159 6.79188C10.5905 5.18145 11.8484 3.92356 13.4588 3.49204C14.0534 3.33273 14.7551 3.33284 15.8833 3.33302ZM6.93333 9.9997C6.1756 9.9997 5.64739 10.0002 5.23616 10.0338C4.83272 10.0668 4.60092 10.1282 4.42535 10.2177C4.04903 10.4094 3.74307 10.7154 3.55132 11.0917C3.46186 11.2673 3.40041 11.4991 3.36745 11.9025C3.33385 12.3138 3.33333 12.842 3.33333 13.5997V23.733C3.33333 24.4908 3.33385 25.019 3.36745 25.4302C3.40041 25.8337 3.46186 26.0654 3.55132 26.241C3.74307 26.6173 4.04903 26.9233 4.42535 27.115C4.60092 27.2045 4.83272 27.266 5.23616 27.2989C5.64739 27.3325 6.1756 27.333 6.93333 27.333H25.0667C25.8244 27.333 26.3526 27.3325 26.7638 27.2989C27.1673 27.266 27.3991 27.2045 27.5746 27.115C27.951 26.9233 28.2569 26.6173 28.4487 26.241C28.5381 26.0654 28.5996 25.8337 28.6325 25.4302C28.6661 25.019 28.6667 24.4908 28.6667 23.733V13.5997C28.6667 12.842 28.6661 12.3138 28.6325 11.9025C28.5996 11.4991 28.5381 11.2673 28.4487 11.0917C28.2569 10.7154 27.951 10.4094 27.5746 10.2177C27.3991 10.1282 27.1673 10.0668 26.7638 10.0338C26.3526 10.0002 25.8244 9.9997 25.0667 9.9997H6.93333ZM20.6653 8.66637H11.3347C11.3394 7.85531 11.3601 7.46108 11.4469 7.13697C11.7551 5.98666 12.6536 5.08817 13.8039 4.77995C14.2065 4.67209 14.7171 4.66637 16 4.66637C17.2829 4.66637 17.7935 4.67209 18.1961 4.77995C19.3464 5.08817 20.2449 5.98666 20.5531 7.13697C20.6399 7.46108 20.6606 7.85531 20.6653 8.66637Z" fill="#12715B"/>
</svg>
