<svg width="32" height="32" viewBox="0 0 32 32" fill="none" xmlns="http://www.w3.org/2000/svg">
<path fill-rule="evenodd" clip-rule="evenodd" d="M15.9999 6C15.9999 6 16 6 16 6.66667L15.9999 7.33333L15.9073 7.33347C15.8462 7.3336 15.7562 7.33387 15.6407 7.33441C15.4098 7.3355 15.0773 7.33767 14.6716 7.34201C13.86 7.35069 12.7569 7.36805 11.5897 7.40273C10.4215 7.43745 9.19435 7.48937 8.133 7.56678C7.05668 7.64529 6.20643 7.74665 5.75317 7.86701C5.29731 7.99686 4.88357 8.24432 4.55351 8.58459C4.22724 8.92094 3.99412 9.33625 3.87684 9.78968C3.50534 11.8578 3.32364 13.9556 3.33402 16.0568L3.33406 16.0643C3.32079 18.1777 3.50179 20.2877 3.87485 22.3679C4.00427 22.8031 4.24132 23.1989 4.56429 23.5186C4.89427 23.8451 5.30278 24.0812 5.75047 24.204C6.20305 24.3247 7.05454 24.4263 8.133 24.505C9.19435 24.5824 10.4215 24.6343 11.5897 24.669C12.7569 24.7037 13.86 24.7211 14.6716 24.7297C15.0773 24.7341 15.4098 24.7363 15.6407 24.7373C15.7562 24.7379 15.8462 24.7381 15.9073 24.7383L15.9987 24.7384L15.9997 24.7384L16 25.4051C16 26.0718 15.9999 26.0718 15.9999 26.0718L15.9044 26.0716C15.8423 26.0715 15.7511 26.0712 15.6345 26.0707C15.4012 26.0696 15.066 26.0674 14.6573 26.063C13.8402 26.0543 12.7283 26.0368 11.5501 26.0018C10.373 25.9668 9.12455 25.9142 8.03601 25.8348C6.96611 25.7567 5.99434 25.6494 5.40406 25.4916L5.40036 25.4906C4.73078 25.3074 4.11978 24.9546 3.62638 24.4662C3.13298 23.9779 2.77387 23.3706 2.58373 22.703C2.57771 22.6818 2.57273 22.6604 2.56883 22.6387C2.17725 20.4679 1.98706 18.2655 2.00068 16.0597C1.99009 13.8703 2.18027 11.6846 2.56882 9.53001C2.57146 9.5154 2.57458 9.50087 2.57819 9.48646C2.75066 8.79742 3.1019 8.16609 3.59645 7.65624C4.091 7.1464 4.71134 6.77609 5.39481 6.58273L5.40404 6.58011C5.99432 6.42225 6.96611 6.31502 8.03601 6.23698C9.12454 6.15758 10.373 6.10497 11.5501 6.06999C12.7283 6.03498 13.8402 6.01749 14.6573 6.00875C15.066 6.00438 15.4012 6.00219 15.6345 6.0011C15.7511 6.00055 15.8423 6.00028 15.9044 6.00014L15.9999 6ZM26.2468 24.2048C25.7935 24.3251 24.9433 24.4265 23.867 24.505C22.8057 24.5824 21.5785 24.6343 20.4103 24.669C19.2431 24.7037 18.14 24.7211 17.3284 24.7297C16.9227 24.7341 16.5902 24.7363 16.3593 24.7373C16.2438 24.7379 16.1538 24.7381 16.0927 24.7383L16.0013 24.7384L15.9997 24.7384L16 25.4051C16 26.0718 15.9999 26.0718 15.9999 26.0718L16.0956 26.0716C16.1577 26.0715 16.2489 26.0712 16.3655 26.0707C16.5988 26.0696 16.934 26.0674 17.3427 26.063C18.1598 26.0543 19.2717 26.0368 20.4499 26.0018C21.627 25.9668 22.8755 25.9142 23.964 25.8348C25.0339 25.7567 26.0057 25.6494 26.5959 25.4916L26.6052 25.489C27.2887 25.2957 27.909 24.9254 28.4036 24.4155C28.8981 23.9057 29.2493 23.2743 29.4218 22.5853C29.4254 22.5709 29.4285 22.5563 29.4312 22.5417C29.8168 20.4032 30.0069 18.234 29.9993 16.0609C30.013 13.855 29.8228 11.6525 29.4312 9.48151C29.4285 9.4669 29.4254 9.45238 29.4218 9.43798C29.2493 8.74893 28.8981 8.11761 28.4036 7.60776C27.909 7.09792 27.2887 6.72761 26.6052 6.53424C26.5974 6.53205 26.5897 6.53 26.5818 6.52809C25.9968 6.38524 25.0299 6.2875 23.9598 6.21624C22.8724 6.14382 21.6249 6.0958 20.4482 6.06388C19.2705 6.03193 18.1589 6.01596 17.342 6.00799C16.9335 6.004 16.5984 6.002 16.3652 6.001C16.2487 6.0005 16.1576 6.00025 16.0955 6.00013L15.9999 6C15.9999 6 16 6 16 6.66667L15.9999 7.33333L16.0928 7.33346C16.1539 7.33358 16.244 7.33383 16.3595 7.33432C16.5906 7.33531 16.9232 7.33729 17.329 7.34126C18.1409 7.34919 19.2443 7.36504 20.412 7.39672C21.5806 7.42843 22.8087 7.47586 23.8712 7.54662C24.9418 7.61792 25.7935 7.7101 26.2538 7.82051C26.7069 7.95089 27.1181 8.19756 27.4465 8.53611C27.7728 8.87246 28.0059 9.28777 28.1232 9.74121C28.4976 11.825 28.6793 13.9388 28.666 16.0559L28.666 16.0625C28.6735 18.1479 28.4918 20.2296 28.1232 22.2821C28.0059 22.7355 27.7728 23.1508 27.4465 23.4872C27.1164 23.8274 26.7027 24.0749 26.2468 24.2048ZM14.9799 11.1469L20.2837 14.5565C20.4964 14.6932 20.6927 14.8194 20.8431 14.9367C20.9992 15.0584 21.185 15.2287 21.2917 15.481C21.4318 15.8128 21.4318 16.1872 21.2917 16.519C21.185 16.7713 20.9992 16.9416 20.8431 17.0633C20.6927 17.1806 20.4965 17.3067 20.2838 17.4434L14.9799 20.8531C14.733 21.0118 14.5103 21.155 14.3214 21.2533C14.1315 21.3522 13.8723 21.4636 13.5717 21.4422C13.1859 21.4146 12.8311 21.2209 12.5993 20.9113C12.4187 20.67 12.3723 20.3917 12.3527 20.1786C12.3333 19.9664 12.3333 19.7017 12.3333 19.4082V12.5918C12.3333 12.2983 12.3333 12.0336 12.3527 11.8214C12.3723 11.6083 12.4187 11.33 12.5993 11.0887C12.8311 10.7791 13.1859 10.5854 13.5717 10.5578C13.8723 10.5364 14.1315 10.6478 14.3214 10.7467C14.5103 10.845 14.733 10.9881 14.9799 11.1469ZM13.6831 11.9178C13.6822 11.9256 13.6813 11.9341 13.6805 11.9432C13.6673 12.0868 13.6667 12.289 13.6667 12.6204V19.3796C13.6667 19.711 13.6673 19.9132 13.6805 20.0568C13.6813 20.0659 13.6822 20.0744 13.6831 20.0822C13.6901 20.0787 13.6977 20.0748 13.7058 20.0706C13.8337 20.004 14.0042 19.8952 14.283 19.716L19.5401 16.3365C19.7832 16.1802 19.9267 16.0871 20.0232 16.0119C20.0286 16.0077 20.0336 16.0037 20.0382 16C20.0336 15.9963 20.0286 15.9923 20.0232 15.9881C19.9267 15.9129 19.7832 15.8198 19.5401 15.6635L14.283 12.284C14.0042 12.1048 13.8337 11.996 13.7058 11.9294C13.6977 11.9252 13.6901 11.9213 13.6831 11.9178Z" fill="#12715B"/>
</svg>
