<svg width="24" height="24" viewBox="0 0 24 24" fill="none" xmlns="http://www.w3.org/2000/svg">
<path fill-rule="evenodd" clip-rule="evenodd" d="M13.3983 1.08275C13.8055 1.25952 14.0474 1.68359 13.9924 2.12409L13.1329 9.00006L19.3279 9.00005C19.5689 9.00001 19.813 8.99996 20.0124 9.01802C20.201 9.03509 20.5622 9.08027 20.8754 9.33338C21.2339 9.62314 21.4394 10.0617 21.4324 10.5227C21.4263 10.9253 21.2298 11.2317 21.1222 11.3875C21.0084 11.5523 20.8521 11.7398 20.6978 11.9249L11.7683 22.6402C11.4841 22.9813 11.0091 23.0941 10.6019 22.9174C10.1947 22.7406 9.95277 22.3165 10.0078 21.876L10.8673 15.0001L4.67233 15.0001C4.43134 15.0001 4.18725 15.0002 3.98782 14.9821C3.79921 14.965 3.43805 14.9198 3.12483 14.6667C2.76626 14.377 2.56085 13.9384 2.5678 13.4774C2.57387 13.0748 2.77038 12.7684 2.878 12.6126C2.99181 12.4478 3.14812 12.2603 3.30244 12.0752C3.31008 12.066 3.31771 12.0569 3.32534 12.0477L12.2319 1.35987C12.5161 1.01884 12.9911 0.905986 13.3983 1.08275ZM5.13515 13.0001H12.0001C12.2869 13.0001 12.56 13.1232 12.7498 13.3383C12.9396 13.5533 13.028 13.8395 12.9924 14.1241L12.4154 18.7396L18.8651 11.0001H12.0001C11.7133 11.0001 11.4403 10.8769 11.2504 10.6619C11.0606 10.4468 10.9723 10.1606 11.0078 9.87602L11.5848 5.26051L5.13515 13.0001Z" fill="black"/>
</svg>
