<svg width="244" height="167" viewBox="0 0 244 167" fill="none" xmlns="http://www.w3.org/2000/svg">
<path d="M218.155 95.8654C218.935 95.6877 219.749 95.7344 220.503 96C221.258 96.2655 221.921 96.7392 222.418 97.366C224.189 99.6088 226.406 101.389 228.188 103.579C228.383 103.831 228.325 104.278 228.429 104.618C228.533 104.959 228.619 105.088 228.765 105.112C230.676 105.515 231.145 107.307 232.19 108.55C231.113 109.93 232.734 109.205 232.977 109.546C234.526 111.563 235.912 113.701 237.12 115.939C238.224 118.157 239.297 120.358 240.354 122.589C241.691 125.638 242.641 128.842 243.182 132.126C243.831 135.948 243.924 139.843 243.458 143.69C243.071 146.575 242.475 149.428 241.675 152.226C240.942 155.274 239.79 158.204 238.25 160.934C237.381 162.789 236.154 164.454 234.64 165.834C234.114 166.355 233.415 166.667 232.674 166.711C231.933 166.755 231.202 166.527 230.616 166.071C228.725 165.128 227.003 163.877 225.521 162.369C225.156 162.032 224.897 161.595 224.777 161.113C224.657 160.631 224.681 160.124 224.845 159.656C225.009 159.187 225.307 158.777 225.701 158.475C226.096 158.174 226.57 157.994 227.065 157.958C227.294 157.91 227.698 157.904 227.712 157.811C228.111 155.28 229.395 153.02 229.935 150.49C230.474 147.96 230.974 145.567 231.433 143.071C232.412 137.099 231.892 130.976 229.921 125.25C229.398 123.587 228.423 122.084 227.735 120.466C227.394 119.668 227.074 118.764 228.472 118.53C228.667 118.503 228.758 118.035 228.905 117.78C228.655 117.773 228.407 117.737 228.165 117.673C227.714 117.412 226.846 117.251 226.829 117.002C226.752 115.436 225.329 115.055 224.625 114.088C223.959 113.03 223.479 111.866 223.205 110.647C223.006 109.506 222.396 108.477 221.489 107.755C221.218 107.599 221.272 107.229 220.706 107.203C220.19 107.16 219.695 106.981 219.272 106.683C218.849 106.386 218.512 105.982 218.296 105.512C218.094 105.303 217.973 105.029 217.953 104.739C217.933 104.45 218.017 104.163 218.188 103.929C218.31 103.718 218.188 103.408 218.181 103.144C218.004 103.392 217.78 103.603 217.522 103.764C216.97 104.026 216.188 103.334 216.47 103.157C217.166 102.818 217.799 102.243 216.665 102.229C215.127 102.221 214.539 101.782 214.224 100.419C214.054 99.9376 213.781 99.4994 213.422 99.1357C213.25 98.9965 213.058 98.8852 212.851 98.806C212.253 99.8416 212.351 99.1175 211.817 98.6891C210.231 97.1384 208.454 95.7964 206.529 94.6956C205.497 94.3864 204.601 93.735 203.989 92.8488C203.666 92.2624 202.356 92.2064 201.613 91.8974C200.87 91.5883 200.441 91.2207 201.007 90.4473C201.007 90.4473 200.496 89.7717 200.216 89.7703C199.151 89.7758 198.046 90.0584 197.453 88.7954C197.453 88.7954 196.81 88.7642 196.691 88.9357C196.183 89.6427 196.054 89.4485 195.754 88.7547C195.645 88.4918 194.879 88.5697 194.438 88.3955C191.298 87.2255 188.046 86.3807 184.734 85.8743C184.129 85.6387 183.47 85.5773 182.833 85.697C181.865 86.019 182.491 86.7403 182.358 87.2836C182.196 87.775 181.852 88.1853 181.396 88.4291C180.85 88.7145 180.512 88.9192 180.702 89.6297C180.786 90.1012 180.846 90.5765 180.882 91.054L179.671 90.8953C179.718 91.3662 179.619 91.8398 179.388 92.2528C179.293 92.4179 179.345 92.3278 179.554 92.3482L179.446 91.9456C179.289 91.9986 179.137 92.0647 178.991 92.1433C178.991 92.1433 179.027 92.3241 179.38 92.2678C179.733 92.2115 180.086 92.6755 179.982 92.8556C178.98 94.2783 178.616 96.2288 176.828 97.138C176.412 97.338 176.291 98.0684 176.023 98.5337C174.766 101.37 172.244 103.135 170.254 105.368C167.838 107.931 165.046 110.111 161.973 111.833C161.24 112.27 161.03 114.09 159.546 113.053C158.698 113.584 157.883 114.094 157 114.685C156.179 115.301 155.315 115.859 154.414 116.353C153.397 116.706 152.358 116.988 151.302 117.198C150.251 117.491 149.213 117.832 148.136 118.031C147.059 118.23 145.665 118.286 144.472 118.617C143.279 118.949 142.164 117.965 140.765 118.478C139.852 118.811 138.501 117.611 137.301 117.538C135.877 117.522 134.462 117.311 133.095 116.911C132.478 116.695 131.992 116.774 131.773 116.008C131.554 115.241 130.992 115.557 130.445 115.601C129.898 115.646 129.394 115.375 129.819 114.499L129.758 114.605C129.933 114.647 130.11 114.676 130.289 114.691C130.289 114.691 130.419 114.466 130.383 114.285C130.189 114.302 130.001 114.365 129.836 114.469C128.608 114.861 128.165 113.825 127.461 113.378C125.948 112.364 124.661 111.049 123.681 109.515C123.236 108.898 122.143 108.327 122.81 107.171C122.618 106.832 122.332 106.556 121.987 106.376C121.018 105.937 120.528 105.433 121.409 104.461C122.036 103.723 120.529 103.453 121.028 102.241C121.459 100.983 121.973 99.7558 122.568 98.5673C123.807 96.4212 125.046 94.2751 126.285 92.1291C126.741 92.0753 127.182 91.9316 127.582 91.7062C127.982 91.4807 128.333 91.1781 128.615 90.8159C128.897 90.4536 129.104 90.039 129.224 89.596C129.344 89.153 129.375 88.6905 129.315 88.2353C129.384 88.1152 129.523 87.8751 129.627 87.695C129.838 87.777 130.036 87.8911 130.213 88.0334C130.681 88.4149 131.102 88.8524 131.464 89.3361C131.569 89.3969 131.109 89.9514 130.813 90.2209C131.564 90.7944 132.969 90.3048 133.446 89.3396C133.509 89.1964 133.587 89.0605 133.68 88.9344C133.792 88.7393 133.905 88.5442 134.017 88.3491C133.762 88.2016 133.431 88.0107 133.186 88.0891C132.94 88.1674 132.771 88.5299 132.521 88.6856C132.426 88.7192 132.324 88.7286 132.225 88.7131C132.125 88.6976 132.031 88.6576 131.951 88.5968C131.793 88.3853 131.596 88.0317 131.67 87.8342C131.896 87.3389 132.168 86.8665 132.484 86.4235C132.857 85.7782 134.252 86.6237 134.18 85.2215C134.108 83.8192 135.747 84.4854 136.264 83.7634C136.781 83.0414 137.624 83.1079 138.564 83.2502C138.943 83.2887 139.376 82.3985 139.866 82.0011C141.379 80.8734 141.394 80.882 142.147 82.5973C142.274 82.8131 142.429 83.0106 142.609 83.1845C142.752 83.037 142.884 82.8788 143.003 82.7112C143.156 82.4355 143.278 82.1432 143.365 81.8401C143.737 80.2939 143.982 79.9747 145.225 80.4927C146.196 80.8932 146.475 80.6537 146.955 79.8907C147.117 79.6913 147.325 79.5344 147.561 79.4337C147.797 79.333 148.055 79.2914 148.311 79.3126C149.08 79.5767 149.397 79.4793 149.864 78.8087C150.124 78.3585 151.24 77.8824 151.395 78.0315C152.541 79.1338 153.274 77.7958 154.2 77.6499C156.563 77.3736 158.944 77.0673 161.32 76.8384C162.515 76.5795 163.748 76.5514 164.954 76.7555C166.402 77.2315 166.585 76.2563 166.54 75.5701C166.624 74.141 166.608 72.7076 166.492 71.2804C166.186 69.7741 166.157 68.2248 166.407 66.7088C166.649 65.3877 165.588 63.7547 164.918 62.3473C164.248 60.9399 163.3 60.0128 162.716 58.7348C162.177 57.7583 161.587 56.8102 160.95 55.8943C160.467 54.9883 159.819 54.18 159.04 53.511C158.485 53.0502 158.558 51.8121 158.34 50.9058C158.281 50.7009 158.21 50.4995 158.127 50.3027C156.561 50.8991 156.241 49.0935 155.07 48.6576C153.859 48.2889 152.823 47.4918 152.157 46.4155C151.552 44.9655 149.688 45.2098 149.246 43.6144C149.047 42.9189 147.684 42.5724 146.851 42.0715C145.619 41.3601 144.439 40.5587 143.17 39.946C141.9 39.3333 141.087 38.2434 139.408 38.3748C138.167 38.4782 137.273 36.5214 135.631 37.0744C133.687 35.7918 131.327 35.6101 129.28 34.7484C126.041 33.4185 122.526 33.33 119.19 32.4446C115.728 31.749 112.215 31.3338 108.687 31.2031C105.906 30.9182 102.993 31.4176 100.267 30.3439C97.2324 31.1931 94.0869 30.6377 91.0439 30.8418C87.5489 31.0651 84.0558 31.3895 80.5759 31.6215C78.8047 31.7395 77.1417 32.2601 75.3578 32.3307C71.4749 32.6608 67.6158 33.2259 63.8019 34.0232C61.3928 34.4132 59.0277 35.1087 56.6083 35.4127C54.1888 35.7167 51.4793 36.4535 48.8645 36.6447C46.7293 36.8727 44.5549 37.7584 42.2932 37.8933C40.389 37.9932 38.506 38.3386 36.6909 38.921C34.9339 39.4494 33.1413 39.8521 31.3268 40.1262C29.4644 40.4717 27.6246 41.0903 25.7327 41.2786C24.0284 41.6444 22.2866 41.8075 20.5435 41.7644C20.4233 41.695 20.2332 41.8854 20.0887 41.9621C20.1756 42.1446 20.3013 42.3059 20.4569 42.4348C21.2984 42.9207 22.155 43.4152 22.9965 43.901C23.7705 44.2463 24.4487 44.7753 24.972 45.4418C25.3183 46.0219 26.6133 46.0692 27.3392 46.4083C28.0651 46.7473 28.8419 47.2759 29.6082 47.7183L34.4168 50.4945C35.2371 51.0383 36.0902 51.5309 36.9713 51.9694C37.6475 52.3598 38.6097 52.255 39.2945 52.6304C39.9794 53.0058 40.6523 54.2347 41.3129 54.2359C42.3328 54.2044 42.8155 55.1034 43.6505 55.0452C44.823 55.0619 44.5553 56.9483 46.0306 56.5794C46.739 56.4282 47.6985 57.5424 48.5706 57.9059C50.891 58.7453 51.9993 60.8859 53.6414 62.4143C53.8217 62.5184 53.8328 62.985 53.7329 63.2275C53.2021 64.702 52.5515 64.9266 50.8525 64.7461C49.0932 64.6015 47.3854 64.0796 45.8454 63.216C44.6394 62.6271 43.3871 62.1383 42.1011 61.7545C40.8551 61.2752 39.9417 59.9075 38.3243 60.3144C38.1822 60.3524 37.9637 60.1062 37.7683 59.9934C34.073 58.1 30.3713 56.1829 26.6349 54.3258C25.3357 53.6958 23.9042 53.3296 22.5963 52.7145C21.3492 51.8461 20.0152 51.1095 18.616 50.5166C16.3546 49.9914 14.642 48.3422 12.5679 47.8051C9.07734 46.9104 6.27643 44.6129 3.17171 42.9805C1.47369 42.0001 -0.419656 40.907 0.898459 38.3464C1.05442 38.0762 0.643422 37.5388 0.630031 37.1108C0.669234 36.7226 0.749326 36.3395 0.868996 35.9682C1.05961 36.2442 1.27 36.5061 1.4985 36.7518C1.4985 36.7518 1.96596 36.6015 1.99656 36.4791C2.06696 36.0795 1.96747 35.6619 2.03788 35.2623C2.20523 34.2784 3.45966 33.702 3.08781 32.5068C2.61125 33.3322 1.99947 34.0795 1.44142 34.8379C1.39809 34.9129 1.18487 34.9699 1.16348 34.9376C1.14209 34.9052 0.872158 34.6093 0.909119 34.5106C1.63452 32.7683 2.40501 31.052 3.12175 29.3248C3.67562 27.9837 4.10061 26.5882 4.73828 25.2756C5.62832 24.0505 6.358 22.7167 6.90959 21.3065C7.34301 18.8554 9.13749 17.1701 9.83448 14.9912C11.1176 10.9295 13.6178 7.57064 15.5321 3.87339C15.766 3.46819 15.4613 2.71197 15.7421 2.43386C16.0229 2.15574 16.6736 2.45142 17.1515 2.38716C17.2417 2.43921 17.3594 2.02698 17.4634 1.84688C18.0699 0.796354 18.2555 1.20365 18.4695 2.04758C18.5818 2.51257 18.5427 3.69064 19.4428 2.40936C19.6247 2.0942 20.2916 2.11904 20.4735 1.80388C21.1234 0.678308 21.5532 0.24613 22.2892 1.85166C22.7032 2.73098 23.6491 2.37665 23.9869 1.27102C24.3247 0.165396 24.5408 -0.0700365 25.7851 0.828492C25.9178 0.918282 26.0768 0.96074 26.2365 0.949003C27.0241 0.903489 27.0692 0.929511 26.8375 1.29602C26.5874 1.56775 26.413 1.90028 26.3316 2.26051C26.2501 2.62073 26.2646 2.99609 26.3734 3.34923C24.897 3.4773 25.9778 4.38146 25.8982 4.9358C25.8932 5.23769 25.836 5.53638 25.7291 5.81866C24.0604 9.43758 22.8859 13.2417 21.0798 16.8213C19.521 19.5929 18.1088 22.4444 16.8488 25.3641C15.9556 27.6245 14.9031 29.8186 13.6992 31.9299C13.6125 32.08 13.6912 32.3255 13.6947 32.5276C13.9078 32.5106 14.1174 32.4631 14.317 32.3867C14.6556 32.1819 15.1554 32.0103 15.29 31.7078C15.8959 30.2767 17.4339 29.2437 17.1399 27.3931C17.0832 27.0402 17.5645 26.6577 17.7725 26.2976C19.2799 23.6163 20.5936 20.8306 21.7035 17.9618C22.3699 15.9053 23.7299 14.2092 24.2905 12.2318C25.212 9.74991 26.3585 7.3576 27.7156 5.08465C28.0766 3.78447 28.5524 2.51903 29.1375 1.30324C29.8255 0.319768 29.7268 0.803048 30.4088 1.35689C31.6827 2.41253 31.045 3.72522 30.9643 4.55906C30.5455 6.17131 29.9416 7.7296 29.1647 9.20295C28.5219 10.7328 27.9092 12.28 27.2426 13.8161C26.5761 15.3523 25.2727 16.3606 25.4852 18.1441C25.506 18.3163 25.2686 18.5193 25.1646 18.6994C23.3174 22.3153 21.4788 25.9162 19.6704 29.5344C19.4286 30.0836 19.2683 30.6651 19.1946 31.2607C19.1635 31.5229 19.2914 32.3771 19.8229 31.8036C21.262 30.2132 23.3005 31.6102 24.9223 30.6056C25.6405 30.1599 26.7697 30.2515 27.6879 29.8411C28.0478 29.6688 28.6489 30.0158 29.2679 30.193L29.1326 30.115C29.0865 30.2911 29.0627 30.4722 29.0617 30.6543C29.0617 30.6543 29.2871 30.7844 29.4679 30.7488C29.4646 30.52 29.4001 30.2962 29.2811 30.1007C31.3309 28.904 33.7223 28.4257 36.0766 28.7414L35.9564 28.672C35.8979 28.8427 35.8688 29.0221 35.8704 29.2026C35.8704 29.2026 36.0958 29.3327 36.2767 29.2971C36.2535 29.099 36.185 28.9089 36.0766 28.7414C36.9721 28.0578 37.9769 27.4973 39.1831 28.2538C39.3164 28.3039 39.4595 28.3218 39.6009 28.3061C39.7423 28.2904 39.878 28.2414 39.9967 28.1632C40.8336 27.6556 41.7669 27.3272 42.7377 27.1989C43.7085 27.0705 44.6957 27.1449 45.6366 27.4174C45.8019 27.5128 46.1695 27.605 46.2192 27.5536C46.6437 26.8182 47.7672 27.2668 48.0006 27.0013C49.4548 25.4197 51.4429 26.4875 53.0914 25.8184C54.7763 25.3806 56.5032 25.1233 58.243 25.0508C59.2785 24.8883 60.3077 24.7021 61.3495 24.5632C62.3914 24.4244 63.1854 24.4025 64.1088 24.2953C65.3616 24.1382 66.7582 23.5238 67.7915 23.9203C68.8248 24.3168 68.9581 23.2531 69.6614 23.319C70.3661 23.3807 71.0762 23.3239 71.7619 23.1511C73.4697 22.7059 75.2441 22.5712 77.0002 22.7537C78.8465 22.7934 80.6909 22.6157 82.4951 22.2243C83.5035 21.9989 84.5397 21.923 85.5705 21.9988C87.1075 22.2558 88.6832 22.1435 90.1674 21.6714C92.0796 21.3209 94.0239 21.1757 95.9674 21.2381C99.4118 21.197 102.856 21.3355 106.287 21.6531C108.601 21.8087 110.911 22.0417 113.226 22.0576C115.443 22.1415 117.648 22.4362 119.81 22.9377C121.016 23.1738 122.129 22.6354 123.456 23.1817C125.572 23.8324 127.75 24.2584 129.955 24.4527C132.026 24.7877 134.094 25.3012 136.186 25.6686C137.78 26.1292 139.331 26.7299 140.819 27.4635C141.58 27.7425 142.399 27.8154 143.16 28.0944C146.846 29.3091 150.421 30.8376 153.846 32.6631C155.739 33.7563 158.224 33.93 159.792 35.516C161.332 36.7781 162.941 37.954 164.611 39.0384C166.125 40.2328 167.501 41.6674 168.976 42.8595C172.066 45.5083 174.733 48.6135 176.884 52.0672C178.789 55.1016 180.432 58.2929 181.795 61.6061C182.076 62.4168 182.263 63.2566 182.353 64.1095C182.391 64.3913 182.183 64.7515 182.294 64.9757C183.717 67.6514 184.457 70.6358 184.45 73.6644C184.426 74.9909 184.41 76.3024 184.43 77.6549C184.453 77.8391 184.513 78.0169 184.606 78.1774C184.699 78.3379 184.824 78.4778 184.973 78.5887C186.736 79.6715 188.799 80.1612 190.859 79.9856C191.42 79.9497 191.925 80.221 191.241 81.1271C191.137 81.3072 191.189 81.2171 191.407 81.2225L191.314 80.8286C191.153 80.8723 191 80.9389 190.859 81.0263C190.859 81.0263 190.903 81.192 191.241 81.1271C192.955 81.1476 194.665 81.2667 196.365 81.4838C196.475 81.497 196.58 81.5322 196.676 81.5874C196.771 81.6426 196.855 81.7165 196.921 81.8048C197.138 82.3305 197.3 82.8839 197.485 83.431C197.972 83.212 198.065 82.4255 199.029 82.942C203.607 85.4247 208.387 87.244 212.676 90.1208C213.217 90.4331 213.997 90.7832 214.139 91.2655C214.845 93.5138 216.426 93.9668 218.422 94.2584C219.493 94.4164 218.769 95.2191 218.198 95.9301C218.103 96.0952 218.155 96.0051 218.363 96.0255L218.255 95.6229C218.098 95.6759 217.946 95.7421 217.8 95.8206C217.8 95.8206 217.811 95.9067 218.155 95.8654ZM180.205 74.3549L179.62 74.2573C179.723 74.554 179.886 74.8259 180.101 75.0553C180.101 75.0553 179.731 75.1416 179.735 75.204C179.69 75.8068 179.695 76.4124 179.751 77.0145C179.691 77.1195 180.051 77.3277 180.262 77.3094C180.473 77.2911 180.738 77.2839 180.831 77.1575C180.923 76.9469 180.972 76.7202 180.975 76.4905C180.978 76.2608 180.936 76.0326 180.85 75.8194C180.765 75.6061 180.637 75.4119 180.476 75.248C180.315 75.0842 180.122 74.9541 179.91 74.8651L180.239 74.2948C180.408 74.3398 180.581 74.3659 180.756 74.3727C180.756 74.3727 180.886 74.1475 180.865 73.9754C180.735 73.9919 180.61 74.0339 180.497 74.0991C180.383 74.1642 180.284 74.2511 180.205 74.3549ZM229.477 111.827L229.484 112.611C229.627 112.573 229.867 112.572 229.887 112.504C229.96 112.171 230.014 111.835 230.048 111.496C229.88 111.579 229.718 111.686 230.291 112.777C229.862 112.929 229.66 112.933 229.623 113.031C229.496 113.289 229.394 113.559 229.318 113.836C229.453 113.914 229.679 114.044 229.731 113.954C229.913 113.639 230.041 113.313 229.477 111.827ZM173.592 86.3647L173.351 86.2259C173.293 86.3966 173.264 86.576 173.265 86.7565C173.265 86.7565 173.491 86.8866 173.663 86.866C173.835 86.8454 173.612 86.5368 172.183 85.0912C172.371 85.3874 172.586 85.6655 172.825 85.9222C172.991 86.0386 173.167 86.1402 173.351 86.2259C173.32 85.9677 173.403 85.6155 173.257 85.4513C173.112 85.2872 172.739 85.2724 173.592 86.3647ZM145.691 90.1663C146.123 89.8352 146.34 89.7008 146.513 89.5404C146.629 89.3745 146.731 89.1988 146.816 89.0152C146.567 89.0311 146.206 88.9627 146.05 89.093C145.895 89.2234 145.872 89.6103 147.006 88.4442L147.087 89.1713C147.255 89.0883 147.528 89.066 147.598 88.946C147.69 88.681 147.748 88.4053 147.771 88.1255C147.54 88.2125 147.351 88.2631 145.691 90.1663ZM145.869 105.057L145.628 104.157C145.792 103.872 146.078 103.376 146.096 103.346C147.338 103.624 148.073 102.767 148.998 102.241C151.011 100.748 152.925 99.126 154.727 97.3843C155.37 96.8952 156.21 96.6199 156.468 95.688C156.606 95.4479 156.606 95.4479 157.069 96.035C157.149 96.1191 157.248 96.1832 157.358 96.2222C157.468 96.2612 157.585 96.274 157.701 96.2596C158.394 96.0997 158.847 95.8009 159.359 96.8571C159.871 97.9132 160.395 96.1742 161.116 96.4509C161.357 96.5897 161.83 97.1231 161.926 96.298C161.98 95.7887 161.986 95.292 162.001 94.7804C161.835 94.8247 161.573 94.7933 161.497 94.8896C160.45 96.426 159.937 94.469 159.117 94.5359C159.221 94.3558 159.239 94.0462 159.437 93.9806C159.909 93.7529 160.578 93.739 160.864 93.3835C161.461 92.6275 161.834 91.7027 162.319 90.8623C162.805 90.0218 163.757 89.6912 163.744 89.1235C163.723 87.9107 165.406 88.2223 165.241 87.0862C165.184 86.7333 165.38 86.186 165.187 86.0345C164.559 85.4917 164.298 86.0817 164.029 86.5469C163.596 87.2973 163.163 88.0477 162.73 88.798C162.528 89.0257 162.302 89.2308 162.056 89.4096C162.029 89.1345 162.054 88.8569 162.128 88.5908C162.509 87.9304 162.891 87.2701 163.263 86.6248C163.362 86.3404 163.419 86.0429 163.432 85.7419L162.43 85.6036L162.677 84.7254C162.425 84.7317 162.177 84.7851 161.945 84.883C161.518 85.1367 161.127 85.4315 160.707 85.7089C160.213 85.9775 159.692 86.1933 159.153 86.3526C155.353 87.0002 152.124 89.0181 148.688 90.5963C146.188 91.8646 143.882 93.4852 141.843 95.4084C138.968 97.8817 136.643 100.928 135.016 104.353C134.652 104.984 134.15 105.574 134.543 106.421C134.667 106.693 134.542 107.082 134.515 107.406C134.663 107.151 134.871 106.791 135.165 106.801C136.448 106.661 137.78 106.749 139.037 106.515C140.104 106.173 141.147 105.759 142.157 105.275C143.293 104.87 144.406 104.572 145.6 104.101C145.78 104.741 146 105.368 146.257 105.981C147.76 106.849 148.264 106.739 148.514 105.543C148.566 105.453 148.259 105.256 148.105 105.107C147.403 106.322 146.793 105.47 146.073 105.155C145.968 105.094 145.792 105.192 145.656 105.254C145.651 105.358 145.675 105.461 145.723 105.553C146.002 105.834 146.24 106.011 145.869 105.057ZM128.129 92.6135C127.837 93.0508 127.573 93.507 127.341 93.9791C127.272 94.0992 127.537 94.4725 127.704 94.5293C127.961 94.5989 128.233 94.5883 128.483 94.4987C128.568 93.3934 128.911 92.3236 129.485 91.3753C129.485 91.3753 129.443 91.1708 129.403 91.0674C129.362 90.964 128.987 91.1277 128.903 91.2391C128.643 91.6893 128.374 92.1546 125.371 96.0033C124.998 96.6486 124.626 97.294 124.253 97.9393C124.166 98.0894 124.23 98.3262 124.219 98.5197C124.399 98.484 124.655 98.4917 124.725 98.3717C125.47 97.081 126.215 95.7904 126.96 94.4997C127.012 94.4097 126.899 94.2242 126.861 94.0821C126.678 94.1564 126.426 94.2111 126.324 94.3525C126.087 94.9361 125.767 95.4914 128.129 92.6135ZM165.936 88.5883C165.451 89.4287 164.966 90.2692 164.472 91.1246C164.342 91.4854 164.26 91.8615 164.227 92.2436C164.653 92.1594 165.071 92.0392 165.476 91.8843C165.922 91.6579 166.342 91.3839 166.729 91.0671C166.729 91.0671 166.705 90.6928 166.621 90.6645C165.672 90.2963 165.983 89.7561 166.339 89.1408C166.937 88.1052 167.534 87.0697 168.124 86.0492C168.21 85.8991 168.108 85.6599 168.081 85.4641C167.904 85.5622 167.652 85.6168 167.565 85.7669C167.019 86.7124 166.482 87.6428 167.048 90.5505L166.9 90.8056C167.076 90.8518 167.258 90.8759 167.44 90.8771C167.44 90.8771 167.561 90.667 167.54 90.4949C167.52 90.3228 167.235 90.5385 165.936 88.5883ZM179.2 88.2418C179.269 87.6014 179.349 86.9073 179.382 86.2259C179.388 85.869 179.368 85.2776 179.224 85.2146C179.032 85.1453 178.827 85.1163 178.623 85.1294C178.42 85.1424 178.22 85.1972 178.039 85.2903C177.522 85.6011 177.13 86.0829 176.932 86.6523C176.647 89.4697 174.693 91.3628 173.485 93.767C173.104 94.4274 171.819 94.9864 171.884 95.4641C172.123 97.2026 170.78 97.6882 170.004 98.7207C168.179 101.18 166.101 103.441 163.805 105.467C163.71 105.632 163.749 106.015 163.716 106.316C164.081 106.307 164.673 106.428 164.768 106.263C165.043 105.584 165.451 104.967 165.967 104.447C166.484 103.928 167.099 103.517 167.777 103.238C167.965 103.151 168.132 103.025 168.267 102.869C168.402 102.712 168.503 102.528 168.561 102.33C168.908 101.209 170.103 100.979 170.683 100.113C170.839 99.843 171.211 99.718 171.397 99.4652C171.584 99.2124 174.098 96.0019 174.306 95.7815C174.82 95.2379 175.889 95.2949 175.774 93.9677C175.706 93.1482 176.744 92.2868 176.836 91.3993C176.814 91.0432 176.886 90.6878 177.046 90.3688C177.205 90.0499 177.446 89.7787 177.744 89.5827C178.279 89.1663 178.775 88.7025 179.226 88.1968L179.2 88.2418ZM140.824 93.079C140.929 92.6194 141.029 92.2372 141.123 91.8313C140.634 91.894 140.157 92.03 139.708 92.2349C139.156 92.6622 138.625 93.1174 138.119 93.5987C136.501 94.682 135.15 96.1193 134.17 97.8018C134.011 98.3011 133.696 98.7365 133.272 99.0444C131.751 99.6668 131.765 100.475 132.716 101.605C132.911 101.717 132.7 102.256 132.664 102.596C132.906 102.408 133.121 102.189 133.302 101.943C133.891 100.922 134.489 99.8869 135.078 98.8664C135.74 97.9682 136.479 97.1294 137.287 96.3596C138.485 95.1508 139.655 94.1655 140.824 93.079ZM130.275 98.0941C131.072 96.7134 131.193 96.5033 130.6 96.281C128.999 95.757 130.778 97.4645 129.881 97.5267C129.881 97.5267 129.777 97.7068 129.661 97.6997C128.529 97.7865 128.958 98.6745 129.245 98.9404C129.899 99.578 129.834 98.58 130.134 98.3729C130.433 98.1659 130.223 98.1842 130.275 98.0941ZM3.69506 29.6158C3.73796 30.2008 2.58751 30.5971 3.08296 31.5435C3.44688 30.9132 3.96107 30.3696 4.3614 29.7803C4.60034 29.4185 4.81735 29.0426 5.01124 28.6548C5.01124 28.6548 4.85746 28.3659 4.74822 28.2428C4.63897 28.1197 4.5136 28.2674 4.47028 28.3425C4.21725 28.6766 4.00064 29.0518 3.68005 29.6071L3.69506 29.6158ZM232.28 163.19C232.216 163.473 232.153 163.617 232.19 163.658C232.226 163.699 232.505 163.84 232.565 163.875C232.958 163.778 233.337 163.635 233.694 163.446C233.755 163.341 233.876 163.131 233.905 162.908C233.725 162.804 233.469 162.656 233.237 162.782C232.903 162.882 232.582 163.019 232.28 163.19ZM138.261 88.738C137.73 89.0321 137.202 89.2874 136.702 89.5989C136.746 89.7809 136.835 89.949 136.96 90.0882C137.126 90.1837 137.441 90.3658 137.508 90.2845C137.858 89.9225 138.168 89.5248 138.434 89.0979C138.434 89.0979 138.295 88.8177 138.261 88.738ZM220.345 105.954L221.493 106.117C221.4 105.723 221.37 105.045 221.164 104.986C220.958 104.927 220.264 105.087 219.817 105.169L220.345 105.954ZM6.17558 30.7677L6.08462 29.8148C5.84451 29.9922 5.64123 30.2147 5.48609 30.4697C5.40051 30.7889 5.36512 31.1195 5.38116 31.4497C5.64461 31.2016 5.85838 31.0048 6.17558 30.7677ZM131.251 94.876L131.108 95.7138L132.494 95.5337C132.405 95.3419 132.343 95.0663 132.214 95.0119C131.915 94.9064 131.602 94.8405 131.286 94.8159L131.251 94.876ZM161.967 106.707C161.686 106.88 161.426 107.086 161.192 107.32C161.123 107.44 161.202 107.686 161.205 107.888L162.502 107.376L161.967 106.707ZM134.954 87.1089C134.903 87.5795 134.876 87.7643 134.85 87.949L136.201 87.8289C136.118 87.6608 136.057 87.3853 135.919 87.3459C135.607 87.2324 135.283 87.1529 134.954 87.1089ZM174.613 75.9889L174.47 76.8268L175.856 76.6467C175.758 76.4698 175.72 76.188 175.592 76.1336C175.271 76.0553 174.943 76.0068 174.613 75.9889ZM212.085 95.6222C212.285 95.5178 212.593 95.4355 212.615 95.3281C212.622 94.9887 212.565 94.6509 212.449 94.3317C212.449 94.3317 212.004 94.3747 211.769 94.3993L212.085 95.6222ZM213.977 94.1136C213.911 94.5756 213.87 94.7517 213.834 94.9515L215.221 94.7713C215.146 94.5882 215.085 94.3127 214.956 94.2583C214.605 94.2147 214.251 94.2115 213.899 94.2487L213.977 94.1136ZM142.177 107.427C142.199 107.7 142.136 107.984 142.22 108.012C142.489 108.123 142.767 108.21 143.051 108.272C143.054 108.094 143.124 107.834 143.049 107.791C142.759 107.698 142.461 107.633 142.159 107.597L142.177 107.427ZM154.987 99.6755C155.01 99.4284 155.019 99.1339 155.02 98.8543C154.852 98.9374 154.585 98.9833 154.522 99.1271C154.432 99.4028 154.381 99.6899 154.371 99.9799L154.987 99.6755ZM201.604 84.8685L200.694 84.7436C200.736 84.9739 200.829 85.1919 200.967 85.3814C201.102 85.4595 201.343 85.4585 201.537 85.4702L201.604 84.8685ZM164.444 42.1036L164.932 41.7448C164.781 41.6581 164.722 41.3439 164.57 41.2958C164.333 41.2874 164.096 41.3122 163.866 41.3697L164.444 42.1036ZM125.456 110.119L125.373 109.811C125.23 109.885 125.097 109.977 124.976 110.083C124.976 110.083 125.027 110.272 125.044 110.382L125.456 110.119ZM3.89271 34.6524L3.88647 35.149C3.88647 35.149 4.15343 35.103 4.17942 35.058C4.21082 34.9003 4.22302 34.7394 4.21573 34.5787L3.89271 34.6524ZM130.013 103.926L130.061 104.294C130.208 104.227 130.342 104.135 130.458 104.023C130.458 104.023 130.422 103.842 130.382 103.739L130.013 103.926ZM149.635 103.949L149.717 104.257C149.86 104.183 149.993 104.092 150.114 103.986C150.114 103.986 150.063 103.796 150.047 103.687L149.635 103.949ZM160.57 109.022C160.614 108.947 160.837 108.976 160.848 108.922C160.885 108.768 160.902 108.61 160.9 108.452C160.824 108.408 160.626 108.474 160.615 108.528C160.577 108.69 160.562 108.856 160.57 109.022ZM158.192 98.3241L158.285 98.5783C158.428 98.5042 158.561 98.4132 158.682 98.3072C158.682 98.3072 158.631 98.1177 158.606 98.023C158.58 97.9282 158.261 98.204 158.192 98.3241ZM136.958 85.6847L136.627 85.7734C136.71 85.9079 136.804 86.0356 136.907 86.1554C136.907 86.1554 137.103 86.1284 137.198 86.1031L136.958 85.6847ZM168.032 93.9806L167.935 93.664C167.792 93.738 167.659 93.8291 167.538 93.9351C167.538 93.9351 167.589 94.1246 167.605 94.2343L168.032 93.9806ZM150.787 80.0217L150.479 80.104C150.553 80.2468 150.644 80.3801 150.75 80.501C150.75 80.501 150.94 80.4503 151.035 80.425L150.787 80.0217ZM173.595 84.4855C173.595 84.4855 173.617 84.7586 173.671 84.7697C173.834 84.8004 174 84.8157 174.166 84.8151C174.166 84.8151 174.119 84.5483 174.074 84.5223C173.916 84.4907 173.755 84.4784 173.595 84.4855ZM167.502 77.6864L167.014 77.6646C167.014 77.6646 167.052 77.9464 167.105 77.9575C167.262 77.9968 167.424 78.0093 167.585 77.9943L167.502 77.6864ZM167.46 75.7812L167.558 76.0977C167.696 76.0204 167.824 75.9264 167.94 75.818C167.94 75.818 167.904 75.6372 167.887 75.5274L167.46 75.7812ZM167.643 74.1458L167.637 74.6425C167.637 74.6425 167.904 74.5965 167.93 74.5515C167.957 74.3933 167.97 74.2328 167.966 74.0722L167.643 74.1458ZM224.172 105.502L224.27 105.819C224.408 105.742 224.536 105.648 224.652 105.539C224.652 105.539 224.616 105.358 224.59 105.264L224.172 105.502ZM212.095 97.9293L212.568 97.9424C212.568 97.9424 212.546 97.6692 212.492 97.6582C212.334 97.6267 212.173 97.6143 212.012 97.6214L212.095 97.9293ZM214.348 97.9492L214.04 98.0315C214.114 98.1743 214.205 98.3076 214.311 98.4285C214.311 98.4285 214.501 98.3778 214.611 98.3612L214.348 97.9492ZM219.911 99.8003L219.904 100.297C219.904 100.297 220.171 100.251 220.197 100.206C220.229 100.048 220.241 99.8873 220.234 99.7267L219.911 99.8003ZM206.735 89.932L206.803 90.472C206.847 90.3969 207.07 90.426 207.081 90.3723C207.125 90.2196 207.143 90.0604 207.133 89.9017L206.735 89.932ZM195.169 82.5142L195.156 82.9872C195.156 82.9872 195.43 82.9649 195.441 82.9112C195.479 82.7495 195.494 82.583 195.486 82.4169L195.169 82.5142ZM182.672 73.8985C182.672 73.8985 182.704 74.1566 182.757 74.1677C182.91 74.2118 183.069 74.2293 183.228 74.2195C183.228 74.2195 183.206 73.9463 183.152 73.9353C183.008 73.9159 182.862 73.9123 182.717 73.9245L182.672 73.8985ZM174.859 69.7677C174.859 69.7677 175.126 69.7217 175.152 69.6767C175.183 69.519 175.196 69.3581 175.188 69.1974C175.188 69.1974 174.93 69.2284 174.904 69.2734C174.887 69.4464 174.887 69.6207 174.904 69.7937L174.859 69.7677Z" fill="white"/>
<path d="M125.987 90.8762L126.725 90.3618C126.638 90.8036 126.526 91.2402 126.39 91.6695C126.295 91.8346 126.026 91.9193 125.832 92.0473L125.987 90.8762Z" fill="white"/>
<path d="M123.942 93.2376L124.622 92.7895C124.649 92.9853 124.734 93.2545 124.65 93.3659C124.452 93.5817 124.224 93.7669 123.972 93.9151L123.942 93.2376Z" fill="white"/>
<path d="M160.877 91.0701C160.983 90.7741 161.109 90.4859 161.255 90.2076C161.298 90.1326 161.558 90.2027 161.737 90.2058C161.675 90.4897 161.588 90.7677 161.478 91.0366C161.449 91.1203 161.166 91.0565 160.877 91.0701Z" fill="white"/>
<path d="M161.037 85.8998L161.078 86.3838C160.958 86.3144 160.693 86.3217 160.681 86.2743C160.687 86.0945 160.716 85.9163 160.767 85.7437L161.037 85.8998Z" fill="white"/>
</svg>
