<svg xmlns="http://www.w3.org/2000/svg" viewBox="0 0 30 34" enable-background="new 0 0 30 34"><path d="M30 22.499c0 1.1-.749 2.5-1.665 3.111l-11.67 7.78c-.916.61-2.414.61-3.33 0l-11.67-7.78c-.916-.611-1.665-2.01-1.665-3.111v-10.998c0-1.1.749-2.5 1.665-3.111l11.67-7.78c.916-.61 2.414-.61 3.33 0l11.67 7.78c.916.611 1.665 2.01 1.665 3.111v10.998z" fill="#56A4CA"/><g><path d="M3.595 22.793c.094.13.245.207.405.207h22c.16 0 .311-.077.405-.207.094-.129.12-.296.07-.449l-6.342-19.422-1.345-.896 6.523 19.974h-20.622l6.522-19.974-1.344.896-6.342 19.423c-.05.152-.024.319.07.448z" fill="#fff"/><path d="M15 26.5c-.115 0-11.5-.029-11.5-2.5s11.385-2.5 11.5-2.5 11.5.029 11.5 2.5-11.385 2.5-11.5 2.5z" fill="#56A4CA"/><path d="M15 22c5.747 0 11 .895 11 2s-5.253 2-11 2-11-.895-11-2 5.253-2 11-2m0-1c-2.815 0-12 .216-12 3s9.185 3 12 3 12-.216 12-3-9.185-3-12-3z" fill="#fff"/><circle cx="15" cy="11" r="3" fill="#fff"/><path d="M12 24.5c-.276 0-.5-.224-.5-.5v-5c0-1.93 1.57-3.5 3.5-3.5s3.5 1.57 3.5 3.5v5c0 .276-.224.5-.5.5h-6z" fill="#fff"/><path d="M15 16c1.657 0 3 1.343 3 3v5h-6v-5c0-1.657 1.343-3 3-3m0-1c-2.206 0-4 1.794-4 4v5c0 .552.448 1 1 1h6c.552 0 1-.448 1-1v-5c0-2.206-1.794-4-4-4z" fill="#56A4CA"/></g><path d="M15 1.152c.429 0 .834.106 1.11.29l11.67 7.78c.639.426 1.22 1.512 1.22 2.279v10.998c0 .767-.581 1.853-1.219 2.279l-11.67 7.78c-.276.184-.681.29-1.11.29s-.834-.106-1.11-.29l-11.67-7.78c-.64-.426-1.221-1.512-1.221-2.279v-10.998c0-.767.581-1.853 1.219-2.279l11.67-7.78c.277-.184.682-.29 1.111-.29m0-1c-.603 0-1.207.153-1.665.458l-11.67 7.78c-.916.611-1.665 2.01-1.665 3.111v10.998c0 1.1.749 2.5 1.665 3.111l11.67 7.78c.458.305 1.061.458 1.665.458s1.207-.153 1.665-.458l11.67-7.78c.916-.611 1.665-2.01 1.665-3.111v-10.998c0-1.1-.749-2.5-1.665-3.111l-11.67-7.78c-.458-.305-1.062-.458-1.665-.458z" fill="#56A4CA"/></svg>