<svg width="311" height="352" viewBox="0 0 311 352" fill="none" xmlns="http://www.w3.org/2000/svg">
<path d="M92 231.453V220.828C60.7311 224.587 31.1001 232.392 31.1001 248.471C31.1001 277.293 126.318 279.529 155.5 279.529C184.682 279.529 279.9 277.293 279.9 248.471C279.9 232.392 250.269 224.587 219 220.828V231.453C248.835 235.191 269.533 241.418 269.533 248.471C269.533 259.911 215.077 269.176 155.5 269.176C95.9229 269.176 41.4668 259.911 41.4668 248.471C41.4668 241.418 62.1647 235.191 92 231.453Z" fill="#191919"/>
<path d="M120.8 141.824H192V168.559H120.8V141.824Z" fill="#191919"/>
<path d="M122 197H184.3V187H122V197Z" fill="#191919"/>
<path d="M122 214.824H193.2V204.824H122V214.824Z" fill="#191919"/>
<path d="M122 232.647H166.5V222.647H122V232.647Z" fill="#191919"/>
<path fill-rule="evenodd" clip-rule="evenodd" d="M209.8 124H103V257.676H209.8V124ZM200.9 132.912V248.765H111.9V132.912H200.9Z" fill="#191919"/>
<path fill-rule="evenodd" clip-rule="evenodd" d="M172.761 6.31538C168.013 3.15773 161.751 1.57373 155.5 1.57373C149.249 1.57373 142.987 3.15773 138.24 6.31538L17.2605 86.8613C7.76463 93.1869 0 107.671 0 119.069V232.931C0 244.319 7.76463 258.813 17.2605 265.139L138.24 345.685C142.987 348.842 149.239 350.426 155.5 350.426C161.761 350.426 168.013 348.842 172.761 345.685L293.74 265.139C303.235 258.813 311 244.33 311 232.931V119.069C311 107.681 303.235 93.1869 293.74 86.8613L172.761 6.31538ZM167.007 14.929C164.146 13.0241 159.947 11.9267 155.5 11.9267C151.053 11.9267 146.854 13.0241 143.983 14.929L111.023 36.873L50.635 221.57C46.0747 223.013 41.8657 224.635 38.1382 226.457L97.0902 46.1492L23.0036 95.4749C16.3897 99.8853 10.3667 111.129 10.3667 119.069V232.931C10.3667 240.872 16.3897 252.115 23.0244 256.525L144.003 337.071C146.865 338.976 151.063 340.073 155.51 340.073C159.958 340.073 164.156 338.976 167.017 337.071L287.996 256.525C294.61 252.115 300.633 240.872 300.633 232.931V119.069C300.633 111.129 294.61 99.8853 287.986 95.4749L213.914 46.1586L272.866 226.459C269.138 224.636 264.927 223.014 260.365 221.57L199.968 36.8741L167.007 14.929Z" fill="#191919"/>
</svg>
