<svg width="104" height="92" viewBox="0 0 104 92" fill="none" xmlns="http://www.w3.org/2000/svg">
<path d="M63.269 56.0872C48.6451 56.2442 35.9558 47.4387 32.9628 33.2713C33.0134 32.0515 32.9791 30.8297 32.8604 29.6145C32.7807 28.9302 31.7223 28.6274 31.5175 29.435C30.0494 36.7374 28.2968 43.7482 22.6634 49.0989C19.7674 51.8461 16.3438 53.9956 12.5935 55.421C8.84326 56.8464 4.84191 57.5191 0.824308 57.3996C0.695278 57.394 0.567112 57.4229 0.453351 57.4832C0.33959 57.5434 0.244459 57.6329 0.178009 57.742C0.11156 57.8512 0.0762601 57.976 0.0758397 58.1033C0.0754192 58.2306 0.109894 58.3557 0.175621 58.4653C-0.029228 58.5214 -0.0861304 58.8242 0.175621 58.8467C0.437372 58.8691 0.608079 58.9252 0.812928 58.9476H0.926732C8.47199 60.1703 16.8594 60.6975 22.9707 65.678C30.2087 71.5895 30.9371 81.2139 30.7664 89.8511C30.7564 90.0972 30.8134 90.3413 30.9315 90.5583C31.0495 90.7753 31.2244 90.9571 31.4378 91.085V91.1972C31.3695 92.1283 32.8376 92.319 33.088 91.3991C33.088 91.2982 33.1449 91.1972 33.1676 91.0626C33.3861 90.9423 33.5678 90.7664 33.6939 90.5534C33.82 90.3403 33.8859 90.0978 33.8846 89.8511V88.3256C35.5348 82.1561 36.9232 76.0651 41.2478 70.9389C46.6535 64.6123 54.3581 61.135 62.5862 60.1927C62.9824 60.148 63.3472 59.9583 63.6084 59.6614C63.8697 59.3644 64.0085 58.9816 63.9973 58.5887C64.2334 58.4231 64.4115 58.1895 64.5071 57.92C64.6027 57.6504 64.6112 57.3583 64.5313 57.0839C64.4514 56.8094 64.287 56.5662 64.0609 56.3877C63.8349 56.2092 63.5582 56.1042 63.269 56.0872ZM77.6198 17.3428C83.7311 17.4438 89.0003 11.8127 90.2863 2.76037C90.2468 1.98313 90.2468 1.20442 90.2863 0.427179C90.2863 -0.0102941 90.7756 -0.212205 90.8439 0.315006C91.4584 4.98138 92.1982 9.43464 94.5539 12.8896C96.9097 16.3445 100.244 18.2738 103.658 18.1953C103.943 18.1953 104.011 18.5767 103.931 18.8683C104.011 18.8683 104.034 19.1039 103.931 19.1151C103.843 19.1309 103.755 19.1534 103.67 19.1824H103.601C100.449 19.9676 96.9325 20.3042 94.3832 23.5011C91.3674 27.2813 91.0715 33.4284 91.1284 38.9472C91.1424 39.2391 91.0404 39.5248 90.8439 39.7437V39.7998C90.8439 40.4055 90.2635 40.5064 90.1611 39.9344V39.7212C90.0582 39.6203 89.9778 39.4993 89.9249 39.3661C89.872 39.2328 89.8478 39.0902 89.8538 38.9472V37.9713C89.171 34.0341 88.5906 30.1193 86.7811 26.855C84.505 22.7832 81.3184 20.5622 77.8588 19.9676C77.4718 19.9003 77.267 19.4068 77.267 18.9469C76.8801 18.4982 76.9825 17.3316 77.6198 17.3428Z" fill="white"/>
</svg>
