<svg width="32" height="42" viewBox="0 0 32 42" fill="none" xmlns="http://www.w3.org/2000/svg">
<path d="M22.0011 9.8C22.1762 9.3396 22.4866 8.943 22.8914 8.66241C23.2963 8.38181 23.7766 8.23036 24.2691 8.228C25.0591 8.228 25.5921 8.627 25.5921 9.224C25.5921 9.694 25.3861 10.106 24.3831 10.646L23.8211 10.924C22.7779 11.3791 21.8836 12.1182 21.2401 13.057C20.7247 13.9934 20.4786 15.0543 20.5291 16.122V16.52H27.8531V14.387H23.0891C23.2171 13.754 23.6151 13.355 24.5611 12.872L25.4351 12.432C27.1351 11.549 27.8681 10.582 27.8681 9.174C27.8834 8.73662 27.7908 8.30221 27.5984 7.90911C27.406 7.51601 27.1199 7.17631 26.7651 6.92C26.0104 6.37946 25.0978 6.10444 24.1701 6.138C23.3901 6.12935 22.6243 6.34678 21.9651 6.764C21.3338 7.14376 20.8273 7.69994 20.5081 8.364V8.406L21.9871 9.886L22.0011 9.8ZM27.1781 18.689L27.1641 18.653H19.2141L15.2031 25.623H23.1461L27.1211 32.513L31.1311 25.551L27.1781 18.689Z" fill="#EC583C"/>
<path d="M21.874 27.848C20.7688 28.7925 19.4517 29.456 18.0349 29.7821C16.6181 30.1082 15.1434 30.0871 13.7365 29.7207C12.3296 29.3544 11.032 28.6535 9.95415 27.6779C8.87631 26.7022 8.05014 25.4806 7.54593 24.117C7.04172 22.7533 6.8744 21.2881 7.05822 19.8459C7.24203 18.4037 7.77154 17.0273 8.60168 15.8338C9.43182 14.6402 10.538 13.6649 11.8261 12.9908C13.1142 12.3167 14.5462 11.9637 16 11.962H16.043L19.235 5.327H19.15C18.1135 5.11316 17.0583 5.00361 16 5C11.7565 5 7.68687 6.68571 4.68629 9.68629C1.68571 12.6869 0 16.7565 0 21C0 25.2435 1.68571 29.3131 4.68629 32.3137C7.68687 35.3143 11.7565 37 16 37C19.3815 37.0092 22.6766 35.9324 25.4 33.928H25.45L21.938 27.791L21.874 27.848Z" fill="#EC583C"/>
</svg>
