<svg width="129" height="42" viewBox="0 0 129 42" fill="none" xmlns="http://www.w3.org/2000/svg">
<path d="M32.1903 18.2931L23.5373 9.64213C23.3978 9.51129 23.2136 9.43848 23.0223 9.43848C22.831 9.43848 22.6469 9.51129 22.5073 9.64213L20.8073 11.3421L27.7593 18.2941C27.8274 18.3616 27.8814 18.4419 27.9183 18.5304C27.9551 18.6189 27.9741 18.7138 27.9741 18.8096C27.9741 18.9055 27.9551 19.0004 27.9183 19.0889C27.8814 19.1773 27.8274 19.2576 27.7593 19.3251L20.6113 26.4731L22.3113 28.1731C22.4508 28.3042 22.635 28.3772 22.8263 28.3772C23.0177 28.3772 23.2019 28.3042 23.3413 28.1731L32.1913 19.3251C32.3222 19.1856 32.395 19.0014 32.395 18.8101C32.395 18.6188 32.3222 18.4347 32.1913 18.2951V18.2931H32.1903Z" fill="#009C9C"/>
<path d="M17.4495 10.2682L16.8195 9.64017C16.6799 9.50934 16.4958 9.43652 16.3045 9.43652C16.1132 9.43652 15.929 9.50934 15.7895 9.64017L14.0895 11.3402L15.2175 12.4702L17.4335 14.6862L19.6465 12.4692L17.4485 10.2692H17.4495V10.2682ZM17.2375 23.1242L15.0265 25.3412L13.8965 26.4692L15.5965 28.1692C15.736 28.3008 15.9206 28.3741 16.1125 28.3741C16.3043 28.3741 16.4889 28.3008 16.6285 28.1692L17.2535 27.5412L19.4685 25.3252L17.2375 23.1242Z" fill="#40E3E3"/>
<path d="M21.0423 18.2929C21.1731 18.4325 21.2459 18.6166 21.2459 18.8079C21.2459 18.9992 21.1731 19.1833 21.0423 19.3229L17.2383 23.1229L19.4553 25.3399L25.4743 19.3199C25.5421 19.2523 25.5959 19.1721 25.6326 19.0837C25.6693 18.9953 25.6881 18.9006 25.6881 18.8049C25.6881 18.7092 25.6693 18.6144 25.6326 18.5261C25.5959 18.4377 25.5421 18.3574 25.4743 18.2899L19.6653 12.4839L17.4493 14.6999L21.0423 18.2929Z" fill="#1ABAB8"/>
<path d="M6.93071 18.5L12.9497 12.48L10.7337 10.264L10.1017 9.64103C9.96225 9.50997 9.77808 9.43701 9.58671 9.43701C9.39533 9.43701 9.21116 9.50997 9.07171 9.64103L0.214706 18.5C0.146677 18.5674 0.0926777 18.6477 0.0558258 18.7361C0.0189739 18.8244 0 18.9193 0 19.015C0 19.1108 0.0189739 19.2056 0.0558258 19.294C0.0926777 19.3824 0.146677 19.4626 0.214706 19.53L8.86771 28.183C9.00732 28.3142 9.19167 28.3872 9.38321 28.3872C9.57475 28.3872 9.75909 28.3142 9.89871 28.183L10.5347 27.555L12.7517 25.339L6.93071 19.531C6.86289 19.4634 6.80908 19.3831 6.77237 19.2946C6.73565 19.2061 6.71675 19.1113 6.71675 19.0155C6.71675 18.9198 6.73565 18.8249 6.77237 18.7365C6.80908 18.648 6.86289 18.5677 6.93071 18.5Z" fill="#87F0F0"/>
<path d="M13.6448 18.5L16.3048 15.844L14.0888 13.628L12.9598 12.5L6.94085 18.52C6.87294 18.5875 6.81905 18.6677 6.78227 18.7561C6.7455 18.8445 6.72656 18.9393 6.72656 19.035C6.72656 19.1307 6.7455 19.2255 6.78227 19.3139C6.81905 19.4023 6.87294 19.4825 6.94085 19.55L12.7388 25.34L13.8668 24.212L16.0838 21.995L13.6298 19.547C13.4987 19.4074 13.4257 19.223 13.4257 19.0315C13.4257 18.84 13.4987 18.6556 13.6298 18.516" fill="#40E3E3"/>
<path d="M13.6465 19.5308L16.0985 21.9798L18.7555 19.3238C18.8236 19.2563 18.8776 19.176 18.9145 19.0875C18.9513 18.999 18.9703 18.9041 18.9703 18.8083C18.9703 18.7124 18.9513 18.6175 18.9145 18.529C18.8776 18.4406 18.8236 18.3603 18.7555 18.2928L16.3055 15.8428L13.6455 18.4998C13.5144 18.6394 13.4414 18.8237 13.4414 19.0153C13.4414 19.2068 13.5154 19.3912 13.6465 19.5308Z" fill="#17CFCF"/>
<path d="M39.1286 16.4569C39.1536 15.4779 39.3486 14.5109 39.7046 13.5979C40.0381 12.7568 40.5519 11.9991 41.2096 11.3779C41.9132 10.7361 42.7419 10.2469 43.6436 9.94087C44.736 9.58222 45.8811 9.41047 47.0306 9.43287C48.3103 9.39241 49.5862 9.59149 50.7926 10.0199C51.6576 10.3399 52.4556 10.8179 53.1446 11.4299C53.6716 11.8999 54.0896 12.4799 54.3706 13.1269C54.5736 13.5999 54.7076 14.0989 54.7696 14.6109C54.7803 14.7049 54.768 14.8001 54.7339 14.8884C54.6997 14.9767 54.6448 15.0554 54.5736 15.1179C54.4336 15.2451 54.2508 15.3151 54.0616 15.3139H51.9476C51.7823 15.3218 51.6194 15.2711 51.4876 15.1709C51.3861 15.0888 51.3029 14.9862 51.2436 14.8699C51.1546 14.7149 51.0636 14.5619 50.9686 14.4099C50.7749 14.1292 50.536 13.8825 50.2616 13.6799C49.8758 13.3933 49.4499 13.1652 48.9976 13.0029C48.3681 12.7842 47.7038 12.6825 47.0376 12.7029C45.8969 12.6461 44.777 13.0238 43.9036 13.7599C43.5101 14.1197 43.1956 14.5573 42.9799 15.0449C42.7642 15.5325 42.6521 16.0597 42.6506 16.5929C42.613 17.3022 42.5953 18.0125 42.5976 18.7229C42.5976 19.4779 42.5976 20.1889 42.6506 20.8519C42.6996 22.2969 43.1206 23.3459 43.9036 23.9969C44.7962 24.685 45.9051 25.0318 47.0306 24.9749C47.6288 24.9794 48.2252 24.9085 48.8056 24.7639C49.3136 24.6395 49.7894 24.4087 50.2016 24.0869C50.6056 23.7569 50.9206 23.3289 51.1156 22.8459C51.3496 22.2459 51.4606 21.6059 51.4436 20.9639V20.7419H48.2566C48.1639 20.7435 48.0718 20.7257 47.9863 20.6895C47.9009 20.6533 47.824 20.5996 47.7606 20.5319C47.6941 20.4682 47.6414 20.3917 47.6056 20.3069C47.5698 20.2221 47.5518 20.1309 47.5526 20.0389V18.1829C47.5544 17.9964 47.6291 17.8181 47.7607 17.686C47.8922 17.5539 48.0702 17.4785 48.2566 17.4759H54.2766C54.4631 17.4787 54.6412 17.5544 54.7727 17.6866C54.9042 17.8189 54.9788 17.9973 54.9806 18.1839V21.0539C54.9914 22.038 54.8229 23.016 54.4836 23.9399C54.1575 24.7952 53.6431 25.5663 52.9786 26.1959C52.267 26.8679 51.4206 27.3809 50.4956 27.7009C48.2429 28.4061 45.8284 28.4061 43.5756 27.7009C42.6773 27.4036 41.8536 26.9162 41.1606 26.2719C40.5106 25.6355 40.0072 24.8649 39.6856 24.0139C39.3359 23.091 39.1448 22.1155 39.1206 21.1289C39.1206 20.7989 39.0906 20.4329 39.0836 20.0339C39.0756 19.6359 39.0836 19.2209 39.0836 18.8039V17.5769C39.0836 17.1749 39.1056 16.8249 39.1206 16.4789L39.1286 16.4569ZM63.0246 17.2699C62.5825 17.2573 62.1423 17.3328 61.7296 17.4919C61.3959 17.6233 61.0904 17.8175 60.8296 18.0639C60.5936 18.2879 60.4026 18.5539 60.2656 18.8499C60.1453 19.11 60.0631 19.3862 60.0216 19.6699H65.9216C65.8837 19.3907 65.818 19.116 65.7256 18.8499C65.6279 18.5566 65.4671 18.2884 65.2546 18.0639C65.0127 17.8128 64.7188 17.6176 64.3936 17.4919C63.956 17.3286 63.4904 17.2532 63.0236 17.2699H63.0246ZM56.6276 21.1859C56.6209 20.2495 56.771 19.3187 57.0716 18.4319C57.3455 17.6026 57.7805 16.8356 58.3516 16.1749C58.9135 15.5372 59.603 15.0248 60.3756 14.6709C61.2035 14.3007 62.1018 14.1145 63.0086 14.1249C63.9143 14.1133 64.812 14.2954 65.6416 14.6589C66.4192 14.9976 67.1185 15.4933 67.6956 16.1149C68.2618 16.7278 68.7018 17.4461 68.9906 18.2289C69.2973 19.0429 69.4528 19.906 69.4496 20.7759V21.9509C69.4465 22.1375 69.3709 22.3156 69.2387 22.4474C69.1066 22.5791 68.9283 22.6543 68.7416 22.6569H60.0216C60.0124 23.0245 60.0964 23.3884 60.2656 23.7149C60.4326 24.0109 60.6606 24.2669 60.9356 24.4669C61.2256 24.6819 61.5516 24.8409 61.8986 24.9369C62.2666 25.0399 62.6456 25.0909 63.0286 25.0909C63.4869 25.1038 63.9445 25.0468 64.3856 24.9219C64.6946 24.8289 64.9856 24.6839 65.2466 24.4929C65.3936 24.3809 65.5506 24.2839 65.7176 24.2039C65.8762 24.144 66.0453 24.1168 66.2146 24.1239H68.3016C68.4931 24.1266 68.6763 24.2024 68.8136 24.3359C68.883 24.3973 68.9368 24.4743 68.9709 24.5605C69.0049 24.6466 69.0182 24.7396 69.0096 24.8319C68.951 25.173 68.8118 25.4953 68.6036 25.7719C68.2978 26.2133 67.9151 26.5961 67.4736 26.9019C66.8954 27.3039 66.2622 27.6205 65.5936 27.8419C64.7636 28.1119 63.8936 28.2399 63.0206 28.2169C62.1175 28.2276 61.2215 28.0555 60.3866 27.7109C59.6084 27.3887 58.9116 26.8975 58.3466 26.2729C57.7768 25.6199 57.3423 24.8602 57.0686 24.0379C56.7624 23.1163 56.6123 22.1499 56.6246 21.1789L56.6276 21.1859ZM75.7036 23.0669C75.6786 23.5369 75.8336 23.9979 76.1356 24.3579C76.4216 24.6809 76.9556 24.8429 77.7426 24.8429H79.3346C79.5207 24.8454 79.6985 24.9204 79.8303 25.0518C79.9621 25.1832 80.0375 25.3608 80.0406 25.5469V27.2699C80.0378 27.4565 79.9624 27.6347 79.8304 27.7667C79.6984 27.8986 79.5203 27.974 79.3336 27.9769H77.3996C75.7606 27.9769 74.5076 27.5809 73.6366 26.7879C72.7666 25.9969 72.3266 24.7819 72.3196 23.1459V17.5299H70.5816C70.4895 17.5309 70.3981 17.5127 70.3134 17.4763C70.2286 17.44 70.1524 17.3864 70.0896 17.3189C70.0214 17.2564 69.9673 17.1802 69.9309 17.0951C69.8945 17.0101 69.8767 16.9183 69.8786 16.8259V15.0999C69.8775 15.0076 69.8955 14.9161 69.9317 14.8312C69.9679 14.7464 70.0213 14.6699 70.0886 14.6069C70.1522 14.5401 70.2287 14.487 70.3134 14.4509C70.3982 14.4148 70.4895 14.3964 70.5816 14.3969H72.3086V10.1379C72.3115 9.95204 72.3866 9.77462 72.518 9.6432C72.6494 9.51179 72.8268 9.4367 73.0126 9.43387H74.9996C75.1853 9.4367 75.3626 9.51164 75.494 9.64284C75.6253 9.77404 75.7005 9.95121 75.7036 10.1369V14.3959H79.0896C79.27 14.4065 79.4397 14.485 79.5645 14.6156C79.6894 14.7462 79.7602 14.9192 79.7626 15.0999V16.8259C79.7601 17.0117 79.6852 17.1892 79.554 17.3208C79.4228 17.4524 79.2455 17.5278 79.0596 17.5309H75.6726L75.7026 23.0679L75.7036 23.0669ZM92.8636 21.1599L89.9896 13.7149L87.1186 21.1599H92.8636ZM91.4266 9.69287C91.5411 9.68466 91.656 9.70013 91.7643 9.73833C91.8725 9.77653 91.9717 9.83662 92.0556 9.91487C92.2236 10.1099 92.3506 10.3359 92.4306 10.5819L98.8276 27.0899C98.8453 27.1482 98.854 27.2089 98.8536 27.2699C98.851 27.4566 98.7757 27.6349 98.6437 27.7669C98.5117 27.899 98.3333 27.9743 98.1466 27.9769H96.2656C96.1347 27.9908 96.0024 27.9784 95.8763 27.9405C95.7503 27.9025 95.6331 27.8397 95.5316 27.7559C95.4084 27.6317 95.3112 27.4841 95.2456 27.3219L94.1166 24.4259H85.8666L84.7366 27.3219C84.6716 27.4839 84.5746 27.6319 84.4506 27.7559C84.3494 27.8399 84.2324 27.9027 84.1065 27.9407C83.9806 27.9786 83.8484 27.9909 83.7176 27.9769H81.8356C81.6499 27.9725 81.473 27.8965 81.342 27.7647C81.2109 27.633 81.1359 27.4557 81.1326 27.2699C81.1314 27.2088 81.1405 27.1479 81.1596 27.0899L87.5556 10.5819C87.6354 10.3368 87.7632 10.11 87.9316 9.91487C88.0153 9.83617 88.1144 9.77578 88.2227 9.73755C88.331 9.69933 88.4461 9.68411 88.5606 9.69287H91.4266ZM110.025 21.9159C110.077 21.4306 110.077 20.9411 110.025 20.4559C109.923 19.3279 109.573 18.5079 108.982 18.0149C108.374 17.5104 107.605 17.2429 106.816 17.2619C106.028 17.237 105.26 17.5053 104.66 18.0149C104.357 18.2916 104.113 18.6256 103.94 18.9973C103.768 19.3691 103.671 19.7713 103.655 20.1809C103.615 20.5109 103.597 20.8429 103.602 21.1749C103.597 21.5069 103.615 21.8389 103.655 22.1679C103.701 22.9848 104.061 23.7523 104.66 24.3099C105.253 24.8355 106.024 25.1152 106.816 25.0919C107.605 25.1108 108.374 24.8433 108.982 24.3389C109.573 23.8469 109.923 23.0309 110.025 21.8969V21.9159ZM107.606 28.2369C107.118 28.2419 106.632 28.1899 106.157 28.0819C105.769 27.9951 105.39 27.8691 105.028 27.7059C104.739 27.5609 104.468 27.3845 104.219 27.1799C104.024 27.0254 103.841 26.8555 103.674 26.6719V32.2319C103.671 32.4187 103.595 32.597 103.463 32.7291C103.331 32.8612 103.152 32.9368 102.966 32.9399H100.984C100.797 32.9375 100.618 32.8622 100.486 32.7299C100.353 32.5976 100.278 32.4189 100.276 32.2319V15.0999C100.28 14.914 100.357 14.7371 100.489 14.606C100.62 14.4749 100.798 14.3997 100.984 14.3959H102.966C103.152 14.3989 103.329 14.474 103.461 14.6052C103.593 14.7365 103.67 14.9138 103.674 15.0999V15.7019C104.059 15.2759 104.524 14.9299 105.043 14.6829C105.406 14.5199 105.784 14.3929 106.172 14.3059C106.647 14.1987 107.133 14.147 107.621 14.1519C108.436 14.1402 109.244 14.3139 109.983 14.6599C110.67 14.9849 111.283 15.4469 111.785 16.0179C112.289 16.5979 112.688 17.2609 112.963 17.9779C113.249 18.7162 113.411 19.4967 113.444 20.2879C113.463 20.5479 113.471 20.8519 113.471 21.2019C113.471 21.5519 113.471 21.8569 113.444 22.1159C113.411 22.9071 113.249 23.6875 112.963 24.4259C112.688 25.1431 112.289 25.8065 111.785 26.3859C111.283 26.9568 110.67 27.4193 109.983 27.7449C109.238 28.0875 108.425 28.2557 107.606 28.2369ZM124.788 21.9169C124.841 21.4316 124.841 20.9421 124.788 20.4569C124.683 19.3279 124.337 18.5079 123.742 18.0149C123.135 17.5093 122.365 17.2416 121.576 17.2619C120.788 17.2371 120.02 17.5054 119.42 18.0149C119.117 18.2914 118.872 18.6254 118.699 18.9974C118.527 19.3694 118.43 19.7721 118.415 20.1819C118.376 20.5115 118.359 20.8431 118.362 21.1749C118.359 21.5069 118.376 21.8389 118.415 22.1679C118.461 22.9848 118.821 23.7523 119.42 24.3099C120.012 24.8356 120.784 25.1153 121.576 25.0919C122.365 25.112 123.135 24.8444 123.742 24.3389C124.337 23.8469 124.683 23.0309 124.788 21.8969V21.9169ZM122.358 28.2179C121.871 28.2231 121.385 28.1714 120.91 28.0639C120.522 27.9765 120.143 27.8502 119.781 27.6869C119.489 27.548 119.214 27.3765 118.961 27.1759C118.764 27.0211 118.58 26.8509 118.411 26.6669V32.2319C118.412 32.3247 118.393 32.4167 118.357 32.5022C118.321 32.5877 118.268 32.6648 118.201 32.7289C118.137 32.7953 118.06 32.8482 117.976 32.8843C117.891 32.9204 117.8 32.939 117.708 32.9389H115.721C115.534 32.936 115.357 32.8605 115.225 32.7284C115.094 32.5963 115.019 32.4181 115.018 32.2319V15.0999C115.02 14.914 115.094 14.7363 115.226 14.6047C115.357 14.4732 115.535 14.3982 115.721 14.3959H117.708C117.893 14.3997 118.07 14.4751 118.201 14.6064C118.332 14.7376 118.407 14.9144 118.411 15.0999V15.7019C118.58 15.5184 118.764 15.3486 118.961 15.1939C119.214 14.9939 119.489 14.8219 119.781 14.6819C120.143 14.5192 120.522 14.3936 120.91 14.3069C121.385 14.1989 121.871 14.1469 122.358 14.1519C123.175 14.1402 123.984 14.3139 124.725 14.6599C125.41 14.9867 126.023 15.4486 126.526 16.0179C127.03 16.5979 127.427 17.2609 127.701 17.9779C127.987 18.7162 128.149 19.4967 128.182 20.2879C128.201 20.5479 128.208 20.8519 128.208 21.2019C128.208 21.5519 128.208 21.8569 128.182 22.1159C128.149 22.9071 127.987 23.6875 127.701 24.4259C127.427 25.1431 127.029 25.8065 126.526 26.3859C126.023 26.9555 125.41 27.4177 124.725 27.7449C123.984 28.0909 123.175 28.2649 122.358 28.2529" fill="white"/>
</svg>
