<svg version="1.2" xmlns="http://www.w3.org/2000/svg" viewBox="0 0 29 34" width="29" height="34"><style>.a{fill:#26224d}</style><path class="a" d="m13.4 28.7c0.3-1.3 0.8-3.4 1.3-5.5 2-6.8 4.7-13.3 8.8-19.2 0.8-1.1 1.7-2.1 2.7-3 0.5-0.4 1.6-0.6 2-0.3 0.5 0.4 0.9 1.4 0.7 2-0.4 1.8-1 3.5-1.8 5.1-3.5 7.3-6.7 14.7-9.1 22.4-0.4 1.5-0.9 3.5-2.9 3.2-2-0.3-1.5-2.4-1.7-4.7z"/><path class="a" d="m5.6 9.8c0.3 0.8 0.7 1.5 0.7 2.2-0.4 5.1-0.8 10.2-1.2 15.4-0.1 0.5-0.2 1.1-0.5 1.5-0.4 0.5-1 1.1-1.5 1.1-0.5 0-1.3-0.7-1.4-1.2-0.4-1.9-1-3.8-0.8-5.6 0.4-3.6 1.2-7.1 2-10.6 0.3-1.2 0.8-2.5 2.7-2.8z"/></svg>