<svg width="882" height="870" viewBox="0 0 882 870" fill="none" xmlns="http://www.w3.org/2000/svg">
<path opacity="0.5" fill-rule="evenodd" clip-rule="evenodd" d="M325 650C504.493 650 650 504.493 650 325C650 145.507 504.493 0 325 0C145.507 0 0 145.507 0 325C0 504.493 145.507 650 325 650ZM325 575C463.071 575 575 463.071 575 325C575 186.929 463.071 75 325 75C186.929 75 75 186.929 75 325C75 463.071 186.929 575 325 575Z" fill="#12715B"/>
<path fill-rule="evenodd" clip-rule="evenodd" d="M557 870C736.493 870 882 724.493 882 545C882 365.507 736.493 220 557 220C377.507 220 232 365.507 232 545C232 724.493 377.507 870 557 870ZM557 795C695.071 795 807 683.071 807 545C807 406.929 695.071 295 557 295C418.929 295 307 406.929 307 545C307 683.071 418.929 795 557 795Z" fill="#12715B"/>
</svg>
