<svg width="136" height="171" viewBox="0 0 136 171" fill="none" xmlns="http://www.w3.org/2000/svg">
<path d="M56.0891 56.4627C46.3651 56.0267 36.5422 58.0397 27.7732 62.2637C23.2812 64.4277 18.6002 67.8917 18.2412 72.8657C17.9242 77.2647 21.1692 81.1137 24.6592 83.8097C30.2392 88.1197 37.0002 90.8847 44.0012 91.7207" stroke="white" stroke-width="3" stroke-miterlimit="10" stroke-linecap="round" stroke-linejoin="round"/>
<path d="M55.3111 96.0469C45.1921 113.157 35.9081 135.53 18.0381 161.17" stroke="white" stroke-width="3" stroke-miterlimit="10" stroke-linecap="round" stroke-linejoin="round"/>
<path d="M79.5498 52.5862C88.6258 55.1412 101 56.5 104.036 42.9052C104.036 42.9052 109.5 20.5 120.5 18.5" stroke="white" stroke-width="3" stroke-miterlimit="10" stroke-linecap="round" stroke-linejoin="round"/>
<path d="M75.7715 97.083C84.6065 107.769 90.8905 113.392 93.3835 127.126C95.9755 141.41 90.2755 150.435 85.0955 162.349" stroke="white" stroke-width="3" stroke-miterlimit="10" stroke-linecap="round" stroke-linejoin="round"/>
<path d="M91.1901 78.1434C91.4381 85.1594 90.0831 92.2004 86.8921 98.4684C82.1021 107.875 70.2301 117.665 59.3521 111.953C47.7531 105.863 42.9831 89.3104 43.5521 77.1204C44.1181 64.9704 50.3121 49.4214 62.0381 43.9854C72.2731 39.2404 80.9981 49.0394 85.4501 57.1734C88.9291 63.5304 90.9311 70.8224 91.1901 78.1434Z" fill="#0D262D"/>
<path d="M91.1901 78.1434C91.4381 85.1594 90.0831 92.2004 86.8921 98.4684C82.1021 107.875 70.2301 117.665 59.3521 111.953C47.7531 105.863 42.9831 89.3104 43.5521 77.1204C44.1181 64.9704 50.3121 49.4214 62.0381 43.9854C72.2731 39.2404 80.9981 49.0394 85.4501 57.1734C88.9291 63.5304 90.9311 70.8224 91.1901 78.1434Z" stroke="white" stroke-miterlimit="10" stroke-linecap="round" stroke-linejoin="round"/>
<path d="M96.6999 160.644C98.8309 161.242 105.446 163.709 105.211 166.64C104.895 170.581 96.9189 170.13 94.2969 170.058C90.7019 169.96 81.8679 168.894 83.2609 163.269C84.5329 158.133 93.3019 159.692 96.6999 160.644Z" fill="#0D262D" stroke="white" stroke-miterlimit="10" stroke-linecap="round" stroke-linejoin="round"/>
<path d="M19.0089 168.693C20.1579 168.238 21.2088 167.414 21.6918 166.276C22.3558 164.711 21.7938 162.803 20.5988 161.593C19.4038 160.383 17.6888 159.8 15.9948 159.659C14.3008 159.518 12.6019 159.777 10.9209 160.036C9.85385 160.201 8.78686 160.365 7.71986 160.529C6.17986 160.766 4.59587 161.02 3.26387 161.828C-1.70213 164.843 2.48587 168.892 6.42787 169.541C9.92387 170.117 15.6769 170.012 19.0089 168.693Z" fill="#0D262D" stroke="white" stroke-miterlimit="10" stroke-linecap="round" stroke-linejoin="round"/>
<path d="M101.882 160.665C101.792 161.498 101.555 162.314 101.187 163.066C100.867 163.72 100.265 164.406 99.5532 164.256C98.9532 164.13 98.6301 163.452 98.5941 162.84C98.5581 162.228 98.7152 161.613 98.6532 161.003C98.5912 160.393 98.2001 159.735 97.5891 159.685C96.8651 159.626 96.3772 160.409 96.1602 161.102C95.9422 161.795 95.7381 162.612 95.0761 162.912C94.3571 163.238 93.4782 162.691 93.1862 161.958C92.8942 161.225 93.0362 160.394 93.2442 159.633C93.4522 158.871 93.7232 158.105 93.6762 157.317" stroke="white" stroke-miterlimit="10" stroke-linecap="round" stroke-linejoin="round"/>
<path d="M12.4172 157.647C13.1412 158.962 13.5443 160.452 13.5833 161.953C13.5933 162.351 13.5162 162.842 13.1412 162.977C12.7672 163.111 12.3972 162.785 12.1412 162.481C11.3332 161.519 10.6233 160.474 10.0273 159.368C9.80728 158.961 9.45825 158.474 9.01025 158.589C8.87425 158.624 8.75826 158.714 8.66626 158.819C8.13626 159.428 8.40523 160.355 8.57123 161.145C8.73823 161.935 8.57924 163.018 7.78424 163.161C7.20924 163.265 6.70728 162.774 6.37628 162.293C5.74028 161.367 5.30623 160.303 5.11523 159.196" stroke="white" stroke-miterlimit="10" stroke-linecap="round" stroke-linejoin="round"/>
<path d="M65.7549 50.752C65.4909 62.999 65.5029 75.2529 65.7899 87.4999" stroke="white" stroke-miterlimit="10" stroke-linecap="round" stroke-linejoin="round"/>
<path d="M72.3903 62.3929C72.3903 63.5279 71.5723 64.4469 70.5643 64.4469C69.5563 64.4469 68.7383 63.5269 68.7383 62.3929C68.7383 61.2589 69.5563 60.3389 70.5643 60.3389C71.5723 60.3389 72.3903 61.2589 72.3903 62.3929Z" fill="white"/>
<path d="M72.3903 73.3489C72.3903 74.4839 71.5723 75.4029 70.5643 75.4029C69.5563 75.4029 68.7383 74.4829 68.7383 73.3489C68.7383 72.2149 69.5563 71.2949 70.5643 71.2949C71.5723 71.2949 72.3903 72.2149 72.3903 73.3489Z" fill="white"/>
<path d="M72.3903 84.305C72.3903 85.44 71.5723 86.359 70.5643 86.359C69.5563 86.359 68.7383 85.439 68.7383 84.305C68.7383 83.171 69.5563 82.251 70.5643 82.251C71.5723 82.251 72.3903 83.171 72.3903 84.305Z" fill="white"/>
<path d="M47.3333 40.6604C42.6303 31.9374 43.7733 18.7344 51.5163 11.9644C61.4723 3.25945 77.3554 4.75445 85.1084 15.1594C91.0114 23.0814 90.8283 34.2014 84.4193 41.7724C75.0073 52.8914 54.9373 54.7634 47.3333 40.6604Z" fill="#0D262D" stroke="white" stroke-miterlimit="10" stroke-linecap="round" stroke-linejoin="round"/>
<path d="M60.0642 23.5915C60.0642 25.6085 59.3492 27.2435 58.4662 27.2435C57.5842 27.2435 56.8682 25.6085 56.8682 23.5915C56.8682 21.5745 57.5832 19.9395 58.4662 19.9395C59.3492 19.9395 60.0642 21.5745 60.0642 23.5915Z" fill="white"/>
<path d="M70.5642 22.9821C70.5642 24.9991 69.8492 26.6341 68.9662 26.6341C68.0832 26.6341 67.3682 24.9991 67.3682 22.9821C67.3682 20.9651 68.0832 19.3301 68.9662 19.3301C69.8492 19.3301 70.5642 20.9651 70.5642 22.9821Z" fill="white"/>
<path d="M62.7821 10.5758C63.4351 7.90178 63.0251 4.98377 61.6611 2.59277" stroke="white" stroke-miterlimit="10" stroke-linecap="round" stroke-linejoin="round"/>
<path d="M66.0752 10.337C66.3922 7.20804 66.8302 4.09205 67.3902 0.998047" stroke="white" stroke-miterlimit="10" stroke-linecap="round" stroke-linejoin="round"/>
<path d="M70.2969 10.3424C71.0539 7.67636 72.2249 5.12936 73.7549 2.81836" stroke="white" stroke-miterlimit="10" stroke-linecap="round" stroke-linejoin="round"/>
<path d="M61.3662 108.354C63.2822 109.886 65.9492 110.429 68.3122 109.769" stroke="white" stroke-miterlimit="10" stroke-linecap="round" stroke-linejoin="round"/>
<path d="M87.4172 83.2988C87.5142 87.5568 86.2332 92.9818 84.0322 95.8308" stroke="white" stroke-miterlimit="10" stroke-linecap="round" stroke-linejoin="round"/>
<path d="M44.0827 95.9103C45.7727 96.4173 47.7137 97.1663 49.2917 95.9883C50.2487 95.2743 50.8227 94.1363 51.0737 92.9693C51.3257 91.7963 51.1577 90.4793 49.9527 90.0143C48.5137 89.4583 46.8937 89.3673 45.4307 88.8443C44.3027 88.4413 43.8597 87.0233 43.8587 85.8643C43.8587 85.4543 43.9137 85.0233 43.7377 84.6523C42.6627 85.5253 41.5637 85.9673 40.2157 86.1333C38.2247 86.3773 36.0427 87.2023 35.5867 89.3903C34.7827 93.2503 41.4087 95.1083 44.0827 95.9103Z" fill="#0D262D" stroke="white" stroke-miterlimit="10" stroke-linecap="round" stroke-linejoin="round"/>
<path d="M129.209 7.30234C129.46 7.31157 129.706 7.36253 129.936 7.46858C133.287 8.9967 126.155 12.611 126.407 12.9279C127.596 14.4552 129.659 16.5957 128.475 18.5804C127.431 20.332 125.228 21.5438 123.203 21.6758C121.324 21.7983 120.002 20.4864 118.992 19.0576C117.864 17.4591 116.745 15.1441 117.745 13.2084C118.386 11.9692 120.36 11.1992 121.566 10.7055C123.094 10.0794 124.692 9.58271 126.09 8.70335C126.687 8.32729 127.246 7.88262 127.887 7.59092C128.3 7.40396 128.762 7.28572 129.209 7.30234Z" fill="#0D262D" stroke="white" stroke-miterlimit="10" stroke-linecap="round" stroke-linejoin="round"/>
<path d="M64.3018 34.1205C66.5708 35.1605 69.3658 34.7285 71.4048 33.2895C73.4438 31.8505 74.7507 29.5135 75.2297 27.0635" stroke="white" stroke-miterlimit="10" stroke-linecap="round" stroke-linejoin="round"/>
<path d="M48.0176 34.8115C49.4006 39.7165 52.9696 43.8815 57.5866 46.0325" stroke="white" stroke-miterlimit="10" stroke-linecap="round" stroke-linejoin="round"/>
<path d="M47.8289 25.7871C47.4059 27.5631 47.258 29.4011 47.389 31.2221" stroke="white" stroke-miterlimit="10" stroke-linecap="round" stroke-linejoin="round"/>
</svg>
