<svg width="104" height="195" viewBox="0 0 104 195" fill="none" xmlns="http://www.w3.org/2000/svg">
<path d="M45.2199 79.2272C38.5909 63.9612 34.0609 48.7722 43.9729 33.7672C49.3589 25.6132 56.9239 19.1882 63.5379 11.9932" stroke="white" stroke-width="3" stroke-miterlimit="10" stroke-linecap="round" stroke-linejoin="round"/>
<path d="M61.9913 80.6012C60.4213 69.4392 56.2923 56.0662 63.4103 46.1182C67.6003 40.2642 73.8703 36.2802 80.1393 32.7402C86.4083 29.2002 92.9323 25.8872 98.1323 20.9092" stroke="white" stroke-width="3" stroke-miterlimit="10" stroke-linecap="round" stroke-linejoin="round"/>
<path d="M102.093 18.1211C102.648 19.1831 102.902 20.4391 102.547 21.5471C102.059 23.0701 100.464 24.0391 98.8432 24.1101C97.2222 24.1811 95.6103 23.4781 94.2893 22.4791C92.9673 21.4801 91.8913 20.1991 90.8283 18.9301C90.1533 18.1241 89.4783 17.3181 88.8033 16.5121C87.8293 15.3491 86.8322 14.1461 86.3642 12.7191C84.6192 7.39808 90.1843 7.28108 93.4583 9.38108C96.3593 11.2431 100.485 15.0421 102.093 18.1211Z" fill="#0E0E0F" stroke="white" stroke-miterlimit="10" stroke-linecap="round" stroke-linejoin="round"/>
<path d="M90.4312 21.5663C91.7752 21.1163 92.9942 20.3363 93.9542 19.3133C94.2092 19.0413 94.4582 18.6483 94.2682 18.3113C94.0792 17.9753 93.6072 17.9633 93.2322 18.0103C92.0462 18.1593 90.8802 18.4293 89.7592 18.8153C89.3462 18.9573 88.7892 19.0713 88.5352 18.7003C88.4582 18.5883 88.4292 18.4503 88.4282 18.3173C88.4202 17.5483 89.1912 17.0753 89.8032 16.6313C90.4152 16.1873 90.9722 15.3283 90.4822 14.7133C90.1282 14.2683 89.4572 14.2853 88.9172 14.4073C87.8792 14.6423 86.9022 15.1043 86.0762 15.7533" stroke="white" stroke-miterlimit="10" stroke-linecap="round" stroke-linejoin="round"/>
<path d="M52.1351 11.0336C50.3941 9.74765 45.2011 5.19765 46.4331 2.59865C48.0891 -0.895352 55.2251 2.28365 57.5971 3.25865C60.8501 4.59565 68.5581 8.63365 65.3331 13.2936C62.3881 17.5496 54.9111 13.0826 52.1351 11.0336Z" fill="#0E0E0F" stroke="white" stroke-miterlimit="10" stroke-linecap="round" stroke-linejoin="round"/>
<path d="M47.4033 9.21673C47.7743 8.48673 48.2743 7.82173 48.8713 7.26273C49.3903 6.77673 50.1793 6.35773 50.7783 6.74173C51.2833 7.06573 51.3433 7.79673 51.1643 8.36973C50.9853 8.94173 50.6283 9.44873 50.4733 10.0287C50.3183 10.6077 50.4473 11.3447 50.9893 11.6027C51.6313 11.9077 52.3483 11.3617 52.7873 10.8027C53.2263 10.2437 53.6973 9.56873 54.4063 9.52373C55.1763 9.47473 55.7903 10.2797 55.8033 11.0517C55.8163 11.8237 55.3973 12.5327 54.9433 13.1577C54.4893 13.7817 53.9753 14.3887 53.7443 15.1257" stroke="white" stroke-miterlimit="10" stroke-linecap="round" stroke-linejoin="round"/>
<path d="M37.5544 115.302C27.3024 123.681 21.2164 136.927 21.5354 150.164C21.8464 163.049 27.8194 175.307 28.0364 188.194" stroke="white" stroke-width="3" stroke-miterlimit="10" stroke-linecap="round" stroke-linejoin="round"/>
<path d="M63.874 114.241C74.441 127.888 79.863 145.425 78.842 162.655C78.309 171.649 76.092 180.566 76.632 189.56" stroke="white" stroke-width="3" stroke-miterlimit="10" stroke-linecap="round" stroke-linejoin="round"/>
<path d="M73.4836 96.1253C73.7256 89.2643 72.4016 82.3783 69.2806 76.2493C64.5966 67.0503 52.9866 57.4763 42.3486 63.0623C31.0056 69.0183 26.3416 85.2053 26.8966 97.1263C27.4506 109.007 33.5066 124.213 44.9746 129.529C54.9836 134.169 63.5156 124.586 67.8696 116.632C71.2726 110.416 73.2306 103.284 73.4836 96.1253Z" fill="#0E0E0F"/>
<mask id="mask0_27482_8081" style="mask-type:luminance" maskUnits="userSpaceOnUse" x="26" y="61" width="48" height="70">
<path d="M73.4836 96.1253C73.7256 89.2643 72.4016 82.3783 69.2806 76.2493C64.5966 67.0503 52.9866 57.4763 42.3486 63.0623C31.0056 69.0183 26.3416 85.2053 26.8966 97.1263C27.4506 109.007 33.5066 124.213 44.9746 129.529C54.9836 134.169 63.5156 124.586 67.8696 116.632C71.2726 110.416 73.2306 103.284 73.4836 96.1253Z" fill="white"/>
</mask>
<g mask="url(#mask0_27482_8081)">
<path d="M50.607 126.451C56.997 124.991 63.387 123.532 69.777 122.072C60.275 124.51 50.618 126.527 40.859 128.113C50.153 125.241 59.713 122.963 69.424 121.307C56.235 123.37 43.046 125.432 29.856 127.495C40.887 124.796 52.092 122.593 63.408 120.901C51.899 122.568 40.39 124.236 28.881 125.903C42.393 122.869 55.904 119.835 69.416 116.801C56.521 119.073 43.528 120.958 30.47 122.451C45.027 118.517 59.994 115.679 75.103 113.654C59.16 116.863 42.875 118.889 26.502 119.7C43.832 114.153 62.281 111.545 80.588 108.968C60.807 112.356 40.867 115.102 20.829 117.197C39.446 111.77 58.666 107.776 78.163 105.285C59.939 108.354 41.778 111.682 23.689 115.265C43.955 108.917 64.82 103.9 86.03 100.276C64.547 103.878 43.034 107.354 21.493 110.705C41.078 106.424 60.662 102.142 80.247 97.8614C59.989 98.9194 40.309 103.717 20.912 108.698C41.909 104.144 62.659 98.8024 83.079 92.6944C62.284 95.3684 41.794 99.6864 21.974 105.57C43.519 99.5044 65.28 93.9674 87.217 88.9704C64.286 91.3194 41.628 95.5084 19.657 101.461C38.837 97.0514 58.146 93.0354 77.563 89.4164C60.621 90.9834 43.816 93.5764 27.324 97.1694C45.187 93.4374 63.05 89.7054 80.914 85.9724C76.035 85.2144 71.025 86.0514 66.169 86.9054C52.385 89.3314 38.643 91.9244 24.95 94.6844C41.055 90.9184 57.16 87.1524 73.265 83.3864C55.835 83.7084 38.758 87.2894 21.857 90.8504C40.113 87.0684 58.28 82.9914 76.346 78.6224C56.754 80.2904 37.555 84.2244 18.432 88.1474C37.676 83.2704 57.108 78.9114 76.689 75.0774C56.502 77.3894 36.468 80.6294 16.709 84.7794C35.407 80.4594 54.212 76.4614 73.107 72.7874C55.087 73.8284 37.203 76.4884 19.864 80.7054C40.031 75.6844 60.375 71.1544 80.859 67.1214C59.541 69.1784 38.645 73.5074 17.82 77.8254C37.954 72.5554 58.449 68.3024 78.928 64.0534C58.657 65.4924 38.811 69.5834 19.064 73.6594C38.624 69.2634 58.461 65.7254 78.466 63.0644C59.264 63.9134 40.311 66.9554 21.43 69.9884C39.841 64.8874 59.143 62.4784 78.332 60.0914C79.062 59.3504 77.339 58.6564 76.194 58.7544C54.594 60.6014 33.238 64.4154 12.627 70.1054" stroke="#0E0E0F" stroke-width="2" stroke-miterlimit="10" stroke-linecap="round" stroke-linejoin="round"/>
</g>
<path d="M73.4836 96.1253C73.7256 89.2643 72.4016 82.3783 69.2806 76.2493C64.5966 67.0503 52.9866 57.4763 42.3486 63.0623C31.0056 69.0183 26.3416 85.2053 26.8966 97.1263C27.4506 109.007 33.5066 124.213 44.9746 129.529C54.9836 134.169 63.5156 124.586 67.8696 116.632C71.2726 110.416 73.2306 103.284 73.4836 96.1253Z" stroke="white" stroke-miterlimit="10" stroke-linecap="round" stroke-linejoin="round"/>
<path d="M20.6244 189.303C19.4804 190.008 18.3194 191.181 18.6164 192.491C18.8184 193.385 19.6814 194.011 20.5794 194.197C21.4764 194.383 22.4064 194.21 23.2994 194.004C25.1244 193.583 26.9874 192.982 28.3494 191.696C29.9464 190.188 30.7484 187.911 28.4474 187.188C26.2074 186.486 22.4654 188.169 20.6244 189.303Z" fill="#0E0E0F" stroke="white" stroke-miterlimit="10" stroke-linecap="round" stroke-linejoin="round"/>
<path d="M82.3158 193.338C83.2208 193.494 84.1597 193.591 85.0517 193.373C85.9447 193.155 86.7917 192.57 87.1107 191.708C88.8007 187.135 79.4727 185.742 76.6967 186.931C70.8187 189.45 79.8218 192.91 82.3158 193.338Z" fill="#0E0E0F" stroke="white" stroke-miterlimit="10" stroke-linecap="round" stroke-linejoin="round"/>
<path d="M48.7724 122.792C48.5144 110.815 48.5254 98.8325 48.8064 86.8555" stroke="white" stroke-miterlimit="10" stroke-linecap="round" stroke-linejoin="round"/>
<path d="M55.2305 111.533C55.2305 110.492 54.4375 109.649 53.4595 109.649C52.4815 109.649 51.6885 110.492 51.6885 111.533C51.6885 112.573 52.4815 113.417 53.4595 113.417C54.4375 113.417 55.2305 112.574 55.2305 111.533Z" fill="white"/>
<path d="M53.4595 103.37C54.4376 103.37 55.2305 102.526 55.2305 101.486C55.2305 100.445 54.4376 99.6016 53.4595 99.6016C52.4814 99.6016 51.6885 100.445 51.6885 101.486C51.6885 102.526 52.4814 103.37 53.4595 103.37Z" fill="white"/>
<path d="M53.4595 93.3217C54.4376 93.3217 55.2305 92.4782 55.2305 91.4377C55.2305 90.3972 54.4376 89.5537 53.4595 89.5537C52.4814 89.5537 51.6885 90.3972 51.6885 91.4377C51.6885 92.4782 52.4814 93.3217 53.4595 93.3217Z" fill="white"/>
<path d="M30.7582 132.663C26.1592 141.193 27.2762 154.105 34.8482 160.725C44.5842 169.238 60.1162 167.776 67.6982 157.6C73.4702 149.853 73.2912 138.978 67.0242 131.575C57.8202 120.702 38.1932 118.871 30.7582 132.663Z" fill="#0E0E0F" stroke="white" stroke-miterlimit="10" stroke-linecap="round" stroke-linejoin="round"/>
<path d="M43.207 149.354C43.207 147.382 42.508 145.783 41.644 145.783C40.781 145.783 40.082 147.382 40.082 149.354C40.082 151.326 40.781 152.925 41.644 152.925C42.508 152.925 43.207 151.326 43.207 149.354Z" fill="white"/>
<path d="M53.4746 149.95C53.4746 147.978 52.7746 146.379 51.9116 146.379C51.0486 146.379 50.3496 147.978 50.3496 149.95C50.3496 151.922 51.0486 153.521 51.9116 153.521C52.7746 153.522 53.4746 151.923 53.4746 149.95Z" fill="white"/>
<path d="M45.8646 162.083C46.5026 164.698 46.1016 167.552 44.7686 169.889" stroke="white" stroke-miterlimit="10" stroke-linecap="round" stroke-linejoin="round"/>
<path d="M49.085 162.315C49.395 165.374 49.824 168.422 50.371 171.448" stroke="white" stroke-miterlimit="10" stroke-linecap="round" stroke-linejoin="round"/>
<path d="M53.2139 162.312C53.9549 164.919 55.0999 167.41 56.5959 169.67" stroke="white" stroke-miterlimit="10" stroke-linecap="round" stroke-linejoin="round"/>
<path d="M31.1468 146.137C31.0878 145.329 31.0278 144.521 30.9688 143.714" stroke="white" stroke-miterlimit="10" stroke-linecap="round" stroke-linejoin="round"/>
<path d="M31.7803 139.916C32.2963 137.383 33.0753 134.879 34.3703 132.642C35.6653 130.405 37.5043 128.438 39.8043 127.258" stroke="white" stroke-miterlimit="10" stroke-linecap="round" stroke-linejoin="round"/>
<path d="M52.8534 135.084C52.3114 134.531 51.6684 134.054 50.8704 133.668C48.7874 132.662 46.2774 132.511 44.1154 133.359C42.1534 134.128 40.5414 135.695 39.6294 137.586C39.2534 138.366 38.6314 139.532 39.2084 140.242C39.7204 140.873 41.1314 140.858 41.8494 140.873C45.9864 140.963 50.1304 140.764 54.2404 140.277C55.4174 140.138 55.6734 139.877 55.1594 138.773C54.4984 137.354 53.8434 136.092 52.8534 135.084Z" fill="white"/>
<path d="M54.4453 65.5752C56.0613 66.1892 57.5583 67.1132 58.8333 68.2802" stroke="white" stroke-miterlimit="10" stroke-linecap="round" stroke-linejoin="round"/>
<path d="M62.3223 71.5732C66.5913 77.3382 69.0693 84.4102 69.3343 91.5782" stroke="white" stroke-miterlimit="10" stroke-linecap="round" stroke-linejoin="round"/>
<path d="M8.55081 57.7305C8.48081 51.6145 1.22882 51.4425 1.07382 57.4995C0.680818 72.8325 1.96382 88.1625 2.40982 103.494C2.52982 107.616 10.0068 107.872 9.88681 103.725C9.44081 88.3935 8.72581 73.0675 8.55081 57.7305Z" fill="#0E0E0F" stroke="white" stroke-miterlimit="10" stroke-linecap="round" stroke-linejoin="round"/>
<path d="M12.054 117.929C11.706 120.737 9.788 121.877 7.124 121.936C3.41 122.019 2.05401 120.681 1.92701 116.891C1.86701 115.1 2.65401 113.577 4.35401 112.855C6.11501 112.109 8.626 112.32 10.201 113.421C11.744 114.499 12.265 116.229 12.054 117.929Z" fill="#0E0E0F" stroke="white" stroke-miterlimit="10" stroke-linecap="round" stroke-linejoin="round"/>
<path d="M9.22559 114.453C10.3356 115.551 10.5826 117.418 9.7966 118.766" stroke="white" stroke-miterlimit="10" stroke-linecap="round" stroke-linejoin="round"/>
<path d="M6.5 66.0771L6.923 85.2532" stroke="white" stroke-miterlimit="10" stroke-linecap="round" stroke-linejoin="round"/>
<path d="M7.3584 89.3848V91.8488" stroke="white" stroke-miterlimit="10" stroke-linecap="round" stroke-linejoin="round"/>
</svg>
