<svg width="154" height="182" viewBox="0 0 154 182" fill="none" xmlns="http://www.w3.org/2000/svg">
<path d="M119.633 167.431C138.369 159.67 147.265 138.191 139.505 119.456C131.744 100.721 110.265 91.8246 91.5303 99.5851C72.7952 107.346 63.8985 128.825 71.659 147.56C79.4195 166.295 100.898 175.191 119.633 167.431Z" fill="#0D262D" stroke="white" stroke-miterlimit="10" stroke-linecap="round" stroke-linejoin="round"/>
<path d="M105.568 165.509C123.244 165.509 137.573 151.18 137.573 133.504C137.573 115.828 123.244 101.499 105.568 101.499C87.8926 101.499 73.5635 115.828 73.5635 133.504C73.5635 151.18 87.8926 165.509 105.568 165.509Z" fill="#0D262D" stroke="white" stroke-miterlimit="10" stroke-linecap="round" stroke-linejoin="round"/>
<path d="M105.568 136.415C107.176 136.415 108.479 135.111 108.479 133.504C108.479 131.896 107.176 130.593 105.568 130.593C103.961 130.593 102.657 131.896 102.657 133.504C102.657 135.111 103.961 136.415 105.568 136.415Z" fill="white"/>
<path d="M111.367 107.118L105.488 133.521L124.827 126.766" stroke="white" stroke-miterlimit="10" stroke-linecap="round" stroke-linejoin="round"/>
<path d="M75.7871 133.504H79.5001" stroke="white" stroke-miterlimit="10" stroke-linecap="round" stroke-linejoin="round"/>
<path d="M131.637 133.504H135.35" stroke="white" stroke-miterlimit="10" stroke-linecap="round" stroke-linejoin="round"/>
<path d="M91.8262 107.083L93.5392 110.378" stroke="white" stroke-miterlimit="10" stroke-linecap="round" stroke-linejoin="round"/>
<path d="M117.599 156.631L119.312 159.925" stroke="white" stroke-miterlimit="10" stroke-linecap="round" stroke-linejoin="round"/>
<path d="M79.1484 147.247L82.4424 145.533" stroke="white" stroke-miterlimit="10" stroke-linecap="round" stroke-linejoin="round"/>
<path d="M128.695 121.475L131.989 119.762" stroke="white" stroke-miterlimit="10" stroke-linecap="round" stroke-linejoin="round"/>
<path d="M80.249 117.824L83.406 119.779" stroke="white" stroke-miterlimit="10" stroke-linecap="round" stroke-linejoin="round"/>
<path d="M127.731 147.229L130.887 149.184" stroke="white" stroke-miterlimit="10" stroke-linecap="round" stroke-linejoin="round"/>
<path d="M89.8887 158.823L91.8437 155.667" stroke="white" stroke-miterlimit="10" stroke-linecap="round" stroke-linejoin="round"/>
<path d="M119.295 111.342L121.25 108.185" stroke="white" stroke-miterlimit="10" stroke-linecap="round" stroke-linejoin="round"/>
<path d="M63.0225 49.6758C87.2355 58.7908 96.4414 72.2458 86.8814 95.2618" stroke="white" stroke-width="3" stroke-miterlimit="10" stroke-linecap="round" stroke-linejoin="round"/>
<path d="M40.065 95.6055C36.491 106.58 32.898 117.639 31.5 129.096C30.102 140.553 31.026 152.57 36.137 162.919" stroke="white" stroke-width="3" stroke-miterlimit="10" stroke-linecap="round" stroke-linejoin="round"/>
<path d="M60.1248 102.739C61.6428 114.733 69.1208 127.786 59.2168 138.272C52.0588 145.851 33.5428 147.868 25.4268 149.604" stroke="white" stroke-width="3" stroke-miterlimit="10" stroke-linecap="round" stroke-linejoin="round"/>
<path d="M21.1676 149.553C21.5156 148.815 21.9526 148.126 22.5906 147.631C25.5366 145.344 27.5906 148.392 28.2036 150.985C28.8936 153.904 28.2696 157.101 27.5136 159.945C26.6586 163.162 24.4486 168.355 20.4266 167.264C14.6706 165.703 19.4076 153.984 20.7446 150.551C20.8756 150.218 21.0126 149.88 21.1676 149.553Z" fill="#0D262D" stroke="white" stroke-miterlimit="10" stroke-linecap="round" stroke-linejoin="round"/>
<path d="M39.8695 51.3982C30.1455 50.9622 20.3225 52.9753 11.5535 57.1993C7.06146 59.3633 2.38046 62.8272 2.02146 67.8012C1.70446 72.2002 4.94946 76.0492 8.43946 78.7452C14.0195 83.0552 20.7805 85.8203 27.7815 86.6563" stroke="white" stroke-width="3" stroke-miterlimit="10" stroke-linecap="round" stroke-linejoin="round"/>
<path d="M75.0943 78.2518C75.3423 85.2678 73.9873 92.3088 70.7963 98.5768C66.0063 107.984 54.1342 117.774 43.2562 112.062C31.6572 105.972 26.8873 89.4188 27.4553 77.2288C28.0213 65.0788 34.2153 49.5298 45.9413 44.0938C56.1773 39.3488 64.9013 49.1478 69.3533 57.2818C72.8333 63.6388 74.8353 70.9308 75.0943 78.2518Z" fill="#0D262D"/>
<path d="M75.0943 78.2518C75.3423 85.2678 73.9873 92.3088 70.7963 98.5768C66.0063 107.984 54.1342 117.774 43.2562 112.062C31.6572 105.972 26.8873 89.4188 27.4553 77.2288C28.0213 65.0788 34.2153 49.5298 45.9413 44.0938C56.1773 39.3488 64.9013 49.1478 69.3533 57.2818C72.8333 63.6388 74.8353 70.9308 75.0943 78.2518Z" stroke="white" stroke-miterlimit="10" stroke-linecap="round" stroke-linejoin="round"/>
<path d="M51.1252 50.665C51.5662 63.618 50.9502 89.558 50.9502 89.558" stroke="white" stroke-miterlimit="10" stroke-linecap="round" stroke-linejoin="round"/>
<path d="M32.3577 40.2808C27.8187 31.4718 29.2077 18.2928 37.0757 11.6678C47.1927 3.14984 63.0447 4.94083 70.6027 15.4898C76.3567 23.5198 75.9657 34.6358 69.4167 42.0848C59.7977 53.0258 39.6967 54.5228 32.3577 40.2808Z" fill="#0D262D" stroke="white" stroke-miterlimit="10" stroke-linecap="round" stroke-linejoin="round"/>
<path d="M45.9471 23.1796C45.9031 25.5476 45.0271 27.4526 43.9911 27.4326C42.9551 27.4136 42.1511 25.4776 42.1951 23.1096C42.2391 20.7416 43.1151 18.8366 44.1511 18.8566C45.1881 18.8756 45.9921 20.8116 45.9471 23.1796Z" fill="white"/>
<path d="M58.2908 22.6962C58.2468 25.0642 57.3708 26.9692 56.3348 26.9492C55.2988 26.9302 54.4948 24.9942 54.5388 22.6262C54.5828 20.2582 55.4588 18.3532 56.4948 18.3732C57.5308 18.3922 58.3348 20.3272 58.2908 22.6962Z" fill="white"/>
<path d="M48.3646 10.4903C49.0666 7.82926 48.7116 4.90328 47.3926 2.48828" stroke="white" stroke-miterlimit="10" stroke-linecap="round" stroke-linejoin="round"/>
<path d="M51.6611 10.313C52.0361 7.19099 52.5331 4.083 53.1501 1" stroke="white" stroke-miterlimit="10" stroke-linecap="round" stroke-linejoin="round"/>
<path d="M58.8236 60.2355C58.8026 61.3835 57.8796 62.2975 56.7636 62.2765C55.6476 62.2555 54.7597 61.3085 54.7817 60.1605C54.8037 59.0125 55.7256 58.0985 56.8416 58.1195C57.9576 58.1405 58.8456 59.0875 58.8236 60.2355Z" fill="white"/>
<path d="M58.6127 71.5656C58.5907 72.7136 57.6687 73.6276 56.5527 73.6066C55.4367 73.5856 54.5487 72.6386 54.5707 71.4906C54.5917 70.3426 55.5147 69.4286 56.6307 69.4496C57.7467 69.4696 58.6337 70.4176 58.6127 71.5656Z" fill="white"/>
<path d="M58.4008 82.8956C58.3788 84.0436 57.4568 84.9576 56.3408 84.9366C55.2248 84.9156 54.3378 83.9686 54.3588 82.8206C54.3798 81.6726 55.3028 80.7587 56.4188 80.7797C57.5348 80.7997 58.4228 81.7476 58.4008 82.8956Z" fill="white"/>
<path d="M55.8838 10.3955C56.6908 7.74451 57.9088 5.2195 59.4818 2.9375" stroke="white" stroke-miterlimit="10" stroke-linecap="round" stroke-linejoin="round"/>
<path d="M27.8641 90.8449C29.5541 91.3519 31.4951 92.1009 33.0731 90.9229C34.0301 90.2089 34.6041 89.0709 34.8551 87.9039C35.1071 86.7309 34.9391 85.4139 33.7341 84.9489C32.2951 84.3929 30.6751 84.3019 29.2121 83.7789C28.0841 83.3759 27.6411 81.9569 27.6401 80.7989C27.6401 80.3889 27.6951 79.9579 27.5191 79.5869C26.4441 80.4599 25.3451 80.9019 23.9971 81.0679C22.0061 81.3119 19.8241 82.1379 19.3681 84.3249C18.5631 88.1849 25.1901 90.0419 27.8641 90.8449Z" fill="#0D262D" stroke="white" stroke-miterlimit="10" stroke-linecap="round" stroke-linejoin="round"/>
<path d="M46.1259 159.504C48.1659 160.13 54.4889 162.672 54.2089 165.549C53.6579 171.2 40.5939 168.006 37.5789 167.211C36.3969 166.899 35.1539 166.482 34.3979 165.521C33.7479 164.696 33.5639 163.578 33.6819 162.534C34.0479 159.292 36.0389 158.485 39.0599 158.411C41.4329 158.353 43.8629 158.81 46.1259 159.504Z" fill="#0D262D" stroke="white" stroke-miterlimit="10" stroke-linecap="round" stroke-linejoin="round"/>
<path d="M51.1141 159.617C51.0121 160.433 50.7691 161.232 50.4011 161.964C50.0811 162.6 49.4891 163.264 48.8061 163.104C48.2301 162.969 47.9321 162.298 47.9081 161.695C47.8851 161.093 48.0471 160.492 47.9991 159.891C47.9511 159.29 47.5861 158.637 46.9991 158.577C46.3031 158.506 45.8191 159.266 45.5971 159.944C45.3751 160.621 45.1631 161.42 44.5201 161.703C43.8221 162.01 42.9861 161.457 42.7181 160.731C42.4501 160.005 42.6031 159.192 42.8171 158.448C43.0311 157.703 43.3061 156.955 43.2761 156.18" stroke="white" stroke-miterlimit="10" stroke-linecap="round" stroke-linejoin="round"/>
<path d="M70.9629 19.9756C71.6699 21.9456 72.0639 24.0276 72.1269 26.1196" stroke="white" stroke-miterlimit="10" stroke-linecap="round" stroke-linejoin="round"/>
<path d="M72.1746 29.3145C71.7246 33.6635 69.6796 37.8295 66.5146 40.8455" stroke="white" stroke-miterlimit="10" stroke-linecap="round" stroke-linejoin="round"/>
<path d="M55.2168 108.878C61.8028 106.32 65.8968 100.033 69.0488 94.04" stroke="white" stroke-miterlimit="10" stroke-linecap="round" stroke-linejoin="round"/>
<path d="M42.7354 108.055C44.8294 109.459 47.3624 110.061 49.8674 109.984" stroke="white" stroke-miterlimit="10" stroke-linecap="round" stroke-linejoin="round"/>
<path d="M29.4268 152.961C28.9518 152.516 28.2798 152.291 27.6328 152.359C27.2078 152.404 26.7848 152.579 26.5018 152.899C26.2188 153.219 26.0978 153.695 26.2568 154.093C26.3788 154.4 26.6439 154.627 26.9209 154.807C27.6439 155.278 28.5189 155.525 29.1389 156.125C29.3979 156.376 29.6118 156.711 29.5898 157.071C29.5608 157.565 29.0898 157.937 28.6058 158.039C28.1218 158.141 27.6218 158.039 27.1318 157.97C26.6418 157.901 26.1178 157.868 25.6768 158.091C25.2648 158.299 24.9739 158.728 24.9319 159.187C24.8909 159.646 25.0998 160.121 25.4678 160.399C26.2518 160.992 27.6158 160.728 28.0798 161.594" stroke="white" stroke-miterlimit="10" stroke-linecap="round" stroke-linejoin="round"/>
<path d="M41.6426 34.2842C46.3106 37.4572 52.8606 37.5842 57.6476 34.5942Z" fill="#0D262D"/>
<path d="M41.6426 34.2842C46.3106 37.4572 52.8606 37.5842 57.6476 34.5942" stroke="white" stroke-miterlimit="10" stroke-linecap="round" stroke-linejoin="round"/>
<path d="M90.4325 93.1112C91.0505 93.2582 91.6145 93.3792 92.0425 93.4002C93.3305 93.4642 94.6375 93.5422 95.8545 93.9662C97.0715 94.3902 98.2085 95.2132 98.7215 96.3952C99.5135 98.2222 98.3545 100.248 96.4915 100.692C94.9875 101.05 93.4215 101.141 91.8855 100.966C90.9795 100.863 88.7945 100.771 88.0815 100.157C87.9495 100.653 88.0035 101.177 87.9695 101.689C87.9355 102.201 87.7815 102.752 87.3615 103.047C86.6885 103.521 85.7085 103.064 85.2505 102.379C84.3295 100.999 84.3845 98.0232 84.3015 96.3842C84.2525 95.4232 84.3635 94.4132 84.8875 93.6062C86.1235 91.7102 88.6745 92.6952 90.4325 93.1112Z" fill="#0D262D" stroke="white" stroke-miterlimit="10" stroke-linecap="round" stroke-linejoin="round"/>
<path d="M106.646 110.142V113.329" stroke="white" stroke-miterlimit="10" stroke-linecap="round" stroke-linejoin="round"/>
<path d="M106.646 158.076V161.262" stroke="white" stroke-miterlimit="10" stroke-linecap="round" stroke-linejoin="round"/>
</svg>
