<svg width="85" height="73" viewBox="0 0 85 73" fill="none" xmlns="http://www.w3.org/2000/svg">
<path d="M29.9888 22.8132C28.9038 23.1502 27.8138 23.4862 26.7488 23.8852C25.6878 24.2842 24.6838 24.7922 23.7258 25.4012C22.9198 25.9152 22.1638 26.5322 21.4218 27.1322C20.7198 27.6992 20.0368 28.2872 19.3668 28.8912C17.9208 30.1922 16.5298 31.5042 15.4118 33.1032C14.8168 33.9542 14.2658 34.8452 13.8068 35.7772C13.3448 36.7152 13.0618 37.7402 12.7798 38.7432C12.5388 39.6012 12.3138 40.4732 12.1728 41.3522C12.0008 42.4222 11.9578 43.5422 12.0318 44.6242C12.0998 45.6142 12.2928 46.6182 12.6228 47.5552C12.8858 48.2992 13.2418 49.0092 13.5698 49.7262C14.0038 50.6752 14.4438 51.6192 14.9768 52.5172C15.3758 53.1912 15.8628 53.8032 16.3768 54.3912C17.7028 55.9072 19.2018 57.3082 20.8558 58.4632C22.2398 59.4302 23.7328 60.2272 25.2938 60.8702C26.2188 61.2522 27.2078 61.4832 28.1708 61.7492C28.9208 61.9552 29.6648 62.1832 30.4228 62.3502C31.1358 62.5072 31.8588 62.5702 32.5878 62.6052C33.1788 62.6332 33.7758 62.6692 34.3618 62.5802C35.0118 62.4822 35.6538 62.3292 36.2788 62.1262C37.2068 61.8252 38.0868 61.3232 38.9398 60.8612C39.2708 60.6832 39.5928 60.4842 39.8958 60.2612C40.3818 59.9052 40.8758 59.5022 41.2428 59.0262C41.6868 58.4492 41.9328 57.7912 41.8638 57.0532C41.7988 56.3672 41.4618 55.7212 40.9358 55.2762C39.8718 54.3722 38.0678 54.4342 37.1838 55.5832C37.1458 55.6332 37.1068 55.6812 37.0658 55.7272C36.6898 56.0242 36.2868 56.2772 35.8678 56.5132C35.2898 56.8002 34.6998 57.0542 34.0828 57.2432C33.7338 57.2982 33.3878 57.3292 33.0338 57.3352C32.2058 57.2702 31.4018 57.1382 30.5898 56.9262C29.7178 56.6982 28.8418 56.4612 27.9758 56.2052C27.3748 55.9872 26.8008 55.7182 26.2218 55.4422C25.6318 55.1602 25.0538 54.8702 24.4928 54.5372C23.1228 53.5922 21.8418 52.4922 20.6958 51.2882C20.0928 50.5902 19.5628 49.8582 19.1068 49.0572C18.7898 48.4072 18.4998 47.7442 18.1968 47.0872C17.9088 46.4642 17.6508 45.8472 17.4618 45.1942C17.3488 44.5162 17.3108 43.8402 17.3128 43.1542C17.4248 41.8162 17.7638 40.4942 18.1518 39.2082C18.4678 38.3202 18.8878 37.4942 19.3778 36.6892C19.7628 36.1192 20.1738 35.5692 20.6308 35.0532C21.2048 34.4042 21.8298 33.8012 22.4658 33.2112C24.0068 31.8202 25.6148 30.4402 27.4018 29.3802C28.8258 28.7192 30.3398 28.2692 31.8368 27.8042C33.2218 27.3752 33.8928 25.6902 33.4088 24.3862C33.1698 23.7392 32.6788 23.2012 32.0548 22.9062C31.6938 22.7342 31.3248 22.6582 30.9518 22.6582C30.6318 22.6572 30.3098 22.7132 29.9888 22.8132Z" fill="#46A3BB"/>
<path d="M32.9803 35.426C32.3013 35.741 31.6393 36.075 30.9773 36.424C30.3333 36.764 29.7853 37.282 29.2923 37.809C28.8013 38.333 28.4243 38.975 28.0863 39.606C27.8373 40.072 27.6603 40.577 27.5003 41.077C27.3603 41.515 27.2273 41.94 27.1233 42.384C26.9833 42.982 26.9823 43.625 27.0203 44.234C27.0793 45.16 27.5203 46.065 28.0343 46.817C28.6983 47.792 29.7563 48.412 30.9143 48.572C31.3303 48.628 31.7533 48.622 32.1613 48.544C32.4823 48.499 32.7903 48.416 33.0893 48.298C33.3793 48.151 33.6653 47.998 33.9493 47.842C34.0413 47.769 34.1333 47.695 34.2253 47.622C34.4453 47.431 34.6593 47.233 34.8693 47.03C35.0923 46.816 35.2743 46.567 35.4553 46.319C35.7733 45.883 36.0473 45.41 36.2663 44.917C36.3913 44.636 36.4893 44.344 36.6053 44.059C36.8803 43.383 36.9553 42.692 36.6973 41.994C36.4563 41.348 35.9673 40.809 35.3433 40.514C35.2133 40.452 35.0793 40.403 34.9403 40.365C35.5353 40.072 36.0103 39.69 36.3063 39.065C36.6123 38.422 36.6463 37.668 36.3983 37C36.1593 36.354 35.6683 35.815 35.0453 35.52C34.6963 35.355 34.2673 35.254 33.8473 35.254C33.5433 35.252 33.2423 35.305 32.9803 35.426ZM30.8503 43.512C30.7833 43.553 30.7143 43.589 30.6423 43.622C30.7113 43.585 30.7803 43.549 30.8503 43.512Z" fill="#46A3BB"/>
<path d="M29.025 15.9747C28.586 15.9777 28.1451 15.9987 27.7051 16.0277C27.0091 16.0737 26.343 16.2277 25.663 16.3887C24.775 16.5977 23.9261 16.9887 23.0991 17.3637C22.0881 17.8207 21.1081 18.3417 20.1391 18.8777C18.5251 19.7687 16.9321 20.7377 15.4491 21.8337C13.8481 23.0167 12.3651 24.3567 11.0191 25.8197C9.80307 27.1397 8.77905 28.5767 7.83605 30.1047C7.01405 31.4377 6.40807 32.9207 5.82707 34.3717C5.07107 36.2567 4.63505 38.2277 4.40505 40.2407C4.28205 41.3317 4.25107 42.4347 4.21907 43.5327C4.19407 44.4507 4.25906 45.3377 4.41806 46.2427C4.74306 48.0907 5.22307 49.9497 5.94107 51.6857C6.25407 52.4417 6.62505 53.1737 7.00205 53.8997C7.51905 54.8887 8.05006 55.8687 8.63206 56.8197C9.11206 57.6027 9.69106 58.3147 10.2761 59.0187C10.9441 59.8217 11.6431 60.5967 12.3491 61.3677C13.6811 62.8237 15.3101 63.8987 17.0781 64.7587C18.9441 65.6677 20.8941 66.3877 22.8821 66.9817C24.7421 67.5367 26.6961 67.8267 28.6261 68.0077C29.7481 68.1117 30.8741 68.1577 32.0011 68.2007C32.9271 68.2377 33.8571 68.2527 34.7831 68.1977C36.8931 68.0727 38.9281 67.5537 40.9101 66.8377C42.3841 66.3057 43.9051 65.6957 45.2221 64.8377C46.3831 64.0817 47.3841 63.0737 48.4191 62.1577C48.5871 62.0047 48.7551 61.8537 48.9221 61.7007C49.2311 61.3337 49.4281 60.9137 49.5131 60.4397C49.6351 59.7477 49.474 59.0277 49.072 58.4517C48.67 57.8767 48.0471 57.4807 47.3541 57.3587C46.7291 57.2477 45.8651 57.3567 45.3661 57.7977C44.7561 58.3397 44.1511 58.8877 43.5321 59.4187C42.9471 59.9227 42.3551 60.3687 41.6951 60.7537C40.9611 61.1067 40.2041 61.4127 39.4421 61.7027C38.5931 62.0257 37.7351 62.3277 36.8561 62.5587C35.9531 62.7367 35.051 62.8537 34.128 62.9067C33.283 62.9577 32.432 62.9357 31.585 62.9047C28.904 62.7727 26.2121 62.4537 23.6361 61.6867C21.6231 61.0067 19.6281 60.2017 17.8021 59.1097C17.0611 58.5667 16.4011 57.9487 15.7721 57.2827C15.0731 56.4947 14.3791 55.6967 13.7431 54.8577C13.0101 53.8887 12.4141 52.8237 11.8411 51.7537C11.4061 50.9007 11.0021 50.0357 10.6551 49.1417C10.3251 48.2877 10.0861 47.3997 9.87406 46.5087C9.74206 45.9007 9.61806 45.2887 9.55906 44.6697C9.49806 44.0147 9.50806 43.3607 9.52906 42.7047C9.62606 40.9097 9.87206 39.1227 10.3631 37.3907C10.7011 36.4477 11.1031 35.5277 11.5071 34.6087C11.8721 33.7777 12.2881 32.9757 12.7621 32.2027C13.8451 30.6007 15.0981 29.1367 16.5051 27.8087C18.6951 25.8877 21.1691 24.3267 23.7271 22.9447C24.8831 22.3517 26.0781 21.7867 27.3301 21.4337C28.1001 21.3137 28.8761 21.2797 29.6571 21.2737C30.8201 21.2647 31.9841 21.2727 33.1461 21.2787C33.8021 21.2827 34.5151 20.8337 34.9251 20.3507C35.3851 19.8077 35.6121 19.0877 35.5441 18.3787C35.4801 17.6917 35.1421 17.0457 34.6161 16.5997C34.0301 16.1027 33.3881 15.9837 32.6441 15.9787C31.8401 15.9747 31.036 15.9707 30.232 15.9707C29.829 15.9707 29.427 15.9717 29.025 15.9747Z" fill="#E2FF5E"/>
<path d="M27.4327 31.4583C26.3937 32.1693 25.4747 33.0183 24.5497 33.8693C23.5547 34.7843 22.8887 35.9713 22.2647 37.1553C21.7417 38.1483 21.3647 39.1623 21.0517 40.2433C20.7767 41.1863 20.7677 42.2063 20.7297 43.1803C20.6907 44.1033 20.6167 45.0493 20.7107 45.9713C20.8417 47.2543 21.2467 48.5143 21.8967 49.6263C22.9377 51.4023 24.7857 52.5493 26.6777 53.2533C27.7447 53.6493 28.8317 53.9733 29.9697 54.0653C30.6337 54.1173 31.3057 54.1573 31.9667 54.0673C32.5527 53.9873 33.1637 53.8623 33.7117 53.6333C35.0497 53.0783 35.8037 51.6143 35.2837 50.2143C34.7957 48.8963 33.2047 48.0853 31.8647 48.6423C31.7757 48.6793 31.6887 48.7113 31.5997 48.7393C31.3467 48.7813 31.0947 48.8063 30.8367 48.8153C30.2727 48.7633 29.7257 48.6643 29.1767 48.5203C28.4977 48.2753 27.8417 47.9893 27.2157 47.6313C27.0187 47.4843 26.8307 47.3313 26.6507 47.1653C26.5617 47.0483 26.4777 46.9283 26.3977 46.8033C26.2757 46.5243 26.1737 46.2403 26.0857 45.9483C25.9117 44.8673 25.9847 43.7713 26.0287 42.6763C26.0197 42.9153 26.0097 43.1533 26.0007 43.3903C26.0397 42.6213 26.1217 41.8763 26.3087 41.1353C26.6627 40.1843 27.1227 39.2713 27.6407 38.3993C27.9887 37.9423 28.3827 37.5373 28.7967 37.1443C29.3427 36.6773 29.8917 36.2243 30.4877 35.8173C31.6847 34.9993 31.9667 33.2903 31.1407 32.1113C30.6267 31.3763 29.7977 30.9893 28.9577 30.9893C28.4267 30.9903 27.8947 31.1433 27.4327 31.4583Z" fill="#E2FF5E"/>
<path d="M70.8493 2.74492C70.6253 2.79492 70.4013 2.84692 70.1763 2.89792C69.7413 3.06292 69.3734 3.31993 69.0704 3.67293C68.3714 4.33093 67.6693 4.98492 66.9903 5.66392C66.3713 6.28192 65.8363 6.96793 65.3363 7.68193C64.7183 8.56193 64.1203 9.46493 63.5563 10.3799C63.3363 10.7359 63.1204 11.0969 62.9594 11.4849C62.7304 12.0399 62.5574 12.6159 62.3994 13.1939C62.3384 13.4229 62.2974 13.6499 62.2834 13.8859C62.2504 14.4719 62.2303 14.8929 62.4393 15.4549C62.5763 15.8229 62.9813 16.4899 63.3193 16.7149C63.7763 17.0219 64.1764 17.3429 64.7464 17.4189C65.1724 17.4769 65.5954 17.5009 66.0264 17.4829C66.2774 17.4729 66.5323 17.4129 66.7803 17.3749C67.3483 17.2859 67.9154 17.1739 68.4794 17.0519C68.3584 17.4399 68.3734 17.8319 68.3674 18.2529C68.4134 18.7189 68.5693 19.1439 68.8363 19.5279C69.2013 20.0479 69.8904 20.5839 70.5544 20.6219C70.8584 20.6399 71.1644 20.6529 71.4704 20.6619C71.8044 20.5859 72.1383 20.5089 72.4743 20.4319C73.1053 20.2849 73.6884 19.6349 73.9544 19.0779C74.0874 18.7959 74.1693 18.4929 74.1973 18.1859C74.5953 17.7579 75.0064 17.3409 75.4124 16.9259C75.8484 16.4809 76.2704 16.0349 76.6324 15.5259C77.1984 14.7289 77.6854 13.8409 77.5884 12.8219C77.4624 11.4899 76.4393 10.3499 75.1163 10.1169C74.1783 9.95193 73.2014 10.2709 72.3084 10.5329C71.8464 10.6679 71.3894 10.8239 70.9294 10.9669C70.3424 11.1489 69.7503 11.3139 69.1553 11.4679C69.5223 10.9319 69.9043 10.4059 70.3183 9.90593C71.1573 8.89393 72.1713 8.01693 73.1293 7.11893C73.6223 6.65593 73.8093 5.78892 73.7503 5.14592C73.6853 4.45992 73.3463 3.81393 72.8223 3.36893C72.3423 2.96093 71.7234 2.73692 71.0954 2.73692C71.0134 2.73292 70.9313 2.73692 70.8493 2.74492Z" fill="#E2FF5E"/>
<path d="M33.8871 34.293C32.9581 34.305 32.0491 34.367 31.1391 34.562C30.1151 34.782 29.1631 35.139 28.2991 35.742C27.8591 36.049 27.4691 36.443 27.1101 36.841C26.8161 37.166 26.5841 37.543 26.3531 37.913C25.9731 38.519 25.7261 39.239 25.5301 39.922C25.3671 40.497 25.2211 41.089 25.1781 41.686C25.1501 42.075 25.1231 42.467 25.1381 42.857C25.1511 43.182 25.1921 43.498 25.2431 43.819C25.3571 44.529 25.5931 45.221 25.8611 45.887C25.9961 46.224 26.1641 46.565 26.3471 46.879C26.6171 47.342 26.9191 47.742 27.2931 48.132C27.4501 48.295 27.6451 48.416 27.8331 48.539C28.0691 48.693 28.3041 48.836 28.5531 48.968C28.9611 49.183 29.4231 49.312 29.8641 49.443C30.3171 49.577 30.7741 49.609 31.2451 49.623C31.7201 49.636 32.1881 49.61 32.6541 49.521C33.5691 49.346 34.5011 49.03 35.2981 48.534C35.4791 48.421 35.6591 48.31 35.8341 48.188C36.2361 47.909 36.5941 47.553 36.9301 47.199C37.1471 46.969 37.3521 46.713 37.5371 46.458C38.0121 45.799 38.4251 45.119 38.7691 44.384C39.0811 43.719 39.3121 43.002 39.4771 42.288C39.6761 41.422 39.5481 40.511 39.4031 39.647C39.2521 38.75 38.9491 37.883 38.4621 37.114C38.1981 36.695 37.8211 36.339 37.4511 36.014C37.2001 35.794 36.9371 35.592 36.6701 35.393C36.3691 35.167 36.0521 34.958 35.7301 34.763C35.5211 34.637 35.2771 34.583 35.0591 34.474C34.8451 34.367 34.6131 34.329 34.3871 34.349C34.2391 34.309 34.0841 34.294 33.9201 34.294C33.9091 34.293 33.8981 34.293 33.8871 34.293ZM34.0581 36.943C34.2491 37.026 34.4441 37.093 34.6291 37.194C35.1361 37.538 35.6281 37.92 36.0631 38.353C36.1751 38.49 36.2761 38.632 36.3691 38.784C36.5191 39.108 36.6301 39.443 36.7261 39.787C36.8331 40.32 36.9081 40.863 36.9221 41.409C36.8861 41.719 36.8131 42.019 36.7271 42.318C36.4841 43.006 36.1821 43.657 35.8201 44.289C35.4671 44.802 35.0901 45.288 34.6511 45.732C34.3791 45.957 34.0931 46.153 33.7931 46.341C33.3351 46.562 32.8701 46.741 32.3761 46.875C31.9831 46.948 31.5891 46.978 31.1891 46.977C30.8851 46.949 30.5941 46.894 30.2981 46.815C29.9761 46.698 29.6691 46.557 29.3701 46.386C29.2431 46.295 29.1231 46.198 29.0081 46.091C28.8531 45.888 28.7161 45.675 28.5841 45.455C28.3101 44.885 28.0931 44.301 27.9211 43.693C27.8341 43.231 27.7891 42.776 27.7871 42.305C27.8431 41.682 27.9581 41.08 28.1241 40.477C28.3031 39.969 28.5121 39.485 28.7831 39.018C29.0061 38.716 29.2471 38.44 29.5121 38.173C29.7561 37.97 30.0111 37.79 30.2841 37.627C30.6981 37.435 31.1251 37.292 31.5671 37.176C32.3921 37.014 33.2171 36.957 34.0581 36.943Z" fill="#2B2B2B"/>
<path d="M31.3488 27.7059C29.8198 28.0829 28.2858 28.4939 26.8268 29.0929C26.3928 29.2709 25.9808 29.4948 25.5678 29.7148C25.0968 29.9648 24.6798 30.3058 24.2658 30.6398C23.7078 31.0908 23.1718 31.5808 22.6798 32.1048C22.2028 32.6128 21.7398 33.1308 21.3138 33.6848C20.8598 34.2768 20.4688 34.9199 20.0918 35.5659C19.4308 36.7019 18.8888 37.9189 18.4228 39.1469C17.9258 40.4609 17.4848 41.8859 17.4148 43.2999C17.3938 43.7289 17.3808 44.1519 17.4078 44.5809C17.4318 44.9339 17.4718 45.2858 17.5188 45.6378C17.6258 46.4098 17.7828 47.1668 17.9628 47.9258C18.1158 48.5718 18.3368 49.1979 18.5838 49.8129C18.7378 50.1989 18.9488 50.5629 19.1448 50.9299C19.3068 51.2339 19.4838 51.5299 19.6618 51.8239C20.0448 52.4549 20.5528 53.0239 21.0608 53.5549C21.5538 54.0689 22.0708 54.5419 22.6378 54.9729C23.2418 55.4319 23.8938 55.8449 24.5498 56.2249C25.1358 56.5649 25.7438 56.8189 26.3808 57.0459C26.9898 57.2629 27.6128 57.4469 28.2528 57.5329C28.6978 57.5939 29.1508 57.6129 29.5998 57.6359C30.4058 57.6779 31.2048 57.6788 32.0098 57.5988C32.7758 57.5228 33.5348 57.3468 34.2768 57.1478C34.9028 56.9798 35.5168 56.7278 36.0958 56.4368C36.6128 56.1768 37.1188 55.9099 37.5848 55.5669C38.0378 55.2339 38.4428 54.8199 38.8568 54.4419C39.3598 53.9819 39.8408 53.4708 40.2968 52.9648C41.2738 51.8798 42.2358 50.7619 43.0228 49.5289C43.4018 48.9369 43.7248 48.3319 43.9918 47.6799C44.2848 46.9639 44.5378 46.2278 44.7338 45.4798C45.0838 44.1378 45.2908 42.7558 45.3638 41.3698C45.4028 40.6398 45.4218 39.9148 45.3848 39.1828C45.3448 38.3648 45.1758 37.5679 44.9918 36.7719C44.8198 36.0219 44.4868 35.3298 44.1178 34.6588C43.7678 34.0208 43.2998 33.4668 42.8038 32.9368C42.4148 32.5168 41.9518 32.1798 41.4768 31.8638C40.9548 31.5158 40.4128 31.1978 39.8808 30.8638C39.3578 30.5078 38.8688 30.1069 38.3468 29.7499C37.9798 29.4979 37.5968 29.2619 37.1738 29.1149C36.7638 28.9719 36.3498 28.8458 35.9298 28.7388C35.3288 28.5858 34.7048 28.5129 34.0948 28.4059C33.8098 28.3569 33.5248 28.3119 33.2378 28.2769C33.1378 28.2649 33.0368 28.2539 32.9348 28.2439C32.8008 28.0339 32.6098 27.8618 32.3828 27.7538C32.2028 27.6678 32.0308 27.6349 31.8568 27.6349C31.6898 27.6329 31.5248 27.6629 31.3488 27.7059ZM31.0368 30.5148C31.3098 30.7878 31.6918 30.9498 32.0908 30.8938C32.2178 30.8758 32.3428 30.8699 32.4688 30.8689C33.0478 30.9149 33.6158 31.0269 34.1888 31.1209C34.8038 31.2199 35.4058 31.3348 36.0018 31.5078C36.2458 31.5968 36.4768 31.7039 36.7018 31.8329C37.1508 32.1409 37.5758 32.4838 38.0188 32.8008C38.5948 33.2088 39.2118 33.5569 39.8098 33.9319C40.2798 34.2499 40.7098 34.5939 41.1058 34.9969C41.4298 35.3919 41.7138 35.8069 41.9678 36.2489C42.2008 36.7499 42.3768 37.2598 42.5138 37.7928C42.7018 38.7728 42.7698 39.7499 42.7498 40.7469C42.6998 41.5859 42.6098 42.4178 42.4868 43.2518C42.3688 44.0488 42.1718 44.8269 41.9408 45.5959C41.7828 46.0409 41.6248 46.4859 41.4248 46.9139C41.2218 47.3469 41.0018 47.7589 40.7538 48.1639C39.4728 49.9689 37.9998 51.6149 36.3808 53.1209C36.0218 53.4169 35.6468 53.6669 35.2468 53.8969C34.9128 54.0609 34.5768 54.2129 34.2328 54.3539C33.8488 54.5119 33.4458 54.6239 33.0458 54.7309C32.5778 54.8299 32.1058 54.9119 31.6288 54.9599C31.0748 55.0149 30.5218 55.0199 29.9668 55.0089C29.2078 54.9679 28.4558 54.9099 27.7208 54.7029C27.2968 54.5609 26.8808 54.4049 26.4658 54.2339C26.0268 54.0509 25.6108 53.7878 25.2058 53.5298C24.7618 53.2358 24.3298 52.9308 23.9148 52.5968C23.5178 52.2778 23.1588 51.9199 22.8078 51.5539C22.5198 51.2289 22.2428 50.8968 21.9998 50.5338C21.7308 50.1348 21.4948 49.7188 21.2668 49.2968C20.9018 48.5088 20.6338 47.6969 20.4238 46.8569C20.2178 45.8449 20.0628 44.8249 20.0368 43.7899C20.1058 42.8439 20.3028 41.9278 20.5698 41.0188C21.1518 39.2898 21.9288 37.6308 22.8738 36.0708C23.5768 35.0358 24.4048 34.1059 25.3038 33.2339C25.8778 32.7289 26.4738 32.2499 27.1398 31.8709C28.3828 31.2779 29.7038 30.8678 31.0368 30.5148ZM36.2238 53.2688C36.1988 53.2918 36.1728 53.3159 36.1478 53.3389C36.1728 53.3159 36.1978 53.2928 36.2238 53.2688Z" fill="#2B2B2B"/>
<path d="M30.6204 21.5754C30.1944 21.5914 29.7684 21.6304 29.3424 21.6574C29.1364 21.6704 28.9464 21.7354 28.7794 21.8394C28.0134 21.9924 27.2414 22.1454 26.4884 22.3494C26.1014 22.4534 25.7134 22.5574 25.3254 22.6624C24.9664 22.7594 24.6124 22.8924 24.2584 23.0074C23.5914 23.2224 22.9534 23.5354 22.3194 23.8294C21.9064 24.0194 21.5104 24.2614 21.1114 24.4764C20.8014 24.6424 20.4994 24.8284 20.1964 25.0054C19.6134 25.3454 19.0484 25.7124 18.4924 26.0934C17.8454 26.5354 17.2664 27.0644 16.6994 27.6044C15.6734 28.5824 14.8004 29.7214 14.0354 30.9124C13.2994 32.0604 12.6114 33.2504 12.0114 34.4754C11.3554 35.8194 10.8774 37.2294 10.5414 38.6864C10.2324 40.0254 10.1164 41.4094 10.0294 42.7784C9.97838 43.5564 9.97838 44.3294 10.0384 45.1064C10.0874 45.7554 10.2244 46.3984 10.3624 47.0334C10.6634 48.4274 11.0764 49.7914 11.6574 51.0954C12.2304 52.3794 12.8804 53.6584 13.6754 54.8204C14.2324 55.6374 14.8694 56.4134 15.6414 57.0384C16.1984 57.4884 16.7544 57.9364 17.3314 58.3624C17.9614 58.8284 18.5934 59.2874 19.2604 59.7004C19.8514 60.0654 20.4644 60.3784 21.0924 60.6754C22.2994 61.2454 23.5364 61.7694 24.7964 62.2064C25.5774 62.4784 26.3614 62.7394 27.1634 62.9384C27.7984 63.0954 28.4654 63.1814 29.1144 63.2574C29.7824 63.3344 30.4534 63.3854 31.1244 63.4144C31.9054 63.4484 32.6864 63.4844 33.4674 63.4564C34.1784 63.4324 34.8724 63.3274 35.5684 63.1904C36.5914 62.9884 37.6054 62.7524 38.5794 62.3694C40.0184 61.8024 41.4064 61.1294 42.7514 60.3684C43.3664 60.0194 43.9434 59.5924 44.5104 59.1734C45.1024 58.7384 45.6834 58.2824 46.2224 57.7824C46.7624 57.2824 47.2694 56.7594 47.7654 56.2144C48.2214 55.7114 48.6354 55.1554 49.0374 54.6094C49.2554 54.3154 49.4684 54.0184 49.6774 53.7184C49.9064 53.3934 50.1484 53.0634 50.3444 52.7174C50.7234 52.0474 51.0664 51.3694 51.3854 50.6684C51.9684 49.3814 52.4634 48.0124 52.7114 46.6184C52.9564 45.2454 53.1794 43.8614 53.3274 42.4744C53.4804 41.0494 53.5754 39.6114 53.4344 38.1824C53.3584 37.4294 53.1644 36.6934 52.9404 35.9734C52.7544 35.3734 52.5214 34.7724 52.2424 34.2084C51.9094 33.5354 51.5474 32.8874 51.1494 32.2514C50.8044 31.6994 50.4454 31.1484 50.0344 30.6434C49.5594 30.0584 49.0274 29.5314 48.4654 29.0314C47.9824 28.6024 47.5184 28.1524 47.0374 27.7204C46.5224 27.2584 45.9894 26.8324 45.4194 26.4394C44.8764 26.0624 44.3254 25.6954 43.7734 25.3314C43.1114 24.8964 42.4404 24.4894 41.7364 24.1244C41.1854 23.8394 40.6124 23.5954 40.0434 23.3464C39.1364 22.9484 38.2184 22.6024 37.2624 22.3424C36.4424 22.1194 35.6094 21.9684 34.7684 21.8554C33.9484 21.7474 33.1244 21.6624 32.2994 21.6174C31.8634 21.5934 31.4274 21.5674 30.9914 21.5674C30.8654 21.5694 30.7434 21.5714 30.6204 21.5754ZM31.5974 24.2254C33.4824 24.3244 35.3724 24.5464 37.1884 25.0734C37.9984 25.3494 38.7824 25.6894 39.5624 26.0424C40.3954 26.4204 41.2024 26.8354 41.9814 27.3154C43.0024 27.9844 44.0364 28.6464 44.9634 29.4404C45.4204 29.8304 45.8484 30.2554 46.2954 30.6574C46.7434 31.0634 47.1974 31.4604 47.6184 31.8934C48.3954 32.8014 49.0454 33.8294 49.6184 34.8764C50.0484 35.7574 50.3944 36.6664 50.6494 37.6114C50.8074 38.4524 50.8624 39.2924 50.8534 40.1504C50.7874 41.4074 50.6444 42.6574 50.4514 43.9034C50.3474 44.5774 50.2494 45.2514 50.1294 45.9224C50.0184 46.5434 49.8654 47.1474 49.6864 47.7504C49.2164 49.0564 48.6464 50.3104 47.9674 51.5214C47.4334 52.3064 46.8754 53.0674 46.2904 53.8174C45.6924 54.5824 45.0204 55.2784 44.3154 55.9434C43.7414 56.4154 43.1554 56.8664 42.5564 57.3084C41.9494 57.7554 41.3034 58.1404 40.6494 58.5124C39.1744 59.2594 37.6604 59.9964 36.0464 60.3854C35.3784 60.5384 34.6984 60.7014 34.0174 60.7544C33.2114 60.8184 32.4134 60.8214 31.6074 60.7954C29.9924 60.7164 28.3874 60.5454 26.8284 60.1044C25.6954 59.7314 24.5854 59.3064 23.4884 58.8354C22.4394 58.3844 21.4064 57.9064 20.4274 57.3144C19.8884 56.9514 19.3624 56.5744 18.8454 56.1804C18.1054 55.6154 17.3344 55.0574 16.6834 54.3874C15.9544 53.5194 15.3764 52.5634 14.8244 51.5744C14.4244 50.7934 14.0644 49.9984 13.7424 49.1804C13.4204 48.3584 13.1884 47.5084 12.9814 46.6524C12.8744 46.1474 12.7784 45.6424 12.7164 45.1284C12.6514 44.5734 12.6354 44.0194 12.6394 43.4614C12.6884 42.4704 12.7804 41.4834 12.9154 40.4994C13.0514 39.5134 13.2894 38.5504 13.5794 37.6004C14.2534 35.7264 15.2264 33.9644 16.2914 32.2834C16.6824 31.7074 17.0894 31.1454 17.5374 30.6114C17.9844 30.0804 18.4624 29.5844 18.9614 29.1034C20.2714 27.9804 21.7784 27.1214 23.2934 26.3014C23.9284 26.0074 24.5644 25.7014 25.2314 25.4864C25.5834 25.3724 25.9324 25.2434 26.2904 25.1464C26.6844 25.0404 27.0794 24.9344 27.4734 24.8274C28.0964 24.6894 28.7194 24.5514 29.3454 24.4264C29.5054 24.3944 29.6534 24.3544 29.7894 24.2934C30.3934 24.2544 30.9924 24.2114 31.5974 24.2254Z" fill="#2B2B2B"/>
<path d="M28.4449 13.9928C27.9939 13.9938 27.5439 14.0088 27.0939 14.0578C26.8549 14.0848 26.6159 14.1219 26.3799 14.1689C26.0429 14.2379 25.6949 14.3059 25.3969 14.4819C25.2719 14.4919 25.1449 14.5179 25.0159 14.5529C23.5149 14.9639 22.0289 15.4138 20.5469 15.8918C19.2289 16.3178 17.8939 16.7609 16.6509 17.3779C15.3359 18.0329 14.0349 18.7249 12.8279 19.5659C12.1909 20.0099 11.5969 20.4979 11.0339 21.0329C10.5109 21.5299 9.99493 22.0308 9.52093 22.5728C8.51593 23.7188 7.68093 24.9928 6.87193 26.2818C6.17693 27.3898 5.54494 28.5608 5.04294 29.7698C4.47594 31.1328 3.99493 32.5269 3.56593 33.9409C3.19193 35.1809 2.83394 36.4339 2.52194 37.6909C1.83594 40.4569 1.65194 43.3128 1.75694 46.1568C1.81194 47.6668 2.14194 49.1559 2.51994 50.6129C2.69094 51.2659 2.90694 51.9018 3.13794 52.5368C3.36794 53.1678 3.62794 53.8009 3.91394 54.4079C4.24694 55.1119 4.62093 55.7888 5.04693 56.4388C5.40193 56.9818 5.81593 57.4869 6.22093 57.9919C7.14993 59.1469 8.17293 60.2159 9.25093 61.2319C10.2289 62.1559 11.2539 63.0419 12.3299 63.8499C13.3559 64.6179 14.4399 65.3138 15.4949 66.0408C16.6719 66.8548 17.8839 67.6158 19.1369 68.3078C20.3139 68.9578 21.5159 69.5819 22.7549 70.1019C23.3519 70.3529 23.9589 70.5699 24.5739 70.7749C25.2869 71.0109 25.9989 71.2499 26.7219 71.4509C27.9359 71.7899 29.1939 71.9529 30.4489 72.0419C31.2309 72.0969 32.0119 72.1069 32.7949 72.0659C33.4379 72.0319 34.0779 71.9378 34.7129 71.8338C35.5009 71.7058 36.2809 71.5128 37.0559 71.3228C37.6779 71.1708 38.2989 70.9988 38.9089 70.8078C40.2069 70.3998 41.4999 69.9419 42.7159 69.3279C43.4499 68.9569 44.1729 68.5738 44.8789 68.1508C45.4659 67.8008 46.0339 67.4189 46.5999 67.0329C47.1539 66.6559 47.6839 66.2429 48.2149 65.8349C48.8059 65.3819 49.3839 64.9119 49.9279 64.4019C50.9289 63.4669 51.9089 62.5089 52.8509 61.5159C53.3389 61.0019 53.8239 60.4858 54.2629 59.9288C54.7129 59.3598 55.1329 58.7729 55.5519 58.1819C56.4009 56.9869 57.1469 55.7319 57.8459 54.4449C58.1829 53.8259 58.5199 53.2068 58.8439 52.5798C59.1659 51.9558 59.5089 51.3328 59.7809 50.6848C60.0939 49.9368 60.3759 49.1808 60.5959 48.3988C60.7949 47.6878 60.9389 46.9659 61.0769 46.2419C61.3469 44.8329 61.4329 43.3708 61.4389 41.9388C61.4419 41.2058 61.4109 40.4738 61.3449 39.7428C61.2779 38.9828 61.0969 38.2388 60.9219 37.4978C60.6209 36.2208 60.2259 34.9669 59.6599 33.7789C59.0039 32.4039 58.2909 31.0618 57.4599 29.7838C56.7409 28.6808 55.9779 27.6018 55.2049 26.5358C54.3479 25.3558 53.3279 24.3059 52.3439 23.2339C51.8839 22.7319 51.4259 22.2268 50.9469 21.7448C50.4719 21.2678 49.9609 20.8278 49.4469 20.3938C48.3319 19.4528 47.2229 18.5068 45.9739 17.7448C44.8829 17.0808 43.7319 16.4608 42.5309 16.0208C41.2109 15.5348 39.8199 15.2328 38.4389 14.9798C37.3369 14.7788 36.2299 14.6299 35.1209 14.4839C34.0639 14.3439 33.0049 14.2118 31.9439 14.1168C30.9029 14.0238 29.8569 13.9938 28.8129 13.9938C28.6909 13.9918 28.5679 13.9918 28.4449 13.9928ZM30.5019 16.6638C32.3329 16.7598 34.1589 17.0248 35.9709 17.2758C37.7359 17.5188 39.5059 17.8398 41.2129 18.3548C42.5259 18.8418 43.7839 19.4898 44.9719 20.2348C45.6139 20.6758 46.2159 21.1569 46.8119 21.6539C47.3909 22.1379 47.9799 22.6128 48.5369 23.1208C49.7059 24.1868 50.7479 25.3868 51.8109 26.5538C51.7349 26.4708 51.6579 26.3859 51.5819 26.3029C52.0779 26.8579 52.5529 27.4248 52.9999 28.0218C53.4049 28.5648 53.7879 29.1279 54.1739 29.6859C54.6019 30.3049 55.0319 30.9239 55.4429 31.5549C55.8319 32.1539 56.1859 32.7709 56.5219 33.3999C56.9269 34.1869 57.3259 34.9809 57.6389 35.8089C57.9879 36.7339 58.2509 37.6738 58.4789 38.6358C58.5379 38.8938 58.5959 39.1528 58.6299 39.4138C58.6859 39.8588 58.7279 40.3049 58.7549 40.7529C58.7969 41.4919 58.7949 42.2278 58.7709 42.9658C58.7149 43.8378 58.6339 44.6979 58.4939 45.5609C58.3569 46.4139 58.1639 47.2529 57.9359 48.0829C57.7209 48.7029 57.4899 49.3108 57.2089 49.9048C56.9199 50.5148 56.6139 51.1178 56.2959 51.7148C55.6159 52.9938 54.9409 54.2779 54.1729 55.5069C53.2889 56.8379 52.3569 58.1338 51.2769 59.3138C50.2479 60.4398 49.1499 61.5088 48.0369 62.5518C46.2229 64.1298 44.2359 65.5279 42.1179 66.6669C41.0719 67.1899 39.9999 67.6508 38.8879 68.0208C37.7609 68.3958 36.6239 68.7118 35.4689 68.9848C34.7369 69.1378 34.0059 69.2729 33.2619 69.3519C32.5659 69.4269 31.8719 69.4499 31.1749 69.4339C30.3679 69.3859 29.5679 69.3009 28.7679 69.1749C27.9809 69.0519 27.2129 68.8468 26.4529 68.6118C25.7859 68.3958 25.1209 68.1749 24.4649 67.9279C23.7289 67.6519 23.0159 67.3099 22.3109 66.9639C20.8849 66.2659 19.4979 65.4928 18.1549 64.6458C17.4149 64.1528 16.6889 63.6409 15.9559 63.1389C15.1779 62.6059 14.3909 62.0879 13.6459 61.5089C12.1289 60.3319 10.6849 59.0188 9.37593 57.6118C8.36493 56.4698 7.40193 55.2838 6.64193 53.9568C6.23693 53.1448 5.88594 52.3058 5.57594 51.4518C5.26194 50.5908 5.01794 49.7209 4.80394 48.8329C4.61694 47.9079 4.47793 46.9869 4.41493 46.0439C4.35593 45.1619 4.37094 44.2718 4.39694 43.3878C4.44394 42.5688 4.50994 41.7559 4.60794 40.9409C4.70894 40.0989 4.87994 39.2659 5.07094 38.4409C5.25794 37.6379 5.49293 36.8458 5.71493 36.0538C5.92493 35.3018 6.13893 34.5518 6.36993 33.8078C6.75993 32.6328 7.17493 31.4538 7.70593 30.3358C7.99493 29.7268 8.29494 29.1258 8.62094 28.5368C8.91394 28.0078 9.23294 27.4959 9.55394 26.9859C10.0359 26.2509 10.5329 25.5268 11.0889 24.8448C11.6789 24.1178 12.3319 23.4578 13.0069 22.8118C13.2669 22.5848 13.5269 22.3618 13.7989 22.1488C14.1289 21.8918 14.4809 21.6648 14.8289 21.4328C15.4529 21.0198 16.1009 20.6489 16.7579 20.2899C17.3949 19.9639 18.0359 19.6498 18.6979 19.3748C19.3959 19.0838 20.1139 18.8418 20.8319 18.6028C22.5219 18.0398 24.2209 17.5218 25.9389 17.0498C25.9609 17.0438 25.9839 17.0369 26.0059 17.0289C26.2609 17.0339 26.5149 16.9648 26.7249 16.8038C27.9619 16.5738 29.2469 16.6218 30.5019 16.6638ZM26.8589 16.7068C26.8529 16.7098 26.8469 16.7138 26.8399 16.7168C26.8459 16.7128 26.8519 16.7098 26.8589 16.7068ZM35.3419 69.0139C35.2949 69.0249 35.2479 69.0358 35.1999 69.0468C35.2469 69.0358 35.2949 69.0249 35.3419 69.0139Z" fill="#2B2B2B"/>
<path d="M72.3089 8.99036C71.9319 9.02636 71.6869 9.20835 71.4199 9.45535C71.4099 9.46535 71.3989 9.47436 71.3889 9.48436C70.3999 10.3514 69.3639 11.1653 68.3409 11.9913C67.2479 12.8743 66.1439 13.7464 65.0329 14.6074C63.9819 15.4244 62.9259 16.2343 61.8929 17.0753C60.8599 17.9153 59.8679 18.8053 58.8359 19.6483C56.6829 21.4123 54.4799 23.1133 52.2769 24.8123C50.0739 26.5113 47.8959 28.2404 45.6999 29.9464C43.6049 31.5734 41.5579 33.2584 39.4419 34.8574C37.1389 36.6004 34.8159 38.3154 32.4909 40.0284C31.9079 40.4574 31.7409 41.2753 32.1639 41.8793C32.5719 42.4633 33.4329 42.6364 34.0169 42.2074C36.3969 40.4544 38.7779 38.7054 41.1299 36.9144C43.3819 35.1984 45.5719 33.4003 47.8159 31.6703C50.0189 29.9703 52.1959 28.2333 54.3989 26.5303C56.5649 24.8573 58.7459 23.1944 60.8409 21.4324C61.8369 20.5924 62.8189 19.7324 63.8339 18.9174C64.8639 18.0904 65.9159 17.2903 66.9559 16.4783C68.0209 15.6493 69.0759 14.8113 70.1259 13.9633C71.2499 13.0543 72.3889 12.1593 73.4499 11.1763C73.6969 10.9473 73.7899 10.5094 73.7599 10.1904C73.7269 9.84735 73.5579 9.52335 73.2949 9.30135C73.0539 9.09735 72.7439 8.98535 72.4299 8.98535C72.3899 8.98535 72.3489 8.98636 72.3089 8.99036Z" fill="#2B2B2B"/>
<path d="M72.8087 0.29969C72.2137 0.49569 71.6757 0.838685 71.1397 1.15668C70.5967 1.47568 70.0677 1.84369 69.5617 2.21969C68.4077 3.07369 67.2767 3.95569 66.1467 4.83869C65.6377 5.23669 65.1297 5.63268 64.6247 6.03568C64.3637 6.24468 64.1007 6.45469 63.8397 6.66669C63.7237 6.76169 63.6077 6.85769 63.4927 6.95469C63.3337 7.08669 63.1807 7.22668 63.0297 7.36568C62.9407 7.46368 62.8617 7.57068 62.7947 7.68468C62.6777 7.84368 62.5777 8.0117 62.4977 8.1907C62.0077 9.1527 61.9067 10.2207 61.8237 11.2747C61.7717 11.9517 61.7197 12.6257 61.6427 13.2997C61.4947 14.5927 61.3517 15.8877 61.2017 17.1807C61.1837 17.3317 61.1647 17.4837 61.1457 17.6367C61.1387 17.7007 61.1307 17.7677 61.1247 17.8307C61.1217 17.8887 61.1187 17.9467 61.1177 18.0047C61.0757 18.2407 61.0967 18.4707 61.1797 18.6967C61.4287 19.6407 62.4087 20.0107 63.2657 20.2047C63.9617 20.3637 64.6627 20.4597 65.3737 20.5267C66.6667 20.6487 67.9527 20.7897 69.2337 20.9987C69.8247 21.0947 70.4127 21.1787 71.0097 21.2137C71.3187 21.2317 71.6277 21.2437 71.9357 21.2507C72.0357 21.2537 72.1347 21.2547 72.2327 21.2547C72.6807 21.2577 73.0997 21.0147 73.4487 20.7587C74.5667 19.9437 75.6267 19.0487 76.6907 18.1677C77.7407 17.3017 78.7797 16.4227 79.8127 15.5397C80.5087 14.9457 81.1977 14.3427 81.9197 13.7807C82.2387 13.5327 82.5627 13.2907 82.8877 13.0507C83.0747 12.9127 83.2647 12.7777 83.4507 12.6377C83.8087 12.3687 84.1097 12.0777 84.3227 11.6787C84.6967 10.9717 84.3097 10.0707 83.6247 9.7337C83.3217 9.5857 82.9847 9.51268 82.6497 9.47968C82.1257 9.42768 81.5957 9.4217 81.0687 9.4127C80.1707 9.3957 79.2737 9.40968 78.3767 9.38068C77.5387 9.34168 76.6997 9.29969 75.8617 9.26769C75.2667 9.24569 74.6767 9.25668 74.0857 9.28168C74.1797 8.17968 74.2897 7.08069 74.4397 5.98469C74.5277 5.34769 74.6177 4.71068 74.7147 4.07668C74.8187 3.40068 74.9477 2.7297 75.0387 2.0527C75.1117 1.4977 74.9777 0.903696 74.5327 0.524696C74.2447 0.280696 73.8817 0.179688 73.5147 0.179688C73.2737 0.183688 73.0327 0.22669 72.8087 0.29969ZM68.8697 6.08569C69.9197 5.27169 70.9687 4.4377 72.0807 3.7057C71.9877 4.3107 71.9027 4.9187 71.8177 5.5267C71.6157 6.9887 71.4877 8.45869 71.3737 9.93169C71.3457 10.2967 71.3767 10.6147 71.5937 10.9247C71.7907 11.2057 72.0917 11.4007 72.4297 11.4677C72.7017 11.8037 73.1357 11.9967 73.5977 11.9707C74.0977 11.9427 74.6017 11.9057 75.1027 11.9007C75.5297 11.8967 75.9557 11.9127 76.3817 11.9297C76.3577 11.9287 76.3337 11.9277 76.3097 11.9267C76.3437 11.9277 76.3777 11.9297 76.4107 11.9317C76.4957 11.9347 76.5807 11.9387 76.6657 11.9417C76.5997 11.9387 76.5337 11.9367 76.4677 11.9337C77.4017 11.9767 78.3377 12.0387 79.2737 12.0497C79.4587 12.0517 79.6437 12.0527 79.8287 12.0537C79.8257 12.0567 79.8227 12.0587 79.8187 12.0617C78.9327 12.7957 78.0667 13.5527 77.1877 14.2947C76.3137 15.0327 75.4357 15.7677 74.5527 16.4947C74.1137 16.8557 73.6727 17.2147 73.2287 17.5707C72.7927 17.9187 72.3607 18.2947 71.8937 18.6057C71.8007 18.6057 71.7077 18.6027 71.6147 18.6007C70.3327 18.5287 69.0797 18.2477 67.8067 18.1067C66.4807 17.9587 65.1247 17.9087 63.8217 17.6077C63.8307 17.5347 63.8397 17.4617 63.8487 17.3887C63.8847 17.0887 63.9157 16.7877 63.9517 16.4877C64.0337 15.7797 64.1137 15.0697 64.1927 14.3597C64.2717 13.6547 64.3547 12.9507 64.4067 12.2427C64.4667 11.4267 64.4997 10.5947 64.7077 9.80169C64.7857 9.59769 64.8707 9.39868 64.9677 9.20168C64.9917 9.17068 65.0167 9.14069 65.0437 9.11069C66.3057 8.08569 67.5857 7.08269 68.8697 6.08569ZM76.4697 11.9337C76.4507 11.9327 76.4317 11.9317 76.4127 11.9307C76.4027 11.9307 76.3937 11.9297 76.3837 11.9297C76.4127 11.9317 76.4407 11.9327 76.4697 11.9337Z" fill="#2B2B2B"/>
<path d="M33.4184 37.664C33.0694 37.793 32.8644 38.032 32.6774 38.341C32.4314 38.752 32.1835 39.165 31.9335 39.575C31.5565 40.188 31.0245 40.838 31.0965 41.599C31.1725 42.392 31.8554 42.9071 32.6044 42.9841C32.8864 43.0141 33.1765 43.011 33.4595 43.006C33.9035 43 34.3445 42.97 34.7865 42.924C35.5085 42.85 36.0544 42.1991 35.9864 41.4731C35.9204 40.7801 35.3004 40.2381 34.6074 40.2701C34.7654 40.0081 34.9225 39.7451 35.0805 39.4821C35.2575 39.1911 35.2405 38.756 35.1265 38.45C35.0075 38.126 34.7615 37.858 34.4505 37.709C34.2715 37.624 34.0744 37.5811 33.8784 37.5811C33.7234 37.5821 33.5664 37.609 33.4184 37.664Z" fill="#2B2B2B"/>
</svg>
