<svg width="453" height="744" viewBox="0 0 453 744" fill="none" xmlns="http://www.w3.org/2000/svg">
<path d="M96.7762 508.134C86.3087 516.649 73.2274 521.297 59.7342 521.297C4.48474 521.297 -20.1679 451.923 22.6923 417.059L356.771 145.306C367.239 136.792 380.32 132.143 393.813 132.143C449.062 132.143 473.715 201.517 430.855 236.381L96.7762 508.134Z" fill="url(#paint0_linear_2237_2888)"/>
<path d="M96.2288 289.991C85.7614 298.506 72.6801 303.154 59.1869 303.154C3.93744 303.154 -20.7152 233.78 22.1449 198.916L356.224 -72.8368C366.691 -81.3514 379.772 -86 393.266 -86C448.515 -86 473.168 -16.626 430.308 18.2382L96.2288 289.991Z" fill="url(#paint1_linear_2237_2888)"/>
<path d="M96.7762 730.837C86.3087 739.351 73.2274 744 59.7342 744C4.48474 744 -20.1679 674.626 22.6923 639.762L356.771 368.009C367.239 359.494 380.32 354.846 393.813 354.846C449.062 354.846 473.715 424.22 430.855 459.084L96.7762 730.837Z" fill="url(#paint2_linear_2237_2888)"/>
<defs>
<linearGradient id="paint0_linear_2237_2888" x1="226.5" y1="-86" x2="226.5" y2="744" gradientUnits="userSpaceOnUse">
<stop stop-color="#16A34A"/>
<stop offset="1" stop-color="#BEFF4E"/>
</linearGradient>
<linearGradient id="paint1_linear_2237_2888" x1="226.5" y1="-86" x2="226.5" y2="744" gradientUnits="userSpaceOnUse">
<stop stop-color="#16A34A"/>
<stop offset="1" stop-color="#BEFF4E"/>
</linearGradient>
<linearGradient id="paint2_linear_2237_2888" x1="226.5" y1="-86" x2="226.5" y2="744" gradientUnits="userSpaceOnUse">
<stop stop-color="#16A34A"/>
<stop offset="1" stop-color="#BEFF4E"/>
</linearGradient>
</defs>
</svg>
