<svg width="153" height="39" viewBox="0 0 153 39" fill="none" xmlns="http://www.w3.org/2000/svg">
<path d="M19.2895 20.2105V19.7105H18.7895H5.78947V18.7688C12.1688 17.1893 17.1893 12.1688 18.7688 5.78947H19.7105V18.7895V19.2895H20.2105H33.2105V20.2312C26.8312 21.8107 21.8107 26.8312 20.2312 33.2105H19.2895V20.2105ZM1.5 14.5H1V15V24V24.5H1.5H14.5V37.5V38H15H24H24.5V37.5C24.5 30.3204 30.3204 24.5 37.5 24.5H38V24V15V14.5H37.5H24.5V1.5V1H24H15H14.5V1.5C14.5 8.67965 8.67965 14.5 1.5 14.5Z" fill="#0F8465" stroke="#0F8465"/>
<path d="M52.656 7.72363C54.512 7.72363 55.856 7.7663 56.688 7.85163C57.52 7.91563 58.1173 8.07563 58.48 8.33163C58.864 8.58763 59.056 9.00363 59.056 9.57963C59.056 10.0489 58.96 10.6676 58.768 11.4356L55.792 24.2356C55.6 25.1529 55.504 25.7076 55.504 25.8996C55.504 26.2409 55.6107 26.4543 55.824 26.5396C56.0587 26.6249 56.5173 26.6676 57.2 26.6676H58.352L57.488 30.7636H53.776C52.4107 30.7636 51.44 30.5823 50.864 30.2196C50.288 29.8569 50 29.1849 50 28.2036C50 27.6063 50.096 26.8809 50.288 26.0276L53.2 13.5476C53.3493 12.9076 53.424 12.5129 53.424 12.3636C53.424 12.1076 53.3173 11.9583 53.104 11.9156C52.912 11.8516 52.4747 11.8196 51.792 11.8196L52.656 7.72363ZM58.7708 22.3156C59.0694 20.6089 59.7201 19.0836 60.7228 17.7396C61.7468 16.3743 63.0481 15.3076 64.6268 14.5396C66.2268 13.7503 67.9974 13.3556 69.9388 13.3556C71.0908 13.3556 72.1361 13.5476 73.0748 13.9316C74.0348 14.2943 74.7921 14.8063 75.3468 15.4676C75.9228 16.1076 76.2108 16.8436 76.2108 17.6756C76.2108 17.8249 76.1894 18.0276 76.1468 18.2836C75.8054 20.2249 74.4828 21.6649 72.1788 22.6036C69.8748 23.5209 66.9521 23.9796 63.4108 23.9796C63.4534 26.1129 64.6054 27.1796 66.8668 27.1796C67.6988 27.1796 68.4774 26.9556 69.2028 26.5076C69.9494 26.0596 70.4614 25.5156 70.7388 24.8756H75.7308C75.2828 26.0703 74.5788 27.1583 73.6188 28.1396C72.6801 29.0996 71.5708 29.8676 70.2908 30.4436C69.0108 30.9983 67.6774 31.2756 66.2908 31.2756C63.7094 31.2756 61.7788 30.6463 60.4988 29.3876C59.2188 28.1289 58.5788 26.4543 58.5788 24.3636C58.5788 23.7023 58.6428 23.0196 58.7708 22.3156ZM63.8908 20.9076C66.1948 20.9076 67.9121 20.7476 69.0428 20.4276C70.1734 20.0863 70.8134 19.4676 70.9628 18.5716C71.0268 18.1449 70.8774 17.7929 70.5148 17.5156C70.1521 17.2169 69.6721 17.0676 69.0748 17.0676C67.7094 17.0676 66.5894 17.4516 65.7148 18.2196C64.8614 18.9663 64.2534 19.8623 63.8908 20.9076ZM77.1878 13.8676H82.9478L84.3558 18.0596C84.4624 18.3796 84.5158 18.6676 84.5158 18.9236C84.5158 19.0303 84.4944 19.1903 84.4518 19.4036L84.4198 19.6276C84.4198 19.9263 84.5584 20.0756 84.8358 20.0756C85.1771 20.0756 85.3904 19.8516 85.4758 19.4036C85.6038 18.9343 85.8278 18.4863 86.1478 18.0596L89.3478 13.8676H95.1078L87.9078 21.9316L92.0358 30.7636H86.2758L84.5158 25.7716C84.4091 25.4943 84.3558 25.2276 84.3558 24.9716C84.3558 24.8223 84.3771 24.6409 84.4198 24.4276L84.4518 24.1716C84.4518 23.8943 84.3131 23.7556 84.0358 23.7556C83.8438 23.7556 83.7051 23.8196 83.6198 23.9476C83.5344 24.0543 83.4598 24.2143 83.3958 24.4276C83.2038 25.0036 82.9798 25.4516 82.7238 25.7716L78.8518 30.7636H73.0917L80.9958 21.9316L77.1878 13.8676ZM93.052 22.3156C93.3507 20.6089 94.0013 19.0836 95.004 17.7396C96.028 16.3743 97.3293 15.3076 98.908 14.5396C100.508 13.7503 102.279 13.3556 104.22 13.3556C105.372 13.3556 106.417 13.5476 107.356 13.9316C108.316 14.2943 109.073 14.8063 109.628 15.4676C110.204 16.1076 110.492 16.8436 110.492 17.6756C110.492 17.8249 110.471 18.0276 110.428 18.2836C110.087 20.2249 108.764 21.6649 106.46 22.6036C104.156 23.5209 101.233 23.9796 97.692 23.9796C97.7347 26.1129 98.8867 27.1796 101.148 27.1796C101.98 27.1796 102.759 26.9556 103.484 26.5076C104.231 26.0596 104.743 25.5156 105.02 24.8756H110.012C109.564 26.0703 108.86 27.1583 107.9 28.1396C106.961 29.0996 105.852 29.8676 104.572 30.4436C103.292 30.9983 101.959 31.2756 100.572 31.2756C97.9907 31.2756 96.06 30.6463 94.78 29.3876C93.5 28.1289 92.86 26.4543 92.86 24.3636C92.86 23.7023 92.924 23.0196 93.052 22.3156ZM98.172 20.9076C100.476 20.9076 102.193 20.7476 103.324 20.4276C104.455 20.0863 105.095 19.4676 105.244 18.5716C105.308 18.1449 105.159 17.7929 104.796 17.5156C104.433 17.2169 103.953 17.0676 103.356 17.0676C101.991 17.0676 100.871 17.4516 99.996 18.2196C99.1427 18.9663 98.5347 19.8623 98.172 20.9076ZM118.394 13.8676L117.786 16.7796C117.68 17.2916 117.445 17.8463 117.082 18.4436C116.72 19.0409 116.506 19.4036 116.442 19.5316C116.378 19.6596 116.346 19.7769 116.346 19.8836C116.346 20.0329 116.41 20.1289 116.538 20.1716C116.581 20.1929 116.634 20.2036 116.698 20.2036C116.805 20.2036 116.901 20.1716 116.986 20.1076C117.072 20.0223 117.125 19.9476 117.146 19.8836C118.128 18.0916 119.354 16.5556 120.826 15.2756C122.32 13.9956 123.877 13.3556 125.498 13.3556C126.693 13.3556 127.536 13.6116 128.026 14.1236C128.538 14.6143 128.794 15.4036 128.794 16.4916C128.794 17.4516 128.581 18.9663 128.154 21.0356L126.074 30.7636H120.954L122.778 22.1876C123.141 20.5663 123.322 19.4356 123.322 18.7956C123.322 18.3689 123.237 18.0596 123.066 17.8676C122.917 17.6756 122.661 17.5796 122.298 17.5796C121.701 17.5796 120.901 18.2089 119.898 19.4676C118.896 20.7049 117.946 22.2089 117.05 23.9796C116.154 25.7289 115.546 27.3183 115.226 28.7476L114.81 30.7636H109.69L113.274 13.8676H118.394ZM129.3 22.6996C129.662 21.0143 130.324 19.4569 131.284 18.0276C132.244 16.5983 133.417 15.4676 134.804 14.6356C136.19 13.7823 137.662 13.3556 139.22 13.3556C140.158 13.3556 140.905 13.5583 141.46 13.9636C142.036 14.3689 142.526 14.9023 142.932 15.5636C143.038 15.7129 143.134 15.8196 143.22 15.8836C143.305 15.9476 143.422 15.9476 143.572 15.8836C143.764 15.7769 143.86 15.6383 143.86 15.4676C143.86 15.4036 143.838 15.3076 143.796 15.1796C143.582 14.7103 143.476 14.3583 143.476 14.1236C143.476 14.0383 143.497 13.8676 143.54 13.6116L144.788 7.72363H149.908L146.708 22.8276C146.366 24.3849 146.121 25.6223 145.972 26.5396C145.822 27.4356 145.748 28.2036 145.748 28.8436C145.748 29.5049 145.844 30.1449 146.036 30.7636H140.852C140.745 30.3369 140.692 29.9743 140.692 29.6756C140.692 29.1209 140.788 28.6089 140.98 28.1396C141.172 27.6489 141.438 27.1263 141.78 26.5716C141.95 26.3156 142.068 26.1236 142.132 25.9956C142.196 25.8676 142.228 25.7609 142.228 25.6756C142.228 25.5476 142.164 25.4516 142.036 25.3876C142.014 25.3663 141.961 25.3556 141.876 25.3556C141.79 25.3556 141.694 25.3876 141.588 25.4516C141.502 25.4943 141.449 25.5583 141.428 25.6436C139.358 29.3983 136.905 31.2756 134.068 31.2756C132.596 31.2756 131.39 30.7209 130.452 29.6116C129.513 28.5023 129.044 27.0196 129.044 25.1636C129.044 24.2889 129.129 23.4676 129.3 22.6996ZM134.388 22.8916C134.281 23.4676 134.228 23.9369 134.228 24.2996C134.228 25.1529 134.42 25.8036 134.804 26.2516C135.209 26.6996 135.732 26.9236 136.372 26.9236C137.182 26.9236 137.982 26.6143 138.772 25.9956C139.561 25.3769 140.265 24.5023 140.884 23.3716C141.502 22.2196 141.972 20.9076 142.292 19.4356C141.865 18.7956 141.438 18.3476 141.012 18.0916C140.585 17.8356 140.03 17.7076 139.348 17.7076C138.11 17.7076 137.054 18.1769 136.18 19.1156C135.326 20.0329 134.729 21.2916 134.388 22.8916Z" fill="#0F8465"/>
</svg>
