<svg width="132" height="42" viewBox="0 0 132 42" fill="none" xmlns="http://www.w3.org/2000/svg">
<g clip-path="url(#clip0_2481_7476)">
<path d="M0.246094 17.6511H19.5791V10.4111L0.246094 17.6501V17.6511Z" fill="#FF9D28"/>
<path d="M19.5801 10.41V36L28.7201 7L19.5801 10.41Z" fill="#68C5ED"/>
<path d="M12.2773 17.6499L19.5793 35.9819V17.6499H12.2773Z" fill="#044D80"/>
<path d="M0.246094 17.6499L14.1571 22.3519L12.2771 17.6499H0.247094H0.246094Z" fill="#E54747"/>
<path d="M128.044 23.945H127.674C127.551 23.9364 127.428 23.9364 127.305 23.945C126.866 23.945 126.427 24.033 125.987 24.103C125.582 24.1591 125.19 24.2839 124.827 24.472C124.507 24.644 124.226 24.88 124.001 25.166C123.77 25.4845 123.652 25.8715 123.667 26.265C123.65 26.7238 123.8 27.1731 124.089 27.53C124.274 27.7211 124.499 27.8678 124.749 27.9591C124.998 28.0503 125.265 28.0838 125.53 28.057C125.863 28.0536 126.194 28.0035 126.514 27.908C126.799 27.8309 127.072 27.7123 127.323 27.556C127.526 27.431 127.709 27.277 127.868 27.1C127.979 26.9723 128.047 26.812 128.061 26.643L128.044 23.945ZM131.453 27.029C131.375 28.0853 131.588 29.1428 132.068 30.087C131.786 30.2082 131.492 30.2967 131.19 30.351C130.9 30.4033 130.606 30.4327 130.311 30.439C129.8 30.4709 129.291 30.3385 128.861 30.061C128.521 29.8009 128.295 29.4204 128.228 28.998C127.787 29.4496 127.257 29.8057 126.673 30.044C125.931 30.342 125.134 30.4823 124.335 30.456C123.848 30.457 123.363 30.392 122.894 30.263C122.417 30.1351 121.971 29.9108 121.584 29.604C121.177 29.2791 120.847 28.8679 120.618 28.4C120.36 27.823 120.234 27.1958 120.249 26.564C120.222 25.79 120.447 25.0281 120.89 24.393C121.326 23.8257 121.889 23.3683 122.534 23.057C123.207 22.7323 123.923 22.5047 124.66 22.381C125.353 22.2655 126.051 22.1861 126.752 22.143C126.965 22.13 127.18 22.13 127.393 22.143H127.956V21.66C127.983 21.3913 127.948 21.1199 127.853 20.8669C127.759 20.6139 127.608 20.386 127.411 20.201C126.888 19.868 126.271 19.7136 125.653 19.761C124.956 19.7519 124.263 19.8775 123.614 20.131C123.011 20.387 122.424 20.681 121.857 21.01C121.609 20.7092 121.41 20.371 121.268 20.008C121.145 19.7542 121.07 19.4799 121.048 19.199C121.058 19.0557 121.101 18.9166 121.172 18.792C121.244 18.6674 121.342 18.5604 121.461 18.479C121.807 18.2077 122.192 17.9912 122.604 17.837C123.143 17.6359 123.699 17.483 124.265 17.38C124.915 17.265 125.573 17.206 126.233 17.204C127.051 17.182 127.869 17.2797 128.659 17.494C129.26 17.654 129.815 17.955 130.276 18.374C130.694 18.8 130.996 19.326 131.154 19.902C131.341 20.602 131.43 21.323 131.418 22.047L131.453 27.029ZM114.159 18.759C114.285 18.5749 114.423 18.3992 114.572 18.233C114.764 18.026 114.987 17.848 115.231 17.705C115.511 17.549 115.805 17.419 116.11 17.319C116.431 17.2058 116.77 17.1519 117.111 17.16C117.331 17.16 117.551 17.16 117.797 17.204C118.021 17.2455 118.239 17.3133 118.447 17.406C118.649 17.483 118.823 17.618 118.948 17.793C119.082 17.9697 119.153 18.1862 119.15 18.408C119.141 18.8679 119.042 19.3216 118.86 19.744C118.696 20.1886 118.499 20.6205 118.271 21.036C118.002 20.8106 117.708 20.6189 117.393 20.465C117.053 20.3264 116.688 20.2603 116.321 20.271C115.82 20.251 115.33 20.421 114.95 20.746C114.773 20.8835 114.63 21.0593 114.531 21.2603C114.432 21.4612 114.379 21.6819 114.378 21.906V30.544H110.696V17.512C110.802 17.482 110.911 17.467 111.021 17.468H111.9C112.414 17.4539 112.924 17.5655 113.385 17.793C113.577 17.9017 113.744 18.0492 113.876 18.2263C114.007 18.4033 114.101 18.6058 114.15 18.821L114.159 18.759ZM103.859 18.759C103.986 18.576 104.124 18.399 104.272 18.233C104.465 18.026 104.687 17.8481 104.931 17.705C105.211 17.549 105.506 17.419 105.81 17.319C106.131 17.2058 106.471 17.1519 106.812 17.16C107.032 17.16 107.251 17.16 107.489 17.204C107.716 17.244 107.937 17.312 108.148 17.406C108.346 17.488 108.519 17.622 108.649 17.793C108.783 17.9697 108.854 18.1862 108.851 18.408C108.841 18.8678 108.743 19.3215 108.561 19.744C108.397 20.1886 108.2 20.6205 107.972 21.036C107.702 20.8126 107.407 20.621 107.093 20.465C106.752 20.3277 106.388 20.2617 106.021 20.271C105.518 20.2529 105.026 20.4222 104.641 20.746C104.467 20.8858 104.327 21.0623 104.23 21.2629C104.132 21.4635 104.081 21.6831 104.079 21.906V30.544H100.45V17.512C100.555 17.4813 100.665 17.4665 100.775 17.468H101.645C102.162 17.454 102.674 17.5655 103.139 17.793C103.329 17.9039 103.495 18.0522 103.626 18.2288C103.757 18.4055 103.851 18.6069 103.903 18.821L103.859 18.759ZM94.2808 22.451C94.3108 21.7253 94.1339 21.006 93.7708 20.377C93.576 20.0982 93.3104 19.8764 93.0015 19.7342C92.6925 19.592 92.3513 19.5346 92.0128 19.568C91.6812 19.5543 91.3508 19.6161 91.0464 19.7486C90.7421 19.8811 90.4718 20.0809 90.2558 20.333C89.7823 20.9335 89.5472 21.6877 89.5958 22.451H94.2808ZM93.0508 27.855C93.4508 27.863 93.8508 27.813 94.2368 27.705C94.5389 27.6135 94.8327 27.4964 95.1148 27.355C95.3634 27.2253 95.5988 27.0719 95.8178 26.897L96.3458 26.432C96.5958 26.757 96.8218 27.101 97.0218 27.46C97.2218 27.769 97.3418 28.122 97.3738 28.488C97.3589 28.7068 97.2911 28.9186 97.1761 29.1054C97.0611 29.2921 96.9025 29.4481 96.7138 29.56C96.229 29.9012 95.6877 30.1541 95.1148 30.307C94.3332 30.5198 93.5259 30.6234 92.7158 30.615C91.8787 30.6137 91.0454 30.5014 90.2378 30.281C89.4094 30.0694 88.643 29.6643 88.0015 29.099C87.36 28.5337 86.8618 27.8242 86.5478 27.029C86.1213 25.9505 85.9205 24.7961 85.9578 23.637C85.9313 22.6479 86.1079 21.664 86.4768 20.746C86.7913 19.9863 87.2614 19.3009 87.8568 18.734C88.4269 18.2129 89.0962 17.8122 89.8248 17.556C90.5443 17.3144 91.2979 17.1895 92.0568 17.186C92.9259 17.1628 93.7905 17.3187 94.5968 17.644C95.2464 17.9224 95.8213 18.35 96.2748 18.892C96.7078 19.405 97.0278 20.004 97.2148 20.649C97.4148 21.337 97.5128 22.051 97.5048 22.767V23.145C97.5178 23.297 97.5178 23.45 97.5048 23.602V24.059C97.5188 24.176 97.5188 24.294 97.5048 24.41H89.6048C89.6188 25.313 89.9278 26.186 90.4848 26.897C90.8068 27.2373 91.2017 27.5004 91.6399 27.6663C92.0781 27.8322 92.5481 27.8967 93.0148 27.855H93.0508ZM76.8008 28.207C76.6756 27.8463 76.596 27.4714 76.5638 27.091C76.5421 26.6986 76.5421 26.3053 76.5638 25.913V13.557C76.6958 13.544 76.8278 13.544 76.9598 13.557H77.7678C78.0628 13.554 78.3578 13.584 78.6468 13.645C78.9258 13.685 79.1888 13.797 79.4108 13.97C79.6518 14.14 79.8478 14.367 79.9828 14.63C80.0968 14.941 80.1478 15.273 80.1318 15.605V17.503H83.8668V20.201H80.1498V25.887C80.1498 27.135 80.6498 27.741 81.6608 27.741C81.8958 27.738 82.1298 27.703 82.3548 27.636C82.5577 27.5562 82.7572 27.4681 82.9528 27.372C83.1348 27.282 83.3028 27.166 83.4528 27.029L83.7348 26.792C83.9648 27.11 84.1698 27.445 84.3498 27.794C84.4818 28.044 84.5568 28.32 84.5698 28.602C84.5686 28.7284 84.5423 28.8533 84.4926 28.9695C84.4428 29.0857 84.3705 29.1909 84.2798 29.279C84.0568 29.529 83.7928 29.736 83.4978 29.894C83.1138 30.11 82.6988 30.264 82.2678 30.351C81.7518 30.471 81.2238 30.531 80.6938 30.527C79.7922 30.5739 78.8968 30.3537 78.1198 29.894C77.5453 29.4545 77.1039 28.8643 76.8448 28.189L76.8008 28.207ZM70.2718 23.611C70.2743 23.1129 70.2301 22.6158 70.1398 22.126C70.0577 21.7039 69.9092 21.2975 69.6998 20.922C69.4967 20.5914 69.2087 20.3214 68.8658 20.14C68.4776 19.9312 68.0402 19.831 67.5998 19.85C67.0478 19.8 66.4962 19.9494 66.0448 20.271C65.9126 20.3899 65.8063 20.5347 65.7323 20.6963C65.6583 20.858 65.6183 21.0332 65.6148 21.211V26.871C65.8348 27.084 66.0948 27.254 66.3788 27.372C66.7688 27.576 67.2048 27.675 67.6438 27.662C68.0418 27.6856 68.4385 27.5978 68.7893 27.4084C69.1401 27.2191 69.4312 26.9356 69.6298 26.59C70.1062 25.6718 70.3279 24.6438 70.2718 23.611ZM65.4558 18.69C65.8305 18.2787 66.2696 17.9312 66.7558 17.661C67.4572 17.294 68.2418 17.1155 69.0328 17.143C69.6738 17.1387 70.3104 17.2488 70.9128 17.468C71.5128 17.7 72.0508 18.067 72.4868 18.54C72.989 19.1092 73.361 19.7812 73.5768 20.509C73.8878 21.479 74.0338 22.495 74.0068 23.514C74.0412 24.6784 73.8775 25.8403 73.5228 26.95C73.2729 27.7356 72.8565 28.458 72.3018 29.068C71.8365 29.5691 71.2581 29.9518 70.6148 30.184C70.0175 30.4009 69.3873 30.5138 68.7518 30.518C68.3035 30.5202 67.857 30.461 67.4248 30.342C67.0891 30.2459 66.7648 30.1135 66.4578 29.947C66.2371 29.8344 66.0306 29.6957 65.8428 29.534C65.7468 29.4475 65.6613 29.3502 65.5878 29.244V35.817H61.9498V17.53C62.0609 17.5184 62.1728 17.5184 62.2838 17.53C62.3888 17.53 62.5208 17.53 62.6528 17.486H63.1528C63.6713 17.4666 64.1876 17.5622 64.6648 17.766C64.8591 17.8608 65.0291 17.9989 65.1617 18.1696C65.2943 18.3404 65.386 18.5392 65.4298 18.751L65.4558 18.69ZM55.4198 23.962H55.0508C54.925 23.9532 54.7987 23.9532 54.6728 23.962C54.2338 23.962 53.7948 24.05 53.3638 24.121C52.9584 24.1745 52.5657 24.2994 52.2038 24.49C51.8808 24.66 51.5958 24.897 51.3688 25.184C51.1457 25.5057 51.0318 25.8906 51.0438 26.282C51.0278 26.74 51.1738 27.188 51.4568 27.548C51.6425 27.7403 51.8697 27.8877 52.1209 27.979C52.3722 28.0703 52.641 28.1031 52.9068 28.075C53.2238 28.062 53.5368 28.005 53.8388 27.908C54.125 27.8339 54.3977 27.7151 54.6468 27.556C54.8528 27.436 55.0368 27.281 55.1918 27.1C55.3052 26.9725 55.3759 26.8126 55.3938 26.643L55.4198 23.962ZM58.8478 27.029C58.7651 28.0856 58.9781 29.1444 59.4628 30.087C59.1808 30.207 58.8858 30.296 58.5838 30.351C58.2938 30.403 57.9998 30.432 57.7048 30.439C57.1786 30.4826 56.6529 30.3496 56.2108 30.061C55.8719 29.8006 55.6457 29.4201 55.5788 28.998C55.1371 29.4493 54.6075 29.8053 54.0228 30.044C53.2806 30.3409 52.4849 30.4812 51.6858 30.456C51.1986 30.4573 50.7135 30.3924 50.2438 30.263C49.7649 30.1334 49.3168 29.9094 48.9258 29.604C48.5215 29.2783 48.1943 28.8671 47.9678 28.4C47.7034 27.8248 47.5741 27.1968 47.5898 26.564C47.5612 25.7884 47.7898 25.0252 48.2398 24.393C48.6768 23.826 49.2398 23.368 49.8838 23.057C50.5537 22.731 51.267 22.5034 52.0018 22.381C52.6973 22.2655 53.3982 22.1861 54.1018 22.143C54.3126 22.1298 54.524 22.1298 54.7348 22.143H55.3328V21.66C55.3602 21.3912 55.3253 21.1198 55.2308 20.8668C55.1363 20.6137 54.9847 20.3859 54.7878 20.201C54.2636 19.8708 53.6477 19.7167 53.0298 19.761C52.3357 19.7525 51.6464 19.8782 50.9998 20.131C50.3948 20.384 49.8078 20.677 49.2428 21.01C48.9891 20.7116 48.787 20.3729 48.6448 20.008C48.5047 19.7306 48.4182 19.4294 48.3898 19.12C48.4006 18.9757 48.4443 18.8359 48.5174 18.7111C48.5906 18.5863 48.6913 18.4799 48.8118 18.4C49.1531 18.1267 49.5359 17.91 49.9458 17.758C50.485 17.5581 51.0404 17.4052 51.6058 17.301C52.2563 17.1864 52.9154 17.1275 53.5758 17.125C54.394 17.102 55.2111 17.1997 56.0008 17.415C56.604 17.5767 57.1607 17.8782 57.6258 18.295C58.0438 18.721 58.3458 19.247 58.5058 19.823C58.6918 20.523 58.7798 21.243 58.7688 21.967L58.8478 27.029ZM45.1558 29.059C44.9936 29.208 44.8171 29.3406 44.6288 29.455C44.3246 29.6442 44.0039 29.8059 43.6708 29.938C43.1948 30.118 42.7038 30.256 42.2028 30.351C41.5538 30.47 40.8948 30.529 40.2348 30.527C38.9636 30.545 37.7011 30.315 36.5178 29.85C35.5159 29.4146 34.6306 28.7493 33.9338 27.908C33.2566 27.0544 32.7629 26.0702 32.4838 25.017C32.1495 23.8125 31.9869 22.5669 32.0008 21.317C31.989 20.0585 32.1666 18.8055 32.5278 17.6C32.8418 16.5207 33.3711 15.5161 34.0838 14.647C34.7815 13.805 35.6659 13.1373 36.6668 12.697C37.8204 12.2126 39.0629 11.9758 40.3138 12.002C40.9305 11.9998 41.5458 12.0587 42.1508 12.178C42.6468 12.287 43.1338 12.431 43.6098 12.608C43.9688 12.749 44.3128 12.926 44.6378 13.136C44.8568 13.272 45.0628 13.428 45.2528 13.601C45.4238 13.737 45.5648 13.908 45.6658 14.102C45.7798 14.294 45.8408 14.512 45.8418 14.735C45.8268 15.117 45.6878 15.485 45.4458 15.781C45.1867 16.1374 44.8925 16.467 44.5678 16.765C44.3478 16.545 44.1108 16.335 43.8468 16.115C43.5739 15.8876 43.2795 15.6874 42.9678 15.517C42.61 15.3436 42.2363 15.2053 41.8518 15.104C41.3954 14.987 40.926 14.9279 40.4548 14.928C39.7122 14.8945 38.974 15.0593 38.3161 15.4053C37.6582 15.7513 37.1041 16.2661 36.7108 16.897C36.3313 17.5099 36.0638 18.1854 35.9208 18.892C35.7651 19.6464 35.6854 20.4146 35.6828 21.185C35.6838 21.985 35.7628 22.783 35.9198 23.567C36.0768 24.289 36.3758 24.973 36.7988 25.579C37.1623 26.175 37.6663 26.6729 38.2668 27.029C38.9897 27.3959 39.7936 27.5745 40.6038 27.548C41.0637 27.5515 41.5219 27.4922 41.9658 27.372C42.3365 27.2418 42.693 27.0742 43.0298 26.872C43.3358 26.712 43.6298 26.53 43.9078 26.326L44.4978 25.826C44.6028 25.957 44.7168 26.106 44.8658 26.282C45.0158 26.451 45.1478 26.633 45.2618 26.827C45.3938 27.029 45.4818 27.223 45.5868 27.416C45.6428 27.574 45.6698 27.741 45.6658 27.908C45.671 28.1122 45.6257 28.3145 45.5338 28.497C45.4158 28.687 45.2768 28.864 45.1208 29.024L45.1558 29.059Z" fill="#044D80"/>
</g>
<defs>
<clipPath id="clip0_2481_7476">
<rect width="132" height="42" fill="white"/>
</clipPath>
</defs>
</svg>
