<svg width="87" height="42" viewBox="0 0 87 42" fill="none" xmlns="http://www.w3.org/2000/svg">
<path d="M86.4252 17.6131L86.1752 20.6051H84.9542C83.0042 20.6051 81.9902 22.1681 81.9902 23.6671V30.4231H78.5332V17.6131H81.8072L81.8812 19.2131C82.5682 18.1161 83.7712 17.6131 85.2532 17.6131H86.4252ZM62.4592 30.4231H58.9992V23.6501C58.9992 22.2321 58.8762 20.4471 56.8822 20.4471C54.9612 20.4471 54.1952 21.8331 54.1952 23.4471V30.4211H50.7372V17.6141H53.9432L54.0172 19.2521C54.7042 18.1561 55.9842 17.3021 57.8722 17.3021C61.3582 17.3021 62.4592 19.7911 62.4592 22.3811V30.4231ZM49.2282 27.4301L48.9862 30.3451C48.1562 30.5671 47.4202 30.6471 46.5292 30.6471C43.2692 30.6471 42.3232 29.1521 42.3232 26.1471V14.0021H45.7832V17.6151H49.2252L48.9862 20.6051H45.7832V25.8891C45.7832 27.0941 46.1132 27.7461 47.3502 27.7461C47.8882 27.7461 48.4862 27.6801 49.2282 27.4301ZM41.1882 17.6131L40.9192 20.6051H39.9792C38.0332 20.6051 37.0652 22.1661 37.0652 23.6671V30.4231H33.6052V17.6131H36.8812L36.9492 19.2131C37.6392 18.1161 38.8422 17.6131 40.3262 17.6131H41.1882ZM17.9922 29.0031C15.6462 30.2591 13.3022 30.9831 10.2062 30.8931C4.46617 30.7181 0.326172 27.1531 0.326172 21.1341C0.326172 15.1411 4.50617 11.3111 10.2092 11.2211C13.0992 11.1771 15.6862 11.9111 17.7072 13.6951L15.2722 16.1581C14.0212 15.0921 12.1802 14.4681 9.98117 14.5681C6.39217 14.7351 4.23017 17.3431 4.18117 20.9281C4.13517 24.8131 6.51717 27.4911 10.2412 27.5881C11.9932 27.6321 13.2492 27.3971 14.3352 26.9091V22.9391H10.4652L10.7252 19.6811H17.9922V29.0031ZM76.9882 25.2351H67.5032C67.7732 26.8721 69.0592 27.8571 70.6622 27.9011C72.2192 27.9441 73.0912 27.4731 74.2302 26.3191L76.4882 28.0411C74.8832 30.0161 72.9582 30.7361 70.7652 30.7361C66.9082 30.7361 64.0182 28.0381 64.0182 24.0181C64.0182 20.0011 66.8942 17.3011 70.6212 17.3011C74.7292 17.3011 76.9882 19.7901 76.9882 24.2081V25.2351ZM73.5222 22.5571C73.4162 20.9391 72.2032 19.9171 70.5342 19.9811C68.8542 20.0451 67.7342 21.1391 67.5032 22.5571H73.5222ZM31.4272 22.0351V30.4221H28.3772L28.3002 29.1601C27.3642 30.3201 25.8452 30.7371 24.2802 30.7371C21.9252 30.7371 19.7002 29.5751 19.6532 26.8701C19.5832 22.6181 24.4382 22.3161 27.4882 22.3161H28.0982V22.1481C28.0982 20.7421 27.1672 19.9821 25.4152 19.9821C24.145 19.9912 22.925 20.4786 21.9982 21.3471L20.0022 19.3191C21.8142 17.8501 23.7002 17.3021 25.7092 17.3021C29.6762 17.3021 31.4262 19.1361 31.4262 22.0361L31.4272 22.0351ZM28.0982 24.8371H27.6172C25.9792 24.8401 23.1022 24.9211 23.1132 26.6331C23.1292 29.0461 28.0982 28.2791 28.0982 25.3691V24.8371Z" fill="white"/>
</svg>
