<svg width="160" height="42" viewBox="0 0 160 42" fill="none" xmlns="http://www.w3.org/2000/svg">
<g clip-path="url(#clip0_2481_7493)">
<path d="M12.7559 8.08108C12.8759 8.12308 12.9899 8.18308 13.0909 8.26108L17.6729 12.8431C17.854 13.0262 17.9565 13.2726 17.9589 13.5301V34.6561C17.9611 34.6985 17.9543 34.741 17.939 34.7807C17.9237 34.8203 17.9003 34.8564 17.8703 34.8864C17.8402 34.9165 17.8042 34.9399 17.7645 34.9552C17.7248 34.9705 17.6824 34.9772 17.6399 34.9751C17.6021 34.9765 17.5643 34.9699 17.5292 34.9558C17.494 34.9417 17.4623 34.9203 17.4359 34.8931L13.0899 30.5801C12.9089 30.397 12.8063 30.1506 12.8039 29.8931V8.08008H12.7539L12.7559 8.08108Z" fill="url(#paint0_linear_2481_7493)"/>
<path d="M25.3627 8.29405C25.4467 8.20705 25.5427 8.13605 25.6497 8.08105V29.8941C25.6491 30.0225 25.6227 30.1495 25.572 30.2675C25.5213 30.3855 25.4474 30.4922 25.3547 30.5811L21.0437 34.8931C21.0148 34.9236 20.9799 34.948 20.9412 34.9646C20.9025 34.9812 20.8608 34.9898 20.8187 34.9898C20.7766 34.9898 20.735 34.9812 20.6963 34.9646C20.6576 34.948 20.6227 34.9236 20.5937 34.8931C20.5404 34.835 20.5111 34.7589 20.5117 34.6801V13.5551C20.5118 13.4313 20.5381 13.309 20.5887 13.1961C20.6394 13.0832 20.7133 12.9824 20.8057 12.9001L25.3627 8.29405Z" fill="url(#paint1_linear_2481_7493)"/>
<path d="M33.668 25.075L33.348 24.756V20.273H28.988C28.9431 20.272 28.8986 20.281 28.8576 20.2994C28.8166 20.3177 28.7802 20.3449 28.751 20.379L25.625 23.504L35.632 33.52C35.723 33.6077 35.8307 33.676 35.9488 33.7211C36.0668 33.7661 36.1928 33.7868 36.319 33.782H41.588C41.6298 33.7831 41.6715 33.7754 41.7102 33.7596C41.7489 33.7437 41.784 33.72 41.8131 33.6899C41.8422 33.6599 41.8648 33.6241 41.8794 33.5849C41.894 33.5456 41.9004 33.5038 41.898 33.462C41.8987 33.3851 41.8729 33.3102 41.825 33.25L33.668 25.075Z" fill="url(#paint2_linear_2481_7493)"/>
<path d="M26.0174 8C25.7694 8.00991 25.5349 8.11567 25.3634 8.295L20.7484 12.909C20.6799 12.9931 20.6197 13.0835 20.5684 13.179H33.3484V24.732L33.6684 25.051L38.2244 20.518C38.3157 20.4285 38.3881 20.3216 38.4374 20.2036C38.4867 20.0856 38.5118 19.9589 38.5114 19.831V13.556C38.4987 13.3123 38.3965 13.0819 38.2244 12.909L33.6434 8.295C33.5544 8.20212 33.4476 8.12813 33.3294 8.07744C33.2112 8.02675 33.084 8.00042 32.9554 8H26.0174Z" fill="url(#paint3_linear_2481_7493)"/>
<path d="M13.0256 8.29404C12.9367 8.20128 12.8301 8.12736 12.7121 8.07668C12.594 8.026 12.467 7.99959 12.3386 7.99904H0.320566C0.277808 7.99656 0.235009 8.00317 0.194993 8.01844C0.154976 8.03371 0.118651 8.05728 0.0884127 8.08762C0.0581745 8.11795 0.0347106 8.15435 0.0195683 8.19441C0.00442603 8.23448 -0.00205048 8.27729 0.00056591 8.32004C5.06053e-05 8.36486 0.00926027 8.40926 0.0275601 8.45018C0.0458598 8.49109 0.0728145 8.52755 0.106566 8.55704L4.41857 12.91C4.5075 13.0026 4.61416 13.0764 4.73218 13.1269C4.85021 13.1774 4.97719 13.2036 5.10557 13.204H17.2886C17.4563 13.2064 17.6164 13.2746 17.7343 13.394C17.8521 13.5134 17.9183 13.6743 17.9186 13.842V13.597C17.9162 13.3396 17.8136 13.0931 17.6326 12.91L13.0256 8.29504V8.29404Z" fill="url(#paint4_linear_2481_7493)"/>
<path d="M25.3627 8.295C25.5345 8.11543 25.7694 8.00965 26.0177 8H32.9557C33.0843 8.00047 33.2115 8.02684 33.3297 8.07752C33.4479 8.1282 33.5547 8.20216 33.6437 8.295L38.2247 12.909C38.4061 13.0919 38.5091 13.3384 38.5117 13.596V13.842C38.5117 13.6742 38.4456 13.5131 38.3277 13.3937C38.2098 13.2743 38.0495 13.2061 37.8817 13.204H21.1497C20.9812 13.2063 20.8203 13.2743 20.7012 13.3934C20.582 13.5126 20.514 13.6735 20.5117 13.842V13.596C20.5122 13.4676 20.5385 13.3407 20.589 13.2227C20.6395 13.1046 20.7132 12.998 20.8057 12.909L25.3627 8.295Z" fill="url(#paint5_linear_2481_7493)"/>
<path d="M38.5118 19.5928C38.5095 19.7599 38.4427 19.9197 38.3252 20.0386C38.2078 20.1575 38.0489 20.2264 37.8818 20.2308H29.2498C29.2092 20.2327 29.1708 20.2496 29.142 20.2783C29.1131 20.3069 29.096 20.3452 29.0938 20.3858C29.0933 20.4063 29.0975 20.4266 29.1062 20.4452C29.1148 20.4637 29.1277 20.48 29.1438 20.4928L33.6998 25.0498L38.2488 20.5168C38.3425 20.4287 38.417 20.3222 38.4676 20.204C38.5182 20.0858 38.5438 19.9584 38.5428 19.8298V19.5928H38.5118Z" fill="url(#paint6_linear_2481_7493)"/>
<path d="M158.825 25.2552C158.825 23.0872 157.581 22.2692 154.537 21.4992C152.705 21.0492 152.23 20.6812 152.23 20.0432C152.23 19.4052 152.811 18.9882 154.005 18.9882C155.321 19.0321 156.607 19.385 157.761 20.0182L158.137 17.6872C156.83 17.1367 155.424 16.858 154.005 16.8682C151.248 16.8682 149.636 18.2682 149.636 20.2312C149.636 22.3512 150.831 23.1442 153.727 23.8562C155.715 24.3302 156.272 24.6742 156.272 25.4922C156.272 26.3102 155.503 26.7362 154.153 26.7362C152.584 26.6954 151.054 26.2318 149.726 25.3942L149.358 27.7502C150.792 28.4574 152.366 28.8349 153.964 28.8552C157.155 28.8552 158.825 27.5052 158.825 25.2552ZM148 28.6182V16.9992H145.194V24.8622C144.456 25.7064 143.422 26.2362 142.305 26.3432C141.168 26.3432 140.669 25.6562 140.669 24.6252V16.9992H137.863V25.3612C137.863 27.5052 139.049 28.8062 141.324 28.8062C142.855 28.7254 144.295 28.0603 145.349 26.9482L145.75 28.5852L148 28.6182ZM136.194 28.6182V16.9992H133.412V28.6182H136.194ZM134.811 11.9432C135.135 11.9427 135.452 12.0383 135.721 12.218C135.991 12.3977 136.201 12.6533 136.325 12.9525C136.449 13.2517 136.481 13.5809 136.417 13.8985C136.354 14.216 136.198 14.5076 135.968 14.7362C135.778 14.9259 135.544 15.0657 135.287 15.1434C135.03 15.221 134.757 15.2342 134.494 15.1815C134.23 15.1289 133.984 15.0122 133.776 14.8417C133.569 14.6712 133.406 14.4521 133.304 14.2039C133.201 13.9557 133.161 13.686 133.187 13.4187C133.213 13.1513 133.305 12.8945 133.454 12.671C133.603 12.4475 133.805 12.2642 134.042 12.1372C134.278 12.0103 134.543 11.9437 134.811 11.9432ZM128.961 24.7562C128.644 25.2313 128.221 25.6264 127.726 25.9103C127.23 26.1942 126.676 26.3591 126.105 26.3922C124.698 26.3922 123.651 25.3042 123.651 23.0292C123.651 20.4852 124.87 19.2412 126.514 19.2412C127.36 19.2147 128.201 19.3859 128.969 19.7412L128.961 24.7562ZM131.726 28.6182V11.3872L128.944 11.8612V17.4492C128.031 17.1502 127.076 16.9983 126.114 16.9992C123.307 16.9992 120.82 18.9062 120.82 23.1932C120.82 27.0552 122.857 28.8552 125.402 28.8552C126.121 28.8463 126.828 28.6779 127.473 28.3623C128.118 28.0467 128.685 27.5917 129.133 27.0302L129.37 28.6182H131.726ZM116.876 25.4432C116.084 26.2291 115.029 26.6927 113.914 26.7442C112.957 26.7442 112.352 26.2122 112.352 25.3942C112.352 24.2812 113.227 23.2992 116.901 22.8742V25.4442L116.876 25.4432ZM119.658 28.6182V20.7302C119.658 18.0062 118.177 16.8932 115.101 16.8932C113.491 16.8972 111.896 17.2112 110.404 17.8182L110.748 20.0432C112.028 19.4835 113.402 19.1701 114.798 19.1192C116.124 19.1192 116.917 19.5932 116.917 20.8372V21.2052C112.008 21.6882 109.611 22.8412 109.611 25.6552C109.611 27.6442 110.994 28.8302 113.055 28.8302C113.811 28.8292 114.559 28.6767 115.254 28.3816C115.95 28.0865 116.579 27.6548 117.105 27.1122L117.367 28.5932H119.674L119.658 28.6182ZM109.12 28.2002L104.726 22.1382C105.684 21.9017 106.532 21.3437 107.127 20.5574C107.723 19.7711 108.031 18.8042 107.999 17.8182C107.999 14.8562 105.855 13.1622 102.272 13.1622H97.3624V28.6182H100.251V22.6372H101.65L105.994 28.7482L109.12 28.2002ZM105.144 17.9812C105.144 19.6182 103.924 20.4362 101.961 20.4362H100.324V15.5262H102.124C104.104 15.5682 105.144 16.4432 105.144 17.9812ZM95.9804 28.6182L95.6364 26.3182C95.3036 26.3708 94.9673 26.3982 94.6304 26.4002C93.4934 26.4002 93.0434 25.8932 93.0434 24.9442V19.2742H95.9804L95.5054 16.9992H93.0514V12.9992L90.3014 13.4812V17.0002H88.4204V19.2502H90.3024V25.3702C90.3024 27.9642 91.8324 28.7582 94.1394 28.7582C94.7561 28.7889 95.3753 28.7419 95.9804 28.6182ZM87.7984 25.2552C87.7984 23.0872 86.5544 22.2692 83.5114 21.4992C81.6784 21.0492 81.2044 20.6812 81.2044 20.0432C81.2044 19.4052 81.7844 18.9882 82.9794 18.9882C84.2945 19.0322 85.5808 19.3851 86.7344 20.0182L87.1354 17.6872C85.8282 17.1369 84.4226 16.8582 83.0044 16.8682C80.2544 16.8682 78.6344 18.2682 78.6344 20.2312C78.6344 22.3512 79.8294 23.1442 82.6844 23.8562C84.6734 24.3302 85.2294 24.6742 85.2294 25.4922C85.2294 26.3102 84.4594 26.7362 83.1094 26.7362C81.5766 26.6868 80.0864 26.22 78.7994 25.3862L78.3974 27.7422C79.8392 28.4515 81.4216 28.8291 83.0284 28.8472C86.1624 28.8552 87.8314 27.5052 87.8314 25.2552H87.7984ZM77.1624 28.6182V16.9992H74.3554V24.8622C73.618 25.7077 72.5842 26.2378 71.4674 26.3432C70.3304 26.3432 69.8314 25.6562 69.8314 24.6252V16.9992H67.0894V25.3612C67.0894 27.5052 68.2844 28.8062 70.5584 28.8062C72.0877 28.7221 73.5273 28.0576 74.5834 26.9482L74.9764 28.5852L77.1624 28.6182ZM65.7074 19.6182L65.0774 16.8932C64.3165 17.017 63.5936 17.3118 62.9631 17.7554C62.3326 18.199 61.8109 18.7799 61.4374 19.4542L60.9054 16.9992H58.8184V28.6182H61.5434V21.9982C62.0084 21.3031 62.6275 20.7245 63.3524 20.3074C64.0773 19.8903 64.8887 19.6459 65.7234 19.5932L65.7074 19.6182Z" fill="url(#paint7_linear_2481_7493)"/>
<path d="M60.5621 15.7311L59.9321 13.1621H46.2441V15.7321H51.4061V28.6181H54.2951V15.7301H60.5621V15.7311Z" fill="url(#paint8_linear_2481_7493)"/>
</g>
<defs>
<linearGradient id="paint0_linear_2481_7493" x1="15.3289" y1="35.2011" x2="15.3289" y2="8.03908" gradientUnits="userSpaceOnUse">
<stop offset="0.71" stop-color="#116BF2"/>
<stop offset="1" stop-color="#1E50E5"/>
</linearGradient>
<linearGradient id="paint1_linear_2481_7493" x1="211.038" y1="-94015" x2="211.038" y2="-94900" gradientUnits="userSpaceOnUse">
<stop offset="0.71" stop-color="#116BF2"/>
<stop offset="1" stop-color="#1E50E5"/>
</linearGradient>
<linearGradient id="paint2_linear_2481_7493" x1="28.401" y1="22.922" x2="38.994" y2="33.522" gradientUnits="userSpaceOnUse">
<stop offset="0.41" stop-color="#116BF2"/>
<stop offset="1" stop-color="#185DEC"/>
</linearGradient>
<linearGradient id="paint3_linear_2481_7493" x1="29.5724" y1="24.604" x2="29.5724" y2="7.382" gradientUnits="userSpaceOnUse">
<stop offset="0.58" stop-color="#116BF2"/>
<stop offset="1" stop-color="#1E50E5"/>
</linearGradient>
<linearGradient id="paint4_linear_2481_7493" x1="12.2006" y1="10.162" x2="9.64857" y2="12.977" gradientUnits="userSpaceOnUse">
<stop offset="0.03" stop-color="#59C5FF"/>
<stop offset="0.99" stop-color="#21B1FF"/>
</linearGradient>
<linearGradient id="paint5_linear_2481_7493" x1="24.8477" y1="10.337" x2="27.8167" y2="13.196" gradientUnits="userSpaceOnUse">
<stop offset="0.04" stop-color="#59C5FF"/>
<stop offset="0.99" stop-color="#21B1FF"/>
</linearGradient>
<linearGradient id="paint6_linear_2481_7493" x1="36.3058" y1="22.7948" x2="33.7438" y2="20.1948" gradientUnits="userSpaceOnUse">
<stop offset="0.04" stop-color="#57C4FF"/>
<stop offset="0.99" stop-color="#21B1FF"/>
</linearGradient>
<linearGradient id="paint7_linear_2481_7493" x1="31253" y1="-38727.9" x2="43476.8" y2="-38727.9" gradientUnits="userSpaceOnUse">
<stop offset="0.71" stop-color="#116BF2"/>
<stop offset="1" stop-color="#1E50E5"/>
</linearGradient>
<linearGradient id="paint8_linear_2481_7493" x1="1302.07" y1="-30026.6" x2="1552.64" y2="-30026.6" gradientUnits="userSpaceOnUse">
<stop offset="0.71" stop-color="#116BF2"/>
<stop offset="1" stop-color="#1E50E5"/>
</linearGradient>
<clipPath id="clip0_2481_7493">
<rect width="160" height="42" fill="white"/>
</clipPath>
</defs>
</svg>
