<svg width="138" height="42" viewBox="0 0 138 42" fill="none" xmlns="http://www.w3.org/2000/svg">
<path d="M36.1448 15.9702H50.0698V18.5692H44.5948V33.1742H41.5838V18.5692H36.1328V15.9702H36.1448ZM49.4748 20.7182H52.0488V23.1222H52.0978C52.1828 22.7822 52.3398 22.4542 52.5708 22.1382C52.8008 21.8222 53.0808 21.5192 53.4088 21.2642C53.7407 20.999 54.1087 20.7825 54.5018 20.6212C54.9018 20.4632 55.3148 20.3782 55.7278 20.3782C56.0428 20.3782 56.2738 20.3902 56.3948 20.4022C56.5168 20.4142 56.6378 20.4382 56.7718 20.4512V23.0972C56.5745 23.0621 56.3761 23.0338 56.1768 23.0122C55.9794 22.9885 55.7807 22.9765 55.5818 22.9762C55.1208 22.9762 54.6838 23.0732 54.2708 23.2562C53.858 23.4436 53.4926 23.7214 53.2018 24.0692C52.8786 24.4653 52.6318 24.918 52.4738 25.4042C52.2918 25.9382 52.2068 26.5452 52.2068 27.2372V33.1622H49.4628V20.7182H49.4748ZM69.3848 33.1742H66.6908V31.4382H66.6418C66.3018 32.0692 65.8038 32.5672 65.1368 32.9432C64.4688 33.3202 63.7888 33.5132 63.0968 33.5132C61.4578 33.5132 60.2678 33.1132 59.5398 32.3002C58.8108 31.4862 58.4468 30.2602 58.4468 28.6212V20.7182H61.1908V28.3542C61.1908 29.4472 61.3968 30.2242 61.8218 30.6732C62.2348 31.1232 62.8298 31.3532 63.5818 31.3532C64.1648 31.3532 64.6388 31.2682 65.0268 31.0862C65.4158 30.9042 65.7318 30.6732 65.9618 30.3692C66.2048 30.0792 66.3748 29.7142 66.4838 29.3012C66.5938 28.8882 66.6418 28.4392 66.6418 27.9532V20.7302H69.3858L69.3848 33.1742ZM74.0598 29.1802C74.1448 29.9802 74.4478 30.5402 74.9698 30.8672C75.5048 31.1832 76.1358 31.3532 76.8768 31.3532C77.1318 31.3532 77.4228 31.3282 77.7508 31.2932C78.0788 31.2562 78.3938 31.1712 78.6728 31.0612C78.9648 30.9522 79.1948 30.7822 79.3898 30.5642C79.5718 30.3452 79.6568 30.0662 79.6448 29.7142C79.6433 29.5514 79.608 29.3907 79.541 29.2423C79.4741 29.0939 79.3769 28.961 79.2558 28.8522C79.0128 28.6222 78.7098 28.4522 78.3338 28.3052C77.9138 28.1571 77.4837 28.0395 77.0468 27.9532C76.5608 27.8562 76.0748 27.7472 75.5768 27.6382C75.0668 27.5282 74.5698 27.3832 74.0968 27.2252C73.6396 27.0758 73.2092 26.8544 72.8218 26.5692C72.4421 26.299 72.1337 25.9408 71.9228 25.5252C71.6928 25.1002 71.5828 24.5782 71.5828 23.9472C71.5828 23.2672 71.7528 22.7092 72.0808 22.2472C72.4099 21.7906 72.837 21.4134 73.3308 21.1432C73.8593 20.8587 74.4287 20.658 75.0188 20.5482C75.6388 20.4382 76.2328 20.3782 76.7918 20.3782C77.4348 20.3782 78.0538 20.4512 78.6368 20.5842C79.2031 20.7081 79.7419 20.9345 80.2268 21.2522C80.7008 21.5552 81.0888 21.9562 81.4048 22.4422C81.7208 22.9272 81.9148 23.5222 81.9998 24.2142H79.1348C79.0008 23.5592 78.7098 23.1092 78.2358 22.8912C77.7628 22.6612 77.2158 22.5512 76.6088 22.5512C76.4148 22.5512 76.1848 22.5632 75.9178 22.6002C75.6498 22.6362 75.4078 22.6972 75.1648 22.7822C74.9348 22.8672 74.7398 23.0002 74.5698 23.1702C74.4044 23.3524 74.3172 23.5923 74.3268 23.8382C74.3268 24.1782 74.4478 24.4452 74.6788 24.6512C74.9088 24.8582 75.2128 25.0282 75.5888 25.1732C75.9658 25.3072 76.3908 25.4282 76.8768 25.5252C77.3618 25.6232 77.8598 25.7322 78.3698 25.8412C78.8678 25.9512 79.3528 26.0962 79.8388 26.2542C80.3248 26.4122 80.7488 26.6302 81.1258 26.9092C81.5018 27.1892 81.8058 27.5292 82.0358 27.9412C82.2668 28.3542 82.3878 28.8762 82.3878 29.4832C82.3878 30.2232 82.2178 30.8432 81.8778 31.3652C81.5378 31.8752 81.1018 32.3002 80.5678 32.6152C80.0096 32.9431 79.4031 33.1811 78.7708 33.3202C78.1291 33.464 77.4735 33.5371 76.8158 33.5382C76.0258 33.5382 75.2978 33.4532 74.6308 33.2712C73.9628 33.0892 73.3808 32.8212 72.8938 32.4702C72.4129 32.1134 72.0187 31.6526 71.7408 31.1222C71.4608 30.5882 71.3158 29.9452 71.2908 29.2042H74.0598V29.1802ZM83.1168 20.7182H85.1928V16.9782H87.9368V20.7182H90.4128V22.7692H87.9368V29.4232C87.9368 29.7132 87.9488 29.9572 87.9728 30.1752C87.9968 30.3822 88.0578 30.5642 88.1428 30.7092C88.2349 30.8609 88.376 30.9766 88.5428 31.0372C88.7258 31.1102 88.9558 31.1472 89.2728 31.1472C89.4658 31.1472 89.6608 31.1472 89.8548 31.1342C90.0488 31.1222 90.2428 31.0982 90.4378 31.0492V33.1742C90.1338 33.2102 89.8308 33.2342 89.5508 33.2712C89.2568 33.306 88.9609 33.3224 88.6648 33.3202C87.9368 33.3202 87.3538 33.2472 86.9168 33.1132C86.4798 32.9802 86.1268 32.7732 85.8848 32.5062C85.6298 32.2392 85.4718 31.9112 85.3748 31.5112C85.28 31.0597 85.2271 30.6004 85.2168 30.1392V22.7942H83.1408V20.7182H83.1168ZM92.3558 20.7182H94.9538V22.4052H95.0028C95.3908 21.6772 95.9248 21.1672 96.6168 20.8512C97.3222 20.5321 98.0887 20.3706 98.8628 20.3782C99.8468 20.3782 100.696 20.5482 101.425 20.9002C102.153 21.2402 102.76 21.7132 103.246 22.3202C103.732 22.9272 104.084 23.6312 104.326 24.4332C104.569 25.2342 104.691 26.0962 104.691 27.0062C104.691 27.8442 104.581 28.6582 104.363 29.4352C104.162 30.1842 103.829 30.8913 103.38 31.5232C102.94 32.1279 102.367 32.6225 101.704 32.9682C101.024 33.3322 100.235 33.5142 99.3118 33.5142C98.9118 33.5142 98.5118 33.4772 98.1108 33.4042C97.7098 33.3322 97.3208 33.2102 96.9568 33.0522C96.5888 32.8959 96.2453 32.6875 95.9368 32.4332C95.6305 32.1841 95.3644 31.8893 95.1478 31.5592H95.0998V37.7752H92.3558V20.7182ZM101.947 26.9582C101.947 26.4002 101.874 25.8532 101.728 25.3192C101.594 24.8149 101.373 24.3381 101.073 23.9112C100.79 23.5077 100.421 23.1718 99.9928 22.9272C99.5355 22.6752 99.0209 22.5457 98.4988 22.5512C97.3458 22.5512 96.4718 22.9512 95.8888 23.7532C95.3058 24.5542 95.0148 25.6232 95.0148 26.9582C95.0148 27.5892 95.0878 28.1722 95.2448 28.7062C95.4028 29.2402 95.6218 29.7022 95.9368 30.0902C96.2408 30.4792 96.6048 30.7822 97.0298 31.0002C97.4548 31.2312 97.9528 31.3402 98.5108 31.3402C99.1418 31.3402 99.6648 31.2072 100.102 30.9522C100.526 30.7029 100.891 30.3632 101.17 29.9572C101.449 29.5442 101.656 29.0822 101.777 28.5612C101.886 28.0382 101.947 27.5042 101.947 26.9582ZM106.791 15.9712H109.535V18.5692H106.791V15.9712ZM106.791 20.7182H109.535V33.1742H106.791V20.7182ZM111.987 15.9712H114.731V33.1742H111.987V15.9712ZM123.144 33.5142C122.149 33.5142 121.263 33.3442 120.486 33.0162C119.739 32.7042 119.066 32.2412 118.507 31.6562C117.96 31.0557 117.542 30.3491 117.28 29.5802C116.991 28.7282 116.848 27.8338 116.856 26.9342C116.856 25.9872 117.001 25.1132 117.28 24.3112C117.542 23.5424 117.96 22.8357 118.507 22.2352C119.041 21.6532 119.709 21.2032 120.486 20.8752C121.263 20.5482 122.149 20.3782 123.144 20.3782C124.14 20.3782 125.026 20.5482 125.803 20.8752C126.58 21.2032 127.236 21.6652 127.782 22.2352C128.329 22.8358 128.746 23.5424 129.008 24.3112C129.287 25.1132 129.433 25.9872 129.433 26.9342C129.441 27.8338 129.297 28.7283 129.008 29.5802C128.746 30.349 128.329 31.0557 127.782 31.6562C127.248 32.2392 126.58 32.6882 125.803 33.0162C125.026 33.3442 124.14 33.5142 123.144 33.5142ZM123.144 31.3412C123.751 31.3412 124.286 31.2072 124.735 30.9522C125.174 30.7026 125.551 30.3582 125.84 29.9442C126.131 29.5322 126.337 29.0582 126.483 28.5362C126.619 28.013 126.688 27.4748 126.689 26.9342C126.689 26.3992 126.617 25.8772 126.483 25.3442C126.358 24.8382 126.14 24.3599 125.84 23.9342C125.55 23.5241 125.173 23.1841 124.735 22.9392C124.286 22.6842 123.751 22.5512 123.144 22.5512C122.537 22.5512 122.003 22.6842 121.554 22.9392C121.118 23.1881 120.741 23.5278 120.449 23.9352C120.153 24.3628 119.935 24.8395 119.806 25.3432C119.671 25.8626 119.602 26.3967 119.599 26.9332C119.599 27.4802 119.672 28.0142 119.806 28.5362C119.939 29.0582 120.158 29.5322 120.449 29.9452C120.741 30.3572 121.105 30.6972 121.554 30.9522C122.003 31.2192 122.537 31.3412 123.144 31.3412ZM130.234 20.7182H132.311V16.9782H135.054V20.7182H137.531V22.7692H135.054V29.4232C135.054 29.7132 135.066 29.9572 135.091 30.1752C135.115 30.3822 135.176 30.5642 135.261 30.7092C135.353 30.861 135.494 30.9767 135.661 31.0372C135.843 31.1102 136.074 31.1472 136.39 31.1472C136.584 31.1472 136.778 31.1472 136.972 31.1342C137.167 31.1222 137.361 31.0982 137.555 31.0492V33.1742C137.252 33.2102 136.948 33.2342 136.669 33.2712C136.375 33.3061 136.079 33.3224 135.783 33.3202C135.054 33.3202 134.472 33.2472 134.034 33.1132C133.597 32.9802 133.245 32.7732 133.003 32.5062C132.748 32.2392 132.59 31.9112 132.493 31.5112C132.398 31.0597 132.345 30.6004 132.335 30.1392V22.7942H130.259V20.7182H130.234Z" fill="white"/>
<path d="M32.937 15.97H20.36L16.475 4L12.578 15.97L0 15.96L10.186 23.365L6.289 35.324L16.475 27.93L26.649 35.324L22.764 23.365L32.937 15.972V15.97Z" fill="#00B67A"/>
<path d="M23.6396 26.0718L22.7646 23.3638L16.4766 27.9288L23.6396 26.0718Z" fill="#005128"/>
</svg>
