<svg width="49" height="48" viewBox="0 0 49 48" fill="none" xmlns="http://www.w3.org/2000/svg">
<path fill-rule="evenodd" clip-rule="evenodd" d="M15.2363 40.0606L24.5 45L33.7637 40.0606C36.4048 38.6557 38.6134 36.558 40.1526 33.9927C41.6917 31.4275 42.5032 28.4916 42.5 25.5V6C42.4992 5.20461 42.1828 4.44203 41.6204 3.8796C41.058 3.31717 40.2954 3.00083 39.5 3H9.50001C8.70462 3.00083 7.94204 3.31717 7.37961 3.8796C6.81718 4.44203 6.50084 5.20461 6.50001 6V25.5C6.4968 28.4916 7.30831 31.4275 8.84744 33.9927C10.3866 36.558 12.5952 38.6557 15.2363 40.0606ZM9.50001 25.5V6H39.5V25.5C39.5026 27.9477 38.8386 30.3499 37.5792 32.4488C36.3198 34.5477 34.5126 36.264 32.3516 37.4135L24.5 41.5999L16.6484 37.4135C14.4874 36.264 12.6802 34.5477 11.4208 32.4488C10.1614 30.3499 9.49741 27.9477 9.50001 25.5ZM17.615 21L21.5 24.885L31.385 15L33.5 17.115L21.5 29.115L15.5 23.115L17.615 21Z" fill="#0F8465"/>
</svg>
