<svg width="49" height="48" viewBox="0 0 49 48" fill="none" xmlns="http://www.w3.org/2000/svg">
<path fill-rule="evenodd" clip-rule="evenodd" d="M45.5 21V24H42.5V31.5H45.5V34.5H42.5V39C42.4982 40.5908 41.8655 42.1158 40.7407 43.2407C39.6158 44.3655 38.0908 44.9982 36.5 45H12.5C10.9092 44.9982 9.38416 44.3655 8.25933 43.2407C7.1345 42.1158 6.50179 40.5908 6.5 39V34.5H3.5V31.5H6.5V24H3.5V21H6.5V15C6.50179 13.4092 7.1345 11.8842 8.25933 10.7593C9.38416 9.6345 10.9092 9.00179 12.5 9H15.5V3H18.5V9H30.5V3H33.5V9H36.5C38.0908 9.00179 39.6158 9.6345 40.7407 10.7593C41.8655 11.8842 42.4982 13.4092 42.5 15V21H45.5ZM38.6203 41.1203C39.1827 40.5579 39.4991 39.7954 39.5 39V15C39.4991 14.2046 39.1827 13.4421 38.6203 12.8797C38.0579 12.3173 37.2954 12.0009 36.5 12H12.5C11.7046 12.0009 10.9421 12.3173 10.3797 12.8797C9.81728 13.4421 9.50091 14.2046 9.5 15V39C9.50091 39.7954 9.81728 40.5579 10.3797 41.1203C10.9421 41.6827 11.7046 41.9991 12.5 42H36.5C37.2954 41.9991 38.0579 41.6827 38.6203 41.1203ZM18.5 21.0001C17.9067 21.0001 17.3266 21.1761 16.8333 21.5057C16.3399 21.8354 15.9554 22.3039 15.7284 22.8521C15.5013 23.4003 15.4419 24.0035 15.5576 24.5854C15.6734 25.1674 15.9591 25.7019 16.3787 26.1215C16.7982 26.541 17.3328 26.8267 17.9147 26.9425C18.4967 27.0583 19.0999 26.9988 19.6481 26.7718C20.1962 26.5447 20.6648 26.1602 20.9944 25.6669C21.3241 25.1735 21.5 24.5935 21.5 24.0001C21.5039 23.6051 21.4289 23.2132 21.2796 22.8475C21.1302 22.4818 20.9093 22.1495 20.63 21.8702C20.3506 21.5908 20.0184 21.37 19.6526 21.2206C19.2869 21.0712 18.895 20.9963 18.5 21.0001ZM28.8333 21.5057C29.3266 21.1761 29.9067 21.0001 30.5 21.0001C30.895 20.9963 31.2869 21.0712 31.6526 21.2206C32.0184 21.37 32.3506 21.5908 32.63 21.8702C32.9093 22.1495 33.1302 22.4818 33.2796 22.8475C33.4289 23.2132 33.5039 23.6051 33.5 24.0001C33.5 24.5935 33.3241 25.1735 32.9944 25.6669C32.6648 26.1602 32.1962 26.5447 31.6481 26.7718C31.0999 26.9988 30.4967 27.0583 29.9147 26.9425C29.3328 26.8267 28.7982 26.541 28.3787 26.1215C27.9591 25.7019 27.6734 25.1674 27.5576 24.5854C27.4419 24.0035 27.5013 23.4003 27.7284 22.8521C27.9554 22.3039 28.3399 21.8354 28.8333 21.5057ZM19.5346 36.2546C21.0614 37.0736 22.7674 37.5015 24.5 37.5C26.2326 37.5015 27.9385 37.0736 29.4654 36.2546C30.9922 35.4357 32.2923 34.2512 33.2495 32.807L30.7505 31.1459C30.0662 32.1772 29.1374 33.0233 28.0468 33.6085C26.9562 34.1937 25.7377 34.5 24.5 34.5C23.2623 34.5 22.0438 34.1937 20.9532 33.6085C19.8626 33.0233 18.9338 32.1772 18.2495 31.1459L15.7505 32.807C16.7077 34.2512 18.0078 35.4357 19.5346 36.2546Z" fill="#0F8465"/>
</svg>
