<svg width="49" height="48" viewBox="0 0 49 48" fill="none" xmlns="http://www.w3.org/2000/svg">
<path d="M43.171 24.1583L35 20.0727V10.5C35 10.2215 34.9225 9.94838 34.7761 9.7114C34.6296 9.47441 34.4201 9.28289 34.1709 9.15828L25.1709 4.65828C24.9626 4.55419 24.7329 4.5 24.5 4.5C24.2671 4.5 24.0374 4.55419 23.8291 4.65828L14.8291 9.15828C14.5799 9.28289 14.3704 9.47441 14.2239 9.7114C14.0775 9.94838 14 10.2215 14 10.5V20.0727L5.82905 24.1583C5.5799 24.2829 5.37037 24.4744 5.22394 24.7114C5.07751 24.9484 4.99997 25.2215 5 25.5V36C4.99997 36.2786 5.07751 36.5517 5.22394 36.7887C5.37037 37.0256 5.5799 37.2172 5.82905 37.3418L14.8291 41.8418C15.0374 41.9459 15.2671 42 15.5 42C15.7329 42 15.9626 41.9459 16.1709 41.8418L24.5 37.6773L32.8291 41.8418C33.0374 41.9459 33.2671 42 33.5 42C33.7329 42 33.9626 41.9459 34.1709 41.8418L43.171 37.3418C43.4201 37.2172 43.6296 37.0256 43.7761 36.7887C43.9225 36.5517 44 36.2786 44 36V25.5C44 25.2215 43.9225 24.9484 43.7761 24.7114C43.6296 24.4744 43.4201 24.2829 43.171 24.1583ZM32 20.0727L26 23.0727V15.9273L32 12.9273V20.0727ZM24.5 7.67733L30.1455 10.5L24.5 13.3227L18.8545 10.5L24.5 7.67733ZM17 12.9273L23 15.9273V23.0727L17 20.0727V12.9273ZM14 38.0727L8 35.0727V27.9273L14 30.9273V38.0727ZM15.5 28.3227L9.85445 25.5L15.5 22.6773L21.1455 25.5L15.5 28.3227ZM17 30.9273L23 27.9273V35.0727L17 38.0727V30.9273ZM32 38.0727L26 35.0727V27.9273L32 30.9273V38.0727ZM33.5 28.3227L27.8545 25.5L33.5 22.6773L39.1455 25.5L33.5 28.3227ZM41 35.0727L35 38.0727V30.9273L41 27.9273V35.0727Z" fill="#0F8465"/>
</svg>
