<svg width="130" height="56" viewBox="0 0 130 56" fill="none" xmlns="http://www.w3.org/2000/svg">
<path fill-rule="evenodd" clip-rule="evenodd" d="M55.4318 0.918759C71.0401 4.01405 83.2864 14.6023 89.8035 23.4046C90.1321 23.8485 90.0387 24.4747 89.5948 24.8034C89.151 25.132 88.5247 25.0386 88.1961 24.5947C81.8799 16.0637 70.0262 5.85193 55.0428 2.88055C40.5812 0.0126681 23.002 3.85028 4.41551 22.9149L10.9595 22.687C11.5115 22.6678 11.9745 23.0997 11.9937 23.6516C12.0129 24.2036 11.5811 24.6666 11.0291 24.6858L2.03458 24.9991C1.48263 25.0183 1.01961 24.5864 1.00038 24.0345L0.687141 15.0399C0.667919 14.488 1.09978 14.0249 1.65173 14.0057C2.20368 13.9865 2.66671 14.4184 2.68593 14.9703L2.91639 21.5877C21.9179 2.06457 40.1783 -2.10617 55.4318 0.918759Z" fill="#111111"/>
<path d="M118.471 20.6416L125.206 17.5194L125.798 18.7968L120.573 21.2192L122.053 24.4128L126.35 22.421L126.942 23.6985L122.645 25.6902L124.718 30.1612L123.208 30.861L118.471 20.6416Z" fill="#111111"/>
<path d="M110.348 24.4067L117.083 21.2845L117.675 22.5619L112.449 24.9844L113.93 28.1779L118.227 26.1862L118.819 27.4636L114.522 29.4554L116.595 33.9264L115.085 34.6262L110.348 24.4067Z" fill="#111111"/>
<path d="M104.021 27.1984C105.037 26.7274 106.03 26.5492 107 26.6638C107.971 26.7784 108.838 27.1406 109.603 27.7502C110.377 28.3553 110.988 29.1418 111.437 30.1095C111.886 31.0773 112.091 32.0521 112.052 33.0341C112.023 34.0116 111.739 34.9075 111.199 35.722C110.66 36.5364 109.882 37.1791 108.866 37.6501C107.85 38.1212 106.856 38.2994 105.886 38.1847C104.916 38.0701 104.044 37.7102 103.27 37.1051C102.505 36.4955 101.898 35.7068 101.45 34.739C101.001 33.7713 100.791 32.7987 100.82 31.8212C100.859 30.8392 101.148 29.941 101.687 29.1266C102.227 28.3122 103.005 27.6695 104.021 27.1984ZM108.274 36.3727C108.98 36.0452 109.514 35.5862 109.875 34.9955C110.246 34.4004 110.432 33.7378 110.435 33.0077C110.437 32.2776 110.268 31.5448 109.927 30.8093C109.586 30.0738 109.136 29.4711 108.578 29.0012C108.019 28.5313 107.393 28.2455 106.699 28.1439C106.015 28.0377 105.32 28.1484 104.613 28.4759C103.907 28.8033 103.368 29.2646 102.997 29.8597C102.636 30.4504 102.454 31.1107 102.452 31.8408C102.449 32.5709 102.619 33.3037 102.959 34.0392C103.3 34.7747 103.75 35.3774 104.309 35.8473C104.868 36.3172 105.489 36.6053 106.173 36.7114C106.867 36.8131 107.567 36.7002 108.274 36.3727Z" fill="#111111"/>
<path d="M87.6008 40.4536C87.175 40.6509 86.7456 40.7265 86.3127 40.6803C85.8798 40.6341 85.4858 40.4816 85.1308 40.223C84.7809 39.9501 84.5051 39.596 84.3032 39.1605C84.1058 38.7347 84.0183 38.305 84.0407 37.8713C84.0683 37.4236 84.2043 37.0195 84.4488 36.6593C84.6888 36.2894 85.0217 36.0057 85.4475 35.8084C85.8637 35.6155 86.2856 35.5492 86.7133 35.6096C87.1463 35.6558 87.5376 35.8153 87.8875 36.0882C88.2425 36.3468 88.5187 36.6891 88.7161 37.1149C88.918 37.5504 89.0051 37.992 88.9776 38.4398C88.9552 38.8734 88.8218 39.2704 88.5773 39.6306C88.3424 39.9863 88.0169 40.2607 87.6008 40.4536ZM89.1789 46.6351L90.945 33.4011L92.1063 32.8628L90.3402 46.0968L89.1789 46.6351ZM87.1556 39.5313C87.4847 39.3787 87.6977 39.1154 87.7947 38.7412C87.8871 38.3574 87.8459 37.9768 87.671 37.5994C87.496 37.222 87.2344 36.9493 86.8862 36.7816C86.5336 36.6041 86.1927 36.5916 85.8637 36.7441C85.5347 36.8967 85.3239 37.1648 85.2314 37.5487C85.1344 37.9228 85.1734 38.2986 85.3484 38.676C85.5233 39.0534 85.7871 39.3309 86.1398 39.5083C86.488 39.6761 86.8266 39.6838 87.1556 39.5313ZM95.8666 43.6761C95.4408 43.8735 95.0114 43.9491 94.5785 43.9029C94.1456 43.8567 93.7516 43.7042 93.3966 43.4456C93.0467 43.1727 92.7709 42.8186 92.569 42.3831C92.3716 41.9573 92.2841 41.5276 92.3065 41.0939C92.3341 40.6461 92.4701 40.2421 92.7146 39.8819C92.9546 39.512 93.2876 39.2283 93.7134 39.0309C94.1295 38.8381 94.5514 38.7718 94.9792 38.8322C95.4121 38.8784 95.8035 39.0379 96.1533 39.3108C96.5084 39.5694 96.7846 39.9117 96.9819 40.3375C97.1838 40.773 97.271 41.2146 97.2434 41.6624C97.221 42.096 97.0876 42.4929 96.8431 42.8532C96.6082 43.2089 96.2828 43.4833 95.8666 43.6761ZM95.4215 42.7538C95.7505 42.6013 95.9635 42.338 96.0605 41.9638C96.153 41.58 96.1117 41.1994 95.9368 40.822C95.7618 40.4445 95.5003 40.1719 95.1521 40.0041C94.7994 39.8267 94.4585 39.8142 94.1295 39.9667C93.8005 40.1192 93.5897 40.3874 93.4972 40.7712C93.4002 41.1454 93.4392 41.5212 93.6142 41.8986C93.7891 42.276 94.0529 42.5535 94.4056 42.7309C94.7538 42.8987 95.0924 42.9064 95.4215 42.7538Z" fill="#111111"/>
<path d="M77.8898 39.3113C78.7318 38.9211 79.5533 38.8165 80.3545 38.9977C81.1512 39.1692 81.8834 39.5822 82.5513 40.2367C83.2243 40.8771 83.7941 41.7004 84.2607 42.7069C84.7272 43.7134 84.9896 44.6852 85.0477 45.6223C85.1111 46.5452 84.953 47.3709 84.5735 48.0994C84.1896 48.8182 83.5766 49.3727 82.7347 49.763C81.8927 50.1533 81.0734 50.2627 80.2767 50.0912C79.4756 49.91 78.7385 49.4992 78.0654 48.8589C77.3976 48.2044 76.8304 47.3739 76.3638 46.3675C75.8973 45.361 75.6323 44.3963 75.569 43.4733C75.5108 42.5362 75.6737 41.7083 76.0577 40.9895C76.4372 40.261 77.0479 39.7016 77.8898 39.3113ZM82.1425 48.4856C82.9651 48.1043 83.4282 47.4546 83.5317 46.5366C83.6449 45.6141 83.4234 44.5529 82.8671 43.3529C82.3108 42.1529 81.6442 41.298 80.867 40.7882C80.0996 40.2739 79.3046 40.2075 78.482 40.5888C77.6594 40.9701 77.1915 41.622 77.0783 42.5445C76.9748 43.4625 77.2011 44.5215 77.7574 45.7215C78.3136 46.9215 78.9755 47.7786 79.7429 48.2929C80.5201 48.8027 81.3199 48.8669 82.1425 48.4856Z" fill="#111111"/>
<path d="M68.6099 48.763C68.7507 48.3567 68.9885 47.982 69.3232 47.6387C69.6676 47.291 70.0672 47.0117 70.522 46.8009C71.093 46.5362 71.6932 46.4108 72.3228 46.4247C72.9523 46.4385 73.5456 46.6279 74.1028 46.9928C74.6599 47.3576 75.1111 47.9126 75.4566 48.6578C75.7706 49.3352 75.9222 50.0174 75.9114 50.7043C75.9058 51.377 75.7009 52.0129 75.2966 52.6118C74.8975 53.1965 74.2721 53.6862 73.4205 54.081C72.627 54.4489 71.8822 54.6177 71.1864 54.5876C70.5002 54.5529 69.9001 54.3491 69.3862 53.9759C68.882 53.5983 68.4773 53.0805 68.1723 52.4224L69.5368 51.7899C69.788 52.3318 70.1865 52.7349 70.7323 52.9993C71.2877 53.2591 71.9864 53.1939 72.8284 52.8036C73.6316 52.4312 74.1187 51.935 74.2898 51.3149C74.4661 50.6806 74.4039 50.0393 74.1034 49.3909C73.8163 48.7715 73.3805 48.3387 72.796 48.0923C72.2167 47.8318 71.5303 47.8854 70.7367 48.2533C70.1658 48.5179 69.7793 48.8382 69.5772 49.214C69.3707 49.5801 69.2552 50.0158 69.2307 50.5209L67.8662 51.1534L65.8714 45.0239L71.6924 42.3256L72.2846 43.6031L67.5958 45.7765L68.2539 47.7288C68.3512 47.9894 68.4001 48.2724 68.4006 48.5778C68.3992 48.6255 68.3929 48.6755 68.3818 48.7276C68.3708 48.7798 68.3671 48.8226 68.3709 48.8561C68.3799 48.8755 68.4056 48.893 68.4481 48.9085L68.5196 48.9107C68.5486 48.8972 68.5787 48.848 68.6099 48.763Z" fill="#111111"/>
</svg>
