<svg width="202" height="133" viewBox="0 0 202 133" fill="none" xmlns="http://www.w3.org/2000/svg">
<g clip-path="url(#clip0_27_34930)">
<path d="M110.7 74.3C110.567 74.3 110.467 74.2667 110.4 74.2C110.5 74.3 110.6 74.4 110.7 74.3Z" fill="#100F12"/>
<path d="M84.5999 78.8C84.1999 78.7333 83.8333 78.6667 83.4999 78.6C83.7666 78.8667 84.1333 78.9333 84.5999 78.8Z" fill="#100F12"/>
<path d="M125.9 67.9C126.3 67.8333 126.667 67.7667 127 67.7C126.7 67.7 126.4 67.7 125.9 67.9Z" fill="#100F12"/>
<path d="M54.5999 78.5C54.1333 78.4333 53.7333 78.4 53.3999 78.4C54.0999 78.5 54.3999 78.6 54.5999 78.5Z" fill="#100F12"/>
<path d="M170 37C169.6 37.2 169.333 37.4333 169.2 37.7C169.5 37.7 169.8 37.5 170 37Z" fill="#100F12"/>
<path d="M163.1 42.8C163.1 42.7333 163.1 42.7 163.1 42.7C163 42.7 163 42.7 163.1 42.8Z" fill="#100F12"/>
<path d="M158.3 46.1H158.4C158.3 46 158.3 46 158.3 46.1Z" fill="#100F12"/>
<path d="M169.2 37.7C168.2 38 167.2 37.5 167.8 38.8C167.2 39.2 166.733 39.7333 166.4 40.4C167.7 40.9 168.7 38.5 169.2 37.7Z" fill="#100F12"/>
<path d="M110.7 74C111.4 74 110.9 74.2 110.7 74Z" fill="#100F12"/>
<path d="M118.3 70.9C118.033 70.9667 117.767 71.0333 117.5 71.1C117.8 71.1 118 71.1 118.3 70.9Z" fill="#100F12"/>
<path d="M146.6 59.6C146.533 59.6667 146.467 59.7 146.4 59.7C146.4 59.8 146.5 59.7 146.6 59.6Z" fill="#100F12"/>
<path d="M117.5 71.1C117.3 71.2 117 71.2 116.8 71.3C117.067 71.2333 117.3 71.1667 117.5 71.1Z" fill="#100F12"/>
<path d="M24.0999 11.4C24.0999 11.4 23.7999 11.9 24.9999 11.7C25.5999 10.7 23.9999 10.6 25.0999 9.50001C23.2999 10.7 25.2999 9.50001 24.0999 11.4Z" fill="#100F12"/>
<path d="M24.0999 9.80001C23.5999 9.70001 23.9999 9.80001 23.1999 9.80001C23.5333 9.80001 23.8333 9.80001 24.0999 9.80001Z" fill="#100F12"/>
<path d="M84.8999 60.9C84.8999 60.7 84.8999 60.5 84.8999 60.3C84.7999 60.6 84.7999 60.8 84.8999 60.9Z" fill="#100F12"/>
<path d="M58.0999 68.5C58.3999 68.5 58.6999 68.4 58.8999 68.3C58.4999 68.3 58.1999 68.4 58.0999 68.5Z" fill="#100F12"/>
<path d="M13.3999 18.3C13.0666 18.5 12.7999 18.7667 12.5999 19.1C12.8666 18.8333 13.1333 18.5667 13.3999 18.3Z" fill="#100F12"/>
<path d="M57.3999 5.90001C56.4999 6.40001 59.2999 7.1 59.6999 7.1C58.9666 6.56667 58.1999 6.16667 57.3999 5.90001Z" fill="#100F12"/>
<path d="M80.6999 25.6C80.6999 25.5333 80.6333 25.4 80.4999 25.2C80.5666 25.3333 80.6333 25.4667 80.6999 25.6Z" fill="#100F12"/>
<path d="M19.1999 11.8C18.1999 12.4 17.2999 13.1 16.2999 13.8C16.8999 13.5 19.0999 12.4 19.1999 11.8Z" fill="#100F12"/>
<path d="M10.9999 27.2C10.9999 27.1333 10.9666 27.1 10.8999 27.1C10.9666 27.1667 10.9999 27.2 10.9999 27.2Z" fill="#100F12"/>
<path d="M141.4 62C141.533 62 141.7 61.9667 141.9 61.9C141.767 61.9 141.6 61.9333 141.4 62Z" fill="#100F12"/>
<path fill-rule="evenodd" clip-rule="evenodd" d="M49.9999 3.39999C51.1999 3.99999 54.5999 5.00001 55.1999 5.60001C51.7999 6.20001 58.8999 8.3 60.3999 9.2C60.1333 9.2 59.8999 9.2 59.6999 9.2C60.8999 10 62.0999 11.4 63.7999 11.6C63.2666 11.5333 62.7999 11.6667 62.3999 12C62.0999 13 66.4999 13.9 67.0999 15.5C67.0333 14.8333 66.9999 14.1667 66.9999 13.5C68.1999 14.9 69.4999 13.8 70.5999 15.2C70.0999 16.2 72.6999 17.8 73.5999 18.7C75.3999 20.5 76.4999 23.3 78.4999 24.6C78.1999 24.5 81.4999 28.4 81.8999 28.9C83.8999 31.2 84.9999 33.3 86.0999 35.8C86.6999 37 87.0999 39.1 88.4999 39.8C88.5666 40.2667 88.5999 40.7667 88.5999 41.3C87.7999 40.9 87.0999 38.7 86.0999 38.7C86.8999 41.2 88.0999 43.2 88.9999 45.7C89.2999 46.5 89.0999 46.9 89.2999 47.7C89.6999 49 90.7999 49.8 89.6999 49.3C90.0333 50.3667 90.6333 51.2333 91.4999 51.9C90.3999 46.9 92.7999 51.4 93.4999 54.2C94.8999 59.5 94.7999 64.9 94.7999 70.3C100.6 70.1 107.9 68.8 114.5 67.5C115.6 66.7 116.7 65.6 118.1 65.4C118.167 65.7333 118.233 66.1 118.3 66.5C120.2 65.6 121.4 63.9 123.2 62.9C124.1 63.2 121.2 64.9 124.7 63.2C123.4 64.3 126.5 62.5 124.4 64.1C124.9 65.3 128 63.4 127.1 63.4C128.2 63.3 127.3 63.5 127.6 64.1C129.4 63.7 129.4 62.4 127.6 62.3C132.4 62.1 132 61.2 134.9 59.1C139.2 55.9 144.8 53.2 149.7 50.8C148.5 52.4 145.8 53 144.9 54.7C144.967 54.6333 145.033 54.5667 145.1 54.5C144.8 54.9 144.4 55.4 144.4 55.6C146.5 55.6 146.3 53.5 148 53.6C145.7 55.2 149.1 53.6 148 54.9C148.6 54.5 152.4 52.5 148.1 53.9C148.4 53 150.4 51.9 151 51.4C151.3 51.1 153.7 49.2 154.1 49C154.1 49.3333 154.067 49.7 154 50.1C156.4 49.6 158.4 48.1 160.5 47C159.767 47.2667 159.067 47.3 158.4 47.1C158.8 46.5 159.2 46 159.6 45.5C159.533 45.7667 159.467 46 159.4 46.2C160.2 45.6 161.8 42.8 161.5 44.9C164.4 43.2 162.5 44.9 165 43.7C164.667 43.4333 164.333 43.2 164 43C165.3 42.5 171.6 37.8 171.8 37.9C172.4 37.5 168.7 42.2 170.8 42C171.4 41.2 171.967 40.3667 172.5 39.5C170.3 40.4 174.4 32.4 175.4 34.7C175.5 35.1 176.6 33.1 176.7 33C176.633 33.2667 176.7 33.4667 176.9 33.6C177.5 33.2 177.8 31.4 177.8 31.6C177.8 31.9 181.2 27.7 181.4 27.3C181.4 28.4 178.7 33.2 178.8 33.3C181.5 32.4 182.2 27.9 183.2 26.4C183.8 25.5 185 24.7 184.6 23.9C184.1 23.9 186.4 21.4 186.3 21.6C186.167 22.4 186.467 22.5333 187.2 22C186.2 23.2 187.3 24.3 186.3 25.3C186.5 24.7667 186.6 24.2 186.6 23.6C186.4 22.4 183.6 27.9 184 27.1C184.267 26.8333 184.533 26.5667 184.8 26.3C186 27 183.7 29.3 184.3 30.3C184.433 29.9667 184.667 29.8 185 29.8C184.333 30.3333 183.767 30.9333 183.3 31.6C183.367 31.2667 183.4 30.9333 183.4 30.6C181.6 31.4 182 32.7 180.5 33.8C180.2 33.1 181.6 32.2 181.4 31.5C181.3 31 180.1 33.4 180 33.4C178.3 34.7 177.4 34.9 176.2 37.4C176.4 36.6667 176.667 36 177 35.4C176.2 36.4 174.1 36.5 173.7 37.9C174.033 37.7667 174.367 37.6 174.7 37.4C173.9 38 173.267 38.7 172.8 39.5C173.333 40.0333 173.867 40.1 174.4 39.7C173.1 40.9 171.7 42.9 170.7 42.1C170.6 42.2 167.8 44.4 168.6 44.8C168.7 44.8 170.1 43.5 170 44.4C169.3 44.1 169.2 45.4 168.7 45.7C169.5 44.1 166.6 46.1 167.1 45.1C165.4 46.1 164.2 47.3 163 48.4C159.5 46.7 162 49.4 159.6 51.5C159.6 51.1667 159.567 50.8333 159.5 50.5C159.4 50.6 157 52 157.6 52.6C157.7 52.5 160.7 52.1 160.6 52.9C160.4 53.8 153.2 53.2 152.1 56.6C152.4 56.9 153.6 56.4 153.4 57.2C151 57.8 148.3 59.8 146.1 60.6C145.1 61 144 61.3 142.9 61.9C141.9 62.5 137.8 64.3 138.5 63.8C137.4 64.1 135 66.6 135.3 65.1C135.3 65.1 133.6 65.7 134.7 65.3C133.9 65.5 133 66.5 131.8 67C132.133 66.9333 132.5 66.9 132.9 66.9C131.3 67.7 129.5 68.3 128.1 69.2C126.6 70.1 125.2 71.5 123.5 72.2C123.5 71.9333 123.5 71.6667 123.5 71.4C121 71.9 120.6 71.4 118.3 71.9C116.7 72.9 110.9 75.2 109.5 75.4C108.3 75.6 102.7 74 102.1 75.6C103.6 75.8 105 76.1 106.5 76C104.9 76.5 103.7 77.6 102.1 78C102.3 78.2 102.533 78.2667 102.8 78.2C101.2 78.6 100.6 78.3 98.6999 78.9C98.6999 79.3 98.7333 79.7 98.7999 80.1C97.5333 80.5 96.2666 80.6333 94.9999 80.5C95.1999 83.4 93.0999 85.6 93.1999 88.5C93.3333 88.3667 93.4333 88.2333 93.4999 88.1C93.4999 92 90.8999 106 87.5999 107.4C87.5999 107.2 87.6333 107.033 87.6999 106.9C86.9999 108.1 85.1999 109.9 84.6999 110.6C84.8999 110.3 81.5999 114.9 82.4999 112.8C80.2999 117.5 77.3999 122.2 73.0999 125.8C71.1999 127.4 67.6999 130.4 65.3999 130.7C65.4999 130.7 62.4999 130.8 62.8999 130.1C62.1999 131.4 60.3999 132.2 59.0999 132.6C60.7999 129.8 63.4999 129.9 66.0999 127C66.0999 127.2 66.0999 127.367 66.0999 127.5C66.6999 127.2 69.4999 122 69.7999 122.6C69.5999 123.067 69.6666 123.467 69.9999 123.8C71.3999 122.4 69.1999 120.3 71.6999 120C71.6333 120.133 71.5333 120.3 71.3999 120.5C73.2999 118.6 71.5999 120.5 72.1999 120.9C72.8999 121.2 74.1999 119.1 73.7999 118.9C70.6999 117.5 73.7999 118.3 74.8999 116.8C75.3999 116.1 75.4999 113.5 75.8999 112.7C76.8999 110.4 76.3999 112.3 77.7999 109.9C77.7999 111.2 75.7999 112.1 76.5999 113.2C77.0999 113.8 78.5999 108.5 79.0999 107.5C79.6999 106.1 80.8999 105.4 80.9999 103.4C80.7333 103.733 80.4666 104.033 80.1999 104.3C82.9999 100.9 82.0999 96.1 83.3999 92.3C83.2999 91.1 85.9999 94.4 86.0999 94.7C86.3999 94.4 86.2999 89.4 86.3999 88.9C85.8999 88.1 85.0999 90.4 85.0999 90.4C85.1999 89 86.6999 86.3 85.7999 85C85.8666 85.5333 85.6999 85.8333 85.2999 85.9C84.8999 85.8 84.0999 83.1 84.3999 82.7C84.7333 82.8333 84.9999 83.0333 85.1999 83.3C85.5333 82.6333 85.5666 81.9333 85.2999 81.2C84.6999 81.2 84.4999 81.4 83.7999 81.5C84.6999 81.2 86.7999 80.9 86.5999 80C85.7999 80.2 84.9999 81.6 85.0999 79.6C85.3999 80.4 85.8999 79.4 84.6999 78.9C83.4999 78.4 79.8999 80.2 77.2999 79.7C78.9999 79.8 78.3999 78.8 79.7999 78.8C75.9999 78 73.3999 81.2 69.9999 81.7C67.3999 82 65.7999 80.4 63.0999 81C63.6999 80.8 61.1999 79.4 60.1999 79.6C60.7333 79.8667 61.2666 80.1667 61.7999 80.5C59.3999 80.8 56.8999 79.9 54.5999 79.5C55.4999 79.3 54.1999 78.9 55.7999 78.8C56.0999 76.8 51.0999 79.2 50.8999 79.2C47.8999 79.3 43.7999 77.6 40.9999 76.8C34.1999 74.8 27.4999 72.3 21.4999 68.7C11.3999 62.6 3.99994 53.3 1.59994 42.5C-1.50006 28.7 1.69994 16.2 13.9999 8.20001C18.1999 5.50001 22.0999 3.7 26.3999 2C30.7999 0.2 36.0999 1.3 40.8999 0.5C42.8999 1.7 47.2999 2.19999 49.9999 3.39999ZM87.7999 105.9C87.7333 106.233 87.6999 106.567 87.6999 106.9C87.7999 106.5 87.8999 106.2 87.7999 105.9ZM174.8 39.3C174.667 39.5 174.533 39.6333 174.4 39.7C174.533 39.5667 174.667 39.4333 174.8 39.3ZM148 55C148 55 148 54.9667 148 54.9C147.933 54.9667 147.933 55 148 55ZM145.6 54.2C145.467 54.2667 145.3 54.3667 145.1 54.5C145.3 54.3 145.5 54.2 145.6 54.2ZM114.5 67.5C113.967 67.6333 113.5 67.8667 113.1 68.2C113.6 68.1 114.1 67.8 114.5 67.5ZM67.0999 16C67.1666 15.8667 67.1666 15.7 67.0999 15.5C67.0999 15.7 67.0999 15.8667 67.0999 16ZM145.4 60.6H145.7C146.1 59.8 145.9 60.1 145.4 60.6ZM131.7 67.2C131.3 66.9 126.2 68 125.8 69C126.7 70 129.5 67.7 131.7 67.2ZM86.4999 79.4C85.9666 79.1333 85.6666 79.2667 85.5999 79.8C85.6999 79.8 86.4999 79.6 86.4999 79.4ZM86.6999 80.9C85.7999 81.3 84.8999 83.4 86.3999 83.4C86.5999 82.6 86.6999 81.7667 86.6999 80.9ZM97.2999 75.8C98.4999 76 95.8999 77.1 98.0999 76.6C95.1999 77.8 94.7999 76.9 94.9999 79.9C96.1999 79.5 102.8 76 102.7 75.9C102.2 75.6 99.1999 76.5 98.7999 76.5C97.5999 75.9 99.8999 75.4 97.2999 75.8ZM26.7999 8.90001C26.8666 9.03334 26.9333 9.20001 26.9999 9.40001C24.0999 9.60001 22.2999 12.6 19.6999 12.7C25.3999 8.4 13.2999 13.8 15.3999 14.7C15.6666 14.5 15.8999 14.2667 16.0999 14C16.3999 15 13.8999 15.2 14.8999 16C16.0999 15.7 15.8999 16.1 17.2999 15.3C17.9999 14.9 19.1999 13.1 20.5999 12.9C21.0999 14.3 18.2999 14.3 17.6999 15.9C19.2999 14.7 17.9999 16.6 18.8999 16.1C17.4999 17.2 18.3999 18.2 17.0999 19.3C17.0999 18.9 17.1333 18.4667 17.1999 18C16.4666 18.4 16.0999 19 16.0999 19.8C16.6999 21.0667 16.2999 21.7667 14.8999 21.9C13.8999 24.2 13.8999 23.6 13.3999 25.9C12.8666 25.0333 12.8333 24.1667 13.2999 23.3C13.0999 23.5667 13.0333 23.5333 13.0999 23.2C12.1999 23.9 12.6999 25.4 12.0999 25.9C11.1999 26.5 14.6999 18.1 14.7999 17.9C15.8666 17.6333 15.9666 17.1667 15.0999 16.5C14.6999 16.4333 14.2999 16.3333 13.8999 16.2C13.2999 16.9 13.7999 18 13.3999 18.7C11.2999 21.8 10.1999 25.6 10.3999 29.2C10.2666 28.8667 10.1333 28.5333 9.99994 28.2C5.29994 30.4 11.1999 37.1 11.6999 39.8C11.1999 40.3 10.5999 38.9 10.2999 38.9C8.79994 38.5 11.7999 42.6 11.9999 42.8C12.5999 43.5 12.9999 43.3 13.1999 43.1C13.1333 43.9 13.3333 44.6333 13.7999 45.3C13.5333 45.2333 13.2666 45.1667 12.9999 45.1C13.3999 47.1 17.9999 51 17.3999 49.2C18.7999 52.2 17.9999 49.1 19.2999 50.4C17.9999 50.3 19.6999 52.1 18.9999 52.6C18.9999 52.6 17.6999 50.9 17.3999 51.5C17.5999 51.8 18.2999 55.4 19.2999 54.8C19.6333 53.9333 19.9999 53.0667 20.3999 52.2C21.2999 52.3 20.0999 55.1 20.9999 55.7C20.0999 55.2 20.0999 55.9 20.3999 56.3C21.0999 57.4 25.1999 58.2 26.2999 59C26.0333 59 25.7666 59.0333 25.4999 59.1C26.6999 59.3 26.7999 60.2 27.9999 60.4C27.9999 60.4 27.9999 60.3667 27.9999 60.3C30.9999 63.2 40.0999 65.3 43.7999 66.3C45.9999 66.9 47.7999 67.9 49.6999 68.5C50.9999 68.8 52.3999 68.6 52.1999 68.5C54.3999 68.5 55.9999 69.7 58.0999 69.5C57.9999 69.6 54.6999 70.3 55.0999 70.8C56.2999 72.7 66.0999 69 68.8999 70.9C68.7666 70.9667 68.5999 71.0667 68.3999 71.2C68.9999 71.3 70.2999 70.2 70.6999 71C70.6999 71.4667 70.4666 71.8 69.9999 72C72.7999 71.9 75.3999 70.7 78.1999 70.8C79.5999 70.9 80.8999 72 83.0999 71.6C86.4999 71 86.5999 70.7 85.9999 67.4C85.9999 66.8 84.3999 60.5 85.6999 62.4C84.0999 56.5 81.8999 51.6 80.1999 45.9C80.3333 46.3 80.5999 46.5 80.9999 46.5C80.4999 43.7 78.2999 41.7 77.0999 39.2C76.4999 38.1 75.9999 34.7 75.2999 34.3C74.8999 34.1 75.0999 35.2 74.7999 35.1C72.9999 34.2 70.5999 30.1 68.7999 27.9C66.1999 24.7 63.9999 23.2 60.7999 20.5C61.4999 21.7 59.3999 20.2 59.2999 20.1C60.5999 20.1 59.4999 19.3 61.0999 19.9C59.6999 18.3 56.1999 19.7 56.1999 17C56.7333 17.4 57.2999 17.6667 57.8999 17.8C57.0999 16.8 56.0666 16.1667 54.7999 15.9C54.3999 15.9 55.3999 17 55.1999 17.1C54.6999 17.2 52.0999 14.9 51.4999 14.5C49.7999 13.7 48.7999 14.5 47.1999 13.9C46.9999 13.2 49.1999 12.8 46.8999 12.2C44.9999 11.7 45.4999 13.2 43.8999 13C43.8999 11.9 44.6999 11.6 45.7999 11.8C45.3999 11.4 43.6999 10.3 45.2999 10.1C42.8999 10.3 32.9999 9.00001 33.7999 12.6C33.3333 12.7333 32.8666 12.8667 32.3999 13C31.4999 12.8 33.2999 11.9 32.7999 11.5C31.8666 11.0333 31.1666 11.2 30.6999 12C30.8999 12.4 31.2333 12.7333 31.6999 13C30.3999 12.6 30.2999 13.9 29.1999 13.7C30.9999 13 27.8999 12.4 30.3999 11.9C27.7999 11.6 30.4999 11.4 30.7999 10.4C29.5333 10.6667 28.2999 11.0333 27.0999 11.5C27.2999 10.5 29.1999 10.8 29.6999 9.90001C28.5999 9.90001 26.2999 11.1 25.3999 10.4C25.7999 10.1 28.0999 10.1 28.2999 9.20001C27.8999 9.00001 27.2999 8.90001 26.7999 8.90001ZM51.5999 68.6C51.9999 68.5333 52.1999 68.5 52.1999 68.5C51.9999 68.5 51.7999 68.5333 51.5999 68.6ZM27.5999 59.9C27.9999 59.9667 28.1333 60.1 27.9999 60.3C27.8666 60.1667 27.7333 60.0333 27.5999 59.9ZM13.1999 43.1C13.5999 42.8 13.6999 42.3 14.1999 44C13.7999 43.7333 13.4666 43.4333 13.1999 43.1ZM26.6999 8.80001C26.6999 8.80001 26.6666 8.83334 26.5999 8.90001C26.6666 8.90001 26.7333 8.90001 26.7999 8.90001C26.7333 8.83334 26.6999 8.80001 26.6999 8.80001ZM26.5999 8.90001C25.5999 8.90001 24.6999 9.10001 24.9999 9.30001C25.7999 9.70001 26.2999 9.10001 26.5999 8.90001Z" fill="#100F12"/>
<path d="M89.8999 47.1C90.2333 47.6333 90.5333 48.1667 90.7999 48.7C90.4666 47.9 90.1666 47.1 89.8999 46.3C90.2999 46.9667 90.2999 47.2333 89.8999 47.1Z" fill="#100F12"/>
<path d="M183.4 23.1C183 23.2333 182.6 23.3333 182.2 23.4C182.267 23.6 182.3 23.7667 182.3 23.9C182.633 23.6333 183 23.3667 183.4 23.1Z" fill="#100F12"/>
<path d="M166.1 37.6L167.7 36.7C167.9 36.1 165.9 37 166.1 37.6Z" fill="#100F12"/>
<path d="M176.7 37.3C176.833 36.9667 176.967 36.6333 177.1 36.3C176.233 36.5667 175.733 37.1333 175.6 38C176.2 37.1 176 37.9 176.7 37.3Z" fill="#100F12"/>
<path d="M160.8 42.2C161 41.8 162.7 41.3 162.3 40.6C162.3 41.5 160.6 41.4 160.8 42.2Z" fill="#100F12"/>
<path d="M170.2 44C169.4 44.7 167.8 44.9 167.8 45.6C168.8 45.8 169.1 44.7 170.2 44Z" fill="#100F12"/>
<path d="M158.3 45.7C157.3 46 154.1 45.9 155 47.8C155.2 48.4 158.3 45.8 156.5 47.7C157.1 46.9667 157.7 46.3 158.3 45.7Z" fill="#100F12"/>
<path d="M165.6 47.4C166.533 47.2 167.4 46.8333 168.2 46.3C167.467 45.9667 166.767 46.1333 166.1 46.8C166.1 46.5333 166.1 46.2667 166.1 46C165.2 46.3 166.6 46.7 165.6 47.4Z" fill="#100F12"/>
<path d="M150.4 49.6C151.5 49.3 153.5 47.9 153.7 46.6C152.6 47.4 151.2 48.5 150.4 49.6Z" fill="#100F12"/>
<path d="M161 49.3C161.067 49.6333 161.167 49.9333 161.3 50.2C161.2 50.2 162.4 48.9 162.4 48.8C161.4 49.7 161.8 48.5 161 49.3Z" fill="#100F12"/>
<path d="M158.2 54.1C158.4 53.8333 158.6 53.5667 158.8 53.3C158.3 51.9 156.9 53.6 156.5 54C157.033 54.0667 157.6 54.1 158.2 54.1Z" fill="#100F12"/>
<path d="M155.6 53.4C155.1 54 154.2 55 153.8 55.9C154.533 55.1667 155.133 54.3333 155.6 53.4Z" fill="#100F12"/>
<path d="M125.4 62.4C125.6 62 123.5 62.3 124.7 62.2C124.6 62.7 126.2 62.6 125.4 62.4Z" fill="#100F12"/>
<path d="M131.8 67.6C132.467 67.5333 132.933 67.2333 133.2 66.7C132 66.7 130.3 68.1 129.3 68.8C130.167 68.4 131 68 131.8 67.6Z" fill="#100F12"/>
<path d="M75.2999 79.7C74.8999 79.5 73.6999 79.9 74.0999 80.2C74.6999 79.9 75.3999 80 75.2999 79.7Z" fill="#100F12"/>
<path d="M15.1999 46.2C15.6999 47 15.6999 46.4 16.2999 46.9C15.9999 46.1 15.5999 45.7 15.1999 46.2Z" fill="#100F12"/>
<path d="M13.2999 39.9C13.1999 39.7 12.9999 39.4 12.9999 39.7C13.0999 39.7 13.1999 39.8 13.2999 39.9Z" fill="#100F12"/>
<path d="M12.4999 39.1C12.5666 38.5667 12.8333 38.4667 13.2999 38.8C13.0999 38.5333 12.8666 38.2667 12.5999 38C11.7999 39.9 12.3999 39.6 12.4999 39.1Z" fill="#100F12"/>
<path d="M9.69994 30.3C10.1999 31.9 11.1999 31.1 10.8999 33.2C11.4999 32 11.5999 34.2 11.7999 34.5C12.0999 31.3 9.79994 30.8 9.79994 28.7C9.79994 29.2333 9.76661 29.7667 9.69994 30.3Z" fill="#100F12"/>
<path d="M10.0999 35.2C10.6999 35.3 10.4999 33.9 10.1999 33.5C10.0999 33.9 9.49994 34.7 10.0999 35.2Z" fill="#100F12"/>
<path d="M11.9999 28.2C11.5999 27.6667 11.4333 27.9333 11.4999 29C11.6999 28.7333 11.8666 28.4667 11.9999 28.2Z" fill="#100F12"/>
<path d="M12.7999 26.9C12.5999 26.6 12.9999 25.5 12.4999 26L12.7999 26.9Z" fill="#100F12"/>
<path d="M14.1999 22.1C14.2999 22.1 15.5999 21.3 14.9999 22.4C15.3999 22.1 14.9999 20.3 14.1999 22.1Z" fill="#100F12"/>
<path d="M21.4999 13.7C20.9666 13.8333 20.6999 14.1333 20.6999 14.6C25.9999 9.50001 21.0999 14.2 21.4999 13.7Z" fill="#100F12"/>
<path d="M16.9999 12.3C18.2999 11.7 18.0999 11.9 19.5999 10.9C18.5999 10.5 18.1999 11.9 16.9999 12.3Z" fill="#100F12"/>
<path d="M22.9999 14.3C22.0666 14.6333 22.0999 14.7 23.0999 14.5C23.8333 13.7 23.7999 13.6333 22.9999 14.3Z" fill="#100F12"/>
<path d="M25.0999 12.3C24.8333 12.9667 24.5666 13.6333 24.2999 14.3C25.2999 14 25.0999 12.9 25.9999 12.8C26.6999 12.6 27.9999 13.3 28.9999 12.2C28.4666 11.8 28.2666 11.2667 28.3999 10.6C27.5999 10.9 26.0999 13 25.0999 12.3Z" fill="#100F12"/>
<path d="M23.0999 10.5C22.4999 9.70001 21.5999 11.4 21.2999 11.7C22.9999 11.5 21.8999 11.5 23.0999 10.5Z" fill="#100F12"/>
<path d="M36.8999 9.90001C36.4333 9.96667 35.9666 10.0667 35.4999 10.2C37.3999 10.1 37.0999 9.60001 36.8999 9.90001Z" fill="#100F12"/>
<path d="M36.7999 10.5C36.7999 11.3 37.3333 11.2667 38.3999 10.4C37.8666 10.4667 37.3333 10.5 36.7999 10.5Z" fill="#100F12"/>
<path d="M38.6999 11C38.2999 11 37.8999 11.0333 37.4999 11.1C37.5999 11.1 39.2999 10.9 38.6999 11Z" fill="#100F12"/>
<path d="M41.3999 11.4C42.0666 11.2667 42.6333 11.4667 43.0999 12C42.8999 11.5 41.3999 10.8 41.3999 11.4Z" fill="#100F12"/>
<path d="M62.5999 8.2C62.1333 8.26667 62.0333 8.53334 62.2999 9C62.6333 8.93334 62.9666 8.83334 63.2999 8.7C63.0999 8.56667 62.8666 8.4 62.5999 8.2Z" fill="#100F12"/>
<path d="M66.5999 11.4C65.3999 10.4 63.8999 10.2 62.5999 9.40001C63.3999 9.93334 64.2333 10.4667 65.0999 11C64.8999 11 64.7333 11 64.5999 11C65.2666 11.1333 65.9333 11.2667 66.5999 11.4Z" fill="#100F12"/>
<path d="M86.6999 39.4C88.0999 41.2 88.3999 43.6 90.1999 44.7C90.1999 43.8333 89.7666 43.0667 88.8999 42.4C89.0999 42.4667 89.2666 42.5333 89.3999 42.6C89.0999 40.8 87.5999 40.5 86.6999 39.4Z" fill="#100F12"/>
<path d="M66.8999 125.4C66.8999 125.1 66.4999 125.1 66.1999 125.1C65.4999 126.1 66.6999 125.4 66.8999 125.4Z" fill="#100F12"/>
<path d="M147.2 31.6L146.9 31.5C146.8 32 147 31.7 147.2 31.6Z" fill="#100F12"/>
<path d="M147.2 31.6L147.4 31.7C147.333 31.6333 147.267 31.6 147.2 31.6Z" fill="#100F12"/>
<path d="M148.9 31.8C148.6 32.2 148.1 31.7 147.8 32.4C148.3 32.7 148.9 32.5 148.9 31.8Z" fill="#100F12"/>
<path d="M150.3 31.9C149.7 31.6 150.3 31.7 149.8 31.2C149.667 31.5333 149.433 31.8 149.1 32C149.4 33.2 150.3 32 150.3 31.9Z" fill="#100F12"/>
<path d="M171 20.8C171.067 20.8 171.1 20.8 171.1 20.8C171 20.8 171 20.7 171 20.8Z" fill="#100F12"/>
<path d="M168 23.6C167.867 23.6 167.767 23.6 167.7 23.6C167.767 23.6667 167.867 23.6667 168 23.6Z" fill="#100F12"/>
<path d="M181.9 12.9C182.033 12.8333 182.133 12.7667 182.2 12.7C182 12.7667 181.9 12.8333 181.9 12.9Z" fill="#100F12"/>
<path d="M156.5 31.4C156.6 31.4 156.7 31.3 156.7 31.2C156.6 31.1 156.5 31.2 156.5 31.4Z" fill="#100F12"/>
<path d="M157.2 30.6C156.5 30.3 157.1 31.7 157.1 31.7C156.6 31.2 158.6 30.7 157.2 30.6Z" fill="#100F12"/>
<path d="M171.1 20.9C171 20.8 170.9 20.9 171.1 20.9Z" fill="#100F12"/>
<path d="M169.6 22.4C169.667 22.4 169.733 22.4 169.8 22.4C169.7 22.4 169.7 22.4 169.6 22.4Z" fill="#100F12"/>
<path d="M162.8 25.2C162.867 25.2 162.9 25.2 162.9 25.2H162.8Z" fill="#100F12"/>
<path d="M169.8 22.4C169.9 22.4 169.9 22.4 170 22.3C169.933 22.3 169.867 22.3333 169.8 22.4Z" fill="#100F12"/>
<path d="M182.9 41.7C182.6 40.7 183.1 42.1 182.6 41.5C182.6 41.6 183.5 42.3 182.9 41.7Z" fill="#100F12"/>
<path d="M192.2 16.8C192 16.9333 191.767 17.1 191.5 17.3C192.1 17.1 193.1 16.6 193.6 16.1C192.2 16.9667 191.733 17.2 192.2 16.8Z" fill="#100F12"/>
<path d="M184.2 36.7C184.267 36.6333 184.3 36.5667 184.3 36.5C184.2 36.6 184.2 36.6 184.2 36.7Z" fill="#100F12"/>
<path d="M185.4 19.4C185.333 19.5333 185.3 19.6333 185.3 19.7C185.367 19.6333 185.4 19.5333 185.4 19.4Z" fill="#100F12"/>
<path d="M194.4 14.8C194.4 14.7 195 13.8 194.5 14.3C194.5 14.3 194.1 15 194.4 14.8Z" fill="#100F12"/>
<path fill-rule="evenodd" clip-rule="evenodd" d="M200.9 11.6C199.3 13.4 198.8 22.5 196.3 23.5C196.1 23.3 195.933 23.1333 195.8 23C195.6 23.1 194.9 25.4 194.9 25.4C194.633 25.0667 194.333 24.9667 194 25.1C193.9 25.3 194.2 26.2 193.7 26.3C194.4 26.4 196 26.8 195.2 27.3C195.067 27.2333 194.933 27.1667 194.8 27.1C194.3 28 194.2 29.1 193.3 29.7C193 30.2 192.6 33.7 192.7 33.8C192.5 33.8667 192.333 33.9 192.2 33.9C192.067 33.5667 191.9 33.2667 191.7 33C190.7 34.1 190.4 35.3 190.8 36.2C190.8 36.1333 190.8 36.1 190.8 36.1C190.2 39.2 188.5 49 188.5 49.1C188.1 48.8 187.3 51.1 187.2 50.6C187.6 52.8 187.2 54.6 186.6 56.6C185 56.4 185.5 57.8 185.1 58.5C184.9 57.7 184.8 57 185.1 56.1C184.767 55.5667 184.367 55.1333 183.9 54.8C184.233 54.6 184.567 54.5667 184.9 54.7C184.567 54.3667 184.133 54.1667 183.6 54.1C183.4 54 184.8 53.6 184.9 53.6C184.9 52.5 183.6 53.9 183.3 52.9C183.7 52.9667 184.033 52.8333 184.3 52.5C182.7 52 183.3 51.1 183.3 50.5C183.7 50.7 182.9 52.2 184.2 51.3C183.733 50.6333 183.267 49.9667 182.8 49.3C183.067 49.3 183.333 49.2333 183.6 49.1C183.2 48.9 183.2 48.8 183.2 48.8C183.133 48.8 183.067 48.7667 183 48.7C183.7 47.7 182.1 46.2 182.5 45.2C182.5 45.3 184.9 45.8 185 45.8C184.8 45.5 183.7 43.6 183.4 44.4C183.467 44 183.433 43.5667 183.3 43.1C183.2 43.8 181.9 42.5 182.2 42.3C182.5 42.5 183.3 42.9 182.7 41.9C182.967 42.2333 183.267 42.5 183.6 42.7C183.8 42.3 183.3 39.9 183.4 39.4C183.3 39.8 183.9 39.2 183.9 39.1C184 38.3 184.3 37.2 184.4 36.8C184.6 36.3 186.4 29 187.7 29.7C187.9 29 188 25.5 188.8 24.1C188.2 24.3 187.8 25.2 187 25.7C187.133 25.5 187.233 25.3 187.3 25.1C186.7 25.5 186.1 25.9 185.5 26.2C186.5 24.8 187.8 23.6 188.4 22C188.467 22.3333 188.567 22.6667 188.7 23C188.7 22.8667 188.767 22.7333 188.9 22.6C189.4 22.8 189.6 22.3 189.4 23.1C190.7 22.4 189.1 22.4 189.1 22C190.5 22.6 189.6 20 189.7 19.9C189.9 20.1 190.167 20.2333 190.5 20.3C190.7 20.1 190.767 19.8667 190.7 19.6C190.433 19.5333 190.167 19.4 189.9 19.2C190.2 19.3 191.7 19.7 191.9 19.9C191.3 19.1 191.3 19 191.6 18.5C191.2 18.3 190.8 18.4 190.4 18.5C190.6 18.3667 190.767 18.2333 190.9 18.1C190.767 18.1667 190.667 18.2 190.6 18.2C191.8 17.7 192.2 17.1 193.4 16.4C193.4 16.5333 193.333 16.6667 193.2 16.8C193.4 16.6 195.3 16.1 194.9 15.5C194.6 15.6 194.2 16.1 194.1 16.2C193.967 16.2667 193.833 16.3667 193.7 16.5C194.3 15.8 193.9 15.6 193.9 15.3C193.9 15.6 196.5 12.9 196.1 12.9C196.2 12.9 195.2 13.6 195.1 13.8C195.233 13.6 195.367 13.4 195.5 13.2C195.433 13.2667 195.333 13.3 195.2 13.3C195.333 13.2333 195.433 13.1333 195.5 13C194.9 13.4 191.6 15.2 193.7 14.4C193.567 14.6667 193.4 14.9 193.2 15.1C193.4 14.9667 193.6 14.8333 193.8 14.7C193.5 15 193.2 15.3 193.1 15.4C195.5 13.7 193.4 15 193.7 15.3C193.567 15.6333 193.3 15.8667 192.9 16C193.6 15.2 192.3 16.1 192 16.6C192.3 16 190.6 17.2 190.5 17.5C190.833 17.2333 191.133 16.9667 191.4 16.7C191.1 17.1 190.1 17.8 189.7 18.1C189.633 18.3 189.567 18.4667 189.5 18.6C189.5 18.6667 189.5 18.7 189.5 18.7C189.4 19.2 189.2 19.6 188.8 20.1C188.4 20.0333 188.3 19.7667 188.5 19.3C188.3 18.5 187 20.4 187 20.6C187 20.2 186.8 19.9667 186.4 19.9C186.4 19.9 188 18.5 189 17.6C189 17.8 189.033 18.0333 189.1 18.3C189.1 18.3 189.1 18.3333 189.1 18.4C189.1 18.4 189.133 18.3667 189.2 18.3C189.133 18.3667 189.1 18.4333 189.1 18.5C189.433 18.0333 189.767 17.6 190.1 17.2C189.967 17.4667 189.833 17.7333 189.7 18C190.1 17.6 190.7 16.9 191.2 16.4C191.6 16.2667 191.8 16.0333 191.8 15.7C191.6 15.9 191.8 15.7 191.8 15.5C191.267 16.1 190.733 16.7333 190.2 17.4C191.2 16.2 190.7 16.7 190.3 17.1C191 16.3 191.5 15.9 191.9 14.9C191.633 15.3 191.333 15.6667 191 16C192.2 14.3 191.8 15.1 193 13.3C192.5 13.5 191.9 14.2 191.4 15C191.4 14.9333 191.4 14.9 191.4 14.9C191.4 14.9667 191.4 15 191.4 15C191.333 15.0667 191.3 15.1 191.3 15.1C191 15.5 190.7 15.9 190.5 16.4C190.433 16.4 190.4 16.4333 190.4 16.5C190.4 16.5 190.367 16.5 190.3 16.5C190.3 16.5 190.3 16.4667 190.3 16.4C190.5 16.1 189.9 17.1 189.6 17.6C189.733 17.2667 189.867 16.9667 190 16.7C190.4 16.6 190.4 16.2 190.2 15.9C190.267 15.7 190.333 15.5 190.4 15.3C190.333 15.5 190.233 15.6667 190.1 15.8C189.8 15.3 188.9 15.1 189 17.4C188.1 17.9 186.6 18.2 186.4 18.2C186.3 19.1 185.7 18.5 185.4 19.4C185.4 19.4 185.7 17.6 185 18C184.8 19.6 183.8 20.7 182.8 20.5C182.6 20.6333 182.567 20.8333 182.7 21.1C182.3 20.9667 182.133 20.7 182.2 20.3C180.9 21.4 178.3 24.4 176 23.6C175.3 25 173.8 25 171.9 25.5C171.7 25.9 171.3 26.6 171.2 26.6C171.067 26.3333 170.967 26.1 170.9 25.9C170.633 26.5 170.367 27.1 170.1 27.7C169.7 27.4 169.4 27 169.4 26.8C168.733 26.2667 168.5 26.3333 168.7 27C168.7 26.9 168.2 26 168.1 26.6C168 27 168.4 27.4 168.7 27.6C166.8 27 165.7 29.9 162.9 30.5C163.3 30.0333 163.7 29.6 164.1 29.2C164.2 29.2 164.2 29.1 164.2 28.8C163.4 28.7 163.5 29.5 163.2 29.2C163.5 28.9 162.9 28 162.8 28.4C162.467 29.0667 162.567 29.2667 163.1 29C162.833 29.2 162.667 29.4667 162.6 29.8C162.3 29.9 161.7 30.2 161.5 30.3C161.4 30.1 159.7 29.6 159.4 29.5C160.3 29.9 160.2 30.3 159.8 30.7C159.733 30.7 159.7 30.7 159.7 30.7C159.7 30.7 159.6 30.8 159.4 31C159.4 31 158.4 30.1 158.1 30C158.233 30.2667 158.333 30.5 158.4 30.7C157.9 30.5 155.9 30.7 155.9 30.6C156 30.5 157 29.6 156.3 28.8C155.9 30.8 155.6 30.9 154.6 30.8C154.467 30.9333 154.367 31.0333 154.3 31.1C154.3 31.0333 154.267 30.9667 154.2 30.9C154 30.8 153.8 31.3 153.8 31.5C153.8 31.1 152.6 31.9 152.4 32C152.6 31.2 153.7 30.5 153.6 30.2C152.7 29.4 151.9 32 151.6 32C151.6 31.7333 151.467 31.5667 151.2 31.5C151 32.1 151.3 32.3 150.5 32.3C150.5 32.2 150.3 30.6 151 30.5C150.733 30.8333 150.667 31.1667 150.8 31.5C151.2 31.4333 151.5 31.2 151.7 30.8V29.1C151.9 29.1 152.1 29.0333 152.3 28.9C153 29.9 152.2 28.9 153.2 29.1C152.867 29.3667 152.8 29.7 153 30.1C152.9 29.6 154 30.2 154.6 29.2C154.4 30.1 155.2 30.3 155.3 29.9C155.3 29.8 156 28.8 155 28.7C155.4 28.6 156 28.6 156 28.2C156.8 28.5 155.7 29 156.8 28.6C157.5 28.3 156.5 28 156.5 27.8C156.7 27.9333 156.833 27.8667 156.9 27.6C156.967 27.9333 157.133 28.2 157.4 28.4C157.733 28.3333 157.933 28.1333 158 27.8C158.1 27.9 159 29.1 159.3 29.1C159.167 28.4333 159.233 27.8 159.5 27.2C159.6 27.5 159.4 28.2 160 27.7C160.2 27.4 158.8 26.1 159.3 26C159.7 26.6667 160.3 27.1 161.1 27.3C162.2 24.9 161.1 27.1 161.1 25.6C161.9 26 165.2 24.7 165 24.9C166.6 25.1 166.6 23.1 168 21.8C169.1 23 171.5 21 172.6 20.6C170.4 20 173.7 19.8 172.4 19.1C172.667 18.9667 172.833 19.0667 172.9 19.4C173.1 19.3333 173.2 19.2667 173.2 19.2C173 19.6 172.8 19.9 172.8 20C173.1 20.1 174.1 20.7 174.5 20.5C173.3 20.3 175.1 19 175.3 18.7C175.033 18.5667 174.867 18.3667 174.8 18.1C174.7 18.5 174.3 18.7 174.9 18.6C174.767 18.7333 174.6 18.8667 174.4 19C173.8 18.3 174.6 18 174.8 17.2C175.1 18.3 175.9 17.2 176.1 17.3C176.2 17.7 176.1 18.1 176.9 18C177.1 17.6 176.6 16.7 177.9 16.7C177.833 16.9667 177.767 17.2333 177.7 17.5C177.8 17.3 180 13.9 180.1 13.7C180.1 13.9 180.8 15.2 181.1 14C180.9 14 180.7 13.9667 180.5 13.9C180.9 13.4333 181.367 13.1 181.9 12.9C181.9 13.5 182.2 13.8 182.7 13.6C183.8 10.6 192.1 5.20001 195.9 3.60001C202.9 2.10001 201.5 7.8 200.9 11.6ZM189.1 18.4C189.1 18.3333 189.1 18.3 189.1 18.3C189.1 17.7667 189.333 17.3333 189.8 17C189.6 17.4667 189.367 17.9333 189.1 18.4ZM189 17.6C189 17.5333 189 17.4667 189 17.4C189.4 17.1 189.7 16.8 189.7 16.5C189.833 16.3 189.967 16.0667 190.1 15.8C190.167 15.8667 190.2 15.9 190.2 15.9C190.067 16.2333 189.933 16.6 189.8 17C189.7 17 189.4 17.3 189 17.6ZM174.7 17.9C174.7 17.9667 174.733 18.0333 174.8 18.1C174.8 18.0333 174.767 17.9667 174.7 17.9ZM173.2 19.2C173.4 18.7 172.2 17.6 174.1 17.6C174 17.7 173.6 18.5 173.2 19.2ZM173.3 20.7C173.2 20.5 173 20.4 172.6 20.6C172.8 20.6 173.033 20.6333 173.3 20.7ZM161.5 30.3C161.567 30.3 161.567 30.3 161.5 30.3ZM171.8 25.5C171.8 25.5 171.833 25.5 171.9 25.5C172 25.2 172.1 25 171.8 25.5ZM189.7 16.3C189.633 16.3667 189.633 16.3333 189.7 16.2C189.7 16.2667 189.7 16.3 189.7 16.3ZM189.8 16.2C189.733 16.2 189.7 16.2333 189.7 16.3C189.7 16.3 189.733 16.2667 189.8 16.2ZM189.7 16.3C189.7 16.3667 189.7 16.4333 189.7 16.5C189.633 16.5667 189.567 16.6667 189.5 16.8C189.567 16.6667 189.633 16.5 189.7 16.3ZM187 20.6C186.933 20.6 186.933 20.6 187 20.6ZM190.6 16.4C190.467 16.6667 190.3 16.9333 190.1 17.2C190.233 16.9333 190.4 16.6667 190.6 16.4ZM189.6 17.6C189.533 17.6667 189.5 17.7333 189.5 17.8C189.433 17.8 189.4 17.8333 189.4 17.9C189.467 17.7667 189.533 17.6667 189.6 17.6C189.533 17.6667 189.5 17.7333 189.5 17.8C189.3 17.9 189.4 17.8 189.6 17.6ZM190.4 16.6C190.4 16.5333 190.433 16.4667 190.5 16.4C190.767 15.9333 191.033 15.5 191.3 15.1C191.3 15.1 191.333 15.0667 191.4 15C190.7 16.1 191 15.7 191.2 15.5C190.5 16.4 190 17.2 189.5 17.9C189.7 17.6 190 17.1 190.4 16.5C190.4 16.5667 190.4 16.6 190.4 16.6ZM190 17.4C190.1 17.3 190.2 17.2 190.3 17.1C190.233 17.1667 190.133 17.2667 190 17.4ZM194.3 16.2C194.2 16.3 194.1 16.3 194.1 16.2C194.167 16.2 194.233 16.2 194.3 16.2ZM193.1 16.8C193.167 16.8 193.2 16.8 193.2 16.8C193.133 16.8 193.1 16.8 193.1 16.8ZM189.5 18.6C189.5 18.6 189.433 18.6333 189.3 18.7C189.367 18.6333 189.433 18.6 189.5 18.6ZM189.5 18.6C189.5 18.6667 189.5 18.7 189.5 18.7C189.5 18.6333 189.5 18.6 189.5 18.6ZM188.8 23.1C188.9 23.5 189.1 23.8 189.2 24.2C189.7 23.7 189 23.5 188.8 23.1ZM190.9 35.9C190.9 35.6 190.6 35.5 190.8 35.2C190.867 35.2667 190.933 35.2333 191 35.1C191 35.1 190.9 35.4 190.9 35.9ZM193.5 26.3C193.567 26.3 193.633 26.3 193.7 26.3C193.4 26.2 193.2 26.2 193.5 26.3ZM189.5 18.7C189.8 18.6 190.1 18.5 190.4 18.5C190.133 18.6333 189.833 18.7 189.5 18.7ZM190.9 16.9C190.5 17.2333 190.1 17.6 189.7 18C189.7 18 189.7 18.0333 189.7 18.1C190.1 17.7 190.5 17.3 190.9 16.9ZM188.7 23C188.7 23 188.733 23.0333 188.8 23.1C188.8 23.0333 188.767 23 188.7 23ZM190.8 36.1C190.8 36.0333 190.833 35.9667 190.9 35.9C190.9 35.9667 190.867 36.0333 190.8 36.1ZM163.2 25.5H163.1C163.1 25.8 163.1 25.7 163.2 25.5ZM166.5 23.9C166.6 24 168.1 24.1 168 23.6C167.5 22.9 167.6 23.9 166.5 23.9ZM189.2 18.3C189.2 18.2 189.3 18 189.4 17.9C189.333 18.0333 189.267 18.1667 189.2 18.3ZM192 15.6C191.9 15.7 191.8 15.8 192.6 15.2C193.1 14.8 192.3 15.2 192 15.6ZM193.8 14.7C194.2 14.2 194.8 13.6 195.2 13.3C194.733 13.7667 194.267 14.2333 193.8 14.7ZM192.1 15.4C192.167 15.3333 192.2 15.2667 192.2 15.2C192.133 15.2667 192.1 15.3333 192.1 15.4ZM192.2 15.2C192.267 15.1333 192.333 15.0667 192.4 15C192.333 15 192.267 15.0333 192.2 15.1C192.2 15.1 192.2 15.1333 192.2 15.2ZM193 14.3C193.5 13.7 194 13 194.6 12.4C194.4 12.6 194.2 12.7 194.3 12.4C194.1 12.7 193.3 13.4 192.7 14C192.4 14.9 191.7 15.5 193 14.2C193 14.2 193 14.2333 193 14.3ZM192.7 14C192.5 14.2 192.3 14.4333 192.1 14.7C192.233 14.5 192.433 14.2667 192.7 14ZM193 14.3C192.8 14.5667 192.6 14.8 192.4 15C192.733 14.8 192.933 14.5667 193 14.3Z" fill="#100F12"/>
<path d="M151.4 30C150.7 29.8 150.5 28.2 150.2 30.6C150.533 30.2667 150.933 30.0667 151.4 30Z" fill="#100F12"/>
<path d="M157.8 32.5L157.2 32.4C157.1 32.6 157.8 32.9 157.8 32.5Z" fill="#100F12"/>
<path d="M159.5 31.7C159.4 31.9 158.9 31.6 159 32.1C159 31.6 159.5 32.2 159.5 31.7Z" fill="#100F12"/>
<path d="M157.1 27.3C156.9 26.9 156.8 27.4 156.5 27.4C156.7 27.3 157.2 27.7 157.1 27.3Z" fill="#100F12"/>
<path d="M160.2 30.5C160.6 30.5 160.933 30.7 161.2 31.1C161.333 30.6333 161.233 30.2333 160.9 29.9C161 30.1 160.6 30 160.2 30.5Z" fill="#100F12"/>
<path d="M162.6 30.4C162.4 30.5 161.7 30.5 161.7 31.3C162.033 30.9667 162.333 30.6667 162.6 30.4Z" fill="#100F12"/>
<path d="M159.9 26.5C159.9 26.1 160.5 26 159.7 25.5C159.567 25.9 159.633 26.2333 159.9 26.5Z" fill="#100F12"/>
<path d="M160.7 26.8C160.767 26.4 160.833 26.0333 160.9 25.7C160.8 26.1 160.7 26.4 160.7 26.8Z" fill="#100F12"/>
<path d="M169.3 27.1C169.3 27.4 169.9 27.5 169.5 27.4C169.5 27.1 169 26.9 169.3 27.1Z" fill="#100F12"/>
<path d="M166 23.4C166.2 23.5 166.6 22.9 166.8 22.6C166.6 22.9 165.8 23.1 166 23.4Z" fill="#100F12"/>
<path d="M178.1 15.4C178.1 15.6 177.9 15.6 178 15.8C178.1 15.9 178.2 15.5 178.1 15.4Z" fill="#100F12"/>
<path d="M190.2 16.8C190.1 16.8 189.8 17.3 189.7 17.6C189.5 17.9 189.7 17.6 190.2 16.8Z" fill="#100F12"/>
<path d="M189.5 17.9C189.6 17.9 189.6 17.8 189.7 17.7C189.633 17.7667 189.567 17.8333 189.5 17.9Z" fill="#100F12"/>
<path d="M190.3 17.3L189.7 18C189.8 17.8 189.9 17.8 190.3 17.3Z" fill="#100F12"/>
<path d="M189.7 18C189.633 18 189.567 18.0333 189.5 18.1L189.7 18Z" fill="#100F12"/>
<path d="M190.4 17.4C190 17.7333 189.633 18.0667 189.3 18.4C189.7 18.1 190 17.7 190.4 17.4Z" fill="#100F12"/>
<path d="M195.4 13.8C195.1 14.2 195 14.2 194.9 14.5C195.8 13.8 195 14.2 195.4 13.8Z" fill="#100F12"/>
<path d="M189.7 18.4C189 18.9 191.2 17.8 191.4 17.7C190.9 17.3 190.3 18 189.5 18.4C189.8 18.3 191.3 17.4 189.7 18.4Z" fill="#100F12"/>
<path d="M193.6 15.7C193.267 15.8333 193 16.0333 192.8 16.3C192.8 16.3 194.5 15.4 193.6 15.7Z" fill="#100F12"/>
<path d="M195.1 25.8C195 25.8 195 25.7 195.3 26.2C196 25.1 195.3 25.6 195.1 25.8Z" fill="#100F12"/>
<path d="M191.4 33.3C191.6 34.5 191.6 34.4 191.8 34.9C192.1 34.2 191.7 34.2 191.4 33.3Z" fill="#100F12"/>
<path d="M184.8 55.8C184.6 55.8 184.4 55.9 184.3 55.9C184.5 56.2 184.7 55.9 184.8 55.8Z" fill="#100F12"/>
</g>
<defs>
<clipPath id="clip0_27_34930">
<rect width="132" height="201" fill="white" transform="translate(0.5 132.5) rotate(-90)"/>
</clipPath>
</defs>
</svg>
