<svg width="164" height="179" viewBox="0 0 164 179" fill="none" xmlns="http://www.w3.org/2000/svg">
<g clip-path="url(#clip0_27_34828)">
<path d="M54.0001 8.59985L54.7001 9.39985C55.6001 9.49985 54.6001 9.09985 54.0001 8.59985Z" fill="#100F12"/>
<path d="M54.0001 8.59985C53.8001 8.39985 53.6001 8.19985 53.4001 7.99985C53.5334 8.19985 53.7334 8.39985 54.0001 8.59985Z" fill="#100F12"/>
<path d="M52.4001 6.39985C51.2001 5.09985 48.7001 3.99985 48.0001 4.49985C49.8001 4.69985 51.2001 6.29985 52.4001 6.39985Z" fill="#100F12"/>
<path d="M48.9001 5.49985C49.6001 5.69985 49.8001 5.99985 50.4001 5.69985C49.9334 5.63319 49.4334 5.56652 48.9001 5.49985Z" fill="#100F12"/>
<path d="M50.8001 6.69985C50.4668 5.89985 49.7334 5.56652 48.6001 5.69985C49.3334 6.03319 50.0668 6.36652 50.8001 6.69985Z" fill="#100F12"/>
<path d="M42.7001 2.59985C42.8001 2.59985 45.0001 2.79985 44.8001 3.29985C44.5334 3.36652 44.2668 3.43319 44.0001 3.49985C44.1001 3.49985 47.3001 3.89985 47.5001 3.99985C47.4001 2.39985 42.9001 2.59985 42.7001 2.59985Z" fill="#100F12"/>
<path d="M21.0001 69.9999C21.0668 70.0665 21.1334 70.1332 21.2001 70.1999C21.1001 70.0999 21.1001 69.9999 21.0001 69.9999Z" fill="#100F12"/>
<path d="M10.1001 56.8999C10.1001 57.0999 10.2001 57.3999 10.5001 57.8999C10.3668 57.4999 10.2334 57.1665 10.1001 56.8999Z" fill="#100F12"/>
<path d="M72.5001 88.1999C71.9001 88.0999 71.5001 88.0999 71.4001 88.1999C71.8001 88.1999 72.1668 88.1999 72.5001 88.1999Z" fill="#100F12"/>
<path d="M35.7001 78.6999C36.0334 78.8999 36.3001 79.0665 36.5001 79.1999C36.2334 78.9999 35.9668 78.8332 35.7001 78.6999Z" fill="#100F12"/>
<path d="M17.8001 6.99985C17.4001 7.19985 17.0668 7.43319 16.8001 7.69985C17.1001 7.59985 17.5001 7.39985 17.8001 6.99985Z" fill="#100F12"/>
<path d="M10.3001 13.5999C10.3001 13.5332 10.3001 13.4999 10.3001 13.4999C10.1668 13.4999 10.1668 13.5332 10.3001 13.5999Z" fill="#100F12"/>
<path d="M6.5001 18.7999C6.5001 18.7999 6.5001 18.7665 6.5001 18.6999C6.43343 18.7665 6.43343 18.7999 6.5001 18.7999Z" fill="#100F12"/>
<path d="M16.8001 7.69985C15.8001 7.99985 15.0001 7.79985 15.2001 8.79985C14.5334 9.26652 13.9668 9.79985 13.5001 10.3999C14.8001 10.5999 16.2001 8.49985 16.8001 7.69985Z" fill="#100F12"/>
<path d="M20.8001 70.0998C20.9001 69.8998 20.4001 69.4998 20.8001 70.0998Z" fill="#100F12"/>
<path d="M15.1001 64.5998C15.2334 64.7998 15.4001 64.9999 15.6001 65.1999C15.4001 64.9999 15.3001 64.7998 15.1001 64.5998Z" fill="#100F12"/>
<path d="M5.8001 36.6999C5.8001 36.7665 5.76676 36.8332 5.70009 36.8999C5.80009 36.8999 5.8001 36.7999 5.8001 36.6999Z" fill="#100F12"/>
<path d="M15.6001 65.1999C15.7001 65.3999 15.8001 65.5999 16.0001 65.7999C15.8668 65.5999 15.7334 65.3999 15.6001 65.1999Z" fill="#100F12"/>
<path d="M109.8 164.7C108.867 164.3 108.2 164.4 107.8 165C108.2 165.1 110.4 164.6 109 165.2C112 164.7 110.3 164.9 109.6 164.3C108.5 164.7 110.1 164.6 109.8 164.7Z" fill="#100F12"/>
<path d="M48.9001 81.3999C47.7001 81.5999 49.2001 82.2999 49.0001 83.4999C49.8001 80.7999 48.9001 83.8999 48.9001 81.3999Z" fill="#100F12"/>
<path d="M49.6001 82.3999C49.9001 82.0999 49.7001 82.1999 50.1001 81.6999C49.9668 81.9665 49.8001 82.1999 49.6001 82.3999Z" fill="#100F12"/>
<path d="M87.7001 163.7C87.4334 163.567 87.2001 163.467 87.0001 163.4C87.3001 163.6 87.5001 163.7 87.7001 163.7Z" fill="#100F12"/>
<path d="M68.8001 95.2999C68.4668 95.2999 68.1668 95.3332 67.9001 95.3999C68.4001 95.3999 68.6001 95.3999 68.8001 95.2999Z" fill="#100F12"/>
<path d="M57.9001 68.8999C58.2334 68.6999 58.5334 68.4332 58.8001 68.0999C58.4668 68.3665 58.1668 68.6332 57.9001 68.8999Z" fill="#100F12"/>
<path d="M50.1001 115.3C49.5001 115 50.3001 117.2 50.6001 117.5C50.4001 116.767 50.2334 116.033 50.1001 115.3Z" fill="#100F12"/>
<path d="M54.7001 74.1999C54.0001 74.7999 52.4001 76.4999 52.5001 77.2999C53.2334 76.2332 53.9668 75.1999 54.7001 74.1999Z" fill="#100F12"/>
<path d="M6.0001 41.6999V42.1999C6.0001 42.0665 6.0001 41.8999 6.0001 41.6999Z" fill="#100F12"/>
<path d="M65.9001 60.3999C65.9001 60.4665 65.9334 60.4999 66.0001 60.4999C66.0001 60.4999 65.9668 60.4665 65.9001 60.3999Z" fill="#100F12"/>
<path d="M137.9 150.3C137.9 150.367 137.9 150.433 137.9 150.5C137.967 150.433 137.967 150.367 137.9 150.3Z" fill="#100F12"/>
<path d="M37.1001 3.79985C37.7668 3.93319 38.4001 4.09985 39.0001 4.29985C38.8001 4.29985 38.6001 4.29985 38.4001 4.29985C39.9001 4.79985 40.9001 4.79985 42.3001 3.89985C40.5001 3.99985 38.8001 3.69985 37.1001 3.79985Z" fill="#100F12"/>
<path d="M36.8001 0.999853C37.2668 1.06652 37.7334 1.13319 38.2001 1.19985C37.6001 0.599854 37.1334 0.533187 36.8001 0.999853Z" fill="#100F12"/>
<path d="M13.8001 8.09985C14.4001 7.69985 15.0001 7.33319 15.6001 6.99985C16.1001 6.39985 13.8001 7.49985 13.8001 8.09985Z" fill="#100F12"/>
<path d="M22.5001 7.99985C23.2001 7.49985 23.8001 7.59985 24.5001 6.89985C23.6334 6.96652 22.9668 7.33319 22.5001 7.99985Z" fill="#100F12"/>
<path d="M9.6001 11.8999C9.13343 12.6332 8.66676 13.3665 8.20009 14.0999C8.10009 14.1999 9.9001 12.2999 9.6001 11.8999Z" fill="#100F12"/>
<path d="M14.3001 14.4999C15.1001 14.0999 15.8001 13.5332 16.4001 12.7999C15.6001 13.1999 14.9001 13.7665 14.3001 14.4999Z" fill="#100F12"/>
<path d="M5.0001 22.0999C4.5001 21.6999 6.2001 18.6999 5.5001 21.2999C5.7001 20.2999 6.00009 19.3332 6.40009 18.3999C6.60009 18.1999 4.2001 20.9999 4.2001 20.7999C4.2001 21.1999 4.1001 23.1999 5.0001 22.0999Z" fill="#100F12"/>
<path d="M12.9001 15.8999C13.8001 16.1999 11.5001 14.7999 12.6001 15.5999C13.0668 15.7999 13.0334 16.1332 12.5001 16.5999C13.3001 16.0665 14.0334 15.4999 14.7001 14.8999C13.9668 14.8999 13.3668 15.2332 12.9001 15.8999Z" fill="#100F12"/>
<path d="M3.10011 22.4999C2.60011 23.8999 2.0001 25.7999 2.2001 27.3999C2.7001 26.0999 3.50011 23.8999 3.10011 22.4999Z" fill="#100F12"/>
<path d="M9.5001 19.8999C9.76676 19.5665 10.0001 19.2332 10.2001 18.8999C9.60009 19.8999 9.60009 18.8999 9.20009 19.9999C9.33343 20.1332 9.50009 20.2665 9.70009 20.3999C10.8001 18.6999 9.4001 20.5999 9.5001 19.8999Z" fill="#100F12"/>
<path d="M8.0001 24.2999C7.86677 24.8332 7.76677 25.3999 7.7001 25.9999C7.9001 25.7999 9.4001 24.4999 8.9001 23.9999C8.56676 24.1999 8.26677 24.2999 8.0001 24.2999Z" fill="#100F12"/>
<path d="M6.8001 27.6999C6.86677 28.0999 6.90009 28.5332 6.90009 28.9999C6.90009 28.0665 6.90009 27.0999 6.90009 26.0999C6.60009 26.5999 6.8001 27.0999 6.8001 27.6999Z" fill="#100F12"/>
<path d="M6.5001 58.9999C6.9001 59.0999 6.5001 57.4999 6.5001 58.1999C6.1001 58.0999 6.8001 60.1999 6.5001 58.9999Z" fill="#100F12"/>
<path d="M10.5001 54.6999C9.8001 53.6999 8.9001 50.6999 8.6001 50.9999C8.7001 51.6999 9.9001 53.8999 10.5001 54.6999Z" fill="#100F12"/>
<path d="M40.7001 81.2999C41.8334 81.6999 43.0001 81.9665 44.2001 82.0999C43.3001 81.8999 41.6001 80.9999 40.7001 81.2999Z" fill="#100F12"/>
<path d="M92.8001 59.0999C94.0001 59.7999 93.5001 59.1999 94.4001 59.6999C93.5001 58.7999 92.8001 58.5999 92.8001 59.0999Z" fill="#100F12"/>
<path d="M91.4001 58.0999C91.2001 57.8999 91.0001 57.6999 90.8001 57.4999C91.0001 57.6999 91.8001 58.3999 91.4001 58.0999Z" fill="#100F12"/>
<path d="M83.5001 55.1999C83.5001 55.1999 83.8001 55.0999 84.0001 55.0999C83.5001 55.0999 83.1001 55.0999 83.5001 55.1999Z" fill="#100F12"/>
<path d="M82.5001 55.5999C84.0001 55.4999 80.6001 55.2999 82.3001 54.6999C81.8334 54.7665 81.3668 54.8665 80.9001 54.9999C81.4334 55.1999 81.9668 55.3999 82.5001 55.5999Z" fill="#100F12"/>
<path d="M75.4001 55.6999C71.3001 55.9999 70.7001 58.4999 68.2001 59.8999C70.3001 58.9999 71.3001 57.1999 73.6001 56.6999C71.8001 56.7999 75.0001 55.8999 75.4001 55.6999Z" fill="#100F12"/>
<path d="M76.3001 56.7999C76.5001 56.3999 74.6001 56.6999 74.1001 57.0999C74.7001 56.9999 75.7001 57.2999 76.3001 56.7999Z" fill="#100F12"/>
<path d="M66.3001 59.4999C66.7668 59.2332 67.2668 58.9999 67.8001 58.7999C67.0001 58.6665 66.5001 58.8999 66.3001 59.4999Z" fill="#100F12"/>
<path d="M63.6001 61.0999L64.4001 60.0999C64.1001 60.3999 62.6001 61.3999 63.6001 61.0999Z" fill="#100F12"/>
<path d="M58.2001 64.7999C57.6001 65.1999 57.0001 67.1999 58.8001 65.0999C58.4001 65.3999 57.2001 65.8999 58.2001 64.7999Z" fill="#100F12"/>
<path d="M50.8001 75.9999C50.4668 76.5999 50.1668 77.1999 49.9001 77.7999C50.3001 77.4999 50.9001 75.8999 50.8001 75.9999Z" fill="#100F12"/>
<path d="M53.3001 77.2999C53.5001 76.8999 53.7001 76.4999 53.9001 76.0999C53.3001 76.7665 52.8334 77.4999 52.5001 78.2999C52.7668 77.9665 53.0334 77.6332 53.3001 77.2999Z" fill="#100F12"/>
<path d="M48.4001 79.0999C48.5001 78.4999 49.0001 77.7999 49.3001 77.2999C48.9001 77.3999 48.3001 78.6999 48.4001 79.0999Z" fill="#100F12"/>
<path d="M49.9001 81.1999C50.7001 81.1999 50.8001 79.1999 51.0001 78.8999C50.0001 79.5999 50.2001 79.9999 49.9001 81.1999Z" fill="#100F12"/>
<path d="M43.6001 96.1999C43.6668 95.5999 43.7001 94.9999 43.7001 94.3999C43.0001 99.1999 43.4001 97.1999 43.6001 96.1999Z" fill="#100F12"/>
<path d="M43.2001 95.9999C43.1001 96.2999 42.9001 97.3999 43.1001 98.0999C43.1001 97.3665 43.1334 96.6665 43.2001 95.9999Z" fill="#100F12"/>
<path d="M42.6001 96.7999C42.6001 97.3999 42.5668 98.0332 42.5001 98.6999C42.6001 98.0999 42.6001 97.4999 42.6001 96.7999Z" fill="#100F12"/>
<path d="M42.2001 101.8C42.3334 102.6 42.2334 103.367 41.9001 104.1C42.2001 103.7 42.5001 101.7 42.2001 101.8Z" fill="#100F12"/>
<path d="M51.5001 120.1C51.3001 119.8 50.8001 120.1 51.4001 120.6C51.8668 121 51.9001 120.833 51.5001 120.1Z" fill="#100F12"/>
<path d="M52.6001 124.4C52.2001 123.1 51.4001 122 51.0001 120.8C51.0001 120.6 51.8001 124.3 51.5001 123C51.9001 123.467 52.2668 123.933 52.6001 124.4Z" fill="#100F12"/>
<path d="M75.5001 152.4C75.3001 152.1 76.6001 152.3 76.1001 152.1C74.2001 151.3 73.0001 150.7 70.8001 149.8C72.4001 150.6 73.9001 151.5 75.5001 152.4Z" fill="#100F12"/>
<path d="M96.9001 140L96.7001 139.8C96.4001 140.2 96.7001 140 96.9001 140Z" fill="#100F12"/>
<path d="M96.9001 140L97.2001 140.1C97.1334 139.967 97.0334 139.933 96.9001 140Z" fill="#100F12"/>
<path d="M97.5001 140.9C98.0001 141.3 98.8001 141.3 99.0001 140.6C98.4001 140.9 98.0001 140.3 97.5001 140.9Z" fill="#100F12"/>
<path d="M100.2 140.2C99.9334 140.533 99.5668 140.767 99.1001 140.9C99.1001 142.1 100.5 141.1 100.6 141.1C99.6001 141.3 100.5 140.6 100.2 140.2Z" fill="#100F12"/>
<path d="M128.5 134.1C128.5 134.1 128.533 134.1 128.6 134.1C128.5 134.1 128.5 134 128.5 134.1Z" fill="#100F12"/>
<path d="M124.3 136.8C124.167 136.8 124.033 136.767 123.9 136.7C124.033 136.833 124.167 136.867 124.3 136.8Z" fill="#100F12"/>
<path d="M142.1 125.3C142.233 125.233 142.333 125.167 142.4 125.1C142.2 125.167 142.1 125.233 142.1 125.3Z" fill="#100F12"/>
<path d="M108.1 142.3C108.3 142.3 108.4 142.3 108.5 142.2C108.4 142.1 108.3 142.1 108.1 142.3Z" fill="#100F12"/>
<path d="M108.5 142.2C109.1 142.9 108.8 142.2 109.7 142.1C109.5 141.3 108.8 142 108.5 142.2Z" fill="#100F12"/>
<path d="M128.5 134.3C128.3 134.3 128.4 134.1 128.5 134.3Z" fill="#100F12"/>
<path d="M126.5 135.7C126.567 135.7 126.633 135.7 126.7 135.7C126.6 135.7 126.6 135.7 126.5 135.7Z" fill="#100F12"/>
<path d="M117.7 137.7C117.7 137.7 117.733 137.7 117.8 137.7C117.8 137.6 117.7 137.7 117.7 137.7Z" fill="#100F12"/>
<path d="M126.9 135.6C126.833 135.667 126.767 135.7 126.7 135.7C126.8 135.7 126.9 135.7 126.9 135.6Z" fill="#100F12"/>
<path d="M145.2 159.6C145.533 159.133 145.5 159 145.1 159.2C145.233 159.533 145.167 159.633 144.9 159.5C144.9 159.7 145.8 160 145.2 159.6Z" fill="#100F12"/>
<path d="M144.7 153C144.767 152.933 144.8 152.867 144.8 152.8C144.7 152.9 144.7 153 144.7 153Z" fill="#100F12"/>
<path d="M145.7 131.8C145.633 131.867 145.6 131.933 145.6 132C145.667 131.933 145.7 131.867 145.7 131.8Z" fill="#100F12"/>
<path fill-rule="evenodd" clip-rule="evenodd" d="M152 174.4C152.2 174 152.5 173.833 152.9 173.9C152.433 173.633 151.933 173.567 151.4 173.7C151 173.6 152.3 172.6 152.4 172.6C151.8 171.3 151.4 173.6 150.5 172.5C150.967 172.367 151.233 172.067 151.3 171.6C149.5 171.7 149.7 170.5 149.4 169.7C149.8 169.8 150 171.7 150.7 170.3C149.6 170.3 149.6 168.7 148.4 168.6C148.667 168.533 148.9 168.367 149.1 168.1C148.7 168 148.5 167.9 148.5 167.8C148.433 167.8 148.367 167.833 148.3 167.9C148.5 166.3 146.3 165.4 146.2 163.9C146.3 164 148.3 163.6 148.7 163.6C148.033 163.4 147.567 162.933 147.3 162.2C146.967 162.267 146.8 162.467 146.8 162.8C146.733 162.2 146.5 161.667 146.1 161.2C146.4 162 144.6 161 144.8 160.6C145.3 160.7 146.1 160.9 145.1 159.9C145.9 159.8 145.4 160.8 146.3 160.5C146.3 159.8 145 157.5 144.8 156.7C144.9 157.2 145.2 156.2 145.2 156.1C145.1 155.2 145 153.6 145 153.1C144.9 152.5 145 142.8 146.5 143.3C146.5 143.2 146.1 140.8 146.1 139.6C144.5 140.9 143.1 143.9 141.6 146C142.2 145.5 142.8 144.9 143 144.4C142.4 146.5 135.8 151.1 134.7 152.6C135.033 152.4 135.4 152.2 135.8 152C131.3 154.4 128.7 158.4 123.9 160.3C124.8 159.6 123.5 159.6 123.1 159.5C122.6 159.2 124.9 157.7 124.6 157.5C124.1 157.1 119.8 160.5 119 160.8C118.5 161.4 121.3 160.6 121.1 160.7C119.5 161.6 116.5 161.5 115.2 163C115.6 162.667 115.967 162.633 116.3 162.9C116.4 163.4 113.4 164.7 112.9 164.7C113.033 164.433 113.2 164.2 113.4 164C112.467 164.067 111.533 164.3 110.6 164.7C110.6 163.9 113.7 164.1 113.2 163.2C108.5 163.9 104.8 166.1 99.9001 165.4C100.033 165.4 100.133 165.333 100.2 165.2C98.3001 164.8 96.2001 164.7 94.3001 164.6C92.7001 164.5 91.1001 164.5 89.5001 164.2C89.0001 164 86.7001 163.4 88.5001 163.4C81.4001 161.9 75.8001 160 69.8001 156C70.0668 156.133 70.3334 156.167 70.6001 156.1C68.1001 154.1 65.1001 152.8 62.7001 150.7C62.1001 150.1 59.0001 146.9 58.8001 146.2C58.8668 146.4 58.9001 146.6 58.9001 146.8C58.8001 146.6 53.4001 140.7 52.4001 139.3C49.9001 135.6 47.6001 131.2 46.2001 127C46.4001 128.6 45.4001 125.9 45.2001 125.6C46.1001 126.5 45.5001 125 46.5001 126.7C46.0001 124.5 43.4001 122.8 44.4001 120.5C44.5334 121.167 44.7668 121.833 45.1001 122.5C44.8001 121.2 44.8001 119.6 44.2001 118.4C44.1001 118.3 43.8001 119.5 43.8001 119.5C43.1001 118.7 43.4001 115.5 43.3001 114.3C43.0001 112.4 42.2001 111.3 42.1001 109.3C42.4334 109.367 42.6668 109.533 42.8001 109.8C43.6001 110.3 42.1001 105.2 42.0001 105C43.0001 104.7 43.2001 106.3 43.2001 106.8C43.3001 106.5 43.8001 104 44.2001 105.8C43.5001 102.7 44.0001 99.4999 44.1001 96.4999C44.1001 94.8999 44.7001 91.8999 43.3001 91.9999C42.9668 90.9332 43.1668 90.1999 43.9001 89.7999C43.9668 90.1999 44.0334 90.5999 44.1001 90.9999C44.3001 91.3999 44.9001 89.6999 45.0001 89.5999C32.3001 85.8999 21.8001 79.2999 13.7001 68.7999C14.1001 69.2665 14.5334 69.6665 15.0001 69.9999C11.6001 66.0999 9.50009 64.8999 6.70009 60.4999C6.96676 60.4332 7.16676 60.5332 7.3001 60.7999C7.6001 60.8999 6.7001 59.1999 6.5001 58.9999C7.5001 60.1999 5.3001 56.9999 7.3001 59.2999C8.0001 58.7999 6.0001 55.8999 6.1001 56.4999C5.9001 55.1999 6.1001 56.2998 6.6001 56.0998C6.53343 55.1665 6.13342 54.6332 5.40009 54.4999C5.20009 54.6999 5.06676 54.8998 5.00009 55.0998C2.90009 46.3998 -0.699904 38.2999 1.8001 28.2999C1.9001 30.3999 0.900099 33.0999 1.6001 35.1999C1.6001 35.1332 1.6001 35.0665 1.6001 34.9999C1.7001 35.4999 1.80009 36.0999 1.90009 36.1999C2.70009 34.4999 1.5001 32.9999 2.3001 31.5999C2.1001 34.4999 2.9001 30.7999 3.1001 32.4999C3.1001 32.4999 4.00009 26.5999 2.50009 31.6999C1.80009 29.7999 3.20009 24.7999 3.90009 23.1999C4.03342 23.5332 4.13342 23.8665 4.20009 24.1999C5.60009 21.9999 6.60009 19.5999 8.20009 17.4999C7.73342 18.0332 7.16676 18.4332 6.5001 18.6999C6.7001 18.0999 7.1001 17.1999 7.3001 16.6999C7.3001 16.9665 7.26676 17.2332 7.20009 17.4999C7.50009 16.9999 9.10009 12.7999 8.90009 15.1999C11.3001 12.4999 9.80009 14.5999 12.0001 12.7999C11.7334 12.7332 11.4334 12.6332 11.1001 12.4999C12.3001 11.6999 18.8001 6.29985 19.5001 6.89985C20.5001 6.39985 15.9001 10.5999 17.5001 10.2999C18.1668 9.56652 18.8668 8.86652 19.6001 8.19985C17.8001 8.79985 21.6001 5.49985 22.4001 5.09985C24.3001 4.19985 24.3001 4.19985 26.3001 3.69985C25.4001 5.09985 28.6001 2.49985 28.1001 3.09985C28.6001 2.39985 33.2001 1.99985 34.1001 1.69985C33.7001 2.09985 28.8001 4.39985 28.0001 4.49985C30.8001 4.59985 34.0001 2.19985 36.2001 1.99985C36.5001 1.99985 40.1001 2.09985 39.2001 1.89985C39.0001 1.69985 42.1001 2.09985 42.4001 2.09985C41.6001 2.29985 41.6001 2.56652 42.4001 2.89985C41.0001 2.59985 40.5001 3.59985 39.1001 3.39985C39.6334 3.26652 40.1668 3.13319 40.7001 2.99985C41.2001 2.59985 37.3001 2.89985 36.3001 2.89985C36.6334 2.96652 36.9668 2.99985 37.3001 2.99985C37.5001 3.69985 35.6001 3.79985 35.3001 3.99985C33.7001 5.19985 34.9001 4.29985 34.9001 4.69985C34.1001 4.69985 33.3001 4.79985 32.5001 4.99985C34.6001 3.29985 29.4001 5.29985 29.0001 5.29985C29.2001 4.69985 30.8001 4.69985 31.2001 4.19985C31.3001 3.99985 29.1001 4.79985 28.9001 4.89985C26.6001 5.39985 25.8001 5.09985 23.7001 6.79985C26.9001 2.89985 21.7001 6.49985 21.3001 6.99985C21.7001 6.86652 22.0668 6.76652 22.4001 6.69985C23.4001 6.19985 19.0001 8.39985 20.1001 8.59985C20.7001 8.53319 21.2334 8.39985 21.7001 8.19985C20.5001 8.79985 18.1001 10.9999 17.3001 10.3999C17.2001 10.4999 14.4001 12.6999 15.1001 12.8999C15.4334 12.4999 15.8334 12.1999 16.3001 11.9999C16.5001 11.9999 15.4001 13.1999 15.2001 13.4999C15.4001 12.7999 11.7001 15.6999 11.5001 15.7999C12.6001 14.8999 8.90009 17.8999 9.50009 16.9999C8.20009 18.6999 9.30009 19.4999 8.50009 21.5999C7.50009 19.5999 7.60009 23.0999 7.50009 23.4999C7.70009 23.1999 9.40009 21.4999 9.50009 22.0999C10.0001 23.8999 4.60009 26.1999 5.90009 30.0999C6.10009 29.6332 6.4001 29.4332 6.8001 29.4999C4.4001 34.2999 5.90009 40.4999 6.20009 45.3999C6.40009 45.7999 7.1001 48.7999 7.1001 48.7999C7.03343 48.9999 6.96675 49.0998 6.90009 49.0998C7.00009 49.4998 7.10009 49.7999 6.90009 49.1999C7.00009 49.9999 7.80009 50.9999 8.20009 52.1999C8.13342 51.8665 8.1001 51.5332 8.1001 51.1999C9.6001 54.6999 11.3001 56.9999 13.5001 59.8999C13.0001 60.5999 14.2001 63.1998 15.1001 64.5998C16.8001 66.1998 19.5001 68.7999 21.2001 70.2999C22.3001 71.1999 24.1001 74.4999 24.8001 74.6999C25.3334 75.3665 26.0001 75.7999 26.8001 75.9999C25.8001 74.9999 25.0001 73.7999 24.0001 72.7999C25.3001 73.6999 26.8001 74.0999 28.1001 74.8999C28.1001 74.6999 28.0001 74.5332 27.8001 74.3999C30.6001 76.0999 32.4001 76.5999 35.7001 78.6999C34.4001 77.9999 32.1001 77.9999 31.2001 77.5999C30.1001 77.0999 28.1001 75.0999 27.0001 74.9999C27.6001 75.7999 26.4001 75.1999 26.6001 75.4999C26.8001 75.9999 30.0001 78.6999 30.6001 78.9999C29.7001 78.1999 32.4001 79.1999 30.4001 78.0999C32.6001 78.9999 34.6001 80.0999 36.8001 80.8999C34.8001 80.0999 36.7001 80.6999 37.1001 80.1999C37.0001 80.2999 33.0001 78.4999 35.7001 80.0999C29.6001 77.5999 36.4001 80.3999 34.3001 78.5999C36.7001 79.3999 40.5001 80.7999 42.3001 82.4999C41.8334 82.4332 41.3668 82.3665 40.9001 82.2999C43.4001 83.3999 44.1001 84.7999 46.0001 83.1999C47.4001 81.9999 46.8001 80.9999 47.7001 79.3999C48.2001 81.9999 45.1001 85.3999 48.9001 83.7999C48.1001 86.8999 49.7001 82.6999 50.1001 81.9999C50.4001 81.1999 51.2001 78.5999 52.2001 77.7999C51.8001 78.3999 51.6001 79.0999 51.3001 79.7999C52.3001 80.0999 54.3001 76.5999 54.8001 75.7999C55.2001 75.0999 56.2001 72.4999 54.9001 74.6999C54.7001 74.2999 56.4001 72.6999 55.9001 72.4999C54.6001 73.2999 55.3001 72.1999 53.9001 73.7999C53.1001 74.6999 52.4001 77.0999 51.4001 78.1999C50.7001 77.3999 53.1001 75.0999 53.4001 73.7999C52.0001 75.9999 53.1001 73.2999 52.4001 74.2999C53.3001 72.8999 53.2001 71.4999 54.3001 70.0999C53.6001 73.0999 56.1001 67.6999 56.8001 66.8999C58.0001 65.3999 60.3001 63.2999 61.8001 61.9999C61.9001 62.8999 60.2001 64.3999 59.8001 64.8999C60.1334 64.5665 60.1668 64.5665 59.9001 64.8999C60.1001 64.8332 60.2668 64.7332 60.4001 64.5999C58.8001 66.8999 57.4001 70.1999 55.3001 71.4999C56.1001 73.9999 57.3001 70.0999 57.5001 69.7999C59.1001 68.0999 60.4001 66.1999 62.1001 64.5999C61.9668 64.5332 61.8001 64.4999 61.6001 64.4999C63.4001 62.4999 65.5001 61.3999 67.4001 59.9999C67.1334 60.2665 66.8668 60.5665 66.6001 60.8999C71.5001 61.3999 76.1001 55.1999 81.5001 55.7999C81.8001 55.9999 80.2001 56.4999 79.9001 56.5999C80.5001 56.3999 86.1001 56.6999 87.0001 56.5999C85.3001 55.8999 88.4001 56.3999 88.7001 56.4999C88.1001 56.4332 87.4668 56.3665 86.8001 56.2999C87.6001 56.5999 90.8001 57.4999 89.0001 57.7999C91.8001 59.3999 94.5001 60.3999 97.2001 62.2999C97.5334 62.6332 97.9001 62.8665 98.3001 62.9999C98.2334 62.8665 98.2668 62.6999 98.4001 62.4999C98.4001 62.6999 100.1 65.3999 99.5001 65.5999C99.7001 65.8999 97.6001 63.1999 97.5001 63.7999C99.0001 65.4999 99.3001 70.5999 100.7 65.8999C101.9 66.7999 100.6 68.9999 101.2 70.1999C100.2 68.2999 101.8 72.2999 102 73.1999C102.6 74.9999 103 76.6999 102.8 78.5999C102.667 78.3332 102.567 78.0665 102.5 77.7999C102.5 78.4999 102.2 80.5999 102 81.3999C102.067 81.1999 102.167 80.9999 102.3 80.7999C102.4 80.6999 100.5 85.3999 100.5 85.1999C98.7001 88.2999 95.9001 90.5999 92.7001 92.1999C89.0001 94.0999 84.3001 95.5999 80.1001 95.5999C78.8001 95.5999 74.3001 95.8999 76.1001 95.4999C73.4001 96.0999 71.4001 95.0999 68.8001 95.2999C68.9001 95.2999 72.2001 94.4999 72.0001 94.2999C70.6001 93.1999 65.2001 94.5999 63.4001 94.4999C61.6001 94.3999 58.5001 94.2999 56.9001 93.2999C57.1001 93.2999 57.3001 93.2665 57.5001 93.1999C57.0001 92.9999 55.3001 93.5999 55.0001 92.8999C55.1334 92.5665 55.4001 92.3999 55.8001 92.3999C51.0001 91.4999 51.4001 93.1999 50.6001 97.6999C50.3001 99.5999 50.5001 100.8 50.3001 102.6C49.9001 105.2 49.5001 107.8 49.4001 110.3C49.3001 111.5 50.1001 112.2 49.9001 113.1C48.0001 110.6 50.2001 117.1 50.4001 118.7C50.2668 118.5 50.1334 118.3 50.0001 118.1C50.0001 119.633 50.4001 121.033 51.2001 122.3C50.9334 121.967 50.6001 121.767 50.2001 121.7C49.5001 122.3 52.0001 125.7 51.9001 127C52.0334 126.4 52.2334 125.867 52.5001 125.4C52.8001 126.9 54.1001 126.8 54.5001 128.2C54.3001 128.2 54.1001 128.2 53.9001 128.2C55.0001 130.9 57.2001 135.7 59.6001 137.8C61.3001 138.5 65.9001 144.2 68.2001 146.5C69.4001 147.7 71.2001 148.4 72.5001 149.9C71.7001 149.8 70.3001 148.4 69.5001 148.7C71.6001 150.5 73.8001 151.7 76.2001 153.2C77.2001 153.8 79.4001 154.4 78.4001 154.6C79.3334 155.067 80.3001 155.233 81.3001 155.1C79.8001 154.4 78.3001 154.3 77.1001 153.3C81.3001 155.3 88.9001 157.2 94.8001 158.4C99.1001 159.3 103.1 159.2 107.5 158.5C109.2 158.2 115.2 157.6 115.3 157C118.4 155.4 121.4 154.6 124.4 153C126.3 151.9 130.1 148 132 147.9C131.933 147.9 131.9 147.933 131.9 148C133 147.2 134.8 146.4 135.5 145.9C135.3 146.1 139.4 142.6 138.1 144.2C141.8 139.8 145.3 134.9 148.4 129.9C148.1 129.6 147.2 130.2 147 130.2C147.067 130.6 147.2 130.667 147.4 130.4C147 131.6 146.1 130.9 145.7 131.8C145.7 131.2 146.2 131 145.8 130.3C146.3 131.1 142.3 133.6 142.4 133.9C141.933 133.833 141.733 133.567 141.8 133.1C139.9 134.7 136.9 137.8 133.9 137.1C133.2 138.7 130.5 138.7 128.6 139C128.3 139.5 127.3 140.5 127.2 139.4C126.733 140 126.233 140.567 125.7 141.1C125.3 140.7 125.6 140.9 125.2 140.7C125.5 140.3 124.9 140.5 125.2 140.2C125 139.5 124.2 139.9 124.2 140.2C124.1 139.9 123.9 139.3 123.6 139.8C123.4 140.3 123.8 140.7 124.1 140.9C121.8 140 119.6 143.2 116.1 142.9C116.7 142.567 117.3 142.233 117.9 141.9C118.1 142.1 118.3 142.3 118.2 141.5C117.5 141.5 117.8 141.1 117.3 141.9C117.2 142.1 116.9 141.2 117 140.9C116.7 141.1 115.6 141.2 116.9 141.5C116.8 141.6 115 142.3 114.6 142.4C114.3 142.2 112.5 141.3 112.3 141.3C113.2 141.8 112.9 142.2 112.3 142.5C112.1 142.5 111.8 142.6 111.8 142.6C111.7 142.6 110.9 141.5 110.5 141.4C110.567 141.667 110.633 141.933 110.7 142.2C110.2 141.9 107.7 141.5 107.7 141.4C107.9 141.2 109.4 140.7 108.7 139.8C107.6 141.5 107.3 141.6 106 141.2C105.1 141.6 104.6 141.2 103.1 141.8C103.5 141.1 105.1 140.6 105.1 140.3C104.9 140.1 104.6 140 104.4 140.1C104.4 139.7 106 140.1 106.6 139.7C105.7 141 107.3 140.6 107.8 140.1C107.867 139.7 107.7 139.433 107.3 139.3C107.9 139.4 109.9 139.6 109.8 139.2C109.467 139.267 109.333 139.133 109.4 138.8C109.6 139 109.767 138.967 109.9 138.7C110 138.6 112 140.7 112.3 140.8C112.367 140.133 112.633 139.533 113.1 139C113.2 139.3 112.6 140.1 113.6 139.6C113.7 139.5 113.6 139.2 113.5 139C114 139.4 115.2 138.5 115.5 137.8C116.4 138.3 119.1 137.5 119.2 137.6C119.2 137.6 121.1 137.2 120.3 137.8C120.8 137.9 121.4 136.9 121.3 137.6C121.8 137.6 122 137.2 122.1 137C123.3 136.3 123.7 135.6 124.7 135C125.8 136.2 129.5 134.2 130.7 134C130.367 133.867 130.033 133.8 129.7 133.8C130 133.6 130.8 132.6 130.4 132.4C130.733 132.267 130.933 132.367 131 132.7C131.067 132.7 131.133 132.7 131.2 132.7C130.9 133.7 131.3 134.5 132.7 133.9C131.4 133.7 133.6 132.2 133.9 132C133.3 132.3 133.7 131.2 133.3 131.1C133.6 131.6 132.5 132.1 133.4 131.9C133.2 132.033 133 132.2 132.8 132.4C131.8 131 134.4 130.3 135 130.5C134.933 130.7 134.867 130.867 134.8 131C135.133 131 135.467 131.067 135.8 131.2C136.2 130.7 135.7 129.9 137.2 129.7C137.067 129.967 136.967 130.267 136.9 130.6C137.8 130.1 137.6 128.8 138.2 128.2C138.4 128 139.9 126.7 140 126.4C140 126.5 140.6 128.1 141.1 126.6C140.9 126.6 140.667 126.567 140.4 126.5C140.867 125.967 141.433 125.567 142.1 125.3C142.1 125.6 142.2 126.3 142.6 126.1C143.5 125.8 142.4 124.9 142.9 124.6C144.9 123.2 146.833 121.7 148.7 120.1C151.3 117.8 155.1 115.1 156.8 112.6C158 113.6 162.6 116.1 162.9 117.5C163.4 119.3 159.1 123 158 124.9C157.5 125.8 155.1 134.1 154.6 133.9C154.6 133.9 154.4 134 154 133.6C153.8 133.8 153.1 136.5 153.2 136.6C152.933 136.2 152.633 136.1 152.3 136.3C152.2 136.6 152.6 137.6 152 137.8C152.7 137.8 154.4 137.9 153.6 138.8C153.467 138.733 153.333 138.667 153.2 138.6C152.5 140.5 151.3 146 152.1 146.8C151.967 146.933 151.833 147.067 151.7 147.2C151.5 146.867 151.267 146.533 151 146.2C150.3 147.7 150.2 149.4 150.9 150.2C151 149.6 150.6 149.7 150.6 149.1C150.733 149.167 150.8 149.1 150.8 148.9C150.8 150 151.2 152.2 151.2 154.4C151.2 156.2 151.5 159.5 151.8 160.6C152 161.5 154.2 165.4 153.6 166C153.4 165.667 153.2 165.633 153 165.9C153.7 166.1 153.4 168.9 153.1 168.4C154.4 170.6 155.1 172.9 155.4 175.5C153.8 175.8 154.9 177.3 154.8 178.1C153.8 177.1 153 175.7 152 174.4ZM151.8 137.8C151.867 137.8 151.933 137.8 152 137.8C151.8 137.8 151.7 137.8 151.8 137.8ZM131.4 132C131.4 131.5 131.2 130.8 132.7 130.9C132.1 131.1 131.7 131.5 131.4 132ZM131.1 134.1C131.1 133.967 130.967 133.933 130.7 134C130.833 134 130.967 134.033 131.1 134.1ZM113.3 138.5C113.1 138.1 113 137.8 113.3 137.8C113.233 138.067 113.233 138.3 113.3 138.5ZM104.4 140.1C104.333 140.1 104.3 140.1 104.3 140.1C104.367 140.1 104.4 140.1 104.4 140.1ZM104.3 140.1C103.5 140.3 102.4 141.6 102.1 141.5C102.233 141.233 102.167 141.033 101.9 140.9C101.3 141.5 101.7 141.8 100.7 141.5C100.8 141.4 101 139.8 101.8 139.9C101.4 140.1 101.233 140.4 101.3 140.8C101.767 140.867 102.2 140.733 102.6 140.4C102.6 140.5 103.2 138.8 103.2 138.8C103.4 138.867 103.633 138.867 103.9 138.8C104.3 139.3 103.9 138.8 104.9 139.2C104.5 139.333 104.3 139.633 104.3 140.1ZM112.3 142.5C112.6 142.4 112.7 142.4 112.3 142.5ZM114.5 142.5C114.5 142.5 114.533 142.467 114.6 142.4C114.667 142.467 114.633 142.5 114.5 142.5ZM117 140.8C117 140.8 117 140.833 117 140.9C117 140.9 117 140.867 117 140.8ZM118 141.9C118 141.9 117.967 141.9 117.9 141.9C117.9 141.8 117.8 141.6 118 141.9ZM128.4 139C128.467 139 128.533 139 128.6 139C128.7 138.8 128.7 138.7 128.4 139ZM131.1 148.9C131.367 148.633 131.633 148.333 131.9 148C131.5 148.3 131.2 148.6 131.1 148.9ZM101.9 81.6999C101.967 81.6332 102 81.5332 102 81.3999C101.933 81.5332 101.9 81.6332 101.9 81.6999ZM96.5001 61.2999C96.8334 61.6999 97.1668 62.0999 97.5001 62.4999C97.4334 62.4332 97.3334 62.3665 97.2001 62.2999C96.9334 62.0332 96.7001 61.6999 96.5001 61.2999ZM62.9001 62.2999C61.9001 62.5999 61.2001 63.8999 60.4001 64.5999C61.1001 63.4999 61.9001 62.5999 62.9001 62.2999ZM6.8001 48.4999C6.8001 48.8999 6.83342 49.0998 6.90009 49.0998C6.80009 48.7998 6.8001 48.4999 6.8001 48.4999ZM6.20009 45.6999C6.20009 45.5665 6.20009 45.4665 6.20009 45.3999C6.20009 45.2999 6.20009 45.2999 6.20009 45.6999ZM7.40009 23.4999C7.46675 23.4999 7.50009 23.4999 7.50009 23.4999C7.43343 23.5665 7.40009 23.5665 7.40009 23.4999ZM15.1001 13.4999C15.1001 13.5665 15.1334 13.5665 15.2001 13.4999C15.2001 13.4999 15.1668 13.4999 15.1001 13.4999ZM36.2001 2.89985C36.0001 2.99985 36.1001 2.89985 36.3001 2.89985C36.3001 2.89985 36.2668 2.89985 36.2001 2.89985ZM1.6001 34.1999C1.6001 34.4665 1.6001 34.7332 1.6001 34.9999C1.6001 34.5999 1.5001 34.2999 1.6001 34.1999ZM5.20009 55.7999C5.06676 55.5332 5.00009 55.2998 5.00009 55.0998C5.06676 55.3665 5.13342 55.5999 5.20009 55.7999ZM69.5001 155.9C69.6334 155.9 69.7334 155.933 69.8001 156C69.7334 156 69.6334 155.967 69.5001 155.9ZM140.8 147C141.067 146.733 141.333 146.4 141.6 146C141.3 146.4 140.9 146.7 140.8 147ZM131.2 132.7C131.267 132.433 131.333 132.2 131.4 132C131.5 132.3 131.5 132.6 131.2 132.7ZM113.5 139C113.367 138.867 113.3 138.7 113.3 138.5C113.367 138.633 113.433 138.8 113.5 139ZM118.1 138.1L118 138C117.8 138.3 117.9 138.2 118.1 138.1ZM122.5 137C122.6 137.1 124.3 137.3 124.3 136.7C123.9 136.1 123.5 137 122.5 137ZM5.40009 37.6999V37.4999C5.10009 36.6999 5.20009 37.0999 5.40009 37.6999ZM10.6001 57.9999C11.2001 56.8999 9.00009 54.3999 8.40009 52.2999C8.00009 52.9999 9.50009 56.3998 9.90009 57.0998C10.1001 57.3665 10.3334 57.6665 10.6001 57.9999ZM53.1001 86.1999C55.0001 86.1999 56.5001 85.7999 58.4001 85.8999C60.2001 85.9999 61.1001 87.0999 63.3001 86.8999C62.9001 86.9999 65.2001 88.0999 66.0001 88.0999C65.4668 87.8332 64.9334 87.5999 64.4001 87.3999C66.8001 87.1999 69.1001 87.9999 71.4001 88.1999C70.6001 88.2999 71.9001 88.5999 70.3001 88.6999C70.3001 89.7999 89.2001 85.8999 91.4001 84.0999C98.0001 78.7999 95.0001 69.9999 88.6001 65.8999C77.1001 58.3999 62.0001 69.4999 56.4001 79.9999C55.3001 81.8999 53.4001 84.2999 53.1001 86.1999ZM48.9001 85.0999C49.0334 85.1665 49.1668 85.2332 49.3001 85.2999C48.8001 85.2999 48.5001 85.6999 48.9001 85.7999C48.8334 85.8665 48.7668 85.8999 48.7001 85.8999C49.0001 85.9999 49.2001 86.1999 49.5001 85.2999C49.7668 85.2999 49.9001 84.9665 49.9001 84.2999C49.4334 83.8999 49.1001 84.1665 48.9001 85.0999ZM48.1001 85.6999C48.1668 85.6999 48.2668 85.6999 48.4001 85.6999C48.4001 85.5665 48.5001 85.3665 48.7001 85.0999C48.3001 84.9665 48.1001 85.1665 48.1001 85.6999ZM48.4001 85.6999C48.4001 85.8332 48.5001 85.8999 48.7001 85.8999C48.6334 85.8332 48.5334 85.7665 48.4001 85.6999Z" fill="#100F12"/>
<path d="M102.4 139.6C101.9 139.2 101.9 139 101.7 138.7C101.233 138.9 100.933 139.233 100.8 139.7C101.333 139.5 101.867 139.467 102.4 139.6Z" fill="#100F12"/>
<path d="M109.3 143.7L108.7 143.4C108.5 143.7 109.2 144.1 109.3 143.7Z" fill="#100F12"/>
<path d="M111.6 143.4C111.5 143.5 110.9 143.1 110.9 143.7C111.1 143.1 111.5 143.9 111.6 143.4Z" fill="#100F12"/>
<path d="M110.3 138.6C110.1 138.1 109.8 138.5 109.4 138.4C109.7 138.4 110.2 138.9 110.3 138.6Z" fill="#100F12"/>
<path d="M113.7 141.8C113.433 142 113.167 142.167 112.9 142.3C113.367 142.433 113.667 142.733 113.8 143.2C114.2 142.8 114.267 142.367 114 141.9C113.4 142.367 113.3 142.333 113.7 141.8Z" fill="#100F12"/>
<path d="M111.1 138.4C110.833 138.267 110.567 138.133 110.3 138C110.6 139.4 110.9 138.4 111.1 138.4Z" fill="#100F12"/>
<path d="M115.6 142.6C115.133 142.733 114.733 143.033 114.4 143.5C115.5 143.3 115.4 142.8 115.6 142.6Z" fill="#100F12"/>
<path d="M113.9 138.4C114 137.9 114.7 138 113.9 137.4C113.633 137.667 113.633 138 113.9 138.4Z" fill="#100F12"/>
<path d="M114.7 138.8C114.9 138.467 115.1 138.133 115.3 137.8C115 138.2 114.8 138.5 114.7 138.8Z" fill="#100F12"/>
<path d="M124.9 140.5C124.8 140.7 125.6 140.9 125.1 140.7C125.2 140.5 124.6 140.3 124.9 140.5Z" fill="#100F12"/>
<path d="M121.9 136.4C122.2 136.5 122.8 135.9 123.1 135.7C122.7 135.9 121.8 136 121.9 136.4Z" fill="#100F12"/>
<path d="M134.8 129.7C134.467 129.767 134.3 129.967 134.3 130.3C136.2 128.1 134.6 129.5 134.8 129.7Z" fill="#100F12"/>
<path d="M137.5 128.4C137.5 128.6 137.2 128.6 137.4 128.8C137.5 128.9 137.7 128.5 137.5 128.4Z" fill="#100F12"/>
<path d="M153.4 137C153.4 137 153.3 136.9 153.7 137.5C154.2 136.2 153.8 136.6 153.4 137Z" fill="#100F12"/>
<path d="M150.8 146.7C151.2 147.6 151.4 148.1 151.5 148.4C151.7 147.6 151.3 147.6 150.8 146.7Z" fill="#100F12"/>
<path d="M153.3 175.2C153.1 175.2 153 175.4 152.9 175.5C153.3 175.8 153.3 175.3 153.3 175.2Z" fill="#100F12"/>
</g>
<defs>
<clipPath id="clip0_27_34828">
<rect width="178" height="163" fill="white" transform="translate(163.5 0.5) rotate(90)"/>
</clipPath>
</defs>
</svg>
