<svg width="205" height="214" viewBox="0 0 205 214" fill="none" xmlns="http://www.w3.org/2000/svg">
<g clip-path="url(#clip0_28_35734)">
<path d="M108.77 192.378L108.299 191.425C107.455 191.097 108.318 191.741 108.77 192.378Z" fill="#100F12"/>
<path d="M108.77 192.378C108.911 192.623 109.053 192.868 109.195 193.112C109.118 192.885 108.976 192.64 108.77 192.378Z" fill="#100F12"/>
<path d="M109.75 194.916C110.576 196.48 112.709 198.186 113.514 197.883C111.826 197.227 110.884 195.321 109.75 194.916Z" fill="#100F12"/>
<path d="M112.902 196.685C112.277 196.312 112.16 195.97 111.503 196.106C111.937 196.29 112.403 196.483 112.902 196.685Z" fill="#100F12"/>
<path d="M111.374 195.037C111.49 195.896 112.113 196.406 113.243 196.569C112.62 196.058 111.997 195.547 111.374 195.037Z" fill="#100F12"/>
<path d="M118.148 201.081C118.052 201.055 115.977 200.296 116.299 199.865C116.573 199.869 116.848 199.873 117.123 199.877C117.026 199.851 114.037 198.642 113.869 198.494C113.555 200.066 117.955 201.029 118.148 201.081Z" fill="#100F12"/>
<path d="M156.44 141.521C156.393 141.439 156.346 141.358 156.298 141.276C156.369 141.399 156.344 141.495 156.44 141.521Z" fill="#100F12"/>
<path d="M163.608 156.982C163.659 156.789 163.639 156.473 163.478 155.913C163.504 156.334 163.547 156.69 163.608 156.982Z" fill="#100F12"/>
<path d="M111.347 110.697C111.901 110.948 112.288 111.051 112.41 110.98C112.023 110.877 111.669 110.783 111.347 110.697Z" fill="#100F12"/>
<path d="M144.47 129.335C144.199 129.056 143.984 128.827 143.825 128.647C144.031 128.908 144.246 129.138 144.47 129.335Z" fill="#100F12"/>
<path d="M143.343 203.227C143.781 203.137 144.163 202.997 144.489 202.808C144.173 202.827 143.735 202.918 143.343 203.227Z" fill="#100F12"/>
<path d="M152.287 198.776C152.27 198.841 152.261 198.873 152.261 198.873C152.39 198.907 152.399 198.875 152.287 198.776Z" fill="#100F12"/>
<path d="M157.296 194.728C157.296 194.728 157.287 194.76 157.27 194.824C157.351 194.777 157.36 194.745 157.296 194.728Z" fill="#100F12"/>
<path d="M144.489 202.808C145.532 202.775 146.254 203.174 146.318 202.156C147.082 201.876 147.767 201.507 148.372 201.047C147.167 200.519 145.274 202.189 144.489 202.808Z" fill="#100F12"/>
<path d="M156.659 141.476C156.511 141.643 156.892 142.158 156.659 141.476Z" fill="#100F12"/>
<path d="M160.754 148.256C160.677 148.028 160.567 147.792 160.425 147.547C160.567 147.792 160.612 148.011 160.754 148.256Z" fill="#100F12"/>
<path d="M162.572 177.609C162.589 177.544 162.639 177.488 162.72 177.441C162.623 177.415 162.598 177.512 162.572 177.609Z" fill="#100F12"/>
<path d="M160.425 147.547C160.38 147.328 160.335 147.109 160.193 146.865C160.27 147.092 160.348 147.32 160.425 147.547Z" fill="#100F12"/>
<path d="M94.959 27.1811C95.7582 27.8075 96.4282 27.8822 96.969 27.4051C96.6081 27.2057 94.3535 27.1235 95.8607 26.9034C92.8329 26.6157 94.5272 26.8593 95.0495 27.619C96.2154 27.5151 94.6434 27.2006 94.959 27.1811Z" fill="#100F12"/>
<path d="M132.407 123.334C133.618 123.449 132.348 122.387 132.85 121.279C131.383 123.682 133.049 120.918 132.407 123.334Z" fill="#100F12"/>
<path d="M131.987 122.188C131.62 122.4 131.839 122.355 131.324 122.736C131.522 122.512 131.743 122.329 131.987 122.188Z" fill="#100F12"/>
<path d="M116.06 33.8269C116.283 34.0242 116.483 34.1809 116.659 34.2967C116.421 34.0263 116.253 33.8783 116.06 33.8269Z" fill="#100F12"/>
<path d="M116.747 104.787C117.069 104.872 117.368 104.917 117.643 104.921C117.16 104.793 116.966 104.741 116.747 104.787Z" fill="#100F12"/>
<path d="M120.497 133.101C120.123 133.209 119.765 133.389 119.421 133.643C119.812 133.471 120.171 133.29 120.497 133.101Z" fill="#100F12"/>
<path d="M139.959 90.264C140.462 90.7081 140.254 88.3764 140.041 88.0094C140.046 88.7695 140.019 89.5211 139.959 90.264Z" fill="#100F12"/>
<path d="M124.951 128.802C125.782 128.402 127.765 127.17 127.874 126.371C126.891 127.213 125.917 128.024 124.951 128.802Z" fill="#100F12"/>
<path d="M163.664 172.725L163.792 172.242C163.758 172.371 163.715 172.532 163.664 172.725Z" fill="#100F12"/>
<path d="M110.581 139.26C110.598 139.195 110.575 139.155 110.51 139.138C110.51 139.138 110.534 139.178 110.581 139.26Z" fill="#100F12"/>
<path d="M64.1022 33.8762C64.1193 33.8117 64.1364 33.7473 64.1536 33.6829C64.072 33.7302 64.0549 33.7946 64.1022 33.8762Z" fill="#100F12"/>
<path d="M123.868 201.36C123.258 201.06 122.689 200.736 122.161 200.389C122.354 200.44 122.547 200.491 122.741 200.543C121.419 199.674 120.453 199.417 118.869 199.927C120.634 200.293 122.2 201.02 123.868 201.36Z" fill="#100F12"/>
<path d="M123.439 204.143C123.005 203.959 122.571 203.774 122.137 203.59C122.563 204.324 122.997 204.509 123.439 204.143Z" fill="#100F12"/>
<path d="M147.491 203.192C146.808 203.425 146.134 203.625 145.469 203.793C144.831 204.244 147.337 203.772 147.491 203.192Z" fill="#100F12"/>
<path d="M139.057 201.053C138.252 201.356 137.698 201.106 136.842 201.602C137.697 201.761 138.435 201.578 139.057 201.053Z" fill="#100F12"/>
<path d="M152.526 200.599C153.166 200.01 153.805 199.422 154.445 198.833C154.567 198.762 152.339 200.136 152.526 200.599Z" fill="#100F12"/>
<path d="M148.652 196.879C147.777 197.06 146.954 197.427 146.186 197.982C147.062 197.801 147.884 197.433 148.652 196.879Z" fill="#100F12"/>
<path d="M159.593 191.924C159.974 192.439 157.56 194.901 158.904 192.569C158.454 193.484 157.916 194.341 157.289 195.14C157.045 195.282 160.084 193.193 160.032 193.386C160.135 192.999 160.746 191.092 159.593 191.924Z" fill="#100F12"/>
<path d="M150.365 195.886C149.573 195.364 151.436 197.308 150.578 196.253C150.178 195.939 150.296 195.626 150.932 195.312C150.022 195.622 149.167 195.981 148.369 196.389C149.077 196.578 149.743 196.41 150.365 195.886Z" fill="#100F12"/>
<path d="M161.532 192.026C162.375 190.801 163.443 189.119 163.661 187.522C162.844 188.649 161.505 190.57 161.532 192.026Z" fill="#100F12"/>
<path d="M154.679 192.894C154.336 193.147 154.024 193.409 153.746 193.68C154.582 192.868 154.325 193.834 154.995 192.874C154.9 192.711 154.773 192.539 154.614 192.359C153.114 193.719 154.956 192.243 154.679 192.894Z" fill="#100F12"/>
<path d="M157.259 189.027C157.525 188.546 157.768 188.024 157.986 187.461C157.741 187.603 155.958 188.474 156.312 189.086C156.686 188.978 157.002 188.958 157.259 189.027Z" fill="#100F12"/>
<path d="M159.293 186.049C159.331 185.646 159.41 185.218 159.53 184.767C159.29 185.669 159.042 186.604 158.785 187.57C159.203 187.164 159.139 186.629 159.293 186.049Z" fill="#100F12"/>
<path d="M167.626 155.878C167.265 155.678 167.241 157.327 167.421 156.651C167.782 156.85 167.645 154.641 167.626 155.878Z" fill="#100F12"/>
<path d="M162.656 159.005C163.075 160.152 163.174 163.282 163.541 163.069C163.624 162.367 163.03 159.933 162.656 159.005Z" fill="#100F12"/>
<path d="M140.306 125.538C139.313 124.86 138.254 124.302 137.129 123.865C137.947 124.29 139.359 125.596 140.306 125.538Z" fill="#100F12"/>
<path d="M84.2504 133.603C83.2706 132.618 83.5996 133.327 82.8583 132.612C83.4968 133.713 84.1219 134.086 84.2504 133.603Z" fill="#100F12"/>
<path d="M85.3464 134.929C85.4883 135.174 85.6302 135.419 85.7721 135.664C85.6302 135.419 85.0369 134.537 85.3464 134.929Z" fill="#100F12"/>
<path d="M92.2358 139.762C92.2358 139.762 91.9202 139.782 91.7269 139.73C92.2101 139.859 92.5967 139.962 92.2358 139.762Z" fill="#100F12"/>
<path d="M93.3051 139.633C91.8297 139.344 95.0641 140.411 93.267 140.554C93.7352 140.609 94.2119 140.633 94.6971 140.624C94.2331 140.293 93.7691 139.963 93.3051 139.633Z" fill="#100F12"/>
<path d="M100.192 141.361C104.232 142.124 105.454 139.863 108.23 139.152C105.969 139.482 104.54 140.965 102.189 140.857C103.954 141.223 100.63 141.27 100.192 141.361Z" fill="#100F12"/>
<path d="M99.6052 140.066C99.3091 140.401 101.222 140.6 101.808 140.342C101.203 140.284 100.314 139.737 99.6052 140.066Z" fill="#100F12"/>
<path d="M109.963 140.027C109.444 140.165 108.901 140.262 108.334 140.318C109.073 140.652 109.616 140.555 109.963 140.027Z" fill="#100F12"/>
<path d="M112.984 139.174L111.954 139.935C112.321 139.722 114.027 139.141 112.984 139.174Z" fill="#100F12"/>
<path d="M119.153 136.986C119.836 136.754 120.93 134.975 118.65 136.542C119.114 136.355 120.402 136.18 119.153 136.986Z" fill="#100F12"/>
<path d="M129.183 128.064C129.659 127.57 130.103 127.067 130.515 126.556C130.052 126.743 129.061 128.135 129.183 128.064Z" fill="#100F12"/>
<path d="M127.101 126.165C126.805 126.501 126.509 126.836 126.213 127.171C126.964 126.681 127.603 126.092 128.131 125.405C127.788 125.658 127.444 125.912 127.101 126.165Z" fill="#100F12"/>
<path d="M132.299 125.685C132.048 126.239 131.385 126.787 130.967 127.193C131.379 127.2 132.293 126.097 132.299 125.685Z" fill="#100F12"/>
<path d="M131.389 123.27C130.616 123.065 130.005 124.972 129.735 125.21C130.881 124.791 130.791 124.353 131.389 123.27Z" fill="#100F12"/>
<path d="M141.332 110.393C141.114 110.956 140.927 111.527 140.773 112.107C142.683 107.648 141.782 109.478 141.332 110.393Z" fill="#100F12"/>
<path d="M141.667 110.689C141.841 110.425 142.317 109.413 142.304 108.685C142.115 109.394 141.903 110.062 141.667 110.689Z" fill="#100F12"/>
<path d="M142.453 110.07C142.607 109.49 142.802 108.887 143.038 108.26C142.787 108.814 142.633 109.394 142.453 110.07Z" fill="#100F12"/>
<path d="M144.124 105.341C144.201 104.533 144.495 103.818 145.005 103.195C144.613 103.505 143.809 105.36 144.124 105.341Z" fill="#100F12"/>
<path d="M139.839 85.2655C139.956 85.6068 140.516 85.4453 140.065 84.8079C139.716 84.3015 139.641 84.454 139.839 85.2655Z" fill="#100F12"/>
<path d="M139.881 80.8272C139.934 82.1863 140.424 83.455 140.503 84.7174C140.451 84.9107 140.629 81.1294 140.585 82.4628C140.318 81.9091 140.084 81.3638 139.881 80.8272Z" fill="#100F12"/>
<path d="M124.946 47.8826C125.062 48.2239 123.857 47.6965 124.289 48.0183C125.92 49.2797 126.925 50.168 128.82 51.6031C127.479 50.4188 126.261 49.1635 124.946 47.8826Z" fill="#100F12"/>
<path d="M101.078 54.3666L101.22 54.6113C101.613 54.3018 101.272 54.418 101.078 54.3666Z" fill="#100F12"/>
<path d="M101.078 54.3666L100.814 54.1929C100.844 54.3389 100.932 54.3968 101.078 54.3666Z" fill="#100F12"/>
<path d="M100.73 53.3427C100.349 52.8276 99.5761 52.622 99.203 53.2471C99.8599 53.1114 100.092 53.794 100.73 53.3427Z" fill="#100F12"/>
<path d="M97.9405 53.3253C98.2838 53.0717 98.6982 52.9404 99.1834 52.9315C99.4918 51.7718 97.8818 52.3784 97.7852 52.3527C98.803 52.4164 97.7533 52.8616 97.9405 53.3253Z" fill="#100F12"/>
<path d="M69.0233 51.9478C69.0233 51.9478 68.9911 51.9392 68.9267 51.9221C69.0233 51.9478 68.9976 52.0444 69.0233 51.9478Z" fill="#100F12"/>
<path d="M73.7761 50.4178C73.905 50.452 74.0253 50.5185 74.137 50.6172C74.0424 50.4541 73.9221 50.3876 73.7761 50.4178Z" fill="#100F12"/>
<path d="M53.6186 56.9572C53.4726 56.9874 53.3588 57.0261 53.2773 57.0734C53.4877 57.0604 53.6015 57.0216 53.6186 56.9572Z" fill="#100F12"/>
<path d="M90.8455 49.2657C90.6522 49.2143 90.5555 49.1886 90.4332 49.2595C90.5041 49.3818 90.6008 49.4075 90.8455 49.2657Z" fill="#100F12"/>
<path d="M90.4332 49.2595C90.0332 48.4288 90.1433 49.1824 89.2478 49.0477C89.2355 49.8723 90.0919 49.3757 90.4332 49.2595Z" fill="#100F12"/>
<path d="M69.0747 51.7545C69.268 51.8059 69.12 51.9734 69.0747 51.7545Z" fill="#100F12"/>
<path d="M71.3673 50.9155C71.3029 50.8983 71.2385 50.8812 71.174 50.8641C71.2707 50.8898 71.2707 50.8898 71.3673 50.9155Z" fill="#100F12"/>
<path d="M80.3857 51.2441C80.3857 51.2441 80.3535 51.2355 80.2891 51.2184C80.2634 51.3151 80.3857 51.2441 80.3857 51.2441Z" fill="#100F12"/>
<path d="M70.9551 50.9093C71.0366 50.862 71.1096 50.8469 71.174 50.8641C71.0774 50.8384 70.9808 50.8127 70.9551 50.9093Z" fill="#100F12"/>
<path d="M59.4373 23.0125C58.9953 23.3778 58.9932 23.5153 59.4312 23.4248C59.388 23.0684 59.4781 22.9889 59.7015 23.1862C59.7529 22.993 58.9603 22.4717 59.4373 23.0125Z" fill="#100F12"/>
<path d="M58.2244 29.5193C58.1429 29.5666 58.0935 29.6225 58.0764 29.6869C58.1987 29.616 58.2244 29.5193 58.2244 29.5193Z" fill="#100F12"/>
<path d="M51.8099 49.7503C51.8915 49.7031 51.9408 49.6472 51.9579 49.5828C51.8764 49.6301 51.827 49.6859 51.8099 49.7503Z" fill="#100F12"/>
<path fill-rule="evenodd" clip-rule="evenodd" d="M56.6691 6.96206C56.373 7.29723 56.0402 7.3812 55.6708 7.21398C56.0533 7.59162 56.5194 7.78453 57.069 7.79274C57.4299 7.99217 55.9166 8.6245 55.8199 8.5988C56.0657 10.0093 57.0433 7.88937 57.6304 9.18372C57.1452 9.19265 56.8104 9.41404 56.626 9.8479C58.3912 10.2138 57.8896 11.3221 57.9739 12.1724C57.6131 11.9729 57.908 10.0853 56.8718 11.2584C57.9348 11.5411 57.5237 13.0874 58.6577 13.4924C58.3828 13.4883 58.1145 13.5894 57.8527 13.7957C58.2135 13.9952 58.3811 14.1432 58.3554 14.2398C58.4198 14.257 58.4928 14.2419 58.5744 14.1946C57.9699 15.6895 59.8648 17.1246 59.5759 18.5999C59.505 18.4776 57.4694 18.3502 57.0828 18.2474C57.6757 18.612 58.0067 19.1829 58.076 19.9602C58.4153 19.9814 58.6277 19.8309 58.7134 19.5088C58.6236 20.1058 58.7121 20.6812 58.9787 21.2349C58.8944 20.3847 60.3769 21.8137 60.0809 22.1489C59.6234 21.9237 58.9016 21.5249 59.611 22.7483C58.8122 22.6393 59.5524 21.8014 58.6055 21.86C58.4256 22.5365 59.0909 25.0934 59.0786 25.9179C59.1105 25.409 58.5636 26.2983 58.5379 26.3949C58.4032 27.2904 58.0887 28.8624 57.9602 29.3456C57.9026 29.9511 55.3132 39.2997 53.9921 38.431C53.9664 38.5276 53.7362 40.9498 53.4278 42.1095C55.3082 41.2643 57.4321 38.7249 59.4214 37.0809C58.7131 37.4099 57.979 37.8356 57.6572 38.2674C58.7768 36.3921 66.3372 33.6427 67.7858 32.4757C67.4122 32.5834 67.0065 32.6824 66.5685 32.7729C71.5342 31.61 75.0748 28.4125 80.2018 27.8098C79.1522 28.255 80.4085 28.5891 80.7694 28.7885C81.1755 29.2069 78.5673 30.0655 78.8058 30.3359C79.1862 30.8509 84.2155 28.6702 85.0658 28.5858C85.7032 28.1345 82.7916 28.188 83.0106 28.1428C84.7882 27.6842 87.6617 28.5518 89.3035 27.4363C88.8313 27.6556 88.4684 27.5936 88.2148 27.2502C88.2466 26.7413 91.4799 26.2559 91.9631 26.3844C91.7658 26.6079 91.5447 26.7905 91.3001 26.9324C92.2192 27.1078 93.1811 27.1222 94.1859 26.9755C93.9803 27.7486 91.0358 26.7587 91.2877 27.7569C96.0098 28.2883 100.151 27.113 104.706 29.0487C104.578 29.0145 104.464 29.0532 104.365 29.1649C106.099 30.0398 108.102 30.6761 109.913 31.261C111.433 31.7688 112.98 32.18 114.449 32.8811C114.881 33.2029 116.949 34.3738 115.21 33.9112C121.686 37.1854 126.609 40.4607 131.38 45.8683C131.156 45.6709 130.907 45.5702 130.632 45.5661C132.535 48.1414 135.1 50.1687 136.879 52.8149C137.305 53.5489 139.479 57.4381 139.492 58.166C139.479 57.9556 139.498 57.7537 139.55 57.5605C139.595 57.7794 143.297 64.869 143.904 66.479C145.369 70.6972 146.461 75.5405 146.735 79.9592C146.953 78.3615 147.225 81.2279 147.341 81.5692C146.703 80.4681 146.897 82.0719 146.368 80.172C146.286 82.4266 148.361 84.7377 146.804 86.7035C146.846 86.0249 146.792 85.3207 146.641 84.5908C146.597 85.9242 146.186 87.4705 146.457 88.7843C146.528 88.9067 147.127 87.8241 147.127 87.8241C147.598 88.7771 146.485 91.7925 146.274 92.9779C146.075 94.8912 146.566 96.1599 146.148 98.1184C145.843 97.9683 145.661 97.7473 145.6 97.4553C144.956 96.7665 145.095 102.081 145.14 102.3C144.096 102.333 144.314 100.735 144.443 100.252C144.269 100.516 143.143 102.804 143.219 100.961C143.099 104.137 141.794 107.101 140.926 109.975C140.515 111.521 139.164 114.266 140.543 114.529C140.591 115.646 140.209 116.303 139.398 116.501C139.436 116.097 139.474 115.694 139.513 115.29C139.422 114.852 138.405 116.341 138.283 116.412C149.606 123.251 158.057 132.328 163.187 144.557C162.92 144.003 162.604 143.505 162.239 143.063C164.522 147.706 166.243 149.405 167.819 154.377C167.544 154.373 167.376 154.225 167.316 153.933C167.052 153.759 167.484 155.633 167.626 155.878C166.968 154.461 168.272 158.119 166.93 155.382C166.125 155.686 167.313 159.002 167.37 158.397C167.23 159.704 167.319 158.59 166.784 158.655C166.609 159.574 166.859 160.192 167.533 160.509C167.778 160.367 167.958 160.208 168.074 160.032C167.867 168.98 169.265 177.733 164.279 186.755C164.722 184.699 166.382 182.347 166.246 180.138C166.228 180.202 166.211 180.267 166.194 180.331C166.226 179.822 166.284 179.217 166.213 179.094C165.003 180.531 165.777 182.289 164.644 183.437C165.582 180.686 163.858 184.056 164.102 182.362C164.102 182.362 161.716 187.832 164.476 183.289C164.665 185.305 162.027 189.777 160.939 191.144C160.896 190.787 160.885 190.439 160.906 190.1C158.988 191.866 157.405 193.929 155.319 195.547C155.907 195.152 156.557 194.911 157.27 194.824C156.922 195.353 156.305 196.12 155.983 196.552C156.051 196.294 156.152 196.045 156.285 195.804C155.867 196.21 153.241 199.858 154.051 197.59C151.038 199.583 153.027 197.939 150.438 199.113C150.679 199.246 150.943 199.419 151.231 199.634C149.866 200.099 142.196 203.647 141.674 202.887C140.579 203.113 146.104 200.237 144.481 200.115C143.648 200.653 142.791 201.149 141.911 201.605C143.805 201.488 139.285 203.701 138.409 203.881C136.341 204.263 136.341 204.263 134.28 204.232C135.51 203.111 131.749 204.801 132.386 204.349C131.723 204.897 127.175 204.102 126.228 204.161C126.717 203.877 132.044 202.913 132.843 203.022C130.162 202.206 126.453 203.703 124.276 203.331C123.986 203.254 120.532 202.232 121.351 202.657C121.493 202.901 118.6 201.718 118.31 201.641C119.134 201.653 119.203 201.396 118.515 200.868C119.791 201.518 120.531 200.68 121.833 201.233C121.283 201.225 120.733 201.216 120.184 201.208C119.598 201.466 123.444 202.179 124.41 202.435C124.105 202.285 123.792 202.168 123.47 202.082C123.456 201.354 125.318 201.746 125.659 201.629C127.514 200.881 126.123 201.442 126.226 201.056C126.999 201.261 127.798 201.37 128.622 201.383C126.156 202.486 131.695 201.889 132.082 201.992C131.734 202.521 130.188 202.109 129.673 202.49C129.525 202.657 131.857 202.45 132.076 202.404C134.427 202.512 135.123 203.008 137.589 201.904C133.495 204.851 139.445 202.708 139.96 202.328C139.539 202.354 139.159 202.356 138.82 202.335C137.725 202.561 142.543 201.566 141.531 201.09C140.934 201 140.384 200.992 139.882 201.065C141.196 200.794 144.081 199.285 144.7 200.07C144.822 199.999 148.093 198.593 147.468 198.219C147.043 198.52 146.58 198.707 146.077 198.781C145.884 198.729 147.255 197.852 147.526 197.614C147.153 198.239 151.474 196.387 151.693 196.342C150.398 196.929 154.745 194.981 153.934 195.696C155.627 194.387 154.769 193.332 156.082 191.508C156.535 193.698 157.338 190.289 157.537 189.929C157.267 190.167 155.187 191.373 155.244 190.768C155.224 188.899 161.033 188.064 160.779 183.961C160.466 184.361 160.125 184.477 159.755 184.31C163.308 180.288 163.452 173.911 164.421 169.098C164.331 168.66 164.425 165.581 164.425 165.581C164.541 165.405 164.631 165.325 164.696 165.342C164.702 164.93 164.682 164.615 164.721 165.246C164.83 164.447 164.314 163.275 164.236 162.013C164.215 162.352 164.161 162.682 164.076 163.005C163.525 159.237 162.474 156.577 161.093 153.209C161.756 152.661 161.264 149.84 160.754 148.256C159.523 146.273 157.581 143.066 156.324 141.18C155.492 140.027 154.601 136.375 153.976 136.002C153.632 135.221 153.099 134.631 152.377 134.232C153.086 135.455 153.551 136.821 154.261 138.044C153.235 136.84 151.889 136.068 150.838 134.961C150.786 135.154 150.84 135.341 150.999 135.521C148.73 133.159 147.119 132.213 144.47 129.335C145.546 130.346 147.769 130.937 148.536 131.555C149.47 132.321 150.889 134.768 151.927 135.147C151.552 134.22 152.558 135.108 152.442 134.767C152.377 134.232 149.978 130.8 149.475 130.356C150.14 131.361 147.787 129.7 149.437 131.277C147.543 129.842 145.892 128.265 143.972 126.927C145.699 128.214 144.017 127.146 143.502 127.526C143.624 127.455 147.028 130.223 144.829 127.982C150.082 131.966 144.23 127.513 145.797 129.792C143.683 128.402 140.371 126.072 139.068 123.967C139.502 124.151 139.936 124.336 140.369 124.52C138.236 122.814 137.919 121.282 135.672 122.34C134.011 123.14 134.334 124.26 133.053 125.575C133.238 122.934 137.107 120.445 133.024 121.014C134.593 118.224 131.968 121.872 131.401 122.446C130.906 123.142 129.465 125.449 128.293 125.965C128.833 125.488 129.206 124.863 129.676 124.263C128.787 123.716 125.955 126.585 125.266 127.23C124.699 127.803 123.065 130.059 124.887 128.267C124.977 128.705 122.923 129.814 123.355 130.136C124.817 129.697 123.858 130.58 125.622 129.394C126.626 128.73 127.919 126.59 129.168 125.784C129.639 126.737 126.729 128.343 126.105 129.522C128.023 127.756 126.266 130.083 127.2 129.296C125.97 130.418 125.707 131.796 124.284 132.867C125.732 130.147 121.928 134.723 121.046 135.317C119.501 136.458 116.738 137.896 114.955 138.767C115.089 137.872 117.118 136.859 117.633 136.479C117.225 136.715 117.193 136.706 117.536 136.453C117.326 136.466 117.139 136.52 116.976 136.614C119.113 134.803 121.314 131.973 123.678 131.257C123.547 128.635 121.385 132.096 121.115 132.334C119.131 133.566 117.387 135.068 115.333 136.177C115.445 136.276 115.597 136.351 115.79 136.403C113.537 137.873 111.225 138.396 109.029 139.261C109.355 139.072 109.69 138.85 110.033 138.597C105.426 136.854 99.3873 141.664 94.3229 139.696C94.0843 139.426 95.7591 139.354 96.0747 139.334C95.4435 139.374 90.1086 137.644 89.2132 137.51C90.6762 138.623 87.8088 137.343 87.5446 137.17C88.1073 137.388 88.7022 137.615 89.3294 137.851C88.6333 137.356 85.7721 135.664 87.5887 135.836C85.2939 133.57 82.9416 131.91 80.8206 129.38C80.5841 128.972 80.2897 128.652 79.9374 128.421C79.9676 128.567 79.8925 128.719 79.7123 128.878C79.7637 128.685 78.8146 125.639 79.4458 125.6C79.3297 125.258 80.6653 128.407 80.9161 127.853C79.9034 125.825 80.9241 120.819 78.3633 125.001C77.4348 123.823 79.2565 122.031 78.9851 120.717C79.4632 122.811 78.9449 118.534 78.9829 117.613C78.8656 115.719 78.9159 113.973 79.5975 112.188C79.6578 112.48 79.6859 112.764 79.6818 113.039C79.8617 112.362 80.6913 110.41 81.0902 109.688C80.9744 109.864 80.8263 110.032 80.6461 110.191C80.5237 110.262 83.5678 106.208 83.5164 106.401C86.0526 103.868 89.3496 102.365 92.8533 101.641C96.9173 100.755 101.845 100.513 105.904 101.593C107.16 101.927 111.586 102.793 109.744 102.717C112.507 102.831 114.183 104.312 116.747 104.787C116.651 104.761 113.256 104.686 113.398 104.931C114.468 106.354 120.046 106.388 121.76 106.948C123.474 107.507 126.444 108.4 127.734 109.778C127.54 109.726 127.339 109.707 127.128 109.72C127.56 110.042 129.357 109.899 129.467 110.652C129.253 110.94 128.952 111.033 128.565 110.93C132.973 113.033 133.023 111.288 134.953 107.144C135.731 105.385 135.846 104.174 136.502 102.486C137.557 100.076 138.611 97.6663 139.351 95.276C139.756 94.142 139.162 93.2599 139.587 92.4415C140.781 95.3458 140.325 88.4988 140.543 86.9011C140.62 87.1287 140.698 87.3562 140.775 87.5838C141.169 86.1019 141.142 84.6461 140.695 83.2164C140.867 83.6071 141.138 83.886 141.507 84.0533C142.338 83.6533 140.795 79.725 141.226 78.4944C140.943 79.04 140.613 79.504 140.235 79.8865C140.331 78.3597 139.049 78.1223 139.022 76.6665C139.215 76.7179 139.408 76.7693 139.602 76.8207C139.232 73.9287 138.34 68.7245 136.56 66.0783C135.097 64.9649 132.116 58.2742 130.485 55.4604C129.633 53.9923 128.074 52.8533 127.203 51.0696C127.95 51.3718 128.944 53.0846 129.794 53.0002C128.227 50.721 126.409 48.9959 124.475 46.9296C123.663 46.0927 121.691 44.9475 122.709 45.0112C121.927 44.3203 121.035 43.9109 120.035 43.7827C121.305 44.8447 122.728 45.3268 123.631 46.6016C120.086 43.5895 113.23 39.8002 107.836 37.1243C103.912 35.1495 100.021 34.2182 95.5885 33.7639C93.8685 33.617 87.9158 32.6549 87.665 33.209C84.2579 33.9587 81.1531 33.9608 77.8426 34.7361C75.7238 35.3109 71.0491 38.1034 69.1873 37.7118C69.2517 37.7289 69.2925 37.7053 69.3096 37.6408C68.041 38.1313 66.0958 38.4418 65.2908 38.7452C65.5355 38.6033 60.6738 40.9321 62.3413 39.7199C57.6348 43.0213 52.9931 46.8573 48.7123 50.8927C48.9251 51.2597 49.9491 50.9111 50.1424 50.9625C50.1808 50.5588 50.069 50.4602 49.8072 50.6665C50.5022 49.6096 51.1921 50.5173 51.8099 49.7503C51.6557 50.3302 51.1211 50.395 51.3278 51.1743C51.0502 50.2726 55.5583 48.8846 55.5388 48.5689C55.9726 48.7533 56.0974 49.0624 55.913 49.4962C58.1604 48.4383 61.8563 46.2133 64.5756 47.6608C65.6633 46.2944 68.2726 46.9883 70.1859 47.1866C70.6043 46.7805 71.8277 46.0711 71.6417 47.1598C72.2469 46.6999 72.8757 46.2808 73.5282 45.9024C73.8119 46.3918 73.5734 46.1214 73.9086 46.4175C73.5159 46.7269 74.1471 46.6878 73.7801 46.9007C73.7935 47.6286 74.6694 47.4476 74.7465 47.1577C74.7661 47.4733 74.8052 48.1045 75.2236 47.6984C75.5453 47.2666 75.2616 46.7772 75.023 46.5069C77.0145 47.9677 79.963 45.4405 83.2683 46.6299C82.6028 46.7979 81.9373 46.9658 81.2718 47.1338C81.1299 46.8891 80.988 46.6444 80.8791 47.4432C81.5556 47.6231 81.1629 47.9326 81.8517 47.2879C81.9997 47.1204 82.0583 48.0672 81.8846 48.3315C82.2259 48.2153 83.3147 48.4013 82.1354 47.7773C82.2578 47.7064 84.1772 47.4924 84.5895 47.4986C84.828 47.769 86.3363 49.1013 86.5295 49.1527C85.7883 48.4382 86.181 48.1288 86.8379 47.993C87.0312 48.0444 87.3468 48.0249 87.3468 48.0249C87.4435 48.0506 87.9339 49.3192 88.2948 49.5187C88.2989 49.2438 88.303 48.969 88.3071 48.6941C88.7132 49.1125 91.0264 50.1416 91.0007 50.2382C90.7561 50.3801 89.1779 50.4778 89.6232 51.5275C91.1231 50.1673 91.4387 50.1477 92.5923 50.8684C93.5648 50.7131 93.9452 51.2281 95.5491 51.0338C94.9826 51.6075 93.3078 51.6795 93.2307 51.9694C93.3726 52.2141 93.6369 52.3878 93.8558 52.3426C93.753 52.7292 92.3096 51.9314 91.6269 52.1638C92.8308 51.1388 91.1817 51.1141 90.57 51.4688C90.4028 51.8383 90.4953 52.1388 90.8476 52.3705C90.2935 52.1196 88.4121 51.4124 88.4059 51.8247C88.7452 51.8459 88.8398 52.009 88.6897 52.314C88.5478 52.0693 88.3782 52.0587 88.1808 52.2822C88.0584 52.3531 86.6653 49.8097 86.401 49.6359C86.1653 50.2631 85.7534 50.7744 85.1653 51.1699C85.1458 50.8543 85.9312 50.2353 84.8363 50.4615C84.714 50.5325 84.7335 50.8481 84.7788 51.0671C84.3984 50.552 83.0074 51.1134 82.5376 51.7128C81.7963 50.9983 78.9814 51.0776 78.9104 50.9552C78.9104 50.9552 76.9714 50.8535 77.8988 50.4793C77.4413 50.2542 76.6044 51.0664 76.881 50.4156C76.3977 50.2871 76.1017 50.6223 75.9536 50.7898C74.614 51.158 74.0476 51.7317 72.927 52.0545C72.1723 50.6121 68.0826 51.5941 66.8715 51.479C67.1594 51.6935 67.4644 51.8436 67.7865 51.9293C67.4452 52.0455 66.4151 52.8063 66.7502 53.1024C66.3938 53.1456 66.2263 52.9975 66.2475 52.6583C66.1831 52.6411 66.1186 52.624 66.0542 52.6069C66.6011 51.7175 66.4201 50.8416 64.913 51.0617C66.1179 51.5891 63.6063 52.4733 63.265 52.5895C63.922 52.4538 63.2527 53.414 63.6136 53.6135C63.4521 53.0532 64.6437 52.8526 63.7225 52.8146C63.9501 52.7372 64.1862 52.6275 64.4309 52.4856C65.0375 54.0956 62.3449 54.1039 61.8165 53.7564C61.9323 53.5803 62.0396 53.4363 62.1382 53.3246C61.8161 53.239 61.5111 53.0889 61.2232 52.8744C60.7082 53.2548 60.9858 54.1564 59.4848 53.9642C59.6822 53.7408 59.8559 53.4765 60.006 53.1715C59.0077 53.4234 58.8669 54.7312 58.1329 55.1568C57.8882 55.2987 56.1045 56.1696 55.9308 56.4338C55.9565 56.3372 55.7878 54.6367 54.9191 55.9578C55.1124 56.0092 55.3293 56.1014 55.5699 56.2344C54.9818 56.6299 54.3314 56.8708 53.6186 56.9572C53.6957 56.6673 53.7789 55.9651 53.341 56.0556C52.3941 56.1142 53.2259 57.2667 52.6656 57.4281C50.373 58.2671 48.1191 59.2199 45.9039 60.2865C42.8002 61.841 38.4339 63.4738 36.1486 65.453C35.2459 64.1782 31.4428 60.58 31.5127 59.1499C31.492 57.2819 36.5985 54.8112 38.1498 53.2577C38.8643 52.5164 43.3167 45.1119 43.7485 45.4337C43.7485 45.4337 43.9675 45.3885 44.2512 45.8778C44.4959 45.7359 45.8663 43.3065 45.7953 43.1842C45.9502 43.6393 46.2145 43.813 46.588 43.7054C46.7617 43.4411 46.6322 42.3719 47.2634 42.3328C46.5869 42.153 44.9697 41.6194 45.9741 40.9553C46.0858 41.0539 46.1976 41.1526 46.3093 41.2513C47.4741 39.595 50.0472 34.5881 49.4796 33.6094C49.6427 33.5148 49.8059 33.4202 49.969 33.3256C50.0766 33.6992 50.2164 34.0813 50.3885 34.472C51.4505 33.2022 51.984 31.585 51.5131 30.632C51.2623 31.1861 51.6745 31.1923 51.5203 31.7721C51.4086 31.6734 51.327 31.7207 51.2756 31.914C51.5583 30.851 51.7371 28.6221 52.3025 26.496C52.7651 24.7564 53.3232 21.4901 53.316 20.35C53.354 19.4288 52.2301 15.0944 52.9641 14.6688C53.0717 15.0423 53.2565 15.1259 53.5183 14.9196C52.8932 14.5464 53.9027 11.9176 54.0641 12.4779C53.3731 10.0177 53.2877 7.61502 53.6659 5.02525C55.2893 5.1465 54.6117 3.41418 54.914 2.66675C55.6234 3.89015 56.0367 5.44873 56.6691 6.96206ZM47.4567 42.3842C47.3923 42.3671 47.3278 42.35 47.2634 42.3328C47.4567 42.3842 47.5533 42.4099 47.4567 42.3842ZM65.681 53.232C65.5525 53.7152 65.5659 54.4431 64.142 53.9609C64.7733 53.9219 65.2626 53.6381 65.681 53.232ZM66.5106 51.2796C66.4764 51.4084 66.5967 51.4749 66.8715 51.479C66.7427 51.4448 66.6224 51.3783 66.5106 51.2796ZM84.8436 51.6017C84.9341 52.0397 84.9536 52.3553 84.6637 52.2782C84.7966 52.0376 84.8566 51.8121 84.8436 51.6017ZM93.8558 52.3426C93.9203 52.3597 93.9525 52.3683 93.9525 52.3683C93.8881 52.3512 93.8558 52.3426 93.8558 52.3426ZM93.9525 52.3683C94.777 52.3806 96.1741 51.407 96.4384 51.5807C96.241 51.8041 96.254 52.0146 96.4775 52.2119C97.2115 51.7863 96.902 51.3936 97.7914 51.9405C97.669 52.0114 97.0646 53.5063 96.3171 53.2041C96.7551 53.1136 96.9932 52.8665 97.0316 52.4628C96.5978 52.2784 96.1447 52.2959 95.6725 52.5153C95.6982 52.4186 94.6815 53.9073 94.6815 53.9073C94.5053 53.7915 94.2798 53.7315 94.005 53.7274C93.7469 53.1414 94.005 53.7274 93.1413 53.0839C93.5622 53.0578 93.8326 52.8193 93.9525 52.3683ZM86.8379 47.993C86.5223 48.0126 86.4257 47.9869 86.8379 47.993ZM84.7118 47.4277C84.7118 47.4277 84.671 47.4513 84.5895 47.4986C84.5422 47.417 84.583 47.3934 84.7118 47.4277ZM81.8589 48.4281C81.8589 48.4281 81.8675 48.3959 81.8846 48.3315C81.8846 48.3315 81.876 48.3637 81.8589 48.4281ZM81.1752 47.1081C81.1752 47.1081 81.2074 47.1166 81.2718 47.1338C81.2461 47.2304 81.2914 47.4494 81.1752 47.1081ZM70.3792 47.238C70.3148 47.2209 70.2503 47.2037 70.1859 47.1866C70.0379 47.3542 70.0122 47.4508 70.3792 47.238ZM70.314 36.9766C69.9878 37.1658 69.653 37.3872 69.3096 37.6408C69.7733 37.4537 70.1403 37.2409 70.314 36.9766ZM81.2639 109.424C81.1824 109.471 81.1245 109.559 81.0902 109.688C81.1889 109.576 81.2468 109.488 81.2639 109.424ZM81.2401 130.526C81.0207 130.054 80.8014 129.582 80.582 129.11C80.6293 129.191 80.7088 129.281 80.8206 129.38C81.0097 129.706 81.1496 130.088 81.2401 130.526ZM113.969 138.195C115.012 138.162 116.023 137.085 116.976 136.614C116.017 137.497 115.012 138.162 113.969 138.195ZM164.638 165.948C164.741 165.561 164.76 165.36 164.696 165.342C164.715 165.658 164.638 165.948 164.638 165.948ZM164.498 168.808C164.464 168.937 164.438 169.034 164.421 169.098C164.396 169.195 164.396 169.195 164.498 168.808ZM157.634 189.954C157.569 189.937 157.537 189.929 157.537 189.929C157.619 189.881 157.651 189.89 157.634 189.954ZM147.622 197.64C147.639 197.575 147.607 197.567 147.526 197.614C147.526 197.614 147.558 197.622 147.622 197.64ZM124.507 202.461C124.726 202.416 124.604 202.487 124.41 202.435C124.41 202.435 124.443 202.444 124.507 202.461ZM165.989 181.104C166.057 180.846 166.126 180.589 166.194 180.331C166.091 180.718 166.111 181.033 165.989 181.104ZM168.06 159.304C168.121 159.596 168.125 159.839 168.074 160.032C168.078 159.757 168.073 159.515 168.06 159.304ZM131.644 46.042C131.515 46.0078 131.427 45.9499 131.38 45.8683C131.444 45.8854 131.532 45.9433 131.644 46.042ZM60.4515 36.3201C60.1253 36.5092 59.7819 36.7629 59.4214 37.0809C59.8141 36.7714 60.2778 36.5843 60.4515 36.3201ZM66.0542 52.6069C65.9213 52.8474 65.7969 53.0558 65.681 53.232C65.6615 52.9163 65.7386 52.6264 66.0542 52.6069ZM84.7788 51.0671C84.8734 51.2302 84.895 51.4084 84.8436 51.6017C84.8134 51.4557 84.7918 51.2775 84.7788 51.0671ZM80.102 50.7547L80.1729 50.8771C80.4433 50.6385 80.321 50.7095 80.102 50.7547ZM75.5671 50.6871C75.4961 50.5647 73.9046 49.9346 73.7504 50.5144C73.9828 51.197 74.6007 50.4301 75.5671 50.6871ZM163.216 176.745L163.164 176.938C163.249 177.789 163.255 177.376 163.216 176.745ZM163.407 155.791C162.545 156.699 164.028 159.681 164.068 161.864C164.635 161.291 164.059 157.619 163.852 156.84C163.728 156.531 163.579 156.181 163.407 155.791ZM129.581 117.616C127.745 117.127 126.193 117.129 124.382 116.544C122.668 115.984 122.081 114.69 119.904 114.318C120.316 114.324 118.376 112.67 117.603 112.464C118.05 112.859 118.505 113.222 118.969 113.552C116.599 113.129 114.581 111.764 112.41 110.98C113.209 111.089 112.03 110.465 113.602 110.78C113.884 109.717 94.6167 108.628 92.028 109.803C84.2877 113.229 84.9255 122.504 90.0569 128.111C99.2433 138.314 116.689 131.468 124.799 122.759C126.35 121.206 128.803 119.375 129.581 117.616ZM133.358 119.758C133.246 119.659 133.134 119.561 133.023 119.462C133.506 119.591 133.898 119.281 133.538 119.082C133.619 119.034 133.692 119.019 133.757 119.036C133.492 118.863 133.35 118.618 132.829 119.411C132.572 119.342 132.357 119.63 132.186 120.274C132.534 120.781 132.925 120.609 133.358 119.758ZM134.285 119.384C134.221 119.367 134.124 119.341 133.995 119.307C133.961 119.436 133.813 119.603 133.551 119.81C133.903 120.041 134.148 119.899 134.285 119.384ZM133.995 119.307C134.029 119.178 133.95 119.088 133.757 119.036C133.804 119.118 133.883 119.208 133.995 119.307Z" fill="#100F12"/>
<path d="M95.6602 53.3398C96.0406 53.8548 95.9892 54.0481 96.1054 54.3894C96.6078 54.3161 96.9834 54.071 97.2321 53.6543C96.6653 53.7105 96.1413 53.6057 95.6602 53.3398Z" fill="#100F12"/>
<path d="M90.0455 47.6043L90.5483 48.0484C90.8187 47.8099 90.245 47.2434 90.0455 47.6043Z" fill="#100F12"/>
<path d="M87.7457 47.3031C87.868 47.2322 88.3451 47.773 88.4993 47.1931C88.1518 47.7216 87.9708 46.8456 87.7457 47.3031Z" fill="#100F12"/>
<path d="M87.7685 52.276C87.8333 52.8106 88.226 52.5012 88.5869 52.7006C88.297 52.6235 87.9422 52.0118 87.7685 52.276Z" fill="#100F12"/>
<path d="M85.305 48.3097C85.6142 48.185 85.9147 48.0924 86.2067 48.0321C85.7899 47.7833 85.5771 47.4163 85.5682 46.9311C85.0788 47.2148 84.903 47.6165 85.0408 48.136C85.7406 47.8392 85.8287 47.8971 85.305 48.3097Z" fill="#100F12"/>
<path d="M86.944 52.2637C87.1674 52.4611 87.3909 52.6585 87.6143 52.8559C87.6842 51.4258 87.1373 52.3151 86.944 52.2637Z" fill="#100F12"/>
<path d="M83.6745 47.0483C84.1597 47.0394 84.6234 46.8523 85.0654 46.4869C83.951 46.3975 83.9191 46.9064 83.6745 47.0483Z" fill="#100F12"/>
<path d="M84.238 51.5442C84.0129 52.0017 83.3621 51.7251 83.981 52.5106C84.3073 52.3214 84.3929 51.9992 84.238 51.5442Z" fill="#100F12"/>
<path d="M83.5677 50.952C83.2887 51.2227 83.0098 51.4935 82.7308 51.7642C83.1236 51.4547 83.3939 51.2162 83.5677 50.952Z" fill="#100F12"/>
<path d="M74.1471 46.6878C74.2952 46.5203 73.5734 46.1214 74.0052 46.4432C73.8572 46.6107 74.3856 46.9582 74.1471 46.6878Z" fill="#100F12"/>
<path d="M75.9927 51.4211C75.7285 51.2474 74.9945 51.673 74.6531 51.7892C75.0911 51.6987 75.9866 51.8334 75.9927 51.4211Z" fill="#100F12"/>
<path d="M61.8042 54.581C62.1434 54.6022 62.3559 54.4517 62.4416 54.1296C60.04 55.7674 61.946 54.8256 61.8042 54.581Z" fill="#100F12"/>
<path d="M58.8608 55.1434C58.9122 54.9502 59.2021 55.0273 59.0602 54.7826C58.9893 54.6602 58.6932 54.9954 58.8608 55.1434Z" fill="#100F12"/>
<path d="M45.7048 42.7462C45.7048 42.7462 45.7758 42.8686 45.5434 42.1859C44.7261 43.3138 45.2155 43.03 45.7048 42.7462Z" fill="#100F12"/>
<path d="M50.7103 34.0401C50.555 33.0676 50.4902 32.533 50.4707 32.2173C50.0718 32.9391 50.4583 33.0419 50.7103 34.0401Z" fill="#100F12"/>
<path d="M55.6183 5.85484C55.8116 5.90624 55.9596 5.73865 56.082 5.66771C55.7725 5.27499 55.644 5.7582 55.6183 5.85484Z" fill="#100F12"/>
</g>
<defs>
<clipPath id="clip0_28_35734">
<rect width="178" height="163" fill="white" transform="translate(0.865479 172.066) rotate(-75.1087)"/>
</clipPath>
</defs>
</svg>
