<svg width="249" height="201" viewBox="0 0 249 201" fill="none" xmlns="http://www.w3.org/2000/svg">
<g clip-path="url(#clip0_56_61690)">
<path d="M140.403 3H104.979C104.159 3 103.687 3.93294 104.174 4.5932L109.429 11.7248C109.748 12.1576 109.667 12.7651 109.247 13.1001L78.7346 37.4146C78.3216 37.7437 77.7241 37.695 77.3698 37.3035L69.3043 28.389C68.8856 27.9262 68.1499 27.9558 67.7697 28.4507L45.6833 57.2048C44.9944 58.1017 46.0901 59.2733 47.0311 58.646L63.915 47.39C64.266 47.156 64.726 47.1674 65.0649 47.4185L77.3894 56.5477C77.7503 56.815 78.2451 56.809 78.5993 56.5329L111.469 30.914C111.79 30.6637 112.231 30.6331 112.583 30.8365L124.07 37.4634C124.573 37.7534 125.216 37.5561 125.469 37.0341L141.302 4.4369C141.625 3.77274 141.141 3 140.403 3Z" fill="#FFD469"/>
<path d="M104 73H126C127.606 73 128.927 74.2642 128.997 75.8684L132.862 163.868C132.937 165.575 131.574 167 129.865 167H104C102.343 167 101 165.657 101 164V76C101 74.3431 102.343 73 104 73Z" fill="#91CDA1"/>
<path fill-rule="evenodd" clip-rule="evenodd" d="M248.4 159.7C248.2 159.9 248.033 160.067 247.9 160.2C248.1 160.5 248.1 160.8 248 161.3C247.4 163.2 236.5 171.7 234.5 172C234.2 172 233.9 172 233.7 171.9C233.5 171.967 233.3 172 233.1 172C232.5 172 232 171.8 231.5 171.2C231 170.3 230.7 166.3 230.4 162.3C230.333 162.234 230.3 162.167 230.3 162.1C193.1 165 68.7 171.8 27.5 173.5C28 183.2 28.2 190.3 28.2 193.3C28.2 199.5 27.8 200.5 27.3 200.5C26.7 200.5 26.2 199.5 25.4 193.6C25 190.6 24.4 183.4 23.7 173.6C20.4 173.7 17.9 173.8 16.3 173.8C7.99999 173.9 7.19999 173.5 7.19999 173C7.09999 172.4 8.09999 171.9 16 171C17.6 170.8 20.2 170.6 23.5 170.3C22.4 154.3 21 132.4 19.7 110.4C18.6 91.6003 17.6 72.8003 16.8 57.7003C16.2 42.6003 15.4 31.3003 15.1 27.3003C15.0333 26.2336 15 25.3003 15 24.5003C12 24.9003 9.29999 25.2003 8.49999 24.9003C7.79999 24.7003 7.59999 24.3003 7.49999 23.8003C7.43332 23.4669 7.43332 23.1669 7.49999 22.9003C7.39999 22.8003 7.29999 22.7003 7.29999 22.5003C6.99999 21.5003 8.09999 17.7003 9.79999 14.1003C11.5 10.6003 13.6 7.30028 14.5 6.80028C15.1 6.40028 15.5 6.60028 16 6.80028C16.2 6.93361 16.3667 7.06694 16.5 7.20028C16.5667 7.20028 16.6333 7.20028 16.7 7.20028C17.7 7.30028 20.2 9.70028 22.1 12.7003C23.8 15.3003 24.9 18.2003 25 19.4003C25.2 19.4669 25.3667 19.5336 25.5 19.6003C26.2 19.9003 26.3 20.3003 26.4 20.8003C26.5 21.4003 26.4 21.9003 25.8 22.4003C25.1 23.0003 21.2 23.7003 17.4 24.2003C17.5333 24.9336 17.7 25.8003 17.9 26.8003C18.3 28.8003 18.9 32.7003 19.4 37.9003C19.9 43.2003 20.3 49.8003 20.8 57.4003C21.9 72.5003 23 91.2003 24.1 110C25.4 132 26.6 154 27.3 170.1C30.1 169.9 33.2667 169.667 36.8 169.4C36.7333 169.2 36.6667 168.967 36.6 168.7C35.3 163.9 34.3 123.4 35.1 118.6C35.3 117.9 35.4 117.4 35.5 117.1C35.1 116.9 34.8 116.5 34.7 115.9C34.6 114.9 36.3 111.3 38.3 108C39.9 105.4 41.7 103 42.8 101.8C42.9 101.4 43 101.1 43.1 100.6C43.5 99.7003 44.3 98.9003 45 98.4003C46.6 97.4003 48 97.4003 49 97.2003L52.3 96.7003C54.5 96.4336 56.7333 96.2336 59 96.1003C61.2 95.9669 63.4333 95.9003 65.7 95.9003H69L70.7 96.0003C71.1 96.0003 72.4 96.0003 73.3 96.6003C74.2 97.0003 74.9 97.9003 75.1 99.0003C75.4 100.2 75.3 100.6 75.4 101.2C75.4 102.267 75.4333 103.334 75.5 104.4C75.5667 106.534 75.6333 108.634 75.7 110.7C76 119 76.3 126.9 76.5 134C76.9 148.1 77.2 158.7 77.1 162.5C77 164.5 77 165.9 76.9 166.9C80.9 166.634 85.0333 166.4 89.3 166.2C89.2333 165.934 89.1666 165.667 89.1 165.4C87.8 158.6 86.4 101.8 87.1 94.9003C87.3 93.3003 87.5 92.6003 87.8 92.3003C87.5 92.0003 87.4 91.6003 87.4 91.0003C87.5 89.8003 90.1 85.3003 93.2 81.2003C95.4 78.2003 97.9 75.3003 99.4 73.8003C99.6 73.1336 99.8666 72.4669 100.2 71.8003C101.1 70.2003 102.6 68.7003 104.3 68.0003C105.9 67.2003 107.6 66.9003 109.2 66.7003C112.4 66.5003 115.1 66.6003 118 66.5003C120.933 66.5003 123.833 66.4669 126.7 66.4003H128.9C129.6 66.4003 130.3 66.4003 131.2 66.4003C132.1 66.5003 133.1 66.6003 134.2 67.3003C135.3 67.9003 136.1 69.1003 136.4 70.1003C136.8 71.2003 136.8 72.0003 136.8 72.8003L136.9 75.0003C136.9 76.4669 136.9 77.8669 136.9 79.2003C136.967 82.0669 137.033 84.8669 137.1 87.6003C137.2 98.6003 137.3 109 137.4 118.3C137.6 136.9 137.6 151 137.5 155.9C137.3 160.1 137.2 162.3 136.9 163.5C142.633 163.167 148.267 162.867 153.8 162.6C153.6 161.9 153.3 160.7 153.1 158.7C151.7 147.7 149.9 55.9003 150.7 44.8003C150.7 43.6003 150.8 42.7003 150.9 42.1003C150.9 41.9003 150.9 41.7003 150.9 41.5003C150.9 40.1003 153.2 34.7003 155.7 29.4003C157.6 25.3003 160 21.3003 161.5 19.3003C161.5 19.1003 161.5 18.9003 161.6 18.7003C162 17.4003 162.8 16.0003 163.9 15.0003C165 14.0003 166.2 13.4003 167.4 13.0003C169.8 12.1003 172.2 11.9003 174.3 11.8003C176.5 11.6003 178.7 11.5003 180.9 11.5003C185.2 11.4003 189.6 11.6003 194 12.0003C195 12.1003 196.1 12.1003 197.5 12.5003C198.2 12.7003 199 13.0003 199.7 13.5003C200.4 14.1003 201 14.9003 201.3 15.7003C202 17.2003 202 18.5003 202 19.6003L202.1 22.8003C202.2 31.3003 202.4 39.7003 202.6 47.8003C202.9 64.2003 203.2 79.6003 203.4 93.5003C203.9 121.1 204.1 141.9 204.1 149.3C204 154.9 203.9 158.2 203.7 160C214.5 159.5 223.6 159.1 230.1 158.8C229.8 156.2 229.6 153.9 229.9 153.3C230.1 152.5 230.5 152.4 231 152.3C231.133 152.234 231.267 152.2 231.4 152.2C231.267 152.067 231.133 151.967 231 151.9C230.5 151.4 230.5 151 230.6 150.5C230.6 149.9 230.7 149.4 231.6 149.1C232.2 149 233.7 149.2 235.4 149.9C237.1 150.7 238.9 151.7 240.7 152.8C244.3 154.9 247.8 157.3 248.3 158.2C248.7 158.8 248.6 159.3 248.4 159.7ZM15.5 18.6003C15.5 18.4669 15.5 18.3669 15.5 18.3003C15.2333 18.9669 15 19.5669 14.8 20.1003C14.8 20.1669 14.8 20.2003 14.8 20.2003C14.8667 20.2003 14.9667 20.1669 15.1 20.1003V19.7003C15.3 19.2003 15.4 18.9003 15.5 18.6003ZM16.7 12.5003C16.4333 12.1003 16.1667 11.7003 15.9 11.3003C15.7667 11.7003 15.6333 12.0669 15.5 12.4003C15.6333 12.4669 15.8 12.5669 16 12.7003C16.2 12.5669 16.4333 12.5003 16.7 12.5003ZM73.2 147.5C71.3 148.6 66.5 150.6 61.8 152.3C56.5 154.1 51.3 155.7 49.4 155.9C49.5 159.7 49.6 162.5 49.5 164.1C49.5 164.434 49.5 164.734 49.5 165C49.7 164.8 49.9 164.7 50.2 164.4C50.8 163.9 51.8 163.3 52.8 162.7C55 161.4 57.7 160.2 60.5 159.2C63.2 158.2 65.9 157.3 68 156.5C70.2 155.7 71.7 155 72.4 154.9C73 154.8 73.4 154.9 73.7 155.1C73.5 152.9 73.3333 150.367 73.2 147.5ZM47.1 103C47.1 103.8 47.2 105 47.2 106C47.2667 106.667 47.3 107.3 47.3 107.9C48.7 106.8 53.4 104.6 58.4 102.9C61.6 101.7 64.9 100.8 67.3 100.3H65.8C63.6667 100.3 61.5333 100.367 59.4 100.5C57.2667 100.634 55.1333 100.834 53 101.1L49.8 101.5C48.7 101.6 47.8 101.8 47.4 102C47.3 102.2 47.3 102.2 47.2 102.2C47.2 102.3 47.1 102.6 47.1 103ZM47.5 168.7C47.5 168.634 47.4667 168.567 47.4 168.5C47.3333 168.5 47.3 168.467 47.3 168.4C47.3 168.4 47.3 168.367 47.3 168.3C47.4 168.1 47.3 168 47.2 167.6C47.0667 166.8 46.9 165.7 46.7 164.3C46.2 160.6 45.5 150 44.6 135.9C44.2 128.9 43.7 121 43.2 112.7C43.1333 111.434 43.0667 110.134 43 108.8C42.7333 109.267 42.4667 109.734 42.2 110.2C40.3 113.3 38.3 116.3 37.4 117.1C37.6 117.367 37.8 117.834 38 118.5C39.2 123.3 40.2 163.6 39.4 168.6C39.3333 168.8 39.3 169 39.3 169.2C41.8 169.1 44.6 168.9 47.5 168.7ZM47.8 118.4C52.3 116 68.4 110.5 70.8 110.6C71 110.6 71.2 110.634 71.4 110.7C71.2667 108.1 71.1667 105.434 71.1 102.7C69.6 103.6 64.8 105.3 59.9 107C54.7 108.8 49.4 110.7 48.2 110.8C47.8667 110.8 47.6333 110.767 47.5 110.7C47.5 111.234 47.5 111.767 47.5 112.3C47.6333 114.367 47.7333 116.4 47.8 118.4ZM48.4 130.2C50.7 129.2 54.9 127.8 59.1 126.4C64.8 124.6 70.5 122.8 71.9 122.8H72C71.8 119.7 71.7 116.6 71.5 113.4C68.8 115.4 51.1 121.5 48 121.7C48.1333 124.634 48.2667 127.467 48.4 130.2ZM48.8 141.2C51.2 140.4 55.1 139.2 59.1 138.1C64.7 136.5 70.3 134.9 71.6 135C72.1 135 72.3 135.1 72.6 135.2C72.5333 134.867 72.5 134.567 72.5 134.3C72.4 131.6 72.3 128.8 72.1 125.9C70.2 127.1 65.4 129 60.5 130.6C55.7 132.2 50.8 133.4 48.5 133.7C48.5667 134.367 48.6 135 48.6 135.6C48.6667 137.534 48.7333 139.4 48.8 141.2ZM49 144.8C49.0667 147.6 49.1667 150.167 49.3 152.5C51.5 151.4 55.8 149.7 60.3 148.2C65.9 146.2 71.5 144.3 72.9 144.3C73 144.3 73 144.4 73 144.4C72.9333 142.2 72.8333 139.9 72.7 137.5C72.6 137.6 72.6 137.6 72.5 137.7C71.5 138.6 66 140.7 60.4 142.3C55.9 143.6 51.3 144.6 49 144.8ZM74.9 167C74.7 166 74.5 164.7 74.3 162.7C74.1 161.5 74 159.7 73.8 157.3C73.4 157.9 71.9 159 69.7 160.1C67.6 161.2 64.8 162.3 62.1 163.3C59.4 164.3 56.7 165.3 54.7 166.2C53.7 166.7 52.8 167.1 52 167.4C51.2 167.8 50.4 168 50 168C49.7333 168 49.5333 167.967 49.4 167.9C49.3333 168.167 49.2667 168.4 49.2 168.6C57 168.1 65.7 167.6 74.9 167ZM103.6 165.3C103.2 164.5 102.7 162.5 102 157.9C101.2 153 99.7 138.9 98.9 120.3C98.5 111 98.3 100.5 98.4 89.5003C98.4 86.8336 98.4333 84.1336 98.5 81.4003C97.9 82.1336 97.3333 82.9336 96.8 83.8003C93.8 87.8003 90.8 91.8003 89.8 92.5003C89.6667 92.6336 89.5333 92.7336 89.4 92.8003C89.6 93.2003 89.8 93.8003 90 94.8003C91.3 101.5 92.7 158.4 92 165.3C91.9333 165.567 91.9 165.8 91.9 166C95.7667 165.8 99.6666 165.567 103.6 165.3ZM135.6 163.6C135.3 162.4 135 160.2 134.7 156.1C134.3 151.2 133.9 137.1 133.4 118.5C133.2 109.3 133 98.8003 132.8 87.8003C132.733 85.0669 132.667 82.3003 132.6 79.5003C132.6 78.1003 132.567 76.7003 132.5 75.3003C132.5 73.8003 132.5 72.3003 132.3 71.6003C132.2 71.2003 132.1 71.1003 132 71.1003C131.9 71.0003 131.5 70.9003 131 70.8003C130.5 70.8003 129.8 70.8003 129.1 70.8003H126.9C124.033 70.8669 121.167 70.9003 118.3 70.9003C112.6 71.2003 105.9 70.2003 104.1 73.8003C103.1 75.6003 102.9 78.3003 102.9 81.1003C102.833 83.9003 102.767 86.6669 102.7 89.4003C102.5 100.3 102.6 110.7 102.9 120C103.4 138.5 104.6 152.5 104.8 157.5C105 162.4 104.9 164.4 104.7 165.3C114.9 164.7 125.3 164.1 135.6 163.6ZM200.4 128.3C198 128.8 191.3 129.3 184.5 129.4C177 129.5 169.4 129.3 167.8 128.8C167.6 128.8 167.4 128.7 167.3 128.6C167.3 129.6 167.267 130.567 167.2 131.5C167.1 141.1 167.2 148.1 167.2 151.8C167.2 152.2 167.2 152.5 167.2 152.9C167.333 152.767 167.567 152.667 167.9 152.6C171 151.4 196.8 151 201.4 151.8C201.333 151.067 201.267 150.334 201.2 149.6C201.1 147.7 201 144.9 200.9 141.4C199.3 142.1 192.1 143.1 184.8 143.2C177.5 143.3 170.2 142.6 168.6 142C167.5 141.6 167.4 141.1 167.4 140.6C167.4 140 167.6 139.6 168.8 139.2C170.4 138.8 177.5 138.9 184.7 138.8C191.8 138.7 199 138.3 200.6 138.6C200.667 138.6 200.733 138.6 200.8 138.6C200.667 135.6 200.533 132.167 200.4 128.3ZM200 114C197.4 114.6 190.9 115 184.3 115C176.9 115 169.4 114.3 167.8 113.7C167.533 113.634 167.333 113.534 167.2 113.4C167.3 118 167.3 122.3 167.3 126.3C167.433 126.167 167.633 126.067 167.9 126C169.5 125.4 176.9 125.1 184.3 125C191.1 124.9 197.9 124.8 200.3 125.2C200.167 121.734 200.067 118 200 114ZM198.5 56.3003C197.3 56.4003 195.5 56.5003 193.2 56.7003C190.1 56.8003 186.3 57.2003 182.4 57.5003C178.5 57.8003 174.5 58.0003 171.2 58.0003C168 57.9003 165.6 57.6003 164.7 57.3003C164.767 61.1669 164.9 64.9669 165.1 68.7003C165.3 68.6003 165.4 68.5003 165.6 68.4003C168.7 67.2003 193.4 66.3003 198.7 66.9003C198.633 63.4336 198.567 59.9003 198.5 56.3003ZM165.2 26.1003C165.3 26.0003 165.4 26.0003 165.6 25.9003C167.2 25.4003 174.5 25.2003 181.8 24.9003C188.7 24.7003 195.6 24.4003 197.7 24.6003C197.7 24.1336 197.7 23.6336 197.7 23.1003L197.6 20.0003C197.6 18.9003 197.5 18.0003 197.4 17.5003C197.2 17.1003 197.2 17.0003 196.5 16.8003C195.9 16.6003 194.9 16.5003 193.8 16.4003C189.6 16.0003 185.4 15.8336 181.2 15.9003C179.067 15.9003 176.967 16.0003 174.9 16.2003C172.7 16.3003 170.8 16.5003 169.1 17.0003C167.4 17.6003 166.3 18.5003 165.9 19.8003C165.4 21.1003 165.4 23.5003 165.2 25.6003C165.2 25.7336 165.2 25.9003 165.2 26.1003ZM164.6 39.5003C164.7 39.4003 164.7 39.4003 164.8 39.4003C166.4 38.9003 174 38.7003 181.5 38.6003C188.8 38.4003 196 38.2003 198 38.5003C197.933 34.9003 197.867 31.3003 197.8 27.7003C195.5 28.4003 188.8 29.1003 182 29.3003C174.6 29.6003 167.2 29.2003 165.6 28.7003C165.4 28.6336 165.2 28.5669 165 28.5003C164.8 32.1669 164.667 35.8336 164.6 39.5003ZM164.6 50.4003C164.6 51.8003 164.6 53.1669 164.6 54.5003C164.7 54.5003 164.8 54.5003 164.9 54.4003C165.7 54.2003 168 54.1003 171.1 53.9003C174.2 53.8003 178 53.4003 182 53.1003C185.9 52.8003 189.9 52.6003 193.1 52.6003C195.3 52.7003 197.2 52.9003 198.4 53.1003C198.333 51.4336 198.3 49.8003 198.3 48.2003C198.2 46.0003 198.2 43.7003 198.1 41.5003C195.9 42.2003 188.8 42.8003 181.7 43.0003C174.1 43.1003 166.4 42.7003 164.8 42.2003C164.7 42.2003 164.7 42.2003 164.6 42.1003C164.533 44.9003 164.533 47.6669 164.6 50.4003ZM165.2 162C164.9 160.2 164.7 157.3 164.4 152.1C164.1 148.4 163.8 141.3 163.7 131.7C163.7 122.1 163.3 110.1 162.5 96.4003C161.7 82.6003 160.5 67.1003 160.3 50.7003C160.2 43.7003 160.2 36.6003 160.6 29.3003C160.333 29.9669 160.033 30.6003 159.7 31.2003C157.2 36.5003 154.5 41.8003 153.4 42.7003C153.4 42.8003 153.3 42.8003 153.2 42.9003C153.267 43.3669 153.367 43.9669 153.5 44.7003C154.9 55.7003 156.7 147.5 155.9 158.6C155.8 160.6 155.6 161.8 155.4 162.5C158.733 162.3 162 162.134 165.2 162ZM165.8 83.6003C166 83.3003 166.3 83.0003 166.9 82.8003C170 81.5003 195.8 80.5003 199 81.4003C199 81.4003 199 81.4003 199.1 81.4003C198.967 77.7336 198.867 73.9669 198.8 70.1003C193.3 71.2003 168.8 72.1003 165.7 71.3003C165.5 71.2336 165.333 71.1669 165.2 71.1003C165.4 75.3669 165.6 79.5336 165.8 83.6003ZM166.6 98.1003C166.7 97.6003 166.9 97.2003 167.9 96.9003C169.4 96.4003 176.5 96.4003 183.7 96.4003C190.8 96.3003 197.9 96.1003 199.5 96.5003C199.5 95.6003 199.4 94.7003 199.4 93.8003C199.333 90.6669 199.267 87.4669 199.2 84.2003C199.2 84.2003 199.167 84.2003 199.1 84.2003C196.1 85.5003 170.2 86.4003 167.1 85.6003C166.4 85.4003 166.1 85.2003 165.9 85.0003C166.1 88.7336 166.3 92.3669 166.5 95.9003C166.5 96.6003 166.5 97.3003 166.6 98.1003ZM166.6 98.9003C166.8 103.2 167 107.4 167.1 111.3C167.3 111.167 167.567 111.034 167.9 110.9C169.6 110.4 176.9 110.5 184.3 110.6C190.8 110.6 197.4 110.6 199.9 110.8C199.767 107.2 199.667 103.4 199.6 99.4003C197.8 100 190.8 100.7 183.8 100.8C176.5 100.9 169.3 100.3 167.8 99.8003C167 99.5003 166.7 99.2003 166.6 98.9003ZM202.2 160.1C202 158.9 201.8 157.2 201.6 154.7C197.5 155.9 171.2 156.3 168 155.4C167.6 155.3 167.3 155.2 167.1 155C167.1 158.4 166.9 160.5 166.8 161.9C179.6 161.2 191.7 160.6 202.2 160.1ZM233.7 153.6C233.633 153.6 233.6 153.567 233.6 153.5C233.333 153.367 233.1 153.234 232.9 153.1C233.033 153.3 233.167 153.6 233.3 154C233.3 153.934 233.333 153.9 233.4 153.9C233.467 153.767 233.567 153.667 233.7 153.6ZM236.7 161.6C236.633 161.6 236.533 161.634 236.4 161.7V161.9C236.533 161.767 236.633 161.667 236.7 161.6ZM241.7 158.4C241.433 158.267 241.167 158.134 240.9 158C241.033 158.2 241.133 158.367 241.2 158.5C241.4 158.434 241.567 158.4 241.7 158.4Z" fill="#1E1C21"/>
<path d="M39.4 168.6C40.2 163.6 39.2 123.3 38 118.5C37.8 117.833 37.6 117.366 37.4 117.1C38.3 116.3 40.3 113.3 42.2 110.2C42.4667 109.733 42.7333 109.266 43 108.8C43.0667 110.133 43.1333 111.433 43.2 112.7C43.7 121 44.2 128.9 44.6 135.9C45.5 150 46.2 160.6 46.7 164.3C46.9 165.7 47.0667 166.8 47.2 167.6C47.3 168 47.4 168.1 47.3 168.3C47.3 168.366 47.3 168.4 47.3 168.4C47.2333 168.4 47.2 168.4 47.2 168.4C47.1 168.3 47 168.3 46.9 168.4C46.9 168.5 47 168.7 47.2 168.6C47.2 168.6 47.2333 168.533 47.3 168.4C47.3 168.466 47.3333 168.5 47.4 168.5C47.4667 168.566 47.5 168.633 47.5 168.7C44.6 168.9 41.8 169.1 39.3 169.2C39.3 169 39.3333 168.8 39.4 168.6Z" fill="#1E1C21"/>
<path d="M155.9 158.6C156.7 147.5 154.9 55.6998 153.5 44.6998C153.367 43.9665 153.267 43.3665 153.2 42.8998C153.3 42.7998 153.4 42.7998 153.4 42.6998C154.5 41.7998 157.2 36.4998 159.7 31.1998C160.033 30.5998 160.333 29.9665 160.6 29.2998C160.2 36.5998 160.2 43.6998 160.3 50.6998C160.5 67.0998 161.7 82.5998 162.5 96.3998C163.3 110.1 163.7 122.1 163.7 131.7C163.8 141.3 164.1 148.4 164.4 152.1C164.7 157.3 164.9 160.2 165.2 162C162 162.133 158.733 162.3 155.4 162.5C155.6 161.8 155.8 160.6 155.9 158.6Z" fill="#1E1C21"/>
<path d="M92 165.3C92.7 158.4 91.3 101.5 90 94.8004C89.8 93.8004 89.6 93.2004 89.4 92.8004C89.5333 92.7337 89.6667 92.6337 89.8 92.5004C90.8 91.8004 93.8 87.8004 96.8 83.8004C97.3333 82.9337 97.9 82.1337 98.5 81.4004C98.4333 84.1337 98.4 86.8337 98.4 89.5004C98.3 100.5 98.5 111 98.9 120.3C99.7 138.9 101.2 153 102 157.9C102.7 162.5 103.2 164.5 103.6 165.3C99.6667 165.567 95.7667 165.8 91.9 166C91.9 165.8 91.9333 165.567 92 165.3Z" fill="#1E1C21"/>
<path d="M47.3 168.4C47.2333 168.534 47.2 168.6 47.2 168.6C47 168.7 46.9 168.5 46.9 168.4C47 168.3 47.1 168.3 47.2 168.4C47.2 168.4 47.2333 168.4 47.3 168.4Z" fill="#1E1C21"/>
<path fill-rule="evenodd" clip-rule="evenodd" d="M38.7 65C39.8 62.3 44.6 53.7999 51.8 44.0999C55.5 39.1999 59.7 33.9999 64.4 28.9C65 28.3 65.5 27.7 66.2 27C66.9 26.3 67.9 25.4 69.6 25.1C71.3 24.9 72.7 25.7 73.6 26.4C74.5 27.1 75.1 27.8 75.6 28.4C76.8 29.6666 77.9667 30.8999 79.1 32.0999C79.6333 32.6999 80.2 33.3 80.8 33.9L81 34.0999L81.1 34.2C86.6 29.5 91.7 25.2 95.7 21.7C100.2 18 103.5 15.3 105 14.2C106 13.5 106.7 13 107.3 12.7C105.6 12.1 101 5.59995 101.1 4.19995C101.2 3.89995 101.4 3.69995 101.6 3.39995C101.4 3.19995 101.4 2.99995 101.4 2.79995C101.4 2.19995 101.6 1.69995 103.1 1.29995C105.1 0.799951 114.7 0.799951 124.2 0.999951C129 1.09995 133.8 1.29995 137.6 1.49995C139.5 1.59995 141.2 1.69995 142.5 1.79995C143.167 1.86662 143.767 1.93328 144.3 1.99995C144.5 2.06662 144.7 2.09995 144.9 2.09995C145.2 2.19995 145.5 2.19995 145.7 2.29995C146.2 2.59995 146.6 2.89995 146.8 3.29995C146.867 3.29995 146.9 3.33328 146.9 3.39995C147.2 3.19995 147.5 3.19995 147.7 3.29995C148.3 3.59995 148.6 4.09995 148.2 5.99995C147.8 7.69995 145.3 13.4999 141.9 20.2999C140.2 23.6999 138.2 27.3 136.2 30.9C135.2 32.6999 134.2 34.4333 133.2 36.0999C131.8 38.4999 130.5 40.8 129.2 42.9C128 41.9666 126.833 41.0666 125.7 40.2C125.033 39.7333 124.433 39.2666 123.9 38.7999C122.833 37.9333 121.867 37.1333 121 36.4C119.3 35 118.1 33.8999 117.6 33.2999C117.2 32.8999 116.933 32.5666 116.8 32.2999C116.4 32.7999 115.9 33.5 115.1 34.5C113.2 36.5 106.5 42.5 97.9 50C95.7667 51.8666 93.5333 53.7999 91.2 55.7999C88.7333 57.8666 86.2333 60 83.7 62.2C82.5 63.2 80.7 63.2 79.3 62.4C77.8 61.5 77.6 60.8999 77 60.2999L73.6 56.7999C72.5333 55.6666 71.4333 54.5333 70.3 53.4L68.7 51.5999C68 50.8999 68.3 51.1999 68.2 51.0999C68.1 51.0999 68.2 51.1 68 51.2L66.8 51.9C66 52.3666 65.2 52.8333 64.4 53.2999C62.8 54.2999 61.2667 55.2666 59.8 56.2C56.9 58.1 54.1 59.9 51.7 61.5C46.9 64.6 43.4 67 41.9 67.9C39 69.6 38.5 69.5 38.1 69.2C37.6 68.9 37.4 68.2 38.7 65ZM43.6 62.7999C45.1 61.5999 47.2 60.1 49.5 58.4C51.9 56.7 54.6 54.7999 57.5 52.7999C58.9667 51.7999 60.5 50.7999 62.1 49.7999C62.9 49.2666 63.7333 48.7333 64.6 48.2L65.9 47.4C66.5 47 67.6 46.6 68.5 46.7C69.3 46.7 70 47 70.6 47.5C71.3 48 71.6 48.3999 71.8 48.5999L73.5 50.2999C74.5667 51.4333 75.6667 52.5999 76.8 53.7999L80.1 57.2999C80.6 57.7999 81.4 58.5 81.3 58.5C86.2 54.4 90.9 50.3999 95.2 46.7999C103.9 39.5999 110.9 33.8999 113.2 32.2999C115.9 30.4999 116.6 30.4 117 30.7C117.4 30.5 118 30.5 119.2 31C119.9 31.4 121.3 32.2 123.1 33.5C124.033 34.1 125.067 34.7999 126.2 35.5999C126.733 35.9999 127.3 36.3999 127.9 36.7999L128 36.7C128 36.7 128 36.6 128.1 36.5C128.5 35.7 128.967 34.8666 129.5 34C130.433 32.3333 131.4 30.5999 132.4 28.7999C134.3 25.2999 136.3 21.6999 138.1 18.4C141.7 11.7 144.5 6.19995 145.6 4.79995C145.667 4.66662 145.733 4.56662 145.8 4.49995C145.667 4.56662 145.533 4.69995 145.4 4.89995C145.3 4.99995 145.1 4.99995 145 5.09995C144.933 5.09995 144.9 5.09995 144.9 5.09995C144.9 5.09995 144.9 5.19995 144.9 4.99995C144.9 5.29995 144.9 5.09995 144.9 5.09995H144.8V5.19995H144.7H144.6C144.467 5.19995 144.333 5.19995 144.2 5.19995C143.733 5.26662 143.167 5.33328 142.5 5.39995C141.2 5.39995 139.5 5.49995 137.6 5.49995C133.7 5.49995 129 5.49995 124.2 5.39995C117 5.19995 109.7 4.89995 105.8 4.49995C107.7 6.69995 109.8 9.99995 109.7 11C109.6 11.5 109.3 11.9 109 12.2C108.933 12.2 108.867 12.2333 108.8 12.3C108.867 12.3666 108.933 12.4 109 12.4C109.4 12.9 109.2 13.6999 106.9 16.2999C105.7 17.5999 102.6 20.6 98.2 24.6C96.1 26.5 93.6 28.7 90.9 31.2C87.8 34 84.4 37 80.8 40.2C78.1 37.3 75.3 34.4 72.5 31.4C71.9 30.8 71.3 30.2 70.9 29.9C70.4 29.5 70.1 29.5 70.1 29.5C70.1 29.5 69.8 29.6 69.3 30.1L67.6 31.9C63.1 36.8 58.9 41.8999 55.2 46.5999C50.1 53.1999 46.1 59.0999 43.6 62.7999Z" fill="#1E1C21"/>
<path d="M53 180.1C52.5 179.8 52 179.8 51.5 179.9C51 180 50.5 180.1 50.2 180.6C49.9 181.2 49.9 183.5 50 185.8C50.1 188.1 50.2 190.4 50.8 190.9C51.2 191.3 51.7 191.4 52.3 191.4C52.8 191.5 53.2 191.4 53.6 191C54.1 190.5 54.5 188 54.4 185.5C54.3 182.9 53.7 180.5 53 180.1Z" fill="#1E1C21"/>
<path d="M85.8 179C85.3 179 84.9 179.1 84.5 179.4C83.5 180.3 83.5 188 84.7 188.8C85.1 189.1 85.6 189.1 86.2 189C86.7 189 87.1 188.9 87.5 188.5C88.4 187.5 88.5 180.3 87.3 179.4C86.9 179.1 86.4 179 85.8 179Z" fill="#1E1C21"/>
<path d="M120.5 178.1C120 178.2 119.6 178.2 119.2 178.6C118.3 179.6 118.5 186.8 119.7 187.6C120.2 187.8 120.7 187.9 121.3 187.8C121.8 187.8 122.2 187.7 122.5 187.3C123.5 186.4 123.2 179.1 122 178.4C121.6 178.1 121.1 178.1 120.5 178.1Z" fill="#1E1C21"/>
<path d="M158.2 177.2C157.8 176.9 157.3 176.9 156.7 176.9C156.2 176.9 155.7 177 155.4 177.3C154.4 178.1 154.6 184.6 155.8 185.3C156.2 185.5 156.7 185.5 157.3 185.4C157.8 185.4 158.2 185.3 158.6 184.9C159.5 184 159.4 177.9 158.2 177.2Z" fill="#1E1C21"/>
<path d="M191.5 175.3C191 175 190.5 175.1 189.9 175.1C189.4 175.1 189 175.2 188.6 175.5C187.7 176.4 187.9 183 189.1 183.6C189.5 183.9 190 183.9 190.6 183.9C191.1 183.8 191.6 183.7 191.9 183.4C192.8 182.5 192.6 176 191.5 175.3Z" fill="#1E1C21"/>
<path d="M14.9 150.7C15.1 150.2 15.1 149.7 15 149.1C15 148.7 14.8 148.2 14.5 147.9C13.6 147.1 7.1 148 6.6 149.2C6.4 149.7 6.5 150.2 6.6 150.8C6.7 151.2 6.8 151.7 7.2 152C8.2 152.8 14.4 151.9 14.9 150.7Z" fill="#1E1C21"/>
<path d="M9.10001 128.7C10.9 128.6 12.7 128 13 127.3C13.1 126.9 13.1 126.4 12.9 125.8C12.8 125.3 12.6 124.9 12.3 124.6C11.8 124.2 10.2 124.2 8.60001 124.3C7.00001 124.5 5.40001 124.7 5.10001 125.2C4.80001 125.6 4.80001 126.1 4.70001 126.7C4.70001 127.2 4.70001 127.7 5.00001 128C5.40001 128.5 7.30001 128.9 9.10001 128.7Z" fill="#1E1C21"/>
<path d="M11.3 105.2C11.5 104.7 11.5 104.2 11.4 103.6C11.3 103.1 11.2 102.7 10.8 102.4C10.4 101.9 8.40001 102 6.40001 102.4C4.50001 102.7 2.70001 103.5 2.50001 104.1C2.30001 104.6 2.40001 105.1 2.60001 105.7C2.70001 106.2 2.90001 106.6 3.30001 106.8C3.80001 107.2 5.70001 107 7.50001 106.6C9.30001 106.3 11 105.8 11.3 105.2Z" fill="#1E1C21"/>
<path d="M5.79999 83.3001C7.99999 82.9001 9.99999 82.1001 10.3 81.4001C10.5 80.9001 10.4 80.4001 10.2 79.8001C9.99999 79.4001 9.79999 79.0001 9.39999 78.7001C8.79999 78.4001 6.89999 78.6001 4.89999 79.0001C2.99999 79.3001 1.09999 79.7001 0.699993 80.3001C0.399993 80.8001 0.399993 81.3001 0.499993 81.9001C0.499993 82.4001 0.599993 82.8001 0.999993 83.1001C1.49999 83.6001 3.69999 83.7001 5.79999 83.3001Z" fill="#1E1C21"/>
<path d="M8.19999 56.4999C8.39999 56.0999 8.39999 55.5999 8.39999 54.9999C8.29999 54.4999 8.29999 54.0999 7.99999 53.6999C7.29999 52.6999 1.59999 52.6999 0.999988 53.7999C0.799988 54.2999 0.799988 54.7999 0.799988 55.3999C0.799988 55.8999 0.899988 56.2999 1.19999 56.6999C1.89999 57.5999 7.49999 57.6999 8.19999 56.4999Z" fill="#1E1C21"/>
</g>
<defs>
<clipPath id="clip0_56_61690">
<rect width="249" height="201" fill="white"/>
</clipPath>
</defs>
</svg>
