<svg width="100" height="100" viewBox="0 0 100 100" fill="none" xmlns="http://www.w3.org/2000/svg">
<circle cx="39.5" cy="35.5" r="16.5" fill="#0AB975" fill-opacity="0.13"/>
<path fill-rule="evenodd" clip-rule="evenodd" d="M42.5001 31.7584C41.76 31.2639 40.89 31 40 31C38.8065 31 37.6619 31.4741 36.818 32.318C35.9741 33.1619 35.5 34.3065 35.5 35.5C35.5 36.39 35.7639 37.26 36.2584 38.0001C36.7529 38.7401 37.4557 39.3169 38.2779 39.6575C39.1002 39.9981 40.005 40.0872 40.8779 39.9135C41.7508 39.7399 42.5526 39.3113 43.182 38.682C43.8113 38.0526 44.2399 37.2508 44.4135 36.3779C44.5872 35.505 44.4981 34.6002 44.1575 33.7779C43.8169 32.9557 43.2401 32.2529 42.5001 31.7584ZM35.8332 29.264C37.0666 28.4399 38.5166 28 40 28C41.9891 28 43.8968 28.7902 45.3033 30.1967C46.7098 31.6032 47.5 33.5109 47.5 35.5C47.5 36.9834 47.0601 38.4334 46.236 39.6668C45.4119 40.9001 44.2406 41.8614 42.8701 42.4291C41.4997 42.9968 39.9917 43.1453 38.5368 42.8559C37.082 42.5665 35.7456 41.8522 34.6967 40.8033C33.6478 39.7544 32.9335 38.418 32.6441 36.9632C32.3547 35.5083 32.5032 34.0003 33.0709 32.6299C33.6386 31.2594 34.5999 30.0881 35.8332 29.264ZM66.5001 43.7584C65.76 43.2639 64.89 43 64 43C62.8065 43 61.6619 43.4741 60.818 44.318C59.9741 45.1619 59.5 46.3065 59.5 47.5C59.5 48.39 59.7639 49.26 60.2584 50.0001C60.7529 50.7401 61.4557 51.3169 62.2779 51.6575C63.1002 51.9981 64.005 52.0872 64.8779 51.9135C65.7508 51.7399 66.5526 51.3113 67.182 50.682C67.8113 50.0526 68.2399 49.2508 68.4135 48.3779C68.5872 47.505 68.4981 46.6002 68.1575 45.7779C67.8169 44.9557 67.2401 44.2529 66.5001 43.7584ZM59.8332 41.264C61.0666 40.4399 62.5166 40 64 40C65.9891 40 67.8968 40.7902 69.3033 42.1967C70.7098 43.6032 71.5 45.5109 71.5 47.5C71.5 48.9834 71.0601 50.4334 70.236 51.6668C69.4119 52.9001 68.2406 53.8614 66.8701 54.4291C65.4997 54.9968 63.9917 55.1453 62.5368 54.8559C61.082 54.5665 59.7456 53.8522 58.6967 52.8033C57.6478 51.7544 56.9335 50.418 56.6441 48.9632C56.3547 47.5083 56.5032 46.0003 57.0709 44.6299C57.6386 43.2594 58.5999 42.0881 59.8332 41.264ZM71.5 70H74.5V65.5C74.5 63.5109 73.7098 61.6032 72.3033 60.1967C70.8968 58.7902 68.9891 58 67 58H61C59.0109 58 57.1032 58.7902 55.6967 60.1967C54.2902 61.6032 53.5 63.5109 53.5 65.5V70H56.5V65.5C56.5 64.3065 56.9741 63.1619 57.818 62.318C58.6619 61.4741 59.8065 61 61 61H67C68.1935 61 69.3381 61.4741 70.182 62.318C71.0259 63.1619 71.5 64.3065 71.5 65.5V70ZM50.5 58H47.5V53.5C47.5 52.3065 47.0259 51.1619 46.182 50.318C45.3381 49.4741 44.1935 49 43 49H37C35.8065 49 34.6619 49.4741 33.818 50.318C32.9741 51.1619 32.5 52.3065 32.5 53.5V58H29.5V53.5C29.5 51.5109 30.2902 49.6032 31.6967 48.1967C33.1032 46.7902 35.0109 46 37 46H43C44.9891 46 46.8968 46.7902 48.3033 48.1967C49.7098 49.6032 50.5 51.5109 50.5 53.5V58Z" fill="#0AB975"/>
</svg>
