<svg width="56" height="58" viewBox="0 0 56 58" fill="none" xmlns="http://www.w3.org/2000/svg">
<circle cx="18.4208" cy="18.4208" r="18.4208" fill="#0AB975" fill-opacity="0.13"/>
<path fill-rule="evenodd" clip-rule="evenodd" d="M15.5516 21.8804C16.529 22.5335 17.6781 22.882 18.8536 22.882C20.4293 22.8803 21.94 22.2535 23.0542 21.1393C24.1685 20.0251 24.7952 18.5144 24.797 16.9386C24.797 15.7631 24.4484 14.6141 23.7953 13.6367C23.1423 12.6593 22.214 11.8975 21.128 11.4477C20.042 10.9978 18.847 10.8801 17.6941 11.1094C16.5412 11.3388 15.4822 11.9048 14.651 12.736C13.8198 13.5672 13.2537 14.6262 13.0244 15.7791C12.7951 16.932 12.9127 18.1271 13.3626 19.2131C13.8124 20.2991 14.5742 21.2273 15.5516 21.8804ZM17.2026 14.4678C17.6913 14.1412 18.2658 13.9669 18.8536 13.9669C19.6415 13.9678 20.3968 14.2811 20.954 14.8382C21.5111 15.3954 21.8244 16.1507 21.8253 16.9386C21.8253 17.5264 21.651 18.1009 21.3245 18.5896C20.9979 19.0783 20.5338 19.4592 19.9908 19.6841C19.4478 19.9091 18.8503 19.9679 18.2738 19.8532C17.6974 19.7386 17.1679 19.4555 16.7523 19.0399C16.3367 18.6243 16.0536 18.0948 15.939 17.5184C15.8243 16.9419 15.8832 16.3444 16.1081 15.8014C16.333 15.2584 16.7139 14.7943 17.2026 14.4678ZM38.1696 54.0849H33.7121C32.9242 54.084 32.1688 53.7707 31.6117 53.2136C31.0545 52.6564 30.7412 51.9011 30.7404 51.1132V43.6839H33.7121V51.1132H38.1696V43.6839H41.1413V37.7405C41.1409 37.3466 40.9842 36.9689 40.7056 36.6903C40.4271 36.4118 40.0494 36.2551 39.6555 36.2547H26.6978L23.7261 27.3396H14.396C14.0021 27.34 13.6244 27.4967 13.3458 27.7753C13.0673 28.0538 12.9106 28.4315 12.9102 28.8254V37.7405H15.8819V51.1132H21.8253V40.7122H24.797V51.1132C24.7961 51.9011 24.4828 52.6564 23.9257 53.2136C23.3685 53.7707 22.6132 54.084 21.8253 54.0849H15.8819C15.094 54.084 14.3386 53.7707 13.7815 53.2136C13.2244 52.6564 12.911 51.9011 12.9102 51.1132V40.7122C12.1223 40.7114 11.3669 40.398 10.8098 39.8409C10.2527 39.2838 9.9393 38.5284 9.93848 37.7405V28.8254C9.93977 27.6436 10.4098 26.5106 11.2455 25.6749C12.0812 24.8392 13.2142 24.3692 14.396 24.3679H23.7261C24.3499 24.3674 24.9581 24.5634 25.4642 24.9281C25.9703 25.2928 26.3486 25.8077 26.5455 26.3996L28.8395 33.283H39.6555C40.8373 33.2843 41.9703 33.7543 42.806 34.59C43.6417 35.4257 44.1117 36.5587 44.113 37.7405V43.6839C44.1122 44.4718 43.7988 45.2272 43.2417 45.7843C42.6846 46.3414 41.9292 46.6548 41.1413 46.6556V51.1132C41.1405 51.9011 40.8271 52.6564 40.27 53.2136C39.7129 53.7707 38.9575 54.084 38.1696 54.0849ZM47.0847 54.0849V37.7405H51.5423V28.8254C51.5418 28.4315 51.3851 28.0538 51.1066 27.7753C50.828 27.4967 50.4503 27.34 50.0564 27.3396H44.113V24.3679H50.0564C51.2382 24.3692 52.3713 24.8392 53.2069 25.6749C54.0426 26.5106 54.5127 27.6436 54.5139 28.8254V37.7405C54.5131 38.5284 54.1998 39.2838 53.6426 39.8409C53.0855 40.398 52.3301 40.7114 51.5423 40.7122H50.0564V54.0849H47.0847ZM45.5989 22.882C44.4234 22.882 43.2743 22.5335 42.2969 21.8804C41.3195 21.2273 40.5577 20.2991 40.1079 19.2131C39.658 18.1271 39.5403 16.932 39.7697 15.7791C39.999 14.6262 40.565 13.5672 41.3962 12.736C42.2274 11.9048 43.2865 11.3388 44.4394 11.1094C45.5923 10.8801 46.7873 10.9978 47.8733 11.4477C48.9593 11.8975 49.8875 12.6593 50.5406 13.6367C51.1937 14.6141 51.5423 15.7631 51.5423 16.9386C51.5405 18.5144 50.9137 20.0251 49.7995 21.1393C48.6853 22.2535 47.1746 22.8803 45.5989 22.882ZM45.5989 13.9669C45.0111 13.9669 44.4366 14.1412 43.9479 14.4678C43.4592 14.7943 43.0783 15.2584 42.8534 15.8014C42.6284 16.3444 42.5696 16.9419 42.6843 17.5184C42.7989 18.0948 43.0819 18.6243 43.4975 19.0399C43.9131 19.4555 44.4427 19.7386 45.0191 19.8532C45.5956 19.9679 46.1931 19.9091 46.7361 19.6841C47.2791 19.4592 47.7432 19.0783 48.0697 18.5896C48.3963 18.1009 48.5706 17.5264 48.5706 16.9386C48.5697 16.1507 48.2564 15.3954 47.6993 14.8382C47.1421 14.2811 46.3867 13.9678 45.5989 13.9669ZM33.0516 30.9207C33.9068 31.4921 34.9123 31.7971 35.9408 31.7971C37.3196 31.7955 38.6414 31.2471 39.6163 30.2722C40.5913 29.2972 41.1397 27.9754 41.1413 26.5967C41.1413 25.5681 40.8363 24.5626 40.2649 23.7074C39.6934 22.8522 38.8812 22.1857 37.931 21.792C36.9807 21.3984 35.9351 21.2954 34.9263 21.4961C33.9175 21.6968 32.9908 22.1921 32.2635 22.9194C31.5362 23.6467 31.041 24.5733 30.8403 25.5821C30.6396 26.5909 30.7426 27.6365 31.1362 28.5868C31.5298 29.5371 32.1964 30.3493 33.0516 30.9207ZM34.7026 24.7435C35.0691 24.4986 35.5 24.3679 35.9408 24.3679C36.5317 24.3686 37.0982 24.6036 37.5161 25.0214C37.9339 25.4392 38.1689 26.0058 38.1696 26.5967C38.1696 27.0375 38.0389 27.4684 37.794 27.8349C37.5491 28.2014 37.201 28.4871 36.7938 28.6558C36.3865 28.8245 35.9384 28.8686 35.506 28.7826C35.0737 28.6966 34.6766 28.4843 34.3649 28.1726C34.0532 27.8609 33.8409 27.4638 33.7549 27.0315C33.6689 26.5991 33.713 26.151 33.8817 25.7437C34.0504 25.3365 34.3361 24.9884 34.7026 24.7435Z" fill="#0AB975"/>
</svg>
