<svg width="20" height="21" viewBox="0 0 20 21" fill="none" xmlns="http://www.w3.org/2000/svg">
<g clip-path="url(#clip0_27435_10095)">
<path d="M10.2041 8.34863V12.3004H15.6958C15.4546 13.5713 14.731 14.6474 13.6456 15.371L16.9573 17.9406C18.8868 16.1595 20 13.5435 20 10.4359C20 9.71238 19.9351 9.01658 19.8145 8.34873L10.2041 8.34863Z" fill="#4285F4"/>
<path d="M4.48548 12.1465L3.73857 12.7183L1.09473 14.7776C2.77377 18.1079 6.21509 20.4085 10.2039 20.4085C12.959 20.4085 15.2688 19.4994 16.9572 17.941L13.6455 15.3714C12.7364 15.9836 11.5768 16.3547 10.2039 16.3547C7.55088 16.3547 5.29677 14.5643 4.48966 12.1524L4.48548 12.1465Z" fill="#34A853"/>
<path d="M1.09454 5.63086C0.398843 7.00372 0 8.55292 0 10.2041C0 11.8553 0.398843 13.4045 1.09454 14.7773C1.09454 14.7865 4.4898 12.1428 4.4898 12.1428C4.28571 11.5306 4.16509 10.8812 4.16509 10.204C4.16509 9.52673 4.28571 8.87742 4.4898 8.26517L1.09454 5.63086Z" fill="#FBBC05"/>
<path d="M10.2042 4.0631C11.707 4.0631 13.0428 4.58257 14.1096 5.58444L17.0316 2.66238C15.2598 1.01119 12.9593 0 10.2042 0C6.2153 0 2.77377 2.29129 1.09473 5.63083L4.48987 8.26536C5.29688 5.85345 7.5511 4.0631 10.2042 4.0631Z" fill="#EA4335"/>
</g>
<defs>
<clipPath id="clip0_27435_10095">
<rect width="20" height="21" fill="white"/>
</clipPath>
</defs>
</svg>
