<svg width="36" height="33" viewBox="0 0 36 33" fill="none" xmlns="http://www.w3.org/2000/svg">
<path d="M18.3392 0.877334C17.1457 1.31522 16.2104 1.75404 15.189 2.3424C13.8727 3.10683 12.9498 3.79171 11.5625 5.03425C9.59989 6.79544 8.24704 8.39014 7.24269 10.1262C6.05344 12.19 5.00927 15.3689 4.75598 17.7219C4.69991 18.2082 4.68074 18.3011 4.60167 18.3445C3.84545 18.7694 3.16354 19.2646 2.45208 19.918C1.41673 20.864 0.516073 21.8879 0.171054 22.4987C-0.0307909 22.8686 -0.049354 22.978 0.0908464 23.0752C0.183211 23.1361 0.207377 23.1333 1.02309 22.916C2.10413 22.6227 3.34541 22.1627 4.43946 21.6535L4.83488 21.4652L4.87134 21.7085C4.89346 21.8436 5.01917 22.3402 5.15977 22.8159C5.51031 24.0095 5.93702 24.9317 6.62374 25.9623C6.78439 26.2033 6.91262 26.4037 6.90712 26.4137C6.9016 26.4235 6.69906 26.5732 6.45087 26.7525C5.3615 27.5393 5.09251 27.7912 4.63326 28.4389C3.93255 29.4345 3.52693 30.4289 3.68603 30.7661C3.76367 30.9353 4.01542 31.0586 4.33963 31.0864C5.05615 31.1472 5.9802 31.032 6.89532 30.7696C7.66158 30.5541 7.81042 30.4781 8.87727 29.7436L9.69761 29.1796L10.1913 29.5083C11.1084 30.1233 12.4732 30.7473 13.8835 31.1959C16.5992 32.0609 20.3297 32.4019 23.6661 32.0943C25.311 31.9389 26.691 31.7013 28.1686 31.3109C29.0228 31.0826 29.3282 30.9867 29.7253 30.8188C31.6953 29.9834 33.783 28.5858 34.7451 27.4569C35.0607 27.0918 35.4249 26.4755 35.4187 26.3233C35.4075 26.1392 35.3581 26.1118 35.0642 26.1462C34.9141 26.1601 34.1917 26.2091 33.4582 26.2488C30.3299 26.426 29.1789 26.577 27.1107 27.0702C25.2804 27.5076 24.1367 27.7275 22.566 27.9531C19.3077 28.4172 15.9615 28.3281 13.9094 27.7306C13.3817 27.5739 12.4699 27.2529 12.4825 27.2243C12.4891 27.2182 12.7713 27.0124 13.1123 26.7648C13.4533 26.5173 14.4213 25.8153 15.2652 25.203C19.2195 22.3339 20.109 21.6918 21.1099 20.9886C24.6027 18.5265 25.1275 18.1222 25.3601 17.7143C25.4572 17.545 25.5134 17.1169 25.4637 16.9439C25.4417 16.867 25.3988 16.8335 25.2944 16.8177C25.1174 16.781 25.0225 16.8125 24.3414 17.1076C22.9546 17.7133 21.3977 18.4802 18.0917 20.1855C16.9977 20.753 15.516 21.5066 14.8059 21.86C12.7196 22.8994 10.8492 23.9226 9.40058 24.8206L9.09253 25.0088L8.95123 24.8788C8.74444 24.6801 8.20698 24.0103 7.98469 23.6704C7.46476 22.8873 7.16248 22.225 6.9061 21.3164C6.79746 20.9232 6.69765 20.5315 6.69374 20.4453L6.67652 20.2837L7.44309 19.7643C8.56322 18.9979 9.61256 18.3183 11.4938 17.1297C12.4136 16.5497 13.5327 15.8377 13.9753 15.5527C20.402 11.4087 21.5183 10.6725 21.8625 10.3491C21.9547 10.2644 22.0618 10.1879 22.1002 10.1769C22.1502 10.1626 22.1782 10.1005 22.1923 9.9757C22.2065 9.82183 22.1977 9.79105 22.1383 9.75814C22.0344 9.70054 21.3187 10.0056 19.2548 10.9928C18.3037 11.4486 16.9795 12.0697 16.3096 12.3741C14.5032 13.2 11.966 14.4227 9.43586 15.685C8.54842 16.1309 6.8586 17.015 6.74877 17.0964C6.61813 17.192 7.22088 14.897 7.6488 13.6757C8.26911 11.9208 9.13952 10.298 10.236 8.86844C11.4745 7.25246 13.6185 5.06473 15.028 3.98647C16.2621 3.0375 17.7674 2.1773 19.2464 1.57421C20.3828 1.11104 22.7568 0.334656 23.0133 0.344261C23.1562 0.3491 23.1793 0.342485 23.2066 0.263865C23.2253 0.21279 23.2236 0.134167 23.2016 0.086417C23.1669 0.00897869 23.1141 -0.000860665 22.7482 5.46524e-05C21.9252 0.00301279 20.7825 0.197481 19.4543 0.557587C18.9445 0.69541 18.4447 0.838735 18.3392 0.877334Z" fill="#121212"/>
</svg>
