<svg width="100" height="100" viewBox="0 0 100 100" fill="none" xmlns="http://www.w3.org/2000/svg">
<g clip-path="url(#clip0_35_36571)">
<path d="M12.4038 24.3249L13.4654 65.0999L43.8077 66.4999C42.6577 72.7999 38.9423 83.9999 38.6769 90.3874C38.7654 89.1624 46.6385 81.6374 47.9654 80.5874C51.0615 78.1374 53.3615 75.5999 55.75 72.8874C58.9346 69.2124 69.0192 72.2749 73.8846 72.0999C78.7795 71.9249 83.6744 71.7499 88.5692 71.5749C94.9385 71.3999 95.4692 69.7374 94.9385 63.4374C94.7615 60.3749 93.5231 23.2749 94.3192 23.2749L12.4038 24.3249Z" fill="#33BFA6" stroke="#33BFA6" stroke-width="0.8" stroke-miterlimit="10"/>
<path d="M25.1423 40.1625C25.0833 40.1042 24.9949 40.075 24.8769 40.075C24.8769 40.3667 24.8769 40.6875 24.8769 41.0375C25.85 40.775 26.7346 41.125 27.7077 41.2125C28.5038 41.2125 29.3885 41.2125 30.2731 41.125C31.9538 41.0375 33.6346 40.775 35.4038 40.6875C37.2615 40.6 39.1192 40.6 40.9769 40.6C42.8346 40.5125 44.6923 40.6 46.55 40.6875C50 40.95 53.5385 40.775 57.0769 40.425C58.8462 40.25 60.5269 40.075 62.2962 40.25C64.0654 40.5125 65.8346 40.1625 67.5154 39.9875C68.2231 39.9 68.1346 38.85 67.4269 38.9375C65.5692 39.1125 63.8 39.2875 61.8538 39.1125C60.1731 38.9375 58.4923 39.2 56.8115 39.375C53.0962 39.725 49.3808 39.9 45.6654 39.55C43.9846 39.4625 42.3038 39.4625 40.6231 39.4625C38.6769 39.55 36.8192 39.4625 34.9615 39.6375C33.1038 39.8125 31.3346 40.075 29.4769 40.1625C27.7962 40.1625 26.1154 39.55 24.5231 39.9875C23.9923 40.1625 23.9923 40.775 24.4346 41.0375C24.4936 41.0375 24.5821 41.0667 24.7 41.125C25.3192 41.3875 25.7615 40.425 25.1423 40.1625Z" fill="white"/>
<path d="M25.9385 49.5251C25.9385 49.5251 25.909 49.4959 25.85 49.4376C25.7321 49.6126 25.5846 49.7584 25.4077 49.8751C25.9385 49.8751 26.4692 50.0501 27 49.9626C27.7077 49.9626 28.3269 49.8751 29.0346 49.8751C30.6269 49.7876 32.1308 49.6126 33.6346 49.6126C35.1385 49.6126 36.5538 49.7876 37.9692 49.7876C39.5615 49.7876 41.0654 49.8751 42.6577 49.7876C45.7538 49.7001 48.7615 49.6126 51.8577 49.4376C54.8654 49.3501 57.8731 49.7876 60.8808 49.5251C62.4731 49.4376 64.0654 49.5251 65.5692 49.4376C66.4538 49.3793 67.3385 49.2918 68.2231 49.1751C68.9308 49.0876 69.6385 49.2626 70.3462 49.2626C71.0538 49.2626 70.9654 48.2126 70.2577 48.2126C69.6385 48.2126 69.1077 48.0376 68.5769 48.0376C67.8103 48.1543 67.0731 48.2418 66.3654 48.3001C64.8615 48.3876 63.4462 48.3001 61.9423 48.3876C60.4385 48.4751 58.9346 48.5626 57.3423 48.4751C55.9269 48.3876 54.5115 48.3001 53.0077 48.3001C46.9038 48.5626 40.7115 49.0001 34.5192 48.5626C32.9269 48.4751 31.3346 48.7376 29.7423 48.7376C28.9462 48.8251 28.15 48.8251 27.3538 48.9126C26.6462 48.9126 26.0269 48.8251 25.3192 48.8251C25.0538 48.8251 24.8769 49.0001 24.7885 49.2626C24.7885 49.5251 24.7885 49.6126 24.8769 49.8751C25.1423 50.5751 26.2038 50.1376 25.9385 49.5251Z" fill="white"/>
<path d="M26.7346 39.8999C26.7346 39.8416 26.7051 39.7832 26.6462 39.7249C26.5282 40.0166 26.4103 40.3082 26.2923 40.5999C26.8231 40.5999 27.4423 40.7749 27.9731 40.7749C28.6808 40.8624 29.3885 40.6874 30.0962 40.6874C31.4231 40.6874 32.75 40.9499 34.0769 40.8624C36.9077 40.7749 39.7385 40.6874 42.5692 40.5124C43.9846 40.3374 45.4 40.5124 46.8154 40.4249C48.2308 40.4249 49.7346 40.3374 51.2385 40.2499C54.1577 40.1624 57.0769 39.7249 59.9962 39.5499C61.4115 39.4624 62.8269 39.7249 64.2423 39.8124C65.8346 39.8124 67.3385 39.4624 68.8423 39.6374C69.55 39.7249 69.7269 38.6749 69.0192 38.5874C67.7808 38.4999 66.6308 38.6749 65.3923 38.7624C64.0654 38.7624 62.8269 38.5874 61.5 38.4124C60.0846 38.3249 58.5808 38.5874 57.2538 38.7624C55.7205 38.8791 54.1872 38.9957 52.6538 39.1124C49.8231 39.3749 46.9038 39.3749 43.9846 39.3749C42.5692 39.3749 41.1538 39.5499 39.7385 39.5499C38.2346 39.6374 36.8192 39.6374 35.4038 39.7249C34.5192 39.8124 33.7231 39.8124 32.9269 39.8124C32.1308 39.8124 31.4231 39.6374 30.6269 39.6374C29.9192 39.5499 29.1231 39.7249 28.4154 39.7249C27.6192 39.7249 26.9115 39.5499 26.2038 39.5499C25.7615 39.5499 25.5846 40.0749 25.7615 40.3374C25.8205 40.3957 25.85 40.4541 25.85 40.5124C26.2923 41.1249 27.1769 40.5124 26.7346 39.8999Z" fill="white"/>
<path d="M25.2308 49.6124C25.7615 50.4874 27.5308 50.1374 28.4154 50.1374C29.2115 50.0499 30.0077 50.1374 30.8038 50.1374C31.6 50.2249 32.4846 49.9624 33.3692 49.8749C35.1385 49.7874 36.8192 50.0499 38.5885 50.1374C40.4756 50.1374 42.3333 50.1082 44.1615 50.0499C47.7885 49.8749 51.3269 48.9999 55.0423 49.0874C56.8115 49.0874 58.5808 49.1749 60.4385 49.0874C62.2667 48.9124 64.1244 48.7374 66.0115 48.5624C67.0141 48.5041 68.0461 48.4166 69.1077 48.2999C69.5795 48.2416 70.0513 48.2124 70.5231 48.2124C70.9654 48.2124 71.4077 48.3874 71.7615 48.3874C71.85 48.3874 72.5577 48.4749 71.5846 48.2124C71.4077 48.1249 70.9654 48.2124 70.7 48.2124C70.2577 48.2124 69.8154 48.1249 69.3731 48.0374C68.4885 47.8624 67.4269 47.8624 66.5423 47.8624C65.8346 47.8624 65.9231 48.9124 66.6308 48.9124C67.6038 48.9999 68.5769 48.9999 69.55 49.1749C70.1692 49.2624 71.0538 49.4374 71.6731 49.2624C72.5577 49.0874 73.7077 47.9499 72.4692 47.4249C71.1423 46.8999 69.2846 47.1624 67.9577 47.3374C65.9526 47.5124 63.9474 47.6874 61.9423 47.8624C59.9961 48.0374 58.05 48.1249 56.1038 48.0374C54.1577 47.9499 52.2115 48.1249 50.2654 48.2999C46.1962 48.6499 42.2154 49.2624 38.1461 48.9999C36.1115 48.9124 33.9885 48.6499 31.9538 48.9999C30.9808 49.1749 29.9192 48.9999 28.9462 48.9999C28.4154 48.9999 27.8846 48.9999 27.3538 48.9999C27.1769 48.9999 26.2038 49.1749 26.1154 48.9999C25.7615 48.3874 24.8769 48.9999 25.2308 49.6124Z" fill="white"/>
<path d="M69.6385 38.5874C69.2846 38.6749 68.8423 38.7624 68.4885 38.8499C67.9577 38.9374 67.3385 38.9374 66.8077 38.9374C65.6577 39.1124 64.4192 39.0249 63.2692 39.1124C62.5615 39.1999 62.65 40.2499 63.3577 40.2499C64.5077 40.1624 65.7462 40.1624 66.8962 40.0749C67.4269 39.9874 67.8692 39.9874 68.4 39.9874C68.8423 39.8999 69.2846 39.7249 69.7269 39.7249C70.4346 39.6374 70.3462 38.5874 69.6385 38.5874Z" fill="white"/>
<path d="M26.9115 41.0375C26.8526 40.9792 26.7641 40.95 26.6462 40.95C26.6462 41.2417 26.6462 41.5625 26.6462 41.9125C27.6192 41.65 28.5038 42 29.4769 42.0875C30.2731 42.0875 31.1577 42.0875 32.0423 42C33.7231 41.9125 35.4038 41.65 37.1731 41.5625C39.0308 41.475 40.8885 41.475 42.7462 41.475C44.6038 41.3875 46.4615 41.475 48.3192 41.5625C51.7692 41.825 55.3077 41.65 58.8461 41.3C60.6154 41.125 62.2962 40.95 64.0654 41.125C65.8346 41.3875 67.6038 41.0375 69.2846 40.8625C69.9923 40.775 69.9038 39.725 69.1961 39.8125C67.3385 39.9875 65.5692 40.1625 63.6231 39.9875C61.9423 39.8125 60.2615 40.075 58.5808 40.25C54.8654 40.6 51.15 40.775 47.4346 40.425C45.7538 40.3375 44.0731 40.3375 42.3923 40.3375C40.4462 40.425 38.5885 40.3375 36.7308 40.5125C34.8731 40.6875 33.1038 40.95 31.2462 41.0375C29.5654 41.0375 27.8846 40.425 26.2923 40.8625C25.7615 41.0375 25.7615 41.65 26.2038 41.9125C26.2628 41.9125 26.3513 41.9417 26.4692 42C27.0885 42.2625 27.5308 41.3 26.9115 41.0375Z" fill="white"/>
<path d="M27.7077 50.4001C27.7077 50.4001 27.6782 50.3709 27.6192 50.3126C27.5013 50.4876 27.3538 50.6334 27.1769 50.7501C27.7077 50.7501 28.2385 50.9251 28.7692 50.8376C29.4769 50.8376 30.0962 50.7501 30.8038 50.7501C32.3962 50.6626 33.9 50.4876 35.4038 50.4876C36.9077 50.4876 38.3231 50.6626 39.7385 50.6626C41.3308 50.6626 42.8346 50.7501 44.4269 50.6626C47.5231 50.5751 50.5308 50.4876 53.6269 50.3126C56.6346 50.2251 59.6423 50.6626 62.65 50.4001C64.2423 50.3126 65.8346 50.4001 67.3385 50.3126C68.2231 50.2543 69.1077 50.1668 69.9923 50.0501C70.7 49.9626 71.4077 50.1376 72.1154 50.1376C72.8231 50.1376 72.7346 49.0876 72.0269 49.0876C71.4077 49.0876 70.8769 48.9126 70.3462 48.9126C69.5795 49.0293 68.8423 49.1168 68.1346 49.1751C66.6308 49.2626 65.2154 49.1751 63.7115 49.2626C62.2077 49.3501 60.7038 49.4376 59.1115 49.3501C57.6962 49.2626 56.2808 49.1751 54.7769 49.1751C48.6731 49.4376 42.4808 49.8751 36.2885 49.4376C34.6962 49.3501 33.1038 49.6126 31.5115 49.6126C30.7154 49.7001 29.9192 49.7001 29.1231 49.7876C28.4154 49.7876 27.7962 49.7001 27.0885 49.7001C26.8231 49.7001 26.6462 49.8751 26.5577 50.1376C26.5577 50.4001 26.5577 50.4876 26.6462 50.7501C26.9115 51.4501 27.9731 51.0126 27.7077 50.4001Z" fill="white"/>
<path d="M28.5038 40.7749C28.5038 40.7166 28.4744 40.6582 28.4154 40.5999C28.2974 40.8916 28.1795 41.1832 28.0615 41.4749C28.5923 41.4749 29.2115 41.6499 29.7423 41.6499C30.45 41.7374 31.1577 41.5624 31.8654 41.5624C33.1923 41.5624 34.5192 41.8249 35.8461 41.7374C38.6769 41.6499 41.5077 41.5624 44.3385 41.3874C45.7538 41.2124 47.1692 41.3874 48.5846 41.2999C50 41.2999 51.5038 41.2124 53.0077 41.1249C55.9269 41.0374 58.8462 40.5999 61.7654 40.4249C63.1808 40.3374 64.5961 40.5999 66.0115 40.6874C67.6038 40.6874 69.1077 40.3374 70.6115 40.5124C71.3192 40.5999 71.4961 39.5499 70.7885 39.4624C69.55 39.3749 68.4 39.5499 67.1615 39.6374C65.8346 39.6374 64.5961 39.4624 63.2692 39.2874C61.8538 39.1999 60.35 39.4624 59.0231 39.6374C57.4897 39.7541 55.9564 39.8707 54.4231 39.9874C51.5923 40.2499 48.6731 40.2499 45.7538 40.2499C44.3385 40.2499 42.9231 40.4249 41.5077 40.4249C40.0038 40.5124 38.5885 40.5124 37.1731 40.5999C36.2885 40.6874 35.4923 40.6874 34.6962 40.6874C33.9 40.6874 33.1923 40.5124 32.3961 40.5124C31.6885 40.4249 30.8923 40.5999 30.1846 40.5999C29.3885 40.5999 28.6808 40.4249 27.9731 40.4249C27.5308 40.4249 27.3538 40.9499 27.5308 41.2124C27.5897 41.2707 27.6192 41.3291 27.6192 41.3874C28.0615 41.9999 28.9461 41.3874 28.5038 40.7749Z" fill="white"/>
<path d="M27 50.4874C27.5308 51.3624 29.3 51.0124 30.1846 51.0124C30.9808 50.9249 31.7769 51.0124 32.5731 51.0124C33.3692 51.0999 34.2538 50.8374 35.1385 50.7499C36.9077 50.6624 38.5885 50.9249 40.3577 51.0124C42.2449 51.0124 44.1026 50.9832 45.9308 50.9249C49.5577 50.7499 53.0962 49.8749 56.8115 49.9624C58.5808 49.9624 60.35 50.0499 62.2077 49.9624C64.0359 49.7874 65.8936 49.6124 67.7808 49.4374C68.7833 49.3791 69.8154 49.2916 70.8769 49.1749C71.3487 49.1166 71.8205 49.0874 72.2923 49.0874C72.7346 49.0874 73.1769 49.2624 73.5308 49.2624C73.6192 49.2624 74.3269 49.3499 73.3538 49.0874C73.1769 48.9999 72.7346 49.0874 72.4692 49.0874C72.0269 49.0874 71.5846 48.9999 71.1423 48.9124C70.2577 48.7374 69.1961 48.7374 68.3115 48.7374C67.6038 48.7374 67.6923 49.7874 68.4 49.7874C69.3731 49.8749 70.3462 49.8749 71.3192 50.0499C71.9385 50.1374 72.8231 50.3124 73.4423 50.1374C74.3269 49.9624 75.4769 48.8249 74.2385 48.2999C72.9115 47.7749 71.0538 48.0374 69.7269 48.2124C67.7218 48.3874 65.7167 48.5624 63.7115 48.7374C61.7654 48.9124 59.8192 48.9999 57.8731 48.9124C55.9269 48.8249 53.9808 48.9999 52.0346 49.1749C47.9654 49.5249 43.9846 50.1374 39.9154 49.8749C37.8808 49.7874 35.7577 49.5249 33.7231 49.8749C32.75 50.0499 31.6885 49.8749 30.7154 49.8749C30.1846 49.8749 29.6538 49.8749 29.1231 49.8749C28.9462 49.8749 27.9731 50.0499 27.8846 49.8749C27.5308 49.2624 26.6462 49.8749 27 50.4874Z" fill="white"/>
<path d="M71.4077 39.4624C71.0538 39.5499 70.6115 39.6374 70.2577 39.7249C69.7269 39.8124 69.1077 39.8124 68.5769 39.8124C67.4269 39.9874 66.1885 39.8999 65.0385 39.9874C64.3308 40.0749 64.4192 41.1249 65.1269 41.1249C66.2769 41.0374 67.5154 41.0374 68.6654 40.9499C69.1962 40.8624 69.6385 40.8624 70.1692 40.8624C70.6115 40.7749 71.0538 40.5999 71.4962 40.5999C72.2038 40.5124 72.1154 39.4624 71.4077 39.4624Z" fill="white"/>
<path d="M4.97308 25.2C4.97308 30.45 4.79616 35.7875 4.97308 41.125C5.15 43.6625 5.32693 46.2001 5.50385 48.6501C5.59231 51.3626 5.50385 53.9875 5.50385 56.7C5.50385 57.925 5.50385 59.1501 5.59231 60.3751C5.76923 61.6876 5.94616 62.9126 5.94616 64.2251C6.03462 65.6251 6.03462 66.9376 7.62693 67.2001C8.6 67.4626 9.75 67.3751 10.7231 67.3751C12.0795 67.3167 13.4359 67.2876 14.7923 67.2876C17.3577 67.2876 19.9231 67.1125 22.4885 67.4625C23.7269 67.6375 24.9654 67.8126 26.2039 67.8126C27.6192 67.8126 29.0346 67.6376 30.3615 67.7251C31.6885 67.7251 32.8385 68.1626 34.1654 68.2501C34.7846 68.3376 35.4923 68.3376 36.2 68.2501C37.35 68.2501 37.35 66.5001 36.2 66.5001C35.05 66.5001 35.05 68.2501 36.2 68.2501C36.2 67.6667 36.2 67.0834 36.2 66.5001C35.6692 66.5584 35.109 66.5584 34.5192 66.5001C33.5462 66.5001 32.6615 66.1501 31.6885 66.0626C29.3885 65.8001 27.1769 66.1501 24.9654 65.9751C23.8154 65.8876 22.6654 65.7126 21.5154 65.6251C20.3654 65.5376 19.1269 65.5376 17.8885 65.5376C15.5 65.5376 13.1115 65.5376 10.7231 65.5376C10.1333 65.5959 9.51411 65.6251 8.86539 65.6251C8.68846 65.6251 7.98077 65.6251 7.80385 65.4501C7.62693 65.1876 7.71539 64.2251 7.71539 63.8751C7.62693 61.6001 7.27308 59.3251 7.27308 57.0501C7.27308 54.5126 7.36154 51.8876 7.27308 49.3501C7.18462 46.9876 7.0077 44.5376 6.83077 42.1751C6.47693 36.4875 6.74231 30.8 6.74231 25.2C6.74231 24.0625 4.97308 24.0625 4.97308 25.2Z" fill="white"/>
<path d="M37.5269 68.8626C37.5269 68.7459 37.5269 68.6292 37.5269 68.5125C36.9372 68.5125 36.3474 68.5125 35.7577 68.5125C35.7577 70.175 35.9346 71.75 35.5808 73.325C35.2269 74.9 34.6962 76.3875 34.4308 77.9625C34.2538 79.45 34.0769 80.9376 33.8115 82.5126C33.4577 83.9126 33.1038 85.4876 33.3692 86.9751C33.3692 87.5001 34.0769 88.2001 34.6962 87.7626C37.7038 85.4876 40.0923 82.6 42.4808 79.7125C45.2231 76.5625 48.2308 73.5 51.2385 70.525C52.0346 69.65 50.7962 68.425 49.9115 69.2125C46.9923 72.1875 44.1615 75.1626 41.4192 78.3126C39.0308 81.0251 36.7308 84.0001 33.8115 86.1876C34.2244 86.4792 34.6667 86.7417 35.1385 86.9751C34.8731 85.4001 35.2269 84.0001 35.5808 82.5126C35.9346 80.9376 36.0231 79.3626 36.2885 77.7876C36.5538 76.3001 37.0846 74.8125 37.35 73.325C37.7038 71.75 37.5269 70.175 37.5269 68.5125C37.5269 67.375 35.7577 67.375 35.7577 68.5125C35.7577 68.6292 35.7577 68.7459 35.7577 68.8626C35.7577 70.0001 37.5269 70.0001 37.5269 68.8626Z" fill="white"/>
<path d="M50.6192 70.2626C53.8923 70.2626 57.1654 69.8251 60.4385 69.6501C63.7115 69.3876 67.0731 69.3001 70.3462 69.1251C73.5308 68.9501 76.6269 68.6876 79.8115 68.1626C83.0846 67.7251 86.4462 67.8126 89.8077 67.8126C90.9577 67.8126 90.9577 66.0626 89.8077 66.0626C86.5346 66.0626 83.2615 65.9751 79.9885 66.4126C76.7154 66.8501 73.5308 67.2001 70.3462 67.3751C67.0731 67.5501 63.7115 67.6376 60.4385 67.9001C57.1654 68.0751 53.8923 68.5126 50.6192 68.5126C49.4692 68.5126 49.4692 70.2626 50.6192 70.2626Z" fill="white"/>
<path d="M88.9231 65.4499C88.9231 65.5666 88.9231 65.6832 88.9231 65.7999C89.5128 65.7999 90.1026 65.7999 90.6923 65.7999C90.6923 62.2999 91.2231 58.8874 91.3115 55.3874C91.4 51.8874 91.3115 48.2999 91.2231 44.7999C91.1346 37.6249 91.2231 30.4499 91.2231 23.3624C91.2231 22.2249 89.4538 22.2249 89.4538 23.3624C89.4538 23.7707 89.4538 24.2082 89.4538 24.6749C89.4538 25.8124 91.2231 25.8124 91.2231 24.6749C91.2231 24.2082 91.2231 23.7707 91.2231 23.3624C91.2231 22.2249 89.4538 22.2249 89.4538 23.3624C89.4538 30.4499 89.3654 37.6249 89.4538 44.7999C89.5423 48.2999 89.6308 51.8874 89.5423 55.3874C89.4538 58.8874 88.9231 62.2999 88.9231 65.7999C88.9231 66.9374 90.6923 66.9374 90.6923 65.7999C90.6923 65.6832 90.6923 65.5666 90.6923 65.4499C90.6923 64.3124 88.9231 64.3124 88.9231 65.4499Z" fill="white"/>
<path d="M5.85769 24.5875C11.2538 25.025 16.65 24.675 22.0462 24.325C27.5308 23.8875 32.9269 23.5375 38.3231 23.625C49.4692 23.625 60.5269 23.625 71.5846 23.625C74.5923 23.625 77.6295 23.625 80.6962 23.625C82.1115 23.625 83.5269 23.625 84.9423 23.5375C86.0923 23.5375 87.3308 23.275 88.3923 23.625C88.2744 23.1583 88.1564 22.6625 88.0385 22.1375C87.9205 22.3125 87.8026 22.4583 87.6846 22.575C86.9769 23.45 88.2154 24.675 88.9231 23.8C89.041 23.6833 89.159 23.5667 89.2769 23.45C89.7192 22.8375 89.5423 22.1375 88.9231 21.9625C87.95 21.6125 86.8885 21.7 85.9154 21.7875C84.7654 21.875 83.5269 21.7875 82.3769 21.7875C79.6051 21.7875 76.8333 21.7875 74.0615 21.7875C68.5179 21.7875 62.9744 21.8167 57.4308 21.875C46.3731 21.875 35.2269 21.525 24.1692 22.4C18.0654 22.8375 11.9615 23.3625 5.85769 22.8375C4.70769 22.75 4.70769 24.5 5.85769 24.5875Z" fill="white"/>
<path d="M7.09615 67.2875C11.8731 68.1625 16.65 67.9875 21.5154 67.9C26.5577 67.725 31.6 67.8125 36.6423 67.8125C37.7923 67.8125 37.7923 66.0625 36.6423 66.0625C31.6885 66.0625 26.7346 65.975 21.7808 66.15C17.0923 66.2375 12.3154 66.5 7.62692 65.5375C6.47692 65.3625 6.03461 67.025 7.09615 67.2875Z" fill="white"/>
<path d="M38.0577 67.9C38.0577 67.8417 38.0577 67.7542 38.0577 67.6375C37.4679 67.6375 36.8782 67.6375 36.2885 67.6375C36.2885 70.875 35.5808 74.025 34.6077 77.0875C34.0769 78.75 33.7231 80.325 33.2808 81.9875C32.9269 83.65 32.2192 85.1375 31.8654 86.8C31.6 87.9375 33.3692 88.3751 33.5462 87.3251C33.9 85.5751 34.6077 84 35.05 82.25C35.4923 80.5875 35.9346 78.9251 36.3769 77.2626C37.4385 74.1126 38.1462 70.9625 38.0577 67.6375C38.0577 66.5 36.2885 66.5 36.2885 67.6375C36.2885 67.7542 36.2885 67.8417 36.2885 67.9C36.2885 69.0375 38.0577 69.0375 38.0577 67.9Z" fill="white"/>
<path d="M88.3923 22.225C88.4808 25.8125 89.0115 29.4 89.1885 32.9875C89.4538 36.6625 89.5423 40.3375 89.4538 44.1C89.4538 47.775 89.4538 51.45 89.4538 55.2125C89.4538 57.0791 89.4538 58.9458 89.4538 60.8125C89.4538 61.6 89.4538 62.475 89.4538 63.35C89.4538 64.05 89.5423 64.8375 89.3654 65.5375C89.8372 65.4208 90.3385 65.3041 90.8692 65.1875C90.7513 65.0708 90.6038 64.9541 90.4269 64.8375C89.5423 64.1375 88.3038 65.3625 89.1885 66.0625C89.3064 66.1791 89.4538 66.2958 89.6308 66.4125C90.0731 66.7625 90.8692 66.675 91.0461 65.975C91.4 64.925 91.2231 63.7875 91.2231 62.65C91.1346 61.1625 91.2231 59.675 91.2231 58.1875C91.2231 55.2708 91.2231 52.3541 91.2231 49.4375C91.3115 43.575 91.4 37.8 90.9577 31.9375C90.6923 28.7 90.25 25.4625 90.25 22.225C90.1615 21.0875 88.3923 21.0875 88.3923 22.225Z" fill="white"/>
<path d="M4.53077 24.15C4.53077 37.3625 4.61923 50.4875 4.53077 63.6125C4.53077 64.575 4.08846 65.8875 4.88462 66.5875C5.94616 67.375 7.09616 66.5 8.06923 66.325C9.21923 66.0625 8.77693 64.3125 7.62693 64.575C7.27308 64.6625 6.91923 64.8375 6.56539 65.0125C6.47693 65.0125 6.3 65.1 6.21154 65.1C6.21154 65.1 6.18205 65.1292 6.12308 65.1875C5.94616 65.1292 5.91667 65.1583 6.03462 65.275C6.38846 65.1 6.03462 65.5375 6.21154 65.275C6.21154 65.1875 6.21154 64.925 6.21154 64.8375C6.27052 63.6708 6.3 62.5042 6.3 61.3375C6.3 58.3042 6.3 55.2708 6.3 52.2375C6.3 46.3458 6.3 40.425 6.3 34.475C6.3 31.0333 6.3 27.5917 6.3 24.15C6.3 23.0125 4.53077 23.0125 4.53077 24.15Z" fill="white"/>
<path d="M49.5577 69.7374C56.4577 69.7374 63.3282 69.7374 70.1692 69.7374C73.5308 69.7374 76.8923 69.9124 80.2538 69.8249C81.7577 69.7374 83.1731 69.2124 84.6769 69.2124C85.3846 69.2999 86.0038 69.3874 86.7115 69.2999C87.4192 69.1249 88.0385 68.7749 88.8346 68.7749C89.9846 68.7749 89.9846 67.0249 88.8346 67.0249C88.0385 67.0249 87.5077 67.2874 86.8 67.4624C86.0923 67.6374 85.3846 67.5499 84.6769 67.4624C83.1731 67.3749 81.8462 67.9874 80.4308 68.0749C78.75 68.1624 76.9808 67.9874 75.3 67.9874C73.5897 67.9874 71.8795 67.9874 70.1692 67.9874C63.3282 67.9874 56.4577 67.9874 49.5577 67.9874C48.4077 67.9874 48.4077 69.7374 49.5577 69.7374Z" fill="white"/>
<path d="M36.2885 86.7126C38.6769 84.0876 40.2692 80.8501 42.5692 78.1376C43.8077 76.8251 45.1346 75.6001 46.4615 74.2876C47.7 72.8876 49.2923 71.8376 50.3538 70.3501C51.0615 69.3876 49.4692 68.5126 48.85 69.3876C48.3192 70.1751 47.6115 70.7001 46.9038 71.3126C46.1962 71.9251 45.5769 72.5376 44.9577 73.2376C43.7192 74.5501 42.3038 75.7751 41.1538 77.0876C38.9423 79.7126 37.35 82.8626 35.05 85.4876C34.3423 86.2751 35.5808 87.5876 36.2885 86.7126Z" fill="white"/>
<path d="M6.38846 25.0251C9.04231 25.1126 11.6962 24.4126 14.35 24.1501C17.0628 23.8001 19.7756 23.6251 22.4885 23.6251C28.15 23.5376 33.7231 23.6251 39.3846 23.6251C44.9872 23.5668 50.5897 23.5668 56.1923 23.6251C58.9346 23.6251 61.6769 23.4501 64.4192 23.6251C65.5692 23.7126 66.7192 23.8876 67.8692 24.0626C69.2846 24.1501 70.7 24.0626 72.1154 24.0626C75.1231 24.0626 78.1308 24.1501 81.2269 24.0626C83.4385 23.9751 86.1808 23.3626 88.2154 24.5001C88.3923 23.9168 88.5397 23.3626 88.6577 22.8376C88.3628 22.8376 88.0974 22.8376 87.8615 22.8376C86.7115 22.8376 86.7115 24.5876 87.8615 24.5876C88.0974 24.5876 88.3628 24.5876 88.6577 24.5876C89.5423 24.6751 89.8962 23.3626 89.1 22.9251C87.1538 21.9626 84.8538 22.0501 82.7308 22.2251C80.2538 22.4001 77.6885 22.3126 75.2115 22.3126C72.5577 22.3126 69.9038 22.4876 67.25 22.2251C66.0115 22.0501 64.7731 21.8751 63.4462 21.7876C61.9423 21.7876 60.4385 21.8751 58.9346 21.8751C47.6115 21.8168 36.2885 21.7876 24.9654 21.7876C21.8692 21.7876 18.7731 21.8751 15.6769 22.2251C12.5808 22.4876 9.48462 23.3626 6.38846 23.2751C5.23846 23.2751 5.23846 25.0251 6.38846 25.0251Z" fill="white"/>
</g>
<defs>
<clipPath id="clip0_35_36571">
<rect width="92" height="70" fill="white" transform="translate(4 21)"/>
</clipPath>
</defs>
</svg>
