<svg width="56" height="58" viewBox="0 0 56 58" fill="none" xmlns="http://www.w3.org/2000/svg">
<circle cx="17.434" cy="17.434" r="17.434" fill="#0AB975" fill-opacity="0.13"/>
<path fill-rule="evenodd" clip-rule="evenodd" d="M31.6397 53.7759C31.8264 53.8497 32.0254 53.8873 32.2261 53.8868C32.5836 53.8848 32.9299 53.7619 33.2087 53.5382L41.1333 47.1986C41.3201 47.051 41.4712 46.8632 41.5755 46.6492C41.6797 46.4351 41.7344 46.2004 41.7355 45.9623V33.9329L47.7265 27.9578C49.3508 26.3425 50.6384 24.4208 51.5144 22.3042C52.3905 20.1875 52.8376 17.918 52.8299 15.6272V12.6793C52.8299 11.8386 52.4959 11.0324 51.9015 10.4379C51.307 9.84346 50.5007 9.5095 49.6601 9.5095H46.7121C44.4214 9.50178 42.1519 9.94891 40.0352 10.825C37.9185 11.701 35.9969 12.9885 34.3816 14.6129L28.4065 20.6038H16.377C16.1377 20.6068 15.9021 20.664 15.688 20.771C15.4739 20.8781 15.2868 21.0323 15.1408 21.2219L8.8012 29.1465C8.6243 29.3657 8.50903 29.6281 8.46724 29.9067C8.42546 30.1852 8.45867 30.4699 8.56346 30.7314C8.66697 30.991 8.83731 31.2187 9.05721 31.3913C9.2771 31.5638 9.53872 31.6752 9.81554 31.714L20.9099 33.2989L21.3536 30.1291L13.0012 28.9404L17.1378 23.7736H29.0563C29.2649 23.7749 29.4716 23.7349 29.6647 23.656C29.8578 23.5771 30.0335 23.4609 30.1816 23.314L36.6321 16.8635C37.9523 15.5343 39.5229 14.4801 41.2531 13.7619C42.9833 13.0437 44.8388 12.6757 46.7121 12.6793H49.6601V15.6272C49.6636 17.5006 49.2957 19.356 48.5775 21.0863C47.8593 22.8165 46.8051 24.3871 45.4759 25.7072L39.0253 32.1578C38.8785 32.3059 38.7622 32.4815 38.6834 32.6746C38.6045 32.8677 38.5645 33.0745 38.5657 33.2831V45.2016L33.4306 49.3382L32.242 40.9857L29.0721 41.4295L30.657 52.5238C30.6959 52.8006 30.8072 53.0623 30.9798 53.2822C31.1524 53.5021 31.38 53.6724 31.6397 53.7759ZM16.8336 43.2552L29.5087 30.5801L31.7501 32.8215L19.075 45.4966L16.8336 43.2552Z" fill="#0AB975"/>
</svg>
