<svg width="257" height="187" viewBox="0 0 257 187" fill="none" xmlns="http://www.w3.org/2000/svg">
<g clip-path="url(#clip0_41_37363)">
<path fill-rule="evenodd" clip-rule="evenodd" d="M254.6 131.4C254.2 132.3 253.7 132.4 253.3 132.4C253.167 132.467 253.067 132.533 253 132.6C251.8 133.8 247.9 136.6 242.7 140.3C237.6 144.1 231.2 148.8 224.9 153.6C212.3 163.2 199.4 172.7 196.3 174.3C194.8 175.1 194 175.3 193.6 175.3C193.1 175.3 192.4 175.4 191.4 175.3C184.2 174.9 126.9 162 120.2 159.6C119.467 159.267 118.9 159 118.5 158.8C111.4 165.4 106.6 170.6 104.4 172.6C102.7 174.4 101.6 175.4 100.8 176.1C100.733 176.3 100.7 176.467 100.7 176.6C100.5 177.7 100 177.9 99.5 178C99.3 178 99.1 177.967 98.9 177.9C99.2 178.3 99.1 178.6 99 178.7C98.7 179.3 98 179.3 95.1 178.4C94.1 178.2 92.3 177.6 89.6 177C87 176.5 83.5 176 79.6 175.4C71.6 174.2 61.7 172.8 51.8 171.3C32.1 168.5 12.2 166.2 8.00001 165.3C6.80001 165.1 6.00001 164.8 5.50001 164.6C5.20001 165.1 4.80001 165.2 4.50001 165.2C3.90001 165.1 3.40001 164.9 3.00001 164C2.50001 162.8 2.40001 157.1 2.00001 151.4C1.80001 148.6 1.50001 145.8 1.40001 143.5C1.30001 142.3 1.20001 141.3 1.10001 140.5C1.10001 140.1 1.10001 139.767 1.10001 139.5C1.10001 139.433 1.10001 139.367 1.10001 139.3C1.10001 139.167 1.10001 139.033 1.10001 138.9C1.10001 138.7 1.13334 138.533 1.20001 138.4C1.33334 138 1.56667 137.667 1.90001 137.4C1.90001 137.4 2.00001 137.3 2.10001 137.3C1.80001 137 1.80001 136.8 1.80001 136.6C1.80001 136.4 1.90001 136.2 2.20001 136C2.06667 136 1.96667 135.967 1.90001 135.9C1.40001 135.5 0.800006 134.7 0.600006 133.5C0.600006 132.9 0.600006 132.1 0.900006 131.4C1.20001 130.7 1.60001 130 2.20001 129.4C3.00001 128.6 4.10001 127.7 5.50001 126.6C6.90001 125.533 8.56667 124.233 10.5 122.7C11.9667 121.567 13.6 120.333 15.4 119C15.2 118.8 15 118.7 14.8 118.4C14.4 117.8 14.1 116.2 13.8 114C13.6 111.8 13.5 109 13.5 106.4C13.5 103.8 13.5 101.2 13.3 99.1001C13.3 97.6001 13.2 96.4001 13.2 95.6001C13 95.0001 13.1 94.6001 13.3 94.4001C13.3 94.3001 13.3 94.3001 13.4 94.3001C13.1 94.1001 12.9 93.6001 13 92.9001C13 92.2001 13.3 91.5001 13.9 90.6001C14.0333 90.4668 14.2 90.3001 14.4 90.1001C14.4667 89.9668 14.6 89.8668 14.8 89.8001C15.0667 89.5334 15.3667 89.2334 15.7 88.9001C16.4333 88.3001 17.3333 87.5668 18.4 86.7001C20.5 85.0001 23.2 83.0001 26.3 80.7001C32.6 76.2001 40.7 70.9001 49 66.1001C57.3 61.3001 65.9 56.9001 73 53.6001C74.7 52.9001 76.4 52.1001 77.9 51.4001C78.7 51.1334 79.4333 50.8334 80.1 50.5001C80.6333 50.3001 81.1333 50.0668 81.6 49.8001L82.1 49.7001C82.2 49.7001 82.3 49.8001 82.5 49.8001L83.3 50.3001C83.6333 50.4334 83.9667 50.5668 84.3 50.7001C84.5 50.8334 84.7333 50.9668 85 51.1001C85.4667 51.3001 85.9333 51.4668 86.4 51.6001C87.2 52.0001 87.9 52.2001 88.4 52.3001C88.8 52.4334 89.1667 52.5668 89.5 52.7001C91.2 49.7001 92.6 46.7001 93.7 43.8001C96.2 37.4001 97.5 31.4001 97.9 26.6001C98.3 21.8001 98 18.3001 97.9 16.5001C97.7 13.6001 97.5 12.1001 97.5 11.2001C97.5 10.5001 97.6 10.3001 97.8 10.2001C97.9 9.70011 98.6 9.30011 101.2 9.20011C103.3 9.10011 109.1 9.30011 116.7 9.40011C124.4 9.50011 134 9.40011 143.6 9.30011C153.2 9.30011 162.8 9.30011 170.6 9.60011C178.3 9.90011 184.2 10.5001 186.2 10.9001C189.4 11.5001 189.8 12.0001 189.8 12.5001C189.7 13.1001 189.1 13.5001 186.1 13.7001C184 13.8001 178.3 13.7001 170.6 13.6001C162.9 13.6001 153.3 13.7001 143.7 13.8001C134.1 13.8001 124.5 13.8001 116.7 13.4001C108.9 13.1001 103.1 12.4001 101 12.0001C100.3 11.8001 99.8 11.7001 99.3 11.5001C99.7 12.4001 100.2 13.8001 100.7 16.0001C100.9 16.9001 101.1 18.3001 101.3 20.2001C101.4 22.0001 101.5 24.2001 101.4 26.7001C101.2 31.8001 100 38.2001 97.5 45.1001C94.9 51.9001 91.1 59.3001 85.7 66.0001C83.6333 68.6668 81.4667 71.2334 79.2 73.7001C79.6 73.7001 80.2 73.7001 81 73.7001C82.2 73.7001 83.8 73.7001 85.7 73.8001C85.8 73.7001 85.8 73.6001 85.9 73.5001C86.6 72.5001 88.7 69.8001 91.3 66.1001C93.9 62.4001 96.8 57.6001 99.1 52.5001C101.4 47.4001 103.2 42.0001 104.2 37.7001C105.3 33.3001 105.9 29.9001 106.2 28.7001C106.4 27.9001 106.6 27.4001 106.8 27.1001C106.533 26.9001 106.4 26.6668 106.4 26.4001C106.4 25.9001 106.4 25.6001 106.6 25.2001C107 24.7001 109 24.4001 110.5 23.8001C112 23.2001 112.9 22.2001 113.4 21.9001C113 21.6001 113 21.4001 113 21.2001C113.2 20.7001 113.5 20.5001 115.6 20.6001C117 20.7001 120.8 21.2001 126.1 21.2001C131.4 21.3001 138.1 20.9001 144.7 20.7001C158 20.4001 171.2 20.2001 174.1 20.5001C176.3 20.7001 176.7 21.0001 176.7 21.4001C176.7 21.4668 176.7 21.5334 176.7 21.6001C176.767 21.6001 176.9 21.6001 177.1 21.6001L177.2 21.7001C177.267 21.7668 177.333 21.8334 177.4 21.9001C177.533 22.0334 177.667 22.2001 177.8 22.4001C178.2 22.9001 178.7 23.4001 179.3 23.8001C180.6 24.7001 182.6 25.4001 182.9 25.8001C183.1 26.2001 183.1 26.5001 183 26.9001C182.933 27.1668 182.867 27.3668 182.8 27.5001C183 27.8001 183.2 28.3001 183 29.9001C182.8 32.6001 180.1 45.1001 175.2 57.0001C172.8 63.0001 169.8 68.7001 167 73.1001C164.1 77.4001 161.6 80.4001 160.5 81.4001C160 81.8001 159.6 82.2001 159.3 82.4001C161.8 82.8001 163.6 83.3001 164.6 83.6001C168.1 79.0001 171.2 74.3001 173.9 69.5001C178.2 62.2001 181.4 54.9001 183.6 48.2001C188.2 34.6001 188.6 23.7001 188.8 20.0001C189 14.1001 189.3 13.5001 189.9 13.5001C190.4 13.4001 191.1 14.1001 191.6 19.8001C191.667 20.4001 191.733 21.1001 191.8 21.9001C191.8 21.9001 191.833 21.8668 191.9 21.8001C192.8 21.3001 197.3 21.1001 201.9 21.2001C204.1 21.3001 206.4 21.4001 208.2 21.5001C209.1 21.6001 210.1 21.7001 210.8 22.0001C211.6 22.3001 212.2 22.7001 212.5 23.0001C213.1 24.0001 212.7 24.4001 212.4 24.7001C211.9 25.1001 211.4 25.2001 210.9 25.4001C210.6 25.5001 210 25.4001 208.2 25.6001C206.4 25.6001 204.1 25.7001 201.8 25.6001C197.3 25.5001 192.8 25.2001 191.9 24.7001C191.8 24.6001 191.8 24.6001 191.8 24.6001C191.7 26.5001 191.6 28.8001 191.3 31.3001C193.5 30.9001 198 31.0001 198.7 31.6001C199 31.9001 199.1 32.2001 199.1 32.6001C199.1 32.7334 199.1 32.8334 199.1 32.9001C199.3 33.0334 199.567 33.2334 199.9 33.5001C200.1 33.6334 200.333 33.7668 200.6 33.9001C200.7 34.0001 201.3 34.3001 201.7 34.5001C202.233 34.6334 202.833 34.8334 203.5 35.1001C203.3 35.6001 203 36.1001 202.7 36.7001C202.367 37.2334 202.033 37.7668 201.7 38.3001C201.3 39.0334 200.833 39.8334 200.3 40.7001C199.4 42.3001 198.2 44.2001 196.9 46.2001C194.4 50.2001 191.4 54.7001 188.4 59.0001C182.4 67.6001 176.4 75.3001 174.7 76.9001C174.633 76.9668 174.533 77.0668 174.4 77.2001C174.4 77.2001 174.367 77.2001 174.3 77.2001C172.9 79.5334 171.4 81.8001 169.8 84.0001C179.9 74.4001 189.5 65.0001 196.1 56.0001C200.3 50.4001 203.4 45.1001 205.5 40.7001C207.7 36.4001 208.8 33.0001 209.5 31.2001C211.4 25.8001 211.7 25.3001 212.2 25.4001C212.8 25.5001 213.3 26.3001 212.2 31.9001C211.8 33.7001 210.9 37.1001 209 41.5001C211.4 41.2001 216.4 41.1001 221.5 41.2001C224.6 41.3001 227.6 41.4001 230.1 41.6001C230.7 41.6668 231.3 41.7334 231.9 41.8001C232.1 41.8001 232.333 41.8001 232.6 41.8001C232.9 41.9001 233.2 41.9001 233.5 42.0001C234.6 42.2001 235.4 42.7001 235.8 43.2001C236.1 43.7001 236.2 44.1001 236.2 44.4001C236.2 44.6668 236.167 44.8668 236.1 45.0001C236.2 45.1001 236.4 45.3001 236.5 45.7001C237.1 47.0001 237.3 53.1001 237.2 59.3001C237.2 62.3001 237.1 65.5001 236.7 68.1001C236.3 70.6001 235.6 72.5001 235.2 73.1001C234.5 74.0001 234.1 74.1001 233.6 73.9001C233.2 74.6001 232 75.6001 229.1 77.6001C226 79.7001 216.9 85.5001 205.2 93.6001C204.267 94.2001 203.333 94.8334 202.4 95.5001C207.1 96.2001 216.7 98.1001 226.4 99.6001C238.3 101.5 250.3 102.4 252.8 103C254.8 103.4 255.1 103.9 255.1 104.3C255.1 104.367 255.1 104.433 255.1 104.5C255.233 104.633 255.367 104.733 255.5 104.8C255.7 105 255.8 105.1 255.9 105.4C255.9 105.5 256 105.8 256 105.8L256.1 106C257.1 108.5 255.7 129 254.6 131.4ZM183.1 60.9001C184 59.7001 184.8 58.4001 185.7 57.2001C188.7 52.9001 191.7 48.4001 194.3 44.5001C195.6 42.5001 196.8 40.7001 197.9 39.1001C198.433 38.3001 198.933 37.5668 199.4 36.9001L199.5 36.7001L199.6 36.6001L199.7 36.5001C199.7 36.4001 199.8 36.3001 199.8 36.3001C199.733 36.2334 199.667 36.1668 199.6 36.1001L199.5 36.0001L199.3 35.9001C198.9 35.5001 198.7 35.3001 198.5 35.0001C198.233 34.6668 198.033 34.3668 197.9 34.1001C196.1 34.5001 192.5 34.5001 190.9 34.1001C190.3 38.6001 189.3 43.7001 187.5 49.3001C186.3 53.0001 184.9 56.9001 183.1 60.9001ZM170.4 89.5001C170.4 89.5668 170.433 89.6668 170.5 89.8001C182.2 80.6001 193.7 71.7001 203.4 64.6001C214.9 56.2001 223.8 50.3001 227.1 48.4001C232.1 45.4001 232.8 45.5001 233.1 45.9001C233.4 46.4001 233.1 47.2001 228.8 50.7001C225.8 53.0001 217.1 59.2001 205.9 67.7001C196 75.3001 184.1 84.6001 172 94.2001C172.5 96.2001 172.8 98.4001 172.9 100.6C173.2 104.4 172.8 108.2 172.3 111C175.967 108.467 179.6 106 183.2 103.6C190.2 98.8001 196.8 94.3001 202.8 90.3001C214.8 82.4001 224.2 76.9001 227.6 75.2001C230.2 73.9001 231.7 73.2001 232.6 73.0001C232.533 72.8668 232.467 72.6668 232.4 72.4001C232.3 71.8001 232.5 70.0001 232.7 67.7001C232.8 65.4001 232.8 62.4001 232.8 59.3001C232.9 53.1001 233.2 47.0001 233.7 45.7001C233.7 45.6334 233.733 45.5668 233.8 45.5001C233.7 45.5001 233.4 45.5001 233 45.5001C232.6 45.5001 232.2 45.5001 231.8 45.5001C231.267 45.5668 230.667 45.6001 230 45.6001C227.6 45.7001 224.5 45.7001 221.4 45.6001C215.3 45.5001 209.2 45.1001 207.8 44.6001C207.733 44.5334 207.7 44.5001 207.7 44.5001C205.7 48.6001 202.9 53.4001 199.4 58.2001C192.1 68.5001 181.4 79.0001 170.4 89.5001ZM253.3 105.7C253.1 105.7 252.933 105.733 252.8 105.8C250.2 106.3 237.9 105.9 225.8 103.9C213.7 102.1 201.9 99.1001 199.5 98.0001C199.367 97.9334 199.233 97.8668 199.1 97.8001C196.567 99.5334 193.933 101.367 191.2 103.3C191.3 103.3 191.5 103.3 191.7 103.3C192.6 103.4 195 104 198.2 104.7C201.5 105.4 205.6 106.1 209.7 106.7C218 108 226.3 108.4 228.1 108.7C229.5 109 229.7 109.3 229.7 109.7C229.7 109.9 229.633 110.067 229.5 110.2C229.6 110.5 229.8 110.9 230.1 111.4C230.167 111.533 230.267 111.7 230.4 111.9C230.5 112 230.5 112 230.7 112.2C230.8 112.3 231 112.4 231.3 112.5C231.967 112.833 232.7 113.167 233.5 113.5C233.3 113.7 233.3 113.8 233.1 113.9C232.9 114.1 232.7 114.267 232.5 114.4C231.967 114.8 231.433 115.2 230.9 115.6C230.167 116.2 229.4 116.833 228.6 117.5C227.1 118.5 225.5 119.8 223.8 121.1C220.2 123.8 216.2 126.8 212.2 129.7C204.3 135.4 196.8 140.6 194.8 141.6C193.2 142.5 192.8 142.4 192.6 142.1C192.6 142.033 192.6 142 192.6 142C192.3 141.9 191.9 141.7 191.4 141.4C191 141.1 190.3 140.7 189.2 140.4C188.1 140.1 186.6 140 185.2 140.6C184.8 140.8 184.467 141 184.2 141.2C184 141.3 184 141.3 183.5 141.8C183.1 142.1 182.8 142.7 182.2 142.4C180.933 142.133 179.633 141.867 178.3 141.6C176 141.1 173.5 140.6 171.1 140C161.4 137.7 151.9 134.9 149.9 133.9C149.5 133.7 149.2 133.5 149 133.4C147.2 134.8 145.4 136.2 143.6 137.6C153.3 139 187.1 147.3 191.3 149.2C191.833 149.467 192.233 149.7 192.5 149.9C192.7 149.6 192.9 149.3 193.2 148.9C195.6 146.3 208.3 135.9 221.7 126.4C235.1 116.8 248.8 107.9 251.9 106.3C252.5 106 252.9 105.8 253.3 105.7ZM88.6 73.9001C90.9 74.0001 93.5 74.2001 96.4 74.4001C98.8 72.5001 100.8 71.2001 102.1 70.5001C102.8 70.1001 103.5 69.6001 104.4 69.1001C106 68.3001 109.4 66.9001 114.1 66.6001C118.8 66.2001 124.8 66.9001 131.2 69.0001C132.8 69.5001 134.5 70.3001 136.1 71.3001C137.7 72.4001 139.2 73.9001 140.2 75.8001C140.8 76.9001 141.1 78.1001 141.3 79.3001C147.9 80.3001 153.7 81.3001 158 82.1001H158.1C158 81.7001 158.2 81.2001 158.9 80.0001C159.6 78.9001 161.8 75.8001 164.4 71.5001C167 67.2001 169.8 61.7001 172.1 55.8001C176.9 44.2001 179.9 31.9001 181 29.4001C181.2 28.7001 181.4 28.3001 181.6 28.0001C180.7 28.0001 179.1 27.6001 177.6 26.6001C176.5 25.9001 175.6 24.9001 175.2 23.9001C175 23.5001 174.9 23.0001 174.9 22.6001V22.5001C174.7 22.5001 174.5 22.5334 174.3 22.6001C171.4 23.1001 158.1 23.7001 144.8 24.0001C138.1 24.2001 131.5 24.5001 126.1 24.2001C121 24.0001 117.1 23.3001 115.5 22.8001C115.5 23.2001 115.2 23.9001 114.7 24.6001C114.1 25.5001 113.1 26.3001 111.9 26.8001C110.4 27.4001 109 27.5001 108.1 27.5001C108.167 27.8334 108.233 28.3001 108.3 28.9001C108.4 30.1001 108.1 33.7001 107.2 38.3001C106.3 42.9001 104.5 48.5001 102.1 53.8001C99.7 59.1001 96.6 64.1001 93.8 67.8001C91.7 70.6001 89.8 72.7001 88.6 73.9001ZM137.4 77.3001C136.1 74.6001 133.2 72.9001 130.3 71.8001C124.3 69.8001 118.7 69.0001 114.4 69.2001C110.1 69.4001 107 70.4001 105.5 71.0001C105.433 71.0001 105.4 71.0001 105.4 71.0001C104.9 71.3001 104.3 71.7001 103.6 72.2001C102.8 72.7001 101.6 73.5001 100.1 74.6001C106.9 75.1001 114.5 75.9001 122.2 76.8001C127.6 77.4001 132.9 78.1001 138 78.8001C137.867 78.2668 137.667 77.7668 137.4 77.3001ZM79 76.6001C78.0667 76.4001 77.3667 76.2334 76.9 76.1001C73.8 79.2001 70.6 82.2001 67.3 85.0001C64.9 87.0001 62.6 88.9001 60.2 90.7001C60.2667 90.7001 60.3667 90.7001 60.5 90.7001C63.4 90.5001 73 91.0001 84.8 92.2001C85.8 92.3334 86.8 92.4334 87.8 92.5001C92.9 93.0001 98.2 93.7001 103.5 94.4001C111.9 95.6001 120.2 97.0001 127.3 98.3001C128.767 98.5668 130.167 98.8334 131.5 99.1001C138.7 100.5 144.1 101.7 146 102.4C146.533 102.533 147 102.7 147.4 102.9C147.933 103.1 148.333 103.267 148.6 103.4C149.3 103.8 149.4 104.1 149.3 104.4C149.3 104.7 149.1 104.9 148.5 105C148.767 105.2 149.033 105.467 149.3 105.8C149.367 105.933 149.433 106.1 149.5 106.3C149.567 106.433 149.633 106.567 149.7 106.7C149.767 107.033 149.9 107.467 150.1 108C150.3 108.733 150.533 109.667 150.8 110.8C151.2 112.7 151.6 114.9 152 117.1C152.4 119.7 152.6 122.4 152.5 124.6C152.5 124.9 152.5 125.1 152.5 125.3C155.5 123.1 158.5 120.8 161.6 118.6C163.8 117 166.033 115.433 168.3 113.9C168.3 111.3 168.8 106 168.5 100.9C168.5 99.6001 168.3 98.4001 168.2 97.2001C167.9 95.5001 167.6 93.9001 167.2 92.4001C167.2 92.3334 167.2 92.2334 167.2 92.1001C166.8 90.8001 166.4 89.7001 166.2 88.8001C166 88.4001 165.867 88.0334 165.8 87.7001C165.733 87.5001 165.7 87.3334 165.7 87.2001C165.633 86.8668 165.6 86.6001 165.6 86.4001C165.267 86.4001 164.867 86.4001 164.4 86.4001C163.933 86.4001 163.333 86.3668 162.6 86.3001C158.6 85.9001 150.7 84.8001 141.2 83.6001C140.1 83.4001 139.1 83.3001 138 83.1001C132.8 82.5001 127.3 81.8001 121.7 81.1001C112.5 80.1001 103.2 79.1001 95.6 78.4001C94.3333 78.2668 93.1333 78.1334 92 78.0001C85.6 77.4001 80.8 76.9001 79 76.6001ZM3.10001 134.9C3.20001 135.3 3.40001 135.5 3.50001 135.7C4.03334 135.633 4.73334 135.567 5.60001 135.5C10.1 135.5 30.7 137.6 51.2 140C56.4 140.7 61.5 141.1 66.4 141.5C71.3 142 75.9 142.5 80.1 142.9C84.2 143.3 87.8 143.8 90.7 144C92.9 144.2 94.5 144.2 95.7 144.2C96.4 143.5 97.3 142.8 98.4 141.9C101.4 139.4 110.4 133.2 121.9 124.5C129.1 119.1 137.2 112.5 145.1 105.1C143.7 105 141.5 104.7 138.5 104.2H138.4C138.3 104.4 138.1 104.7 137.8 105.1C136.4 107 128.4 114 120 120.5C111.6 127 102.9 133.1 100.8 134.1C100.2 134.4 99.9 134.5 99.6 134.6C99.4667 134.733 99.3 134.833 99.1 134.9C98.3 135.2 94.9 135.2 91.5 135.8C89.8 136.2 88.1 136.6 87 137C85.8 137.5 85.3 138 85 138.1C84.9 138.2 84.8 138.2 84.7 138.2C84.6 138.6 84.1 138.8 82.2 138.9C76.6 139 30.9 133 25.5 131.6C23.8 131.2 23.4 130.8 23.3 130.5C23.2333 130.567 23.1667 130.6 23.1 130.6C22.3 131 21.6 131.1 21.3 131C20.9 130.8 20.8 130.5 20.7 130.1C20.6 129.7 20.6 129.3 20.7 128.9C20.9 128.5 22 127.9 22.8 126.8C23.6 125.7 23.9 124.4 24.3 124C24.4 123.9 24.5 123.9 24.6 123.8C24.6 123.4 24.8 123 25.8 122.1C27.6 120.7 36.5 115.5 44.8 109.3C53.2 103.2 60.8 96.2001 62.6 94.9001C64 93.9001 64.4 94.0001 64.6 94.3001C65 94.6001 65.1 95.0001 64.1 96.4001C62.8 98.3001 55.3 105.7 46.8 111.9C38.4 118.3 29 123.2 26.9 124C26.7 124 26.6 124.1 26.5 124.1C26.7 124.4 26.8 125 26.7 125.7C26.6 126.6 26.2 127.7 25.5 128.6C25.3 129 25 129.3 24.7 129.6C24.9667 129.533 25.3 129.5 25.7 129.5C31.3 129.4 77.1 135.4 82.5 136.8C82.7667 136.867 83 136.933 83.2 137C83.2 136.4 84.1 135.1 85.6 134.3C87.1 133.5 88.9 133 90.8 132.6C94.6 131.9 98.4 132.3 99.2 132.8C99.3 132.6 99.4 132.5 99.6 132.4C101.2 130.7 109.6 124.4 117.9 117.9C125.8 111.8 133.5 105.5 136 103.8C133.4 103.4 130.4 102.9 127.2 102.4C125.6 103.467 123.933 104.4 122.2 105.2C114.5 108.8 105.6 109.7 97.8 107.6C93.9 106.6 90 104.7 87.5 101.4C86.3 99.9001 85.6 98.2001 85.2 96.5001C73.1 95.1001 63.2 94.0001 60.4 93.5001C58.9 93.2001 58.1 93.0001 57.6 92.8001C53.9 95.6001 50.1 98.4001 46.5 101C39.7 106 33.3 110.7 27.5 114.8C21.8 119 16.7 122.6 12.7 125.5C10.6333 126.9 8.86667 128.1 7.40001 129.1C6.00001 130.2 4.80001 130.9 4.20001 131.4C3.30001 132.2 2.90001 132.9 2.80001 133.5C2.80001 134.1 2.90001 134.6 3.10001 134.9ZM15.8 94.1001C16 94.2001 16.1 94.2001 16.3 94.3001C16.8 94.4001 17.8 94.6001 18.8 95.0001C20.8 95.6001 23.3 96.5001 25.8 97.4001C30.8 99.3001 35.6 101.5 36.5 102.3C36.7 102.5 36.8333 102.667 36.9 102.8C38.4 101.7 39.9 100.6 41.4 99.5001C40.7 99.6001 38.4 98.5001 36.1 97.3001C33.8 96.1001 31.6 94.9001 31.2 94.3001C30.9 93.9001 31 93.6001 31.2 93.2001C31.3 92.9001 31.5 92.6001 31.9 92.4001C31.9 92.1001 32.2 91.6001 32.8 90.5001C32.9 90.2001 33.1 89.8001 33.3 89.2001C33.3667 88.8668 33.4 88.5334 33.4 88.2001C33.5 88.0001 33.5 87.9001 33.4 87.5001C33.4 87.1001 33.3667 86.6334 33.3 86.1001C34.9 85.0001 37 83.8001 39.2 82.3001C41.2 81.1001 43.4 79.7001 45.8 78.3001C50.5 75.4001 55.8 72.3001 60.8 69.3001C65.9 66.3001 70.7 63.5001 74.6 61.3001C76.5 60.2001 78.2 59.2001 79.8 58.6001C81.4 58.0001 82.8 58.0001 83.6 58.1001C84.6 58.3001 85.2 58.6001 85.6 59.0001C86.5 57.7001 87.3 56.4001 88.1 55.1001C88 55.1001 88 55.1001 87.9 55.1001C87.3 55.1001 86.5 55.0001 85.5 54.7001C85.0333 54.6334 84.5 54.5001 83.9 54.3001C83.6 54.2001 83.3 54.1001 83 53.9001C82.7333 53.8334 82.4667 53.7334 82.2 53.6001C82.1 53.6001 82.1 53.6001 82 53.6001V53.7001H81.9L81.7 53.8001C81.0333 54.1334 80.3333 54.5001 79.6 54.9001C78.0667 55.6334 76.4667 56.4001 74.8 57.2001C67.9 60.7001 59.5 65.1001 51.3 69.9001C43.1 74.6001 35.1 79.7001 28.7 84.0001C25.5 86.1001 22.7 88.0001 20.5 89.5001C19.4333 90.2334 18.5 90.8668 17.7 91.4001C17.3 91.6668 16.9333 91.9001 16.6 92.1001C16.3333 92.3001 16.1333 92.4334 16 92.5001C15.6 92.8001 15.3 93.2001 15.1 93.4001C15.0333 93.4668 15 93.5334 15 93.6001C15.2667 93.6668 15.5333 93.8334 15.8 94.1001ZM84.7 60.2001C84.4 60.2001 84 60.2001 83.5 60.2001C83 60.3001 82.1 60.4001 80.8 61.0001C79.6 61.5001 78 62.6001 76.1 63.8001C72.3 66.1001 67.6 69.1001 62.5 72.1001C57.5 75.1001 52.2 78.2001 47.4 81.0001C45 82.4001 42.8 83.7001 40.8 84.9001C39.7333 85.5001 38.7667 86.0334 37.9 86.5001C37.4333 86.7668 37 87.0001 36.6 87.2001L36.3 87.4001H36.2C36.1333 87.4668 36.1 87.5001 36.1 87.5001C36.1 87.5668 36.1 87.6334 36.1 87.7001C36 87.9001 36 88.2001 36 88.5001C35.9 89.0001 35.7 89.5001 35.6 89.9001C35.3 90.7001 34.9 91.3001 34.6 91.6001C34.2 92.1001 33.8 92.4001 33.5 92.6001C34.6 92.9001 36.1 93.6001 37.6 94.3001C39.9 95.5001 42.1 97.0001 42.4 97.6001C42.7 98.1001 42.5 98.4001 42.3 98.7001C42.3 98.7668 42.2667 98.8334 42.2 98.9001C42.2 98.9001 42.2333 98.8668 42.3 98.8001C42.3 98.8668 42.3 98.8668 42.3 98.8001C42.8 98.4001 43.3 98.0001 43.8 97.6001C50.6 92.6001 57.6 87.4001 64.3 81.7001C71 76.1001 77.2 69.9001 82.3 63.5001C83.1667 62.4334 83.9667 61.3334 84.7 60.2001ZM17.9 106.3C17.9 109 17.8 111.6 17.8 113.7C17.8 115.2 17.8 116.5 17.7 117.2C20 115.5 22.4 113.7 25 111.7C27.9333 109.5 31 107.2 34.2 104.8C32.1 104.4 28.2 103.1 24.3 101.6C21.8 100.6 19.4 99.6001 17.4 98.7001C17.4 98.7001 17.3667 98.7001 17.3 98.7001C17.7 100.9 17.9 103.6 17.9 106.3ZM103 98.8001C98.1 98.1001 93.2 97.5001 88.5 96.9001C88.8333 97.8334 89.3 98.6668 89.9 99.4001C91.8 101.9 95 103.6 98.5 104.5C105.5 106.3 113.7 105.6 120.7 102.3C121.167 102.033 121.633 101.8 122.1 101.6C116.1 100.7 109.6 99.7001 103 98.8001ZM98 177C97.9333 177 97.9 176.967 97.9 176.9C96.5 174.2 94.3 150.5 95 147.6C95 147.5 95 147.4 95.1 147.3C93.9 147.433 92.4 147.5 90.6 147.5C87.7 147.5 84 147.2 79.9 146.9C75.7 146.6 71 146.2 66.1 145.8C61.2 145.4 56 145 50.8 144.4C30.3 142 9.70001 139.3 5.30001 138.3C4.30001 138.1 3.60001 137.9 3.10001 137.7C3.10001 137.767 3.10001 137.833 3.10001 137.9C3.03334 137.967 3.00001 138.067 3.00001 138.2C3.00001 138.267 3.06667 138.333 3.20001 138.4C3.26667 138.467 3.40001 138.533 3.60001 138.6C3.73334 138.6 3.86667 138.633 4.00001 138.7C4.06667 138.7 4.10001 138.7 4.10001 138.7C4.16667 138.7 4.20001 138.7 4.20001 138.7V138.8L4.30001 138.9C4.36667 139.167 4.46667 139.5 4.60001 139.9C4.80001 140.7 5.10001 141.7 5.30001 142.9C5.80001 145.2 6.20001 148.1 6.40001 151.1C6.70001 155.7 6.50001 160.3 6.20001 162.6C6.70001 162.6 7.30001 162.5 8.20001 162.5C12.5 162.3 32.5 164.1 52.4 166.9C62.3 168.3 72.2 170 80.1 171.4C84.1 172.2 87.6 172.8 90.4 173.6C93.2 174.4 95.2 175.3 96.2 175.8C97 176.3 97.5 176.7 98 177ZM4.00001 138.8H3.90001C3.90001 138.8 3.93334 138.8 4.00001 138.8ZM122.4 149.9C129.8 143 138.9 135.6 148.7 128.2C148.6 127.5 148.6 126.2 148.5 124.7C148.4 122.8 148 120.3 147.6 117.8C147.4 116.4 147.2 115 147 113.7C140.2 119 133.6 123.9 127.7 128.1C116.2 136.4 107.2 142.2 103.8 144C99.4 146.5 98.1 146.9 97.7 146.7C97.6333 146.7 97.6 146.7 97.6 146.7C97.5333 146.7 97.4667 146.733 97.4 146.8C97.5333 146.933 97.6667 147.1 97.8 147.3C98.9 149.5 100.6 165.3 100.8 172.8C101.2 172.2 101.7 171.6 102.2 170.8C104.6 167.8 111.8 159.6 122.4 149.9ZM191.3 172.3C191 170.4 190.9 166.6 190.8 162.7C190.7 160.7 190.7 158.7 190.7 157C190.7 154.5 190.8 152.6 191 152H190.7C185.6 151.9 145.5 142.2 140.9 140.1C140.767 140.033 140.667 139.967 140.6 139.9C135 144.4 129.8 148.7 125.2 152.8C123.667 154.133 122.2 155.467 120.8 156.8C127.7 157.2 182.3 169.4 191.3 172.3ZM252.5 109.5C248.4 112.9 236.3 121.3 224.3 129.9C211 139.4 198.1 149.3 195 151.1C194.6 151.4 194.2 151.6 193.9 151.8C194.5 152.9 195.1 157.7 195.2 162.5C195.3 166.2 195.1 169.8 194.7 171.9C197.4 169.3 209.7 159.6 222.2 150.1C228.5 145.3 235 140.6 240.4 137.1C245.7 133.5 249.9 131 251.4 130.3C251.467 130.3 251.533 130.3 251.6 130.3C251.1 126.5 251.7 115.4 252.5 109.5ZM164.3 122.1C159.8 125.3 155.3 128.6 150.9 131.9C153.8 132.3 162.8 134.7 171.8 136.8C174.2 137.3 176.6 137.9 178.9 138.4C179.5 138.533 180.067 138.667 180.6 138.8C181 138.9 181.6 139 181.7 139.1C181.7 139.167 181.733 139.167 181.8 139.1C182 138.9 183.2 138.1 184.1 137.8C186.4 137 188.5 137.4 190 137.9C191.5 138.5 192.4 139.3 192.8 139.8C193 140 193.133 140.2 193.2 140.4C193.3 140.2 193.4 140.1 193.6 139.9C195 138.4 202.3 132.8 210.2 127C214.2 124.1 218.3 121.1 221.9 118.6C223.7 117.3 225.4 116.1 226.8 115.1C227.2 114.833 227.567 114.6 227.9 114.4C228.1 114.267 228.267 114.167 228.4 114.1L228.5 114C228.633 113.933 228.733 113.9 228.8 113.9L228.9 113.8C228.9 113.8 228.9 113.767 228.9 113.7C228.7 113.6 228.7 113.6 228.5 113.2C228.233 112.733 228.1 112.367 228.1 112.1C228 111.6 228 111.2 228.1 110.9C226.2 111.3 217.7 111.3 209.3 110C205.1 109.4 200.9 108.5 197.6 107.6C194.2 106.8 191.8 105.8 191 105.3C190.1 104.8 189.9 104.5 189.8 104.2C188.5 105.1 187.1 106.1 185.7 107C178.8 111.9 171.5 116.9 164.3 122.1ZM254.2 105.4C254.2 105.4 254.167 105.4 254.1 105.4C254.1 105.4 254.133 105.4 254.2 105.4Z" fill="#100F12"/>
<path d="M168.3 113.9C166.033 115.433 163.8 117 161.6 118.6C158.5 120.8 155.5 123.1 152.5 125.3C152.5 125.1 152.5 124.9 152.5 124.6C152.6 122.4 152.4 119.7 152 117.1C151.6 114.9 151.2 112.7 150.8 110.8C150.533 109.667 150.3 108.733 150.1 108C149.9 107.467 149.767 107.033 149.7 106.7C149.633 106.567 149.567 106.433 149.5 106.3C149.433 106.1 149.367 105.933 149.3 105.8C149.033 105.467 148.767 105.2 148.5 105C149.1 104.9 149.3 104.7 149.3 104.4C149.4 104.1 149.3 103.8 148.6 103.4C148.333 103.267 147.933 103.1 147.4 102.9C147 102.7 146.533 102.533 146 102.4C144.1 101.7 138.7 100.5 131.5 99.1001C130.167 98.8334 128.767 98.5668 127.3 98.3001C120.2 97.0001 111.9 95.6001 103.5 94.4001C98.2 93.7001 92.9 93.0001 87.8 92.5001C86.8 92.4334 85.8 92.3334 84.8 92.2001C73 91.0001 63.4 90.5001 60.5 90.7001C60.3667 90.7001 60.2667 90.7001 60.2 90.7001C62.6 88.9001 64.9 87.0001 67.3 85.0001C70.6 82.2001 73.8 79.2001 76.9 76.1001C77.3667 76.2334 78.0667 76.4001 79 76.6001C80.8 76.9001 85.6 77.4001 92 78.0001C93.1333 78.1334 94.3333 78.2668 95.6 78.4001C103.2 79.1001 112.5 80.1001 121.7 81.1001C127.3 81.8001 132.8 82.5001 138 83.1001C139.1 83.3001 140.1 83.4001 141.2 83.6001C150.7 84.8001 158.6 85.9001 162.6 86.3001C163.333 86.3668 163.933 86.4001 164.4 86.4001C164.867 86.4001 165.267 86.4001 165.6 86.4001C165.6 86.6001 165.633 86.8668 165.7 87.2001C165.7 87.3334 165.733 87.5001 165.8 87.7001C165.867 88.0334 166 88.4001 166.2 88.8001C166.4 89.7001 166.8 90.8001 167.2 92.1001C167.2 92.2334 167.2 92.3334 167.2 92.4001C167.6 93.9001 167.9 95.5001 168.2 97.2001C168.3 98.4001 168.5 99.6001 168.5 100.9C168.8 106 168.3 111.3 168.3 113.9Z" fill="#68C89A"/>
<path d="M85 24.0001C85.2 24.8001 85.7 25.1001 86.3 25.3001C86.7 25.4001 87.2 25.4001 87.8 24.6001C88.5 23.6001 90 18.1001 89.5 12.5001C89.2 6.90007 87.1 1.60007 86.1 0.800069C85.4 0.100069 84.9 0.200069 84.3 0.500069C83.9 0.600069 83.5 0.900069 83.5 1.80007C83.5 3.00007 84.9 7.90007 85.1 12.9001C85.5 17.8001 84.7 22.8001 85 24.0001Z" fill="#100F12"/>
<path d="M96.4 183.6C94.9 183.1 87.8 182.5 80.8 181.7C73.8 180.9 66.9 179.7 65.3 180C64.1 180.2 63.9 180.6 63.7 181.2C63.6 181.7 63.7 182.2 64.7 182.8C66.2 183.6 73.2 185.2 80.4 186.1C87.6 186.9 94.8 187 96.4 186.5C97.5 186.1 97.7 185.6 97.7 185C97.7 184.5 97.6 184 96.4 183.6Z" fill="#100F12"/>
<path d="M47 177C44 176.9 41 177.4 40.4 178C40 178.5 40 179 40 179.6C40.1 180.1 40.2 180.5 40.7 180.8C41.3 181.3 44.2 181.3 47 181.4C49.8 181.5 52.6 181.5 53.3 181C53.8 180.6 53.9 180.2 54 179.6C54 179.1 54 178.6 53.6 178.2C53 177.6 50 177.1 47 177Z" fill="#100F12"/>
</g>
<defs>
<clipPath id="clip0_41_37363">
<rect width="257" height="187" fill="white"/>
</clipPath>
</defs>
</svg>
