<svg width="500" height="372" viewBox="0 0 500 372" fill="none" xmlns="http://www.w3.org/2000/svg">
<g clip-path="url(#clip0_41_37375)">
<mask id="mask0_41_37375" style="mask-type:luminance" maskUnits="userSpaceOnUse" x="0" y="0" width="500" height="372">
<path d="M500 0H0V371.404H500V0Z" fill="white"/>
</mask>
<g mask="url(#mask0_41_37375)">
<path fill-rule="evenodd" clip-rule="evenodd" d="M52.0468 369.564C50.6528 370.17 49.0164 369.018 49.077 367.321C49.077 366.109 49.38 364.837 49.3194 363.625C49.1982 361.019 48.8952 358.473 48.7134 355.867C48.5315 353.322 48.4709 350.716 48.3497 348.11C48.2285 345.868 48.1073 343.625 48.0467 341.383C47.9255 337.828 47.8244 334.293 47.7436 330.778C47.683 327.323 47.6224 323.808 47.5618 320.293C47.5618 317.263 47.683 314.172 47.683 311.081C47.683 308.415 47.5012 305.748 47.5012 303.021C47.5012 300.779 47.683 298.537 47.7436 296.294C47.7436 295.022 47.8042 293.749 47.683 292.476C47.38 288.598 47.0163 284.78 46.7739 280.901C46.5315 277.447 46.3497 273.932 46.1678 270.477C46.0466 267.932 45.9254 265.387 45.8042 262.841C45.8042 262.538 45.986 262.175 46.1678 261.872C46.5315 261.023 47.0164 260.235 47.2588 259.69C50.6528 259.387 53.8044 259.023 57.0165 258.72C60.7742 258.417 64.5318 257.932 68.2895 257.751C71.0774 257.569 73.926 257.751 76.7745 257.69C78.2291 257.69 79.6231 257.569 81.0776 257.387C85.6232 256.902 90.2293 256.417 94.7749 255.872C96.5931 255.69 98.4113 255.145 100.29 255.084C102.169 255.023 104.108 255.326 106.048 255.508C106.775 255.569 107.502 255.508 108.169 255.508C109.826 255.508 111.482 255.488 113.139 255.448C114.997 255.448 116.876 255.427 118.775 255.387C121.2 255.326 123.563 255.266 125.988 255.084C128.715 254.963 131.382 254.66 134.048 254.539C137.321 254.357 140.533 254.417 143.746 254.236C145.988 254.114 148.23 253.751 150.473 253.569C152.776 253.448 155.079 253.387 157.322 253.327C160.473 253.145 163.625 252.902 166.776 252.842C169.625 252.72 172.534 252.781 175.383 252.781C175.686 252.781 175.928 252.781 176.17 252.781C180.716 252.236 185.201 251.751 189.686 253.023C189.928 253.084 190.292 253.266 190.413 253.145C191.928 252.236 192.837 253.448 193.383 254.296C194.05 255.205 194.413 256.478 194.474 257.629C194.777 262.962 194.898 268.235 195.14 273.568C195.262 276.416 195.565 279.325 195.686 282.174C195.868 285.931 195.928 289.628 196.05 293.385C196.11 295.749 195.928 298.112 196.05 300.476C196.11 302.718 196.474 304.9 196.534 307.082C196.595 308.839 196.474 310.597 196.413 312.415C196.353 313.809 196.413 315.263 196.413 316.657C196.413 321.081 196.292 325.566 196.413 329.99C196.534 332.838 196.959 335.686 197.141 338.535C197.262 340.838 197.201 343.141 197.262 345.444C197.322 348.474 197.504 351.443 197.565 354.413C197.565 355.807 197.201 357.14 197.08 358.534C197.08 358.837 197.504 359.2 197.747 359.443C197.989 359.746 198.535 359.988 198.595 360.291C198.595 361.988 199.019 363.867 198.353 365.261C197.868 366.412 196.11 367.382 194.777 367.624C193.08 367.927 191.322 368.17 189.443 367.806C187.686 367.382 185.686 367.927 183.746 367.988C182.534 368.049 181.322 367.927 180.17 367.927C179.201 367.988 178.231 368.17 177.261 368.17C175.261 368.23 173.322 368.17 171.322 368.109C169.807 368.109 168.352 368.23 166.837 368.17C165.2 368.049 163.564 367.806 161.988 367.624C161.806 367.624 161.685 367.564 161.503 367.624C158.049 368.473 154.473 368.17 150.958 368.17C145.988 368.23 140.958 368.109 135.988 368.352C130.473 368.594 124.957 369.139 119.442 369.503C115.806 369.685 112.169 369.745 108.533 369.927C104.714 370.17 100.896 370.594 97.0779 370.776C94.7749 370.897 92.4112 370.533 90.0475 370.594C86.4717 370.655 82.8959 370.958 79.32 371.018C75.3199 371.139 71.3199 371.139 67.3198 371.261C63.6227 371.321 59.9863 371.564 56.2893 371.624C54.5923 371.624 52.9559 371.261 52.0468 369.564ZM194.05 361.867C194.292 359.382 194.292 359.382 193.443 356.837C193.383 356.595 193.322 356.231 193.322 355.928C193.262 351.989 193.14 347.989 193.14 344.05C193.08 342.595 193.383 341.141 193.322 339.747C193.14 335.686 192.837 331.626 192.656 327.566C192.534 325.263 192.595 322.899 192.534 320.596C192.413 318.354 192.231 316.172 192.171 313.99C192.11 311.627 192.292 309.324 192.231 306.96C192.11 304.961 191.746 303.021 191.625 301.021C191.504 298.9 191.565 296.718 191.443 294.537C191.322 291.567 191.08 288.598 190.959 285.567C190.898 283.749 191.14 281.931 191.08 280.113C191.019 277.386 190.837 274.719 190.777 271.992C190.716 270.477 190.777 268.902 190.777 267.386C190.716 264.356 190.534 261.387 190.534 258.417C190.595 256.054 190.11 255.629 187.686 255.872C185.08 256.054 182.474 256.114 179.867 256.235C177.564 256.296 175.261 256.235 173.019 256.478C171.019 256.66 169.14 257.266 167.201 257.508C165.443 257.751 163.685 257.69 161.988 257.811C156.715 258.114 151.503 258.417 146.23 258.66C142.958 258.841 139.564 258.599 136.291 259.084C130.897 259.932 125.563 259.932 120.169 259.993C117.503 260.053 114.836 260.235 112.169 260.235C109.199 260.235 106.23 259.993 103.26 260.053C101.199 260.053 99.1992 260.114 97.1992 260.478C91.9869 261.326 86.7747 262.114 81.4413 261.629C79.8049 261.508 78.1685 261.205 76.5321 261.387C71.5017 261.811 66.4107 262.478 61.3803 263.023C58.1681 263.387 54.9559 263.629 51.7437 263.993C51.3195 264.053 50.7134 264.72 50.7134 265.084C50.5922 267.568 50.5922 270.053 50.7134 272.538C50.8346 276.235 51.1376 279.871 51.2589 283.568C51.3801 285.204 51.1982 286.84 51.2589 288.476C51.3195 290.719 51.5619 292.961 51.5619 295.264C51.5619 298.234 51.3195 301.264 51.2589 304.233C51.2589 307.809 51.3195 311.324 51.4407 314.899C51.5619 320.051 51.7437 325.141 51.8649 330.293C51.9255 333.323 51.6225 336.353 51.7437 339.323C51.8649 343.928 52.2286 348.534 52.5316 353.08C52.8953 357.685 53.3195 362.291 53.7438 367.14C55.0165 367.018 56.0468 366.836 57.1378 366.897C60.3499 367.018 63.6227 367.261 66.8349 367.382C71.5623 367.544 76.2897 367.645 81.017 367.685C82.5322 367.685 84.0474 367.443 85.5626 367.321C88.4111 367.079 91.199 366.776 93.987 366.594C95.3809 366.473 96.7143 366.473 98.1083 366.352C100.836 366.17 103.624 365.988 106.411 365.806C107.805 365.746 109.26 365.806 110.654 365.685C113.139 365.503 115.624 365.079 118.169 364.897C121.381 364.715 124.594 364.776 127.866 364.715C132.715 364.534 137.624 364.291 142.533 364.17C145.624 364.109 148.715 364.231 151.806 364.17C155.746 364.109 159.685 364.049 163.564 363.867C168.11 363.564 172.655 363.14 177.201 362.837C182.777 362.473 188.352 362.17 194.05 361.867Z" fill="#100F12"/>
<path fill-rule="evenodd" clip-rule="evenodd" d="M134.897 280.053C135.564 279.75 136.291 279.083 136.776 279.265C137.927 279.628 138.958 280.416 140.048 281.022C139.745 281.568 139.503 282.174 139.018 282.537C138.715 282.84 138.17 282.78 137.503 282.901C138.533 284.113 139.503 285.143 140.412 286.234C143.261 289.81 145.14 293.87 146.594 298.173C148.352 303.627 148.534 309.203 147.624 314.778C147.079 317.93 146.049 321.02 145.018 324.111C144.17 326.657 143.139 329.262 141.806 331.565C139.988 334.656 137.927 337.505 134.897 339.565C132.654 341.08 130.594 342.777 128.169 344.535C128.836 344.838 129.2 345.141 129.503 345.201C130.715 345.383 130.594 346.292 130.291 346.959C130.109 347.443 129.321 347.989 128.897 347.868C127.503 347.565 126.169 346.898 124.775 346.413C124.412 346.292 123.988 346.231 123.624 346.292C118.291 346.716 112.957 346.959 107.745 345.928C102.048 344.777 96.4719 343.201 91.5627 339.989C88.5323 338.05 85.9262 335.505 83.1989 333.141C80.411 330.656 78.2897 327.566 76.7139 324.293C75.32 321.263 74.0472 318.051 73.9866 314.536C73.9866 312.233 73.5018 309.93 73.623 307.627C73.7442 305.082 74.1078 302.476 74.7745 299.991C75.5018 297.325 76.5321 294.658 77.7443 292.113C78.5928 290.234 79.8049 288.476 81.1383 286.84C83.0171 284.658 84.8959 282.477 87.0778 280.659C88.896 279.083 91.0779 277.992 93.1991 276.841C96.3507 275.144 99.6235 273.871 103.139 273.265C104.896 272.962 106.654 272.841 108.412 272.538C109.139 272.417 109.745 272.053 110.472 271.871C113.381 271.204 116.109 272.174 118.897 272.78C122.775 273.689 126.594 275.023 129.988 277.144C131.685 278.174 133.261 279.386 134.836 280.477C134.877 280.315 134.897 280.174 134.897 280.053ZM78.5928 304.294C78.6736 304.294 78.7746 304.314 78.8958 304.355C82.2292 300.658 85.502 297.022 88.8354 293.325C91.3809 290.497 93.9062 287.648 96.4113 284.78C97.4416 283.568 98.4113 282.234 99.5023 281.083C99.7447 280.78 100.593 280.659 100.896 280.84C101.26 281.083 101.745 281.568 100.957 282.295C99.5629 283.568 98.4719 285.204 97.1992 286.598C94.4113 289.81 91.6233 292.961 88.8354 296.112C85.6434 299.789 82.4716 303.466 79.32 307.142C78.8352 307.748 78.1685 308.476 78.2291 309.142C78.2291 312.536 77.9867 316.112 78.8352 319.324C79.5625 322.172 81.4413 324.778 83.0777 327.384C85.1383 330.656 87.9869 333.323 91.3203 335.262C94.6537 337.202 98.2295 338.838 101.866 340.11C104.23 341.02 106.896 341.201 109.442 341.504C113.503 341.868 117.442 340.838 121.381 340.292C122.351 340.11 123.382 339.807 124.291 339.383C125.321 338.898 126.169 337.989 127.2 337.626C129.624 336.898 131.503 335.383 133.26 333.747C134.473 332.656 135.321 331.202 136.533 330.05C139.806 327.02 141.382 323.081 142.412 318.899C143.018 316.354 143.139 313.748 143.806 311.263C145.261 305.748 144.776 300.415 142.352 295.385C140.23 291.143 137.442 287.325 133.745 284.234C128.473 279.75 122.533 276.78 115.563 276.174C114.654 276.113 113.806 275.689 112.896 275.568C111.684 275.386 110.412 275.144 109.321 275.447C106.957 276.113 104.593 277.022 102.23 277.871C100.108 278.598 97.8659 279.083 95.9264 280.234C93.4415 281.689 91.0172 283.204 88.896 285.507C85.1383 289.628 82.4716 294.294 80.1685 299.264C79.4413 300.84 79.0776 302.597 78.5928 304.294Z" fill="#100F12"/>
<path d="M172.776 308.657C172.473 308.9 172.11 309.445 171.685 309.445C171.079 309.445 170.17 309.203 169.867 308.779C169.201 307.93 168.655 306.839 168.352 305.809C167.807 304.112 167.382 302.415 167.14 300.658C166.958 299.203 167.685 299.082 168.958 299.082C171.685 299.203 171.322 301.506 171.807 302.961C172.413 304.658 172.413 306.536 172.776 308.657Z" fill="#100F12"/>
<path d="M145.867 283.265C146.776 281.628 148.413 281.871 149.807 282.295C151.504 282.78 153.079 283.628 154.776 284.295C156.11 284.84 156.049 286.052 155.746 287.022C155.443 288.113 154.473 287.81 153.564 287.446C151.564 286.598 149.443 285.992 147.443 285.083C146.776 284.84 146.413 283.931 145.867 283.265Z" fill="#100F12"/>
<path d="M163.2 339.747C161.867 339.747 160.837 338.171 161.322 337.262C162.413 335.262 163.443 333.323 164.776 331.505C165.2 330.899 166.534 330.474 167.2 330.717C168.049 331.02 168.049 331.989 167.564 333.08C166.716 335.262 165.746 337.323 164.049 339.019C163.746 339.322 163.382 339.625 163.2 339.747Z" fill="#100F12"/>
<path d="M167.807 325.081C167.867 324.475 167.807 323.869 167.988 323.323C168.473 321.263 169.079 319.263 169.504 317.202C169.746 316.233 170.292 315.869 171.019 316.112C171.564 316.293 172.292 317.021 172.292 317.505C172.292 319.142 172.17 320.839 171.867 322.414C171.504 324.293 169.867 325.323 167.807 325.081Z" fill="#100F12"/>
<path d="M149.927 345.08C149.988 344.959 150.109 344.534 150.351 344.413C151.806 343.625 153.321 342.898 154.776 342.171C155.079 342.05 155.321 341.807 155.624 341.747C156.291 341.565 156.897 341.444 157.564 341.323C157.624 342.171 158.109 343.444 157.746 343.807C156.655 344.837 155.261 345.444 153.988 346.231C153.564 346.413 153.079 346.534 152.715 346.777C150.715 347.928 149.927 347.504 149.927 345.08Z" fill="#100F12"/>
<path d="M137.988 347.08C139.806 346.959 141.624 346.656 143.503 346.656C144.17 346.716 144.836 347.383 145.503 347.807C145.139 348.353 144.776 349.262 144.291 349.322C142.412 349.686 140.412 349.807 138.473 349.928C138.048 349.989 137.442 349.807 137.2 349.443C136.715 348.898 136.412 348.11 136.048 347.443C136.654 347.161 137.26 346.858 137.867 346.534C137.907 346.736 137.947 346.918 137.988 347.08Z" fill="#100F12"/>
<path d="M159.443 289.507C161.504 287.81 162.11 287.81 163.807 289.446C164.594 290.234 165.504 291.022 166.049 291.991C166.413 292.597 166.352 293.567 166.231 294.294C165.988 295.264 165.261 295.143 164.655 294.597C163.322 293.446 161.928 292.416 160.594 291.204C160.11 290.779 159.867 290.173 159.443 289.507Z" fill="#100F12"/>
<path d="M93.6235 335.383C96.4721 331.747 99.3206 328.172 102.109 324.535C104.048 322.111 105.927 319.687 107.866 317.263C110.452 314.152 113.058 311.081 115.685 308.051C117.685 305.809 119.806 303.748 121.685 301.506C123.321 299.506 124.594 297.264 126.109 295.203C126.473 294.658 127.018 294.234 127.564 293.87C127.745 293.749 128.291 294.052 128.533 294.294C128.715 294.476 128.776 295.022 128.655 295.264C127.018 297.809 125.503 300.476 123.564 302.779C118.776 308.597 113.745 314.233 108.836 320.051C105.018 324.535 101.321 329.141 97.6236 333.687C97.1387 334.232 96.6539 334.717 96.3509 335.323C95.6236 336.777 94.7751 336.232 93.6235 335.383Z" fill="#100F12"/>
<path d="M87.3203 326.838C88.4112 325.323 89.4416 323.808 90.5325 322.293C92.4719 319.748 94.3508 317.142 96.4114 314.718C99.5024 311.081 102.775 307.506 105.987 303.93C109.563 299.991 113.26 296.052 116.836 292.052C118.169 290.598 119.321 288.961 120.654 287.446C120.957 287.143 121.685 287.083 122.169 287.143C122.351 287.204 122.594 287.931 122.533 288.295C122.412 288.84 122.048 289.386 121.685 289.81C119.139 292.537 116.594 295.203 114.048 297.931C113.018 299.082 112.109 300.294 111.139 301.446C110.169 302.476 109.26 303.506 108.29 304.536C105.866 307.263 103.381 310.051 100.896 312.839C99.1387 314.839 97.2599 316.718 95.5629 318.778C93.5023 321.263 91.5628 323.929 89.684 326.596C88.9567 327.687 88.4112 327.505 87.3203 326.838Z" fill="#100F12"/>
<path d="M81.3809 317.869C83.5021 315.021 85.5628 312.233 87.8052 309.506C90.5932 305.991 93.4417 302.476 96.3509 299.082C98.6539 296.415 101.018 293.931 103.381 291.446C105.927 288.719 108.533 285.992 111.078 283.264C111.381 282.901 111.381 282.295 111.563 281.871C111.866 281.204 112.109 280.477 112.594 280.053C112.836 279.871 113.866 280.234 114.169 280.598C114.472 281.022 114.533 281.931 114.291 282.295C113.381 283.628 112.291 284.961 111.139 286.173C106.472 291.264 101.624 296.234 97.0175 301.385C93.7447 305.082 90.6538 308.96 87.6234 312.778C86.29 314.475 85.0173 316.172 83.8658 317.99C83.1991 319.081 82.593 319.202 81.3809 317.869Z" fill="#100F12"/>
<path d="M131.806 305.142C132.352 305.445 132.897 305.627 132.958 305.87C133.079 306.173 132.897 306.718 132.655 307.021C131.079 308.9 129.503 310.718 127.806 312.536C125.321 315.202 122.776 317.808 120.291 320.536C117.584 323.525 114.917 326.555 112.291 329.626C110.957 331.202 109.745 332.838 108.472 334.414C107.684 335.444 106.836 336.414 105.927 337.262C105.624 337.565 104.957 337.383 104.412 337.444C104.533 337.02 104.533 336.535 104.775 336.232C105.745 334.777 106.715 333.323 107.745 331.929C108.836 330.475 110.048 329.081 111.2 327.626C113.624 324.778 115.988 321.869 118.473 319.02C120.594 316.657 122.957 314.475 125.139 312.112C126.836 310.294 128.473 308.354 130.17 306.476C130.655 305.991 131.2 305.627 131.806 305.142Z" fill="#100F12"/>
<path d="M113.624 339.565C114.715 338.474 115.685 337.626 116.533 336.656C119.927 332.899 123.321 329.081 126.655 325.202C127.564 324.111 128.17 322.717 128.958 321.566C129.139 321.263 129.746 320.899 129.988 320.96C130.412 321.202 131.018 321.808 130.958 322.111C130.715 323.202 130.412 324.414 129.746 325.202C125.806 329.687 121.867 334.111 117.745 338.414C116.897 339.323 115.927 340.838 113.624 339.565Z" fill="#100F12"/>
<path fill-rule="evenodd" clip-rule="evenodd" d="M354.719 19.1554C354.477 23.1552 354.234 27.0945 353.871 31.0337C353.628 33.3366 353.204 35.5789 352.961 37.8818C352.658 40.8514 352.416 43.7604 352.234 46.7299C352.052 50.0025 351.871 53.3357 351.689 56.6083C351.568 59.2748 351.446 61.9413 351.264 64.6079C350.961 68.2441 350.537 71.8197 350.234 75.4559C349.87 79.0315 349.628 82.5465 349.264 86.1221C349.022 88.122 348.598 90.1219 348.416 92.1218C348.173 94.7883 348.113 97.4549 347.87 100.061C347.446 104.182 346.961 108.242 346.477 112.303C346.355 113.212 346.537 114.242 345.446 114.787C344.719 115.09 344.052 115.757 343.386 115.696C339.507 115.393 335.688 114.909 331.81 114.545C328.84 114.303 325.87 114.303 322.961 114.121C318.476 113.838 313.991 113.535 309.506 113.212C306.718 113.03 303.93 112.909 301.203 112.606C298.233 112.242 295.324 111.757 292.415 111.333C291.627 111.212 290.9 111.03 290.112 110.969C288.294 110.788 286.475 110.727 284.718 110.485C280.475 109.939 276.293 109.273 272.111 108.666C268.657 108.121 265.142 107.454 261.687 107.091C256.96 106.606 252.232 106.364 247.505 106C242.717 105.636 237.929 105.273 233.141 104.788C229.444 104.424 225.747 103.818 222.05 103.273C221.08 103.152 218.838 101.152 218.959 99.7578C219.12 96.9296 219.322 94.1015 219.565 91.2733C219.747 88.9704 220.05 86.6675 220.232 84.3646C220.716 78.9709 221.262 73.5772 221.626 68.1835C221.989 62.7898 222.232 57.3961 222.474 52.0024C222.595 48.9722 222.656 45.9421 222.777 42.9119C222.959 37.9424 223.08 32.9124 223.383 27.9429C223.686 23.7613 224.171 19.5796 224.535 15.398C224.595 14.186 224.232 12.9133 224.292 11.6406C224.474 8.85286 224.777 6.06511 225.02 3.27736C225.02 2.91374 224.898 2.48952 224.777 2.1259C224.171 0.974438 224.535 0.307798 225.807 0.247195C227.807 0.125988 229.808 -0.116436 231.747 0.0653736C234.838 0.307787 237.808 1.03503 240.838 1.27744C243.505 1.45925 246.171 1.21685 248.838 1.21685C250.717 1.27745 252.535 1.39865 254.414 1.58046C255.323 1.64106 256.232 1.82287 257.202 1.94408C258.535 2.12589 259.869 2.36831 261.263 2.42892C264.899 2.61073 268.536 2.67132 272.233 2.91374C274.536 3.03494 276.839 3.45917 279.202 3.58038C282.233 3.76219 285.324 3.76219 288.354 3.944C290.475 4.0046 292.536 4.24701 294.657 4.42882C298.415 4.79244 302.193 5.15605 305.991 5.51967C310.173 5.94389 314.355 6.36812 318.537 6.85295C322.173 7.27717 325.749 7.8226 329.325 8.30743C332.779 8.79225 336.173 9.39829 339.628 9.82251C341.446 10.0649 343.325 10.0649 345.204 10.1255C346.84 10.2467 348.477 10.3679 350.113 10.4891C351.123 10.57 352.113 10.6508 353.083 10.7316C354.234 10.7922 355.446 12.0648 355.386 13.1557C355.265 15.2162 355.083 17.1555 354.901 19.1554C354.86 19.1554 354.8 19.1554 354.719 19.1554ZM222.05 97.5761C222.898 97.6973 223.626 97.8791 224.413 97.9397C226.919 98.1417 229.403 98.3033 231.868 98.4245C234.05 98.5457 236.232 98.4245 238.293 98.7882C241.929 99.4548 245.384 100.606 248.959 101.212C252.838 101.94 256.717 102.243 260.596 102.788C262.232 103.03 263.929 103.273 265.626 103.515C268.354 103.879 271.02 104.303 273.748 104.545C276.354 104.848 278.96 104.848 281.566 105.152C284.415 105.515 287.263 106.242 290.112 106.545C296.233 107.212 302.415 107.697 308.536 108.303C312.961 108.727 317.446 109.091 321.87 109.576C323.931 109.757 325.991 110.121 328.052 110.363C331.123 110.727 334.193 111.07 337.264 111.394C338.901 111.575 340.537 111.636 342.113 111.757C342.961 111.818 343.507 111.454 343.567 110.606C343.689 109.818 343.931 109.091 343.992 108.363C344.436 102.626 344.88 96.8691 345.325 91.0915C345.325 90.9703 345.264 90.8491 345.264 90.7279C345.264 89.1522 345.143 87.6372 345.204 86.0615C345.325 82.6071 345.567 79.1527 345.689 75.7589C345.992 70.0016 346.113 64.2443 346.537 58.487C346.84 54.3659 347.446 50.3055 347.931 46.2451C348.173 43.7604 348.355 41.2756 348.658 38.7909C349.143 34.3669 349.628 29.9428 350.113 25.5188C350.416 22.3674 350.78 19.216 351.083 16.0647C351.083 15.6404 350.84 15.1556 350.719 14.7314C350.315 14.8526 349.911 14.994 349.507 15.1556C349.204 15.2162 348.901 15.5192 348.658 15.4586C347.022 15.2162 345.446 14.792 343.81 14.6102C342.476 14.489 341.204 14.0647 339.81 14.0647C336.355 14.0041 332.84 13.4587 329.385 13.0951C327.022 12.7921 324.719 12.1254 322.234 12.0648C319.021 11.9436 315.809 11.3982 312.597 10.974C311.567 10.7922 310.597 10.1255 309.627 10.2467C306.597 10.6104 303.809 9.5801 300.9 9.27708C299.324 9.09527 297.809 8.67104 296.233 8.54984C291.688 8.12561 287.081 7.8226 282.536 7.45898C279.687 7.27717 276.899 6.91356 274.051 6.67115C270.172 6.36813 266.293 6.12571 262.414 5.88329C258.293 5.58028 254.111 5.33787 249.99 5.03485C246.05 4.73184 242.111 4.36822 238.171 4.1258C235.505 4.0046 232.777 4.00459 230.111 4.0652C229.747 4.0652 229.08 4.67124 229.02 5.09546C228.535 10.1053 228.09 15.1354 227.686 20.1857C227.444 22.9734 227.383 25.7612 227.201 28.5489C227.04 31.6195 226.878 34.6699 226.717 37.7C226.595 40.4878 226.535 43.2755 226.292 46.0633C226.171 48.4874 225.747 50.9115 225.626 53.3963C225.262 59.699 225.02 66.0624 224.656 72.3651C224.353 76.971 223.868 81.5768 223.444 86.1827C223.262 88.0614 222.959 89.9401 222.716 91.8794C222.474 93.7581 222.232 95.6368 222.05 97.5761Z" fill="#100F12"/>
<path fill-rule="evenodd" clip-rule="evenodd" d="M249.626 59.6989C249.687 59.8201 249.687 59.8807 249.747 59.8807C252.172 61.5776 252.172 61.7594 250.838 64.4866C250.293 65.5774 249.747 66.6683 249.202 67.8197C248.656 68.9712 247.808 69.2136 246.717 68.7894C244.838 68.0622 243.02 67.2743 241.141 66.4865C240.171 66.0622 239.626 63.5169 240.171 62.5472C240.838 61.3352 241.444 60.0625 242.05 58.7898C242.899 57.1536 243.141 57.0929 244.899 57.699C245.444 57.9414 245.99 58.1232 246.717 58.4262C247.505 56.9717 248.172 55.4567 249.202 54.1234C250.414 52.4265 251.869 50.8508 253.323 49.3357C254.051 48.6691 255.02 48.1843 255.869 47.5782C258.96 45.5177 262.475 44.4269 265.869 43.033C270.111 41.2755 274.718 41.7603 279.081 41.1543C283.687 40.4876 287.809 41.8209 291.991 43.336C292.112 43.3966 292.233 43.4572 292.354 43.4572C295.324 43.942 297.567 44.8511 300.718 46.9722C300.597 47.3358 300.455 47.6994 300.294 48.0631C313.385 57.9414 316.779 74.4861 310.961 87.031C311.385 87.2128 311.749 87.4552 312.112 87.5764C313.567 88.1218 313.446 89.1521 313.082 90.3642C312.597 91.9398 312.233 93.5155 311.688 95.0306C311.567 95.4548 311.021 96.0003 310.597 96.0609C309.688 96.2427 308.658 96.3639 307.87 96.0003C305.87 95.1518 303.385 95.7578 301.748 94.0003C301.385 93.6367 301.142 92.9095 301.203 92.4853C301.688 90.4248 302.294 88.3643 302.9 86.3643C302.961 85.9401 303.203 85.5765 303.385 85.2735C304.536 83.6372 304.658 83.6372 305.991 85.1523C306.233 85.5159 306.839 85.5765 307.264 85.7583C307.688 85.9401 308.173 86.1219 308.415 86.2431C308.536 85.3947 308.718 84.5462 308.839 83.6978C309.446 80.8494 310.597 78.1223 310.476 75.0921C310.415 72.5468 310.597 70.0015 309.87 67.5167C309.082 64.9714 308.233 62.426 307.021 60.0625C306.112 58.1232 304.839 56.1839 303.324 54.7294C301.082 52.4871 298.536 50.5478 295.93 48.6691C293.385 46.851 290.415 45.6389 287.263 45.0329C285.081 44.6693 282.839 44.7299 280.597 44.6693C279.081 44.6087 277.566 44.6693 276.051 44.6693C272.051 44.5481 268.414 45.8813 264.778 47.2752C261.626 48.5479 258.778 50.1236 256.232 52.3053C255.687 52.7295 255.263 53.2749 254.778 53.8204C253.04 55.8001 251.323 57.7596 249.626 59.6989ZM305.082 87.5158C304.597 89.1521 304.173 90.6672 303.627 92.4853C305.688 92.8489 307.567 93.1519 309.627 93.5155C309.991 92.3641 310.415 91.2732 310.718 90.1217C310.779 89.8187 310.476 89.2733 310.233 89.1521C308.597 88.6067 306.961 88.1218 305.082 87.5158ZM244.535 60.0019C243.808 61.517 243.141 62.9715 242.353 64.6077C243.848 65.2946 245.323 65.9814 246.778 66.6683C247.626 65.1532 248.414 63.8199 249.202 62.3654C247.747 61.6382 246.232 60.911 244.535 60.0019Z" fill="#100F12"/>
<path fill-rule="evenodd" clip-rule="evenodd" d="M245.566 18.1253C245.202 18.7919 244.96 19.2767 244.657 19.8828C245.99 20.7312 247.263 21.5191 248.475 22.3675C248.778 22.5493 248.899 23.0947 249.081 23.4584C248.657 23.6402 248.232 24.0644 247.929 23.9432C246.717 23.519 245.505 23.1554 244.414 22.4281C243.384 21.8221 242.838 22.1251 242.353 23.0342C241.384 24.6704 241.263 24.6704 239.687 23.4584C238.717 22.6705 237.565 21.9433 236.596 21.1554C235.808 20.5494 235.869 19.8222 236.475 19.0949C237.444 17.8829 238.475 16.8526 239.323 15.5799C240.05 14.4891 240.96 14.6709 241.747 15.1557C243.081 16.0648 244.232 17.095 245.566 18.1253ZM240.96 16.9738C239.99 18.0647 239.263 18.9131 238.353 20.004C239.263 20.4888 240.414 21.4585 240.899 21.2161C241.747 20.7918 242.414 19.6404 242.657 18.6707C242.717 18.2465 241.505 17.5193 240.96 16.9738Z" fill="#100F12"/>
<path fill-rule="evenodd" clip-rule="evenodd" d="M331.81 71.8802C332.295 71.0924 332.719 70.3651 333.083 69.6985C332.295 69.0925 331.507 68.547 330.84 67.8804C330.598 67.638 330.598 67.032 330.537 66.5471C330.961 66.5471 331.507 66.3653 331.931 66.5471C332.719 66.9108 333.386 67.4562 334.174 67.941C335.446 66.1835 336.477 66.0017 338.174 67.1532C338.355 67.335 338.598 67.5168 338.78 67.638C340.901 69.1531 340.962 69.3955 339.81 71.6378C339.325 72.6075 338.658 73.5165 338.052 74.365C337.083 75.577 336.113 75.6376 334.901 74.668C333.81 73.7589 332.84 72.7893 331.81 71.8802ZM336.719 73.2135C337.325 72.062 337.871 71.0318 338.416 69.9409C337.749 69.4561 337.083 68.9713 336.295 68.3652C335.628 69.4561 334.961 70.4258 334.295 71.5166C335.083 72.062 335.871 72.6075 336.719 73.2135Z" fill="#100F12"/>
<path d="M260.96 28.6097C260.596 29.4582 260.172 29.8218 259.263 29.3976C258.414 28.9127 257.445 28.6703 256.596 28.2461C256.111 28.0037 255.627 27.7613 255.384 27.337C255.142 26.9734 255.142 26.3674 255.081 25.8826C255.566 25.8826 256.111 25.6402 256.536 25.822C257.324 26.125 258.172 26.5492 258.899 26.9734C259.627 27.4583 260.233 28.0037 260.96 28.6097Z" fill="#100F12"/>
<path d="M286.476 40.9122C284.051 40.9728 280.233 38.7305 280.172 37.1548C282.112 36.6094 286.051 38.8517 286.476 40.9122Z" fill="#100F12"/>
<path d="M313.385 57.3355C311.87 56.4265 310.415 55.6992 309.082 54.7902C308.779 54.6084 308.839 54.0023 308.718 53.5781C309.203 53.5175 309.809 53.2145 310.173 53.4569C311.506 54.1235 312.779 54.9114 314.052 55.7598C314.294 55.881 314.537 56.4871 314.415 56.7295C314.234 57.0325 313.749 57.1537 313.385 57.3355Z" fill="#100F12"/>
<path d="M325.506 63.2141C324.052 64.4261 320.355 62.5474 319.567 60.3051C320.597 59.5779 322.961 60.7293 325.506 63.2141Z" fill="#100F12"/>
<path d="M269.99 31.458C271.02 32.2459 272.051 32.9731 273.02 33.8215C273.142 33.9427 273.202 34.4276 273.081 34.6094C272.96 34.7912 272.475 35.0942 272.354 34.973C271.081 34.4882 269.808 33.8821 268.657 33.2155C268.354 33.0337 268.354 32.4277 268.232 32.0034C268.717 31.8822 269.263 31.7004 269.99 31.458Z" fill="#100F12"/>
<path d="M305.082 87.5161C306.961 88.1221 308.597 88.607 310.234 89.1524C310.476 89.2736 310.779 89.819 310.718 90.122C310.415 91.2735 309.991 92.3644 309.628 93.5158C307.567 93.1522 305.688 92.8492 303.627 92.4856C304.173 90.6675 304.597 89.1524 305.082 87.5161Z" fill="white"/>
<path d="M244.535 60.002C246.232 60.911 247.748 61.6382 249.202 62.3655C248.414 63.82 247.626 65.1532 246.778 66.6683C245.323 65.9815 243.848 65.2946 242.354 64.6078C243.141 62.9715 243.808 61.517 244.535 60.002Z" fill="white"/>
<path d="M336.719 73.2135C335.87 72.6075 335.082 72.062 334.294 71.5166C334.961 70.4258 335.628 69.4561 336.294 68.3652C337.082 68.9713 337.749 69.4561 338.416 69.9409C337.87 71.0318 337.325 72.062 336.719 73.2135Z" fill="white"/>
<g style="mix-blend-mode:multiply">
<path d="M298.536 86.9097L311.991 88.9702L310.476 98.1819L296.536 96.6668L298.354 87.7582" fill="#BFE6D8"/>
<path d="M298.536 86.9097L311.991 88.9702L310.476 98.1819L296.536 96.6668L298.354 87.7582" stroke="#BFE6D8" stroke-miterlimit="10"/>
</g>
<g style="mix-blend-mode:multiply">
<path d="M239.383 58.9111L252.778 60.9716L251.262 70.1834L237.383 68.6683L239.141 59.699" fill="#BFE6D8"/>
<path d="M239.383 58.9111L252.778 60.9716L251.262 70.1834L237.383 68.6683L239.141 59.699" stroke="#BFE6D8" stroke-miterlimit="10"/>
</g>
<g style="mix-blend-mode:multiply">
<path d="M139.806 313.748C139.806 333.384 124.412 349.262 105.502 349.262C86.5324 349.262 71.1987 333.384 71.1987 313.748C71.1987 294.173 86.5324 278.295 105.502 278.295C124.412 278.295 139.806 294.173 139.806 313.748Z" fill="#BFE6D8"/>
<path d="M139.806 313.748C139.806 333.384 124.412 349.262 105.502 349.262C86.5324 349.262 71.1987 333.384 71.1987 313.748C71.1987 294.173 86.5324 278.295 105.502 278.295C124.412 278.295 139.806 294.173 139.806 313.748Z" stroke="#BFE6D8" stroke-miterlimit="10"/>
</g>
<path fill-rule="evenodd" clip-rule="evenodd" d="M234.292 19.3372C234.05 23.337 233.626 27.2763 233.626 31.2155C233.626 35.8213 233.989 40.3666 234.171 44.9724C234.353 50.3055 234.535 55.6992 234.595 61.0929C234.656 63.6382 234.111 66.1836 234.171 68.6683C234.171 71.3955 234.656 74.1226 234.777 76.8498C234.959 81.6374 234.959 86.4251 235.08 91.1521C235.262 95.5156 235.504 99.879 235.686 104.182C235.808 107.576 235.929 110.969 236.111 114.303C236.535 121.696 237.08 129.09 237.505 136.483C237.929 143.332 238.05 150.18 238.777 156.967C238.959 158.785 239.383 160.482 238.838 162.361C238.717 162.846 239.505 163.573 239.808 164.119C238.838 167.33 236.05 167.027 233.686 167.149C228.838 167.33 223.929 167.33 219.08 167.452C212.413 167.634 205.807 167.755 199.201 168.118C193.989 168.421 188.837 169.149 183.685 169.452C177.322 169.755 170.958 169.876 164.594 170.118C162.533 170.179 160.473 170.482 158.351 170.603C153.018 170.785 147.745 170.906 142.412 171.148C137.624 171.33 132.896 171.694 128.108 171.876C124.048 172.058 119.987 171.997 115.926 172.361C112.229 172.724 108.593 173.633 104.896 173.936C101.259 174.179 97.5624 173.876 93.8654 173.997C89.6835 174.057 85.5016 174.36 81.3197 174.542C76.0468 174.785 70.774 175.088 65.5618 175.391C63.1779 175.512 60.8142 175.734 58.4707 176.057C57.1374 176.239 55.8646 175.088 54.41 176.482C53.6828 177.209 51.1372 175.088 51.0766 173.754C51.016 171.088 51.016 168.421 50.8342 165.755C50.41 157.392 49.8645 149.028 49.5008 140.665C49.319 136.605 49.5615 132.484 49.3796 128.423C49.1372 123.575 48.4705 118.848 48.2281 114C47.9857 108.242 48.0463 102.424 47.8039 96.667C47.6826 93.2733 47.0766 89.9401 46.8947 86.5463C46.7129 82.001 46.7129 77.4558 46.5917 72.9105C46.5917 71.0924 46.3493 69.2743 46.2887 67.3956C46.1675 64.5271 46.0866 61.6585 46.0462 58.79C45.925 54.1437 45.824 49.5177 45.7432 44.9118C45.6826 40.3666 45.5614 35.8213 45.622 31.2761C45.622 29.458 48.0463 27.8217 49.8645 27.9429C51.3191 28.0641 52.7736 27.6399 54.1676 27.5793C65.1375 26.9732 76.1074 26.4884 87.0167 25.7006C93.3805 25.2157 99.6837 24.0037 105.987 23.3976C113.26 22.7916 120.533 22.4886 127.745 22.0644C130.775 21.8826 133.745 21.8826 136.775 21.822C140.836 21.7008 144.897 21.6402 149.018 21.4583C154.048 21.2765 159.139 20.9129 164.23 20.6705C171.018 20.3675 177.867 20.1251 184.716 19.8827C191.786 19.5998 198.837 19.317 205.868 19.0342C210.656 18.8524 215.443 18.4282 220.171 18.4888C224.716 18.4888 229.262 18.8524 233.807 19.0948C233.989 19.0948 234.171 19.2766 234.292 19.3372ZM55.3191 143.938C55.5616 144.018 55.804 144.119 56.0464 144.241C58.0465 142.423 60.0465 140.604 62.0466 138.786C65.0163 135.999 68.0467 133.211 71.0164 130.362C75.1377 126.423 79.0166 122.12 83.8652 118.908C84.8349 118.302 85.5015 117.212 86.4107 116.484C89.2592 114.303 92.1077 112.181 94.9563 110C95.8654 109.273 96.8351 108.606 97.623 107.757C99.6836 105.758 101.562 103.636 103.623 101.697C105.684 99.8184 107.987 98.1215 110.108 96.3034C112.411 94.2429 114.654 92.1218 117.017 90.1219C119.866 87.6371 123.805 86.5463 126.351 83.5767C126.472 83.4555 126.593 83.4555 126.714 83.3343C129.078 81.7586 131.321 80.0011 133.806 78.6679C136.351 77.274 139.018 76.1225 141.806 75.2135C143.26 74.7286 144.957 74.9104 146.533 74.971C149.079 75.0923 152.048 74.668 154.109 75.7589C159.503 78.6073 164.594 82.001 169.624 85.3342C172.412 87.2735 174.534 90.0613 177.746 91.5158C178.17 91.7582 178.473 92.3642 178.837 92.7884C179.079 93.152 179.261 93.6975 179.564 94.0005C181.867 96.0004 184.231 98.0003 186.534 100.061C189.625 102.849 192.352 106.061 195.746 108.363C201.504 112.303 207.625 115.696 213.625 119.333C219.504 122.908 225.322 126.484 231.02 129.938C231.02 129.393 231.02 128.544 231.02 127.635C231.08 126.423 231.262 125.211 231.201 123.999C231.02 122.12 230.474 120.181 230.414 118.302C230.414 115.939 230.838 113.636 230.838 111.272C230.838 107.818 230.656 104.303 230.535 100.849C230.413 97.4549 230.292 94.0611 230.232 90.7279C230.232 87.2735 230.353 83.8191 230.414 80.3647C230.535 76.4861 230.838 72.6681 230.777 68.8501C230.535 61.7595 230.11 54.669 229.807 47.5784C229.605 43.9422 229.403 40.3262 229.201 36.7304C229.08 34.6092 228.838 32.5487 228.716 30.4276C228.656 28.2459 228.656 26.0642 228.656 23.8219C228.05 23.8219 227.626 23.8219 227.201 23.8825C223.928 24.3067 220.656 24.9127 217.322 25.2157C212.959 25.64 208.655 25.8824 204.292 26.0642C200.251 26.2662 196.191 26.3874 192.11 26.4278C189.504 26.4884 186.958 26.1854 184.413 26.3672C180.109 26.6096 175.867 27.2157 171.564 27.5187C167.018 27.8217 162.412 27.8823 157.867 28.1247C150.351 28.4883 142.897 28.9125 135.442 29.3368C131.806 29.5792 128.169 29.8216 124.472 29.9428C123.139 30.0034 121.745 29.5186 120.351 29.5792C118.411 29.7004 116.472 30.2458 114.532 30.3064C111.017 30.4276 107.502 30.1246 103.926 30.2458C100.714 30.367 97.5624 30.9731 94.3502 31.0337C91.6229 31.0943 88.8956 30.4882 86.1682 30.67C81.4409 31.0337 76.6529 30.2458 71.8649 31.2155C68.5921 31.8821 65.1375 31.7003 61.7435 31.9427C61.1981 32.0033 60.5314 32.0639 60.1677 32.4275C58.4707 33.9426 56.5313 33.5184 54.5313 33.4578C53.0161 33.4578 51.4403 33.4578 49.7433 33.5184C49.9857 37.094 50.2281 40.5484 50.5312 43.9422C50.9554 48.1238 51.8645 52.3054 51.9251 56.487C51.9857 61.6383 52.6524 66.7896 53.1979 71.9409C53.7434 76.6679 54.2282 81.395 54.4706 86.1221C54.7131 90.4855 54.6525 94.8489 54.7131 99.2124C54.7535 106.606 54.7737 113.979 54.7737 121.333C54.7737 125.938 54.5919 130.484 54.7131 135.09C54.7737 137.998 55.1373 140.968 55.3191 143.938ZM59.0162 171.33C63.1981 171.027 67.38 170.785 71.5619 170.542C74.8347 170.361 78.1075 170.239 81.3197 170.058C83.4409 169.936 85.5016 169.694 87.5622 169.633C89.7441 169.573 91.8653 169.755 94.0472 169.633C97.32 169.391 100.593 168.906 103.926 168.664C105.623 168.543 107.381 168.846 109.138 168.724C111.381 168.603 113.563 168.179 115.805 168.058C119.866 167.876 123.927 167.876 128.048 167.694C134.412 167.452 140.775 167.088 147.2 166.846C152.897 166.543 158.655 166.361 164.412 166.058C168.776 165.815 173.14 165.209 177.503 165.088C185.382 164.846 193.322 164.785 201.261 164.664C201.867 164.664 202.494 164.644 203.14 164.603C206.413 164.3 209.686 163.997 212.959 163.815C216.231 163.634 219.565 163.634 222.838 163.512C225.686 163.391 228.535 163.088 231.383 163.028C233.262 163.028 234.05 162.422 233.929 160.604C233.747 157.573 233.444 154.604 233.141 151.634C232.939 149.129 232.696 146.624 232.414 144.119C232.212 142.261 231.989 140.423 231.747 138.605C231.747 138.423 231.626 138.18 231.504 138.059C229.323 136.12 227.201 133.999 224.838 132.302C221.625 130.059 218.231 128.12 214.837 126.12C210.595 123.514 206.292 121.09 202.049 118.484C197.807 115.878 193.322 113.636 189.564 110.545C184.17 106.061 178.473 101.94 172.534 98.1821C167.443 94.9702 162.473 91.6976 158.958 86.4857C156.654 82.9707 153.018 80.6678 148.897 79.6375C143.988 78.3648 139.745 80.3647 135.927 83.1525C132.169 85.8796 128.472 88.728 124.957 91.8188C121.684 94.7277 117.805 96.7882 114.654 99.9396C109.199 105.394 103.441 110.666 97.623 115.818C94.6532 118.484 91.3199 120.787 88.1077 123.272C85.6228 125.151 82.956 126.847 80.653 128.969C77.4408 131.938 74.7135 135.393 71.4407 138.241C67.5618 141.513 63.2587 144.422 59.198 147.453C58.0465 148.24 56.9555 149.089 55.7434 149.998C56.5919 157.089 55.8646 164.543 59.0162 171.33Z" fill="#100F12"/>
<path fill-rule="evenodd" clip-rule="evenodd" d="M186.352 59.0327C186.716 56.7903 186.837 54.4874 187.504 52.3663C188.594 48.7907 193.989 45.2151 197.867 44.9121C202.534 44.5485 206.352 46.1241 209.565 49.4573C214.413 54.4874 214.474 61.3962 210.959 66.6081C209.262 69.0928 206.534 70.4261 203.201 69.8806C200.777 69.517 198.292 69.517 195.867 69.3352C190.655 68.9716 185.564 64.6082 186.352 59.0327ZM191.564 57.457C190.837 61.1538 192.898 64.3051 199.14 64.9112C202.655 65.2142 205.625 62.3658 205.807 57.8812C205.989 52.4875 204.11 50.3664 197.383 49.9422C194.352 49.6998 191.988 52.7905 191.564 57.457Z" fill="#100F12"/>
<g style="mix-blend-mode:multiply">
<path d="M45.0767 140.362C45.0767 140.362 112.108 78.2436 124.896 77.4558C137.685 76.668 163.867 100.243 179.504 110.606C195.14 121.03 232.717 146.847 232.717 146.847L233.686 167.149L48.0464 174.482L47.3797 144.422" fill="#91CDA1"/>
<path d="M45.0767 140.362C45.0767 140.362 112.108 78.2436 124.896 77.4558C137.685 76.668 163.867 100.243 179.504 110.606C195.14 121.03 232.717 146.847 232.717 146.847L233.686 167.149L48.0464 174.482L47.3797 144.422" stroke="#91CDA1" stroke-miterlimit="10"/>
</g>
<path d="M11.0764 149.271L10.834 287.083L111.078 283.265L122.169 141.756L11.0764 149.271Z" fill="#FDFBFA"/>
<path fill-rule="evenodd" clip-rule="evenodd" d="M459.813 90.0612C458.903 95.3337 458.116 100.606 457.085 105.818C456.055 111.272 454.782 116.666 453.631 122.06C452.297 128.908 451.024 135.756 449.63 142.604C449.024 145.695 448.176 148.725 447.57 151.755C446.843 155.27 446.297 158.846 445.691 162.361C444.782 167.694 443.752 172.967 442.964 178.3C442.115 184.239 441.509 190.238 440.661 196.178C440.115 199.814 439.388 203.45 438.661 207.086C437.751 211.571 436.782 216.055 435.751 220.54C435.024 224.116 434.115 227.691 433.388 231.267C432.782 234.297 432.418 237.388 431.933 240.418C431.63 242.115 431.63 243.933 431.024 245.509C430.782 246.175 429.327 246.66 428.479 246.66C425.569 246.66 422.66 246.539 419.812 246.115C416.357 245.569 413.024 244.6 409.569 243.994C407.145 243.569 404.66 243.569 402.236 243.266C400.417 242.963 398.599 242.418 396.781 242.054C395.932 241.872 395.023 241.812 394.175 241.63C390.377 240.943 386.579 240.236 382.781 239.509C380.538 239.085 378.356 238.6 376.175 238.176C373.023 237.61 369.892 237.044 366.78 236.479C364.114 235.994 361.508 235.449 358.841 235.085C355.75 234.6 352.659 234.297 349.629 233.812C348.477 233.63 347.325 233.085 346.174 232.782C345.386 232.6 344.538 232.661 343.75 232.418C338.113 230.903 332.477 229.328 326.84 227.873C325.022 227.388 323.204 227.206 321.386 226.782C316.456 225.53 311.547 224.257 306.658 222.964C305.749 222.722 304.84 222.358 303.991 221.873C302.9 221.267 302.658 220.237 302.9 219.025C303.931 214.359 304.84 209.692 305.809 205.086C306.294 202.662 306.84 200.238 307.325 197.814C308.294 193.026 309.203 188.239 310.234 183.451C311.446 177.754 312.84 172.057 313.991 166.3C314.84 161.937 315.325 157.452 316.113 153.089C317.325 146.846 318.658 140.665 319.992 134.483C321.567 127.211 323.325 119.939 324.658 112.606C325.628 107.576 325.81 102.364 326.719 97.273C327.628 92.4247 329.083 87.6977 330.113 82.8494C330.598 80.6071 330.719 78.183 331.083 75.88C331.689 72.5468 332.355 69.1531 333.143 65.8805C333.568 64.2442 335.446 63.6382 337.022 64.0018C338.295 64.3048 339.628 64.0624 340.901 64.123C343.144 64.3048 345.386 64.3654 347.628 64.6684C351.871 65.2744 356.174 65.9411 360.417 66.6683C367.447 67.8198 374.478 69.0319 381.508 70.3045C388.478 71.5166 395.508 72.8499 402.478 74.1831C405.327 74.668 408.175 75.274 411.024 75.7588C414.296 76.3043 417.63 76.6679 420.903 77.2739C423.448 77.6981 425.933 78.2436 428.479 78.789C431.206 79.4556 433.933 80.3647 436.721 80.9101C438.661 81.2737 440.661 81.1525 442.661 81.6373C446.782 82.6676 451.024 83.213 455.146 84.1221C456.722 84.4857 458.358 85.0917 459.631 86.0008C460.237 86.425 460.237 87.8795 460.358 88.8491C460.419 89.2127 460.176 89.6976 460.055 90.1218C459.974 90.0814 459.893 90.0612 459.813 90.0612ZM427.266 242.175C428.6 234.539 429.873 227.449 431.085 220.358C431.63 217.025 431.994 213.631 432.6 210.298C433.63 205.389 434.842 200.48 435.873 195.572C436.6 191.814 437.206 188.117 437.873 184.36C438.782 179.815 439.812 175.209 440.539 170.603C441.933 162.3 443.146 153.876 444.479 145.513C444.903 142.604 445.63 139.756 446.115 136.847C446.782 132.968 447.206 129.029 447.933 125.151C448.358 122.726 449.267 120.423 449.691 117.999C450.297 114.606 450.6 111.151 451.146 107.757C451.449 105.818 452.115 103.939 452.418 101.939C452.903 99.3335 453.146 96.667 453.57 94.061C453.873 92.1217 454.237 90.1824 454.54 88.4855C453.509 88.3037 452.418 88.1825 451.328 87.9401C448.843 87.2734 446.358 86.4856 443.812 85.9402C440.842 85.2735 437.812 84.9705 434.842 84.2433C431.812 83.5767 428.903 82.4252 425.812 81.8192C421.994 81.0919 418.115 80.6677 414.236 80.0011C411.266 79.5162 408.357 78.789 405.387 78.3042C402.781 77.8193 400.175 77.5163 397.569 77.0921C395.448 76.7891 393.326 76.5467 391.205 76.183C387.993 75.6376 384.841 75.0922 381.629 74.4255C378.781 73.8195 375.993 73.0317 373.144 72.4862C368.296 71.6378 363.386 70.9712 358.538 70.1227C355.689 69.6379 352.901 68.85 350.053 68.3652C347.144 67.8804 344.235 67.6986 341.325 67.2744C339.81 67.0926 338.174 68.0016 337.871 69.2743C337.507 70.9106 337.325 72.6075 337.022 74.2437C336.416 77.3951 335.871 80.5465 335.265 83.6978C334.598 87.031 333.689 90.3642 333.143 93.758C332.355 98.3638 331.81 103.03 331.143 107.697C330.78 110.181 330.174 112.606 329.871 115.09C329.083 122.484 327.507 129.696 325.749 136.847C324.416 142.604 322.658 148.301 321.386 154.058C319.446 162.422 317.749 170.845 316.113 179.33C315.204 183.875 314.779 188.542 313.749 193.087C312.779 197.632 311.204 201.996 310.113 206.48C309.264 209.692 308.84 213.025 307.991 216.298C307.688 217.631 308.052 218.177 309.204 218.54C312.476 219.449 315.81 220.419 319.143 221.328C322.173 222.116 325.264 222.843 328.355 223.631C330.234 224.116 332.052 224.782 333.931 225.207C336.053 225.691 338.234 225.994 340.416 226.479C342.659 226.964 344.841 227.752 347.144 228.176C349.326 228.6 351.629 228.661 353.932 228.964C356.114 229.328 358.356 230.055 360.598 230.176C363.023 230.297 365.205 231.206 367.447 231.934C368.78 232.358 370.114 232.782 371.508 233.085C374.538 233.752 377.568 234.418 380.659 234.964C382.781 235.388 384.902 235.63 387.023 235.933C390.296 236.418 393.629 236.721 396.842 237.267C399.145 237.63 401.387 238.418 403.63 238.66C407.933 239.085 412.236 239.267 416.6 239.509C417.509 239.57 418.478 239.388 419.327 239.63C421.933 240.418 424.479 241.266 427.266 242.175Z" fill="#100F12"/>
<path fill-rule="evenodd" clip-rule="evenodd" d="M436.357 141.271C435.448 147.392 434.539 153.452 433.509 159.573C432.842 163.573 432.115 167.573 431.206 171.512C429.994 176.966 428.539 182.421 427.387 187.935C426.539 191.693 426.054 195.571 425.327 199.329C425.084 200.723 424.903 202.177 422.842 202.42C422.054 202.48 421.387 203.753 420.599 203.814C418.721 203.874 416.842 203.753 414.963 203.45C410.175 202.602 405.387 201.511 400.538 200.662C397.75 200.117 394.962 199.935 392.175 199.45C388.599 198.844 385.084 198.056 381.447 197.45C377.811 196.844 374.053 196.481 370.356 195.753C364.841 194.723 359.386 193.45 353.871 192.36C349.931 191.511 345.992 190.905 342.113 190.057C340.537 189.754 338.84 189.39 337.446 188.663C336.658 188.299 335.81 187.026 335.931 186.239C336.234 183.39 337.022 180.542 337.567 177.694C337.87 176.178 338.113 174.663 338.477 172.603C335.749 172.118 333.325 171.754 330.901 171.27C330.416 171.148 329.81 170.421 329.689 169.876C328.658 164.664 329.385 159.452 330.416 154.301C332.598 143.028 334.719 131.756 336.961 120.484C337.749 116.545 338.658 112.666 339.507 108.788C339.628 108.182 339.386 107.576 339.264 106.969C338.961 104.424 340.84 103.03 343.325 103.454C347.265 104.182 351.265 104.545 355.204 105.03C357.447 105.273 359.689 105.394 361.932 105.576C363.447 105.697 365.083 105.636 366.598 105.939C371.871 106.848 377.083 107.879 382.356 108.848C386.76 109.697 391.144 110.545 395.508 111.394C399.084 112.06 402.599 112.848 406.114 113.454C409.569 114.06 413.023 114.302 416.478 114.909C418.539 115.212 420.539 115.818 422.599 116.363C423.872 116.727 424.842 118.545 424.599 119.999C423.872 124.423 423.084 128.787 422.236 133.15C421.993 134.241 422.418 134.665 423.205 134.847C425.509 135.392 427.812 135.877 430.115 136.362C431.569 136.665 433.024 136.786 434.539 137.089C435.751 137.392 436.66 139.332 436.357 141.271ZM341.81 167.27C345.81 167.815 349.871 167.997 353.871 168.542C356.477 168.906 359.083 169.512 361.75 169.997C363.022 170.239 364.295 170.542 365.568 170.724C368.356 171.148 371.204 171.27 373.992 171.876C381.871 173.512 389.69 175.512 397.75 176.3C401.993 176.663 406.296 177.391 411.145 178.057C409.145 176.421 410.114 174.785 410.175 173.209C410.175 172.542 410.417 171.694 410.054 171.27C409.973 171.148 409.892 171.027 409.811 170.906C410.114 170.482 410.357 169.997 410.478 169.33L410.72 167.815C410.761 167.492 410.781 167.169 410.781 166.846C410.781 166.805 410.781 166.745 410.781 166.664C410.902 166.745 411.003 166.825 411.084 166.906C411.387 165.391 411.811 163.755 412.175 162.118C413.69 155.27 415.327 148.483 416.842 141.635C417.508 138.362 418.114 135.029 418.66 131.756C419.185 128.847 419.67 125.959 420.115 123.09C420.296 121.999 420.418 120.908 418.721 120.908C417.993 120.969 417.266 120.666 416.539 120.545C411.629 119.696 406.66 118.848 401.69 117.878C397.811 117.151 394.114 115.636 390.235 114.909C388.174 114.545 386.235 113.878 384.174 113.575C381.508 113.212 378.78 113.03 376.053 112.848C372.861 112.565 369.669 112.303 366.477 112.06C364.78 111.939 363.023 111.878 361.325 111.636C357.568 110.969 353.81 110.121 350.053 109.394C348.78 109.151 347.507 108.969 346.174 108.727C345.386 113.151 344.84 117.272 343.931 121.272C342.961 125.575 341.689 129.878 340.537 134.12C340.234 135.15 339.871 136.18 339.628 137.211C339.204 138.726 338.901 140.241 338.537 141.695C338.477 142.119 338.355 142.483 338.355 142.847C338.234 143.695 338.295 144.604 338.113 145.453C337.507 148.665 336.901 151.816 336.295 155.028C336.234 155.21 336.295 155.452 336.416 155.695C336.335 155.897 336.254 156.099 336.173 156.301C335.507 157.391 335.386 158.604 335.749 159.694C335.709 159.896 335.668 160.078 335.628 160.24C334.416 161.634 334.779 163.694 334.173 165.391C336.78 166.058 339.264 166.906 341.81 167.27ZM431.751 140.786C427.933 140.119 424.478 139.513 420.66 138.907C420.175 141.635 419.811 144.119 419.327 146.543C418.781 149.937 418.054 153.27 417.569 156.604C417.205 159.331 417.205 162.118 416.842 164.846C416.296 168.906 415.569 172.906 414.902 176.906C414.741 177.835 414.579 178.784 414.417 179.754C414.114 180.966 411.266 183.269 409.993 183.148C406.842 182.845 403.751 182.542 400.66 182.118C397.447 181.693 394.235 181.087 391.023 180.542C386.962 179.875 382.962 179.209 378.962 178.542C376.053 178.057 373.144 177.572 370.174 177.148C366.659 176.663 363.083 176.421 359.568 175.875C356.053 175.269 352.598 174.482 349.083 173.815C347.507 173.512 345.871 173.512 344.295 173.209C342.113 172.724 341.568 173.209 341.264 175.391C340.78 178.36 340.052 181.269 339.325 184.178C339.083 185.087 339.143 185.572 340.174 185.754C342.537 186.117 344.84 186.602 347.204 186.966C350.295 187.451 353.447 187.814 356.538 188.42C360.113 189.087 363.629 190.117 367.204 190.905C369.871 191.511 372.578 192.036 375.326 192.481C377.144 192.784 379.083 192.905 380.902 193.208C382.659 193.45 384.356 193.996 386.053 194.056C391.447 194.359 396.66 195.45 401.932 196.602C407.569 197.874 413.266 199.026 418.963 200.238C419.872 200.42 420.357 200.238 420.599 199.147C421.387 195.329 422.236 191.511 423.205 187.693C423.569 186.057 424.357 184.421 424.66 182.724C425.266 179.754 425.63 176.724 426.054 173.754C426.418 171.391 426.842 169.027 427.145 166.664C427.448 164.724 427.63 162.725 427.993 160.785C428.297 159.028 428.842 157.27 429.145 155.513C429.63 153.149 429.994 150.786 430.418 148.422C430.842 145.937 431.266 143.513 431.751 140.786Z" fill="#100F12"/>
<path d="M74.7746 230.6C74.2898 224.661 71.623 217.389 65.926 214.722C61.5622 212.662 53.1378 212.541 54.4106 205.45C55.4409 199.814 64.4714 202.117 68.3503 202.299C73.32 202.541 73.32 194.784 68.3503 194.602C62.7138 194.36 56.1682 192.845 51.259 196.541C47.0165 199.753 45.8044 205.389 46.9559 210.48C48.1074 215.571 52.0469 218.237 56.7137 219.995C61.5016 221.813 65.8654 223.328 66.6533 229.388C67.5018 235.812 65.1381 236.418 60.1683 235.752C57.9258 235.449 54.4712 234.964 52.7136 233.509C48.9559 230.297 43.4407 235.752 47.2589 238.964C56.5318 246.782 76.0474 246.357 74.7746 230.6Z" fill="#BFE6D8" stroke="#BFE6D8" stroke-miterlimit="10"/>
<path d="M438.357 257.508C411.508 257.508 411.448 299.203 438.357 299.203C465.206 299.203 465.267 257.508 438.357 257.508Z" fill="#BFE6D8" stroke="#BFE6D8" stroke-miterlimit="10"/>
<path fill-rule="evenodd" clip-rule="evenodd" d="M497.631 312.051C497.449 313.687 497.146 315.809 495.631 316.778C492.661 318.657 483.51 316.293 479.994 316.233C472.782 316.233 465.57 316.415 458.358 316.415C443.751 316.415 429.024 315.263 414.539 316.172C407.69 316.657 400.841 316.293 393.993 316.415C391.69 316.415 387.568 317.445 385.871 315.324C383.932 312.96 385.447 306.112 385.447 303.324V282.295C385.447 268.841 384.235 254.781 386.599 241.57C386.841 240.176 388.296 240.176 389.084 240.964C406.114 240.964 423.145 240.539 440.115 240.418C455.509 240.236 470.843 238.055 486.237 237.691C488.782 237.63 492.661 236.782 494.298 239.388C495.813 241.873 494.358 249.084 494.358 251.69C494.358 265.265 495.449 279.022 496.298 292.598C496.661 298.84 498.298 305.748 497.631 312.051ZM494.177 306.597C493.146 296.173 492.661 285.446 492.358 274.962C492.237 269.447 491.692 263.993 491.389 258.538C491.207 255.327 491.267 252.115 491.267 248.903C491.267 247.327 492.055 243.751 491.449 242.357C489.51 237.691 468.964 242.176 463.873 242.418C438.963 243.388 414.236 244.054 389.326 244.054C387.144 257.811 388.538 272.598 388.538 286.477V305.93C388.538 307.809 387.69 312.354 389.144 313.445C389.871 313.991 394.114 313.324 395.023 313.324C406.66 313.324 418.539 311.93 430.054 312.9C442.297 313.869 454.782 313.384 467.085 313.263C473.691 313.263 480.297 312.9 486.904 313.384C488.298 313.445 492.237 314.536 493.389 313.869C495.51 312.718 494.358 308.96 494.177 306.597Z" fill="#100F12"/>
<path fill-rule="evenodd" clip-rule="evenodd" d="M458.297 279.568C458.055 285.81 456.6 294.537 451.873 298.9C446.479 303.93 438.176 301.93 431.509 301.567C424.296 301.082 419.024 300.112 414.599 293.749C410.66 288.174 410.236 280.234 410.842 273.629C411.448 267.265 413.145 261.75 418.539 257.993C424.115 254.114 430.721 254.599 437.206 255.084C437.448 254.781 437.812 254.66 438.297 254.66C443.206 255.024 451.509 256.236 454.903 260.296C459.085 265.326 458.54 273.568 458.297 279.568ZM453.691 264.599C451.206 260.175 444.964 258.478 439.933 257.932C439.691 258.175 439.327 258.357 438.842 258.296C433.388 257.932 427.145 256.781 421.993 259.387C416.114 262.417 414.357 268.659 413.872 274.78C412.902 287.689 417.69 297.628 431.509 298.476C437.266 298.779 444.539 300.234 449.691 296.719C453.933 293.87 455.085 282.598 455.206 278.295C455.388 274.114 455.812 268.296 453.691 264.599Z" fill="#100F12"/>
<path d="M442.176 284.356C440.115 286.962 438.358 288.416 434.903 288.658C431.448 288.901 428.782 289.022 427.327 285.386C425.266 280.113 427.206 273.508 433.327 272.417C435.085 272.114 437.509 273.144 438.721 271.387C439.752 269.932 438.964 267.144 438.903 265.508C438.782 263.508 435.691 263.508 435.812 265.508C435.873 266.356 436.297 267.993 435.994 268.781C435.933 268.902 435.933 269.023 435.873 269.084C435.812 268.962 435.57 268.841 435.024 268.841C432.6 268.902 430.903 269.447 428.782 270.78C424.721 273.265 422.782 277.75 423.448 282.538C423.994 286.659 425.266 290.901 429.873 291.749C436.055 292.901 440.6 291.204 444.358 286.537C445.631 285.022 443.449 282.841 442.176 284.356Z" fill="#100F12"/>
<g style="mix-blend-mode:multiply">
<path d="M288.354 348.777C287.263 344.474 288.475 340.232 288.657 336.05C289.505 335.626 290.233 335.262 290.96 334.899C293.687 333.565 296.475 332.353 299.081 330.838C301.263 329.565 303.203 327.808 305.384 326.475C306.96 325.444 308.718 324.778 310.354 323.929C312.476 322.838 314.657 321.808 316.657 320.596C320.597 318.172 324.476 315.748 328.233 313.142C330.415 311.687 332.9 310.9 335.082 309.566C337.446 308.112 339.931 306.839 342.355 305.627C344.9 304.415 347.567 303.688 350.294 304.961C352.598 306.051 354.476 307.748 355.446 310.051C356.901 313.384 359.446 315.869 362.113 318.293C365.143 321.081 367.992 324.051 370.719 327.263C372.537 329.444 374.901 331.262 377.083 333.202C379.265 335.141 381.507 337.02 383.75 338.959C385.507 340.535 387.265 341.989 388.901 343.625C390.113 344.898 391.083 346.353 392.174 347.686C392.235 347.807 392.235 347.928 392.235 348.049C392.194 349.14 392.134 350.231 392.053 351.322C391.932 352.777 391.81 354.251 391.689 355.746C391.507 357.504 391.386 359.261 391.204 361.079C391.083 362.109 390.538 362.412 389.447 362.231C387.81 361.928 386.113 361.806 384.416 361.564C382.538 361.322 380.598 360.958 378.659 360.716C376.719 360.473 374.78 360.291 372.84 360.11C372.477 360.069 372.113 360.029 371.749 359.988C367.143 359.2 362.537 358.413 357.87 357.685C355.325 357.322 352.719 357.201 350.173 356.898C346.779 356.473 343.446 355.928 340.052 355.504C336.355 354.958 332.597 354.473 328.839 353.989C326.476 353.625 324.112 353.201 321.688 352.898C320.415 352.716 319.082 352.777 317.748 352.595C316.718 352.474 315.748 352.11 314.718 351.989C312.779 351.807 310.839 351.686 308.9 351.504C307.627 351.322 306.354 351.019 305.142 350.837C303.93 350.655 302.657 350.534 301.445 350.413C299.566 350.171 297.627 349.868 295.748 349.625C293.283 349.342 290.819 349.06 288.354 348.777Z" fill="#91CDA1"/>
<path d="M288.354 348.777C287.263 344.474 288.475 340.232 288.657 336.05C289.505 335.626 290.233 335.262 290.96 334.899C293.687 333.565 296.475 332.353 299.081 330.838C301.263 329.565 303.203 327.808 305.384 326.475C306.96 325.444 308.718 324.778 310.354 323.929C312.476 322.838 314.657 321.808 316.657 320.596C320.597 318.172 324.476 315.748 328.233 313.142C330.415 311.687 332.9 310.9 335.082 309.566C337.446 308.112 339.931 306.839 342.355 305.627C344.9 304.415 347.567 303.688 350.294 304.961C352.598 306.051 354.476 307.748 355.446 310.051C356.901 313.384 359.446 315.869 362.113 318.293C365.143 321.081 367.992 324.051 370.719 327.263C372.537 329.444 374.901 331.262 377.083 333.202C379.265 335.141 381.507 337.02 383.75 338.959C385.507 340.535 387.265 341.989 388.901 343.625C390.113 344.898 391.083 346.353 392.174 347.686C392.235 347.807 392.235 347.928 392.235 348.049C392.194 349.14 392.134 350.231 392.053 351.322C391.932 352.777 391.81 354.251 391.689 355.746C391.507 357.504 391.386 359.261 391.204 361.079C391.083 362.109 390.538 362.412 389.447 362.231C387.81 361.928 386.113 361.806 384.416 361.564C382.538 361.322 380.598 360.958 378.659 360.716C376.719 360.473 374.78 360.291 372.84 360.11C372.477 360.069 372.113 360.029 371.749 359.988C367.143 359.2 362.537 358.413 357.87 357.685C355.325 357.322 352.719 357.201 350.173 356.898C346.779 356.473 343.446 355.928 340.052 355.504C336.355 354.958 332.597 354.473 328.839 353.989C326.476 353.625 324.112 353.201 321.688 352.898C320.415 352.716 319.082 352.777 317.748 352.595C316.718 352.474 315.748 352.11 314.718 351.989C312.779 351.807 310.839 351.686 308.9 351.504C307.627 351.322 306.354 351.019 305.142 350.837C303.93 350.655 302.657 350.534 301.445 350.413C299.566 350.171 297.627 349.868 295.748 349.625C293.283 349.342 290.819 349.06 288.354 348.777Z" stroke="#91CDA1" stroke-miterlimit="10"/>
</g>
<path fill-rule="evenodd" clip-rule="evenodd" d="M405.205 279.325C404.66 281.628 403.993 283.931 403.569 286.295C403.023 288.961 402.781 291.749 402.356 294.476C401.932 297.688 401.447 300.9 400.902 304.112C400.66 305.567 400.053 307.021 399.811 308.536C399.569 310.172 399.569 311.809 399.326 313.445C398.902 316.293 398.417 319.081 397.993 321.929C397.569 324.535 397.265 327.141 396.902 329.747C396.599 331.747 396.296 333.747 396.053 335.747C395.508 340.232 395.023 344.656 394.478 349.08C393.993 353.14 393.326 357.201 393.023 361.322C392.962 362.412 393.023 363.503 392.538 364.534C392.356 364.776 392.781 365.321 392.902 365.685C391.932 367.503 390.356 366.958 388.902 366.776C385.993 366.412 383.144 365.867 380.235 365.382C376.295 364.776 372.356 364.17 368.356 363.685C365.265 363.261 362.174 363.14 359.083 362.776C355.265 362.291 351.507 361.625 347.689 361.14C346.416 360.958 345.204 360.897 343.931 360.716C340.78 360.291 337.567 359.746 334.416 359.322C331.567 358.958 328.719 358.594 325.87 358.231C323.446 357.928 321.022 357.443 318.597 357.201C316.415 357.019 314.112 357.201 311.93 356.958C309.688 356.716 307.567 356.11 305.385 355.746C302.839 355.382 300.355 355.079 297.87 354.776C294.718 354.352 291.566 353.928 288.415 353.564C287.001 353.403 285.587 353.282 284.172 353.201C283.384 353.14 282.718 352.352 281.748 353.019C281.203 353.383 279.93 351.807 280.051 351.019C280.293 349.443 280.536 347.868 280.778 346.292C281.384 341.262 281.99 336.292 282.657 331.262C283.021 328.838 283.566 326.414 283.93 323.99C284.294 321.142 284.415 318.233 284.778 315.324C285.263 311.869 285.93 308.476 286.415 305.021C286.718 303.021 286.718 300.961 286.96 298.961C287.324 296.234 287.869 293.567 288.294 290.84C288.415 289.749 288.536 288.598 288.657 287.507C288.9 285.81 289.162 284.093 289.445 282.355C289.89 279.608 290.334 276.861 290.779 274.113C291.203 271.447 291.688 268.72 292.173 266.053C292.354 264.962 293.991 264.235 295.021 264.538C295.87 264.72 296.779 264.659 297.627 264.781C304.173 265.568 310.718 266.477 317.325 267.205C321.143 267.629 324.961 267.568 328.779 267.871C333.143 268.296 337.507 268.902 341.81 269.447C343.628 269.689 345.386 269.992 347.204 270.235C349.628 270.598 352.052 271.023 354.477 271.386C357.507 271.811 360.537 272.174 363.568 272.538C367.629 273.144 371.689 273.689 375.811 274.295C380.013 274.901 384.215 275.487 388.417 276.053C391.265 276.477 394.114 276.78 396.962 277.265C399.629 277.75 402.296 278.477 404.963 279.144C405.084 279.144 405.144 279.265 405.205 279.325ZM286.839 333.505C286.96 333.585 287.081 333.666 287.203 333.747C288.536 332.899 289.93 332.05 291.263 331.202C293.324 329.929 295.324 328.596 297.385 327.263C300.173 325.384 302.9 323.323 306.052 321.99C306.658 321.687 307.203 321.142 307.809 320.839C309.688 319.869 311.567 318.899 313.446 317.93C314.052 317.627 314.658 317.324 315.264 316.96C316.658 315.99 317.931 314.96 319.385 314.051C320.779 313.142 322.294 312.415 323.688 311.566C325.264 310.657 326.779 309.627 328.355 308.718C330.294 307.566 332.719 307.385 334.537 305.93C334.598 305.87 334.658 305.87 334.719 305.809C336.295 305.142 337.749 304.354 339.386 303.87C340.961 303.324 342.658 302.9 344.355 302.658C345.264 302.536 346.234 302.839 347.143 303.082C348.658 303.385 350.355 303.445 351.507 304.355C354.295 306.536 356.901 309.021 359.447 311.566C360.901 312.96 361.871 314.778 363.507 315.99C363.75 316.172 363.871 316.536 364.053 316.839C364.174 317.081 364.174 317.384 364.356 317.627C365.507 319.02 366.659 320.414 367.75 321.869C369.265 323.808 370.538 325.99 372.235 327.687C375.144 330.596 378.356 333.202 381.447 335.929C384.477 338.656 387.508 341.323 390.477 343.928C390.538 343.625 390.599 343.141 390.72 342.595C390.902 341.929 391.144 341.201 391.205 340.535C391.265 339.383 391.144 338.232 391.326 337.141C391.568 335.747 392.114 334.474 392.356 333.08C392.72 331.081 392.962 329.02 393.265 326.96C393.568 325.02 393.811 323.02 394.175 321.081C394.538 319.02 394.962 317.021 395.387 315.021C395.811 312.839 396.417 310.657 396.781 308.415C397.387 304.233 397.932 300.052 398.478 295.931C398.76 293.789 399.023 291.668 399.266 289.567C399.447 288.355 399.508 287.083 399.69 285.87C399.872 284.598 400.114 283.325 400.356 281.992C399.932 281.931 399.75 281.871 399.508 281.871C397.508 281.81 395.508 281.81 393.568 281.628C391.023 281.386 388.477 281.083 385.932 280.719C383.548 280.396 381.164 280.032 378.78 279.628C377.265 279.386 375.811 278.962 374.295 278.78C371.81 278.477 369.265 278.356 366.719 278.113C364.053 277.81 361.386 277.325 358.719 277.022C354.295 276.416 349.931 275.871 345.507 275.326C343.386 275.083 341.204 274.841 339.083 274.538C338.295 274.416 337.507 273.992 336.719 273.871C335.567 273.75 334.416 273.871 333.264 273.689C331.204 273.386 329.204 272.841 327.143 272.538C325.264 272.295 323.325 272.295 321.446 271.992C319.87 271.75 318.355 271.083 316.718 270.901C313.931 270.598 311.264 269.689 308.355 269.689C306.355 269.75 304.415 269.265 302.415 269.023C302.052 269.023 301.688 269.023 301.445 269.144C300.294 269.871 299.203 269.386 298.051 269.205C297.142 269.023 296.233 268.841 295.263 268.72C295.021 270.78 294.779 272.841 294.597 274.841C294.415 277.325 294.476 279.871 294.112 282.295C293.566 285.325 293.445 288.355 293.203 291.385C293.021 294.234 292.779 297.022 292.415 299.809C292.112 302.355 291.627 304.9 291.203 307.445C290.435 311.728 289.667 316.011 288.9 320.293C288.415 322.96 287.809 325.626 287.385 328.293C287.082 329.99 287.021 331.747 286.839 333.505ZM286.051 349.807C288.516 350.09 290.981 350.393 293.445 350.716C295.385 350.898 297.264 351.201 299.203 351.443C300.415 351.564 301.627 351.686 302.839 351.867C304.112 352.049 305.324 352.352 306.597 352.534C308.536 352.777 310.537 352.837 312.476 353.019C313.446 353.14 314.476 353.504 315.506 353.625C316.779 353.807 318.112 353.746 319.446 353.928C321.809 354.231 324.173 354.655 326.597 355.019C330.294 355.504 334.052 356.049 337.81 356.534C341.143 357.019 344.537 357.504 347.931 357.928C350.477 358.231 353.083 358.352 355.628 358.716C360.234 359.443 364.841 360.231 369.447 361.019C369.851 361.059 370.235 361.099 370.598 361.14C372.538 361.322 374.477 361.503 376.356 361.746C378.295 361.988 380.235 362.352 382.174 362.594C383.811 362.837 385.508 362.958 387.205 363.261C388.235 363.443 388.78 363.14 388.902 362.109C389.144 360.291 389.265 358.534 389.387 356.776C389.548 355.281 389.669 353.807 389.75 352.352C389.831 351.261 389.912 350.171 389.993 349.08C389.993 348.959 389.932 348.837 389.871 348.716C388.78 347.383 387.811 345.928 386.599 344.656C384.962 343.019 383.205 341.565 381.447 339.989C379.265 338.05 377.023 336.171 374.841 334.232C372.659 332.293 370.295 330.475 368.416 328.293C365.75 325.081 362.901 322.111 359.81 319.323C357.204 316.899 354.659 314.475 353.143 311.081C352.174 308.779 350.295 307.082 347.992 305.991C345.325 304.779 342.658 305.445 340.113 306.657C337.628 307.869 335.204 309.142 332.84 310.597C330.598 311.93 328.113 312.718 325.991 314.172C322.234 316.778 318.294 319.202 314.415 321.626C312.355 322.839 310.173 323.869 308.052 324.96C306.415 325.808 304.658 326.475 303.142 327.505C300.961 328.838 299.021 330.596 296.779 331.868C294.173 333.383 291.385 334.596 288.657 335.929C287.93 336.292 287.203 336.656 286.415 337.08C286.172 341.262 284.96 345.504 286.051 349.807Z" fill="#100F12"/>
<path fill-rule="evenodd" clip-rule="evenodd" d="M371.992 297.991C372.416 296.719 372.78 295.446 373.386 294.234C374.416 292.295 377.931 290.779 380.174 291.022C382.962 291.325 385.023 292.598 386.538 294.9C388.78 298.294 388.113 302.355 385.507 304.961C384.235 306.233 382.538 306.718 380.659 306.112C379.265 305.627 377.81 305.385 376.416 305.021C373.447 304.233 370.962 301.143 371.992 297.991ZM375.204 297.628C374.356 299.688 375.204 301.749 378.78 302.779C380.841 303.324 382.841 301.991 383.447 299.385C384.113 296.234 383.265 294.84 379.386 293.87C377.628 293.446 375.931 294.961 375.204 297.628Z" fill="#100F12"/>
<path fill-rule="evenodd" clip-rule="evenodd" d="M353.204 192.663C353.204 196.844 353.143 201.087 353.265 205.329C353.325 207.995 353.81 210.601 353.81 213.268C353.871 218.54 353.749 223.873 353.689 229.146C353.689 231.994 353.749 234.903 353.81 237.752C353.871 242.236 353.931 246.721 354.113 251.145C354.234 255.205 354.598 259.326 354.84 263.387C355.022 266.538 355.143 269.75 355.265 272.962C355.325 276.356 355.325 279.75 355.386 283.143C355.386 287.264 355.265 291.385 355.325 295.506C355.386 298.294 355.689 301.021 355.81 303.809C355.871 305.021 354.174 306.9 352.961 307.385C350.477 308.476 347.81 308.476 345.143 308.597C343.567 308.657 341.992 309.021 340.416 309.142C338.537 309.203 336.598 309.142 334.658 309.203C333.022 309.263 331.446 309.566 329.87 309.566C328.84 309.627 327.87 309.385 326.84 309.385C326.234 309.324 325.506 309.324 325.022 309.566C323.688 310.172 322.476 310.475 321.082 309.869C320.779 309.688 320.234 309.688 319.991 309.869C317.203 311.445 314.112 311.021 311.082 311.082C308.839 311.082 306.536 311.142 304.233 311.082C302.051 311.082 299.93 310.839 297.748 310.9C293.93 311.021 290.112 311.385 286.293 311.445C282.899 311.566 279.506 311.445 276.051 311.445C275.748 311.445 275.384 311.627 275.081 311.627C273.445 311.688 271.748 311.627 270.111 311.748C268.354 311.869 266.536 312.112 264.778 312.294C263.626 312.415 262.414 312.657 261.263 312.718C260.232 312.778 259.141 312.657 258.111 312.657C256.697 312.657 255.303 312.677 253.929 312.718C252.596 312.778 251.323 312.96 250.05 313.021C242.656 313.142 235.323 313.142 227.929 313.445C222.777 313.627 217.565 314.233 212.413 314.475C206.898 314.778 201.383 314.839 195.868 314.9C192.777 314.96 189.686 314.96 186.655 314.839C185.928 314.839 184.958 314.415 184.655 313.93C183.625 312.354 182.413 310.718 181.988 309.021C181.625 307.203 182.17 305.264 182.231 303.324C182.473 297.203 182.716 291.082 182.776 284.962C182.776 282.962 182.049 280.901 181.867 278.901C181.685 276.841 181.807 274.72 181.685 272.659C181.564 270.538 181.14 268.417 181.019 266.296C180.898 264.356 181.019 262.417 181.019 260.417C181.079 257.326 181.079 254.175 181.14 251.024C181.201 249.387 181.625 247.69 181.625 246.054C181.564 244.054 181.322 242.054 181.201 240.054C181.14 239.388 181.201 238.782 181.201 238.115C181.201 233.934 181.14 229.752 181.201 225.51C181.261 224.237 181.685 222.904 181.685 221.631C181.685 220.237 181.322 218.843 181.322 217.449C181.281 212.359 181.281 207.248 181.322 202.117C181.322 199.268 181.504 196.42 181.504 193.511C181.504 192.238 181.261 190.905 181.201 189.632C181.079 187.693 182.655 186.845 184.231 186.057C184.413 185.936 184.837 185.996 184.898 185.875C186.352 182.906 189.261 184.784 191.443 184.421C194.11 184.057 196.837 184.178 199.565 184.178C205.14 184.178 210.777 184.178 216.413 184.118C219.989 184.118 223.565 183.875 227.141 183.936C230.353 183.996 233.565 184.421 236.777 184.421C241.626 184.421 246.414 184.178 251.263 184.057C255.869 183.936 260.475 183.754 265.081 183.875C268.899 183.996 272.778 184.724 276.596 184.784C280.718 184.845 284.9 184.421 289.021 184.421C291.324 184.421 293.566 184.905 295.869 184.905C299.021 184.966 302.173 184.663 305.324 184.602C308.173 184.542 311.021 184.663 313.87 184.602C316.294 184.542 318.779 184.36 321.264 184.299C322.294 184.239 323.385 184.421 324.415 184.481C330.072 184.764 335.729 185.027 341.386 185.269C343.567 185.39 345.749 185.33 347.931 185.511C352.052 185.936 352.78 186.724 353.265 189.814C353.446 190.784 353.507 191.693 353.628 192.602C353.507 192.642 353.366 192.663 353.204 192.663ZM186.716 309.93C188.231 309.506 188.17 309.627 190.716 309.93C193.019 310.233 195.443 310.354 197.746 310.233C202.656 310.051 207.565 309.688 212.413 309.445C217.686 309.203 222.959 308.9 228.232 308.839C232.232 308.839 236.293 309.385 240.293 309.263C245.202 309.082 250.172 308.536 255.081 307.87C261.566 307.082 267.99 307.567 274.475 307.567C278.96 307.567 283.384 307.142 287.869 306.839C291.021 306.657 294.233 306.294 297.445 306.173C300.051 306.051 302.657 306.294 305.264 306.112C310.052 305.809 314.84 305.142 319.627 304.961C324.112 304.779 328.537 305.082 333.022 305.021C339.264 304.961 345.567 304.779 351.81 304.658C352.052 303.567 352.537 302.536 352.477 301.506C352.416 297.506 352.174 293.507 352.052 289.567C351.931 284.759 351.85 279.952 351.81 275.144C351.81 272.841 352.113 270.477 351.931 268.174C351.689 263.387 351.083 258.599 350.84 253.811C350.537 248.66 350.477 243.448 350.416 238.297C350.355 233.206 350.355 228.116 350.355 223.025C350.355 220.358 350.537 217.692 350.416 215.025C350.234 211.753 349.689 208.42 349.689 205.147C349.628 200.723 349.992 196.299 350.174 191.875C350.174 190.784 349.689 189.996 348.355 189.936C346.295 189.936 344.295 189.996 342.234 189.936C338.113 189.936 333.991 189.814 329.87 189.814C323.87 189.754 317.87 189.814 311.809 189.693C301.688 189.572 291.566 189.329 281.445 189.148C277.505 189.087 273.566 189.148 269.626 189.148C264.596 189.087 259.505 189.087 254.475 188.966C249.99 188.845 245.565 188.602 241.141 188.542C237.464 188.461 233.787 188.461 230.111 188.542C225.807 188.602 221.444 188.723 217.08 188.966C211.928 189.208 206.837 189.633 201.686 189.996C199.08 190.178 196.413 190.299 193.807 190.542C191.564 190.723 189.383 191.087 187.14 191.208C185.807 191.329 185.504 191.632 185.504 192.844C185.564 198.784 185.504 204.723 185.443 210.662C185.382 212.783 185.14 214.904 185.201 216.965C185.443 222.298 185.989 227.631 186.11 232.964C186.292 239.206 186.231 245.448 186.17 251.69C186.17 254.296 185.928 256.902 185.928 259.508C185.989 262.296 186.352 265.084 186.413 267.871C186.473 270.538 186.231 273.204 186.292 275.81C186.292 278.901 186.473 281.992 186.534 285.022C186.595 288.173 186.655 291.325 186.655 294.416C186.696 296.921 186.716 299.405 186.716 301.87C186.716 304.476 186.716 307.082 186.716 309.93Z" fill="#100F12"/>
<path fill-rule="evenodd" clip-rule="evenodd" d="M186.716 309.93C186.716 307.082 186.716 304.476 186.716 301.87C186.716 299.405 186.696 296.92 186.655 294.416C186.655 291.325 186.595 288.173 186.534 285.022C186.473 281.992 186.291 278.901 186.291 275.81C186.231 273.204 186.473 270.538 186.413 267.871C186.352 265.084 185.988 262.296 185.928 259.508C185.928 256.902 186.17 254.296 186.17 251.69C186.231 245.448 186.291 239.206 186.11 232.964C185.988 227.631 185.443 222.298 185.201 216.965C185.14 214.904 185.382 212.783 185.443 210.662C185.504 204.723 185.564 198.784 185.504 192.844C185.504 191.632 185.807 191.329 187.14 191.208C189.382 191.087 191.564 190.723 193.807 190.541C196.413 190.299 199.08 190.178 201.686 189.996C206.837 189.632 211.928 189.208 217.08 188.966C221.444 188.723 225.807 188.602 230.111 188.542C233.787 188.461 237.464 188.461 241.141 188.542C245.565 188.602 249.99 188.845 254.475 188.966C259.505 189.087 264.596 189.087 269.626 189.148C273.566 189.148 277.505 189.087 281.445 189.148C291.566 189.329 301.688 189.572 311.809 189.693C317.87 189.814 323.87 189.754 329.87 189.814C333.991 189.814 338.113 189.935 342.234 189.935C344.295 189.996 346.295 189.935 348.355 189.935C349.689 189.996 350.173 190.784 350.173 191.875C349.992 196.299 349.628 200.723 349.689 205.147C349.689 208.419 350.234 211.753 350.416 215.025C350.537 217.692 350.355 220.358 350.355 223.025C350.355 228.116 350.355 233.206 350.416 238.297C350.477 243.448 350.537 248.66 350.84 253.811C351.083 258.599 351.689 263.387 351.931 268.174C352.113 270.477 351.81 272.841 351.81 275.144C351.85 279.952 351.931 284.759 352.052 289.567C352.174 293.506 352.416 297.506 352.477 301.506C352.537 302.536 352.052 303.567 351.81 304.658C345.567 304.779 339.264 304.961 333.022 305.021C328.537 305.082 324.112 304.779 319.627 304.961C314.839 305.142 310.052 305.809 305.264 306.112C302.657 306.294 300.051 306.051 297.445 306.173C294.233 306.294 291.021 306.657 287.869 306.839C283.384 307.142 278.96 307.566 274.475 307.566C267.99 307.566 261.566 307.082 255.081 307.869C250.172 308.536 245.202 309.082 240.293 309.263C236.292 309.385 232.232 308.839 228.232 308.839C222.959 308.9 217.686 309.203 212.413 309.445C207.565 309.688 202.655 310.051 197.746 310.233C195.443 310.354 193.019 310.233 190.716 309.93C188.17 309.627 188.231 309.506 186.716 309.93ZM199.201 260.053C199.08 260.053 198.958 260.053 198.837 260.053C198.837 261.71 198.837 263.387 198.837 265.084C198.898 269.265 198.898 273.447 198.898 277.628C198.958 281.81 198.898 285.992 198.898 290.173C198.958 291.991 200.049 293.264 202.11 293.506C205.443 293.991 208.777 294.416 212.11 294.476C217.262 294.597 222.413 294.355 227.504 294.355C232.292 294.355 237.02 294.537 241.747 294.476C247.262 294.476 252.778 294.416 258.293 294.173C263.384 293.991 268.475 293.385 273.627 293.931C273.869 293.931 274.111 293.931 274.354 293.87C276.354 293.264 278.475 293.446 280.536 293.506C283.021 293.506 285.506 293.567 287.99 293.809C290.657 294.052 293.445 293.567 296.233 293.325C296.839 293.264 297.627 292.961 298.051 292.537C298.839 291.749 299.263 290.658 300.112 290.052C301.082 289.325 301.142 288.598 301.082 287.628C300.839 281.285 300.597 274.942 300.354 268.599C300.193 264.437 300.031 260.276 299.869 256.114C299.809 253.63 299.748 251.145 299.748 248.599C299.627 242.721 299.506 236.782 299.324 230.843C299.263 229.934 298.9 228.661 297.445 228.54C293.263 228.237 289.142 228.055 284.96 227.934C281.445 227.812 277.93 227.813 274.414 227.691C270.414 227.57 266.475 227.267 262.475 227.206C258.414 227.146 254.353 227.388 250.293 227.449C244.353 227.509 238.414 227.449 232.474 227.57C230.111 227.57 227.747 227.691 225.383 227.812C221.807 227.994 218.232 228.237 214.716 228.419C210.534 228.661 206.413 228.903 202.231 229.025C200.716 229.146 199.383 229.873 199.322 231.206C199.08 234.115 198.898 237.085 198.898 239.994C198.898 243.388 199.14 246.781 199.201 250.175C199.261 253.448 199.201 256.72 199.201 260.053ZM320.234 293.506C325.082 292.961 328.597 292.294 332.173 292.173C334.355 292.113 334.476 291.143 334.476 289.81C334.476 288.537 334.537 287.264 334.416 285.992C334.355 284.052 334.052 282.113 334.052 280.174C334.052 276.598 334.355 273.083 334.416 269.568C334.476 265.932 334.355 262.296 334.355 258.66C334.294 255.932 334.416 253.145 334.294 250.418C334.234 248.478 333.87 246.539 333.749 244.6C333.628 241.751 333.628 238.903 333.507 236.055C333.446 234.297 333.325 232.6 333.325 230.843C333.325 226.843 333.446 222.843 333.446 218.904C333.507 216.48 333.264 214.056 333.325 211.631C333.385 209.571 333.81 207.51 333.81 205.45C333.81 204.42 333.507 203.268 332.9 202.299C332.658 201.874 331.446 201.874 330.719 201.692C330.476 201.632 330.294 201.45 330.052 201.45C326.961 201.026 323.931 200.42 320.84 200.238C317.749 200.056 314.718 200.48 311.627 200.42C308.355 200.299 305.991 201.632 305.87 203.995C305.688 208.601 305.445 213.268 305.385 217.934C305.385 221.449 305.688 224.964 305.688 228.479C305.688 231.812 305.506 235.085 305.506 238.418C305.445 241.085 305.627 243.812 305.627 246.478C305.627 251.084 305.506 255.69 305.627 260.296C305.688 264.417 306.112 268.538 306.233 272.659C306.354 278.537 306.294 284.416 306.294 290.295C306.294 291.022 306.597 291.749 306.718 292.416C306.961 293.506 307.87 293.991 308.839 293.628C310.415 292.961 311.809 293.446 313.324 293.506C316.052 293.567 318.779 293.506 320.234 293.506ZM230.414 224.116C230.454 224.075 230.474 224.035 230.474 223.994C236.01 223.752 241.545 223.53 247.081 223.328C250.778 223.146 254.535 222.904 258.232 222.904C263.869 222.782 269.445 222.843 275.081 222.904C282.293 222.964 289.506 223.085 296.779 223.146C297.324 223.146 298.233 223.025 298.354 222.782C299.142 220.722 300.112 218.661 300.354 216.54C300.657 214.359 300.718 212.116 299.991 209.753C299.263 207.753 299.566 205.45 299.566 203.329C299.627 202.056 298.779 201.753 297.688 201.692C294.233 201.45 290.718 201.268 287.203 201.147C283.869 201.026 280.475 201.086 277.081 201.086C271.869 201.086 266.596 201.086 261.323 201.147C257.808 201.208 254.293 201.511 250.778 201.632C247.081 201.814 243.384 201.935 239.626 202.117C237.202 202.238 234.777 202.48 232.353 202.602C230.777 202.662 229.201 202.541 227.686 202.662C224.535 202.905 221.383 203.511 218.232 203.632C214.05 203.814 209.868 203.632 205.625 203.753C204.171 203.814 202.777 204.298 201.261 204.48C199.201 204.662 198.474 205.207 198.352 207.086C198.292 208.601 198.231 210.116 198.11 211.631C197.807 215.146 197.443 218.661 198.171 222.116C198.352 223.025 198.595 223.691 199.928 223.752C203.322 223.813 206.716 224.055 210.05 224.116C216.838 224.176 223.626 224.116 230.414 224.116Z" fill="#FDFBFA"/>
<path fill-rule="evenodd" clip-rule="evenodd" d="M199.201 260.053C199.201 256.72 199.262 253.448 199.201 250.175C199.14 246.781 198.898 243.388 198.898 239.994C198.898 237.085 199.08 234.115 199.322 231.206C199.383 229.873 200.716 229.146 202.231 229.025C206.413 228.903 210.535 228.661 214.717 228.418C218.232 228.237 221.808 227.994 225.383 227.812C227.747 227.691 230.111 227.57 232.474 227.57C238.414 227.449 244.353 227.509 250.293 227.449C254.354 227.388 258.414 227.146 262.475 227.206C266.475 227.267 270.415 227.57 274.415 227.691C277.93 227.812 281.445 227.812 284.96 227.934C289.142 228.055 293.264 228.237 297.445 228.54C298.9 228.661 299.264 229.934 299.324 230.843C299.506 236.782 299.627 242.721 299.748 248.599C299.748 251.145 299.809 253.629 299.87 256.114C300.031 260.276 300.193 264.437 300.355 268.599C300.597 274.942 300.839 281.285 301.082 287.628C301.142 288.598 301.082 289.325 300.112 290.052C299.264 290.658 298.839 291.749 298.051 292.537C297.627 292.961 296.839 293.264 296.233 293.325C293.445 293.567 290.657 294.052 287.991 293.809C285.506 293.567 283.021 293.506 280.536 293.506C278.475 293.446 276.354 293.264 274.354 293.87C274.112 293.931 273.869 293.931 273.627 293.931C268.475 293.385 263.384 293.991 258.293 294.173C252.778 294.415 247.263 294.476 241.747 294.476C237.02 294.537 232.293 294.355 227.505 294.355C222.414 294.355 217.262 294.597 212.11 294.476C208.777 294.415 205.444 293.991 202.11 293.506C200.05 293.264 198.959 291.991 198.898 290.173C198.898 285.992 198.959 281.81 198.898 277.628C198.898 273.447 198.898 269.265 198.837 265.083C198.837 263.387 198.837 261.71 198.837 260.053C198.959 260.053 199.08 260.053 199.201 260.053ZM291.748 288.173C290.112 285.992 253.929 261.69 248.899 260.72C241.808 265.75 235.02 271.023 227.808 275.75C220.535 280.416 212.838 284.598 205.383 288.961C205.383 289.123 205.403 289.264 205.444 289.385C207.322 289.385 209.262 289.385 211.141 289.385C214.413 289.325 217.686 289.082 220.959 289.204C226.717 289.325 232.414 289.749 238.172 289.507C244.838 289.264 251.505 289.688 258.172 289.688C263.142 289.628 268.051 289.325 272.96 289.143C277.627 288.901 282.294 288.658 286.96 288.416C288.476 288.355 289.93 288.295 291.748 288.173ZM295.203 233.206C290.476 235.812 285.809 237.63 281.809 240.539C277.021 243.994 271.687 246.963 266.596 250.175C262.051 253.023 257.445 255.932 252.717 258.902C253.02 259.084 253.323 259.326 253.748 259.569C254.657 259.932 255.566 260.235 256.414 260.659C257.263 261.084 258.111 261.629 258.899 262.114C261.02 263.387 263.202 264.659 265.263 266.053C266.899 267.083 268.415 268.417 270.051 269.447C273.142 271.447 276.293 273.386 279.384 275.325C281.748 276.901 284.172 278.356 286.415 280.053C289.142 282.113 291.688 284.295 294.354 286.476C294.961 286.961 295.688 287.386 296.354 287.81C296.597 287.082 296.961 286.295 297.203 285.567C297.264 285.325 297.142 285.022 297.082 284.78C296.839 281.931 296.415 279.083 296.354 276.235C296.233 270.417 296.294 264.599 296.173 258.72C296.112 253.205 295.93 247.69 295.688 242.175C295.627 239.327 295.385 236.418 295.203 233.206ZM245.869 258.781C245.081 258.417 244.596 258.235 244.172 257.993C241.141 256.114 238.172 254.114 235.02 252.417C231.02 250.175 226.777 248.296 222.777 246.054C219.08 244.054 215.504 241.872 211.929 239.63C209.686 238.236 207.686 236.539 205.565 235.024C204.656 234.358 203.686 233.812 202.716 233.146C202.716 251.145 202.716 269.083 202.716 287.204C209.807 282.052 218.171 279.022 224.959 273.871C231.747 268.72 238.778 263.871 245.869 258.781ZM290.294 231.812C288.718 231.63 287.324 231.388 285.93 231.388C283.081 231.327 280.233 231.509 277.384 231.449C275.021 231.449 272.657 231.085 270.293 231.024C265.505 230.964 260.657 230.964 255.808 231.024C250.232 231.085 244.656 231.267 239.02 231.327C237.444 231.388 235.868 231.024 234.293 231.085C232.293 231.146 230.293 231.509 228.232 231.63C226.596 231.752 224.899 231.691 223.202 231.752C220.353 231.812 217.504 231.812 214.656 232.055C212.353 232.297 210.05 232.782 207.383 233.206C209.201 234.236 210.656 235.085 212.05 235.933C214.535 237.448 216.959 239.085 219.504 240.539C223.202 242.539 227.08 244.297 230.777 246.357C236.535 249.508 242.111 252.781 247.808 255.932C248.414 256.296 249.566 256.357 250.172 256.114C251.99 255.326 253.687 254.357 255.384 253.448C258.232 251.811 261.142 250.175 263.93 248.357C265.93 247.084 267.748 245.448 269.748 244.115C272.778 242.175 275.809 240.357 278.9 238.539C282.294 236.539 285.688 234.6 289.082 232.6C289.445 232.358 289.809 232.115 290.294 231.812Z" fill="#100F12"/>
<path fill-rule="evenodd" clip-rule="evenodd" d="M320.234 293.507C318.779 293.507 316.052 293.567 313.324 293.507C311.809 293.446 310.415 292.961 308.839 293.628C307.87 293.991 306.961 293.507 306.718 292.416C306.597 291.749 306.294 291.022 306.294 290.295C306.294 284.416 306.354 278.537 306.233 272.659C306.112 268.538 305.688 264.417 305.627 260.296C305.506 255.69 305.627 251.084 305.627 246.478C305.627 243.812 305.445 241.085 305.506 238.418C305.506 235.085 305.688 231.812 305.688 228.479C305.688 224.964 305.385 221.449 305.385 217.934C305.445 213.268 305.688 208.601 305.87 203.995C305.991 201.632 308.355 200.299 311.627 200.42C314.718 200.48 317.749 200.056 320.84 200.238C323.931 200.42 326.961 201.026 330.052 201.45C330.294 201.45 330.476 201.632 330.719 201.693C331.446 201.874 332.658 201.874 332.9 202.299C333.507 203.268 333.81 204.42 333.81 205.45C333.81 207.51 333.385 209.571 333.325 211.631C333.264 214.056 333.507 216.48 333.446 218.904C333.446 222.843 333.325 226.843 333.325 230.843C333.325 232.6 333.446 234.297 333.507 236.055C333.628 238.903 333.628 241.751 333.749 244.6C333.87 246.539 334.234 248.478 334.294 250.418C334.416 253.145 334.294 255.932 334.355 258.66C334.355 262.296 334.476 265.932 334.416 269.568C334.355 273.083 334.052 276.598 334.052 280.174C334.052 282.113 334.355 284.052 334.416 285.992C334.537 287.264 334.476 288.537 334.476 289.81C334.476 291.143 334.355 292.113 332.173 292.173C328.597 292.294 325.082 292.961 320.234 293.507ZM331.022 268.235C331.143 268.235 331.264 268.235 331.385 268.235C331.385 263.932 331.507 259.629 331.325 255.387C331.082 249.448 330.476 243.569 330.234 237.691C329.991 233.146 330.113 228.661 330.052 224.116C330.052 222.055 330.072 219.995 330.113 217.934C330.153 216.237 330.214 214.54 330.294 212.844C330.416 210.419 330.658 208.056 330.719 205.632C330.719 205.147 330.173 204.238 329.749 204.177C327.809 203.814 325.87 203.511 323.931 203.45C319.567 203.389 315.143 203.45 310.779 203.389C309.385 203.389 308.961 203.935 309.021 205.147C309.203 212.056 309.445 219.025 309.506 225.994C309.567 236.842 309.445 247.69 309.445 258.538C309.445 263.75 309.567 269.023 309.688 274.235C309.769 278.841 309.91 283.467 310.112 288.113C310.173 288.598 310.779 289.507 311.082 289.507C313.87 289.325 316.537 290.416 319.446 289.87C322.9 289.204 326.537 289.143 330.052 288.779C330.537 288.719 331.264 288.173 331.264 287.81C331.325 286.537 331.022 285.204 331.022 283.931C331.022 278.719 331.022 273.507 331.022 268.235Z" fill="#100F12"/>
<path fill-rule="evenodd" clip-rule="evenodd" d="M230.414 224.116C223.626 224.116 216.838 224.176 210.05 224.116C206.716 224.055 203.322 223.813 199.928 223.752C198.595 223.691 198.353 223.025 198.171 222.116C197.443 218.661 197.807 215.146 198.11 211.631C198.231 210.116 198.292 208.601 198.353 207.086C198.474 205.207 199.201 204.662 201.262 204.48C202.777 204.298 204.171 203.814 205.625 203.753C209.868 203.632 214.05 203.814 218.232 203.632C221.383 203.511 224.535 202.905 227.686 202.662C229.202 202.541 230.777 202.662 232.353 202.602C234.777 202.48 237.202 202.238 239.626 202.117C243.384 201.935 247.081 201.814 250.778 201.632C254.293 201.511 257.808 201.208 261.323 201.147C266.596 201.086 271.869 201.086 277.081 201.086C280.475 201.086 283.869 201.026 287.203 201.147C290.718 201.268 294.233 201.45 297.688 201.692C298.779 201.753 299.627 202.056 299.567 203.329C299.567 205.45 299.264 207.753 299.991 209.753C300.718 212.116 300.658 214.359 300.355 216.54C300.112 218.661 299.142 220.722 298.354 222.782C298.233 223.025 297.324 223.146 296.779 223.146C289.506 223.085 282.294 222.964 275.081 222.904C269.445 222.843 263.869 222.782 258.232 222.904C254.535 222.904 250.778 223.146 247.081 223.328C241.545 223.53 236.01 223.752 230.474 223.994C230.474 224.035 230.454 224.075 230.414 224.116ZM201.14 221.267C204.231 221.267 207.141 221.267 210.11 221.267C215.868 221.267 221.626 221.267 227.383 221.267C230.777 221.207 234.171 221.207 237.565 221.086C244.838 220.783 252.051 220.237 259.263 220.055C265.021 219.934 270.778 220.116 276.475 220.176C282.536 220.257 288.597 220.338 294.657 220.419C295.688 220.48 296.173 220.055 296.233 219.146C296.354 216.48 296.536 213.813 296.658 211.147C296.779 209.692 296.9 208.238 296.839 206.783C296.779 205.935 296.476 204.601 296.051 204.48C293.627 204.056 291.142 203.753 288.657 203.753C284.778 203.692 280.96 203.814 277.081 203.874C273.021 203.935 268.96 203.814 264.899 203.935C260.051 204.117 255.263 204.48 250.414 204.662C247.687 204.844 244.96 204.904 242.232 205.026C237.788 205.187 233.343 205.349 228.899 205.51C227.383 205.571 225.929 205.571 224.414 205.692C220.898 205.995 217.383 206.42 213.868 206.601C210.413 206.723 206.898 206.541 203.444 206.48C201.686 206.48 201.14 207.147 201.262 208.783C201.322 209.753 201.201 210.783 201.14 211.753C201.14 214.965 201.14 218.177 201.14 221.267Z" fill="#100F12"/>
<path d="M291.748 288.174C289.93 288.295 288.475 288.355 286.96 288.416C282.293 288.658 277.627 288.901 272.96 289.143C268.051 289.325 263.142 289.628 258.172 289.689C251.505 289.689 244.838 289.264 238.171 289.507C232.414 289.749 226.717 289.325 220.959 289.204C217.686 289.083 214.413 289.325 211.141 289.386C209.262 289.386 207.322 289.386 205.443 289.386C205.403 289.264 205.383 289.123 205.383 288.961C212.838 284.598 220.535 280.416 227.807 275.75C235.02 271.023 241.808 265.75 248.899 260.72C253.929 261.69 290.112 285.992 291.748 288.174Z" fill="white"/>
<path d="M295.203 233.206C295.385 236.418 295.627 239.327 295.688 242.176C295.93 247.69 296.112 253.205 296.173 258.72C296.294 264.599 296.233 270.417 296.355 276.235C296.415 279.083 296.839 281.931 297.082 284.78C297.142 285.022 297.264 285.325 297.203 285.568C296.961 286.295 296.597 287.083 296.355 287.81C295.688 287.386 294.961 286.961 294.354 286.477C291.688 284.295 289.142 282.113 286.415 280.053C284.172 278.356 281.748 276.901 279.384 275.326C276.294 273.386 273.142 271.447 270.051 269.447C268.415 268.417 266.899 267.084 265.263 266.053C263.202 264.659 261.02 263.387 258.899 262.114C258.111 261.629 257.263 261.084 256.414 260.66C255.566 260.235 254.657 259.932 253.748 259.569C253.323 259.326 253.02 259.084 252.717 258.902C257.445 255.933 262.051 253.024 266.596 250.175C271.687 246.963 277.021 243.994 281.809 240.539C285.809 237.63 290.476 235.812 295.203 233.206Z" fill="white"/>
<path d="M245.869 258.781C238.778 263.872 231.747 268.72 224.959 273.871C218.171 279.022 209.807 282.053 202.716 287.204C202.716 269.083 202.716 251.145 202.716 233.146C203.686 233.812 204.656 234.358 205.565 235.024C207.686 236.54 209.686 238.236 211.929 239.63C215.504 241.873 219.08 244.054 222.777 246.054C226.777 248.297 231.02 250.175 235.02 252.418C238.172 254.114 241.141 256.114 244.172 257.993C244.596 258.236 245.081 258.417 245.869 258.781Z" fill="white"/>
<path d="M290.294 231.812C289.809 232.115 289.445 232.358 289.081 232.6C285.687 234.6 282.293 236.539 278.899 238.539C275.808 240.357 272.778 242.175 269.748 244.115C267.748 245.448 265.929 247.084 263.929 248.357C261.141 250.175 258.232 251.811 255.384 253.448C253.687 254.357 251.99 255.326 250.172 256.114C249.565 256.357 248.414 256.296 247.808 255.932C242.111 252.781 236.535 249.508 230.777 246.357C227.08 244.297 223.201 242.539 219.504 240.539C216.959 239.085 214.534 237.448 212.05 235.933C210.656 235.085 209.201 234.236 207.383 233.206C210.05 232.782 212.353 232.297 214.656 232.055C217.504 231.812 220.353 231.812 223.201 231.752C224.898 231.691 226.595 231.752 228.232 231.63C230.292 231.509 232.292 231.146 234.292 231.085C235.868 231.024 237.444 231.388 239.02 231.327C244.656 231.267 250.232 231.085 255.808 231.024C260.657 230.964 265.505 230.964 270.293 231.024C272.657 231.085 275.021 231.449 277.384 231.449C280.233 231.509 283.081 231.327 285.93 231.388C287.324 231.388 288.718 231.63 290.294 231.812Z" fill="white"/>
<path d="M330.779 268.296C330.779 273.508 330.779 278.719 330.779 283.992C330.779 285.265 331.082 286.537 331.022 287.81C331.022 288.174 330.234 288.719 329.81 288.78C326.234 289.204 322.658 289.204 319.203 289.87C316.294 290.416 313.627 289.264 310.779 289.446C310.536 289.507 309.87 288.598 309.87 288.052C309.668 283.447 309.526 278.82 309.445 274.174C309.324 268.962 309.264 263.75 309.264 258.478C309.264 247.63 309.385 236.782 309.385 225.934C309.324 218.965 309.142 212.056 308.961 205.086C308.9 203.874 309.324 203.329 310.779 203.39C315.143 203.45 319.506 203.39 323.87 203.511C325.809 203.511 327.809 203.814 329.688 204.177C330.113 204.238 330.658 205.147 330.658 205.632C330.597 208.056 330.355 210.48 330.234 212.844C330.113 214.541 330.032 216.258 329.991 217.995C329.951 220.055 329.951 222.116 329.991 224.176C329.991 228.661 329.87 233.206 330.052 237.691C330.294 243.63 330.9 249.509 331.143 255.387C331.325 259.69 331.143 263.993 331.143 268.296C331.022 268.296 330.9 268.296 330.779 268.296Z" fill="white"/>
<path fill-rule="evenodd" clip-rule="evenodd" d="M201.141 221.267C201.141 218.177 201.141 214.965 201.141 211.753C201.201 210.783 201.322 209.753 201.262 208.783C201.141 207.147 201.686 206.48 203.444 206.48C206.898 206.541 210.414 206.723 213.868 206.601C217.383 206.42 220.899 205.995 224.414 205.692C225.929 205.571 227.384 205.571 228.899 205.511C233.343 205.349 237.788 205.187 242.232 205.026C244.96 204.905 247.687 204.844 250.414 204.662C255.263 204.48 260.051 204.117 264.899 203.935C268.96 203.814 273.021 203.935 277.082 203.874C280.96 203.814 284.779 203.692 288.658 203.753C291.142 203.753 293.627 204.056 296.052 204.48C296.476 204.602 296.779 205.935 296.839 206.783C296.9 208.238 296.779 209.692 296.658 211.147C296.536 213.813 296.355 216.48 296.233 219.146C296.173 220.055 295.688 220.48 294.658 220.419C288.597 220.338 282.536 220.257 276.475 220.177C270.778 220.116 265.021 219.934 259.263 220.055C252.051 220.237 244.838 220.783 237.566 221.086C234.172 221.207 230.778 221.207 227.384 221.267C221.626 221.267 215.868 221.267 210.111 221.267C207.141 221.267 204.232 221.267 201.141 221.267ZM238.414 217.207C238.414 217.126 238.414 217.066 238.414 217.025C239.869 217.025 241.323 217.086 242.717 216.965C243.808 216.904 244.535 216.177 244.172 215.207C243.99 214.783 243.081 214.359 242.535 214.359C240.293 214.237 237.99 214.419 235.747 214.359C231.99 214.237 228.232 213.813 224.474 213.995C219.686 214.237 214.898 214.843 210.171 215.328C209.686 215.389 208.898 216.056 208.959 216.177C209.262 216.722 209.747 217.571 210.232 217.571C212.171 217.752 214.171 217.813 216.111 217.692C218.232 217.571 220.353 216.904 222.474 216.843C227.747 216.843 233.081 217.086 238.414 217.207ZM213.201 209.632C213.201 209.591 213.201 209.551 213.201 209.51C212.05 209.571 210.898 209.51 209.807 209.692C209.323 209.813 209.02 210.48 208.595 210.844C208.959 211.086 209.323 211.571 209.747 211.571C211.282 211.733 212.818 211.813 214.353 211.813C218.959 211.813 223.626 211.813 228.232 211.632C228.838 211.632 229.444 210.904 229.99 210.48C229.444 210.116 228.838 209.45 228.232 209.389C226.353 209.329 224.414 209.632 222.535 209.632C219.444 209.692 216.292 209.632 213.201 209.632Z" fill="white"/>
<path d="M238.414 217.207C233.081 217.086 227.747 216.843 222.474 216.843C220.353 216.904 218.232 217.571 216.111 217.692C214.171 217.813 212.171 217.753 210.232 217.571C209.747 217.571 209.262 216.722 208.959 216.177C208.898 216.056 209.686 215.389 210.171 215.328C214.898 214.844 219.686 214.238 224.474 213.995C228.232 213.813 231.99 214.238 235.747 214.359C237.99 214.419 240.293 214.238 242.535 214.359C243.081 214.359 243.99 214.783 244.172 215.207C244.535 216.177 243.808 216.904 242.717 216.965C241.323 217.086 239.869 217.025 238.414 217.025C238.414 217.066 238.414 217.126 238.414 217.207Z" fill="#100F12"/>
<path d="M213.201 209.632C216.292 209.632 219.444 209.692 222.535 209.632C224.414 209.632 226.353 209.329 228.232 209.389C228.838 209.45 229.444 210.116 229.99 210.48C229.444 210.904 228.838 211.631 228.232 211.631C223.626 211.813 218.959 211.813 214.353 211.813C212.818 211.813 211.282 211.732 209.747 211.571C209.322 211.571 208.959 211.086 208.595 210.844C209.019 210.48 209.323 209.813 209.807 209.692C210.898 209.51 212.05 209.571 213.201 209.51C213.201 209.551 213.201 209.591 213.201 209.632Z" fill="#100F12"/>
<path fill-rule="evenodd" clip-rule="evenodd" d="M117.684 151.028C117.624 154.119 117.624 157.149 117.503 160.179C117.321 167.149 117.139 174.118 117.139 181.088C117.139 205.632 114.836 229.691 112.896 254.175C112.472 259.629 112.108 265.023 111.199 270.417C110.836 272.417 110.654 278.416 108.654 280.053C106.472 281.75 100.835 280.901 98.2294 281.022C92.1687 281.265 86.2898 281.204 80.229 281.689C66.7136 282.901 53.0164 283.871 39.4404 284.356C33.2584 284.537 27.2583 285.022 21.0764 284.719C15.9247 284.416 9.62159 285.386 4.6518 283.931C4.22755 283.81 3.68209 283.386 3.56087 282.841C2.22751 273.811 2.59116 264.114 2.34873 254.963C1.92448 241.873 2.28812 228.661 2.28812 215.571C2.34873 191.208 2.77297 166.785 2.83358 142.362C2.83358 141.332 3.74269 140.847 4.53058 140.908C4.6518 140.908 4.77302 140.847 4.89423 140.847C35.4403 140.786 65.8651 136.726 96.4718 136.544C101.926 136.484 108.957 135.696 114.29 137.029C116.351 137.574 116.957 137.817 117.745 139.938C118.836 142.968 117.745 147.938 117.684 151.028ZM113.502 141.392C111.199 139.089 105.623 139.635 102.411 139.635C70.1682 139.211 38.107 143.756 5.92455 143.938C5.80334 180.906 4.34876 217.934 5.43969 254.963C5.62152 261.69 4.77302 269.932 6.10638 276.417C7.25791 281.81 10.4095 281.265 15.1369 281.386C18.7127 281.447 22.2279 281.81 25.8037 281.871C41.6828 282.295 57.9256 279.992 73.8047 279.022C81.5018 278.598 89.1383 278.174 96.8354 277.992C98.5324 277.932 105.078 278.295 106.29 277.568C107.927 276.417 107.927 271.386 108.23 269.629C110.775 254.418 111.624 238.479 112.715 223.086C113.745 208.601 114.048 194.178 114.048 179.694C114.048 170.664 114.412 161.634 114.593 152.604C114.654 149.271 115.866 143.756 113.502 141.392Z" fill="#100F12"/>
<path d="M65.0774 215.934C61.0773 213.874 56.3499 214.904 52.2286 213.086C49.3195 213.046 47.3397 211.45 46.2891 208.298C46.3699 206.238 46.7336 204.541 47.3801 203.208C47.6225 203.208 47.9255 203.086 48.1074 202.844C50.7741 200.359 53.0165 201.026 56.2287 201.208C57.6227 201.268 62.047 200.299 63.1986 201.208C63.8652 201.753 64.6531 201.693 65.2592 201.268C65.441 201.45 65.6835 201.571 65.9259 201.753C67.4411 203.026 69.6229 200.844 68.1077 199.571C65.5622 197.45 61.9258 196.359 58.1682 196.178C58.249 196.016 58.2894 195.814 58.2894 195.572V190.966C58.2894 188.966 55.1984 188.966 55.1984 190.966V195.572C55.1984 195.814 55.259 196.056 55.3802 196.238C47.2589 196.965 39.8648 202.177 43.7436 211.571C46.0467 217.146 54.4105 216.601 59.3803 217.571C65.3198 218.661 72.2896 223.934 70.8957 230.903C70.5926 232.176 70.1684 233.267 69.6229 234.176C69.3805 234.176 69.1583 234.257 68.9562 234.418C66.1077 236.6 61.8652 235.873 58.5924 235.873C56.956 235.812 55.259 235.933 53.6226 235.873C52.1074 235.812 51.0771 235.206 49.6225 234.843C48.774 234.6 48.2286 235.024 47.9255 235.63C47.8851 235.59 47.8447 235.55 47.8043 235.509C46.6528 233.933 43.9861 235.509 45.1376 237.085C47.3801 240.115 52.5923 241.024 57.3803 241.206C57.3803 241.772 57.3803 242.337 57.3803 242.903C57.3399 243.226 57.3399 243.549 57.3803 243.872C57.3803 244.357 57.3803 244.842 57.3803 245.327C57.3196 247.327 60.2894 247.327 60.4712 245.327C60.4712 244.66 60.8349 244.054 60.9561 243.388C61.1379 242.6 61.0167 241.933 60.7137 241.266C61.9864 241.206 63.0773 241.145 64.0471 241.085C69.926 240.721 73.7442 236.903 73.9866 230.903C74.2291 224.116 71.1987 219.146 65.0774 215.934Z" fill="#100F12"/>
<g style="mix-blend-mode:multiply">
<path d="M182.595 193.147L171.14 195.269C171.14 195.269 169.019 310.657 173.868 317.627C178.716 324.657 189.383 321.202 195.08 322.354C200.838 323.445 348.78 319.263 348.78 319.263L347.992 305.991L188.595 305.021L182.595 193.147Z" fill="#A7A0A3"/>
</g>
</g>
</g>
<defs>
<clipPath id="clip0_41_37375">
<rect width="500" height="372" fill="white"/>
</clipPath>
</defs>
</svg>
