<svg width="69" height="95" viewBox="0 0 69 95" fill="none" xmlns="http://www.w3.org/2000/svg">
<g clip-path="url(#clip0_26_34474)">
<path d="M5.19997 0.699951C7.69997 1.59995 8.99997 3.49995 10.5 5.29995C15.3 10.9 19.9 16.6 24.7 22.1C26.7 24.5 28.9 26.5999 31.1 28.7999C32.1 29.6999 32.9 30.6 33.2 31.9C33.7 34.1 35.4 35.3 36.9 36.5C39.5 36.1 41.9 35.4999 44.4 35.2999C50.8 34.5999 56.2 31.9 61.5 28.4C63.1 27.3333 64.7 26.2666 66.3 25.2C67.1 26.4 67.8 27.3 68.4 28.2C69.4 29.7 69.2 30.9 68 32.1C62.5 37.2 58 43 54.3 49.4C54 50 53.8 50.6 53.6 51.2C53 52.9 52.6 54.5 51.5 56C50.3 57.7 50.3 59.9999 50.6 62.0999C51.2 67.7999 54.2 72.5 57 77.3C59.1 80.9 61.2 84.6 63.3 88.3C64.2 90 64.6 91.7 63.7 93.7C60.7 90.7 57.7 87.8 54.8 84.8C51.9 81.8 49.2 78.6 46.2 75.7C44 73.5 41.6 71.6 39.3 69.5C38.7 68.9 37.9 68.4 37.4 67.7C36.3 66.2 35 65.4 33 66C31.9 66.3 30.7 66.3 29.5 66.3C25.4 66.3 21.9 68.1 18.3 69.6C13.2 71.8 8.19997 74.2 3.19997 76.5C1.49997 77.3 0.399972 76.7 0.299972 74.8C0.199972 73.5 0.699972 72.6 1.59997 71.8C4.29997 69.3 6.89997 66.7 9.59997 64.2C13.2 60.8 16 56.8999 18 52.2999C18.6 50.7999 19.8 49.4 20.3 47.9C22.3 42.7 21.8 37.4 20.5 32.2C20 30.3 19.4 28.3 18.7 26.4C17.9 23.8 16.9 21.2 16 18.5C14.8 14.9 12.4 12 10.4 8.89995C8.99997 6.49995 7.29997 4.29995 5.79997 1.99995C5.49997 1.59995 5.39997 1.09995 5.19997 0.699951Z" fill="#100F12"/>
</g>
<defs>
<clipPath id="clip0_26_34474">
<rect width="69" height="94" fill="white" transform="translate(0 0.5)"/>
</clipPath>
</defs>
</svg>
