<svg width="193" height="216" viewBox="0 0 193 216" fill="none" xmlns="http://www.w3.org/2000/svg">
<g clip-path="url(#clip0_26_34468)">
<path fill-rule="evenodd" clip-rule="evenodd" d="M55.3 109.9C54.2 109.7 53.3 109.6 52.6 109.3C47.1 106.4 41.7 103.4 36.2 100.7C29.4667 97.4333 22.4333 95.1333 15.1 93.8C10.3 92.9 5.49999 91.9 0.899992 91C-0.200008 89.5 1.69999 88.3 0.699992 87C1.99999 86.1 3.19999 86.3 4.49999 86.5C6.69999 87 8.99999 87.5 11.2 88C15 88.8 18.8 89 22.6 88.7C28.9 88.2 35.2 87.7 41.5 86.9C46.1 86.3 50.6 85.2 54.8 83C56.8 82 58.9 81.4 60.9 80.4C62.3 79.6 63.6 78.6 65 77.8C70.6 74.7 75.8 71.1 80.4 66.5C86 61 90.3 54.4999 95 48.2999C100.3 41.1999 102.7 32.9 104.7 24.5C106.3 17.5 108.3 10.6 109 3.39995C109.1 2.49995 109.5 1.69995 109.8 0.799951C110.333 0.799951 110.867 0.766618 111.4 0.699951C111.5 0.999951 111.7 1.29995 111.7 1.49995C111.5 4.09995 111.2 6.69995 111.2 9.29995C111.2 14.9 111.3 20.5 111.3 26.1C111.3 32.5 111.4 38.9 111.4 45.4C111.3 51.5 112.4 57.3 114.8 62.9C115.3 64.1 115.7 65.4 115.9 66.7C116.5 70.5 118.3 73.7 120.9 76.5C123.1 78.8 125 81.2 127.2 83.5C129.9 86.5 133.3 88.6 136.8 90.4C139.8 91.9333 142.7 93.5666 145.5 95.3C149.3 97.6 153.5 98.9 157.8 100C161.7 100.9 165.7 101.8 169.6 102.9C173.7 104 177.8 104.3 181.9 104.7C185.2 105.1 188.5 105.5 192.3 105.9C191.7 106.5 191.4 107 191.2 107C183.4 107.2 175.5 107.3 167.8 107.7C163.5 108 159.3 108.6 155.2 109.4C150.3 110.3 145.4 111.4 140.7 112.7C135.5 114.1 130.4 115.9 125.4 117.7C120.5 119.4 116.5 122.5 112.5 125.9C109.2 128.9 107.6 133 105 136.4C101.4 141 99.7 146.6 98.2 152.2C95.7 161.7 93.2 171.3 91.1 180.9C89 190.7 87.4 200.6 86.7 210.6C86.6 211.8 86.1 212.9 85.7 214.1C85.5 214.4 85 214.7 84.7 214.9C83.8 214.2 83 213.5 82.3 212.8C81.3 212 81.1 210.9 81.2 209.7C81.4 202.8 81.8 195.9 82 189C82.1 183.9 82.4 178.7 82.1 173.6C81.7 167.5 80.9 161.4 79.9 155.4C79.3 151.7 78 148 76.9 144.4C75.6 139.8 73.4 135.6 71.7 131.3C70.7 128.7 68.9 126.5 68.1 123.9C67.9 123.5 67.4 123.3 67.1 123C66.8 122.7 66.4 122.5 66.2 122.2C64.7 118.2 60.9 116.2 58.6 112.8C58.4 112.5 57.8 112.4 57.4 112.2C56.4 111.6 55.2 111.2 55.3 109.9ZM63.9 80.5C64.8 80.8 65.6 80.9 65.8 79.3C65 79.8 64.5 80.1 63.9 80.5Z" fill="#100F12"/>
</g>
<defs>
<clipPath id="clip0_26_34468">
<rect width="193" height="215" fill="white" transform="translate(0 0.5)"/>
</clipPath>
</defs>
</svg>
