<svg width="40" height="40" viewBox="0 0 40 40" fill="none" xmlns="http://www.w3.org/2000/svg">
<g clip-path="url(#clip0_96_14)">
<path d="M16.6998 9.00047C17.3545 8.30824 18.1436 7.75695 19.0188 7.38038C19.8941 7.00381 20.837 6.80988 21.7898 6.81047C23.0583 6.81785 24.302 7.16257 25.3933 7.80926C26.4846 8.45596 27.3842 9.38134 27.9998 10.4905C29.1016 10.0009 30.2941 9.74878 31.4998 9.75047C33.7627 9.82709 35.9073 10.7799 37.481 12.4078C39.0547 14.0357 39.9343 16.2113 39.9343 18.4755C39.9343 20.7397 39.0547 22.9153 37.481 24.5432C35.9073 26.1711 33.7627 27.1238 31.4998 27.2005C30.9179 27.1909 30.3385 27.1239 29.7698 27.0005C28.9842 28.4108 27.6879 29.4663 26.1477 29.95C24.6075 30.4336 22.9405 30.3085 21.4898 29.6005C20.925 30.9299 19.9745 32.0593 18.7611 32.8428C17.5476 33.6263 16.1271 34.0279 14.6831 33.9956C13.2391 33.9633 11.8379 33.4986 10.6607 32.6616C9.48358 31.8246 8.58452 30.6538 8.07977 29.3005C7.62553 29.3927 7.16327 29.4396 6.69977 29.4405C5.21521 29.4253 3.77669 28.9232 2.60507 28.0113C1.43346 27.0995 0.593527 25.8283 0.214245 24.3929C-0.165038 22.9576 -0.0627016 21.4374 0.50554 20.0658C1.07378 18.6942 2.07651 17.5471 3.35977 16.8005C2.80738 15.4991 2.61957 14.0718 2.81648 12.6718C3.01339 11.2718 3.58759 9.95178 4.47753 8.85323C5.36747 7.75467 6.5396 6.91902 7.86827 6.43585C9.19694 5.95267 10.6321 5.84019 12.0198 6.11047C13.8793 6.47269 15.5431 7.50012 16.6998 9.00047Z" fill="#179FDA"/>
<path fill-rule="evenodd" clip-rule="evenodd" d="M23.9098 15.8302L23.6898 15.7702H23.3498C23.1674 15.7588 22.9846 15.7849 22.8126 15.8468C22.6406 15.9087 22.4831 16.0051 22.3498 16.1302C22.0884 16.4232 21.9242 16.79 21.8798 17.1802V17.3402H21.3798C21.362 17.3411 21.345 17.3474 21.3307 17.358C21.3165 17.3687 21.3057 17.3834 21.2998 17.4002L21.2198 17.8702C21.2198 17.9202 21.2198 17.9502 21.2998 17.9502H21.8098L21.2898 20.8602C21.2572 21.0534 21.2104 21.2439 21.1498 21.4302C21.1129 21.5474 21.059 21.6586 20.9898 21.7602C20.9399 21.8379 20.8663 21.8975 20.7798 21.9302C20.6871 21.9448 20.5926 21.9448 20.4998 21.9302C20.4369 21.9403 20.3728 21.9403 20.3098 21.9302H20.1898C20.1772 21.9196 20.1613 21.9138 20.1448 21.9138C20.1284 21.9138 20.1124 21.9196 20.0998 21.9302L19.9198 22.4002C19.9092 22.4128 19.9034 22.4287 19.9034 22.4452C19.9034 22.4616 19.9092 22.4776 19.9198 22.4902L20.1298 22.5502C20.2398 22.5652 20.3498 22.5652 20.4598 22.5502C20.6608 22.5432 20.8598 22.5062 21.0498 22.4402C21.2137 22.3734 21.3606 22.2709 21.4798 22.1402C21.6102 21.9863 21.7119 21.8101 21.7798 21.6202C21.8698 21.3702 21.9398 21.1122 21.9898 20.8502L22.5098 17.8502H23.2798C23.2996 17.8533 23.3198 17.8488 23.3365 17.8377C23.3532 17.8266 23.3651 17.8096 23.3698 17.7902L23.4498 17.3302C23.4498 17.2802 23.4498 17.2502 23.3798 17.2502H22.6198C22.6396 17.0728 22.6799 16.8983 22.7398 16.7302C22.7714 16.6348 22.8264 16.5488 22.8998 16.4802C22.9535 16.4217 23.0229 16.38 23.0998 16.3602C23.1858 16.3451 23.2738 16.3451 23.3598 16.3602H23.7798L23.9998 16.0002C24.008 15.9884 24.0124 15.9745 24.0124 15.9602C24.0124 15.9459 24.008 15.9319 23.9998 15.9202L23.9098 15.8302ZM13.5298 20.8602C13.5271 20.8762 13.52 20.8911 13.5095 20.9034C13.4989 20.9158 13.4852 20.925 13.4698 20.9302H12.8398C12.823 20.9278 12.8077 20.9193 12.7967 20.9064C12.7856 20.8936 12.7796 20.8771 12.7798 20.8602V15.8602C12.7798 15.8602 12.7798 15.7902 12.8398 15.7902H13.4598C13.4768 15.79 13.4932 15.796 13.5061 15.807C13.519 15.8181 13.5274 15.8334 13.5298 15.8502V20.8602ZM5.80982 20.5102V20.5902C5.87982 20.6462 5.95782 20.6932 6.03982 20.7302C6.40752 20.9303 6.82133 21.0303 7.23982 21.0202C8.05982 21.0202 8.55982 20.5802 8.55982 19.8702C8.55982 19.2102 7.98982 18.9802 7.43982 18.8202H7.36982L7.31982 18.8022C6.93982 18.6702 6.61982 18.5582 6.61982 18.3002C6.63485 18.1835 6.69402 18.077 6.78516 18.0026C6.8763 17.9282 6.99249 17.8915 7.10982 17.9002C7.45904 17.915 7.80061 18.0072 8.10982 18.1702C8.12462 18.1801 8.14202 18.1853 8.15982 18.1853C8.17762 18.1853 8.19502 18.1801 8.20982 18.1702L8.37982 17.7002C8.39389 17.6853 8.40173 17.6656 8.40173 17.6452C8.40173 17.6247 8.39389 17.605 8.37982 17.5902C8.02297 17.3769 7.61555 17.2629 7.19982 17.2602H7.18982C6.88803 17.2261 6.58491 17.3118 6.34558 17.4987C6.10625 17.6857 5.9498 17.9591 5.90982 18.2602C5.91423 18.2934 5.91423 18.327 5.90982 18.3602C5.90982 19.0402 6.49982 19.2702 7.03982 19.4202L7.13982 19.4802L7.15882 19.4862C7.54082 19.6032 7.86982 19.7052 7.86982 19.9802C7.86207 20.111 7.80323 20.2336 7.70597 20.3215C7.60871 20.4095 7.48081 20.4556 7.34982 20.4502H7.27982C6.90359 20.4541 6.53467 20.3462 6.21982 20.1402L6.09982 20.0002C6.09007 19.9901 6.07751 19.9832 6.06378 19.9803C6.05005 19.9775 6.03578 19.9788 6.02282 19.9842C6.01415 19.9879 6.00633 19.9933 5.99982 20.0002L5.80982 20.5102ZM17.8598 20.5102C17.85 20.5212 17.8445 20.5354 17.8445 20.5502C17.8445 20.5649 17.85 20.5792 17.8598 20.5902C17.9318 20.6442 18.0098 20.6902 18.0898 20.7302C18.463 20.9233 18.8799 21.0163 19.2998 21.0002C20.1198 21.0002 20.6198 20.5602 20.6198 19.8502C20.6198 19.1902 20.0398 18.9602 19.4998 18.8002H19.4298L19.3898 18.7862C18.9968 18.6522 18.6698 18.5412 18.6698 18.2802C18.6825 18.1564 18.7428 18.0423 18.8379 17.9621C18.9331 17.8819 19.0557 17.8417 19.1798 17.8502C19.5289 17.8574 19.8714 17.9464 20.1798 18.1102C20.1931 18.1235 20.211 18.1311 20.2298 18.1312C20.2391 18.1312 20.2484 18.1293 20.2569 18.1257C20.2655 18.1221 20.2733 18.1168 20.2798 18.1102L20.4498 17.6402C20.4577 17.6265 20.4619 17.611 20.4619 17.5952C20.4619 17.5794 20.4577 17.5639 20.4498 17.5502C20.0924 17.3382 19.6853 17.2244 19.2698 17.2202H19.1898C18.8891 17.1863 18.5872 17.2722 18.3495 17.4594C18.1118 17.6466 17.9574 17.9199 17.9198 18.2202C17.9148 18.2533 17.9148 18.287 17.9198 18.3202C17.9198 19.0102 18.4998 19.2302 19.0398 19.3802H19.1298L19.1598 19.3902C19.5378 19.5052 19.8698 19.6072 19.8698 19.8802C19.8672 19.9453 19.8517 20.0093 19.824 20.0684C19.7964 20.1275 19.7572 20.1804 19.7088 20.2242C19.6604 20.268 19.6037 20.3018 19.5421 20.3234C19.4804 20.3451 19.415 20.3542 19.3498 20.3502H19.2998C18.9424 20.3345 18.5964 20.2203 18.2998 20.0202L18.1698 19.9202C18.1633 19.9135 18.1555 19.9082 18.1469 19.9046C18.1384 19.901 18.1291 19.8992 18.1198 19.8992C18.1105 19.8992 18.1013 19.901 18.0927 19.9046C18.0841 19.9082 18.0763 19.9135 18.0698 19.9202L17.8598 20.5102ZM26.0898 19.1302C26.1077 19.4581 26.0314 19.7843 25.8698 20.0702C25.7969 20.1767 25.698 20.2629 25.5826 20.3206C25.4671 20.3784 25.3388 20.4058 25.2098 20.4002C25.0789 20.4095 24.9479 20.3839 24.8301 20.3259C24.7124 20.2679 24.6122 20.1796 24.5398 20.0702C24.3811 19.7835 24.3083 19.4572 24.3298 19.1302C24.3082 18.8032 24.3811 18.4769 24.5398 18.1902C24.6122 18.0807 24.7124 17.9924 24.8301 17.9344C24.9479 17.8765 25.0789 17.8508 25.2098 17.8602C25.3388 17.8546 25.4671 17.882 25.5826 17.9397C25.698 17.9974 25.7969 18.0836 25.8698 18.1902C26.0318 18.4762 26.1078 18.8022 26.0898 19.1302ZM26.7798 18.3902C26.7176 18.1694 26.6085 17.9648 26.4598 17.7902C26.3193 17.6189 26.1414 17.482 25.9398 17.3902C25.7057 17.2912 25.454 17.2401 25.1998 17.2401C24.9456 17.2401 24.694 17.2912 24.4598 17.3902C24.2568 17.4845 24.0762 17.6208 23.9298 17.7902C23.7878 17.9677 23.6824 18.1716 23.6198 18.3902C23.4899 18.8716 23.4899 19.3788 23.6198 19.8602C23.6767 20.0788 23.7816 20.282 23.9269 20.455C24.0723 20.628 24.2543 20.7664 24.4598 20.8602C24.935 21.0494 25.4646 21.0494 25.9398 20.8602C26.1414 20.7683 26.3193 20.6315 26.4598 20.4602C26.6038 20.284 26.7094 20.0796 26.7698 19.8602C26.91 19.3802 26.91 18.8701 26.7698 18.3902H26.7798ZM32.4098 20.2802C32.3981 20.272 32.3841 20.2676 32.3698 20.2676C32.3555 20.2676 32.3416 20.272 32.3298 20.2802C32.2226 20.3195 32.1122 20.3497 31.9998 20.3702H31.6198C31.475 20.3821 31.3293 20.3624 31.1928 20.3123C31.0564 20.2622 30.9325 20.183 30.8298 20.0802C30.6175 19.8149 30.5138 19.4789 30.5398 19.1402C30.5189 18.819 30.6109 18.5007 30.7998 18.2402C30.8898 18.1265 31.0058 18.0362 31.1381 17.977C31.2705 17.9178 31.4151 17.8914 31.5598 17.9002C31.8075 17.8967 32.0541 17.9339 32.2898 18.0102C32.3 18.0175 32.3123 18.0214 32.3248 18.0214C32.3374 18.0214 32.3496 18.0175 32.3598 18.0102L32.3828 17.9502C32.4328 17.8162 32.4778 17.6972 32.5298 17.5402C32.538 17.5284 32.5424 17.5145 32.5424 17.5002C32.5424 17.4859 32.538 17.4719 32.5298 17.4602C32.3592 17.3885 32.1816 17.3349 31.9998 17.3002C31.8268 17.2851 31.6528 17.2851 31.4798 17.3002C31.2193 17.2912 30.96 17.339 30.7198 17.4402C30.5072 17.5374 30.3167 17.6769 30.1598 17.8502C30.0097 18.0216 29.8973 18.2226 29.8298 18.4402C29.7583 18.6804 29.7213 18.9295 29.7198 19.1802C29.6998 19.6795 29.8675 20.1683 30.1898 20.5502C30.364 20.7285 30.5751 20.8666 30.8083 20.9547C31.0416 21.0428 31.2912 21.0788 31.5398 21.0602C31.8805 21.0621 32.2189 21.0045 32.5398 20.8902C32.548 20.8784 32.5524 20.8645 32.5524 20.8502C32.5524 20.8359 32.548 20.8219 32.5398 20.8102L32.4098 20.2802ZM33.6198 18.7502C33.6374 18.5541 33.7026 18.3653 33.8098 18.2002C33.8804 18.0913 33.9788 18.0033 34.0948 17.9452C34.2109 17.8872 34.3404 17.8614 34.4698 17.8702C34.5997 17.8583 34.7302 17.8828 34.8468 17.9411C34.9634 17.9994 35.0615 18.0892 35.1298 18.2002C35.2278 18.3672 35.2828 18.5562 35.2898 18.7502H33.6198ZM35.9998 18.2802C35.9422 18.0797 35.8396 17.895 35.6998 17.7402C35.5785 17.5973 35.4286 17.4815 35.2598 17.4002C35.0476 17.312 34.8196 17.2678 34.5898 17.2702C34.3282 17.2599 34.0679 17.3113 33.8298 17.4202C33.6222 17.5115 33.4377 17.6482 33.2898 17.8202C33.1439 17.9989 33.0382 18.207 32.9798 18.4302C32.9083 18.6704 32.8713 18.9195 32.8698 19.1702C32.8718 19.4242 32.9098 19.6762 32.9798 19.9202C33.0441 20.1504 33.1632 20.3616 33.3269 20.5357C33.4906 20.7099 33.694 20.8418 33.9198 20.9202C34.1878 21.0212 34.4738 21.0692 34.7598 21.0602C35.164 21.0823 35.567 20.9996 35.9298 20.8202V20.7102L35.7798 20.2902C35.7751 20.2734 35.7643 20.2589 35.7495 20.2497C35.7347 20.2404 35.717 20.237 35.6998 20.2402C35.4074 20.3695 35.0894 20.4311 34.7698 20.4202C34.5254 20.4456 34.2802 20.3801 34.081 20.2362C33.8818 20.0923 33.7426 19.8802 33.6898 19.6402C33.6797 19.5438 33.6797 19.4466 33.6898 19.3502H35.9998C36.0168 19.3503 36.0332 19.3444 36.0461 19.3333C36.059 19.3223 36.0674 19.307 36.0698 19.2902C36.1131 18.9555 36.0893 18.6156 35.9998 18.2902V18.2802ZM14.9998 18.7502C15.0188 18.5562 15.0798 18.3682 15.1798 18.2002C15.2522 18.0907 15.3524 18.0024 15.4701 17.9444C15.5879 17.8865 15.7189 17.8608 15.8498 17.8702C15.9795 17.8594 16.1097 17.8845 16.2261 17.9427C16.3425 18.0009 16.4406 18.09 16.5098 18.2002C16.6078 18.3672 16.6628 18.5562 16.6698 18.7502H14.9998ZM17.3398 18.2802C17.2783 18.0813 17.1762 17.8974 17.0398 17.7402C16.9144 17.6017 16.7654 17.4866 16.5998 17.4002C16.3888 17.3057 16.161 17.2546 15.9298 17.2502C15.6682 17.2399 15.4079 17.2913 15.1698 17.4002C14.9583 17.4894 14.7726 17.6304 14.6298 17.8102C14.4828 17.9862 14.3738 18.1902 14.3098 18.4102C14.2416 18.6508 14.2079 18.9 14.2098 19.1502C14.2063 19.4044 14.2434 19.6576 14.3198 19.9002C14.3831 20.1293 14.5007 20.3398 14.6626 20.5138C14.8245 20.6879 15.0259 20.8204 15.2498 20.9002C15.5216 21.0007 15.8101 21.0482 16.0998 21.0402C16.5027 21.0598 16.9043 20.9808 17.2698 20.8102V20.6902L17.0898 20.2502C17.0852 20.244 17.0791 20.2389 17.0722 20.2355C17.0652 20.232 17.0576 20.2302 17.0498 20.2302C17.0421 20.2302 17.0344 20.232 17.0275 20.2355C17.0205 20.2389 17.0145 20.244 17.0098 20.2502C16.7115 20.3709 16.3915 20.4287 16.0698 20.4202C15.9448 20.4382 15.8173 20.4309 15.6952 20.3986C15.573 20.3663 15.4586 20.3097 15.3588 20.2322C15.2589 20.1548 15.1756 20.0581 15.1139 19.9477C15.0522 19.8374 15.0134 19.7158 14.9998 19.5902C14.9848 19.5008 14.9848 19.4095 14.9998 19.3202H17.3398C17.3557 19.3202 17.371 19.3139 17.3822 19.3026C17.3935 19.2913 17.3998 19.2761 17.3998 19.2602C17.4465 18.9256 17.4227 18.585 17.3298 18.2602L17.3398 18.2802ZM9.99982 20.2702C9.94597 20.2313 9.8987 20.184 9.85982 20.1302C9.81315 20.0371 9.78916 19.9343 9.78982 19.8302C9.77892 19.7402 9.7927 19.6489 9.82969 19.5661C9.86668 19.4833 9.92549 19.4121 9.99982 19.3602C10.1978 19.2302 10.4338 19.1702 10.6698 19.1902C10.8796 19.1753 11.0901 19.1753 11.2998 19.1902V20.3002C11.092 20.3416 10.8814 20.3683 10.6698 20.3802C10.4349 20.4192 10.1938 20.3731 9.98982 20.2502L9.99982 20.2702ZM10.9198 18.6102H10.5598C10.3671 18.6115 10.1754 18.6384 9.98982 18.6902C9.82197 18.7368 9.66311 18.8111 9.51982 18.9102C9.36992 19.0158 9.24854 19.157 9.16652 19.321C9.08451 19.4851 9.04441 19.6669 9.04982 19.8502C9.04668 20.0328 9.08425 20.2139 9.15982 20.3802C9.2299 20.5222 9.33272 20.6456 9.45982 20.7402C9.58829 20.8545 9.73771 20.9428 9.89982 21.0002C10.1038 21.0402 10.3118 21.0602 10.5198 21.0602C10.7545 21.0608 10.9887 21.0407 11.2198 21.0002L11.8098 20.8902H11.9698C11.9866 20.8843 12.0013 20.8735 12.012 20.8593C12.0226 20.845 12.0289 20.8279 12.0298 20.8102V18.5802C12.0392 18.3971 12.0113 18.214 11.9476 18.0421C11.884 17.8702 11.7861 17.713 11.6598 17.5802C11.3521 17.3496 10.9739 17.2329 10.5898 17.2502C10.3817 17.2498 10.174 17.2699 9.96982 17.3102C9.71532 17.3497 9.47084 17.438 9.24982 17.5702C9.23924 17.5828 9.23344 17.5987 9.23344 17.6152C9.23344 17.6316 9.23924 17.6476 9.24982 17.6602L9.40982 18.1002C9.42156 18.1083 9.43552 18.1127 9.44982 18.1127C9.46412 18.1127 9.47808 18.1083 9.48982 18.1002C9.80246 17.9517 10.1437 17.8732 10.4898 17.8702C10.6917 17.8497 10.8942 17.903 11.0598 18.0202C11.1301 18.0912 11.1808 18.1791 11.2071 18.2755C11.2333 18.3718 11.2343 18.4733 11.2098 18.5702V18.6702L10.8298 18.6202L10.9198 18.6102ZM29.6498 17.4402C29.6604 17.4276 29.6662 17.4116 29.6662 17.3952C29.6662 17.3787 29.6604 17.3628 29.6498 17.3502C29.5225 17.3156 29.3917 17.2955 29.2598 17.2902C29.0553 17.2633 28.8474 17.2945 28.6598 17.3802C28.5075 17.4475 28.3712 17.5463 28.2598 17.6702V17.3902C28.2598 17.3902 28.2598 17.3302 28.1998 17.3202H27.5898C27.573 17.3226 27.5577 17.331 27.5467 17.3439C27.5356 17.3568 27.5296 17.3732 27.5298 17.3902V20.8602C27.5319 20.878 27.54 20.8946 27.5527 20.9073C27.5654 20.92 27.582 20.9281 27.5998 20.9302H28.2098C28.2277 20.9281 28.2443 20.92 28.2569 20.9073C28.2696 20.8946 28.2777 20.878 28.2798 20.8602V19.1202C28.2726 18.9178 28.2962 18.7155 28.3498 18.5202C28.3905 18.3934 28.4588 18.2773 28.5498 18.1802C28.6302 18.0994 28.7301 18.0408 28.8398 18.0102C28.946 17.9955 29.0537 17.9955 29.1598 18.0102C29.2429 18.0004 29.3268 18.0004 29.4098 18.0102C29.429 18.0099 29.4477 18.004 29.4636 17.9934C29.4796 17.9828 29.4922 17.9678 29.4998 17.9502L29.6798 17.4802L29.6498 17.4402ZM10.5318 25.0882C10.4788 25.0472 10.4352 24.9954 10.4038 24.9362C10.5631 24.921 10.7157 24.8649 10.8468 24.7732C10.97 24.6843 11.0668 24.5637 11.1268 24.4242C11.1947 24.2699 11.2285 24.1027 11.2258 23.9342C11.2258 23.7352 11.1878 23.5592 11.1108 23.4072C11.0382 23.2585 10.9225 23.1352 10.7788 23.0532C10.6202 22.9644 10.4405 22.9202 10.2588 22.9252C10.0588 22.9252 9.88482 22.9682 9.73982 23.0532C9.59609 23.1351 9.48039 23.2585 9.40782 23.4072C9.32898 23.5718 9.28993 23.7527 9.29382 23.9352C9.29382 24.1222 9.32682 24.2882 9.39382 24.4352C9.45805 24.5768 9.5597 24.6981 9.68782 24.7862C9.81782 24.8732 9.97382 24.9242 10.1538 24.9392C10.1946 25.037 10.2544 25.1257 10.3298 25.2002C10.4008 25.2672 10.4958 25.3172 10.6158 25.3502C10.7358 25.3842 10.8908 25.4012 11.0808 25.4012V25.2032C10.9378 25.2032 10.8228 25.1932 10.7358 25.1732C10.6623 25.1606 10.5925 25.1315 10.5318 25.0882ZM9.72382 24.5172C9.59982 24.3722 9.53882 24.1772 9.53882 23.9352C9.53882 23.6922 9.59982 23.4972 9.72382 23.3522C9.84682 23.2072 10.0258 23.1352 10.2598 23.1352C10.4938 23.1352 10.6718 23.2072 10.7928 23.3522C10.9158 23.4972 10.9778 23.6922 10.9778 23.9352C10.9778 24.1782 10.9158 24.3722 10.7928 24.5172C10.6718 24.6622 10.4928 24.7352 10.2598 24.7352C10.0258 24.7352 9.84682 24.6622 9.72382 24.5172ZM9.09382 23.5972C9.09776 23.721 9.06469 23.8432 8.99882 23.9482C8.93642 24.0415 8.84864 24.1151 8.74582 24.1602C8.64063 24.2079 8.52632 24.2321 8.41082 24.2312H7.99682V24.8982H7.75482V22.9702H8.40482C8.60682 22.9702 8.77182 23.0212 8.90082 23.1232C9.02982 23.2242 9.09382 23.3842 9.09382 23.5972ZM7.99382 23.1652V24.0352H8.38882C8.50678 24.0392 8.6221 23.9997 8.71282 23.9242C8.80182 23.8492 8.84582 23.7412 8.84582 23.6002C8.84582 23.4482 8.80182 23.3372 8.71282 23.2682C8.61801 23.1968 8.50141 23.1604 8.38282 23.1652H7.99382ZM7.27682 23.3152L7.41782 23.1592C7.33421 23.0818 7.23547 23.0225 7.12782 22.9852C7.01157 22.9426 6.88862 22.9213 6.76482 22.9222C6.58307 22.9168 6.40329 22.961 6.24482 23.0502C6.10288 23.1325 5.98922 23.2559 5.91882 23.4042C5.84337 23.5698 5.80612 23.7502 5.80982 23.9322C5.80982 24.1322 5.84582 24.3072 5.91882 24.4602C5.98943 24.6081 6.10214 24.732 6.24282 24.8162C6.40028 24.9051 6.57905 24.9494 6.75982 24.9442C6.89982 24.9442 7.02782 24.9212 7.14582 24.8742C7.25988 24.8286 7.36361 24.7606 7.45082 24.6742L7.30382 24.5142C7.23365 24.5819 7.15162 24.6361 7.06182 24.6742C6.96861 24.7127 6.86869 24.7324 6.76782 24.7322C6.53582 24.7322 6.35982 24.6592 6.23982 24.5122C6.11982 24.3652 6.05982 24.1722 6.05982 23.9322C6.05982 23.6912 6.11982 23.4972 6.23982 23.3502C6.35982 23.2032 6.53782 23.1302 6.77282 23.1302C6.86567 23.1293 6.95788 23.1456 7.04482 23.1782C7.13033 23.2078 7.20916 23.2541 7.27682 23.3142V23.3152Z" fill="white"/>
</g>
<defs>
<clipPath id="clip0_96_14">
<rect width="40" height="40" fill="white"/>
</clipPath>
</defs>
</svg>
