<svg width="41" height="48" viewBox="0 0 41 48" fill="none" xmlns="http://www.w3.org/2000/svg">
<path fill-rule="evenodd" clip-rule="evenodd" d="M40.5 24C40.5 35.0457 31.5457 44 20.5 44C10.692 44 2.53295 36.94 0.827625 27.6246C0.822485 27.5966 0.817401 27.5685 0.812378 27.5403C0.607119 26.3912 0.5 25.2081 0.5 24C0.5 23.0355 0.568279 22.0869 0.700267 21.1588C1.94779 12.3868 8.88683 5.44779 17.6588 4.20027C17.6735 4.19817 17.6882 4.1961 17.703 4.19403C18.617 4.06613 19.5508 4 20.5 4C21.7377 4 22.9491 4.11243 24.1246 4.32763C33.44 6.03295 40.5 14.192 40.5 24ZM35.5 24C35.5 32.2843 28.7843 39 20.5 39C14.2572 39 8.90507 35.1863 6.6464 29.7615C7.57421 29.9184 8.52757 30 9.5 30C18.8888 30 26.5 22.3888 26.5 13C26.5 12.0276 26.4184 11.0742 26.2615 10.1464C31.6863 12.4051 35.5 17.7572 35.5 24ZM20.8183 9.00331C21.2598 10.2535 21.5 11.5987 21.5 13C21.5 19.6274 16.1274 25 9.5 25C8.0987 25 6.75349 24.7598 5.50331 24.3183C5.50111 24.2125 5.5 24.1064 5.5 24C5.5 15.7157 12.2157 9 20.5 9C20.6064 9 20.7125 9.00111 20.8183 9.00331Z" fill="#121212"/>
</svg>
