<svg width="20" height="21" viewBox="0 0 20 21" fill="none" xmlns="http://www.w3.org/2000/svg">
<path d="M17.9146 8.64772L11.8309 1.91017C10.9004 0.879667 9.28961 0.85915 8.33317 1.86562L2.54401 7.95753C2.12292 8.40064 1.88812 8.98857 1.88812 9.59986V17.6061C1.88812 18.9266 2.96146 19.9956 4.28196 19.9902L18.1133 19.9338" stroke="#093161" stroke-width="1.3245" stroke-linecap="round" stroke-linejoin="round"/>
<path d="M3.21262 4.23915C3.21262 4.0197 3.39052 3.8418 3.60997 3.8418H4.53712C4.75657 3.8418 4.93447 4.0197 4.93447 4.23915V5.961C4.93447 6.18045 4.75657 6.35835 4.53712 6.35835H3.21262V4.23915Z" fill="#093161"/>
<rect x="7.63794" y="7.94727" width="3.11946" height="9.23621" rx="1.55973" transform="rotate(24.0244 7.63794 7.94727)" fill="#60D1AE"/>
<rect width="3.11946" height="9.23621" rx="1.55973" transform="matrix(-0.913372 0.407126 0.407126 0.913372 13.228 7.94727)" fill="#E25527"/>
<rect x="11.6879" y="7.94727" width="3.11946" height="9.23621" rx="1.55973" transform="rotate(24.0244 11.6879 7.94727)" fill="#FFC23F"/>
</svg>
