<svg width="40" height="40" viewBox="0 0 40 40" fill="none" xmlns="http://www.w3.org/2000/svg">
<g filter="url(#filter0_dd_1083_50505)">
<mask id="mask0_1083_50505" style="mask-type:luminance" maskUnits="userSpaceOnUse" x="4" y="3" width="32" height="32">
<path d="M28 3H12C7.58172 3 4 6.58172 4 11V27C4 31.4183 7.58172 35 12 35H28C32.4183 35 36 31.4183 36 27V11C36 6.58172 32.4183 3 28 3Z" fill="white"/>
</mask>
<g mask="url(#mask0_1083_50505)">
<path d="M28 3H12C7.58172 3 4 6.58172 4 11V27C4 31.4183 7.58172 35 12 35H28C32.4183 35 36 31.4183 36 27V11C36 6.58172 32.4183 3 28 3Z" fill="#178D72"/>
<path d="M4 3H36V35H4V3Z" fill="url(#paint0_linear_1083_50505)"/>
<path d="M17.625 9.5C17.625 13.435 14.435 16.625 10.5 16.625V21.375H17.625V28.5H22.375C22.375 24.565 25.565 21.375 29.5 21.375V16.625H22.375V9.5H17.625Z" fill="url(#paint1_linear_1083_50505)"/>
</g>
<path d="M28 3.66663H12C7.94991 3.66663 4.66666 6.94987 4.66666 11V27C4.66666 31.05 7.94991 34.3333 12 34.3333H28C32.0501 34.3333 35.3333 31.05 35.3333 27V11C35.3333 6.94987 32.0501 3.66663 28 3.66663Z" stroke="url(#paint2_linear_1083_50505)" stroke-width="2"/>
</g>
<defs>
<filter id="filter0_dd_1083_50505" x="0.666664" y="0.666626" width="38.6667" height="38.6667" filterUnits="userSpaceOnUse" color-interpolation-filters="sRGB">
<feFlood flood-opacity="0" result="BackgroundImageFix"/>
<feColorMatrix in="SourceAlpha" type="matrix" values="0 0 0 0 0 0 0 0 0 0 0 0 0 0 0 0 0 0 127 0" result="hardAlpha"/>
<feOffset dy="1"/>
<feGaussianBlur stdDeviation="1"/>
<feColorMatrix type="matrix" values="0 0 0 0 0.0627451 0 0 0 0 0.0941176 0 0 0 0 0.156863 0 0 0 0.06 0"/>
<feBlend mode="normal" in2="BackgroundImageFix" result="effect1_dropShadow_1083_50505"/>
<feColorMatrix in="SourceAlpha" type="matrix" values="0 0 0 0 0 0 0 0 0 0 0 0 0 0 0 0 0 0 127 0" result="hardAlpha"/>
<feOffset dy="1"/>
<feGaussianBlur stdDeviation="1.5"/>
<feColorMatrix type="matrix" values="0 0 0 0 0.0627451 0 0 0 0 0.0941176 0 0 0 0 0.156863 0 0 0 0.1 0"/>
<feBlend mode="normal" in2="effect1_dropShadow_1083_50505" result="effect2_dropShadow_1083_50505"/>
<feBlend mode="normal" in="SourceGraphic" in2="effect2_dropShadow_1083_50505" result="shape"/>
</filter>
<linearGradient id="paint0_linear_1083_50505" x1="20" y1="3" x2="21.3333" y2="35" gradientUnits="userSpaceOnUse">
<stop stop-color="white" stop-opacity="0"/>
<stop offset="1" stop-color="white" stop-opacity="0.12"/>
</linearGradient>
<linearGradient id="paint1_linear_1083_50505" x1="20" y1="9.5" x2="20" y2="28.5" gradientUnits="userSpaceOnUse">
<stop stop-color="white" stop-opacity="0.8"/>
<stop offset="1" stop-color="white" stop-opacity="0.5"/>
</linearGradient>
<linearGradient id="paint2_linear_1083_50505" x1="20" y1="2.99996" x2="20" y2="35" gradientUnits="userSpaceOnUse">
<stop stop-color="white" stop-opacity="0.12"/>
<stop offset="1" stop-color="white" stop-opacity="0"/>
</linearGradient>
</defs>
</svg>
