<svg width="148" height="39" viewBox="0 0 148 39" fill="none" xmlns="http://www.w3.org/2000/svg">
<path d="M18.7895 20.7105V20.2105H18.2895H5.28947V19.2688C11.6688 17.6893 16.6893 12.6688 18.2688 6.28947H19.2105V19.2895V19.7895H19.7105H32.7105V20.7312C26.3312 22.3107 21.3107 27.3312 19.7312 33.7105H18.7895V20.7105ZM1 15H0.5V15.5V24.5V25H1H14V38V38.5H14.5H23.5H24V38C24 30.8204 29.8204 25 37 25H37.5V24.5V15.5V15H37H24V2V1.5H23.5H14.5H14V2C14 9.17965 8.17965 15 1 15Z" fill="#93E85F" stroke="#93E85F"/>
<path d="M50.616 8.96C52.472 8.96 53.816 9.00267 54.648 9.088C55.48 9.152 56.0773 9.312 56.44 9.568C56.824 9.824 57.016 10.24 57.016 10.816C57.016 11.2853 56.92 11.904 56.728 12.672L53.752 25.472C53.56 26.3893 53.464 26.944 53.464 27.136C53.464 27.4773 53.5707 27.6907 53.784 27.776C54.0187 27.8613 54.4773 27.904 55.16 27.904H56.312L55.448 32H51.736C50.3707 32 49.4 31.8187 48.824 31.456C48.248 31.0933 47.96 30.4213 47.96 29.44C47.96 28.8427 48.056 28.1173 48.248 27.264L51.16 14.784C51.3093 14.144 51.384 13.7493 51.384 13.6C51.384 13.344 51.2773 13.1947 51.064 13.152C50.872 13.088 50.4347 13.056 49.752 13.056L50.616 8.96ZM56.7308 23.552C57.0294 21.8453 57.6801 20.32 58.6828 18.976C59.7068 17.6107 61.0081 16.544 62.5868 15.776C64.1868 14.9867 65.9574 14.592 67.8988 14.592C69.0508 14.592 70.0961 14.784 71.0348 15.168C71.9948 15.5307 72.7521 16.0427 73.3068 16.704C73.8828 17.344 74.1708 18.08 74.1708 18.912C74.1708 19.0613 74.1494 19.264 74.1068 19.52C73.7654 21.4613 72.4428 22.9013 70.1388 23.84C67.8348 24.7573 64.9121 25.216 61.3708 25.216C61.4134 27.3493 62.5654 28.416 64.8268 28.416C65.6588 28.416 66.4374 28.192 67.1628 27.744C67.9094 27.296 68.4214 26.752 68.6988 26.112H73.6908C73.2428 27.3067 72.5388 28.3947 71.5788 29.376C70.6401 30.336 69.5308 31.104 68.2508 31.68C66.9708 32.2347 65.6374 32.512 64.2508 32.512C61.6694 32.512 59.7388 31.8827 58.4588 30.624C57.1788 29.3653 56.5388 27.6907 56.5388 25.6C56.5388 24.9387 56.6028 24.256 56.7308 23.552ZM61.8508 22.144C64.1548 22.144 65.8721 21.984 67.0028 21.664C68.1334 21.3227 68.7734 20.704 68.9228 19.808C68.9868 19.3813 68.8374 19.0293 68.4748 18.752C68.1121 18.4533 67.6321 18.304 67.0348 18.304C65.6694 18.304 64.5494 18.688 63.6748 19.456C62.8214 20.2027 62.2134 21.0987 61.8508 22.144ZM75.1478 15.104H80.9078L82.3158 19.296C82.4224 19.616 82.4758 19.904 82.4758 20.16C82.4758 20.2667 82.4544 20.4267 82.4118 20.64L82.3798 20.864C82.3798 21.1627 82.5184 21.312 82.7958 21.312C83.1371 21.312 83.3504 21.088 83.4358 20.64C83.5638 20.1707 83.7878 19.7227 84.1078 19.296L87.3078 15.104H93.0678L85.8678 23.168L89.9958 32H84.2358L82.4758 27.008C82.3691 26.7307 82.3158 26.464 82.3158 26.208C82.3158 26.0587 82.3371 25.8773 82.3798 25.664L82.4118 25.408C82.4118 25.1307 82.2731 24.992 81.9958 24.992C81.8038 24.992 81.6651 25.056 81.5798 25.184C81.4944 25.2907 81.4198 25.4507 81.3558 25.664C81.1638 26.24 80.9398 26.688 80.6838 27.008L76.8118 32H71.0517L78.9558 23.168L75.1478 15.104ZM91.012 23.552C91.3107 21.8453 91.9613 20.32 92.964 18.976C93.988 17.6107 95.2893 16.544 96.868 15.776C98.468 14.9867 100.239 14.592 102.18 14.592C103.332 14.592 104.377 14.784 105.316 15.168C106.276 15.5307 107.033 16.0427 107.588 16.704C108.164 17.344 108.452 18.08 108.452 18.912C108.452 19.0613 108.431 19.264 108.388 19.52C108.047 21.4613 106.724 22.9013 104.42 23.84C102.116 24.7573 99.1933 25.216 95.652 25.216C95.6947 27.3493 96.8467 28.416 99.108 28.416C99.94 28.416 100.719 28.192 101.444 27.744C102.191 27.296 102.703 26.752 102.98 26.112H107.972C107.524 27.3067 106.82 28.3947 105.86 29.376C104.921 30.336 103.812 31.104 102.532 31.68C101.252 32.2347 99.9187 32.512 98.532 32.512C95.9507 32.512 94.02 31.8827 92.74 30.624C91.46 29.3653 90.82 27.6907 90.82 25.6C90.82 24.9387 90.884 24.256 91.012 23.552ZM96.132 22.144C98.436 22.144 100.153 21.984 101.284 21.664C102.415 21.3227 103.055 20.704 103.204 19.808C103.268 19.3813 103.119 19.0293 102.756 18.752C102.393 18.4533 101.913 18.304 101.316 18.304C99.9507 18.304 98.8307 18.688 97.956 19.456C97.1027 20.2027 96.4947 21.0987 96.132 22.144ZM116.354 15.104L115.746 18.016C115.64 18.528 115.405 19.0827 115.042 19.68C114.68 20.2773 114.466 20.64 114.402 20.768C114.338 20.896 114.306 21.0133 114.306 21.12C114.306 21.2693 114.37 21.3653 114.498 21.408C114.541 21.4293 114.594 21.44 114.658 21.44C114.765 21.44 114.861 21.408 114.946 21.344C115.032 21.2587 115.085 21.184 115.106 21.12C116.088 19.328 117.314 17.792 118.786 16.512C120.28 15.232 121.837 14.592 123.458 14.592C124.653 14.592 125.496 14.848 125.986 15.36C126.498 15.8507 126.754 16.64 126.754 17.728C126.754 18.688 126.541 20.2027 126.114 22.272L124.034 32H118.914L120.738 23.424C121.101 21.8027 121.282 20.672 121.282 20.032C121.282 19.6053 121.197 19.296 121.026 19.104C120.877 18.912 120.621 18.816 120.258 18.816C119.661 18.816 118.861 19.4453 117.858 20.704C116.856 21.9413 115.906 23.4453 115.01 25.216C114.114 26.9653 113.506 28.5547 113.186 29.984L112.77 32H107.65L111.234 15.104H116.354ZM127.26 23.936C127.622 22.2507 128.284 20.6933 129.244 19.264C130.204 17.8347 131.377 16.704 132.764 15.872C134.15 15.0187 135.622 14.592 137.18 14.592C138.118 14.592 138.865 14.7947 139.42 15.2C139.996 15.6053 140.486 16.1387 140.892 16.8C140.998 16.9493 141.094 17.056 141.18 17.12C141.265 17.184 141.382 17.184 141.532 17.12C141.724 17.0133 141.82 16.8747 141.82 16.704C141.82 16.64 141.798 16.544 141.756 16.416C141.542 15.9467 141.436 15.5947 141.436 15.36C141.436 15.2747 141.457 15.104 141.5 14.848L142.748 8.96H147.868L144.668 24.064C144.326 25.6213 144.081 26.8587 143.932 27.776C143.782 28.672 143.708 29.44 143.708 30.08C143.708 30.7413 143.804 31.3813 143.996 32H138.812C138.705 31.5733 138.652 31.2107 138.652 30.912C138.652 30.3573 138.748 29.8453 138.94 29.376C139.132 28.8853 139.398 28.3627 139.74 27.808C139.91 27.552 140.028 27.36 140.092 27.232C140.156 27.104 140.188 26.9973 140.188 26.912C140.188 26.784 140.124 26.688 139.996 26.624C139.974 26.6027 139.921 26.592 139.836 26.592C139.75 26.592 139.654 26.624 139.548 26.688C139.462 26.7307 139.409 26.7947 139.388 26.88C137.318 30.6347 134.865 32.512 132.028 32.512C130.556 32.512 129.35 31.9573 128.412 30.848C127.473 29.7387 127.004 28.256 127.004 26.4C127.004 25.5253 127.089 24.704 127.26 23.936ZM132.348 24.128C132.241 24.704 132.188 25.1733 132.188 25.536C132.188 26.3893 132.38 27.04 132.764 27.488C133.169 27.936 133.692 28.16 134.332 28.16C135.142 28.16 135.942 27.8507 136.732 27.232C137.521 26.6133 138.225 25.7387 138.844 24.608C139.462 23.456 139.932 22.144 140.252 20.672C139.825 20.032 139.398 19.584 138.972 19.328C138.545 19.072 137.99 18.944 137.308 18.944C136.07 18.944 135.014 19.4133 134.14 20.352C133.286 21.2693 132.689 22.528 132.348 24.128Z" fill="white"/>
</svg>
