<svg width="150" height="38" viewBox="0 0 150 38" fill="none" xmlns="http://www.w3.org/2000/svg">
<path d="M19.2895 19.7105V19.2105H18.7895H5.78947V18.2688C12.1688 16.6893 17.1893 11.6688 18.7688 5.28947H19.7105V18.2895V18.7895H20.2105H33.2105V19.7312C26.8312 21.3107 21.8107 26.3312 20.2312 32.7105H19.2895V19.7105ZM1.5 14H1V14.5V23.5V24H1.5H14.5V37V37.5H15H24H24.5V37C24.5 29.8204 30.3204 24 37.5 24H38V23.5V14.5V14H37.5H24.5V1V0.5H24H15H14.5V1C14.5 8.17965 8.67965 14 1.5 14Z" fill="#E2FFAB" stroke="#E2FFAB"/>
<path d="M52.656 7.224C54.512 7.224 55.856 7.26667 56.688 7.352C57.52 7.416 58.1173 7.576 58.48 7.832C58.864 8.088 59.056 8.504 59.056 9.08C59.056 9.5493 58.96 10.168 58.768 10.936L55.792 23.736C55.6 24.6533 55.504 25.208 55.504 25.4C55.504 25.7413 55.6107 25.9547 55.824 26.04C56.0587 26.1253 56.5173 26.168 57.2 26.168H58.352L57.488 30.264H53.776C52.4107 30.264 51.44 30.0827 50.864 29.72C50.288 29.3573 50 28.6853 50 27.704C50 27.1067 50.096 26.3813 50.288 25.528L53.2 13.048C53.3493 12.408 53.424 12.0133 53.424 11.864C53.424 11.608 53.3173 11.4587 53.104 11.416C52.912 11.352 52.4747 11.32 51.792 11.32L52.656 7.224ZM58.7708 21.816C59.0694 20.1093 59.7201 18.584 60.7228 17.24C61.7468 15.8747 63.0481 14.808 64.6268 14.04C66.2268 13.2507 67.9974 12.856 69.9388 12.856C71.0908 12.856 72.1361 13.048 73.0748 13.432C74.0348 13.7947 74.7921 14.3067 75.3468 14.968C75.9228 15.608 76.2108 16.344 76.2108 17.176C76.2108 17.3253 76.1894 17.528 76.1468 17.784C75.8054 19.7253 74.4828 21.1653 72.1788 22.104C69.8748 23.0213 66.9521 23.48 63.4108 23.48C63.4534 25.6133 64.6054 26.68 66.8668 26.68C67.6988 26.68 68.4774 26.456 69.2028 26.008C69.9494 25.56 70.4614 25.016 70.7388 24.376H75.7308C75.2828 25.5707 74.5788 26.6587 73.6188 27.64C72.6801 28.6 71.5708 29.368 70.2908 29.944C69.0108 30.4987 67.6774 30.776 66.2908 30.776C63.7094 30.776 61.7788 30.1467 60.4988 28.888C59.2188 27.6293 58.5788 25.9547 58.5788 23.864C58.5788 23.2027 58.6428 22.52 58.7708 21.816ZM63.8908 20.408C66.1948 20.408 67.9121 20.248 69.0428 19.928C70.1734 19.5867 70.8134 18.968 70.9628 18.072C71.0268 17.6453 70.8774 17.2933 70.5148 17.016C70.1521 16.7173 69.6721 16.568 69.0748 16.568C67.7094 16.568 66.5894 16.952 65.7148 17.72C64.8614 18.4667 64.2534 19.3627 63.8908 20.408ZM77.1878 13.368H82.9478L84.3558 17.56C84.4624 17.88 84.5158 18.168 84.5158 18.424C84.5158 18.5307 84.4944 18.6907 84.4518 18.904L84.4198 19.128C84.4198 19.4267 84.5584 19.576 84.8358 19.576C85.1771 19.576 85.3904 19.352 85.4758 18.904C85.6038 18.4347 85.8278 17.9867 86.1478 17.56L89.3478 13.368H95.1078L87.9078 21.432L92.0358 30.264H86.2758L84.5158 25.272C84.4091 24.9947 84.3558 24.728 84.3558 24.472C84.3558 24.3227 84.3771 24.1413 84.4198 23.928L84.4518 23.672C84.4518 23.3947 84.3131 23.256 84.0358 23.256C83.8438 23.256 83.7051 23.32 83.6198 23.448C83.5344 23.5547 83.4598 23.7147 83.3958 23.928C83.2038 24.504 82.9798 24.952 82.7238 25.272L78.8518 30.264H73.0917L80.9958 21.432L77.1878 13.368ZM93.052 21.816C93.3507 20.1093 94.0013 18.584 95.004 17.24C96.028 15.8747 97.3293 14.808 98.908 14.04C100.508 13.2507 102.279 12.856 104.22 12.856C105.372 12.856 106.417 13.048 107.356 13.432C108.316 13.7947 109.073 14.3067 109.628 14.968C110.204 15.608 110.492 16.344 110.492 17.176C110.492 17.3253 110.471 17.528 110.428 17.784C110.087 19.7253 108.764 21.1653 106.46 22.104C104.156 23.0213 101.233 23.48 97.692 23.48C97.7347 25.6133 98.8867 26.68 101.148 26.68C101.98 26.68 102.759 26.456 103.484 26.008C104.231 25.56 104.743 25.016 105.02 24.376H110.012C109.564 25.5707 108.86 26.6587 107.9 27.64C106.961 28.6 105.852 29.368 104.572 29.944C103.292 30.4987 101.959 30.776 100.572 30.776C97.9907 30.776 96.06 30.1467 94.78 28.888C93.5 27.6293 92.86 25.9547 92.86 23.864C92.86 23.2027 92.924 22.52 93.052 21.816ZM98.172 20.408C100.476 20.408 102.193 20.248 103.324 19.928C104.455 19.5867 105.095 18.968 105.244 18.072C105.308 17.6453 105.159 17.2933 104.796 17.016C104.433 16.7173 103.953 16.568 103.356 16.568C101.991 16.568 100.871 16.952 99.996 17.72C99.1427 18.4667 98.5347 19.3627 98.172 20.408ZM118.394 13.368L117.786 16.28C117.68 16.792 117.445 17.3467 117.082 17.944C116.72 18.5413 116.506 18.904 116.442 19.032C116.378 19.16 116.346 19.2773 116.346 19.384C116.346 19.5333 116.41 19.6293 116.538 19.672C116.581 19.6933 116.634 19.704 116.698 19.704C116.805 19.704 116.901 19.672 116.986 19.608C117.072 19.5227 117.125 19.448 117.146 19.384C118.128 17.592 119.354 16.056 120.826 14.776C122.32 13.496 123.877 12.856 125.498 12.856C126.693 12.856 127.536 13.112 128.026 13.624C128.538 14.1147 128.794 14.904 128.794 15.992C128.794 16.952 128.581 18.4667 128.154 20.536L126.074 30.264H120.954L122.778 21.688C123.141 20.0667 123.322 18.936 123.322 18.296C123.322 17.8693 123.237 17.56 123.066 17.368C122.917 17.176 122.661 17.08 122.298 17.08C121.701 17.08 120.901 17.7093 119.898 18.968C118.896 20.2053 117.946 21.7093 117.05 23.48C116.154 25.2293 115.546 26.8187 115.226 28.248L114.81 30.264H109.69L113.274 13.368H118.394ZM129.3 22.2C129.662 20.5147 130.324 18.9573 131.284 17.528C132.244 16.0987 133.417 14.968 134.804 14.136C136.19 13.2827 137.662 12.856 139.22 12.856C140.158 12.856 140.905 13.0587 141.46 13.464C142.036 13.8693 142.526 14.4027 142.932 15.064C143.038 15.2133 143.134 15.32 143.22 15.384C143.305 15.448 143.422 15.448 143.572 15.384C143.764 15.2773 143.86 15.1387 143.86 14.968C143.86 14.904 143.838 14.808 143.796 14.68C143.582 14.2107 143.476 13.8587 143.476 13.624C143.476 13.5387 143.497 13.368 143.54 13.112L144.788 7.224H149.908L146.708 22.328C146.366 23.8853 146.121 25.1227 145.972 26.04C145.822 26.936 145.748 27.704 145.748 28.344C145.748 29.0053 145.844 29.6453 146.036 30.264H140.852C140.745 29.8373 140.692 29.4747 140.692 29.176C140.692 28.6213 140.788 28.1093 140.98 27.64C141.172 27.1493 141.438 26.6267 141.78 26.072C141.95 25.816 142.068 25.624 142.132 25.496C142.196 25.368 142.228 25.2613 142.228 25.176C142.228 25.048 142.164 24.952 142.036 24.888C142.014 24.8667 141.961 24.856 141.876 24.856C141.79 24.856 141.694 24.888 141.588 24.952C141.502 24.9947 141.449 25.0587 141.428 25.144C139.358 28.8987 136.905 30.776 134.068 30.776C132.596 30.776 131.39 30.2213 130.452 29.112C129.513 28.0027 129.044 26.52 129.044 24.664C129.044 23.7893 129.129 22.968 129.3 22.2ZM134.388 22.392C134.281 22.968 134.228 23.4373 134.228 23.8C134.228 24.6533 134.42 25.304 134.804 25.752C135.209 26.2 135.732 26.424 136.372 26.424C137.182 26.424 137.982 26.1147 138.772 25.496C139.561 24.8773 140.265 24.0027 140.884 22.872C141.502 21.72 141.972 20.408 142.292 18.936C141.865 18.296 141.438 17.848 141.012 17.592C140.585 17.336 140.03 17.208 139.348 17.208C138.11 17.208 137.054 17.6773 136.18 18.616C135.326 19.5333 134.729 20.792 134.388 22.392Z" fill="white"/>
</svg>
