<?xml version="1.0" encoding="UTF-8"?>
<svg width="166px" height="50px" viewBox="0 0 166 50" version="1.1" xmlns="http://www.w3.org/2000/svg" xmlns:xlink="http://www.w3.org/1999/xlink">
    <title>Badge/GooglePlay/L</title>
    <g id="Badge/GooglePlay/L" stroke="none" stroke-width="1" fill="none" fill-rule="evenodd">
        <rect id="Background" fill="#121212" x="0" y="0" width="166" height="50" rx="5"></rect>
        <path d="M58.0155021,12.240872 C58.0575609,13.1692525 57.7256725,14.0746685 57.097283,14.7458414 C56.39509,15.4920758 55.415698,15.8974082 54.4038405,15.8605528 C52.8518547,15.8481266 51.4583752,14.885138 50.8677077,13.4168457 C50.2770402,11.9485535 50.6042935,10.2610975 51.698155,9.13470987 C52.408897,8.39239469 53.3883868,7.98432197 54.4038405,8.00747362 C54.9214193,8.00570941 55.4338814,8.11226691 55.9097197,8.3205948 C56.3527353,8.5033994 56.747116,8.79097365 57.0605543,9.15975956 L56.4116795,9.82357646 C55.9162658,9.22072607 55.1725549,8.89133939 54.4038405,8.93431231 C53.6311278,8.93043446 52.8902229,9.24879577 52.3519711,9.81598533 C51.8137193,10.3831749 51.5245851,11.1502301 51.55124,11.9402756 C51.5348368,13.1341312 52.2221233,14.2208493 53.2933259,14.6948131 C54.3645285,15.1687768 55.6092693,14.9369025 56.4484082,14.1070742 C56.8251345,13.6894164 57.0424139,13.1470463 57.0605543,12.5790428 L54.4038405,12.5790428 L54.4038405,11.6772538 L57.9665304,11.6772538 C57.9991861,11.8632655 58.0155748,12.0518841 58.0155021,12.240872 L58.0155021,12.240872 Z M63.6227597,9.10966017 L60.3171712,9.10966017 L60.3171712,11.4893811 L63.3289296,11.4893811 L63.3289296,12.3911701 L60.3171712,12.3911701 L60.3171712,14.7708911 L63.6227597,14.7708911 L63.6227597,15.6977298 L59.3377375,15.6977298 L59.3377375,8.18282148 L63.6227597,8.18282148 L63.6227597,9.10966017 Z M67.6384377,15.6977298 L66.6957328,15.6977298 L66.6957328,9.10966017 L64.6389221,9.10966017 L64.6389221,8.18282148 L69.7442201,8.18282148 L69.7442201,9.10966017 L67.6384377,9.10966017 L67.6384377,15.6977298 Z M73.3436387,15.6977298 L73.3436387,8.18282148 L74.2863436,8.18282148 L74.2863436,15.6977298 L73.3436387,15.6977298 Z M78.4734225,15.6977298 L77.5307176,15.6977298 L77.5307176,9.10966017 L75.4739069,9.10966017 L75.4739069,8.18282148 L80.5179902,8.18282148 L80.5179902,9.10966017 L78.4734225,9.10966017 L78.4734225,15.6977298 Z M90.0797113,14.7207917 C88.5897354,16.2365836 86.1828021,16.2365836 84.6928262,14.7207917 C83.2484908,13.1567312 83.2484908,10.7112952 84.6928262,9.14723471 C85.4053622,8.4129614 86.3749004,8 87.3862687,8 C88.3976371,8 89.3671752,8.4129614 90.0797113,9.14723471 C91.5302103,10.7087824 91.5302103,13.1592441 90.0797113,14.7207917 L90.0797113,14.7207917 Z M85.3906727,14.0945494 C86.4941564,15.2187359 88.278381,15.2187359 89.3818648,14.0945494 C90.4656061,12.8723386 90.4656061,11.0082127 89.3818648,9.78600192 C88.278381,8.66181538 86.4941564,8.66181538 85.3906727,9.78600192 C84.3069314,11.0082127 84.3069314,12.8723386 85.3906727,14.0945494 L85.3906727,14.0945494 Z M92.4915666,15.6977298 L92.4915666,8.18282148 L93.6424012,8.18282148 L97.217334,14.0319251 L97.217334,8.18282148 L98.1600389,8.18282148 L98.1600389,15.6977298 L97.1806052,15.6977298 L93.4465144,9.57307952 L93.4465144,15.6977298 L92.4915666,15.6977298 Z M83.3828337,26.6569711 C84.7730618,26.6296615 86.1145705,27.1808824 87.1000967,28.1843808 C88.085623,29.1878792 88.6307285,30.5576767 88.6105608,31.9800311 C88.610529,34.916608 86.285916,37.298441 83.4154431,37.3030324 C80.5449702,37.3076105 78.2130986,34.9332149 78.2040777,31.9966524 C78.1951089,29.0600899 80.5123891,26.6707903 83.3828337,26.6569711 L83.3828337,26.6569711 Z M83.3828337,35.2114417 C84.1948969,35.192174 84.9649226,34.8381529 85.5181708,34.2297155 C86.0714191,33.6212781 86.3609765,32.8100176 86.3211346,31.9800311 C86.3179746,30.6532107 85.5223304,29.4632054 84.3147499,28.9791818 C83.1071694,28.4951582 81.7330951,28.8154948 80.8497316,29.786978 C79.9663681,30.7584613 79.7532603,32.1836359 80.3123353,33.3808565 C80.8714102,34.5780771 82.0890353,35.3040069 83.3828337,35.2114417 L83.3828337,35.2114417 Z M71.9846745,26.6569711 L71.9724316,26.6569711 C73.3626598,26.6296615 74.7041684,27.1808824 75.6896947,28.1843808 C76.675221,29.1878792 77.2203265,30.5576767 77.2001587,31.9800311 C77.2001508,34.9182438 74.8730633,37.3007758 72.0009888,37.3030765 C69.1289144,37.3053739 66.7981851,34.9265705 66.793676,31.9883614 C66.78918,29.0501523 69.1126071,26.6638845 71.9846745,26.6569711 Z M71.9846745,35.2114417 L71.9724316,35.2114417 C72.7844949,35.192174 73.5545206,34.8381529 74.1077688,34.2297155 C74.661017,33.6212781 74.9505745,32.8100176 74.9107326,31.9800311 C74.9072084,30.6521482 74.1099845,29.4616447 72.9008782,28.9786928 C71.6917719,28.4957409 70.3169488,28.8186661 69.4348578,29.7928088 C68.5527669,30.7669515 68.3429956,32.193983 68.9060106,33.3904499 C69.4690256,34.5869169 70.6902008,35.309227 71.9846745,35.2114417 Z M58.4072755,28.2977261 L65.8387284,28.2351018 C65.924107,28.701721 65.9651082,29.1757031 65.9611576,29.6504096 C66.0187521,31.5989767 65.3339231,33.494187 64.051262,34.9358951 C62.5854669,36.5061054 60.5274617,37.3510042 58.4072755,37.2529918 C55.4432164,37.3710021 52.6535847,35.8205604 51.1372506,33.2124046 C49.6209165,30.6042489 49.6209165,27.3564116 51.1372506,24.7482558 C52.6535847,22.1401001 55.4432164,20.5896583 58.4072755,20.7076687 C60.4894516,20.6891997 62.4901911,21.5341309 63.9533186,23.0498151 L62.3984677,24.6404707 C61.3256964,23.5809339 59.8859703,22.9998896 58.3950326,23.0247654 C55.149475,23.0247654 52.5184307,25.7163966 52.5184307,29.0366921 C52.5184307,32.3569875 55.149475,35.0486187 58.3950326,35.0486187 C59.9211656,35.1108146 61.4019219,34.5103316 62.4719252,33.3953389 C63.1818244,32.616036 63.6132879,31.6140599 63.6962173,30.5521986 L58.4072755,30.5521986 L58.4072755,28.2977261 Z M113.879949,30.0512047 L114.13705,30.6148228 L107.170828,33.5581619 C107.607462,34.5754298 108.607647,35.2161825 109.69287,35.1738672 C110.740688,35.1765813 111.712641,34.6151866 112.251641,33.6959352 L114.026864,34.9484199 C113.060461,36.4281624 111.432416,37.312684 109.69287,37.3030912 C108.310104,37.3238308 106.978541,36.7684303 106.004142,35.7645065 C105.029743,34.7605827 104.49629,33.3944573 104.526358,31.9800311 C104.441754,30.5979432 104.920107,29.2416732 105.847833,28.2332651 C106.77556,27.2248571 108.069904,26.6542636 109.423526,26.6569615 C111.453314,26.7334391 113.226275,28.0838143 113.879949,30.0512047 Z M106.779055,31.829733 L111.431365,29.8508071 C111.065383,29.112696 110.304245,28.6691524 109.496983,28.7235709 C108.73114,28.7589181 108.011437,29.1081304 107.500122,29.6924819 C106.988808,30.2768335 106.728923,31.0471358 106.779055,31.829733 Z M101.122826,36.98997 L101.122826,21.333911 L103.412252,21.333911 L103.412252,36.98997 L101.122826,36.98997 Z M97.376492,27.8468316 L97.376492,26.9700923 L99.4822743,26.9700923 L99.4822743,36.4514016 C99.4822743,40.3842036 97.2663057,42 94.5851061,42 C92.5640825,42.0122563 90.7379906,40.7684797 89.969525,38.8561723 L91.965121,38.0044826 C92.3822718,39.1204884 93.4175024,39.8677759 94.5851061,39.8957346 C96.299115,39.8957346 97.3642491,38.8060729 97.3642491,36.7645228 L97.3642491,36.0005071 L97.2907915,36.0005071 C96.6027589,36.8124539 95.5986105,37.2710573 94.5483773,37.2529918 C91.7694141,37.1151287 89.58551,34.7699664 89.58551,31.9236693 C89.58551,29.0773723 91.7694141,26.7322099 94.5483773,26.5943436 C95.595217,26.592944 96.5928987,27.048594 97.2907915,27.8468316 L97.376492,27.8468316 Z M94.756507,35.2114417 L94.744264,35.2114417 C95.5399442,35.1801469 96.2884429,34.8170897 96.8157298,34.2066831 C97.3430168,33.5962764 97.603151,32.7917031 97.5356499,31.9800311 C97.5960969,31.1720744 97.3351276,30.3733723 96.8119095,29.7650075 C96.2886913,29.1566427 95.547546,28.7901499 94.756507,28.7486206 C93.1194908,28.8962136 91.8639656,30.2988271 91.8639656,31.9800311 C91.8639656,33.6612352 93.1194908,35.0638487 94.756507,35.2114417 Z M124.604748,21.333911 L124.61699,21.333911 C126.3955,21.203197 128.096397,22.0997942 129.024601,23.657304 C129.952806,25.2148139 129.952806,27.1722896 129.024601,28.7297994 C128.096397,30.2873093 126.3955,31.1839065 124.61699,31.0531925 L121.421588,31.0531925 L121.421588,36.98997 L119.132162,36.98997 L119.132162,21.333911 L124.604748,21.333911 Z M124.604748,28.8488193 L124.653719,28.8863939 C126.104078,28.8863939 127.279826,27.6835712 127.279826,26.1998142 C127.279826,24.7160572 126.104078,23.5132344 124.653719,23.5132344 L121.409345,23.5132344 L121.409345,28.8488193 L124.604748,28.8488193 Z M138.720835,26.5943469 L138.78205,26.6319214 C141.389792,26.6319214 143.422117,28.222577 143.422117,30.9655185 L143.422117,36.98997 L141.218391,36.98997 L141.218391,35.7374853 L141.144933,35.7374853 C140.507774,36.7503862 139.381009,37.326742 138.206632,37.240467 C137.253641,37.3125257 136.31268,36.987171 135.597827,36.3384242 C134.882974,35.6896774 134.455019,34.7727073 134.411327,33.796134 C134.411327,31.5291366 136.627296,30.2766519 138.818778,30.2766519 C139.650798,30.2730513 140.470829,30.4795533 141.206148,30.8778446 L141.206148,30.7150216 C141.147747,30.1132965 140.855514,29.5607946 140.395089,29.1816173 C139.934664,28.80244 139.344646,28.6283753 138.757564,28.6985212 C137.901936,28.6269487 137.085678,29.0788609 136.676267,29.8508071 L134.643942,28.9865927 C135.416087,27.4298644 137.017493,26.4901889 138.720835,26.5943469 Z M138.439248,35.1738672 L138.500462,35.2114417 C139.879656,35.1770492 141.023356,34.1085225 141.181662,32.7064723 C140.546415,32.3437369 139.827646,32.1620697 139.100366,32.1804287 C137.949531,32.1804287 136.651781,32.5937487 136.651781,33.8462334 C136.651781,34.7855969 137.69243,35.1738672 138.439248,35.1738672 Z M151.453473,26.9700923 L154,26.9700923 L147.731625,41.7368871 L145.344255,41.7368871 L147.67041,36.4639264 L143.593517,26.9700923 L146.042102,26.9700923 L148.76003,33.7585594 L148.833487,33.7585594 L151.453473,26.9700923 Z M130.873123,36.98997 L130.873123,21.333911 L133.162549,21.333911 L133.162549,36.98997 L130.873123,36.98997 Z M40.2199957,23.9583267 C40.5294752,24.1372802 40.7143539,24.4576417 40.7143539,24.8151498 C40.7143539,25.1726009 40.5294183,25.4929624 40.2199387,25.6714601 L34.6024178,28.9138166 L30.6590035,25.1018969 L34.9737705,20.9310448 L40.2199957,23.9583267 Z M34.0832761,20.4165749 L29.9480323,24.4143988 L15.6575067,10.6 L28.3100469,17.0837446 L34.0832761,20.4165749 Z M15.8676247,39.4 L29.9480323,25.7893381 L33.7119804,29.4281726 L28.3317538,32.5340778 L15.8676247,39.4 Z M14.8133888,11.159194 L29.2368903,25.1016121 L14.8,39.0574189 L14.8133888,11.159194 Z" id="Google-Play" fill="#FFFFFF"></path>
    </g>
</svg>