<svg width="19" height="29" viewBox="0 0 19 29" fill="none" xmlns="http://www.w3.org/2000/svg">
<path d="M0.737141 12.0646C4.96806 12.1348 8.61594 8.21753 9.50624 1.92026C9.47891 1.37957 9.47891 0.837859 9.50624 0.297168C9.50624 -0.00716117 9.84503 -0.147621 9.8923 0.219135C10.3178 3.46531 10.8299 6.56323 12.4608 8.96664C14.0917 11.3701 16.4002 12.7122 18.7638 12.6576C18.9608 12.6576 19.0081 12.9229 18.9529 13.1258C19.0081 13.1258 19.0238 13.2897 18.9529 13.2975C18.8914 13.3085 18.8308 13.3241 18.7717 13.3443H18.7244C16.542 13.8905 14.1075 14.1246 12.3426 16.3486C10.2547 18.9783 10.0499 23.2545 10.0893 27.0937C10.099 27.2968 10.0283 27.4955 9.8923 27.6478V27.6868C9.8923 28.1082 9.49049 28.1784 9.41958 27.7804V27.6322C9.34837 27.5619 9.29269 27.4778 9.25606 27.3851C9.21944 27.2924 9.20268 27.1932 9.20685 27.0937V26.4148C8.73412 23.6759 8.3323 20.9525 7.07957 18.6818C5.50382 15.8492 3.29775 14.3041 0.902596 13.8905C0.63472 13.8437 0.492901 13.5004 0.492901 13.1804C0.225021 12.8683 0.29593 12.0568 0.737141 12.0646Z" fill="#6B7280"/>
<path d="M0.737141 12.0646C4.96806 12.1348 8.61594 8.21753 9.50624 1.92026C9.47891 1.37957 9.47891 0.837859 9.50624 0.297168C9.50624 -0.00716117 9.84503 -0.147621 9.8923 0.219135C10.3178 3.46531 10.8299 6.56323 12.4608 8.96664C14.0917 11.3701 16.4002 12.7122 18.7638 12.6576C18.9608 12.6576 19.0081 12.9229 18.9529 13.1258C19.0081 13.1258 19.0238 13.2897 18.9529 13.2975C18.8914 13.3085 18.8308 13.3241 18.7717 13.3443H18.7244C16.542 13.8905 14.1075 14.1246 12.3426 16.3486C10.2547 18.9783 10.0499 23.2545 10.0893 27.0937C10.099 27.2968 10.0283 27.4955 9.8923 27.6478V27.6868C9.8923 28.1082 9.49049 28.1784 9.41958 27.7804V27.6322C9.34837 27.5619 9.29269 27.4778 9.25606 27.3851C9.21944 27.2924 9.20268 27.1932 9.20685 27.0937V26.4148C8.73412 23.6759 8.3323 20.9525 7.07957 18.6818C5.50382 15.8492 3.29775 14.3041 0.902596 13.8905C0.63472 13.8437 0.492901 13.5004 0.492901 13.1804C0.225021 12.8683 0.29593 12.0568 0.737141 12.0646Z" fill="black" fill-opacity="0.8"/>
</svg>
