<svg width="80" height="80" viewBox="0 0 80 80" fill="none" xmlns="http://www.w3.org/2000/svg">
<g filter="url(#filter0_d_1334_2592)">
<path d="M5 29.8889C5 21.177 5 16.821 6.69545 13.4935C8.18682 10.5665 10.5665 8.18682 13.4935 6.69545C16.821 5 21.177 5 29.8889 5H50.1111C58.823 5 63.179 5 66.5065 6.69545C69.4335 8.18682 71.8132 10.5665 73.3045 13.4935C75 16.821 75 21.177 75 29.8889V50.1111C75 58.823 75 63.179 73.3045 66.5065C71.8132 69.4335 69.4335 71.8132 66.5065 73.3045C63.179 75 58.823 75 50.1111 75H29.8889C21.177 75 16.821 75 13.4935 73.3045C10.5665 71.8132 8.18682 69.4335 6.69545 66.5065C5 63.179 5 58.823 5 50.1111V29.8889Z" fill="white"/>
<path d="M40.0053 31.1277L31.353 15.8584C31.6403 15.5659 31.9708 15.3741 32.3014 15.2451C29.7499 16.0848 28.5791 18.95 28.5791 18.95L12.7729 46.8373C12.5505 47.7116 12.4887 48.501 12.5165 49.1961H29.7684L40.0053 31.1277Z" fill="#34A853"/>
<path d="M40.0049 31.1277L50.2417 49.1961H67.4937C67.5215 48.501 67.4597 47.7116 67.2373 46.8373L51.431 18.95C51.431 18.95 50.2572 16.0848 47.7088 15.2451C48.0362 15.3741 48.3698 15.5659 48.6571 15.8584L40.0049 31.1277Z" fill="#FBBC05"/>
<path d="M40.0048 31.1276L48.657 15.8583C48.3697 15.5658 48.0361 15.3739 47.7087 15.245C47.3318 15.1223 46.9271 15.0406 46.4885 15.0186H46.0313H33.9782H33.521C33.0854 15.0374 32.6777 15.1192 32.3009 15.245C31.9734 15.3739 31.6398 15.5658 31.3525 15.8583L40.0048 31.1276Z" fill="#188038"/>
<path d="M29.771 49.1963L21.2177 64.2926C21.2177 64.2926 20.9335 64.1542 20.5474 63.868C21.7613 64.8021 22.9413 65.0002 22.9413 65.0002H56.5339C58.3873 65.0002 58.7734 64.2926 58.7734 64.2926C58.7796 64.2895 58.7827 64.2863 58.7889 64.2832L50.2417 49.1963H29.771Z" fill="#4285F4"/>
<path d="M29.7719 49.1963H12.52C12.6065 51.2469 13.4961 52.4451 13.4961 52.4451L14.1448 53.5711C14.1912 53.6371 14.219 53.6749 14.219 53.6749L15.6306 56.1532L18.7999 61.6696C18.8926 61.8929 19.0007 62.0974 19.115 62.2923C19.1582 62.3584 19.1984 62.4307 19.2447 62.4936C19.2571 62.5125 19.2694 62.5314 19.2818 62.5502C19.6741 63.1038 20.1127 63.5315 20.5513 63.868C20.9375 64.1574 21.2217 64.2926 21.2217 64.2926L29.7719 49.1963Z" fill="#1967D2"/>
<path d="M50.2417 49.1963H67.4936C67.4071 51.2469 66.5175 52.4451 66.5175 52.4451L65.8688 53.5711C65.8225 53.6371 65.7947 53.6749 65.7947 53.6749L64.383 56.1532L61.2137 61.6696C61.121 61.8929 61.0129 62.0974 60.8987 62.2923C60.8554 62.3584 60.8152 62.4307 60.7689 62.4936C60.7565 62.5125 60.7442 62.5314 60.7318 62.5502C60.3395 63.1038 59.9009 63.5315 59.4623 63.868C59.0762 64.1574 58.792 64.2926 58.792 64.2926L50.2417 49.1963Z" fill="#EA4335"/>
</g>
<defs>
<filter id="filter0_d_1334_2592" x="-2" y="-1" width="84" height="84" filterUnits="userSpaceOnUse" color-interpolation-filters="sRGB">
<feFlood flood-opacity="0" result="BackgroundImageFix"/>
<feColorMatrix in="SourceAlpha" type="matrix" values="0 0 0 0 0 0 0 0 0 0 0 0 0 0 0 0 0 0 127 0" result="hardAlpha"/>
<feOffset dy="1"/>
<feGaussianBlur stdDeviation="1"/>
<feComposite in2="hardAlpha" operator="out"/>
<feColorMatrix type="matrix" values="0 0 0 0 0.0627451 0 0 0 0 0.0941176 0 0 0 0 0.156863 0 0 0 0.05 0"/>
<feBlend mode="normal" in2="BackgroundImageFix" result="effect1_dropShadow_1334_2592"/>
<feBlend mode="normal" in="SourceGraphic" in2="effect1_dropShadow_1334_2592" result="shape"/>
</filter>
</defs>
</svg>
