<svg width="80" height="80" viewBox="0 0 80 80" fill="none" xmlns="http://www.w3.org/2000/svg">
<path d="M66.2505 37.4999C69.702 37.4999 72.5 34.7019 72.5 31.2504C72.5 27.799 69.7018 25.001 66.2503 25.001C62.7985 25.001 60 27.7992 60 31.251V37.4999H66.2505ZM48.75 37.4999C52.2018 37.4999 55 34.7017 55 31.2499V13.751C55 10.2992 52.2018 7.50098 48.75 7.50098C45.2982 7.50098 42.5 10.2992 42.5 13.751V31.2499C42.5 34.7017 45.2982 37.4999 48.75 37.4999Z" fill="#2EB67D"/>
<path d="M13.7495 42.5001C10.298 42.5001 7.50001 45.2981 7.50001 48.7496C7.50001 52.201 10.2983 54.999 13.7497 54.999C17.2015 54.999 20 52.2008 20 48.749V42.5001H13.7495ZM31.25 42.5001C27.7982 42.5001 25 45.2983 25 48.7501V66.249C25 69.7008 27.7982 72.499 31.25 72.499C34.7018 72.499 37.5 69.7008 37.5 66.249V48.7501C37.5 45.2983 34.7018 42.5001 31.25 42.5001Z" fill="#E01E5A"/>
<path d="M42.5006 66.2505C42.5006 69.702 45.2986 72.5 48.75 72.5C52.2015 72.5 54.9995 69.7017 54.9995 66.2503C54.9995 62.7985 52.2013 60 48.7495 60L42.5006 60L42.5006 66.2505ZM42.5006 48.75C42.5006 52.2018 45.2988 55 48.7506 55L66.2495 55C69.7013 55 72.4995 52.2018 72.4995 48.75C72.4995 45.2982 69.7013 42.5 66.2495 42.5L48.7506 42.5C45.2988 42.5 42.5006 45.2982 42.5006 48.75Z" fill="#ECB22E"/>
<path d="M37.4994 13.7495C37.4994 10.298 34.7014 7.5 31.25 7.5C27.7985 7.5 25.0005 10.2983 25.0005 13.7497C25.0005 17.2015 27.7987 20 31.2505 20L37.4994 20L37.4994 13.7495ZM37.4994 31.25C37.4994 27.7982 34.7012 25 31.2494 25L13.7505 25C10.2987 25 7.50049 27.7982 7.50049 31.25C7.50049 34.7018 10.2987 37.5 13.7505 37.5L31.2494 37.5C34.7012 37.5 37.4994 34.7018 37.4994 31.25Z" fill="#36C5F0"/>
</svg>
