<svg width="311" height="352" viewBox="0 0 311 352" fill="none" xmlns="http://www.w3.org/2000/svg">
<path fill-rule="evenodd" clip-rule="evenodd" d="M186.6 113.883C186.6 131.036 172.676 144.941 155.5 144.941C138.324 144.941 124.4 131.036 124.4 113.883C124.4 96.7292 138.324 82.8237 155.5 82.8237C172.676 82.8237 186.6 96.7292 186.6 113.883ZM155.5 133.941C166.615 133.941 175.6 124.947 175.6 113.883C175.6 102.818 166.615 93.8237 155.5 93.8237C144.385 93.8237 135.4 102.818 135.4 113.883C135.4 124.947 144.385 133.941 155.5 133.941Z" fill="#191919"/>
<path d="M107 219.319V229.854C69.33 233.217 41.4668 240.287 41.4668 248.47C41.4668 259.91 95.9229 269.176 155.5 269.176C215.077 269.176 269.533 259.91 269.533 248.47C269.533 240.287 241.67 233.217 204 229.854V219.319C240.043 222.304 279.9 229.823 279.9 248.47C279.9 277.293 184.682 279.529 155.5 279.529C126.318 279.529 31.1001 277.293 31.1001 248.47C31.1001 229.823 70.9567 222.304 107 219.319Z" fill="#191919"/>
<path fill-rule="evenodd" clip-rule="evenodd" d="M155.5 155.294C132.631 155.294 114.033 173.867 114.033 196.706V248.47C114.033 254.185 118.677 258.823 124.4 258.823H186.6C192.322 258.823 196.967 254.185 196.967 248.47V196.706C196.967 173.867 178.369 155.294 155.5 155.294ZM155.5 165.647C172.677 165.647 186.6 179.551 186.6 196.706V248.47H124.4V196.706C124.4 179.551 138.322 165.647 155.5 165.647Z" fill="#191919"/>
<path fill-rule="evenodd" clip-rule="evenodd" d="M172.761 6.31538C168.013 3.15773 161.751 1.57373 155.5 1.57373C149.249 1.57373 142.987 3.15773 138.24 6.31538L17.2605 86.8613C7.76463 93.1869 0 107.671 0 119.069V232.931C0 244.319 7.76463 258.813 17.2605 265.139L138.24 345.685C142.987 348.842 149.239 350.426 155.5 350.426C161.761 350.426 168.013 348.842 172.761 345.685L293.74 265.139C303.235 258.813 311 244.33 311 232.931V119.069C311 107.681 303.235 93.1869 293.74 86.8613L172.761 6.31538ZM167.007 14.929C164.146 13.0241 159.947 11.9267 155.5 11.9267C151.053 11.9267 146.854 13.0241 143.983 14.929L111.023 36.873L50.635 221.57C46.0747 223.013 41.8657 224.635 38.1382 226.457L97.0902 46.1492L23.0036 95.4749C16.3897 99.8853 10.3667 111.129 10.3667 119.069V232.931C10.3667 240.872 16.3897 252.115 23.0244 256.525L144.003 337.071C146.865 338.976 151.063 340.073 155.51 340.073C159.958 340.073 164.156 338.976 167.017 337.071L287.996 256.525C294.61 252.115 300.633 240.872 300.633 232.931V119.069C300.633 111.129 294.61 99.8853 287.986 95.4749L213.914 46.1586L272.866 226.459C269.138 224.636 264.927 223.014 260.365 221.57L199.968 36.8741L167.007 14.929Z" fill="#191919"/>
</svg>
