<svg width="32" height="32" viewBox="0 0 32 32" fill="none" xmlns="http://www.w3.org/2000/svg">
<path fill-rule="evenodd" clip-rule="evenodd" d="M7.11088 2.69649C9.74207 0.938384 12.8355 0 16 0C20.242 0.00477931 24.3089 1.69202 27.3084 4.69157C30.308 7.69112 31.9952 11.758 32 16C32 19.1645 31.0616 22.2579 29.3035 24.8891C27.5454 27.5203 25.0466 29.5711 22.1229 30.7821C19.1993 31.9931 15.9823 32.3099 12.8786 31.6926C9.77487 31.0752 6.92394 29.5513 4.6863 27.3137C2.44866 25.0761 0.924806 22.2251 0.307443 19.1214C-0.309921 16.0177 0.0069325 12.8007 1.21793 9.87706C2.42894 6.95345 4.4797 4.45459 7.11088 2.69649ZM9.14286 26.2857V27.8589C11.2238 29.074 13.5903 29.7143 16 29.7143C18.4097 29.7143 20.7762 29.074 22.8571 27.8589V26.2857C22.8561 25.3767 22.4946 24.5052 21.8518 23.8624C21.2091 23.2197 20.3376 22.8581 19.4286 22.8571H12.5714C11.6624 22.8581 10.7909 23.2197 10.1482 23.8624C9.50541 24.5052 9.14386 25.3767 9.14286 26.2857ZM23.4335 22.2185C24.5007 23.2716 25.1116 24.7018 25.1343 26.2009C27.2068 24.3503 28.6683 21.9139 29.3253 19.2142C29.9824 16.5146 29.8039 13.679 28.8136 11.083C27.8232 8.48706 26.0678 6.2531 23.7796 4.67699C21.4914 3.10087 18.7785 2.25694 16 2.25694C13.2215 2.25694 10.5086 3.10087 8.22043 4.67699C5.93226 6.2531 4.17678 8.48706 3.18645 11.083C2.19612 13.679 2.01765 16.5146 2.67467 19.2142C3.3317 21.9139 4.79322 24.3503 6.86572 26.2009C6.88844 24.7018 7.49926 23.2716 8.56655 22.2185C9.63383 21.1655 11.0721 20.574 12.5714 20.5714H19.4286C20.9279 20.574 22.3662 21.1655 23.4335 22.2185ZM12.8253 7.82017C13.765 7.19228 14.8698 6.85714 16 6.85714C17.5155 6.85714 18.969 7.45918 20.0406 8.53082C21.1122 9.60245 21.7143 11.0559 21.7143 12.5714C21.7143 13.7016 21.3791 14.8064 20.7513 15.7461C20.1234 16.6858 19.2309 17.4182 18.1868 17.8507C17.1426 18.2832 15.9937 18.3964 14.8852 18.1759C13.7767 17.9554 12.7585 17.4112 11.9594 16.612C11.1602 15.8129 10.616 14.7947 10.3955 13.6862C10.175 12.5778 10.2882 11.4288 10.7207 10.3847C11.1532 9.34052 11.8856 8.44807 12.8253 7.82017ZM14.0952 15.4222C14.659 15.7989 15.3219 16 16 16C16.909 15.999 17.7805 15.6374 18.4232 14.9947C19.066 14.3519 19.4275 13.4804 19.4286 12.5714C19.4286 11.8933 19.2275 11.2304 18.8508 10.6666C18.474 10.1028 17.9385 9.66334 17.3121 9.40384C16.6856 9.14434 15.9962 9.07644 15.3311 9.20873C14.666 9.34103 14.0551 9.66757 13.5756 10.1471C13.0961 10.6266 12.7696 11.2375 12.6373 11.9025C12.505 12.5676 12.5729 13.257 12.8324 13.8835C13.0919 14.51 13.5314 15.0454 14.0952 15.4222Z" fill="#15171A"/>
<path fill-rule="evenodd" clip-rule="evenodd" d="M7.11088 2.69649C9.74207 0.938384 12.8355 0 16 0C20.242 0.00477931 24.3089 1.69202 27.3084 4.69157C30.308 7.69112 31.9952 11.758 32 16C32 19.1645 31.0616 22.2579 29.3035 24.8891C27.5454 27.5203 25.0466 29.5711 22.1229 30.7821C19.1993 31.9931 15.9823 32.3099 12.8786 31.6926C9.77487 31.0752 6.92394 29.5513 4.6863 27.3137C2.44866 25.0761 0.924806 22.2251 0.307443 19.1214C-0.309921 16.0177 0.0069325 12.8007 1.21793 9.87706C2.42894 6.95345 4.4797 4.45459 7.11088 2.69649ZM9.14286 26.2857V27.8589C11.2238 29.074 13.5903 29.7143 16 29.7143C18.4097 29.7143 20.7762 29.074 22.8571 27.8589V26.2857C22.8561 25.3767 22.4946 24.5052 21.8518 23.8624C21.2091 23.2197 20.3376 22.8581 19.4286 22.8571H12.5714C11.6624 22.8581 10.7909 23.2197 10.1482 23.8624C9.50541 24.5052 9.14386 25.3767 9.14286 26.2857ZM23.4335 22.2185C24.5007 23.2716 25.1116 24.7018 25.1343 26.2009C27.2068 24.3503 28.6683 21.9139 29.3253 19.2142C29.9824 16.5146 29.8039 13.679 28.8136 11.083C27.8232 8.48706 26.0678 6.2531 23.7796 4.67699C21.4914 3.10087 18.7785 2.25694 16 2.25694C13.2215 2.25694 10.5086 3.10087 8.22043 4.67699C5.93226 6.2531 4.17678 8.48706 3.18645 11.083C2.19612 13.679 2.01765 16.5146 2.67467 19.2142C3.3317 21.9139 4.79322 24.3503 6.86572 26.2009C6.88844 24.7018 7.49926 23.2716 8.56655 22.2185C9.63383 21.1655 11.0721 20.574 12.5714 20.5714H19.4286C20.9279 20.574 22.3662 21.1655 23.4335 22.2185ZM12.8253 7.82017C13.765 7.19228 14.8698 6.85714 16 6.85714C17.5155 6.85714 18.969 7.45918 20.0406 8.53082C21.1122 9.60245 21.7143 11.0559 21.7143 12.5714C21.7143 13.7016 21.3791 14.8064 20.7513 15.7461C20.1234 16.6858 19.2309 17.4182 18.1868 17.8507C17.1426 18.2832 15.9937 18.3964 14.8852 18.1759C13.7767 17.9554 12.7585 17.4112 11.9594 16.612C11.1602 15.8129 10.616 14.7947 10.3955 13.6862C10.175 12.5778 10.2882 11.4288 10.7207 10.3847C11.1532 9.34052 11.8856 8.44807 12.8253 7.82017ZM14.0952 15.4222C14.659 15.7989 15.3219 16 16 16C16.909 15.999 17.7805 15.6374 18.4232 14.9947C19.066 14.3519 19.4275 13.4804 19.4286 12.5714C19.4286 11.8933 19.2275 11.2304 18.8508 10.6666C18.474 10.1028 17.9385 9.66334 17.3121 9.40384C16.6856 9.14434 15.9962 9.07644 15.3311 9.20873C14.666 9.34103 14.0551 9.66757 13.5756 10.1471C13.0961 10.6266 12.7696 11.2375 12.6373 11.9025C12.505 12.5676 12.5729 13.257 12.8324 13.8835C13.0919 14.51 13.5314 15.0454 14.0952 15.4222Z" fill="#15171A"/>
</svg>
