<svg width="32" height="32" viewBox="0 0 32 32" fill="none" xmlns="http://www.w3.org/2000/svg">
<path fill-rule="evenodd" clip-rule="evenodd" d="M24.0972 3.36745C23.686 3.33385 23.1578 3.33333 22.4 3.33333H11.7334C10.6022 3.33333 9.79401 3.33385 9.16045 3.38562C8.53467 3.43674 8.13823 3.53453 7.82005 3.69665C7.19285 4.01622 6.68291 4.52616 6.36333 5.15337C6.20121 5.47154 6.10343 5.86798 6.0523 6.49376C6.00054 7.12733 6.00002 7.93556 6.00002 9.06667V22.0673C6.84703 21.203 8.02756 20.6667 9.33335 20.6667H26V6.93333C26 6.1756 25.9995 5.64739 25.9659 5.23616C25.9329 4.83272 25.8715 4.60092 25.782 4.42535C25.5903 4.04903 25.2843 3.74307 24.908 3.55132C24.7324 3.46186 24.5006 3.40041 24.0972 3.36745ZM27.3334 6.90478C27.3334 6.18226 27.3334 5.5995 27.2948 5.12758C27.2551 4.64168 27.1712 4.21489 26.97 3.82003C26.6505 3.19283 26.1405 2.68289 25.5133 2.36331C25.1185 2.16212 24.6917 2.07825 24.2058 2.03855C23.7338 1.99999 23.1511 1.99999 22.4286 2H11.7037C10.6087 2 9.74608 1.99999 9.05187 2.05671C8.34364 2.11458 7.7522 2.23478 7.21473 2.50864C6.33664 2.95605 5.62273 3.66996 5.17532 4.54804C4.90147 5.08551 4.78126 5.67695 4.7234 6.38519C4.66668 7.0794 4.66668 7.94203 4.66669 9.03706V22.9629C4.66668 23.7168 4.66668 24.3605 4.68519 24.915C4.67294 25.0528 4.66669 25.1923 4.66669 25.3333C4.66669 25.4282 4.6865 25.5184 4.72221 25.6001C4.7226 25.605 4.723 25.6099 4.7234 25.6148C4.78126 26.323 4.90147 26.9145 5.17532 27.452C5.62273 28.33 6.33664 29.044 7.21473 29.4914C7.7522 29.7652 8.34364 29.8854 9.05187 29.9433C9.74608 30 10.6087 30 11.7037 30H22.4286C23.1511 30 23.7339 30 24.2058 29.9615C24.6917 29.9218 25.1185 29.8379 25.5133 29.6367C26.1405 29.3171 26.6505 28.8072 26.97 28.18C27.1712 27.7851 27.2551 27.3583 27.2948 26.8724C27.3289 26.4555 27.3328 25.9521 27.3333 25.3423C27.3333 25.3393 27.3334 25.3363 27.3334 25.3333V25.1475C27.3334 25.1301 27.3334 25.1127 27.3334 25.0952V6.90478ZM6.02084 24.9587C6.02832 25.1555 6.03849 25.3371 6.0523 25.5062C6.10343 26.132 6.20121 26.5285 6.36333 26.8466C6.68291 27.4738 7.19285 27.9838 7.82005 28.3034C8.13823 28.4655 8.53467 28.5633 9.16045 28.6144C9.79401 28.6661 10.6022 28.6667 11.7334 28.6667H22.4C23.1578 28.6667 23.686 28.6661 24.0972 28.6325C24.5006 28.5996 24.7324 28.5381 24.908 28.4487C25.2843 28.2569 25.5903 27.951 25.782 27.5746C25.8715 27.3991 25.9329 27.1673 25.9659 26.7638C25.9995 26.3526 26 25.8244 26 25.0667V22H9.33335C7.61906 22 6.20702 23.2941 6.02084 24.9587Z" fill="#12715B"/>
</svg>
