<svg width="32" height="32" viewBox="0 0 32 32" fill="none" xmlns="http://www.w3.org/2000/svg">
<path fill-rule="evenodd" clip-rule="evenodd" d="M10.3704 3.33301H21.6296C22.7247 3.333 23.5873 3.333 24.2815 3.38972C24.9898 3.44758 25.5812 3.56779 26.1187 3.84164C26.9968 4.28905 27.7107 5.00296 28.1581 5.88105C28.4319 6.41852 28.5521 7.00996 28.61 7.71819C28.6667 8.4124 28.6667 9.27503 28.6667 10.37V12.6663C28.6667 13.0345 28.3682 13.333 28 13.333C27.6319 13.333 27.3334 13.0345 27.3334 12.6663V10.3997C27.3334 9.26857 27.3329 8.46033 27.2811 7.82677C27.23 7.20099 27.1322 6.80455 26.9701 6.48637C26.6505 5.85917 26.1406 5.34923 25.5133 5.02965C25.1952 4.86753 24.7987 4.76975 24.1729 4.71862C23.5394 4.66686 22.7311 4.66634 21.6 4.66634H10.4C9.26894 4.66634 8.4607 4.66686 7.82714 4.71862C7.20136 4.76975 6.80492 4.86753 6.48674 5.02965C5.85953 5.34923 5.3496 5.85917 5.03002 6.48637C4.8679 6.80455 4.77012 7.20099 4.71899 7.82677C4.66723 8.46033 4.66671 9.26857 4.66671 10.3997V21.5997C4.66671 22.7308 4.66723 23.539 4.71899 24.1726C4.77012 24.7984 4.8679 25.1948 5.03002 25.513C5.3496 26.1402 5.85953 26.6501 6.48674 26.9697C6.80492 27.1318 7.20136 27.2296 7.82714 27.2807C8.4607 27.3325 9.26894 27.333 10.4 27.333H12.6667C13.0349 27.333 13.3334 27.6315 13.3334 27.9997C13.3334 28.3679 13.0349 28.6663 12.6667 28.6663H10.3705C9.27545 28.6663 8.41279 28.6663 7.71856 28.6096C7.01033 28.5518 6.41889 28.4316 5.88142 28.1577C5.00333 27.7103 4.28942 26.9964 3.84201 26.1183C3.56816 25.5808 3.44795 24.9894 3.39009 24.2812C3.33337 23.5869 3.33337 22.7243 3.33337 21.6293V10.3701C3.33337 9.27504 3.33337 8.4124 3.39009 7.71819C3.44795 7.00996 3.56816 6.41852 3.84201 5.88105C4.28942 5.00296 5.00333 4.28905 5.88142 3.84164C6.41889 3.56779 7.01033 3.44758 7.71856 3.38972C8.41277 3.333 9.2754 3.333 10.3704 3.33301ZM16.8635 14.6915L27.8882 18.3418C28.2342 18.4563 28.5359 18.5562 28.7647 18.6553C28.9822 18.7495 29.2772 18.8992 29.4565 19.1899C29.6778 19.5486 29.7164 19.9908 29.5606 20.3825C29.4344 20.6998 29.1698 20.8984 28.9719 21.0289C28.7638 21.1661 28.484 21.3168 28.1631 21.4896L23.9312 23.7683C23.875 23.7985 23.8474 23.8135 23.8276 23.825C23.8271 23.8253 23.8267 23.8256 23.8262 23.8259C23.826 23.8263 23.8257 23.8268 23.8254 23.8273C23.8139 23.847 23.7989 23.8746 23.7686 23.9308L21.4899 28.1628C21.3171 28.4837 21.1665 28.7634 21.0292 28.9716C20.8987 29.1695 20.7001 29.4341 20.3828 29.5603C19.9912 29.716 19.5489 29.6774 19.1902 29.4562C18.8995 29.2769 18.7499 28.9818 18.6556 28.7643C18.5565 28.5355 18.4566 28.2338 18.3421 27.8879L14.6918 16.8632C14.5923 16.5626 14.5036 16.2947 14.4525 16.0754C14.4021 15.8591 14.3549 15.5644 14.4611 15.2674C14.5955 14.8912 14.8916 14.5952 15.2677 14.4607C15.5648 14.3545 15.8595 14.4018 16.0758 14.4521C16.295 14.5032 16.5629 14.5919 16.8635 14.6915ZM15.7447 15.7444C15.7466 15.7532 15.7487 15.7628 15.7511 15.7731C15.7866 15.9257 15.8552 16.1348 15.9668 16.4719L19.5984 27.4401C19.7252 27.8232 19.8066 28.067 19.8791 28.2343C19.8846 28.247 19.8898 28.2586 19.8947 28.2693C19.9013 28.2597 19.9085 28.2491 19.9161 28.2375C20.0165 28.0853 20.1389 27.8593 20.3303 27.504L22.5947 23.2987C22.5985 23.2916 22.6024 23.2844 22.6064 23.2769C22.6502 23.1951 22.7054 23.0921 22.7795 22.9984C22.8438 22.917 22.9174 22.8434 22.9988 22.7791C23.0925 22.705 23.1955 22.6498 23.2773 22.606C23.2847 22.602 23.292 22.5981 23.2991 22.5943L27.5043 20.3299C27.8596 20.1386 28.0856 20.0162 28.2379 19.9158C28.2494 19.9082 28.26 19.901 28.2696 19.8944C28.259 19.8895 28.2473 19.8843 28.2346 19.8788C28.0673 19.8063 27.8235 19.7249 27.4404 19.598L16.4722 15.9664C16.1351 15.8548 15.926 15.7863 15.7735 15.7507C15.7631 15.7483 15.7536 15.7462 15.7447 15.7444Z" fill="#12715B"/>
</svg>
