<svg width="32" height="32" viewBox="0 0 32 32" fill="none" xmlns="http://www.w3.org/2000/svg">
<path fill-rule="evenodd" clip-rule="evenodd" d="M10 5.81818C10 2.60489 12.6863 0 16 0C19.3137 0 22 2.60489 22 5.81818V6.4H25.6C26.2394 6.4 26.7666 6.88623 26.7985 7.50553L27.9985 30.7783C28.0149 31.0966 27.896 31.4075 27.6695 31.6384C27.4429 31.8693 27.1287 32 26.8 32H5.2C4.87134 32 4.55707 31.8693 4.33054 31.6384C4.10402 31.4075 3.98509 31.0966 4.0015 30.7783L5.2015 7.50553C5.23343 6.88623 5.76055 6.4 6.4 6.4H10V5.81818ZM10 8.72727V10.4727C10 11.1154 10.5373 11.6364 11.2 11.6364C11.8627 11.6364 12.4 11.1154 12.4 10.4727V8.72727H19.6V10.4727C19.6 11.1154 20.1373 11.6364 20.8 11.6364C21.4627 11.6364 22 11.1154 22 10.4727V8.72727H24.4585L25.5385 29.6727H6.4615L7.5415 8.72727H10ZM19.6 6.4H12.4V5.81818C12.4 3.89021 14.0118 2.32727 16 2.32727C17.9882 2.32727 19.6 3.89021 19.6 5.81818V6.4Z" fill="#15171A"/>
<path fill-rule="evenodd" clip-rule="evenodd" d="M10 5.81818C10 2.60489 12.6863 0 16 0C19.3137 0 22 2.60489 22 5.81818V6.4H25.6C26.2394 6.4 26.7666 6.88623 26.7985 7.50553L27.9985 30.7783C28.0149 31.0966 27.896 31.4075 27.6695 31.6384C27.4429 31.8693 27.1287 32 26.8 32H5.2C4.87134 32 4.55707 31.8693 4.33054 31.6384C4.10402 31.4075 3.98509 31.0966 4.0015 30.7783L5.2015 7.50553C5.23343 6.88623 5.76055 6.4 6.4 6.4H10V5.81818ZM10 8.72727V10.4727C10 11.1154 10.5373 11.6364 11.2 11.6364C11.8627 11.6364 12.4 11.1154 12.4 10.4727V8.72727H19.6V10.4727C19.6 11.1154 20.1373 11.6364 20.8 11.6364C21.4627 11.6364 22 11.1154 22 10.4727V8.72727H24.4585L25.5385 29.6727H6.4615L7.5415 8.72727H10ZM19.6 6.4H12.4V5.81818C12.4 3.89021 14.0118 2.32727 16 2.32727C17.9882 2.32727 19.6 3.89021 19.6 5.81818V6.4Z" fill="#15171A"/>
</svg>
