<svg width="32" height="32" viewBox="0 0 32 32" fill="none" xmlns="http://www.w3.org/2000/svg">
<path fill-rule="evenodd" clip-rule="evenodd" d="M17.0488 2.03865C17.073 2.04072 17.0965 2.04274 17.1194 2.04457C18.5746 2.16124 20.0051 2.50503 21.3581 3.06548C23.0567 3.76905 24.6 4.80028 25.9 6.1003C27.2001 7.40032 28.2313 8.94367 28.9349 10.6422C29.4953 11.9953 29.8391 13.4257 29.9558 14.881C29.9576 14.9038 29.9596 14.9273 29.9617 14.9515C29.9843 15.2159 30.0135 15.5556 29.8744 15.871C29.7579 16.1353 29.5422 16.369 29.2881 16.5063C29.1043 16.6055 28.9217 16.6394 28.7623 16.6538C28.6207 16.6665 28.4554 16.6665 28.2895 16.6665H17.0459C16.8777 16.6665 16.7138 16.6665 16.5751 16.6552C16.4227 16.6427 16.2428 16.6133 16.0619 16.5211C15.811 16.3933 15.607 16.1893 15.4792 15.9385C15.387 15.7575 15.3576 15.5777 15.3452 15.4253C15.3338 15.2865 15.3338 15.1227 15.3339 14.9544V3.71081C15.3338 3.54496 15.3338 3.37959 15.3466 3.23799C15.3609 3.07859 15.3948 2.89604 15.4941 2.71228C15.6314 2.45811 15.865 2.24244 16.1293 2.12591C16.4447 1.98686 16.7845 2.01599 17.0488 2.03865ZM16.6749 3.35327C16.6748 3.35467 16.6747 3.35611 16.6745 3.3576C16.6678 3.43197 16.6672 3.53593 16.6672 3.73313V14.9331C16.6672 15.1308 16.6677 15.239 16.6741 15.3167C16.6743 15.3198 16.6746 15.3227 16.6748 15.3255C16.6776 15.3258 16.6805 15.326 16.6836 15.3263C16.7614 15.3326 16.8695 15.3331 17.0672 15.3331H28.2672C28.4644 15.3331 28.5684 15.3325 28.6427 15.3258C28.6442 15.3257 28.6457 15.3255 28.6471 15.3254C28.6479 15.26 28.6412 15.1684 28.6267 14.9875C28.5211 13.6709 28.2101 12.3767 27.703 11.1525C27.0665 9.61568 26.1334 8.21932 24.9572 7.04311C23.781 5.8669 22.3847 4.93388 20.8479 4.29732C19.6237 3.79025 18.3295 3.4792 17.0128 3.37364C16.8319 3.35914 16.7404 3.35248 16.6749 3.35327ZM11.2782 3.50649C11.4255 3.84395 11.2713 4.23689 10.9338 4.38415C9.0375 5.21169 7.37273 6.49116 6.0851 8.11072C4.79747 9.73028 3.92618 11.6406 3.5474 13.6747C3.16862 15.7088 3.29389 17.8047 3.91225 19.7792C4.53061 21.7536 5.62323 23.5466 7.0946 25.0012C8.56597 26.4559 10.3713 27.528 12.3527 28.1238C14.3341 28.7195 16.4313 28.8209 18.4609 28.4189C20.4906 28.0169 22.3908 27.1238 23.9956 25.8178C25.6003 24.5118 26.8607 22.8325 27.6665 20.9268C27.8099 20.5877 28.2011 20.429 28.5402 20.5724C28.8793 20.7158 29.038 21.107 28.8946 21.4461C28.0039 23.5524 26.6109 25.4084 24.8372 26.8519C23.0635 28.2954 20.9632 29.2825 18.72 29.7268C16.4767 30.1711 14.1588 30.0591 11.9688 29.4006C9.77878 28.7421 7.78344 27.5572 6.15719 25.9494C4.53094 24.3416 3.3233 22.36 2.63985 20.1776C1.9564 17.9953 1.81795 15.6788 2.2366 13.4306C2.65525 11.1824 3.61826 9.07099 5.04143 7.28095C6.4646 5.49091 8.3046 4.07675 10.4006 3.16211C10.738 3.01485 11.131 3.16903 11.2782 3.50649Z" fill="#12715B"/>
</svg>
