<svg width="32" height="32" viewBox="0 0 32 32" fill="none" xmlns="http://www.w3.org/2000/svg">
<path fill-rule="evenodd" clip-rule="evenodd" d="M10.3704 3.33301H21.6296C22.7247 3.333 23.5873 3.333 24.2815 3.38972C24.9898 3.44758 25.5812 3.56779 26.1187 3.84164C26.9968 4.28905 27.7107 5.00296 28.1581 5.88105C28.4319 6.41852 28.5521 7.00996 28.61 7.71819C28.6667 8.4124 28.6667 9.27503 28.6667 10.37V21.6293C28.6667 22.7243 28.6667 23.587 28.61 24.2812C28.5521 24.9894 28.4319 25.5808 28.1581 26.1183C27.7107 26.9964 26.9968 27.7103 26.1187 28.1577C25.5812 28.4316 24.9898 28.5518 24.2815 28.6096C23.5873 28.6663 22.7247 28.6663 21.6297 28.6663H10.3704C9.27539 28.6663 8.41277 28.6663 7.71856 28.6096C7.01032 28.5518 6.41889 28.4316 5.88142 28.1577C5.00333 27.7103 4.28942 26.9964 3.84201 26.1183C3.56816 25.5808 3.44795 24.9894 3.39009 24.2812C3.33337 23.5869 3.33337 22.7243 3.33337 21.6293V10.3701C3.33337 9.27504 3.33337 8.4124 3.39009 7.71819C3.44795 7.00996 3.56816 6.41852 3.84201 5.88105C4.28942 5.00296 5.00333 4.28905 5.88142 3.84164C6.41889 3.56779 7.01033 3.44758 7.71856 3.38972C8.41277 3.333 9.2754 3.333 10.3704 3.33301ZM7.82714 4.71862C7.20136 4.76975 6.80492 4.86753 6.48674 5.02965C5.85953 5.34923 5.3496 5.85917 5.03002 6.48637C4.8679 6.80455 4.77012 7.20099 4.71899 7.82677C4.66723 8.46033 4.66671 9.26857 4.66671 10.3997V21.5997C4.66671 22.7308 4.66723 23.539 4.71899 24.1726C4.77012 24.7984 4.8679 25.1948 5.03002 25.513C5.3496 26.1402 5.85953 26.6501 6.48674 26.9697C6.80492 27.1318 7.20136 27.2296 7.82714 27.2807C8.4607 27.3325 9.26894 27.333 10.4 27.333H21.6C22.7311 27.333 23.5394 27.3325 24.1729 27.2807C24.7987 27.2296 25.1952 27.1318 25.5133 26.9697C26.1406 26.6501 26.6505 26.1402 26.9701 25.513C27.1322 25.1948 27.23 24.7984 27.2811 24.1726C27.3329 23.539 27.3334 22.7308 27.3334 21.5997V10.3997C27.3334 9.26857 27.3329 8.46033 27.2811 7.82677C27.23 7.20099 27.1322 6.80455 26.9701 6.48637C26.6505 5.85917 26.1406 5.34923 25.5133 5.02965C25.1952 4.86753 24.7987 4.76975 24.1729 4.71862C23.5394 4.66686 22.7311 4.66634 21.6 4.66634H10.4C9.26894 4.66634 8.4607 4.66686 7.82714 4.71862ZM8.66671 22.7997L23.3334 22.7997C23.7016 22.7997 24 23.0982 24 23.4663C24 23.8345 23.7016 24.133 23.3334 24.133L8.66671 24.133C8.29852 24.133 8.00004 23.8345 8.00004 23.4663C8.00004 23.0982 8.29852 22.7997 8.66671 22.7997Z" fill="#12715B"/>
</svg>
