<svg width="32" height="32" viewBox="0 0 32 32" fill="none" xmlns="http://www.w3.org/2000/svg">
<path fill-rule="evenodd" clip-rule="evenodd" d="M4.00004 3.33301C4.36823 3.33301 4.66671 3.63148 4.66671 3.99967V5.06634C4.66671 5.82408 4.66723 6.35229 4.70082 6.76351C4.73379 7.16696 4.79524 7.39875 4.88469 7.57432C5.07644 7.95065 5.3824 8.25661 5.75873 8.44835C5.9343 8.53781 6.16609 8.59926 6.56953 8.63222C6.98076 8.66582 7.50897 8.66634 8.26671 8.66634H23.7334C24.4911 8.66634 25.0193 8.66582 25.4305 8.63222C25.834 8.59926 26.0658 8.53781 26.2414 8.44835C26.6177 8.25661 26.9236 7.95065 27.1154 7.57432C27.2048 7.39875 27.2663 7.16696 27.2993 6.76351C27.3329 6.35229 27.3334 5.82408 27.3334 5.06634V3.99967C27.3334 3.63148 27.6319 3.33301 28 3.33301C28.3682 3.33301 28.6667 3.63148 28.6667 3.99967V5.0949C28.6667 5.81741 28.6667 6.40017 28.6282 6.87209C28.5885 7.35799 28.5046 7.78478 28.3034 8.17964C27.9838 8.80685 27.4739 9.31678 26.8467 9.63636C26.4518 9.83755 26.025 9.92143 25.5391 9.96113C25.0672 9.99969 24.4844 9.99968 23.7619 9.99967H8.23815C7.51564 9.99968 6.93287 9.99969 6.46096 9.96113C5.97506 9.92143 5.54827 9.83755 5.15341 9.63636C4.5262 9.31678 4.01626 8.80685 3.69669 8.17964C3.49549 7.78478 3.41162 7.35799 3.37192 6.87209C3.33336 6.40017 3.33337 5.8174 3.33337 5.09488L3.33337 3.99967C3.33337 3.63148 3.63185 3.33301 4.00004 3.33301ZM3.33337 15.9997C3.33337 15.6315 3.63185 15.333 4.00004 15.333H4.01337C4.38156 15.333 4.68004 15.6315 4.68004 15.9997C4.68004 16.3679 4.38156 16.6663 4.01337 16.6663H4.00004C3.63185 16.6663 3.33337 16.3679 3.33337 15.9997ZM9.33337 15.9997C9.33337 15.6315 9.63185 15.333 10 15.333H10.0134C10.3816 15.333 10.68 15.6315 10.68 15.9997C10.68 16.3679 10.3816 16.6663 10.0134 16.6663H10C9.63185 16.6663 9.33337 16.3679 9.33337 15.9997ZM15.3334 15.9997C15.3334 15.6315 15.6319 15.333 16 15.333H16.0134C16.3816 15.333 16.68 15.6315 16.68 15.9997C16.68 16.3679 16.3816 16.6663 16.0134 16.6663H16C15.6319 16.6663 15.3334 16.3679 15.3334 15.9997ZM21.3334 15.9997C21.3334 15.6315 21.6319 15.333 22 15.333H22.0134C22.3816 15.333 22.68 15.6315 22.68 15.9997C22.68 16.3679 22.3816 16.6663 22.0134 16.6663H22C21.6319 16.6663 21.3334 16.3679 21.3334 15.9997ZM27.3334 15.9997C27.3334 15.6315 27.6319 15.333 28 15.333H28.0134C28.3816 15.333 28.68 15.6315 28.68 15.9997C28.68 16.3679 28.3816 16.6663 28.0134 16.6663H28C27.6319 16.6663 27.3334 16.3679 27.3334 15.9997ZM8.23815 21.9997H23.7618C24.4844 21.9997 25.0672 21.9997 25.5391 22.0382C26.025 22.0779 26.4518 22.1618 26.8467 22.363C27.4739 22.6826 27.9838 23.1925 28.3034 23.8197C28.5046 24.2146 28.5885 24.6414 28.6282 25.1273C28.6667 25.5992 28.6667 26.1819 28.6667 26.9045V27.9997C28.6667 28.3679 28.3682 28.6663 28 28.6663C27.6319 28.6663 27.3334 28.3679 27.3334 27.9997V26.933C27.3334 26.1753 27.3329 25.6471 27.2993 25.2358C27.2663 24.8324 27.2048 24.6006 27.1154 24.425C26.9236 24.0487 26.6177 23.7427 26.2414 23.551C26.0658 23.4615 25.834 23.4001 25.4305 23.3671C25.0193 23.3335 24.4911 23.333 23.7334 23.333H8.26671C7.50897 23.333 6.98076 23.3335 6.56953 23.3671C6.16609 23.4001 5.9343 23.4615 5.75873 23.551C5.3824 23.7427 5.07644 24.0487 4.88469 24.425C4.79524 24.6006 4.73379 24.8324 4.70082 25.2358C4.66723 25.6471 4.66671 26.1753 4.66671 26.933V27.9997C4.66671 28.3679 4.36823 28.6663 4.00004 28.6663C3.63185 28.6663 3.33337 28.3679 3.33337 27.9997L3.33337 26.9045C3.33337 26.1819 3.33336 25.5992 3.37192 25.1273C3.41162 24.6414 3.49549 24.2146 3.69669 23.8197C4.01626 23.1925 4.5262 22.6826 5.15341 22.363C5.54827 22.1618 5.97506 22.0779 6.46096 22.0382C6.93287 21.9997 7.51564 21.9997 8.23815 21.9997Z" fill="#12715B"/>
</svg>
