<svg width="32" height="32" viewBox="0 0 32 32" fill="none" xmlns="http://www.w3.org/2000/svg">
<path fill-rule="evenodd" clip-rule="evenodd" d="M16.1743 3.71197C16.0602 3.68108 15.9399 3.68108 15.8258 3.71197C15.7281 3.73843 15.6167 3.80905 15.0996 4.21124L6.0565 11.2447C5.4222 11.7381 5.20925 11.9111 5.05871 12.1146C4.91405 12.3102 4.80629 12.5305 4.74071 12.7648C4.67248 13.0086 4.66669 13.2828 4.66669 14.0864V23.733C4.66669 24.4907 4.6672 25.0189 4.7008 25.4302C4.73377 25.8336 4.79521 26.0654 4.88467 26.241C5.07642 26.6173 5.38238 26.9233 5.7587 27.115C5.93428 27.2045 6.16607 27.2659 6.56951 27.2989C6.98074 27.3325 7.50895 27.333 8.26669 27.333H23.7334C24.4911 27.333 25.0193 27.3325 25.4305 27.2989C25.834 27.2659 26.0658 27.2045 26.2413 27.115C26.6177 26.9233 26.9236 26.6173 27.1154 26.241C27.2048 26.0654 27.2663 25.8336 27.2992 25.4302C27.3328 25.0189 27.3334 24.4907 27.3334 23.733V14.0864C27.3334 13.2828 27.3276 13.0086 27.2593 12.7648C27.1938 12.5305 27.086 12.3102 26.9413 12.1146C26.7908 11.9111 26.5778 11.7381 25.9435 11.2447L16.9005 4.21124C16.3834 3.80905 16.272 3.73843 16.1743 3.71197ZM15.4773 2.42498C15.8196 2.3323 16.1804 2.3323 16.5227 2.42498C16.9145 2.53107 17.2519 2.79431 17.6367 3.09461C17.6639 3.11583 17.6914 3.13723 17.7191 3.15877L26.7621 10.1923C26.7861 10.2109 26.8097 10.2293 26.833 10.2474C27.3693 10.6642 27.7402 10.9525 28.0133 11.3217C28.2544 11.6477 28.434 12.0149 28.5433 12.4054C28.6671 12.8476 28.6669 13.3174 28.6667 13.9966C28.6667 14.0261 28.6667 14.0561 28.6667 14.0864V23.7615C28.6667 24.4841 28.6667 25.0668 28.6281 25.5387C28.5884 26.0246 28.5046 26.4514 28.3034 26.8463C27.9838 27.4735 27.4739 27.9834 26.8467 28.303C26.4518 28.5042 26.025 28.5881 25.5391 28.6278C25.0672 28.6663 24.4844 28.6663 23.7619 28.6663H8.23813C7.51561 28.6663 6.93285 28.6663 6.46094 28.6278C5.97504 28.5881 5.54824 28.5042 5.15338 28.303C4.52618 27.9834 4.01624 27.4735 3.69666 26.8463C3.49547 26.4514 3.4116 26.0246 3.3719 25.5387C3.33334 25.0668 3.33335 24.484 3.33335 23.7615L3.33335 14.0864C3.33335 14.0561 3.33334 14.0261 3.33333 13.9966C3.3331 13.3174 3.33295 12.8476 3.45673 12.4054C3.56602 12.0149 3.74563 11.6477 3.98673 11.3217C4.25981 10.9525 4.63076 10.6642 5.16699 10.2474C5.19031 10.2293 5.21395 10.2109 5.23791 10.1923L14.281 3.15877C14.3087 3.13723 14.3361 3.11583 14.3633 3.09461C14.7481 2.79431 15.0855 2.53107 15.4773 2.42498ZM10.6685 18.0207C11.0251 17.9289 11.3886 18.1436 11.4803 18.5001C11.9984 20.5131 13.8265 21.9997 16 21.9997C18.1736 21.9997 20.0016 20.5131 20.5197 18.5001C20.6115 18.1436 20.9749 17.9289 21.3315 18.0207C21.6881 18.1125 21.9027 18.4759 21.811 18.8325C21.1449 21.4202 18.7967 23.333 16 23.333C13.2033 23.333 10.8551 21.4202 10.1891 18.8325C10.0973 18.4759 10.312 18.1125 10.6685 18.0207Z" fill="#12715B"/>
</svg>
