<svg width="24" height="24" viewBox="0 0 24 24" fill="none" xmlns="http://www.w3.org/2000/svg">
<path fill-rule="evenodd" clip-rule="evenodd" d="M12 3C7.02944 3 3 7.02944 3 12C3 16.9706 7.02944 21 12 21C16.9706 21 21 16.9706 21 12C21 7.02944 16.9706 3 12 3ZM1 12C1 5.92487 5.92487 1 12 1C18.0751 1 23 5.92487 23 12C23 18.0751 18.0751 23 12 23C5.92487 23 1 18.0751 1 12ZM5.29289 9.29289C5.68342 8.90237 6.31658 8.90237 6.70711 9.29289L10 12.5858L12.7272 9.85858C12.7326 9.8532 12.738 9.84774 12.7436 9.84221C12.8278 9.75795 12.9283 9.65732 13.0242 9.57595C13.1352 9.48166 13.3038 9.35611 13.5365 9.28052C13.8377 9.18264 14.1623 9.18264 14.4635 9.28052C14.6962 9.35611 14.8648 9.48165 14.9758 9.57595C15.0717 9.65732 15.1722 9.75795 15.2564 9.8422C15.262 9.84774 15.2674 9.8532 15.2728 9.85858L18.7071 13.2929C19.0976 13.6834 19.0976 14.3166 18.7071 14.7071C18.3166 15.0976 17.6834 15.0976 17.2929 14.7071L14 11.4142L11.2728 14.1414C11.2674 14.1468 11.262 14.1523 11.2564 14.1578C11.1722 14.2421 11.0717 14.3427 10.9758 14.4241C10.8648 14.5183 10.6962 14.6439 10.4635 14.7195C10.1623 14.8174 9.83774 14.8174 9.53647 14.7195C9.30384 14.6439 9.13524 14.5183 9.02417 14.4241C8.92831 14.3427 8.82775 14.242 8.74355 14.1578C8.73803 14.1523 8.73258 14.1468 8.72721 14.1414L5.29289 10.7071C4.90237 10.3166 4.90237 9.68342 5.29289 9.29289Z" fill="black"/>
</svg>
