<svg width="32" height="32" viewBox="0 0 32 32" fill="none" xmlns="http://www.w3.org/2000/svg">
<path fill-rule="evenodd" clip-rule="evenodd" d="M29.6479 2.07888C29.8647 2.1949 30 2.4208 30 2.66667V24C30 24.2229 29.8886 24.4311 29.7031 24.5547L21.7031 29.888C21.493 30.0281 21.2218 30.0374 21.0026 29.9122L12 24.7678L2.99743 29.9122C2.79109 30.0301 2.53759 30.0292 2.33205 29.9099C2.12651 29.7907 2 29.571 2 29.3333V8C2 7.76076 2.12819 7.53987 2.33591 7.42117L11.6692 2.08784C11.8742 1.97072 12.1258 1.97072 12.3308 2.08784L21.3064 7.21675L28.9635 2.11197C29.1681 1.97559 29.4311 1.96287 29.6479 2.07888ZM20.6667 8.38688L12.6667 3.81545V23.6131L20.6667 28.1845V8.38688ZM22 28.0877L28.6667 23.6432V3.91235L22 8.35679V28.0877ZM11.3333 23.6131V3.81545L3.33333 8.38688V28.1845L11.3333 23.6131Z" fill="#12715B"/>
</svg>
