<svg width="32" height="32" viewBox="0 0 32 32" fill="none" xmlns="http://www.w3.org/2000/svg">
<g clip-path="url(#clip0_3126_65698)">
<path d="M32 30.3262L23.0611 21.3873C25.209 18.8086 26.2801 15.5011 26.0516 12.1527C25.823 8.80442 24.3123 5.67312 21.8339 3.41024C19.3554 1.14736 16.0999 -0.0728755 12.7447 0.0033694C9.38941 0.0796143 6.19273 1.44647 3.8196 3.8196C1.44647 6.19273 0.0796143 9.38941 0.0033694 12.7447C-0.0728755 16.0999 1.14736 19.3554 3.41024 21.8339C5.67312 24.3123 8.80442 25.823 12.1527 26.0516C15.5011 26.2801 18.8086 25.209 21.3873 23.0611L30.3262 32L32 30.3262ZM2.40916 13.0619C2.40916 10.955 3.03393 8.89537 4.20446 7.14354C5.375 5.39171 7.03872 4.02633 8.98525 3.22005C10.9318 2.41377 13.0737 2.20281 15.1401 2.61385C17.2065 3.02489 19.1047 4.03946 20.5945 5.52926C22.0843 7.01907 23.0988 8.9172 23.5099 10.9836C23.9209 13.05 23.71 15.1919 22.9037 17.1385C22.0974 19.085 20.732 20.7487 18.9802 21.9193C17.2284 23.0898 15.1688 23.7146 13.0619 23.7146C10.2376 23.7114 7.52981 22.5881 5.53272 20.591C3.53563 18.5939 2.41229 15.8862 2.40916 13.0619Z" fill="#15171A"/>
<path d="M32 30.3262L23.0611 21.3873C25.209 18.8086 26.2801 15.5011 26.0516 12.1527C25.823 8.80442 24.3123 5.67312 21.8339 3.41024C19.3554 1.14736 16.0999 -0.0728755 12.7447 0.0033694C9.38941 0.0796143 6.19273 1.44647 3.8196 3.8196C1.44647 6.19273 0.0796143 9.38941 0.0033694 12.7447C-0.0728755 16.0999 1.14736 19.3554 3.41024 21.8339C5.67312 24.3123 8.80442 25.823 12.1527 26.0516C15.5011 26.2801 18.8086 25.209 21.3873 23.0611L30.3262 32L32 30.3262ZM2.40916 13.0619C2.40916 10.955 3.03393 8.89537 4.20446 7.14354C5.375 5.39171 7.03872 4.02633 8.98525 3.22005C10.9318 2.41377 13.0737 2.20281 15.1401 2.61385C17.2065 3.02489 19.1047 4.03946 20.5945 5.52926C22.0843 7.01907 23.0988 8.9172 23.5099 10.9836C23.9209 13.05 23.71 15.1919 22.9037 17.1385C22.0974 19.085 20.732 20.7487 18.9802 21.9193C17.2284 23.0898 15.1688 23.7146 13.0619 23.7146C10.2376 23.7114 7.52981 22.5881 5.53272 20.591C3.53563 18.5939 2.41229 15.8862 2.40916 13.0619Z" fill="#15171A"/>
</g>
<defs>
<clipPath id="clip0_3126_65698">
<rect width="32" height="32" fill="white"/>
</clipPath>
</defs>
</svg>
