<svg width="32" height="32" viewBox="0 0 32 32" fill="none" xmlns="http://www.w3.org/2000/svg">
<path fill-rule="evenodd" clip-rule="evenodd" d="M10.3704 3.33301H21.6296C22.7246 3.333 23.5873 3.333 24.2815 3.38972C24.9897 3.44758 25.5811 3.56779 26.1186 3.84164C26.9967 4.28905 27.7106 5.00296 28.158 5.88105C28.4319 6.41852 28.5521 7.00996 28.6099 7.71819C28.6667 8.4124 28.6667 9.27503 28.6666 10.37V21.6293C28.6667 22.7243 28.6667 23.587 28.6099 24.2812C28.5521 24.9894 28.4319 25.5808 28.158 26.1183C27.7106 26.9964 26.9967 27.7103 26.1186 28.1577C25.5811 28.4316 24.9897 28.5518 24.2815 28.6096C23.5873 28.6663 22.7246 28.6663 21.6296 28.6663H10.3704C9.27533 28.6663 8.4127 28.6663 7.7185 28.6096C7.01026 28.5518 6.41883 28.4316 5.88136 28.1577C5.00327 27.7103 4.28936 26.9964 3.84195 26.1183C3.5681 25.5808 3.44789 24.9894 3.39002 24.2812C3.3333 23.5869 3.33331 22.7243 3.33331 21.6293V10.3701C3.33331 9.27504 3.3333 8.4124 3.39002 7.71819C3.44789 7.00996 3.5681 6.41852 3.84195 5.88105C4.28936 5.00296 5.00327 4.28905 5.88136 3.84164C6.41883 3.56779 7.01026 3.44758 7.7185 3.38972C8.41271 3.333 9.27534 3.333 10.3704 3.33301ZM16.6666 27.333H21.6C22.7311 27.333 23.5393 27.3325 24.1729 27.2807C24.7987 27.2296 25.1951 27.1318 25.5133 26.9697C26.1405 26.6501 26.6504 26.1402 26.97 25.513C27.1321 25.1948 27.2299 24.7984 27.281 24.1726C27.3328 23.539 27.3333 22.7308 27.3333 21.5997V16.6663L16.6666 16.6663V27.333ZM15.3333 16.0005V27.333H10.4C9.26887 27.333 8.46064 27.3325 7.82708 27.2807C7.20129 27.2296 6.80486 27.1318 6.48668 26.9697C5.85947 26.6501 5.34954 26.1402 5.02996 25.513C4.86784 25.1948 4.77006 24.7984 4.71893 24.1726C4.66717 23.539 4.66665 22.7308 4.66665 21.5997V10.3997C4.66665 9.26857 4.66717 8.46033 4.71893 7.82677C4.77006 7.20099 4.86784 6.80455 5.02996 6.48637C5.34954 5.85917 5.85947 5.34923 6.48668 5.02965C6.80486 4.86753 7.20129 4.76975 7.82708 4.71862C8.46064 4.66686 9.26887 4.66634 10.4 4.66634H15.3333V15.9989C15.3333 15.9991 15.3333 16.0002 15.3333 16.0005C15.3333 16.0002 15.3333 16.0007 15.3333 16.0005ZM16.6666 15.333L27.3333 15.333V10.3997C27.3333 9.26857 27.3328 8.46033 27.281 7.82677C27.2299 7.20099 27.1321 6.80455 26.97 6.48637C26.6504 5.85917 26.1405 5.34923 25.5133 5.02965C25.1951 4.86753 24.7987 4.76975 24.1729 4.71862C23.5393 4.66686 22.7311 4.66634 21.6 4.66634H16.6666V15.333Z" fill="#12715B"/>
</svg>
