<svg width="32" height="32" viewBox="0 0 32 32" fill="none" xmlns="http://www.w3.org/2000/svg">
<path fill-rule="evenodd" clip-rule="evenodd" d="M4.00004 3.33301C4.36823 3.33301 4.66671 3.63148 4.66671 3.99967V27.9997C4.66671 28.3679 4.36823 28.6663 4.00004 28.6663C3.63185 28.6663 3.33337 28.3679 3.33337 27.9997V3.99967C3.33337 3.63148 3.63185 3.33301 4.00004 3.33301ZM28 3.33301C28.3682 3.33301 28.6667 3.63148 28.6667 3.99967V27.9997C28.6667 28.3679 28.3682 28.6663 28 28.6663C27.6319 28.6663 27.3334 28.3679 27.3334 27.9997V3.99967C27.3334 3.63148 27.6319 3.33301 28 3.33301ZM15.9763 5.99968H16.0237C16.6249 5.99967 17.1098 5.99967 17.5045 6.0266C17.9103 6.05429 18.2692 6.11266 18.609 6.25341C19.4257 6.59172 20.0747 7.24064 20.413 8.0574C20.5537 8.3972 20.6121 8.75605 20.6398 9.16188C20.6667 9.55656 20.6667 10.0415 20.6667 10.6427V21.3566C20.6667 21.9578 20.6667 22.4428 20.6398 22.8375C20.6121 23.2433 20.5537 23.6022 20.413 23.942C20.0747 24.7587 19.4257 25.4076 18.609 25.7459C18.2692 25.8867 17.9103 25.9451 17.5045 25.9728C17.1098 25.9997 16.6249 25.9997 16.0237 25.9997H15.9764C15.3752 25.9997 14.8903 25.9997 14.4956 25.9728C14.0898 25.9451 13.7309 25.8867 13.3911 25.7459C12.5743 25.4076 11.9254 24.7587 11.5871 23.9419C11.4464 23.6022 11.388 23.2433 11.3603 22.8375C11.3334 22.4428 11.3334 21.9579 11.3334 21.3567V10.6427C11.3334 10.0415 11.3334 9.55655 11.3603 9.16188C11.388 8.75605 11.4464 8.3972 11.5871 8.0574C11.9254 7.24064 12.5743 6.59172 13.3911 6.25341C13.7309 6.11266 14.0898 6.05428 14.4956 6.0266C14.8902 5.99967 15.3752 5.99967 15.9763 5.99968ZM14.5863 7.35684C14.2484 7.37989 14.0516 7.42301 13.9013 7.48525C13.4113 7.68824 13.0219 8.07758 12.8189 8.56764C12.7567 8.7179 12.7136 8.9147 12.6905 9.25264C12.6671 9.59657 12.6667 10.036 12.6667 10.6663V21.333C12.6667 21.9634 12.6671 22.4028 12.6905 22.7467C12.7136 23.0846 12.7567 23.2815 12.8189 23.4317C13.0219 23.9218 13.4113 24.3111 13.9013 24.5141C14.0516 24.5763 14.2484 24.6195 14.5863 24.6425C14.9303 24.666 15.3697 24.6663 16 24.6663C16.6304 24.6663 17.0698 24.666 17.4137 24.6425C17.7517 24.6195 17.9485 24.5763 18.0987 24.5141C18.5888 24.3111 18.9781 23.9218 19.1811 23.4317C19.2434 23.2815 19.2865 23.0847 19.3095 22.7467C19.333 22.4028 19.3334 21.9634 19.3334 21.333V10.6663C19.3334 10.036 19.333 9.59657 19.3095 9.25264C19.2865 8.9147 19.2434 8.7179 19.1811 8.56764C18.9781 8.07759 18.5888 7.68824 18.0987 7.48525C17.9485 7.42301 17.7517 7.37989 17.4137 7.35684C17.0698 7.33337 16.6304 7.33301 16 7.33301C15.3697 7.33301 14.9303 7.33337 14.5863 7.35684Z" fill="#12715B"/>
</svg>
