<svg width="24" height="24" viewBox="0 0 24 24" fill="none" xmlns="http://www.w3.org/2000/svg">
<path fill-rule="evenodd" clip-rule="evenodd" d="M19.1601 1.01292C19.4774 1.06441 19.7506 1.26529 19.8944 1.5528L20.7453 3.25466L22.4472 4.10558C22.7347 4.24934 22.9356 4.52254 22.987 4.83983C23.0385 5.15712 22.9344 5.47982 22.7071 5.70712L19.7071 8.70712C19.5195 8.89466 19.2652 9.00001 19 9.00001H16.4142L12.7071 12.7071C12.3165 13.0976 11.6834 13.0976 11.2929 12.7071C10.9023 12.3165 10.9023 11.6834 11.2929 11.2928L15 7.5858V5.00001C15 4.7348 15.1053 4.48044 15.2929 4.29291L18.2929 1.29291C18.5201 1.06561 18.8428 0.961435 19.1601 1.01292ZM17 7.00001H18.5857L20.3118 5.27396L19.5527 4.89444C19.3592 4.79768 19.2023 4.64075 19.1055 4.44723L18.726 3.68818L17 5.41423V7.00001ZM12 3.00001C7.02944 3.00001 3 7.02945 3 12C3 16.9706 7.02944 21 12 21C16.9706 21 21 16.9706 21 12C21 11.4477 21.4477 11 22 11C22.5523 11 23 11.4477 23 12C23 18.0751 18.0751 23 12 23C5.92487 23 1 18.0751 1 12C1 5.92488 5.92487 1.00001 12 1.00001C12.5523 1.00001 13 1.44773 13 2.00001C13 2.5523 12.5523 3.00001 12 3.00001ZM12 8.00001C9.79086 8.00001 8 9.79087 8 12C8 14.2092 9.79086 16 12 16C14.2091 16 16 14.2092 16 12C16 11.4477 16.4477 11 17 11C17.5523 11 18 11.4477 18 12C18 15.3137 15.3137 18 12 18C8.68629 18 6 15.3137 6 12C6 8.6863 8.68629 6.00001 12 6.00001C12.5523 6.00001 13 6.44773 13 7.00001C13 7.5523 12.5523 8.00001 12 8.00001Z" fill="black"/>
</svg>
