<svg width="100" height="100" viewBox="0 0 100 100" fill="none" xmlns="http://www.w3.org/2000/svg">
<circle cx="36.5" cy="38.5" r="16.5" fill="#0AB975" fill-opacity="0.13"/>
<path fill-rule="evenodd" clip-rule="evenodd" d="M72.1213 45.8787C72.6839 46.4413 73 47.2044 73 48V72H31V33C31 32.2044 31.3161 31.4413 31.8787 30.8787C32.4413 30.3161 33.2044 30 34 30H58C58.7956 30 59.5587 30.3161 60.1213 30.8787C60.6839 31.4413 61 32.2044 61 33V45H70C70.7957 45 71.5587 45.3161 72.1213 45.8787ZM58 33H34V69H58V33ZM61 48V69H70V48H61ZM43 39H40V45H43V39ZM43 48H40V54H43V48ZM49 39H52V45H49V39ZM52 48H49V54H52V48ZM40 57H43V63H40V57ZM52 57H49V63H52V57Z" fill="#0AB975"/>
</svg>
