<svg width="229" height="69" viewBox="0 0 229 69" fill="none" xmlns="http://www.w3.org/2000/svg">
<g clip-path="url(#clip0_78_41)">
<mask id="mask0_78_41" style="mask-type:luminance" maskUnits="userSpaceOnUse" x="0" y="0" width="229" height="69">
<path d="M0 0H229V69H0V0Z" fill="white"/>
</mask>
<g mask="url(#mask0_78_41)">
<path d="M228.4 11.7998C229.2 11.9998 228.5 11.9998 228.1 12.2998L228.4 11.7998Z" fill="#100F12"/>
<path d="M228.1 12.2998L228 12.6998C227.9 12.4998 228 12.3998 228.1 12.2998Z" fill="#100F12"/>
<path d="M228.2 14.0999C228 15.0999 226.9 15.9999 226.1 15.3999C227.1 15.1999 227.1 13.8999 228.2 14.0999Z" fill="#100F12"/>
<path d="M226.5 13.4004C226.3 13.5004 226 14.0004 225.4 14.1004C225.733 13.8337 226.1 13.6004 226.5 13.4004Z" fill="#100F12"/>
<path d="M224.4 17.8004C224.5 17.0004 224 16.9004 224 16.3004C224.8 15.5004 225.3 17.0004 226.1 15.9004C226.2 16.1004 225.1 18.4004 225.1 18.4004C224.967 18.0671 224.733 17.8671 224.4 17.8004Z" fill="#100F12"/>
<path d="M180.4 43.5004C180.333 43.5004 180.3 43.5337 180.3 43.6004C180.3 43.5004 180.3 43.4004 180.4 43.5004Z" fill="#100F12"/>
<path d="M188.9 41.1006C189.033 40.9006 189.133 40.7339 189.2 40.6006C189.2 40.8006 189.1 41.0006 188.9 41.1006Z" fill="#100F12"/>
<path d="M152.7 51.3006C152.433 51.3673 152.2 51.3673 152 51.3006C152.4 51.2006 152.6 51.2006 152.7 51.3006Z" fill="#100F12"/>
<path d="M171.2 45.4004C171.067 45.5337 170.933 45.6004 170.8 45.6004C170.933 45.4671 171.067 45.4004 171.2 45.4004Z" fill="#100F12"/>
<path d="M215.6 27.7998C215.5 28.0998 215.3 28.1998 215.1 28.1998C215.1 27.9998 215.3 27.7998 215.6 27.7998Z" fill="#100F12"/>
<path d="M209.2 33.2002C209.3 33.3002 209.3 33.3002 209.2 33.2002Z" fill="#100F12"/>
<path d="M215.1 28.2002C215.233 28.5335 215.267 28.9002 215.2 29.3002C215.2 29.3002 213.8 29.2002 213.3 29.5002C212.8 28.3002 214.5 28.3002 215.1 28.2002Z" fill="#100F12"/>
<path d="M180.5 43.7006C180.5 43.4006 180.8 43.4006 180.5 43.7006Z" fill="#100F12"/>
<path d="M184.8 42.7002C184.666 42.7669 184.533 42.8335 184.4 42.9002C184.5 42.8002 184.6 42.7002 184.8 42.7002Z" fill="#100F12"/>
<path d="M198.3 34.1006C198.3 34.1673 198.3 34.2006 198.3 34.2006C198.2 34.1006 198.3 34.1006 198.3 34.1006Z" fill="#100F12"/>
<path d="M184.4 42.9004C184.4 43.0004 184.3 43.1004 184.1 43.1004C184.233 43.0337 184.333 42.9671 184.4 42.9004Z" fill="#100F12"/>
<path d="M37.8001 43.2002C38.0671 43.3335 38.3671 43.3669 38.7001 43.3002C38.8001 44.0002 37.5001 43.5002 37.3001 43.1002C38.6001 42.4002 37.7001 42.9002 37.8001 43.2002Z" fill="#100F12"/>
<path d="M99.1 63.7C99.1 63.7 99.3 64.2 98.6 64.3C98.733 63.5667 98.667 62.8 98.4 62C99.4 62.7 98.4 62.4 99.1 63.7Z" fill="#100F12"/>
<path d="M47.7001 48.7002C47.8331 48.7669 47.9671 48.8002 48.1001 48.8002C47.8001 48.9002 47.7001 48.8002 47.7001 48.7002Z" fill="#100F12"/>
<path d="M156.5 61.9004C156.633 61.9671 156.8 62.0004 157 62.0004C156.7 62.1004 156.6 62.0004 156.5 61.9004Z" fill="#100F12"/>
<path d="M83.5 50.8C83.5 51.7 83.3 50.8 82.7 51.1C82.567 50.9 82.467 50.7 82.4 50.5C82.8 50.5667 83.167 50.6667 83.5 50.8Z" fill="#100F12"/>
<path d="M102.1 62.1006C102.8 62.2006 103.5 62.2006 104.1 62.2006C103.7 62.4006 102.3 62.5006 102.1 62.1006Z" fill="#100F12"/>
<path d="M220.7 16.7998C220.4 16.0998 221.4 15.8998 222.8 16.4998C221.866 16.8331 221.1 17.3665 220.5 18.0998C220.566 17.6998 220.633 17.2665 220.7 16.7998Z" fill="#100F12"/>
<path d="M223.8 21.3004C223.6 20.9004 223.1 21.1004 223.6 20.4004C223.666 20.7337 223.733 21.0337 223.8 21.3004Z" fill="#100F12"/>
<path d="M215.6 30.7998L216.1 29.7998C216.6 29.8998 216.1 31.1998 215.6 30.7998Z" fill="#100F12"/>
<path d="M213.8 23.0002C214.4 22.8002 213.9 22.1002 214.8 22.3002C214.733 22.9002 214.4 23.1335 213.8 23.0002Z" fill="#100F12"/>
<path d="M213.5 32.6C212.7 32.2 212.9 33.6 212.2 33.1C212.6 33.1 212.9 32 213.5 32.6Z" fill="#100F12"/>
<path d="M209 26.1C208.7 25.3 209.6 25.5 210 25C209.6 25.3 209.5 26.4 209 26.1Z" fill="#100F12"/>
<path d="M207.7 34.3004C208.3 34.9004 209.3 33.5004 208 33.9004C208.533 33.7671 209.067 33.6004 209.6 33.4004C209.067 34.0671 208.933 34.7671 209.2 35.5004C208.333 35.5004 207.833 35.1004 207.7 34.3004Z" fill="#100F12"/>
<path d="M207.8 27C207.866 26.4 208.066 25.9 208.4 25.5C208.7 26 208.8 26.9 208.8 27.2C208.7 27.7 208.2 26.6 207.8 27Z" fill="#100F12"/>
<path d="M208.8 36.5004C208 37.0337 207.133 37.3004 206.2 37.3004C206.6 36.8004 207.8 36.1004 208.8 36.5004Z" fill="#100F12"/>
<path d="M206.6 29.6002C206.334 29.3335 206.1 29.1002 205.9 28.9002C205.7 29.1002 207.4 28.8002 206.9 28.7002C206.2 29.1002 207.2 29.4002 206.6 29.6002Z" fill="#100F12"/>
<path d="M203 29.2002C204 28.9002 203.5 29.7002 204 30.2002C203.667 30.2669 203.333 30.3669 203 30.5002C203 30.0335 203 29.6002 203 29.2002Z" fill="#100F12"/>
<path d="M203.5 31.5998C202.833 31.5331 202.167 31.4331 201.5 31.2998C202.4 31.2998 203 31.4998 203.5 31.5998Z" fill="#100F12"/>
<path d="M192.4 45.7003C192.7 45.9003 191.9 46.9003 192.3 46.2003C192 46.0003 192.4 45.1003 192.4 45.7003Z" fill="#100F12"/>
<path d="M189.1 38.5006C189.8 38.3006 191.1 37.3006 191.3 37.8006C191.2 38.3006 189.7 38.4006 189.1 38.5006Z" fill="#100F12"/>
<path d="M166.5 46.7006C166.5 46.7006 166.433 46.6673 166.3 46.6006C166.367 46.6673 166.433 46.7006 166.5 46.7006Z" fill="#100F12"/>
<path d="M166.5 46.7003C167 46.6003 168.1 46.3003 168.5 46.8003C167.833 46.7336 167.167 46.7003 166.5 46.7003Z" fill="#100F12"/>
<path d="M162.1 48.7002C162.5 48.9002 162.8 48.6002 162.8 49.0002C162.7 49.3002 162 49.0002 162.1 48.7002Z" fill="#100F12"/>
<path d="M127.1 67.6006C126.5 67.9006 126.2 67.7006 126.3 67.1006C127 67.1006 126.6 67.5006 127.1 67.6006Z" fill="#100F12"/>
<path d="M122 68.3006C121.7 68.2006 121.5 68.2006 121.7 68.1006C121.7 68.2006 121.8 68.3006 122 68.3006Z" fill="#100F12"/>
<path d="M121.2 68.7002C121.1 68.0002 120.1 68.1002 121.3 67.2002C121.7 67.5002 120.7 68.1002 121.2 68.7002Z" fill="#100F12"/>
<path d="M117 67.1006C116.1 67.7006 117.7 67.7006 117.9 67.9006C115.2 69.0006 115.6 65.9006 114 65.5006C115.9 65.1006 115.3 67.6006 117 67.1006Z" fill="#100F12"/>
<path d="M117.2 66.3006C117.5 66.2006 118 65.5005 118.3 66.0005C118.4 66.6005 117.5 66.6006 117.2 66.3006Z" fill="#100F12"/>
<path d="M112.2 68.1004C112 67.8004 111.1 67.8004 111.7 67.4004L112.2 68.1004Z" fill="#100F12"/>
<path d="M108.5 67.1004C108.5 67.1004 107.4 67.8004 108.4 68.0004C107.9 68.1004 107.3 66.6004 108.5 67.1004Z" fill="#100F12"/>
<path d="M101.8 65.4005C101.467 65.2672 101.133 65.1338 100.8 65.0005C101 64.9005 102.1 64.9005 101.8 65.4005Z" fill="#100F12"/>
<path d="M103.4 61.4C102.6 61.4 102.7 61.6 101.8 61.4C102.2 60.6 102.7 61.6 103.4 61.4Z" fill="#100F12"/>
<path d="M100.8 66.2C100.6 66.7 99.7998 66.5 99.7998 66C99.9998 66.4 100.5 66.2 100.8 66.2Z" fill="#100F12"/>
<path d="M96.3999 63.9004C97.8999 64.6004 98.7999 65.4004 99.3999 66.7004C98.2999 66.8004 98.8999 65.5004 98.0999 65.5004C95.6999 67.3004 96.9999 65.3004 96.3999 63.9004Z" fill="#100F12"/>
<path d="M100.9 62.9004C100.3 62.8004 99.7999 62.0004 99.9999 62.1004C100.333 62.3671 100.633 62.6337 100.9 62.9004Z" fill="#100F12"/>
<path d="M90.9998 63.2007C91.2668 63.334 91.5328 63.5007 91.7998 63.7007C90.3998 63.234 90.1328 63.0674 90.9998 63.2007Z" fill="#100F12"/>
<path d="M90.8999 63.9004C90.6999 63.8004 90.3999 64.1004 89.8999 63.4004C90.2329 63.5337 90.5669 63.7004 90.8999 63.9004Z" fill="#100F12"/>
<path d="M90.2998 64.4004C90.0328 64.2671 89.7328 64.1004 89.3998 63.9004C89.7998 64.0004 89.9998 64.2004 90.2998 64.4004Z" fill="#100F12"/>
<path d="M87.8999 63.6001C87.4999 63.2668 87.0669 63.2334 86.5999 63.5001C86.7329 63.3668 86.8669 63.2334 86.9999 63.1001C87.4669 62.9668 87.7669 63.1334 87.8999 63.6001Z" fill="#100F12"/>
<path d="M80.6999 49.5002C81.2999 49.4335 81.3329 49.7002 80.7999 50.3002C80.7999 50.0335 80.7669 49.7669 80.6999 49.5002Z" fill="#100F12"/>
<path d="M79.2 50.0002C79.7 50.7002 78.8 49.4002 78.7 49.2002C79.367 49.5335 79.967 49.9669 80.5 50.5002C80.033 50.3669 79.6 50.2002 79.2 50.0002Z" fill="#100F12"/>
<path d="M59.2998 43.8C59.2998 43.5333 59.3668 43.2667 59.4998 43C59.8328 43.2667 60.1668 43.5333 60.4998 43.8C61.0998 44 60.8998 44.1 61.7998 45.3C61.0668 44.7 60.2328 44.2 59.2998 43.8Z" fill="#100F12"/>
<path d="M66.6998 25.3998L66.9998 25.2998C67.0998 25.9998 66.8998 25.4998 66.6998 25.3998Z" fill="#100F12"/>
<path d="M66.6997 25.4005L66.4997 25.5005C66.5667 25.3672 66.6327 25.3338 66.6997 25.4005Z" fill="#100F12"/>
<path d="M65 25.7998C65.3 26.2998 65.9 25.5998 66 26.4998C65.6 26.9998 65 26.6998 65 25.7998Z" fill="#100F12"/>
<path d="M63.7999 26.9004C63.7999 27.0004 63.7999 25.3004 64.0999 24.9004C65.5999 25.0004 63.7999 26.9004 63.7999 26.9004Z" fill="#100F12"/>
<path d="M41.1001 17.6001C41.0331 17.6001 41.0001 17.6001 41.0001 17.6001C41.0001 17.6001 41.1001 17.5001 41.1001 17.6001Z" fill="#100F12"/>
<path d="M44.5999 20.1004C44.7329 20.0337 44.8329 19.9671 44.8999 19.9004C44.8329 20.0337 44.7329 20.1004 44.5999 20.1004Z" fill="#100F12"/>
<path d="M28.6001 12.0998C28.4001 12.0331 28.2331 11.9331 28.1001 11.7998C28.4001 11.8998 28.5001 11.9998 28.6001 12.0998Z" fill="#100F12"/>
<path d="M37.3999 14.7002C37.2669 14.7669 37.1669 14.8002 37.0999 14.8002C37.2329 14.7335 37.3329 14.7002 37.3999 14.7002Z" fill="#100F12"/>
<path d="M57.3999 26.4998C57.2999 26.5998 57.1999 26.4998 57.1999 26.3998C57.2999 26.2998 57.3999 26.1998 57.3999 26.4998Z" fill="#100F12"/>
<path d="M57.1997 26.4003C57.0667 26.667 56.9327 26.9336 56.7997 27.2003C56.7997 27.2003 56.2997 25.9003 56.2997 25.8003C56.9997 25.7003 56.7997 25.7003 57.1997 26.4003Z" fill="#100F12"/>
<path d="M40.9998 17.8C41.0998 17.6 41.1998 17.7 40.9998 17.8Z" fill="#100F12"/>
<path d="M42.7998 19.1997C42.7328 19.1997 42.6668 19.1997 42.5998 19.1997C42.5998 19.1997 42.6998 19.0997 42.7998 19.1997Z" fill="#100F12"/>
<path d="M42.4001 19.2002C42.4671 19.2002 42.5331 19.2002 42.6001 19.2002C42.5001 19.2002 42.4001 19.3002 42.4001 19.2002Z" fill="#100F12"/>
<path d="M34.1 44.5006C33.5 44.3673 33.5 44.2339 34.1 44.1006C34.167 44.4339 34.3 44.4339 34.5 44.1006C34.5 44.1006 33.3 45.5006 34.1 44.5006Z" fill="#100F12"/>
<path d="M31.5997 40.1C31.5327 40.0333 31.4997 40 31.4997 40C31.5997 40 31.6997 40 31.5997 40.1Z" fill="#100F12"/>
<path d="M26.0997 22.2002C26.0997 22.3335 26.1327 22.4335 26.1997 22.5002C26.0667 22.4335 26.0327 22.3335 26.0997 22.2002Z" fill="#100F12"/>
<path d="M15 30.7C15.9 30.1 14.8 30.8 15.5 30.8C15.3 31.3 15.2 31.4 15 30.7Z" fill="#100F12"/>
<path fill-rule="evenodd" clip-rule="evenodd" d="M8.89964 18.3002C9.63264 18.5002 9.96664 18.9002 9.89964 19.5002C9.63264 19.5669 9.36666 19.6669 9.09966 19.8002C8.89966 20.1002 11.4997 25.6002 11.7997 26.1002C12.1997 26.7002 14.5997 29.8002 14.5997 30.2002C14.7997 30.0002 15.0327 29.8002 15.2997 29.6002C15.5997 29.7002 16.2996 32.2002 16.4996 32.0002C16.7666 31.5335 17.1666 31.3335 17.6996 31.4002C17.7996 31.6002 17.1997 32.8002 18.2997 32.5002C18.0997 32.6002 14.9997 33.8002 16.0997 34.2002C16.2327 34.0669 16.3997 33.9335 16.5997 33.8002C17.3997 34.7002 17.3996 35.8002 18.6996 36.2002C18.7666 36.6669 18.5326 37.0002 17.9996 37.2002C18.8996 37.4002 18.6996 40.2002 19.9996 39.0002C19.9996 39.7002 19.9996 39.3002 20.3996 39.9002C22.0996 38.7002 22.5996 41.5002 23.1996 41.1002C23.2666 41.5669 23.0996 41.9335 22.6996 42.2002C22.2996 41.7002 22.6997 41.6002 22.5997 41.1002C22.4667 41.2335 22.3667 41.2335 22.2997 41.1002C22.6997 42.1002 21.4996 42.1002 22.4996 44.1002C23.0996 45.2002 24.7996 47.3002 25.4996 48.2002C26.3996 49.5002 27.8996 49.9002 26.6996 51.4002C27.8996 51.7002 27.6997 54.7002 28.5997 54.5002C28.5997 54.1669 28.7667 54.0002 29.0997 54.0002C27.9997 55.1002 31.0996 54.3002 29.8996 55.6002C30.3666 55.8002 30.7326 55.7002 30.9996 55.3002C31.1996 57.7002 32.4996 59.2002 34.6996 60.3002C35.4326 60.1669 36.1666 59.9669 36.8996 59.7002C36.7666 60.3002 37.0326 60.6002 37.6996 60.6002C37.8326 60.4669 37.9667 60.3335 38.0997 60.2002C37.4997 60.1002 36.7997 59.0002 36.2997 58.8002C35.8997 58.5002 37.0997 57.2002 37.0997 56.9002C36.5667 56.9669 36.0996 57.1669 35.6996 57.5002C35.3996 57.0002 37.0997 56.4002 37.0997 56.0002C37.0997 55.8002 35.1996 56.6002 35.1996 56.6002C34.6996 55.7002 36.9996 55.9002 36.9996 54.9002C36.5326 55.2335 36.0326 55.3335 35.4996 55.2002C36.0326 54.5335 36.4667 53.8002 36.7997 53.0002C36.7997 53.0002 35.0996 54.2002 34.9996 54.2002C35.9996 53.4002 35.1996 52.3002 36.1996 51.5002C35.8666 51.7002 35.4666 51.8335 34.9996 51.9002C35.9996 50.9002 34.8996 51.6002 35.6996 51.1002C34.6996 50.8002 35.9996 48.1002 35.4996 47.6002C35.2996 47.8002 32.4997 49.4002 32.2997 49.4002C32.3997 49.0002 33.4996 46.4002 34.1996 47.5002C34.1996 47.4002 34.1996 45.8002 34.6996 45.1002C34.2996 45.2002 34.0996 45.2002 34.3996 44.6002C33.4996 45.0002 34.3996 45.3002 33.3996 45.8002C32.2996 44.8002 34.1996 44.0002 33.8996 43.2002C32.6996 40.4002 33.0996 43.5002 32.6996 42.5002C32.4996 42.0002 31.6997 39.5002 31.0997 40.5002C30.7997 39.2002 27.9997 33.2002 26.2997 34.3002C26.1997 34.0002 27.0996 33.6002 27.1996 33.3002C29.1996 34.8002 29.4996 37.7002 31.6996 38.7002C31.5996 38.6002 33.4997 35.7002 33.5997 35.3002C33.9997 36.4002 33.5996 37.8002 34.8996 38.4002C34.4996 39.0002 34.0326 39.0669 33.4996 38.6002C33.8996 39.2002 35.9996 39.8002 35.8996 40.8002C34.7996 39.9002 35.1996 43.1002 35.9996 43.1002C36.1326 42.7669 36.1996 42.4335 36.1996 42.1002C36.7996 42.2335 37.1667 42.5669 37.2997 43.1002C37.9997 42.0002 36.0996 42.2002 36.9996 41.0002C39.0996 41.9002 39.1996 44.4002 40.9996 45.5002C42.2996 46.3002 41.9996 45.3002 43.4996 46.0002C46.2996 47.4002 47.3996 48.4002 49.6996 49.5002C50.8996 50.1002 63.5996 54.8002 64.4996 54.4002C64.2996 54.6002 64.0996 54.8002 63.8996 55.0002C63.8996 55.7002 68.0997 57.2002 69.0997 57.4002C70.1997 57.6002 71.2996 57.1002 72.3996 57.5002C73.4996 57.8002 73.7997 58.9002 75.2997 59.3002C74.3997 59.6002 75.7996 60.0002 75.9996 60.2002C76.0666 59.6002 75.9327 59.1002 75.5997 58.7002C77.3997 58.5002 76.8997 61.9002 78.7997 60.0002C78.3997 59.9335 78.0667 59.7669 77.7997 59.5002C78.5327 59.3002 79.2326 59.4669 79.8996 60.0002C79.6996 60.2669 79.4666 60.4669 79.1996 60.6002C79.6996 60.6002 81.8996 61.3002 81.9996 61.3002C82.9996 61.6002 83.1997 62.5002 84.0997 62.6002C84.6997 61.9002 83.5997 61.1002 85.0997 61.4002C86.6997 61.7002 84.8996 62.7002 86.1996 63.3002C86.5996 62.5002 86.4326 61.8335 85.6996 61.3002C86.6326 61.1669 86.9327 60.7002 86.5997 59.9002C88.4997 62.0002 93.5997 62.2002 92.5997 65.3002C92.9327 65.4335 93.2667 65.6002 93.5997 65.8002C93.9997 65.6002 93.0997 63.8002 93.7997 64.1002C94.5997 64.5002 95.1997 64.4002 94.0997 65.7002C95.0997 65.2002 95.0997 66.6002 95.7997 66.2002C94.4997 65.7002 96.7997 64.8002 95.0997 64.5002C95.1997 64.0002 94.9996 64.1002 94.8996 62.9002C95.6996 63.1002 96.4666 63.3335 97.1996 63.6002C97.0996 62.7002 95.8997 63.3002 95.5997 62.4002C96.1997 62.2002 97.7996 62.7002 98.1996 62.0002C98.1996 62.0002 96.0996 61.9002 96.4996 61.4002C96.9996 60.8002 97.3996 59.7002 98.3996 60.3002C98.9996 61.3002 97.6996 61.0002 97.3996 60.8002C97.3326 61.0002 97.2997 61.1669 97.2997 61.3002C98.2997 61.1002 101 62.8002 101.8 62.2002C101.467 62.0669 101.1 61.9002 100.7 61.7002C101.1 60.2002 105.1 60.3002 104.6 61.6002C104.4 61.5335 104.2 61.4669 104 61.4002C104.2 61.9335 104.533 62.0669 105 61.8002C104.8 62.1002 105 63.5002 104 63.8002C103.7 62.9002 102.4 62.2002 101.3 62.8002C101.3 64.2002 102.8 62.9002 103.7 64.1002C102.2 63.9002 104.4 66.5002 105.2 66.6002C105 66.2669 104.833 65.9002 104.7 65.5002C106.1 65.5002 106 66.7002 106.6 67.5002C107.4 67.4002 108.2 66.7002 109.2 66.7002C110.1 66.6002 109.9 67.6002 110.6 67.8002C110.333 67.0002 109.833 66.5002 109.1 66.3002C109.3 66.3002 109.3 66.2335 109.1 66.1002C109.7 65.7002 110.7 66.9002 111.1 66.5002C110.6 66.9002 106.8 62.6002 105.2 64.0002C105.067 63.2002 105.267 62.5002 105.8 61.9002C106.5 62.6002 112.8 65.8002 112.9 66.4002C112.9 65.8669 113.167 65.7335 113.7 66.0002C113.5 65.7335 113.3 65.5002 113.1 65.3002C115 61.7002 118.9 67.3002 120.8 66.9002C121.2 66.1002 119.4 66.1002 120.3 65.3002C122.4 65.2002 123.3 66.5002 123.3 68.2002C123.567 68.0669 123.833 67.9669 124.1 67.9002C123.833 67.7002 123.567 67.5335 123.3 67.4002C123.7 67.0002 124.2 66.8002 124.8 66.8002C124.667 66.6002 124.533 66.4002 124.4 66.2002C125.8 65.6002 127.5 66.8002 129 67.4002C128.8 67.5335 128.567 67.6669 128.3 67.8002C128.633 67.7335 128.967 67.6335 129.3 67.5002C130 67.9002 128.7 68.4002 129.8 68.5002C129.1 67.6002 130.8 67.5002 130.7 66.6002C130.033 66.9335 129.6 66.8002 129.4 66.2002C130.6 66.1002 133.1 63.7002 131.2 67.9002C131.5 68.2002 132.9 64.9002 132.7 64.5002C133.966 65.1669 135.3 65.5669 136.7 65.7002C136.566 65.5002 136.433 65.3002 136.3 65.1002C137.1 65.5002 137.1 64.7002 138 65.1002C138.066 65.1669 138.066 65.2335 138 65.3002C139.7 64.6002 145.3 64.5002 147 64.2002C149.5 63.7002 151 63.3002 153 61.9002C153.4 62.3669 153.3 62.6002 152.7 62.6002C154.7 63.4002 154.9 61.5002 156.5 61.9002C155.8 61.3002 154.8 61.6002 154.5 60.6002C154.5 60.6002 162.3 61.8002 162.2 59.6002C162.6 59.4669 162.9 59.6002 163.1 60.0002C163.633 59.4669 163.533 59.0002 162.8 58.6002C165.8 58.1002 176.4 57.2002 177.4 53.0002C179.3 54.6002 184.3 49.7002 186.3 48.4002C187.2 48.5002 188.2 48.8002 188.8 48.2002C188.6 47.8669 188.4 47.5669 188.2 47.3002C189.466 47.3669 190.766 47.3669 192.1 47.3002C191.766 47.1669 191.566 46.9002 191.5 46.5002C191.766 46.4335 192.033 46.3335 192.3 46.2002C191.4 46.2002 192.5 45.8002 191.6 45.7002C191 44.6002 193.2 43.8002 192.8 44.7002C193 44.3002 192.9 44.0335 192.5 43.9002C193.5 42.7002 194 44.5002 193.7 45.2002C195.9 41.1002 202.4 42.6002 206 37.8002C205 37.8002 203.5 39.2002 202.6 39.0002C202.733 38.9335 202.866 38.8669 203 38.8002C202.666 38.9335 202.3 38.9335 201.9 38.8002C202.3 38.5002 203.7 37.5002 203.8 37.4002C202.5 38.0002 203.6 36.8002 202.8 36.6002C203.4 36.4002 204.8 35.3002 203.5 37.2002C203.8 37.3002 207.7 35.5002 207.7 35.5002C207.8 35.4002 206.3 35.3002 207.1 34.4002C207.8 33.5002 208.6 32.5002 209.2 31.5002C209.066 32.1002 209.066 32.6669 209.2 33.2002C209.533 32.9335 209.933 32.8335 210.4 32.9002C210.2 32.9002 210 32.8669 209.8 32.8002C210.266 32.3335 210.766 32.2335 211.3 32.5002C211.7 31.8335 211.533 31.5669 210.8 31.7002C212.4 30.0002 210.7 31.4002 211.6 29.6002C211.8 29.9335 212 30.3002 212.2 30.7002C212.5 30.1002 215.1 26.7002 215.3 26.4002C214.7 27.1002 212.3 27.0002 212.3 25.7002C213.9 25.5002 213.9 26.2002 214.9 26.1002C215.5 25.9002 216.033 26.0002 216.5 26.4002C216.7 25.7335 217.133 25.3002 217.8 25.1002C217.6 24.8335 217.433 24.5335 217.3 24.2002C217.7 24.0002 217.9 24.0002 218 24.0002C217.933 23.9335 217.9 23.8002 217.9 23.6002C218 23.2002 219 23.3002 219.2 23.4002C219 23.1002 221.2 21.5002 221.7 21.4002C220.4 21.1002 218 22.6002 217.6 22.1002C217.7 19.8002 222.3 20.8002 222.8 20.1002C222.4 19.8335 222.3 19.5002 222.5 19.1002C223.8 19.1002 223.7 19.9002 224.7 18.4002C224.2 18.4002 222.6 16.7002 221.7 17.8002C222.3 17.6002 222.8 17.7335 223.2 18.2002C222.666 18.8669 221.966 19.2335 221.1 19.3002C221.1 18.2002 219.2 18.5002 218.7 18.0002C218.5 18.4002 218.166 18.7002 217.7 18.9002C218.2 20.3002 217.6 18.9002 216.8 20.6002C217 20.8002 218.7 20.0002 218.4 20.9002C218.1 20.6002 216.2 22.9002 215 23.0002C215.466 23.0669 215.933 23.0669 216.4 23.0002C215.7 23.3002 216.1 25.0002 215 24.8002C215.066 24.6002 215.133 24.4002 215.2 24.2002C214.866 24.6669 214.433 24.9002 213.9 24.9002C213.366 24.5002 213.3 24.0335 213.7 23.5002C212.9 24.3002 210.7 27.0002 210.3 26.3002C210.766 26.0335 210.833 25.7335 210.5 25.4002C210.9 26.2002 209.9 25.4002 209.7 25.8002C211.5 25.9002 208.8 27.9002 208.5 28.0002C208.3 28.9002 208.7 28.0002 208 29.0002C208.666 29.5335 208.9 30.2002 208.7 31.0002C207.7 30.8002 206.8 29.5002 205.7 30.0002C205.966 30.2002 206.233 30.4002 206.5 30.6002C205.5 32.8002 204.9 29.3002 204.7 28.7002C204.6 28.6002 204.3 32.3002 203.7 32.7002C201.8 33.8002 202.1 31.9002 201.3 31.5002C200.7 33.1002 196.3 35.6002 196.2 35.7002C195.9 35.9002 193.9 37.5002 195 37.3002C194.5 37.9002 192.5 37.6002 193.5 38.4002C193.2 38.8002 193.3 38.4002 193.1 38.7002C192.9 38.7002 191.6 39.2002 191.6 39.2002C191.666 39.0002 191.733 38.8002 191.8 38.6002C191.2 38.9002 189.9 39.7002 189.3 39.7002C188.5 39.8002 187.1 39.4002 186.1 39.8002C187.4 43.3002 182.6 43.0002 180.6 43.7002C180.1 43.9002 177.7 47.5002 177 46.7002C177.4 45.9669 177.9 45.2669 178.5 44.6002C177.9 44.8002 175.7 44.8002 175.9 44.1002C175.366 44.3002 175.266 44.6335 175.6 45.1002C173.8 46.4002 174 42.6002 171.2 45.4002C171.9 45.0002 176.7 45.7002 176.7 45.8002C176.8 45.9002 175.3 48.2002 175 48.3002C175.3 47.8002 173.9 47.5002 174.9 47.3002C173.5 47.2002 172.5 47.8002 171.1 47.9002C172.3 47.6002 170.3 47.0002 170.8 46.4002C171 47.3002 172.4 47.1002 172.9 47.0002C172.7 46.3002 171.4 47.0002 172.2 45.9002C171 45.8002 168.3 46.8002 167.9 47.8002C168.166 47.8669 168.433 47.9335 168.7 48.0002C168.3 48.4669 167.966 48.9335 167.7 49.4002C166.7 49.4002 166 48.3002 164.2 49.7002C165.3 49.3002 164.7 50.6002 165.7 50.2002C164.2 51.9002 162 49.2002 160.4 49.1002C159.1 48.9002 158.2 50.3002 156.8 49.8002C157.3 50.1002 156.7 51.7002 155.6 51.3002C155.8 51.0335 156 50.7335 156.2 50.4002C154.933 50.4002 153.766 50.7002 152.7 51.3002C152.766 51.7002 153 51.9669 153.4 52.1002C153.8 53.7002 151.5 52.1002 151.7 52.1002C150.5 52.3002 147.7 52.2002 145.9 52.6002C140.9 53.6002 135.9 54.1002 130.9 54.6002C122.7 55.2002 116.4 55.3002 108.1 55.1002C101.8 55.0002 98.7996 54.5002 93.6996 52.5002C91.7996 51.8002 91.1997 51.6002 89.2997 51.6002C88.3997 51.6002 85.0997 51.2002 84.7997 51.0002C84.8667 51.4002 84.9667 51.7669 85.0997 52.1002C83.8997 52.2002 82.6997 51.4002 81.5997 51.0002C81.6667 51.1335 81.7327 51.2669 81.7997 51.4002C80.9327 51.6002 80.1997 51.3335 79.5997 50.6002C79.9997 51.2669 79.8666 51.7669 79.1996 52.1002C78.9996 51.7002 77.2996 50.5002 76.6996 51.3002C76.7996 51.0002 78.9997 47.7002 76.5997 48.1002C76.5997 48.3669 76.5666 48.6002 76.4996 48.8002C75.7666 48.6669 75.2326 48.2669 74.8996 47.6002C73.6996 47.6002 70.6996 47.5002 69.8996 47.2002C70.0996 47.3002 63.9996 42.7002 64.1996 45.0002C63.2996 44.5002 62.7996 44.3002 62.4996 43.4002C62.2326 43.4669 61.9666 43.5669 61.6996 43.7002C62.0996 44.2335 62.4667 44.8002 62.7997 45.4002C61.6997 45.3002 57.1996 43.5002 57.1996 43.9002C56.5326 43.5669 56.1996 43.0669 56.1996 42.4002C56.8996 42.6002 57.2996 43.1002 57.8996 43.7002C57.8996 43.5002 57.9996 43.4335 58.1996 43.5002C56.8996 42.7002 57.9997 42.1002 57.5997 41.7002C55.6997 39.8002 52.1997 39.5002 49.7997 38.6002C46.6997 37.5002 45.4996 35.5002 42.9996 34.0002C42.5996 33.8002 39.7997 33.0002 40.0997 33.1002C38.5997 32.2002 33.5996 26.0002 32.1996 26.6002C32.2666 26.8002 32.3326 27.0002 32.3996 27.2002C31.8996 26.6002 27.3997 24.8002 28.0997 25.7002C26.9997 24.4002 25.5996 23.4002 24.4996 21.8002C25.2996 22.1002 25.0996 21.9002 25.4996 21.2002C25.4996 21.6002 25.1996 22.0002 25.4996 22.4002C25.6996 21.7002 25.7997 21.7002 26.0997 22.2002C26.0997 21.9002 25.6997 20.1002 26.2997 20.2002C26.5997 22.1002 27.7996 23.2002 28.8996 22.5002C29.1666 22.6335 29.2327 22.8669 29.0997 23.2002C29.4997 22.8669 29.6326 22.4335 29.4996 21.9002C29.9666 22.6335 30.5326 23.2669 31.1996 23.8002C32.9996 22.3002 34.4996 25.6002 36.4996 23.6002C36.4996 24.0002 36.5327 24.4002 36.5997 24.8002C37.9997 24.3335 39.4666 24.1669 40.9996 24.3002C41.2996 24.8002 41.6996 25.5002 41.8996 25.4002C41.9666 25.0669 42.0327 24.7335 42.0997 24.4002C42.4327 25.0669 42.7996 25.7669 43.1996 26.5002C43.6996 25.7002 44.2996 25.0002 44.4996 24.9002C44.4996 24.7002 44.8996 23.6002 44.9996 24.2002C45.1996 24.7002 44.8996 25.4002 44.4996 25.8002C45.0326 25.5335 45.4996 25.1669 45.8996 24.7002C45.8996 26.4002 48.9996 27.5002 50.9996 27.4002C50.5326 26.9335 50.0326 26.5335 49.4996 26.2002C49.4996 26.3002 49.4997 25.6002 49.7997 25.2002C50.0667 25.3335 50.1667 25.5669 50.0997 25.9002C50.1997 25.7002 50.4996 25.0002 50.4996 24.6002C50.6996 24.8002 51.1996 25.0002 50.4996 25.4002C50.8326 25.6002 51.0327 25.9335 51.0997 26.4002C51.3667 26.2002 51.5666 25.9335 51.6996 25.6002C51.9996 25.7002 51.7997 26.9002 52.2997 26.7002C52.0997 26.8002 53.6996 25.2002 54.1996 24.9002C53.5996 25.5002 53.5997 26.1002 54.0997 26.7002C54.0327 26.5002 53.9666 26.3335 53.8996 26.2002C54.2996 26.2669 54.4996 26.4669 54.4996 26.8002C54.5996 26.5002 55.4996 25.1002 55.6996 25.1002C55.5666 25.4335 55.4666 25.8002 55.3996 26.2002C55.9996 25.7002 57.8996 25.5002 57.8996 25.4002C57.5996 25.0002 56.7997 23.9002 57.2997 22.9002C57.7997 23.7002 58.4996 25.2002 58.1996 26.2002C58.5326 25.8002 58.8327 25.7669 59.0997 26.1002C59.1667 25.7669 59.2327 25.4669 59.2997 25.2002C59.4327 25.3335 59.4996 25.4669 59.4996 25.6002C59.5666 25.5335 59.6326 25.4002 59.6996 25.2002C59.8996 25.0002 60.0997 26.0002 60.0997 26.0002C60.4327 26.2669 60.6326 26.1335 60.6996 25.6002C60.9666 25.8669 61.2326 26.1335 61.4996 26.4002C61.2996 25.2002 60.0996 24.8002 60.1996 24.1002C60.5996 23.5002 61.9997 25.2002 61.7997 25.0002C62.3997 25.0002 61.7997 26.5002 62.2997 26.3002C62.2997 25.9669 62.4326 25.7002 62.6996 25.5002C62.6996 25.6002 62.8996 26.7002 62.9996 26.7002C64.5996 26.8002 62.9996 24.1002 62.8996 24.2002C63.1666 24.5335 63.2327 24.9335 63.0997 25.4002C62.5997 26.1002 61.9996 22.3002 61.9996 22.2002C61.7996 22.2669 61.5996 22.2335 61.3996 22.1002C61.4996 22.3002 61.6997 23.5002 61.0997 23.0002C61.0327 22.6669 60.8326 22.5335 60.4996 22.6002C60.8326 22.9335 60.9327 23.3335 60.7997 23.8002C60.7327 23.6002 60.5996 23.4002 60.3996 23.2002C59.5996 23.6002 60.6997 25.7002 59.0997 22.9002C59.2997 23.9002 59.5996 23.8002 58.6996 24.4002C58.9996 24.2002 57.2997 22.9002 58.5997 22.4002C58.1997 22.4002 57.5996 22.5002 57.4996 21.9002C57.2996 22.1669 57.2327 22.5002 57.2997 22.9002C56.3997 21.9002 57.0996 22.5002 56.9996 21.5002C56.6996 22.4002 56.7996 21.1002 56.4996 21.3002C56.4996 21.7669 56.3996 22.2335 56.1996 22.7002C55.7996 22.6335 55.5326 22.4335 55.3996 22.1002C55.1996 22.6002 55.4996 22.8002 54.8996 22.4002C54.8996 23.0669 54.6997 23.7002 54.2997 24.3002C54.3667 23.3669 54.1997 22.5002 53.7997 21.7002C53.7997 22.0335 53.7997 22.3335 53.7997 22.6002C52.8997 23.3002 54.1997 20.0002 53.7997 20.0002C53.5327 20.9335 53.0327 21.7335 52.2997 22.4002C50.9997 20.0002 52.1996 21.8002 51.9996 20.1002C51.4996 20.6002 48.3996 20.3002 48.8996 20.1002C48.8996 20.1002 47.0996 19.7002 47.8996 20.6002C47.6326 20.5335 47.4666 20.3669 47.3996 20.1002C46.8996 19.6002 46.9996 20.5002 46.9996 20.6002C46.7996 20.7002 46.9997 20.4002 46.7997 20.6002C46.0997 20.5002 45.1997 18.2002 44.2997 17.6002C44.1997 17.8002 42.6996 20.0002 42.1996 19.6002C41.8996 19.3002 41.4996 17.8002 40.9996 17.8002C40.2996 17.9002 40.4996 18.6002 39.4996 19.0002C38.8996 18.8002 39.8996 18.6002 38.8996 18.9002C40.4996 18.4002 38.9996 16.5002 39.3996 15.9002C38.9996 15.9002 38.8326 16.1335 38.8996 16.6002C38.1996 16.7002 38.6996 14.7002 38.6996 14.5002C38.2326 14.2335 37.7996 14.3002 37.3996 14.7002C37.8996 14.8002 39.2996 18.1002 38.6996 18.3002C38.4996 16.9002 37.7996 18.9002 37.4996 18.8002C38.5996 18.0002 36.7996 17.1002 36.3996 16.7002C36.6996 16.9002 36.6997 15.5002 36.7997 15.4002C36.6997 15.9002 37.3997 16.3002 36.7997 16.4002C36.9327 16.5335 37.0997 16.6669 37.2997 16.8002C37.6997 15.6002 36.8997 15.6002 36.5997 14.5002C36.3997 14.9669 36.1327 15.3669 35.7997 15.7002C35.7997 15.3002 35.6327 15.1669 35.2997 15.3002C35.2997 15.8002 35.4997 16.2002 34.5997 16.5002C34.3997 16.2002 34.7997 14.6002 33.2997 15.2002C33.4997 15.5335 33.6326 15.8669 33.6996 16.2002C33.5666 16.3335 33.3996 16.4335 33.1996 16.5002C32.9996 15.9002 32.3996 13.0002 31.9996 12.6002C31.4996 12.3002 31.0996 13.5002 30.6996 12.3002C30.7996 12.7002 29.9996 14.1002 29.6996 13.2002C29.6996 12.2002 30.1997 12.6002 28.5997 12.1002C30.3997 15.1002 26.1996 10.9002 26.9996 11.2002C23.7996 9.8002 20.1996 8.9002 16.8996 7.6002C11.1996 5.2002 5.69965 2.6002 -0.200348 0.700195C2.39965 5.5002 8.49964 14.2002 8.89964 18.3002ZM54.4996 26.9002C54.4996 26.8335 54.4996 26.8002 54.4996 26.8002C54.4996 26.8669 54.4996 26.9002 54.4996 26.9002ZM50.3996 24.5002C50.4666 24.5669 50.4996 24.6002 50.4996 24.6002C50.4326 24.6002 50.3996 24.5669 50.3996 24.5002ZM41.0997 24.3002C41.0327 24.3002 40.9996 24.3002 40.9996 24.3002C40.7996 23.9002 40.6997 23.7002 41.0997 24.3002ZM58.3996 43.6002C58.3326 43.5335 58.2666 43.5002 58.1996 43.5002C58.2666 43.5669 58.3326 43.6002 58.3996 43.6002ZM84.7997 51.0002C84.7327 51.0002 84.7327 51.0002 84.7997 51.0002ZM193.1 38.8002C193.1 38.7335 193.1 38.7002 193.1 38.7002C193.166 38.7002 193.166 38.7335 193.1 38.8002ZM219.3 23.4002C219.3 23.4002 219.266 23.4002 219.2 23.4002C219.2 23.4002 219.233 23.4002 219.3 23.4002ZM202.6 36.6002C202.733 36.6002 202.8 36.6002 202.8 36.6002C202.666 36.6669 202.6 36.6669 202.6 36.6002ZM186.3 48.4002C185.966 48.5335 185.633 48.5335 185.3 48.4002C185.6 48.3002 185.9 48.3002 186.3 48.4002ZM137.7 65.5002C137.9 65.5002 138 65.4335 138 65.3002C137.866 65.3669 137.766 65.4335 137.7 65.5002ZM105.1 61.7002C105.033 61.7669 105 61.8002 105 61.8002C105 61.7335 105.033 61.7002 105.1 61.7002ZM97.3996 60.7002C97.3326 60.7002 97.3326 60.7335 97.3996 60.8002C97.3996 60.8002 97.3996 60.7669 97.3996 60.7002ZM79.0997 60.6002C79.1667 60.6002 79.1996 60.6002 79.1996 60.6002C79.1326 60.6002 79.0997 60.6002 79.0997 60.6002ZM35.1996 44.7002C34.9996 44.7002 34.7996 44.8002 34.6996 45.1002C34.7996 45.0002 34.9996 44.8002 35.1996 44.7002ZM19.8996 40.3002C20.0326 40.1669 20.1996 40.0669 20.3996 40.0002C20.3996 39.9335 20.3996 39.9002 20.3996 39.9002C20.1996 39.9669 20.0326 40.1002 19.8996 40.3002ZM18.2997 32.5002C18.3667 32.5002 18.3667 32.5002 18.2997 32.5002ZM14.4996 30.3002C14.5666 30.3002 14.5997 30.2669 14.5997 30.2002C14.5997 30.2002 14.5666 30.2335 14.4996 30.3002ZM49.7997 20.8002L49.8996 20.6002C49.9996 21.1002 49.8997 20.9002 49.7997 20.8002ZM45.6996 20.2002C45.7996 20.3002 45.8996 20.4002 45.6996 20.2002ZM45.6996 20.2002C45.0996 21.1002 43.7997 19.5002 45.0997 19.4002C45.0997 19.5002 45.4996 20.0002 45.6996 20.2002ZM198.2 35.0002L198.3 34.8002C198.9 35.0002 198.6 34.9002 198.2 35.0002ZM189.1 39.9002C189.6 41.9002 191.5 38.0002 191.5 39.5002C191.5 39.6002 188.9 41.2002 188.7 41.1002C188.833 40.7002 188.966 40.3002 189.1 39.9002ZM21.3996 24.5002C21.6996 24.9002 21.2996 25.1002 20.9996 25.3002C20.4666 25.5669 20.5996 25.3002 21.3996 24.5002ZM18.9996 22.5002C19.0666 22.4335 19.0997 22.4002 19.0997 22.4002C19.1997 22.5002 19.1996 22.5002 18.9996 22.5002ZM17.5997 20.9002C16.8667 20.8335 16.6666 20.6002 16.9996 20.2002C17.1996 20.4669 17.3997 20.7002 17.5997 20.9002ZM15.2997 19.3002C15.6327 19.5669 15.9667 19.8669 16.2997 20.2002C15.8997 20.0002 15.5667 19.7002 15.2997 19.3002ZM17.3996 17.8002C17.3996 17.8002 17.3667 17.8002 17.2997 17.8002C17.2997 17.8002 17.3326 17.8002 17.3996 17.8002ZM21.6996 19.6002C21.4326 19.4669 21.1996 19.2335 20.9996 18.9002C21.2666 19.1669 21.4996 19.4002 21.6996 19.6002ZM16.6996 21.4002C17.6996 21.1002 17.6996 21.9002 17.6996 22.1002C17.2326 22.0335 16.8996 21.8002 16.6996 21.4002Z" fill="#100F12"/>
<path d="M62.5 23.5004C62.9 23.0004 62.9 22.8004 63.2 22.4004C63.6 22.8671 63.767 23.4004 63.7 24.0004C63.367 23.6671 62.967 23.5004 62.5 23.5004Z" fill="#100F12"/>
<path d="M56.2998 28.4006L56.7998 28.1006C56.8998 28.5006 56.2998 29.0006 56.2998 28.4006Z" fill="#100F12"/>
<path d="M58.7998 22.0998C58.9998 22.2998 59.1998 21.5998 59.2998 22.3998C58.9668 22.6665 58.7998 22.5665 58.7998 22.0998Z" fill="#100F12"/>
<path d="M54.5 27.9004C54.6 28.1004 55.1 27.6004 55 28.4004C55 27.6004 54.5 28.6004 54.5 27.9004Z" fill="#100F12"/>
<path d="M56.3 21.1004C56.5 20.4004 56.6 21.1004 57 20.9004C56.7 20.9004 56.3 21.6004 56.3 21.1004Z" fill="#100F12"/>
<path d="M53.6001 26.4002C53.1331 26.6669 52.8671 27.1002 52.8001 27.7002C52.5331 27.0335 52.5331 26.4002 52.8001 25.8002C52.7001 26.6002 53.5001 26.3002 53.0001 25.7002C53.2001 25.9669 53.4001 26.2002 53.6001 26.4002Z" fill="#100F12"/>
<path d="M55.6997 21.0998C54.5997 21.3998 56.6997 20.3998 56.2997 20.2998C56.2997 20.7665 56.0997 21.0331 55.6997 21.0998Z" fill="#100F12"/>
<path d="M51.3997 26.9004C51.7997 27.1671 52.0667 27.5671 52.1997 28.1004C51.1997 27.7671 50.9327 27.3671 51.3997 26.9004Z" fill="#100F12"/>
<path d="M54.1999 22.0007C54.2669 21.6674 54.2999 21.3674 54.2999 21.1007C54.6999 21.0007 54.3999 22.2007 54.1999 22.0007Z" fill="#100F12"/>
<path d="M52.8998 20.4C53.0328 20.0667 53.1998 19.7667 53.3998 19.5C54.3998 20.4 52.4998 20.6 52.8998 20.4Z" fill="#100F12"/>
<path d="M52.1001 20.1006C52.4001 20.6006 52.6001 21.0006 52.6001 21.5006C52.4671 21.0339 52.3001 20.5673 52.1001 20.1006Z" fill="#100F12"/>
<path d="M43.6996 25.8001C43.6996 25.4001 44.1997 25.0001 43.9997 25.4001C43.9997 25.7001 43.3996 26.1001 43.6996 25.8001Z" fill="#100F12"/>
<path d="M45.6996 18.2998C45.9996 18.4998 46.7996 18.4998 46.5996 18.9998C46.3996 19.1998 45.8996 18.5998 45.6996 18.2998Z" fill="#100F12"/>
<path d="M35.4998 14.0999C35.8328 14.0999 35.9667 14.2999 35.8997 14.6999C34.3997 12.8999 35.5998 13.6999 35.4998 14.0999Z" fill="#100F12"/>
<path d="M33 13.6006C33.1 13.9006 33.3 13.8006 33.1 14.1006C33 14.3006 32.9 13.8006 33 13.6006Z" fill="#100F12"/>
<path d="M15.9999 31.7998C16.3999 31.8998 15.7999 32.8998 16.3999 32.1998C16.1999 32.4665 16.0329 32.7331 15.8999 32.9998C15.7669 32.5998 15.7999 32.1998 15.9999 31.7998Z" fill="#100F12"/>
<path d="M20.9001 40.0004C21.2331 39.8671 21.4671 39.6671 21.6001 39.4004C21.4001 40.1004 21.3001 40.7004 21.2001 41.2004C21.2001 41.0004 21.1001 40.1004 20.9001 40.0004Z" fill="#100F12"/>
<path d="M36.4997 58.3006C36.6997 58.2006 36.8997 58.1006 37.1997 58.1006C37.0997 58.5006 36.5997 58.3006 36.4997 58.3006Z" fill="#100F12"/>
</g>
</g>
<defs>
<clipPath id="clip0_78_41">
<rect width="229" height="69" fill="white" transform="matrix(-1 0 0 1 229 0)"/>
</clipPath>
</defs>
</svg>
