<svg width="213" height="152" viewBox="0 0 213 152" fill="none" xmlns="http://www.w3.org/2000/svg">
<g clip-path="url(#clip0_28_35736)">
<path d="M96.0917 69.1736C96.2244 69.1607 96.3271 69.1842 96.3999 69.2441C96.2907 69.1542 96.1815 69.0644 96.0917 69.1736Z" fill="#100F12"/>
<path d="M121.635 62.1725C122.039 62.2002 122.411 62.2311 122.749 62.2653C122.458 62.0256 122.086 61.9947 121.635 62.1725Z" fill="#100F12"/>
<path d="M81.5812 77.0124C81.1896 77.1174 80.831 77.2192 80.5057 77.3178C80.8043 77.2888 81.1029 77.2598 81.5812 77.0124Z" fill="#100F12"/>
<path d="M151.523 59.5721C151.994 59.5934 152.396 59.5879 152.727 59.5557C152.021 59.5238 151.713 59.4533 151.523 59.5721Z" fill="#100F12"/>
<path d="M40.6736 112.029C41.0524 111.792 41.2953 111.534 41.4022 111.255C41.1036 111.284 40.8243 111.512 40.6736 112.029Z" fill="#100F12"/>
<path d="M46.9808 105.59C46.9873 105.656 46.9905 105.689 46.9905 105.689C47.09 105.68 47.09 105.68 46.9808 105.59Z" fill="#100F12"/>
<path d="M51.4395 101.841L51.3399 101.851C51.4491 101.941 51.4491 101.941 51.4395 101.841Z" fill="#100F12"/>
<path d="M41.4022 111.255C42.3685 110.86 43.4122 111.261 42.6893 110.025C43.2479 109.569 43.6608 108.993 43.9282 108.297C42.586 107.925 41.8226 110.411 41.4022 111.255Z" fill="#100F12"/>
<path d="M96.1207 69.4722C95.4239 69.5398 95.9023 69.2924 96.1207 69.4722Z" fill="#100F12"/>
<path d="M88.8558 73.2921C89.1148 73.1999 89.3737 73.1078 89.6327 73.0157C89.3341 73.0447 89.135 73.064 88.8558 73.2921Z" fill="#100F12"/>
<path d="M61.7802 87.2739C61.8401 87.2011 61.9032 87.1615 61.9696 87.155C61.9599 87.0555 61.87 87.1647 61.7802 87.2739Z" fill="#100F12"/>
<path d="M89.6327 73.0157C89.8221 72.8968 90.1207 72.8679 90.3101 72.749C90.0511 72.8411 89.8253 72.93 89.6327 73.0157Z" fill="#100F12"/>
<path d="M188.365 123.411C188.365 123.411 188.615 122.884 187.44 123.199C186.939 124.252 188.541 124.197 187.553 125.399C189.228 124.03 187.354 125.418 188.365 123.411Z" fill="#100F12"/>
<path d="M188.519 125.003C189.027 125.055 188.619 124.994 189.415 124.916C189.083 124.949 188.785 124.978 188.519 125.003Z" fill="#100F12"/>
<path d="M123.066 80.0177C123.085 80.2168 123.104 80.4159 123.124 80.6149C123.194 80.3067 123.175 80.1076 123.066 80.0177Z" fill="#100F12"/>
<path d="M149.006 69.8635C148.707 69.8925 148.418 70.0211 148.229 70.1399C148.627 70.1013 148.916 69.9727 149.006 69.8635Z" fill="#100F12"/>
<path d="M198.348 115.509C198.66 115.278 198.9 114.987 199.067 114.636C198.827 114.927 198.587 115.218 198.348 115.509Z" fill="#100F12"/>
<path d="M155.752 132.103C156.599 131.518 153.745 131.092 153.347 131.131C154.128 131.591 154.93 131.915 155.752 132.103Z" fill="#100F12"/>
<path d="M130.657 114.747C130.664 114.813 130.743 114.939 130.895 115.125C130.816 114.999 130.737 114.873 130.657 114.747Z" fill="#100F12"/>
<path d="M193.203 122.539C194.14 121.845 194.968 121.062 195.896 120.268C195.328 120.625 193.245 121.932 193.203 122.539Z" fill="#100F12"/>
<path d="M199.876 106.419C199.883 106.485 199.919 106.515 199.986 106.509C199.913 106.449 199.876 106.419 199.876 106.419Z" fill="#100F12"/>
<path d="M66.7239 84.3826C66.5912 84.3955 66.4286 84.4448 66.2359 84.5305C66.3686 84.5176 66.5313 84.4683 66.7239 84.3826Z" fill="#100F12"/>
<path fill-rule="evenodd" clip-rule="evenodd" d="M163.359 133.876C162.106 133.395 158.626 132.728 157.971 132.189C161.297 131.263 154.027 129.859 152.447 129.108C152.712 129.083 152.945 129.06 153.144 129.041C151.872 128.36 150.542 127.083 148.831 127.048C149.368 127.063 149.82 126.885 150.186 126.515C150.388 125.49 145.921 125.02 145.17 123.485C145.3 124.142 145.398 124.803 145.462 125.466C144.133 124.189 142.945 125.409 141.715 124.122C142.116 123.078 139.374 121.737 138.391 120.928C136.425 119.311 135.06 116.63 132.944 115.529C133.252 115.6 129.59 112.037 129.144 111.578C126.931 109.482 125.633 107.498 124.297 105.116C123.584 103.98 122.983 101.928 121.522 101.367C121.41 100.909 121.329 100.414 121.277 99.8836C122.112 100.204 123.021 102.326 124.017 102.23C122.979 99.8188 121.591 97.9441 120.454 95.5428C120.078 94.7755 120.238 94.3581 119.962 93.5812C119.438 92.3259 118.266 91.6359 119.409 92.0273C118.974 90.9978 118.293 90.1932 117.366 89.6134C118.944 94.4837 116.121 90.2367 115.153 87.5174C113.248 82.3775 112.826 76.9931 112.304 71.6184C106.55 72.3779 99.41 74.3773 92.9666 76.3089C91.949 77.2115 90.9605 78.4126 89.5863 78.747C89.4878 78.4217 89.386 78.0632 89.281 77.6715C87.4768 78.7509 86.4467 80.5589 84.7518 81.7281C83.827 81.5165 86.5492 79.5442 83.2298 81.5745C84.4174 80.354 81.5059 82.4451 83.4414 80.6497C82.8278 79.5036 79.9259 81.6943 80.8217 81.6073C79.7365 81.8132 80.613 81.5271 80.2564 80.9589C78.5035 81.531 78.6291 82.8249 80.4303 82.7505C75.6721 83.4134 76.1572 84.2705 73.4737 86.6409C69.5031 90.2415 64.1902 93.47 59.5451 96.3323C60.5848 94.6238 63.2142 93.7657 63.9457 91.9867C63.8858 92.0595 63.8259 92.1323 63.766 92.2051C64.0259 91.778 64.3757 91.2416 64.3564 91.0426C62.2662 91.2455 62.6682 93.3164 60.9665 93.3811C63.1011 91.5663 59.8717 93.4874 60.8409 92.0872C60.2824 92.5433 56.6934 94.9011 60.838 93.0922C60.6264 94.0169 58.742 95.3051 58.1932 95.8607C57.9235 96.1883 55.7184 98.3113 55.3396 98.549C55.3074 98.2173 55.3051 97.8491 55.3328 97.4445C52.9924 98.1741 51.1467 99.8603 49.1628 101.158C49.8669 100.822 50.5604 100.721 51.2433 100.856C50.9032 101.492 50.5533 102.028 50.2035 102.564C50.2441 102.292 50.2879 102.054 50.335 101.848C49.5967 102.523 48.2747 105.464 48.3704 103.345C45.6483 105.317 47.3751 103.442 45.0027 104.878C45.3603 105.111 45.7146 105.311 46.0657 105.478C44.8201 106.101 39.0038 111.388 38.795 111.307C38.2365 111.764 41.465 106.728 39.3942 107.13C38.8743 107.984 38.3908 108.868 37.9437 109.783C40.0464 108.674 36.7387 117.033 35.5211 114.84C35.3829 114.452 34.4813 116.549 34.3915 116.658C34.4321 116.386 34.3464 116.194 34.1344 116.08C33.5759 116.536 33.4512 118.357 33.4319 118.158C33.4029 117.859 30.4247 122.368 30.2643 122.786C30.158 121.691 32.3815 116.652 32.2723 116.562C29.6719 117.719 29.41 122.266 28.5597 123.855C28.0494 124.809 26.9324 125.721 27.4078 126.479C27.9054 126.431 25.8578 129.141 25.938 128.932C25.9934 128.123 25.6819 128.02 25.0036 128.621C25.8829 127.33 24.6818 126.342 25.5805 125.25C25.4329 125.8 25.3882 126.374 25.4461 126.971C25.7612 128.146 28.0166 122.401 27.6958 123.236C27.4561 123.527 27.2165 123.818 26.9768 124.109C25.7148 123.529 27.7818 121.017 27.0879 120.08C26.9874 120.424 26.7713 120.613 26.4395 120.645C27.0515 120.05 27.5576 119.398 27.9576 118.689C27.9235 119.027 27.9225 119.362 27.9547 119.694C29.669 118.724 29.1453 117.469 30.5319 116.229C30.8982 116.897 29.5917 117.928 29.8584 118.605C30.0063 119.093 30.9687 116.588 31.0683 116.579C32.6347 115.121 33.5111 114.835 34.4639 112.23C34.3357 112.98 34.1347 113.669 33.861 114.298C34.5606 113.226 36.6411 112.923 36.9039 111.491C36.585 111.656 36.2694 111.854 35.9569 112.085C36.6952 111.411 37.2579 110.653 37.6451 109.812C37.0627 109.332 36.5255 109.317 36.0333 109.767C37.2112 108.447 38.4114 106.321 39.484 107.021C39.5739 106.912 42.1482 104.451 41.3133 104.131C41.2138 104.14 39.9459 105.569 39.9585 104.664C40.6842 104.895 40.6581 103.591 41.1268 103.244C40.4852 104.914 43.1783 102.643 42.7773 103.687C44.3727 102.527 45.4511 101.217 46.5392 100.006C50.1871 101.36 47.4379 98.9143 49.6237 96.5922C49.6559 96.924 49.7213 97.2525 49.8199 97.5779C49.9098 97.4687 52.1632 95.8433 51.5081 95.3041C51.4182 95.4133 48.4709 96.1013 48.4931 95.2954C48.6052 94.3803 55.8295 94.2817 56.5958 90.7913C56.2682 90.5217 55.1222 91.1353 55.2439 90.3198C57.5747 89.4906 60.0688 87.2391 62.1812 86.2303C63.1379 85.7355 64.2037 85.3306 65.2406 84.6271C66.1779 83.9333 70.0848 81.7455 69.4364 82.3108C70.5023 81.9059 72.6495 79.1857 72.4958 80.7077C72.4958 80.7077 74.1299 79.9462 73.0737 80.4506C73.8506 80.1743 74.6498 79.092 75.7958 78.4784C75.4705 78.5769 75.1088 78.6455 74.7106 78.6842C76.2259 77.7333 77.9594 76.9622 79.2659 75.9311C80.6719 74.8904 81.9301 73.3616 83.5545 72.5006C83.5803 72.7661 83.606 73.0315 83.6318 73.2969C86.0718 72.5576 86.5182 73.0167 88.7591 72.2967C90.255 71.1468 95.8056 68.2971 97.1798 67.9628C98.3548 67.6477 104.083 68.6991 104.526 67.0486C103.013 66.9945 101.591 66.8312 100.108 67.0757C101.652 66.4234 102.74 65.2126 104.294 64.6598C104.075 64.4801 103.837 64.4363 103.578 64.5284C105.132 63.9757 105.758 64.2163 107.591 63.4355C107.552 63.0374 107.481 62.6425 107.376 62.2508C108.598 61.7303 109.845 61.4751 111.119 61.4854C110.64 58.6183 112.517 56.2257 112.138 53.3489C112.018 53.4945 111.931 53.6369 111.878 53.7761C111.501 49.8943 112.736 35.7086 115.885 33.9963C115.904 34.1953 115.887 34.3644 115.834 34.5036C116.415 33.2416 118.032 31.276 118.462 30.531C118.292 30.8489 121.132 25.9516 120.439 28.1287C122.175 23.2381 124.607 18.2799 128.539 14.2812C130.276 12.5051 133.469 9.1809 135.73 8.66005C135.63 8.66971 138.606 8.28029 138.276 9.01567C138.847 7.65411 140.561 6.68391 141.816 6.16016C140.395 9.11133 137.698 9.27271 135.39 12.4104C135.371 12.2113 135.355 12.0454 135.342 11.9127C134.774 12.2693 132.489 17.7155 132.133 17.1473C132.287 16.6635 132.182 16.2718 131.818 15.9723C130.56 17.501 132.952 19.3786 130.493 19.9188C130.547 19.7796 130.63 19.6041 130.743 19.3921C129.036 21.4668 130.544 19.4114 129.908 19.0713C129.183 18.8403 128.092 21.0561 128.509 21.2166C131.73 22.3104 128.567 21.8137 127.617 23.413C127.187 24.1581 127.339 26.7556 127.018 27.5905C126.245 29.9763 126.559 28.0369 125.398 30.561C125.272 29.267 127.176 28.178 126.273 27.1604C125.717 26.6116 124.737 32.0317 124.336 33.0753C123.874 34.5268 122.747 35.3395 122.841 37.3398C123.074 36.9822 123.31 36.6579 123.55 36.3667C121.092 40.0213 122.451 44.7119 121.525 48.6197C121.74 49.8045 118.734 46.7808 118.605 46.4919C118.336 46.8195 118.918 51.7864 118.867 52.2937C119.442 53.0417 120.016 50.6751 120.016 50.6751C120.052 52.0782 118.82 54.9105 119.841 56.1175C119.723 55.5931 119.86 55.2784 120.252 55.1734C120.66 55.2343 121.717 57.8443 121.457 58.2714C121.112 58.1709 120.827 57.9976 120.603 57.7516C120.335 58.4473 120.37 59.1473 120.706 59.8514C121.303 59.7934 121.483 59.575 122.17 59.4078C121.303 59.7934 119.242 60.2949 119.528 61.1714C120.305 60.895 120.966 59.4243 121.06 61.4246C120.684 60.6573 120.283 61.7009 121.525 62.0826C122.768 62.4643 126.177 60.3249 128.814 60.5713C127.112 60.6361 127.806 61.5734 126.412 61.7087C130.272 62.1377 132.55 58.7015 135.886 57.8753C138.445 57.3254 140.192 58.7633 142.821 57.9052C142.244 58.1623 144.867 59.3141 145.843 59.0184C145.287 58.8045 144.727 58.5575 144.164 58.2772C146.523 57.7467 149.099 58.4009 151.427 58.5768C150.55 58.8628 151.883 59.1354 150.3 59.3895C150.195 61.4091 154.939 58.5372 155.138 58.5179C158.115 58.1284 162.36 59.4243 165.224 59.95C172.185 61.2835 179.096 63.1244 185.415 66.1277C196.058 71.2232 204.322 79.7646 207.754 90.2821C212.173 103.718 210.196 116.469 198.727 125.62C194.807 128.713 191.099 130.882 186.984 132.989C182.778 135.206 177.397 134.623 172.696 135.883C170.59 134.882 166.162 134.81 163.359 133.876ZM115.831 35.5086C115.865 35.1704 115.866 34.8354 115.834 34.5036C115.773 34.9114 115.702 35.2196 115.831 35.5086ZM35.6738 110.204C35.7872 109.992 35.907 109.846 36.0333 109.767C35.9134 109.913 35.7936 110.058 35.6738 110.204ZM60.8312 91.9876C60.8312 91.9876 60.8345 92.0208 60.8409 92.0872C60.9008 92.0144 60.8976 91.9812 60.8312 91.9876ZM63.2973 92.552C63.4236 92.4727 63.5798 92.3571 63.766 92.2051C63.5862 92.4235 63.3968 92.5423 63.2973 92.552ZM92.9666 76.3089C93.4845 76.1247 93.9264 75.8474 94.2924 75.4769C93.8044 75.6248 93.3357 75.9717 92.9666 76.3089ZM145.121 122.988C145.068 123.127 145.084 123.293 145.17 123.485C145.15 123.286 145.134 123.12 145.121 122.988ZM62.8779 86.1626L62.5793 86.1916C62.2585 87.0265 62.4286 86.7086 62.8779 86.1626ZM75.876 78.2696C76.3032 78.5296 81.273 76.9419 81.5745 75.9079C80.5821 74.9996 78.0174 77.5594 75.876 78.2696ZM119.686 61.7589C120.242 61.9728 120.528 61.8111 120.543 61.2738C120.443 61.2835 119.666 61.5599 119.686 61.7589ZM119.342 60.2853C120.199 59.8002 120.892 57.623 119.399 57.768C119.277 58.5836 119.258 59.4227 119.342 60.2853ZM109.284 66.3857C108.07 66.3026 110.552 64.9565 108.41 65.6668C111.181 64.1921 111.666 65.0493 111.177 62.0826C110.021 62.5967 103.79 66.7181 103.9 66.808C104.426 67.0583 107.325 65.8726 107.723 65.8339C108.976 66.3152 106.735 67.0351 109.284 66.3857ZM185.919 126.16C185.84 126.034 185.757 125.874 185.671 125.682C188.539 125.202 190.04 122.042 192.618 121.692C187.361 126.522 198.882 119.978 196.705 119.286C196.459 119.51 196.249 119.765 196.076 120.05C195.681 119.084 198.15 118.643 197.077 117.943C195.912 118.358 196.072 117.94 194.756 118.872C194.098 119.338 193.077 121.245 191.703 121.58C191.07 120.234 193.857 119.964 194.3 118.313C192.823 119.662 193.934 117.646 193.086 118.23C194.373 117 193.381 116.092 194.568 114.871C194.607 115.269 194.616 115.704 194.595 116.175C195.286 115.706 195.593 115.073 195.515 114.277C194.796 113.074 195.126 112.339 196.507 112.071C197.28 109.685 197.338 110.282 197.613 107.945C198.228 108.756 198.345 109.615 197.964 110.523C198.137 110.238 198.207 110.265 198.173 110.603C199.001 109.819 198.358 108.375 198.907 107.819C199.745 107.135 197.073 115.834 196.993 116.043C195.957 116.411 195.903 116.885 196.83 117.465C197.234 117.493 197.642 117.554 198.053 117.648C198.583 116.893 197.979 115.846 198.309 115.111C200.1 111.823 200.827 107.934 200.28 104.37C200.445 104.689 200.61 105.008 200.775 105.327C205.241 102.683 198.721 96.5845 197.962 93.9455C198.412 93.3995 199.144 94.735 199.443 94.706C200.974 94.9592 197.592 91.1682 197.374 90.9885C196.709 90.3498 196.33 90.5875 196.15 90.8059C196.139 90.0032 195.869 89.2926 195.341 88.6741C195.612 88.7147 195.884 88.7553 196.156 88.7959C195.565 86.8439 190.609 83.4067 191.381 85.1403C189.697 82.2896 190.793 85.2978 189.373 84.1295C190.677 84.1034 188.811 82.4761 189.459 81.9108C189.459 81.9108 190.918 83.4772 191.158 82.851C190.93 82.5718 189.886 79.0563 188.948 79.7501C188.7 80.6449 188.419 81.543 188.105 82.4442C187.199 82.4317 188.123 79.5288 187.169 79.0186C188.113 79.4293 188.046 78.7325 187.708 78.3634C186.905 77.3362 182.747 76.9361 181.575 76.2462C181.841 76.2204 182.103 76.1615 182.362 76.0693C181.148 75.9862 180.962 75.1001 179.748 75.017C179.748 75.017 179.751 75.0502 179.757 75.1165C176.491 72.52 167.231 71.3092 163.452 70.6714C161.204 70.2868 159.316 69.4654 157.367 69.0518C156.044 68.8789 154.67 69.2132 154.878 69.2934C152.689 69.506 150.98 68.4662 148.909 68.8682C148.999 68.759 152.216 67.7434 151.77 67.2844C150.392 65.5093 140.995 70.1389 138.025 68.5184C138.151 68.4392 138.307 68.3235 138.493 68.1715C137.886 68.1299 136.699 69.3504 136.223 68.5928C136.178 68.1283 136.378 67.774 136.823 67.5299C134.046 67.9 131.574 69.3456 128.778 69.5166C127.375 69.5524 125.974 68.5832 123.823 69.1939C120.497 70.1196 120.427 70.4279 121.343 73.6544C121.401 74.2516 123.602 80.3675 122.125 78.6021C124.287 84.3198 126.95 88.9843 129.193 94.4934C129.022 94.1081 128.737 93.9348 128.339 93.9735C129.107 96.7121 131.49 98.4901 132.926 100.862C133.63 101.899 134.456 105.235 135.191 105.566C135.609 105.726 135.303 104.65 135.612 104.721C137.49 105.443 140.275 109.292 142.279 111.308C145.176 114.241 147.511 115.522 150.957 117.9C150.144 116.773 152.379 118.063 152.489 118.153C151.195 118.279 152.367 118.969 150.716 118.526C152.264 119.983 155.613 118.252 155.874 120.939C155.304 120.592 154.714 120.382 154.104 120.307C154.997 121.225 156.087 121.755 157.373 121.898C157.772 121.86 156.67 120.862 156.859 120.743C157.347 120.595 160.157 122.633 160.793 122.973C162.563 123.605 163.481 122.712 165.131 123.155C165.398 123.832 163.247 124.443 165.594 124.818C167.533 125.132 166.891 123.687 168.503 123.732C168.609 124.826 167.842 125.202 166.727 125.11C167.164 125.469 168.963 126.4 167.389 126.753C169.759 126.322 179.738 126.66 178.594 123.154C179.046 122.976 179.497 122.798 179.949 122.62C180.864 122.732 179.159 123.802 179.696 124.152C180.67 124.526 181.35 124.293 181.737 123.451C181.5 123.073 181.136 122.773 180.646 122.553C181.978 122.825 181.952 121.522 183.066 121.614C181.342 122.485 184.486 122.783 182.046 123.522C184.663 123.569 181.995 124.029 181.793 125.054C183.028 124.666 184.22 124.182 185.369 123.601C185.267 124.616 183.346 124.501 182.936 125.445C184.031 125.339 186.204 123.922 187.167 124.532C186.798 124.869 184.509 125.091 184.397 126.006C184.814 126.167 185.421 126.208 185.919 126.16ZM155.466 69.1359C155.074 69.2409 154.878 69.2934 154.878 69.2934C155.077 69.2741 155.273 69.2216 155.466 69.1359ZM180.194 75.476C179.79 75.4483 179.644 75.3285 179.757 75.1165C179.903 75.2364 180.049 75.3562 180.194 75.476ZM196.15 90.8059C195.781 91.1431 195.73 91.6504 195.068 90.0067C195.492 90.2335 195.853 90.4999 196.15 90.8059ZM186.028 126.25C186.028 126.25 186.058 126.213 186.118 126.141C186.052 126.147 185.985 126.154 185.919 126.16C185.992 126.22 186.028 126.25 186.028 126.25ZM186.118 126.141C187.113 126.044 187.99 125.758 187.672 125.588C186.837 125.267 186.397 125.913 186.118 126.141Z" fill="#100F12"/>
<path d="M119.423 94.2363C119.039 93.7377 118.689 93.2358 118.372 92.7308C118.781 93.4948 119.157 94.2621 119.5 95.0326C119.037 94.4077 119.012 94.1423 119.423 94.2363Z" fill="#100F12"/>
<path d="M28.6795 127.159C29.0647 126.988 29.4532 126.85 29.8449 126.745C29.7592 126.552 29.7099 126.389 29.697 126.257C29.391 126.554 29.0518 126.855 28.6795 127.159Z" fill="#100F12"/>
<path d="M44.4973 111.055L42.9918 112.106C42.8507 112.722 44.7544 111.633 44.4973 111.055Z" fill="#100F12"/>
<path d="M33.9759 112.378C33.8754 112.723 33.7749 113.067 33.6744 113.412C34.5113 113.063 34.9542 112.451 35.0031 111.575C34.4929 112.529 34.6147 111.713 33.9759 112.378Z" fill="#100F12"/>
<path d="M49.328 105.965C49.1676 106.382 47.5239 107.044 47.9897 107.702C47.9027 106.806 49.6044 106.742 49.328 105.965Z" fill="#100F12"/>
<path d="M39.7981 105.081C40.5267 104.307 42.0999 103.954 42.0322 103.257C41.0176 103.155 40.8253 104.278 39.7981 105.081Z" fill="#100F12"/>
<path d="M51.4781 102.239C52.4444 101.844 55.6391 101.635 54.5597 99.8304C54.3027 99.2525 51.4685 102.14 53.0764 100.075C52.5501 100.863 52.0173 101.584 51.4781 102.239Z" fill="#100F12"/>
<path d="M44.048 101.253C43.1384 101.542 42.3112 101.991 41.5665 102.599C42.3286 102.86 43.0092 102.626 43.6083 101.898C43.6341 102.164 43.6599 102.429 43.6856 102.695C44.5524 102.309 43.1203 102.046 44.048 101.253Z" fill="#100F12"/>
<path d="M58.9643 97.5943C57.8984 97.9992 56.0431 99.5859 55.9696 100.899C56.9872 99.9966 58.2743 98.7665 58.9643 97.5943Z" fill="#100F12"/>
<path d="M48.4429 98.9172C48.3443 98.5919 48.2158 98.3029 48.0573 98.0504C48.1568 98.0407 47.0881 99.4506 47.0978 99.5501C48.0061 98.5577 47.7239 99.7908 48.4429 98.9172Z" fill="#100F12"/>
<path d="M50.7659 93.8691C50.5926 94.1538 50.4193 94.4386 50.2461 94.7233C50.879 96.0685 52.1082 94.2411 52.4676 93.8043C51.9304 93.7895 51.3631 93.8111 50.7659 93.8691Z" fill="#100F12"/>
<path d="M53.4214 94.3146C53.8611 93.6691 54.6602 92.5868 54.9714 91.6523C54.3124 92.4531 53.7957 93.3405 53.4214 94.3146Z" fill="#100F12"/>
<path d="M82.6104 82.4384C82.45 82.8558 84.5112 82.3543 83.3264 82.5698C83.3777 82.0625 81.7948 82.3166 82.6104 82.4384Z" fill="#100F12"/>
<path d="M75.7378 77.8812C75.0807 78.0119 74.6453 78.3556 74.4314 78.9122C75.6258 78.7963 77.1825 77.2386 78.1102 76.4452C77.2862 76.9271 76.4955 77.4057 75.7378 77.8812Z" fill="#100F12"/>
<path d="M130.804 60.378C131.222 60.5385 132.377 60.0244 131.95 59.7644C131.382 60.121 130.676 60.0891 130.804 60.378Z" fill="#100F12"/>
<path d="M193.86 87.9136C193.285 87.1657 193.343 87.7629 192.698 87.3232C193.074 88.0905 193.51 88.45 193.86 87.9136Z" fill="#100F12"/>
<path d="M196.36 94.0006C196.479 94.19 196.707 94.4692 196.678 94.1706C196.578 94.1803 196.469 94.0904 196.36 94.0006Z" fill="#100F12"/>
<path d="M197.234 94.7195C197.219 95.2568 196.963 95.3821 196.466 95.0954C196.691 95.3415 196.949 95.5844 197.24 95.824C197.853 93.8556 197.285 94.2122 197.234 94.7195Z" fill="#100F12"/>
<path d="M200.871 103.208C200.219 101.664 199.301 102.556 199.396 100.437C198.915 101.69 198.603 99.5096 198.375 99.2303C198.385 102.444 200.723 102.72 200.926 104.81C200.874 104.279 200.856 103.745 200.871 103.208Z" fill="#100F12"/>
<path d="M199.999 98.3693C199.392 98.3278 199.727 99.7019 200.064 100.071C200.125 99.6633 200.645 98.809 199.999 98.3693Z" fill="#100F12"/>
<path d="M198.785 105.52C199.234 106.012 199.374 105.731 199.205 104.676C199.032 104.96 198.891 105.242 198.785 105.52Z" fill="#100F12"/>
<path d="M198.114 106.891C198.342 107.171 198.05 108.304 198.499 107.758L198.114 106.891Z" fill="#100F12"/>
<path d="M197.184 111.804C197.085 111.814 195.868 112.736 196.359 111.583C195.99 111.92 196.562 113.673 197.184 111.804Z" fill="#100F12"/>
<path d="M190.73 120.87C191.248 120.686 191.485 120.362 191.439 119.897C186.657 125.486 191.08 120.334 190.73 120.87Z" fill="#100F12"/>
<path d="M195.344 121.829C194.108 122.552 194.288 122.333 192.892 123.474C193.926 123.775 194.189 122.343 195.344 121.829Z" fill="#100F12"/>
<path d="M189.179 120.418C190.076 119.996 190.036 119.933 189.06 120.229C188.408 121.096 188.447 121.159 189.179 120.418Z" fill="#100F12"/>
<path d="M187.282 122.612C187.483 121.922 187.684 121.233 187.885 120.544C186.919 120.939 187.224 122.014 186.338 122.201C185.661 122.468 184.299 121.897 183.41 123.088C183.98 123.435 184.23 123.946 184.162 124.623C184.929 124.247 186.219 122.012 187.282 122.612Z" fill="#100F12"/>
<path d="M189.447 124.21C190.121 124.948 190.853 123.169 191.122 122.842C189.45 123.205 190.545 123.099 189.447 124.21Z" fill="#100F12"/>
<path d="M175.769 126.141C176.227 126.029 176.682 125.885 177.134 125.707C175.252 125.99 175.599 126.459 175.769 126.141Z" fill="#100F12"/>
<path d="M175.811 125.534C175.734 124.738 175.206 124.822 174.228 125.788C174.753 125.67 175.28 125.585 175.811 125.534Z" fill="#100F12"/>
<path d="M173.872 125.22C174.27 125.181 174.665 125.109 175.056 125.004C174.957 125.014 173.284 125.377 173.872 125.22Z" fill="#100F12"/>
<path d="M171.146 125.083C170.495 125.28 169.912 125.135 169.396 124.65C169.643 125.128 171.204 125.68 171.146 125.083Z" fill="#100F12"/>
<path d="M150.354 130.316C150.812 130.205 150.886 129.93 150.575 129.491C150.25 129.59 149.928 129.721 149.609 129.886C149.821 130 150.069 130.143 150.354 130.316Z" fill="#100F12"/>
<path d="M146.063 127.518C147.354 128.397 148.867 128.451 150.238 129.122C149.39 128.668 148.509 128.218 147.595 127.771C147.794 127.752 147.96 127.735 148.093 127.723C147.416 127.654 146.74 127.586 146.063 127.518Z" fill="#100F12"/>
<path d="M123.352 101.591C121.784 99.9348 121.254 97.575 119.356 96.6541C119.44 97.5167 119.945 98.2379 120.872 98.8177C120.667 98.7707 120.494 98.7204 120.355 98.6669C120.828 100.43 122.35 100.583 123.352 101.591Z" fill="#100F12"/>
<path d="M134.749 14.0802C134.778 14.3788 135.176 14.3401 135.474 14.3112C136.075 13.2482 134.948 14.0609 134.749 14.0802Z" fill="#100F12"/>
<path d="M63.8887 115.201L64.197 115.271C64.2482 114.764 64.0781 115.082 63.8887 115.201Z" fill="#100F12"/>
<path d="M63.8887 115.201L63.68 115.121C63.7528 115.181 63.8223 115.207 63.8887 115.201Z" fill="#100F12"/>
<path d="M62.1773 115.166C62.4373 114.739 62.9832 115.188 63.2142 114.463C62.6875 114.212 62.1097 114.469 62.1773 115.166Z" fill="#100F12"/>
<path d="M60.7742 115.202C61.4004 115.442 60.7935 115.401 61.3395 115.85C61.44 115.506 61.6465 115.218 61.9589 114.986C61.5444 113.821 60.7645 115.102 60.7742 115.202Z" fill="#100F12"/>
<path d="M41.2437 128.25C41.1774 128.257 41.1442 128.26 41.1442 128.26C41.2437 128.25 41.2534 128.35 41.2437 128.25Z" fill="#100F12"/>
<path d="M43.9591 125.173C44.0918 125.16 44.1913 125.151 44.2577 125.144C44.1849 125.084 44.0854 125.094 43.9591 125.173Z" fill="#100F12"/>
<path d="M31.1581 137.166C31.0319 137.246 30.9388 137.322 30.8789 137.395C31.0715 137.309 31.1646 137.233 31.1581 137.166Z" fill="#100F12"/>
<path d="M54.6515 116.299C54.552 116.308 54.4621 116.417 54.4718 116.517C54.581 116.607 54.6709 116.498 54.6515 116.299Z" fill="#100F12"/>
<path d="M54.0321 117.162C54.7578 117.393 54.0253 116.058 54.0253 116.058C54.5713 116.507 52.629 117.198 54.0321 117.162Z" fill="#100F12"/>
<path d="M41.1345 128.16C41.2437 128.25 41.3336 128.141 41.1345 128.16Z" fill="#100F12"/>
<path d="M42.4825 126.522C42.4162 126.529 42.3498 126.535 42.2835 126.542C42.383 126.532 42.383 126.532 42.4825 126.522Z" fill="#100F12"/>
<path d="M48.9801 123.078C48.9138 123.085 48.8806 123.088 48.8806 123.088L48.9801 123.078Z" fill="#100F12"/>
<path d="M42.2835 126.542C42.1839 126.551 42.1839 126.551 42.0941 126.661C42.1604 126.654 42.2236 126.614 42.2835 126.542Z" fill="#100F12"/>
<path d="M27.3798 108.598C27.775 109.564 27.1421 108.219 27.6977 108.768C27.688 108.668 26.7246 108.059 27.3798 108.598Z" fill="#100F12"/>
<path d="M20.5295 134.28C20.7156 134.128 20.9318 133.94 21.1779 133.715C20.6 133.972 19.653 134.566 19.2036 135.112C20.5133 134.114 20.9553 133.837 20.5295 134.28Z" fill="#100F12"/>
<path d="M26.569 113.7C26.5091 113.773 26.4824 113.842 26.4888 113.909C26.5787 113.8 26.5787 113.8 26.569 113.7Z" fill="#100F12"/>
<path d="M27.0464 131.035C27.0999 130.896 27.1234 130.793 27.1169 130.727C27.057 130.8 27.0335 130.902 27.0464 131.035Z" fill="#100F12"/>
<path d="M18.533 136.483C18.5427 136.583 18.0325 137.537 18.4818 136.991C18.4818 136.991 18.8123 136.255 18.533 136.483Z" fill="#100F12"/>
<path fill-rule="evenodd" clip-rule="evenodd" d="M12.3727 140.296C13.7912 138.35 13.4095 129.244 15.8012 128.008C16.0196 128.187 16.2016 128.337 16.3472 128.457C16.5366 128.338 17.0111 125.981 17.0111 125.981C17.3087 126.287 17.6169 126.358 17.9358 126.193C18.016 125.984 17.6305 125.117 18.1185 124.969C17.4121 124.938 15.7809 124.694 16.5289 124.119C16.668 124.173 16.8071 124.226 16.9463 124.279C17.357 123.335 17.3502 122.231 18.188 121.547C18.4383 121.02 18.4982 117.498 18.389 117.408C18.5817 117.322 18.7443 117.273 18.877 117.26C19.042 117.579 19.2368 117.861 19.4617 118.108C20.3507 116.916 20.5333 115.693 20.0482 114.836C20.0547 114.902 20.0579 114.935 20.0579 114.935C20.3555 111.792 21.1006 101.873 21.0909 101.774C21.518 102.034 22.092 99.6671 22.2399 100.155C21.6291 98.004 21.8533 96.1738 22.2572 94.1252C23.8691 94.1696 23.2361 92.8245 23.5666 92.0891C23.843 92.866 24.0102 93.5531 23.7985 94.4779C24.1819 94.9765 24.6219 95.3691 25.1186 95.6558C24.8061 95.8871 24.4776 95.9525 24.1329 95.852C24.4969 96.1516 24.9475 96.3087 25.4848 96.3236C25.6935 96.4038 24.3387 96.9372 24.2392 96.9468C24.3455 98.0417 25.5041 96.5226 25.8993 97.489C25.4948 97.4613 25.1759 97.6262 24.9427 97.9837C26.5835 98.3268 26.0733 99.2805 26.1313 99.8777C25.7138 99.7173 26.3651 98.147 25.1582 99.1684C25.6871 99.7869 26.216 100.405 26.7449 101.024C26.4795 101.05 26.2205 101.142 25.968 101.3C26.3854 101.461 26.3951 101.56 26.3951 101.56C26.4614 101.554 26.531 101.58 26.6038 101.64C26.0037 102.703 27.7412 104.042 27.4397 105.076C27.43 104.976 24.9929 104.71 24.8934 104.72C25.1214 104.999 26.3999 106.784 26.6212 105.959C26.5935 106.363 26.6685 106.791 26.8463 107.243C26.8782 106.537 28.2978 107.705 28.0185 107.933C27.7006 107.763 26.8657 107.442 27.5595 108.379C27.2619 108.073 26.9375 107.837 26.5864 107.67C26.426 108.088 27.1556 110.428 27.1044 110.935C27.1652 110.528 26.626 111.183 26.6357 111.282C26.6135 112.088 26.4212 113.212 26.3603 113.62C26.2096 114.137 25.1234 121.577 23.7618 121.006C23.6304 121.722 23.8691 125.215 23.2081 126.686C23.786 126.429 24.0971 125.494 24.8451 124.919C24.7317 125.131 24.6515 125.34 24.6045 125.545C25.163 125.089 25.7215 124.633 26.2898 124.277C25.4297 125.767 24.2518 127.087 23.8092 128.737C23.7106 128.412 23.5789 128.09 23.414 127.771C23.4268 127.904 23.3734 128.043 23.2535 128.188C22.7366 128.038 22.5858 128.555 22.7076 127.739C21.4813 128.561 23.0738 128.407 23.1124 128.805C21.661 128.343 22.8081 130.844 22.7182 130.953C22.4998 130.773 22.2215 130.666 21.8833 130.632C21.7035 130.851 21.6597 131.089 21.7519 131.348C22.0237 131.389 22.302 131.496 22.5868 131.669C22.2785 131.598 20.7469 131.345 20.5285 131.166C21.203 131.904 21.2126 132.003 20.9624 132.53C21.3798 132.69 21.7683 132.552 22.1568 132.414C21.9706 132.566 21.8176 132.715 21.6978 132.861C21.824 132.781 21.9203 132.738 21.9867 132.732C20.8406 133.346 20.5005 133.981 19.3737 134.794C19.3608 134.661 19.4143 134.522 19.5341 134.377C19.3544 134.595 17.5116 135.276 17.9677 135.835C18.2566 135.706 18.6064 135.17 18.6963 135.061C18.8226 134.982 18.9456 134.869 19.0655 134.724C18.5359 135.478 18.9534 135.639 18.9824 135.937C18.9534 135.639 16.6264 138.577 17.0246 138.539C16.925 138.548 17.8527 137.755 17.9329 137.546C17.8195 137.758 17.7062 137.97 17.5928 138.182C17.6527 138.109 17.749 138.066 17.8817 138.054C17.7554 138.133 17.6656 138.242 17.6121 138.381C18.1706 137.925 21.2813 135.815 19.2684 136.814C19.3753 136.535 19.5187 136.287 19.6984 136.069C19.5122 136.221 19.326 136.373 19.1399 136.525C19.4095 136.197 19.6791 135.87 19.7689 135.76C17.5445 137.684 19.509 136.188 19.1814 135.918C19.2819 135.573 19.5248 135.315 19.91 135.144C19.2906 136.008 20.4976 134.986 20.7478 134.46C20.5072 135.086 22.0833 133.727 22.1539 133.419C21.8478 133.717 21.575 134.011 21.3354 134.302C21.5953 133.875 22.523 133.082 22.8921 132.745C22.9392 132.539 22.9894 132.367 23.0429 132.228C23.0364 132.161 23.0332 132.128 23.0332 132.128C23.0844 131.621 23.2448 131.203 23.5947 130.667C23.9992 130.695 24.1245 130.95 23.9706 131.434C24.2469 132.211 25.3572 130.194 25.3379 129.995C25.3766 130.393 25.5982 130.606 26.0028 130.634C26.0028 130.634 24.5455 132.182 23.6372 133.175C23.6178 132.975 23.5621 132.746 23.47 132.487C23.47 132.487 23.4668 132.454 23.4603 132.388C23.4603 132.388 23.4304 132.424 23.3705 132.497C23.4304 132.424 23.4571 132.355 23.4507 132.288C23.164 132.785 22.8741 133.249 22.581 133.679C22.6879 133.401 22.7949 133.122 22.9018 132.844C22.5423 133.281 22.0128 134.036 21.5634 134.582C21.1782 134.753 21.0017 135.004 21.0339 135.336C21.2136 135.118 21.0339 135.336 21.0532 135.535C21.5261 134.887 21.9957 134.205 22.4621 133.49C21.5828 134.781 22.0321 134.235 22.3916 133.798C21.7721 134.662 21.3132 135.108 21.0117 136.142C21.2384 135.718 21.5016 135.324 21.8011 134.96C20.771 136.768 21.0919 135.933 20.0714 137.841C20.5497 137.594 21.0793 136.839 21.4997 135.994C21.5061 136.061 21.5093 136.094 21.5093 136.094C21.5029 136.027 21.4997 135.994 21.4997 135.994C21.5596 135.922 21.5895 135.885 21.5895 135.885C21.8495 135.458 22.1094 135.031 22.2601 134.514C22.3265 134.507 22.3565 134.471 22.35 134.405C22.35 134.405 22.3832 134.401 22.4495 134.395C22.4495 134.395 22.4528 134.428 22.4592 134.495C22.2891 134.812 22.7897 133.759 23.04 133.233C22.9395 133.577 22.8358 133.889 22.7288 134.167C22.3404 134.305 22.379 134.703 22.6071 134.983C22.56 135.188 22.513 135.394 22.466 135.599C22.513 135.394 22.5964 135.218 22.7163 135.072C23.0632 135.541 23.9783 135.653 23.6565 133.374C24.504 132.789 25.968 132.345 26.167 132.326C26.1796 131.421 26.8348 131.96 27.0464 131.035C27.0464 131.035 26.9217 132.856 27.5798 132.39C27.6242 130.778 28.5133 129.587 29.5279 129.689C29.7141 129.537 29.728 129.335 29.5695 129.082C29.9805 129.176 30.1721 129.426 30.1444 129.83C31.3321 128.61 33.63 125.372 35.9965 125.946C36.558 124.485 38.051 124.34 39.8938 123.659C40.0542 123.242 40.3846 122.506 40.4842 122.497C40.6427 122.749 40.7647 122.972 40.8504 123.164C41.0579 122.541 41.2653 121.918 41.4727 121.295C41.8998 121.555 42.2371 121.925 42.2564 122.124C42.9715 122.59 43.1973 122.501 42.9338 121.857C42.9435 121.956 43.5281 122.804 43.5697 122.197C43.6305 121.789 43.1938 121.43 42.8758 121.26C44.8249 121.673 45.6396 118.681 48.3685 117.813C48.0154 118.316 47.6592 118.786 47.2997 119.223C47.2002 119.232 47.2098 119.332 47.2388 119.63C48.0447 119.653 47.8679 118.866 48.1955 119.136C47.9259 119.463 48.61 120.301 48.6709 119.893C48.9383 119.198 48.8194 119.008 48.3143 119.325C48.5604 119.1 48.7006 118.819 48.7347 118.481C49.0236 118.352 49.5918 117.995 49.7812 117.877C49.9001 118.066 51.6405 118.399 51.9487 118.47C51.0143 118.159 51.0752 117.751 51.4346 117.314C51.501 117.308 51.5342 117.305 51.5342 117.305C51.5342 117.305 51.624 117.195 51.8038 116.977C51.8038 116.977 52.8861 117.776 53.1943 117.847C53.0358 117.594 52.9138 117.372 52.8281 117.179C53.3451 117.33 55.3164 116.937 55.326 117.037C55.2362 117.146 54.3278 118.138 55.1019 118.867C55.3067 116.838 55.5956 116.709 56.6006 116.712C56.7205 116.567 56.8103 116.457 56.8702 116.385C56.8767 116.451 56.9163 116.514 56.9891 116.574C57.1978 116.654 57.3486 116.137 57.3292 115.938C57.3679 116.336 58.485 115.424 58.6744 115.305C58.5526 116.121 57.5254 116.924 57.6539 117.213C58.627 117.922 59.172 115.257 59.4706 115.228C59.4964 115.493 59.6452 115.646 59.9171 115.687C60.0582 115.07 59.7402 114.9 60.5365 114.823C60.5462 114.923 60.8998 116.496 60.2128 116.663C60.446 116.305 60.4801 115.967 60.3152 115.648C59.9235 115.753 59.6475 116.014 59.4871 116.432L59.6513 118.124C59.4523 118.143 59.2596 118.229 59.0735 118.381C58.2801 117.453 59.173 118.371 58.1584 118.269C58.4644 117.971 58.4985 117.633 58.2608 117.254C58.4086 117.742 57.2558 117.251 56.7552 118.305C56.8673 117.39 56.0518 117.268 55.9909 117.676C56.0005 117.775 55.4004 118.838 56.4054 118.841C56.017 118.979 55.4198 119.037 55.4584 119.435C54.6332 119.214 55.6797 118.61 54.6235 119.114C53.9558 119.481 54.9801 119.683 54.9994 119.882C54.7875 119.768 54.6612 119.848 54.6206 120.119C54.5221 119.794 54.3304 119.545 54.0457 119.372C53.7203 119.47 53.5406 119.688 53.5064 120.027C53.3972 119.937 52.3855 118.829 52.0869 118.858C52.284 119.509 52.2789 120.146 52.0714 120.769C51.9429 120.48 52.0743 119.764 51.5255 120.319C51.3554 120.637 52.8745 121.796 52.3865 121.944C51.9239 121.319 51.2848 120.946 50.4693 120.824C49.6063 123.319 50.4886 121.023 50.6335 122.516C49.7986 122.195 46.6397 123.808 46.8194 123.59C45.2076 123.545 45.4009 125.536 44.133 126.965C42.9222 125.877 40.7267 128.099 39.6705 128.604C41.9182 128.988 38.653 129.506 40.0145 130.077C39.762 130.236 39.5865 130.153 39.4879 129.827C39.2953 129.913 39.2022 129.989 39.2086 130.055C39.369 129.638 39.5391 129.32 39.5294 129.22C39.2212 129.15 38.1679 128.649 37.7891 128.887C39.0028 128.97 37.3368 130.438 37.1668 130.756C37.4451 130.863 37.6303 131.046 37.7224 131.305C37.7833 130.897 38.1621 130.659 37.5746 130.817C37.6944 130.671 37.8474 130.522 38.0336 130.37C38.6984 131.009 37.9311 131.385 37.8094 132.201C37.4045 131.135 36.7145 132.307 36.5058 132.227C36.3676 131.838 36.4285 131.43 35.6419 131.607C35.4815 132.025 36.0661 132.872 34.7722 132.998C34.8128 132.726 34.8534 132.454 34.894 132.182C34.8137 132.391 32.9526 135.988 32.8724 136.196C32.8531 135.997 32.0307 134.771 31.8481 135.994C32.0471 135.975 32.2494 135.989 32.4549 136.036C32.1019 136.539 31.6696 136.916 31.1581 137.166C31.1001 136.569 30.7726 136.3 30.2942 136.547C29.4893 139.639 21.7499 145.816 18.1223 147.776C11.3 149.945 12.1427 144.137 12.3727 140.296ZM23.4603 132.388C23.4668 132.454 23.47 132.487 23.47 132.487C23.5215 133.018 23.3312 133.472 22.8989 133.849C23.0529 133.365 23.24 132.878 23.4603 132.388ZM23.6372 133.175C23.6436 133.241 23.6501 133.307 23.6565 133.374C23.2874 133.711 23.0178 134.038 23.0467 134.337C22.9334 134.549 22.8232 134.794 22.7163 135.072C22.6435 135.013 22.6071 134.983 22.6071 134.983C22.7076 134.638 22.8048 134.26 22.8989 133.849C22.9984 133.839 23.268 133.512 23.6372 133.175ZM37.8413 131.494C37.8348 131.428 37.7952 131.365 37.7224 131.305C37.7288 131.371 37.7685 131.434 37.8413 131.494ZM39.2086 130.055C39.0579 130.572 40.3585 131.551 38.4674 131.735C38.5573 131.626 38.8781 130.791 39.2086 130.055ZM38.9641 128.572C39.083 128.761 39.2917 128.842 39.6705 128.604C39.4715 128.623 39.236 128.613 38.9641 128.572ZM49.7812 117.877C49.7149 117.883 49.7149 117.883 49.7812 117.877ZM39.9933 123.649C39.9933 123.649 39.9601 123.653 39.8938 123.659C39.8232 123.967 39.743 124.176 39.9933 123.649ZM23.0661 134.536C23.126 134.463 23.1292 134.497 23.0757 134.636C23.0693 134.569 23.0661 134.536 23.0661 134.536ZM22.9762 134.645C23.0426 134.639 23.0725 134.602 23.0661 134.536C23.0661 134.536 23.0361 134.573 22.9762 134.645ZM23.0661 134.536C23.0596 134.47 23.0532 134.403 23.0467 134.337C23.1067 134.264 23.1633 134.158 23.2168 134.019C23.1633 134.158 23.1131 134.331 23.0661 134.536ZM25.3379 129.995C25.4043 129.989 25.4043 129.989 25.3379 129.995ZM22.1606 134.524C22.2676 134.245 22.4077 133.964 22.581 133.679C22.474 133.957 22.3339 134.239 22.1606 134.524ZM23.04 133.233C23.0999 133.16 23.1266 133.09 23.1202 133.024C23.1865 133.017 23.2165 132.981 23.2101 132.915C23.1566 133.054 23.0999 133.16 23.04 133.233C23.0999 133.16 23.1266 133.09 23.1202 133.024C23.3096 132.905 23.2197 133.014 23.04 133.233ZM22.3404 134.305C22.3468 134.372 22.3201 134.441 22.2601 134.514C22.0398 135.004 21.8163 135.461 21.5895 135.885C21.5895 135.885 21.5596 135.922 21.4997 135.994C22.0901 134.832 21.8301 135.259 21.6504 135.477C22.2602 134.514 22.6805 133.669 23.1105 132.924C22.9404 133.242 22.6902 133.769 22.35 134.405C22.3436 134.338 22.3404 134.305 22.3404 134.305ZM22.6612 133.47C22.5713 133.579 22.4814 133.689 22.3916 133.798C22.4515 133.725 22.5414 133.616 22.6612 133.47ZM18.4973 135.08C18.5871 134.971 18.6867 134.961 18.6963 135.061C18.63 135.067 18.5636 135.074 18.4973 135.08ZM19.6337 134.367C19.5673 134.373 19.5341 134.377 19.5341 134.377C19.6005 134.37 19.6337 134.367 19.6337 134.367ZM23.0429 132.228C23.0429 132.228 23.106 132.188 23.2323 132.109C23.1724 132.181 23.1092 132.221 23.0429 132.228ZM23.0429 132.228C23.0364 132.161 23.0332 132.128 23.0332 132.128C23.0397 132.194 23.0429 132.228 23.0429 132.228ZM23.3048 127.681C23.1666 127.293 22.9385 127.013 22.8003 126.625C22.351 127.171 23.067 127.302 23.3048 127.681ZM19.9777 115.144C20.0067 115.442 20.3149 115.513 20.1449 115.831C20.0721 115.771 20.0089 115.811 19.9555 115.95C19.9555 115.95 20.026 115.641 19.9777 115.144ZM18.3175 124.95C18.2512 124.957 18.1848 124.963 18.1185 124.969C18.4267 125.04 18.6258 125.021 18.3175 124.95ZM23.0332 132.128C22.7443 132.257 22.4554 132.385 22.1568 132.414C22.4093 132.256 22.7014 132.16 23.0332 132.128ZM21.8137 134.055C22.1796 133.684 22.5423 133.281 22.9018 132.844C22.9018 132.844 22.8986 132.811 22.8921 132.745C22.5327 133.181 22.1732 133.618 21.8137 134.055ZM23.414 127.771C23.414 127.771 23.3775 127.741 23.3048 127.681C23.3112 127.747 23.3476 127.777 23.414 127.771ZM20.0579 114.935C20.0643 115.001 20.0376 115.071 19.9777 115.144C19.9712 115.077 19.998 115.008 20.0579 114.935ZM48.553 122.818L48.6526 122.809C48.6236 122.51 48.6332 122.61 48.553 122.818ZM45.4231 124.73C45.3139 124.64 43.8112 124.685 43.9591 125.173C44.5244 125.822 44.3282 124.836 45.4231 124.73ZM23.3705 132.497C23.3801 132.597 23.2999 132.805 23.2101 132.915C23.2635 132.775 23.317 132.636 23.3705 132.497ZM20.8445 135.455C20.9343 135.346 21.0242 135.237 20.2859 135.911C19.8269 136.358 20.5845 135.882 20.8445 135.455ZM19.1399 136.525C18.7901 137.061 18.2508 137.716 17.8817 138.054C18.3011 137.544 18.7205 137.034 19.1399 136.525ZM20.7643 135.664C20.7044 135.737 20.6776 135.806 20.6841 135.873C20.744 135.8 20.7707 135.73 20.7643 135.664ZM20.6841 135.873C20.6242 135.945 20.5642 136.018 20.5043 136.091C20.5707 136.085 20.6338 136.045 20.6937 135.972C20.6937 135.972 20.6905 135.939 20.6841 135.873ZM19.9748 136.846C19.5351 137.491 19.1051 138.236 18.5659 138.891C18.7456 138.673 18.935 138.554 18.8645 138.862C19.0345 138.544 19.7632 137.77 20.3024 137.115C20.514 136.19 21.1527 135.526 19.9844 136.945C19.9844 136.945 19.9812 136.912 19.9748 136.846ZM20.3024 137.115C20.4821 136.897 20.6586 136.645 20.8319 136.361C20.7185 136.573 20.542 136.824 20.3024 137.115ZM19.9748 136.846C20.1481 136.561 20.3246 136.309 20.5043 136.091C20.1919 136.322 20.0154 136.574 19.9748 136.846Z" fill="#100F12"/>
<path d="M59.863 117.199C60.579 117.331 60.9327 118.904 60.9994 116.486C60.6998 116.85 60.321 117.088 59.863 117.199Z" fill="#100F12"/>
<path d="M53.2513 115.329L53.8582 115.371C53.9384 115.162 53.2127 114.931 53.2513 115.329Z" fill="#100F12"/>
<path d="M51.6366 116.29C51.7168 116.081 52.2435 116.331 52.0956 115.843C52.1439 116.341 51.5883 115.792 51.6366 116.29Z" fill="#100F12"/>
<path d="M54.4505 120.437C54.6883 120.816 54.7395 120.309 55.0381 120.28C54.8487 120.399 54.3124 120.049 54.4505 120.437Z" fill="#100F12"/>
<path d="M51.0558 117.552C50.6577 117.591 50.3066 117.424 50.0025 117.051C49.9149 117.529 50.0531 117.917 50.4171 118.217C50.2982 118.027 50.706 118.088 51.0558 117.552Z" fill="#100F12"/>
<path d="M48.6767 117.883C48.8661 117.765 49.5629 117.697 49.4855 116.901C49.186 117.265 48.9164 117.592 48.6767 117.883Z" fill="#100F12"/>
<path d="M51.741 121.504C51.7796 121.902 51.1921 122.06 52.0367 122.48C52.1307 122.069 52.0321 121.744 51.741 121.504Z" fill="#100F12"/>
<path d="M50.9157 121.283C50.888 121.687 50.8571 122.059 50.8229 122.397C50.8838 121.989 50.9544 121.681 50.9157 121.283Z" fill="#100F12"/>
<path d="M42.327 121.815C42.298 121.517 41.6911 121.475 42.0989 121.536C42.1279 121.835 42.6449 121.985 42.327 121.815Z" fill="#100F12"/>
<path d="M45.9691 125.179C45.7603 125.099 45.4202 125.735 45.2501 126.053C45.4202 125.735 46.1971 125.458 45.9691 125.179Z" fill="#100F12"/>
<path d="M34.6987 134.311C34.6794 134.112 34.8785 134.093 34.7596 133.903C34.6504 133.813 34.5896 134.221 34.6987 134.311Z" fill="#100F12"/>
<path d="M22.5201 134.087C22.6196 134.077 22.8699 133.55 22.9404 133.242C23.1105 132.924 22.9404 133.242 22.5201 134.087Z" fill="#100F12"/>
<path d="M23.1105 132.924C23.011 132.934 23.0207 133.033 22.9308 133.143C22.9907 133.07 23.0506 132.997 23.1105 132.924Z" fill="#100F12"/>
<path d="M22.3722 133.599L22.9018 132.844C22.8216 133.053 22.7221 133.062 22.3722 133.599Z" fill="#100F12"/>
<path d="M22.9018 132.844C22.9682 132.838 23.0313 132.798 23.0912 132.725L22.9018 132.844Z" fill="#100F12"/>
<path d="M22.2631 133.509C22.629 133.138 22.9617 132.771 23.2613 132.407C22.8921 132.745 22.6322 133.172 22.2631 133.509Z" fill="#100F12"/>
<path d="M17.6343 137.575C17.8943 137.148 17.9938 137.138 18.0643 136.83C17.2362 137.614 17.9938 137.138 17.6343 137.575Z" fill="#100F12"/>
<path d="M22.8631 132.446C23.5116 131.881 21.4281 133.188 21.2387 133.307C21.7751 133.657 22.3046 132.902 23.0622 132.427C22.7733 132.555 21.3673 133.596 22.8631 132.446Z" fill="#100F12"/>
<path d="M19.2423 135.51C19.5612 135.345 19.8073 135.12 19.9806 134.836C19.9806 134.836 18.3755 135.896 19.2423 135.51Z" fill="#100F12"/>
<path d="M16.7733 125.602C16.8729 125.593 16.8825 125.692 16.5356 125.224C15.9452 126.386 16.5936 125.821 16.7733 125.602Z" fill="#100F12"/>
<path d="M19.7313 117.78C19.4163 116.605 19.4259 116.704 19.1785 116.226C18.9476 116.952 19.3457 116.913 19.7313 117.78Z" fill="#100F12"/>
<path d="M24.1261 94.7475C24.3252 94.7281 24.5146 94.6093 24.6141 94.5996C24.3861 94.3204 24.216 94.6383 24.1261 94.7475Z" fill="#100F12"/>
</g>
<defs>
<clipPath id="clip0_28_35736">
<rect width="132" height="201" fill="white" transform="translate(200.152 0.597168) rotate(84.4547)"/>
</clipPath>
</defs>
</svg>
