<svg width="190" height="56" viewBox="0 0 190 56" fill="none" xmlns="http://www.w3.org/2000/svg">
<g clip-path="url(#clip0_27_35037)">
<path d="M114.7 15.5002C114.7 15.5002 114.667 15.4669 114.6 15.4002C114.7 15.5002 114.7 15.6002 114.7 15.5002Z" fill="#100F12"/>
<path d="M124 16.1002C123.9 16.0002 123.8 15.9002 123.5 15.8002C123.633 15.9335 123.8 16.0335 124 16.1002Z" fill="#100F12"/>
<path d="M85.8001 11.5002C85.5334 11.5002 85.3001 11.5002 85.1001 11.5002C85.5001 11.6002 85.7001 11.6002 85.8001 11.5002Z" fill="#100F12"/>
<path d="M105.3 15.2002C105.167 15.1335 105.033 15.1002 104.9 15.1002C105.033 15.1669 105.167 15.2002 105.3 15.2002Z" fill="#100F12"/>
<path d="M152.5 18.0002C152.3 17.9002 152.1 17.9002 151.9 17.9002C152 18.1002 152.2 18.1002 152.5 18.0002Z" fill="#100F12"/>
<path d="M144.6 16.4002C144.6 16.3335 144.6 16.3335 144.6 16.4002Z" fill="#100F12"/>
<path d="M151.9 17.9002C151.767 17.6335 151.6 17.3669 151.4 17.1002C151.2 17.1002 150.5 17.7002 149.8 17.7002C150 18.7002 151.4 18.1002 151.9 17.9002Z" fill="#100F12"/>
<path d="M114.8 15.4002C115.2 15.5002 114.8 15.5002 114.8 15.4002Z" fill="#100F12"/>
<path d="M119.2 15.4002C119.067 15.3335 118.9 15.3002 118.7 15.3002C118.9 15.4002 119 15.4002 119.2 15.4002Z" fill="#100F12"/>
<path d="M134.8 18.8002C134.8 18.7335 134.767 18.7002 134.7 18.7002C134.7 18.8002 134.8 18.8002 134.8 18.8002Z" fill="#100F12"/>
<path d="M118.7 15.3002C118.6 15.2002 118.5 15.2002 118.4 15.2002C118.533 15.2002 118.633 15.2335 118.7 15.3002Z" fill="#100F12"/>
<path d="M33.2001 34.1002C33.4667 34.3002 33.7334 34.4669 34.0001 34.6002C34.4001 34.4002 33.2001 33.8002 32.9001 33.9002C33.2001 35.0002 33.1001 34.2002 33.2001 34.1002Z" fill="#100F12"/>
<path d="M72.7001 37.2002C72.6001 36.9002 72.4001 37.5002 72.4001 37.7002C72.9334 37.5669 73.5001 37.5669 74.1001 37.7002C73.4001 36.7002 74.0001 37.8002 72.7001 37.2002Z" fill="#100F12"/>
<path d="M43.4001 37.4002C43.5334 37.4669 43.6334 37.5335 43.7001 37.6002C43.6001 37.4002 43.5001 37.4002 43.4001 37.4002Z" fill="#100F12"/>
<path d="M88.3001 3.6002C88.5001 3.6002 88.6667 3.56687 88.8001 3.5002C88.6001 3.5002 88.4001 3.5002 88.3001 3.6002Z" fill="#100F12"/>
<path d="M74.7001 55.3002C74.9667 55.2335 75.2667 55.2002 75.6001 55.2002C75.8001 54.4002 73.6001 55.1002 73.6001 55.1002C73.9334 55.1669 74.3001 55.2335 74.7001 55.3002Z" fill="#100F12"/>
<path d="M58.7001 51.0002C58.6334 50.9335 58.5667 50.8669 58.5001 50.8002C58.5001 50.8669 58.5667 50.9335 58.7001 51.0002Z" fill="#100F12"/>
<path d="M73.3001 34.2002C73.1001 33.6002 72.9001 33.0002 72.7001 32.4002C72.7001 32.8002 72.9001 34.1002 73.3001 34.2002Z" fill="#100F12"/>
<path d="M151 16.0002L151.9 16.5002C152.2 16.3002 151.2 15.6002 151 16.0002Z" fill="#100F12"/>
<path d="M147.1 15.5002C147.4 15.4002 148.2 16.1002 148.4 15.5002C147.9 16.0002 147.4 15.0002 147.1 15.5002Z" fill="#100F12"/>
<path d="M149.3 21.8002C148.8 21.7002 148.2 21.0002 147.9 21.3002C148.1 21.9002 148.7 21.5002 149.3 21.8002Z" fill="#100F12"/>
<path d="M143.5 14.8002C142.833 15.0669 142.6 15.5002 142.8 16.1002C143 15.5002 144.6 16.2002 143.3 16.3002C143.767 16.2335 144.267 16.2002 144.8 16.2002C144.133 15.9335 143.7 15.4669 143.5 14.8002Z" fill="#100F12"/>
<path d="M147.8 21.9002C147.6 20.9002 146.6 21.5002 147.2 20.6002C146.9 20.3002 147.1 21.2002 146.4 21.1002C146.8 21.4335 147.267 21.7002 147.8 21.9002Z" fill="#100F12"/>
<path d="M140.2 14.4002C140.8 14.5002 142 15.0002 142.7 14.3002C141.833 14.1669 141 14.2002 140.2 14.4002Z" fill="#100F12"/>
<path d="M144.8 20.2002C144.6 20.0002 144.367 19.8335 144.1 19.7002C144.033 19.9002 143.967 20.1335 143.9 20.4002C143.6 20.3002 145.2 19.9002 144.8 20.2002Z" fill="#100F12"/>
<path d="M141.6 20.0002C141.267 20.0002 140.933 20.0335 140.6 20.1002C140.7 20.2002 141.4 21.7002 141.7 20.8002C141.567 20.5335 141.533 20.2669 141.6 20.0002Z" fill="#100F12"/>
<path d="M138.9 19.9002C139.5 19.7669 140.067 19.5669 140.6 19.3002C140.1 19.3002 139.5 19.6002 138.9 19.9002Z" fill="#100F12"/>
<path d="M125 11.9002C125.2 11.6002 124.2 11.0002 124.8 11.5002C124.6 11.7002 125.3 12.3002 125 11.9002Z" fill="#100F12"/>
<path d="M127 17.7002C126.6 17.4002 125.2 17.6002 124.6 17.7002C125.3 17.7002 127 18.1002 127 17.7002Z" fill="#100F12"/>
<path d="M101 14.5002C101.533 14.7002 102 14.6669 102.4 14.4002C96.7001 14.7002 101 14.8002 101 14.5002Z" fill="#100F12"/>
<path d="M95.6001 13.3002C96.0001 13.2002 96.3001 13.4002 96.3001 13.0002C96.2001 12.9002 95.5001 13.1002 95.6001 13.3002Z" fill="#100F12"/>
<path d="M62.5001 12.5002C62.5001 13.1002 62.7001 13.3002 63.1001 13.0002C62.9001 12.5002 62.7001 12.9002 62.5001 12.5002Z" fill="#100F12"/>
<path d="M63.7001 17.2002C63.8001 17.4002 63.9001 17.5002 63.9001 17.3002C63.9001 17.3002 63.7001 17.3002 63.7001 17.2002Z" fill="#100F12"/>
<path d="M63.6001 18.0002C64.1001 17.9002 64.4001 18.8002 64.6001 17.5002C64.3001 17.2002 64.3001 18.3002 63.6001 18.0002Z" fill="#100F12"/>
<path d="M67.9001 23.7002C67.8001 22.7002 65.7001 21.1002 65.1001 20.7002C65.2001 23.2002 67.3001 22.3002 67.9001 23.7002Z" fill="#100F12"/>
<path d="M66.5001 20.9002C66.4001 20.7002 66.8001 20.1002 66.3001 19.9002C65.9001 20.0002 66.1001 20.8002 66.5001 20.9002Z" fill="#100F12"/>
<path d="M67.2001 26.2002L66.6001 25.8002C66.8001 25.9002 67.0001 26.7002 67.2001 26.2002Z" fill="#100F12"/>
<path d="M67.6001 29.3002C67.6001 29.7002 68.9001 30.1002 68.2001 29.0002C68.2001 29.2002 67.9001 29.9002 67.6001 29.3002Z" fill="#100F12"/>
<path d="M70.9001 34.9002C71.1001 35.1669 71.2667 35.4669 71.4001 35.8002C71.4001 35.6002 71.3001 34.6002 70.9001 34.9002Z" fill="#100F12"/>
<path d="M73.9001 34.5002C74.4001 34.0002 73.5001 33.6002 73.5001 32.9002C73.6001 33.7002 73.5001 33.6002 73.9001 34.5002Z" fill="#100F12"/>
<path d="M70.9001 36.8002C70.6001 36.7002 70.6001 36.2002 70.6001 36.0002C70.3001 36.2002 70.6001 36.8002 70.9001 36.8002Z" fill="#100F12"/>
<path d="M71.9001 37.8002C71.4334 37.6002 70.9667 37.4335 70.5001 37.3002C70.8334 37.7002 71.2001 38.0335 71.6001 38.3002C70.7001 40.7002 72.0001 39.3002 73.1001 39.8002C72.8001 39.3002 71.3001 38.5002 71.9001 37.8002Z" fill="#100F12"/>
<path d="M73.0001 35.4002C73.3001 36.1002 72.9001 35.8002 73.5001 36.6002C74.2001 36.2002 73.1001 35.7002 73.0001 35.4002Z" fill="#100F12"/>
<path d="M70.9001 54.2002C70.6334 54.3335 70.3667 54.4669 70.1001 54.6002C70.5001 54.6002 71.5001 55.1002 70.9001 54.2002Z" fill="#100F12"/>
<path d="M70.5001 53.9002C69.8001 53.4002 69.1001 53.8002 69.1001 53.3002C68.7001 53.4335 68.3334 53.5669 68.0001 53.7002C68.8001 54.0002 69.7001 53.7002 70.5001 53.9002Z" fill="#100F12"/>
<path d="M51.1001 47.5002C51.1667 47.1002 51.4001 46.9335 51.8001 47.0002C50.9001 47.0002 49.0001 47.0002 48.6001 47.0002C49.5001 47.2002 50.1001 46.9002 51.1001 47.5002Z" fill="#100F12"/>
<path d="M5.00007 29.2002C5.10007 29.0002 5.00007 28.8002 5.00007 28.6002C4.20007 28.6002 5.10007 29.2002 5.00007 29.2002Z" fill="#100F12"/>
<path d="M133.3 32.1002H133.1C133.1 32.6002 133.2 32.2002 133.3 32.1002Z" fill="#100F12"/>
<path d="M133.3 32.1002L133.5 32.2002C133.433 32.1335 133.367 32.1002 133.3 32.1002Z" fill="#100F12"/>
<path d="M133.9 32.8002C134.3 33.1002 134.7 32.9002 134.7 32.2002C134.5 32.7002 134 32.2002 133.9 32.8002Z" fill="#100F12"/>
<path d="M135.3 31.5002C135.233 31.8335 135.067 32.1335 134.8 32.4002C135.133 32.4669 135.4 32.6335 135.6 32.9002C135.7 33.0002 135.5 31.8002 135.3 31.5002Z" fill="#100F12"/>
<path d="M153.4 25.6002C153.4 25.6669 153.433 25.7002 153.5 25.7002C153.4 25.6002 153.4 25.6002 153.4 25.6002Z" fill="#100F12"/>
<path d="M150.5 27.4002C150.367 27.3335 150.267 27.2669 150.2 27.2002C150.267 27.3335 150.367 27.4002 150.5 27.4002Z" fill="#100F12"/>
<path d="M162.7 22.8002C162.7 22.8002 162.7 22.7669 162.7 22.7002C162.633 22.7002 162.633 22.7335 162.7 22.8002Z" fill="#100F12"/>
<path d="M140.5 32.2002C140.6 32.2002 140.7 32.2002 140.7 32.1002C140.6 32.0002 140.6 32.0002 140.5 32.2002Z" fill="#100F12"/>
<path d="M140.7 32.1002C141.1 32.5002 141.6 32.0002 141.4 31.6002C140.8 31.6002 141 31.5002 140.7 32.1002Z" fill="#100F12"/>
<path d="M153.4 25.8002C153.4 25.6002 153.3 25.7002 153.4 25.8002Z" fill="#100F12"/>
<path d="M152 26.7002C152.067 26.7002 152.1 26.7002 152.1 26.7002H152Z" fill="#100F12"/>
<path d="M152.3 26.7002C152.233 26.7002 152.167 26.7002 152.1 26.7002C152.2 26.8002 152.2 26.8002 152.3 26.7002Z" fill="#100F12"/>
<path d="M153.1 5.0002C153.9 5.0002 152.5 5.1002 153.4 4.8002C153.4 4.8002 152.3 5.4002 153.1 5.0002Z" fill="#100F12"/>
<path d="M172.9 20.5002C174.6 20.5002 171 20.5002 171 20.5002C171.467 20.9669 172.1 20.9669 172.9 20.5002Z" fill="#100F12"/>
<path d="M156.1 7.4002C156.167 7.46686 156.2 7.53353 156.2 7.60019C156.2 7.40019 156.2 7.4002 156.1 7.4002Z" fill="#100F12"/>
<path d="M165.3 29.8002C165.233 29.8669 165.167 29.9335 165.1 30.0002C165.233 29.9335 165.3 29.8669 165.3 29.8002Z" fill="#100F12"/>
<path fill-rule="evenodd" clip-rule="evenodd" d="M142.6 1.2002C143.133 1.26686 143.633 1.20019 144.1 1.00019C143.967 1.33353 143.767 1.60019 143.5 1.80019C143.967 1.73353 144.333 1.50019 144.6 1.10019C144.8 1.00019 144.2 2.3002 144.2 2.4002C144.8 2.8002 144.8 1.20019 145.5 1.30019C144.9 2.00019 145.4 2.2002 146 2.2002C146 2.33353 145.967 2.53353 145.9 2.80019C146.633 2.73353 147.333 2.6002 148 2.4002C147.867 2.66686 147.733 2.93353 147.6 3.2002C148 3.0002 150.5 3.00019 150.9 3.60019C150.7 3.60019 149.3 5.40019 149.3 5.50019C149.5 5.50019 151.6 5.20019 150.8 4.50019C151 4.50019 152 4.80019 152.6 4.60019C152.5 4.80019 152.6 4.90019 153 4.80019C152.667 4.93353 152.367 5.10019 152.1 5.30019C152.4 5.30019 157.1 7.30019 155.8 7.70019C156.8 8.20019 161.1 10.9002 160.1 12.1002C160.2 12.1002 160.8 11.6002 160.8 11.6002C162.4 11.7002 162.2 13.0002 162.9 13.7002C164.1 12.8002 163.7 14.1002 164.6 13.7002C164.4 13.9669 164.167 14.1669 163.9 14.3002C164.1 15.0002 164.9 13.5002 165.2 14.2002C164.9 14.6002 164.6 14.7002 164.8 15.0002C165.3 15.7002 165.2 14.4002 165.7 14.5002C164.8 15.7002 167.2 15.3002 167.4 15.5002C167.133 15.6335 166.933 15.8669 166.8 16.2002C166.9 17.1002 168.1 15.9002 168.5 16.1002C168.2 16.3002 166.9 17.5002 166.7 17.6002C168.5 17.3002 171.1 18.0002 172.8 18.2002C172.4 18.3335 171.967 18.4335 171.5 18.5002C171.5 18.5002 174.2 18.5002 174.2 19.0002C173.4 18.7002 171.6 19.2002 170.9 19.3002C171.3 19.5669 171.733 19.7669 172.2 19.9002C171.667 19.8335 171.133 19.7669 170.6 19.7002C170.6 20.0002 171.6 20.2002 171 20.5002C170.9 20.5002 170.3 20.5002 169.9 20.6002C170.5 20.8002 171.6 21.3002 171.9 21.4002C171.9 21.4002 171.933 21.4002 172 21.4002C172 21.4002 171.967 21.4002 171.9 21.4002C171.2 21.4002 171.1 21.1002 170.3 21.7002C170.6 22.0002 171.6 22.0002 171.8 22.0002C172.1 22.0002 172.7 22.2002 173.3 22.2002C173.033 22.2002 172.767 22.2335 172.5 22.3002C175.3 22.8002 177.9 24.2002 180.7 24.7002C180.633 24.7002 180.7 24.7669 180.9 24.9002C180 24.7002 179.1 24.8002 178.2 24.6002C180 25.6002 185.1 25.9002 186.1 27.5002C184.967 27.1002 183.8 26.8002 182.6 26.6002C184.1 27.7002 186.5 28.0002 188.2 28.5002C186.5 28.2002 184.7 28.1002 182.4 27.5002C184.6 28.5002 181.8 28.0002 184.6 28.7002C184.2 28.7002 183.833 28.6669 183.5 28.6002L184.9 29.2002C183.7 28.8669 182.533 28.5669 181.4 28.3002C181.533 28.3669 181.7 28.3335 181.9 28.2002C181.4 27.8002 178.8 27.5002 178.5 27.4002C179.2 27.6002 180.2 28.0002 181.1 28.4002C179.8 28.1002 178.4 28.0002 177.2 27.5002C177.9 29.0002 175.7 28.3002 175.8 28.4002C176.067 28.4002 176.3 28.5002 176.5 28.7002C173.5 29.0002 169.8 29.9002 166.8 29.1002C166.8 29.3669 166.933 29.4669 167.2 29.4002C166.4 30.9002 166.1 29.0002 165.3 29.8002C165.3 29.7002 166.3 28.3002 165.2 28.4002C164.7 29.9002 163.1 30.3002 162.4 29.8002C162.133 29.8669 162.033 30.0335 162.1 30.3002C161.833 30.0335 161.8 29.7002 162 29.3002C161.533 29.8335 161.033 30.2335 160.5 30.5002C159.3 29.4002 158 31.2002 156.5 30.1002C155.8 31.3002 154.7 30.5002 153.1 30.4002C152.9 30.7002 152.5 31.2002 152.3 31.1002C152.3 30.9002 152.267 30.6669 152.2 30.4002C151.933 30.8669 151.633 31.3335 151.3 31.8002C150.8 31.0002 150.3 30.5002 150.3 30.1002C149.9 30.5002 149.9 30.9002 150.3 31.3002C147.8 29.2002 149.9 31.0002 149.2 30.8002C149.3 32.0002 146.5 32.6002 145.4 32.5002C145.8 32.1669 146.167 31.8669 146.5 31.6002C146.7 31.9002 146.4 30.9002 146.3 31.0002C146.1 31.0669 146.033 31.2335 146.1 31.5002C146 31.7002 145.8 30.1002 145.6 30.5002C145.267 31.0335 145.333 31.2335 145.8 31.1002C145.533 31.3002 145.367 31.5335 145.3 31.8002C145 31.8002 145 31.2002 144.7 31.3002C144.833 31.7002 144.733 31.9669 144.4 32.1002C144.4 31.9002 143.1 31.0002 142.9 30.9002C143.5 31.3002 143.5 31.7002 143.1 32.1002C143.033 32.1002 143 32.0669 143 32.0002C143 32.0669 142.933 32.1669 142.8 32.3002C142.8 32.2002 142 31.1002 141.8 31.1002C141.867 31.3669 141.933 31.6335 142 31.9002C141.6 31.5002 140.1 31.5002 140.1 31.4002C140.1 31.2002 141 30.4002 140.5 29.6002C140.4 30.3002 139.6 31.2002 139.9 32.0002C139.633 31.7335 139.4 31.7335 139.2 32.0002C139.2 31.8002 139.133 31.5669 139 31.3002C138.933 31.4335 138.9 31.5669 138.9 31.7002C138.833 31.6335 138.8 31.5335 138.8 31.4002C138.7 31.7002 137.4 32.4002 137.4 32.4002C137.5 31.5002 138.4 31.1002 138.3 30.6002C137.7 29.9002 136.8 32.4002 136.7 32.4002C136.767 32.1335 136.667 31.9335 136.4 31.8002C136.3 32.3002 136.6 32.7002 135.9 32.7002C135.9 32.7002 135.7 30.9002 136.2 30.9002C136 31.2335 135.967 31.5335 136.1 31.8002C136.7 32.4002 136.7 29.5002 136.7 29.5002C136.9 29.5669 137.067 29.5335 137.2 29.4002C137.8 30.5002 136.9 29.2002 138 29.6002C137.733 29.8669 137.667 30.1669 137.8 30.5002C137.7 30.0002 138.6 30.6002 139.1 29.8002C138.9 30.5002 139.6 30.9002 139.6 30.6002C139.6 30.5002 140.2 29.6002 139.5 29.3002C139.8 29.3002 140.2 29.4002 140.3 29.0002C140.8 29.3002 140 29.8002 140.9 29.5002C141.5 29.3002 140.7 28.8002 140.7 28.7002C140.9 28.8335 141 28.7669 141 28.5002C141 28.6002 142.6 30.3002 142.8 30.4002C142.8 29.8002 142.933 29.2002 143.2 28.6002C143.2 28.8002 143 29.6002 143.5 29.2002C143.7 29.0002 142.8 27.4002 143.2 27.4002C143.4 28.0669 143.8 28.6002 144.4 29.0002C145 28.5335 145.067 28.0002 144.6 27.4002C145 27.8002 147.4 27.5002 147.1 27.4002C147.1 27.4002 148.5 27.1002 147.8 27.7002C149.1 28.3002 149.5 26.3002 150.8 25.6002C151.5 27.0002 152.1 26.3002 152.8 26.4002L153.5 25.8002C154.2 25.7002 153.8 26.4002 154.5 26.7002C154.567 26.5002 154.633 26.4002 154.7 26.4002C154.1 25.9002 155.1 24.9002 154.9 24.5002C155.167 24.5002 155.267 24.6669 155.2 25.0002C155.7 25.1002 155.5 23.7002 155.5 23.6002C155.9 23.4002 156.267 23.4669 156.6 23.8002C156.4 23.8002 155 25.6002 155 25.5002C154.933 25.7669 155 26.0002 155.2 26.2002C155.5 25.3002 155.9 26.7002 156.2 26.6002C155.1 25.8002 158.3 25.2002 157 24.2002C157.1 24.8002 156.8 25.0002 156.5 25.2002C156.2 24.3002 156.9 24.4002 157.2 23.7002C157.2 24.7002 158.1 24.1002 158.2 24.3002C158.3 24.5002 157.9 24.9002 158.6 25.2002C158.9 24.9002 158.7 23.9002 159.8 24.4002C159 24.4002 159.7 25.3002 159.7 25.3002C160.7 23.8002 161.6 22.6002 161.7 22.6002C161.967 22.8002 162.1 22.8002 162.1 22.6002C162.1 22.6002 164.3 22.6002 164.9 22.6002C164.1 22.4002 163.9 22.0002 164.1 21.9002C163.967 21.9002 163.833 21.9335 163.7 22.0002C163.7 21.9335 163.733 21.9002 163.8 21.9002C163.4 22.0002 162.9 21.9002 162.6 22.0002C162.7 21.9002 162.9 21.4002 162.7 21.3002C162.2 21.5002 162.9 21.6002 161.5 21.6002C161.4 22.0002 160.5 23.0002 160.4 23.4002C160 23.2002 159.567 23.1002 159.1 23.1002C158.7 22.4002 158.9 23.1002 157.3 22.4002C157.633 22.2002 158 22.0669 158.4 22.0002C157.6 22.0002 155.8 21.1002 154.5 21.4002C156.4 20.1002 154.2 19.8002 153.6 20.2002C153.8 20.3335 153.967 20.4669 154.1 20.6002C153.633 20.4002 153.133 20.3669 152.6 20.5002C152.467 21.0335 152.667 21.4002 153.2 21.6002C152.4 21.3002 148.9 20.3002 148.9 20.8002C149.367 20.7335 149.6 20.9335 149.6 21.4002C149.333 21.1335 149.067 21.0669 148.8 21.2002C149.5 20.7002 146.8 20.2002 146.6 20.2002C146.3 19.4002 146.6 20.0002 145.6 19.6002C145.933 19.0002 145.833 18.5002 145.3 18.1002C144.767 18.8335 144.067 19.3335 143.2 19.6002C143.3 20.0002 142 17.6002 142 19.2002C143 21.2002 142.6 19.3002 142.9 20.8002C142.7 19.9002 139.9 17.6002 138.4 18.9002C138.667 19.1669 138.767 19.4669 138.7 19.8002C137.2 18.8002 132.6 18.3002 132.2 18.1002C131.3 17.8002 131.1 17.8002 130.2 17.3002C130.2 17.4002 128.3 17.4002 128.7 16.8002C128.2 16.6002 128.5 16.9002 128.2 16.7002C128 16.8002 126.6 16.7002 126.6 16.7002C126.8 16.8335 126.967 16.9335 127.1 17.0002C125 16.9002 123.3 17.4002 121.4 17.3002C120.8 14.5002 117.2 15.7002 114.8 15.3002C114.5 15.3002 111 13.0002 110.6 13.6002C111.267 14.1335 111.933 14.5669 112.6 14.9002C112.2 14.9002 109.8 15.1002 110.3 15.7002C108.8 15.6002 107.3 16.3002 105.3 15.2002C105.5 15.3002 110.5 14.7002 110.6 14.6002C110.533 14.4002 110.567 14.2669 110.7 14.2002C110.1 14.2002 108.3 12.6002 108.2 12.6002C108.8 13.0002 107.3 13.3002 108.4 13.4002C107.133 13.5335 105.9 13.5335 104.7 13.4002C106 13.5002 104 14.0002 104.7 14.5002C104.7 13.8002 106.9 14.4002 105.3 13.8002C105.7 13.8002 106.1 13.8002 106.5 13.8002C106.6 14.4002 105.1 14.0002 106.2 14.8002C105.1 14.9002 102.2 14.5002 101.5 13.6002C101.767 13.5335 102.033 13.5002 102.3 13.5002C100.8 13.1002 99.2001 13.3002 97.5001 12.5002C98.6001 12.8002 97.9001 11.8002 98.9001 12.0002C97.1001 11.2002 95.8001 12.8002 94.0001 13.0002C92.7001 13.2002 91.4001 12.2002 90.0001 12.7002C89.8001 12.7002 91.5001 10.7002 88.7001 11.5002C88.9667 11.7669 89.2334 12.0002 89.5001 12.2002C88.2334 12.2002 87.0001 11.9669 85.8001 11.5002C85.8667 11.3669 85.9667 11.2335 86.1001 11.1002C84.4001 11.3002 78.2001 10.2002 76.8001 10.0002C76.2001 9.9002 72.0001 8.4002 71.5001 9.1002C71.0001 9.7002 72.5001 13.0002 72.6001 13.4002C73.7001 17.3002 75.3001 21.8002 76.6001 26.1002C77.6001 29.6002 78.4001 33.9002 79.6001 36.7002C80.5001 38.6002 81.8001 40.6002 82.5001 43.0002C83.4001 46.2002 84.6001 48.1002 81.9001 51.3002C81.2001 52.2002 78.5001 54.9002 77.6001 54.9002C78.6001 53.1002 74.4001 55.1002 72.5001 54.4002C72.7001 54.3335 72.9001 54.2669 73.1001 54.2002C72.0001 53.9002 70.7001 52.9002 69.6001 53.3002C70.2001 53.0335 70.3001 52.7002 69.9001 52.3002C69.4001 52.2002 67.8001 52.4002 67.4001 51.7002C67.5334 52.1669 67.6334 52.6335 67.7001 53.1002C66.7001 52.5002 66.5001 53.9002 65.6001 53.3002C65.7334 53.1002 65.8334 52.9335 65.9001 52.8002C62.0001 51.1002 58.7001 51.2002 54.7001 49.7002C53.0001 49.1002 52.7001 47.9002 51.3001 48.5002C51.1001 48.2335 50.9001 48.0002 50.7001 47.8002C51.3667 47.8002 52.0001 47.7002 52.6001 47.5002C51.7001 47.0002 47.1001 45.4002 47.3001 45.2002C46.7001 45.0002 46.1334 45.0669 45.6001 45.4002C46.5001 45.8002 46.9001 45.6002 47.7001 45.7002C47.6334 45.8335 47.6667 45.9335 47.8001 46.0002C46.8001 45.8002 46.6001 46.6002 46.3001 46.6002C43.9001 46.5002 41.3001 44.8002 39.2001 43.8002C37.0001 42.8002 34.9001 42.2002 32.5001 41.5002C31.2001 41.1002 29.5001 40.1002 28.1001 39.8002C27.0001 39.6002 18.3001 39.0002 17.8001 37.4002C18.0001 37.4002 18.1667 37.3669 18.3001 37.3002C17.3001 37.1002 13.9001 34.9002 14.6001 35.0002C12.1001 34.6002 9.50007 34.2002 6.90007 33.1002C6.70007 33.0002 0.200073 29.0002 2.00007 28.5002C1.13341 28.5669 0.36674 28.2669 -0.299927 27.6002C0.900073 27.5002 5.90007 29.9002 7.30007 29.6002C7.16674 29.7335 7.06674 29.9002 7.00007 30.1002C8.10007 30.4002 8.10007 28.9002 8.90007 29.0002C9.20007 29.0002 9.30007 31.8002 10.3001 30.8002C10.9001 30.2002 9.20007 29.1002 11.1001 29.4002C10.4001 30.5002 15.2001 30.5002 15.9001 30.7002C15.7001 30.9002 13.0001 30.1002 13.9001 31.4002C15.0001 30.4002 16.8001 31.7002 18.0001 30.9002C17.9001 31.3002 19.4001 31.8002 19.9001 31.7002C19.7001 31.5669 19.5001 31.4335 19.3001 31.3002C21.4001 32.8002 24.2001 31.3002 26.4001 32.3002C26.4001 32.3002 25.4001 34.0002 24.9001 34.3002C24.3001 34.8002 28.1001 34.5002 28.1001 34.5002C28.1667 34.1002 28.1001 33.8335 27.9001 33.7002C28.7001 33.9669 29.5667 34.0669 30.5001 34.0002C29.2001 33.8002 31.6001 32.6002 32.0001 33.1002C31.8667 33.3002 31.7001 33.5002 31.5001 33.7002C31.9667 33.9669 32.4334 34.0335 32.9001 33.9002C32.6001 34.8002 31.5001 33.5002 31.3001 34.6002C33.1001 35.4002 35.0001 34.6002 36.9001 35.1002C38.4001 35.5002 37.2001 35.6002 38.6001 36.2002C41.2001 37.3002 42.9001 37.4002 45.0001 38.1002C47.2001 38.8002 59.1001 41.8002 59.1001 43.5002C59.1001 42.5002 68.4001 45.5002 70.0001 46.1002C69.4001 45.5002 70.8001 46.0002 71.0001 45.9002C70.8001 46.3002 70.4667 46.5335 70.0001 46.6002C70.5001 47.0002 72.2001 46.2002 72.3001 46.4002C72.6334 47.0002 72.5001 47.2335 71.9001 47.1002C72.1667 47.5002 72.4667 47.6002 72.8001 47.4002C72.6001 47.1335 72.5667 46.8335 72.7001 46.5002C72.8001 47.1002 73.2001 47.0002 73.6001 47.5002C73.5001 47.3002 73.6001 46.3002 74.0001 47.1002C74.0001 46.7002 73.9001 46.3669 73.7001 46.1002C73.9667 46.4335 74.3001 46.7669 74.7001 47.1002C74.9667 46.9669 75.0667 46.7669 75.0001 46.5002C74.5334 46.3002 74.1334 46.0002 73.8001 45.6002C74.3001 45.8002 76.5001 46.9002 76.7001 47.3002C75.4001 44.1002 73.9001 44.0002 72.2001 42.5002C72.3001 41.9002 73.2001 42.9002 73.4001 42.5002C73.4001 42.1669 73.3667 41.8335 73.3001 41.5002C72.7001 41.1669 72.3001 41.3335 72.1001 42.0002C72.0334 41.5335 71.8667 41.1002 71.6001 40.7002C72.1001 41.3002 72.4001 39.5002 72.9001 41.0002C72.9001 40.8002 72.9001 40.5669 72.9001 40.3002C73.3667 40.5002 73.7667 40.7669 74.1001 41.1002C73.8334 40.3669 73.5334 39.6669 73.2001 39.0002C73.6001 39.4669 74.0001 39.9002 74.4001 40.3002C74.0667 39.5002 73.9667 38.7002 74.1001 37.9002C74.1667 38.5669 74.4334 39.1002 74.9001 39.5002C75.6334 38.9669 75.8001 38.3002 75.4001 37.5002C74.6001 37.1002 75.0001 38.3002 75.2001 38.6002C75.0667 38.6669 74.9334 38.7002 74.8001 38.7002C74.8001 37.6002 73.0001 35.5002 73.3001 34.5002C73.5001 34.8335 73.7001 35.1669 73.9001 35.5002C75.1001 35.0002 73.8001 31.3002 73.1001 31.8002C73.1667 32.0002 73.2334 32.2002 73.3001 32.4002C72.4001 32.4002 73.3001 30.9002 72.4001 31.4002C72.3001 31.7002 71.6001 32.0002 71.6001 32.7002C72.4001 33.1002 73.2001 33.9002 73.0001 35.0002C72.0001 35.2002 72.4001 33.6002 71.5001 33.0002C71.8001 34.1002 70.9001 33.1002 71.0001 33.7002C70.6001 32.6002 69.7001 33.1002 69.3001 31.9002C69.6334 32.0335 69.9334 32.1669 70.2001 32.3002C69.8667 31.3669 69.2667 30.8669 68.4001 30.8002C68.6001 30.2669 68.6334 29.7335 68.5001 29.2002C68.1001 28.3002 67.6001 28.0002 67.2001 27.2002C67.8667 27.3335 68.3334 27.7335 68.6001 28.4002C68.5334 28.2002 68.5667 28.1669 68.7001 28.3002C68.6334 27.8335 68.5001 27.4335 68.3001 27.1002C69.2001 28.1002 71.8001 30.0002 71.2001 31.5002C71.8667 31.5669 72.3334 31.3335 72.6001 30.8002C70.1001 28.6002 69.2001 26.2002 67.7001 24.1002C67.9001 24.2335 68.1001 24.3669 68.3001 24.5002C70.5001 22.0002 65.3001 19.8002 65.0001 17.9002C65.5001 17.3002 65.9001 18.9002 66.3001 18.0002C65.8001 16.3002 64.7001 15.5002 63.3001 15.9002C63.3001 15.6335 63.3001 15.3669 63.3001 15.1002C63.5001 15.3002 63.7001 15.5335 63.9001 15.8002C64.0334 15.2669 64.1001 14.8669 64.1001 14.6002C64.1667 14.6002 64.2334 14.5669 64.3001 14.5002C64.3001 14.2335 64.2667 14.0002 64.2001 13.8002C64.2001 13.6002 64.1667 13.5335 64.1001 13.6002C63.6001 12.2002 62.3001 10.7002 61.6001 9.3002C61.7001 9.6002 61.6001 10.1002 61.6001 10.5002C61.2001 9.3002 60.6001 8.7002 60.5001 8.0002C61.4001 9.3002 60.9001 6.4002 61.9001 6.8002C61.6334 7.6002 61.8001 8.23353 62.4001 8.7002C62.0001 6.8002 65.1001 5.1002 61.0001 5.8002C60.6001 4.8002 63.1001 4.7002 63.4001 4.0002C63.0001 5.2002 66.0001 0.700199 67.3001 0.400199C67.2334 0.533533 67.1334 0.700199 67.0001 0.900199C67.5001 0.500199 68.7001 0.600199 69.3001 0.400199C71.1001 0.700199 76.0001 1.1002 77.0001 1.3002C79.9001 1.9002 82.6001 2.2002 85.1001 3.6002C85.3667 3.26686 85.2667 3.1002 84.8001 3.1002C86.4001 2.6002 87.0001 3.9002 88.3001 3.6002C87.9001 4.0002 86.8001 3.7002 86.6001 4.6002C86.9001 3.6002 93.5001 4.6002 93.9001 5.2002C94.3001 5.33353 94.6001 5.2002 94.8001 4.8002C95.3334 5.2002 95.3001 5.56686 94.7001 5.9002C99.5001 6.3002 103.5 6.9002 108.7 8.10019C109.7 8.40019 110 8.20019 111.3 8.60019C113.1 9.10019 114.7 9.9002 116.5 10.4002C118.4 10.8002 118.5 10.3002 117.8 11.1002C118.5 11.2002 121.7 9.7002 120.8 11.5002C121.933 11.2335 123.067 10.9669 124.2 10.7002C124.5 11.3002 124.1 10.8002 124.7 11.5002C124 11.7002 125.3 11.7002 124.3 12.0002C124.2 12.9002 126.3 12.9002 125.8 12.4002C126.067 12.6669 126.033 12.9002 125.7 13.1002C126.9 13.7002 127 12.5002 126.4 11.9002C129.9 14.5002 135.1 12.0002 139.9 14.1002C138.767 14.1669 137.6 14.2002 136.4 14.2002C136.6 14.2669 136.767 14.3002 136.9 14.3002C136.567 14.3002 136.233 14.4002 135.9 14.6002C136.3 14.6002 138 14.9002 138.1 15.0002C136.6 14.9002 138.4 15.5002 137.6 15.9002C138.2 15.9002 140.1 16.3002 138 15.3002C138.2 15.1002 141.2 15.2002 142.1 15.3002C142.3 15.6002 145.1 17.4002 145.4 17.5002C145 17.2335 144.733 16.8669 144.6 16.4002C145 16.4669 145.367 16.4002 145.7 16.2002C145.567 16.2669 145.433 16.3669 145.3 16.5002C145.833 16.7002 146.3 16.6335 146.7 16.3002C147.3 16.5669 147.267 16.7669 146.6 16.9002C148.7 17.6002 146.8 17.3002 148.3 18.2002C148.3 17.8669 148.3 17.5335 148.3 17.2002C148.9 17.6002 153 18.9002 153 19.1002C152.8 19.1002 150 19.3002 150.9 20.5002C153.6 19.8002 153.3 18.8002 155.7 19.9002C156.2 19.8002 156.4 19.7002 156.4 19.7002C156.4 19.7002 156.433 19.8002 156.5 20.0002C156.9 20.2002 157.6 19.7002 157.7 19.6002C157.7 19.8002 160.4 20.1002 160.8 20.0002C160.1 20.6002 157.2 20.9002 157.2 21.1002C158.4 22.4002 161.5 20.9002 161.9 20.2002C161.9 20.1002 162.4 21.0002 162.3 21.0002C162.5 20.8669 162.667 20.7335 162.8 20.6002C162.8 20.4002 161 19.4002 161.1 19.4002C161.433 19.2002 161.6 18.9335 161.6 18.6002C161.5 18.5002 160.7 18.7002 160.8 18.2002C160.4 18.8002 159.6 20.1002 159.4 19.4002C159.533 19.2669 159.633 19.1335 159.7 19.0002C159.2 18.4002 158.3 18.2002 158.1 17.2002C157.9 16.8002 155.2 15.7002 155.1 15.8002C155.1 15.8002 156 15.1002 156.1 15.1002C155.6 13.9002 154.7 13.3002 153.9 13.5002C154.1 13.7002 154.5 13.5002 154.7 13.7002C154.567 13.7669 154.567 13.8669 154.7 14.0002C153.2 13.1002 155 15.3002 152.6 13.5002C151.6 12.8002 150.6 11.3002 149.6 10.6002C148.6 9.70019 148.7 8.8002 147.2 9.2002C147.3 9.5002 143.5 5.20019 144.7 5.60019C143 5.00019 141.6 3.90019 141.3 2.10019C142.2 1.20019 141.6 0.300195 141.7 -0.299805C141.7 0.200195 142.6 1.1002 142.6 1.2002ZM160.8 18.0002C160.8 18.0669 160.8 18.1335 160.8 18.2002C161 17.8002 161.1 17.6002 160.8 18.0002ZM137.5 15.9002C137.567 15.9002 137.6 15.9002 137.6 15.9002C137.533 15.9002 137.5 15.9002 137.5 15.9002ZM68.7001 0.200199C68.7001 0.200199 69.5001 0.300199 69.3001 0.400199C68.9667 0.333533 68.7667 0.266865 68.7001 0.200199ZM68.0001 26.7002C68.0667 26.8335 68.1667 26.9669 68.3001 27.1002C68.1001 26.9669 68.0001 26.8335 68.0001 26.7002ZM75.3001 38.5002C75.3001 38.6335 75.2667 38.6669 75.2001 38.6002C75.2001 38.5335 75.2334 38.5002 75.3001 38.5002ZM27.4001 33.5002C27.6001 33.5002 27.7667 33.5669 27.9001 33.7002C27.7001 33.6335 27.5334 33.5669 27.4001 33.5002ZM18.2001 30.7002C18.1334 30.7669 18.0667 30.8335 18.0001 30.9002C18.0001 30.8335 18.0667 30.7669 18.2001 30.7002ZM7.60007 29.4002C7.53341 29.4669 7.43341 29.5335 7.30007 29.6002C7.36674 29.5335 7.46674 29.4669 7.60007 29.4002ZM18.6001 37.3002C18.4667 37.3002 18.3667 37.3002 18.3001 37.3002C18.4334 37.3669 18.5334 37.3669 18.6001 37.3002ZM86.4001 11.0002C86.2667 11.0002 86.1667 11.0335 86.1001 11.1002C86.3001 11.1002 86.4001 11.0669 86.4001 11.0002ZM110.8 14.0002C110.733 14.0669 110.7 14.1335 110.7 14.2002C110.767 14.2002 110.8 14.1335 110.8 14.0002ZM128.2 16.7002C128.267 16.7002 128.267 16.7002 128.2 16.7002ZM162.6 22.0002C162.6 22.0669 162.6 22.0669 162.6 22.0002ZM162.9 22.3002C162.5 22.2002 163.1 22.1002 163.7 22.0002C163.633 22.0002 163.6 22.0335 163.6 22.1002C163.6 22.0002 163.6 21.9002 162.9 22.3002ZM164.4 21.8002C164.267 21.8002 164.167 21.8335 164.1 21.9002C164.3 21.9002 164.4 21.8002 164.4 21.8002ZM155 26.6002C154.8 26.6002 154.7 26.4002 154.7 26.4002C154.767 26.4669 154.867 26.5335 155 26.6002ZM144.4 32.1002C144.467 32.1002 144.467 32.1002 144.4 32.1002ZM153 30.4002C153.067 30.4002 153.1 30.4002 153.1 30.4002C153.3 30.1002 153.3 29.9002 153 30.4002ZM183.1 29.0002C182.5 28.8002 181.8 28.6002 181.1 28.4002C181.9 28.5002 182.5 28.7002 183.1 29.0002ZM181.4 24.8002C181.133 24.7335 180.9 24.7002 180.7 24.7002C180.767 24.7002 181 24.7335 181.4 24.8002ZM173.8 22.3002C174.1 22.2002 174.4 22.2002 174.5 21.9002C174.4 21.9002 172.2 21.5002 172.5 21.2002C173.6 21.2002 177.5 21.8002 178.4 22.4002C177.867 22.3335 177.367 22.2335 176.9 22.1002C177.967 22.5669 179.067 22.8335 180.2 22.9002C180.5 23.2002 180.7 23.5002 182.5 24.4002C181.567 24.2002 180.6 23.9335 179.6 23.6002C179.667 23.6669 179.667 23.7002 179.6 23.7002C180 23.9002 180.7 24.3002 180.8 24.3002C178.2 24.1002 176.2 22.4002 173.8 22.3002ZM179.4 23.6002C179.467 23.6669 179.533 23.7002 179.6 23.7002C179.467 23.6335 179.4 23.6002 179.4 23.6002ZM169.9 20.6002C169.4 20.6002 169 20.7002 169.4 20.8002C170 20.8002 170 20.7002 169.9 20.6002ZM152.1 5.30019C152.033 5.30019 152.033 5.30019 152.1 5.30019ZM153 4.20019C153 4.50019 152.8 4.60019 152.6 4.60019C152.7 4.50019 152.9 4.20019 153 4.20019ZM146.6 2.30019C146.8 2.30019 146.933 2.33353 147 2.4002C146.8 2.5002 146.7 2.40019 146.6 2.30019ZM142.1 15.3002C142.033 15.2335 142.1 15.2335 142.3 15.3002C142.233 15.3002 142.167 15.3002 142.1 15.3002ZM64.1001 13.6002C64.1667 13.6669 64.2001 13.7335 64.2001 13.8002C64.2001 13.9335 64.1667 14.2002 64.1001 14.6002C63.7001 14.6002 64.0001 13.6002 64.1001 13.6002ZM173.3 22.2002C173.5 22.2002 173.667 22.2335 173.8 22.3002C173.667 22.3002 173.5 22.2669 173.3 22.2002ZM171.8 22.0002C171.733 21.9335 171.667 21.9002 171.6 21.9002C171.8 21.9002 171.867 21.9335 171.8 22.0002ZM146 2.2002C146.2 1.8002 146.3 2.10019 146.6 2.30019C146.4 2.30019 146.2 2.26686 146 2.2002ZM123.4 15.9002C123.5 16.7002 125.2 16.3002 126.5 16.8002C126.4 16.5002 123.8 15.4002 123.4 15.9002ZM134.4 18.2002L134.5 18.3002C134.9 18.0002 134.7 18.1002 134.4 18.2002ZM146.4 27.8002L146.3 27.7002C146.2 28.1002 146.3 28.0002 146.4 27.8002ZM149.6 27.4002C149.5 27.5002 149.4 27.6002 149.6 27.4002ZM149.6 27.4002C150 28.0002 151.1 26.9002 150.1 26.8002C150.1 26.9002 149.8 27.3002 149.6 27.4002Z" fill="#100F12"/>
<path d="M179.7 23.6002C179.7 23.6669 179.767 23.7335 179.9 23.8002C179.8 23.7002 179.7 23.7002 179.7 23.6002Z" fill="#100F12"/>
<path d="M136.5 30.4002C135.9 30.1002 135.6 28.6002 135.5 30.9002C135.767 30.6335 136.1 30.4669 136.5 30.4002Z" fill="#100F12"/>
<path d="M141.4 33.4002L141 33.3002C141 33.5002 141.4 33.9002 141.4 33.4002Z" fill="#100F12"/>
<path d="M142.8 33.0002C142.7 33.2002 142.3 32.8002 142.4 33.3002C142.4 32.8002 142.8 33.5002 142.8 33.0002Z" fill="#100F12"/>
<path d="M141.3 28.3002C141.1 27.8002 140.9 28.3002 140.7 28.2002C140.9 28.2002 141.2 28.7002 141.3 28.3002Z" fill="#100F12"/>
<path d="M143.9 31.4002C143 32.7002 144 31.5002 144.1 32.8002C144.6 30.8002 143.4 32.0002 143.9 31.4002Z" fill="#100F12"/>
<path d="M145.1 32.2002C144.833 32.4002 144.633 32.6669 144.5 33.0002C145.3 32.8002 145.5 32.5335 145.1 32.2002Z" fill="#100F12"/>
<path d="M143.6 28.0002C143.7 27.5002 144.1 27.5002 143.5 27.0002C143.367 27.3335 143.4 27.6669 143.6 28.0002Z" fill="#100F12"/>
<path d="M144.2 28.4002C144.267 28.0669 144.367 27.7335 144.5 27.4002C144.3 27.8002 144.3 28.1002 144.2 28.4002Z" fill="#100F12"/>
<path d="M150.8 31.1002C150.8 31.3002 151.2 31.6002 150.9 31.3002C151 31.1002 150.6 30.8002 150.8 31.1002Z" fill="#100F12"/>
<path d="M148.9 26.6002C149.1 26.7002 149.5 26.3002 149.7 26.1002C149.5 26.2002 148.8 26.2002 148.9 26.6002Z" fill="#100F12"/>
<path d="M157.8 23.8002C158 23.6002 158.2 23.4002 158.4 23.2002C158.2 23.3002 157.8 23.6002 157.8 23.8002Z" fill="#100F12"/>
<path d="M160.1 23.6002C160.1 23.7002 160.3 23.4002 160.2 23.3002C160.1 23.4002 160 23.4002 160.1 23.6002Z" fill="#100F12"/>
<path d="M185 28.5002C185.8 28.6002 185.7 28.5002 184.5 28.2002C184.1 28.2002 185 28.4002 185 28.5002Z" fill="#100F12"/>
<path d="M188.3 27.9002C187.833 27.8335 187.367 27.7669 186.9 27.7002C187.8 28.0002 188.8 28.1002 189.7 28.3002C189.233 28.1669 188.767 28.0335 188.3 27.9002Z" fill="#100F12"/>
<path d="M184.4 26.3002C185.133 26.3669 185.8 26.5669 186.4 26.9002C186.4 26.8002 183.6 25.9002 185.1 26.1002C183.5 25.5002 181.9 25.6002 180.4 24.9002C180.4 25.7002 184.5 25.5002 184.4 26.3002Z" fill="#100F12"/>
<path d="M183.2 26.3002C184.3 26.5002 183.9 26.3002 183.1 26.1002C183.1 26.1002 181.9 26.0002 183.2 26.3002Z" fill="#100F12"/>
<path d="M183.8 25.0002C183.3 24.8002 182.8 24.5002 182.4 24.6002L183.8 25.0002Z" fill="#100F12"/>
<path d="M180.5 23.5002C180.6 23.5002 181.2 23.4002 181.7 23.6002C181.6 23.3002 179.8 23.3002 180.5 23.5002Z" fill="#100F12"/>
<path d="M175.7 21.2002C175.3 21.1002 175 21.0002 174.8 21.0002C175.133 21.0669 175.433 21.1335 175.7 21.2002Z" fill="#100F12"/>
<path d="M171.4 21.8002C171.3 21.6002 171.5 21.6002 171.1 21.4002C170.3 21.6002 171.5 21.6002 171.4 21.8002Z" fill="#100F12"/>
<path d="M176.1 20.8002C176.6 20.7002 176 20.5002 175.5 20.5002C176 20.6002 176.1 20.7002 176.1 20.8002Z" fill="#100F12"/>
<path d="M174 20.2002C174.667 20.2669 175.333 20.3002 176 20.3002C175.467 20.1002 174.9 20.0002 174.3 20.0002C175.5 18.6002 173.1 19.6002 172.2 19.6002C172.1 19.6002 174.7 19.9002 174 20.2002Z" fill="#100F12"/>
<path d="M171.8 20.8002C171 21.0002 172.5 21.2002 172.8 20.9002C172.467 20.8335 172.133 20.8002 171.8 20.8002Z" fill="#100F12"/>
<path d="M160.7 19.5002C160.7 19.4002 160.8 19.4002 160.3 19.7002C161 20.5002 160.7 19.6002 160.7 19.5002Z" fill="#100F12"/>
<path d="M155.4 15.1002C156.3 14.0002 155 14.7002 154.5 14.7002C154.7 14.8002 155.3 14.9002 155.4 15.1002Z" fill="#100F12"/>
<path d="M143.2 0.700197C142.9 0.700197 143 1.2002 142.9 1.2002C143.1 1.0002 143.1 0.900197 143.2 0.700197Z" fill="#100F12"/>
</g>
<defs>
<clipPath id="clip0_27_35037">
<rect width="56" height="190" fill="white" transform="translate(0 56) rotate(-90)"/>
</clipPath>
</defs>
</svg>
