<svg width="218" height="153" viewBox="0 0 218 153" fill="none" xmlns="http://www.w3.org/2000/svg">
<g clip-path="url(#clip0_27_34711)">
<path d="M201 67.8999L200.3 68.5999C200.6 68.4999 200.8 68.1999 201 67.8999Z" fill="#100F12"/>
<path d="M198.4 69.6999C196.8 70.8999 194.8 73.1999 195.1 74.1999C196 72.3999 198.2 71.0999 198.4 69.6999Z" fill="#100F12"/>
<path d="M196.5 73.4999C197 72.7999 197.4 72.6999 197.3 71.8999C197.033 72.4333 196.767 72.9666 196.5 73.4999Z" fill="#100F12"/>
<path d="M198.5 71.5999C197.9 72.2999 197.1 73.0999 196.7 73.9999C197.3 73.1999 197.9 72.3999 198.5 71.5999Z" fill="#100F12"/>
<path d="M190.6 76.9999C188.1 78.7999 191 77.1999 190 78.4999C190.467 77.5666 191.167 77.0666 192.1 76.9999C192.033 77.3333 191.933 77.6333 191.8 77.8999C191.8 77.8999 194.1 74.6999 194.4 74.4999C194 74.3999 190.7 77.4999 190.6 76.9999Z" fill="#100F12"/>
<path d="M78.8001 80.9999C78.7334 80.8666 78.7001 80.7666 78.7001 80.6999C78.7001 80.7999 78.7001 80.9999 78.8001 80.9999Z" fill="#100F12"/>
<path d="M57.6001 53.0999C57.7334 53.3666 57.8667 53.5999 58.0001 53.7999C57.6667 52.2666 57.5334 52.0333 57.6001 53.0999Z" fill="#100F12"/>
<path d="M97.0001 91.7999C97.4001 92.1333 97.7667 92.3999 98.1001 92.5999C97.9001 92.3999 97.6001 92.1999 97.0001 91.7999Z" fill="#100F12"/>
<path d="M57.2001 14.2999C57.6001 13.7666 57.9001 13.2666 58.1001 12.7999C57.6001 13.5999 57.3001 14.0999 57.2001 14.2999Z" fill="#100F12"/>
<path d="M62.5001 64.3999C62.3001 63.9999 62.1001 63.6333 61.9001 63.2999C62.1001 63.6999 62.3001 64.0666 62.5001 64.3999Z" fill="#100F12"/>
<path d="M162.6 93.4999C163 93.4999 163.4 93.3999 163.9 92.9999C163.4 93.0999 163 93.2999 162.6 93.4999Z" fill="#100F12"/>
<path d="M152.9 96.2999C152.9 96.2999 152.933 96.2999 153 96.2999C152.9 96.1999 152.8 96.1999 152.9 96.2999Z" fill="#100F12"/>
<path d="M162.6 93.4999C161.4 93.4999 160.6 92.9999 160.5 94.1999C159.633 94.3999 158.8 94.6999 158 95.0999C159.3 95.9999 161.6 94.1999 162.6 93.4999Z" fill="#100F12"/>
<path d="M79.1001 80.8999C79.0001 81.0999 79.7001 81.5999 79.1001 80.8999Z" fill="#100F12"/>
<path d="M87.8001 86.6999C87.4667 86.4999 87.1667 86.2999 86.9001 86.0999C87.2001 86.2999 87.4001 86.4999 87.8001 86.6999Z" fill="#100F12"/>
<path d="M123.8 101.6C123.733 101.533 123.667 101.5 123.6 101.5C123.5 101.6 123.7 101.6 123.8 101.6Z" fill="#100F12"/>
<path d="M86.9001 86.0999C86.7001 85.8999 86.5001 85.6999 86.2001 85.5999L86.9001 86.0999Z" fill="#100F12"/>
<path d="M43.5001 137.1C43.5001 137.1 45.5001 138.3 45.4001 138C45.4001 137.3 42.4001 136.5 42.9001 136.6C43.0334 136.933 43.2001 137.267 43.4001 137.6C44.7001 137.9 43.1001 137 43.5001 137.1Z" fill="#100F12"/>
<path d="M143.6 75.5999C142.3 76.4999 144.4 76.4999 144.7 77.7999C144.3 74.4999 144.7 78.2999 143.6 75.5999Z" fill="#100F12"/>
<path d="M144.8 76.3999C145.067 76.1333 145.167 75.7999 145.1 75.3999C144.633 76.3999 144.533 76.7333 144.8 76.3999Z" fill="#100F12"/>
<path d="M66.4001 143.9C66.7334 143.9 67.0001 143.933 67.2001 144C66.8001 143.8 66.6001 143.8 66.4001 143.9Z" fill="#100F12"/>
<path d="M63.6001 20.6999C63.5334 21.0333 63.4667 21.3333 63.4001 21.6C63.6001 21.1 63.6001 20.8999 63.6001 20.6999Z" fill="#100F12"/>
<path d="M141.7 58.1999C141.633 57.7333 141.533 57.2666 141.4 56.7999C141.467 57.2666 141.567 57.7333 141.7 58.1999Z" fill="#100F12"/>
<path d="M138.1 118.2C137.9 117.5 136.5 120.3 136.4 120.8C137 120 137.567 119.133 138.1 118.2Z" fill="#100F12"/>
<path d="M110.4 144.3C110.467 144.3 110.667 144.233 111 144.1C110.8 144.167 110.6 144.233 110.4 144.3Z" fill="#100F12"/>
<path d="M144.2 64.8999C144.2 65.9999 144.1 68.6999 144.8 69.3999C144.6 67.9333 144.4 66.4333 144.2 64.8999Z" fill="#100F12"/>
<path d="M116.6 99.8999C116.8 99.9666 117.033 100.067 117.3 100.2L116.6 99.8999Z" fill="#100F12"/>
<path d="M135.5 46.6999C135.567 46.6999 135.6 46.6666 135.6 46.5999C135.533 46.5999 135.5 46.6333 135.5 46.6999Z" fill="#100F12"/>
<path fill-rule="evenodd" clip-rule="evenodd" d="M139 35.2999C151.1 53.9999 152.8 76.2999 148.4 96.9999C149.4 96.7999 152.3 94.8999 150.5 96.7999C154.1 96.1999 152.1 96.9999 155.1 96.7999C154.833 96.4666 154.6 96.1666 154.4 95.8999C156.5 95.7999 165.4 92.7999 165.9 93.2999C165.9 93.2999 161.2 96.4999 162.5 96.5999C163.567 95.9999 164.633 95.3999 165.7 94.7999C163.1 95.0999 171.7 88.6999 171.5 90.7999C171.5 91.0999 173.6 89.5999 173.8 89.3999C173.3 90.8999 175.8 87.7999 175.7 88.1999C176.2 87.1999 180.7 85.1999 181.7 84.1999C181.4 84.9999 176.8 89.4999 176.1 89.8999C176.233 89.8333 176.4 89.7666 176.6 89.6999C174.2 91.1999 171.2 93.1999 171 93.3999C171.6 92.7999 172.233 92.1999 172.9 91.5999C171.4 92.5999 169.2 92.1999 168 93.4999C168.467 93.4333 168.933 93.3333 169.4 93.1999C169.5 93.1999 165.3 95.0999 166.2 95.2999C166.933 95.3666 167.633 95.2666 168.3 94.9999C166.7 95.5999 163 97.6999 162.2 96.6999C161.9 96.8999 157.9 98.0999 158.3 98.4999C158.9 98.4333 159.5 98.3333 160.1 98.1999C160 98.1999 158.5 99.1999 158 99.2999C159.1 98.5999 152.6 99.2999 152.4 99.2999C150.933 100.567 150.067 100.7 149.8 99.6999C149.733 99.3666 149.633 99.0666 149.5 98.7999C148.8 98.9999 148.4 98.7999 148.1 98.9999C147.3 99.3999 146.6 101.2 148.4 100.9C144.2 103.2 143 112.3 139.9 115.6C139.9 115 139.933 114.4 140 113.8C138.1 116.3 137.1 119.4 135.1 121.7C135.167 121.433 135.233 121.167 135.3 120.9C134.1 122.3 132.6 123.7 131.9 125.4C132.033 125 132 124.6 131.8 124.2C130.5 123.9 128.8 128.8 126.9 129.6C127.567 129.467 128.233 129.367 128.9 129.3C127.4 130.5 127.6 132.2 126.1 133.3C126.033 133.1 126 132.867 126 132.6C123.5 135 122.4 136.2 119.8 138C117.7 139.5 115.1 140.2 113.4 142.1C111.9 144.3 102.5 148.3 98.6001 149.2C96.5001 149.7 92.7001 151.1 90.4001 150.9C91.3001 150.1 93.9001 150.1 94.4001 149C89.4001 149.8 84.8001 150.9 79.7001 150.9C78.8001 151.1 76.8001 151.5 76.5001 151.6C77.5001 151.6 78.5001 151.5 79.5001 151.3C79.0001 151.5 78.9001 151.7 79.3001 152.2C79.1001 152 69.1001 152.4 67.6001 152.2C64.4001 151.8 61.3001 151.1 58.3001 150.2C54.0001 149.1 49.8001 147.6 45.6001 146.2C43.4001 145.4 40.6001 144.8 38.6001 143.7C36.3001 142.3 34.6001 140 32.1001 138.9C32.2334 139.033 32.3667 139.2 32.5001 139.4C27.1001 136.9 14.1001 127.5 13.5001 122.2C13.6001 122.3 14.9001 123.4 14.9001 123.4C15.1001 122.7 11.9001 118.7 11.3001 117.7C10.9001 117 8.60006 112.1 9.70006 113.8C6.40006 108.6 3.40006 103 2.10006 96.7999C1.20006 92.6999 0.300063 87.8999 1.20006 83.6999C1.20006 83.8999 2.20006 80.2999 2.60006 81.2999C1.90006 79.4999 2.30006 77.3999 2.70006 75.5999C3.90006 79.6999 2.70006 82.1999 3.50006 87.0999C3.36673 86.9666 3.2334 86.8333 3.10006 86.6999C3.10006 88.2999 6.30006 92.9999 5.50006 94.0999C5.50006 94.1999 4.80006 93.1999 4.40006 93.4999C4.90006 95.7999 7.40006 95.4999 6.80006 97.9999C6.86673 98.2666 6.8334 98.5333 6.70006 98.7999C6.70006 98.7999 6.00006 97.6999 5.90006 97.9999C5.60006 98.5999 6.30006 100.6 6.90006 100.9C7.20006 101.1 7.60006 99.7999 7.60006 99.7999C7.70006 99.5999 9.10006 103.9 9.40006 104.5C9.90006 105.7 10.7001 106.9 11.5001 108.1C11.3667 108.033 11.2334 108 11.1001 108C10.9001 108 15.5001 114 16.1001 114.8C16.6001 115.5 19.9001 121.1 18.4001 117.8C20.9001 122.9 26.4001 125 30.1001 128.7C30.8001 129.1 27.2001 131.1 26.8001 129.5C27.2001 131.3 32.2001 131.6 33.3001 132.6C32.9001 132.067 32.4334 131.6 31.9001 131.2C33.5001 132.1 35.8001 134.9 37.8001 134.8C37.2667 134.667 37.0001 134.367 37.0001 133.9C37.3001 133.6 40.6001 134.6 41.0001 135C40.6667 135.133 40.3334 135.2 40.0001 135.2C40.8001 135.933 41.7334 136.4 42.8001 136.6C42.2001 137.5 39.9001 134.9 39.5001 136.2C43.8001 138.8 48.9001 138.8 53.4001 140.9C53.2667 140.833 53.1334 140.867 53.0001 141C54.4001 141.8 56.8001 142.7 58.3001 143C59.9001 143.3 61.7001 143 63.3001 143.3C64.0001 143.5 68.0001 143.9 65.5001 144.3C73.3001 144.6 80.2001 144.3 87.7001 143.4C87.3667 143.467 87.1334 143.633 87.0001 143.9C90.7001 143.7 93.8001 142.1 97.2001 141C98.0001 140.8 103.2 139.3 103.7 139.3C103.5 139.233 103.267 139.2 103 139.2C104 139.2 111.2 134.1 113 133C117.3 130.2 120.5 127.3 123.9 123.5C122.5 124.5 124.6 122.1 124.8 121.8C124.3 123.2 125.6 121.8 124.4 123.7C126 122.3 126.4 117.9 128.9 117.8C128.367 118.4 127.9 119.067 127.5 119.8C128.5 119 130.1 117.4 130.4 116C130.5 115.9 129.2 116.6 129.2 116.6C129.4 115.4 132.2 112.4 132.9 111.3C134 109.5 133.8 108.5 134.8 106.6C135.067 106.8 135.2 107.1 135.2 107.5C135.8 108.5 136.7 102.6 136.7 102.2C137.9 102.4 137.4 104.1 137.1 104.7C137.5 104.3 139 102 138.8 104.1C139.1 101.7 139.2 103.3 138.4 102.6C139.133 102.667 139.433 102.3 139.3 101.5C138.367 100.833 137.567 100.767 136.9 101.3C137.1 101.1 133.4 101.3 132.5 101.8C132.833 101.933 133.133 102.1 133.4 102.3C131.9 101.8 124.9 101.7 123.3 101.3C121.4 100.8 117.9 100.4 116.6 99.8999C115.6 99.8999 111.3 98.1999 113.1 98.4999C112 97.9999 107.2 97.7999 108.9 97.0999C108.9 97.0999 106.7 96.1999 108.1 96.6999C107.7 96.4999 102.6 94.5999 105.1 96.1999C102.8 95.4999 100.7 94.3999 98.4001 93.5999C96.4001 92.7999 94.2001 92.3999 92.2001 91.3999C92.9001 90.6999 89.0001 87.6999 87.8001 86.6999C85.7001 85.6999 79.9001 81.6999 78.7001 80.6999C76.5001 78.8999 75.4001 75.0999 74.2001 74.5999C73.6667 73.6666 72.9334 72.9333 72.0001 72.3999C73.0001 73.9999 73.8001 75.5999 75.0001 77.0999C73.4001 75.6999 71.6001 74.7999 70.2001 73.1999C70.2001 73.5333 70.3001 73.7999 70.5001 73.9999C67.5001 70.9999 64.9001 68.8999 62.5001 64.3999C64.0001 66.5999 65.9001 67.3999 67.3001 68.6999C68.6001 69.8999 69.9001 72.7999 71.6001 73.4999C71.0001 72.3999 72.3001 73.4999 72.2001 73.0999C72.0001 71.9999 69.2001 68.0999 68.5001 67.2999C69.2001 68.6999 66.4001 66.0999 68.4001 68.3999C66.4001 66.5999 64.8001 64.2999 63.3001 61.9999C63.3001 62.1333 63.2667 62.2666 63.2001 62.3999C63.1001 62.3999 62.1001 61.5999 61.9001 61.7999C61.7001 62.0999 63.7001 63.9999 64.0001 64.2999C64.0001 63.9666 63.9001 63.6666 63.7001 63.3999C64.2334 64.0666 64.7334 64.7333 65.2001 65.3999C65.0001 65.9999 62.8001 62.5999 64.2001 65.5999C62.7001 64.0999 61.3001 61.7999 60.5001 60.2999C59.9001 59.0999 58.4001 56.0999 58.3001 54.8999C60.6001 58.4999 58.4001 53.1999 57.9001 52.0999C57.4001 50.8999 55.5001 47.2999 55.2001 44.6999C55.6001 46.5999 56.3001 46.0999 56.8001 47.6999C56.7001 44.3999 54.4001 40.8999 53.2001 37.6999C51.6001 33.2999 52.9001 30.2999 52.6001 25.6999C52.7001 26.2999 54.3001 22.7999 54.4001 21.8999C51.3001 26.8999 54.0001 20.6 54.6001 19.1C55.3001 17.5 56.3001 15.7999 57.2001 14.2999C56.9001 15.2999 57.9001 14.0999 57.1001 15.8999C57.6001 14.9999 62.5001 7.79995 63.1001 7.29995C68.0001 3.39995 74.0001 1.29994 80.2001 0.699942C104.8 -1.40006 126.6 16.2999 139 35.2999ZM57.1001 15.9999C57.1001 15.9999 57.1001 15.9666 57.1001 15.8999C57.0334 15.9666 57.0334 15.9999 57.1001 15.9999ZM63.3001 62.8999C63.5001 63.0333 63.6334 63.1999 63.7001 63.3999C63.5667 63.1999 63.4334 63.0333 63.3001 62.8999ZM62.7001 61.1999C62.9001 61.4666 63.1001 61.7333 63.3001 61.9999C63.3001 61.7333 63.1001 61.4666 62.7001 61.1999ZM133.6 102.4C133.533 102.333 133.467 102.3 133.4 102.3C133.533 102.3 133.6 102.333 133.6 102.4ZM53.6001 141C53.5334 141 53.4667 140.967 53.4001 140.9C53.4667 140.9 53.5334 140.933 53.6001 141ZM33.5001 133C33.5001 132.867 33.4334 132.733 33.3001 132.6C33.3667 132.733 33.4334 132.867 33.5001 133ZM12.7001 109.8C13.1001 110.4 13.4667 110.967 13.8001 111.5C13.3001 111.2 13.0001 110.5 12.7001 109.8ZM82.7001 151.1C82.4001 151.1 81.7001 151.1 81.0001 151.1C81.6001 151.033 82.1667 151.033 82.7001 151.1ZM79.4001 150.9C79.5334 150.9 79.6334 150.9 79.7001 150.9C80.3001 150.8 80.5001 150.8 79.4001 150.9ZM126.4 129.8C126.6 129.733 126.767 129.667 126.9 129.6C126.7 129.667 126.533 129.733 126.4 129.8ZM178.7 88.5999C180.7 87.0999 182.4 84.9999 184 83.6999C184.4 83.3999 187.3 80.6999 186.6 80.9999C186.5 80.9999 189.1 78.6999 189.3 78.4999C188.9 79.3666 189.167 79.5333 190.1 78.9999C188.8 79.9999 189 81.3999 187.7 82.3999C188.167 81.7999 188.533 81.1999 188.8 80.5999C188.8 80.4999 184.9 83.7999 184.5 84.0999C184.9 83.8999 185.3 83.6666 185.7 83.3999C186.6 83.9999 183.3 86.3999 183.3 87.2999C182.5 87.7999 181.7 88.4999 181.6 88.5999C181.8 88.2666 182 87.9333 182.2 87.5999C180.3 88.1999 179.3 89.7999 177.5 90.4999C177.5 90.1999 179.8 88.3999 179.7 88.2999C179.6 88.1999 179.2 88.2999 178.7 88.5999ZM184.3 86.7999C184.167 86.7999 184.033 86.8333 183.9 86.8999C184.1 86.8333 184.233 86.7999 184.3 86.7999ZM183.3 87.3999C183.3 87.3333 183.3 87.2999 183.3 87.2999C183.3 87.2999 183.333 87.2666 183.4 87.1999C183.333 87.2666 183.3 87.3333 183.3 87.3999ZM173.8 89.3999C173.867 89.3999 173.867 89.3999 173.8 89.3999ZM11.5001 108.1C12.0001 108.4 12.4001 109.1 12.7001 109.8C12.3001 109.267 11.9001 108.7 11.5001 108.1ZM176.6 89.6999C177.4 89.1999 178.2 88.7999 178.7 88.5999C178.033 89.0666 177.333 89.4333 176.6 89.6999ZM183.9 86.8999C183.767 86.9666 183.6 87.0666 183.4 87.1999C183.533 87.0666 183.7 86.9666 183.9 86.8999ZM96.2001 11.2999C94.1001 10.5999 88.6001 9.89995 87.5001 9.79995C84.2001 9.39995 80.8001 9.49994 77.6001 10.1999C75.1001 10.6999 71.8001 11.7999 69.8001 12.8999C68.3001 13.7999 66.8001 16.2999 67.8001 14.7999C66.5001 16.6999 64.1001 18.4999 63.6001 20.6999C63.6001 20.5999 64.1001 17.0999 63.9001 17.1999C61.8001 17.9999 61.8001 24.5999 61.5001 26.4999C61.4001 27.4999 60.9001 33.2999 60.5001 32.2999C60.4001 32.9999 61.4001 34.5999 60.8001 35.0999C60.3334 35.0999 60.0334 34.8666 59.9001 34.3999C60.4001 44.2999 65.6001 52.7999 70.3001 61.3999C74.4001 68.8999 81.0001 75.6 87.8001 81.2999C89.4001 81.9999 91.1001 82.4999 92.4001 83.5999C92.2667 83.8666 92.0667 84.0999 91.8001 84.2999C94.0001 85.4999 96.7001 85.8999 98.9001 86.7999C98.7001 86.9999 98.4667 87.0333 98.2001 86.8999C97.8001 86.9999 99.6001 87.8999 100 88.0999C98.4001 87.6999 102.4 89.1999 99.2001 88.2999C98.6001 89.3999 102.8 90.5999 102.2 90.0999C103.4 90.9999 102.3 90.2999 102.1 90.7999C102.833 91.5999 103.6 91.7333 104.4 91.1999C104.4 90.9333 104.333 90.6999 104.2 90.4999C105.9 91.6999 108.7 93.5999 109.6 92.8999C117.7 94.2999 125.7 95.6999 133.9 96.6999C131.4 97.1999 128.6 96.1999 126.2 96.8999C126.267 96.8999 126.333 96.8999 126.4 96.8999C125.8 96.8999 125.1 97.0999 125.1 97.1999C126.9 97.9999 128.7 96.8999 130.2 97.7999C126.9 97.5999 131.2 98.4999 129.2 98.6999C129.2 98.6999 136.2 99.1999 130.1 98.0999C131 97.5999 133.5 97.5999 134.5 97.5999C135.8 97.4999 138.5 97.1999 139.9 97.2999C139.633 97.5666 139.333 97.7999 139 97.9999C140.8 98.4999 142.9 88.3999 140.3 88.5999C140.3 88.2999 140.6 85.8999 140.7 86.0999C140.8 86.1999 141.2 87.7999 141.5 87.3999C141.6 87.0999 142.6 84.6999 141.8 84.4999C141.333 84.6999 140.967 84.9999 140.7 85.3999C141.4 84.0999 140.5 83.0999 141 81.6999C140.9 83.4999 142.2 81.6999 142 83.9999C142.133 83.5333 142.267 83.0333 142.4 82.4999C142.8 82.4999 142.9 84.8999 143 85.0999C143.4 83.2999 143 81.5999 143.3 79.8999C144.1 80.6999 143.1 82.7999 143.7 83.7999C144.1 82.4999 143.7 79.2999 144.7 78.1999C144.9 79.0999 143.9 81.5999 144.7 82.2999C145.1 81.8999 145.2 81.1999 145.4 80.5999C145.267 80.5999 145.133 80.6333 145 80.6999C145.9 76.8999 143.8 73.5999 144.7 70.0999C144.8 70.9999 145 71.7999 145.1 72.6999C146.3 72.3999 145.8 67.7999 145.7 67.0999C145.6 66.4999 144.2 61.6999 144.8 65.1999C144.1 64.8999 144.5 62.0999 143.7 62.4999C143.5 63.9999 143 62.8999 143.2 65.2999C143.4 66.9999 144.7 68.9999 144.3 71.0999C143.3 70.7999 143.5 66.9999 142.9 65.6999C143.2 67.9999 142.2 65.6999 142.3 66.8999C142 64.8999 140.7 64.0999 140.3 62.1999C140.633 62.5999 140.967 62.9999 141.3 63.3999C141 61.2999 140.2 61.4999 139.7 59.9999C139.3 58.9999 139.3 57.8999 138.9 56.6999C138.3 54.3999 137.2 53.2999 136.3 51.2999C137.3 51.3999 138.2 53.6999 138.5 54.2999C138.3 53.8333 138.333 53.7666 138.6 54.0999C138.5 52.5999 137 51.5999 136.9 50.1999C137 51.1999 140.1 55.1999 140.8 56.6999C141.1 57.4999 142.5 62.7999 143.3 62.2999C144.4 61.6999 139.7 52.6999 139.2 51.6999C139.067 51.8333 138.933 51.9999 138.8 52.1999C137.6 49.9999 136.5 47.0999 135 44.9999C135.4 45.3333 135.767 45.6666 136.1 45.9999C137 40.1999 128.7 36.4999 125.9 32.4999C125.9 31.7999 127.6 33.3999 127.8 33.1999C129.1 32.2999 122.9 28.6999 122.3 28.4999C123.2 29.8999 121.1 28.3999 120.7 27.8999C121.233 28.1666 121.733 28.4999 122.2 28.8999C121.733 27.8999 121.067 27.0333 120.2 26.2999C120.533 26.3666 120.833 26.4333 121.1 26.4999C119.6 24.7999 118.1 23.8999 116.1 22.7999C115.5 22.4999 112.8 20.3999 113.2 21.0999C112.867 20.8999 112.467 20.7999 112 20.7999C111.8 21.2999 112.9 21.8999 111.2 20.8999C112.6 21.0999 109.8 19.0999 110.3 18.5999C110.5 18.6999 112.7 20.3999 112.7 19.7999C110.6 18.2999 108.9 13.6999 109 18.9999C107.7 18.7999 107.7 16.0999 106.6 15.4999C108 16.0999 107.4 15.1999 106.9 14.8999C104.9 13.3999 101.2 13.3999 98.9001 12.3999C99.1667 12.3333 99.4334 12.2999 99.7001 12.2999C98.5001 12.0999 97.6001 11.2999 96.3001 11.1999C96.2334 11.1999 96.2001 11.2333 96.2001 11.2999ZM114 22.1999C113.5 21.6999 113.3 21.2999 113.2 21.0999C113.533 21.3666 113.8 21.7333 114 22.1999ZM145.5 80.4999C145.5 80.3666 145.467 80.1999 145.4 79.9999C145.4 80.1999 145.4 80.3999 145.4 80.5999C145.4 80.5999 145.433 80.5666 145.5 80.4999ZM127.3 96.8999C126.967 96.8999 126.667 96.8999 126.4 96.8999C126.8 96.8999 127.2 96.8999 127.3 96.8999ZM103.5 89.8999C103.833 90.0333 104.067 90.2333 104.2 90.4999C103.933 90.2999 103.7 90.0999 103.5 89.8999ZM87.7001 81.2999C87.2334 80.8999 86.7001 80.5999 86.1001 80.3999C86.6334 80.7333 87.1667 81.0333 87.7001 81.2999ZM87.9001 81.3999C87.8334 81.3333 87.8001 81.2999 87.8001 81.2999C87.7334 81.2999 87.7001 81.2999 87.7001 81.2999C87.7667 81.2999 87.8334 81.3333 87.9001 81.3999ZM145.6 78.1999C145.2 78.7999 145.4 79.4999 145.4 79.9999C145.5 79.1999 145.5 78.3999 145.6 78.1999ZM96.2001 11.2999C96.6001 11.3999 96.9001 11.4999 97.0001 11.6999C97.0001 11.6999 96.3001 11.3999 96.2001 11.2999ZM122.5 100.8L122.9 101C123.9 100.8 123.4 100.8 122.5 100.8ZM81.0001 151.1C80.4667 151.167 79.9667 151.233 79.5001 151.3C79.8001 151.2 80.4001 151.1 81.0001 151.1ZM96.7001 91.7999C97.0001 93.1999 101.4 94.1999 103.7 95.4999C103.4 94.6999 97.5001 91.6999 96.7001 91.7999Z" fill="#100F12"/>
<path d="M189.3 83.0999C190.3 81.8999 190.7 81.2999 190.9 79.8999C189.5 81.6999 187.8 82.8999 186 84.2999C186.8 83.8999 187.6 83.5999 188.4 83.1999C188.2 83.3999 188 83.5666 187.8 83.6999C188.267 83.4999 188.767 83.2999 189.3 83.0999Z" fill="#100F12"/>
<path d="M185.2 81.0999C184.8 81.2333 184.367 81.3333 183.9 81.3999C183.9 81.5999 183.867 81.7666 183.8 81.8999C184.267 81.6333 184.733 81.3666 185.2 81.0999Z" fill="#100F12"/>
<path d="M161.5 92.2999C162.1 91.7999 159.4 92.1999 159.3 92.7999C160 92.6999 160.7 92.4999 161.5 92.2999Z" fill="#100F12"/>
<path d="M171 94.2999C171.333 94.0333 171.667 93.7666 172 93.4999C170.933 93.6333 170.067 94.0666 169.4 94.7999C170.4 94.1999 170 94.6999 171 94.2999Z" fill="#100F12"/>
<path d="M153.4 94.2999C152.8 95.0999 151.1 94.4999 150.8 95.1999C151.3 94.8999 153.4 94.9999 153.4 94.2999Z" fill="#100F12"/>
<path d="M156.4 99.8999C157.3 100.2 158.4 99.3999 159.9 99.0999C158.7 99.3999 156.8 99.2999 156.4 99.8999Z" fill="#100F12"/>
<path d="M152.8 100.7C154 100.767 155.2 100.7 156.4 100.5C155.6 100.033 154.733 99.9999 153.8 100.4C153.933 100.133 154.1 99.8999 154.3 99.6999C153 99.6999 154.4 100.4 152.8 100.7Z" fill="#100F12"/>
<path d="M135.6 97.1999C136.8 96.7999 139.2 97.0999 140.3 96.1999C139.6 96.1999 133.7 96.6999 135.6 97.1999Z" fill="#100F12"/>
<path d="M137.6 101.7C136.467 102.1 135.333 102.467 134.2 102.8C135.3 102.6 137.3 101.9 137.6 101.7Z" fill="#100F12"/>
<path d="M100.1 88.0999C99.6001 88.1999 101.1 89.4999 100.6 88.7999C101 88.6999 99.0001 87.1999 100.1 88.0999Z" fill="#100F12"/>
<path d="M104.9 96.8999C104 96.3999 100.9 95.3999 99.5001 94.9999C101.1 95.5999 104.9 97.4999 104.9 96.8999Z" fill="#100F12"/>
<path d="M99.5001 94.9999C99.3001 94.9333 99.1334 94.8999 99.0001 94.8999C99.1001 94.8999 99.3001 94.9999 99.5001 94.9999Z" fill="#100F12"/>
<path d="M57.1001 54.6999C57.4334 55.8333 58.0334 56.7666 58.9001 57.4999C58.0001 56.1999 57.2001 54.6999 56.3001 53.3999C56.3667 53.9333 56.6334 54.3666 57.1001 54.6999Z" fill="#100F12"/>
<path d="M53.2001 40.8C53.5001 41.5 53.5001 42.6 53.8001 42.3C53.9001 41.8 53.3001 40.3 53.2001 40.8Z" fill="#100F12"/>
<path d="M117.6 24.2999C116.6 23.3999 116.9 24.1999 116.1 23.6999C117 24.4999 117.5 24.8999 117.6 24.2999Z" fill="#100F12"/>
<path d="M119.1 26.3999C118.967 25.9999 118.867 25.6333 118.8 25.2999C118.8 25.7999 118.9 25.9999 119.1 26.3999Z" fill="#100F12"/>
<path d="M124.1 31.6999C124 31.6999 123.8 31.4999 123.6 31.3999C124 31.6999 124.3 31.9999 124.1 31.6999Z" fill="#100F12"/>
<path d="M124.5 32.8999C124.833 33.0999 125.2 33.3333 125.6 33.5999C125.6 33.5999 124.7 31.4999 124.7 31.7999C124.7 32.0999 125.6 33.3999 124.5 32.8999Z" fill="#100F12"/>
<path d="M129.1 37.7999C130.9 41.0999 133.5 41.7999 135 44.1999C134 41.7999 131.8 41.3999 130.7 39.0999C131.2 40.8999 129.4 38.0999 129.1 37.7999Z" fill="#100F12"/>
<path d="M131 38.3999C130.7 37.8999 130.6 36.7999 129.8 36.3999C129.3 36.4999 130.4 37.9999 131 38.3999Z" fill="#100F12"/>
<path d="M134.4 46.1999C134.2 45.7333 133.967 45.2666 133.7 44.7999C133.7 45.5999 134.1 45.6999 134.4 46.1999Z" fill="#100F12"/>
<path d="M135.7 49.2999L134.8 48.2999C135.1 48.5999 135.9 50.3999 135.7 49.2999Z" fill="#100F12"/>
<path d="M137.7 55.7999C137.767 56.3333 138 56.6999 138.4 56.8999C138.867 56.4999 138.833 55.9999 138.3 55.3999C138.4 55.8999 138.3 57.1999 137.7 55.7999Z" fill="#100F12"/>
<path d="M142.5 71.6999C142.5 71.2999 142.4 69.1999 142.1 69.3999C142.233 70.1333 142.367 70.8999 142.5 71.6999Z" fill="#100F12"/>
<path d="M145 66.5999C145.1 68.3999 145.1 68.1999 145.3 70.3999C146 69.5999 145 68.1999 145 66.5999Z" fill="#100F12"/>
<path d="M141.6 71.5999C141.3 71.8999 141.4 73.3999 141.8 73.5999C141.5 73.0999 141.6 72.0999 141.6 71.5999Z" fill="#100F12"/>
<path d="M142.1 77.1999C141.6 78.4999 140.9 79.9999 141.4 81.6999C141.8 81.0999 142.267 81.0333 142.8 81.4999C142.8 79.2999 142.4 75.8999 141.3 74.2999C141.2 75.5999 142.1 75.9999 142.1 77.1999Z" fill="#100F12"/>
<path d="M144.6 74.8999C145.4 74.4999 144.3 72.3999 144.2 71.9999C143.8 73.3999 144.3 73.5999 144.6 74.8999Z" fill="#100F12"/>
<path d="M140.7 93.0999C140.767 92.4999 140.833 91.8666 140.9 91.1999C140.7 92.1333 140.533 93.0666 140.4 93.9999C140.467 93.7333 140.567 93.4333 140.7 93.0999Z" fill="#100F12"/>
<path d="M139.9 92.8999C139.833 93.6333 139.8 94.3999 139.8 95.1999C140.8 93.5333 140.833 92.7666 139.9 92.8999Z" fill="#100F12"/>
<path d="M139.1 95.6999C139.367 95.0999 139.5 94.4333 139.5 93.6999C139.367 94.3666 139.233 95.0333 139.1 95.6999Z" fill="#100F12"/>
<path d="M133.7 125C134.367 124.667 134.567 124.233 134.3 123.7C133.5 123.6 133.9 124.5 133.7 125Z" fill="#100F12"/>
<path d="M131 127.1C131.8 126.1 130.4 128.2 130.1 128.8C131.4 127.4 132.2 125.8 133.3 124.2C132.567 125.2 131.8 126.167 131 127.1Z" fill="#100F12"/>
<path d="M90.9001 150.4C91.0001 149.6 91.2001 149.8 92.1001 149.3C89.6001 150.4 86.6001 150.2 84.5001 151.6C85.0001 151.3 86.9001 151.2 87.7001 150.9C87.5667 151.033 87.4334 151.167 87.3001 151.3C88.7001 151.3 89.5001 150.5 90.9001 150.4Z" fill="#100F12"/>
<path d="M4.10006 87.8999C3.60006 86.3999 3.70006 88.1999 3.60006 88.3999C3.90006 88.5999 4.00006 88.1999 4.10006 87.8999Z" fill="#100F12"/>
<path d="M188.6 110.7L188.5 111C188.9 111.3 188.7 111 188.6 110.7Z" fill="#100F12"/>
<path d="M188.6 110.7L188.8 110.6C188.667 110.6 188.6 110.633 188.6 110.7Z" fill="#100F12"/>
<path d="M189.6 110.3C190 110 190 109.4 189.4 109.1C189.7 109.6 189 109.9 189.6 110.3Z" fill="#100F12"/>
<path d="M190 108.3C189.667 108.3 189.367 108.233 189.1 108.1C189.367 108.367 189.533 108.667 189.6 109C189.8 108.667 190.1 108.433 190.5 108.3C190.9 107.8 189.2 107.9 190 108.3Z" fill="#100F12"/>
<path d="M195.3 88.0999C195.167 88.1666 195.067 88.2333 195 88.2999C195.133 88.2999 195.233 88.2333 195.3 88.0999Z" fill="#100F12"/>
<path d="M201.2 70.2999C201.267 70.2333 201.3 70.1333 201.3 69.9999C201.167 70.1333 201.133 70.2333 201.2 70.2999Z" fill="#100F12"/>
<path d="M197 78.8999C196.867 78.9666 196.8 79.0333 196.8 79.0999C196.867 79.0333 196.933 78.9666 197 78.8999Z" fill="#100F12"/>
<path d="M192.6 102.3C192.7 102.2 192.7 102.1 192.6 102C192.5 102 192.5 102.1 192.6 102.3Z" fill="#100F12"/>
<path d="M192.6 102C193 101.9 193.2 101 192.6 101C192.3 101.6 192.4 101.4 192.6 102Z" fill="#100F12"/>
<path d="M196.1 83.8999C195.9 83.7999 196 83.9999 196.1 83.8999Z" fill="#100F12"/>
<path d="M195.8 86.0999C195.867 86.0333 195.9 85.9666 195.9 85.8999C195.9 85.8999 195.8 85.9999 195.8 86.0999Z" fill="#100F12"/>
<path d="M192.3 93.0999C192.367 93.0999 192.4 93.0999 192.4 93.0999C192.3 93.0999 192.3 93.0999 192.3 93.0999Z" fill="#100F12"/>
<path d="M196 85.6999C196 85.7666 195.967 85.8333 195.9 85.8999C196 85.8999 196 85.7999 196 85.6999Z" fill="#100F12"/>
<path d="M178.5 67.6999C179.4 66.7999 178.2 68.2999 178.6 67.3999C178.5 67.3999 178.3 68.4999 178.5 67.6999Z" fill="#100F12"/>
<path d="M209.7 55.6999C210.9 53.4999 208 57.6999 208.2 57.4999C208.6 57.0999 209.4 56.0999 209.7 55.6999Z" fill="#100F12"/>
<path d="M183.3 66.3999C183.367 66.3999 183.433 66.3999 183.5 66.3999C183.4 66.2999 183.4 66.2999 183.3 66.3999Z" fill="#100F12"/>
<path d="M207.4 74.1999C207.4 74.2666 207.433 74.3666 207.5 74.4999C207.5 74.3666 207.467 74.2666 207.4 74.1999Z" fill="#100F12"/>
<path fill-rule="evenodd" clip-rule="evenodd" d="M217 54.9999C216.3 55.6999 215.8 56.6999 215.1 57.2999C215.433 57.1666 215.733 57.0333 216 56.8999C215.2 57.9999 216.8 56.8999 217 56.7999C216.933 56.9999 216.833 57.1999 216.7 57.3999C217.033 57.1333 217.4 56.9666 217.8 56.8999C217.067 57.3666 216.433 57.9333 215.9 58.5999C215.967 58.4666 216 58.2999 216 58.0999C215.8 57.8999 213.7 60.0999 214 59.8999C214 59.9666 214.067 60.0333 214.2 60.0999C214.667 59.7666 215.167 59.3999 215.7 58.9999C214.9 59.7999 214.1 60.5999 213.5 60.8999C215 62.2999 212.3 62.5999 212.9 63.5999C213.1 63.3999 213.3 63.2999 213.5 63.2999C212 66.0999 210.4 70.8999 207.7 72.5999C208 73.2999 207.3 73.2999 207.4 74.1999C207.4 74.0999 206.9 72.3999 206.4 73.0999C207 74.6999 206.7 76.0999 205.8 76.4999C205.667 76.6999 205.733 76.8666 206 76.9999C205.6 77.1333 205.3 76.9999 205.1 76.5999C204.5 78.5999 204.2 81.7999 201.7 82.9999C202 84.5999 200.7 85.4999 199.5 87.0999C199.6 87.4999 199.7 88.2999 199.6 88.2999C199.4 88.2333 199.2 88.1333 199 87.9999C199.133 88.6666 199.267 89.2999 199.4 89.8999C198.9 89.9999 198.5 89.8999 198.4 89.6999C197.533 89.6999 197.367 89.8999 197.9 90.2999C197.9 90.2999 196.9 89.8999 197.2 90.3999C197.533 90.7333 197.933 90.8333 198.4 90.6999C196.5 91.4999 197.5 94.4999 196 96.8999C196 96.2999 196 95.7333 196 95.1999C196.1 95.0999 196.2 94.9999 195.8 94.7999C195.3 95.1999 195.3 94.8999 195.7 95.5999C195.9 95.8999 194.1 94.8999 194.5 95.4999C194.767 96.2333 194.967 96.2666 195.1 95.5999C195.2 95.6999 195 97.3999 195 97.6999C194.7 97.7999 193.2 98.5999 193 98.7999C193.8 98.3999 194.1 98.6999 194.2 99.2999C194.133 99.2999 194.1 99.3333 194.1 99.3999C194.1 99.3999 194.1 99.4999 194.1 99.7999C194.1 99.6999 192.7 99.9999 192.5 100.2C192.767 100.267 193.033 100.333 193.3 100.4C192.8 100.6 191.7 102.4 191.7 102.3C191.6 102.2 191.5 100.7 190.4 100.9C191.8 102.4 191.7 102.7 191 103.5C191.067 103.7 191.133 103.833 191.2 103.9C191.133 103.9 191.033 103.9 190.9 103.9C191 104 191 106.2 191 106C190.3 105.5 190.4 104.1 190 104C188.8 104.4 190.8 106.5 190.6 106.8C190.4 106.6 190.2 106.6 190 106.8C190.4 107.3 190.8 107.1 190.4 107.9C190.3 107.8 188.7 107.3 189 106.7C189.133 107.033 189.367 107.233 189.7 107.3C189.9 106.9 189.867 106.5 189.6 106.1C189.7 106.2 188 105.2 188.1 105.3C188.233 105.1 188.3 104.867 188.3 104.6C189.2 104.5 188.2 104.7 188.9 103.9C188.967 104.3 189.2 104.533 189.6 104.6C189.2 104.5 190 103.3 189.7 102.6C190.4 103.4 191 102.7 190.7 102.4C190.6 102.4 190.3 101.1 189.6 101.9C189.8 101.5 190.7 99.9999 190.3 99.8999C190.167 100.167 190 100.233 189.8 100.1C190 99.9666 190 99.7999 189.8 99.5999C189.7 99.3999 192.4 98.7999 192.6 98.5999C192.067 98.2666 191.633 97.7999 191.3 97.1999C191.6 97.2999 192 97.8999 192 97.0999C192 96.9999 191.8 96.8999 191.5 96.8999C192.1 96.6999 191.9 95.3999 191.3 94.7999C192.1 94.3999 193.7 90.9999 193.7 91.2999C194 91.0999 193.7 90.0999 194.2 90.4999C194.4 90.2999 194.4 89.8999 194.4 89.3999C194.7 89.2999 195.6 88.3999 195.2 88.0999C194.5 87.8999 195 88.5999 194.4 89.2999C194.2 88.4999 194 87.4999 194.1 86.6999C195.6 86.7999 196.5 83.5999 197.2 82.4999C194.9 83.5999 197.7 81.2999 196.1 81.4999C196.2 80.9999 196 79.6999 196.8 79.0999C196.6 79.2999 197.1 81.9999 197 81.9999C197.2 82.1999 197.433 82.2333 197.7 82.0999C197.2 81.0999 198.6 81.6999 198.7 81.2999C197.6 81.8999 198.3 79.5999 198.4 79.2999C198.2 79.7999 197.7 78.7999 197.4 78.9999C197.9 79.1999 197.5 79.9999 198 79.4999C197.933 79.6999 197.867 79.8999 197.8 80.0999C196.9 79.7999 197.4 79.0999 197.2 78.3999C198 79.0999 198.1 77.6999 198.3 77.5999C198.6 77.8999 198.7 78.2999 199.3 77.6999C199.3 77.1999 198.4 76.7999 199.6 75.8999C199.6 76.2333 199.667 76.5333 199.8 76.7999C200.4 75.5999 198.9 74.5999 199.1 73.5999C199.3 72.5999 200.4 73.3999 199.9 72.0999C200 72.1999 201.3 72.9999 201 71.7999C200.8 71.8666 200.6 71.9333 200.4 71.9999C200.467 71.3333 200.733 70.7666 201.2 70.2999C201.4 70.8999 201.8 70.9999 202.2 70.4999C201.9 68.4999 202.1 67.3999 203.8 65.7999C203 66.4999 203.3 65.5999 203.4 65.3999C203.3 65.5999 202.1 67.6999 202.8 65.9999C202.6 66.4999 202.3 66.7999 202.2 67.2999C202.2 67.2333 202.2 67.1999 202.2 67.1999C202.2 66.4999 202.2 66.7999 201.9 66.2999C202.2 66.7999 201.5 67.2999 201.2 67.6999C201.6 67.0999 201.8 66.7999 201.7 66.0999C201.5 65.9999 199.3 67.2999 199.3 67.1999C199.367 66.7999 199.233 66.4999 198.9 66.2999C198.7 66.3999 198.3 67.2999 197.8 66.9999C198.2 67.4999 199 68.9999 198 68.7999C197.933 68.6666 197.9 68.5333 197.9 68.3999C196 68.7999 191.3 70.4999 190.9 71.3999C190.7 71.3333 190.533 71.2666 190.4 71.1999C190.6 70.8666 190.767 70.5333 190.9 70.1999C189.3 70.0999 188.1 70.5999 187.5 71.4999C188.1 71.3999 187.9 70.9999 188.4 70.8999C188.4 71.0333 188.5 71.0333 188.7 70.8999C187.4 71.4999 188.7 71.7999 188.3 71.9999C186.6 73.0999 184 72.7999 182.1 73.1999C180.8 73.3999 179 73.9999 178 74.1999C177.4 74.3999 174.3 76.7999 173.6 75.6999C173.7 75.2999 171.1 74.9999 171.5 74.7999C169.2 75.6999 167.1 75.6999 164.9 74.3999C165.4 72.8999 164 73.0999 163.5 72.4999C164.3 72.4999 164.9 72.4999 165.7 72.8999C166.233 72.6999 166.667 72.3666 167 71.8999C167.2 72.2333 167.233 72.5999 167.1 72.9999C167.433 72.5999 167.6 72.1333 167.6 71.5999C167.8 71.3999 168.2 72.7999 168.2 72.8999C169.3 72.7999 167.8 71.5999 168.7 71.1999C168.7 71.6666 168.867 71.9999 169.2 72.1999C169.5 70.6999 170.3 71.0999 170.9 70.9999C170.8 71.3999 169.2 70.8999 170.3 72.0999C170.833 71.4999 171.333 70.8666 171.8 70.1999C171.867 70.5333 172 70.7999 172.2 70.9999C172.1 71.3999 172.5 70.6999 172.6 70.3999C173.6 70.5999 174.5 68.6999 175.4 68.6999C175.3 68.7999 175.8 71.1999 175.8 71.1999C176 70.9999 177.3 69.1999 176.3 69.2999C176.767 69.2333 177.167 68.9999 177.5 68.5999C176.9 68.8999 177.5 67.1999 177.7 67.3999C177.7 67.5999 177.7 68.6999 178.3 67.5999C178.1 67.9999 178 68.3999 178 68.7999C178.1 68.6999 183.7 65.8999 183.3 66.8999C184.5 66.1999 190.7 63.5999 191 64.8999C191.4 64.7999 196 61.8999 196.1 61.3999C196.233 61.6666 196.267 61.9666 196.2 62.2999C197.2 62.3999 196.1 60.8999 197.1 60.8999C197.3 61.3999 197.8 61.2999 197.1 61.6999C198.5 61.9999 197.4 60.8999 197.7 60.5999C198.2 61.9999 199.8 59.3999 200.3 59.1999C200.167 59.5333 200.2 59.8333 200.4 60.0999C201.6 60.3999 201.3 58.6999 201.9 58.2999C201.9 58.6999 201.8 60.6999 201.8 60.7999C203.3 58.4999 206 56.1999 207.9 54.2999C208.1 54.3999 206.9 55.7999 207 55.9999C207.1 55.8999 209.4 52.9999 209.8 53.1999C208.6 54.0999 207.7 55.9999 207.1 56.9999C207.633 56.6666 208.2 56.2999 208.8 55.8999C208.3 56.5999 207.6 56.7999 207.1 57.4999C207.367 57.4999 207.6 57.4333 207.8 57.2999C207.3 57.7999 206.4 59.0999 206.5 59.5999C206.967 59.5333 207.233 59.2666 207.3 58.7999C207.3 58.4999 207.1 58.6999 207 58.8999C207.3 58.3999 207.6 57.7999 208.3 57.6999C208 58.2999 209.1 57.5999 209.4 57.3999C208.9 57.8999 208.5 57.9999 208.4 58.8999C209 58.6999 210 57.1999 209.6 57.8999C209.8 57.5999 210.2 57.2999 210.7 56.9999C210.567 57.1333 210.5 57.2333 210.5 57.2999C211.9 55.9999 214.1 55.0999 215.4 53.7999C215.2 54.0999 215 54.5999 214.7 54.7999C215.5 54.4999 215 55.2999 215.1 55.1999C215.1 55.1999 216.3 54.4999 216.1 54.9999C216 55.0999 214.5 56.3999 215.2 56.1999C215.467 56.0666 215.733 55.9333 216 55.7999C216.333 55.5333 216.667 55.2666 217 54.9999ZM215.1 53.5999C215.033 53.6666 214.933 53.7333 214.8 53.7999C214.867 53.7333 214.933 53.6666 215 53.5999C215 53.5999 215.033 53.5999 215.1 53.5999ZM214.4 53.8999C214.4 53.8333 214.433 53.7999 214.5 53.7999C214.5 53.7999 214.467 53.8333 214.4 53.8999ZM215.5 53.0999C215.3 53.2999 215.133 53.4666 215 53.5999C214.8 53.6666 214.633 53.7333 214.5 53.7999C214.6 53.6999 214.6 53.6999 214.4 53.8999C213.4 54.2999 212.2 55.2999 211.3 56.1999C211.367 56.0666 211.4 55.8999 211.4 55.6999C211.3 55.7999 209.7 57.0999 209.7 56.6999C210.1 56.1999 213.2 53.2999 213.7 53.2999C213.433 53.6333 213.133 53.9333 212.8 54.1999C213.533 53.8666 214.133 53.3999 214.6 52.7999C214.4 53.0666 214.433 53.2999 214.7 53.4999C215.033 53.4333 215.3 53.2999 215.5 53.0999ZM206.9 59.0999C206.833 59.0999 206.8 59.0999 206.8 59.0999C206.867 59.0999 206.9 59.0999 206.9 59.0999ZM208.1 57.1999C208.033 57.2666 207.933 57.2999 207.8 57.2999C207.933 57.2333 208.033 57.1999 208.1 57.1999ZM172.4 70.2999C172.7 69.9999 172.7 70.0999 172.6 70.3999C172.533 70.3999 172.467 70.3666 172.4 70.2999ZM197.7 66.7999C197.7 66.8666 197.733 66.9333 197.8 66.9999C197.6 66.6999 197.5 66.5999 197.7 66.7999ZM197.8 82.2999C197.6 82.0999 197.4 82.1999 197.2 82.4999C197.4 82.4333 197.6 82.3666 197.8 82.2999ZM190.3 96.4999C190.567 96.6333 190.767 96.7333 190.9 96.7999C191.1 96.8666 191.3 96.8999 191.5 96.8999C191.367 96.9666 191.167 96.9333 190.9 96.7999C190.5 96.7999 190.2 96.6999 190.3 96.4999ZM195 97.7999C195 97.7999 195 97.7666 195 97.6999C195.067 97.6999 195.067 97.7333 195 97.7999ZM196 95.0999C196 95.1666 196 95.1999 196 95.1999C195.9 95.2999 195.8 95.2999 196 95.0999ZM199.5 87.0999C199.4 86.4999 199.4 86.6999 199.5 87.0999ZM217.2 57.8999C216.667 58.2999 216.167 58.6666 215.7 58.9999C216.2 58.4999 216.8 57.9999 217.2 57.8999ZM210.7 56.9999C210.833 56.7333 211.033 56.4666 211.3 56.1999C211.2 56.4999 210.9 56.7999 210.7 56.9999ZM214.4 53.8999C214.533 53.8999 214.667 53.8666 214.8 53.7999C213 55.5999 214.1 54.2999 214.4 53.8999ZM192.8 92.9999L192.7 93.0999C192.9 93.3999 192.9 93.1999 192.8 92.9999ZM194.3 89.3999C194.3 89.3999 194.333 89.3999 194.4 89.3999C194.4 89.3999 194.4 89.3666 194.4 89.2999C194.333 89.3666 194.3 89.3999 194.3 89.3999Z" fill="#100F12"/>
<path d="M187.7 106.5C187.9 106.967 188.233 107.3 188.7 107.5C188.5 107.033 188.5 106.567 188.7 106.1C188.4 106.3 188 106.6 187.7 106.5Z" fill="#100F12"/>
<path d="M194.2 101.9L193.8 102.3C194 102.5 194.6 102.2 194.2 101.9Z" fill="#100F12"/>
<path d="M194.7 100.8C194.3 100.5 195.1 100.4 194.7 100.2C194.8 100.3 194.3 100.6 194.7 100.8Z" fill="#100F12"/>
<path d="M189.8 99.1999C189.3 99.1999 189.6 99.5999 189.4 99.8999C189.5 99.5999 190.1 99.4999 189.8 99.1999Z" fill="#100F12"/>
<path d="M194.3 98.3999C193.8 97.6999 194.2 98.4999 194.2 98.7999C194.533 98.5333 194.9 98.4333 195.3 98.4999C194.5 97.3999 194.6 98.0999 194.3 98.3999Z" fill="#100F12"/>
<path d="M190 98.4999C189.8 98.6999 189.567 98.8666 189.3 98.9999C190.7 99.2999 190 98.6999 190 98.4999Z" fill="#100F12"/>
<path d="M195.8 98.1999C196.2 97.1999 196.1 96.7999 195.5 96.9999C195.5 97.4666 195.6 97.8666 195.8 98.1999Z" fill="#100F12"/>
<path d="M191 95.7999C191.3 95.5999 189.3 96.1999 190.5 96.1999C192.5 96.2999 190.3 96.2999 191 95.7999Z" fill="#100F12"/>
<path d="M191.2 94.8999C191.4 95.3999 191.5 95.6999 191.8 95.8999C191.6 95.5666 191.4 95.2333 191.2 94.8999Z" fill="#100F12"/>
<path d="M198.5 89.9999C198.6 90.1999 199.2 89.8999 198.8 89.9999C198.6 89.8999 198.1 90.0999 198.5 89.9999Z" fill="#100F12"/>
<path d="M193.7 88.1999C193.6 88.5999 193.2 89.2999 193.5 89.3999C193.8 89.2999 193.7 88.5999 193.7 88.1999Z" fill="#100F12"/>
<path d="M197.7 77.8999C197.7 77.4999 197.667 77.1333 197.6 76.7999C197.6 76.9999 197.5 77.6999 197.7 77.8999Z" fill="#100F12"/>
<path d="M199.2 75.1999C199.3 75.1999 199.2 74.7999 199 74.7999C199.1 74.9999 198.9 75.0999 199.2 75.1999Z" fill="#100F12"/>
<path d="M216.7 56.4999C216.9 56.0999 216.8 56.1999 216.2 56.5999C216.2 56.7999 216.6 56.3999 216.7 56.4999Z" fill="#100F12"/>
<path d="M217 54.5999C217 54.4999 216.9 54.4999 216.8 54.5999C216.867 54.5999 216.933 54.5999 217 54.5999Z" fill="#100F12"/>
<path d="M216.3 54.9999C216.633 54.7333 216.967 54.4333 217.3 54.0999C216.8 54.2999 216.7 54.5999 216.3 54.9999Z" fill="#100F12"/>
<path d="M216.1 53.5999C215.833 53.7333 215.567 53.8999 215.3 54.0999C215.5 54.1999 216.8 53.6999 216.7 53.6999C216.9 53.3999 216.6 52.9999 216.1 53.5999Z" fill="#100F12"/>
<path d="M215.7 54.7999C216 54.4999 216 54.2999 215.9 54.3999C215.8 54.4999 215.4 54.9999 215.7 54.7999Z" fill="#100F12"/>
<path d="M215.8 53.0999L216.3 52.7999C216.1 52.8999 215.9 52.8999 215.8 53.0999Z" fill="#100F12"/>
<path d="M214.9 53.1999C214.633 52.9999 214.8 52.7666 215.4 52.4999C215.4 52.3999 214.6 53.2999 214.9 53.1999Z" fill="#100F12"/>
<path d="M208.8 58.0999C208.3 58.8999 209.2 57.7999 209.3 57.9999C209.1 57.9999 209.2 57.7999 208.8 58.0999Z" fill="#100F12"/>
<path d="M212.2 53.0999C212.5 52.5999 212.1 52.6999 211.7 53.1999C212.1 52.7999 212.1 53.0999 212.2 53.0999Z" fill="#100F12"/>
<path d="M210.7 53.5999C210.833 53.3333 210.967 53.0999 211.1 52.8999C209.8 52.1999 208.9 55.1999 208.5 55.6999C211.2 53.5999 209.9 54.6999 212.1 52.4999C211.567 52.7666 211.1 53.1333 210.7 53.5999Z" fill="#100F12"/>
<path d="M209.7 56.5999C210.6 55.9999 209 57.2999 208.8 57.4999C209.067 57.1666 209.367 56.8666 209.7 56.5999Z" fill="#100F12"/>
<path d="M205 57.4999C205.2 57.2999 205.433 57.0666 205.7 56.7999C205.5 56.9999 204.5 57.9999 205 57.4999Z" fill="#100F12"/>
<path d="M205.2 56.7999C205.5 56.6999 204.6 57.0999 204.4 57.4999C204.667 57.2999 204.933 57.0666 205.2 56.7999Z" fill="#100F12"/>
<path d="M204.2 57.0999C204.5 56.8999 204.8 56.6999 205 56.4999C204.733 56.6999 204.467 56.8999 204.2 57.0999Z" fill="#100F12"/>
<path d="M202.4 58.1999C202.733 58.1999 202.967 58.0333 203.1 57.6999C202.9 57.8999 202.3 58.2999 202.4 58.1999Z" fill="#100F12"/>
<path d="M199 68.0999C199.333 67.8999 199.6 67.5999 199.8 67.1999C199.1 66.9999 199.2 67.7999 199 68.0999Z" fill="#100F12"/>
<path d="M190.4 70.7999C190 69.3999 189.6 71.0999 189.3 71.3999C189.6 71.2999 190 70.7999 190.4 70.7999Z" fill="#100F12"/>
<path d="M166 72.6999C166.1 72.4999 166 72.3999 166 72.1999C165.7 72.3999 166 72.5999 166 72.6999Z" fill="#100F12"/>
</g>
<defs>
<clipPath id="clip0_27_34711">
<rect width="152" height="217" fill="white" transform="translate(0.5 152.5) rotate(-90)"/>
</clipPath>
</defs>
</svg>
