<svg width="241" height="127" viewBox="0 0 241 127" fill="none" xmlns="http://www.w3.org/2000/svg">
<g clip-path="url(#clip0_28_35730)">
<path d="M224.644 114.906C225.468 114.92 224.792 114.739 224.483 114.345L224.644 114.906Z" fill="#100F12"/>
<path d="M224.483 114.345L224.49 113.933C224.342 114.1 224.413 114.223 224.483 114.345Z" fill="#100F12"/>
<path d="M225.046 112.633C225.111 111.615 224.282 110.461 223.354 110.833C224.268 111.285 223.932 112.541 225.046 112.633Z" fill="#100F12"/>
<path d="M223.223 112.869C223.055 112.72 222.895 112.16 222.341 111.908C222.594 112.252 222.888 112.572 223.223 112.869Z" fill="#100F12"/>
<path d="M222.333 108.075C222.222 108.874 221.714 108.841 221.558 109.421C222.124 110.4 222.995 109.081 223.483 110.35C223.632 110.183 223.164 107.677 223.164 107.677C222.949 107.964 222.672 108.097 222.333 108.075Z" fill="#100F12"/>
<path d="M186.484 71.8628C186.419 71.8456 186.396 71.8047 186.413 71.7403C186.387 71.8369 186.361 71.9335 186.484 71.8628Z" fill="#100F12"/>
<path d="M194.073 76.381C194.15 76.6087 194.204 76.7956 194.233 76.9416C194.285 76.7484 194.24 76.5294 194.073 76.381Z" fill="#100F12"/>
<path d="M161.746 57.1593C161.506 57.0259 161.281 56.9655 161.07 56.9781C161.431 57.1783 161.624 57.23 161.746 57.1593Z" fill="#100F12"/>
<path d="M178.089 67.6464C177.995 67.4831 177.883 67.3842 177.754 67.3497C177.849 67.513 177.96 67.6119 178.089 67.6464Z" fill="#100F12"/>
<path d="M216.421 96.1383C216.402 95.8226 216.235 95.6743 216.042 95.6225C215.99 95.8157 216.131 96.0606 216.421 96.1383Z" fill="#100F12"/>
<path d="M211.637 89.2658C211.759 89.1951 211.759 89.1951 211.637 89.2658Z" fill="#100F12"/>
<path d="M216.042 95.6225C216.257 95.335 216.384 94.9895 216.423 94.5859C216.423 94.5859 215.045 94.3201 214.639 93.9009C213.846 94.9306 215.488 95.3706 216.042 95.6225Z" fill="#100F12"/>
<path d="M186.632 71.6955C186.555 71.9853 186.844 72.0629 186.632 71.6955Z" fill="#100F12"/>
<path d="M190.527 73.7744C190.415 73.6755 190.304 73.5766 190.192 73.4776C190.263 73.6001 190.334 73.7226 190.527 73.7744Z" fill="#100F12"/>
<path d="M201.341 85.5754C201.358 85.511 201.367 85.4788 201.367 85.4788C201.244 85.5495 201.341 85.5754 201.341 85.5754Z" fill="#100F12"/>
<path d="M190.192 73.4776C190.218 73.3811 190.147 73.2586 189.954 73.2068C190.066 73.3057 190.145 73.396 190.192 73.4776Z" fill="#100F12"/>
<path d="M48.6652 35.245C48.9573 35.1852 49.2557 35.2307 49.5604 35.3813C49.8382 34.7311 48.4531 34.8776 48.1563 35.2122C49.2309 36.2248 48.4909 35.5089 48.6652 35.245Z" fill="#100F12"/>
<path d="M113.182 31.3091C113.182 31.3091 113.505 30.8779 112.855 30.6002C112.794 31.343 112.531 32.0663 112.066 32.77C113.213 32.3527 112.17 32.3837 113.182 31.3091Z" fill="#100F12"/>
<path d="M59.6513 32.4947C59.7974 32.4648 59.9348 32.4671 60.0636 32.5016C59.7997 32.3274 59.6772 32.3981 59.6513 32.4947Z" fill="#100F12"/>
<path d="M168.16 47.904C168.307 47.8741 168.476 47.8851 168.669 47.9368C168.405 47.7626 168.283 47.8333 168.16 47.904Z" fill="#100F12"/>
<path d="M94.775 39.732C95.008 38.8627 94.5818 39.6802 94.0799 39.2352C93.8994 39.3938 93.751 39.5611 93.6348 39.7371C94.0385 39.7762 94.4185 39.7745 94.775 39.732Z" fill="#100F12"/>
<path d="M115.666 33.6311C116.368 33.7156 117.044 33.8968 117.624 34.0521C117.289 33.7554 115.963 33.2965 115.666 33.6311Z" fill="#100F12"/>
<path d="M218.5 108.083C218.029 108.682 218.943 109.134 220.451 108.917C219.636 108.353 219.033 107.64 218.643 106.776C218.604 107.18 218.557 107.615 218.5 108.083Z" fill="#100F12"/>
<path d="M222.659 104.539C222.363 104.874 221.931 104.551 222.233 105.357C222.384 105.052 222.526 104.779 222.659 104.539Z" fill="#100F12"/>
<path d="M217.197 93.2405L217.422 94.3358C217.93 94.3687 217.784 92.9835 217.197 93.2405Z" fill="#100F12"/>
<path d="M213.44 100.309C213.968 100.657 213.304 101.204 214.225 101.244C214.316 100.647 214.054 100.335 213.44 100.309Z" fill="#100F12"/>
<path d="M215.635 90.9583C214.759 91.1376 215.314 89.8371 214.509 90.1389C214.895 90.2424 214.9 91.3826 215.635 90.9583Z" fill="#100F12"/>
<path d="M209.606 96.0722C209.109 96.7672 210.03 96.807 210.287 97.3935C209.978 97.0002 210.166 95.9118 209.606 96.0722Z" fill="#100F12"/>
<path d="M210.472 87.8151C211.207 87.3908 211.811 89.0019 210.659 88.2791C211.139 88.5459 211.611 88.845 212.075 89.1762C211.732 88.3942 211.785 87.6835 212.232 87.0442C211.395 86.8199 210.808 87.0769 210.472 87.8151Z" fill="#100F12"/>
<path d="M208.68 94.8922C208.589 95.489 208.653 96.0238 208.871 96.4964C209.29 96.0911 209.62 95.2476 209.697 94.9579C209.73 94.449 208.963 95.3821 208.68 94.8922Z" fill="#100F12"/>
<path d="M212.104 85.9748C211.47 85.2525 210.702 84.7707 209.8 84.5291C210.057 85.1156 211.035 86.1023 212.104 85.9748Z" fill="#100F12"/>
<path d="M208.194 92.0702C207.867 92.2588 207.581 92.4238 207.336 92.5652C207.195 92.3203 208.759 93.05 208.25 93.0172C207.678 92.4497 208.721 92.4187 208.194 92.0702Z" fill="#100F12"/>
<path d="M204.613 91.5249C205.501 92.0735 205.225 91.1713 205.837 90.8178C205.533 90.6671 205.237 90.4842 204.949 90.2692C204.828 90.7199 204.716 91.1385 204.613 91.5249Z" fill="#100F12"/>
<path d="M205.717 89.3361C205.056 89.2279 204.386 89.152 203.707 89.1082C204.577 89.3411 205.208 89.3032 205.717 89.3361Z" fill="#100F12"/>
<path d="M198.644 72.8436C198.986 72.7281 198.472 71.5551 198.677 72.3348C198.336 72.4503 198.489 73.4232 198.644 72.8436Z" fill="#100F12"/>
<path d="M193.593 78.9442C194.218 79.3185 195.215 80.6209 195.537 80.1897C195.57 79.6809 194.147 79.1961 193.593 78.9442Z" fill="#100F12"/>
<path d="M173.886 65.1743C173.886 65.1743 173.813 65.1892 173.667 65.2191C173.748 65.172 173.821 65.157 173.886 65.1743Z" fill="#100F12"/>
<path d="M173.886 65.1743C174.343 65.4003 175.328 65.9748 175.843 65.5953C175.182 65.4872 174.53 65.3468 173.886 65.1743Z" fill="#100F12"/>
<path d="M170.153 62.1036C170.591 62.014 170.804 62.3814 170.907 61.995C170.888 61.6793 170.134 61.788 170.153 62.1036Z" fill="#100F12"/>
<path d="M141.238 34.7889C140.736 34.3439 140.394 34.4594 140.335 35.0649C141.012 35.246 140.729 34.7561 141.238 34.7889Z" fill="#100F12"/>
<path d="M136.492 32.7928C136.177 32.8118 135.984 32.76 136.151 32.9084C136.177 32.8118 136.299 32.7411 136.492 32.7928Z" fill="#100F12"/>
<path d="M135.823 32.1994C135.546 32.8497 134.605 32.4943 135.532 33.6742C135.996 33.4879 135.185 32.6495 135.823 32.1994Z" fill="#100F12"/>
<path d="M131.352 32.6578C130.638 31.8453 132.184 32.2595 132.429 32.118C130.105 30.3567 129.689 33.4546 128.04 33.4269C129.772 34.305 129.84 31.7349 131.352 32.6578Z" fill="#100F12"/>
<path d="M131.338 33.4823C131.602 33.6566 131.904 34.4621 132.323 34.0568C132.575 33.5032 131.706 33.2702 131.338 33.4823Z" fill="#100F12"/>
<path d="M126.975 30.4496C126.704 30.6876 125.834 30.4547 126.311 30.9963L126.975 30.4496Z" fill="#100F12"/>
<path d="M123.142 30.4579C123.142 30.4579 122.261 29.497 123.278 29.5627C122.821 29.3367 121.853 30.6303 123.142 30.4579Z" fill="#100F12"/>
<path d="M116.23 30.3659C115.874 30.4084 115.517 30.4509 115.161 30.4934C115.328 30.6418 116.391 30.9265 116.23 30.3659Z" fill="#100F12"/>
<path d="M116.74 34.6437C115.968 34.4366 116.116 34.2693 115.195 34.2296C115.374 35.1058 116.116 34.2693 116.74 34.6437Z" fill="#100F12"/>
<path d="M115.471 29.3343C115.408 28.7996 114.583 28.7857 114.454 29.2687C114.75 28.9341 115.182 29.2567 115.471 29.3343Z" fill="#100F12"/>
<path d="M110.626 30.4171C112.256 30.1292 113.332 29.5894 114.248 28.489C113.212 28.1077 113.455 29.5187 112.682 29.3116C110.83 26.9518 111.568 29.2201 110.626 30.4171Z" fill="#100F12"/>
<path d="M114.714 32.5477C114.108 32.489 113.418 33.1324 113.637 33.0875C114.028 32.9162 114.387 32.7363 114.714 32.5477Z" fill="#100F12"/>
<path d="M105.229 29.6957C105.521 29.6359 105.822 29.5439 106.131 29.4197C104.658 29.5082 104.357 29.6001 105.229 29.6957Z" fill="#100F12"/>
<path d="M105.313 28.9936C105.094 29.0384 104.882 28.671 104.218 29.2178C104.575 29.1752 104.94 29.1005 105.313 28.9936Z" fill="#100F12"/>
<path d="M104.863 28.3554C104.571 28.4151 104.238 28.4985 103.865 28.6054C104.277 28.6123 104.522 28.4709 104.863 28.3554Z" fill="#100F12"/>
<path d="M102.338 28.5069C101.865 28.7254 101.438 28.6454 101.056 28.2671C101.151 28.4304 101.245 28.5937 101.339 28.757C101.755 29.0065 102.088 28.9232 102.338 28.5069Z" fill="#100F12"/>
<path d="M91.734 40.263C92.2963 40.4827 92.3975 40.2337 92.0376 39.5161C91.9686 39.7737 91.8674 40.0227 91.734 40.263Z" fill="#100F12"/>
<path d="M90.4145 39.3918C91.0786 38.8451 89.8728 39.8678 89.7245 40.0351C90.4547 39.8857 91.1464 39.6224 91.7996 39.2453C91.3143 39.2533 90.8526 39.3022 90.4145 39.3918Z" fill="#100F12"/>
<path d="M69.5879 40.2301C69.5189 40.4876 69.5142 40.7625 69.574 41.0546C69.965 40.8832 70.356 40.7119 70.747 40.5406C71.3783 40.5027 71.211 40.3544 72.3909 39.4282C71.5273 39.818 70.5929 40.0852 69.5879 40.2301Z" fill="#100F12"/>
<path d="M71.9735 59.9183L72.2374 60.0926C72.5151 59.4423 72.1925 59.8735 71.9735 59.9183Z" fill="#100F12"/>
<path d="M71.9735 59.9183L71.8062 59.77C71.836 59.916 71.8918 59.9655 71.9735 59.9183Z" fill="#100F12"/>
<path d="M70.4349 59.092C70.8541 58.6867 71.2525 59.5181 71.582 58.6747C71.3251 58.0882 70.6678 58.2227 70.4349 59.092Z" fill="#100F12"/>
<path d="M69.5605 57.7189C69.5864 57.6223 69.1464 59.2644 69.3326 59.7284C70.8074 60.02 69.5605 57.7189 69.5605 57.7189Z" fill="#100F12"/>
<path d="M45.227 60.8268C45.1626 60.8095 45.1304 60.8009 45.1304 60.8009C45.1304 60.8009 45.2011 60.9234 45.227 60.8268Z" fill="#100F12"/>
<path d="M49.2548 59.3179C49.3663 59.4168 49.4456 59.507 49.4928 59.5887C49.4629 59.4426 49.3836 59.3524 49.2548 59.3179Z" fill="#100F12"/>
<path d="M31.7294 62.9042C31.519 62.9168 31.3321 62.9702 31.1688 63.0645C31.4844 63.0456 31.6069 62.9749 31.7294 62.9042Z" fill="#100F12"/>
<path d="M40.9025 62.6704C40.7909 62.5714 40.703 62.5134 40.6386 62.4961C40.7501 62.595 40.8381 62.6531 40.9025 62.6704Z" fill="#100F12"/>
<path d="M63.275 56.4488C63.2043 56.3263 63.0819 56.397 63.056 56.4936C63.1267 56.6161 63.1974 56.7386 63.275 56.4488Z" fill="#100F12"/>
<path d="M63.056 56.4936C62.9962 56.2015 62.9364 55.9095 62.8767 55.6174C62.8767 55.6174 62.0572 56.7437 62.0314 56.8403C62.6816 57.118 62.4884 57.0663 63.056 56.4936Z" fill="#100F12"/>
<path d="M45.1821 60.6077C45.227 60.8268 45.3494 60.7561 45.1821 60.6077Z" fill="#100F12"/>
<path d="M47.2832 59.7213C47.2188 59.7041 47.1544 59.6868 47.09 59.6695C47.09 59.6695 47.1607 59.792 47.2832 59.7213Z" fill="#100F12"/>
<path d="M54.5932 60.6448C54.5932 60.6448 54.6019 60.6126 54.6191 60.5482C54.5674 60.7414 54.5674 60.7414 54.5932 60.6448Z" fill="#100F12"/>
<path d="M46.8968 59.6178C46.9612 59.635 47.0256 59.6523 47.09 59.6695C46.9934 59.6437 46.9227 59.5212 46.8968 59.6178Z" fill="#100F12"/>
<path d="M45.4277 33.0317C44.8137 33.0052 44.7792 33.134 45.3242 33.418C45.4749 33.1133 45.6037 33.1478 45.7106 33.5216C45.7106 33.5216 44.9138 31.8587 45.4277 33.0317Z" fill="#100F12"/>
<path d="M41.8741 36.6347C41.7925 36.6818 41.7516 36.7054 41.7516 36.7054C41.8482 36.7313 41.9448 36.7572 41.8741 36.6347Z" fill="#100F12"/>
<path d="M31.9287 52.5013C31.9632 52.3725 32.0212 52.2845 32.1029 52.2374C31.9568 52.2672 31.8988 52.3552 31.9287 52.5013Z" fill="#100F12"/>
<path d="M23.4068 41.418C24.1209 42.2305 23.2395 41.2696 23.9157 41.4508C23.8519 40.9161 23.7812 40.7936 23.4068 41.418Z" fill="#100F12"/>
<path fill-rule="evenodd" clip-rule="evenodd" d="M14.3053 51.8167C15.0654 51.8133 15.4909 51.5132 15.5818 50.9164C15.3415 50.783 15.1098 50.6174 14.8868 50.4196C14.7712 50.078 18.7061 45.4383 19.1253 45.033C19.667 44.557 22.7875 42.1838 22.8911 41.7974C23.0325 42.0424 23.2061 42.296 23.4119 42.5582C23.7276 42.5392 25.0508 40.3056 25.1922 40.5505C25.329 41.0703 25.6636 41.367 26.196 41.4407C26.3444 41.2734 26.0754 39.959 27.0603 40.5334C26.893 40.3851 24.2092 38.4236 25.3752 38.322C25.4695 38.4853 25.596 38.6572 25.7547 38.8377C26.7603 38.1755 27.045 37.1129 28.4043 37.063C28.5894 36.6295 28.4503 36.2472 27.9869 35.9159C28.908 35.9557 29.4395 33.1993 30.3847 34.6949C30.5658 34.0188 30.4623 34.4051 31.004 33.9291C32.3355 35.5282 33.5431 32.953 34.0191 33.4947C34.2043 33.0612 34.1382 32.6639 33.8209 32.3028C33.3051 32.6822 33.6656 32.8823 33.4396 33.3394C33.3453 33.1761 33.2487 33.1502 33.1498 33.2617C33.795 32.3993 32.6359 32.0888 34.1195 30.4157C34.9837 29.5085 37.1693 27.9201 38.0784 27.2319C39.2842 26.2091 40.8366 26.211 40.0657 24.4515C41.3025 24.4723 41.8858 21.5228 42.7033 21.9489C42.6171 22.2709 42.7349 22.475 43.0569 22.5613C42.2791 21.2141 45.0664 22.7891 44.2437 21.2228C44.7462 21.1504 45.0745 21.3419 45.2286 21.7973C46.0429 19.5309 47.6869 18.4184 50.0966 17.9253C50.7705 18.2439 51.427 18.6269 52.0664 19.0743C52.0929 18.4602 52.4281 18.2395 53.072 18.412C53.1663 18.5753 53.2606 18.7386 53.3549 18.9019C52.7495 18.8432 51.7886 19.7245 51.2539 19.7883C50.7899 19.9746 51.6125 21.5409 51.5349 21.8306C51.037 21.6282 50.6379 21.3142 50.3378 20.8887C49.9187 21.2941 51.4055 22.3136 51.3019 22.7C51.2502 22.8932 49.6219 21.6287 49.6219 21.6287C48.906 22.3686 51.1794 22.7707 50.9206 23.7366C50.5561 23.2938 50.0991 23.0678 49.5494 23.0586C49.892 23.8406 50.1208 24.6611 50.2357 25.5201C50.2357 25.5201 48.9042 23.921 48.8076 23.8951C49.5665 24.9267 48.509 25.7821 49.2679 26.8137C48.9977 26.5342 48.6458 26.3019 48.2123 26.1167C48.9194 27.3415 48.0381 26.3806 48.6814 27.0707C47.6378 27.1016 48.1947 30.0461 47.5824 30.3996C47.4409 30.1547 45.1505 27.8845 44.9573 27.8327C44.9503 28.245 45.3399 31.0411 46.3008 30.1598C46.2749 30.2564 45.8608 31.8018 46.1626 32.6074C45.8021 32.4073 45.6089 32.3555 45.7434 33.0127C44.9776 32.3934 45.9245 32.3366 45.088 31.5948C43.7667 32.276 45.3949 33.5405 44.8981 34.2356C43.0143 36.6296 44.203 33.7388 43.5578 34.6012C43.2352 35.0324 41.8154 37.2401 41.4947 36.1189C40.8684 37.297 36.6109 42.3678 35.2535 40.8653C35.0793 41.1292 35.8451 41.7485 35.8641 42.0642C38.1841 41.1329 39.2245 38.4094 41.6083 38.0129C41.4859 38.0836 42.5706 41.3765 42.5636 41.7888C43.2347 40.8298 43.2107 39.374 44.6217 39.1309C44.3906 38.4478 43.9571 38.2626 43.3211 38.5753C43.8628 38.0993 46.0465 38.0633 46.2088 37.0715C44.9133 37.6561 46.1279 34.6687 46.9006 34.8757C46.9431 35.2322 46.9213 35.5714 46.835 35.8934C47.4491 35.9199 47.8895 35.6928 48.1563 35.2122C48.5478 36.4559 46.7643 35.7709 47.323 37.163C49.5844 36.8372 50.3281 34.4482 52.3514 33.8516C53.8142 33.4153 53.2656 34.3036 54.8957 34.0157C57.9626 33.3881 59.2839 32.7068 61.7903 32.2396C63.1047 31.9706 76.5884 30.7178 77.3542 31.3371C77.2128 31.0921 77.0713 30.8472 76.9299 30.6022C77.1111 29.9261 81.5562 29.5643 82.5739 29.6299C83.6882 29.7214 84.6213 30.4891 85.7873 30.3874C86.9275 30.3823 87.502 29.3974 89.0544 29.3993C88.2627 28.8766 89.7185 28.8526 89.9635 28.7111C89.8726 29.308 89.6144 29.7564 89.1889 30.0565C90.8758 30.7156 91.2728 27.302 92.6163 29.629C92.2127 29.5899 91.8476 29.6646 91.521 29.8532C92.1775 30.2362 92.8968 30.2563 93.6788 29.9137C93.5546 29.6044 93.381 29.3508 93.158 29.153C93.6409 29.2824 95.9471 29.1757 96.0437 29.2015C97.0873 29.1706 97.5134 28.353 98.4086 28.4894C98.807 29.3208 97.5375 29.8088 99.064 29.9073C100.687 30.0316 99.2073 28.5998 100.618 28.3567C100.798 29.233 100.464 29.8338 99.6177 30.1592C100.485 30.5295 100.654 31.0579 100.125 31.7444C102.503 30.2077 107.481 31.3345 107.318 28.0813C107.674 28.0388 108.039 27.9641 108.413 27.8572C108.748 28.1539 107.413 29.6596 108.166 29.551C109.043 29.3717 109.596 29.6236 108.87 28.0832C109.707 28.825 110.069 27.4727 110.642 28.0402C109.257 28.1867 111.245 29.6513 109.526 29.5011C109.493 30.01 109.325 29.8616 108.918 30.9948C109.743 31.0087 110.544 30.9817 111.321 30.914C110.992 31.7574 109.988 30.8673 109.465 31.659C109.993 32.0074 111.668 31.9386 111.873 32.7183C111.873 32.7183 109.819 32.2713 110.076 32.8578C110.403 33.5668 110.505 34.7328 111.626 34.4121C112.464 33.6015 111.131 33.5548 110.79 33.6703C110.777 33.4599 110.788 33.2903 110.822 33.1615C111.737 33.6135 114.785 32.6702 115.402 33.4568C115.046 33.4993 114.648 33.5654 114.21 33.6551C114.208 35.2075 118.098 36.1462 117.951 34.7611C117.741 34.7737 117.53 34.7863 117.32 34.799C117.651 34.3356 118.008 34.2931 118.389 34.6714C118.274 34.3299 118.829 33.0293 117.941 32.4807C117.418 33.2724 115.982 33.6121 115.074 32.7479C115.437 31.3956 116.549 33.0395 117.729 32.1133C116.228 31.9183 119.026 29.9763 119.825 30.0867C119.545 30.3569 119.29 30.668 119.057 31.0198C120.41 31.3822 120.624 30.1972 121.41 29.5797C122.157 29.8834 122.749 30.7666 123.715 31.0254C124.558 31.3549 124.624 30.3373 125.352 30.3252C124.887 31.029 124.275 31.3825 123.514 31.3859C123.708 31.4377 123.69 31.5021 123.463 31.5791C123.939 32.1208 125.215 31.2205 125.498 31.7104C125.119 31.1946 120.335 34.3645 119.152 32.5981C118.816 33.3364 118.828 34.0643 119.188 34.7819C120.045 34.2869 126.959 32.8265 127.211 32.2728C127.073 32.788 127.296 32.9858 127.88 32.8662C127.618 33.0721 127.364 33.2457 127.119 33.3871C128.023 37.3562 133.239 32.9564 134.971 33.8345C135.15 34.7108 133.412 34.2449 134.074 35.2506C136.077 35.8907 137.282 34.868 137.722 33.2259C137.945 33.4237 138.177 33.5893 138.417 33.7227C138.108 33.8469 137.807 33.9388 137.515 33.9986C137.798 34.4885 138.229 34.8111 138.809 34.9664C138.628 35.1251 138.448 35.2838 138.267 35.4424C139.464 36.3843 141.417 35.6652 143.021 35.4739C142.862 35.2933 142.671 35.1041 142.448 34.9063C142.753 35.057 143.049 35.2399 143.337 35.4549C144.116 35.2497 142.99 34.4303 144.078 34.6184C143.169 35.3066 144.786 35.8432 144.456 36.6866C143.898 36.1921 143.445 36.2087 143.097 36.7365C144.23 37.1437 146.024 40.109 145.275 35.5603C145.643 35.3482 146.141 38.8981 145.844 39.2327C147.24 38.9166 148.632 38.8753 150.019 39.1089C149.838 39.2675 149.658 39.4262 149.477 39.5849C150.353 39.4056 150.146 40.1783 151.119 40.0249C151.201 39.9777 151.218 39.9133 151.171 39.8317C152.632 40.9478 158.015 42.4938 159.579 43.2236C161.865 44.3536 163.21 45.1282 164.78 46.9981C165.287 46.6509 165.251 46.3996 164.671 46.2443C166.81 45.9892 166.511 47.8763 168.16 47.904C167.329 48.3024 166.441 47.7538 165.892 48.6421C165.892 48.6421 173.737 49.5017 173.071 51.6009C173.423 51.8332 173.747 51.7821 174.044 51.4475C174.421 52.1007 174.204 52.5256 173.392 52.7221C176.16 53.9815 186.166 57.5944 186.045 61.9101C188.294 60.8563 191.856 66.8835 193.451 68.6568C194.346 68.7932 195.39 68.7622 195.814 69.497C195.535 69.7673 195.264 70.0053 195.002 70.2111C196.242 70.4745 197.498 70.811 198.769 71.2205C198.412 71.263 198.15 71.4688 197.982 71.8379C198.222 71.9713 198.454 72.137 198.677 72.3348C197.808 72.1018 198.767 72.7729 197.872 72.6366C197.007 73.5438 198.925 74.8859 198.772 73.9131C198.862 74.3512 198.696 74.5829 198.275 74.6082C198.93 76.0261 199.879 74.4168 199.771 73.663C200.835 78.1927 207.501 78.4262 209.736 83.9944C208.77 83.7355 207.684 81.995 206.763 81.9553C206.874 82.0542 206.986 82.1531 207.097 82.252C206.81 82.0369 206.456 81.942 206.035 81.9673C206.344 82.3606 207.437 83.6889 207.508 83.8113C206.407 82.8953 207.159 84.3391 206.335 84.3253C206.863 84.6737 207.93 86.0986 207.166 83.9269C207.482 83.9079 210.783 86.656 210.783 86.656C210.854 86.7785 209.379 86.4868 209.919 87.5632C210.362 88.6137 210.876 89.7867 211.197 90.9079C211.223 90.2939 211.37 89.7465 211.637 89.2658C211.89 89.6097 212.25 89.8098 212.718 89.8662C212.525 89.8144 212.323 89.7949 212.113 89.8075C212.443 90.3791 212.9 90.6051 213.484 90.4855C213.698 91.233 213.468 91.4474 212.794 91.1288C213.899 93.185 212.62 91.3927 213.023 93.3643C213.303 93.0941 213.591 92.7917 213.887 92.4571C214.022 93.1143 215.653 97.0714 215.769 97.4129C215.37 96.5815 213.026 96.0569 212.69 97.3126C214.184 97.9199 214.365 97.2438 215.305 97.5992C215.833 97.9477 216.374 97.9891 216.928 97.7235C216.949 98.4192 217.255 98.95 217.847 99.3157C217.585 99.5215 217.346 99.7681 217.131 100.056C217.466 100.352 217.659 100.404 217.756 100.43C217.674 100.477 217.607 100.597 217.556 100.79C217.549 101.203 218.54 101.365 218.76 101.32C218.489 101.558 220.2 103.673 220.657 103.899C219.323 103.852 217.393 101.782 216.878 102.162C216.379 104.409 221.081 104.634 221.383 105.439C220.927 105.593 220.744 105.89 220.834 106.328C222.09 106.664 222.2 105.866 222.778 107.573C222.295 107.444 220.31 108.672 219.725 107.376C220.253 107.725 220.77 107.725 221.277 107.378C220.935 106.596 220.353 106.061 219.534 105.772C219.249 106.835 217.491 106.053 216.879 106.407C216.789 105.969 216.545 105.593 216.146 105.279C216.991 104.056 216.049 105.253 215.717 103.404C215.962 103.262 217.397 104.475 217.34 103.528C216.972 103.74 215.732 101.027 214.599 100.619C215.067 100.676 215.518 100.797 215.951 100.982C215.353 100.511 216.179 98.9723 215.065 98.8808C215.078 99.0912 215.09 99.3016 215.103 99.5121C214.902 98.975 214.543 98.6375 214.028 98.4995C213.41 98.7478 213.224 99.1813 213.473 99.8C212.907 98.8202 211.481 95.6428 210.913 96.2154C211.295 96.5938 211.282 96.9008 210.874 97.1365C211.467 96.4673 210.294 96.9812 210.204 96.5431C211.969 96.9124 209.879 94.2817 209.615 94.1075C209.654 93.1864 209.808 94.1592 209.391 93.0121C210.173 92.6695 210.57 92.086 210.584 91.2615C209.567 91.1958 208.361 92.2186 207.428 91.4509C207.737 91.3268 208.046 91.2026 208.356 91.0784C207.959 88.6946 206.474 91.92 206.125 92.4478C206.003 92.5185 206.671 88.867 206.195 88.3253C204.644 86.771 204.442 88.6839 203.566 88.8632C203.4 87.1625 199.797 83.6089 199.727 83.4864C199.489 83.2155 197.971 81.1524 198.982 81.6303C198.654 80.9214 196.645 80.6935 197.817 80.1796C197.631 79.7156 197.624 80.1278 197.509 79.7863C197.316 79.7345 196.189 78.9151 196.189 78.9151C196.202 79.1255 196.215 79.336 196.227 79.5464C195.725 79.1013 194.677 77.9921 194.097 77.8368C193.35 77.5332 191.894 77.5572 191.032 76.912C193.194 73.8677 188.479 72.9152 186.729 71.7214C186.298 71.3988 184.911 67.3003 184.028 67.8919C184.224 68.7037 184.526 69.5093 184.933 70.3085C184.405 69.9601 182.28 69.3907 182.292 70.1186C181.829 69.7874 181.819 69.4395 182.262 69.075C180.859 67.3534 180.069 71.0757 178.089 67.6464C178.662 68.214 183.479 68.7801 183.505 68.6836C183.628 68.6128 182.774 66.003 182.51 65.8288C182.671 66.3894 181.241 66.3168 182.155 66.7688C180.777 66.503 179.966 65.6647 178.64 65.2057C179.721 65.8061 177.634 65.868 177.962 66.577C178.388 65.7594 179.688 66.3149 180.145 66.5409C179.771 67.1653 178.696 66.1527 179.184 67.4223C177.999 67.2083 175.65 65.5436 175.523 64.4741C175.798 64.4787 176.072 64.4833 176.347 64.488C176.082 63.9337 175.88 63.3966 175.744 62.8769C174.778 62.618 173.817 63.4994 172.441 61.6812C173.4 62.3523 173.156 60.9413 174.019 61.5865C173.01 59.5562 170.186 61.5948 168.615 61.2773C167.307 61.134 166.8 59.5487 165.319 59.6694C165.879 59.509 165.714 57.8082 164.548 57.9099C164.672 58.2192 164.787 58.5608 164.894 58.9345C163.671 58.6067 162.622 58.0149 161.746 57.1593C161.914 56.7902 162.209 56.593 162.63 56.5677C163.43 55.1258 160.794 56.076 160.988 56.1277C159.88 55.624 157.15 54.9959 155.515 54.1436C150.944 51.8836 146.244 50.1066 141.543 48.3295C133.778 45.6276 127.719 43.9005 119.65 41.9455C113.538 40.4115 110.511 40.118 105.067 40.7299C103.051 40.9143 102.42 40.9522 100.584 40.4604C99.7151 40.2275 96.424 39.7597 96.0825 39.8753C96.2504 39.5062 96.4419 39.1779 96.657 38.8904C95.5237 38.4832 94.1576 38.9454 92.9915 39.0471C93.0904 38.9355 93.1893 38.824 93.2882 38.7124C92.5029 38.2949 91.7255 38.3627 90.9561 38.9158C91.5151 38.3754 91.5157 37.8579 90.958 37.3634C90.6613 37.698 88.7086 38.4171 88.3361 37.4891C88.3551 37.8047 89.626 41.5617 87.4113 40.5541C87.4803 40.2966 87.5085 40.0625 87.4959 39.8521C86.753 39.7911 86.1343 40.0394 85.6398 40.5971C84.4807 40.2865 81.5571 39.6067 80.7067 39.6894C80.9257 39.6446 73.843 42.509 74.6315 40.3392C73.6328 40.5892 73.098 40.653 72.5753 41.4446C72.335 41.3112 72.1033 41.1456 71.8802 40.9478C72.4046 40.5362 72.9055 40.0837 73.3827 39.5904C72.2943 39.4023 67.4818 39.9763 67.5853 39.5899C66.8551 39.7394 66.4037 40.1361 66.2312 40.78C66.9591 40.768 67.4748 40.3886 68.2097 39.9643C68.1579 40.1575 68.2373 40.2478 68.4477 40.2351C66.985 40.6714 67.8922 41.5357 67.4023 41.8185C65.0753 43.162 61.6169 42.5459 59.0657 42.7941C55.7867 43.0543 54.1099 44.6755 51.3069 45.4774C50.8687 45.567 47.9571 45.6151 48.2727 45.5961C46.5909 46.0772 40.1566 50.7719 38.9596 49.83C39.0758 49.654 39.1919 49.4781 39.3081 49.3022C38.6698 49.7523 33.8573 50.3263 34.7664 49.6382C33.3674 50.6092 31.7563 51.2127 30.2796 52.4735C31.13 52.3908 30.8851 52.5322 31.0903 53.3119C31.1938 52.9255 31.0076 52.4615 31.4009 52.1528C31.4129 52.8807 31.5095 52.9066 31.9287 52.5013C31.851 52.791 30.9988 54.4262 31.6042 54.4849C32.3857 52.7273 33.8295 51.9753 34.7109 52.9362C35.003 52.8764 35.1278 52.6683 35.0853 52.3118C35.3853 52.7373 35.402 53.1904 35.1352 53.671C35.7757 53.0835 36.487 52.6184 37.269 52.2758C38.6194 54.1905 40.9224 51.3912 42.3366 53.8407C42.4402 53.4543 42.5759 53.0766 42.7438 52.7074C43.9753 53.5206 45.3489 54.0611 46.8645 54.3292C47.2837 53.9239 47.8512 53.3513 48.0185 53.4996C47.9966 53.8389 47.9747 54.1781 47.9529 54.5173C48.4474 53.9596 48.9827 53.3784 49.5589 52.7736C49.8348 53.6757 50.2332 54.5072 50.4005 54.6555C50.3487 54.8487 50.4504 56.0148 50.7023 55.4611C51.0249 55.0299 50.9163 54.2761 50.6334 53.7862C51.0796 54.1818 51.4354 54.6568 51.701 55.2111C52.141 53.569 55.4201 53.3088 57.3261 53.923C56.7545 54.253 56.168 54.51 55.5666 54.6939C55.5925 54.5973 55.4113 55.2735 55.5976 55.7375C55.8896 55.6777 56.0466 55.4782 56.0685 55.139C56.1133 55.3581 56.2219 56.1118 56.1184 56.4982C56.3634 56.3568 56.8981 56.293 56.3255 55.7255C56.6992 55.6186 56.9787 55.3484 57.1638 54.9148C57.3697 55.177 57.4938 55.4864 57.5363 55.8429C57.852 55.8239 57.9694 54.6131 58.4006 54.9356C58.2333 54.7873 59.3647 56.7469 59.77 57.1661C59.3457 56.4312 59.501 55.8517 60.1393 55.4015C60.0231 55.5775 59.9156 55.7212 59.8167 55.8327C60.2203 55.8719 60.4652 55.7304 60.5515 55.4085C60.5705 55.7241 61.0774 57.3093 61.2706 57.3611C61.2281 57.0046 61.2264 56.6246 61.2655 56.2209C61.7157 56.8592 63.4992 57.5441 63.4733 57.6407C63.08 57.9495 62.0226 58.8049 62.2467 59.9003C62.9367 59.2569 64.0011 57.9892 63.9701 56.9456C64.1886 57.4183 64.4697 57.5281 64.8136 57.2752C64.7917 57.6144 64.7785 57.9214 64.7738 58.1963C64.9371 58.102 65.036 57.9905 65.0706 57.8617C65.1177 57.9433 65.1476 58.0894 65.1602 58.2998C65.3016 58.5447 65.7536 57.6306 65.7536 57.6306C66.1446 57.4593 66.3033 57.6398 66.2297 58.1722C66.5563 57.9837 66.8829 57.7951 67.2095 57.6066C66.7057 58.7139 65.4431 58.7897 65.3585 59.4917C65.5896 60.1748 67.3818 58.8951 67.1369 59.0365C67.7165 59.1918 67.5251 57.5876 67.9563 57.9102C67.8701 58.2322 67.9298 58.5243 68.1356 58.7865C68.1615 58.6899 68.6394 57.6791 68.736 57.705C70.3074 58.0225 68.0631 60.2164 67.9924 60.0939C68.3362 59.841 68.5041 59.4719 68.4961 58.9866C68.1943 58.181 66.6313 61.6963 66.6054 61.7929C66.4295 61.6767 66.2276 61.6571 65.9999 61.7342C66.1483 61.5669 66.6521 60.4595 65.9431 60.7872C65.7924 61.0919 65.5647 61.1689 65.26 61.0183C65.6683 60.7826 65.8684 60.4221 65.8604 59.9368C65.7442 60.1127 65.5637 60.2714 65.3187 60.4128C64.6495 59.8194 66.2556 58.0757 63.9854 60.3661C64.4374 59.452 64.7013 59.6262 63.9872 58.8137C64.2252 59.0845 62.2467 59.9003 63.373 60.7197C62.9866 60.6162 62.433 60.3643 62.1811 60.918C62.0569 60.6086 62.0788 60.2694 62.2467 59.9003C61.1186 60.6333 61.95 60.2349 61.5946 61.1749C61.5377 60.2279 61.2979 61.5095 61.0599 61.2387C61.1806 60.7879 61.2048 60.3113 61.1324 59.8087C60.7288 59.7696 60.4195 59.8938 60.2044 60.1812C60.1406 59.6465 60.4822 59.531 59.7991 59.7621C59.9716 59.1181 59.9424 58.4546 59.7113 57.7715C59.5341 58.6903 59.1488 59.4843 58.5554 60.1535C58.6417 59.8315 58.7193 59.5418 58.7883 59.2842C58.1002 58.3751 58.5018 61.8991 58.1154 61.7956C58.0994 60.825 57.8235 59.9229 57.2877 59.0891C55.4108 61.0709 57.0358 59.6428 56.4026 61.2331C56.0491 60.6207 52.977 60.1082 53.4082 60.4308C53.4082 60.4308 51.566 60.3513 52.5717 59.689C52.2969 59.6844 52.0928 59.8022 51.9593 60.0425C51.347 60.3961 51.6765 59.5526 51.7024 59.4561C51.5351 59.3077 51.6506 59.6492 51.5092 59.4043C50.8072 59.3197 49.3426 61.3084 48.3179 61.655C48.2731 61.436 47.3936 58.9227 46.8071 59.1796C46.4397 59.3918 45.6651 60.7371 45.1821 60.6077C44.5319 60.33 44.9062 59.7056 44.0438 59.0604C43.4125 59.0983 44.3267 59.5503 43.4384 59.0017C44.8545 59.8988 42.9138 61.3458 43.1449 62.0289C42.7585 61.9254 42.6579 61.6568 42.8431 61.2233C42.1928 60.9456 42.1582 63.0068 42.1064 63.2C41.5866 63.3368 41.1853 63.1602 40.9025 62.6704C41.4113 62.7032 43.6177 59.878 43.0899 59.5295C42.5344 60.83 42.3759 58.717 42.0602 58.7359C42.9157 59.7934 40.9441 60.1968 40.4542 60.4797C40.7957 60.3641 40.4334 61.7164 40.5041 61.8389C40.5369 61.3301 41.3166 61.1249 40.7629 60.873C40.9262 60.7787 41.1217 60.6931 41.3494 60.616C41.4252 61.8787 40.6524 61.6716 40.078 62.6565C40.0056 62.154 39.8515 61.6986 39.6158 61.2903C39.5123 61.6767 39.3168 61.7623 39.0293 61.5473C39.1587 61.0643 39.4554 60.7297 38.6638 60.207C38.3929 60.445 38.3652 62.094 37.0716 61.1262C37.351 60.856 37.5661 60.5686 37.7168 60.2638C37.6225 60.1005 37.4874 59.9608 37.3115 59.8446C36.963 60.3724 35.6328 63.0183 35.1429 63.3012C34.5823 63.4615 34.5065 62.1989 33.8096 63.2545C34.0097 62.894 33.5993 61.3346 33.0766 62.1263C32.8178 63.0923 33.4043 62.8353 31.7294 62.9042C34.2445 60.4722 29.1006 63.4421 29.951 63.3594C26.4977 63.8834 22.7874 63.821 19.2634 64.2226C13.1364 65.0656 7.15091 66.1535 0.960193 66.4617C4.71393 62.4982 12.8578 55.6734 14.3053 51.8167ZM60.5774 55.3119C60.5601 55.3763 60.5515 55.4085 60.5515 55.4085C60.5688 55.3441 60.5774 55.3119 60.5774 55.3119ZM55.9959 56.5689C56.0776 56.5218 56.1184 56.4982 56.1184 56.4982C56.054 56.481 56.0132 56.5045 55.9959 56.5689ZM46.9611 54.3551C46.8967 54.3378 46.8645 54.3292 46.8645 54.3292C46.5678 54.6638 46.4194 54.8311 46.9611 54.3551ZM68.6668 40.1903C68.5851 40.2374 68.5121 40.2524 68.4477 40.2351C68.5294 40.188 68.6024 40.173 68.6668 40.1903ZM96.0825 39.8753C96.0181 39.858 96.0181 39.858 96.0825 39.8753ZM197.535 79.6897C197.517 79.7541 197.509 79.7863 197.509 79.7863C197.573 79.8035 197.582 79.7713 197.535 79.6897ZM218.856 101.346C218.856 101.346 218.824 101.337 218.76 101.32C218.76 101.32 218.792 101.329 218.856 101.346ZM206.142 84.2735C206.27 84.308 206.335 84.3253 206.335 84.3253C206.223 84.2263 206.159 84.2091 206.142 84.2735ZM193.451 68.6568C193.164 68.4417 192.842 68.3555 192.485 68.398C192.749 68.5722 193.039 68.6499 193.451 68.6568ZM150.933 39.5609C151.126 39.6126 151.205 39.7029 151.171 39.8317C151.059 39.7328 150.98 39.6425 150.933 39.5609ZM118.46 34.7939C118.413 34.7122 118.389 34.6714 118.389 34.6714C118.372 34.7358 118.396 34.7766 118.46 34.7939ZM110.764 33.7669C110.699 33.7497 110.708 33.7175 110.79 33.6703C110.79 33.6703 110.781 33.7025 110.764 33.7669ZM93.0614 29.1271C93.1258 29.1444 93.158 29.153 93.158 29.153C93.0936 29.1357 93.0614 29.1271 93.0614 29.1271ZM46.542 33.1232C46.3488 33.0714 46.1815 32.9231 46.1626 32.6074C46.2333 32.7299 46.3747 32.9748 46.542 33.1232ZM30.6245 33.4133C30.7188 33.5766 30.8539 33.7163 31.0298 33.8325C31.0126 33.8969 31.004 33.9291 31.004 33.9291C30.828 33.8129 30.7016 33.641 30.6245 33.4133ZM27.0603 40.5334C27.1247 40.5507 27.1247 40.5507 27.0603 40.5334ZM22.8203 41.675C22.8847 41.6922 22.9083 41.733 22.8911 41.7974C22.8911 41.7974 22.8675 41.7566 22.8203 41.675ZM54.4587 59.9876L54.5036 60.2066C54.7296 59.7495 54.5812 59.9169 54.4587 59.9876ZM50.3432 59.506C50.4656 59.4352 50.5881 59.3645 50.3432 59.506ZM50.3432 59.506C49.9965 58.4813 48.3267 59.6904 49.5566 60.1234C49.5824 60.0268 50.0982 59.6474 50.3432 59.506ZM201.477 84.6802L201.522 84.8992C202.154 84.8613 201.838 84.8803 201.477 84.6802ZM193.956 77.5919C194.956 75.7894 195.782 80.0483 196.17 78.5994C196.196 78.5028 194.099 76.2844 193.88 76.3292C193.905 76.7501 193.93 77.171 193.956 77.5919ZM27.9841 49.0632C28.3774 48.7544 28.0428 48.4577 27.8048 48.1869C27.3586 47.7913 27.4184 48.0834 27.9841 49.0632ZM25.1482 50.3739C25.1954 50.4555 25.2189 50.4963 25.2189 50.4963C25.3414 50.4256 25.3414 50.4256 25.1482 50.3739ZM23.3818 51.557C22.6562 51.4316 22.4026 51.6052 22.6211 52.0779C22.8833 51.872 23.1369 51.6984 23.3818 51.557ZM20.7461 52.5072C21.1371 52.3359 21.5367 52.1324 21.9449 51.8967C21.5068 51.9863 21.1072 52.1898 20.7461 52.5072ZM22.3863 54.4996C22.3863 54.4996 22.3541 54.491 22.2897 54.4737C22.2897 54.4737 22.3219 54.4823 22.3863 54.4996ZM27.0056 53.8739C26.7136 53.9336 26.4278 54.0986 26.1483 54.3688C26.4749 54.1803 26.7607 54.0153 27.0056 53.8739ZM22.6419 50.8411C23.5302 51.3897 23.7372 50.617 23.789 50.4238C23.321 50.3674 22.9386 50.5065 22.6419 50.8411Z" fill="#100F12"/>
<path d="M67.4248 60.6666C67.6818 61.2531 67.63 61.4462 67.8163 61.9103C68.3234 61.563 68.6224 61.091 68.7133 60.4942C68.3051 60.7299 67.8756 60.7873 67.4248 60.6666Z" fill="#100F12"/>
<path d="M62.7043 54.3289L63.1096 54.748C63.3097 54.3875 62.8596 53.7493 62.7043 54.3289Z" fill="#100F12"/>
<path d="M63.4885 61.0612C63.7335 60.9198 63.7455 61.6477 64.0492 60.9009C63.7962 60.557 63.6093 60.6105 63.4885 61.0612Z" fill="#100F12"/>
<path d="M60.8362 54.3459C60.9846 54.1786 61.3381 54.791 61.4486 53.9924C61.2415 54.7651 61.0174 53.6698 60.8362 54.3459Z" fill="#100F12"/>
<path d="M60.8149 61.3801C60.8269 62.108 61.1047 61.4578 61.4393 61.7545C61.1495 61.6768 60.9443 60.8971 60.8149 61.3801Z" fill="#100F12"/>
<path d="M59.5787 55.5619C59.1969 55.1835 59.0515 54.6959 59.1424 54.0991C58.7123 54.6741 58.5483 55.2858 58.6506 55.9344C58.7611 55.1358 59.4562 55.6326 58.8179 56.0827C59.0801 55.8769 59.3337 55.7033 59.5787 55.5619Z" fill="#100F12"/>
<path d="M60.2353 61.2248C59.2505 60.6503 61.0201 62.1598 60.6078 62.1528C60.7286 61.7021 60.6045 61.3927 60.2353 61.2248Z" fill="#100F12"/>
<path d="M57.583 54.5095C58.0384 54.3555 58.3995 54.0381 58.6663 53.5575C57.6141 53.6206 57.253 53.938 57.583 54.5095Z" fill="#100F12"/>
<path d="M59.0194 59.9673C58.9975 60.3065 58.9521 60.6049 58.883 60.8625C59.2435 61.0626 59.2643 59.8258 59.0194 59.9673Z" fill="#100F12"/>
<path d="M57.3496 61.1763C57.3921 61.5328 57.4754 61.8657 57.5996 62.175C58.7985 61.5645 57.015 60.8796 57.3496 61.1763Z" fill="#100F12"/>
<path d="M56.4992 61.259C56.9184 60.8537 57.2151 60.5191 57.3445 60.0361C57.0949 60.4524 56.8132 60.86 56.4992 61.259Z" fill="#100F12"/>
<path d="M49.8607 53.5791C49.7572 53.9655 50.1366 54.4813 50.0469 54.0432C50.1246 53.7534 49.6486 53.2117 49.8607 53.5791Z" fill="#100F12"/>
<path d="M49.8514 61.3412C50.1929 61.2257 50.9657 61.4327 50.9019 60.898C50.7605 60.6531 50.1222 61.1032 49.8514 61.3412Z" fill="#100F12"/>
<path d="M38.9119 62.7581C39.2339 62.8444 39.4144 62.6857 39.4536 62.2821C37.5388 63.6326 38.905 63.1704 38.9119 62.7581Z" fill="#100F12"/>
<path d="M36.3677 62.5941C36.5419 62.3302 36.7092 62.4785 36.5937 62.137C36.5489 61.9179 36.3229 62.375 36.3677 62.5941Z" fill="#100F12"/>
<path d="M24.6575 40.6143C25.0697 40.6212 24.749 39.5 25.1474 40.3314C25.0232 40.0221 24.9312 39.7214 24.8714 39.4293C24.6391 39.7812 24.5678 40.1762 24.6575 40.6143Z" fill="#100F12"/>
<path d="M31.5128 33.9619C31.8003 34.177 31.9739 34.4306 32.0337 34.7226C32.0217 33.9947 32.0804 33.3893 32.1132 32.8804C32.0614 33.0736 31.7319 33.9171 31.5128 33.9619Z" fill="#100F12"/>
<path d="M51.3176 20.3231C51.4849 20.4714 51.6522 20.6198 51.942 20.6974C51.949 20.2852 51.4142 20.3489 51.3176 20.3231Z" fill="#100F12"/>
</g>
<defs>
<clipPath id="clip0_28_35730">
<rect width="229" height="69" fill="white" transform="translate(222.169 126.459) rotate(-165)"/>
</clipPath>
</defs>
</svg>
