<svg width="229" height="69" viewBox="0 0 229 69" fill="none" xmlns="http://www.w3.org/2000/svg">
<g clip-path="url(#clip0_27_35131)">
<path d="M0.599943 11.8002C-0.200057 12.0002 0.499943 12.0002 0.899943 12.3002L0.599943 11.8002Z" fill="#100F12"/>
<path d="M0.899943 12.3002L0.999943 12.7002C1.09994 12.5002 0.999943 12.4002 0.899943 12.3002Z" fill="#100F12"/>
<path d="M0.799943 14.1002C0.999943 15.1002 2.09994 16.0002 2.89994 15.4002C1.89994 15.2002 1.89994 13.9002 0.799943 14.1002Z" fill="#100F12"/>
<path d="M2.49994 13.4002C2.69994 13.5002 2.99994 14.0002 3.59994 14.1002C3.26661 13.8335 2.89994 13.6002 2.49994 13.4002Z" fill="#100F12"/>
<path d="M4.59994 17.8002C4.49994 17.0002 4.99994 16.9002 4.99994 16.3002C4.19994 15.5002 3.69994 17.0002 2.89994 15.9002C2.79994 16.1002 3.89994 18.4002 3.89994 18.4002C4.03328 18.0669 4.26661 17.8669 4.59994 17.8002Z" fill="#100F12"/>
<path d="M48.5999 43.5002C48.6666 43.5002 48.6999 43.5335 48.6999 43.6002C48.6999 43.5002 48.6999 43.4002 48.5999 43.5002Z" fill="#100F12"/>
<path d="M40.0999 41.1002C39.9666 40.9002 39.8666 40.7335 39.7999 40.6002C39.7999 40.8002 39.8999 41.0002 40.0999 41.1002Z" fill="#100F12"/>
<path d="M76.2999 51.3002C76.5666 51.3669 76.7999 51.3669 76.9999 51.3002C76.5999 51.2002 76.3999 51.2002 76.2999 51.3002Z" fill="#100F12"/>
<path d="M57.7999 45.4002C57.9333 45.5335 58.0666 45.6002 58.1999 45.6002C58.0666 45.4669 57.9333 45.4002 57.7999 45.4002Z" fill="#100F12"/>
<path d="M13.3999 27.8002C13.4999 28.1002 13.6999 28.2002 13.8999 28.2002C13.8999 28.0002 13.6999 27.8002 13.3999 27.8002Z" fill="#100F12"/>
<path d="M19.7999 33.2002C19.6999 33.3002 19.6999 33.3002 19.7999 33.2002Z" fill="#100F12"/>
<path d="M13.8999 28.2002C13.7666 28.5335 13.7333 28.9002 13.7999 29.3002C13.7999 29.3002 15.1999 29.2002 15.6999 29.5002C16.1999 28.3002 14.4999 28.3002 13.8999 28.2002Z" fill="#100F12"/>
<path d="M48.4999 43.7002C48.4999 43.4002 48.1999 43.4002 48.4999 43.7002Z" fill="#100F12"/>
<path d="M44.1999 42.7002C44.3333 42.7669 44.4666 42.8335 44.5999 42.9002C44.4999 42.8002 44.3999 42.7002 44.1999 42.7002Z" fill="#100F12"/>
<path d="M30.6999 34.1002C30.6999 34.1669 30.6999 34.2002 30.6999 34.2002C30.7999 34.1002 30.6999 34.1002 30.6999 34.1002Z" fill="#100F12"/>
<path d="M44.5999 42.9002C44.5999 43.0002 44.6999 43.1002 44.8999 43.1002C44.7666 43.0335 44.6666 42.9669 44.5999 42.9002Z" fill="#100F12"/>
<path d="M191.2 43.2002C190.933 43.3335 190.633 43.3669 190.3 43.3002C190.2 44.0002 191.5 43.5002 191.7 43.1002C190.4 42.4002 191.3 42.9002 191.2 43.2002Z" fill="#100F12"/>
<path d="M129.9 63.7002C129.9 63.7002 129.7 64.2002 130.4 64.3002C130.267 63.5669 130.333 62.8002 130.6 62.0002C129.6 62.7002 130.6 62.4002 129.9 63.7002Z" fill="#100F12"/>
<path d="M181.3 48.7002C181.167 48.7669 181.033 48.8002 180.9 48.8002C181.2 48.9002 181.3 48.8002 181.3 48.7002Z" fill="#100F12"/>
<path d="M72.4999 61.9002C72.3666 61.9669 72.1999 62.0002 71.9999 62.0002C72.2999 62.1002 72.3999 62.0002 72.4999 61.9002Z" fill="#100F12"/>
<path d="M145.5 50.8002C145.5 51.7002 145.7 50.8002 146.3 51.1002C146.433 50.9002 146.533 50.7002 146.6 50.5002C146.2 50.5669 145.833 50.6669 145.5 50.8002Z" fill="#100F12"/>
<path d="M126.9 62.1002C126.2 62.2002 125.5 62.2002 124.9 62.2002C125.3 62.4002 126.7 62.5002 126.9 62.1002Z" fill="#100F12"/>
<path d="M8.29994 16.8002C8.59994 16.1002 7.59994 15.9002 6.19994 16.5002C7.13328 16.8335 7.89994 17.3669 8.49994 18.1002C8.43328 17.7002 8.36661 17.2669 8.29994 16.8002Z" fill="#100F12"/>
<path d="M5.19994 21.3002C5.39994 20.9002 5.89994 21.1002 5.39994 20.4002C5.33328 20.7335 5.26661 21.0335 5.19994 21.3002Z" fill="#100F12"/>
<path d="M13.3999 30.8002L12.8999 29.8002C12.3999 29.9002 12.8999 31.2002 13.3999 30.8002Z" fill="#100F12"/>
<path d="M15.1999 23.0002C14.5999 22.8002 15.0999 22.1002 14.1999 22.3002C14.2666 22.9002 14.5999 23.1335 15.1999 23.0002Z" fill="#100F12"/>
<path d="M15.4999 32.6002C16.2999 32.2002 16.0999 33.6002 16.7999 33.1002C16.3999 33.1002 16.0999 32.0002 15.4999 32.6002Z" fill="#100F12"/>
<path d="M19.9999 26.1002C20.2999 25.3002 19.3999 25.5002 18.9999 25.0002C19.3999 25.3002 19.4999 26.4002 19.9999 26.1002Z" fill="#100F12"/>
<path d="M21.2999 34.3002C20.6999 34.9002 19.6999 33.5002 20.9999 33.9002C20.4666 33.7669 19.9333 33.6002 19.3999 33.4002C19.9333 34.0669 20.0666 34.7669 19.7999 35.5002C20.6666 35.5002 21.1666 35.1002 21.2999 34.3002Z" fill="#100F12"/>
<path d="M21.1999 27.0002C21.1333 26.4002 20.9333 25.9002 20.5999 25.5002C20.2999 26.0002 20.1999 26.9002 20.1999 27.2002C20.2999 27.7002 20.7999 26.6002 21.1999 27.0002Z" fill="#100F12"/>
<path d="M20.1999 36.5002C20.9999 37.0335 21.8666 37.3002 22.7999 37.3002C22.3999 36.8002 21.1999 36.1002 20.1999 36.5002Z" fill="#100F12"/>
<path d="M22.3999 29.6002C22.6666 29.3335 22.8999 29.1002 23.0999 28.9002C23.2999 29.1002 21.5999 28.8002 22.0999 28.7002C22.7999 29.1002 21.7999 29.4002 22.3999 29.6002Z" fill="#100F12"/>
<path d="M25.9999 29.2002C24.9999 28.9002 25.4999 29.7002 24.9999 30.2002C25.3333 30.2669 25.6666 30.3669 25.9999 30.5002C25.9999 30.0335 25.9999 29.6002 25.9999 29.2002Z" fill="#100F12"/>
<path d="M25.4999 31.6002C26.1666 31.5335 26.8333 31.4335 27.4999 31.3002C26.5999 31.3002 25.9999 31.5002 25.4999 31.6002Z" fill="#100F12"/>
<path d="M36.5999 45.7002C36.2999 45.9002 37.0999 46.9002 36.6999 46.2002C36.9999 46.0002 36.5999 45.1002 36.5999 45.7002Z" fill="#100F12"/>
<path d="M39.8999 38.5002C39.1999 38.3002 37.8999 37.3002 37.6999 37.8002C37.7999 38.3002 39.2999 38.4002 39.8999 38.5002Z" fill="#100F12"/>
<path d="M62.4999 46.7002C62.4999 46.7002 62.5666 46.6669 62.6999 46.6002C62.6333 46.6669 62.5666 46.7002 62.4999 46.7002Z" fill="#100F12"/>
<path d="M62.4999 46.7002C61.9999 46.6002 60.8999 46.3002 60.4999 46.8002C61.1666 46.7335 61.8333 46.7002 62.4999 46.7002Z" fill="#100F12"/>
<path d="M66.8999 48.7002C66.4999 48.9002 66.1999 48.6002 66.1999 49.0002C66.2999 49.3002 66.9999 49.0002 66.8999 48.7002Z" fill="#100F12"/>
<path d="M101.9 67.6002C102.5 67.9002 102.8 67.7002 102.7 67.1002C102 67.1002 102.4 67.5002 101.9 67.6002Z" fill="#100F12"/>
<path d="M107 68.3002C107.3 68.2002 107.5 68.2002 107.3 68.1002C107.3 68.2002 107.2 68.3002 107 68.3002Z" fill="#100F12"/>
<path d="M107.8 68.7002C107.9 68.0002 108.9 68.1002 107.7 67.2002C107.3 67.5002 108.3 68.1002 107.8 68.7002Z" fill="#100F12"/>
<path d="M112 67.1002C112.9 67.7002 111.3 67.7002 111.1 67.9002C113.8 69.0002 113.4 65.9002 115 65.5002C113.1 65.1002 113.7 67.6002 112 67.1002Z" fill="#100F12"/>
<path d="M111.8 66.3002C111.5 66.2002 111 65.5002 110.7 66.0002C110.6 66.6002 111.5 66.6002 111.8 66.3002Z" fill="#100F12"/>
<path d="M116.8 68.1002C117 67.8002 117.9 67.8002 117.3 67.4002L116.8 68.1002Z" fill="#100F12"/>
<path d="M120.5 67.1002C120.5 67.1002 121.6 67.8002 120.6 68.0002C121.1 68.1002 121.7 66.6002 120.5 67.1002Z" fill="#100F12"/>
<path d="M127.2 65.4002C127.533 65.2669 127.867 65.1335 128.2 65.0002C128 64.9002 126.9 64.9002 127.2 65.4002Z" fill="#100F12"/>
<path d="M125.6 61.4002C126.4 61.4002 126.3 61.6002 127.2 61.4002C126.8 60.6002 126.3 61.6002 125.6 61.4002Z" fill="#100F12"/>
<path d="M128.2 66.2002C128.4 66.7002 129.2 66.5002 129.2 66.0002C129 66.4002 128.5 66.2002 128.2 66.2002Z" fill="#100F12"/>
<path d="M132.6 63.9002C131.1 64.6002 130.2 65.4002 129.6 66.7002C130.7 66.8002 130.1 65.5002 130.9 65.5002C133.3 67.3002 132 65.3002 132.6 63.9002Z" fill="#100F12"/>
<path d="M128.1 62.9002C128.7 62.8002 129.2 62.0002 129 62.1002C128.667 62.3669 128.367 62.6335 128.1 62.9002Z" fill="#100F12"/>
<path d="M138 63.2002C137.733 63.3335 137.467 63.5002 137.2 63.7002C138.6 63.2335 138.867 63.0669 138 63.2002Z" fill="#100F12"/>
<path d="M138.1 63.9002C138.3 63.8002 138.6 64.1002 139.1 63.4002C138.767 63.5335 138.433 63.7002 138.1 63.9002Z" fill="#100F12"/>
<path d="M138.7 64.4002C138.967 64.2669 139.267 64.1002 139.6 63.9002C139.2 64.0002 139 64.2002 138.7 64.4002Z" fill="#100F12"/>
<path d="M141.1 63.6002C141.5 63.2669 141.933 63.2335 142.4 63.5002C142.267 63.3669 142.133 63.2335 142 63.1002C141.533 62.9669 141.233 63.1335 141.1 63.6002Z" fill="#100F12"/>
<path d="M148.3 49.5002C147.7 49.4335 147.667 49.7002 148.2 50.3002C148.2 50.0335 148.233 49.7669 148.3 49.5002Z" fill="#100F12"/>
<path d="M149.8 50.0002C149.3 50.7002 150.2 49.4002 150.3 49.2002C149.633 49.5335 149.033 49.9669 148.5 50.5002C148.967 50.3669 149.4 50.2002 149.8 50.0002Z" fill="#100F12"/>
<path d="M169.7 43.8002C169.7 43.5335 169.633 43.2669 169.5 43.0002C169.167 43.2669 168.833 43.5335 168.5 43.8002C167.9 44.0002 168.1 44.1002 167.2 45.3002C167.933 44.7002 168.767 44.2002 169.7 43.8002Z" fill="#100F12"/>
<path d="M162.3 25.4002L162 25.3002C161.9 26.0002 162.1 25.5002 162.3 25.4002Z" fill="#100F12"/>
<path d="M162.3 25.4002L162.5 25.5002C162.433 25.3669 162.367 25.3335 162.3 25.4002Z" fill="#100F12"/>
<path d="M164 25.8002C163.7 26.3002 163.1 25.6002 163 26.5002C163.4 27.0002 164 26.7002 164 25.8002Z" fill="#100F12"/>
<path d="M165.2 26.9002C165.2 27.0002 165.2 25.3002 164.9 24.9002C163.4 25.0002 165.2 26.9002 165.2 26.9002Z" fill="#100F12"/>
<path d="M187.9 17.6002C187.967 17.6002 188 17.6002 188 17.6002C188 17.6002 187.9 17.5002 187.9 17.6002Z" fill="#100F12"/>
<path d="M184.4 20.1002C184.267 20.0335 184.167 19.9669 184.1 19.9002C184.167 20.0335 184.267 20.1002 184.4 20.1002Z" fill="#100F12"/>
<path d="M200.4 12.1002C200.6 12.0335 200.767 11.9335 200.9 11.8002C200.6 11.9002 200.5 12.0002 200.4 12.1002Z" fill="#100F12"/>
<path d="M191.6 14.7002C191.733 14.7669 191.833 14.8002 191.9 14.8002C191.767 14.7335 191.667 14.7002 191.6 14.7002Z" fill="#100F12"/>
<path d="M171.6 26.5002C171.7 26.6002 171.8 26.5002 171.8 26.4002C171.7 26.3002 171.6 26.2002 171.6 26.5002Z" fill="#100F12"/>
<path d="M171.8 26.4002C171.933 26.6669 172.067 26.9335 172.2 27.2002C172.2 27.2002 172.7 25.9002 172.7 25.8002C172 25.7002 172.2 25.7002 171.8 26.4002Z" fill="#100F12"/>
<path d="M188 17.8002C187.9 17.6002 187.8 17.7002 188 17.8002Z" fill="#100F12"/>
<path d="M186.2 19.2002C186.267 19.2002 186.333 19.2002 186.4 19.2002C186.4 19.2002 186.3 19.1002 186.2 19.2002Z" fill="#100F12"/>
<path d="M178.9 20.2002C178.9 20.2002 178.9 20.2335 178.9 20.3002C178.9 20.1002 178.9 20.1002 178.9 20.2002Z" fill="#100F12"/>
<path d="M186.6 19.2002C186.533 19.2002 186.467 19.2002 186.4 19.2002C186.5 19.2002 186.6 19.3002 186.6 19.2002Z" fill="#100F12"/>
<path d="M194.9 44.5002C195.5 44.3669 195.5 44.2335 194.9 44.1002C194.833 44.4335 194.7 44.4335 194.5 44.1002C194.5 44.1002 195.7 45.5002 194.9 44.5002Z" fill="#100F12"/>
<path d="M197.4 40.1002C197.467 40.0335 197.5 40.0002 197.5 40.0002C197.4 40.0002 197.3 40.0002 197.4 40.1002Z" fill="#100F12"/>
<path d="M202.9 22.2002C202.9 22.3335 202.867 22.4335 202.8 22.5002C202.933 22.4335 202.967 22.3335 202.9 22.2002Z" fill="#100F12"/>
<path d="M214 30.7002C213.1 30.1002 214.2 30.8002 213.5 30.8002C213.7 31.3002 213.8 31.4002 214 30.7002Z" fill="#100F12"/>
<path fill-rule="evenodd" clip-rule="evenodd" d="M220.1 18.3002C219.367 18.5002 219.033 18.9002 219.1 19.5002C219.367 19.5669 219.633 19.6669 219.9 19.8002C220.1 20.1002 217.5 25.6002 217.2 26.1002C216.8 26.7002 214.4 29.8002 214.4 30.2002C214.2 30.0002 213.967 29.8002 213.7 29.6002C213.4 29.7002 212.7 32.2002 212.5 32.0002C212.233 31.5335 211.833 31.3335 211.3 31.4002C211.2 31.6002 211.8 32.8002 210.7 32.5002C210.9 32.6002 214 33.8002 212.9 34.2002C212.767 34.0669 212.6 33.9335 212.4 33.8002C211.6 34.7002 211.6 35.8002 210.3 36.2002C210.233 36.6669 210.467 37.0002 211 37.2002C210.1 37.4002 210.3 40.2002 209 39.0002C209 39.7002 209 39.3002 208.6 39.9002C206.9 38.7002 206.4 41.5002 205.8 41.1002C205.733 41.5669 205.9 41.9335 206.3 42.2002C206.7 41.7002 206.3 41.6002 206.4 41.1002C206.533 41.2335 206.633 41.2335 206.7 41.1002C206.3 42.1002 207.5 42.1002 206.5 44.1002C205.9 45.2002 204.2 47.3002 203.5 48.2002C202.6 49.5002 201.1 49.9002 202.3 51.4002C201.1 51.7002 201.3 54.7002 200.4 54.5002C200.4 54.1669 200.233 54.0002 199.9 54.0002C201 55.1002 197.9 54.3002 199.1 55.6002C198.633 55.8002 198.267 55.7002 198 55.3002C197.8 57.7002 196.5 59.2002 194.3 60.3002C193.567 60.1669 192.833 59.9669 192.1 59.7002C192.233 60.3002 191.967 60.6002 191.3 60.6002C191.167 60.4669 191.033 60.3335 190.9 60.2002C191.5 60.1002 192.2 59.0002 192.7 58.8002C193.1 58.5002 191.9 57.2002 191.9 56.9002C192.433 56.9669 192.9 57.1669 193.3 57.5002C193.6 57.0002 191.9 56.4002 191.9 56.0002C191.9 55.8002 193.8 56.6002 193.8 56.6002C194.3 55.7002 192 55.9002 192 54.9002C192.467 55.2335 192.967 55.3335 193.5 55.2002C192.967 54.5335 192.533 53.8002 192.2 53.0002C192.2 53.0002 193.9 54.2002 194 54.2002C193 53.4002 193.8 52.3002 192.8 51.5002C193.133 51.7002 193.533 51.8335 194 51.9002C193 50.9002 194.1 51.6002 193.3 51.1002C194.3 50.8002 193 48.1002 193.5 47.6002C193.7 47.8002 196.5 49.4002 196.7 49.4002C196.6 49.0002 195.5 46.4002 194.8 47.5002C194.8 47.4002 194.8 45.8002 194.3 45.1002C194.7 45.2002 194.9 45.2002 194.6 44.6002C195.5 45.0002 194.6 45.3002 195.6 45.8002C196.7 44.8002 194.8 44.0002 195.1 43.2002C196.3 40.4002 195.9 43.5002 196.3 42.5002C196.5 42.0002 197.3 39.5002 197.9 40.5002C198.2 39.2002 201 33.2002 202.7 34.3002C202.8 34.0002 201.9 33.6002 201.8 33.3002C199.8 34.8002 199.5 37.7002 197.3 38.7002C197.4 38.6002 195.5 35.7002 195.4 35.3002C195 36.4002 195.4 37.8002 194.1 38.4002C194.5 39.0002 194.967 39.0669 195.5 38.6002C195.1 39.2002 193 39.8002 193.1 40.8002C194.2 39.9002 193.8 43.1002 193 43.1002C192.867 42.7669 192.8 42.4335 192.8 42.1002C192.2 42.2335 191.833 42.5669 191.7 43.1002C191 42.0002 192.9 42.2002 192 41.0002C189.9 41.9002 189.8 44.4002 188 45.5002C186.7 46.3002 187 45.3002 185.5 46.0002C182.7 47.4002 181.6 48.4002 179.3 49.5002C178.1 50.1002 165.4 54.8002 164.5 54.4002C164.7 54.6002 164.9 54.8002 165.1 55.0002C165.1 55.7002 160.9 57.2002 159.9 57.4002C158.8 57.6002 157.7 57.1002 156.6 57.5002C155.5 57.8002 155.2 58.9002 153.7 59.3002C154.6 59.6002 153.2 60.0002 153 60.2002C152.933 59.6002 153.067 59.1002 153.4 58.7002C151.6 58.5002 152.1 61.9002 150.2 60.0002C150.6 59.9335 150.933 59.7669 151.2 59.5002C150.467 59.3002 149.767 59.4669 149.1 60.0002C149.3 60.2669 149.533 60.4669 149.8 60.6002C149.3 60.6002 147.1 61.3002 147 61.3002C146 61.6002 145.8 62.5002 144.9 62.6002C144.3 61.9002 145.4 61.1002 143.9 61.4002C142.3 61.7002 144.1 62.7002 142.8 63.3002C142.4 62.5002 142.567 61.8335 143.3 61.3002C142.367 61.1669 142.067 60.7002 142.4 59.9002C140.5 62.0002 135.4 62.2002 136.4 65.3002C136.067 65.4335 135.733 65.6002 135.4 65.8002C135 65.6002 135.9 63.8002 135.2 64.1002C134.4 64.5002 133.8 64.4002 134.9 65.7002C133.9 65.2002 133.9 66.6002 133.2 66.2002C134.5 65.7002 132.2 64.8002 133.9 64.5002C133.8 64.0002 134 64.1002 134.1 62.9002C133.3 63.1002 132.533 63.3335 131.8 63.6002C131.9 62.7002 133.1 63.3002 133.4 62.4002C132.8 62.2002 131.2 62.7002 130.8 62.0002C130.8 62.0002 132.9 61.9002 132.5 61.4002C132 60.8002 131.6 59.7002 130.6 60.3002C130 61.3002 131.3 61.0002 131.6 60.8002C131.667 61.0002 131.7 61.1669 131.7 61.3002C130.7 61.1002 128 62.8002 127.2 62.2002C127.533 62.0669 127.9 61.9002 128.3 61.7002C127.9 60.2002 123.9 60.3002 124.4 61.6002C124.6 61.5335 124.8 61.4669 125 61.4002C124.8 61.9335 124.467 62.0669 124 61.8002C124.2 62.1002 124 63.5002 125 63.8002C125.3 62.9002 126.6 62.2002 127.7 62.8002C127.7 64.2002 126.2 62.9002 125.3 64.1002C126.8 63.9002 124.6 66.5002 123.8 66.6002C124 66.2669 124.167 65.9002 124.3 65.5002C122.9 65.5002 123 66.7002 122.4 67.5002C121.6 67.4002 120.8 66.7002 119.8 66.7002C118.9 66.6002 119.1 67.6002 118.4 67.8002C118.667 67.0002 119.167 66.5002 119.9 66.3002C119.7 66.3002 119.7 66.2335 119.9 66.1002C119.3 65.7002 118.3 66.9002 117.9 66.5002C118.4 66.9002 122.2 62.6002 123.8 64.0002C123.933 63.2002 123.733 62.5002 123.2 61.9002C122.5 62.6002 116.2 65.8002 116.1 66.4002C116.1 65.8669 115.833 65.7335 115.3 66.0002C115.5 65.7335 115.7 65.5002 115.9 65.3002C114 61.7002 110.1 67.3002 108.2 66.9002C107.8 66.1002 109.6 66.1002 108.7 65.3002C106.6 65.2002 105.7 66.5002 105.7 68.2002C105.433 68.0669 105.167 67.9669 104.9 67.9002C105.167 67.7002 105.433 67.5335 105.7 67.4002C105.3 67.0002 104.8 66.8002 104.2 66.8002C104.333 66.6002 104.467 66.4002 104.6 66.2002C103.2 65.6002 101.5 66.8002 99.9999 67.4002C100.2 67.5335 100.433 67.6669 100.7 67.8002C100.367 67.7335 100.033 67.6335 99.6999 67.5002C98.9999 67.9002 100.3 68.4002 99.1999 68.5002C99.8999 67.6002 98.1999 67.5002 98.2999 66.6002C98.9666 66.9335 99.3999 66.8002 99.5999 66.2002C98.3999 66.1002 95.8999 63.7002 97.7999 67.9002C97.4999 68.2002 96.0999 64.9002 96.2999 64.5002C95.0333 65.1669 93.6999 65.5669 92.2999 65.7002C92.4333 65.5002 92.5666 65.3002 92.6999 65.1002C91.8999 65.5002 91.8999 64.7002 90.9999 65.1002C90.9333 65.1669 90.9333 65.2335 90.9999 65.3002C89.2999 64.6002 83.6999 64.5002 81.9999 64.2002C79.4999 63.7002 77.9999 63.3002 75.9999 61.9002C75.5999 62.3669 75.6999 62.6002 76.2999 62.6002C74.2999 63.4002 74.0999 61.5002 72.4999 61.9002C73.1999 61.3002 74.1999 61.6002 74.4999 60.6002C74.4999 60.6002 66.6999 61.8002 66.7999 59.6002C66.3999 59.4669 66.0999 59.6002 65.8999 60.0002C65.3666 59.4669 65.4666 59.0002 66.1999 58.6002C63.1999 58.1002 52.5999 57.2002 51.5999 53.0002C49.6999 54.6002 44.6999 49.7002 42.6999 48.4002C41.7999 48.5002 40.7999 48.8002 40.1999 48.2002C40.3999 47.8669 40.5999 47.5669 40.7999 47.3002C39.5333 47.3669 38.2333 47.3669 36.8999 47.3002C37.2333 47.1669 37.4333 46.9002 37.4999 46.5002C37.2333 46.4335 36.9666 46.3335 36.6999 46.2002C37.5999 46.2002 36.4999 45.8002 37.3999 45.7002C37.9999 44.6002 35.7999 43.8002 36.1999 44.7002C35.9999 44.3002 36.0999 44.0335 36.4999 43.9002C35.4999 42.7002 34.9999 44.5002 35.2999 45.2002C33.0999 41.1002 26.5999 42.6002 22.9999 37.8002C23.9999 37.8002 25.4999 39.2002 26.3999 39.0002C26.2666 38.9335 26.1333 38.8669 25.9999 38.8002C26.3333 38.9335 26.6999 38.9335 27.0999 38.8002C26.6999 38.5002 25.2999 37.5002 25.1999 37.4002C26.4999 38.0002 25.3999 36.8002 26.1999 36.6002C25.5999 36.4002 24.1999 35.3002 25.4999 37.2002C25.1999 37.3002 21.2999 35.5002 21.2999 35.5002C21.1999 35.4002 22.6999 35.3002 21.8999 34.4002C21.1999 33.5002 20.3999 32.5002 19.7999 31.5002C19.9333 32.1002 19.9333 32.6669 19.7999 33.2002C19.4666 32.9335 19.0666 32.8335 18.5999 32.9002C18.7999 32.9002 18.9999 32.8669 19.1999 32.8002C18.7333 32.3335 18.2333 32.2335 17.6999 32.5002C17.2999 31.8335 17.4666 31.5669 18.1999 31.7002C16.5999 30.0002 18.2999 31.4002 17.3999 29.6002C17.1999 29.9335 16.9999 30.3002 16.7999 30.7002C16.4999 30.1002 13.8999 26.7002 13.6999 26.4002C14.2999 27.1002 16.6999 27.0002 16.6999 25.7002C15.0999 25.5002 15.0999 26.2002 14.0999 26.1002C13.4999 25.9002 12.9666 26.0002 12.4999 26.4002C12.2999 25.7335 11.8666 25.3002 11.1999 25.1002C11.3999 24.8335 11.5666 24.5335 11.6999 24.2002C11.2999 24.0002 11.0999 24.0002 10.9999 24.0002C11.0666 23.9335 11.0999 23.8002 11.0999 23.6002C10.9999 23.2002 9.99994 23.3002 9.79994 23.4002C9.99994 23.1002 7.79994 21.5002 7.29994 21.4002C8.59994 21.1002 10.9999 22.6002 11.3999 22.1002C11.2999 19.8002 6.69994 20.8002 6.19994 20.1002C6.59994 19.8335 6.69994 19.5002 6.49994 19.1002C5.19994 19.1002 5.29994 19.9002 4.29994 18.4002C4.79994 18.4002 6.39994 16.7002 7.29994 17.8002C6.69994 17.6002 6.19994 17.7335 5.79994 18.2002C6.33328 18.8669 7.03328 19.2335 7.89994 19.3002C7.89994 18.2002 9.79994 18.5002 10.2999 18.0002C10.4999 18.4002 10.8333 18.7002 11.2999 18.9002C10.7999 20.3002 11.3999 18.9002 12.1999 20.6002C11.9999 20.8002 10.2999 20.0002 10.5999 20.9002C10.8999 20.6002 12.7999 22.9002 13.9999 23.0002C13.5333 23.0669 13.0666 23.0669 12.5999 23.0002C13.2999 23.3002 12.8999 25.0002 13.9999 24.8002C13.9333 24.6002 13.8666 24.4002 13.7999 24.2002C14.1333 24.6669 14.5666 24.9002 15.0999 24.9002C15.6333 24.5002 15.6999 24.0335 15.2999 23.5002C16.0999 24.3002 18.2999 27.0002 18.6999 26.3002C18.2333 26.0335 18.1666 25.7335 18.4999 25.4002C18.0999 26.2002 19.0999 25.4002 19.2999 25.8002C17.4999 25.9002 20.1999 27.9002 20.4999 28.0002C20.6999 28.9002 20.2999 28.0002 20.9999 29.0002C20.3333 29.5335 20.0999 30.2002 20.2999 31.0002C21.2999 30.8002 22.1999 29.5002 23.2999 30.0002C23.0333 30.2002 22.7666 30.4002 22.4999 30.6002C23.4999 32.8002 24.0999 29.3002 24.2999 28.7002C24.3999 28.6002 24.6999 32.3002 25.2999 32.7002C27.1999 33.8002 26.8999 31.9002 27.6999 31.5002C28.2999 33.1002 32.6999 35.6002 32.7999 35.7002C33.0999 35.9002 35.0999 37.5002 33.9999 37.3002C34.4999 37.9002 36.4999 37.6002 35.4999 38.4002C35.7999 38.8002 35.6999 38.4002 35.8999 38.7002C36.0999 38.7002 37.3999 39.2002 37.3999 39.2002C37.3333 39.0002 37.2666 38.8002 37.1999 38.6002C37.7999 38.9002 39.0999 39.7002 39.6999 39.7002C40.4999 39.8002 41.8999 39.4002 42.8999 39.8002C41.5999 43.3002 46.3999 43.0002 48.3999 43.7002C48.8999 43.9002 51.2999 47.5002 51.9999 46.7002C51.5999 45.9669 51.0999 45.2669 50.4999 44.6002C51.0999 44.8002 53.2999 44.8002 53.0999 44.1002C53.6333 44.3002 53.7333 44.6335 53.3999 45.1002C55.1999 46.4002 54.9999 42.6002 57.7999 45.4002C57.0999 45.0002 52.2999 45.7002 52.2999 45.8002C52.1999 45.9002 53.6999 48.2002 53.9999 48.3002C53.6999 47.8002 55.0999 47.5002 54.0999 47.3002C55.4999 47.2002 56.4999 47.8002 57.8999 47.9002C56.6999 47.6002 58.6999 47.0002 58.1999 46.4002C57.9999 47.3002 56.5999 47.1002 56.0999 47.0002C56.2999 46.3002 57.5999 47.0002 56.7999 45.9002C57.9999 45.8002 60.6999 46.8002 61.0999 47.8002C60.8333 47.8669 60.5666 47.9335 60.2999 48.0002C60.6999 48.4669 61.0333 48.9335 61.2999 49.4002C62.2999 49.4002 62.9999 48.3002 64.7999 49.7002C63.6999 49.3002 64.2999 50.6002 63.2999 50.2002C64.7999 51.9002 66.9999 49.2002 68.5999 49.1002C69.8999 48.9002 70.7999 50.3002 72.1999 49.8002C71.6999 50.1002 72.2999 51.7002 73.3999 51.3002C73.1999 51.0335 72.9999 50.7335 72.7999 50.4002C74.0666 50.4002 75.2333 50.7002 76.2999 51.3002C76.2333 51.7002 75.9999 51.9669 75.5999 52.1002C75.1999 53.7002 77.4999 52.1002 77.2999 52.1002C78.4999 52.3002 81.2999 52.2002 83.0999 52.6002C88.0999 53.6002 93.0999 54.1002 98.0999 54.6002C106.3 55.2002 112.6 55.3002 120.9 55.1002C127.2 55.0002 130.2 54.5002 135.3 52.5002C137.2 51.8002 137.8 51.6002 139.7 51.6002C140.6 51.6002 143.9 51.2002 144.2 51.0002C144.133 51.4002 144.033 51.7669 143.9 52.1002C145.1 52.2002 146.3 51.4002 147.4 51.0002C147.333 51.1335 147.267 51.2669 147.2 51.4002C148.067 51.6002 148.8 51.3335 149.4 50.6002C149 51.2669 149.133 51.7669 149.8 52.1002C150 51.7002 151.7 50.5002 152.3 51.3002C152.2 51.0002 150 47.7002 152.4 48.1002C152.4 48.3669 152.433 48.6002 152.5 48.8002C153.233 48.6669 153.767 48.2669 154.1 47.6002C155.3 47.6002 158.3 47.5002 159.1 47.2002C158.9 47.3002 165 42.7002 164.8 45.0002C165.7 44.5002 166.2 44.3002 166.5 43.4002C166.767 43.4669 167.033 43.5669 167.3 43.7002C166.9 44.2335 166.533 44.8002 166.2 45.4002C167.3 45.3002 171.8 43.5002 171.8 43.9002C172.467 43.5669 172.8 43.0669 172.8 42.4002C172.1 42.6002 171.7 43.1002 171.1 43.7002C171.1 43.5002 171 43.4335 170.8 43.5002C172.1 42.7002 171 42.1002 171.4 41.7002C173.3 39.8002 176.8 39.5002 179.2 38.6002C182.3 37.5002 183.5 35.5002 186 34.0002C186.4 33.8002 189.2 33.0002 188.9 33.1002C190.4 32.2002 195.4 26.0002 196.8 26.6002C196.733 26.8002 196.667 27.0002 196.6 27.2002C197.1 26.6002 201.6 24.8002 200.9 25.7002C202 24.4002 203.4 23.4002 204.5 21.8002C203.7 22.1002 203.9 21.9002 203.5 21.2002C203.5 21.6002 203.8 22.0002 203.5 22.4002C203.3 21.7002 203.2 21.7002 202.9 22.2002C202.9 21.9002 203.3 20.1002 202.7 20.2002C202.4 22.1002 201.2 23.2002 200.1 22.5002C199.833 22.6335 199.767 22.8669 199.9 23.2002C199.5 22.8669 199.367 22.4335 199.5 21.9002C199.033 22.6335 198.467 23.2669 197.8 23.8002C196 22.3002 194.5 25.6002 192.5 23.6002C192.5 24.0002 192.467 24.4002 192.4 24.8002C191 24.3335 189.533 24.1669 188 24.3002C187.7 24.8002 187.3 25.5002 187.1 25.4002C187.033 25.0669 186.967 24.7335 186.9 24.4002C186.567 25.0669 186.2 25.7669 185.8 26.5002C185.3 25.7002 184.7 25.0002 184.5 24.9002C184.5 24.7002 184.1 23.6002 184 24.2002C183.8 24.7002 184.1 25.4002 184.5 25.8002C183.967 25.5335 183.5 25.1669 183.1 24.7002C183.1 26.4002 180 27.5002 178 27.4002C178.467 26.9335 178.967 26.5335 179.5 26.2002C179.5 26.3002 179.5 25.6002 179.2 25.2002C178.933 25.3335 178.833 25.5669 178.9 25.9002C178.8 25.7002 178.5 25.0002 178.5 24.6002C178.3 24.8002 177.8 25.0002 178.5 25.4002C178.167 25.6002 177.967 25.9335 177.9 26.4002C177.633 26.2002 177.433 25.9335 177.3 25.6002C177 25.7002 177.2 26.9002 176.7 26.7002C176.9 26.8002 175.3 25.2002 174.8 24.9002C175.4 25.5002 175.4 26.1002 174.9 26.7002C174.967 26.5002 175.033 26.3335 175.1 26.2002C174.7 26.2669 174.5 26.4669 174.5 26.8002C174.4 26.5002 173.5 25.1002 173.3 25.1002C173.433 25.4335 173.533 25.8002 173.6 26.2002C173 25.7002 171.1 25.5002 171.1 25.4002C171.4 25.0002 172.2 23.9002 171.7 22.9002C171.2 23.7002 170.5 25.2002 170.8 26.2002C170.467 25.8002 170.167 25.7669 169.9 26.1002C169.833 25.7669 169.767 25.4669 169.7 25.2002C169.567 25.3335 169.5 25.4669 169.5 25.6002C169.433 25.5335 169.367 25.4002 169.3 25.2002C169.1 25.0002 168.9 26.0002 168.9 26.0002C168.567 26.2669 168.367 26.1335 168.3 25.6002C168.033 25.8669 167.767 26.1335 167.5 26.4002C167.7 25.2002 168.9 24.8002 168.8 24.1002C168.4 23.5002 167 25.2002 167.2 25.0002C166.6 25.0002 167.2 26.5002 166.7 26.3002C166.7 25.9669 166.567 25.7002 166.3 25.5002C166.3 25.6002 166.1 26.7002 166 26.7002C164.4 26.8002 166 24.1002 166.1 24.2002C165.833 24.5335 165.767 24.9335 165.9 25.4002C166.4 26.1002 167 22.3002 167 22.2002C167.2 22.2669 167.4 22.2335 167.6 22.1002C167.5 22.3002 167.3 23.5002 167.9 23.0002C167.967 22.6669 168.167 22.5335 168.5 22.6002C168.167 22.9335 168.067 23.3335 168.2 23.8002C168.267 23.6002 168.4 23.4002 168.6 23.2002C169.4 23.6002 168.3 25.7002 169.9 22.9002C169.7 23.9002 169.4 23.8002 170.3 24.4002C170 24.2002 171.7 22.9002 170.4 22.4002C170.8 22.4002 171.4 22.5002 171.5 21.9002C171.7 22.1669 171.767 22.5002 171.7 22.9002C172.6 21.9002 171.9 22.5002 172 21.5002C172.3 22.4002 172.2 21.1002 172.5 21.3002C172.5 21.7669 172.6 22.2335 172.8 22.7002C173.2 22.6335 173.467 22.4335 173.6 22.1002C173.8 22.6002 173.5 22.8002 174.1 22.4002C174.1 23.0669 174.3 23.7002 174.7 24.3002C174.633 23.3669 174.8 22.5002 175.2 21.7002C175.2 22.0335 175.2 22.3335 175.2 22.6002C176.1 23.3002 174.8 20.0002 175.2 20.0002C175.467 20.9335 175.967 21.7335 176.7 22.4002C178 20.0002 176.8 21.8002 177 20.1002C177.5 20.6002 180.6 20.3002 180.1 20.1002C180.1 20.1002 181.9 19.7002 181.1 20.6002C181.367 20.5335 181.533 20.3669 181.6 20.1002C182.1 19.6002 182 20.5002 182 20.6002C182.2 20.7002 182 20.4002 182.2 20.6002C182.9 20.5002 183.8 18.2002 184.7 17.6002C184.8 17.8002 186.3 20.0002 186.8 19.6002C187.1 19.3002 187.5 17.8002 188 17.8002C188.7 17.9002 188.5 18.6002 189.5 19.0002C190.1 18.8002 189.1 18.6002 190.1 18.9002C188.5 18.4002 190 16.5002 189.6 15.9002C190 15.9002 190.167 16.1335 190.1 16.6002C190.8 16.7002 190.3 14.7002 190.3 14.5002C190.767 14.2335 191.2 14.3002 191.6 14.7002C191.1 14.8002 189.7 18.1002 190.3 18.3002C190.5 16.9002 191.2 18.9002 191.5 18.8002C190.4 18.0002 192.2 17.1002 192.6 16.7002C192.3 16.9002 192.3 15.5002 192.2 15.4002C192.3 15.9002 191.6 16.3002 192.2 16.4002C192.067 16.5335 191.9 16.6669 191.7 16.8002C191.3 15.6002 192.1 15.6002 192.4 14.5002C192.6 14.9669 192.867 15.3669 193.2 15.7002C193.2 15.3002 193.367 15.1669 193.7 15.3002C193.7 15.8002 193.5 16.2002 194.4 16.5002C194.6 16.2002 194.2 14.6002 195.7 15.2002C195.5 15.5335 195.367 15.8669 195.3 16.2002C195.433 16.3335 195.6 16.4335 195.8 16.5002C196 15.9002 196.6 13.0002 197 12.6002C197.5 12.3002 197.9 13.5002 198.3 12.3002C198.2 12.7002 199 14.1002 199.3 13.2002C199.3 12.2002 198.8 12.6002 200.4 12.1002C198.6 15.1002 202.8 10.9002 202 11.2002C205.2 9.8002 208.8 8.9002 212.1 7.6002C217.8 5.2002 223.3 2.6002 229.2 0.700195C226.6 5.5002 220.5 14.2002 220.1 18.3002ZM174.5 26.9002C174.5 26.8335 174.5 26.8002 174.5 26.8002C174.5 26.8669 174.5 26.9002 174.5 26.9002ZM178.6 24.5002C178.533 24.5669 178.5 24.6002 178.5 24.6002C178.567 24.6002 178.6 24.5669 178.6 24.5002ZM187.9 24.3002C187.967 24.3002 188 24.3002 188 24.3002C188.2 23.9002 188.3 23.7002 187.9 24.3002ZM170.6 43.6002C170.667 43.5335 170.733 43.5002 170.8 43.5002C170.733 43.5669 170.667 43.6002 170.6 43.6002ZM144.2 51.0002C144.267 51.0002 144.267 51.0002 144.2 51.0002ZM35.8999 38.8002C35.8999 38.7335 35.8999 38.7002 35.8999 38.7002C35.8333 38.7002 35.8333 38.7335 35.8999 38.8002ZM9.69994 23.4002C9.69994 23.4002 9.73328 23.4002 9.79994 23.4002C9.79994 23.4002 9.76661 23.4002 9.69994 23.4002ZM26.3999 36.6002C26.2666 36.6002 26.1999 36.6002 26.1999 36.6002C26.3333 36.6669 26.3999 36.6669 26.3999 36.6002ZM42.6999 48.4002C43.0333 48.5335 43.3666 48.5335 43.6999 48.4002C43.3999 48.3002 43.0999 48.3002 42.6999 48.4002ZM91.2999 65.5002C91.0999 65.5002 90.9999 65.4335 90.9999 65.3002C91.1333 65.3669 91.2333 65.4335 91.2999 65.5002ZM123.9 61.7002C123.967 61.7669 124 61.8002 124 61.8002C124 61.7335 123.967 61.7002 123.9 61.7002ZM131.6 60.7002C131.667 60.7002 131.667 60.7335 131.6 60.8002C131.6 60.8002 131.6 60.7669 131.6 60.7002ZM149.9 60.6002C149.833 60.6002 149.8 60.6002 149.8 60.6002C149.867 60.6002 149.9 60.6002 149.9 60.6002ZM193.8 44.7002C194 44.7002 194.2 44.8002 194.3 45.1002C194.2 45.0002 194 44.8002 193.8 44.7002ZM209.1 40.3002C208.967 40.1669 208.8 40.0669 208.6 40.0002C208.6 39.9335 208.6 39.9002 208.6 39.9002C208.8 39.9669 208.967 40.1002 209.1 40.3002ZM210.7 32.5002C210.633 32.5002 210.633 32.5002 210.7 32.5002ZM214.5 30.3002C214.433 30.3002 214.4 30.2669 214.4 30.2002C214.4 30.2002 214.433 30.2335 214.5 30.3002ZM179.2 20.8002L179.1 20.6002C179 21.1002 179.1 20.9002 179.2 20.8002ZM183.3 20.2002C183.2 20.3002 183.1 20.4002 183.3 20.2002ZM183.3 20.2002C183.9 21.1002 185.2 19.5002 183.9 19.4002C183.9 19.5002 183.5 20.0002 183.3 20.2002ZM30.7999 35.0002L30.6999 34.8002C30.0999 35.0002 30.3999 34.9002 30.7999 35.0002ZM39.8999 39.9002C39.3999 41.9002 37.4999 38.0002 37.4999 39.5002C37.4999 39.6002 40.0999 41.2002 40.2999 41.1002C40.1666 40.7002 40.0333 40.3002 39.8999 39.9002ZM207.6 24.5002C207.3 24.9002 207.7 25.1002 208 25.3002C208.533 25.5669 208.4 25.3002 207.6 24.5002ZM210 22.5002C209.933 22.4335 209.9 22.4002 209.9 22.4002C209.8 22.5002 209.8 22.5002 210 22.5002ZM211.4 20.9002C212.133 20.8335 212.333 20.6002 212 20.2002C211.8 20.4669 211.6 20.7002 211.4 20.9002ZM213.7 19.3002C213.367 19.5669 213.033 19.8669 212.7 20.2002C213.1 20.0002 213.433 19.7002 213.7 19.3002ZM211.6 17.8002C211.6 17.8002 211.633 17.8002 211.7 17.8002C211.7 17.8002 211.667 17.8002 211.6 17.8002ZM207.3 19.6002C207.567 19.4669 207.8 19.2335 208 18.9002C207.733 19.1669 207.5 19.4002 207.3 19.6002ZM212.3 21.4002C211.3 21.1002 211.3 21.9002 211.3 22.1002C211.767 22.0335 212.1 21.8002 212.3 21.4002Z" fill="#100F12"/>
<path d="M166.5 23.5002C166.1 23.0002 166.1 22.8002 165.8 22.4002C165.4 22.8669 165.233 23.4002 165.3 24.0002C165.633 23.6669 166.033 23.5002 166.5 23.5002Z" fill="#100F12"/>
<path d="M172.7 28.4002L172.2 28.1002C172.1 28.5002 172.7 29.0002 172.7 28.4002Z" fill="#100F12"/>
<path d="M170.2 22.1002C170 22.3002 169.8 21.6002 169.7 22.4002C170.033 22.6669 170.2 22.5669 170.2 22.1002Z" fill="#100F12"/>
<path d="M174.5 27.9002C174.4 28.1002 173.9 27.6002 174 28.4002C174 27.6002 174.5 28.6002 174.5 27.9002Z" fill="#100F12"/>
<path d="M172.7 21.1002C172.5 20.4002 172.4 21.1002 172 20.9002C172.3 20.9002 172.7 21.6002 172.7 21.1002Z" fill="#100F12"/>
<path d="M175.4 26.4002C175.867 26.6669 176.133 27.1002 176.2 27.7002C176.467 27.0335 176.467 26.4002 176.2 25.8002C176.3 26.6002 175.5 26.3002 176 25.7002C175.8 25.9669 175.6 26.2002 175.4 26.4002Z" fill="#100F12"/>
<path d="M173.3 21.1002C174.4 21.4002 172.3 20.4002 172.7 20.3002C172.7 20.7669 172.9 21.0335 173.3 21.1002Z" fill="#100F12"/>
<path d="M177.6 26.9002C177.2 27.1669 176.933 27.5669 176.8 28.1002C177.8 27.7669 178.067 27.3669 177.6 26.9002Z" fill="#100F12"/>
<path d="M174.8 22.0002C174.733 21.6669 174.7 21.3669 174.7 21.1002C174.3 21.0002 174.6 22.2002 174.8 22.0002Z" fill="#100F12"/>
<path d="M176.1 20.4002C175.967 20.0669 175.8 19.7669 175.6 19.5002C174.6 20.4002 176.5 20.6002 176.1 20.4002Z" fill="#100F12"/>
<path d="M176.9 20.1002C176.6 20.6002 176.4 21.0002 176.4 21.5002C176.533 21.0335 176.7 20.5669 176.9 20.1002Z" fill="#100F12"/>
<path d="M185.3 25.8002C185.3 25.4002 184.8 25.0002 185 25.4002C185 25.7002 185.6 26.1002 185.3 25.8002Z" fill="#100F12"/>
<path d="M183.3 18.3002C183 18.5002 182.2 18.5002 182.4 19.0002C182.6 19.2002 183.1 18.6002 183.3 18.3002Z" fill="#100F12"/>
<path d="M193.5 14.1002C193.167 14.1002 193.033 14.3002 193.1 14.7002C194.6 12.9002 193.4 13.7002 193.5 14.1002Z" fill="#100F12"/>
<path d="M196 13.6002C195.9 13.9002 195.7 13.8002 195.9 14.1002C196 14.3002 196.1 13.8002 196 13.6002Z" fill="#100F12"/>
<path d="M213 31.8002C212.6 31.9002 213.2 32.9002 212.6 32.2002C212.8 32.4669 212.967 32.7335 213.1 33.0002C213.233 32.6002 213.2 32.2002 213 31.8002Z" fill="#100F12"/>
<path d="M208.1 40.0002C207.767 39.8669 207.533 39.6669 207.4 39.4002C207.6 40.1002 207.7 40.7002 207.8 41.2002C207.8 41.0002 207.9 40.1002 208.1 40.0002Z" fill="#100F12"/>
<path d="M192.5 58.3002C192.3 58.2002 192.1 58.1002 191.8 58.1002C191.9 58.5002 192.4 58.3002 192.5 58.3002Z" fill="#100F12"/>
</g>
<defs>
<clipPath id="clip0_27_35131">
<rect width="229" height="69" fill="white"/>
</clipPath>
</defs>
</svg>
