<svg width="100" height="100" viewBox="0 0 100 100" fill="none" xmlns="http://www.w3.org/2000/svg">
<circle cx="33.5" cy="58.5" r="16.5" fill="#0AB975" fill-opacity="0.13"/>
<path fill-rule="evenodd" clip-rule="evenodd" d="M53.61 71L51 69.5L57 59H66C66.7957 59 67.5587 58.6839 68.1213 58.1213C68.6839 57.5587 69 56.7956 69 56V38C69 37.2044 68.6839 36.4413 68.1213 35.8787C67.5587 35.3161 66.7957 35 66 35H36C35.2044 35 34.4413 35.3161 33.8787 35.8787C33.3161 36.4413 33 37.2044 33 38V56C33 56.7956 33.3161 57.5587 33.8787 58.1213C34.4413 58.6839 35.2044 59 36 59H49.5V62H36C34.4087 62 32.8826 61.3679 31.7574 60.2426C30.6321 59.1174 30 57.5913 30 56V38C30 36.4087 30.6321 34.8826 31.7574 33.7574C32.8826 32.6321 34.4087 32 36 32H66C67.5913 32 69.1174 32.6321 70.2426 33.7574C71.3679 34.8826 72 36.4087 72 38V56C72 57.5913 71.3679 59.1174 70.2426 60.2426C69.1174 61.3679 67.5913 62 66 62H58.74L53.61 71ZM63 41H39V44H63V41ZM39 50H54V53H39V50Z" fill="#0AB975"/>
</svg>
