<svg width="780" height="728" viewBox="0 0 780 728" fill="none" xmlns="http://www.w3.org/2000/svg">
<g clip-path="url(#clip0_411_839)">
<rect width="780" height="728" fill="#F6DCD7"/>
<g clip-path="url(#clip1_411_839)">
<path d="M300.878 79V59.48H294.51V56.12H311.534V59.48H305.166V79H300.878ZM318.12 76.312C319.549 76.312 320.669 75.8213 321.48 74.84C322.312 73.8373 322.728 72.472 322.728 70.744V70.52C322.728 68.792 322.312 67.4373 321.48 66.456C320.669 65.4533 319.549 64.952 318.12 64.952C316.669 64.952 315.528 65.4427 314.696 66.424C313.885 67.4053 313.48 68.76 313.48 70.488V70.744C313.48 72.472 313.885 73.8373 314.696 74.84C315.528 75.8213 316.669 76.312 318.12 76.312ZM324.264 76.952C322.643 78.5307 320.584 79.32 318.088 79.32C315.592 79.32 313.533 78.5307 311.912 76.952C310.312 75.3733 309.512 73.3253 309.512 70.808V70.552C309.512 67.992 310.323 65.912 311.944 64.312C313.565 62.712 315.624 61.912 318.12 61.912C320.595 61.912 322.643 62.7013 324.264 64.28C325.885 65.8587 326.696 67.9173 326.696 70.456V70.712C326.696 73.2933 325.885 75.3733 324.264 76.952ZM336.083 76.312C337.512 76.312 338.632 75.8213 339.443 74.84C340.275 73.8373 340.691 72.472 340.691 70.744V70.52C340.691 68.792 340.275 67.4373 339.443 66.456C338.632 65.4533 337.512 64.952 336.083 64.952C334.632 64.952 333.491 65.4427 332.659 66.424C331.848 67.4053 331.443 68.76 331.443 70.488V70.744C331.443 72.472 331.848 73.8373 332.659 74.84C333.491 75.8213 334.632 76.312 336.083 76.312ZM342.227 76.952C340.605 78.5307 338.547 79.32 336.051 79.32C333.555 79.32 331.496 78.5307 329.875 76.952C328.275 75.3733 327.475 73.3253 327.475 70.808V70.552C327.475 67.992 328.285 65.912 329.907 64.312C331.528 62.712 333.587 61.912 336.083 61.912C338.557 61.912 340.605 62.7013 342.227 64.28C343.848 65.8587 344.659 67.9173 344.659 70.456V70.712C344.659 73.2933 343.848 75.3733 342.227 76.952ZM346.653 79V54.52H350.525V79H346.653ZM363.126 79L358.006 62.264H362.134L365.462 74.36L369.014 62.264H372.246L375.51 74.36L378.998 62.264H382.774L377.526 79H373.59L370.486 67.736L367.094 79H363.126ZM391.151 76.312C392.581 76.312 393.701 75.8213 394.511 74.84C395.343 73.8373 395.759 72.472 395.759 70.744V70.52C395.759 68.792 395.343 67.4373 394.511 66.456C393.701 65.4533 392.581 64.952 391.151 64.952C389.701 64.952 388.559 65.4427 387.727 66.424C386.917 67.4053 386.511 68.76 386.511 70.488V70.744C386.511 72.472 386.917 73.8373 387.727 74.84C388.559 75.8213 389.701 76.312 391.151 76.312ZM397.295 76.952C395.674 78.5307 393.615 79.32 391.119 79.32C388.623 79.32 386.565 78.5307 384.943 76.952C383.343 75.3733 382.543 73.3253 382.543 70.808V70.552C382.543 67.992 383.354 65.912 384.975 64.312C386.597 62.712 388.655 61.912 391.151 61.912C393.626 61.912 395.674 62.7013 397.295 64.28C398.917 65.8587 399.727 67.9173 399.727 70.456V70.712C399.727 73.2933 398.917 75.3733 397.295 76.952ZM401.626 79V62.264H405.498V65.4C406.607 63.16 408.421 62.0293 410.938 62.008V65.624C409.125 65.6453 407.759 66.008 406.842 66.712C405.946 67.416 405.498 68.6107 405.498 70.296V79H401.626ZM412.745 79V54.52H416.617V69.624L422.601 62.264H426.825L420.329 69.944L427.369 79H422.889L416.617 70.776V79H412.745ZM429.098 79V65.176H426.826V62.264H429.098V60.024C429.098 58.1893 429.578 56.792 430.538 55.832C431.498 54.8507 432.874 54.36 434.666 54.36C435.455 54.36 436.159 54.456 436.778 54.648V57.656C436.373 57.4853 435.829 57.4 435.146 57.4C433.695 57.4 432.97 58.2213 432.97 59.864V62.264H436.778V65.176H432.97V79H429.098ZM438.078 79V54.52H441.95V79H438.078ZM452.558 76.312C453.987 76.312 455.107 75.8213 455.918 74.84C456.75 73.8373 457.166 72.472 457.166 70.744V70.52C457.166 68.792 456.75 67.4373 455.918 66.456C455.107 65.4533 453.987 64.952 452.558 64.952C451.107 64.952 449.966 65.4427 449.134 66.424C448.323 67.4053 447.918 68.76 447.918 70.488V70.744C447.918 72.472 448.323 73.8373 449.134 74.84C449.966 75.8213 451.107 76.312 452.558 76.312ZM458.702 76.952C457.08 78.5307 455.022 79.32 452.526 79.32C450.03 79.32 447.971 78.5307 446.35 76.952C444.75 75.3733 443.95 73.3253 443.95 70.808V70.552C443.95 67.992 444.76 65.912 446.382 64.312C448.003 62.712 450.062 61.912 452.558 61.912C455.032 61.912 457.08 62.7013 458.702 64.28C460.323 65.8587 461.134 67.9173 461.134 70.456V70.712C461.134 73.2933 460.323 75.3733 458.702 76.952ZM466.019 79L460.899 62.264H465.027L468.355 74.36L471.907 62.264H475.139L478.403 74.36L481.891 62.264H485.667L480.419 79H476.483L473.379 67.736L469.987 79H466.019Z" fill="black"/>
<g clip-path="url(#clip2_411_839)">
<g filter="url(#filter0_d_411_839)">
<path d="M636.138 235.066H510.591C499.643 235.066 490.768 243.941 490.768 254.889V380.436C490.768 391.384 499.643 400.26 510.591 400.26H636.138C647.086 400.26 655.961 391.384 655.961 380.436V254.889C655.961 243.941 647.086 235.066 636.138 235.066Z" fill="white"/>
<path d="M590.996 274.357C596.72 282.774 599.546 292.268 598.489 303.197C598.486 303.243 598.461 303.286 598.423 303.313C594.088 306.496 589.887 308.429 585.748 309.709C585.715 309.719 585.68 309.719 585.649 309.707C585.617 309.697 585.589 309.676 585.569 309.649C584.613 308.318 583.744 306.914 582.982 305.44C582.938 305.354 582.977 305.25 583.068 305.216C584.448 304.695 585.761 304.072 587.025 303.334C587.124 303.275 587.13 303.133 587.038 303.065C586.77 302.865 586.504 302.657 586.25 302.447C586.202 302.409 586.139 302.401 586.085 302.427C577.888 306.213 568.906 306.213 560.612 302.427C560.557 302.402 560.495 302.411 560.448 302.449C560.194 302.658 559.928 302.865 559.662 303.065C559.571 303.133 559.578 303.275 559.679 303.334C560.941 304.058 562.254 304.695 563.633 305.217C563.722 305.252 563.765 305.354 563.721 305.44C562.976 306.917 562.105 308.32 561.132 309.651C561.089 309.706 561.02 309.73 560.954 309.709C556.832 308.429 552.631 306.496 548.297 303.313C548.26 303.286 548.236 303.242 548.231 303.195C547.349 293.741 549.147 284.17 555.719 274.356C555.735 274.329 555.759 274.31 555.787 274.298C559.019 272.813 562.484 271.723 566.105 271.098C566.169 271.088 566.235 271.118 566.27 271.178C566.717 271.969 567.228 272.985 567.575 273.814C571.391 273.233 575.266 273.233 579.161 273.814C579.508 273.003 580.001 271.969 580.447 271.178C580.463 271.148 580.488 271.125 580.518 271.111C580.547 271.097 580.58 271.092 580.614 271.098C584.235 271.724 587.699 272.816 590.93 274.298C590.958 274.31 590.981 274.329 590.996 274.357ZM569.514 292.332C569.554 289.537 567.517 287.224 564.958 287.224C562.422 287.224 560.404 289.517 560.404 292.332C560.404 295.147 562.462 297.438 564.958 297.438C567.497 297.438 569.514 295.147 569.514 292.332ZM586.356 292.332C586.395 289.537 584.358 287.224 581.801 287.224C579.264 287.224 577.245 289.517 577.245 292.332C577.245 295.147 579.304 297.438 581.801 297.438C584.358 297.438 586.356 295.147 586.356 292.332Z" fill="#5865F2"/>
<path d="M532.646 338.198L526.564 354.318H524.136L518.053 338.198H520.297L525.361 352.098L530.426 338.198H532.646ZM540.019 354.526C538.831 354.526 537.753 354.257 536.781 353.716C535.825 353.178 535.07 352.415 534.515 351.427C533.975 350.426 533.705 349.269 533.705 347.958C533.705 346.663 533.983 345.523 534.538 344.535C535.108 343.534 535.879 342.771 536.851 342.245C537.822 341.707 538.909 341.436 540.111 341.436C541.314 341.436 542.401 341.707 543.372 342.245C544.344 342.771 545.107 343.526 545.662 344.512C546.232 345.5 546.518 346.648 546.518 347.958C546.518 349.269 546.224 350.426 545.639 351.427C545.067 352.415 544.289 353.178 543.303 353.716C542.315 354.257 541.222 354.526 540.019 354.526ZM540.019 352.676C540.774 352.676 541.483 352.499 542.147 352.144C542.809 351.79 543.341 351.258 543.742 350.548C544.159 349.839 544.367 348.975 544.367 347.958C544.367 346.94 544.165 346.078 543.766 345.368C543.364 344.659 542.84 344.135 542.193 343.795C541.545 343.441 540.843 343.263 540.088 343.263C539.317 343.263 538.608 343.441 537.961 343.795C537.328 344.135 536.819 344.659 536.434 345.368C536.048 346.078 535.856 346.94 535.856 347.958C535.856 348.992 536.041 349.862 536.411 350.571C536.796 351.281 537.305 351.813 537.938 352.167C538.569 352.507 539.262 352.676 540.019 352.676ZM549.909 339.586C549.508 339.586 549.169 339.447 548.892 339.169C548.614 338.892 548.475 338.553 548.475 338.152C548.475 337.752 548.614 337.412 548.892 337.134C549.169 336.857 549.508 336.718 549.909 336.718C550.294 336.718 550.618 336.857 550.88 337.134C551.158 337.412 551.297 337.752 551.297 338.152C551.297 338.553 551.158 338.892 550.88 339.169C550.618 339.447 550.294 339.586 549.909 339.586ZM550.927 341.644V354.318H548.822V341.644H550.927ZM553.264 347.958C553.264 346.648 553.527 345.506 554.051 344.535C554.576 343.549 555.299 342.786 556.224 342.245C557.166 341.707 558.237 341.436 559.439 341.436C560.997 341.436 562.277 341.814 563.278 342.569C564.296 343.326 564.966 344.373 565.29 345.714H563.024C562.809 344.945 562.385 344.335 561.752 343.887C561.136 343.441 560.364 343.217 559.439 343.217C558.237 343.217 557.265 343.633 556.525 344.466C555.785 345.283 555.415 346.448 555.415 347.958C555.415 349.484 555.785 350.664 556.525 351.496C557.265 352.329 558.237 352.745 559.439 352.745C560.364 352.745 561.136 352.53 561.752 352.098C562.37 351.666 562.793 351.05 563.024 350.247H565.29C564.952 351.542 564.273 352.583 563.255 353.37C562.238 354.141 560.966 354.526 559.439 354.526C558.237 354.526 557.166 354.257 556.224 353.716C555.299 353.178 554.576 352.415 554.051 351.427C553.527 350.441 553.264 349.284 553.264 347.958ZM579.2 347.495C579.2 347.897 579.176 348.321 579.13 348.767H569.001C569.078 350.016 569.501 350.996 570.272 351.704C571.059 352.398 572.007 352.745 573.117 352.745C574.027 352.745 574.782 352.537 575.384 352.121C576 351.689 576.433 351.12 576.679 350.409H578.945C578.606 351.628 577.928 352.623 576.91 353.393C575.892 354.149 574.629 354.526 573.117 354.526C571.915 354.526 570.836 354.257 569.879 353.716C568.939 353.178 568.199 352.415 567.659 351.427C567.119 350.426 566.85 349.269 566.85 347.958C566.85 346.648 567.112 345.5 567.636 344.512C568.16 343.526 568.893 342.771 569.833 342.245C570.79 341.707 571.883 341.436 573.117 341.436C574.32 341.436 575.384 341.699 576.309 342.222C577.234 342.748 577.942 343.471 578.436 344.396C578.945 345.306 579.2 346.339 579.2 347.495ZM577.026 347.056C577.026 346.255 576.849 345.569 576.494 344.997C576.139 344.413 575.653 343.973 575.037 343.679C574.435 343.372 573.765 343.217 573.025 343.217C571.961 343.217 571.051 343.557 570.296 344.234C569.556 344.913 569.131 345.853 569.024 347.056H577.026ZM596.756 341.413C597.743 341.413 598.621 341.621 599.393 342.037C600.163 342.439 600.772 343.048 601.22 343.864C601.666 344.682 601.891 345.676 601.891 346.848V354.318H599.809V347.148C599.809 345.885 599.492 344.922 598.861 344.257C598.243 343.58 597.404 343.24 596.34 343.24C595.245 343.24 594.374 343.595 593.727 344.304C593.079 344.998 592.755 346.008 592.755 347.333V354.318H590.674V347.148C590.674 345.885 590.357 344.922 589.726 344.257C589.108 343.58 588.269 343.24 587.205 343.24C586.11 343.24 585.239 343.595 584.591 344.304C583.944 344.998 583.62 346.008 583.62 347.333V354.318H581.516V341.644H583.62V343.471C584.036 342.809 584.591 342.3 585.285 341.945C585.994 341.591 586.772 341.413 587.621 341.413C588.685 341.413 589.625 341.652 590.443 342.13C591.259 342.609 591.868 343.309 592.27 344.234C592.623 343.341 593.21 342.647 594.027 342.153C594.843 341.661 595.754 341.413 596.756 341.413ZM604.094 347.935C604.094 346.64 604.355 345.506 604.881 344.535C605.404 343.549 606.121 342.786 607.031 342.245C607.956 341.707 608.981 341.436 610.107 341.436C611.217 341.436 612.18 341.675 612.998 342.153C613.814 342.632 614.424 343.233 614.825 343.957V341.644H616.953V354.318H614.825V351.959C614.409 352.699 613.784 353.317 612.952 353.809C612.134 354.288 611.178 354.526 610.084 354.526C608.957 354.526 607.94 354.248 607.031 353.693C606.121 353.138 605.404 352.36 604.881 351.357C604.355 350.356 604.094 349.215 604.094 347.935ZM614.825 347.958C614.825 347.003 614.632 346.17 614.247 345.46C613.86 344.751 613.337 344.211 612.674 343.841C612.027 343.456 611.31 343.263 610.523 343.263C609.737 343.263 609.02 343.448 608.373 343.818C607.725 344.188 607.208 344.728 606.823 345.437C606.437 346.147 606.245 346.98 606.245 347.935C606.245 348.906 606.437 349.755 606.823 350.479C607.208 351.189 607.725 351.736 608.373 352.121C609.02 352.491 609.737 352.676 610.523 352.676C611.31 352.676 612.027 352.491 612.674 352.121C613.337 351.736 613.86 351.189 614.247 350.479C614.632 349.755 614.825 348.914 614.825 347.958ZM621.134 339.586C620.732 339.586 620.394 339.447 620.116 339.169C619.839 338.892 619.7 338.553 619.7 338.152C619.7 337.752 619.839 337.412 620.116 337.134C620.394 336.857 620.732 336.718 621.134 336.718C621.519 336.718 621.843 336.857 622.105 337.134C622.383 337.412 622.521 337.752 622.521 338.152C622.521 338.553 622.383 338.892 622.105 339.169C621.843 339.447 621.519 339.586 621.134 339.586ZM622.151 341.644V354.318H620.047V341.644H622.151ZM627.38 337.204V354.318H625.275V337.204H627.38Z" fill="black" fill-opacity="0.6"/>
</g>
<g filter="url(#filter1_d_411_839)">
<path d="M449.37 676H323.823C312.875 676 304 684.875 304 695.823V821.37C304 832.318 312.875 841.193 323.823 841.193H449.37C460.318 841.193 469.193 832.318 469.193 821.37V695.823C469.193 684.875 460.318 676 449.37 676Z" fill="white"/>
<path d="M404.228 715.291C409.952 723.708 412.778 733.201 411.721 744.131C411.718 744.177 411.693 744.22 411.655 744.246C407.32 747.43 403.119 749.362 398.98 750.643C398.947 750.652 398.912 750.652 398.881 750.641C398.849 750.631 398.821 750.61 398.801 750.583C397.845 749.252 396.976 747.847 396.214 746.374C396.17 746.288 396.209 746.184 396.3 746.149C397.68 745.629 398.993 745.006 400.257 744.268C400.356 744.208 400.362 744.066 400.27 743.999C400.002 743.799 399.736 743.59 399.482 743.381C399.434 743.343 399.371 743.334 399.317 743.361C391.12 747.147 382.138 747.147 373.844 743.361C373.789 743.336 373.727 743.344 373.68 743.382C373.426 743.592 373.16 743.799 372.894 743.999C372.803 744.066 372.81 744.208 372.91 744.268C374.173 744.991 375.486 745.629 376.865 746.151C376.954 746.186 376.997 746.288 376.953 746.374C376.208 747.851 375.337 749.253 374.364 750.585C374.321 750.639 374.252 750.664 374.186 750.643C370.064 749.362 365.863 747.43 361.529 744.246C361.492 744.22 361.468 744.175 361.463 744.129C360.58 734.675 362.379 725.104 368.951 715.29C368.967 715.263 368.99 715.243 369.019 715.232C372.251 713.747 375.715 712.656 379.337 712.032C379.401 712.022 379.467 712.052 379.502 712.111C379.949 712.902 380.46 713.918 380.807 714.748C384.623 714.166 388.498 714.166 392.393 714.748C392.74 713.937 393.233 712.902 393.679 712.111C393.695 712.081 393.72 712.058 393.75 712.045C393.779 712.03 393.812 712.025 393.845 712.032C397.466 712.658 400.931 713.75 404.162 715.232C404.19 715.243 404.213 715.263 404.228 715.291ZM382.746 733.266C382.786 730.471 380.749 728.158 378.19 728.158C375.654 728.158 373.636 730.451 373.636 733.266C373.636 736.081 375.694 738.372 378.19 738.372C380.729 738.372 382.746 736.081 382.746 733.266ZM399.588 733.266C399.627 730.471 397.59 728.158 395.033 728.158C392.496 728.158 390.477 730.451 390.477 733.266C390.477 736.081 392.535 738.372 395.033 738.372C397.59 738.372 399.588 736.081 399.588 733.266Z" fill="#5865F2"/>
</g>
<g filter="url(#filter2_d_411_839)">
<path d="M452.773 309.403H327.227C316.278 309.403 307.403 318.278 307.403 329.227V454.773C307.403 465.722 316.278 474.597 327.227 474.597H452.773C463.722 474.597 472.597 465.722 472.597 454.773V329.227C472.597 318.278 463.722 309.403 452.773 309.403Z" fill="white"/>
<path fill-rule="evenodd" clip-rule="evenodd" d="M382.951 339.085C380.029 339.087 377.663 341.459 377.665 344.381C377.663 347.302 380.031 349.674 382.953 349.676H388.239V344.383C388.242 341.461 385.875 339.089 382.951 339.085V339.085ZM382.951 353.209H368.857C365.935 353.211 363.567 355.583 363.569 358.505C363.564 361.428 365.931 363.798 368.854 363.803H382.951C385.874 363.802 388.239 361.429 388.237 358.507C388.239 355.583 385.874 353.211 382.951 353.209Z" fill="#36C5F0"/>
<path fill-rule="evenodd" clip-rule="evenodd" d="M416.431 358.505C416.433 355.583 414.065 353.211 411.143 353.209C408.223 353.211 405.855 355.583 405.857 358.505V363.803H411.143C414.065 363.802 416.433 361.429 416.431 358.505ZM402.335 358.505V344.381C402.337 341.461 399.971 339.089 397.049 339.085C394.127 339.087 391.761 341.459 391.763 344.381V358.505C391.758 361.428 394.125 363.798 397.047 363.803C399.97 363.802 402.337 361.429 402.335 358.505Z" fill="#2EB67D"/>
<path fill-rule="evenodd" clip-rule="evenodd" d="M397.047 392.053C399.969 392.051 402.337 389.679 402.335 386.757C402.337 383.834 399.969 381.464 397.047 381.461H391.761V386.757C391.758 389.677 394.125 392.048 397.047 392.053ZM397.047 377.926H411.143C414.065 377.924 416.433 375.552 416.431 372.629C416.436 369.709 414.069 367.337 411.146 367.332H397.049C394.127 367.335 391.761 369.705 391.763 372.628C391.761 375.552 394.125 377.924 397.047 377.926Z" fill="#ECB22E"/>
<path fill-rule="evenodd" clip-rule="evenodd" d="M363.569 372.629C363.567 375.552 365.935 377.924 368.857 377.926C371.778 377.924 374.145 375.552 374.143 372.629V367.333H368.857C365.935 367.337 363.567 369.707 363.569 372.629ZM377.665 372.629V386.755C377.662 389.676 380.029 392.048 382.951 392.053C385.874 392.05 388.239 389.679 388.237 386.757V372.634C388.242 369.712 385.875 367.34 382.953 367.337C380.029 367.337 377.663 369.707 377.665 372.629Z" fill="#E01E5A"/>
<path d="M361.861 420.536V422.247H357.467V436.655H355.362V422.247H350.945V420.536H361.861ZM375.552 429.833C375.552 430.234 375.529 430.659 375.483 431.105H365.353C365.431 432.353 365.855 433.333 366.625 434.042C367.412 434.736 368.36 435.082 369.47 435.082C370.38 435.082 371.135 434.874 371.736 434.458C372.354 434.027 372.785 433.457 373.031 432.747H375.298C374.959 433.966 374.28 434.96 373.263 435.73C372.245 436.487 370.981 436.863 369.47 436.863C368.267 436.863 367.189 436.594 366.232 436.054C365.292 435.515 364.552 434.752 364.012 433.764C363.473 432.763 363.202 431.607 363.202 430.295C363.202 428.985 363.465 427.837 363.989 426.849C364.514 425.863 365.246 425.108 366.186 424.583C367.142 424.044 368.238 423.773 369.47 423.773C370.672 423.773 371.736 424.036 372.661 424.56C373.586 425.085 374.297 425.809 374.789 426.734C375.298 427.644 375.552 428.676 375.552 429.833ZM373.378 429.393C373.378 428.592 373.202 427.906 372.846 427.335C372.493 426.75 372.007 426.311 371.389 426.017C370.788 425.709 370.117 425.554 369.377 425.554C368.314 425.554 367.405 425.894 366.648 426.572C365.908 427.251 365.485 428.191 365.376 429.393H373.378ZM384.483 436.655L381.476 431.937L378.585 436.655H376.388L380.482 430.365L376.388 423.981H378.77L381.777 428.676L384.645 423.981H386.842L382.771 430.249L386.865 436.655H384.483ZM391.039 425.716V433.186C391.039 433.804 391.17 434.243 391.432 434.504C391.695 434.752 392.149 434.874 392.797 434.874H394.346V436.655H392.45C391.279 436.655 390.4 436.386 389.813 435.846C389.227 435.307 388.935 434.42 388.935 433.186V425.716H387.293V423.981H388.935V420.79H391.039V423.981H394.346V425.716H391.039ZM397.521 421.923C397.12 421.923 396.781 421.784 396.504 421.507C396.226 421.229 396.087 420.891 396.087 420.489C396.087 420.09 396.226 419.749 396.504 419.472C396.781 419.194 397.12 419.055 397.521 419.055C397.906 419.055 398.23 419.194 398.493 419.472C398.77 419.749 398.909 420.09 398.909 420.489C398.909 420.891 398.77 421.229 398.493 421.507C398.23 421.784 397.906 421.923 397.521 421.923ZM398.539 423.981V436.655H396.434V423.981H398.539ZM407.838 423.75C409.379 423.75 410.628 424.221 411.584 425.161C412.541 426.086 413.018 427.427 413.018 429.185V436.655H410.937V429.486C410.937 428.222 410.621 427.259 409.988 426.595C409.356 425.918 408.493 425.577 407.398 425.577C406.288 425.577 405.401 425.924 404.739 426.618C404.091 427.312 403.767 428.323 403.767 429.648V436.655H401.663V423.981H403.767V425.785C404.184 425.138 404.747 424.637 405.456 424.282C406.181 423.929 406.974 423.75 407.838 423.75ZM421.22 423.773C422.315 423.773 423.27 424.013 424.088 424.49C424.92 424.969 425.536 425.571 425.938 426.294V423.981H428.066V436.933C428.066 438.089 427.819 439.115 427.326 440.009C426.832 440.919 426.123 441.627 425.198 442.136C424.288 442.645 423.224 442.899 422.006 442.899C420.341 442.899 418.954 442.506 417.843 441.72C416.733 440.934 416.077 439.863 415.878 438.505H417.959C418.19 439.277 418.668 439.893 419.393 440.355C420.118 440.835 420.989 441.072 422.006 441.072C423.163 441.072 424.103 440.711 424.828 439.985C425.568 439.262 425.938 438.244 425.938 436.933V434.273C425.522 435.013 424.905 435.631 424.088 436.123C423.27 436.617 422.315 436.863 421.22 436.863C420.095 436.863 419.069 436.586 418.144 436.031C417.234 435.476 416.517 434.698 415.993 433.695C415.47 432.694 415.207 431.552 415.207 430.272C415.207 428.977 415.47 427.844 415.993 426.872C416.517 425.886 417.234 425.123 418.144 424.583C419.069 424.044 420.095 423.773 421.22 423.773ZM425.938 430.295C425.938 429.34 425.745 428.508 425.36 427.797C424.975 427.089 424.45 426.549 423.787 426.179C423.14 425.794 422.423 425.6 421.636 425.6C420.85 425.6 420.133 425.785 419.485 426.155C418.838 426.525 418.321 427.066 417.936 427.774C417.551 428.485 417.358 429.317 417.358 430.272C417.358 431.243 417.551 432.092 417.936 432.816C418.321 433.526 418.838 434.073 419.485 434.458C420.133 434.828 420.85 435.013 421.636 435.013C422.423 435.013 423.14 434.828 423.787 434.458C424.45 434.073 424.975 433.526 425.36 432.816C425.745 432.092 425.938 431.252 425.938 430.295Z" fill="black" fill-opacity="0.6"/>
</g>
<g filter="url(#filter3_d_411_839)">
<path d="M636.138 418.431H510.591C499.643 418.431 490.768 427.306 490.768 438.254V563.801C490.768 574.749 499.643 583.624 510.591 583.624H636.138C647.086 583.624 655.961 574.749 655.961 563.801V438.254C655.961 427.306 647.086 418.431 636.138 418.431Z" fill="white"/>
<mask id="mask0_411_839" style="mask-type:luminance" maskUnits="userSpaceOnUse" x="546" y="443" width="54" height="61">
<path d="M599.795 443.626H546.934V503.916H599.795V443.626Z" fill="white"/>
</mask>
<g mask="url(#mask0_411_839)">
<path d="M593.14 455.466C593.097 455.165 592.834 454.998 592.614 454.978C592.398 454.96 587.787 454.62 587.787 454.62C587.787 454.62 584.586 451.44 584.234 451.088C583.882 450.738 583.195 450.843 582.929 450.923C582.889 450.934 582.23 451.138 581.137 451.476C580.068 448.399 578.18 445.571 574.859 445.571C574.769 445.571 574.674 445.574 574.579 445.579C573.635 444.33 572.466 443.788 571.455 443.788C563.719 443.788 560.023 453.457 558.865 458.371C555.859 459.303 553.723 459.965 553.45 460.051C551.774 460.577 551.721 460.63 551.499 462.21C551.334 463.408 546.943 497.357 546.943 497.357L581.152 503.766L599.686 499.757C599.686 499.757 593.179 455.768 593.14 455.466ZM579.247 452.061L576.353 452.956C576.353 452.753 576.354 452.552 576.354 452.332C576.354 450.419 576.088 448.879 575.662 447.659C577.374 447.873 578.513 449.819 579.247 452.061ZM573.539 448.039C574.015 449.23 574.326 450.941 574.326 453.249C574.326 453.368 574.324 453.475 574.322 453.584C572.441 454.167 570.396 454.8 568.346 455.436C569.496 450.992 571.655 448.848 573.539 448.039ZM571.242 445.863C571.575 445.863 571.912 445.975 572.234 446.197C569.755 447.365 567.099 450.302 565.975 456.169L561.251 457.633C562.564 453.158 565.686 445.863 571.242 445.863Z" fill="#95BF46"/>
<path d="M592.614 454.978C592.398 454.96 587.787 454.618 587.787 454.618C587.787 454.618 584.586 451.44 584.234 451.088C584.102 450.957 583.925 450.89 583.74 450.862L581.153 503.767L599.686 499.757C599.686 499.757 593.179 455.766 593.14 455.466C593.097 455.163 592.834 454.996 592.614 454.978Z" fill="#5E8E3E"/>
<path d="M574.86 465.219L572.575 472.018C572.575 472.018 570.573 470.949 568.118 470.949C564.518 470.949 564.338 473.207 564.338 473.776C564.338 476.881 572.431 478.071 572.431 485.344C572.431 491.065 568.802 494.75 563.909 494.75C558.038 494.75 555.035 491.096 555.035 491.096L556.607 485.901C556.607 485.901 559.693 488.551 562.298 488.551C564 488.551 564.692 487.211 564.692 486.231C564.692 482.181 558.053 482.001 558.053 475.345C558.053 469.745 562.072 464.323 570.188 464.323C573.315 464.323 574.86 465.219 574.86 465.219Z" fill="white"/>
</g>
<path d="M535.867 532.513V548.517H533.763V536.584L528.444 548.517H526.964L521.621 536.561V548.517H519.517V532.513H521.783L527.704 545.742L533.624 532.513H535.867ZM538.188 542.134C538.188 540.839 538.449 539.706 538.975 538.735C539.498 537.748 540.215 536.985 541.126 536.445C542.051 535.905 543.075 535.636 544.201 535.636C545.312 535.636 546.275 535.875 547.092 536.353C547.908 536.83 548.518 537.431 548.919 538.157V535.844H551.047V548.517H548.919V546.158C548.503 546.899 547.879 547.515 547.046 548.009C546.228 548.486 545.272 548.726 544.178 548.726C543.052 548.726 542.034 548.448 541.126 547.893C540.215 547.338 539.498 546.56 538.975 545.557C538.449 544.554 538.188 543.415 538.188 542.134ZM548.919 542.158C548.919 541.201 548.726 540.368 548.341 539.66C547.955 538.951 547.431 538.411 546.769 538.041C546.121 537.656 545.404 537.463 544.618 537.463C543.831 537.463 543.114 537.648 542.467 538.018C541.819 538.388 541.302 538.928 540.917 539.637C540.531 540.345 540.339 541.178 540.339 542.134C540.339 543.106 540.531 543.953 540.917 544.678C541.302 545.387 541.819 545.935 542.467 546.32C543.114 546.69 543.831 546.875 544.618 546.875C545.404 546.875 546.121 546.69 546.769 546.32C547.431 545.935 547.955 545.387 548.341 544.678C548.726 543.953 548.919 543.114 548.919 542.158ZM556.246 537.902C556.616 537.177 557.139 536.615 557.818 536.214C558.512 535.812 559.351 535.613 560.339 535.613V537.786H559.784C557.425 537.786 556.246 539.067 556.246 541.626V548.517H554.141V535.844H556.246V537.902ZM569.382 548.517L564.41 542.921V548.517H562.305V531.403H564.41V541.464L569.289 535.844H572.226L566.26 542.158L572.25 548.517H569.382ZM585.308 541.695C585.308 542.096 585.285 542.519 585.239 542.967H575.109C575.187 544.216 575.611 545.195 576.381 545.904C577.167 546.598 578.116 546.945 579.226 546.945C580.136 546.945 580.891 546.737 581.492 546.32C582.11 545.889 582.541 545.318 582.787 544.609H585.054C584.715 545.826 584.036 546.821 583.019 547.592C582.001 548.347 580.737 548.726 579.226 548.726C578.023 548.726 576.944 548.456 575.988 547.916C575.048 547.376 574.308 546.613 573.768 545.627C573.229 544.624 572.958 543.467 572.958 542.158C572.958 540.848 573.221 539.698 573.745 538.712C574.27 537.725 575.002 536.969 575.942 536.445C576.898 535.905 577.993 535.636 579.226 535.636C580.428 535.636 581.492 535.898 582.417 536.422C583.342 536.946 584.053 537.671 584.545 538.596C585.054 539.506 585.308 540.539 585.308 541.695ZM583.134 541.256C583.134 540.454 582.957 539.767 582.602 539.197C582.249 538.611 581.763 538.171 581.145 537.879C580.544 537.57 579.873 537.416 579.133 537.416C578.069 537.416 577.161 537.755 576.404 538.434C575.664 539.113 575.241 540.053 575.132 541.256H583.134ZM590.191 537.578V545.048C590.191 545.665 590.322 546.104 590.584 546.367C590.847 546.613 591.301 546.737 591.949 546.737H593.498V548.517H591.602C590.431 548.517 589.552 548.248 588.966 547.708C588.379 547.168 588.087 546.282 588.087 545.048V537.578H586.445V535.844H588.087V532.652H590.191V535.844H593.498V537.578H590.191ZM596.673 533.785C596.272 533.785 595.933 533.647 595.656 533.369C595.378 533.092 595.24 532.753 595.24 532.352C595.24 531.95 595.378 531.612 595.656 531.334C595.933 531.057 596.272 530.918 596.673 530.918C597.058 530.918 597.382 531.057 597.645 531.334C597.922 531.612 598.061 531.95 598.061 532.352C598.061 532.753 597.922 533.092 597.645 533.369C597.382 533.647 597.058 533.785 596.673 533.785ZM597.691 535.844V548.517H595.586V535.844H597.691ZM606.99 535.613C608.531 535.613 609.78 536.083 610.736 537.023C611.693 537.948 612.17 539.29 612.17 541.047V548.517H610.089V541.348C610.089 540.084 609.773 539.12 609.141 538.457C608.508 537.778 607.646 537.44 606.55 537.44C605.44 537.44 604.553 537.786 603.891 538.48C603.243 539.174 602.919 540.183 602.919 541.51V548.517H600.815V535.844H602.919V537.648C603.336 537 603.899 536.5 604.608 536.144C605.333 535.789 606.126 535.613 606.99 535.613ZM620.372 535.636C621.467 535.636 622.422 535.875 623.24 536.353C624.072 536.83 624.689 537.431 625.09 538.157V535.844H627.218V548.795C627.218 549.951 626.972 550.977 626.478 551.871C625.984 552.781 625.275 553.49 624.35 553.999C623.44 554.507 622.376 554.762 621.158 554.762C619.493 554.762 618.106 554.369 616.996 553.582C615.885 552.796 615.23 551.724 615.03 550.368H617.111C617.342 551.139 617.82 551.755 618.545 552.218C619.27 552.695 620.141 552.935 621.158 552.935C622.315 552.935 623.255 552.573 623.98 551.848C624.72 551.123 625.09 550.105 625.09 548.795V546.135C624.674 546.875 624.058 547.492 623.24 547.986C622.422 548.479 621.467 548.726 620.372 548.726C619.247 548.726 618.221 548.448 617.296 547.893C616.386 547.338 615.669 546.56 615.145 545.557C614.622 544.554 614.359 543.415 614.359 542.134C614.359 540.839 614.622 539.706 615.145 538.735C615.669 537.748 616.386 536.985 617.296 536.445C618.221 535.905 619.247 535.636 620.372 535.636ZM625.09 542.158C625.09 541.201 624.897 540.368 624.512 539.66C624.127 538.951 623.602 538.411 622.939 538.041C622.292 537.656 621.575 537.463 620.788 537.463C620.002 537.463 619.285 537.648 618.638 538.018C617.99 538.388 617.473 538.928 617.088 539.637C616.703 540.345 616.51 541.178 616.51 542.134C616.51 543.106 616.703 543.953 617.088 544.678C617.473 545.387 617.99 545.935 618.638 546.32C619.285 546.69 620.002 546.875 620.788 546.875C621.575 546.875 622.292 546.69 622.939 546.32C623.602 545.935 624.127 545.387 624.512 544.678C624.897 543.953 625.09 543.114 625.09 542.158Z" fill="black" fill-opacity="0.6"/>
</g>
<g filter="url(#filter4_d_411_839)">
<path d="M269.37 717H143.823C132.875 717 124 725.875 124 736.823V862.37C124 873.318 132.875 882.193 143.823 882.193H269.37C280.318 882.193 289.193 873.318 289.193 862.37V736.823C289.193 725.875 280.318 717 269.37 717Z" fill="white"/>
</g>
<g filter="url(#filter5_d_411_839)">
<path d="M452.773 126.039H327.227C316.278 126.039 307.403 134.914 307.403 145.862V271.409C307.403 282.357 316.278 291.232 327.227 291.232H452.773C463.722 291.232 472.597 282.357 472.597 271.409V145.862C472.597 134.914 463.722 126.039 452.773 126.039Z" fill="white"/>
<path d="M381.44 203.179L382.251 198.03L380.445 197.988H371.822L377.814 159.99C377.832 159.874 377.891 159.768 377.98 159.692C378.07 159.615 378.184 159.574 378.301 159.574H392.841C397.668 159.574 400.998 160.579 402.738 162.561C403.554 163.491 404.073 164.463 404.324 165.533C404.588 166.655 404.593 167.996 404.335 169.631L404.317 169.751V170.799L405.132 171.26C405.754 171.576 406.314 172.003 406.784 172.519C407.481 173.315 407.932 174.325 408.122 175.523C408.318 176.756 408.254 178.222 407.932 179.882C407.56 181.792 406.959 183.455 406.146 184.816C405.429 186.036 404.466 187.092 403.316 187.917C402.237 188.682 400.956 189.264 399.507 189.636C398.103 190.002 396.5 190.186 394.744 190.186H393.613C392.803 190.186 392.019 190.477 391.401 191C390.785 191.528 390.377 192.257 390.248 193.058L390.162 193.522L388.73 202.598L388.665 202.931C388.649 203.036 388.619 203.089 388.574 203.125C388.533 203.159 388.48 203.178 388.426 203.179H381.44Z" fill="#253B80"/>
<path d="M405.903 169.875C405.86 170.152 405.811 170.436 405.755 170.727C403.838 180.572 397.277 183.973 388.9 183.973H384.633C383.609 183.973 382.745 184.717 382.586 185.728L380.401 199.579L379.783 203.506C379.758 203.662 379.768 203.821 379.811 203.973C379.854 204.124 379.928 204.265 380.031 204.385C380.133 204.505 380.26 204.601 380.404 204.667C380.546 204.733 380.703 204.768 380.86 204.768H388.426C389.323 204.768 390.084 204.117 390.225 203.233L390.299 202.849L391.723 193.808L391.816 193.312C391.954 192.426 392.718 191.775 393.613 191.775H394.744C402.076 191.775 407.815 188.798 409.491 180.186C410.192 176.588 409.828 173.584 407.975 171.471C407.387 170.818 406.686 170.277 405.903 169.875Z" fill="#179BD7"/>
<path d="M403.898 169.071C403.287 168.894 402.664 168.756 402.033 168.657C400.789 168.466 399.532 168.374 398.273 168.383H386.876C386.442 168.383 386.022 168.537 385.693 168.819C385.365 169.101 385.147 169.492 385.079 169.921L382.656 185.276L382.586 185.724C382.661 185.235 382.908 184.79 383.285 184.468C383.66 184.146 384.139 183.969 384.633 183.969H388.9C397.277 183.969 403.838 180.567 405.755 170.724C405.812 170.432 405.86 170.148 405.903 169.871C405.398 169.606 404.871 169.383 404.327 169.206C404.185 169.159 404.041 169.114 403.898 169.071Z" fill="#222D65"/>
<path d="M385.079 169.925C385.145 169.496 385.363 169.105 385.693 168.823C386.022 168.541 386.442 168.387 386.876 168.388H398.273C399.622 168.388 400.883 168.477 402.033 168.663C402.811 168.785 403.579 168.968 404.329 169.21C404.895 169.397 405.421 169.619 405.905 169.875C406.476 166.237 405.901 163.76 403.934 161.517C401.765 159.047 397.852 157.99 392.843 157.99H378.303C377.28 157.99 376.406 158.734 376.248 159.746L370.192 198.135C370.164 198.313 370.175 198.496 370.223 198.669C370.273 198.843 370.358 199.004 370.476 199.141C370.593 199.279 370.738 199.389 370.902 199.465C371.065 199.54 371.244 199.58 371.424 199.58H380.401L382.655 185.28L385.079 169.925Z" fill="#253B80"/>
<path d="M367.554 241.066C368.14 241.159 368.672 241.398 369.149 241.783C369.643 242.169 370.028 242.647 370.306 243.217C370.6 243.788 370.745 244.397 370.745 245.044C370.745 245.862 370.537 246.602 370.121 247.265C369.704 247.912 369.096 248.429 368.294 248.814C367.507 249.184 366.576 249.369 365.495 249.369H359.482V233.25H365.264C366.359 233.25 367.293 233.435 368.062 233.805C368.834 234.159 369.412 234.645 369.797 235.262C370.183 235.878 370.375 236.572 370.375 237.343C370.375 238.299 370.114 239.093 369.589 239.725C369.08 240.342 368.403 240.789 367.554 241.066ZM361.587 240.211H365.125C366.113 240.211 366.876 239.98 367.415 239.517C367.955 239.054 368.224 238.415 368.224 237.597C368.224 236.78 367.955 236.14 367.415 235.678C366.876 235.215 366.097 234.984 365.079 234.984H361.587V240.211ZM365.31 247.635C366.359 247.635 367.177 247.388 367.762 246.895C368.348 246.401 368.641 245.715 368.641 244.836C368.641 243.942 368.333 243.24 367.715 242.732C367.099 242.207 366.275 241.945 365.241 241.945H361.587V247.635H365.31ZM374.29 234.637C373.89 234.637 373.55 234.498 373.273 234.221C372.995 233.943 372.856 233.604 372.856 233.203C372.856 232.802 372.995 232.463 373.273 232.186C373.55 231.908 373.89 231.769 374.29 231.769C374.677 231.769 375 231.908 375.261 232.186C375.539 232.463 375.678 232.802 375.678 233.203C375.678 233.604 375.539 233.943 375.261 234.221C375 234.498 374.677 234.637 374.29 234.637ZM375.308 236.695V249.369H373.203V236.695H375.308ZM380.538 232.255V249.369H378.433V232.255H380.538ZM385.766 232.255V249.369H383.662V232.255H385.766ZM389.977 234.637C389.577 234.637 389.237 234.498 388.959 234.221C388.682 233.943 388.543 233.604 388.543 233.203C388.543 232.802 388.682 232.463 388.959 232.186C389.237 231.908 389.577 231.769 389.977 231.769C390.363 231.769 390.687 231.908 390.948 232.186C391.226 232.463 391.365 232.802 391.365 233.203C391.365 233.604 391.226 233.943 390.948 234.221C390.687 234.498 390.363 234.637 389.977 234.637ZM390.994 236.695V249.369H388.89V236.695H390.994ZM400.295 236.464C401.836 236.464 403.085 236.935 404.041 237.875C404.996 238.8 405.475 240.141 405.475 241.899V249.369H403.394V242.2C403.394 240.935 403.077 239.972 402.446 239.309C401.813 238.63 400.949 238.291 399.855 238.291C398.745 238.291 397.858 238.638 397.196 239.332C396.548 240.026 396.224 241.036 396.224 242.362V249.369H394.12V236.695H396.224V238.499C396.641 237.852 397.202 237.351 397.913 236.996C398.636 236.641 399.431 236.464 400.295 236.464ZM413.677 236.487C414.771 236.487 415.727 236.726 416.545 237.204C417.378 237.682 417.994 238.283 418.395 239.008V236.695H420.523V249.647C420.523 250.803 420.275 251.828 419.783 252.723C419.289 253.632 418.58 254.341 417.655 254.85C416.745 255.359 415.681 255.613 414.463 255.613C412.798 255.613 411.411 255.22 410.301 254.434C409.191 253.648 408.535 252.576 408.335 251.219H410.416C410.648 251.99 411.125 252.607 411.85 253.069C412.574 253.547 413.446 253.786 414.463 253.786C415.62 253.786 416.56 253.424 417.285 252.699C418.025 251.975 418.395 250.957 418.395 249.647V246.987C417.979 247.727 417.361 248.344 416.545 248.837C415.727 249.331 414.771 249.577 413.677 249.577C412.551 249.577 411.526 249.3 410.601 248.745C409.691 248.19 408.974 247.411 408.45 246.409C407.925 245.407 407.664 244.266 407.664 242.986C407.664 241.691 407.925 240.558 408.45 239.586C408.974 238.6 409.691 237.836 410.601 237.297C411.526 236.757 412.551 236.487 413.677 236.487ZM418.395 243.009C418.395 242.053 418.202 241.221 417.817 240.511C417.43 239.802 416.907 239.263 416.244 238.893C415.597 238.507 414.88 238.314 414.093 238.314C413.307 238.314 412.59 238.499 411.943 238.869C411.295 239.239 410.778 239.779 410.393 240.488C410.007 241.197 409.815 242.03 409.815 242.986C409.815 243.957 410.007 244.805 410.393 245.53C410.778 246.239 411.295 246.787 411.943 247.172C412.59 247.542 413.307 247.727 414.093 247.727C414.88 247.727 415.597 247.542 416.244 247.172C416.907 246.787 417.43 246.239 417.817 245.53C418.202 244.805 418.395 243.965 418.395 243.009Z" fill="black" fill-opacity="0.6"/>
</g>
<g filter="url(#filter6_d_411_839)">
<path d="M269.37 534H143.823C132.875 534 124 542.875 124 553.823V679.37C124 690.318 132.875 699.193 143.823 699.193H269.37C280.318 699.193 289.193 690.318 289.193 679.37V553.823C289.193 542.875 280.318 534 269.37 534Z" fill="white"/>
<path d="M198.036 611.14L198.847 605.991L197.042 605.949H188.419L194.41 567.951C194.428 567.835 194.488 567.729 194.577 567.653C194.666 567.576 194.78 567.535 194.898 567.536H209.438C214.265 567.536 217.595 568.54 219.335 570.523C220.151 571.453 220.669 572.425 220.921 573.494C221.185 574.616 221.19 575.957 220.932 577.593L220.914 577.712V578.76L221.728 579.222C222.351 579.537 222.911 579.964 223.38 580.481C224.077 581.276 224.528 582.286 224.718 583.485C224.915 584.717 224.85 586.183 224.528 587.844C224.157 589.753 223.555 591.417 222.743 592.778C222.026 593.997 221.063 595.053 219.913 595.878C218.834 596.644 217.552 597.225 216.103 597.597C214.699 597.963 213.097 598.147 211.341 598.147H210.209C209.4 598.147 208.615 598.439 207.997 598.961C207.381 599.489 206.973 600.219 206.844 601.02L206.758 601.483L205.326 610.559L205.262 610.892C205.245 610.998 205.216 611.05 205.171 611.086C205.13 611.12 205.077 611.14 205.022 611.14H198.036Z" fill="#253B80"/>
<path d="M222.5 577.836C222.457 578.113 222.407 578.397 222.351 578.688C220.435 588.533 213.874 591.934 205.497 591.934H201.23C200.205 591.934 199.341 592.678 199.183 593.689L196.997 607.541L196.38 611.467C196.355 611.623 196.365 611.782 196.408 611.934C196.451 612.086 196.525 612.226 196.627 612.346C196.73 612.466 196.857 612.563 197.001 612.629C197.143 612.695 197.3 612.729 197.457 612.729H205.022C205.919 612.729 206.681 612.078 206.821 611.194L206.896 610.81L208.32 601.77L208.412 601.274C208.551 600.387 209.314 599.736 210.21 599.736H211.341C218.672 599.736 224.411 596.76 226.088 588.147C226.788 584.549 226.425 581.545 224.571 579.432C223.983 578.779 223.283 578.238 222.5 577.836Z" fill="#179BD7"/>
<path d="M220.494 577.033C219.883 576.855 219.26 576.717 218.629 576.619C217.386 576.427 216.128 576.336 214.87 576.344H203.473C203.038 576.344 202.619 576.499 202.29 576.781C201.961 577.063 201.743 577.453 201.676 577.882L199.252 593.238L199.183 593.686C199.257 593.197 199.505 592.751 199.882 592.429C200.257 592.107 200.736 591.931 201.23 591.931H205.497C213.874 591.931 220.435 588.528 222.351 578.685C222.409 578.394 222.457 578.11 222.5 577.832C221.994 577.567 221.467 577.345 220.924 577.167C220.782 577.12 220.638 577.075 220.494 577.033Z" fill="#222D65"/>
<path d="M201.675 577.886C201.742 577.457 201.96 577.066 202.29 576.784C202.619 576.502 203.038 576.348 203.473 576.35H214.869C216.219 576.35 217.48 576.438 218.629 576.624C219.407 576.746 220.175 576.929 220.925 577.171C221.492 577.359 222.017 577.58 222.501 577.836C223.073 574.198 222.498 571.721 220.531 569.478C218.362 567.009 214.448 565.951 209.44 565.951H194.899C193.877 565.951 193.003 566.695 192.844 567.708L186.788 606.096C186.76 606.275 186.772 606.457 186.82 606.631C186.869 606.804 186.955 606.965 187.072 607.103C187.19 607.24 187.335 607.35 187.499 607.426C187.662 607.502 187.841 607.541 188.021 607.541H196.997L199.252 593.241L201.675 577.886Z" fill="#253B80"/>
<path d="M184.15 649.028C184.737 649.12 185.269 649.359 185.746 649.745C186.24 650.13 186.625 650.608 186.902 651.179C187.196 651.749 187.342 652.358 187.342 653.006C187.342 653.823 187.134 654.563 186.717 655.226C186.301 655.873 185.693 656.39 184.89 656.775C184.104 657.145 183.172 657.33 182.092 657.33H176.079V641.211H181.861C182.956 641.211 183.889 641.396 184.659 641.766C185.43 642.121 186.009 642.606 186.394 643.223C186.78 643.84 186.972 644.533 186.972 645.304C186.972 646.26 186.711 647.054 186.185 647.686C185.677 648.303 184.999 648.75 184.15 649.028ZM178.183 648.172H181.722C182.71 648.172 183.473 647.941 184.011 647.478C184.552 647.016 184.821 646.376 184.821 645.559C184.821 644.742 184.552 644.102 184.011 643.639C183.473 643.177 182.693 642.945 181.676 642.945H178.183V648.172ZM181.907 655.596C182.956 655.596 183.774 655.349 184.358 654.856C184.945 654.362 185.237 653.676 185.237 652.798C185.237 651.903 184.93 651.202 184.312 650.693C183.696 650.169 182.872 649.907 181.837 649.907H178.183V655.596H181.907ZM190.887 642.598C190.487 642.598 190.147 642.46 189.869 642.182C189.592 641.905 189.453 641.566 189.453 641.165C189.453 640.764 189.592 640.425 189.869 640.147C190.147 639.869 190.487 639.731 190.887 639.731C191.273 639.731 191.597 639.869 191.858 640.147C192.136 640.425 192.274 640.764 192.274 641.165C192.274 641.566 192.136 641.905 191.858 642.182C191.597 642.46 191.273 642.598 190.887 642.598ZM191.904 644.657V657.33H189.8V644.657H191.904ZM197.134 640.216V657.33H195.03V640.216H197.134ZM202.363 640.216V657.33H200.258V640.216H202.363ZM206.574 642.598C206.174 642.598 205.833 642.46 205.556 642.182C205.278 641.905 205.14 641.566 205.14 641.165C205.14 640.764 205.278 640.425 205.556 640.147C205.833 639.869 206.174 639.731 206.574 639.731C206.96 639.731 207.284 639.869 207.545 640.147C207.822 640.425 207.961 640.764 207.961 641.165C207.961 641.566 207.822 641.905 207.545 642.182C207.284 642.46 206.96 642.598 206.574 642.598ZM207.591 644.657V657.33H205.487V644.657H207.591ZM216.892 644.426C218.433 644.426 219.682 644.896 220.638 645.836C221.593 646.761 222.072 648.103 222.072 649.86V657.33H219.991V650.161C219.991 648.897 219.673 647.933 219.042 647.27C218.41 646.592 217.546 646.253 216.452 646.253C215.342 646.253 214.455 646.599 213.793 647.293C213.145 647.987 212.821 648.997 212.821 650.323V657.33H210.717V644.657H212.821V646.461C213.237 645.813 213.799 645.312 214.509 644.957C215.233 644.603 216.028 644.426 216.892 644.426ZM230.274 644.449C231.367 644.449 232.324 644.688 233.142 645.166C233.974 645.643 234.59 646.245 234.992 646.969V644.657H237.119V657.608C237.119 658.764 236.872 659.79 236.379 660.684C235.885 661.594 235.177 662.303 234.252 662.812C233.341 663.32 232.278 663.575 231.06 663.575C229.395 663.575 228.007 663.182 226.897 662.395C225.787 661.609 225.131 660.537 224.931 659.181H227.013C227.244 659.952 227.722 660.568 228.447 661.031C229.17 661.509 230.043 661.748 231.06 661.748C232.217 661.748 233.156 661.385 233.882 660.661C234.622 659.936 234.992 658.918 234.992 657.608V654.948C234.575 655.688 233.958 656.305 233.142 656.798C232.324 657.292 231.367 657.539 230.274 657.539C229.147 657.539 228.123 657.261 227.198 656.706C226.288 656.151 225.571 655.372 225.047 654.37C224.522 653.368 224.261 652.227 224.261 650.947C224.261 649.652 224.522 648.519 225.047 647.548C225.571 646.561 226.288 645.798 227.198 645.258C228.123 644.718 229.147 644.449 230.274 644.449ZM234.992 650.97C234.992 650.014 234.799 649.182 234.414 648.473C234.027 647.764 233.503 647.224 232.841 646.854C232.193 646.468 231.476 646.276 230.69 646.276C229.904 646.276 229.187 646.461 228.539 646.831C227.892 647.201 227.375 647.74 226.99 648.45C226.603 649.159 226.412 649.991 226.412 650.947C226.412 651.919 226.603 652.767 226.99 653.491C227.375 654.2 227.892 654.748 228.539 655.133C229.187 655.503 229.904 655.688 230.69 655.688C231.476 655.688 232.193 655.503 232.841 655.133C233.503 654.748 234.027 654.2 234.414 653.491C234.799 652.767 234.992 651.926 234.992 650.97Z" fill="black" fill-opacity="0.6"/>
</g>
<g filter="url(#filter7_d_411_839)">
<path d="M449.47 492.768H323.923C312.975 492.768 304.099 501.643 304.099 512.591V638.138C304.099 649.086 312.975 657.961 323.923 657.961H449.47C460.418 657.961 469.293 649.086 469.293 638.138V512.591C469.293 501.643 460.418 492.768 449.47 492.768Z" fill="white"/>
<mask id="mask1_411_839" style="mask-type:luminance" maskUnits="userSpaceOnUse" x="360" y="531" width="54" height="35">
<path d="M413.127 531.075H360.265V565.139H413.127V531.075Z" fill="white"/>
</mask>
<g mask="url(#mask1_411_839)">
<path d="M387.405 543.046L394.341 551.421L400.204 541.376C399.755 539.978 396.466 531.075 385.627 531.075C375.137 531.075 370.315 540.466 371.5 547.825C370.509 546.998 360.711 547.551 360.27 556.032H379.457L387.405 543.046ZM404.084 541.784L393.791 559.456L386.347 551.083L381.478 559.584H360.66C362.489 565.536 369.808 565.083 369.808 565.083H397.472C397.472 565.083 413.122 565.506 413.122 552.902C413.122 544.847 407.874 542.46 404.083 541.784H404.084Z" fill="#2D9EEB"/>
</g>
<path d="M358.013 593.739V609.743H355.909V597.809L350.59 609.743H349.11L343.767 597.786V609.743H341.663V593.739H343.929L349.85 606.968L355.77 593.739H358.013ZM360.334 603.36C360.334 602.065 360.595 600.932 361.121 599.96C361.644 598.972 362.361 598.209 363.272 597.671C364.197 597.13 365.221 596.861 366.347 596.861C367.458 596.861 368.421 597.099 369.238 597.578C370.054 598.056 370.664 598.657 371.065 599.382V597.069H373.193V609.743H371.065V607.384C370.649 608.124 370.025 608.74 369.192 609.234C368.374 609.712 367.418 609.951 366.324 609.951C365.198 609.951 364.18 609.674 363.272 609.119C362.361 608.564 361.644 607.784 361.121 606.783C360.595 605.78 360.334 604.638 360.334 603.36ZM371.065 603.383C371.065 602.427 370.872 601.594 370.487 600.885C370.101 600.175 369.577 599.636 368.915 599.266C368.267 598.88 367.55 598.688 366.764 598.688C365.977 598.688 365.26 598.873 364.613 599.243C363.965 599.613 363.448 600.152 363.063 600.862C362.677 601.571 362.485 602.403 362.485 603.36C362.485 604.331 362.677 605.179 363.063 605.904C363.448 606.613 363.965 607.159 364.613 607.546C365.26 607.916 365.977 608.101 366.764 608.101C367.55 608.101 368.267 607.916 368.915 607.546C369.577 607.159 370.101 606.613 370.487 605.904C370.872 605.179 371.065 604.338 371.065 603.383ZM382.46 596.838C384.003 596.838 385.252 597.307 386.207 598.249C387.163 599.174 387.641 600.515 387.641 602.273V609.743H385.559V602.574C385.559 601.308 385.244 600.345 384.611 599.683C383.98 599.004 383.116 598.665 382.021 598.665C380.911 598.665 380.025 599.012 379.361 599.706C378.714 600.4 378.39 601.409 378.39 602.735V609.743H376.285V597.069H378.39V598.873C378.806 598.226 379.37 597.724 380.078 597.37C380.804 597.015 381.598 596.838 382.46 596.838ZM389.831 603.36C389.831 602.065 390.092 600.932 390.618 599.96C391.141 598.972 391.858 598.209 392.768 597.671C393.694 597.13 394.718 596.861 395.844 596.861C396.954 596.861 397.918 597.099 398.735 597.578C399.551 598.056 400.161 598.657 400.562 599.382V597.069H402.69V609.743H400.562V607.384C400.146 608.124 399.522 608.74 398.689 609.234C397.871 609.712 396.915 609.951 395.821 609.951C394.695 609.951 393.677 609.674 392.768 609.119C391.858 608.564 391.141 607.784 390.618 606.783C390.092 605.78 389.831 604.638 389.831 603.36ZM400.562 603.383C400.562 602.427 400.369 601.594 399.984 600.885C399.598 600.175 399.074 599.636 398.411 599.266C397.764 598.88 397.047 598.688 396.261 598.688C395.474 598.688 394.757 598.873 394.11 599.243C393.462 599.613 392.945 600.152 392.56 600.862C392.174 601.571 391.982 602.403 391.982 603.36C391.982 604.331 392.174 605.179 392.56 605.904C392.945 606.613 393.462 607.159 394.11 607.546C394.757 607.916 395.474 608.101 396.261 608.101C397.047 608.101 397.764 607.916 398.411 607.546C399.074 607.159 399.598 606.613 399.984 605.904C400.369 605.179 400.562 604.338 400.562 603.383ZM411.009 596.861C412.104 596.861 413.061 597.099 413.877 597.578C414.709 598.056 415.327 598.657 415.727 599.382V597.069H417.855V610.021C417.855 611.177 417.609 612.201 417.115 613.096C416.622 614.005 415.912 614.715 414.987 615.224C414.078 615.733 413.015 615.987 411.795 615.987C410.13 615.987 408.743 615.594 407.633 614.808C406.522 614.022 405.868 612.949 405.667 611.593H407.748C407.979 612.363 408.459 612.981 409.182 613.443C409.907 613.921 410.778 614.16 411.795 614.16C412.952 614.16 413.893 613.797 414.617 613.073C415.357 612.348 415.727 611.33 415.727 610.021V607.361C415.311 608.101 414.695 608.717 413.877 609.211C413.061 609.703 412.104 609.951 411.009 609.951C409.884 609.951 408.858 609.674 407.933 609.119C407.025 608.564 406.308 607.784 405.782 606.783C405.259 605.78 404.996 604.638 404.996 603.36C404.996 602.065 405.259 600.932 405.782 599.96C406.308 598.972 407.025 598.209 407.933 597.671C408.858 597.13 409.884 596.861 411.009 596.861ZM415.727 603.383C415.727 602.427 415.535 601.594 415.149 600.885C414.764 600.175 414.24 599.636 413.576 599.266C412.929 598.88 412.212 598.688 411.425 598.688C410.639 598.688 409.922 598.873 409.275 599.243C408.627 599.613 408.112 600.152 407.725 600.862C407.34 601.571 407.147 602.403 407.147 603.36C407.147 604.331 407.34 605.179 407.725 605.904C408.112 606.613 408.627 607.159 409.275 607.546C409.922 607.916 410.639 608.101 411.425 608.101C412.212 608.101 412.929 607.916 413.576 607.546C414.24 607.159 414.764 606.613 415.149 605.904C415.535 605.179 415.727 604.338 415.727 603.383ZM432.512 602.92C432.512 603.32 432.489 603.745 432.443 604.192H422.313C422.391 605.441 422.815 606.419 423.585 607.13C424.372 607.823 425.32 608.17 426.43 608.17C427.34 608.17 428.095 607.962 428.696 607.546C429.314 607.113 429.745 606.543 429.991 605.835H432.258C431.919 607.052 431.24 608.046 430.223 608.818C429.205 609.573 427.941 609.951 426.43 609.951C425.227 609.951 424.149 609.68 423.192 609.142C422.252 608.601 421.512 607.838 420.972 606.852C420.433 605.849 420.162 604.693 420.162 603.383C420.162 602.071 420.425 600.923 420.949 599.937C421.474 598.949 422.206 598.194 423.146 597.671C424.102 597.13 425.198 596.861 426.43 596.861C427.633 596.861 428.696 597.122 429.621 597.648C430.547 598.171 431.257 598.896 431.749 599.821C432.258 600.73 432.512 601.764 432.512 602.92ZM430.338 602.481C430.338 601.678 430.162 600.993 429.806 600.423C429.453 599.836 428.967 599.397 428.349 599.105C427.748 598.796 427.077 598.642 426.337 598.642C425.274 598.642 424.365 598.981 423.608 599.66C422.868 600.337 422.445 601.278 422.336 602.481H430.338Z" fill="black" fill-opacity="0.6"/>
</g>
<g filter="url(#filter8_d_411_839)">
<path d="M269.409 160.729H143.862C132.914 160.729 124.039 169.604 124.039 180.552V306.099C124.039 317.047 132.914 325.923 143.862 325.923H269.409C280.357 325.923 289.232 317.047 289.232 306.099V180.552C289.232 169.604 280.357 160.729 269.409 160.729Z" fill="white"/>
<path d="M183.809 235.897H192.218V215.473L180.204 206.462V232.293C180.204 234.284 181.817 235.897 183.809 235.897Z" fill="#4285F4"/>
<path d="M221.052 235.897H229.462C231.453 235.897 233.066 234.284 233.066 232.293V206.462L221.052 215.473V235.897Z" fill="#34A853"/>
<path d="M221.052 199.855V215.473L233.066 206.463V201.657C233.066 197.203 227.981 194.659 224.416 197.332L221.052 199.855Z" fill="#FBBC04"/>
<path fill-rule="evenodd" clip-rule="evenodd" d="M192.219 215.473V199.855L206.635 210.667L221.052 199.855V215.473L206.635 226.286L192.219 215.473Z" fill="#EA4335"/>
<path d="M180.204 201.657V206.463L192.218 215.473V199.855L188.855 197.332C185.289 194.659 180.204 197.203 180.204 201.657Z" fill="#C5221F"/>
<path d="M162.735 266.091V271.48H168.609V273.214H162.735V278.765H169.303V280.499H160.63V264.357H169.303V266.091H162.735ZM187.265 267.594C188.252 267.594 189.131 267.803 189.902 268.219C190.673 268.62 191.282 269.228 191.729 270.046C192.176 270.864 192.4 271.858 192.4 273.029V280.499H190.318V273.33C190.318 272.066 190.002 271.102 189.37 270.439C188.753 269.76 187.913 269.421 186.849 269.421C185.754 269.421 184.883 269.777 184.236 270.485C183.588 271.179 183.264 272.188 183.264 273.515V280.499H181.183V273.33C181.183 272.066 180.867 271.102 180.235 270.439C179.618 269.76 178.778 269.421 177.714 269.421C176.619 269.421 175.748 269.777 175.101 270.485C174.453 271.179 174.129 272.188 174.129 273.515V280.499H172.025V267.826H174.129V269.653C174.546 268.99 175.101 268.482 175.794 268.126C176.504 267.771 177.282 267.594 178.13 267.594C179.194 267.594 180.135 267.834 180.952 268.311C181.769 268.789 182.378 269.491 182.779 270.416C183.133 269.522 183.719 268.828 184.536 268.335C185.354 267.841 186.263 267.594 187.265 267.594ZM194.603 274.116C194.603 272.821 194.865 271.688 195.389 270.717C195.914 269.73 196.631 268.967 197.54 268.427C198.465 267.887 199.491 267.618 200.616 267.618C201.726 267.618 202.69 267.857 203.507 268.335C204.324 268.812 204.933 269.413 205.334 270.138V267.826H207.462V280.499H205.334V278.14C204.918 278.88 204.293 279.497 203.461 279.991C202.644 280.468 201.688 280.708 200.593 280.708C199.467 280.708 198.45 280.43 197.54 279.875C196.631 279.32 195.914 278.542 195.389 277.539C194.865 276.536 194.603 275.397 194.603 274.116ZM205.334 274.139C205.334 273.183 205.141 272.35 204.756 271.642C204.37 270.933 203.846 270.393 203.183 270.023C202.536 269.638 201.819 269.445 201.032 269.445C200.246 269.445 199.529 269.63 198.881 270C198.234 270.37 197.718 270.91 197.332 271.619C196.947 272.327 196.754 273.16 196.754 274.116C196.754 275.088 196.947 275.935 197.332 276.66C197.718 277.369 198.234 277.917 198.881 278.302C199.529 278.672 200.246 278.857 201.032 278.857C201.819 278.857 202.536 278.672 203.183 278.302C203.846 277.917 204.37 277.369 204.756 276.66C205.141 275.935 205.334 275.096 205.334 274.139ZM211.643 265.767C211.242 265.767 210.903 265.629 210.625 265.351C210.348 265.074 210.209 264.735 210.209 264.334C210.209 263.932 210.348 263.593 210.625 263.316C210.903 263.038 211.242 262.9 211.643 262.9C212.028 262.9 212.352 263.038 212.614 263.316C212.892 263.593 213.03 263.932 213.03 264.334C213.03 264.735 212.892 265.074 212.614 265.351C212.352 265.629 212.028 265.767 211.643 265.767ZM212.66 267.826V280.499H210.556V267.826H212.66ZM217.889 263.385V280.499H215.785V263.385H217.889ZM222.1 265.767C221.699 265.767 221.36 265.629 221.083 265.351C220.805 265.074 220.667 264.735 220.667 264.334C220.667 263.932 220.805 263.593 221.083 263.316C221.36 263.038 221.699 262.9 222.1 262.9C222.486 262.9 222.81 263.038 223.072 263.316C223.349 263.593 223.488 263.932 223.488 264.334C223.488 264.735 223.349 265.074 223.072 265.351C222.81 265.629 222.486 265.767 222.1 265.767ZM223.118 267.826V280.499H221.013V267.826H223.118ZM232.417 267.594C233.959 267.594 235.208 268.065 236.164 269.005C237.12 269.93 237.598 271.272 237.598 273.029V280.499H235.516V273.33C235.516 272.066 235.2 271.102 234.568 270.439C233.936 269.76 233.073 269.421 231.978 269.421C230.868 269.421 229.981 269.768 229.318 270.462C228.671 271.156 228.347 272.165 228.347 273.492V280.499H226.242V267.826H228.347V269.63C228.763 268.982 229.326 268.482 230.035 268.126C230.76 267.771 231.554 267.594 232.417 267.594ZM245.8 267.618C246.894 267.618 247.85 267.857 248.667 268.335C249.5 268.812 250.117 269.413 250.518 270.138V267.826H252.645V280.777C252.645 281.933 252.399 282.959 251.905 283.853C251.412 284.763 250.703 285.472 249.778 285.98C248.868 286.489 247.804 286.744 246.586 286.744C244.921 286.744 243.533 286.351 242.423 285.564C241.313 284.778 240.658 283.706 240.457 282.35H242.539C242.77 283.121 243.248 283.737 243.973 284.2C244.697 284.677 245.568 284.917 246.586 284.917C247.742 284.917 248.683 284.555 249.408 283.83C250.148 283.104 250.518 282.087 250.518 280.777V278.117C250.101 278.857 249.485 279.474 248.667 279.967C247.85 280.461 246.894 280.708 245.8 280.708C244.674 280.708 243.649 280.43 242.724 279.875C241.814 279.32 241.097 278.542 240.573 277.539C240.049 276.536 239.787 275.397 239.787 274.116C239.787 272.821 240.049 271.688 240.573 270.717C241.097 269.73 241.814 268.967 242.724 268.427C243.649 267.887 244.674 267.618 245.8 267.618ZM250.518 274.139C250.518 273.183 250.325 272.35 249.939 271.642C249.554 270.933 249.03 270.393 248.367 270.023C247.719 269.638 247.002 269.445 246.216 269.445C245.43 269.445 244.713 269.63 244.065 270C243.418 270.37 242.901 270.91 242.516 271.619C242.13 272.327 241.937 273.16 241.937 274.116C241.937 275.088 242.13 275.935 242.516 276.66C242.901 277.369 243.418 277.917 244.065 278.302C244.713 278.672 245.43 278.857 246.216 278.857C247.002 278.857 247.719 278.672 248.367 278.302C249.03 277.917 249.554 277.369 249.939 276.66C250.325 275.935 250.518 275.096 250.518 274.139Z" fill="black" fill-opacity="0.6"/>
</g>
<g filter="url(#filter9_d_411_839)">
<path d="M636.37 597H510.823C499.875 597 491 605.875 491 616.823V742.37C491 753.318 499.875 762.193 510.823 762.193H636.37C647.318 762.193 656.193 753.318 656.193 742.37V616.823C656.193 605.875 647.318 597 636.37 597Z" fill="white"/>
<path d="M550.77 672.168H559.18V651.744L547.166 642.733V668.563C547.166 670.555 548.778 672.168 550.77 672.168Z" fill="#4285F4"/>
<path d="M588.014 672.168H596.424C598.415 672.168 600.028 670.555 600.028 668.563V642.733L588.014 651.744V672.168Z" fill="#34A853"/>
<path d="M588.014 636.126V651.744L600.028 642.733V637.928C600.028 633.474 594.943 630.93 591.378 633.603L588.014 636.126Z" fill="#FBBC04"/>
<path fill-rule="evenodd" clip-rule="evenodd" d="M559.18 651.744V636.125L573.596 646.938L588.013 636.125V651.744L573.596 662.556L559.18 651.744Z" fill="#EA4335"/>
<path d="M547.166 637.928V642.733L559.18 651.744V636.126L555.816 633.603C552.25 630.93 547.166 633.474 547.166 637.928Z" fill="#C5221F"/>
<path d="M529.696 702.362V707.751H535.571V709.485H529.696V715.036H536.264V716.77H527.592V700.627H536.264V702.362H529.696ZM554.227 703.865C555.214 703.865 556.093 704.073 556.864 704.49C557.635 704.891 558.243 705.499 558.691 706.317C559.138 707.134 559.361 708.129 559.361 709.3V716.77H557.28V709.601C557.28 708.337 556.964 707.372 556.332 706.71C555.715 706.031 554.875 705.692 553.811 705.692C552.716 705.692 551.845 706.047 551.197 706.756C550.55 707.45 550.226 708.459 550.226 709.786V716.77H548.145V709.601C548.145 708.337 547.829 707.372 547.196 706.71C546.58 706.031 545.739 705.692 544.676 705.692C543.581 705.692 542.71 706.047 542.062 706.756C541.415 707.45 541.091 708.459 541.091 709.786V716.77H538.986V704.096H541.091V705.924C541.507 705.261 542.062 704.752 542.756 704.397C543.465 704.042 544.244 703.865 545.092 703.865C546.156 703.865 547.096 704.105 547.913 704.582C548.731 705.06 549.34 705.762 549.74 706.687C550.095 705.793 550.681 705.099 551.498 704.605C552.315 704.111 553.225 703.865 554.227 703.865ZM561.565 710.387C561.565 709.092 561.827 707.959 562.351 706.987C562.875 706.001 563.592 705.238 564.502 704.698C565.427 704.158 566.452 703.888 567.578 703.888C568.688 703.888 569.652 704.128 570.469 704.605C571.286 705.083 571.895 705.684 572.296 706.409V704.096H574.423V716.77H572.296V714.411C571.879 715.151 571.255 715.767 570.422 716.261C569.605 716.739 568.649 716.978 567.555 716.978C566.429 716.978 565.412 716.701 564.502 716.146C563.592 715.591 562.875 714.813 562.351 713.81C561.827 712.807 561.565 711.667 561.565 710.387ZM572.296 710.41C572.296 709.454 572.103 708.621 571.717 707.912C571.332 707.204 570.808 706.664 570.145 706.294C569.497 705.909 568.78 705.715 567.994 705.715C567.208 705.715 566.491 705.9 565.843 706.27C565.196 706.64 564.679 707.181 564.294 707.889C563.908 708.598 563.715 709.431 563.715 710.387C563.715 711.358 563.908 712.206 564.294 712.931C564.679 713.64 565.196 714.188 565.843 714.573C566.491 714.943 567.208 715.128 567.994 715.128C568.78 715.128 569.497 714.943 570.145 714.573C570.808 714.188 571.332 713.64 571.717 712.931C572.103 712.206 572.296 711.367 572.296 710.41ZM578.604 702.038C578.203 702.038 577.864 701.899 577.587 701.622C577.309 701.344 577.17 701.006 577.17 700.604C577.17 700.203 577.309 699.864 577.587 699.587C577.864 699.309 578.203 699.17 578.604 699.17C578.99 699.17 579.314 699.309 579.576 699.587C579.853 699.864 579.992 700.203 579.992 700.604C579.992 701.006 579.853 701.344 579.576 701.622C579.314 701.899 578.99 702.038 578.604 702.038ZM579.622 704.096V716.77H577.517V704.096H579.622ZM584.851 699.656V716.77H582.746V699.656H584.851ZM589.062 702.038C588.661 702.038 588.322 701.899 588.044 701.622C587.767 701.344 587.628 701.006 587.628 700.604C587.628 700.203 587.767 699.864 588.044 699.587C588.322 699.309 588.661 699.17 589.062 699.17C589.447 699.17 589.771 699.309 590.033 699.587C590.311 699.864 590.45 700.203 590.45 700.604C590.45 701.006 590.311 701.344 590.033 701.622C589.771 701.899 589.447 702.038 589.062 702.038ZM590.08 704.096V716.77H587.975V704.096H590.08ZM599.379 703.865C600.921 703.865 602.169 704.336 603.125 705.276C604.081 706.201 604.559 707.542 604.559 709.3V716.77H602.478V709.601C602.478 708.337 602.162 707.372 601.53 706.71C600.898 706.031 600.034 705.692 598.939 705.692C597.829 705.692 596.943 706.039 596.28 706.733C595.632 707.427 595.309 708.436 595.309 709.763V716.77H593.204V704.096H595.309V705.9C595.725 705.253 596.288 704.752 596.997 704.397C597.722 704.042 598.515 703.865 599.379 703.865ZM612.761 703.888C613.856 703.888 614.812 704.128 615.629 704.605C616.462 705.083 617.078 705.684 617.479 706.409V704.096H619.607V717.048C619.607 718.204 619.36 719.23 618.867 720.124C618.373 721.034 617.664 721.742 616.739 722.251C615.83 722.76 614.766 723.014 613.548 723.014C611.883 723.014 610.495 722.621 609.385 721.835C608.275 721.049 607.619 719.977 607.419 718.62H609.5C609.732 719.392 610.21 720.008 610.934 720.47C611.659 720.948 612.53 721.187 613.548 721.187C614.704 721.187 615.644 720.826 616.369 720.1C617.109 719.375 617.479 718.358 617.479 717.048V714.388C617.063 715.128 616.446 715.744 615.629 716.238C614.812 716.732 613.856 716.978 612.761 716.978C611.636 716.978 610.611 716.701 609.685 716.146C608.776 715.591 608.059 714.813 607.535 713.81C607.01 712.807 606.748 711.667 606.748 710.387C606.748 709.092 607.01 707.959 607.535 706.987C608.059 706.001 608.776 705.238 609.685 704.698C610.611 704.158 611.636 703.888 612.761 703.888ZM617.479 710.41C617.479 709.454 617.287 708.621 616.901 707.912C616.516 707.204 615.991 706.664 615.328 706.294C614.681 705.909 613.964 705.715 613.178 705.715C612.391 705.715 611.674 705.9 611.027 706.27C610.379 706.64 609.863 707.181 609.477 707.889C609.092 708.598 608.899 709.431 608.899 710.387C608.899 711.358 609.092 712.206 609.477 712.931C609.863 713.64 610.379 714.188 611.027 714.573C611.674 714.943 612.391 715.128 613.178 715.128C613.964 715.128 614.681 714.943 615.328 714.573C615.991 714.188 616.516 713.64 616.901 712.931C617.287 712.206 617.479 711.367 617.479 710.41Z" fill="black" fill-opacity="0.6"/>
</g>
<g filter="url(#filter10_d_411_839)">
<path d="M269.409 347.398H143.862C132.914 347.398 124.039 356.273 124.039 367.221V492.768C124.039 503.716 132.914 512.591 143.862 512.591H269.409C280.357 512.591 289.232 503.716 289.232 492.768V367.221C289.232 356.273 280.357 347.398 269.409 347.398Z" fill="white"/>
<path d="M193.42 380.235L180.205 388.713L193.42 397.067L206.635 388.713L193.42 380.235ZM219.851 380.235L206.635 388.713L219.851 397.067L233.066 388.713L219.851 380.235ZM180.205 405.544L193.42 414.022L206.635 405.544L193.42 397.067L180.205 405.544ZM219.851 397.067L206.635 405.544L219.851 414.022L233.066 405.544L219.851 397.067ZM193.42 416.764L206.635 425.242L219.851 416.764L206.635 408.41L193.42 416.764Z" fill="#0062FF"/>
<path d="M169.406 472.124C168.342 472.124 167.386 471.939 166.538 471.569C165.706 471.184 165.05 470.66 164.572 469.996C164.094 469.319 163.848 468.539 163.832 467.66H166.076C166.153 468.417 166.461 469.056 167.001 469.58C167.556 470.089 168.357 470.343 169.406 470.343C170.408 470.343 171.194 470.097 171.765 469.603C172.351 469.094 172.644 468.447 172.644 467.66C172.644 467.044 172.474 466.544 172.135 466.157C171.796 465.772 171.372 465.48 170.863 465.278C170.354 465.078 169.668 464.862 168.805 464.631C167.741 464.353 166.885 464.076 166.237 463.798C165.605 463.52 165.058 463.089 164.595 462.503C164.148 461.902 163.925 461.1 163.925 460.098C163.925 459.219 164.148 458.441 164.595 457.762C165.042 457.085 165.667 456.559 166.469 456.189C167.286 455.819 168.219 455.634 169.267 455.634C170.778 455.634 172.011 456.012 172.967 456.767C173.939 457.524 174.486 458.525 174.609 459.774H172.297C172.22 459.158 171.896 458.618 171.325 458.155C170.755 457.678 169.999 457.438 169.059 457.438C168.18 457.438 167.463 457.669 166.908 458.132C166.353 458.58 166.076 459.212 166.076 460.028C166.076 460.615 166.237 461.092 166.561 461.462C166.9 461.832 167.309 462.118 167.787 462.318C168.28 462.503 168.966 462.719 169.845 462.965C170.909 463.259 171.765 463.552 172.412 463.844C173.06 464.122 173.615 464.561 174.078 465.163C174.54 465.749 174.771 466.55 174.771 467.568C174.771 468.354 174.563 469.094 174.147 469.788C173.731 470.482 173.114 471.045 172.297 471.476C171.48 471.909 170.516 472.124 169.406 472.124ZM179.973 461.023V468.493C179.973 469.111 180.104 469.55 180.366 469.811C180.628 470.059 181.083 470.181 181.731 470.181H183.28V471.962H181.384C180.212 471.962 179.333 471.693 178.747 471.152C178.161 470.614 177.868 469.727 177.868 468.493V461.023H176.226V459.288H177.868V456.097H179.973V459.288H183.28V461.023H179.973ZM190.895 472.17C189.708 472.17 188.628 471.901 187.657 471.361C186.701 470.822 185.946 470.059 185.391 469.071C184.851 468.07 184.581 466.914 184.581 465.602C184.581 464.307 184.859 463.167 185.414 462.179C185.984 461.178 186.755 460.415 187.727 459.89C188.698 459.351 189.785 459.08 190.987 459.08C192.19 459.08 193.277 459.351 194.248 459.89C195.22 460.415 195.983 461.17 196.538 462.156C197.108 463.144 197.394 464.292 197.394 465.602C197.394 466.914 197.101 468.07 196.515 469.071C195.944 470.059 195.166 470.822 194.179 471.361C193.192 471.901 192.098 472.17 190.895 472.17ZM190.895 470.32C191.65 470.32 192.36 470.143 193.023 469.788C193.686 469.434 194.217 468.902 194.618 468.192C195.035 467.483 195.243 466.62 195.243 465.602C195.243 464.584 195.042 463.722 194.642 463.012C194.241 462.303 193.716 461.779 193.069 461.439C192.421 461.086 191.72 460.907 190.964 460.907C190.193 460.907 189.484 461.086 188.837 461.439C188.204 461.779 187.696 462.303 187.31 463.012C186.925 463.722 186.732 464.584 186.732 465.602C186.732 466.636 186.917 467.507 187.287 468.215C187.672 468.926 188.181 469.458 188.813 469.811C189.446 470.151 190.139 470.32 190.895 470.32ZM201.803 461.347C202.173 460.623 202.697 460.06 203.375 459.658C204.069 459.259 204.909 459.057 205.896 459.057V461.231H205.341C202.982 461.231 201.803 462.511 201.803 465.07V471.962H199.698V459.288H201.803V461.347ZM207.077 465.579C207.077 464.284 207.339 463.15 207.863 462.179C208.387 461.193 209.104 460.43 210.014 459.89C210.939 459.351 211.964 459.08 213.09 459.08C214.2 459.08 215.163 459.32 215.981 459.797C216.798 460.276 217.407 460.877 217.808 461.601V459.288H219.935V471.962H217.808V469.603C217.391 470.343 216.767 470.961 215.934 471.453C215.117 471.932 214.161 472.17 213.067 472.17C211.941 472.17 210.924 471.892 210.014 471.337C209.104 470.782 208.387 470.004 207.863 469.002C207.339 468.001 207.077 466.859 207.077 465.579ZM217.808 465.602C217.808 464.647 217.615 463.815 217.23 463.104C216.844 462.396 216.32 461.855 215.657 461.485C215.009 461.1 214.292 460.907 213.506 460.907C212.72 460.907 212.003 461.092 211.355 461.462C210.708 461.832 210.191 462.372 209.806 463.081C209.42 463.791 209.228 464.624 209.228 465.579C209.228 466.55 209.42 467.399 209.806 468.123C210.191 468.833 210.708 469.38 211.355 469.765C212.003 470.135 212.72 470.32 213.506 470.32C214.292 470.32 215.009 470.135 215.657 469.765C216.32 469.38 216.844 468.833 217.23 468.123C217.615 467.399 217.808 466.558 217.808 465.602ZM228.256 459.08C229.351 459.08 230.307 459.32 231.124 459.797C231.956 460.276 232.573 460.877 232.974 461.601V459.288H235.102V472.239C235.102 473.396 234.855 474.422 234.362 475.315C233.868 476.226 233.159 476.934 232.234 477.443C231.324 477.952 230.26 478.206 229.042 478.206C227.377 478.206 225.99 477.813 224.879 477.027C223.769 476.24 223.114 475.17 222.914 473.812H224.995C225.226 474.583 225.704 475.2 226.429 475.662C227.154 476.141 228.025 476.379 229.042 476.379C230.199 476.379 231.139 476.017 231.864 475.292C232.604 474.569 232.974 473.551 232.974 472.239V469.58C232.558 470.32 231.941 470.938 231.124 471.43C230.307 471.924 229.351 472.17 228.256 472.17C227.131 472.17 226.105 471.892 225.18 471.337C224.271 470.782 223.554 470.004 223.029 469.002C222.505 468.001 222.243 466.859 222.243 465.579C222.243 464.284 222.505 463.15 223.029 462.179C223.554 461.193 224.271 460.43 225.18 459.89C226.105 459.351 227.131 459.08 228.256 459.08ZM232.974 465.602C232.974 464.647 232.781 463.815 232.396 463.104C232.01 462.396 231.486 461.855 230.823 461.485C230.176 461.1 229.459 460.907 228.672 460.907C227.886 460.907 227.169 461.092 226.522 461.462C225.874 461.832 225.358 462.372 224.972 463.081C224.587 463.791 224.394 464.624 224.394 465.579C224.394 466.55 224.587 467.399 224.972 468.123C225.358 468.833 225.874 469.38 226.522 469.765C227.169 470.135 227.886 470.32 228.672 470.32C229.459 470.32 230.176 470.135 230.823 469.765C231.486 469.38 232.01 468.833 232.396 468.123C232.781 467.399 232.974 466.558 232.974 465.602ZM249.759 465.139C249.759 465.541 249.736 465.965 249.69 466.411H239.56C239.637 467.66 240.061 468.64 240.832 469.349C241.619 470.042 242.567 470.389 243.677 470.389C244.587 470.389 245.342 470.181 245.943 469.765C246.56 469.334 246.992 468.764 247.238 468.053H249.505C249.166 469.273 248.487 470.267 247.47 471.037C246.452 471.793 245.188 472.17 243.677 472.17C242.474 472.17 241.395 471.901 240.439 471.361C239.499 470.822 238.759 470.059 238.219 469.071C237.679 468.07 237.409 466.914 237.409 465.602C237.409 464.292 237.672 463.144 238.196 462.156C238.72 461.17 239.452 460.415 240.393 459.89C241.349 459.351 242.443 459.08 243.677 459.08C244.879 459.08 245.943 459.343 246.868 459.866C247.793 460.392 248.503 461.115 248.996 462.04C249.505 462.951 249.759 463.983 249.759 465.139ZM247.585 464.7C247.585 463.899 247.408 463.213 247.053 462.642C246.699 462.057 246.213 461.617 245.596 461.323C244.995 461.016 244.324 460.861 243.584 460.861C242.52 460.861 241.611 461.201 240.855 461.878C240.115 462.557 239.691 463.497 239.583 464.7H247.585Z" fill="black" fill-opacity="0.6"/>
</g>
</g>
</g>
<rect y="127" width="781" height="626" fill="url(#paint0_linear_411_839)"/>
</g>
<defs>
<filter id="filter0_d_411_839" x="470.768" y="215.066" width="205.193" height="205.193" filterUnits="userSpaceOnUse" color-interpolation-filters="sRGB">
<feFlood flood-opacity="0" result="BackgroundImageFix"/>
<feColorMatrix in="SourceAlpha" type="matrix" values="0 0 0 0 0 0 0 0 0 0 0 0 0 0 0 0 0 0 127 0" result="hardAlpha"/>
<feOffset/>
<feGaussianBlur stdDeviation="10"/>
<feComposite in2="hardAlpha" operator="out"/>
<feColorMatrix type="matrix" values="0 0 0 0 0 0 0 0 0 0 0 0 0 0 0 0 0 0 0.08 0"/>
<feBlend mode="normal" in2="BackgroundImageFix" result="effect1_dropShadow_411_839"/>
<feBlend mode="normal" in="SourceGraphic" in2="effect1_dropShadow_411_839" result="shape"/>
</filter>
<filter id="filter1_d_411_839" x="284" y="656" width="205.193" height="205.193" filterUnits="userSpaceOnUse" color-interpolation-filters="sRGB">
<feFlood flood-opacity="0" result="BackgroundImageFix"/>
<feColorMatrix in="SourceAlpha" type="matrix" values="0 0 0 0 0 0 0 0 0 0 0 0 0 0 0 0 0 0 127 0" result="hardAlpha"/>
<feOffset/>
<feGaussianBlur stdDeviation="10"/>
<feComposite in2="hardAlpha" operator="out"/>
<feColorMatrix type="matrix" values="0 0 0 0 0 0 0 0 0 0 0 0 0 0 0 0 0 0 0.08 0"/>
<feBlend mode="normal" in2="BackgroundImageFix" result="effect1_dropShadow_411_839"/>
<feBlend mode="normal" in="SourceGraphic" in2="effect1_dropShadow_411_839" result="shape"/>
</filter>
<filter id="filter2_d_411_839" x="287.403" y="289.403" width="205.193" height="205.193" filterUnits="userSpaceOnUse" color-interpolation-filters="sRGB">
<feFlood flood-opacity="0" result="BackgroundImageFix"/>
<feColorMatrix in="SourceAlpha" type="matrix" values="0 0 0 0 0 0 0 0 0 0 0 0 0 0 0 0 0 0 127 0" result="hardAlpha"/>
<feOffset/>
<feGaussianBlur stdDeviation="10"/>
<feComposite in2="hardAlpha" operator="out"/>
<feColorMatrix type="matrix" values="0 0 0 0 0 0 0 0 0 0 0 0 0 0 0 0 0 0 0.08 0"/>
<feBlend mode="normal" in2="BackgroundImageFix" result="effect1_dropShadow_411_839"/>
<feBlend mode="normal" in="SourceGraphic" in2="effect1_dropShadow_411_839" result="shape"/>
</filter>
<filter id="filter3_d_411_839" x="470.768" y="398.431" width="205.193" height="205.193" filterUnits="userSpaceOnUse" color-interpolation-filters="sRGB">
<feFlood flood-opacity="0" result="BackgroundImageFix"/>
<feColorMatrix in="SourceAlpha" type="matrix" values="0 0 0 0 0 0 0 0 0 0 0 0 0 0 0 0 0 0 127 0" result="hardAlpha"/>
<feOffset/>
<feGaussianBlur stdDeviation="10"/>
<feComposite in2="hardAlpha" operator="out"/>
<feColorMatrix type="matrix" values="0 0 0 0 0 0 0 0 0 0 0 0 0 0 0 0 0 0 0.08 0"/>
<feBlend mode="normal" in2="BackgroundImageFix" result="effect1_dropShadow_411_839"/>
<feBlend mode="normal" in="SourceGraphic" in2="effect1_dropShadow_411_839" result="shape"/>
</filter>
<filter id="filter4_d_411_839" x="104" y="697" width="205.193" height="205.193" filterUnits="userSpaceOnUse" color-interpolation-filters="sRGB">
<feFlood flood-opacity="0" result="BackgroundImageFix"/>
<feColorMatrix in="SourceAlpha" type="matrix" values="0 0 0 0 0 0 0 0 0 0 0 0 0 0 0 0 0 0 127 0" result="hardAlpha"/>
<feOffset/>
<feGaussianBlur stdDeviation="10"/>
<feComposite in2="hardAlpha" operator="out"/>
<feColorMatrix type="matrix" values="0 0 0 0 0 0 0 0 0 0 0 0 0 0 0 0 0 0 0.08 0"/>
<feBlend mode="normal" in2="BackgroundImageFix" result="effect1_dropShadow_411_839"/>
<feBlend mode="normal" in="SourceGraphic" in2="effect1_dropShadow_411_839" result="shape"/>
</filter>
<filter id="filter5_d_411_839" x="287.403" y="106.039" width="205.193" height="205.193" filterUnits="userSpaceOnUse" color-interpolation-filters="sRGB">
<feFlood flood-opacity="0" result="BackgroundImageFix"/>
<feColorMatrix in="SourceAlpha" type="matrix" values="0 0 0 0 0 0 0 0 0 0 0 0 0 0 0 0 0 0 127 0" result="hardAlpha"/>
<feOffset/>
<feGaussianBlur stdDeviation="10"/>
<feComposite in2="hardAlpha" operator="out"/>
<feColorMatrix type="matrix" values="0 0 0 0 0 0 0 0 0 0 0 0 0 0 0 0 0 0 0.08 0"/>
<feBlend mode="normal" in2="BackgroundImageFix" result="effect1_dropShadow_411_839"/>
<feBlend mode="normal" in="SourceGraphic" in2="effect1_dropShadow_411_839" result="shape"/>
</filter>
<filter id="filter6_d_411_839" x="104" y="514" width="205.193" height="205.193" filterUnits="userSpaceOnUse" color-interpolation-filters="sRGB">
<feFlood flood-opacity="0" result="BackgroundImageFix"/>
<feColorMatrix in="SourceAlpha" type="matrix" values="0 0 0 0 0 0 0 0 0 0 0 0 0 0 0 0 0 0 127 0" result="hardAlpha"/>
<feOffset/>
<feGaussianBlur stdDeviation="10"/>
<feComposite in2="hardAlpha" operator="out"/>
<feColorMatrix type="matrix" values="0 0 0 0 0 0 0 0 0 0 0 0 0 0 0 0 0 0 0.08 0"/>
<feBlend mode="normal" in2="BackgroundImageFix" result="effect1_dropShadow_411_839"/>
<feBlend mode="normal" in="SourceGraphic" in2="effect1_dropShadow_411_839" result="shape"/>
</filter>
<filter id="filter7_d_411_839" x="284.099" y="472.768" width="205.193" height="205.193" filterUnits="userSpaceOnUse" color-interpolation-filters="sRGB">
<feFlood flood-opacity="0" result="BackgroundImageFix"/>
<feColorMatrix in="SourceAlpha" type="matrix" values="0 0 0 0 0 0 0 0 0 0 0 0 0 0 0 0 0 0 127 0" result="hardAlpha"/>
<feOffset/>
<feGaussianBlur stdDeviation="10"/>
<feComposite in2="hardAlpha" operator="out"/>
<feColorMatrix type="matrix" values="0 0 0 0 0 0 0 0 0 0 0 0 0 0 0 0 0 0 0.08 0"/>
<feBlend mode="normal" in2="BackgroundImageFix" result="effect1_dropShadow_411_839"/>
<feBlend mode="normal" in="SourceGraphic" in2="effect1_dropShadow_411_839" result="shape"/>
</filter>
<filter id="filter8_d_411_839" x="104.039" y="140.729" width="205.193" height="205.193" filterUnits="userSpaceOnUse" color-interpolation-filters="sRGB">
<feFlood flood-opacity="0" result="BackgroundImageFix"/>
<feColorMatrix in="SourceAlpha" type="matrix" values="0 0 0 0 0 0 0 0 0 0 0 0 0 0 0 0 0 0 127 0" result="hardAlpha"/>
<feOffset/>
<feGaussianBlur stdDeviation="10"/>
<feComposite in2="hardAlpha" operator="out"/>
<feColorMatrix type="matrix" values="0 0 0 0 0 0 0 0 0 0 0 0 0 0 0 0 0 0 0.08 0"/>
<feBlend mode="normal" in2="BackgroundImageFix" result="effect1_dropShadow_411_839"/>
<feBlend mode="normal" in="SourceGraphic" in2="effect1_dropShadow_411_839" result="shape"/>
</filter>
<filter id="filter9_d_411_839" x="471" y="577" width="205.193" height="205.193" filterUnits="userSpaceOnUse" color-interpolation-filters="sRGB">
<feFlood flood-opacity="0" result="BackgroundImageFix"/>
<feColorMatrix in="SourceAlpha" type="matrix" values="0 0 0 0 0 0 0 0 0 0 0 0 0 0 0 0 0 0 127 0" result="hardAlpha"/>
<feOffset/>
<feGaussianBlur stdDeviation="10"/>
<feComposite in2="hardAlpha" operator="out"/>
<feColorMatrix type="matrix" values="0 0 0 0 0 0 0 0 0 0 0 0 0 0 0 0 0 0 0.08 0"/>
<feBlend mode="normal" in2="BackgroundImageFix" result="effect1_dropShadow_411_839"/>
<feBlend mode="normal" in="SourceGraphic" in2="effect1_dropShadow_411_839" result="shape"/>
</filter>
<filter id="filter10_d_411_839" x="104.039" y="327.398" width="205.193" height="205.193" filterUnits="userSpaceOnUse" color-interpolation-filters="sRGB">
<feFlood flood-opacity="0" result="BackgroundImageFix"/>
<feColorMatrix in="SourceAlpha" type="matrix" values="0 0 0 0 0 0 0 0 0 0 0 0 0 0 0 0 0 0 127 0" result="hardAlpha"/>
<feOffset/>
<feGaussianBlur stdDeviation="10"/>
<feComposite in2="hardAlpha" operator="out"/>
<feColorMatrix type="matrix" values="0 0 0 0 0 0 0 0 0 0 0 0 0 0 0 0 0 0 0.08 0"/>
<feBlend mode="normal" in2="BackgroundImageFix" result="effect1_dropShadow_411_839"/>
<feBlend mode="normal" in="SourceGraphic" in2="effect1_dropShadow_411_839" result="shape"/>
</filter>
<linearGradient id="paint0_linear_411_839" x1="390.5" y1="127" x2="390.5" y2="753" gradientUnits="userSpaceOnUse">
<stop offset="0.453125" stop-color="#F6DCD7" stop-opacity="0"/>
<stop offset="1" stop-color="#F6DCD7"/>
</linearGradient>
<clipPath id="clip0_411_839">
<rect width="780" height="728" fill="white"/>
</clipPath>
<clipPath id="clip1_411_839">
<rect x="46" y="16" width="688" height="712" rx="16" fill="white"/>
</clipPath>
<clipPath id="clip2_411_839">
<rect width="598" height="650" fill="white" transform="translate(91 93)"/>
</clipPath>
</defs>
</svg>
