<svg width="56" height="58" viewBox="0 0 56 58" fill="none" xmlns="http://www.w3.org/2000/svg">
<circle cx="17.434" cy="17.434" r="17.434" fill="#0AB975" fill-opacity="0.13"/>
<path fill-rule="evenodd" clip-rule="evenodd" d="M40.1507 19.0188H49.6602C50.5006 19.0198 51.3063 19.3541 51.9005 19.9483C52.4948 20.5426 52.829 21.3483 52.83 22.1886V38.0377C52.8305 41.6904 51.5691 45.2311 49.2593 48.0608C46.9495 50.8905 43.7331 52.8354 40.1543 53.5664C36.5755 54.2974 32.854 53.7697 29.6195 52.0726C26.3851 50.3754 23.8362 47.613 22.4041 44.2528C18.5603 43.7858 15.02 41.9292 12.4503 39.0328C9.88048 36.1365 8.45864 32.4003 8.45264 28.5283V12.6792C8.4536 11.8388 8.78787 11.0331 9.38212 10.4389C9.97636 9.84464 10.7821 9.51036 11.6224 9.5094H36.9809C37.8213 9.51036 38.627 9.84464 39.2213 10.4389C39.8155 11.0331 40.1498 11.8388 40.1507 12.6792V19.0188ZM11.6224 12.6792V28.5283C11.6274 31.3836 12.595 34.1538 14.3688 36.3913C16.1427 38.6288 18.6192 40.2027 21.3981 40.8588C21.225 39.9283 21.1359 38.9842 21.1319 38.0377V22.1886C21.1328 21.3483 21.4671 20.5426 22.0614 19.9483C22.6556 19.3541 23.4613 19.0198 24.3017 19.0188H36.9809V12.6792H11.6224ZM45.9465 47.0033C48.3243 44.6255 49.6602 41.4004 49.6602 38.0377V22.1886H24.3017V38.0377C24.3017 41.4004 25.6375 44.6255 28.0154 47.0033C30.3932 49.3811 33.6182 50.7169 36.9809 50.7169C40.3437 50.7169 43.5687 49.3811 45.9465 47.0033ZM30.6413 28.5284C30.0144 28.5284 29.4015 28.7143 28.8803 29.0626C28.359 29.4109 27.9527 29.906 27.7128 30.4852C27.4729 31.0644 27.4101 31.7017 27.5324 32.3166C27.6547 32.9315 27.9566 33.4963 28.3999 33.9396C28.8432 34.3829 29.408 34.6848 30.0229 34.8071C30.6378 34.9294 31.2751 34.8667 31.8544 34.6268C32.4336 34.3868 32.9286 33.9806 33.2769 33.4593C33.6252 32.938 33.8111 32.3252 33.8111 31.6982C33.8152 31.2808 33.7361 30.8668 33.5782 30.4804C33.4204 30.0939 33.187 29.7428 32.8919 29.4477C32.5967 29.1525 32.2456 28.9192 31.8592 28.7613C31.4728 28.6035 31.0587 28.5243 30.6413 28.5284ZM41.5595 29.0626C42.0808 28.7143 42.6936 28.5284 43.3206 28.5284C43.738 28.5243 44.152 28.6035 44.5384 28.7613C44.9249 28.9192 45.2759 29.1525 45.5711 29.4477C45.8663 29.7428 46.0996 30.0939 46.2575 30.4804C46.4153 30.8668 46.4945 31.2808 46.4904 31.6982C46.4904 32.3252 46.3045 32.938 45.9562 33.4593C45.6079 33.9806 45.1128 34.3868 44.5336 34.6268C43.9544 34.8667 43.317 34.9294 42.7022 34.8071C42.0873 34.6848 41.5225 34.3829 41.0792 33.9396C40.6359 33.4963 40.334 32.9315 40.2117 32.3166C40.0894 31.7017 40.1521 31.0644 40.392 30.4852C40.632 29.906 41.0382 29.4109 41.5595 29.0626ZM31.7345 44.646C33.3477 45.5113 35.1503 45.9634 36.9809 45.9619C38.8116 45.9634 40.6141 45.5113 42.2274 44.646C43.8406 43.7807 45.2143 42.5291 46.2257 41.0032L43.5852 39.248C42.8622 40.3378 41.8808 41.2317 40.7285 41.8501C39.5761 42.4684 38.2887 42.792 36.9809 42.792C35.6732 42.792 34.3857 42.4684 33.2334 41.8501C32.081 41.2317 31.0996 40.3378 30.3766 39.248L27.7362 41.0032C28.7475 42.5291 30.1212 43.7807 31.7345 44.646Z" fill="#0AB975"/>
</svg>
