<svg width="472" height="238" viewBox="0 0 472 238" fill="none" xmlns="http://www.w3.org/2000/svg">
<g filter="url(#filter0_d_2153_2408)">
<rect x="76" y="60" width="320" height="86" rx="43" fill="white"/>
</g>
<path d="M308.321 103.824H304.083V101.796H308.321V97.61H310.557V101.796H314.795V103.824H310.557V107.984H308.321V103.824ZM325.881 99.69L323.463 99.456C323.463 96.284 325.985 94.204 329.105 94.204C332.069 94.204 334.591 96.076 334.591 99.43C334.591 102.654 332.329 104.006 330.197 105.28C328.559 106.268 327.181 107.126 326.635 108.608H334.695V111H323.307C323.437 106.71 326.141 105.046 328.507 103.59C330.405 102.42 332.069 101.38 332.069 99.3C332.069 97.454 330.769 96.57 329.027 96.57C327.025 96.57 325.933 97.766 325.881 99.69ZM344.32 107.724H335.272V105.774L344.19 94.516H347.102V105.28H349.364V107.724H347.102V111H344.32V107.724ZM344.32 97.818L338.522 105.28H344.32V97.818ZM354.004 103.564C351.066 103.564 349.948 101.016 349.948 98.936C349.948 96.856 351.066 94.334 354.004 94.334C356.942 94.334 358.034 96.856 358.034 98.936C358.034 101.042 356.942 103.564 354.004 103.564ZM354.992 111H352.392L363.754 94.464H366.38L354.992 111ZM354.004 101.588C355.434 101.588 355.772 100.028 355.772 98.936C355.772 97.844 355.434 96.31 354.004 96.31C352.6 96.31 352.236 97.87 352.236 98.936C352.236 100.028 352.6 101.588 354.004 101.588ZM364.534 111.13C361.596 111.13 360.504 108.608 360.504 106.502C360.504 104.422 361.596 101.926 364.534 101.926C367.498 101.926 368.616 104.422 368.616 106.502C368.616 108.608 367.498 111.13 364.534 111.13ZM364.534 109.154C365.964 109.154 366.328 107.594 366.328 106.502C366.328 105.436 365.964 103.876 364.534 103.876C363.13 103.876 362.766 105.436 362.766 106.502C362.766 107.594 363.104 109.154 364.534 109.154Z" fill="#4F46E5"/>
<circle cx="123" cy="103" r="27" fill="#4F46E5"/>
<path d="M111.845 105.72H113.825C114.065 106.94 115.065 107.42 116.325 107.42C118.945 107.42 119.385 105.2 119.465 102.98C118.685 104.02 117.545 104.5 116.225 104.5C113.885 104.5 111.785 103.06 111.785 100.44C111.785 97.52 114.005 96.14 116.725 96.14C120.325 96.14 121.505 98.86 121.505 102.02C121.505 105.66 120.865 109.2 116.345 109.2C114.145 109.2 111.845 108.22 111.845 105.72ZM113.685 100.34C113.685 102.04 115.145 102.88 116.665 102.88C118.225 102.88 119.325 101.94 119.325 100.34C119.325 98.68 118.205 97.92 116.605 97.92C115.085 97.92 113.685 98.7 113.685 100.34ZM122.71 107.76C122.71 106.98 123.33 106.42 124.05 106.42C124.81 106.42 125.37 106.98 125.37 107.76C125.37 108.52 124.81 109.1 124.05 109.1C123.31 109.1 122.71 108.54 122.71 107.76ZM135.55 96.34V98.3C134.07 99.7 130.93 102.8 130.35 109H128.11C128.71 101.66 133.53 98.18 133.61 98.12H126.21V96.34H135.55Z" fill="white"/>
<rect x="166" y="85" width="102" height="12" rx="6" fill="#F0F0F6"/>
<rect x="166" y="109" width="70" height="12" rx="6" fill="#F0F0F6"/>
<defs>
<filter id="filter0_d_2153_2408" x="0" y="0" width="472" height="238" filterUnits="userSpaceOnUse" color-interpolation-filters="sRGB">
<feFlood flood-opacity="0" result="BackgroundImageFix"/>
<feColorMatrix in="SourceAlpha" type="matrix" values="0 0 0 0 0 0 0 0 0 0 0 0 0 0 0 0 0 0 127 0" result="hardAlpha"/>
<feMorphology radius="4" operator="erode" in="SourceAlpha" result="effect1_dropShadow_2153_2408"/>
<feOffset dy="16"/>
<feGaussianBlur stdDeviation="40"/>
<feComposite in2="hardAlpha" operator="out"/>
<feColorMatrix type="matrix" values="0 0 0 0 0 0 0 0 0 0 0 0 0 0 0 0 0 0 0.12 0"/>
<feBlend mode="normal" in2="BackgroundImageFix" result="effect1_dropShadow_2153_2408"/>
<feBlend mode="normal" in="SourceGraphic" in2="effect1_dropShadow_2153_2408" result="shape"/>
</filter>
</defs>
</svg>
