<svg width="250" height="200" viewBox="0 0 250 200" fill="none" xmlns="http://www.w3.org/2000/svg">
<rect width="250" height="200" rx="16" fill="white"/>
<path d="M23.7955 96.6162H22.9855V95.6462C21.5755 95.5062 20.8755 94.7762 20.6455 94.1662L21.5755 93.8162C21.8155 94.2762 22.2255 94.6162 22.9855 94.7262V92.8862L22.7955 92.8562C21.4755 92.6162 20.7455 91.9262 20.7455 91.0362C20.7455 90.0462 21.5255 89.2662 22.9855 89.1562V88.1962H23.7955V89.1562C24.7355 89.2262 25.5455 89.5862 25.9455 90.3262L25.1255 90.8662C24.8855 90.5362 24.5055 90.1862 23.7955 90.0762V92.0562L23.9755 92.0862C25.4755 92.3562 26.1355 93.0262 26.1355 93.8462C26.1355 94.6562 25.3755 95.5562 23.7955 95.6662V96.6162ZM22.7855 91.8662L22.9855 91.9062V90.0562C22.2455 90.1162 21.9255 90.4262 21.8555 90.7862C21.7255 91.4262 22.2855 91.7762 22.7855 91.8662ZM23.7955 93.0362V94.7562C24.5955 94.6962 25.0255 94.3262 25.0255 93.9062C25.0255 93.2962 24.3455 93.1462 23.7955 93.0362ZM26.7341 93.8162L27.6241 93.5762C27.7141 94.4262 28.3341 94.7762 28.9941 94.7762C29.6241 94.7762 30.3041 94.4562 30.3041 93.5662C30.3041 92.6362 29.6341 92.2362 28.9841 92.2362C28.5741 92.2362 28.1741 92.3862 27.8841 92.6662C27.6241 92.5762 27.1341 92.4162 26.8741 92.3162L27.6341 89.2362H31.1741V90.1362H28.3441L27.9241 91.6962C28.2541 91.5262 28.6041 91.3962 29.2041 91.3962C30.3041 91.3962 31.3341 92.1562 31.3341 93.5162C31.3341 94.8962 30.1641 95.6762 29.0041 95.6762C27.9741 95.6762 26.8641 95.0162 26.7341 93.8162ZM32.3923 92.4062C32.3923 90.3762 33.2023 89.1362 35.0323 89.1362C36.8723 89.1362 37.6723 90.3862 37.6723 92.4062C37.6723 94.4262 36.8723 95.6762 35.0323 95.6762C33.2023 95.6762 32.3923 94.4362 32.3923 92.4062ZM35.0323 94.7562C36.3223 94.7562 36.6423 93.8162 36.6423 92.4062C36.6423 90.9962 36.3223 90.0562 35.0323 90.0562C33.7423 90.0562 33.4223 90.9862 33.4223 92.4062C33.4223 93.8262 33.7423 94.7562 35.0323 94.7562Z" fill="#121212" fill-opacity="0.5"/>
<path d="M24.6158 131.586H23.8058V130.616C22.3958 130.476 21.6958 129.746 21.4658 129.136L22.3958 128.786C22.6358 129.246 23.0458 129.586 23.8058 129.696V127.856L23.6158 127.826C22.2958 127.586 21.5658 126.896 21.5658 126.006C21.5658 125.016 22.3458 124.236 23.8058 124.126V123.166H24.6158V124.126C25.5558 124.196 26.3658 124.556 26.7658 125.296L25.9458 125.836C25.7058 125.506 25.3258 125.156 24.6158 125.046V127.026L24.7958 127.056C26.2958 127.326 26.9558 127.996 26.9558 128.816C26.9558 129.626 26.1958 130.526 24.6158 130.636V131.586ZM23.6058 126.836L23.8058 126.876V125.026C23.0658 125.086 22.7458 125.396 22.6758 125.756C22.5458 126.396 23.1058 126.746 23.6058 126.836ZM24.6158 128.006V129.726C25.4158 129.666 25.8458 129.296 25.8458 128.876C25.8458 128.266 25.1658 128.116 24.6158 128.006ZM28.9545 126.196L28.0245 126.106C28.0245 124.886 28.9945 124.086 30.1945 124.086C31.3345 124.086 32.3045 124.806 32.3045 126.096C32.3045 127.336 31.4345 127.856 30.6145 128.346C29.9845 128.726 29.4545 129.056 29.2445 129.626H32.3445V130.546H27.9645C28.0145 128.896 29.0545 128.256 29.9645 127.696C30.6945 127.246 31.3345 126.846 31.3345 126.046C31.3345 125.336 30.8345 124.996 30.1645 124.996C29.3945 124.996 28.9745 125.456 28.9545 126.196ZM32.9619 128.786L33.8519 128.546C33.9419 129.396 34.5619 129.746 35.2219 129.746C35.8519 129.746 36.5319 129.426 36.5319 128.536C36.5319 127.606 35.8619 127.206 35.2119 127.206C34.8019 127.206 34.4019 127.356 34.1119 127.636C33.8519 127.546 33.3619 127.386 33.1019 127.286L33.8619 124.206H37.4019V125.106H34.5719L34.1519 126.666C34.4819 126.496 34.8319 126.366 35.4319 126.366C36.5319 126.366 37.5619 127.126 37.5619 128.486C37.5619 129.866 36.3919 130.646 35.2319 130.646C34.2019 130.646 33.0919 129.986 32.9619 128.786Z" fill="#121212" fill-opacity="0.5"/>
<path d="M54.8458 176.88L54.0088 176.799C54.0088 175.701 54.8818 174.981 55.9618 174.981C56.9878 174.981 57.8608 175.629 57.8608 176.79C57.8608 177.906 57.0778 178.374 56.3398 178.815C55.7728 179.157 55.2958 179.454 55.1068 179.967H57.8968V180.795H53.9548C53.9998 179.31 54.9358 178.734 55.7548 178.23C56.4118 177.825 56.9878 177.465 56.9878 176.745C56.9878 176.106 56.5378 175.8 55.9348 175.8C55.2418 175.8 54.8638 176.214 54.8458 176.88ZM64.5292 180.795L64.0342 179.211H61.9102L61.4062 180.795H60.4162L62.2702 175.098H63.6832L65.5462 180.795H64.5292ZM62.1532 178.428H63.7912L62.9812 175.836L62.1532 178.428ZM67.2008 182.721H66.2738V176.448H67.1738V177.096C67.5248 176.628 68.1008 176.358 68.7398 176.358C69.9278 176.358 70.8638 177.267 70.8638 178.617C70.8638 179.913 69.9998 180.885 68.7398 180.885C68.0918 180.885 67.5428 180.624 67.2008 180.201V182.721ZM68.5598 180.102C69.3878 180.102 69.9278 179.436 69.9278 178.635C69.9278 177.825 69.3878 177.168 68.5688 177.168C67.7318 177.168 67.1918 177.843 67.1918 178.635C67.1918 179.436 67.7228 180.102 68.5598 180.102ZM72.8082 180.795H71.8812V176.448H72.7812V177.069C73.0422 176.637 73.4472 176.403 73.8792 176.358C74.6982 176.268 75.5892 176.808 75.2382 178.167H74.4192C74.5812 177.519 74.2842 177.078 73.7712 177.087C73.1322 177.096 72.8082 177.735 72.8082 178.518V180.795Z" fill="#121212" fill-opacity="0.5"/>
<path d="M101.413 179.319H102.304C102.412 179.868 102.862 180.084 103.429 180.084C104.608 180.084 104.806 179.085 104.842 178.086C104.491 178.554 103.978 178.77 103.384 178.77C102.331 178.77 101.386 178.122 101.386 176.943C101.386 175.629 102.385 175.008 103.609 175.008C105.229 175.008 105.76 176.232 105.76 177.654C105.76 179.292 105.472 180.885 103.438 180.885C102.448 180.885 101.413 180.444 101.413 179.319ZM102.241 176.898C102.241 177.663 102.898 178.041 103.582 178.041C104.284 178.041 104.779 177.618 104.779 176.898C104.779 176.151 104.275 175.809 103.555 175.809C102.871 175.809 102.241 176.16 102.241 176.898ZM112.395 180.795L111.9 179.211H109.776L109.272 180.795H108.282L110.136 175.098H111.549L113.412 180.795H112.395ZM110.019 178.428H111.657L110.847 175.836L110.019 178.428ZM115.066 182.721H114.139V176.448H115.039V177.096C115.39 176.628 115.966 176.358 116.605 176.358C117.793 176.358 118.729 177.267 118.729 178.617C118.729 179.913 117.865 180.885 116.605 180.885C115.957 180.885 115.408 180.624 115.066 180.201V182.721ZM116.425 180.102C117.253 180.102 117.793 179.436 117.793 178.635C117.793 177.825 117.253 177.168 116.434 177.168C115.597 177.168 115.057 177.843 115.057 178.635C115.057 179.436 115.588 180.102 116.425 180.102ZM120.674 180.795H119.747V176.448H120.647V177.069C120.908 176.637 121.313 176.403 121.745 176.358C122.564 176.268 123.455 176.808 123.104 178.167H122.285C122.447 177.519 122.15 177.078 121.637 177.087C120.998 177.096 120.674 177.735 120.674 178.518V180.795Z" fill="#121212" fill-opacity="0.5"/>
<path d="M150.52 180.795H149.566V176.331H148.945V175.728C149.359 175.656 149.881 175.386 150.079 175.089H150.52V180.795ZM155.711 176.574H154.82C154.712 176.016 154.271 175.809 153.704 175.809C152.525 175.809 152.327 176.808 152.291 177.762C152.651 177.312 153.191 177.123 153.74 177.123C154.784 177.123 155.738 177.762 155.738 178.941C155.738 180.264 154.739 180.885 153.515 180.885C151.904 180.885 151.364 179.661 151.364 178.23C151.364 176.592 151.661 175.008 153.686 175.008C154.685 175.008 155.711 175.449 155.711 176.574ZM154.883 178.986C154.883 178.221 154.226 177.843 153.542 177.843C152.84 177.843 152.354 178.266 152.354 178.995C152.354 179.742 152.858 180.084 153.569 180.084C154.253 180.084 154.883 179.733 154.883 178.986ZM162.39 180.795L161.895 179.211H159.771L159.267 180.795H158.277L160.131 175.098H161.544L163.407 180.795H162.39ZM160.014 178.428H161.652L160.842 175.836L160.014 178.428ZM165.061 182.721H164.134V176.448H165.034V177.096C165.385 176.628 165.961 176.358 166.6 176.358C167.788 176.358 168.724 177.267 168.724 178.617C168.724 179.913 167.86 180.885 166.6 180.885C165.952 180.885 165.403 180.624 165.061 180.201V182.721ZM166.42 180.102C167.248 180.102 167.788 179.436 167.788 178.635C167.788 177.825 167.248 177.168 166.429 177.168C165.592 177.168 165.052 177.843 165.052 178.635C165.052 179.436 165.583 180.102 166.42 180.102ZM170.669 180.795H169.742V176.448H170.642V177.069C170.903 176.637 171.308 176.403 171.74 176.358C172.559 176.268 173.45 176.808 173.099 178.167H172.28C172.442 177.519 172.145 177.078 171.632 177.087C170.993 177.096 170.669 177.735 170.669 178.518V180.795Z" fill="#121212" fill-opacity="0.5"/>
<path d="M195.633 178.149V177.447H196.218C196.641 177.447 197.073 177.168 197.073 176.619C197.073 175.98 196.488 175.818 196.056 175.818C195.435 175.818 194.922 176.142 194.868 176.916L194.04 176.736C194.139 175.557 195.111 175.008 196.029 175.008C196.92 175.008 197.982 175.512 197.982 176.646C197.982 177.114 197.793 177.519 197.415 177.762C197.865 178.005 198.153 178.473 198.153 179.085C198.153 180.336 197.19 180.885 196.101 180.885C195.156 180.885 194.13 180.327 194.031 179.139L194.859 178.959C194.922 179.742 195.48 180.075 196.128 180.075C196.614 180.075 197.244 179.895 197.244 179.121C197.244 178.446 196.776 178.149 196.2 178.149H195.633ZM198.664 177.942C198.664 176.115 199.393 174.999 201.04 174.999C202.696 174.999 203.416 176.124 203.416 177.942C203.416 179.76 202.696 180.885 201.04 180.885C199.393 180.885 198.664 179.769 198.664 177.942ZM201.04 180.057C202.201 180.057 202.489 179.211 202.489 177.942C202.489 176.673 202.201 175.827 201.04 175.827C199.879 175.827 199.591 176.664 199.591 177.942C199.591 179.22 199.879 180.057 201.04 180.057ZM210.094 180.795L209.599 179.211H207.475L206.971 180.795H205.981L207.835 175.098H209.248L211.111 180.795H210.094ZM207.718 178.428H209.356L208.546 175.836L207.718 178.428ZM212.765 182.721H211.838V176.448H212.738V177.096C213.089 176.628 213.665 176.358 214.304 176.358C215.492 176.358 216.428 177.267 216.428 178.617C216.428 179.913 215.564 180.885 214.304 180.885C213.656 180.885 213.107 180.624 212.765 180.201V182.721ZM214.124 180.102C214.952 180.102 215.492 179.436 215.492 178.635C215.492 177.825 214.952 177.168 214.133 177.168C213.296 177.168 212.756 177.843 212.756 178.635C212.756 179.436 213.287 180.102 214.124 180.102ZM218.373 180.795H217.446V176.448H218.346V177.069C218.607 176.637 219.012 176.403 219.444 176.358C220.263 176.268 221.154 176.808 220.803 178.167H219.984C220.146 177.519 219.849 177.078 219.336 177.087C218.697 177.096 218.373 177.735 218.373 178.518V180.795Z" fill="#121212" fill-opacity="0.5"/>
<path d="M29.1736 164.556H28.3636V163.586C26.9536 163.446 26.2536 162.716 26.0236 162.106L26.9536 161.756C27.1936 162.216 27.6036 162.556 28.3636 162.666V160.826L28.1736 160.796C26.8536 160.556 26.1236 159.866 26.1236 158.976C26.1236 157.986 26.9036 157.206 28.3636 157.096V156.136H29.1736V157.096C30.1136 157.166 30.9236 157.526 31.3236 158.266L30.5036 158.806C30.2636 158.476 29.8836 158.126 29.1736 158.016V159.996L29.3536 160.026C30.8536 160.296 31.5136 160.966 31.5136 161.786C31.5136 162.596 30.7536 163.496 29.1736 163.606V164.556ZM28.1636 159.806L28.3636 159.846V157.996C27.6236 158.056 27.3036 158.366 27.2336 158.726C27.1036 159.366 27.6636 159.716 28.1636 159.806ZM29.1736 160.976V162.696C29.9736 162.636 30.4036 162.266 30.4036 161.846C30.4036 161.236 29.7236 161.086 29.1736 160.976ZM32.3923 160.346C32.3923 158.316 33.2023 157.076 35.0323 157.076C36.8723 157.076 37.6723 158.326 37.6723 160.346C37.6723 162.366 36.8723 163.616 35.0323 163.616C33.2023 163.616 32.3923 162.376 32.3923 160.346ZM35.0323 162.696C36.3223 162.696 36.6423 161.756 36.6423 160.346C36.6423 158.936 36.3223 157.996 35.0323 157.996C33.7423 157.996 33.4223 158.926 33.4223 160.346C33.4223 161.766 33.7423 162.696 35.0323 162.696Z" fill="#121212" fill-opacity="0.5"/>
<line x1="49.5566" y1="93.2427" x2="233.099" y2="93.2427" stroke="#F6F6F9" stroke-width="1.03031"/>
<line x1="49.5566" y1="126.212" x2="233.099" y2="126.212" stroke="#F6F6F9" stroke-width="1.03031"/>
<line x1="49.5566" y1="159.182" x2="233.099" y2="159.182" stroke="#F6F6F9" stroke-width="1.03031"/>
<rect x="50.4736" y="126.728" width="12.848" height="32.9698" rx="6.42398" fill="#4F46E5"/>
<rect x="65.1572" y="120.546" width="12.848" height="39.1516" rx="6.42398" fill="#F0F0F6"/>
<rect x="98.1943" y="136" width="12.848" height="23.697" rx="6.42398" fill="#4F46E5"/>
<rect x="112.878" y="96.8486" width="12.848" height="62.8486" rx="6.42398" fill="#F0F0F6"/>
<rect x="145.916" y="109.213" width="12.848" height="50.485" rx="6.42398" fill="#4F46E5"/>
<rect x="160.6" y="120.546" width="12.848" height="39.1516" rx="6.42398" fill="#F0F0F6"/>
<rect x="193.637" y="90.667" width="12.848" height="69.0305" rx="6.42398" fill="#4F46E5"/>
<rect x="208.32" y="130.849" width="12.848" height="28.8485" rx="6.42398" fill="#F0F0F6"/>
<path d="M21.1785 24.8173H22.2913V29.1941C22.2913 30.6901 22.8847 31.741 24.492 31.741C26.0869 31.741 26.6927 30.6777 26.6927 29.1941V24.8173H27.7684V29.2435C27.7684 31.3824 26.6556 32.7301 24.4796 32.7301C22.2913 32.7301 21.1785 31.3701 21.1785 29.2435V24.8173ZM30.4805 32.6064H29.4172V26.709H30.431V27.5992C30.9132 26.9192 31.7663 26.5853 32.6317 26.5853C34.1772 26.5853 35.0056 27.6486 35.0056 29.2188V32.6064H33.9423V29.3301C33.9423 28.2792 33.4477 27.5373 32.3226 27.5373C31.1234 27.5373 30.4805 28.3781 30.4805 29.565V32.6064ZM36.2288 24.7555C36.2288 24.3599 36.5502 24.0632 36.9459 24.0632C37.3292 24.0632 37.6753 24.3228 37.6753 24.7432C37.6753 25.1512 37.3539 25.4479 36.9459 25.4479C36.5502 25.4479 36.2288 25.1759 36.2288 24.7555ZM37.4775 32.6064H36.4142V26.709H37.4775V32.6064ZM44.7897 35.2028H43.714V31.7039C43.2195 32.3592 42.4653 32.7301 41.5751 32.7301C39.8937 32.7301 38.682 31.4072 38.682 29.6515C38.682 27.8959 39.8937 26.573 41.5751 26.573C42.4777 26.573 43.2566 26.9563 43.7635 27.6363V26.709H44.7897V35.2028ZM41.7482 31.7904C42.9475 31.7904 43.7264 30.8137 43.7264 29.6515C43.7264 28.5017 42.9351 27.5126 41.7358 27.5126C40.5489 27.5126 39.7577 28.477 39.7577 29.6515C39.7577 30.8137 40.5489 31.7904 41.7482 31.7904ZM51.9278 32.6064H50.914L50.7904 31.3454C50.4689 32.4828 49.5664 32.7301 48.7627 32.7301C47.1431 32.7301 46.2529 31.7286 46.2529 30.0966V26.709H47.3162V29.9853C47.3162 31.0239 47.8107 31.7781 48.9235 31.7781C50.1228 31.7781 50.7409 30.9126 50.7409 29.7628V26.709H51.8042V31.1846L51.9278 32.6064ZM56.288 31.8275C57.1534 31.8275 57.7963 31.4814 57.9942 30.7024H59.008C58.6865 32.3344 57.4872 32.7301 56.2632 32.7301C54.0254 32.7301 53.0487 31.4072 53.0487 29.6021C53.0487 27.6115 54.2356 26.5853 56.0901 26.5853C58.2785 26.5853 59.1069 28.0072 59.1069 29.8493H54.1861C54.1861 31.1352 55.1134 31.8152 56.288 31.8275ZM54.1861 29.0704H57.9447C57.8458 28.0195 56.968 27.525 56.0901 27.525C55.1629 27.525 54.2232 28.0566 54.1861 29.0704ZM65.6673 32.6064H64.4803L62.1931 26.709H63.3058L65.0862 31.5184L66.9036 26.709H67.9545L65.6673 32.6064ZM68.552 24.7555C68.552 24.3599 68.8735 24.0632 69.2691 24.0632C69.6524 24.0632 69.9986 24.3228 69.9986 24.7432C69.9986 25.1512 69.6771 25.4479 69.2691 25.4479C68.8735 25.4479 68.552 25.1759 68.552 24.7555ZM69.8008 32.6064H68.7375V26.709H69.8008V32.6064ZM76.2846 28.3781H75.2584C75.2584 27.8093 74.4053 27.5126 73.5275 27.5126C72.7485 27.5126 71.982 27.7352 71.982 28.205C71.982 28.613 72.4147 28.8479 73.8613 29.1446C75.3325 29.4413 76.3958 29.9483 76.3958 30.9621C76.3958 32.0501 75.3449 32.7301 73.75 32.7301C71.846 32.7301 70.9558 32.0872 70.8816 30.6283H71.8707C71.9202 31.3454 72.3776 31.8894 73.6758 31.8894C74.6155 31.8894 75.3325 31.6174 75.3325 31.0486C75.3325 30.3563 74.43 30.1708 73.4409 29.9606C72.254 29.7133 70.9434 29.4413 70.9434 28.2173C70.9434 27.1788 71.9449 26.5853 73.5645 26.5853C75.2955 26.5853 76.2846 27.253 76.2846 28.3781ZM77.2699 24.7555C77.2699 24.3599 77.5913 24.0632 77.987 24.0632C78.3702 24.0632 78.7164 24.3228 78.7164 24.7432C78.7164 25.1512 78.395 25.4479 77.987 25.4479C77.5913 25.4479 77.2699 25.1759 77.2699 24.7555ZM78.5186 32.6064H77.4553V26.709H78.5186V32.6064ZM79.278 26.709H80.4155V25.0646H81.4787V26.709H83.7289V27.5868H81.4787V31.1723C81.4787 31.5308 81.6518 31.741 82.0104 31.741C82.5049 31.741 83.1973 31.333 83.494 30.925L83.9144 31.6297C83.5187 32.2974 82.6038 32.7301 81.8002 32.7301C81.046 32.7301 80.4031 32.3097 80.4031 31.3454V27.5868H79.278V26.709ZM84.1346 29.6515C84.1346 27.8712 85.4452 26.573 87.2008 26.573C88.9564 26.573 90.2546 27.8835 90.2546 29.6515C90.2546 31.4195 88.9564 32.7301 87.2008 32.7301C85.4452 32.7301 84.1346 31.4195 84.1346 29.6515ZM87.2008 31.7286C88.4124 31.7286 89.179 30.8261 89.179 29.6515C89.179 28.477 88.4124 27.5744 87.2008 27.5744C86.0015 27.5744 85.2226 28.477 85.2226 29.6515C85.2226 30.8137 86.0015 31.7286 87.2008 31.7286ZM92.4466 32.6064H91.3833V26.709H92.3971V27.5992C92.7433 27.0057 93.2873 26.6719 93.8684 26.5977C94.9564 26.437 96.1433 27.1417 95.6611 28.9715H94.7338C94.9811 28.0566 94.5484 27.4137 93.8437 27.4137C92.9287 27.4137 92.4466 28.3781 92.4466 29.565V32.6064ZM101.683 28.3781H100.657C100.657 27.8093 99.8039 27.5126 98.9261 27.5126C98.1472 27.5126 97.3806 27.7352 97.3806 28.205C97.3806 28.613 97.8134 28.8479 99.2599 29.1446C100.731 29.4413 101.794 29.9483 101.794 30.9621C101.794 32.0501 100.744 32.7301 99.1486 32.7301C97.2446 32.7301 96.3544 32.0872 96.2803 30.6283H97.2694C97.3188 31.3454 97.7763 31.8894 99.0745 31.8894C100.014 31.8894 100.731 31.6174 100.731 31.0486C100.731 30.3563 99.8286 30.1708 98.8395 29.9606C97.6526 29.7133 96.3421 29.4413 96.3421 28.2173C96.3421 27.1788 97.3435 26.5853 98.9632 26.5853C100.694 26.5853 101.683 27.253 101.683 28.3781Z" fill="#121212" fill-opacity="0.75"/>
<path d="M24.1735 54.4203L21.3175 54.1323C21.3175 51.0363 23.7895 49.1403 26.7895 49.1403C29.6215 49.1403 32.1415 50.8923 32.1415 54.0843C32.1415 57.1323 29.8855 58.4283 27.8935 59.6043C26.3335 60.5163 25.3975 61.1643 25.0135 62.1483H32.2615V64.7883H21.1975C21.2695 60.3243 23.9095 58.7883 26.1175 57.5163C27.7255 56.5803 29.1175 55.7643 29.1175 54.0603C29.1175 52.5723 28.0615 51.8523 26.6935 51.8523C25.0855 51.8523 24.1975 52.8843 24.1735 54.4203ZM33.1532 60.3243L35.9132 59.6763C36.0812 61.3563 37.2572 62.3883 38.7932 62.3883C40.1612 62.3883 41.5052 61.5723 41.5052 59.7483C41.5052 57.8523 40.1372 56.9883 38.7452 56.9883C37.7372 56.9883 36.8732 57.4203 36.3452 57.9963C35.7932 57.8043 34.0652 57.2283 33.4892 57.0363L35.2652 49.4043H44.1452V52.0203H37.3772L36.6092 55.1403C37.2572 54.8523 38.2412 54.5403 39.3932 54.5403C42.2732 54.5403 44.5772 56.3883 44.5772 59.5803C44.5772 62.8203 42.1052 65.0283 38.8892 65.0283C35.8892 65.0283 33.3932 63.0123 33.1532 60.3243ZM46.3146 63.0123C46.3146 61.8843 47.2266 61.1403 48.2346 61.1403C49.2426 61.1403 50.1066 61.8843 50.1066 63.0123C50.1066 64.1403 49.2426 64.9083 48.2346 64.9083C47.2266 64.9083 46.3146 64.1643 46.3146 63.0123ZM62.4956 49.4043V52.0683C59.8796 54.8763 57.1676 58.4523 56.5196 64.7883H53.1596C53.8556 56.1723 59.2556 52.2603 59.5676 52.0203H50.8796V49.4043H62.4956ZM67.7751 64.7883H64.4151V49.4043H67.7751V56.4123L74.9511 49.4043H79.0071L72.1191 56.2683L79.1271 64.7883H74.9271L69.7431 58.6203L67.7751 60.5403V64.7883Z" fill="#000C1F"/>
<path fill-rule="evenodd" clip-rule="evenodd" d="M95.5313 51.2022C95.7326 50.9552 96.0369 50.8153 96.3555 50.8232C96.6348 50.8301 96.8457 50.9701 96.9519 51.0457C97.0651 51.1262 97.194 51.2367 97.3218 51.3463C97.3281 51.3517 97.3344 51.3571 97.3406 51.3625L103.172 56.3611C103.244 56.4225 103.327 56.4939 103.395 56.5623C103.471 56.6397 103.577 56.7627 103.641 56.94C103.721 57.1651 103.721 57.4114 103.641 57.6366C103.577 57.8139 103.471 57.9368 103.395 58.0143C103.327 58.0826 103.244 58.154 103.172 58.2155L97.3218 63.2302C97.194 63.3398 97.0651 63.4503 96.9519 63.5309C96.8457 63.6065 96.6348 63.7465 96.3555 63.7534C96.0369 63.7613 95.7326 63.6213 95.5313 63.3743C95.3548 63.1578 95.3238 62.9065 95.3121 62.7767C95.2996 62.6383 95.2996 62.4685 95.2996 62.3001L95.2996 60.1707C94.6525 60.2825 94.0221 60.4834 93.4268 60.769C92.4986 61.2143 91.6776 61.8549 91.0201 62.647C90.8352 62.8697 90.5306 62.9526 90.2583 62.8544C89.9861 62.7561 89.8047 62.4977 89.8047 62.2083V61.7879C89.8056 59.9878 90.4693 58.2507 91.669 56.9087C92.6391 55.8235 93.9049 55.0578 95.2996 54.6978V52.3012C95.2996 52.2929 95.2996 52.2847 95.2996 52.2764C95.2996 52.1081 95.2996 51.9383 95.3121 51.7999C95.3238 51.67 95.3548 51.4188 95.5313 51.2022Z" fill="#4F46E5"/>
<path d="M163.951 61.4119C162.48 61.4119 160.786 60.7814 160.786 59.0381C160.786 58.1479 161.33 57.4555 162.208 57.1835C161.491 56.8621 161.108 56.281 161.108 55.5021C161.108 53.9319 162.628 53.3261 163.951 53.3261C165.287 53.3261 166.82 53.9195 166.82 55.5268C166.82 56.2686 166.412 56.8621 165.707 57.1835C166.56 57.4555 167.141 58.1355 167.141 59.0381C167.141 60.7937 165.423 61.4119 163.951 61.4119ZM162.369 55.5639C162.369 56.4664 163.21 56.7261 163.964 56.7261C164.693 56.7261 165.571 56.4664 165.571 55.5639C165.571 54.6737 164.693 54.4388 163.951 54.4388C163.21 54.4388 162.369 54.6861 162.369 55.5639ZM162.109 59.0134C162.109 60.0395 163.098 60.2992 163.951 60.2992C164.804 60.2992 165.818 60.0395 165.818 59.0134C165.818 57.9995 164.78 57.7152 163.951 57.7152C163.123 57.7152 162.109 57.9995 162.109 59.0134ZM173.771 55.4897H172.547C172.399 54.7232 171.793 54.4388 171.014 54.4388C169.395 54.4388 169.123 55.8112 169.073 57.1217C169.568 56.5035 170.31 56.2439 171.064 56.2439C172.498 56.2439 173.809 57.1217 173.809 58.7414C173.809 60.5588 172.436 61.4119 170.755 61.4119C168.542 61.4119 167.8 59.7304 167.8 57.7646C167.8 55.5144 168.208 53.3384 170.99 53.3384C172.362 53.3384 173.771 53.9443 173.771 55.4897ZM172.634 58.8032C172.634 57.7523 171.731 57.233 170.792 57.233C169.827 57.233 169.16 57.8141 169.16 58.8155C169.16 59.8417 169.852 60.3115 170.829 60.3115C171.768 60.3115 172.634 59.8294 172.634 58.8032ZM174.512 57.369C174.512 54.8592 175.514 53.3261 177.776 53.3261C180.051 53.3261 181.04 54.8715 181.04 57.369C181.04 59.8664 180.051 61.4119 177.776 61.4119C175.514 61.4119 174.512 59.8788 174.512 57.369ZM177.776 60.2744C179.371 60.2744 179.767 59.1123 179.767 57.369C179.767 55.6257 179.371 54.4635 177.776 54.4635C176.181 54.4635 175.786 55.6133 175.786 57.369C175.786 59.1246 176.181 60.2744 177.776 60.2744ZM184.238 57.8759H182.222V56.9115H184.238V54.921H185.301V56.9115H187.316V57.8759H185.301V59.8541H184.238V57.8759ZM195.481 61.2883H193.725L191.042 53.4497H192.514L194.64 59.8664L196.792 53.4497H198.189L195.481 61.2883ZM198.746 53.3137C198.746 52.9057 199.067 52.5224 199.574 52.5224C200.056 52.5224 200.402 52.8686 200.402 53.289C200.402 53.697 200.093 54.0926 199.574 54.0926C199.067 54.0926 198.746 53.7217 198.746 53.3137ZM200.217 61.2883H198.931V55.3166H200.217V61.2883ZM206.994 57.0846H205.782C205.782 56.5283 205.003 56.2439 204.175 56.2439C203.421 56.2439 202.741 56.4541 202.741 56.8744C202.741 57.2577 203.173 57.4555 204.496 57.7275C205.918 58.0243 207.08 58.4941 207.08 59.5821C207.08 60.7814 205.955 61.4119 204.373 61.4119C202.58 61.4119 201.504 60.8184 201.442 59.2854H202.629C202.704 59.9901 203.198 60.4228 204.348 60.4228C205.189 60.4228 205.832 60.1879 205.819 59.6686C205.819 59.0381 204.954 58.8526 204.002 58.6548C202.654 58.3828 201.504 58.0614 201.504 56.8992C201.504 55.7493 202.617 55.193 204.212 55.193C205.881 55.193 206.969 55.8235 206.994 57.0846ZM208.124 53.3137C208.124 52.9057 208.446 52.5224 208.953 52.5224C209.435 52.5224 209.781 52.8686 209.781 53.289C209.781 53.697 209.472 54.0926 208.953 54.0926C208.446 54.0926 208.124 53.7217 208.124 53.3137ZM209.596 61.2883H208.31V55.3166H209.596V61.2883ZM210.537 55.3166H211.724V53.6475H212.985V55.3166H215.272V56.3428H212.985V59.6686C212.985 60.0272 213.17 60.225 213.529 60.225C213.986 60.225 214.654 59.8664 215.025 59.4214L215.47 60.2868C215 60.9915 214.036 61.4119 213.22 61.4119C212.366 61.4119 211.724 60.9297 211.724 59.8912V56.3428H210.537V55.3166ZM215.867 58.321C215.867 56.5901 217.128 55.193 219.044 55.193C220.973 55.193 222.209 56.6024 222.209 58.321C222.209 60.1137 220.849 61.4119 219.044 61.4119C217.264 61.4119 215.867 60.1137 215.867 58.321ZM219.044 60.2621C220.219 60.2621 220.948 59.409 220.948 58.3086C220.948 57.1959 220.219 56.3428 219.044 56.3428C217.882 56.3428 217.14 57.1959 217.14 58.3086C217.14 59.3966 217.894 60.2621 219.044 60.2621ZM224.719 61.2883H223.446V55.3166H224.682V56.1697C225.041 55.5763 225.597 55.2548 226.191 55.193C227.316 55.0693 228.54 55.8112 228.058 57.6781H226.933C227.155 56.7879 226.747 56.1821 226.042 56.1944C225.165 56.2068 224.719 57.0846 224.719 58.1603V61.2883Z" fill="#4F46E5"/>
</svg>
