<svg width="36" height="46" viewBox="0 0 36 46" fill="none" xmlns="http://www.w3.org/2000/svg">
<path d="M17.823 1.06133C17.4226 1.21776 17.0541 1.39831 16.6752 1.61517C16.1964 1.88979 16.1897 1.89584 16.2162 1.98812C16.2614 2.14577 16.357 2.15997 16.9097 2.08472C18.2529 1.90762 19.3535 1.95821 21.0406 2.26924C23.2388 2.67922 26.3281 3.71585 28.4038 4.74352C29.5582 5.31548 30.7282 6.17426 31.2964 6.86434C32.5358 8.38565 33.2028 10.146 33.3042 12.1684C33.4202 14.5029 32.4333 16.7208 30.5498 18.3802C29.9607 18.8946 29.4429 19.2511 28.9025 19.5142C28.551 19.6816 27.5613 20.0611 27.5217 20.0392C27.508 20.0348 27.3896 19.8107 27.258 19.5406C26.2236 17.4569 24.6372 15.4651 22.9431 14.1282C21.6322 13.0976 20.198 12.3771 18.6053 11.9599C18.3185 11.8881 16.8672 11.6302 16.4968 11.5866C15.6929 11.4967 14.7429 11.507 13.9205 11.6138C13.3272 11.6924 12.1802 12.0171 11.7084 12.2439C11.5184 12.3359 11.2872 12.4437 11.1944 12.4828C11.1027 12.5258 10.9083 12.6315 10.7628 12.719C10.6172 12.8065 10.3147 12.9848 10.0901 13.1158C9.86551 13.2467 9.5415 13.4811 9.36534 13.6357C8.64065 14.2721 8.32648 14.9323 8.28126 15.9065C8.23969 16.734 8.68579 17.7961 9.48612 18.7734C9.80849 19.172 10.9337 20.3099 11.3335 20.6447C13.1635 22.1797 16.0849 23.3852 18.739 23.7019C20.5442 23.9166 23.1402 23.784 25.4216 23.367L25.9116 23.2764L26.0021 23.679C26.4872 25.8786 26.1407 27.8629 24.9398 29.7261C24.1141 31.0115 22.5825 32.4327 21.3699 33.0509C20.8834 33.2986 19.793 33.6903 19.246 33.8139C18.6159 33.953 17.9039 34.0822 17.8412 34.0669C17.805 34.0564 17.7554 33.8834 17.6417 33.3709C17.0782 30.7528 15.697 28.519 13.5871 26.8062C11.8297 25.3793 9.97235 24.5179 7.81266 24.126C6.25585 23.8484 5.45315 23.8497 4.45614 24.1315C4.02552 24.2549 3.15885 24.6283 2.83374 24.8296C2.72831 24.8973 2.46201 25.0569 2.24126 25.1868C1.24952 25.7625 0.802325 26.3942 0.666488 27.4152C0.54046 28.3543 0.840277 29.3128 1.61496 30.4472C2.20369 31.3104 3.55718 32.6783 4.53037 33.4021C6.08697 34.5495 8.71271 35.7107 11 36.2574C12.2998 36.5672 13.9181 36.7981 15.2208 36.8572C15.6176 36.8766 15.7824 36.9001 15.7957 36.9463C15.8232 37.0424 15.5996 38.1926 15.4764 38.5899C14.8486 40.6092 13.4936 42.2544 11.8246 43.0076C10.5065 43.6062 8.46243 44.0092 7.12993 43.9335C6.64365 43.9065 5.86602 43.7342 5.7401 43.6288C5.67906 43.5756 5.61752 43.5641 5.52908 43.5895C5.23686 43.6733 5.23857 43.7518 5.53334 44.0252C5.88035 44.3501 6.11182 44.5043 6.50373 44.6666C7.39913 45.0465 8.57606 45.1167 10.2539 44.902C11.0444 44.8001 12.5435 44.3828 13.1827 44.0871C14.7315 43.3642 15.7965 42.4346 16.6029 41.0965C17.236 40.0537 17.6622 38.6956 17.8316 37.2114C17.8534 36.997 17.8911 36.8239 17.9076 36.8233C19.2217 36.7045 20.9401 36.2826 22.0214 35.8019C24.3309 34.786 26.4186 32.939 27.5321 30.9302C28.0598 29.9841 28.343 29.1289 28.5752 27.8056C28.8659 26.1493 28.8397 24.5631 28.4981 22.98L28.4192 22.6031L29.008 22.3635C31.5498 21.3309 33.4729 19.6061 34.6536 17.2951C35.094 16.4364 35.3301 15.678 35.5552 14.3733C35.9339 12.2258 35.8238 10.26 35.2171 8.36167C34.866 7.26804 34.4493 6.40969 33.8666 5.58222C32.3371 3.41172 30.0554 1.86887 27.2987 1.13637C24.9064 0.499104 22.3051 0.250472 20.379 0.469898C19.5203 0.56632 18.436 0.818989 17.823 1.06133ZM14.9604 14.8776C15.5262 14.8194 16.2509 14.8072 16.8883 14.8532C17.4538 14.895 18.5249 15.1039 19.092 15.2824C20.3 15.6642 21.9598 16.7363 22.8723 17.7272C23.4097 18.3096 24.0935 19.2578 24.552 20.0585C24.9565 20.7581 24.9295 20.6784 24.7575 20.7028C23.2314 20.924 22.4051 21.0028 21.3239 21.0341C19.1866 21.0976 17.8771 20.8989 16.1886 20.2637C14.1076 19.4789 12.3152 18.1328 11.4995 16.7396L11.3554 16.4981L11.503 16.3309C11.8224 15.9647 12.271 15.657 12.8439 15.4054C13.2761 15.2149 14.3868 14.938 14.9604 14.8776ZM6.05529 27.2557C7.20296 27.1513 8.70811 27.3938 9.94864 27.8745C11.0683 28.3108 12.7951 29.4427 13.5145 30.2101C14.119 30.8523 14.7611 31.8583 15.1219 32.7244C15.3157 33.1973 15.5444 33.8932 15.5655 34.0828L15.5837 34.2482L14.9854 34.2366C13.8041 34.2092 12.5738 34.0543 11.5488 33.8031C9.09441 33.1961 6.67624 31.9753 5.17051 30.5845C4.54195 30.0032 4.05187 29.4114 3.73979 28.8601C3.47012 28.384 3.46958 28.3966 3.78795 28.1139C3.93673 27.9797 4.17448 27.8075 4.31179 27.7348C4.70663 27.5301 5.53171 27.3017 6.05529 27.2557Z" fill="#121212"/>
</svg>
