<svg width="44" height="34" viewBox="0 0 44 34" fill="none" xmlns="http://www.w3.org/2000/svg">
<path d="M16.5436 0.181815C16.4965 0.220307 16.3503 0.291344 16.2152 0.342571C16.0801 0.393797 15.9236 0.471955 15.8621 0.518721C15.8055 0.568227 15.62 0.675543 15.4569 0.759763C14.9324 1.03498 14.7002 1.28465 14.4096 1.89645C14.1842 2.37303 14.0363 2.84406 13.5387 4.722C12.7536 7.67267 12.6556 8.04197 12.0847 10.3612C11.7799 11.6054 11.4389 12.9557 11.3354 13.364C10.9993 14.6588 10.7552 15.6943 10.6301 16.3751L10.506 17.0307L10.2256 16.8656C10.07 16.7729 9.58235 16.48 9.14147 16.2194C8.06338 15.5798 7.47187 15.2001 6.12483 14.2756C3.99433 12.81 3.4248 12.5073 2.51369 12.3483C2.12683 12.2762 2.01803 12.274 1.84226 12.3286C1.57695 12.4047 1.13045 12.6035 1.04481 12.6821C1.01297 12.7162 0.877899 12.7966 0.747188 12.8632C0.215578 13.1279 0.0620275 13.4341 0.0101227 14.327C-0.0796267 15.8425 0.41958 17.9172 1.82165 21.8345C2.49651 23.7091 3.79386 26.7243 4.68343 28.4625C5.12269 29.3269 5.87658 30.5338 6.26328 30.9972C6.37055 31.1246 6.39972 31.1828 6.36842 31.2042C6.34372 31.2196 6.23608 31.2796 6.12846 31.3397C5.86925 31.4805 5.69138 31.6439 5.56029 31.8687C5.32714 32.2602 5.36522 32.4365 5.76232 32.8636C6.12093 33.2435 6.51951 33.4871 7.23844 33.7594C7.83644 33.9874 8.10022 34.0366 8.52598 33.9978C9.36108 33.9206 9.60824 33.8539 17.1918 31.6834C24.5435 29.5754 26.142 29.142 30.5249 28.0434C32.7541 27.4874 36.7542 26.5776 39.6657 25.9632C41.517 25.5697 42.0761 25.3428 42.536 24.799C42.7851 24.507 42.9052 24.1854 43.0457 23.4128C43.2731 22.2033 43.2578 21.1923 42.9608 18.5893C42.6494 15.8199 42.4461 14.6465 41.704 11.3764C41.2808 9.50861 40.8062 7.897 39.7521 4.78709C39.0821 2.79872 38.8452 2.14681 38.6029 1.59211C38.1442 0.529342 37.7037 0.0814169 37.1983 0.147306C37.0977 0.159456 36.9806 0.143084 36.929 0.107962C36.7921 0.0223794 36.4195 -0.0288587 36.258 0.0174484C36.1812 0.0394856 36.0427 0.108281 35.9478 0.168834C35.8527 0.229315 35.6913 0.304797 35.5836 0.335662C35.4798 0.365431 35.2766 0.469429 35.1294 0.565769C34.9862 0.660922 34.7379 0.811145 34.5825 0.893153C33.9268 1.24767 33.1876 2.16699 32.0526 4.0571C31.4585 5.04718 31.25 5.36498 30.7364 6.06987C30.0022 7.07934 29.5869 7.67696 29.2506 8.20197C28.3986 9.5407 27.9481 10.19 27.898 10.1752C27.8442 10.1616 27.5555 9.8657 26.8421 9.10481C25.6552 7.83898 24.8165 6.98918 23.5835 5.79478C23.2904 5.51267 22.5815 4.82547 22.0101 4.2694C21.4387 3.71334 20.7397 3.03164 20.4526 2.75607C20.1694 2.47939 19.5919 1.8877 19.1717 1.43808C18.1048 0.300096 17.9283 0.163454 17.5684 0.200062C17.4832 0.207838 17.3338 0.17995 17.2458 0.134435C16.9814 0.0105266 16.7413 0.0294219 16.5436 0.181815ZM18.1392 4.19342C18.4219 4.45355 19.0197 5.01454 19.4728 5.43389C21.1149 6.95205 21.9674 7.86445 24.9409 11.2687C25.1015 11.4515 25.4189 11.7891 25.6559 12.0208C25.8891 12.2535 26.1806 12.5445 26.3043 12.6713C26.8262 13.1998 27.5553 13.7107 27.9384 13.8131C28.0285 13.8372 28.1917 13.8985 28.2995 13.955C28.6194 14.1129 28.7556 14.1238 29.0259 14.0213C29.1956 13.9602 29.3247 13.8732 29.4986 13.711C29.8281 13.4085 30.5426 12.5628 30.9272 12.0322C31.2746 11.5457 31.296 11.5187 31.9137 10.5093C32.47 9.60497 32.7514 9.20797 33.5263 8.22427C33.8688 7.79324 34.3325 7.19003 34.5569 6.88435C35.7235 5.29313 36.2745 4.60248 36.3438 4.6409C36.3635 4.65185 36.649 5.5604 36.9798 6.65564C37.6296 8.82035 37.8645 9.72671 38.4246 12.275C39.1271 15.465 39.3 16.4307 39.7393 19.6171C39.9584 21.1938 40.0162 21.8597 39.9461 22.0795L39.9104 22.2021L38.089 22.6994C37.0898 22.9734 35.9813 23.258 35.6259 23.3391C34.7019 23.5416 32.0724 24.1957 29.5274 24.8548C28.3228 25.1669 27.1017 25.4796 26.8138 25.5497C26.526 25.6197 25.4834 25.8729 24.4985 26.1096C22.0936 26.691 20.801 27.0158 18.1127 27.7117C16.8658 28.0361 15.3157 28.4348 14.6631 28.5969C10.2208 29.7209 8.01153 30.3461 7.3635 30.6692C7.17845 30.7639 6.99938 30.836 6.96915 30.8322C6.85817 30.8225 6.30869 29.6318 5.90489 28.5283C5.38815 27.1036 4.16339 23.0065 3.69898 21.1256C3.55171 20.5395 3.28643 19.4837 3.10993 18.7811C2.93235 18.0748 2.72988 17.209 2.66414 16.8492C2.54432 16.2136 2.39708 15.0907 2.42503 14.9995C2.4431 14.9319 2.65846 14.9283 2.95961 14.9918C3.44655 15.0935 4.34093 15.6152 6.73859 17.1997C7.8937 17.9629 8.75245 18.5488 9.55243 19.1184C10.408 19.722 11.3518 20.2128 11.7563 20.2591C12.114 20.3022 12.5241 19.9765 12.7978 19.4362C12.8877 19.2564 13.0422 18.8376 13.1436 18.509C13.2438 18.1765 13.6679 16.8689 14.0903 15.5993C14.8715 13.2448 15.1925 12.2164 15.8842 9.82513C16.4039 8.02414 16.5621 7.42949 16.8083 6.34358C17.315 4.1343 17.4612 3.61385 17.5722 3.68188C17.603 3.70216 17.8593 3.92827 18.1392 4.19342Z" fill="#121212"/>
</svg>
