<svg width="40" height="41" viewBox="0 0 40 41" fill="none" xmlns="http://www.w3.org/2000/svg">
<path d="M26.4776 0.579122C26.4628 0.58735 26.337 0.576248 26.1969 0.556872C26.0568 0.537504 25.7547 0.517447 25.5288 0.506783C25.2195 0.497145 25.0948 0.511326 25.0123 0.566725C24.9139 0.634222 24.8771 0.631991 24.4398 0.531583C21.3663 -0.170803 18.0603 -0.178351 15.1856 0.516161C13.5539 0.909648 12.066 1.49834 10.4657 2.39186C7.61258 3.98307 5.34193 6.0825 3.45026 8.8774C0.820225 12.7671 -0.361188 17.4967 0.0963033 22.33C0.209412 23.5609 0.676414 25.8794 1.08227 27.265C1.65949 29.2281 2.62517 31.2444 3.79168 32.923C4.27726 33.624 5.13877 34.7407 5.52571 35.1762C7.50165 37.3989 9.67653 38.9131 12.2755 39.8914C12.9819 40.1563 14.5441 40.571 15.2769 40.6854C18.7314 41.2349 22.1196 40.7958 25.3923 39.3665C26.4488 38.9038 27.9172 38.064 28.9569 37.326C30.906 35.9416 32.8545 34.0078 34.3592 31.9675C36.71 28.7759 38.156 25.4162 38.7843 21.6724C39.7739 15.7976 37.9228 9.541 34.0102 5.53954C32.2246 3.71259 30.6526 2.62099 27.8983 1.29859C27.2212 0.975432 27.0564 0.88241 27.0099 0.798312C26.9632 0.714193 26.9061 0.681181 26.7292 0.63045C26.6062 0.595182 26.4925 0.570895 26.4776 0.579122ZM24.9906 2.55788C24.9993 2.61449 25.0454 2.71508 25.0937 2.77888C25.1382 2.84156 25.2523 2.99494 25.3411 3.1203C25.5684 3.43097 25.6809 3.48821 25.9837 3.43355C26.2162 3.39202 26.2442 3.39589 26.6094 3.52974C27.7524 3.94072 28.9237 4.63029 30.1443 5.61278L30.5703 5.95548L30.4838 6.18451C30.3577 6.52286 30.0431 6.83629 29.5423 7.11709C29.0591 7.39471 28.6864 7.53331 27.6388 7.84883C26.4336 8.20645 25.9455 8.3994 25.2292 8.79323C23.8252 9.56822 22.8741 10.6646 22.4245 12.0295C22.0647 13.1247 22.0615 14.1225 22.4128 15.6547C22.589 16.4043 22.8197 17.0364 23.0731 17.4586C23.3063 17.85 23.8078 18.5099 24.0927 18.8079C24.6202 19.3628 25.4213 19.9213 26.4384 20.4376C26.7542 20.5988 27.2226 20.8372 27.4764 20.9682C27.7339 21.1003 28.0776 21.2947 28.2418 21.4042L28.54 21.5978L28.469 21.773C28.4299 21.8658 28.1845 22.2573 27.9258 22.6368C27.2089 23.7003 27.0646 24.0293 27.0123 24.7051C26.979 25.1408 27.0198 25.5353 27.1676 26.152C27.4154 27.2175 27.4631 27.356 27.9095 28.2663C28.2796 29.0216 28.5 29.5883 28.5563 29.929C28.5814 30.0735 28.6025 30.4209 28.6044 30.7043C28.6109 31.3637 28.6515 31.9621 28.7969 33.4144L28.8176 33.6325L28.2831 34.0161C26.6392 35.1925 24.7834 36.0918 22.7703 36.6838C20.5944 37.3208 18.3573 37.5615 16.7373 37.3341C15.1249 37.109 13.2217 36.4759 11.6263 35.6398C10.3341 34.9654 8.91861 33.9811 8.11165 33.1963C6.08331 31.229 4.55674 28.5858 3.77221 25.6769L3.66872 25.2977L4.07322 25.164C4.61731 24.9788 5.25776 24.6173 5.67293 24.2579C6.13483 23.866 6.93515 22.9761 7.34777 22.4078C8.07565 21.3931 8.44451 20.6292 8.69767 19.6157C8.91275 18.7495 8.96285 18.1106 8.96284 16.3545C8.96212 15.4139 8.97858 14.8194 9.01674 14.5557C9.04058 14.3711 9.04771 14.3606 9.33862 14.1444C10.0467 13.6193 10.9388 13.3092 12.9716 12.8809C15.0346 12.4488 15.5728 12.2119 16.3158 11.4056C16.9934 10.6677 17.3715 10.0313 17.5965 9.24689C17.9316 8.07802 17.8216 7.06861 17.1923 5.54819C16.8327 4.68359 16.0082 3.30702 15.597 2.89784C15.5267 2.82359 15.4921 2.84279 16.0434 2.67628C18.5869 1.90344 21.303 1.73351 23.8064 2.18919C24.1074 2.24221 24.4908 2.3272 24.665 2.37297C24.9583 2.45291 24.9764 2.46228 24.9906 2.55788ZM31.9646 7.30403C32.9323 8.32634 33.655 9.30343 34.3115 10.482C34.9231 11.5854 35.3315 12.5264 35.7172 13.7356C35.9856 14.5698 36.0988 15.0892 36.2019 15.9343C36.7334 20.3062 35.7353 24.7014 33.3284 28.5968C32.8237 29.4133 32.1768 30.3055 31.6206 30.9534L31.4072 31.2043L31.4354 31.0043C31.4819 30.668 31.4309 29.9461 31.3281 29.4339C31.1192 28.4211 30.8665 27.8076 30.2252 26.7499C29.6497 25.8109 29.488 25.4899 29.4339 25.1706C29.3634 24.7925 29.425 24.6063 29.7761 24.0786C30.471 23.0337 30.8003 22.35 30.9207 21.6688C31.0234 21.1073 30.9496 20.6826 30.6705 20.1906C30.5295 19.9421 30.4126 19.8128 30.0019 19.4454C29.3937 18.8965 29.2311 18.7958 27.9664 18.171C25.83 17.1173 25.2151 16.6496 24.6907 15.6921C24.1307 14.6701 23.9684 13.2337 24.3044 12.2939C24.5198 11.7024 24.6964 11.4493 25.2012 11.0239C25.8468 10.485 26.485 10.1603 28.1136 9.54541C29.5614 8.99511 30.1754 8.63861 30.7623 7.99959C31.1022 7.62682 31.2469 7.42699 31.4924 6.97722C31.5545 6.86189 31.5232 6.84043 31.9646 7.30403ZM14.1385 3.79041C14.6132 4.38422 15.2938 5.74035 15.6723 6.84345C15.9545 7.67339 15.9059 8.55411 15.5377 9.18507C15.3253 9.54861 15.1295 9.73792 14.7595 9.93979C14.3253 10.1773 14.0247 10.2534 12.4579 10.5365C10.9176 10.8147 10.2471 10.9762 9.64525 11.2031C8.13153 11.7802 7.04921 12.8555 6.78817 14.0415C6.68385 14.5359 6.65494 14.8688 6.60526 16.2902C6.53525 18.2466 6.4556 18.8438 6.16486 19.5095C5.83002 20.2707 5.16948 21.0217 4.40029 21.5127C4.1551 21.6712 3.47409 21.9712 3.26962 22.0166L3.15036 22.0406L3.12252 21.267C3.06897 19.8576 3.17377 18.2732 3.407 16.8503C3.52963 16.1032 4.01544 14.2784 4.28481 13.5567C5.53857 10.2003 7.33208 7.77669 10.1214 5.66784C11.0622 4.95561 12.2854 4.21607 13.3501 3.70994C13.6294 3.57781 13.863 3.47422 13.8707 3.47644C13.8822 3.47974 13.9996 3.62155 14.1385 3.79041Z" fill="#121212"/>
</svg>
