<svg width="1200" height="800" viewBox="0 0 1200 800" fill="none" xmlns="http://www.w3.org/2000/svg">
<g clip-path="url(#clip0_27603_7805)">
<path d="M959.19 683.335C959.19 683.591 778.798 683.811 556.352 683.811C333.906 683.811 153.478 683.628 153.478 683.335C153.478 683.041 333.815 682.858 556.352 682.858C778.89 682.858 959.19 683.078 959.19 683.335Z" fill="#263238"/>
<path d="M408.587 169.356L414.493 177.958C414.674 178.223 414.918 178.44 415.202 178.59C415.486 178.741 415.803 178.819 416.125 178.82H426.542C426.913 178.822 427.276 178.928 427.591 179.125C427.905 179.323 428.159 179.604 428.322 179.937C428.486 180.27 428.554 180.642 428.518 181.012C428.482 181.381 428.344 181.734 428.119 182.029L421.774 190.282C421.572 190.537 421.438 190.839 421.384 191.159C421.33 191.48 421.356 191.809 421.462 192.116L424.653 202.02C424.766 202.374 424.778 202.753 424.688 203.114C424.598 203.475 424.408 203.803 424.142 204.062C423.875 204.321 423.541 204.501 423.178 204.581C422.814 204.661 422.436 204.637 422.085 204.514L412.273 201.029C411.97 200.92 411.644 200.886 411.325 200.93C411.005 200.975 410.701 201.097 410.439 201.286L402.003 207.393C401.701 207.613 401.344 207.743 400.972 207.77C400.6 207.796 400.228 207.719 399.898 207.545C399.568 207.371 399.293 207.109 399.104 206.787C398.916 206.465 398.821 206.097 398.83 205.724L399.124 195.326C399.132 195.001 399.061 194.68 398.917 194.389C398.773 194.098 398.561 193.847 398.298 193.657L389.88 187.513C389.582 187.291 389.352 186.991 389.215 186.646C389.077 186.301 389.039 185.925 389.104 185.559C389.169 185.194 389.334 184.854 389.581 184.577C389.828 184.3 390.148 184.097 390.504 183.992L400.444 181.112C400.756 181.025 401.041 180.862 401.275 180.638C401.508 180.414 401.683 180.136 401.783 179.828L405.011 169.925C405.116 169.56 405.323 169.232 405.607 168.98C405.892 168.728 406.243 168.563 406.618 168.503C406.993 168.443 407.378 168.492 407.727 168.643C408.075 168.794 408.374 169.042 408.587 169.356Z" fill="#44D08D"/>
<path d="M869.379 379.019L876.715 382.834C876.942 382.951 877.193 383.012 877.449 383.012C877.704 383.012 877.956 382.951 878.182 382.834L885.518 378.927C885.781 378.791 886.076 378.73 886.371 378.752C886.665 378.774 886.948 378.877 887.188 379.05C887.428 379.223 887.615 379.459 887.728 379.732C887.841 380.005 887.876 380.304 887.829 380.596L886.472 388.776C886.432 389.032 886.455 389.295 886.538 389.54C886.621 389.786 886.762 390.008 886.949 390.188L892.928 395.947C893.144 396.153 893.298 396.415 893.372 396.704C893.447 396.993 893.438 397.297 893.349 397.582C893.259 397.867 893.091 398.12 892.864 398.314C892.638 398.508 892.361 398.635 892.066 398.68L883.849 399.908C883.594 399.946 883.351 400.046 883.144 400.2C882.936 400.353 882.769 400.556 882.657 400.789L878.989 408.253C878.861 408.521 878.659 408.747 878.407 408.905C878.156 409.063 877.865 409.147 877.568 409.147C877.271 409.147 876.98 409.063 876.729 408.905C876.477 408.747 876.275 408.521 876.147 408.253L872.479 400.825C872.361 400.595 872.189 400.397 871.979 400.247C871.768 400.097 871.524 400 871.268 399.963L863.052 398.808C862.757 398.77 862.48 398.65 862.25 398.462C862.021 398.273 861.85 398.024 861.756 397.742C861.662 397.461 861.649 397.158 861.72 396.87C861.79 396.581 861.94 396.319 862.153 396.112L868.077 390.28C868.258 390.097 868.392 389.873 868.468 389.627C868.545 389.382 868.562 389.121 868.517 388.868L867.068 380.688C867.014 380.394 867.044 380.091 867.155 379.814C867.266 379.537 867.454 379.297 867.696 379.123C867.938 378.948 868.225 378.845 868.523 378.827C868.821 378.809 869.118 378.875 869.379 379.019Z" fill="#44D08D"/>
<path d="M457.793 134.253L459.352 139.003C459.406 139.146 459.492 139.275 459.603 139.38C459.714 139.485 459.848 139.563 459.993 139.609L464.78 141.021C464.951 141.071 465.105 141.168 465.224 141.301C465.343 141.434 465.422 141.597 465.453 141.773C465.483 141.949 465.464 142.13 465.397 142.295C465.33 142.46 465.218 142.603 465.074 142.708L461.057 145.643C460.931 145.735 460.828 145.857 460.758 145.997C460.688 146.138 460.652 146.293 460.654 146.449L460.8 151.438C460.809 151.616 460.767 151.794 460.678 151.949C460.59 152.104 460.459 152.23 460.301 152.313C460.142 152.396 459.964 152.432 459.786 152.417C459.608 152.401 459.438 152.335 459.297 152.227L455.243 149.311C455.116 149.223 454.971 149.166 454.818 149.144C454.666 149.122 454.51 149.135 454.363 149.182L449.668 150.869C449.5 150.93 449.319 150.941 449.145 150.904C448.97 150.866 448.81 150.78 448.682 150.656C448.554 150.532 448.464 150.374 448.421 150.201C448.378 150.028 448.384 149.847 448.439 149.677L449.961 144.927C450.006 144.779 450.016 144.623 449.991 144.47C449.965 144.317 449.905 144.173 449.815 144.047L446.77 140.104C446.66 139.963 446.592 139.794 446.574 139.616C446.555 139.439 446.587 139.259 446.665 139.099C446.743 138.938 446.865 138.803 447.017 138.708C447.168 138.613 447.344 138.563 447.522 138.563H452.511C452.662 138.565 452.812 138.529 452.947 138.459C453.081 138.388 453.196 138.286 453.281 138.16L456.105 134.033C456.205 133.888 456.342 133.772 456.503 133.7C456.664 133.628 456.842 133.602 457.017 133.625C457.191 133.648 457.356 133.719 457.493 133.829C457.63 133.94 457.734 134.087 457.793 134.253Z" fill="#44D08D"/>
<path d="M594.995 106.707L657.607 233.583C659.556 237.52 662.432 240.926 665.988 243.507C669.543 246.088 673.672 247.768 678.02 248.401L818.027 268.741C823.036 269.466 827.742 271.579 831.612 274.84C835.482 278.102 838.362 282.382 839.925 287.195C841.488 292.009 841.672 297.164 840.457 302.077C839.241 306.99 836.675 311.464 833.048 314.994L731.738 413.737C728.594 416.806 726.242 420.592 724.885 424.771C723.527 428.949 723.204 433.395 723.943 437.725L764.401 585.802C765.465 605.023 735.296 618.099 708.537 605.738L583.312 539.916C579.426 537.865 575.098 536.793 570.703 536.793C566.309 536.793 561.981 537.865 558.094 539.916L432.869 605.738C428.392 608.089 423.348 609.141 418.304 608.775C413.261 608.409 408.421 606.64 404.331 603.668C400.24 600.696 397.063 596.638 395.157 591.955C393.252 587.271 392.695 582.148 393.548 577.164L417.39 437.78C418.144 433.44 417.83 428.981 416.475 424.788C415.12 420.596 412.765 416.797 409.614 413.718L308.359 314.994C304.731 311.462 302.165 306.984 300.951 302.069C299.738 297.153 299.925 291.996 301.492 287.181C303.06 282.367 305.944 278.087 309.819 274.828C313.694 271.569 318.404 269.46 323.416 268.741L463.423 248.401C467.769 247.77 471.897 246.091 475.449 243.509C479.002 240.928 481.874 237.521 483.817 233.583L544.688 110.265C552.262 94.914 561.469 88.8618 590.538 88.8618C600.093 88.8618 590.024 96.638 594.995 106.707Z" fill="#44D08D"/>
<path opacity="0.3" d="M594.995 106.707L657.607 233.583C659.556 237.52 662.432 240.926 665.988 243.507C669.543 246.088 673.672 247.768 678.02 248.401L818.027 268.741C823.036 269.466 827.742 271.579 831.612 274.84C835.482 278.102 838.362 282.382 839.925 287.195C841.488 292.009 841.672 297.164 840.457 302.077C839.241 306.99 836.675 311.464 833.048 314.994L731.738 413.737C728.594 416.806 726.242 420.592 724.885 424.771C723.527 428.949 723.204 433.395 723.943 437.725L764.401 585.802C765.465 605.023 735.296 618.099 708.537 605.738L583.312 539.916C579.426 537.865 575.098 536.793 570.703 536.793C566.309 536.793 561.981 537.865 558.094 539.916L432.869 605.738C428.392 608.089 423.348 609.141 418.304 608.775C413.261 608.409 408.421 606.64 404.331 603.668C400.24 600.696 397.063 596.638 395.157 591.955C393.252 587.271 392.695 582.148 393.548 577.164L417.39 437.78C418.144 433.44 417.83 428.981 416.475 424.788C415.12 420.596 412.765 416.797 409.614 413.718L308.359 314.994C304.731 311.462 302.165 306.984 300.951 302.069C299.738 297.153 299.925 291.996 301.492 287.181C303.06 282.367 305.944 278.087 309.819 274.828C313.694 271.569 318.404 269.46 323.416 268.741L463.423 248.401C467.769 247.77 471.897 246.091 475.449 243.509C479.002 240.928 481.874 237.521 483.817 233.583L544.688 110.265C552.262 94.914 561.469 88.8618 590.538 88.8618C600.093 88.8618 590.024 96.638 594.995 106.707Z" fill="black"/>
<path d="M425.698 411.554C422.735 412.35 419.7 412.847 416.638 413.04C413.608 413.539 410.535 413.723 407.468 413.59C410.429 412.783 413.465 412.279 416.528 412.086C419.557 411.587 422.631 411.409 425.698 411.554Z" fill="#44D08D"/>
<path d="M428.541 423.402C426.978 424.061 425.303 424.416 423.607 424.447C421.948 424.773 420.241 424.773 418.582 424.447C420.151 423.809 421.822 423.461 423.515 423.42C425.175 423.104 426.879 423.098 428.541 423.402Z" fill="#44D08D"/>
<path d="M416.95 401.339C413.693 402.178 410.365 402.712 407.009 402.934C403.687 403.465 400.322 403.686 396.959 403.595C400.211 402.734 403.541 402.2 406.899 401.999C410.222 401.468 413.586 401.247 416.95 401.339Z" fill="#44D08D"/>
<path d="M407.119 391.564C403.867 392.424 400.537 392.959 397.179 393.159C393.857 393.69 390.492 393.911 387.129 393.819C390.381 392.959 393.711 392.424 397.069 392.224C400.392 391.693 403.756 391.472 407.119 391.564Z" fill="#44D08D"/>
<path d="M397.308 381.789C394.056 382.649 390.726 383.183 387.368 383.384C384.045 383.915 380.681 384.136 377.317 384.044C380.574 383.205 383.902 382.671 387.258 382.449C390.58 381.918 393.945 381.697 397.308 381.789Z" fill="#44D08D"/>
<path d="M387.495 372.013C384.243 372.875 380.913 373.415 377.555 373.627C374.232 374.147 370.868 374.362 367.505 374.269C370.762 373.43 374.089 372.896 377.445 372.673C380.768 372.142 384.132 371.921 387.495 372.013Z" fill="#44D08D"/>
<path d="M377.684 362.238C374.431 363.1 371.102 363.64 367.744 363.852C364.42 364.372 361.056 364.587 357.693 364.494C360.95 363.655 364.278 363.12 367.634 362.898C370.956 362.367 374.321 362.146 377.684 362.238Z" fill="#44D08D"/>
<path d="M367.872 352.481C364.616 353.32 361.288 353.854 357.932 354.077C354.61 354.608 351.245 354.823 347.882 354.718C351.139 353.879 354.466 353.345 357.822 353.123C361.143 352.581 364.509 352.366 367.872 352.481Z" fill="#44D08D"/>
<path d="M358.06 342.706C354.803 343.545 351.475 344.079 348.12 344.301C344.797 344.833 341.432 345.048 338.069 344.943C341.326 344.104 344.654 343.57 348.01 343.348C351.331 342.806 354.697 342.591 358.06 342.706Z" fill="#44D08D"/>
<path d="M348.248 332.931C344.992 333.77 341.664 334.304 338.308 334.526C334.987 335.068 331.621 335.283 328.258 335.168C331.515 334.329 334.842 333.795 338.198 333.573C341.519 333.031 344.885 332.816 348.248 332.931Z" fill="#44D08D"/>
<path d="M319.418 290.437C316.357 291.053 313.241 291.348 310.119 291.317C307.013 291.615 303.884 291.584 300.784 291.225C303.848 290.632 306.962 290.343 310.083 290.363C313.189 290.077 316.316 290.102 319.418 290.437Z" fill="#44D08D"/>
<path d="M322.444 280.02C319.54 280.433 316.6 280.519 313.677 280.276C310.751 280.353 307.824 280.119 304.947 279.58C307.851 279.166 310.791 279.08 313.714 279.323C316.64 279.246 319.566 279.48 322.444 280.02Z" fill="#44D08D"/>
<path d="M331.981 270.189C329.705 270.722 327.365 270.932 325.03 270.813C322.708 271.023 320.368 270.905 318.079 270.465C320.352 269.953 322.684 269.75 325.012 269.859C327.339 269.661 329.683 269.772 331.981 270.189Z" fill="#44D08D"/>
<path d="M338.436 323.155C335.179 323.995 331.851 324.529 328.496 324.751C325.175 325.293 321.808 325.508 318.445 325.393C321.702 324.554 325.03 324.019 328.386 323.797C331.707 323.255 335.073 323.04 338.436 323.155Z" fill="#44D08D"/>
<path d="M329.725 312.628C326.465 313.487 323.13 314.027 319.766 314.242C316.443 314.762 313.078 314.977 309.716 314.884C312.973 314.045 316.3 313.511 319.656 313.288C322.985 312.757 326.355 312.536 329.725 312.628Z" fill="#44D08D"/>
<path d="M321.582 302.156C318.337 302.996 315.022 303.53 311.678 303.752C308.374 304.283 305.027 304.498 301.683 304.394C304.921 303.555 308.23 303.021 311.568 302.798C314.879 302.278 318.231 302.063 321.582 302.156Z" fill="#44D08D"/>
<path d="M719.56 592.863C717.017 594.57 714.307 596.014 711.472 597.173C708.768 598.613 705.922 599.768 702.98 600.621C708.2 597.472 713.731 594.872 719.486 592.863H719.56Z" fill="#44D08D"/>
<path d="M726.015 603.189C724.741 604.297 723.274 605.161 721.687 605.738C720.229 606.591 718.624 607.163 716.955 607.426C719.679 605.451 722.754 604.014 726.015 603.189Z" fill="#44D08D"/>
<path d="M707.951 586.004C705.132 587.843 702.148 589.415 699.037 590.699C696.062 592.274 692.942 593.558 689.721 594.533C695.515 591.122 701.619 588.266 707.951 586.004Z" fill="#44D08D"/>
<path d="M695.535 579.879C689.746 583.305 683.641 586.167 677.305 588.425C680.12 586.576 683.105 584.998 686.218 583.712C689.197 582.147 692.316 580.863 695.535 579.879Z" fill="#44D08D"/>
<path d="M683.1 573.771C680.286 575.618 677.301 577.191 674.187 578.467C671.21 580.042 668.09 581.331 664.87 582.318C667.684 580.465 670.668 578.887 673.783 577.605C676.764 576.043 679.883 574.76 683.1 573.771Z" fill="#44D08D"/>
<path d="M670.684 567.646C664.895 571.073 658.791 573.935 652.454 576.192C658.253 572.785 664.356 569.924 670.684 567.646Z" fill="#44D08D"/>
<path d="M658.249 561.539C655.434 563.388 652.449 564.966 649.336 566.252C646.357 567.817 643.238 569.1 640.02 570.085C642.835 568.236 645.819 566.658 648.933 565.372C651.912 563.807 655.031 562.523 658.249 561.539Z" fill="#44D08D"/>
<path d="M645.815 555.432C640.026 558.852 633.921 561.708 627.585 563.96C630.406 562.125 633.39 560.554 636.498 559.265C639.475 557.694 642.595 556.41 645.815 555.432Z" fill="#44D08D"/>
<path d="M633.362 549.306C627.573 552.733 621.468 555.595 615.132 557.852C617.946 556.005 620.931 554.433 624.045 553.157C627.022 551.582 630.142 550.293 633.362 549.306Z" fill="#44D08D"/>
<path d="M620.964 543.199C618.15 545.046 615.166 546.618 612.051 547.894C609.074 549.469 605.955 550.759 602.734 551.745C608.523 548.318 614.628 545.456 620.964 543.199Z" fill="#44D08D"/>
<path d="M608.548 537.092C602.754 540.503 596.65 543.358 590.318 545.62C593.137 543.781 596.121 542.209 599.232 540.925C602.207 539.35 605.327 538.066 608.548 537.092Z" fill="#44D08D"/>
<path d="M596.902 529.921C594.086 531.77 591.102 533.348 587.989 534.634C585.009 536.199 581.89 537.482 578.672 538.467C584.46 535.04 590.565 532.178 596.902 529.921Z" fill="#44D08D"/>
<path d="M581.643 524.62C580.368 525.741 578.894 526.612 577.297 527.188C575.825 528.044 574.209 528.623 572.528 528.894C573.809 527.77 575.29 526.899 576.893 526.326C578.359 525.471 579.969 524.893 581.643 524.62Z" fill="#44D08D"/>
<path d="M614.729 103.974L677.378 230.832C679.318 234.773 682.189 238.182 685.742 240.764C689.296 243.346 693.425 245.023 697.772 245.65L837.78 266.008C842.785 266.732 847.488 268.842 851.356 272.101C855.223 275.359 858.102 279.635 859.665 284.445C861.228 289.254 861.413 294.405 860.2 299.315C858.987 304.225 856.424 308.697 852.8 312.225L751.49 410.986C748.344 414.053 745.991 417.839 744.633 422.018C743.275 426.197 742.953 430.643 743.696 434.974L767.538 574.358C768.394 579.339 767.839 584.459 765.937 589.141C764.035 593.823 760.861 597.88 756.775 600.852C752.688 603.825 747.851 605.595 742.811 605.963C737.771 606.33 732.728 605.28 728.254 602.932L603.028 537.11C599.142 535.059 594.814 533.987 590.419 533.987C586.025 533.987 581.697 535.059 577.81 537.11L452.585 602.932C448.114 605.281 443.076 606.333 438.039 605.969C433.002 605.606 428.166 603.842 424.079 600.876C419.992 597.91 416.815 593.86 414.907 589.184C412.999 584.508 412.436 579.392 413.282 574.413L437.124 435.029C437.867 430.698 437.545 426.252 436.187 422.073C434.83 417.894 432.476 414.108 429.33 411.041L328.02 312.28C324.396 308.752 321.833 304.28 320.62 299.37C319.407 294.46 319.592 289.309 321.156 284.5C322.719 279.69 325.597 275.414 329.465 272.156C333.332 268.897 338.035 266.787 343.04 266.063L483.048 245.705C487.395 245.078 491.524 243.401 495.078 240.819C498.631 238.237 501.502 234.828 503.442 230.887L566.055 104.029C568.282 99.475 571.741 95.6368 576.04 92.9503C580.339 90.2637 585.305 88.8366 590.375 88.8308C595.444 88.8251 600.413 90.241 604.718 92.9179C609.023 95.5947 612.492 99.425 614.729 103.974Z" fill="#EAFF8C"/>
<path d="M497.151 238.498C495.469 235.936 494.055 233.207 492.933 230.355C491.523 227.631 490.405 224.767 489.595 221.809C491.277 224.371 492.69 227.1 493.813 229.952C495.222 232.675 496.341 235.54 497.151 238.498Z" fill="#44D08D"/>
<path d="M486.752 244.862C485.658 243.574 484.812 242.094 484.258 240.497C483.414 239.032 482.854 237.42 482.607 235.747C483.725 237.022 484.579 238.505 485.12 240.112C485.953 241.581 486.507 243.191 486.752 244.862Z" fill="#44D08D"/>
<path d="M504.156 226.962C502.35 224.123 500.815 221.121 499.571 217.994C498.04 215 496.811 211.86 495.903 208.622C497.71 211.461 499.245 214.464 500.488 217.59C502.001 220.593 503.229 223.731 504.156 226.962Z" fill="#44D08D"/>
<path d="M510.484 214.656C508.667 211.82 507.126 208.817 505.881 205.688C504.37 202.691 503.142 199.559 502.213 196.334C504.022 199.175 505.563 202.177 506.816 205.302C508.327 208.3 509.555 211.431 510.484 214.656Z" fill="#44D08D"/>
<path d="M516.683 202.313C514.876 199.474 513.341 196.472 512.098 193.345C510.585 190.342 509.357 187.205 508.43 183.973C510.236 186.812 511.772 189.815 513.015 192.941C514.527 195.944 515.755 199.082 516.683 202.313Z" fill="#44D08D"/>
<path d="M522.955 189.97C521.151 187.127 519.61 184.125 518.352 181.002C516.843 177.998 515.615 174.861 514.684 171.63C516.501 174.466 518.042 177.469 519.287 180.599C520.799 183.601 522.027 186.739 522.955 189.97Z" fill="#44D08D"/>
<path d="M529.227 177.609C527.402 174.778 525.86 171.774 524.624 168.641C523.117 165.642 521.889 162.511 520.956 159.288C522.767 162.124 524.303 165.127 525.541 168.256C527.062 171.251 528.296 174.382 529.227 177.609Z" fill="#44D08D"/>
<path d="M535.482 165.266C533.675 162.428 532.14 159.425 530.897 156.298C529.375 153.3 528.146 150.161 527.229 146.926C529.035 149.765 530.57 152.768 531.814 155.895C533.326 158.897 534.554 162.035 535.482 165.266Z" fill="#44D08D"/>
<path d="M541.754 152.905C539.945 150.065 538.404 147.062 537.15 143.937C535.64 140.94 534.412 137.808 533.482 134.583C535.291 137.424 536.832 140.426 538.086 143.552C539.596 146.549 540.824 149.68 541.754 152.905Z" fill="#44D08D"/>
<path d="M548.008 140.562C546.226 137.721 544.716 134.718 543.496 131.594C541.984 128.592 540.756 125.454 539.828 122.222C541.635 125.061 543.17 128.064 544.413 131.191C545.91 134.192 547.114 137.33 548.008 140.562Z" fill="#44D08D"/>
<path d="M554.279 128.201C552.473 125.363 550.938 122.36 549.694 119.233C548.18 116.238 546.952 113.106 546.026 109.88C547.852 112.71 549.394 115.714 550.63 118.848C552.134 121.846 553.356 124.977 554.279 128.201Z" fill="#44D08D"/>
<path d="M561.579 116.665C559.772 113.827 558.237 110.824 556.994 107.697C555.482 104.695 554.254 101.557 553.326 98.3254C555.133 101.164 556.668 104.167 557.911 107.294C559.433 110.292 560.661 113.431 561.579 116.665Z" fill="#44D08D"/>
<path d="M567.081 101.462C565.965 100.176 565.105 98.6879 564.55 97.0782C563.716 95.5967 563.163 93.974 562.918 92.2915C564.042 93.6088 564.918 95.1187 565.504 96.7481C566.305 98.2132 566.839 99.8092 567.081 101.462Z" fill="#44D08D"/>
<path d="M464.544 251.914C464.544 251.914 464.012 252.024 463.004 252.171L458.529 252.758L442.114 254.702L387.956 260.846L358.172 264.037C353.587 264.532 349.222 264.972 345.206 265.724C341.484 266.364 337.859 267.479 334.422 269.044C329.4 271.314 325.273 275.183 322.684 280.048C321.826 281.867 321.21 283.791 320.85 285.77C320.827 285.637 320.827 285.5 320.85 285.367C320.85 285.091 320.85 284.706 320.979 284.193C321.246 282.704 321.702 281.256 322.336 279.883C324.85 274.849 329.002 270.819 334.11 268.457C337.608 266.814 341.308 265.642 345.114 264.972C349.167 264.166 353.55 263.689 358.135 263.138L387.975 259.837L442.224 254.024L458.73 252.373L463.205 251.969C463.649 251.913 464.097 251.895 464.544 251.914Z" fill="#626262"/>
<path d="M667.477 213.715C667.477 213.715 667.198 213.249 666.728 212.345L664.701 208.313L657.462 193.453L633.835 144.335L621.018 117.26C619.041 113.094 617.189 109.117 615.157 105.572C613.328 102.268 611.082 99.2124 608.473 96.4816C604.677 92.487 599.664 89.863 594.219 89.0199C592.218 88.8088 590.199 88.8597 588.212 89.1715C588.33 89.1059 588.459 89.061 588.593 89.0387C588.853 88.9481 589.216 88.8214 589.743 88.7736C591.237 88.5357 592.755 88.4897 594.26 88.6366C599.841 89.3539 605.013 91.9485 608.925 95.994C611.627 98.756 613.952 101.864 615.837 105.238C617.933 108.8 619.826 112.782 621.855 116.93L634.793 144.02L658.139 193.333L665.131 208.376L666.985 212.469C667.184 212.87 667.349 213.287 667.477 213.715Z" fill="#626262"/>
<path d="M767.764 397.819C767.764 397.819 768.106 397.398 768.794 396.645L771.886 393.358L783.36 381.46L821.388 342.413L842.421 321.084C845.656 317.797 848.756 314.693 851.388 311.568C853.864 308.716 855.963 305.558 857.633 302.17C860.083 297.234 860.827 291.626 859.751 286.221C859.263 284.27 858.522 282.391 857.547 280.631C857.649 280.72 857.736 280.826 857.803 280.943C857.977 281.156 858.221 281.454 858.446 281.933C859.182 283.254 859.746 284.664 860.125 286.128C861.366 291.617 860.704 297.365 858.246 302.427C856.579 305.914 854.457 309.164 851.935 312.092C849.309 315.283 846.218 318.427 843.018 321.756L822.013 343.205L783.704 382.055L771.973 393.783L768.765 396.929C768.457 397.254 768.122 397.552 767.764 397.819Z" fill="#626262"/>
<path d="M469.255 593.017C469.137 592.791 486.968 582.902 509.13 570.95C531.292 558.997 549.301 549.481 549.435 549.716C549.568 549.952 531.721 559.83 509.559 571.783C487.397 583.736 469.326 593.213 469.255 593.017Z" fill="#7D7D7D"/>
<path d="M608.15 538.807C605.191 537.542 602.121 536.553 598.98 535.854C591.288 534.501 583.384 535.004 575.926 537.321C568.449 539.728 561.259 542.95 554.487 546.931L548.27 550.453C547.534 550.925 546.754 551.325 545.94 551.645C546.609 551.074 547.327 550.565 548.086 550.123C549.498 549.206 551.552 547.903 554.138 546.363C560.842 542.19 568.038 538.863 575.56 536.459C583.151 534.084 591.219 533.661 599.016 535.23C601.357 535.755 603.633 536.537 605.802 537.56C606.398 537.823 606.975 538.13 607.526 538.477C607.966 538.697 608.168 538.807 608.15 538.807Z" fill="#7D7D7D"/>
<path d="M854.248 209.319L874.276 203.12C885.429 210.476 898.93 213.395 912.126 211.302C925.322 209.208 937.258 202.255 945.587 191.808C953.916 181.361 958.036 168.176 957.137 154.846C956.238 141.515 950.385 129.003 940.729 119.769C931.073 110.535 918.312 105.247 904.954 104.944C891.597 104.641 878.609 109.346 868.545 118.133C858.48 126.921 852.067 139.155 850.565 152.431C849.063 165.707 852.582 179.065 860.429 189.878L854.248 209.319Z" fill="white"/>
<path d="M854.249 209.319C854.249 209.319 854.34 208.915 854.597 208.09L855.716 204.422L860.191 189.75C860.199 189.722 860.213 189.697 860.231 189.674C860.25 189.652 860.272 189.633 860.298 189.62C860.323 189.606 860.351 189.597 860.38 189.595C860.409 189.592 860.438 189.595 860.466 189.603L860.154 189.897C854.711 182.505 851.274 173.83 850.177 164.716C848.714 152.325 851.591 139.809 858.32 129.301C862.229 123.251 867.296 118.034 873.231 113.951C879.625 109.559 886.896 106.606 894.542 105.294C902.658 103.968 910.969 104.482 918.86 106.798C922.929 108.012 926.847 109.679 930.543 111.768C937.99 116.199 944.316 122.287 949.03 129.558C951.286 133.149 953.132 136.981 954.532 140.984C957.16 148.735 958.006 156.978 957.008 165.101C956.066 172.771 953.448 180.141 949.342 186.687C942.045 198.449 930.509 206.958 917.118 210.456C911.474 211.899 905.636 212.432 899.824 212.033C890.649 211.374 881.803 208.348 874.148 203.248H874.331L859.292 207.815L855.477 208.952L854.23 209.319L874.203 202.826C874.23 202.808 874.262 202.799 874.294 202.799C874.327 202.799 874.359 202.808 874.386 202.826C882.015 207.785 890.783 210.714 899.86 211.336C905.596 211.678 911.35 211.127 916.916 209.704C923.139 208.038 929.015 205.274 934.266 201.543C940.006 197.435 944.874 192.23 948.59 186.229C952.618 179.784 955.185 172.535 956.109 164.991C957.071 157.007 956.225 148.908 953.633 141.296C949.434 129.256 941.112 119.089 930.14 112.594C926.507 110.542 922.656 108.906 918.659 107.715C910.924 105.438 902.778 104.917 894.817 106.193C887.56 107.443 880.641 110.183 874.496 114.239C868.35 118.295 863.111 123.579 859.109 129.76C853.285 138.729 850.312 149.251 850.581 159.942C850.849 170.633 854.346 180.992 860.613 189.658C860.634 189.704 860.641 189.755 860.632 189.805C860.623 189.855 860.598 189.9 860.561 189.935C860.525 189.969 860.478 189.991 860.428 189.998C860.378 190.004 860.327 189.994 860.283 189.97L860.631 189.878C856.596 202.111 854.707 207.888 854.249 209.319Z" fill="#263238"/>
<path d="M914.312 173.519L914.789 151.878C914.789 151.878 910.039 150.832 905.93 144.267C903.988 141.257 902.504 137.975 901.529 134.528C901.387 133.968 901.052 133.476 900.582 133.14C900.111 132.804 899.537 132.646 898.961 132.694C898.248 132.724 897.557 132.955 896.97 133.36C896.382 133.766 895.922 134.33 895.642 134.987C894.12 138.251 896.155 146.321 896.155 146.321C896.155 146.321 896.999 147.953 894.743 147.898L886.71 147.715C885.666 147.688 884.645 148.033 883.831 148.687C883.405 149.013 883.068 149.441 882.85 149.931C882.632 150.421 882.54 150.958 882.584 151.493C882.767 154.555 884.418 155.968 884.326 156.61C883.82 157.764 883.704 159.052 883.996 160.278C884.601 162.112 885.005 162.002 884.986 162.882C884.956 164.415 885.166 165.944 885.61 167.412C885.873 168.157 886.271 168.847 886.783 169.448C886.611 170.997 886.767 172.566 887.242 174.051C888.012 175.757 891.369 176.71 892.487 176.729C893.606 176.747 901.657 175.335 903.968 174.895C906.279 174.454 912.129 172.437 914.312 173.519Z" fill="#44D08D"/>
<path d="M918.402 151.478L917.905 173.719L926.175 173.903L926.671 151.662L918.402 151.478Z" fill="#44D08D"/>
<path d="M307.093 385.603H151.203V468.041H265.828C269.221 473.25 276.392 485.116 276.392 485.116L284.645 468.041H307.093V385.603Z" fill="white"/>
<path d="M307.093 385.603C307.093 385.603 307.093 386.08 307.093 387.033C307.093 387.987 307.093 389.436 307.093 391.27C307.093 395.048 307.093 400.568 307.093 407.666C307.093 421.971 307.203 442.604 307.277 468.041V468.39H306.928H284.48L284.829 468.17C282.243 473.525 279.473 479.302 276.594 485.244L276.264 485.923L275.879 485.281L265.315 468.243L265.663 468.426H161.125H150.635V467.95C150.635 438.844 150.635 411.096 150.635 385.511V385.071H151.075L263.444 385.254L295.631 385.401H304.159H306.341H304.104H295.521L263.371 385.548L151.13 385.731L151.57 385.291C151.57 410.82 151.57 438.624 151.57 467.729L151.093 467.253H161.217H265.755H265.993L266.122 467.454C269.79 473.397 273.458 479.174 276.667 484.547H275.952C278.831 478.605 281.619 472.828 284.223 467.473L284.333 467.253H284.572H307.02L306.653 467.619C306.653 442.274 306.8 421.769 306.855 407.446C306.855 400.33 306.855 394.791 306.855 390.94C306.855 389.106 306.855 387.639 306.855 386.648C306.855 385.658 307.093 385.603 307.093 385.603Z" fill="#263238"/>
<path d="M187.572 426.189C188.873 425.626 189.983 424.697 190.768 423.515C191.552 422.334 191.977 420.95 191.991 419.532C192.05 418.604 191.92 417.674 191.608 416.798C191.297 415.923 190.81 415.119 190.179 414.437C189.547 413.755 188.783 413.209 187.934 412.831C187.085 412.453 186.167 412.252 185.238 412.239C184.308 412.227 183.386 412.403 182.527 412.758C181.668 413.113 180.89 413.639 180.24 414.304C179.59 414.969 179.083 415.759 178.748 416.626C178.413 417.493 178.257 418.419 178.291 419.348C178.255 420.787 178.643 422.204 179.406 423.423C180.169 424.643 181.274 425.611 182.583 426.208C172.038 427.712 172.423 439.174 172.423 439.174L197.347 439.504C197.347 439.504 198.007 427.84 187.572 426.189Z" fill="#44D08D"/>
<path d="M285.342 414.543C285.342 414.69 269.441 414.819 249.835 414.819C230.23 414.819 214.329 414.69 214.329 414.543C214.329 414.397 230.23 414.25 249.835 414.25C269.441 414.25 285.342 414.378 285.342 414.543Z" fill="#263238"/>
<path d="M285.342 423.035C285.342 423.2 269.441 423.328 249.835 423.328C230.23 423.328 214.329 423.2 214.329 423.035C214.329 422.87 230.23 422.76 249.835 422.76C269.441 422.76 285.342 422.888 285.342 423.035Z" fill="#263238"/>
<path d="M285.342 431.545C285.342 431.691 269.441 431.82 249.835 431.82C230.23 431.82 214.329 431.691 214.329 431.545C214.329 431.398 230.23 431.251 249.835 431.251C269.441 431.251 285.342 431.38 285.342 431.545Z" fill="#263238"/>
<path d="M256.786 442.292C256.786 442.457 247.286 442.585 235.567 442.585C223.848 442.585 214.329 442.457 214.329 442.292C214.329 442.127 223.829 441.999 235.567 441.999C247.304 441.999 256.786 442.127 256.786 442.292Z" fill="#263238"/>
<g opacity="0.3">
<path d="M751.857 334.801C749.308 313.985 746.135 292.509 734.947 274.756C723.76 257.003 702.394 243.981 682.036 248.97C678.368 270.666 674.352 293.701 686.713 311.931C689.556 316.131 693.242 319.982 694.508 324.897C695.865 330.234 694.141 335.791 692.857 341.128C683.119 381.073 696.525 422.613 709.803 461.53C724.292 504.024 739.331 547.527 767.794 582.226C767.574 571.717 765.777 563.794 764.475 555.871C762.402 543.29 760.257 531.498 757.432 515.047C754.204 496.193 746.428 455.148 743.567 433.892C742.881 428.647 743.708 423.314 745.951 418.523C747.999 414.715 750.743 411.325 754.039 408.528L757.707 405.025C755.305 372.912 755.763 366.713 751.857 334.801Z" fill="black"/>
</g>
<path d="M827.16 640.877L806.051 672.624C806.051 672.624 831.122 704.7 827.802 710.936L764.951 672.202L795.817 621.547L827.16 640.877Z" fill="#44D08D"/>
<g opacity="0.3">
<path d="M827.16 640.877L806.051 672.624C806.051 672.624 831.122 704.7 827.802 710.936L764.951 672.202L795.817 621.547L827.16 640.877Z" fill="black"/>
</g>
<path d="M788.299 657.824C787.569 657.613 786.786 657.685 786.107 658.025C785.427 658.364 784.9 658.947 784.631 659.658C784.419 660.375 784.492 661.147 784.833 661.812C785.174 662.478 785.758 662.987 786.465 663.234C787.225 663.429 788.032 663.337 788.729 662.975C789.426 662.613 789.965 662.006 790.243 661.272C790.391 660.507 790.237 659.714 789.813 659.061C789.388 658.408 788.727 657.944 787.968 657.769" fill="#E0E0E0"/>
<g opacity="0.6">
<path d="M764.951 672.111L768.271 667.122L827.271 706.131C827.271 706.131 829.325 709.066 827.802 710.845L764.951 672.111Z" fill="white"/>
</g>
<path d="M807.262 672.825C807.06 673.137 805.428 672.33 803.319 672.385C801.21 672.44 799.651 673.229 799.394 672.936C799.137 672.642 800.733 671.102 803.301 671.102C805.868 671.102 807.592 672.624 807.262 672.825Z" fill="#263238"/>
<path d="M812.177 679.63C812.049 679.96 810.343 679.63 808.509 680.327C806.675 681.024 805.52 682.161 805.226 681.959C804.933 681.757 805.795 679.905 808.106 679.135C810.416 678.364 812.342 679.318 812.177 679.63Z" fill="#263238"/>
<path d="M811.058 689.827C810.728 689.717 811.242 687.993 813.076 686.727C814.91 685.462 816.744 685.737 816.744 686.085C816.744 686.434 815.258 686.764 813.791 687.773C812.324 688.781 811.37 689.973 811.058 689.827Z" fill="#263238"/>
<path d="M811.26 665.086C810.948 665.288 809.811 664.004 807.995 663.05C806.18 662.097 804.493 661.803 804.511 661.455C804.529 661.106 806.473 660.794 808.601 661.95C810.728 663.105 811.572 664.939 811.26 665.086Z" fill="#263238"/>
<path d="M815.405 658.63C815.405 658.759 814.011 658.19 812.269 656.668C811.262 655.765 810.369 654.742 809.609 653.624C809.152 652.963 808.741 652.27 808.381 651.551C808.154 651.137 807.987 650.692 807.885 650.231C807.82 649.886 807.871 649.53 808.03 649.218C808.189 648.906 808.448 648.656 808.766 648.507C809.059 648.38 809.379 648.325 809.698 648.348C810.017 648.37 810.327 648.469 810.6 648.635C811 648.877 811.359 649.18 811.663 649.534C812.242 650.092 812.764 650.707 813.222 651.368C813.983 652.494 814.565 653.731 814.946 655.036C815.398 656.205 815.494 657.481 815.221 658.704C815.02 658.704 814.891 657.328 814.103 655.293C813.632 654.114 813.016 652.999 812.269 651.973C811.826 651.378 811.335 650.82 810.801 650.304C810.251 649.717 809.683 649.369 809.334 649.552C808.986 649.736 809.169 649.681 809.188 649.956C809.259 650.297 809.383 650.624 809.554 650.928C809.884 651.625 810.251 652.285 810.618 652.908C811.302 653.985 812.082 654.998 812.947 655.935C814.378 657.64 815.515 658.465 815.405 658.63Z" fill="#263238"/>
<path d="M814.744 658.814C814.598 658.814 814.744 657.328 815.79 655.274C816.447 654.07 817.31 652.99 818.339 652.083C818.951 651.548 819.615 651.075 820.32 650.671C820.743 650.355 821.243 650.157 821.768 650.096C822.292 650.035 822.824 650.113 823.309 650.322C823.576 650.51 823.788 650.765 823.923 651.062C824.059 651.358 824.113 651.685 824.079 652.01C824.014 652.472 823.884 652.922 823.694 653.349C823.361 654.114 822.922 654.83 822.392 655.476C821.491 656.549 820.338 657.38 819.036 657.897C816.798 658.777 815.368 658.355 815.368 658.227C816.502 657.915 817.617 657.536 818.706 657.09C819.809 656.525 820.773 655.723 821.53 654.742C821.965 654.185 822.317 653.567 822.576 652.908C822.906 652.193 822.979 651.496 822.686 651.405C822.387 651.334 822.077 651.328 821.776 651.388C821.476 651.448 821.191 651.573 820.943 651.753C820.298 652.11 819.685 652.521 819.109 652.982C818.129 653.776 817.271 654.709 816.56 655.751C815.313 657.53 814.928 658.869 814.744 658.814Z" fill="#263238"/>
<path d="M821.347 647.553L828.206 684.967C828.206 684.967 868.554 690.469 870.498 697.346L798.422 713.265L785.327 655.403L821.347 647.553Z" fill="#44D08D"/>
<path d="M805.226 686.764C804.582 687.132 804.095 687.724 803.858 688.427C803.622 689.13 803.652 689.896 803.943 690.579C804.281 691.238 804.86 691.742 805.559 691.988C806.259 692.233 807.026 692.202 807.702 691.899C808.387 691.508 808.903 690.879 809.154 690.132C809.404 689.384 809.37 688.57 809.059 687.846C808.628 687.2 807.966 686.744 807.209 686.57C806.452 686.396 805.658 686.518 804.988 686.911" fill="#E0E0E0"/>
<g opacity="0.6">
<path d="M798.422 713.265L797.321 707.378L866.848 694.32C866.848 694.32 870.351 695.017 870.516 697.346L798.422 713.265Z" fill="white"/>
</g>
<path d="M829.288 684.343C829.288 684.692 827.638 685.242 826.152 686.764C824.667 688.286 824.08 689.955 823.731 689.9C823.383 689.845 823.438 687.681 825.272 685.866C827.106 684.05 829.307 684.013 829.288 684.343Z" fill="#263238"/>
<path d="M837.541 685.81C837.706 686.122 836.313 687.058 835.451 688.818C834.589 690.579 834.589 692.211 834.222 692.284C833.855 692.358 833.213 690.45 834.332 688.25C835.451 686.049 837.468 685.462 837.541 685.81Z" fill="#263238"/>
<path d="M843.832 693.898C843.538 694.045 842.658 692.394 843.135 690.23C843.612 688.066 845.097 686.984 845.299 687.241C845.501 687.498 844.731 688.745 844.364 690.505C843.997 692.266 844.272 693.788 843.832 693.898Z" fill="#263238"/>
<path d="M826.794 675.998C826.702 676.347 824.96 676.218 823.034 676.787C821.108 677.356 819.66 678.328 819.366 678.071C819.073 677.814 820.338 676.237 822.649 675.577C824.96 674.916 826.904 675.668 826.794 675.998Z" fill="#263238"/>
<path d="M825.253 668.461C824.128 669.061 822.858 669.335 821.585 669.249C820.238 669.309 818.888 669.198 817.569 668.919C816.778 668.761 816 668.546 815.24 668.277C814.792 668.134 814.367 667.93 813.974 667.672C813.69 667.472 813.479 667.185 813.373 666.854C813.267 666.523 813.272 666.166 813.387 665.838C813.509 665.551 813.697 665.296 813.936 665.096C814.175 664.895 814.459 664.753 814.763 664.683C815.219 664.577 815.689 664.54 816.157 664.573C816.964 664.587 817.769 664.679 818.559 664.848C819.899 665.126 821.187 665.615 822.374 666.297C824.391 667.47 825.253 668.663 825.143 668.754C825.033 668.846 823.951 667.984 821.97 667.085C820.799 666.567 819.566 666.197 818.302 665.985C817.568 665.867 816.827 665.806 816.083 665.802C815.276 665.802 814.616 665.912 814.506 666.297C814.396 666.682 814.506 666.498 814.671 666.682C814.965 666.864 815.279 667.012 815.606 667.122C816.307 667.387 817.024 667.608 817.752 667.782C818.996 668.094 820.268 668.284 821.548 668.351C822.784 668.307 824.022 668.343 825.253 668.461Z" fill="#263238"/>
<path d="M824.924 669.066C824.795 669.157 823.823 668.039 823.2 665.801C822.841 664.476 822.711 663.099 822.815 661.73C822.876 660.922 823.023 660.122 823.255 659.346C823.337 658.833 823.548 658.35 823.869 657.943C824.19 657.535 824.61 657.216 825.089 657.016C825.412 656.961 825.744 656.993 826.05 657.109C826.357 657.225 826.626 657.421 826.831 657.677C827.107 658.06 827.329 658.48 827.491 658.924C827.788 659.706 827.968 660.528 828.023 661.363C828.119 662.752 827.873 664.144 827.308 665.416C826.318 667.599 824.942 668.35 824.887 668.24C824.832 668.13 825.804 667.14 826.483 665.104C826.877 663.924 827.009 662.672 826.868 661.436C826.793 660.725 826.62 660.028 826.354 659.364C826.061 658.63 825.639 658.08 825.364 658.209C825.089 658.337 824.539 658.997 824.374 659.676C824.146 660.373 823.992 661.092 823.915 661.821C823.766 663.073 823.797 664.339 824.007 665.581C824.429 667.745 825.089 668.956 824.924 669.066Z" fill="#263238"/>
<path d="M807.023 335.7L894.743 471.031C903.106 483.282 907.856 495.881 906.609 510.425C905.708 519.778 902.48 528.756 897.219 536.541L825.693 661.601L789.985 625.087L842.694 513.708L792.406 445.996L765.703 335.7H807.023Z" fill="#263238"/>
<path d="M832.314 673.926L788.151 368.565L785.694 337.589L710.115 333.499C710.115 333.499 697.919 372.637 696.91 392.902C695.901 413.168 741.88 520.879 741.88 520.879L752.572 574.762L783.218 684.068L832.314 673.926Z" fill="#263238"/>
<path d="M704.32 327.208C702.963 324.989 713.343 316.204 729.996 302.669L743.641 291.5C749.392 286.482 755.921 282.431 762.971 279.506C771.62 276.284 781.019 275.646 790.023 277.672C794.865 278.747 799.498 280.605 803.741 283.174C808.437 285.977 812.442 289.8 815.46 294.361C816.36 295.718 817.122 297.162 817.734 298.671C818.618 300.809 819.043 303.108 818.982 305.42C818.87 308.408 817.818 311.283 815.974 313.637C814.877 315.01 813.518 316.15 811.976 316.993C811.116 317.452 810.205 317.809 809.261 318.057C808.387 318.291 807.489 318.426 806.584 318.46C803.859 318.54 801.167 317.84 798.826 316.443C797.34 315.562 796.533 314.957 796.093 314.609C795.653 314.26 795.8 314.444 795.928 314.499C796.082 314.556 796.242 314.593 796.405 314.609C796.717 314.609 796.717 314.609 796.405 314.609C794.912 314.88 793.441 315.26 792.003 315.746C790.796 316.084 789.572 316.36 788.335 316.571C787.088 316.754 785.823 316.92 784.667 316.975C780.464 317.119 776.257 316.855 772.105 316.186C768.982 315.679 765.836 315.33 762.678 315.141C760.204 315.024 757.728 315.303 755.342 315.966C750.333 317.679 745.549 319.988 741.092 322.843C736.685 325.611 732.024 327.95 727.172 329.831C723.256 331.332 719.095 332.091 714.902 332.068C712.199 332.103 709.529 331.473 707.126 330.234C705.53 329.299 704.925 328.4 705.127 327.813C705.567 326.475 708.96 326.805 713.967 324.989C717.043 323.869 719.973 322.385 722.697 320.569C726.524 317.978 730.198 315.167 733.701 312.151C738.656 307.842 744.218 304.282 750.207 301.587C754.067 300.044 758.158 299.158 762.311 298.965C766.148 298.833 769.989 298.949 773.81 299.313C776.948 299.645 780.11 299.688 783.255 299.441C783.934 299.441 784.539 299.258 785.181 299.148C785.823 299.038 786.281 298.891 787.015 298.653C789.223 297.858 791.493 297.244 793.801 296.819C795.749 296.487 797.74 296.487 799.688 296.819C800.821 297.02 801.928 297.346 802.989 297.791C803.844 298.138 804.672 298.548 805.465 299.02C806.73 299.79 807.556 300.34 807.813 300.45C807.813 300.45 807.813 300.45 807.813 300.634L807.372 301.569C807.012 302.3 806.7 303.053 806.437 303.825C806.284 304.267 806.168 304.721 806.089 305.182C806.071 305.346 806.071 305.512 806.089 305.677C805.979 305.255 806.235 306.227 806.217 306.117C806.199 306.007 806.217 306.117 806.217 305.971C806.059 305.698 805.847 305.461 805.593 305.274C805.412 305.12 805.208 304.996 804.988 304.907H805.117H805.3H804.145C803.62 304.891 803.095 304.947 802.586 305.072C802.139 305.161 801.698 305.277 801.265 305.42L800.862 305.549C800.682 305.151 800.468 304.77 800.22 304.412C797.524 300.157 791.893 296.764 786.08 295.242C780.384 293.76 774.394 293.855 768.748 295.517C763.096 297.519 757.756 300.31 752.884 303.806C747.584 307.291 742.412 310.556 737.68 313.325C718.46 324.531 705.604 329.354 704.32 327.208Z" fill="#F5F5F5"/>
<path d="M779.587 180.231C781.146 180.507 796.203 186.834 803.025 189.713C805.185 190.633 806.946 192.29 807.995 194.39L841.558 262.138L815.606 280.148C815.606 280.148 818.651 333.059 811.938 335.736C809.426 336.727 718.698 336.562 718.698 336.562C718.698 336.562 708.886 340.046 705.383 336.562C702.669 333.884 703.714 328.657 703.714 328.657V218.195L698.817 187.788C698.817 187.788 745.639 174.234 779.587 180.231Z" fill="#455A64"/>
<path d="M716.681 211.299L718.111 266.228L671.308 270.703C671.308 270.409 666.264 199.507 698.818 187.788L716.681 211.299Z" fill="#455A64"/>
<path d="M813.663 270.703C813.387 268.869 813.076 266.852 812.58 263.495C811.865 258.543 810.948 252.106 809.921 245.009C808.894 237.911 808.087 231.492 807.317 226.522C807.023 224.321 806.767 222.45 806.547 220.91C806.406 220.229 806.35 219.532 806.382 218.837C806.651 219.477 806.836 220.149 806.932 220.836C807.207 222.157 807.592 224.046 807.995 226.338C808.839 231.052 809.829 237.581 810.893 244.807C811.957 252.033 812.727 258.58 813.259 263.349C813.534 265.714 813.699 267.64 813.791 268.979C813.791 269.658 813.791 270.171 813.791 270.538V270.776C813.791 270.776 813.791 270.941 813.626 270.776C813.644 270.758 813.644 270.703 813.663 270.703Z" fill="#263238"/>
<g opacity="0.3">
<path d="M810.673 302.046C809.541 298.987 807.793 296.192 805.537 293.836C803.282 291.48 800.567 289.611 797.56 288.346C791.528 285.855 785.024 284.716 778.505 285.008C767.101 284.952 755.903 288.036 746.135 293.921C731.775 303.091 722.164 319.102 706.374 325.393L704.43 328.162C716.731 328.779 728.951 325.858 739.643 319.744C746.575 315.764 752.847 310.446 760.422 307.86C767.116 305.586 774.342 305.622 781.403 305.677C788.078 305.677 795.194 305.934 800.733 309.657C802.201 310.985 803.99 311.908 805.923 312.335C807.039 312.323 808.122 311.963 809.023 311.305C809.924 310.648 810.597 309.725 810.948 308.667C811.595 306.49 811.498 304.161 810.673 302.046Z" fill="black"/>
</g>
<path d="M790.371 263.99L795.983 249.813C796.248 249.106 796.724 248.496 797.348 248.07C797.972 247.643 798.712 247.419 799.468 247.429H826.097C826.537 247.427 826.97 247.531 827.36 247.734C827.749 247.937 828.083 248.233 828.333 248.594C828.582 248.956 828.74 249.373 828.791 249.809C828.843 250.245 828.787 250.688 828.628 251.097L811.535 297.424C811.438 297.692 811.261 297.923 811.028 298.087C810.795 298.251 810.518 298.34 810.233 298.341H778.707C778.489 298.335 778.276 298.278 778.085 298.175C777.893 298.072 777.728 297.925 777.604 297.747C777.479 297.569 777.397 297.364 777.366 297.149C777.335 296.933 777.354 296.714 777.423 296.507L790.371 263.99Z" fill="#263238"/>
<path d="M823.805 293.408L826.96 276.168L824.355 262.596L820.192 273.894V278.461C818.652 278.057 804.365 265.953 800.532 268.557C796.699 271.161 786.887 285.466 786.887 285.466C786.887 285.466 804.145 302.339 806.914 303.605C806.914 303.605 807.831 314.26 807.959 319.762C808.069 324.439 808.95 326.218 815.02 328.254C821.091 330.289 828.794 319.707 828.794 310.262C828.794 304.375 823.805 293.408 823.805 293.408Z" fill="#FFBE9D"/>
<path d="M712.609 267.31L714.113 285.43L757.744 269.492L777.166 260.506L785.657 262.633C785.657 262.633 812.379 264.467 812.617 266.081C812.855 267.695 814.066 269.236 812.617 269.492C811.168 269.749 790.04 270.703 790.04 270.703C790.04 270.703 812.819 272.152 813.314 273.857C813.809 275.563 813.094 278.222 811.883 278.222H787.124C787.124 278.222 810.435 279.69 810.673 280.662C810.911 281.634 812.617 283.321 810.435 284.054C808.252 284.788 786.886 285.503 786.886 285.503L807.06 289.171C807.06 289.171 807.794 292.326 806.106 292.326C804.419 292.326 760.44 295.242 760.44 295.242C760.44 295.242 708.978 328.07 699.257 330.455C689.537 332.839 681.046 321.596 679.835 313.655C678.001 301.679 676.369 270.501 676.369 270.501L712.609 267.31Z" fill="#FFBE9D"/>
<path d="M760.404 295.187L761.302 295.077L763.925 294.857L773.994 294.123L789.913 293.023L799.835 292.344L805.337 291.977C806.189 292.028 807.036 291.81 807.758 291.354C808.179 290.914 807.519 289.96 806.877 289.391L807.061 289.483L786.887 285.815C786.792 285.795 786.707 285.743 786.646 285.668C786.586 285.593 786.552 285.499 786.552 285.402C786.552 285.306 786.586 285.212 786.646 285.137C786.707 285.062 786.792 285.01 786.887 284.99L798.826 284.458L805.043 284.091C806.107 284.091 807.152 283.926 808.216 283.816C809.28 283.706 810.417 283.688 810.985 283.119C811.554 282.551 811.261 281.395 810.619 281.01C810.142 280.895 809.658 280.815 809.17 280.772L807.538 280.57L800.862 279.873L787.088 278.589C787.026 278.585 786.966 278.568 786.911 278.539C786.856 278.51 786.807 278.471 786.767 278.423C786.728 278.375 786.699 278.319 786.681 278.26C786.664 278.2 786.659 278.137 786.667 278.076C786.669 278.015 786.683 277.956 786.708 277.901C786.734 277.847 786.769 277.798 786.814 277.757C786.858 277.716 786.91 277.684 786.967 277.663C787.023 277.642 787.083 277.633 787.143 277.635H811.792C812.123 277.635 812.508 277.232 812.746 276.737C813.036 276.287 813.146 275.745 813.054 275.219C812.962 274.692 812.676 274.219 812.251 273.894C811.398 273.617 810.519 273.426 809.628 273.326L806.804 272.922L801.155 272.243L790.005 271.088C789.876 271.074 789.759 271.011 789.676 270.911C789.594 270.812 789.554 270.685 789.564 270.556C789.583 270.443 789.638 270.339 789.721 270.26C789.803 270.181 789.909 270.13 790.023 270.116L804.401 269.437L811.389 269.034C811.887 269.038 812.382 268.964 812.856 268.814C813.014 268.691 813.134 268.526 813.202 268.337C813.27 268.149 813.284 267.946 813.241 267.75C813.167 267.292 812.941 266.872 812.599 266.558C812.194 266.278 811.73 266.096 811.242 266.026C806.896 265.128 802.439 264.706 798.184 264.192C793.929 263.679 789.711 263.312 785.64 262.945L777.13 260.781H777.405L757.965 269.713L725.998 281.23L717.286 284.311L715.012 285.1C714.757 285.198 714.493 285.271 714.224 285.32C714.466 285.191 714.717 285.081 714.976 284.99L717.213 284.128L725.87 280.863L757.616 269.144L777.02 260.121C777.06 260.104 777.104 260.095 777.148 260.095C777.192 260.095 777.236 260.104 777.277 260.121L785.786 262.248C789.858 262.597 794.058 263 798.349 263.44C802.641 263.88 807.042 264.339 811.554 265.274C812.188 265.379 812.786 265.637 813.296 266.026C813.828 266.498 814.162 267.153 814.232 267.86C814.299 268.233 814.258 268.617 814.115 268.968C813.972 269.318 813.733 269.621 813.425 269.841C812.842 270.075 812.219 270.194 811.591 270.189L804.585 270.611L790.206 271.308V270.336L801.375 271.492L807.024 272.17L809.885 272.574C810.901 272.68 811.899 272.914 812.856 273.271C813.201 273.477 813.494 273.759 813.714 274.096C813.933 274.433 814.073 274.816 814.122 275.215C814.201 275.958 814.067 276.708 813.736 277.379C813.581 277.727 813.363 278.044 813.095 278.314C812.952 278.476 812.777 278.607 812.581 278.699C812.37 278.803 812.137 278.853 811.902 278.846H787.125V277.874L800.898 279.176L807.574 279.891L809.225 280.093C809.849 280.129 810.465 280.246 811.059 280.441C811.351 280.622 811.602 280.863 811.795 281.147C811.987 281.432 812.118 281.754 812.178 282.092C812.24 282.419 812.223 282.757 812.127 283.076C812.031 283.396 811.86 283.687 811.627 283.926C811.152 284.353 810.556 284.623 809.922 284.696C809.39 284.696 808.84 284.843 808.308 284.88C807.226 284.99 806.162 285.063 805.117 285.136L798.863 285.503L786.905 285.98V285.155L807.079 288.823C807.133 288.809 807.19 288.809 807.244 288.823C807.633 289.182 807.966 289.596 808.234 290.052C808.428 290.318 808.533 290.639 808.533 290.969C808.533 291.298 808.428 291.619 808.234 291.886C807.404 292.512 806.375 292.818 805.337 292.748L799.835 293.078L789.894 293.665L773.975 294.6L763.888 295.15L761.247 295.26C760.965 295.257 760.683 295.233 760.404 295.187Z" fill="#EB996E"/>
<path d="M700.266 306.007C700.155 304.726 700.267 303.435 700.596 302.193C701.203 299.136 702.386 296.224 704.081 293.609C705.829 291.028 708.073 288.821 710.683 287.117C711.717 286.346 712.878 285.762 714.113 285.393C714.351 285.705 708.849 288.254 704.943 294.16C703.297 296.682 702.059 299.449 701.275 302.358C701.047 303.601 700.709 304.823 700.266 306.007Z" fill="#EB996E"/>
<path d="M812.397 259.185C812.618 259.599 812.708 260.07 812.657 260.537C812.606 261.003 812.415 261.443 812.109 261.799C811.803 262.155 811.397 262.41 810.944 262.532C810.491 262.653 810.011 262.634 809.569 262.479C809.126 262.323 808.741 262.037 808.464 261.659C808.186 261.28 808.029 260.827 808.014 260.358C807.999 259.889 808.125 259.427 808.377 259.031C808.629 258.635 808.995 258.325 809.426 258.14C809.959 257.887 810.57 257.856 811.127 258.051C811.683 258.247 812.14 258.655 812.397 259.185Z" fill="#FFEEDF"/>
<path d="M817.551 276.755C817.753 275.842 818.029 274.946 818.376 274.077L820.962 266.906L824.887 256.324C825.272 255.316 825.657 254.307 826.042 253.261C826.427 252.216 827.088 251.006 826.794 250.345C826.666 250.07 826.244 249.924 825.694 249.96H820.192H806.345H800.293C799.901 249.89 799.497 249.934 799.13 250.086C798.762 250.239 798.447 250.495 798.22 250.822C797.872 251.482 797.56 252.381 797.248 253.078C796.056 255.939 795.066 258.305 794.296 260.121C793.966 260.994 793.567 261.841 793.104 262.652C793.32 261.744 793.609 260.855 793.965 259.992L796.643 252.84C796.926 252.023 797.251 251.221 797.615 250.437C797.899 250 798.299 249.651 798.771 249.428C799.254 249.236 799.774 249.155 800.293 249.19H806.327H820.173H825.675C826.05 249.121 826.437 249.171 826.782 249.332C827.127 249.493 827.413 249.757 827.601 250.089C827.72 250.412 827.771 250.756 827.752 251.1C827.733 251.443 827.644 251.779 827.491 252.088L826.886 253.665L825.694 256.709L821.567 267.255C820.412 270.134 819.458 272.518 818.706 274.334C818.396 275.175 818.009 275.985 817.551 276.755Z" fill="#455A64"/>
<path d="M740.908 75.5836C736.433 72.7409 735.406 66.1751 737.772 61.4801C739.121 59.1883 740.982 57.2394 743.209 55.7855C745.436 54.3316 747.969 53.4121 750.61 53.0987C754.392 52.5336 758.254 52.8703 761.881 54.0815C765.508 55.2926 768.797 57.3438 771.481 60.0679C774.36 63.039 776.689 66.9087 780.651 68.2659C784.08 69.458 787.877 68.3759 791.471 68.8344C793.87 69.2788 796.141 70.2494 798.12 71.6765C800.099 73.1035 801.736 74.9515 802.916 77.0874C805.223 81.3951 806.609 86.1354 806.987 91.0075C807.519 95.4458 807.849 100.306 810.93 103.552C814.011 106.798 818.688 107.385 822.411 109.623C825.837 111.881 828.245 115.39 829.119 119.399C829.993 123.409 829.264 127.601 827.088 131.08C825.602 133.245 823.42 135.207 823.31 137.83C823.2 140.452 824.685 142.323 825.419 144.597C825.792 146.065 825.847 147.596 825.58 149.088C825.313 150.579 824.73 151.996 823.87 153.243C823.01 154.49 821.894 155.539 820.595 156.319C819.296 157.099 817.845 157.592 816.34 157.765C813.241 157.949 809.921 156.738 807.17 158.114C804.419 159.489 803.392 162.827 801.668 165.34C799.864 167.785 797.273 169.535 794.331 170.296C791.389 171.058 788.275 170.784 785.511 169.521C783.237 168.402 781.073 166.568 778.542 166.733C776.011 166.898 774.03 169.063 771.554 169.539C768.29 170.163 765.208 167.705 763.264 165.083C761.32 162.46 759.982 159.214 757.506 157.013C754.278 154.134 749.711 153.345 745.621 152.006C741.075 150.443 736.918 147.921 733.431 144.611C729.944 141.301 727.208 137.28 725.41 132.821C723.612 128.362 722.793 123.569 723.008 118.766C723.223 113.963 724.468 109.263 726.658 104.983" fill="#263238"/>
<path d="M788.078 133.886C789.094 132.811 790.351 131.994 791.746 131.502H791.453L792.241 131.374C792.712 131.241 793.204 131.203 793.689 131.263C794.174 131.323 794.642 131.479 795.066 131.722C796.646 132.287 797.956 133.426 798.734 134.913C799.343 136.228 799.578 137.686 799.413 139.125C799.248 140.565 798.689 141.932 797.798 143.075C797.072 144.101 796.07 144.901 794.908 145.381C793.746 145.861 792.472 146.003 791.233 145.789C790.127 145.449 789.128 144.83 788.331 143.992C787.535 143.153 786.967 142.124 786.684 141.002C786.301 139.794 786.228 138.51 786.472 137.266C786.716 136.023 787.268 134.86 788.078 133.886Z" fill="#455A64"/>
<path d="M729.244 181.314L724.494 94.327C724.396 92.4771 725.001 90.6586 726.188 89.2367C727.375 87.8147 729.057 86.8945 730.894 86.6609L769.775 75.6569C782.283 73.9696 791.068 89.1918 792.223 101.755C793.507 115.711 794.516 132.804 793.14 143.295C790.408 164.367 774.397 167.504 774.397 167.504L774.635 179.516L773.37 212.29L729.244 181.314Z" fill="#FFBE9D"/>
<path d="M786.795 119.966C786.825 120.668 786.578 121.353 786.108 121.874C785.638 122.395 784.983 122.712 784.282 122.754C783.94 122.792 783.594 122.761 783.265 122.663C782.935 122.564 782.629 122.401 782.364 122.182C782.099 121.963 781.88 121.693 781.721 121.388C781.563 121.083 781.467 120.749 781.439 120.407C781.414 119.707 781.662 119.024 782.131 118.504C782.6 117.983 783.253 117.666 783.952 117.619C784.294 117.581 784.64 117.612 784.969 117.71C785.299 117.809 785.605 117.972 785.87 118.191C786.135 118.41 786.354 118.68 786.512 118.985C786.671 119.29 786.767 119.624 786.795 119.966Z" fill="#263238"/>
<path d="M788.757 110.741C788.445 111.108 786.354 109.641 783.457 109.733C780.559 109.824 778.487 111.346 778.156 110.998C777.826 110.65 778.321 110.191 779.22 109.494C780.449 108.588 781.93 108.088 783.457 108.064C784.965 108.004 786.451 108.435 787.693 109.292C788.592 109.953 788.922 110.576 788.757 110.741Z" fill="#263238"/>
<path d="M760.037 119.966C760.067 120.671 759.818 121.358 759.344 121.88C758.87 122.402 758.21 122.716 757.506 122.754C757.164 122.792 756.818 122.761 756.489 122.663C756.159 122.564 755.853 122.401 755.588 122.182C755.323 121.963 755.104 121.693 754.945 121.388C754.787 121.083 754.691 120.749 754.663 120.406C754.643 119.705 754.895 119.022 755.367 118.502C755.839 117.983 756.494 117.666 757.194 117.619C757.535 117.583 757.88 117.616 758.209 117.716C758.537 117.815 758.843 117.978 759.107 118.197C759.372 118.415 759.59 118.684 759.75 118.988C759.91 119.292 760.007 119.624 760.037 119.966Z" fill="#263238"/>
<path d="M760.311 112.08C759.981 112.447 757.89 110.998 755.011 111.09C752.132 111.182 750.022 112.685 749.711 112.337C749.399 111.988 749.857 111.548 750.774 110.851C752.006 109.947 753.484 109.442 755.011 109.403C756.514 109.356 757.993 109.793 759.229 110.65C760.146 111.31 760.458 111.933 760.311 112.08Z" fill="#263238"/>
<path d="M771.426 133.263C772.94 132.751 774.51 132.424 776.103 132.291C776.855 132.181 777.533 132.016 777.662 131.521C777.694 130.753 777.496 129.993 777.093 129.338C776.36 127.504 775.571 125.67 774.746 123.836C771.481 115.913 769.097 109.384 769.427 109.256C769.757 109.127 772.655 115.436 775.919 123.378C776.69 125.34 777.46 127.192 778.175 128.99C778.659 129.867 778.822 130.885 778.634 131.869C778.535 132.135 778.376 132.374 778.169 132.569C777.962 132.763 777.713 132.906 777.442 132.988C777.037 133.115 776.618 133.189 776.194 133.208C774.614 133.432 773.011 133.45 771.426 133.263Z" fill="#263238"/>
<path d="M774.397 167.485C764.521 167.911 754.72 165.594 746.08 160.791C746.08 160.791 753.306 175.005 774.269 172.456L774.397 167.485Z" fill="#EB996E"/>
<path d="M771.187 140.159C770.508 139.225 769.612 138.471 768.577 137.96C767.542 137.449 766.399 137.196 765.245 137.224C764.488 137.255 763.75 137.47 763.095 137.85C762.44 138.23 761.887 138.765 761.485 139.407C761.041 140.149 760.834 141.009 760.891 141.872C760.948 142.735 761.267 143.56 761.805 144.237C762.343 144.914 763.074 145.412 763.902 145.663C764.729 145.914 765.614 145.907 766.437 145.642C768.039 145.07 769.48 144.12 770.637 142.873C771.007 142.575 771.308 142.199 771.517 141.773C771.622 141.535 771.662 141.274 771.633 141.017C771.604 140.759 771.507 140.514 771.352 140.305" fill="#EB996E"/>
<path d="M762.971 135.519C763.43 135.519 763.521 138.618 766.291 140.764C769.06 142.91 772.38 142.488 772.416 142.928C772.453 143.368 771.683 143.552 770.27 143.643C768.427 143.712 766.617 143.134 765.154 142.011C763.759 140.93 762.833 139.354 762.568 137.609C762.421 136.289 762.751 135.5 762.971 135.519Z" fill="#263238"/>
<path d="M761.247 100.122C760.99 100.929 758.093 100.636 754.7 101.131C751.307 101.626 748.593 102.653 748.116 101.956C747.914 101.626 748.372 100.874 749.454 100.122C750.897 99.1302 752.558 98.5011 754.296 98.2884C756.026 98.0178 757.795 98.1752 759.45 98.7469C760.715 99.1504 761.357 99.7556 761.247 100.122Z" fill="#263238"/>
<path d="M787.418 100.801C786.923 101.48 784.924 100.801 782.521 100.893C780.119 100.985 778.101 101.443 777.606 100.783C777.404 100.453 777.698 99.7741 778.56 99.1322C779.726 98.3366 781.109 97.9203 782.521 97.9401C783.93 97.9222 785.308 98.3455 786.464 99.1506C787.418 99.8108 787.675 100.416 787.418 100.801Z" fill="#263238"/>
<path d="M806.363 97.3165C805.501 94.1134 803.557 91.3074 800.861 89.3752C799.259 88.5567 797.704 87.6506 796.203 86.6609C793.158 84.2217 792.535 79.9485 790.591 76.5372C789.359 74.3401 787.622 72.4675 785.524 71.0739C783.425 69.6804 781.026 68.8059 778.523 68.5227C774.36 68.1008 770.068 69.348 766.015 68.3209C763.025 67.569 760.403 65.6249 757.377 65.0564C751.453 63.9193 745.969 68.1742 741.678 72.3924C741.678 76.6289 745.034 79.4533 748.28 82.1676C749.916 83.5187 751.826 84.4987 753.878 85.0402C755.93 85.5816 758.075 85.6715 760.164 85.3038C763.392 84.7169 766.932 83.0846 769.72 84.8086C772.507 86.5325 772.782 91.0442 775.387 93.3C779.055 96.5462 785.052 93.5017 789.784 94.9139C793.452 95.996 795.707 99.4806 798.147 102.433C800.586 105.386 804.199 108.155 807.848 107.073C807.741 103.774 807.243 100.498 806.363 97.3165Z" fill="#263238"/>
<path d="M762.347 78.4078C759.578 77.6192 753.929 75.8219 752.443 73.4377C750.955 70.8642 748.816 68.728 746.24 67.2438C743.665 65.7596 740.744 64.9799 737.771 64.9829C734.772 65.2153 731.929 66.4131 729.667 68.3968C727.406 70.3806 725.848 73.0435 725.227 75.9869C721.63 76.1028 718.13 77.186 715.096 79.1224C712.063 81.0588 709.607 83.7769 707.987 86.9909C707.564 87.8217 707.197 88.6794 706.887 89.5585C705.795 91.4959 705.137 93.6476 704.96 95.8644C704.783 98.0813 705.09 100.31 705.86 102.397C706.832 104.891 708.446 107.678 707.162 110.026C705.878 112.373 702.558 112.484 699.991 113.364C697.767 114.199 695.908 115.791 694.74 117.86C693.573 119.93 693.172 122.344 693.609 124.68C694.209 126.271 694.477 127.969 694.397 129.668C693.775 131.327 692.755 132.807 691.426 133.978C690.002 135.664 689.045 137.694 688.652 139.865C688.259 142.037 688.443 144.273 689.185 146.351C689.928 148.429 691.204 150.276 692.885 151.706C694.565 153.136 696.592 154.1 698.762 154.5C700.765 154.578 702.736 155.026 704.576 155.821C706.52 157.031 707.382 159.379 708.757 161.213C710.12 162.942 711.974 164.219 714.076 164.873C716.177 165.528 718.428 165.531 720.532 164.881C721.372 164.595 722.168 164.194 722.898 163.689C723.698 164.746 724.755 165.581 725.968 166.117C727.18 166.653 728.51 166.871 729.83 166.752L729.041 120.59C729.294 121.153 729.68 121.646 730.165 122.026C730.651 122.406 731.222 122.662 731.829 122.772C739.165 124.46 740.321 109.182 738.67 105.037C741.47 102.762 743.966 100.136 746.098 97.2246C748.477 92.5967 749.651 87.4429 749.509 82.2409C752.186 82.4243 763.576 78.6646 762.347 78.4078Z" fill="#263238"/>
<path d="M731.995 123.561C731.775 119.068 726.273 118.059 722.366 120.351C720.239 121.599 718.698 124.019 718.79 128.861C719.322 141.589 731.995 138.435 731.995 138.031C731.995 137.628 732.27 128.825 731.995 123.561Z" fill="#FFBE9D"/>
<path d="M727.904 133.428C727.904 133.428 727.703 133.593 727.336 133.776C726.814 134.025 726.217 134.065 725.667 133.886C724.825 133.396 724.129 132.691 723.649 131.844C723.169 130.996 722.922 130.037 722.934 129.063C722.847 127.969 723.017 126.87 723.429 125.853C723.522 125.439 723.716 125.054 723.995 124.734C724.273 124.414 724.627 124.168 725.025 124.019C725.275 123.942 725.544 123.955 725.785 124.056C726.026 124.156 726.224 124.338 726.346 124.57C726.547 124.918 726.474 125.175 726.529 125.193C726.584 125.211 726.804 124.973 726.676 124.441C726.591 124.131 726.404 123.86 726.144 123.671C725.965 123.545 725.762 123.455 725.548 123.408C725.334 123.361 725.112 123.357 724.897 123.396C724.379 123.524 723.902 123.781 723.511 124.144C723.12 124.506 722.827 124.962 722.659 125.468C722.173 126.595 721.959 127.82 722.036 129.045C722.237 131.612 723.65 133.96 725.502 134.418C725.848 134.505 726.21 134.512 726.559 134.438C726.908 134.365 727.237 134.214 727.519 133.996C727.904 133.721 727.959 133.428 727.904 133.428Z" fill="#EB996E"/>
<path d="M744.448 76.0054C743.451 76.5168 742.58 77.2435 741.899 78.1328C740.461 80.8362 740.126 83.991 740.963 86.9361V87.2478L740.651 87.3395C738.818 87.826 737.123 88.7321 735.701 89.9862C734.278 91.2402 733.166 92.808 732.453 94.5655C732.05 95.551 731.827 96.6007 731.793 97.6649C731.817 98.7932 731.946 99.9169 732.178 101.021C732.441 102.229 732.607 103.455 732.674 104.689C732.763 106.02 732.409 107.342 731.665 108.449C730.003 110.554 727.823 112.191 725.338 113.199C723.17 114.155 721.174 115.463 719.432 117.069C716.55 119.894 714.852 123.71 714.682 127.743C714.589 130.462 715.162 133.163 716.351 135.61C717.195 137.334 717.91 138.178 717.837 138.233C717.634 138.061 717.456 137.864 717.305 137.646C716.826 137.076 716.402 136.462 716.039 135.812C714.343 132.732 713.7 129.183 714.206 125.703C714.713 122.224 716.342 119.005 718.845 116.537C720.636 114.844 722.701 113.468 724.952 112.465C727.285 111.509 729.336 109.975 730.913 108.009C732.325 106.175 731.683 103.552 731.316 101.278C731.078 100.113 730.949 98.9276 730.931 97.7383C730.984 96.5742 731.232 95.4272 731.665 94.3454C732.436 92.4778 733.636 90.8184 735.169 89.5023C736.702 88.1861 738.524 87.2503 740.486 86.771L740.248 87.1745C739.836 85.638 739.738 84.0344 739.959 82.4591C740.179 80.8838 740.714 79.3689 741.532 78.0045C742.056 77.3066 742.742 76.7465 743.531 76.3722C744.154 76.0604 744.43 75.9687 744.448 76.0054Z" fill="#455A64"/>
<path d="M723.228 138.178C724.245 137.104 725.502 136.287 726.896 135.794H726.621C726.881 135.732 727.144 135.689 727.41 135.665C727.88 135.532 728.372 135.495 728.857 135.554C729.342 135.614 729.81 135.77 730.234 136.014C731.814 136.579 733.124 137.718 733.902 139.205C734.511 140.52 734.746 141.977 734.581 143.417C734.416 144.857 733.857 146.223 732.967 147.366C732.24 148.392 731.238 149.192 730.076 149.672C728.914 150.153 727.64 150.294 726.401 150.081C725.293 149.739 724.293 149.117 723.496 148.275C722.699 147.434 722.133 146.4 721.853 145.275C721.467 144.072 721.391 142.791 721.631 141.551C721.872 140.31 722.421 139.15 723.228 138.178Z" fill="#455A64"/>
<path d="M832.315 673.926C832.04 673.926 821.659 604.527 809.114 518.88C796.57 433.232 786.611 363.705 786.886 363.668C787.162 363.632 797.524 433.048 810.068 518.733C822.613 604.417 832.571 673.889 832.315 673.926Z" fill="#455A64"/>
<path d="M755.506 339.423C755.536 339.973 755.474 340.525 755.323 341.055C755.024 342.515 754.595 343.945 754.039 345.328C752.225 349.946 749.29 354.041 745.499 357.242C741.709 360.444 737.181 362.652 732.324 363.668C730.862 363.968 729.378 364.152 727.886 364.218C727.341 364.273 726.79 364.242 726.254 364.127C726.254 363.962 728.583 363.925 732.178 363.008C736.863 361.839 741.216 359.606 744.9 356.483C748.583 353.36 751.497 349.43 753.415 344.998C754.919 341.679 755.341 339.386 755.506 339.423Z" fill="#455A64"/>
<path d="M779.514 341.899C778.648 342.181 777.887 342.718 777.331 343.439C777.068 343.82 776.888 344.252 776.803 344.707C776.717 345.162 776.729 345.63 776.836 346.08C777.037 346.585 777.371 347.026 777.803 347.356C778.234 347.687 778.747 347.894 779.287 347.956C779.827 348.018 780.373 347.933 780.869 347.709C781.364 347.485 781.789 347.132 782.1 346.685C782.302 346.271 782.416 345.819 782.435 345.358C782.454 344.897 782.377 344.437 782.21 344.008C781.817 343.17 781.177 342.472 780.376 342.009C780.376 342.009 780.687 342.009 781.183 342.137C781.862 342.485 782.41 343.045 782.741 343.733C782.998 344.258 783.131 344.835 783.131 345.42C783.131 346.005 782.998 346.582 782.741 347.107C782.358 347.727 781.806 348.224 781.15 348.541C780.493 348.858 779.761 348.981 779.037 348.897C778.313 348.812 777.629 348.523 777.063 348.063C776.498 347.603 776.076 346.992 775.846 346.3C775.723 345.729 775.733 345.138 775.877 344.572C776.02 344.005 776.292 343.48 776.671 343.036C777.132 342.445 777.778 342.025 778.505 341.844C779.22 341.752 779.514 341.844 779.514 341.899Z" fill="#455A64"/>
<path d="M859.127 507.417C859.127 507.692 855.459 508.774 850.911 510.608C846.362 512.442 842.933 514.276 842.786 514.038C845.099 512.153 847.725 510.688 850.544 509.71C853.252 508.457 856.155 507.682 859.127 507.417Z" fill="#455A64"/>
<path d="M717.947 245.009C717.247 244.942 716.565 244.756 715.929 244.458C714.157 243.709 712.501 242.708 711.014 241.487C709.18 239.983 707.071 237.948 704.76 235.784C702.414 233.346 699.601 231.407 696.489 230.08C693.295 228.997 689.834 228.997 686.64 230.08C684.024 230.926 681.551 232.162 679.304 233.748C675.398 236.48 673.16 238.461 673.05 238.333C672.94 238.204 673.527 237.746 674.517 236.829C675.912 235.529 677.375 234.304 678.901 233.161C681.178 231.432 683.717 230.076 686.42 229.144C689.799 227.966 693.477 227.966 696.856 229.144C700.104 230.506 703.028 232.537 705.439 235.105C707.713 237.324 709.675 239.396 711.491 240.919C713.427 242.596 715.603 243.975 717.947 245.009Z" fill="white"/>
<path d="M807.739 232.244C807.739 232.244 806.748 231.29 804.823 229.805C802.07 227.74 798.962 226.198 795.653 225.256C790.755 223.856 785.556 223.907 780.687 225.403C775.185 227.09 769.885 230.685 764.181 234.133C761.387 235.862 758.433 237.318 755.36 238.48C752.472 239.518 749.485 240.256 746.446 240.68C741.326 241.354 736.146 241.452 731.004 240.974C726.602 240.607 723.1 240.093 720.66 239.727L717.873 239.268C717.548 239.227 717.229 239.153 716.919 239.048C717.248 239.003 717.581 239.003 717.909 239.048L720.715 239.323C723.155 239.58 726.676 239.983 731.041 240.258C736.136 240.632 741.256 240.472 746.318 239.782C749.289 239.337 752.208 238.593 755.029 237.563C758.049 236.408 760.954 234.971 763.704 233.271C769.39 229.86 774.708 226.228 780.467 224.523C784.66 223.283 789.092 223.087 793.378 223.95C797.664 224.813 801.675 226.709 805.061 229.475C805.791 230.08 806.477 230.736 807.115 231.437C807.353 231.681 807.563 231.952 807.739 232.244Z" fill="white"/>
<path d="M826.647 231.639C826.671 232.703 826.391 233.753 825.84 234.665C824.681 236.993 822.795 238.879 820.467 240.038C818.134 241.178 815.49 241.513 812.947 240.992C811.88 240.873 810.869 240.453 810.031 239.782C810.031 239.635 811.205 240.112 813.039 240.332C815.435 240.644 817.869 240.244 820.038 239.181C822.207 238.117 824.015 236.438 825.235 234.353C826.207 232.757 826.501 231.602 826.647 231.639Z" fill="white"/>
<path d="M671.308 270.703C672.408 270.462 673.523 270.291 674.646 270.189L683.816 269.162C691.537 268.337 702.155 267.328 713.985 266.136L718.093 265.751L717.653 266.246C717.378 255.352 717.176 245.65 717.084 238.736C717.084 235.38 717.084 232.611 717.084 230.52C717.04 229.516 717.076 228.51 717.194 227.512C717.351 228.501 717.437 229.5 717.451 230.502C717.543 232.592 717.671 235.362 717.818 238.736C718.093 245.687 718.405 255.389 718.698 266.246V266.686H718.24L714.132 267.072C702.339 268.209 691.665 269.181 683.926 269.823L674.756 270.538C673.613 270.686 672.459 270.742 671.308 270.703Z" fill="#263238"/>
<path d="M277.566 655.256L237.823 677.576L201.327 686.177C200.704 686.325 200.118 686.598 199.605 686.981C199.093 687.364 198.664 687.848 198.346 688.404C198.028 688.959 197.827 689.574 197.756 690.209C197.685 690.845 197.746 691.489 197.934 692.101C198.155 692.814 198.544 693.464 199.067 693.996C199.59 694.529 200.233 694.929 200.941 695.164C210.111 698.153 243.802 708.277 246.021 707.268C249.542 705.673 290.037 686.471 290.037 686.471L277.566 655.256Z" fill="#44D08D"/>
<g opacity="0.6">
<path d="M197.933 692.101L249.285 705.801L247.598 706.7C246.117 707.456 244.425 707.695 242.793 707.378C238.428 706.425 226.452 703.509 200.959 695.274C200.226 695.039 199.563 694.627 199.029 694.073C198.494 693.519 198.105 692.842 197.896 692.101H197.933Z" fill="white"/>
</g>
<g opacity="0.6">
<path d="M257.905 690.634C257.274 690.318 256.547 690.25 255.868 690.444C255.189 690.637 254.608 691.078 254.237 691.679C253.891 692.301 253.803 693.033 253.992 693.719C254.18 694.405 254.631 694.99 255.246 695.347C255.911 695.659 256.667 695.716 257.37 695.506C258.074 695.296 258.676 694.835 259.061 694.21C259.346 693.531 259.353 692.767 259.083 692.081C258.812 691.396 258.284 690.844 257.612 690.542" fill="white"/>
</g>
<path d="M233.257 690.084C233.391 688.215 233.391 686.34 233.257 684.471C232.835 682.597 232.271 680.758 231.569 678.969C232.992 680.472 233.864 682.411 234.045 684.471C234.48 686.376 234.199 688.373 233.257 690.084Z" fill="#263238"/>
<path d="M242.72 687.809C242.427 687.809 242.17 685.132 240.739 682.179C239.309 679.226 237.383 677.319 237.585 677.099C239.333 678.249 240.735 679.854 241.64 681.741C242.545 683.628 242.918 685.726 242.72 687.809Z" fill="#263238"/>
<path d="M250.899 683.995C250.564 681.945 249.947 679.952 249.065 678.071C247.898 676.34 246.49 674.784 244.884 673.449C244.884 673.339 245.672 673.449 246.718 674.146C248.048 675.02 249.154 676.195 249.946 677.576C250.751 678.944 251.216 680.484 251.303 682.069C251.248 683.28 251.028 684.013 250.899 683.995Z" fill="#263238"/>
<path d="M251.028 675.393C251.028 675.393 251.486 674.971 252.513 674.531C253.979 673.925 255.549 673.613 257.135 673.614C258.302 673.518 259.469 673.808 260.455 674.44C260.761 674.673 260.986 674.997 261.098 675.366C261.21 675.735 261.203 676.129 261.078 676.494C260.795 677.194 260.267 677.767 259.593 678.108C258.192 678.735 256.616 678.855 255.137 678.446C253.658 678.038 252.367 677.127 251.486 675.87C250.643 674.611 250.193 673.13 250.193 671.615C250.193 670.1 250.643 668.619 251.486 667.36C251.693 667.049 251.963 666.785 252.279 666.586C252.595 666.387 252.95 666.257 253.32 666.205C253.72 666.184 254.116 666.295 254.447 666.52C254.778 666.745 255.027 667.072 255.154 667.452C255.447 668.558 255.447 669.721 255.154 670.827C254.861 672.38 254.296 673.871 253.485 675.228C252.898 676.182 252.477 676.622 252.422 676.585C253.382 674.74 254.062 672.762 254.439 670.717C254.687 669.748 254.687 668.732 254.439 667.764C254.375 667.562 254.248 667.387 254.076 667.265C253.904 667.142 253.696 667.079 253.485 667.085C253.238 667.132 253.002 667.23 252.794 667.372C252.586 667.514 252.409 667.697 252.275 667.91C251.58 669.008 251.212 670.28 251.212 671.578C251.212 672.877 251.58 674.149 252.275 675.246C253.023 676.333 254.123 677.128 255.389 677.499C256.655 677.87 258.01 677.793 259.226 677.282C259.697 677.068 260.075 676.69 260.289 676.219C260.365 676.017 260.375 675.798 260.319 675.591C260.263 675.383 260.144 675.199 259.978 675.063C259.143 674.544 258.172 674.289 257.19 674.329C255.089 674.313 253.002 674.673 251.028 675.393Z" fill="#263238"/>
<path d="M299.097 665.38L325.763 688.8C325.763 688.8 310.908 723.756 315.419 728.561L362.663 678.493L322.627 640.309L299.097 665.38Z" fill="#44D08D"/>
<path d="M338.198 671.267C338.799 670.922 339.506 670.812 340.183 670.958C340.86 671.104 341.459 671.494 341.866 672.055C342.245 672.644 342.378 673.357 342.238 674.043C342.097 674.728 341.694 675.332 341.114 675.723C340.48 676.091 339.731 676.209 339.015 676.053C338.299 675.897 337.667 675.478 337.244 674.88C336.936 674.232 336.888 673.491 337.11 672.808C337.332 672.126 337.806 671.555 338.436 671.212" fill="#E0E0E0"/>
<g opacity="0.6">
<path d="M362.664 678.493L358.482 674.825L314.741 724.196C314.741 724.196 313.623 727.35 315.42 728.579L362.664 678.493Z" fill="white"/>
</g>
<path d="M324.736 689.368C324.993 689.588 326.258 688.47 328.184 688.011C330.11 687.553 331.724 687.883 331.852 687.553C331.981 687.223 330.202 686.269 327.891 686.874C325.58 687.479 324.461 689.13 324.736 689.368Z" fill="#263238"/>
<path d="M321.949 696.668C322.132 696.943 323.562 696.283 325.378 696.429C327.194 696.576 328.514 697.365 328.734 697.108C328.954 696.851 327.707 695.384 325.451 695.274C323.196 695.164 321.728 696.466 321.949 696.668Z" fill="#263238"/>
<path d="M325.433 705.636C325.69 705.452 324.791 703.967 322.847 703.325C320.903 702.683 319.307 703.325 319.417 703.637C319.528 703.949 320.903 703.894 322.48 704.444C324.057 704.994 325.25 705.801 325.433 705.636Z" fill="#263238"/>
<path d="M319.252 683.353C319.582 683.463 320.298 682.014 321.692 680.73C323.085 679.446 324.534 678.768 324.461 678.438C324.388 678.107 322.517 678.328 320.885 679.868C319.252 681.409 318.941 683.298 319.252 683.353Z" fill="#263238"/>
<path d="M313.97 678.529C314.062 678.529 315.126 677.814 316.318 676.017C316.983 674.953 317.518 673.814 317.914 672.624C318.163 671.918 318.359 671.195 318.5 670.46C318.615 670.036 318.658 669.596 318.629 669.158C318.609 668.833 318.481 668.525 318.265 668.282C318.048 668.039 317.757 667.876 317.437 667.819C317.15 667.777 316.858 667.803 316.584 667.895C316.31 667.988 316.062 668.144 315.859 668.351C315.569 668.675 315.317 669.032 315.108 669.414C314.739 670.078 314.426 670.771 314.172 671.487C313.77 672.67 313.547 673.906 313.512 675.155C313.373 676.325 313.597 677.509 314.154 678.548C314.337 678.548 314.154 677.227 314.337 675.21C314.471 674.035 314.755 672.883 315.181 671.78C315.443 671.148 315.749 670.535 316.098 669.946C316.465 669.286 316.887 668.827 317.253 668.919C317.62 669.011 317.418 668.919 317.473 669.231C317.523 669.553 317.523 669.881 317.473 670.203C317.352 670.891 317.186 671.571 316.978 672.239C316.631 673.379 316.177 674.485 315.621 675.54C314.649 677.411 313.824 678.401 313.97 678.529Z" fill="#263238"/>
<path d="M314.612 678.548C314.741 678.548 314.319 677.172 312.778 675.595C311.889 674.679 310.854 673.916 309.716 673.339C309.033 673.011 308.32 672.746 307.588 672.55C307.132 672.37 306.636 672.312 306.15 672.382C305.664 672.453 305.205 672.65 304.819 672.954C304.609 673.179 304.47 673.46 304.417 673.763C304.365 674.066 304.403 674.378 304.525 674.66C304.693 675.065 304.922 675.442 305.204 675.778C305.678 676.396 306.248 676.935 306.891 677.374C307.977 678.137 309.24 678.611 310.559 678.749C311.138 678.885 311.739 678.903 312.325 678.802C312.911 678.701 313.47 678.484 313.971 678.163C312.879 678.146 311.79 678.072 310.706 677.942C309.576 677.697 308.512 677.209 307.588 676.512C307.057 676.112 306.587 675.636 306.194 675.1C305.736 674.513 305.498 673.908 305.736 673.761C305.987 673.625 306.266 673.547 306.551 673.531C306.836 673.515 307.122 673.562 307.387 673.669C308.054 673.828 308.705 674.049 309.331 674.329C310.397 674.797 311.392 675.414 312.283 676.163C313.787 677.521 314.447 678.639 314.612 678.548Z" fill="#263238"/>
<path d="M299.097 592.643L269.239 563.116L329.615 452.232C335.158 445.885 342.182 441.003 350.064 438.019L368.825 430.884L415.849 426.996L444.79 435.378C453.153 438.661 463.698 444.694 462.653 453.626L452.309 529.022L447.211 623.968L320.665 592.79L348.743 556.44L338.619 513.213L299.097 592.643Z" fill="#455A64"/>
<path d="M345.534 577.384L410.806 551.286C416.657 548.921 418.619 542.447 419.096 536.156L424.415 466.464C424.415 466.464 423.791 436.808 442.314 435.378L452.842 439.522C466.45 446.748 469.824 466.574 467.972 481.87C465.349 503.621 464.304 534.377 461.296 553.249C458.894 568.691 449.614 580.906 434.942 586.261L352.76 603.867L345.534 577.384Z" fill="#455A64"/>
<path d="M347.992 579.695H339.189C339.189 579.695 319.326 572.506 315.347 573.203C311.679 573.808 298.199 582.758 295.558 584.537C295.263 584.73 295.038 585.013 294.916 585.344C294.661 586.045 294.686 586.819 294.987 587.502C295.287 588.185 295.84 588.726 296.53 589.012L296.805 589.122L296.677 589.525C296.525 590.049 296.457 590.594 296.475 591.139C296.487 591.57 296.641 591.984 296.914 592.318C297.187 592.651 297.563 592.884 297.982 592.981C298.402 593.077 298.842 593.031 299.233 592.851C299.624 592.67 299.944 592.365 300.143 591.983L299.629 592.882C299.429 593.252 299.334 593.671 299.354 594.092V594.899C299.372 595.346 299.528 595.777 299.801 596.131C300.073 596.486 300.449 596.747 300.876 596.88C301.279 597.012 301.711 597.025 302.121 596.918C302.531 596.811 302.901 596.587 303.187 596.275C304.893 594.441 308.579 590.626 311.073 590.222C313.775 589.899 316.496 589.758 319.216 589.801C319.78 589.811 320.326 589.992 320.785 590.319C321.243 590.647 321.591 591.105 321.784 591.635C320.298 591.726 309.991 597.137 306.342 598.971C305.775 599.249 305.284 599.662 304.913 600.173C304.542 600.685 304.302 601.279 304.214 601.905C304.086 603.06 304.654 604.252 306.91 603.739C311.559 602.353 316.101 600.631 320.5 598.585C320.5 598.585 325.012 597.302 327.836 599.356C331.944 602.253 333.815 603.317 337.336 602.162C339.48 601.443 341.535 600.483 343.462 599.301L350.413 598.622C350.413 598.622 356.978 582.208 347.992 579.695Z" fill="#916B5C"/>
<path d="M321.766 583.033C321.766 583.125 320.354 582.666 318.098 582.519C315.069 582.337 312.039 582.852 309.239 584.023C306.462 585.229 304.001 587.062 302.05 589.379C300.546 591.213 299.904 592.46 299.831 592.423C299.947 592.103 300.095 591.796 300.271 591.506C300.726 590.699 301.247 589.933 301.83 589.213C303.753 586.792 306.249 584.889 309.093 583.675C311.936 582.462 315.038 581.976 318.116 582.263C319.038 582.342 319.952 582.495 320.849 582.721C321.165 582.79 321.473 582.894 321.766 583.033Z" fill="#6D5046"/>
<path d="M319.748 578.21C318.482 577.841 317.177 577.62 315.86 577.549C312.666 577.529 309.531 578.413 306.818 580.099C304.115 581.824 301.649 583.896 299.482 586.261L297.502 588.37C297.273 588.648 297.015 588.9 296.731 589.122C296.934 588.827 297.155 588.546 297.392 588.278C297.832 587.746 298.474 586.995 299.226 586.078C301.349 583.632 303.821 581.513 306.562 579.787C309.306 578.068 312.495 577.194 315.732 577.274C316.718 577.316 317.693 577.495 318.629 577.806C318.96 577.898 319.198 578.026 319.363 578.081L319.748 578.21Z" fill="#6D5046"/>
<path d="M429.641 477.083C429.522 477.607 429.448 478.141 429.421 478.678L428.981 483.282C428.632 487.353 428.137 493.112 427.55 500.173C426.963 507.234 426.285 515.835 425.533 525.262C425.349 527.609 425.147 530.03 424.964 532.598C424.835 535.103 424.541 537.596 424.084 540.062C423.633 542.526 422.458 544.799 420.709 546.591C418.865 548.319 416.745 549.726 414.437 550.755C395.693 559.429 378.417 566.6 365.873 571.625L350.925 577.384L346.872 578.98C346.391 579.149 345.925 579.358 345.479 579.603C345.975 579.512 346.46 579.371 346.927 579.182L351.036 577.751C354.593 576.486 359.729 574.597 366.038 572.249C378.656 567.389 395.95 560.328 414.767 551.616C417.164 550.54 419.364 549.071 421.278 547.27C423.171 545.345 424.448 542.9 424.946 540.246C425.391 537.735 425.678 535.199 425.808 532.653C425.991 530.195 426.175 527.775 426.34 525.409C427.036 515.982 427.642 507.472 428.174 500.301C428.705 493.13 429.036 487.463 429.311 483.373C429.421 481.539 429.512 479.907 429.586 478.77C429.64 478.209 429.658 477.646 429.641 477.083Z" fill="#263238"/>
<path d="M440.205 563.758C440.007 562.389 439.553 561.07 438.866 559.87C437.379 556.901 435.316 554.258 432.797 552.095C430.278 549.932 427.353 548.291 424.194 547.27C422.904 546.787 421.536 546.551 420.159 546.573C420.159 546.738 421.663 547.05 423.974 547.93C426.973 549.092 429.756 550.747 432.209 552.827C434.649 554.911 436.719 557.391 438.334 560.163C439.508 562.346 440.04 563.813 440.205 563.758Z" fill="#263238"/>
<g opacity="0.3">
<path d="M363.195 571.259C370.971 566.857 378.564 563.483 386.689 559.796C394.813 556.11 402.791 551.36 408.11 544.189C418.142 530.672 416.987 511.177 427.257 497.807C426.597 506.769 425.93 515.744 425.258 524.73C424.634 532.947 425.9 541.09 420.6 546.738C416.143 551.452 407.431 555.065 401.269 557.1C388.89 561.172 375.593 567.242 363.195 571.332" fill="black"/>
</g>
<path d="M217.997 567.646C217.997 567.646 202.133 573.294 202.06 591.084C201.931 625.16 270.89 662.72 270.89 662.72L362.681 601.905L368.422 599.576C368.422 599.576 244.554 553.029 217.997 567.646Z" fill="#263238"/>
<path d="M316.19 632.624C315.348 632.143 314.544 631.598 313.787 630.992C312.283 629.91 310.119 628.278 307.515 626.26C302.27 622.189 295.117 616.43 287.341 609.754C279.565 603.079 272.889 596.916 268.084 592.386C265.663 590.094 263.756 588.205 262.435 586.884C261.726 586.235 261.07 585.529 260.473 584.775C261.268 585.316 262.011 585.93 262.692 586.609L268.597 591.928C273.512 596.385 280.353 602.492 288.038 609.094C295.722 615.697 302.71 621.51 307.937 625.692C310.394 627.728 312.448 629.36 314.025 630.662C314.801 631.253 315.525 631.91 316.19 632.624Z" fill="#455A64"/>
<path d="M243.894 580.374C246.861 579.902 249.9 580.179 252.733 581.181C255.662 581.872 258.368 583.291 260.601 585.307C260.455 585.546 257.098 583.473 252.477 582.079C247.855 580.685 243.894 580.667 243.894 580.374Z" fill="#455A64"/>
<path d="M251.89 575C254.109 575.748 256.035 577.18 257.392 579.09C258.961 580.805 259.961 582.964 260.253 585.27C259.977 585.362 258.969 582.501 256.585 579.677C254.2 576.852 251.651 575.238 251.89 575Z" fill="#455A64"/>
<path d="M224.545 519.246L250.661 589.58C251.388 591.54 252.704 593.227 254.428 594.409C256.152 595.591 258.199 596.211 260.289 596.183L404.02 594.349V583.345L350.687 585.289L328.037 515.083C327.665 513.919 326.931 512.905 325.94 512.189C324.95 511.473 323.757 511.092 322.535 511.104L229.882 511.415C228.948 511.417 228.029 511.646 227.204 512.083C226.379 512.52 225.673 513.151 225.147 513.923C224.621 514.694 224.292 515.582 224.187 516.51C224.082 517.438 224.205 518.377 224.545 519.246Z" fill="#E0E0E0"/>
<path d="M224.545 519.247V519.027C224.545 518.88 224.417 518.66 224.362 518.366C224.161 517.498 224.161 516.594 224.362 515.725C224.741 514.312 225.647 513.098 226.893 512.332C227.678 511.843 228.573 511.559 229.497 511.507C230.487 511.507 231.57 511.507 232.688 511.507H271.367H298.474H321.692C323.028 511.364 324.373 511.661 325.525 512.351C326.669 513.065 327.511 514.174 327.891 515.469C334.732 536.706 342.343 560.31 350.468 585.564V585.711H350.633L404.112 583.602L403.874 583.382V594.386L404.112 594.166L313.733 595.376L274.448 595.908L265.388 596.036H260.987C259.567 596.115 258.145 595.909 256.805 595.431C255.516 594.963 254.339 594.233 253.347 593.286C252.356 592.338 251.572 591.195 251.047 589.929L248.222 582.355L230.983 536.119L226.214 523.593C225.132 520.732 224.545 519.247 224.545 519.247C224.545 519.247 225.077 520.769 226.123 523.63L230.744 536.193L247.837 582.465L250.643 589.966C251.183 591.283 251.989 592.475 253.012 593.466C254.035 594.457 255.251 595.226 256.585 595.724C257.965 596.221 259.43 596.439 260.895 596.366H265.297L274.357 596.256L313.641 595.761L404.021 594.587H404.241V583.198H404.002L350.669 585.161L350.908 585.307C342.747 560.071 335.117 536.468 328.276 515.248C327.854 513.866 326.949 512.682 325.727 511.911C324.511 511.193 323.098 510.878 321.692 511.012H313.696H298.474L271.367 511.232L232.688 511.415C231.57 511.415 230.506 511.415 229.497 511.415C228.306 511.516 227.174 511.982 226.258 512.75C225.342 513.518 224.686 514.551 224.38 515.707C224.166 516.587 224.166 517.505 224.38 518.385C224.411 518.676 224.467 518.964 224.545 519.247Z" fill="#263238"/>
<path d="M288.277 545.84C287.164 545.277 285.912 545.048 284.672 545.181C283.432 545.315 282.257 545.805 281.289 546.591C280.47 547.367 279.902 548.371 279.66 549.473C279.418 550.575 279.513 551.724 279.932 552.772C280.378 553.811 281.105 554.705 282.032 555.354C282.959 556.002 284.048 556.378 285.177 556.44C286.368 556.508 287.549 556.186 288.541 555.525C289.533 554.863 290.284 553.897 290.679 552.772C291.068 551.508 291.041 550.152 290.602 548.904C290.163 547.656 289.335 546.582 288.24 545.84" fill="white"/>
<path d="M255.43 666.535C255.43 666.535 384.947 583.583 390.669 580.337C395.529 577.568 408.55 569.553 421.37 573.093C434.19 576.632 445.707 588.15 451.466 604.949C454.749 614.56 456.308 630.956 456.968 643.243C457.848 657.915 455.923 670.166 446.312 681.317C442.101 686.574 436.505 690.55 430.155 692.798C428.798 693.22 427.404 693.587 425.955 693.898C401.434 699.199 373.613 690.616 359.839 669.653L356.813 665.05C356.813 665.05 271.991 696.228 270.615 695.769L255.43 666.535Z" fill="#263238"/>
<path d="M415.849 643.133L415.134 643.445L413.007 644.289L404.79 647.461L374.236 658.961C361.269 663.802 345.717 669.561 328.276 675.907C310.834 682.252 291.504 689.13 270.872 696.191L270.486 696.319L270.303 695.971C267.057 689.79 263.646 683.243 260.179 676.622C258.345 673.247 256.64 669.891 255.007 666.755L254.806 666.37L255.172 666.15L354.08 603.354L383.791 584.592L391.861 579.548L393.97 578.265C394.446 577.971 394.703 577.843 394.703 577.843C394.703 577.843 394.483 578.026 394.025 578.338L391.952 579.695L383.938 584.922L354.392 603.904L255.668 666.938L255.833 666.333C257.483 669.451 259.226 672.807 261.005 676.182L271.128 695.549L270.56 695.31C291.192 688.341 310.541 681.427 328.001 675.136L374.016 658.374L404.662 647.131L412.952 644.124L415.097 643.372C415.343 643.276 415.594 643.197 415.849 643.133Z" fill="#455A64"/>
<path d="M345.883 347.364C345.883 347.364 338.106 380.761 338.106 404.218V412.031C338.106 412.031 358.17 427.62 374.603 428.078L387.239 393.856L345.883 347.364Z" fill="#263238"/>
<path d="M433.346 364.86C429.073 348.831 427.037 330.014 413.264 319.982C403.049 312.5 391.623 310.684 378.987 311.619C372.769 312.096 365.818 315.287 360.5 318.442C353.164 322.898 350.321 331.537 346.983 339.423C340.289 355.195 341.885 376.213 346.983 381.898L413.007 414.103C425.754 406.932 433.787 403.98 435.309 386.593C435.913 379.29 435.249 371.937 433.346 364.86Z" fill="#263238"/>
<path d="M412.273 332.857L371.1 322.128C357.858 320.643 348.945 336.892 348.01 350.17C346.983 364.934 346.304 382.98 348.01 394.003C351.366 416.176 368.331 419.11 368.331 419.11C368.331 419.11 368.331 419.44 368.459 426.024L368.367 436.698C368.249 441.025 369.665 445.254 372.365 448.637C378.656 456.249 389.678 456.945 402.48 451.719C409.816 448.711 414.932 442.952 415.318 435.304L419.352 340.817C419.403 338.839 418.699 336.917 417.385 335.439C416.07 333.961 414.243 333.038 412.273 332.857Z" fill="white"/>
<path d="M353.31 371.628C353.299 372.368 353.576 373.084 354.083 373.624C354.589 374.165 355.285 374.488 356.024 374.526C356.386 374.556 356.75 374.513 357.096 374.401C357.441 374.288 357.761 374.108 358.036 373.871C358.311 373.633 358.535 373.343 358.697 373.018C358.859 372.693 358.954 372.339 358.977 371.976C358.987 371.238 358.71 370.524 358.203 369.987C357.696 369.449 357 369.13 356.263 369.097C355.901 369.062 355.536 369.1 355.19 369.209C354.843 369.319 354.523 369.497 354.247 369.733C353.971 369.97 353.746 370.259 353.585 370.585C353.424 370.91 353.33 371.265 353.31 371.628Z" fill="#263238"/>
<path d="M351.788 363.393C352.137 363.76 354.301 362.183 357.29 362.219C360.28 362.256 362.572 363.797 362.921 363.411C363.269 363.026 362.719 362.586 361.747 361.871C360.43 360.946 358.862 360.447 357.253 360.44C355.662 360.428 354.107 360.923 352.815 361.853C351.935 362.568 351.605 363.228 351.788 363.393Z" fill="#263238"/>
<path d="M380.27 371.628C380.26 372.371 380.539 373.089 381.049 373.63C381.559 374.171 382.26 374.492 383.002 374.526C383.363 374.556 383.727 374.513 384.071 374.4C384.415 374.288 384.734 374.107 385.007 373.87C385.281 373.632 385.504 373.342 385.663 373.017C385.823 372.692 385.916 372.338 385.937 371.976C385.952 371.236 385.676 370.52 385.168 369.982C384.661 369.443 383.962 369.126 383.223 369.097C382.862 369.064 382.498 369.104 382.152 369.215C381.807 369.325 381.487 369.503 381.212 369.739C380.937 369.975 380.712 370.264 380.55 370.588C380.388 370.913 380.293 371.266 380.27 371.628Z" fill="#263238"/>
<path d="M381.829 362.77C382.178 363.155 384.342 361.577 387.331 361.596C390.321 361.614 392.631 363.173 392.962 362.806C393.292 362.439 392.778 361.963 391.788 361.247C390.474 360.32 388.903 359.826 387.295 359.835C385.705 359.818 384.151 360.306 382.856 361.229C381.976 361.944 381.646 362.678 381.829 362.77Z" fill="#263238"/>
<path d="M370.568 382.962C368.965 382.439 367.3 382.125 365.616 382.027C364.828 381.935 364.094 381.788 363.966 381.256C363.909 380.448 364.101 379.641 364.516 378.945C365.25 377.111 366.038 375.076 366.864 373.003C370.128 364.567 372.494 357.634 372.145 357.506C371.797 357.378 368.881 364.108 365.616 372.545L363.361 378.505C362.873 379.448 362.724 380.529 362.939 381.568C363.049 381.847 363.223 382.096 363.445 382.296C363.668 382.497 363.934 382.643 364.223 382.723C364.653 382.845 365.096 382.913 365.543 382.925C367.21 383.145 368.898 383.157 370.568 382.962Z" fill="#263238"/>
<path d="M368.221 419.11C378.646 419.341 388.932 416.675 397.932 411.407C397.932 411.407 390.596 426.849 368.349 424.63L368.221 419.11Z" fill="#6D5046"/>
<path d="M380.637 388.739C380.199 388.066 379.601 387.511 378.898 387.124C378.194 386.736 377.405 386.529 376.602 386.52C375.464 386.425 374.321 386.639 373.295 387.14C372.269 387.64 371.396 388.408 370.77 389.363C370.314 390.246 370.216 391.27 370.495 392.224C370.696 392.719 370.495 392.48 370.916 392.811C372.173 394.125 373.735 395.108 375.465 395.672C376.395 395.917 377.378 395.872 378.282 395.545C379.186 395.217 379.969 394.622 380.527 393.838C381.013 393.081 381.281 392.204 381.301 391.304C381.32 390.404 381.09 389.516 380.637 388.739Z" fill="#6D5046"/>
<path d="M380.105 385.254C379.609 385.254 379.554 388.537 376.693 390.848C373.832 393.159 370.293 392.682 370.274 393.232C370.274 393.434 371.045 393.874 372.53 393.929C374.482 393.971 376.385 393.322 377.904 392.095C379.362 390.926 380.309 389.236 380.545 387.382C380.692 386.061 380.27 385.236 380.105 385.254Z" fill="#263238"/>
<path d="M380.27 351.674C380.508 352.518 383.589 352.334 387.129 352.994C390.668 353.655 393.511 354.828 394.043 354.095C394.281 353.765 393.823 352.939 392.704 352.077C391.212 350.99 389.491 350.259 387.672 349.941C385.853 349.623 383.986 349.726 382.214 350.243C380.911 350.628 380.27 351.234 380.27 351.674Z" fill="#263238"/>
<path d="M351.77 355.177C352.485 355.745 354.667 354.627 357.455 354.095C360.243 353.563 362.664 353.636 363.085 352.829C363.269 352.444 362.774 351.821 361.618 351.362C360.066 350.817 358.395 350.7 356.782 351.022C355.169 351.345 353.672 352.096 352.448 353.196C351.641 354.113 351.44 354.883 351.77 355.177Z" fill="#263238"/>
<path d="M371.504 319.726C371.464 319.889 371.434 320.054 371.412 320.221L371.504 319.726Z" fill="#263238"/>
<path d="M403.598 426.868C404.039 421.054 401.508 415.295 402.003 409.482C402.516 403.319 406.313 397.928 407.762 391.894C410.072 382.265 406.148 372.215 404.515 362.385C398.832 361.655 393.612 358.87 389.843 354.553C385.24 349.528 382.361 343.201 379.536 336.984C379.907 343.198 382.209 349.142 386.12 353.985C384.882 354.217 383.606 354.156 382.396 353.806C381.185 353.455 380.074 352.826 379.151 351.967C377.313 350.244 375.863 348.15 374.896 345.824C372.319 340.297 370.795 334.339 370.403 328.254C369.855 336.973 371.103 345.713 374.071 353.93C372.465 353.684 370.824 353.796 369.266 354.26C368.487 354.488 367.666 354.532 366.867 354.389C366.068 354.246 365.314 353.919 364.663 353.435C363.94 352.622 363.474 351.614 363.324 350.537C361.546 343.176 361.049 335.563 361.857 328.034C359.883 332.087 358.316 336.326 357.18 340.688C356.04 345.07 356.154 349.684 357.51 354.003C357.146 354.363 356.655 354.564 356.144 354.564C355.632 354.564 355.141 354.363 354.777 354.003C354.051 353.255 353.593 352.288 353.475 351.252C352.984 347.516 353.108 343.724 353.842 340.028C351.751 344.026 351.164 348.593 350.082 352.958C349 357.323 347.203 361.834 343.517 364.439C342.7 358.801 342.7 353.075 343.517 347.438C344.381 342.7 345.906 338.106 348.047 333.793C350.049 329.002 352.957 324.643 356.611 320.955C362.957 315.031 365.781 317.397 370 319.432L370.495 319.634C370.485 319.53 370.485 319.426 370.495 319.322L370.66 318.424C381.508 315.623 392.909 315.787 403.672 318.9C412.673 322.079 420.397 328.097 425.68 336.048L425.937 336.452C435.73 352.848 443.268 376.433 437.509 414.965L403.598 426.868Z" fill="#263238"/>
<path d="M342.434 471.617C338.913 482.108 335.373 492.763 334.805 503.804C334.236 514.845 337.024 526.546 344.69 534.524" fill="#455A64"/>
<path d="M344.691 534.524C344.691 534.524 344.489 534.414 344.159 534.102C343.695 533.654 343.254 533.183 342.838 532.69C341.273 530.875 339.931 528.881 338.84 526.747C335.386 519.605 333.862 511.682 334.42 503.767C335.026 495.924 336.628 488.189 339.189 480.751C340.124 477.89 340.931 475.597 341.518 474.038C341.78 473.202 342.117 472.392 342.526 471.617C342.379 472.477 342.165 473.323 341.885 474.148C341.334 475.982 340.656 478.22 339.83 480.952C337.442 488.401 335.916 496.099 335.282 503.896C334.765 511.663 336.196 519.436 339.445 526.509C340.919 529.35 342.677 532.036 344.691 534.524Z" fill="#263238"/>
<path d="M468.302 477.083C468.334 477.486 468.334 477.89 468.302 478.293C468.302 479.174 468.21 480.329 468.155 481.741C468.009 484.731 467.734 489.077 467.33 494.396C466.541 505.088 465.056 519.815 463.662 536.083C463.123 543.782 461.896 551.417 459.994 558.897C459.234 562.194 458.102 565.394 456.62 568.434C455.187 571.037 453.327 573.38 451.118 575.367C447.899 578.191 444.089 580.259 439.967 581.419C438.859 581.739 437.732 581.99 436.592 582.171C436.192 582.243 435.788 582.286 435.382 582.299C435.382 582.189 437.014 581.969 439.857 581.052C443.863 579.791 447.548 577.676 450.659 574.853C452.782 572.903 454.562 570.609 455.923 568.067C457.343 565.067 458.426 561.917 459.15 558.677C461.001 551.237 462.221 543.654 462.8 536.009C464.176 519.723 465.771 505.015 466.725 494.341C467.202 489.095 467.587 484.822 467.862 481.723C467.99 480.311 468.1 479.174 468.174 478.275C468.176 477.874 468.22 477.475 468.302 477.083Z" fill="#263238"/>
</g>
<defs>
<clipPath id="clip0_27603_7805">
<rect width="1200" height="800" fill="white"/>
</clipPath>
</defs>
</svg>
