<svg width="44" height="42" viewBox="0 0 44 42" fill="none" xmlns="http://www.w3.org/2000/svg">
<path d="M25.8155 0.13968C24.1515 -0.108607 22.8575 -0.051046 17.3224 0.517286C14.02 0.860299 13.7842 0.88424 11.3801 1.21434C9.1672 1.51608 9.13199 1.52268 8.79456 1.62566C8.13945 1.82059 7.07894 2.48608 6.90774 2.80737C6.74813 3.10279 6.95388 3.4156 7.50305 3.70625C7.93304 3.93355 8.96734 4.23013 9.34866 4.23547C9.97445 4.24428 11.1724 4.07182 13.8613 3.59036C19.6562 2.55135 22.2615 2.15825 23.778 2.09376C24.9582 2.04103 25.7729 2.17477 26.149 2.47402C26.2171 2.52684 26.357 2.69181 26.4619 2.83422C26.9408 3.50004 27.2428 3.7822 28.9003 5.12716C29.5794 5.67561 30.6428 6.56726 31.2671 7.1041C32.7548 8.38793 33.4257 8.95068 34.8905 10.1405C35.5592 10.6818 36.7153 11.6417 37.4626 12.272C38.2098 12.9024 38.9032 13.4882 39.0031 13.5751L39.1842 13.727L38.949 13.7635C38.8182 13.7843 38.2127 13.8645 37.6083 13.9408C35.7069 14.1863 33.0966 14.6986 29.4293 15.5446C27.6916 15.9451 25.6367 16.5085 24.3259 16.9441C24.05 17.0356 23.7329 17.1402 23.6219 17.1791C23.5119 17.2141 23.0371 17.3901 22.5649 17.571L21.7003 17.9014L21.3538 17.7022C20.1951 17.0412 17.1002 14.5559 12.077 10.2484C11.0954 9.4052 9.85407 8.35018 9.31606 7.90465C8.78189 7.46014 8.03963 6.82707 7.67128 6.50088C6.83076 5.76052 6.65726 5.64 6.41827 5.61728C6.10292 5.58513 6.03466 5.73611 6.19746 6.11158C6.27751 6.29682 7.0184 7.19587 7.62711 7.84479C8.38183 8.65207 11.3602 11.6449 12.956 13.2053C15.3164 15.5091 18.1139 18.1173 20.1808 19.95L20.8807 20.571L19.7759 24.5111C17.822 31.4992 16.6616 35.5024 16.3124 36.4592C16.1448 36.9272 16.0017 37.3106 15.9929 37.3122C15.9879 37.3149 15.8496 37.1297 15.6867 36.8998C14.9624 35.8557 13.8122 34.4107 12.6475 33.0739C10.8456 31.0135 9.26539 29.312 7.83 27.8892C7.39252 27.4558 4.85518 25.1012 4.80904 25.088C4.8014 25.0858 4.55162 24.8685 4.25297 24.604C3.31091 23.7679 2.7646 23.3366 2.57623 23.2826C2.48394 23.2561 2.49066 23.1166 2.61921 22.5667C2.68706 22.2866 2.77206 21.874 2.81677 21.6455C2.86152 21.4169 3.11184 20.4859 3.3682 19.5773C4.14769 16.8589 4.92977 13.7542 5.67633 10.4395C5.98367 9.06296 6.05493 8.65482 6.06635 8.20868C6.07722 7.74991 6.01534 6.97893 5.91806 6.41846C5.86452 6.11177 5.64835 5.19677 5.59409 5.05224C5.58861 5.04232 5.53642 5.0357 5.47927 5.0318C5.18643 5.02273 4.61974 5.83808 4.10378 7.0134C3.79874 7.69991 3.64058 8.20797 3.43035 9.12976C3.20688 10.1268 2.28336 14.0731 1.76976 16.227C1.58995 16.9702 1.22656 18.339 0.950908 19.3003C0.56503 20.6461 0.407835 21.2668 0.233976 22.0908C-0.0403572 23.4103 -0.0536902 23.5729 0.0919429 24.1099C0.128077 24.2451 0.182254 24.477 0.211238 24.6226C0.297648 25.0469 0.786996 25.8363 1.28869 26.3506C1.43579 26.5051 1.9885 27.088 2.51489 27.6467C3.84983 29.0574 5.16613 30.3877 8.59355 33.7882C11.7976 36.9665 12.0134 37.1864 13.1051 38.2984C14.5982 39.8251 15.0763 40.2618 15.7709 40.7274C16.309 41.0855 16.3563 41.124 16.5192 41.383C16.686 41.643 16.6991 41.6551 16.8766 41.6893C17.3001 41.765 17.6904 41.6522 19.9879 40.7797C20.8887 40.4388 22.3645 39.8924 23.2698 39.5652C24.9181 38.9685 27.452 37.9973 29.7451 37.0819C30.4173 36.8128 31.3753 36.4466 31.8739 36.2609C35.5422 34.9034 36.0187 34.678 36.6831 33.9572C36.8696 33.7569 37.0643 33.5422 37.1237 33.4802C37.3283 33.26 38.0348 32.2185 38.3149 31.7204C38.9225 30.6462 39.0178 30.4156 40.5592 26.1429C41.704 22.9633 42.1012 21.7664 42.8041 19.3589C43.2263 17.9154 43.3206 17.543 43.3914 17.093C43.5684 15.9245 43.6684 14.6466 43.6307 13.9367C43.595 13.2482 43.439 12.7623 43.2439 12.7314C43.1522 12.7176 43.1181 12.7494 42.9244 13.0184C42.8011 13.187 42.6945 13.327 42.6834 13.3363C42.6697 13.3407 42.595 13.2819 42.5171 13.2054C42.3546 13.0465 42.2942 12.9959 41.3543 12.2686C40.5636 11.6591 39.8961 11.1139 38.0832 9.59961C37.3652 8.99837 36.1403 8.00215 35.3684 7.3855C33.9491 6.25449 33.0976 5.55259 31.7509 4.40076C30.8616 3.64224 29.9562 2.92491 28.9036 2.14039C28.4276 1.78335 27.9187 1.36695 27.6256 1.08316C27.3577 0.827392 27.0387 0.561172 26.9207 0.494033C26.7257 0.375703 26.1353 0.185593 25.8155 0.13968ZM40.303 17.023C39.9783 17.6332 39.6649 18.4504 38.6572 21.3115C37.5284 24.5373 37.4788 24.6812 36.69 27.3013C35.9057 29.906 35.8037 30.1888 35.4918 30.682C35.4241 30.7874 35.3053 30.9115 35.2349 30.9537C35.0337 31.0749 34.4967 31.2497 33.6641 31.4687C32.7199 31.7139 31.2607 32.1735 30.3533 32.5083C28.9809 33.0136 28.0007 33.4566 24.1358 35.3112C22.7413 35.9807 20.7031 36.9068 19.8307 37.2642L19.4999 37.4024L19.9585 35.8028C20.4575 34.0484 20.5739 33.5117 20.9861 31.0582C21.0945 30.3902 21.4128 28.4966 21.6934 26.8502C22.2344 23.6431 22.5284 21.8049 22.5828 21.267C22.6183 20.9402 22.6194 20.9363 22.7205 20.9029C22.7755 20.8854 23.1745 20.7418 23.6109 20.584C25.7753 19.7981 27.9424 19.192 30.7176 18.598C31.3024 18.4743 32.5756 18.1986 33.5517 17.9875C35.4158 17.5815 36.772 17.3213 38.5739 17.0307C39.1762 16.9329 39.8434 16.8122 40.0654 16.7635C40.2836 16.7137 40.4682 16.6792 40.4698 16.688C40.4765 16.6941 40.3994 16.8467 40.303 17.023Z" fill="#121212"/>
</svg>
