<svg width="28" height="38" viewBox="0 0 28 38" fill="none" xmlns="http://www.w3.org/2000/svg">
<path d="M20.9733 0.01251C20.4695 -0.0154447 20.4206 -0.00448863 20.3034 0.128356C19.9751 0.50442 19.0473 2.50624 18.4865 4.05572C18.3824 4.34622 18.2849 4.58464 18.275 4.59007C18.2602 4.5983 18.03 4.57395 17.7603 4.54234C16.3308 4.36135 15.3331 4.32907 13.9374 4.40738C13.6417 4.42247 13.112 4.4995 12.5191 4.60825C9.75163 5.11712 7.51733 6.52375 6.60133 8.3251C6.42958 8.66284 6.30102 9.27091 6.29502 9.75605C6.29111 10.4374 6.66442 11.9218 6.92948 12.2599C6.95908 12.3017 7.07869 12.465 7.18681 12.6251C7.63839 13.2705 8.00447 13.6626 8.70991 14.2644C9.12222 14.6114 10.5839 15.6381 10.9963 15.8687C11.0754 15.9122 11.3291 16.0724 11.5619 16.2182C12.0198 16.5076 12.7957 16.9798 13.4761 17.3788C13.7112 17.5169 13.9319 17.6468 13.9632 17.6682C14.0192 17.7051 13.9977 17.7946 13.645 18.9377C13.2658 20.173 12.9536 21.4068 12.5569 23.2113C12.4487 23.7046 12.223 24.651 12.0538 25.3141C11.8856 25.9733 11.6192 27.0329 11.4636 27.6624C11.3081 28.2919 11.1393 28.9385 11.0853 29.0977L10.99 29.3866L10.6715 29.1913C8.99394 28.1776 7.58614 27.1373 6.78969 26.3305C6.44551 25.9779 5.70724 25.2004 5.51292 24.9782C4.65507 24.0082 4.01672 23.3757 3.04938 22.5407C2.81384 22.3317 2.55641 22.1122 2.48279 22.0495C2.17263 21.7816 1.56871 21.2756 1.42597 21.1639C1.34088 21.0979 1.1822 20.9692 1.07574 20.8762C0.969217 20.7833 0.816035 20.6644 0.736402 20.6083C0.660642 20.5533 0.521208 20.4301 0.427311 20.3366C0.334603 20.2393 0.214329 20.1507 0.160474 20.1353C0.0759073 20.111 0.0599686 20.1231 0.0279878 20.2346C-0.0811646 20.6153 0.130574 21.5456 0.634811 22.8928C0.704972 23.0835 0.805224 23.3287 0.856804 23.4391C0.905566 23.5447 1.01693 23.7805 1.10192 23.963C1.53782 24.8953 2.18889 26.064 2.43418 26.3549C2.47812 26.405 2.58017 26.5424 2.65972 26.6568C3.02903 27.1829 4.1124 28.484 4.5466 28.9288C4.65252 29.0383 4.78477 29.1719 4.8353 29.2281C5.17833 29.5844 6.19011 30.4529 6.80615 30.9167C7.4903 31.4333 8.92786 32.3116 9.69071 32.6843C9.917 32.7949 10.1048 32.8945 10.113 32.9094C10.1223 32.9204 10.1068 33.0616 10.0847 33.2258C9.9083 34.4361 9.97407 36.3108 10.221 37.2347C10.29 37.4875 10.3668 37.5969 10.4701 37.585C10.5382 37.5795 10.9111 37.1788 11.1202 36.885C11.2731 36.6709 11.7475 35.8872 11.8752 35.6451C12.1549 35.1052 12.4477 34.5193 12.5204 34.3529C12.5628 34.2485 12.6218 34.1156 12.647 34.0563L12.6994 33.9464L13.3948 34.1625C14.1028 34.378 15.3255 34.6704 15.8809 34.7505C16.3803 34.823 17.7572 34.9265 18.3373 34.9348C18.9555 34.9414 19.9984 34.9034 20.322 34.863C20.4418 34.8516 20.5929 34.8326 20.666 34.8243C20.855 34.8036 22.0431 34.5784 22.2283 34.5275C23.416 34.2022 24.1454 33.8788 24.819 33.3729C24.9404 33.2829 25.0779 33.1808 25.1258 33.1445C25.3727 32.9657 26.2142 32.0044 26.5361 31.5349C27.0544 30.7723 27.2008 30.4647 27.4329 29.6408C27.6584 28.8399 27.6983 28.4394 27.6182 27.8047C27.4224 26.2672 26.6009 24.6335 25.1783 22.948C24.5384 22.1903 24.2618 21.9071 23.2604 20.9874C21.8743 19.712 20.6242 18.746 18.8648 17.5965C18.2619 17.2031 17.2213 16.5801 17.1214 16.5515C17.0099 16.5195 17.0237 16.3986 17.2155 15.7296C17.4261 14.9952 17.8409 13.3165 18.188 11.8015C18.4633 10.5946 19.5709 6.60122 19.6402 6.5628C19.7045 6.52717 20.9524 7.02232 21.7097 7.38508C22.4374 7.73526 23.87 8.61623 24.7167 9.23351C25.1049 9.5196 25.8697 10.1176 25.9059 10.1655C25.9246 10.1874 26.0256 10.2705 26.1354 10.3519C26.4934 10.6127 27.2635 11.337 27.4661 11.6032L27.5599 11.7258L27.6952 11.5731C27.8063 11.4469 27.8261 11.4068 27.8031 11.3419C27.7861 11.2996 27.7593 11.2045 27.7396 11.1282C27.6651 10.8363 27.3985 10.402 27.0094 9.94508C26.7882 9.68605 26.5753 9.44188 26.5396 9.40668C26.0692 8.94308 25.9094 8.78904 25.647 8.54326C24.7451 7.6979 23.222 6.56622 22.4691 6.18803C22.3719 6.13519 22.1011 5.99101 21.8743 5.86769C21.296 5.54793 20.9083 5.36186 20.6854 5.29792C20.5815 5.26815 20.4041 5.20478 20.2932 5.15628L20.0922 5.07367L20.7839 2.76284C21.2739 1.12652 21.4708 0.425631 21.4565 0.359128C21.4456 0.310215 21.4055 0.261283 21.367 0.250244C21.3286 0.239225 21.277 0.186987 21.2507 0.13365C21.2008 0.031962 21.1904 0.0248115 20.9733 0.01251ZM17.607 6.29601C17.3763 6.82493 17.056 7.84001 16.1025 11.0495C15.5 13.078 14.9615 14.8544 14.9042 14.996L14.8061 15.2509L14.6365 15.1607C13.9659 14.8144 11.9286 13.6768 11.279 13.2866C9.99018 12.5134 9.28135 11.9814 8.8873 11.4981C8.18812 10.6277 7.99499 9.77748 8.31498 8.96628C8.41303 8.71141 8.44661 8.66697 8.78588 8.36892C9.26043 7.94737 9.58264 7.72353 10.2362 7.37415C11.1609 6.87779 12.4487 6.46473 13.6648 6.2725C14.9011 6.08189 15.8352 6.04599 17.4076 6.13485C17.6335 6.14554 17.6637 6.17082 17.607 6.29601ZM16.5469 19.1789C16.9077 19.3864 17.6929 19.8987 18.2919 20.3201C19.4378 21.1272 19.5477 21.2086 20.2773 21.8132C20.4255 21.9347 20.6144 22.0888 20.6995 22.1548C20.8944 22.3022 21.9747 23.2945 22.3727 23.6915C23.6775 24.9894 24.4914 26.026 24.9448 26.9549C25.4455 27.9806 25.493 28.2939 25.2725 29.0629C25.0361 29.8731 24.6195 30.4402 23.8459 31.0049C22.9212 31.676 21.2873 32.1063 19.6351 32.1069C18.9856 32.1079 18.4988 32.0641 17.443 31.9153C16.9464 31.8478 15.6028 31.4833 15.0084 31.263C14.5081 31.0779 13.5453 30.677 13.5278 30.6511C13.5113 30.6215 14.9338 24.3547 15.4578 22.1498C15.7133 21.0704 16.2899 19.0594 16.3399 19.0738C16.3591 19.0793 16.4535 19.1272 16.5469 19.1789Z" fill="#121212"/>
</svg>
