<svg version="1.2" xmlns="http://www.w3.org/2000/svg" viewBox="0 0 101 87" width="101" height="87"><style>.a{mix-blend-mode:multiply;fill:#0fa6a6}.b{mix-blend-mode:multiply;fill:#6fcfa1;stroke:#6fcfa1;stroke-miterlimit:10;stroke-width:.8}.c{fill:#afe8d9;stroke:#afe8d9;stroke-miterlimit:10;stroke-width:.8}.d{mix-blend-mode:multiply;fill:#afe8d9;stroke:#afe8d9;stroke-miterlimit:10;stroke-width:.8}.e{fill:#6fcfa1;stroke:#6fcfa1;stroke-miterlimit:10;stroke-width:.8}.f{fill:#272726}</style><path class="a" d="m52.3 1.9c-1.5 0.2-2.8 1-4.1 2.7-2.7 3.8-9.1 10.6-5.6 15.5 4.6 6.4-5.7 7.4-4.8 17.1 0.9 9.7 0.9 9.7 0.9 9.7 0 0 29.3-0.3 29.4-0.3 0.8 0-0.1-15.2-0.6-16.7-0.8-2.5-3.2-4.6-3.1-7 0-2.9 3.2-4.7 2.1-8.6-0.9-3.4-3.4-6.2-6-8.6-2.4-2.3-5.4-4.2-8.2-3.8z"/><path class="b" d="m83.8 16c-1.4 0.2-2.8 1-4 2.6-2.8 3.8-9.2 10.6-5.6 15.6 4.6 6.4-5.8 7.4-4.9 17 0.9 9.7 0.9 9.7 0.9 9.7 0 0 29.4-0.3 29.5-0.3 0.8 0-0.1-15.2-0.6-16.7-0.9-2.5-3.2-4.6-3.2-7 0.1-2.9 3.2-4.7 2.2-8.6-1-3.4-3.4-6.2-6-8.6-2.5-2.3-5.5-4.2-8.3-3.7z"/><path class="c" d="m68.1 37.7c-1.5 0.2-2.9 1.1-4.1 2.7-2.7 3.8-9.1 10.6-5.6 15.5 4.6 6.4-5.7 7.4-4.8 17.1 0.9 9.7 0.9 9.7 0.9 9.7 0 0 29.3-0.3 29.4-0.3 0.8 0-0.1-15.2-0.6-16.7-0.9-2.5-3.2-4.6-3.2-7 0.1-2.9 3.2-4.7 2.2-8.6-0.9-3.4-3.4-6.2-6-8.6-2.4-2.3-5.4-4.2-8.2-3.8z"/><path class="d" d="m22.7 15.7c-1.3 0.2-2.6 1-3.8 2.7-2.6 3.8-8.6 10.5-5.2 15.5 4.3 6.4-5.4 7.4-4.6 17.1 0.9 9.6 0.9 9.6 0.9 9.6 0 0 27.5-0.2 27.6-0.2 0.8 0-0.1-15.3-0.6-16.7-0.8-2.6-3-4.7-2.9-7.1 0-2.8 3-4.6 2-8.5-0.9-3.5-3.2-6.2-5.6-8.6-2.3-2.3-5.2-4.2-7.8-3.8z"/><path class="e" d="m32.6 41.1c-1.5 0.2-2.9 1-4.1 2.6-2.7 3.8-9.1 10.6-5.6 15.6 4.6 6.4-5.7 7.4-4.8 17 0.9 9.7 0.9 9.7 0.9 9.7 0 0 29.3-0.3 29.4-0.3 0.8 0-0.1-15.2-0.6-16.7-0.9-2.5-3.2-4.6-3.2-7 0.1-2.9 3.2-4.7 2.2-8.6-0.9-3.4-3.4-6.2-6-8.6-2.5-2.3-5.5-4.1-8.2-3.7z"/><path class="f" d="m36.2 37.2q-0.5-0.1-1.1-0.1-0.5 0-1.1 0-0.5 0-1 0-0.7 0-1.3 0.2-1 0.2-2 0.5-0.4 0.2-0.9 0.3c-0.4 0.1-0.7 0.2-1.1 0.4-0.2 0.1-0.4 0.3-0.7 0.4q-0.5 0.3-1 0.6-0.4 0.2-0.8 0.4c-0.4 0.2-0.7 0.5-1 0.7-0.4 0.5-0.9 1-1.4 1.4-0.2 0.1-0.4 0.3-0.6 0.5-0.3 0.3-0.5 0.7-0.6 1-0.7 1.3-1.2 2.5-1.6 3.9-0.2 0.7-0.4 1.5-0.4 2.2q-0.1 1.1 0.1 2.1 0.1 1.2 0.4 2.3c0.1 0.7 0.3 1.4 0.6 2 0.3 0.6 0.7 1.1 1.2 1.5 0.5 0.5 0.9 0.9 1.4 1.4q0.9 0.7 1.8 1.4 0.9 0.6 1.7 1.3c1.1 0.7 2.4 1.3 3.8 1.5 0.7 0.1 1.5 0.1 2.2 0.2 0.7 0 1.4 0.1 2.1 0.1 0.6 0 1.4-0.1 2-0.2q0.6-0.2 1.1-0.4 0.2-0.1 0.4-0.2 0.1-0.1 0.2-0.1c0.1-0.1 0.3-0.3 0.1-0.1 0.1-0.1 0.3-0.1 0.4-0.2q0.2 0 0.5-0.1 0.5-0.2 1.1-0.6c0.6-0.3 1.2-0.8 1.7-1.3q1.5-1.4 2.6-3.1c0.4-0.6 0.7-1.2 0.8-1.9 0.2-0.6 0.4-1.2 0.6-1.8q0.3-1.2 0.4-2.4c0.1-0.7-0.1-1.3-0.1-2 0-0.8-0.1-1.6-0.3-2.4-0.1-0.6-0.3-1.2-0.6-1.9-0.4-1.2-1.1-2.5-2.1-3.4q-0.5-0.3-0.9-0.7-0.1 0-0.2-0.1c0.2 0.2 0 0 0 0q-0.2-0.2-0.4-0.4-0.4-0.4-0.8-0.7c-0.3-0.2-0.7-0.3-1.1-0.4q-0.4-0.2-0.9-0.3 0 0 0 0-0.2-0.1 0 0c0 0-0.1-0.1-0.2-0.1q-0.1-0.1-0.2-0.1 0-0.1-0.1-0.1 0.2 0.1 0 0c-0.4-0.3-0.8-0.7-1.3-0.9-0.3-0.1-0.7-0.1-1 0-0.5 0.2-0.9 0.7-0.9 1.3 0 0.6 0.5 1.1 1.1 1.1 0.6 0 1.2-0.5 1.2-1.1q0 0 0-0.1-0.1 0.7-0.8 1-0.2 0-0.4 0 0.1 0 0.1 0c0.1 0 0.2 0.1-0.1-0.1q0.1 0.1 0.2 0.1c0.1 0.1 0.3 0.3 0 0q0.3 0.3 0.8 0.6c0.3 0.2 0.6 0.4 1 0.5q0.4 0.2 0.8 0.3 0.2 0.1 0.4 0.1 0.1 0.1 0.1 0.1-0.2-0.1 0 0 0 0 0.1 0 0 0.1 0.1 0.1 0.1 0.1-0.1-0.1c0 0 0.2 0.2 0.2 0.2q0.1 0.1 0.2 0.2 0.4 0.4 0.9 0.8 0.2 0.1 0.4 0.3c0 0 0.3 0.1 0.3 0.2q-0.1-0.1-0.1-0.1 0 0 0.1 0.1 0.1 0.1 0.2 0.1 0.1 0.2 0.3 0.4c0 0 0.1 0.1 0.1 0.1q-0.1 0-0.1-0.1 0 0.1 0.1 0.1 0.1 0.2 0.2 0.4 0.3 0.4 0.4 0.8 0.1 0 0.1 0.1c0.1 0.1 0.1 0.1 0 0 0.1 0.1 0.1 0.3 0.2 0.4q0.1 0.5 0.3 1 0.1 0.4 0.3 0.9 0 0.2 0.1 0.4 0 0.1 0 0.3c0.1 0.3 0-0.2 0 0q0.1 0.5 0.1 1 0 0.5 0 1 0.1 0.5 0.1 1 0 0.2-0.1 0.4c0.1-0.3 0 0 0 0q0 0.2 0 0.4-0.2 0.9-0.5 1.9-0.2 0.4-0.3 0.8 0 0.2-0.1 0.4c0 0.1-0.1 0.5-0.1 0.5q0-0.1 0-0.2 0 0.1 0 0.2-0.1 0.1-0.1 0.2-0.1 0.1-0.2 0.3-0.3 0.4-0.5 0.8-0.2 0.2-0.3 0.4 0 0-0.1 0-0.1 0.2 0.1 0-0.1 0-0.1 0.1-0.3 0.4-0.7 0.7-0.6 0.7-1.3 1.3-0.1 0.1-0.2 0.1c-0.1 0.1 0.2-0.1 0 0q-0.2 0.2-0.4 0.3c-0.2 0.1-0.5 0.4-0.8 0.4 0.3 0 0.1 0 0 0q-0.1 0.1-0.2 0.1-0.2 0.1-0.4 0.2-0.5 0.2-1.1 0.4-0.2 0.1-0.4 0.2c-0.2 0.1 0.2 0 0 0q0 0.1-0.1 0.1-0.4 0.1-0.9 0.2c-0.2 0.1 0.3 0 0 0q-0.1 0-0.2 0-0.2 0-0.5 0.1-0.5 0-1 0c-0.6-0.1-1.2-0.2-1.8-0.2q-0.5 0-0.9-0.1-0.2 0-0.3 0c-0.3 0 0.3 0 0 0q-0.3-0.1-0.5-0.1-0.4-0.1-0.9-0.3-0.2 0-0.4-0.1-0.1-0.1-0.2-0.1c-0.2-0.1 0.2 0.1 0 0-0.6-0.3-1.1-0.6-1.6-1-0.5-0.4-1.1-0.8-1.6-1.2 0.2 0.2-0.1-0.1-0.2-0.1q-0.1-0.2-0.3-0.3-0.4-0.3-0.8-0.7-0.6-0.6-1.3-1.2-0.2-0.2-0.3-0.3-0.1-0.1-0.1-0.2c-0.2-0.1 0 0.1 0 0.1 0 0-0.2-0.4-0.2-0.4-0.1-0.2 0.1 0.3 0 0q0-0.1-0.1-0.2c-0.2-0.6-0.3-1.2-0.4-1.8q-0.1-0.5-0.2-0.9-0.1-0.2-0.1-0.5c0 0-0.1-0.3 0 0q0-0.2-0.1-0.3 0-0.5 0-1 0-0.2 0-0.5 0-0.1 0-0.2c0 0 0-0.4 0-0.1 0-0.3 0.1-0.6 0.2-0.9q0.1-0.5 0.3-0.9 0.1-0.5 0.2-0.9c0.1-0.3 0.2-0.6 0.4-0.9-0.2 0.3-0.1 0.1 0 0q0-0.1 0.1-0.2 0.1-0.2 0.2-0.4 0.2-0.4 0.4-0.9 0.1-0.1 0.2-0.3 0 0 0 0 0.1-0.2 0 0c0 0 0.1-0.1 0.1-0.2 0.2-0.2 0.5-0.3 0.7-0.5 0.5-0.4 0.9-0.9 1.3-1.3 0.1 0 0.2-0.1 0.2-0.1q0 0-0.1 0 0.1 0 0.1 0 0.2-0.1 0.4-0.2 0.4-0.2 0.8-0.5 0.4-0.2 0.9-0.5 0.1-0.1 0.3-0.2c0.1 0 0.4-0.2 0.4-0.2 0 0-0.2 0.1 0 0q0.1 0 0.2 0 0.2-0.1 0.4-0.2 0.5-0.1 1-0.3 0.9-0.3 1.8-0.5 0.2 0 0.5-0.1c0 0-0.3 0.1-0.1 0q0.2 0 0.3 0 0.5 0 1 0 0.5 0 0.9 0c0.1 0 0.4 0.1 0.5 0.1q-0.1 0-0.2-0.1 0.1 0.1 0.2 0.1 0.1 0 0.2 0c0.3 0 0.6 0.1 0.9-0.1 0.2-0.1 0.4-0.4 0.5-0.7 0.1-0.5-0.2-1.3-0.8-1.4z"/><path class="f" d="m39.2 38.5c0.1 0 0.4 0 0.5 0 0.1 0.1 0.2 0.2 0.3 0.2 0 0-0.1-0.1-0.1-0.1q-0.2-0.2-0.5-0.4c-0.3-0.2-0.8-0.3-1.1-0.4q-0.3-0.1-0.5-0.2-0.2 0-0.4 0c-0.1 0-0.3-0.1-0.1 0 0.2 0 0 0 0-0.1q-0.5-0.1-0.9-0.2c-0.4-0.1-0.9-0.2-1.3-0.2-0.3-0.1-0.7 0-1 0q-1.1 0-2.2 0c-0.8 0-1.6 0-2.4 0.1q-0.2 0.1-0.5 0.1c-0.2 0.1 0.2 0 0 0q-0.3 0.1-0.5 0.1c-0.3 0.1-0.6 0.2-1 0.3q-0.5 0.1-0.9 0.3-0.4 0.1-0.7 0.3-0.1 0-0.2 0.1c0 0-0.1 0.1 0 0 0.2-0.1 0 0 0 0-0.4 0.2-0.8 0.3-1.1 0.5q-0.5 0.3-0.9 0.7c-0.6 0.4-1.1 0.9-1.7 1.4q-0.7 0.8-1.3 1.8-0.3 0.4-0.5 0.8c-0.1 0.1-0.2 0.3-0.2 0.4 0 0 0.1-0.2 0-0.1q0 0 0 0.1-0.2 0.2-0.3 0.4c-0.5 0.5-0.7 1.3-0.9 2q-0.1 0.6-0.2 1.2c0 0.3 0 0.7 0 1-0.1 0.8-0.2 1.5-0.1 2.2 0.1 0.8 0.2 1.5 0.4 2.3 0.1 0.7 0.5 1.4 0.8 2.1 0.3 0.6 0.5 1.1 0.9 1.7 0.4 0.6 0.9 1.2 1.4 1.8 0.5 0.5 1.1 1 1.7 1.5 0.5 0.3 1.1 0.6 1.7 0.9 0.6 0.4 1.4 0.6 2.1 0.9q0.5 0.1 1 0.2 0.4 0.1 0.7 0.1 0.1 0 0.1 0c0.2 0-0.1 0-0.1 0q0.2 0 0.3 0.1 1.2 0.2 2.3 0.2 1.2 0 2.3 0c0.7 0 1.5 0 2.2 0q0.7-0.1 1.3-0.5 0.2-0.1 0.3-0.2c0.1 0 0.2 0 0.2-0.1 0 0-0.2 0.1-0.1 0.1q0.1-0.1 0.2-0.1c0.4-0.1 0.8-0.2 1.1-0.4q0.5-0.2 0.9-0.4c0.6-0.3 1.2-0.7 1.8-1.2q0.8-0.6 1.5-1.5 0.3-0.2 0.5-0.5 0.1-0.1 0.1-0.2c0.1-0.1 0 0 0 0q0 0 0.1-0.1c0.2-0.3 0.5-0.6 0.7-0.9q0.3-0.4 0.5-0.9 0.1-0.2 0.2-0.4c0-0.1-0.1 0.1-0.1 0.1q0.1 0 0.1-0.1 0.1-0.2 0.2-0.4c0.4-0.7 0.6-1.3 0.7-2.1q0.2-1.1 0.2-2.3 0-0.5 0-1 0-0.8-0.3-1.4c0-0.1-0.1-0.3-0.2-0.4 0 0 0.1 0.2 0.1 0.1q-0.1 0-0.1-0.1 0-0.1 0-0.2c-0.1-0.4-0.3-0.7-0.3-1q-0.1-0.2-0.1-0.4-0.1-0.2-0.2-0.4c-0.1-0.1-0.2-0.2-0.3-0.4q0.1 0.1 0.2 0.2c0 0.2 0 0.1 0 0q-0.1-0.1-0.2-0.3-0.1-0.3-0.2-0.5c-0.1 0-0.1-0.1-0.1-0.2 0 0 0.1 0.3 0 0.2q-0.1-0.2-0.1-0.3-0.1-0.3-0.3-0.5-0.3-0.4-0.6-0.9c-0.3-0.6-0.7-1.2-1.2-1.8-0.5-0.6-1.1-1-1.7-1.4-0.6-0.3-1.1-0.7-1.7-1.1-0.6-0.3-1.2-0.6-1.8-0.9-0.5-0.2-1.2-0.2-1.5 0.4-0.3 0.5-0.2 1.3 0.4 1.5 0.6 0.3 1.2 0.6 1.8 1 0.5 0.3 1 0.7 1.6 1q0.4 0.3 0.7 0.5c0.3 0.2-0.1-0.2 0 0q0.1 0.1 0.2 0.2 0.2 0.2 0.4 0.4 0.1 0.1 0.1 0.2c0.2 0.2-0.1-0.2 0.1 0q0.1 0.2 0.2 0.4 0.3 0.4 0.5 0.8 0.3 0.4 0.6 0.8 0.1 0.1 0.1 0.3c0 0 0.1 0.1 0.1 0.1q0 0 0-0.1 0 0.2 0.1 0.3 0.1 0.1 0.1 0.2 0.1 0.1 0.2 0.2 0 0 0 0.1 0.1 0.1 0-0.1c-0.1 0.1 0.2 0.6 0.2 0.6 0.1 0.1 0.3 0.5 0.1 0.1 0.1 0.2-0.1-0.2 0 0q0.1 0.2 0.1 0.4c0.1 0.4 0.2 0.6 0.3 0.9q0.1 0.6 0.4 1.1c0 0 0.1 0.2 0.1 0.2q0-0.1-0.1-0.1 0.1 0 0.1 0.1 0-0.1 0-0.2 0 0.1 0 0.2 0 0.1 0 0.2 0 0.5 0 1 0 0.5-0.1 1 0 0.3 0 0.5 0 0.2-0.1 0.3c0.1-0.3 0 0 0 0.1q0 0.5-0.2 0.9 0 0 0 0.1-0.1 0.1 0-0.1c0 0 0 0.2 0 0.2q-0.2 0.2-0.3 0.4-0.1 0.2-0.2 0.4-0.1 0.2-0.2 0.4c0.2-0.3 0 0 0 0q-0.1 0.2-0.2 0.4c-0.1 0.2-0.2 0.4-0.3 0.5q0.1-0.1 0.1-0.1-0.1 0-0.1 0.1-0.1 0.1-0.2 0.2-0.1 0.1-0.3 0.3-0.1 0.3-0.3 0.5c-0.2 0.2 0.1-0.2 0 0q-0.1 0.2-0.3 0.3-0.3 0.3-0.6 0.7-0.2 0.1-0.4 0.3-0.1 0.1-0.1 0.2-0.2 0.1 0-0.1-0.1 0.1-0.1 0.1-0.8 0.6-1.7 1-0.2 0.1-0.4 0.2c-0.1 0.1-0.3 0.3-0.4 0.2q0.1 0 0.1 0-0.1 0-0.1 0-0.1 0.1-0.2 0.1-0.3 0.1-0.6 0.1c-0.3 0.2-0.6 0.4-0.9 0.5 0 0-0.1 0.1-0.1 0.1q0 0 0.1 0-0.1 0-0.1 0c0 0-0.2 0-0.2 0q0.2 0 0 0 0 0-0.1 0c-1.5 0.1-2.9 0-4.3 0q-0.5 0-1 0c-0.3 0 0.2 0-0.1 0q-0.1 0-0.2-0.1-0.3 0-0.6 0-0.3-0.1-0.7-0.1c-0.3-0.1 0.3 0 0 0q-0.1-0.1-0.2-0.1-0.5-0.1-1-0.2-0.2-0.1-0.5-0.2c-0.1-0.1-0.3-0.1-0.4-0.2q0 0 0.1 0.1-0.1-0.1-0.2-0.1-0.1 0-0.2-0.1-0.2-0.1-0.4-0.3c-0.6-0.2-1.1-0.5-1.6-0.9q-0.1 0-0.1 0-0.1-0.1 0.1 0c-0.1 0-0.2-0.1-0.2-0.1q-0.2-0.2-0.4-0.4-0.3-0.3-0.7-0.7-0.3-0.4-0.6-0.7 0-0.1-0.1-0.2c0.2 0.2 0 0 0 0q-0.2-0.3-0.3-0.5c-0.4-0.5-0.6-1.1-0.9-1.7q-0.1-0.2-0.2-0.5c-0.1-0.2 0.1 0.2 0 0q0 0-0.1-0.1-0.2-0.5-0.2-1-0.1-0.5-0.2-1c0-0.1-0.1-0.3 0 0q0-0.2 0-0.3-0.1-0.3-0.1-0.6c0-0.6 0.1-1.3 0.1-2q0-0.3 0-0.5c0-0.1 0-0.2 0.1-0.2q-0.1 0-0.1 0.1 0-0.1 0.1-0.2 0.1-0.5 0.2-0.9 0.1-0.3 0.1-0.5 0.1-0.1 0.1-0.1c0.1-0.3-0.1 0.2 0-0.1 0 0 0.2-0.4 0.2-0.4q0 0.1 0 0.2 0-0.1 0-0.1 0.2-0.2 0.4-0.4c0.1-0.3 0.3-0.5 0.4-0.8q0.3-0.4 0.5-0.8 0.2-0.2 0.3-0.4c0.1-0.2-0.2 0.2 0 0q0.1-0.1 0.1-0.2 0.4-0.4 0.7-0.7 0.4-0.3 0.7-0.6 0.1-0.1 0.2-0.2c0.1 0 0.3-0.2 0.1 0q0.2-0.2 0.4-0.4 0.4-0.2 0.8-0.5c0.2-0.1-0.3 0.1 0 0q0.1 0 0.2 0 0.3-0.2 0.7-0.3 0.1-0.1 0.2-0.1c-0.3 0 0 0 0 0q0.3-0.1 0.5-0.2c0.3-0.1 0.6-0.2 1-0.3q0.2-0.1 0.3-0.1c0.1 0 0.4-0.1 0.1 0q0.2-0.1 0.4-0.1 0.3 0 0.5-0.1 0.1 0 0.2 0c0.1 0 0.5-0.1 0.2-0.1 0.1 0 0.3 0 0.5 0q0.2 0 0.5 0 0.6 0 1.1 0 1 0 2.1 0 0.2 0 0.4 0c0.3 0-0.2-0.1 0 0q0.2 0 0.3 0.1 0.5 0.1 1 0.2 0.2 0 0.4 0.1 0.1 0 0.2 0c-0.2 0 0.4 0.1 0.4 0.1q-0.1 0-0.1 0 0 0 0.1 0 0.1 0 0.2 0.1 0.3 0.1 0.6 0.2 0.1 0 0.2 0.1c0.3 0.1-0.2-0.1 0 0-0.3-0.2-0.1-0.2-0.1-0.1q0.1 0.1 0.2 0.1c0.4 0.4 0.8 0.6 1.4 0.5 0.6-0.1 0.9-0.9 0.8-1.4-0.2-0.6-0.8-0.9-1.4-0.8z"/><path class="f" d="m23.9 58.1c-0.5-0.5-1.2-0.5-1.8-0.2-0.3 0.1-0.5 0.4-0.8 0.5-0.3 0.3-0.7 0.5-1 0.7-0.3 0.4-0.6 0.7-1 1-0.8 0.7-1.5 1.5-2.1 2.3-0.6 0.9-1.2 1.7-1.7 2.5-0.6 0.9-1.1 1.8-1.6 2.7-0.6 0.9-1.1 1.9-1.3 3-0.2 0.5-0.3 1-0.4 1.5q-0.1 0.9-0.2 1.8c-0.1 1.1-0.2 2.2-0.3 3.2 0 1.1 0 2.2 0 3.3q0 0.7 0 1.4c-0.1 0.6 0 1.2 0.3 1.7 0.3 0.6 0.9 0.9 1.6 0.9q0.3 0 0.5 0 0.4 0 0.8 0.1 0.8 0 1.6 0 0.8 0 1.6 0.1 0.8 0.1 1.6 0.2 0 0 0 0 0.2 0 0 0c0 0 0.1 0 0.1 0q0.2 0 0.4 0.1 0.5 0.1 1 0.1c1.1 0.1 2.2 0 3.3 0q3.4 0 6.7 0 0.8 0 1.6 0c0.5 0 1.1 0 1.6 0 0.5 0 1.1-0.1 1.6-0.2 0.5 0 1 0 1.6-0.1q0.8 0 1.5-0.1 0.5 0 1-0.1 0.1-0.1 0.3-0.1c0.1 0 0.2 0 0.2 0q-0.2 0-0.1 0 0 0 0.1 0 0.1 0 0.2 0c0.3-0.1-0.4-0.1 0.1 0q0.2 0 0.4 0 0.3 0 0.6-0.1 0 0 0 0 0.2 0 0 0c0 0 0.2 0 0.2 0q0.2 0 0.3 0 0.2-0.1 0.4-0.1 0.1 0 0.1 0 0.2 0-0.1 0c0.1 0 0.3 0 0.4 0q0.2 0 0.4 0 0.4 0 0.9 0 0.2-0.1 0.4-0.1c0.3-0.1 0 0 0 0 0 0 0.2 0 0.2 0q0-1.1 0-2.3 0 0-0.1 0c-0.6 0.1-1.1 0.5-1.1 1.2 0 0.6 0.5 1.1 1.1 1.1q0.1 0 0.1 0c0.6 0 1.1-0.5 1.1-1.1 0-0.7-0.5-1.1-1.1-1.2-0.3 0-0.6 0.1-0.9 0.2-0.2 0-0.1-0.1 0-0.1 0 0-0.1 0.1-0.1 0.1q-0.2 0-0.4-0.1-0.4 0-0.8 0.1-0.3 0-0.5 0c-0.2 0.1 0 0 0 0q-0.1 0.1-0.2 0.1-0.5 0-0.9 0.1c-0.2 0 0-0.1 0 0 0 0-0.1 0-0.1 0-0.2 0 0 0 0 0q-0.2-0.1-0.4-0.1c-0.6 0-1.1 0.2-1.6 0.3q-0.1 0-0.2 0c-0.2 0.1 0.2 0 0 0q-0.2 0-0.4 0-0.3 0.1-0.7 0.1c-0.5 0-1.1 0-1.6 0-0.5 0.1-1 0.2-1.5 0.2q-0.7 0.1-1.5 0.1c-2.1-0.1-4.3 0-6.4 0q-1.6 0-3.2 0-0.8 0-1.5 0-0.4 0-0.8 0-0.2 0-0.4 0c-0.2-0.1 0 0 0.1 0q-0.1 0-0.3-0.1-0.8-0.1-1.7-0.2c-0.5-0.1-1-0.2-1.5-0.2-0.5 0-1 0-1.5 0-0.6 0-1.1-0.1-1.6-0.1q-0.3 0-0.6 0-0.1 0-0.2 0-0.1 0-0.1 0c-0.2 0 0.2 0.1 0.1 0-0.2 0 0.2 0.1 0.1 0.1-0.2-0.1 0.2 0.1 0.1 0-0.1-0.1 0.1 0.3 0 0.1-0.1-0.1 0.1 0 0 0.1 0.1-0.1 0-0.3 0-0.3 0.1 0.2 0 0.2 0 0.1q0-0.1 0-0.2c0-0.4 0-0.9 0-1.3q0-0.8 0-1.6c0-1 0-2.1 0.1-3.1q0.2-1.5 0.3-3.1 0-0.1 0.1-0.2c0 0 0-0.2 0-0.1-0.1 0.2 0 0 0-0.1q0 0 0-0.1 0.1-0.4 0.2-0.7c0.1-0.5 0.2-1 0.3-1.5q0.1-0.1 0.1-0.2c0.1-0.1-0.1 0.2 0 0.1q0.1-0.2 0.2-0.4 0.1-0.3 0.3-0.6 0.4-0.7 0.8-1.3 0.4-0.7 0.7-1.3 0.5-0.6 0.9-1.2 0.4-0.6 0.8-1.2 0.2-0.3 0.4-0.6 0.1-0.2 0.2-0.3c0.1-0.1 0 0-0.1 0.1q0.1-0.1 0.2-0.2 0.4-0.6 1-1.1c0.3-0.3 0.7-0.6 1-0.9q0.2-0.2 0.5-0.4 0-0.1 0-0.1c0.2-0.1 0 0 0 0q0.1-0.1 0.2-0.1 0.4-0.3 0.7-0.5 0.1-0.1 0.2-0.1c0.1-0.1 0.2-0.1 0.2-0.1 0 0-0.3 0.1-0.1 0 0.1 0-0.2 0-0.2 0 0.1 0-0.2 0-0.2 0q-0.1 0-0.2-0.1-0.3-0.2-0.1-0.1c0.4 0.4 1.1 0.4 1.5 0 0.5-0.5 0.5-1.1 0-1.6z"/><path class="f" d="m41.2 60.6c0 0 0.1 0 0.1 0 0 0-0.2 0-0.1 0 0 0 0.1 0.1 0.2 0 0 0-0.2-0.1-0.1 0q0 0 0.1 0 0.1 0.1 0.1 0.2c0.2 0.1-0.2-0.2 0 0q0.1 0 0.2 0.1 0.2 0.2 0.3 0.4c0.5 0.5 1 1 1.4 1.5 0 0 0.1 0.1 0 0-0.1-0.1 0 0 0.1 0q0 0.1 0.1 0.2 0.1 0.3 0.3 0.5c0.2 0.4 0.4 0.8 0.7 1-0.2-0.1-0.1-0.1 0 0q0 0 0 0.1 0.1 0.1 0.1 0.2c0.1 0.2-0.1-0.2 0 0q0.1 0.1 0.1 0.3 0.2 0.4 0.3 0.9 0.1 0.2 0.2 0.5c0.1 0.1 0-0.2 0-0.1q0 0.1 0 0.2 0.1 0.3 0.2 0.6 0.1 0.3 0.1 0.5 0.1 0.3 0.2 0.5 0 0 0.1 0.1c0.1 0.2 0 0.1-0.1-0.3 0.1 0.3 0.1 0.6 0.4 0.8 0.2 0.2 0.5 0.3 0.8 0.3 0.5 0 1.2-0.5 1.1-1.1-0.1-0.3-0.1-0.6-0.3-0.9 0 0-0.1-0.1 0 0 0 0.2 0 0.1 0 0q-0.1-0.1-0.1-0.3-0.1-0.7-0.4-1.4c0 0 0-0.2 0 0.1q0-0.1 0-0.1-0.1-0.1-0.1-0.2-0.1-0.3-0.2-0.6c-0.1-0.4-0.2-0.8-0.5-1.2q0-0.1-0.1-0.2c0.1 0.1-0.3-0.3-0.3-0.4 0 0 0.2 0.3 0 0.1q0-0.1 0-0.1-0.1-0.1-0.2-0.3-0.3-0.5-0.7-1.1c-0.5-0.6-1.1-1.1-1.6-1.7-0.6-0.7-1.4-1.3-2.4-1.3-0.6 0-1.1 0.5-1.1 1.1 0 0.6 0.5 1.1 1.1 1.1z"/><path class="f" d="m22.2 57.6c-0.5 0-1.1 0.1-1.5 0.4-0.2 0.2-0.5 0.3-0.7 0.5 0.1-0.1 0.2-0.1 0.1 0q-0.1 0-0.2 0.1-0.2 0.2-0.4 0.3c-0.4 0.3-0.7 0.7-1 1q-0.2 0.3-0.4 0.5-0.1 0.1-0.2 0.2-0.2 0.2-0.3 0.3c0.2-0.2 0.1 0 0 0q-0.2 0.2-0.4 0.4-0.3 0.3-0.5 0.7-0.3 0.6-0.6 1.2c-0.4 0.9-0.9 1.7-1.4 2.6q-0.3 0.6-0.6 1.3c-0.2 0.5-0.5 1-0.7 1.5-0.3 0.8-0.4 1.7-0.6 2.6-0.1 0.5-0.2 1.1-0.2 1.6q0 0.2 0 0.4c0 0.2 0-0.1 0-0.1q0 0.1 0 0.2-0.1 0.4-0.1 0.9-0.1 1.5 0 3.1 0 1.5 0 3.1 0 0.7 0 1.5c0 0.6 0 1.2 0.4 1.7 0.4 0.4 1 0.5 1.5 0.5q0.8 0 1.6 0c1 0 2-0.1 2.9 0q0.4 0.1 0.7 0.1 0.1 0 0.2 0c0.2 0.1 0 0 0 0q0.2 0.1 0.4 0.1 0.7 0.1 1.5 0.2c1 0.3 2.1 0.4 3.2 0.5q1.5 0.2 3 0.2c1 0.1 2 0 3 0q3.1 0 6.2 0 0.7 0 1.5 0c0.5 0 1 0.1 1.5 0 1-0.1 2-0.1 3-0.1q0.7 0 1.4 0c0.6 0 1.2-0.5 1.2-1.1-0.1-0.6-0.5-1.1-1.2-1.1-0.9 0-1.9-0.1-2.9 0q-0.7 0-1.4 0c-0.5 0.1-1 0.1-1.4 0.1q-3 0-6 0-1.5 0-3 0c-0.9 0-1.9 0-2.9 0-0.9-0.1-1.9-0.2-2.9-0.3q-0.3-0.1-0.6-0.1-0.1 0-0.2 0c-0.3-0.1 0 0 0 0 0 0-0.4-0.1-0.4-0.1q-0.7-0.2-1.4-0.3c-1-0.1-2.1-0.3-3.1-0.4-0.9 0-1.9 0-2.9 0-0.4 0-0.9 0-1.3 0.1-0.1 0 0.2 0 0.2 0-0.2-0.1 0.1 0 0.1 0q0.2 0.1 0.3 0.3c0.1 0.2 0 0.2 0 0.1 0-0.2 0 0.1 0 0.1q0-0.1 0-0.2 0-0.1 0-0.3c0.1-1 0-1.9 0-2.9q0-1.5 0-3 0-0.7 0-1.5 0-0.1 0-0.3 0-0.1 0-0.2c0-0.2 0 0.1 0 0.1 0-0.1 0-0.3 0.1-0.4q0-0.2 0-0.5 0-0.4 0-0.7c0-0.2 0.1 0.1 0 0.1 0 0 0.1-0.2 0.1-0.2q0-0.2 0-0.4 0.2-0.6 0.3-1.3 0.1-0.6 0.3-1.2c0-0.1 0.1-0.3 0.1-0.4 0 0-0.1 0.3 0 0.1q0-0.1 0-0.1 0.2-0.4 0.4-0.7c0.4-0.8 0.7-1.7 1.2-2.5 0.4-0.8 0.9-1.6 1.3-2.4q0.1-0.3 0.3-0.6 0 0 0.1-0.1c0.1-0.1-0.1 0.1-0.1 0.1 0.1 0 0.2-0.2 0.3-0.2q0.1-0.1 0.2-0.2 0-0.1 0-0.1 0.1-0.1 0.1-0.2 0.2-0.2 0 0c0.1-0.2 0.3-0.3 0.5-0.5 0.3-0.3 0.6-0.6 0.9-1q0 0 0.1-0.1c0 0 0.2-0.1 0 0-0.1 0.1 0.1 0 0.1 0q0-0.1 0.1-0.1 0.4-0.2 0.7-0.5c0.1-0.2-0.2 0.1-0.1 0q0.1 0 0.1-0.1 0.1 0 0.2 0c0-0.1 0.1-0.1 0 0-0.2 0 0 0 0-0.1q0.1 0 0.2 0c0 0 0.2 0 0 0-0.2 0 0 0 0 0 0.6 0 1.2-0.5 1.1-1.1 0-0.6-0.4-1.1-1.1-1.1z"/><path class="f" d="m21.7 57.7c-0.4 0-0.7 0-1.1 0.2q-0.2 0.1-0.5 0.2c-0.4 0.3-0.8 0.5-1.2 0.9-0.3 0.2-0.5 0.5-0.8 0.8q-0.1 0.1-0.1 0.1c-0.1 0-0.1 0.1 0 0q0 0 0 0 0 0-0.1 0 0 0.1-0.1 0.1-0.3 0.3-0.6 0.6-0.3 0.3-0.5 0.6 0 0.1-0.1 0.1c-0.1 0.2 0.1 0 0.1 0 0 0-0.2 0.2-0.3 0.2q-0.5 0.5-0.9 1.2-0.4 0.5-0.7 1.1-0.2 0.3-0.4 0.6-0.1 0.1-0.2 0.2c0 0.1-0.2 0.3-0.2 0.4 0-0.2 0.2-0.2 0.1-0.1q-0.1 0-0.1 0.1-0.1 0.1-0.2 0.2-0.3 0.3-0.5 0.6c-0.1 0.3-0.1 0.6-0.2 0.8 0 0.3-0.1 0.5-0.2 0.7q-0.1 0.3-0.2 0.7-0.1 0.3-0.2 0.7-0.2 0.6-0.3 1.3c-0.2 1.1-0.5 2.1-0.6 3.1-0.1 1-0.2 1.9-0.2 2.9q0 0.8 0 1.6 0.1 0.9 0.3 1.8 0 0.3 0 0.5c0 0 0.1 0.1 0.1 0.1q-0.1-0.2 0-0.1 0 0.1 0 0.2 0 0.3 0 0.7 0 0.4 0 0.8 0.1 0.2 0.1 0.4 0 0 0 0.1 0 0.1 0-0.1c0 0.1 0 0.3 0 0.4 0 0.6 0.5 1.1 1.1 1.1 0.6 0 1.2-0.5 1.1-1.1q0-0.4 0-0.9c-0.1-0.2 0 0.1 0 0.1q0-0.1-0.1-0.2 0-0.2 0-0.4 0-0.7-0.1-1.5 0-0.3-0.1-0.7 0-0.1 0-0.3-0.1-0.1-0.1-0.2c0 0.3 0 0.1 0 0q0-0.7 0-1.4c0-0.9 0-1.9 0-2.8q0.1-0.3 0.1-0.7 0-0.1 0-0.3c0.1-0.2 0 0 0 0.1 0-0.1 0.1-0.2 0.1-0.3q0.1-0.6 0.2-1.3 0.2-0.7 0.3-1.4c0.1-0.5 0.3-0.9 0.4-1.3q0.1-0.7 0.4-1.3 0.1-0.3 0.1-0.6 0-0.1 0-0.2c0.1-0.1 0.1 0.1 0 0.1 0 0 0.2-0.3 0.1-0.1-0.1 0.1 0.1-0.1 0.1-0.2q0.1-0.1 0.2-0.2 0.2-0.3 0.4-0.6 0.4-0.6 0.8-1.2c0.3-0.3 0.5-0.7 0.7-1.1 0.1-0.1-0.1 0-0.1 0.1 0 0 0.1-0.1 0.1-0.1q0.1-0.1 0.2-0.2 0.3-0.2 0.5-0.5 0.2-0.2 0.3-0.4 0-0.1 0.1-0.1 0-0.1 0-0.1 0.1-0.1 0 0.1c0 0 0.4-0.5 0.4-0.5 0 0-0.2 0.2 0 0.1q0-0.1 0.1-0.1 0.2-0.2 0.4-0.3c0.1-0.2 0.3-0.4 0.4-0.5 0.2-0.2 0.4-0.3 0.5-0.5 0 0-0.2 0.2 0 0.1q0-0.1 0.1-0.1 0.1-0.1 0.3-0.2 0.3-0.2 0.5-0.3c0.1-0.1 0.2-0.1 0.3-0.2q-0.1 0-0.2 0.1-0.3 0-0.1 0 0.1 0 0.3 0c0.5 0 1.1-0.5 1.1-1.1-0.1-0.6-0.5-1.1-1.1-1.1z"/><path class="f" d="m42.7 60.7q0.1 0 0.3 0c0 0 0.3 0 0.1 0q-0.2 0 0 0-0.2 0-0.3-0.2 0 0.1 0.1 0.1-0.2-0.2-0.1-0.1c0.2 0.4 0.4 0.7 0.7 0.9q0.4 0.4 0.8 0.8 0.1 0.1 0.2 0.1 0 0.1 0.1 0.2 0.1 0.1-0.1-0.1c0.2 0.1 0.3 0.3 0.3 0.5q0.1 0.1 0.2 0.2c0.1 0.3-0.1-0.2 0 0q0.1 0.4 0.3 0.7 0.1 0.3 0.3 0.5c0 0.1 0.1 0.3 0 0.1q0.1 0.1 0 0 0-0.2 0 0 0 0.2 0.1 0.4 0 0.2 0-0.1 0 0.1 0 0.2 0 0.4 0.1 0.8c0 0.5 0.3 0.8 0.5 1.1q0-0.5 0-1.1 0 0.1-0.1 0.1c-0.3 0.5-0.1 1.3 0.4 1.6 0.6 0.3 1.2 0.1 1.6-0.4q0-0.1 0-0.2c0.3-0.3 0.2-0.7 0-1.1q-0.1-0.2-0.3-0.4 0-0.2 0.1 0 0 0-0.1-0.1 0.1 0.2 0 0.1 0-0.1 0-0.2 0-0.4 0-0.8-0.1-0.2 0 0.1 0-0.1-0.1-0.2 0-0.3 0-0.5c-0.1-0.3-0.3-0.4-0.4-0.6q-0.1-0.2-0.2-0.3 0-0.2 0.1 0-0.1 0-0.1-0.1c-0.2-0.4-0.3-0.8-0.6-1.2-0.5-0.7-1.1-1.3-1.7-1.8q-0.1-0.2 0 0 0 0 0-0.1-0.1-0.1-0.2-0.2-0.1-0.3-0.4-0.5-0.5-0.4-1.1-0.4-0.2 0-0.5 0c-0.6 0-1.1 0.5-1.1 1.1 0 0.6 0.5 1.1 1.1 1.1z"/><path class="f" d="m42.7 61.4c0.7 0.7 1.3 1.4 2 2.1q0.3 0.2 0.5 0.5 0.1 0.1 0.2 0.2c0.1 0 0.2 0.2 0.3 0.3-0.1-0.1-0.2-0.2-0.1-0.1q0.1 0.1 0.1 0.2 0.1 0.1 0.2 0.3 0.2 0.3 0.3 0.6 0.1 0.1 0.1 0.2c0.1 0.2-0.1-0.2 0 0q0.1 0.1 0.1 0.3 0.2 0.3 0.3 0.7 0.2 0.7 0.4 1.4 0.2 0.7 0.3 1.5 0.1 0.3 0.2 0.7c0 0.1 0 0.2 0-0.1q0 0.1 0 0.2 0 0.2 0 0.4c0.1 1 0.1 2 0.1 3.1q0.1 0.7 0.2 1.5 0.1 0.8 0.1 1.5c-0.1 1.1-0.1 2.1-0.1 3.2q0.1 0.3 0.1 0.7 0 0.1 0 0.3c-0.1 0.2 0 0 0 0-0.1 0-0.1 0.2-0.1 0.2q-0.1 0.4-0.1 0.9 0 0 0 0 0 0.2 0-0.1c0.1 0.1 0 0.4 0 0.4q0 0.2-0.1 0.4 0 0 0 0.1c0 0.3 0.1-0.2 0 0q0 0.1 0 0.1c0 0.3 0.1-0.2 0 0q0 0 0 0.1c-0.1 0.1-0.1 0.1 0.1-0.1 0.1-0.1 0.2-0.2 0.3-0.2-0.1 0 0.3 0 0.1 0q-0.4-0.1-0.8-0.1-0.2 0-0.4 0c0.2 0.1 0.1 0 0 0q-0.1 0-0.2 0c-1.1-0.2-2.4-0.7-3.4 0.1-0.4 0.4-0.4 1.2 0 1.6 0.5 0.5 1.1 0.4 1.6 0q-0.1 0.1-0.1 0.1-0.3 0.2-0.2 0.1c0 0 0.1 0 0.1 0 0 0-0.3 0-0.1 0q0 0 0.1 0 0.3 0 0.5 0 0.1 0 0.2 0c-0.3 0-0.2 0-0.1 0q0.2 0.1 0.4 0.1 0.4 0.1 0.7 0.2c0.6 0.1 1.2 0.1 1.8 0.1 0.4 0 0.7-0.1 1-0.4 0.2-0.2 0.3-0.3 0.4-0.6 0.2-0.3 0.2-0.6 0.3-1q0-0.1 0-0.3c0-0.1 0-0.5 0-0.1q0-0.3 0.1-0.6c0 0-0.1-0.2 0-0.2 0 0-0.1 0.3 0 0.1q0.1-0.5 0.1-1c0-0.5 0-1 0-1.5q0-0.9 0-1.7c0-0.5 0-1 0-1.5 0-0.6-0.1-1.1-0.2-1.7-0.1-1 0-2.1-0.1-3.1-0.1-2.1-0.6-4.2-1.3-6.2-0.3-0.6-0.5-1.2-0.8-1.7q-0.5-0.8-1.2-1.4c-0.3-0.4-0.8-0.7-1.1-1.1-0.4-0.4-0.8-0.9-1.2-1.3-0.4-0.4-1.2-0.4-1.6 0-0.4 0.5-0.4 1.2 0 1.6z"/><path class="f" d="m45.9 66.7q0 0.5 0.1 1 0 0.1 0.1 0.3c0 0 0 0.2 0 0.2q0-0.1 0-0.2 0 0.1 0 0.2 0 0.9 0.2 1.8c0 0 0 0.2 0 0 0-0.1 0 0.1 0 0.1q0 0.2 0 0.4c0 0.3 0 0.6 0 0.9 0 0.6 0.1 1.2 0.2 1.7q0.1 0.4 0.2 0.8 0 0 0 0 0 0.2 0 0c0 0 0 0.1 0 0.1q0 0.3 0 0.5 0 0.8 0 1.6 0 1.8 0 3.5 0 0.9 0 1.9 0 0.1 0 0.3 0 0.1 0 0.2 0 0.1 0 0.1 0-0.2 0-0.1c-0.1 0.3-0.1 0.7-0.1 1-0.1 0.6 0.5 1.2 1.1 1.2 0.6-0.1 1.1-0.5 1.1-1.2q0-0.1 0-0.2c0-0.1 0.1-0.1 0 0.1q0-0.1 0.1-0.3c0-0.3 0-0.7 0-1q0-0.8 0-1.6 0-1.7 0-3.4 0-0.9 0-1.7c0-0.6 0-1.2-0.1-1.8q-0.1-0.2-0.1-0.4c0 0 0-0.1 0-0.2 0 0.1 0 0.2 0 0.1q-0.1-0.4-0.1-0.8c-0.1-0.6 0-1.1-0.1-1.7q0-0.5-0.1-1.1 0 0 0-0.1c-0.1-0.3 0 0.2 0-0.1q-0.1-0.2-0.1-0.4 0-0.6-0.1-1.1 0-0.2-0.1-0.4c0 0 0-0.1 0-0.1q0 0.2 0 0.1 0-0.1 0-0.2c0-0.6-0.5-1.1-1.1-1.1-0.6 0-1.1 0.5-1.1 1.1z"/><path class="f" d="m45.7 82.4q-0.1 0-0.1 0 0.2 0.9 0.5 1.9 0-0.1 0.1-0.1-0.2 0.1-0.3 0.2 0.1-0.1 0.2-0.1-0.2 0.1-0.3 0.1 0.1 0 0.2 0-0.1 0-0.3 0c0.3 0 0.6 0 0.9-0.1q0.3-0.1 0.6-0.3 0.1-0.1 0.3-0.2-0.1 0.1-0.3 0.1 0.1 0 0.2 0-0.1 0-0.3 0 0.1 0 0.1 0 0-1.1 0-2.2-0.3 0-0.5 0.1-0.3 0-0.5 0.1c-0.3 0.1-0.5 0.2-0.8 0.5-0.3 0.2-0.4 0.6-0.5 1q0.1 0.1 0.1 0.3 0 0.2 0.2 0.3c0.1 0.2 0.3 0.4 0.6 0.4 0.2 0.1 0.5 0.1 0.8 0.1q0.2 0 0.5 0-0.2 0-0.3 0 0.1 0 0.2 0-0.2-0.1-0.3-0.1 0 0 0.1 0-0.1-0.1-0.3-0.2 0.1 0.1 0.1 0.1-0.1-0.1-0.2-0.2 0 0 0 0 0-0.1-0.1-0.3 0 0 0 0.1 0-0.2 0-0.3 0 0 0 0 0-0.1 0-0.3 0 0 0 0.1 0.1-0.2 0.1-0.3 0 0 0 0.1 0.1-0.2 0.2-0.3-0.1 0.1-0.1 0.1 0.1-0.1 0.2-0.1-0.1 0-0.2 0.1 0.1-0.1 0.2-0.1-0.1 0-0.2 0 0.2 0 0.3 0-0.1 0-0.2 0 0.1 0 0.3 0-0.3 0-0.6-0.1-0.3-0.1-0.6-0.1-0.2 0-0.4 0c-0.3 0-0.6 0.1-0.8 0.2q-0.2 0.1-0.3 0.2-0.1 0.1-0.2 0.3-0.2 0.4-0.1 0.8c0.2 0.4 0.5 0.7 0.9 0.8 0.3 0.1 0.6 0.1 0.9 0 0.2-0.1 0.4-0.2 0.6-0.2q-0.2 0-0.3 0c0.2 0 0.4 0.1 0.6 0.1q0 0 0.1 0 0.2 0 0.4-0.1c0.2-0.1 0.5-0.2 0.7-0.4 0.2-0.2 0.3-0.5 0.3-0.8 0-0.3-0.1-0.6-0.3-0.8-0.2-0.2-0.5-0.3-0.8-0.3-0.3 0-0.6 0.1-0.8 0.3q0 0.1-0.1 0.1 0.2-0.1 0.3-0.2-0.1 0-0.1 0.1 0.1-0.1 0.3-0.2-0.1 0.1-0.2 0.1 0.2-0.1 0.3-0.1-0.2 0-0.4 0-0.3 0-0.7 0.1c-0.2 0-0.4 0.1-0.7 0.2q0.2 0 0.3-0.1 0 0-0.1 0 0.2 0.1 0.3 0.1 0 0 0 0 0.1 0 0.2 0.1 0 0 0 0 0.1 0 0.2 0.1 0 0 0 0 0.1 0.1 0.2 0.2 0 0 0 0 0.1 0.2 0.1 0.3 0 0 0 0-0.3 0.6-0.5 1.2 0 0 0 0-0.1 0.1-0.3 0.1 0.1 0 0.2 0-0.1 0-0.3 0 0.3 0 0.6 0.1-0.2-0.1-0.3-0.1c0.4 0.1 0.8 0.2 1.2 0.2 0.6 0 1.3-0.3 1.6-0.8 0.2-0.3 0.3-0.7 0.2-1.1-0.2-0.4-0.5-0.7-1-0.9q-0.3-0.1-0.7 0-0.3 0-0.6 0 0.2 0 0.3 0-0.1 0-0.1 0 0.4 0.5 0.8 1.1 0 0 0 0 0 0.1-0.1 0.3 0-0.1 0.1-0.1-0.1 0.1-0.2 0.3 0.1-0.1 0.1-0.1-0.1 0.1-0.2 0.2 0 0 0.1-0.1-0.1 0.1-0.2 0.2 0.1-0.1 0.3-0.1-0.2 0-0.3 0.1 0.3-0.2 0.6-0.2-0.1 0-0.3 0 0.1 0 0.1 0c0.3 0 0.6-0.1 0.8-0.3 0.2-0.2 0.4-0.5 0.4-0.8 0-0.3-0.1-0.6-0.4-0.8q-0.3-0.3-0.8-0.3 0 0-0.1 0-0.2 0-0.4 0.1-0.2 0-0.5 0.2-0.2 0.1-0.4 0.2 0.1 0 0.2-0.1-0.1 0.1-0.2 0.1 0.1 0 0.3-0.1-0.4 0.1-0.8 0.1c-0.3 0.1-0.6 0.3-0.8 0.5-0.3 0.3-0.4 0.7-0.3 1.1 0.1 0.4 0.4 0.6 0.8 0.8q0 0 0.1 0c0.2 0.1 0.6 0 0.8-0.1 0.3-0.2 0.5-0.4 0.6-0.7 0-0.3 0-0.6-0.2-0.9q-0.2-0.3-0.6-0.5z"/><path class="f" d="m25.6 15.2q-0.6-0.1-1.1-0.1-0.6-0.1-1.1-0.1-0.5 0-1 0-0.7 0.1-1.3 0.2-1 0.2-2 0.6-0.5 0.1-0.9 0.3c-0.4 0.1-0.7 0.2-1.1 0.3-0.2 0.2-0.5 0.3-0.7 0.5q-0.5 0.3-1 0.5-0.4 0.3-0.8 0.5c-0.4 0.2-0.7 0.4-1 0.7-0.5 0.4-0.9 0.9-1.4 1.3-0.2 0.2-0.4 0.4-0.6 0.6-0.3 0.3-0.5 0.6-0.6 1-0.7 1.2-1.2 2.5-1.6 3.8-0.2 0.8-0.4 1.5-0.4 2.3q-0.1 1 0 2 0.2 1.2 0.5 2.4c0.1 0.6 0.3 1.3 0.6 2 0.2 0.6 0.7 1 1.2 1.5 0.5 0.4 0.9 0.9 1.4 1.3q0.9 0.8 1.8 1.5 0.8 0.6 1.7 1.2c1.1 0.8 2.4 1.3 3.8 1.5 0.7 0.1 1.5 0.2 2.2 0.2 0.7 0.1 1.4 0.2 2 0.2 0.7-0.1 1.4-0.1 2.1-0.3q0.5-0.1 1-0.4 0.3-0.1 0.5-0.2 0.1 0 0.2-0.1c0 0 0.3-0.2 0.1 0 0.1-0.1 0.3-0.1 0.4-0.2q0.2-0.1 0.5-0.2 0.5-0.2 1.1-0.5c0.6-0.4 1.2-0.8 1.7-1.3q1.5-1.4 2.6-3.1c0.3-0.6 0.7-1.2 0.8-1.9 0.2-0.7 0.4-1.3 0.6-1.9q0.3-1.1 0.4-2.3c0.1-0.7-0.1-1.4-0.1-2.1 0-0.8-0.1-1.5-0.3-2.3-0.1-0.6-0.4-1.3-0.6-1.9-0.4-1.3-1.1-2.6-2.1-3.4q-0.5-0.4-1-0.7 0-0.1-0.1-0.1c0.2 0.2 0 0-0.1-0.1q-0.2-0.1-0.3-0.3-0.4-0.4-0.8-0.7c-0.3-0.2-0.7-0.3-1.1-0.5q-0.4-0.1-0.9-0.3 0 0-0.1 0-0.1 0 0.1 0c0 0-0.2 0-0.2-0.1q-0.1 0-0.2-0.1-0.1 0-0.1 0 0.2 0.1 0 0c-0.4-0.4-0.8-0.7-1.4-0.9-0.3-0.1-0.6-0.1-0.9 0-0.5 0.1-0.9 0.7-0.9 1.2 0 0.6 0.5 1.2 1.1 1.2 0.6-0.1 1.2-0.5 1.1-1.2q0 0 0 0 0 0.7-0.7 0.9-0.2 0.1-0.4 0 0 0 0.1 0c0.1 0.1 0.2 0.2-0.1 0q0.1 0 0.2 0.1c0.1 0.1 0.3 0.2 0-0.1q0.3 0.4 0.7 0.7c0.4 0.2 0.7 0.3 1.1 0.5q0.3 0.1 0.8 0.2 0.2 0.1 0.4 0.2 0.1 0 0.1 0.1-0.2-0.1 0-0.1 0 0.1 0.1 0.1 0 0 0.1 0 0.1 0.1-0.1 0c0 0 0.2 0.1 0.2 0.1q0.1 0.2 0.2 0.3 0.4 0.4 0.9 0.7 0.2 0.2 0.4 0.3c0 0 0.3 0.2 0.3 0.2q-0.1 0-0.1-0.1 0 0.1 0.1 0.1 0.1 0.1 0.1 0.2 0.2 0.1 0.4 0.3c0 0.1 0.1 0.1 0.1 0.2q-0.1-0.1-0.1-0.1 0 0 0.1 0.1 0.1 0.2 0.2 0.3 0.2 0.4 0.4 0.8 0.1 0.1 0.1 0.2c0.1 0.1 0.1 0.1 0-0.1 0.1 0.1 0.1 0.4 0.2 0.5q0.1 0.5 0.3 0.9 0.1 0.5 0.3 0.9 0 0.3 0.1 0.5 0 0.1 0 0.2c0 0.3 0-0.1 0 0.1q0.1 0.5 0.1 0.9 0 0.5 0 1 0.1 0.5 0.1 1 0 0.2-0.1 0.5c0.1-0.3 0-0.1 0 0q0 0.2 0 0.3-0.2 1-0.6 1.9-0.1 0.4-0.2 0.9 0 0.2-0.1 0.4c0 0-0.1 0.4-0.1 0.4q0 0 0-0.1 0 0.1 0 0.1-0.1 0.1-0.1 0.2-0.1 0.2-0.2 0.4-0.3 0.4-0.6 0.7-0.1 0.2-0.2 0.4-0.1 0.1-0.1 0.1-0.1 0.1 0.1-0.1-0.1 0.1-0.1 0.2-0.4 0.4-0.7 0.7-0.6 0.7-1.3 1.3-0.1 0-0.2 0.1c-0.1 0.1 0.2-0.2 0 0q-0.2 0.1-0.4 0.3c-0.2 0.1-0.5 0.3-0.8 0.4 0.3-0.1 0.1 0 0 0q-0.1 0-0.2 0.1-0.2 0-0.4 0.1-0.6 0.2-1.1 0.5-0.2 0.1-0.4 0.2c-0.2 0.1 0.2-0.1 0 0q0 0-0.1 0-0.5 0.2-0.9 0.3c-0.3 0 0.3-0.1 0 0q-0.1 0-0.2 0-0.3 0-0.5 0-0.5 0-1 0c-0.6 0-1.2-0.1-1.8-0.2q-0.5 0-0.9 0-0.2 0-0.3-0.1c-0.3 0 0.3 0.1 0 0q-0.3 0-0.5 0-0.4-0.1-0.9-0.3-0.2-0.1-0.4-0.2-0.1 0-0.2 0c-0.2-0.1 0.2 0.1 0 0-0.6-0.3-1.1-0.7-1.6-1-0.5-0.4-1.1-0.8-1.6-1.2 0.2 0.2-0.1-0.1-0.2-0.1q-0.2-0.2-0.3-0.4-0.4-0.3-0.8-0.6-0.7-0.6-1.3-1.3-0.2-0.1-0.3-0.3-0.1 0-0.1-0.1c-0.2-0.2 0 0 0 0 0 0-0.2-0.3-0.2-0.3-0.1-0.3 0.1 0.2 0 0q-0.1-0.1-0.1-0.2c-0.2-0.6-0.3-1.2-0.5-1.8q-0.1-0.5-0.1-1-0.1-0.2-0.1-0.4c0 0-0.1-0.3 0 0q-0.1-0.2-0.1-0.4 0-0.5 0-0.9 0-0.3 0-0.5 0-0.1 0-0.2c0-0.1 0-0.5 0-0.1 0-0.3 0.1-0.7 0.2-1q0.1-0.4 0.2-0.9 0.2-0.4 0.3-0.8c0.1-0.3 0.2-0.6 0.3-0.9-0.1 0.3 0 0 0.1 0q0-0.1 0-0.2 0.1-0.3 0.3-0.5 0.2-0.4 0.4-0.8 0.1-0.2 0.2-0.3 0-0.1 0-0.1 0.1-0.1 0 0.1c-0.1 0 0.1-0.2 0.1-0.2 0.2-0.2 0.5-0.4 0.7-0.6 0.5-0.4 0.9-0.8 1.3-1.2 0.1-0.1 0.1-0.2 0.2-0.2q0 0.1-0.1 0.1 0.1 0 0.1-0.1 0.2-0.1 0.3-0.2 0.5-0.2 0.9-0.4 0.4-0.3 0.9-0.5 0.1-0.1 0.3-0.2c0 0 0.4-0.2 0.4-0.3 0 0.1-0.3 0.1-0.1 0.1q0.1-0.1 0.3-0.1 0.2 0 0.4-0.1 0.5-0.2 0.9-0.3 0.9-0.3 1.9-0.5 0.2-0.1 0.5-0.1c-0.1 0-0.3 0-0.1 0q0.2 0 0.3 0 0.5 0 1 0 0.5 0 0.9 0c0.1 0 0.4 0.1 0.5 0q-0.1 0-0.2 0 0.1 0 0.2 0 0.1 0 0.2 0.1c0.3 0 0.6 0 0.9-0.2 0.2-0.1 0.4-0.4 0.5-0.6 0.1-0.6-0.2-1.3-0.8-1.4z"/><path class="f" d="m28.6 16.5c0.1-0.1 0.4-0.1 0.5 0 0.1 0 0.2 0.2 0.3 0.2-0.1 0-0.1-0.1-0.1-0.2q-0.3-0.2-0.5-0.3c-0.3-0.2-0.8-0.3-1.2-0.5q-0.2-0.1-0.4-0.1-0.2-0.1-0.5-0.1c0 0-0.2 0 0 0 0.2 0 0 0 0 0q-0.5-0.1-0.9-0.2c-0.5-0.1-0.9-0.2-1.3-0.3-0.3 0-0.7 0-1 0q-1.1 0.1-2.2 0c-0.8 0-1.6 0-2.4 0.2q-0.3 0.1-0.5 0.1c-0.2 0 0.2 0 0 0q-0.3 0-0.5 0.1c-0.3 0-0.6 0.2-1 0.3q-0.5 0.1-1 0.3-0.3 0.1-0.6 0.3-0.1 0-0.2 0.1c0 0-0.2 0 0 0 0.1-0.1 0 0 0 0-0.4 0.1-0.8 0.3-1.1 0.5q-0.5 0.3-0.9 0.6c-0.6 0.5-1.2 0.9-1.7 1.5q-0.7 0.8-1.3 1.7-0.3 0.4-0.5 0.9c-0.1 0.1-0.2 0.2-0.3 0.3 0 0 0.2-0.1 0.1-0.1q0 0.1-0.1 0.1-0.1 0.2-0.3 0.4c-0.4 0.6-0.6 1.4-0.8 2q-0.1 0.6-0.2 1.2c0 0.4 0 0.7-0.1 1.1 0 0.7-0.1 1.4 0 2.2 0.1 0.7 0.2 1.5 0.3 2.2 0.2 0.8 0.5 1.4 0.9 2.1 0.2 0.6 0.5 1.2 0.9 1.8 0.4 0.6 0.9 1.2 1.4 1.7 0.5 0.6 1 1.1 1.7 1.5 0.5 0.4 1.1 0.7 1.7 1 0.6 0.3 1.3 0.6 2.1 0.8q0.5 0.2 1 0.3 0.3 0 0.7 0.1 0.1 0 0.1 0c0.1 0-0.1 0-0.1 0q0.2 0 0.3 0 1.2 0.2 2.3 0.2 1.1 0 2.3 0.1c0.7 0 1.5 0 2.2-0.1q0.7-0.1 1.3-0.4 0.1-0.1 0.3-0.2c0.1 0 0.2-0.1 0.2-0.1 0 0-0.2 0-0.1 0q0.1 0 0.2 0c0.4-0.1 0.7-0.2 1.1-0.4q0.4-0.3 0.9-0.5c0.6-0.3 1.2-0.7 1.8-1.1q0.8-0.7 1.5-1.5 0.3-0.3 0.5-0.6 0.1-0.1 0.1-0.2c0.1-0.1 0 0.1 0 0.1q0-0.1 0.1-0.1c0.2-0.3 0.5-0.6 0.7-0.9q0.3-0.5 0.5-0.9 0.1-0.2 0.2-0.4c0-0.1-0.1 0.1-0.1 0.1q0.1-0.1 0.1-0.1 0.1-0.3 0.2-0.5c0.4-0.6 0.6-1.3 0.7-2q0.2-1.2 0.2-2.4 0-0.5 0-1 0-0.7-0.3-1.3c-0.1-0.1-0.1-0.3-0.2-0.4 0 0 0.1 0.2 0 0.1q0-0.1 0-0.1 0-0.1-0.1-0.3c0-0.3-0.2-0.6-0.3-0.9q0-0.2-0.1-0.5 0-0.2-0.1-0.4c-0.1-0.1-0.2-0.2-0.3-0.3q0.1 0.1 0.1 0.2c0.1 0.1 0.1 0 0.1 0q-0.1-0.2-0.2-0.3-0.1-0.3-0.2-0.5c-0.1-0.1-0.1-0.2-0.1-0.2-0.1 0 0 0.2 0 0.1q-0.1-0.1-0.1-0.3-0.1-0.2-0.3-0.4-0.3-0.4-0.6-0.9c-0.4-0.7-0.7-1.3-1.2-1.8-0.5-0.6-1.1-1-1.7-1.4-0.6-0.3-1.2-0.7-1.7-1.1-0.6-0.4-1.2-0.6-1.8-0.9-0.5-0.3-1.2-0.2-1.5 0.4-0.3 0.5-0.2 1.2 0.4 1.5 0.6 0.3 1.2 0.6 1.8 0.9 0.5 0.4 1 0.8 1.5 1.1q0.4 0.2 0.8 0.5c0.2 0.1-0.2-0.2 0 0q0.1 0.1 0.2 0.1 0.2 0.2 0.4 0.4 0.1 0.1 0.1 0.2c0.2 0.2-0.1-0.2 0 0q0.2 0.2 0.3 0.4 0.3 0.4 0.5 0.9 0.3 0.4 0.6 0.8 0 0.1 0.1 0.2c0 0 0.1 0.2 0.1 0.2q0-0.1 0-0.2 0 0.2 0.1 0.4 0 0.1 0.1 0.2 0.1 0.1 0.1 0.2 0.1 0 0.1 0 0.1 0.2 0 0c-0.1 0 0.2 0.6 0.2 0.5 0.1 0.2 0.3 0.5 0.1 0.2 0.1 0.2-0.1-0.3 0 0q0.1 0.2 0.1 0.4c0.1 0.3 0.2 0.6 0.3 0.9q0.1 0.6 0.4 1.1c0 0 0.1 0.1 0.1 0.2q0-0.1-0.1-0.2 0.1 0.1 0.1 0.2 0-0.1 0-0.2 0 0.1 0 0.2 0 0.1 0 0.2 0 0.5-0.1 1 0 0.5 0 1 0 0.3 0 0.5-0.1 0.1-0.1 0.3c0.1-0.4 0 0 0 0q-0.1 0.5-0.2 1 0 0 0 0-0.1 0.2 0 0c0 0-0.1 0.1-0.1 0.1q-0.1 0.2-0.2 0.5-0.1 0.1-0.2 0.3-0.1 0.2-0.2 0.5c0.1-0.3 0-0.1 0 0q-0.1 0.2-0.2 0.4c-0.1 0.1-0.2 0.4-0.3 0.5q0-0.1 0.1-0.2-0.1 0.1-0.1 0.2-0.1 0.1-0.2 0.1-0.1 0.2-0.3 0.4-0.2 0.2-0.3 0.5c-0.2 0.2 0.1-0.2-0.1 0q-0.1 0.1-0.2 0.2-0.3 0.4-0.6 0.7-0.2 0.2-0.4 0.4-0.1 0-0.2 0.1-0.1 0.1 0.1 0-0.1 0-0.1 0.1-0.8 0.5-1.7 0.9-0.2 0.2-0.4 0.3c-0.1 0-0.3 0.2-0.4 0.2q0 0 0.1-0.1-0.1 0.1-0.1 0.1-0.2 0-0.3 0.1-0.2 0-0.5 0.1c-0.3 0.1-0.6 0.3-0.9 0.5 0 0-0.1 0.1-0.2 0.1q0.1-0.1 0.2-0.1-0.1 0-0.1 0.1c-0.1 0-0.2 0-0.2 0q0.2 0 0 0-0.1 0-0.1 0c-1.5 0.1-2.9 0-4.4 0q-0.5 0-1-0.1c-0.2 0 0.3 0.1 0 0q-0.1 0-0.2 0-0.3 0-0.6-0.1-0.3 0-0.7-0.1c-0.3 0 0.3 0.1 0 0q-0.1 0-0.2 0-0.5-0.1-1-0.3-0.2-0.1-0.5-0.1c-0.1-0.1-0.3-0.1-0.5-0.2q0.1 0 0.2 0-0.1 0-0.2 0-0.1-0.1-0.2-0.1-0.2-0.2-0.4-0.3c-0.6-0.3-1.1-0.6-1.6-0.9q-0.1 0-0.1-0.1-0.1-0.1 0 0.1c0 0-0.1-0.1-0.1-0.2q-0.2-0.1-0.4-0.3-0.3-0.4-0.7-0.8-0.3-0.3-0.6-0.7-0.1-0.1-0.1-0.2c0.1 0.3 0 0.1 0 0q-0.2-0.2-0.3-0.4c-0.4-0.6-0.7-1.2-0.9-1.8q-0.1-0.2-0.2-0.4c-0.1-0.2 0 0.2 0 0q-0.1-0.1-0.1-0.2-0.2-0.5-0.3-1 0-0.5-0.1-1c0 0-0.1-0.3 0 0q0-0.1-0.1-0.2 0-0.3 0-0.6c0-0.7 0.1-1.4 0.1-2q0-0.3 0-0.5c0-0.1 0-0.2 0-0.3q0 0.1 0 0.2 0-0.1 0-0.2 0.1-0.5 0.3-1 0.1-0.2 0.1-0.4 0.1-0.1 0.1-0.2c0.1-0.2-0.1 0.2 0 0 0 0 0.2-0.4 0.2-0.4q0 0.1-0.1 0.1 0.1 0 0.1-0.1 0.2-0.2 0.3-0.4c0.2-0.2 0.3-0.5 0.5-0.7q0.2-0.5 0.5-0.9 0.1-0.2 0.3-0.3c0.1-0.2-0.2 0.2 0 0q0.1-0.1 0.1-0.2 0.4-0.4 0.7-0.8 0.3-0.3 0.7-0.6 0.1 0 0.2-0.1c0-0.1 0.3-0.2 0-0.1q0.3-0.1 0.5-0.3 0.4-0.3 0.8-0.5c0.2-0.1-0.3 0.1 0 0q0.1 0 0.2-0.1 0.3-0.1 0.7-0.3 0.1 0 0.2-0.1c-0.3 0.1 0 0 0 0q0.2-0.1 0.5-0.1c0.3-0.1 0.6-0.2 1-0.3q0.1-0.1 0.3-0.2c0.1 0 0.4 0 0 0q0.3 0 0.5 0 0.2-0.1 0.5-0.1 0.1 0 0.2-0.1c0.1 0 0.5-0.1 0.1 0 0.2 0 0.4 0 0.6 0q0.2 0 0.5 0 0.6 0 1.1 0 1 0 2 0 0.3 0 0.5 0c0.3 0-0.2-0.1 0 0q0.2 0 0.3 0 0.5 0.1 1 0.3 0.2 0 0.4 0.1 0.1 0 0.2 0c-0.2 0 0.4 0.1 0.4 0.1q-0.1-0.1-0.1-0.1 0 0 0.1 0.1 0.1 0 0.2 0 0.3 0.1 0.6 0.2 0.1 0.1 0.2 0.1c0.3 0.1-0.2-0.1 0 0-0.3-0.1-0.2-0.1-0.1 0q0.1 0 0.1 0.1c0.5 0.4 0.9 0.5 1.5 0.4 0.5-0.1 0.9-0.8 0.8-1.4-0.2-0.6-0.8-0.8-1.4-0.7z"/><path class="f" d="m11.6 35.5c-0.8 0-1.5 0.4-2.1 0.9-0.2 0.2 0.2-0.1 0 0.1q-0.1 0-0.2 0.1-0.3 0.2-0.6 0.4-0.3 0.3-0.6 0.7-0.3 0.3-0.7 0.7-0.2 0.2-0.4 0.5c0.2-0.2 0.1-0.1 0 0q-0.1 0.1-0.2 0.2c-0.5 0.4-0.7 1-1 1.6q-1.1 1.7-1.9 3.6c-0.3 0.6-0.7 1.2-0.9 1.9-0.3 0.6-0.4 1.3-0.6 1.9-0.1 0.8-0.3 1.5-0.4 2.2q0 0.3 0 0.5c0 0.1 0 0.3 0 0.4q0-0.1 0-0.1 0 0 0 0.1 0 0.1-0.1 0.3 0 0.3 0 0.7c-0.1 1.5-0.1 2.9 0 4.4q0 1 0 2.1 0 0.5 0 1c0 0.4-0.1 0.8 0 1.1 0.2 0.6 0.5 1 1.1 1.2 0.3 0.1 0.5 0 0.8 0 0.8 0 1.5 0 2.2 0 0.8 0 1.6 0 2.3 0.1q0.3 0 0.6 0.1 0.2 0 0.3 0 0.2 0-0.1 0 0.1 0 0.2 0 0.6 0.1 1.2 0.2 0.6 0.1 1.1 0.2 0.7 0.1 1.4 0.2 1.2 0.2 2.4 0.3c0.6 0.1 1.2-0.6 1.1-1.1 0-0.7-0.5-1.1-1.1-1.1q-1-0.2-2.1-0.3-0.2 0-0.4 0-0.1-0.1-0.2-0.1c-0.1 0-0.4 0-0.1 0-0.3 0-0.7-0.1-1-0.2q-1-0.2-1.9-0.3c-0.8-0.1-1.5-0.2-2.3-0.2-0.6 0-1.3 0-2 0q-0.9 0-1.8 0c-0.2 0-0.3 0 0.1 0q-0.1 0-0.1 0 0.2 0.1 0.4 0.2 0 0.1 0.1 0.2 0.1 0.2 0 0c0-0.1 0 0.1 0 0.1 0 0 0-0.1 0-0.2q0-0.1 0-0.2 0-0.2 0-0.5 0-1 0-2.1c0-1.3 0-2.7 0-4q0-0.5 0-1.1 0 0 0-0.1 0-0.1 0-0.1 0-0.2 0 0c0 0 0-0.1 0-0.2q0.1-0.3 0.1-0.5 0-0.2 0-0.4c0-0.1 0-0.4 0-0.5q0 0.1 0 0.1 0-0.1 0-0.1 0.1-0.1 0.1-0.2 0-0.3 0.1-0.6c0.1-0.5 0.2-1.1 0.3-1.7q0.1-0.2 0.2-0.4c0-0.1 0-0.4 0.1-0.4q0 0.1-0.1 0.1 0.1 0 0.1-0.1 0-0.1 0.1-0.2 0.1-0.3 0.3-0.6c0.5-1.1 1.1-2.3 1.7-3.4q0.5-0.9 1-1.8 0-0.1 0.1-0.2 0-0.1 0-0.1 0.1-0.2 0 0.1c0 0 0.3-0.3 0.3-0.3q0.1-0.1 0.1-0.2 0.1 0 0.1-0.1 0.3-0.4 0.1-0.1c0.1-0.1 0.2-0.3 0.3-0.4q0.4-0.4 0.7-0.7 0.2-0.2 0.4-0.4c0.1-0.1 0.1-0.1 0.2-0.2q-0.2 0.2-0.1 0.1 0.1-0.1 0.1-0.1 0.3-0.2 0.6-0.4 0.1-0.1 0.2-0.2c0.1-0.1-0.2 0.2-0.1 0.1q0.1-0.1 0.2-0.2 0.1 0 0.2 0-0.3 0.1-0.1 0 0.1 0 0.2 0 0.2-0.1-0.1 0 0.1 0 0.1 0c0.6 0 1.2-0.5 1.1-1.2 0-0.6-0.5-1.1-1.1-1.1z"/><path class="f" d="m11 35.6c-0.3 0-0.7 0.1-1 0.2q-0.2 0.2-0.5 0.3c-0.4 0.2-0.8 0.5-1.2 0.8-0.3 0.3-0.5 0.6-0.8 0.9q-0.1 0-0.1 0.1c-0.1 0-0.1 0.1 0 0q0-0.1 0-0.1 0 0-0.1 0.1 0 0-0.1 0.1-0.3 0.2-0.6 0.5-0.3 0.3-0.5 0.7-0.1 0-0.1 0.1c-0.1 0.1 0.2-0.2 0 0q-0.1 0.1-0.2 0.2-0.6 0.5-0.9 1.2-0.4 0.5-0.8 1.1-0.2 0.3-0.4 0.6-0.1 0.1-0.1 0.3-0.1 0-0.1 0.1c0 0-0.1 0.2 0 0.1 0.1-0.2-0.1 0-0.1 0q0 0-0.1 0.1-0.1 0.1-0.1 0.2c-0.3 0.3-0.5 0.5-0.6 0.9 0 0.2-0.1 0.3-0.1 0.5-0.1 0.3-0.2 0.5-0.3 0.8-0.1 0.4-0.2 0.8-0.3 1.3q-0.2 0.6-0.3 1.3c-0.3 1.1-0.5 2-0.6 3.1-0.1 0.9-0.2 1.9-0.2 2.8q0 0.8 0 1.7 0.1 0.9 0.2 1.8 0.1 0.2 0.1 0.4c0 0 0.1 0.2 0.1 0.2q-0.1-0.2-0.1-0.1 0.1 0.1 0.1 0.1 0 0.4 0 0.8 0 0.4 0 0.8 0 0.1 0.1 0.3 0 0.1 0 0.1 0 0.2 0-0.1c0 0.1 0 0.4 0 0.4 0 0.6 0.5 1.2 1.1 1.2 0.6-0.1 1.1-0.5 1.1-1.2q0-0.4-0.1-0.8c0-0.2 0.1 0 0.1 0.1q-0.1-0.1-0.1-0.2 0-0.2 0-0.4c0-0.5 0-1-0.1-1.5q0-0.4-0.1-0.7 0-0.2-0.1-0.3c0-0.1 0-0.2 0-0.2 0 0 0.1 0.3 0 0q0-0.7 0-1.4c0-1 0-1.9 0-2.8q0-0.4 0.1-0.7 0-0.2 0-0.3c0-0.1 0-0.2 0 0q0-0.1 0-0.2 0.1-0.7 0.3-1.3 0.2-0.7 0.3-1.4c0.1-0.5 0.3-0.9 0.4-1.3q0-0.3 0.1-0.6 0.1-0.4 0.2-0.7 0.1-0.3 0.2-0.6c0 0 0.1-0.3 0.1-0.3 0 0.1-0.2 0.3-0.1 0.1q0.1-0.1 0.1-0.1c0 0-0.1 0.2 0 0q0 0 0.1-0.1 0.1-0.1 0.1-0.2 0.3-0.3 0.5-0.6 0.4-0.6 0.8-1.2c0.2-0.3 0.4-0.7 0.6-1 0 0 0.1-0.2 0.1-0.2 0 0-0.1 0.2 0 0.1q0.1-0.1 0.2-0.2 0.2-0.3 0.5-0.5 0.1-0.2 0.3-0.4 0-0.1 0-0.1 0.1-0.1 0.1-0.1 0.1-0.1 0 0c-0.1 0 0.4-0.4 0.4-0.4 0 0-0.2 0.1-0.1 0q0.1 0 0.2-0.1 0.2-0.1 0.4-0.3 0.2-0.2 0.4-0.4c0.1-0.2 0.3-0.4 0.5-0.5 0 0-0.2 0.1 0 0q0 0 0.1-0.1 0.1-0.1 0.3-0.2 0.3-0.1 0.5-0.3c0.1 0 0.2-0.1 0.3-0.1q-0.1 0-0.2 0-0.3 0.1-0.1 0.1 0.1 0 0.2 0c0.6 0 1.2-0.5 1.2-1.1-0.1-0.7-0.5-1.1-1.2-1.2z"/><path class="f" d="m83.6 15.2q-0.5-0.1-1.1-0.1-0.5-0.1-1.1-0.1-0.5 0-1 0-0.7 0.1-1.3 0.2-1 0.2-2 0.6-0.4 0.1-0.9 0.3c-0.4 0.1-0.7 0.2-1.1 0.3-0.2 0.2-0.4 0.3-0.7 0.5q-0.5 0.3-1 0.5-0.4 0.3-0.8 0.5c-0.4 0.2-0.7 0.4-1 0.7-0.4 0.4-0.9 0.9-1.4 1.3-0.2 0.2-0.4 0.4-0.6 0.6-0.3 0.3-0.4 0.6-0.6 1-0.7 1.2-1.2 2.5-1.6 3.8-0.2 0.8-0.3 1.5-0.4 2.3q-0.1 1 0.1 2 0.1 1.2 0.4 2.4c0.2 0.6 0.3 1.3 0.6 2 0.3 0.6 0.7 1 1.2 1.5 0.5 0.4 0.9 0.9 1.4 1.3q0.9 0.8 1.8 1.5 0.9 0.6 1.7 1.2c1.1 0.8 2.5 1.3 3.8 1.5 0.7 0.1 1.5 0.2 2.3 0.2 0.6 0.1 1.3 0.2 2 0.2 0.7-0.1 1.4-0.1 2-0.3q0.6-0.1 1.1-0.4 0.2-0.1 0.4-0.2 0.1 0 0.2-0.1c0.1 0 0.4-0.2 0.1 0 0.1-0.1 0.3-0.1 0.4-0.2q0.3-0.1 0.5-0.2 0.6-0.2 1.1-0.5c0.6-0.4 1.2-0.8 1.7-1.3q1.5-1.4 2.6-3.1c0.4-0.6 0.7-1.2 0.9-1.9 0.1-0.7 0.3-1.3 0.5-1.9q0.3-1.1 0.4-2.3c0.1-0.7-0.1-1.4-0.1-2.1 0-0.8-0.1-1.5-0.2-2.3-0.2-0.6-0.4-1.3-0.7-1.9-0.4-1.3-1.1-2.6-2.1-3.4q-0.5-0.4-0.9-0.7-0.1-0.1-0.2-0.1c0.2 0.2 0 0 0-0.1q-0.2-0.1-0.4-0.3-0.4-0.4-0.8-0.7c-0.3-0.2-0.7-0.3-1.1-0.5q-0.4-0.1-0.9-0.3 0 0 0 0-0.2 0 0 0c0 0-0.1 0-0.2-0.1q-0.1 0-0.2-0.1 0 0-0.1 0 0.2 0.1 0.1 0c-0.5-0.4-0.9-0.7-1.4-0.9-0.3-0.1-0.7-0.1-1 0-0.5 0.1-0.9 0.7-0.9 1.2 0.1 0.6 0.5 1.2 1.2 1.2 0.5-0.1 1.1-0.5 1.1-1.2q0 0 0 0-0.1 0.7-0.8 0.9-0.2 0.1-0.4 0 0.1 0 0.1 0c0.1 0.1 0.2 0.2-0.1 0q0.1 0 0.2 0.1c0.1 0.1 0.3 0.2 0-0.1q0.4 0.4 0.8 0.7c0.3 0.2 0.6 0.3 1 0.5q0.4 0.1 0.8 0.2 0.2 0.1 0.4 0.2 0.1 0 0.1 0.1-0.2-0.1 0-0.1 0.1 0.1 0.1 0.1 0 0 0.1 0 0.1 0.1-0.1 0c0 0 0.2 0.1 0.2 0.1q0.1 0.2 0.2 0.3 0.5 0.4 0.9 0.7 0.2 0.2 0.4 0.3c0 0 0.3 0.2 0.3 0.2q0 0-0.1-0.1 0.1 0.1 0.1 0.1 0.1 0.1 0.2 0.2 0.1 0.1 0.3 0.3c0 0.1 0.1 0.1 0.1 0.2q0-0.1-0.1-0.1 0.1 0 0.1 0.1 0.1 0.2 0.2 0.3 0.3 0.4 0.5 0.8 0 0.1 0 0.2c0.1 0.1 0.2 0.1 0-0.1 0.1 0.1 0.1 0.4 0.2 0.5q0.1 0.5 0.3 0.9 0.2 0.5 0.3 0.9 0 0.3 0.1 0.5 0 0.1 0 0.2c0.1 0.3 0-0.1 0 0.1q0.1 0.5 0.1 0.9 0 0.5 0.1 1 0 0.5 0 1 0 0.2 0 0.5c0-0.3 0-0.1-0.1 0q0 0.2 0 0.3-0.2 1-0.5 1.9-0.2 0.4-0.3 0.9 0 0.2-0.1 0.4c0 0-0.1 0.4-0.1 0.4q0 0 0.1-0.1-0.1 0.1-0.1 0.1-0.1 0.1-0.1 0.2-0.1 0.2-0.2 0.4-0.3 0.4-0.5 0.7-0.2 0.2-0.3 0.4 0 0.1-0.1 0.1-0.1 0.1 0.1-0.1-0.1 0.1-0.1 0.2-0.3 0.4-0.7 0.7-0.6 0.7-1.3 1.3-0.1 0-0.2 0.1c-0.1 0.1 0.2-0.2 0 0q-0.2 0.1-0.4 0.3c-0.2 0.1-0.5 0.3-0.8 0.4 0.3-0.1 0.1 0 0 0q-0.1 0-0.2 0.1-0.2 0-0.4 0.1-0.5 0.2-1 0.5-0.3 0.1-0.5 0.2c-0.2 0.1 0.2-0.1 0.1 0q-0.1 0-0.2 0-0.4 0.2-0.9 0.3c-0.2 0 0.3-0.1 0 0q-0.1 0-0.2 0-0.2 0-0.5 0-0.5 0-1 0c-0.6 0-1.2-0.1-1.8-0.2q-0.5 0-0.9 0-0.1 0-0.3-0.1c-0.3 0 0.3 0.1 0 0q-0.2 0-0.5 0-0.4-0.1-0.9-0.3-0.2-0.1-0.4-0.2-0.1 0-0.2 0c-0.2-0.1 0.2 0.1 0 0-0.6-0.3-1.1-0.7-1.6-1-0.5-0.4-1.1-0.8-1.6-1.2 0.3 0.2-0.1-0.1-0.1-0.1q-0.2-0.2-0.4-0.4-0.4-0.3-0.8-0.6-0.6-0.6-1.3-1.3-0.1-0.1-0.3-0.3-0.1 0-0.1-0.1c-0.2-0.2 0 0 0 0 0 0-0.2-0.3-0.2-0.3-0.1-0.3 0.1 0.2 0 0q0-0.1-0.1-0.2c-0.2-0.6-0.3-1.2-0.4-1.8q-0.1-0.5-0.2-1-0.1-0.2-0.1-0.4c0 0-0.1-0.3 0 0q0-0.2 0-0.4-0.1-0.5-0.1-0.9 0-0.3 0-0.5 0-0.1 0-0.2c0-0.1 0.1-0.5 0-0.1 0.1-0.3 0.2-0.7 0.2-1q0.1-0.4 0.3-0.9 0.1-0.4 0.2-0.8c0.1-0.3 0.2-0.6 0.4-0.9-0.2 0.3-0.1 0 0 0q0-0.1 0.1-0.2 0.1-0.3 0.2-0.5 0.2-0.4 0.4-0.8 0.1-0.2 0.2-0.3 0-0.1 0-0.1 0.1-0.1 0 0.1c0 0 0.1-0.2 0.1-0.2 0.3-0.2 0.5-0.4 0.7-0.6 0.5-0.4 0.9-0.8 1.3-1.2 0.1-0.1 0.2-0.2 0.2-0.2q0 0.1-0.1 0.1 0.1 0 0.1-0.1 0.2-0.1 0.4-0.2 0.4-0.2 0.8-0.4 0.5-0.3 0.9-0.5 0.1-0.1 0.3-0.2c0.1 0 0.4-0.2 0.4-0.3 0 0.1-0.2 0.1 0 0.1q0.1-0.1 0.2-0.1 0.2 0 0.4-0.1 0.5-0.2 1-0.3 0.9-0.3 1.8-0.5 0.2-0.1 0.5-0.1c0 0-0.3 0 0 0q0.1 0 0.2 0 0.5 0 1 0 0.5 0 1 0c0 0 0.4 0.1 0.4 0q-0.1 0-0.1 0 0 0 0.1 0 0.1 0 0.2 0.1c0.3 0 0.6 0 0.9-0.2 0.2-0.1 0.5-0.4 0.5-0.6 0.1-0.6-0.2-1.3-0.8-1.4z"/><path class="f" d="m86.6 16.5c0.2-0.1 0.4-0.1 0.6 0 0 0 0.2 0.2 0.2 0.2 0 0-0.1-0.1-0.1-0.2q-0.2-0.2-0.5-0.3c-0.3-0.2-0.8-0.3-1.1-0.5q-0.3-0.1-0.5-0.1-0.2-0.1-0.4-0.1-0.1 0-0.1 0c0 0 0.2 0.1 0 0q-0.4-0.1-0.9-0.2c-0.4-0.1-0.8-0.2-1.3-0.3-0.3 0-0.6 0-1 0q-1.1 0.1-2.2 0c-0.8 0-1.6 0-2.4 0.2q-0.2 0.1-0.5 0.1 0 0-0.1 0c0 0 0.3 0 0.1 0q-0.2 0-0.5 0.1c-0.3 0-0.6 0.2-0.9 0.3q-0.5 0.1-1 0.3-0.3 0.1-0.7 0.3-0.1 0-0.2 0.1c0 0-0.1 0 0 0 0.2-0.1 0 0 0 0-0.4 0.1-0.8 0.3-1.1 0.5q-0.4 0.3-0.9 0.6c-0.6 0.5-1.1 0.9-1.6 1.5q-0.8 0.8-1.4 1.7-0.3 0.4-0.5 0.9c-0.1 0.1-0.2 0.2-0.2 0.3 0 0 0.1-0.1 0-0.1q0 0.1 0 0.1-0.1 0.2-0.2 0.3c-0.5 0.6-0.8 1.4-1 2.1q-0.1 0.6-0.2 1.2c0 0.4 0 0.7 0 1.1-0.1 0.7-0.2 1.4-0.1 2.1 0.1 0.8 0.2 1.6 0.4 2.3 0.1 0.7 0.4 1.4 0.8 2.1 0.2 0.6 0.5 1.2 0.9 1.7 0.4 0.7 0.9 1.2 1.4 1.8 0.5 0.5 1 1.1 1.7 1.5 0.5 0.4 1.1 0.6 1.7 1 0.6 0.3 1.3 0.6 2 0.8q0.6 0.2 1.1 0.3 0.3 0 0.7 0.1c0 0 0.3 0 0.1 0-0.1 0 0 0 0 0q0.1 0 0.2 0 0.6 0.1 1.3 0.2 0.5 0 1.1 0 1.1 0 2.2 0.1c0.8 0 1.6 0 2.4-0.1q0.6-0.1 1.1-0.4 0.2-0.1 0.4-0.2c0 0 0.2-0.2 0.1-0.1-0.2 0.1 0 0 0 0q0.1 0 0.1 0c0.4-0.1 0.8-0.2 1.2-0.4q0.4-0.3 0.9-0.5c0.6-0.3 1.2-0.8 1.8-1.2 0.6-0.4 1-0.9 1.5-1.4q0.2-0.3 0.4-0.6 0.1-0.1 0.1-0.2c0.1-0.1 0 0.1 0 0.1 0 0 0.1-0.1 0.1-0.1q0.4-0.5 0.7-0.9 0.3-0.5 0.5-0.9 0.1-0.2 0.2-0.5c0 0-0.1 0.2 0 0.1q0 0 0-0.1 0.1-0.2 0.3-0.4c0.3-0.6 0.5-1.3 0.6-2q0.2-1.2 0.2-2.4 0-0.5 0-1 0-0.7-0.3-1.3c0-0.1-0.1-0.3-0.2-0.4 0 0 0.1 0.2 0.1 0.1q0-0.1-0.1-0.1 0-0.2 0-0.3c-0.1-0.3-0.3-0.6-0.3-0.9q-0.1-0.2-0.1-0.5-0.1-0.2-0.2-0.4c0 0-0.3-0.5-0.2-0.3 0 0.1 0.1 0.2 0.1 0.3q0-0.1 0-0.1-0.1-0.2-0.1-0.3-0.2-0.3-0.3-0.5c0-0.1-0.1-0.2-0.1-0.2 0 0 0.1 0.2 0 0.1q0-0.1-0.1-0.3-0.1-0.2-0.3-0.4-0.3-0.5-0.5-0.9c-0.4-0.7-0.8-1.3-1.3-1.8-0.5-0.6-1.1-1-1.7-1.4-0.6-0.3-1.1-0.7-1.7-1.1-0.5-0.4-1.2-0.6-1.7-0.9-0.6-0.3-1.3-0.2-1.6 0.4-0.2 0.5-0.1 1.2 0.4 1.5 0.6 0.3 1.2 0.6 1.8 0.9 0.5 0.4 1 0.8 1.6 1.1q0.4 0.2 0.7 0.5c0.3 0.1-0.1-0.2 0.1 0q0 0.1 0.1 0.1 0.2 0.2 0.4 0.4 0.1 0.1 0.2 0.2c0.1 0.2-0.2-0.2 0 0q0.1 0.2 0.2 0.4 0.3 0.4 0.5 0.9 0.3 0.4 0.6 0.8 0.1 0.1 0.1 0.2c0.1 0 0.1 0.2 0.1 0.2q0-0.1 0-0.2 0 0.2 0.1 0.4 0.1 0.1 0.2 0.2 0 0.1 0.1 0.2 0 0 0 0 0.1 0.2 0 0c-0.1 0 0.2 0.6 0.2 0.5q0.1 0.2 0.2 0.3 0 0-0.1-0.1 0.1 0.1 0-0.1c0 0 0.1 0.5 0.1 0.5 0.1 0.3 0.2 0.6 0.3 0.9q0.1 0.6 0.4 1.1c0 0 0.1 0.1 0.1 0.2q0-0.1 0-0.2 0 0.1 0 0.2 0-0.1 0-0.2 0 0.1 0 0.2 0 0 0 0.1 0 0.5 0 1.1 0 0.5-0.1 1 0 0.3 0 0.5 0 0.1 0 0.3c0-0.4-0.1 0-0.1 0q0 0.5-0.1 0.9c-0.1 0-0.1 0.2-0.1 0.2q0-0.1 0-0.1 0 0 0 0.1-0.1 0.2-0.3 0.5-0.1 0.1-0.2 0.3-0.1 0.2-0.2 0.5c0.2-0.3 0.1-0.1 0 0q-0.1 0.2-0.2 0.4c-0.1 0.1-0.2 0.4-0.3 0.5q0.1-0.1 0.1-0.2 0 0.1-0.1 0.2 0 0-0.1 0.1-0.2 0.1-0.3 0.3-0.2 0.3-0.4 0.6c-0.2 0.2 0.2-0.2 0 0q-0.1 0.1-0.2 0.2-0.4 0.4-0.7 0.7-0.2 0.2-0.4 0.4 0 0-0.1 0.1c-0.2 0.2 0.1-0.1-0.1 0.1q-0.8 0.5-1.7 0.9-0.2 0.2-0.4 0.3c-0.1 0-0.3 0.2-0.4 0.2q0.1 0 0.1-0.1 0 0.1-0.1 0.1-0.1 0-0.2 0.1-0.3 0-0.5 0.1c-0.3 0.1-0.6 0.3-0.9 0.5-0.1 0-0.2 0-0.2 0.1q0-0.1 0.1-0.1-0.1 0-0.1 0.1c0 0-0.2 0-0.2 0q0.2 0 0.1 0-0.1 0-0.2 0c-1.5 0.1-2.9 0-4.3 0q-0.6 0-1.1-0.1c-0.2 0 0.2 0.1 0 0q-0.1 0-0.2 0-0.3 0-0.6-0.1-0.3 0-0.7-0.1c-0.2 0 0.3 0.1 0 0q-0.1 0-0.2 0-0.6-0.1-1.1-0.3-0.2-0.1-0.4-0.2-0.2 0-0.3-0.1c0 0-0.2-0.1-0.1 0 0.2 0.1 0 0 0 0q-0.1-0.1-0.2-0.1-0.3-0.2-0.5-0.3c-0.6-0.3-1.1-0.6-1.7-1-0.2-0.1 0.2 0.2 0 0q-0.1 0-0.2-0.1-0.1-0.2-0.3-0.3-0.3-0.4-0.7-0.8-0.3-0.4-0.6-0.7 0-0.1 0-0.1-0.2-0.1 0 0.1c-0.1-0.1-0.1-0.2-0.2-0.2q-0.1-0.3-0.2-0.5-0.5-0.8-0.9-1.7-0.1-0.2-0.2-0.4c-0.1-0.3 0.1 0.2 0 0q-0.1-0.1-0.1-0.2-0.2-0.5-0.3-1 0-0.5-0.1-1 0-0.1 0-0.2c0 0.3 0 0 0 0q-0.1-0.3-0.1-0.6c0-0.7 0.1-1.4 0.1-2q0-0.3 0-0.5c0-0.1 0-0.2 0.1-0.3q0 0.1-0.1 0.2 0.1-0.1 0.1-0.2 0.1-0.5 0.2-1 0.1-0.2 0.2-0.4 0-0.2 0-0.3c-0.1 0.3 0 0.1 0.1 0q0-0.1 0.1-0.2 0 0 0 0 0.1-0.2 0 0c0 0 0.1-0.1 0.1-0.1q0.1-0.2 0.3-0.4c0.1-0.2 0.3-0.5 0.4-0.7q0.3-0.5 0.6-0.9 0.1-0.2 0.2-0.4c-0.2 0.3 0 0.1 0.1 0q0-0.1 0.1-0.2 0.3-0.3 0.6-0.7 0.4-0.3 0.7-0.6 0.1 0 0.2-0.1c0.1-0.1 0.3-0.2 0.1-0.1q0.2-0.1 0.4-0.3 0.2-0.2 0.5-0.3c0-0.1 0.3-0.2 0.3-0.2 0 0-0.2 0.1 0 0q0.1 0 0.2-0.1 0.4-0.1 0.7-0.3 0.1 0 0.2-0.1c-0.3 0.1 0 0 0 0q0.3-0.1 0.5-0.1c0.3-0.1 0.7-0.2 1-0.3q0.2-0.1 0.4-0.2c0.3 0-0.2 0 0 0q0.2 0 0.4 0 0.3-0.1 0.5-0.1 0.1 0 0.3-0.1c0 0 0.4-0.1 0.1 0 0.1 0 0.3 0 0.5 0q0.2 0 0.5 0 0.6 0 1.2 0 1 0 2 0 0.2 0 0.4 0c0.3 0-0.2-0.1 0.1 0q0.1 0 0.2 0 0.5 0.1 1.1 0.3 0.1 0 0.3 0.1 0.1 0 0.2 0c-0.2 0 0.4 0.1 0.4 0.1q0-0.1-0.1-0.1 0.1 0 0.1 0.1 0.1 0 0.3 0 0.2 0.1 0.5 0.2 0.1 0.1 0.3 0.1c0.2 0.1-0.2-0.1-0.1 0-0.2-0.1-0.1-0.1 0 0q0 0 0.1 0.1c0.4 0.4 0.8 0.5 1.4 0.4 0.6-0.1 1-0.8 0.8-1.4-0.2-0.6-0.8-0.8-1.4-0.7z"/><path class="f" d="m88.6 38.6c0.1 0 0.1 0 0.1 0 0.1 0-0.2-0.1-0.1 0 0.1 0 0.1 0 0.2 0 0 0-0.2-0.1-0.1 0q0 0 0.1 0 0.1 0.1 0.2 0.1c0.1 0.1-0.2-0.1-0.1 0q0.1 0.1 0.2 0.2 0.2 0.1 0.3 0.3c0.5 0.5 1 1 1.4 1.6 0.1 0 0.1 0.1 0.1 0-0.1-0.2 0 0 0 0q0 0.1 0.1 0.2 0.2 0.2 0.3 0.5 0.1 0.2 0.3 0.4c0.1 0.2 0.2 0.4 0.4 0.6-0.1-0.2-0.1-0.1 0-0.1q0 0.1 0 0.1 0.1 0.1 0.1 0.2c0.1 0.2 0-0.2 0 0.1q0.1 0.1 0.1 0.2 0.2 0.5 0.3 1 0.1 0.2 0.2 0.4c0.1 0.1 0-0.2 0 0q0 0 0.1 0.1 0 0.3 0.1 0.6 0.1 0.3 0.1 0.6 0.1 0.2 0.2 0.5 0 0 0.1 0c0.1 0.2 0 0.2 0-0.2 0 0.3 0.1 0.5 0.3 0.8 0.2 0.1 0.5 0.3 0.8 0.3 0.5 0 1.2-0.5 1.1-1.1 0-0.4-0.1-0.6-0.3-0.9 0-0.1-0.1-0.2 0 0 0 0.1 0 0 0 0q0-0.2-0.1-0.3-0.1-0.8-0.4-1.4c0-0.1 0-0.2 0 0.1q0-0.1 0-0.1 0-0.2-0.1-0.3-0.1-0.2-0.1-0.5c-0.2-0.4-0.3-0.8-0.5-1.2q-0.1-0.1-0.2-0.2c0.1 0.1-0.3-0.4-0.3-0.4 0 0 0.2 0.2 0 0q0 0 0 0-0.1-0.2-0.2-0.3-0.3-0.6-0.7-1.1c-0.5-0.6-1-1.2-1.6-1.7-0.6-0.8-1.4-1.4-2.4-1.4-0.6 0-1.1 0.5-1.1 1.1 0 0.7 0.5 1.2 1.1 1.2z"/><path class="f" d="m90.1 38.7q0.1 0 0.3 0c0 0 0.3 0 0.1 0q-0.2-0.1 0 0-0.2-0.1-0.3-0.2 0 0 0.1 0.1-0.2-0.2-0.1-0.1c0.2 0.3 0.4 0.6 0.7 0.9q0.5 0.3 0.8 0.7 0.1 0.1 0.2 0.2 0 0.1 0.1 0.1 0.1 0.2-0.1 0c0.2 0.1 0.3 0.3 0.3 0.4q0.1 0.1 0.2 0.3c0.1 0.2-0.1-0.2 0 0q0.1 0.4 0.3 0.7 0.1 0.2 0.3 0.5c0 0 0.2 0.3 0 0q0.1 0.2 0 0 0-0.1 0 0 0.1 0.2 0.1 0.4 0 0.2 0 0 0 0.1 0 0.2 0 0.4 0.1 0.8c0 0.4 0.3 0.7 0.5 1.1q0-0.6 0-1.1 0 0-0.1 0.1c-0.3 0.5-0.1 1.2 0.4 1.5 0.6 0.3 1.2 0.1 1.6-0.4q0 0 0-0.1c0.3-0.3 0.2-0.8 0-1.1q-0.1-0.3-0.2-0.5-0.1-0.1 0 0.1 0-0.1-0.1-0.2 0.1 0.3 0.1 0.1 0-0.1-0.1-0.1 0-0.4 0-0.8-0.1-0.2 0 0 0 0 0-0.1-0.1-0.3-0.1-0.6c-0.1-0.2-0.2-0.4-0.4-0.6q-0.1-0.1-0.1-0.3-0.1-0.1 0 0.1-0.1-0.1-0.1-0.1c-0.2-0.5-0.3-0.9-0.6-1.3-0.5-0.7-1.1-1.2-1.7-1.8q-0.1-0.1 0.1 0.1-0.1 0-0.1-0.1-0.1-0.1-0.2-0.2-0.1-0.3-0.4-0.5-0.4-0.4-1.1-0.5-0.2 0-0.5 0c-0.6 0-1.1 0.6-1.1 1.2 0 0.6 0.5 1.1 1.1 1.1z"/><path class="f" d="m90.2 39.4c0.6 0.6 1.2 1.4 1.9 2.1q0.3 0.2 0.5 0.4 0.1 0.1 0.2 0.2c0.1 0.1 0.3 0.2 0.3 0.3-0.1-0.1-0.1-0.1-0.1 0q0.1 0 0.1 0.1 0.1 0.2 0.2 0.3 0.2 0.3 0.4 0.7 0 0 0 0.1c0.1 0.3 0-0.1 0 0q0.1 0.2 0.2 0.4 0.1 0.3 0.2 0.7 0.2 0.7 0.4 1.4 0.2 0.7 0.4 1.4 0 0.4 0.1 0.8c0 0 0 0.2 0-0.1q0 0.1 0 0.2 0 0.2 0 0.4c0.1 1 0.1 2 0.2 3q0 0.8 0.1 1.6 0.1 0.7 0.1 1.5c-0.1 1-0.1 2.1 0 3.1q0 0.4 0 0.7 0 0.2 0 0.4c0 0.2 0-0.1 0-0.1 0 0-0.1 0.2-0.1 0.3q-0.1 0.4-0.1 0.8 0 0.1 0 0.1 0 0.2 0-0.1c0.1 0 0 0.3 0 0.4q0 0.1 0 0.3 0 0.1-0.1 0.2c0 0.2 0.1-0.3 0 0q0 0 0 0.1c0 0.2 0.1-0.2 0 0q0 0 0 0.1c-0.1 0.1-0.1 0.1 0.1-0.1 0.1-0.2 0.2-0.2 0.4-0.3-0.2 0.1 0.2 0 0 0q-0.4 0-0.8 0-0.2 0-0.4 0c0.2 0 0.1 0 0 0q-0.1-0.1-0.2-0.1c-1.1-0.2-2.4-0.6-3.4 0.2-0.4 0.4-0.4 1.2 0 1.6 0.5 0.4 1.2 0.4 1.6 0q-0.1 0-0.1 0.1-0.3 0.1-0.2 0.1c0 0 0.1-0.1 0.1-0.1 0 0.1-0.3 0.1-0.1 0.1q0.1 0 0.1 0 0.3 0 0.5 0 0.1 0 0.2 0c-0.3 0-0.2 0-0.1 0q0.2 0 0.4 0.1 0.4 0.1 0.8 0.1c0.5 0.1 1.1 0.2 1.7 0.2 0.4-0.1 0.8-0.2 1-0.4 0.2-0.2 0.3-0.4 0.4-0.6 0.2-0.3 0.2-0.6 0.3-1q0-0.2 0-0.3c0-0.1 0.1-0.5 0-0.2q0.1-0.3 0.1-0.5c0-0.1 0-0.2 0-0.2 0-0.1-0.1 0.2 0 0q0.1-0.5 0.1-1c0-0.5 0-1 0-1.5q0-0.8 0-1.7c0-0.5 0-1 0-1.5 0-0.5-0.1-1.1-0.1-1.6-0.2-1.1-0.1-2.1-0.2-3.2-0.1-2.1-0.6-4.2-1.3-6.1-0.2-0.6-0.5-1.2-0.8-1.7q-0.5-0.8-1.1-1.4c-0.4-0.4-0.8-0.8-1.2-1.2-0.4-0.4-0.8-0.8-1.2-1.2-0.4-0.4-1.1-0.5-1.5 0-0.5 0.4-0.5 1.1 0 1.6z"/><path class="f" d="m93.3 44.7q0 0.5 0.1 0.9 0 0.2 0.1 0.3c0 0 0 0.2 0 0.2q0 0 0-0.1 0 0.1 0 0.1 0 0.9 0.2 1.8c0 0 0 0.3 0 0.1 0-0.2 0 0.1 0 0.1q0 0.2 0 0.4c0.1 0.3 0 0.6 0 0.9 0.1 0.6 0.1 1.1 0.2 1.7q0.1 0.4 0.2 0.8 0 0 0 0 0 0.2 0-0.1c0 0 0 0.2 0 0.2q0 0.2 0 0.4 0 0.9 0 1.7 0 1.7 0 3.4 0 1 0 1.9 0 0.2 0 0.4 0 0.1 0 0.2 0 0 0 0.1 0-0.2 0-0.1c-0.1 0.3-0.1 0.7-0.1 1 0 0.6 0.5 1.1 1.1 1.1 0.6 0 1.1-0.5 1.1-1.1q0-0.1 0-0.2c0-0.1 0.1-0.2 0 0.1q0-0.2 0.1-0.4c0-0.3 0-0.6 0-0.9q0-0.8 0-1.6 0-1.7 0-3.5 0-0.8 0-1.7c0-0.6 0-1.1-0.1-1.7q-0.1-0.2-0.1-0.4c0-0.1 0-0.2 0-0.2 0 0.1 0 0.2 0 0.1q-0.1-0.4-0.1-0.9c-0.1-0.5 0-1.1 0-1.6q-0.1-0.6-0.2-1.1 0-0.1 0-0.2c-0.1-0.2 0 0.2 0 0q0-0.2-0.1-0.5 0-0.5-0.1-1 0-0.2-0.1-0.4c0 0 0-0.2 0-0.2q0 0.3 0 0.1 0-0.1 0-0.1c0-0.6-0.5-1.2-1.1-1.2-0.6 0.1-1.1 0.5-1.1 1.2z"/><path class="f" d="m93.1 60.4q-0.1 0-0.1 0 0.3 0.9 0.5 1.8 0 0 0.1 0-0.1 0.1-0.3 0.1 0.1 0 0.2 0-0.2 0-0.3 0.1 0.1-0.1 0.2-0.1-0.1 0-0.3 0.1c0.3-0.1 0.6-0.1 0.9-0.2q0.3-0.1 0.6-0.2 0.1-0.1 0.3-0.2-0.1 0.1-0.3 0.1 0.1 0 0.2-0.1-0.1 0.1-0.3 0.1 0.1 0 0.2 0 0-1.1 0-2.3-0.3 0-0.6 0.1-0.3 0.1-0.5 0.2c-0.3 0.1-0.5 0.2-0.8 0.4-0.3 0.3-0.4 0.6-0.4 1q0 0.2 0 0.3 0 0.2 0.2 0.4c0.2 0.2 0.3 0.3 0.6 0.4 0.2 0.1 0.5 0.1 0.8 0.1q0.2-0.1 0.5 0-0.1-0.1-0.3-0.1 0.1 0 0.2 0.1-0.1-0.1-0.3-0.2 0.1 0.1 0.1 0.1-0.1-0.1-0.2-0.2 0 0 0 0-0.1-0.1-0.2-0.2 0 0 0 0 0-0.1-0.1-0.2 0 0 0 0 0-0.1 0-0.3 0 0 0 0.1 0-0.2 0-0.3 0 0 0 0 0.1-0.1 0.1-0.3 0 0.1 0 0.1 0.1-0.1 0.2-0.2-0.1 0-0.1 0.1 0.1-0.1 0.2-0.2-0.1 0.1-0.2 0.1 0.1 0 0.2-0.1-0.1 0.1-0.2 0.1 0.2 0 0.3-0.1-0.1 0.1-0.2 0 0.1 0.1 0.3 0.1-0.3-0.1-0.5-0.1-0.4-0.1-0.7-0.1-0.2-0.1-0.4 0c-0.3 0-0.5 0-0.8 0.2q-0.1 0.1-0.3 0.1-0.1 0.2-0.2 0.4-0.1 0.4 0 0.7c0.1 0.5 0.4 0.8 0.8 0.9 0.3 0.1 0.6 0 0.9 0 0.2-0.1 0.4-0.2 0.6-0.2q-0.2 0-0.3 0c0.2 0 0.4 0 0.6 0q0 0 0.1 0 0.2 0 0.4 0c0.3-0.1 0.5-0.2 0.7-0.4 0.2-0.3 0.3-0.5 0.3-0.8 0-0.3-0.1-0.6-0.3-0.8-0.2-0.2-0.5-0.4-0.8-0.3-0.3 0-0.6 0.1-0.8 0.3q0 0 0 0 0.1-0.1 0.2-0.1-0.1 0-0.1 0 0.1 0 0.3-0.1-0.1 0-0.2 0 0.2 0 0.3 0-0.2 0-0.4 0-0.3-0.1-0.7 0c-0.2 0.1-0.4 0.2-0.7 0.2q0.2 0 0.3 0 0 0-0.1 0 0.2 0 0.3 0 0 0 0 0 0.1 0.1 0.3 0.1-0.1 0-0.1 0 0.1 0.1 0.3 0.2-0.1 0-0.1 0 0.1 0.1 0.2 0.2 0 0 0 0 0.1 0.1 0.1 0.2 0 0 0 0-0.2 0.7-0.5 1.3 0 0 0 0-0.1 0-0.2 0.1 0 0 0.1 0-0.1 0-0.3 0 0.3 0 0.6 0-0.2 0-0.3 0c0.4 0 0.8 0.2 1.2 0.2 0.6 0 1.3-0.3 1.6-0.9 0.2-0.3 0.3-0.7 0.2-1-0.1-0.5-0.5-0.8-1-0.9q-0.3-0.1-0.7-0.1-0.3 0.1-0.6 0 0.2 0.1 0.3 0.1 0 0-0.1-0.1 0.4 0.6 0.8 1.1 0 0 0 0 0 0.2 0 0.3 0 0 0 0-0.1 0.1-0.1 0.2 0 0 0 0-0.1 0.1-0.2 0.2 0.1-0.1 0.1-0.1-0.1 0.1-0.2 0.2 0.1-0.1 0.3-0.2-0.2 0.1-0.3 0.1 0.3-0.1 0.6-0.1-0.1 0-0.3 0 0.1 0 0.2 0c0.2 0 0.6-0.1 0.7-0.3 0.2-0.2 0.4-0.6 0.4-0.8 0-0.3-0.1-0.6-0.4-0.8q-0.3-0.3-0.7-0.4-0.1 0-0.2 0-0.2 0.1-0.4 0.1-0.2 0.1-0.4 0.2-0.3 0.2-0.5 0.3 0.1-0.1 0.2-0.1-0.1 0-0.2 0 0.1 0 0.3 0-0.4 0-0.7 0.1c-0.4 0-0.7 0.2-0.9 0.4-0.3 0.3-0.4 0.7-0.3 1.1 0.1 0.4 0.4 0.7 0.8 0.8q0 0 0.1 0c0.3 0.1 0.6 0.1 0.8-0.1 0.3-0.1 0.5-0.4 0.6-0.6 0-0.3 0-0.6-0.1-0.9q-0.3-0.4-0.7-0.5z"/><path class="f" d="m71.7 37.5q-0.5 0-1.1-0.1-0.5 0-1.1 0-0.5 0-1 0-0.6 0-1.3 0.2-1 0.2-2 0.5-0.4 0.2-0.9 0.3c-0.3 0.1-0.7 0.2-1 0.4-0.3 0.1-0.5 0.3-0.8 0.4q-0.4 0.3-0.9 0.6-0.5 0.2-0.9 0.4c-0.3 0.2-0.6 0.5-0.9 0.7-0.5 0.5-0.9 1-1.5 1.4-0.2 0.2-0.4 0.3-0.6 0.5-0.3 0.3-0.4 0.7-0.6 1-0.6 1.3-1.2 2.5-1.6 3.9-0.2 0.7-0.3 1.5-0.4 2.2q-0.1 1.1 0.1 2.1 0.1 1.2 0.4 2.3c0.2 0.7 0.3 1.4 0.6 2 0.3 0.6 0.7 1.1 1.2 1.5 0.5 0.5 1 0.9 1.5 1.4q0.8 0.7 1.7 1.4 0.9 0.6 1.7 1.3c1.1 0.7 2.5 1.3 3.8 1.5 0.8 0.1 1.5 0.1 2.3 0.2 0.6 0 1.3 0.1 2 0.1 0.7 0 1.4-0.1 2.1-0.2q0.5-0.2 1-0.4 0.2-0.1 0.4-0.2 0.1-0.1 0.2-0.1c0.1-0.1 0.4-0.2 0.1-0.1 0.1-0.1 0.3-0.1 0.5-0.2q0.2 0 0.4-0.1 0.6-0.2 1.1-0.5c0.6-0.4 1.2-0.9 1.7-1.4q1.5-1.3 2.6-3.1c0.4-0.6 0.7-1.2 0.9-1.9 0.1-0.6 0.3-1.2 0.5-1.8q0.3-1.2 0.4-2.4c0.1-0.7-0.1-1.3-0.1-2 0-0.8 0-1.6-0.2-2.4-0.2-0.6-0.4-1.2-0.6-1.9-0.5-1.2-1.1-2.5-2.2-3.4q-0.4-0.3-0.9-0.7-0.1 0-0.2-0.1c0.2 0.2 0 0 0 0q-0.2-0.2-0.4-0.4-0.4-0.4-0.8-0.6c-0.3-0.3-0.7-0.4-1.1-0.5q-0.4-0.2-0.8-0.3-0.1 0-0.1 0-0.2-0.1 0 0c0 0-0.1-0.1-0.2-0.1q-0.1-0.1-0.2-0.1 0-0.1-0.1-0.1 0.2 0.2 0.1 0c-0.5-0.3-0.9-0.7-1.4-0.9-0.3-0.1-0.6-0.1-1 0-0.5 0.2-0.9 0.7-0.8 1.3 0 0.6 0.4 1.1 1.1 1.1 0.6 0 1.1-0.5 1.1-1.1q0 0 0-0.1 0 0.7-0.7 1-0.3 0-0.5 0 0.1 0 0.1 0c0.2 0 0.2 0.1-0.1-0.1q0.1 0.1 0.2 0.1c0.2 0.1 0.3 0.3 0 0q0.4 0.3 0.8 0.6c0.3 0.2 0.6 0.4 1 0.5q0.4 0.2 0.8 0.3 0.2 0.1 0.4 0.1 0.1 0.1 0.2 0.1-0.3-0.1-0.1 0 0.1 0 0.1 0 0.1 0.1 0.1 0.1 0.1 0.1-0.1-0.1c0.1 0 0.2 0.2 0.2 0.2q0.1 0.1 0.3 0.2 0.4 0.5 0.8 0.8 0.2 0.1 0.4 0.3c0.1 0 0.3 0.1 0.3 0.2q0-0.1-0.1-0.1 0.1 0 0.1 0.1 0.1 0.1 0.2 0.1 0.1 0.2 0.3 0.4c0 0 0.1 0.1 0.1 0.1q0 0-0.1-0.1 0.1 0.1 0.1 0.1 0.1 0.2 0.3 0.4 0.2 0.4 0.4 0.8 0 0 0.1 0.1c0 0.1 0.1 0.2-0.1 0 0.1 0.1 0.2 0.3 0.2 0.4q0.2 0.5 0.3 1 0.2 0.4 0.3 0.9 0.1 0.2 0.1 0.5 0 0.1 0 0.2c0.1 0.3 0-0.2 0.1 0q0 0.5 0 1 0 0.5 0.1 1 0 0.5 0 1 0 0.2 0 0.4c0-0.3 0 0 0 0q-0.1 0.2-0.1 0.4-0.2 1-0.5 1.9-0.1 0.4-0.2 0.8-0.1 0.2-0.1 0.4c-0.1 0.1-0.1 0.5-0.2 0.5q0-0.1 0.1-0.2-0.1 0.1-0.1 0.2 0 0.1-0.1 0.2-0.1 0.1-0.2 0.3-0.2 0.4-0.5 0.8-0.2 0.2-0.3 0.4 0 0 0 0-0.1 0.2 0 0-0.1 0.1-0.1 0.1-0.3 0.4-0.6 0.8-0.7 0.6-1.4 1.2-0.1 0.1-0.2 0.1c-0.1 0.1 0.3-0.1 0 0q-0.1 0.2-0.3 0.3c-0.3 0.2-0.6 0.4-0.9 0.4 0.3 0 0.1 0 0 0q-0.1 0.1-0.2 0.1-0.2 0.1-0.4 0.2-0.5 0.2-1 0.4-0.2 0.1-0.5 0.2c-0.2 0.1 0.2 0 0.1 0q-0.1 0.1-0.2 0.1-0.4 0.1-0.8 0.2c-0.3 0.1 0.2 0-0.1 0q-0.1 0-0.2 0-0.2 0.1-0.4 0.1-0.5 0-1 0c-0.7-0.1-1.3-0.2-1.9-0.2q-0.5 0-0.9-0.1-0.1 0-0.3 0c-0.2 0 0.3 0 0 0q-0.2-0.1-0.5-0.1-0.4-0.1-0.8-0.2-0.3-0.1-0.5-0.2-0.1 0-0.2-0.1c-0.2-0.1 0.2 0.1 0 0-0.6-0.3-1.1-0.6-1.6-1-0.5-0.4-1.1-0.7-1.6-1.2 0.3 0.2-0.1-0.1-0.1-0.1q-0.2-0.2-0.4-0.3-0.4-0.3-0.8-0.7-0.6-0.6-1.3-1.2-0.1-0.2-0.3-0.3 0-0.1-0.1-0.2c-0.1-0.1 0 0.1 0 0.1 0 0-0.2-0.3-0.2-0.4-0.1-0.2 0.1 0.3 0 0q0-0.1-0.1-0.2c-0.2-0.6-0.3-1.2-0.4-1.8q-0.1-0.5-0.2-0.9 0-0.2-0.1-0.4c0-0.1 0-0.4 0-0.1q0-0.2 0-0.3-0.1-0.5-0.1-1 0-0.2 0-0.4 0-0.2 0-0.3c0.1 0 0.1-0.4 0.1-0.1 0-0.3 0.1-0.6 0.1-0.9q0.2-0.5 0.3-0.9 0.1-0.5 0.2-0.9c0.1-0.3 0.2-0.6 0.4-0.8-0.2 0.2 0 0 0-0.1q0-0.1 0.1-0.2 0.1-0.2 0.2-0.4 0.2-0.4 0.4-0.8 0.1-0.2 0.2-0.4 0 0 0 0 0.1-0.2 0 0c0 0 0.1-0.1 0.2-0.1 0.2-0.3 0.4-0.4 0.7-0.6 0.4-0.4 0.8-0.9 1.3-1.3 0 0 0.1-0.1 0.1-0.1q0 0-0.1 0 0.1 0 0.2 0 0.1-0.1 0.3-0.2 0.4-0.2 0.8-0.5 0.5-0.2 0.9-0.5 0.2-0.1 0.3-0.2c0.1 0 0.5-0.2 0.5-0.2 0 0-0.3 0.1-0.1 0q0.1 0 0.2 0 0.2-0.1 0.5-0.2 0.4-0.1 0.9-0.3 0.9-0.3 1.8-0.5 0.3 0 0.5-0.1c0 0-0.2 0.1 0 0q0.1 0 0.2 0 0.5 0 1 0 0.5 0 1 0c0 0 0.4 0.1 0.4 0.1q-0.1 0-0.1 0 0 0 0.1 0 0.1 0 0.3 0c0.3 0.1 0.5 0.1 0.8-0.1 0.2-0.1 0.5-0.4 0.5-0.7 0.1-0.5-0.1-1.3-0.8-1.4z"/><path class="f" d="m74.7 38.8c0.2 0 0.4 0 0.6 0 0 0.1 0.2 0.2 0.2 0.2 0 0-0.1-0.1-0.1-0.1q-0.2-0.2-0.5-0.4c-0.3-0.2-0.7-0.3-1.1-0.4q-0.2-0.1-0.5-0.2-0.2 0-0.4 0c-0.1 0-0.2-0.1 0 0 0.1 0 0 0-0.1 0q-0.4-0.2-0.9-0.3c-0.4-0.1-0.8-0.2-1.3-0.2-0.3-0.1-0.6 0-1 0q-1 0-2.1 0c-0.9 0-1.6 0-2.4 0.1q-0.3 0.1-0.6 0.2c-0.2 0 0.2-0.1 0 0q-0.2 0-0.5 0c-0.3 0.1-0.6 0.2-0.9 0.3q-0.5 0.1-1 0.3-0.3 0.2-0.6 0.3-0.2 0-0.3 0.1c0 0-0.1 0.1 0 0 0.2-0.1 0 0 0 0-0.4 0.2-0.8 0.3-1.1 0.5q-0.4 0.3-0.8 0.7c-0.6 0.4-1.2 0.9-1.7 1.4q-0.8 0.8-1.4 1.8-0.3 0.4-0.5 0.8c-0.1 0.1-0.2 0.3-0.2 0.4 0 0 0.1-0.2 0.1-0.1q-0.1 0-0.1 0.1-0.2 0.2-0.3 0.4c-0.4 0.5-0.7 1.3-0.8 2q-0.2 0.6-0.3 1.2c0 0.3 0 0.7 0 1-0.1 0.8-0.1 1.5-0.1 2.2 0.1 0.8 0.2 1.5 0.4 2.3 0.2 0.7 0.5 1.4 0.8 2.1 0.3 0.6 0.6 1.2 0.9 1.7 0.5 0.6 1 1.2 1.5 1.8 0.5 0.5 1 1 1.6 1.5 0.5 0.3 1.1 0.6 1.7 0.9 0.7 0.4 1.4 0.6 2.1 0.9q0.5 0.1 1 0.2 0.4 0.1 0.7 0.1 0.1 0 0.2 0c0.1 0.1-0.1 0-0.1 0q0.1 0 0.2 0.1 1.2 0.2 2.4 0.2 1.1 0 2.2 0c0.7 0 1.5 0 2.2 0q0.7-0.1 1.3-0.4 0.2-0.2 0.4-0.3c0 0 0.2 0 0.2-0.1 0 0-0.2 0.1-0.1 0.1q0-0.1 0.1-0.1c0.4-0.1 0.8-0.2 1.2-0.4q0.4-0.2 0.8-0.4c0.7-0.3 1.3-0.7 1.8-1.2q0.9-0.6 1.6-1.4 0.2-0.3 0.4-0.6 0.1-0.1 0.2-0.2c0-0.1-0.1 0-0.1 0.1q0.1-0.1 0.1-0.2c0.3-0.3 0.5-0.6 0.8-0.9q0.2-0.4 0.4-0.9 0.1-0.2 0.2-0.4c0.1-0.1 0 0.1 0 0.1q0 0 0-0.1 0.1-0.2 0.3-0.4c0.3-0.7 0.5-1.3 0.6-2.1q0.2-1.1 0.2-2.3 0-0.5 0-1 0.1-0.8-0.3-1.4c0-0.1-0.1-0.3-0.2-0.4 0 0 0.1 0.3 0.1 0.1q0 0 0-0.1-0.1-0.1-0.1-0.2c-0.1-0.3-0.2-0.6-0.3-1q0-0.2-0.1-0.4-0.1-0.2-0.2-0.4c0-0.1-0.2-0.2-0.2-0.4q0 0.1 0.1 0.2c0.1 0.2 0 0.1 0 0q0-0.1-0.1-0.2c-0.1-0.2-0.2-0.4-0.3-0.6 0 0-0.1-0.1-0.1-0.1 0-0.1 0.1 0.2 0 0.1q0-0.2-0.1-0.3-0.1-0.2-0.2-0.4-0.3-0.5-0.6-1c-0.4-0.6-0.8-1.2-1.3-1.8-0.5-0.6-1.1-1-1.7-1.3-0.6-0.4-1.1-0.8-1.7-1.1-0.5-0.4-1.1-0.7-1.7-1-0.6-0.2-1.3-0.2-1.6 0.4-0.2 0.5-0.1 1.3 0.4 1.5 0.6 0.3 1.2 0.6 1.8 1 0.5 0.3 1 0.7 1.6 1q0.4 0.3 0.8 0.5c0.2 0.2-0.2-0.1 0 0q0.1 0.1 0.1 0.2 0.2 0.2 0.4 0.4 0.1 0.1 0.2 0.2c0.1 0.2-0.2-0.2 0 0q0.1 0.2 0.3 0.4 0.2 0.4 0.5 0.8 0.2 0.4 0.5 0.9 0.1 0.1 0.1 0.2c0.1 0 0.1 0.1 0.2 0.1q-0.1 0-0.1-0.1 0.1 0.2 0.1 0.3 0.1 0.1 0.2 0.3 0 0 0.1 0.1c0.1 0.2-0.1-0.2 0 0q0.1 0.3 0.2 0.6c0.1 0.1 0.3 0.5 0.1 0.1 0.2 0.2 0-0.2 0 0q0.1 0.2 0.1 0.5c0.1 0.3 0.2 0.5 0.3 0.8q0.2 0.6 0.4 1.1c0.1 0 0.1 0.2 0.1 0.2q0-0.1 0-0.1 0 0 0 0.1 0-0.1 0-0.1 0 0 0 0.1 0 0.1 0 0.2 0 0.5 0 1 0 0.5-0.1 1 0 0.3 0 0.6 0 0.1 0 0.2c0-0.3 0 0 0 0.1q-0.1 0.5-0.3 0.9 0 0 0 0.1 0 0.2 0.1-0.1c0 0-0.1 0.2-0.1 0.2q-0.1 0.2-0.3 0.4-0.1 0.2-0.2 0.4-0.1 0.2-0.1 0.4c0.1-0.3 0 0 0 0q-0.1 0.2-0.3 0.4c0 0.2-0.1 0.4-0.3 0.5q0.1-0.1 0.1-0.1 0 0.1-0.1 0.1-0.1 0.1-0.1 0.2-0.2 0.1-0.3 0.3-0.2 0.3-0.4 0.5c-0.1 0.2 0.2-0.2 0 0q-0.1 0.2-0.2 0.3-0.4 0.3-0.7 0.7-0.2 0.2-0.3 0.3-0.1 0.1-0.2 0.2-0.2 0.1 0-0.1 0 0.1-0.1 0.1-0.8 0.6-1.6 1-0.3 0.1-0.5 0.2c0 0.1-0.3 0.3-0.4 0.2q0.1 0 0.1 0 0 0-0.1 0-0.1 0.1-0.2 0.1-0.3 0.1-0.5 0.2c-0.4 0.1-0.7 0.3-1 0.5 0 0-0.1 0-0.1 0q0.1 0 0.1 0 0 0-0.1 0c0 0-0.2 0-0.2 0.1q0.3-0.1 0.1-0.1-0.1 0-0.2 0c-1.4 0.1-2.9 0-4.3 0q-0.5 0-1 0c-0.3 0 0.2 0 0 0q-0.2 0-0.3 0-0.3-0.1-0.5-0.1-0.4-0.1-0.7-0.1c-0.3-0.1 0.2 0-0.1 0q-0.1 0-0.2-0.1-0.5-0.1-1-0.2-0.2-0.1-0.4-0.2c-0.2-0.1-0.4-0.1-0.5-0.2q0.1 0 0.1 0.1-0.1-0.1-0.1-0.1-0.1 0-0.2-0.1-0.3-0.1-0.5-0.2c-0.5-0.3-1.1-0.6-1.6-1q0 0-0.1 0-0.1-0.1 0.1 0c-0.1 0-0.1-0.1-0.2-0.1q-0.2-0.2-0.3-0.4-0.4-0.3-0.7-0.7-0.3-0.4-0.6-0.7-0.1-0.1-0.2-0.2c0.2 0.2 0 0 0 0q-0.1-0.3-0.3-0.5c-0.3-0.5-0.6-1.1-0.9-1.7q-0.1-0.2-0.2-0.5c-0.1-0.2 0.1 0.2 0 0.1q0-0.1-0.1-0.2-0.1-0.5-0.2-1-0.1-0.5-0.2-1c0-0.1 0-0.3 0 0q0-0.2 0-0.3 0-0.3-0.1-0.6c0-0.6 0.1-1.3 0.1-2q0-0.3 0.1-0.5c0-0.1 0-0.2 0-0.2q0 0 0 0.1 0-0.1 0-0.1 0.1-0.5 0.2-1 0.1-0.2 0.2-0.5 0 0 0-0.1c0.1-0.3-0.1 0.2 0-0.1 0.1 0 0.3-0.4 0.3-0.3q-0.1 0-0.1 0.1 0-0.1 0.1-0.1 0.1-0.2 0.3-0.4c0.2-0.3 0.3-0.5 0.4-0.8q0.3-0.4 0.6-0.8 0.1-0.2 0.2-0.4c0.2-0.2-0.2 0.2 0 0q0.1-0.1 0.2-0.2 0.3-0.4 0.7-0.7 0.3-0.3 0.7-0.6 0-0.1 0.1-0.2c0.1 0 0.3-0.2 0.1 0q0.2-0.2 0.5-0.4 0.3-0.2 0.7-0.4c0.2-0.2-0.2 0 0-0.1q0.1 0 0.2 0 0.4-0.2 0.7-0.3 0.1-0.1 0.2-0.1c-0.2 0 0 0 0.1 0q0.2-0.1 0.4-0.2c0.3-0.1 0.7-0.2 1-0.3q0.2-0.1 0.4-0.1c0 0 0.3-0.1 0 0q0.2 0 0.4-0.1 0.3 0 0.5-0.1 0.1 0 0.3 0c0 0 0.4-0.1 0.1 0 0.1-0.1 0.3-0.1 0.5-0.1q0.3 0 0.5 0 0.6 0 1.2 0 1 0 2 0 0.2 0 0.5 0c0.2 0-0.3-0.1 0 0q0.1 0 0.2 0.1 0.5 0.1 1 0.2 0.2 0.1 0.4 0.1 0.1 0 0.2 0c-0.2 0 0.5 0.1 0.5 0.1q-0.1 0-0.2 0 0.1 0 0.1 0 0.2 0.1 0.3 0.1 0.3 0.1 0.5 0.2 0.2 0 0.3 0.1c0.2 0.1-0.2-0.1-0.1 0-0.2-0.2-0.1-0.1 0-0.1q0 0.1 0.1 0.1c0.4 0.4 0.8 0.6 1.4 0.5 0.6-0.1 1-0.9 0.8-1.4-0.2-0.6-0.8-0.9-1.4-0.8z"/><path class="f" d="m59.5 58.4c-0.5-0.5-1.3-0.5-1.9-0.2-0.3 0.2-0.5 0.4-0.7 0.5-0.4 0.3-0.8 0.5-1.1 0.8-0.3 0.3-0.6 0.6-1 0.9-0.8 0.7-1.5 1.5-2.1 2.4-0.6 0.8-1.1 1.6-1.7 2.4-0.6 0.9-1.1 1.8-1.6 2.7-0.6 0.9-1.1 1.9-1.3 3-0.1 0.5-0.3 1-0.4 1.5q-0.1 0.9-0.2 1.8c-0.1 1.1-0.2 2.2-0.3 3.2 0 1.1 0 2.2 0 3.3q0 0.7 0 1.4c0 0.6 0 1.2 0.3 1.7 0.3 0.6 1 0.9 1.6 0.9q0.3 0 0.6 0 0.3 0 0.7 0.1 0.8 0 1.6 0 0.8 0 1.6 0.1 0.8 0.1 1.6 0.2 0 0 0.1 0 0.1 0-0.1 0c0 0 0.1 0 0.2 0q0.1 0.1 0.3 0.1 0.5 0.1 1 0.1c1.1 0.1 2.2 0 3.4 0q3.3 0 6.6 0 0.8 0 1.6 0c0.6 0 1.1 0 1.6 0 0.6 0 1.1-0.1 1.6-0.2 0.5 0 1.1 0 1.6 0q0.8-0.1 1.6-0.2 0.4 0 0.9-0.1 0.2-0.1 0.4-0.1c0 0 0.1 0 0.1 0q-0.2 0-0.1 0 0.1 0 0.1 0 0.1 0 0.2 0c0.3-0.1-0.4-0.1 0.1 0q0.2 0 0.5 0 0.2 0 0.5-0.1 0 0 0.1 0 0.1 0-0.1 0c0 0 0.2 0 0.2 0q0.2 0 0.4 0 0.2 0 0.4-0.1 0 0 0 0 0.2 0 0 0c0 0 0.2 0 0.3 0q0.2 0 0.4 0 0.5 0 0.9 0 0.2-0.1 0.5-0.1c0.2-0.1-0.1 0-0.1 0 0 0 0.2 0 0.2 0q0-1.1 0-2.3 0 0-0.1 0c-0.5 0.1-1.1 0.5-1.1 1.2 0 0.6 0.5 1.1 1.1 1.1q0.1 0 0.1 0c0.6 0 1.2-0.5 1.1-1.1 0-0.7-0.4-1.1-1.1-1.2-0.3 0-0.6 0.1-0.9 0.2-0.1 0-0.1-0.1 0.1 0-0.1-0.1-0.2 0-0.2 0q-0.2 0-0.4 0-0.4-0.1-0.8 0-0.2 0-0.5 0c-0.2 0.1 0 0 0.1 0q-0.2 0.1-0.3 0.1-0.4 0-0.9 0.1c-0.2 0 0-0.1 0.1 0 0 0-0.2 0-0.2 0-0.2 0 0 0 0.1 0q-0.3-0.1-0.5-0.1c-0.6 0-1.1 0.2-1.6 0.3q-0.1 0-0.2 0c-0.2 0.1 0.2 0 0.1 0q-0.2 0-0.4 0-0.4 0.1-0.8 0.1c-0.5 0-1 0-1.5 0.1-0.5 0-1.1 0.1-1.6 0.1q-0.7 0.1-1.5 0.1c-2.1-0.1-4.2 0-6.4 0q-1.5 0-3.1 0-0.8 0-1.6 0-0.4 0-0.8 0-0.2 0-0.3 0c-0.2 0 0 0 0 0q-0.1 0-0.2-0.1-0.9-0.1-1.7-0.2c-0.5-0.1-1.1-0.1-1.6-0.2-0.5 0-1 0-1.5 0-0.5 0-1-0.1-1.5-0.1q-0.3 0-0.6 0-0.2 0-0.3 0 0 0-0.1 0c-0.2 0 0.3 0.1 0.1 0-0.2 0 0.2 0.1 0.1 0.1-0.1-0.1 0.2 0.1 0.1 0-0.1-0.1 0.2 0.3 0 0.1 0-0.1 0.1 0 0.1 0.1 0-0.1-0.1-0.2-0.1-0.3 0.1 0.2 0 0.2 0 0.1q0-0.1 0-0.2c0-0.4 0-0.9 0-1.3q0-0.8 0-1.6c0-1 0-2 0.2-3.1q0.1-1.5 0.3-3.1 0-0.1 0-0.2c0 0 0-0.2 0 0 0 0.1 0-0.1 0-0.1q0-0.1 0-0.2 0.1-0.4 0.2-0.7c0.1-0.5 0.2-1 0.4-1.5q0-0.1 0-0.2c0.1-0.1 0 0.2 0 0.1q0.1-0.2 0.2-0.4 0.2-0.3 0.3-0.6 0.4-0.7 0.8-1.3 0.4-0.7 0.8-1.3 0.4-0.6 0.8-1.2 0.4-0.6 0.8-1.2 0.2-0.3 0.4-0.6 0.1-0.1 0.2-0.3c0.1-0.1 0 0 0 0.1q0-0.1 0.1-0.2 0.5-0.6 1-1.1c0.3-0.3 0.7-0.6 1-0.9q0.3-0.2 0.5-0.4 0-0.1 0.1-0.1c0.1-0.1-0.1 0-0.1 0q0.1 0 0.3-0.1 0.3-0.3 0.7-0.5 0.1-0.1 0.2-0.1c0-0.1 0.1-0.1 0.2-0.1 0 0-0.3 0.1-0.2 0 0.2 0-0.2 0-0.2 0 0.2 0-0.2 0-0.2 0q-0.1 0-0.2-0.1-0.2-0.2-0.1-0.1c0.4 0.4 1.2 0.4 1.6 0 0.4-0.4 0.4-1.1 0-1.6z"/><path class="f" d="m76.7 60.9c0.1 0 0.1 0 0.2 0 0 0-0.3 0-0.2 0 0.1 0 0.2 0.1 0.2 0.1 0 0-0.2-0.2-0.1-0.1q0 0 0.1 0.1 0.1 0 0.2 0.1c0.1 0.1-0.2-0.2 0 0q0 0 0.1 0.1 0.2 0.2 0.3 0.4c0.5 0.5 1 1 1.5 1.5 0 0 0.1 0.1 0 0-0.1-0.1 0 0 0 0.1q0.1 0 0.1 0.1 0.2 0.3 0.3 0.5c0.2 0.4 0.4 0.8 0.7 1-0.1-0.1-0.1-0.1 0 0q0 0 0 0.1 0.1 0.1 0.2 0.2c0 0.2-0.1-0.2 0 0q0 0.1 0.1 0.3 0.1 0.4 0.3 0.9 0.1 0.2 0.2 0.5c0 0.1-0.1-0.2-0.1-0.1q0 0.1 0.1 0.2 0.1 0.3 0.1 0.6 0.1 0.3 0.1 0.6 0.1 0.2 0.2 0.4 0.1 0 0.1 0.1c0.1 0.2 0 0.1 0-0.3 0 0.3 0.1 0.6 0.3 0.8 0.2 0.2 0.5 0.3 0.8 0.3 0.5 0 1.2-0.5 1.1-1.1 0-0.3-0.1-0.6-0.3-0.9 0 0-0.1-0.1 0 0 0.1 0.2 0 0.1 0 0q0-0.1-0.1-0.3-0.1-0.7-0.4-1.4c0 0 0-0.2 0.1 0.1q-0.1 0-0.1-0.1 0-0.1-0.1-0.2 0-0.3-0.1-0.6c-0.2-0.4-0.3-0.8-0.5-1.2q-0.1-0.1-0.2-0.2c0.1 0.1-0.3-0.3-0.3-0.4 0 0.1 0.2 0.3 0.1 0.1q-0.1-0.1-0.1-0.1-0.1-0.1-0.2-0.3-0.3-0.5-0.7-1c-0.5-0.7-1-1.2-1.6-1.8-0.6-0.7-1.4-1.3-2.4-1.3-0.5 0-1.1 0.5-1.1 1.1 0 0.6 0.5 1.1 1.1 1.1z"/><path class="f" d="m57.8 57.9c-0.6 0-1.2 0.2-1.6 0.5-0.2 0.1-0.5 0.3-0.6 0.4 0.1-0.1 0.1-0.1 0 0q-0.1 0-0.1 0.1-0.3 0.2-0.5 0.3c-0.4 0.3-0.7 0.7-1 1q-0.2 0.3-0.4 0.5-0.1 0.1-0.2 0.2-0.1 0.2-0.2 0.3c0.1-0.2 0 0-0.1 0q-0.2 0.2-0.4 0.4-0.2 0.3-0.4 0.7-0.3 0.6-0.7 1.2c-0.4 0.9-0.9 1.7-1.3 2.6q-0.4 0.6-0.7 1.3c-0.2 0.5-0.5 1-0.6 1.5-0.4 0.8-0.4 1.7-0.6 2.6-0.2 0.5-0.3 1.1-0.3 1.6q0 0.2 0 0.4c0 0.2 0-0.1 0-0.1q0 0.1 0 0.2-0.1 0.4-0.1 0.9 0 1.5 0 3.1 0 1.5 0 3.1 0 0.7 0 1.5c0 0.6 0 1.2 0.5 1.7 0.4 0.4 0.9 0.5 1.4 0.5q0.8 0 1.6 0c1 0 2-0.1 3 0q0.3 0.1 0.7 0.1 0 0 0.1 0c0.2 0.1 0 0 0 0q0.2 0.1 0.4 0.1 0.8 0.1 1.5 0.3c1.1 0.2 2.1 0.3 3.2 0.4q1.5 0.2 3 0.3c1 0 2-0.1 3-0.1q3.1 0 6.2 0 0.8 0 1.5 0c0.5 0 1 0.1 1.5 0 1-0.1 2-0.1 3-0.1q0.7 0 1.5 0c0.6 0 1.1-0.5 1.1-1.1 0-0.6-0.5-1.1-1.1-1.1-1 0-2-0.1-3 0q-0.7 0-1.4 0.1c-0.5 0-0.9 0-1.4 0q-3 0-5.9 0-1.5 0-3 0c-1 0-2 0-2.9 0-1-0.1-2-0.2-2.9-0.3q-0.4-0.1-0.7-0.1-0.1 0-0.2 0c-0.2-0.1 0.1 0 0.1 0 0 0-0.4-0.1-0.5-0.1q-0.7-0.1-1.4-0.3c-1-0.1-2-0.3-3.1-0.4-0.9 0-1.9 0-2.8 0-0.5 0-0.9 0-1.4 0.1-0.1 0 0.2 0 0.2 0-0.2 0 0.1 0.1 0.1 0.1q0.2 0 0.3 0.2c0.1 0.2 0.1 0.2 0 0.1 0-0.2 0 0.1 0 0.1q0-0.1 0-0.1 0-0.2 0-0.4c0.1-1 0.1-1.9 0-2.9q0-1.5 0-3 0-0.7 0-1.4 0-0.2 0-0.4 0-0.1 0-0.2c0.1-0.2 0 0.1 0 0.1 0.1-0.1 0.1-0.2 0.1-0.4q0-0.2 0.1-0.5 0-0.4 0-0.7c0-0.2 0 0.1 0 0.1 0 0 0-0.2 0-0.2q0-0.2 0.1-0.4 0.1-0.6 0.2-1.3 0.1-0.6 0.3-1.2c0-0.1 0.1-0.3 0.1-0.4 0 0-0.1 0.3 0 0.1q0-0.1 0.1-0.1 0.1-0.4 0.3-0.7c0.4-0.8 0.8-1.7 1.2-2.5 0.4-0.8 1-1.6 1.4-2.4q0.1-0.3 0.2-0.5 0-0.1 0.1-0.2c0.1-0.1 0 0.1-0.1 0.1 0.1 0 0.2-0.2 0.3-0.2q0.1-0.1 0.2-0.2 0-0.1 0.1-0.1 0-0.1 0.1-0.2 0.1-0.2 0 0c0.1-0.1 0.3-0.3 0.4-0.5 0.3-0.3 0.6-0.6 0.9-0.9q0.1-0.1 0.1-0.2c0.1 0 0.2-0.1 0.1 0-0.2 0.1 0 0 0 0q0.1-0.1 0.1-0.1 0.4-0.2 0.7-0.5c0.2-0.2-0.2 0.1 0 0q0 0 0.1-0.1 0 0 0.1 0c0 0 0.2-0.1 0 0-0.1 0 0 0 0.1 0q0-0.1 0.1-0.1c0 0 0.2 0 0 0-0.2 0 0 0 0.1 0 0.5 0 1.1-0.5 1.1-1.1 0-0.6-0.5-1.1-1.1-1.1z"/><path class="f" d="m57.2 58c-0.4 0-0.7 0-1.1 0.2q-0.2 0.1-0.4 0.3c-0.5 0.2-0.9 0.4-1.3 0.8-0.3 0.2-0.5 0.5-0.8 0.8q0 0.1-0.1 0.1c0 0-0.1 0.1 0 0q0 0 0.1 0-0.1 0-0.1 0-0.1 0.1-0.1 0.1-0.4 0.3-0.7 0.6-0.2 0.3-0.5 0.6 0 0.1 0 0.1c-0.1 0.2 0 0 0 0 0 0-0.2 0.2-0.2 0.2q-0.6 0.5-1 1.2-0.3 0.5-0.7 1.1-0.2 0.3-0.4 0.6-0.1 0.1-0.2 0.3c0 0-0.1 0.2-0.1 0.3 0-0.2 0.1-0.2 0-0.1q0 0-0.1 0.1-0.1 0.1-0.2 0.2-0.2 0.3-0.4 0.7c-0.2 0.2-0.2 0.5-0.3 0.7 0 0.3-0.1 0.5-0.2 0.7q-0.1 0.3-0.2 0.7-0.1 0.3-0.2 0.7-0.2 0.6-0.3 1.3c-0.2 1.1-0.4 2.1-0.6 3.1-0.1 1-0.1 1.9-0.1 2.9q0 0.8 0 1.6 0 0.9 0.2 1.8 0 0.3 0.1 0.5c0 0 0 0.1 0 0.1q0-0.2 0-0.1 0 0.1 0 0.2 0 0.3 0 0.7 0 0.4 0.1 0.8 0 0.2 0 0.4 0 0 0 0.1 0 0.1 0-0.1c0.1 0.1 0 0.3 0 0.4 0 0.6 0.5 1.1 1.2 1.1 0.6 0 1.1-0.5 1.1-1.1q0-0.4-0.1-0.9c0-0.2 0 0.1 0 0.1q0-0.1 0-0.2 0-0.2 0-0.4 0-0.7-0.1-1.5-0.1-0.3-0.2-0.6 0-0.2 0-0.4 0-0.1 0-0.2c0 0.3 0 0.1 0 0q-0.1-0.7-0.1-1.4c0-0.9 0-1.8 0.1-2.8q0-0.3 0-0.6 0-0.2 0.1-0.4c0-0.2 0 0 0 0.1 0-0.1 0-0.2 0-0.3q0.1-0.6 0.2-1.3 0.2-0.7 0.4-1.4c0.1-0.5 0.2-0.9 0.3-1.3q0.1-0.7 0.4-1.3 0.1-0.3 0.1-0.6 0.1-0.1 0.1-0.2c0-0.1 0 0.1-0.1 0.1 0.1 0 0.2-0.3 0.1-0.1-0.1 0.1 0.1-0.1 0.1-0.1q0.1-0.1 0.2-0.2 0.3-0.4 0.5-0.7 0.3-0.6 0.7-1.2c0.3-0.3 0.5-0.7 0.7-1.1 0.1-0.1 0 0 0 0.1 0 0 0.1-0.1 0.1-0.1q0.1-0.1 0.2-0.2 0.2-0.2 0.4-0.5 0.2-0.2 0.3-0.4 0.1-0.1 0.1-0.1 0-0.1 0.1-0.1 0-0.1-0.1 0.1c0 0 0.4-0.5 0.5-0.5 0 0-0.3 0.2-0.1 0.1q0.1-0.1 0.1-0.1 0.2-0.2 0.4-0.3c0.2-0.2 0.3-0.3 0.4-0.5 0.2-0.2 0.4-0.3 0.5-0.5 0 0-0.2 0.2 0 0.1q0.1-0.1 0.1-0.1 0.2-0.1 0.3-0.2 0.3-0.2 0.6-0.3c0-0.1 0.2-0.1 0.2-0.2q-0.1 0-0.1 0.1-0.4 0-0.1 0 0.1 0 0.2 0c0.6 0 1.1-0.5 1.1-1.1 0-0.6-0.5-1.1-1.1-1.1z"/><path class="f" d="m78.2 61q0.2 0 0.3 0c0 0 0.3 0 0.1 0q-0.1 0 0 0-0.2 0-0.3-0.2 0.1 0.1 0.1 0.1-0.2-0.2-0.1-0.1c0.2 0.4 0.4 0.7 0.8 0.9q0.4 0.4 0.7 0.8 0.1 0.1 0.2 0.2 0 0 0.1 0.1 0.1 0.1 0-0.1c0.1 0.1 0.2 0.3 0.3 0.5q0 0.1 0.1 0.2c0.1 0.3-0.1-0.2 0 0.1q0.2 0.3 0.3 0.7 0.1 0.2 0.3 0.4c0 0.1 0.2 0.3 0 0.1q0.1 0.1 0.1 0-0.1-0.2 0 0 0 0.2 0 0.4 0 0.2 0-0.1 0 0.1 0 0.2 0 0.4 0.1 0.8c0.1 0.5 0.3 0.8 0.5 1.2q0-0.6 0-1.2 0 0.1 0 0.1c-0.4 0.5-0.2 1.3 0.4 1.6 0.5 0.3 1.1 0.1 1.5-0.4q0-0.1 0.1-0.1c0.2-0.4 0.1-0.8 0-1.2q-0.2-0.2-0.3-0.4-0.1-0.2 0 0 0 0 0-0.1 0 0.3 0 0.1 0-0.1 0-0.2-0.1-0.4-0.1-0.8 0-0.1 0 0.1 0-0.1 0-0.2 0-0.2-0.1-0.5c-0.1-0.3-0.2-0.4-0.4-0.6q-0.1-0.2-0.1-0.3-0.1-0.2 0 0 0 0-0.1-0.1c-0.1-0.4-0.3-0.8-0.6-1.2-0.5-0.7-1-1.3-1.7-1.8q-0.1-0.2 0.1 0.1-0.1-0.1-0.1-0.2-0.1-0.1-0.1-0.2-0.2-0.3-0.5-0.5-0.4-0.4-1-0.4-0.3 0-0.6 0c-0.5 0-1.1 0.5-1.1 1.1 0 0.6 0.5 1.1 1.1 1.1z"/><path class="f" d="m78.3 61.7c0.6 0.7 1.3 1.4 2 2.1q0.2 0.2 0.4 0.5 0.2 0.1 0.3 0.2c0 0.1 0.2 0.2 0.2 0.3 0-0.1-0.1-0.2 0-0.1q0 0.1 0.1 0.2 0.1 0.1 0.1 0.3 0.2 0.3 0.4 0.6 0 0.1 0 0.2c0.1 0.2 0-0.2 0 0q0.1 0.1 0.2 0.3 0.1 0.4 0.2 0.7 0.2 0.7 0.4 1.4 0.2 0.7 0.4 1.5 0 0.3 0.1 0.7c0 0.1 0 0.2 0-0.1q0 0.1 0 0.2 0 0.2 0 0.4c0.1 1 0.1 2 0.2 3.1q0 0.8 0.1 1.5 0.1 0.8 0.1 1.5c0 1.1-0.1 2.1 0 3.2q0 0.3 0 0.7 0 0.2 0 0.3c0 0.3 0 0 0 0 0 0-0.1 0.2-0.1 0.2q-0.1 0.4-0.1 0.9 0 0 0 0 0 0.2 0.1-0.1c0 0.1-0.1 0.4-0.1 0.4q0 0.2 0 0.4 0 0 0 0.1c-0.1 0.3 0-0.2 0 0q-0.1 0.1-0.1 0.1c0 0.3 0.1-0.2 0 0q0 0.1 0 0.1c0 0.1-0.1 0.1 0.1-0.1 0.1-0.1 0.2-0.2 0.4-0.2-0.2 0 0.2 0 0 0q-0.4 0-0.8-0.1-0.2 0-0.4 0c0.3 0.1 0.1 0 0 0q-0.1 0-0.2 0c-1.1-0.2-2.4-0.7-3.3 0.1-0.5 0.4-0.5 1.2 0 1.6 0.4 0.5 1.1 0.4 1.5 0q0 0.1-0.1 0.2-0.3 0.1-0.2 0c0 0 0.1 0 0.1 0 0.1 0-0.3 0-0.1 0q0.1 0 0.1 0 0.3 0 0.6 0 0 0 0.1 0c-0.3 0.1-0.2 0-0.1 0q0.2 0.1 0.4 0.1 0.4 0.1 0.8 0.2c0.5 0.1 1.1 0.1 1.7 0.1 0.4 0 0.8-0.1 1.1-0.4 0.1-0.2 0.2-0.3 0.3-0.5 0.2-0.4 0.2-0.7 0.3-1.1q0-0.1 0-0.3c0-0.1 0.1-0.5 0-0.1q0.1-0.3 0.1-0.6c0 0 0-0.2 0-0.2 0 0-0.1 0.3 0 0.1q0.1-0.5 0.1-1c0.1-0.5 0-1 0-1.5q0-0.9 0-1.7c0-0.5 0-1 0-1.5 0-0.6-0.1-1.1-0.1-1.7-0.1-1-0.1-2.1-0.2-3.1-0.1-2.1-0.5-4.2-1.3-6.2-0.2-0.6-0.5-1.2-0.8-1.7q-0.5-0.8-1.1-1.4c-0.4-0.4-0.8-0.7-1.2-1.1-0.4-0.4-0.7-0.9-1.1-1.3-0.5-0.4-1.2-0.4-1.6 0-0.4 0.5-0.5 1.2 0 1.6z"/><path class="f" d="m81.4 67q0 0.5 0.1 1 0.1 0.1 0.1 0.3c0 0 0 0.2 0 0.2q0-0.1 0-0.2 0 0.1 0 0.2 0.1 0.9 0.2 1.8c0 0 0.1 0.2 0 0.1 0-0.2 0 0 0 0.1q0.1 0.1 0.1 0.3c0 0.3-0.1 0.6 0 0.9 0 0.6 0.1 1.2 0.1 1.7q0.1 0.4 0.2 0.8 0 0 0 0 0 0.2 0 0c0 0 0 0.1 0 0.1q0 0.3 0 0.5 0 0.8 0 1.6 0 1.8 0 3.5 0 0.9 0 1.9 0 0.2 0 0.3 0 0.1 0 0.2 0 0.1 0 0.1 0-0.2 0-0.1c-0.1 0.4-0.1 0.7-0.1 1 0 0.6 0.5 1.2 1.1 1.2 0.6-0.1 1.1-0.5 1.1-1.2q0-0.1 0-0.2c0-0.1 0.1-0.1 0 0.1q0.1-0.1 0.1-0.3c0.1-0.3 0.1-0.7 0-1q0-0.8 0-1.6 0-1.7 0-3.4 0-0.9 0-1.7c0-0.6 0-1.2-0.1-1.8q0-0.2-0.1-0.4c0 0 0-0.1 0-0.2 0.1 0.1 0 0.2 0 0.1q0-0.4-0.1-0.8c0-0.6 0-1.1 0-1.6q-0.1-0.6-0.2-1.2 0 0 0-0.1c0-0.3 0 0.2 0 0q0-0.3 0-0.5 0-0.6-0.2-1.1 0-0.2 0-0.4c0 0-0.1-0.1-0.1-0.1q0.1 0.3 0 0.1 0-0.1 0-0.2c0-0.6-0.5-1.1-1.1-1.1-0.6 0-1.1 0.5-1.1 1.1z"/><path class="f" d="m81.2 82.7q0 0-0.1 0 0.3 0.9 0.5 1.9 0.1-0.1 0.1-0.1-0.1 0.1-0.2 0.2 0-0.1 0.1-0.1-0.1 0.1-0.3 0.1 0.1 0 0.2 0-0.1 0-0.3 0c0.3 0 0.7 0 1-0.1q0.2-0.1 0.5-0.3 0.2-0.1 0.3-0.2-0.1 0.1-0.2 0.2 0.1-0.1 0.2-0.1-0.2 0-0.3 0 0 0 0.1 0 0-1.1 0-2.2-0.3 0-0.6 0.1-0.2 0-0.5 0.1c-0.3 0.1-0.5 0.3-0.8 0.5-0.3 0.2-0.4 0.6-0.4 1q0 0.1 0 0.3 0.1 0.2 0.2 0.4c0.2 0.2 0.4 0.3 0.6 0.4 0.2 0 0.5 0.1 0.8 0q0.3 0 0.5 0-0.1 0-0.3 0 0.1 0 0.2 0-0.1 0-0.3-0.1 0.1 0 0.1 0-0.1-0.1-0.2-0.1 0 0 0 0-0.1-0.1-0.2-0.2 0.1 0 0.1 0-0.1-0.1-0.2-0.3 0.1 0 0.1 0.1-0.1-0.2-0.1-0.3 0 0 0 0 0-0.1 0.1-0.3 0 0-0.1 0.1 0.1-0.2 0.2-0.3-0.1 0-0.1 0.1 0.1-0.2 0.2-0.3-0.1 0.1-0.1 0.1 0.1-0.1 0.2-0.1-0.1 0-0.2 0.1 0.1-0.1 0.3-0.1-0.2 0-0.3 0 0.2 0 0.3 0-0.1 0-0.2 0 0.1 0 0.3 0-0.3 0-0.5-0.1-0.3 0-0.6-0.1-0.2 0-0.4 0c-0.4 0-0.6 0.1-0.9 0.2q-0.1 0.1-0.2 0.2-0.2 0.1-0.3 0.4-0.1 0.3 0 0.7c0.1 0.4 0.4 0.7 0.9 0.8 0.2 0.1 0.5 0.1 0.8 0 0.2 0 0.4-0.2 0.6-0.2q-0.1 0-0.3 0c0.2 0 0.4 0.1 0.6 0.1q0.1 0 0.1 0 0.2 0 0.4-0.1c0.3-0.1 0.5-0.2 0.7-0.4 0.2-0.2 0.3-0.5 0.3-0.8 0-0.3-0.1-0.6-0.3-0.8-0.2-0.2-0.5-0.3-0.8-0.3-0.3 0-0.6 0.1-0.8 0.3q0 0.1 0 0.1 0.1-0.1 0.2-0.2 0 0-0.1 0.1 0.2-0.1 0.3-0.2-0.1 0.1-0.1 0.1 0.1 0 0.3-0.1-0.3 0.1-0.5 0-0.3 0-0.6 0.1c-0.3 0-0.5 0.1-0.7 0.2q0.1 0 0.3-0.1-0.1 0-0.1 0 0.1 0.1 0.3 0.1-0.1 0-0.1 0 0.1 0 0.3 0.1 0 0-0.1 0 0.2 0.1 0.3 0.1 0 0 0 0 0 0.1 0.1 0.3 0-0.1 0-0.1 0.1 0.2 0.1 0.3 0 0 0 0-0.2 0.6-0.5 1.2 0 0 0 0-0.1 0.1-0.2 0.2 0.1-0.1 0.1-0.1-0.1 0-0.3 0 0.3 0 0.6 0.1-0.1-0.1-0.3-0.1c0.4 0.1 0.8 0.2 1.2 0.2 0.7 0 1.3-0.3 1.7-0.8 0.1-0.3 0.2-0.7 0.1-1.1-0.1-0.4-0.5-0.7-0.9-0.9q-0.4-0.1-0.8 0-0.3 0-0.5 0 0.1 0 0.3 0-0.1 0-0.2 0 0.4 0.5 0.8 1.1 0 0 0 0 0 0.1 0 0.3 0-0.1 0-0.1-0.1 0.1-0.1 0.3 0-0.1 0-0.1-0.1 0.1-0.2 0.2 0.1 0 0.1 0-0.1 0-0.2 0.1 0.1-0.1 0.3-0.1-0.1 0-0.3 0.1 0.3-0.1 0.6-0.2-0.1 0-0.3 0 0.1 0 0.2 0c0.3 0 0.6-0.1 0.8-0.3 0.2-0.2 0.3-0.5 0.3-0.8 0-0.3-0.1-0.6-0.3-0.8q-0.4-0.3-0.8-0.3-0.1 0-0.1 0-0.2 0-0.4 0.1-0.3 0-0.5 0.2-0.3 0.1-0.5 0.2 0.1 0 0.3-0.1-0.2 0.1-0.3 0.1 0.2 0 0.3-0.1-0.4 0.1-0.7 0.1c-0.3 0.1-0.6 0.3-0.9 0.5-0.2 0.3-0.4 0.7-0.3 1.1 0.2 0.4 0.5 0.6 0.8 0.8q0.1 0 0.1 0c0.3 0.1 0.6 0 0.9-0.1 0.2-0.2 0.4-0.4 0.5-0.7 0-0.3 0-0.6-0.1-0.9q-0.3-0.3-0.7-0.5z"/><path class="f" d="m54.3 0.8q-0.5-0.1-1.1-0.1-0.5 0-1.1 0-0.5 0-1 0-0.6 0-1.3 0.2-1 0.2-2 0.5-0.4 0.2-0.9 0.3c-0.4 0.1-0.7 0.2-1.1 0.4-0.2 0.1-0.4 0.3-0.7 0.4q-0.5 0.3-1 0.6-0.4 0.2-0.8 0.4c-0.4 0.2-0.7 0.5-1 0.7-0.4 0.5-0.9 1-1.4 1.4-0.2 0.1-0.4 0.3-0.6 0.5-0.3 0.3-0.4 0.7-0.6 1-0.7 1.3-1.2 2.5-1.6 3.9-0.2 0.7-0.3 1.5-0.4 2.2q-0.1 1.1 0.1 2.1 0.1 1.2 0.4 2.3c0.2 0.7 0.3 1.4 0.6 2 0.3 0.6 0.7 1.1 1.2 1.5 0.5 0.5 0.9 0.9 1.4 1.4q0.9 0.7 1.8 1.4 0.9 0.6 1.7 1.3c1.1 0.7 2.5 1.3 3.8 1.5 0.7 0.1 1.5 0.1 2.3 0.2 0.6 0 1.3 0.1 2 0.1 0.7 0 1.4-0.1 2-0.2q0.6-0.2 1.1-0.4 0.2-0.1 0.4-0.2 0.1-0.1 0.2-0.1c0.1-0.1 0.4-0.3 0.1-0.1 0.1-0.1 0.3-0.1 0.4-0.2q0.3 0 0.5-0.1 0.6-0.2 1.1-0.6c0.6-0.3 1.2-0.8 1.7-1.3q1.5-1.4 2.6-3.1c0.4-0.6 0.7-1.2 0.9-1.9 0.1-0.6 0.3-1.2 0.5-1.8q0.3-1.2 0.4-2.4c0.1-0.7-0.1-1.3-0.1-2 0-0.8-0.1-1.6-0.2-2.4-0.2-0.6-0.4-1.2-0.7-1.9-0.4-1.2-1.1-2.5-2.1-3.4q-0.5-0.3-0.9-0.7-0.1 0-0.2-0.1c0.2 0.2 0 0 0 0q-0.2-0.2-0.4-0.4-0.4-0.4-0.8-0.7c-0.3-0.2-0.7-0.3-1.1-0.4q-0.4-0.2-0.9-0.3 0 0 0 0-0.2-0.1 0 0c0 0-0.1-0.1-0.2-0.1q-0.1-0.1-0.2-0.1 0-0.1-0.1-0.1 0.2 0.1 0.1 0c-0.5-0.3-0.9-0.7-1.4-0.9-0.3-0.1-0.7-0.1-1 0-0.5 0.2-0.9 0.7-0.9 1.3 0.1 0.6 0.5 1.1 1.2 1.1 0.5 0 1.1-0.5 1.1-1.1q0 0 0-0.1-0.1 0.7-0.7 1-0.3 0-0.5 0 0.1 0 0.1 0c0.1 0 0.2 0.1-0.1-0.1q0.1 0.1 0.2 0.1c0.1 0.1 0.3 0.3 0 0q0.4 0.3 0.8 0.6c0.3 0.2 0.6 0.4 1 0.5q0.4 0.2 0.8 0.3 0.2 0.1 0.4 0.1 0.1 0.1 0.1 0.1-0.2-0.1 0 0 0.1 0 0.1 0 0 0.1 0.1 0.1 0.1 0.1-0.1-0.1c0 0 0.2 0.2 0.2 0.2q0.1 0.1 0.2 0.2 0.5 0.4 0.9 0.8 0.2 0.1 0.4 0.3c0 0 0.3 0.1 0.3 0.2q0-0.1-0.1-0.1 0.1 0 0.1 0.1 0.1 0.1 0.2 0.1 0.1 0.2 0.3 0.4c0 0 0.1 0.1 0.1 0.1q0 0-0.1-0.1 0.1 0.1 0.1 0.1 0.1 0.2 0.2 0.4 0.3 0.4 0.5 0.8 0 0 0 0.1c0.1 0.1 0.2 0.1 0 0 0.1 0.1 0.1 0.3 0.2 0.4q0.1 0.5 0.3 1 0.2 0.4 0.3 0.9 0 0.2 0.1 0.4 0 0.1 0 0.3c0.1 0.3 0-0.2 0 0q0.1 0.5 0.1 1 0 0.5 0.1 1 0 0.5 0 1 0 0.2 0 0.4c0-0.3 0 0-0.1 0q0 0.2 0 0.4-0.2 0.9-0.5 1.9-0.2 0.4-0.3 0.8 0 0.2-0.1 0.4c0 0.1-0.1 0.5-0.1 0.5q0-0.1 0.1-0.2-0.1 0.1-0.1 0.2-0.1 0.1-0.1 0.2-0.1 0.1-0.2 0.3-0.3 0.4-0.5 0.8-0.2 0.2-0.3 0.4 0 0-0.1 0-0.1 0.2 0.1 0-0.1 0-0.1 0.1-0.3 0.4-0.7 0.7-0.6 0.7-1.3 1.3-0.1 0.1-0.2 0.1c-0.1 0.1 0.2-0.1 0 0q-0.2 0.2-0.4 0.3c-0.2 0.1-0.5 0.4-0.8 0.4 0.3 0 0.1 0 0 0q-0.1 0.1-0.2 0.1-0.2 0.1-0.4 0.2-0.5 0.2-1 0.4-0.3 0.1-0.5 0.2c-0.2 0.1 0.2 0 0.1 0q-0.1 0.1-0.2 0.1-0.4 0.1-0.9 0.2c-0.2 0.1 0.3 0 0 0q-0.1 0-0.2 0-0.2 0-0.5 0.1-0.5 0-1 0c-0.6-0.1-1.2-0.2-1.8-0.2q-0.5 0-0.9-0.1-0.1 0-0.3 0c-0.3 0 0.3 0 0 0q-0.2-0.1-0.5-0.1-0.4-0.1-0.9-0.3-0.2 0-0.4-0.1-0.1-0.1-0.2-0.1c-0.2-0.1 0.2 0.1 0 0-0.6-0.3-1.1-0.6-1.6-1-0.5-0.4-1.1-0.8-1.6-1.2 0.3 0.2-0.1-0.1-0.1-0.1q-0.2-0.2-0.4-0.3-0.4-0.3-0.8-0.7-0.6-0.6-1.3-1.2-0.1-0.2-0.3-0.3-0.1-0.1-0.1-0.2c-0.2-0.1 0 0.1 0 0.1 0 0-0.2-0.4-0.2-0.4-0.1-0.2 0.1 0.3 0 0q0-0.1-0.1-0.2c-0.2-0.6-0.3-1.2-0.4-1.8q-0.1-0.5-0.2-0.9-0.1-0.2-0.1-0.5c0 0-0.1-0.3 0 0q0-0.2 0-0.3-0.1-0.5-0.1-1 0-0.2 0-0.5 0-0.1 0-0.2c0 0 0.1-0.4 0-0.1 0.1-0.3 0.2-0.6 0.2-0.9q0.1-0.5 0.3-0.9 0.1-0.5 0.2-0.9c0.1-0.3 0.2-0.6 0.4-0.9-0.2 0.3-0.1 0.1 0 0q0-0.1 0.1-0.2 0.1-0.2 0.2-0.4 0.2-0.4 0.4-0.9 0.1-0.1 0.2-0.3 0 0 0 0 0.1-0.2 0 0c0 0 0.1-0.1 0.1-0.2 0.3-0.2 0.5-0.3 0.7-0.5 0.5-0.4 0.9-0.9 1.3-1.3 0.1 0 0.2-0.1 0.2-0.1q0 0-0.1 0 0.1 0 0.1 0 0.2-0.1 0.4-0.2 0.4-0.2 0.8-0.5 0.5-0.2 0.9-0.5 0.1-0.1 0.3-0.2c0.1 0 0.4-0.2 0.4-0.2 0 0-0.2 0.1 0 0q0.1 0 0.2 0 0.2-0.1 0.4-0.2 0.5-0.1 1-0.3 0.9-0.3 1.8-0.5 0.3 0 0.5-0.1c0 0-0.3 0.1 0 0q0.1 0 0.2 0 0.5 0 1 0 0.5 0 1 0c0 0 0.4 0.1 0.4 0.1q-0.1 0-0.1-0.1 0 0.1 0.1 0.1 0.1 0 0.2 0c0.3 0 0.6 0.1 0.9-0.1 0.2-0.1 0.5-0.4 0.5-0.7 0.1-0.5-0.2-1.3-0.8-1.4z"/><path class="f" d="m57.3 2.1c0.2 0 0.4 0 0.6 0 0 0.1 0.2 0.2 0.2 0.2 0 0-0.1-0.1-0.1-0.1q-0.2-0.2-0.5-0.4c-0.3-0.2-0.8-0.3-1.1-0.4q-0.3-0.1-0.5-0.2-0.2 0-0.4 0c-0.1 0-0.2-0.1-0.1 0 0.2 0 0.1 0 0-0.1q-0.4-0.1-0.9-0.2c-0.4-0.1-0.8-0.2-1.3-0.2-0.3-0.1-0.6 0-1 0q-1.1 0-2.2 0c-0.8 0-1.6 0-2.4 0.1q-0.2 0.1-0.5 0.1c-0.2 0.1 0.2 0 0 0q-0.3 0.1-0.5 0.1c-0.3 0.1-0.6 0.2-0.9 0.3q-0.5 0.1-1 0.3-0.3 0.1-0.7 0.3-0.1 0-0.2 0.1c0 0-0.1 0.1 0 0 0.2-0.1 0 0 0 0-0.4 0.2-0.8 0.3-1.1 0.5q-0.4 0.3-0.9 0.7c-0.6 0.4-1.1 0.9-1.6 1.4q-0.8 0.8-1.4 1.8-0.3 0.4-0.5 0.8c-0.1 0.1-0.2 0.3-0.2 0.4 0 0 0.1-0.2 0-0.1q0 0 0 0.1-0.2 0.2-0.3 0.4c-0.5 0.5-0.7 1.3-0.9 2q-0.1 0.6-0.2 1.2c0 0.3 0 0.7 0 1-0.1 0.8-0.2 1.5-0.1 2.2 0.1 0.8 0.2 1.5 0.4 2.3 0.1 0.7 0.5 1.4 0.8 2.1 0.3 0.6 0.6 1.1 0.9 1.7 0.4 0.6 0.9 1.2 1.4 1.8 0.5 0.5 1.1 1 1.7 1.5 0.5 0.3 1.1 0.6 1.7 0.9 0.7 0.4 1.4 0.6 2.1 0.9q0.5 0.1 1 0.2 0.4 0.1 0.7 0.1 0.1 0 0.1 0c0.2 0-0.1 0-0.1 0q0.2 0 0.3 0.1 1.2 0.2 2.3 0.2 1.2 0 2.3 0c0.7 0 1.5 0 2.2 0q0.7-0.1 1.3-0.5 0.2-0.1 0.4-0.2c0 0 0.1 0 0.1-0.1 0 0-0.2 0.1 0 0.1q0-0.1 0.1-0.1c0.4-0.1 0.8-0.2 1.1-0.4q0.5-0.2 0.9-0.4c0.6-0.3 1.3-0.8 1.8-1.2q0.8-0.6 1.5-1.5 0.3-0.2 0.5-0.5 0.1-0.1 0.1-0.2c0.1-0.1 0 0 0 0q0 0 0.1-0.1c0.2-0.3 0.5-0.6 0.7-0.9q0.3-0.4 0.5-0.9 0.1-0.2 0.2-0.4c0-0.1 0 0.1 0 0.1q0 0 0-0.1 0.1-0.2 0.3-0.4c0.3-0.7 0.5-1.3 0.6-2.1q0.2-1.1 0.2-2.3 0-0.5 0-1 0-0.8-0.3-1.4c0-0.1-0.1-0.3-0.2-0.4 0 0 0.1 0.2 0.1 0.1q0 0-0.1-0.1 0-0.1 0-0.2c-0.1-0.4-0.3-0.7-0.3-1q-0.1-0.2-0.1-0.4-0.1-0.2-0.2-0.4c-0.1-0.1-0.2-0.2-0.3-0.4q0.1 0.1 0.2 0.2c0 0.2 0 0.1 0 0q-0.1-0.1-0.1-0.2c-0.1-0.2-0.2-0.4-0.3-0.6 0 0-0.1-0.1-0.1-0.2 0 0 0.1 0.3 0 0.2q0-0.2-0.1-0.3-0.1-0.3-0.3-0.5-0.3-0.4-0.5-0.9c-0.4-0.6-0.8-1.2-1.3-1.8-0.5-0.6-1.1-1-1.7-1.4-0.6-0.3-1.1-0.7-1.7-1.1-0.5-0.3-1.2-0.6-1.7-0.9-0.6-0.2-1.3-0.2-1.6 0.4-0.2 0.5-0.1 1.3 0.4 1.5 0.6 0.3 1.2 0.6 1.8 1 0.5 0.3 1 0.7 1.6 1q0.4 0.3 0.7 0.5c0.3 0.2-0.1-0.2 0.1 0q0 0.1 0.1 0.2 0.2 0.2 0.4 0.4 0.1 0.1 0.2 0.2c0.1 0.2-0.2-0.2 0 0q0.1 0.2 0.2 0.4 0.3 0.4 0.5 0.8 0.3 0.4 0.6 0.8 0.1 0.1 0.1 0.3c0.1 0 0.1 0.1 0.1 0.1q0 0 0-0.1 0 0.2 0.1 0.3 0.1 0.1 0.2 0.2 0 0.1 0.1 0.2c0.1 0.2-0.1-0.2 0 0q0.1 0.3 0.2 0.6c0.1 0.1 0.3 0.5 0.1 0.1 0.1 0.2 0-0.2 0 0q0.1 0.2 0.1 0.4c0.1 0.3 0.2 0.6 0.3 0.9q0.1 0.6 0.4 1.1c0 0 0.1 0.2 0.1 0.2q0-0.1 0-0.1 0 0 0 0.1 0-0.1 0-0.2 0 0.1 0 0.2 0 0.1 0 0.2 0 0.5 0 1 0 0.5-0.1 1 0 0.3 0 0.5 0 0.2 0 0.3c0-0.3-0.1 0-0.1 0.1q0 0.5-0.2 0.9 0 0 0 0.1-0.1 0.1 0-0.1c0.1 0 0 0.2 0 0.2q-0.2 0.2-0.3 0.4-0.1 0.2-0.2 0.4-0.1 0.2-0.2 0.4c0.2-0.3 0.1 0 0 0q-0.1 0.2-0.2 0.4c-0.1 0.2-0.2 0.4-0.3 0.5q0.1-0.1 0.1-0.1 0 0-0.1 0.1-0.1 0.1-0.1 0.2-0.2 0.1-0.3 0.3-0.2 0.3-0.4 0.5c-0.2 0.2 0.2-0.2 0 0q-0.1 0.2-0.2 0.3-0.4 0.3-0.7 0.7-0.2 0.1-0.4 0.3 0 0.1-0.1 0.2-0.2 0.1 0-0.1-0.1 0.1-0.1 0.1-0.8 0.6-1.7 1-0.2 0.1-0.4 0.2c-0.1 0.1-0.3 0.3-0.4 0.2q0.1 0 0.1 0 0 0-0.1 0-0.1 0.1-0.2 0.1-0.3 0.1-0.5 0.1c-0.4 0.2-0.7 0.4-1 0.5 0 0-0.1 0.1-0.1 0.1q0 0 0.1-0.1-0.1 0.1-0.1 0.1c0 0-0.2 0-0.2 0q0.2 0 0.1 0-0.1 0-0.2 0c-1.5 0.1-2.9 0-4.3 0q-0.5 0-1 0c-0.3 0 0.2 0-0.1 0q-0.1 0-0.2-0.1-0.3 0-0.6 0-0.3-0.1-0.7-0.1c-0.2-0.1 0.3 0 0 0q-0.1-0.1-0.2-0.1-0.5-0.1-1-0.2-0.2-0.1-0.5-0.2c-0.1-0.1-0.3-0.1-0.4-0.2q0 0 0.1 0.1-0.1-0.1-0.1-0.1-0.1 0-0.2-0.1-0.3-0.1-0.5-0.3c-0.5-0.2-1.1-0.5-1.6-0.9q0 0-0.1 0-0.1-0.1 0.1 0c-0.1 0-0.2-0.1-0.2-0.1q-0.2-0.2-0.4-0.4-0.3-0.3-0.7-0.7-0.3-0.4-0.5-0.7-0.1-0.1-0.2-0.2c0.2 0.2 0 0 0 0q-0.2-0.3-0.3-0.5c-0.3-0.5-0.6-1.1-0.9-1.7q-0.1-0.2-0.2-0.5c-0.1-0.2 0.1 0.2 0 0q0 0-0.1-0.1-0.1-0.5-0.2-1-0.1-0.5-0.2-1c0-0.1-0.1-0.3 0 0q0-0.2 0-0.3-0.1-0.3-0.1-0.6c0-0.6 0.1-1.3 0.1-2q0-0.3 0-0.5c0-0.1 0-0.2 0.1-0.2q0 0-0.1 0.1 0.1-0.1 0.1-0.2 0.1-0.5 0.2-0.9 0.1-0.3 0.2-0.5 0-0.1 0-0.1c0.1-0.3-0.1 0.2 0-0.1 0 0 0.2-0.4 0.3-0.4q-0.1 0.1-0.1 0.2 0-0.1 0.1-0.1 0.1-0.2 0.3-0.4c0.1-0.3 0.3-0.5 0.4-0.8q0.3-0.4 0.6-0.9 0.1-0.1 0.2-0.3c0.1-0.2-0.2 0.2 0 0q0.1-0.1 0.2-0.2 0.3-0.4 0.6-0.7 0.4-0.3 0.7-0.6 0.1-0.1 0.2-0.2c0.1 0 0.3-0.2 0.1 0q0.2-0.2 0.4-0.4 0.4-0.2 0.8-0.5c0.2-0.1-0.3 0.1 0 0q0.1 0 0.2 0 0.4-0.2 0.7-0.3 0.1-0.1 0.2-0.1c-0.3 0 0 0 0 0q0.3-0.1 0.5-0.2c0.3-0.1 0.7-0.2 1-0.3q0.2-0.1 0.4-0.1c0 0 0.3-0.1 0 0q0.2-0.1 0.4-0.1 0.3 0 0.5-0.1 0.1 0 0.3 0c0 0 0.4-0.1 0.1-0.1 0.1 0 0.3 0 0.5 0q0.2 0 0.5 0 0.6 0 1.2 0 1 0 2 0 0.2 0 0.4 0c0.3 0-0.2-0.1 0.1 0q0.1 0 0.2 0.1 0.5 0.1 1 0.2 0.2 0 0.4 0.1 0.1 0 0.2 0c-0.2 0 0.4 0.1 0.4 0.1q0 0-0.1 0 0.1 0 0.1 0 0.1 0 0.3 0.1 0.2 0.1 0.5 0.2 0.1 0 0.3 0.1c0.2 0.1-0.2-0.1-0.1 0-0.2-0.2-0.1-0.2 0-0.1q0 0.1 0.1 0.1c0.4 0.4 0.8 0.6 1.4 0.5 0.6-0.1 1-0.9 0.8-1.4-0.2-0.6-0.8-0.9-1.4-0.8z"/><path class="f" d="m50.5 48.6c0.8 0 1.6 0 2.3 0 0.7-0.1 1.5-0.2 2.2-0.2 0.6 0 1.2-0.5 1.2-1.2-0.1-0.6-0.5-1.1-1.2-1.1-0.7 0-1.5 0.2-2.2 0.2-0.7 0.1-1.5 0.1-2.3 0.1-0.5 0-1.1 0.5-1.1 1.1 0.1 0.6 0.5 1.1 1.1 1.1z"/><path class="f" d="m42.1 21.7c-0.7-0.7-1.7-0.3-2.4 0.2q-0.4 0.2-0.7 0.4-0.5 0.3-0.9 0.8c-0.6 0.6-1.3 1.1-1.8 1.7-0.6 0.7-1.2 1.4-1.6 2.2-0.4 0.5-0.2 1.2 0.4 1.5 0.5 0.3 1.1 0.1 1.5-0.4q0.3-0.5 0.6-0.9 0.1-0.2 0.2-0.3c0.1-0.2-0.1 0.2 0 0q0.2-0.2 0.3-0.4c0.5-0.6 1.1-1 1.7-1.6 0.2-0.2 0.4-0.4 0.7-0.6q0.1-0.1-0.1 0 0 0 0.1 0 0.1-0.1 0.2-0.2 0.1 0 0.3-0.1 0.2-0.2 0.5-0.4 0.1-0.1 0.2-0.1c0.2-0.1-0.2 0-0.1 0 0.2 0-0.3 0-0.2 0q-0.2 0-0.4-0.1-0.2-0.2-0.1-0.1c0.4 0.4 1.2 0.4 1.6 0 0.4-0.5 0.4-1.1 0-1.6z"/><path class="f" d="m59.3 24.2c0.1 0 0.1 0 0.1 0 0.1 0-0.2 0-0.1 0 0.1 0 0.1 0.1 0.2 0 0 0-0.2-0.1-0.1 0q0 0 0.1 0 0.1 0.1 0.2 0.2c0.1 0.1-0.2-0.2-0.1 0q0.1 0 0.2 0.1 0.2 0.2 0.3 0.4c0.5 0.5 1 1 1.4 1.5 0.1 0 0.1 0.1 0.1 0-0.1-0.1 0 0 0 0q0 0.1 0.1 0.2 0.2 0.3 0.3 0.5c0.2 0.4 0.4 0.8 0.7 1-0.1-0.1-0.1-0.1 0 0q0 0 0 0.1 0.1 0.1 0.1 0.2c0.1 0.1 0-0.2 0 0q0.1 0.1 0.1 0.3 0.2 0.4 0.3 0.9 0.1 0.2 0.2 0.5c0.1 0.1 0-0.2 0-0.1q0 0.1 0.1 0.2 0 0.3 0.1 0.6 0.1 0.3 0.1 0.5 0.1 0.3 0.2 0.5 0 0 0.1 0.1c0.1 0.2 0 0.1 0-0.3 0 0.3 0.1 0.6 0.3 0.8 0.2 0.2 0.5 0.3 0.8 0.3 0.5 0 1.2-0.5 1.1-1.1 0-0.3-0.1-0.6-0.3-0.9 0 0-0.1-0.1 0 0 0 0.2 0 0.1 0 0q0-0.1-0.1-0.3-0.1-0.7-0.4-1.4c0 0 0-0.2 0 0.1q0-0.1 0-0.1 0-0.1-0.1-0.2-0.1-0.3-0.1-0.6c-0.2-0.4-0.3-0.8-0.5-1.2q-0.1-0.1-0.2-0.2c0.1 0.1-0.3-0.3-0.3-0.4 0 0 0.2 0.3 0 0.1q0-0.1 0-0.1-0.1-0.1-0.2-0.3-0.3-0.5-0.7-1.1c-0.5-0.6-1-1.1-1.6-1.7-0.6-0.7-1.4-1.3-2.4-1.3-0.6 0-1.1 0.5-1.1 1.1 0 0.6 0.5 1.1 1.1 1.1z"/><path class="f" d="m45.7 48.6c2.2 0 4.4 0.2 6.6 0.2q1.7 0 3.5 0c0.6 0 1.2-0.5 1.1-1.1 0-0.6-0.5-1.1-1.1-1.1-1.6 0-3.1 0-4.7 0q-1.9-0.1-3.8-0.2-0.8 0-1.6 0c-0.6 0-1.1 0.5-1.1 1.1 0 0.6 0.5 1.1 1.1 1.1z"/><path class="f" d="m40.3 21.2c-0.8 0-1.5 0.3-2 0.8q-0.1 0.1-0.2 0.1 0.1 0 0.1 0c0 0-0.1 0.1-0.1 0.1q-0.3 0.2-0.6 0.4-0.4 0.3-0.7 0.7-0.3 0.3-0.6 0.7-0.2 0.2-0.4 0.4-0.1 0.2 0 0 0 0.1 0 0.1-0.1 0.1-0.2 0.1-0.4 0.4-0.7 0.8c-0.1 0.3-0.2 0.6-0.4 0.8-0.3 0.5-0.1 1.3 0.4 1.6 0.6 0.2 1.3 0.1 1.6-0.4q0.2-0.4 0.3-0.7 0.1-0.1 0.1-0.2 0.1-0.1 0.1-0.1 0.1-0.1-0.1 0.1c0 0 0.2-0.2 0.3-0.2q0.1-0.2 0.3-0.3 0-0.2 0.1-0.3-0.1 0.2 0 0.1 0-0.1 0.1-0.2 0.3-0.3 0.6-0.6 0.3-0.4 0.6-0.7 0.1 0 0.1-0.1c0.2-0.2-0.2 0.1 0.1 0q0.1-0.1 0.3-0.2 0.3-0.2 0.5-0.4c0.1-0.2-0.2 0.1 0 0q0 0 0.1-0.1c0 0 0.2-0.1 0.2-0.1q-0.2 0.1-0.1 0.1 0 0 0.1-0.1c0 0 0.1 0 0.2 0q-0.1 0-0.2 0 0.1 0 0.1 0c0.6 0 1.2-0.5 1.2-1.1-0.1-0.6-0.5-1.1-1.2-1.1z"/><path class="f" d="m40 20.7c-0.4 0-0.8 0.1-1.2 0.3q-0.4 0.2-0.7 0.4c-0.5 0.3-1.1 0.7-1.5 1.2q-0.1 0.1-0.2 0.3 0 0-0.1 0.1c-0.1 0.1 0.2-0.2 0-0.1q-0.4 0.3-0.8 0.7-0.2 0.3-0.4 0.5 0 0.1-0.1 0.2 0 0-0.1 0.1 0.1 0 0.1-0.1c0 0-0.1 0.1-0.1 0.2q-0.1 0-0.2 0.1-0.2 0.2-0.3 0.3c-0.4 0.5-0.5 1.2 0 1.6 0.4 0.4 1.2 0.5 1.6 0 0.2-0.2 0.4-0.4 0.6-0.6q0.2-0.2 0.3-0.4 0.1-0.1 0.1-0.2c0.2-0.2 0 0.1 0 0q0.2-0.2 0.3-0.3 0.1-0.1 0.1-0.1c0.1-0.1-0.2 0.1 0 0q0.4-0.2 0.7-0.6 0.2-0.3 0.5-0.5 0.1-0.1 0.1-0.1 0.1-0.1 0.1-0.1 0.1-0.1-0.1 0.1c0-0.1 0.3-0.2 0.3-0.3 0.3-0.1 0.5-0.2 0.7-0.3q0.2-0.1 0.3-0.2 0.2-0.1-0.1 0-0.3 0.1-0.1 0.1 0.1 0 0.2 0c0.6 0 1.1-0.6 1.1-1.2 0-0.6-0.5-1.1-1.1-1.1z"/><path class="f" d="m60.8 24.3q0.1 0 0.3 0c0 0 0.3 0 0.1 0q-0.2 0 0 0-0.2 0-0.3-0.2 0 0.1 0.1 0.1-0.2-0.2-0.1-0.1c0.2 0.4 0.4 0.7 0.7 0.9q0.5 0.4 0.8 0.8 0.1 0.1 0.2 0.1 0 0.1 0.1 0.2 0.1 0.1-0.1-0.1c0.2 0.1 0.3 0.3 0.3 0.5q0.1 0.1 0.2 0.2c0.1 0.3-0.1-0.2 0 0q0.1 0.4 0.3 0.7 0.1 0.3 0.3 0.5c0 0.1 0.2 0.3 0 0.1q0.1 0.1 0 0 0-0.2 0 0 0.1 0.2 0.1 0.4 0 0.2 0-0.1 0 0.1 0 0.2 0 0.4 0.1 0.8c0 0.5 0.3 0.8 0.5 1.1q0-0.5 0-1.1 0 0.1-0.1 0.1c-0.3 0.5-0.1 1.3 0.4 1.6 0.6 0.3 1.2 0.1 1.6-0.4q0-0.1 0-0.2c0.3-0.3 0.2-0.7 0-1.1q-0.1-0.2-0.2-0.4-0.1-0.2 0 0 0 0-0.1-0.1 0.1 0.2 0.1 0.1 0-0.1-0.1-0.2 0-0.4 0-0.8-0.1-0.2 0 0.1 0-0.1 0-0.2-0.1-0.3-0.1-0.5c-0.1-0.3-0.2-0.4-0.4-0.7q-0.1-0.1-0.1-0.2-0.1-0.2 0 0-0.1 0-0.1-0.1c-0.2-0.4-0.3-0.8-0.6-1.2-0.5-0.7-1.1-1.3-1.7-1.8q-0.1-0.2 0.1 0-0.1 0-0.1-0.1-0.1-0.1-0.2-0.2-0.1-0.3-0.4-0.5-0.4-0.4-1.1-0.4-0.2 0-0.5 0c-0.6 0-1.1 0.5-1.1 1.1 0 0.6 0.5 1.1 1.1 1.1z"/><path class="f" d="m60.9 25c0.5 0.5 1 1.1 1.5 1.7q0.4 0.3 0.8 0.7 0.2 0.2 0.3 0.4 0.1 0.1 0.2 0.2c0.2 0.2-0.1-0.2 0.1 0q0.3 0.5 0.5 1 0.1 0.1 0.1 0.3 0.1 0.1 0-0.1 0 0.1 0 0.1 0.2 0.3 0.3 0.6 0.3 1.1 0.6 2.2c0.2 0.6 0.8 1 1.4 0.8 0.6-0.2 0.9-0.8 0.8-1.4q-0.3-1.1-0.7-2.3c-0.3-0.8-0.6-1.6-1.1-2.3-0.5-0.6-1.1-1.2-1.6-1.7-0.6-0.6-1.1-1.2-1.7-1.8-0.4-0.4-1.1-0.4-1.5 0-0.5 0.5-0.5 1.2 0 1.6z"/><path class="f" d="m64 30.3q0 0.5 0.1 0.9 0.1 0.3 0.1 0.7 0-0.2 0-0.3 0 0.1 0 0.3c0 0.3 0.1 0.6 0.3 0.8q0.2 0.1 0.4 0.2 0.2 0.1 0.4 0.1c0.3 0 0.6-0.1 0.8-0.3q0.3-0.4 0.3-0.8 0-0.5-0.1-1-0.1-0.3-0.1-0.6 0 0.2 0 0.3 0-0.1 0-0.3c0-0.3-0.1-0.6-0.3-0.8q-0.2-0.2-0.4-0.2-0.2-0.1-0.4-0.1c-0.3 0-0.6 0.1-0.8 0.3q-0.3 0.3-0.3 0.8z"/><path class="f" d="m67.4 32q0-0.3 0-0.5-1 0.3-2.1 0.6 0.1 0.1 0.1 0.1-0.1-0.2 0 0 0 0.1 0.1 0.3 0.1 0.3 0.1 0.6 0.1 0.5 0.3 1.1 0.2 0.6 0.3 1.2c0 0.2 0 0.4 0.1 0.6 0 0.2 0.1 0.4 0.2 0.6 0.2 0.5 0.7 0.9 1.2 0.8 0.6-0.1 1-0.5 1-1.1 0-0.5-0.2-1.1-0.3-1.6q-0.2-0.8-0.5-1.5-0.1-0.7-0.4-1.4-0.1-0.4-0.3-0.8c-0.2-0.2-0.3-0.4-0.4-0.6-0.2-0.4-0.8-0.6-1.3-0.5-0.4 0.1-0.8 0.6-0.8 1.1 0 0.6 0.2 1.3 0.3 2q0 0.1 0 0.2 0 0 0.1 0.1 0 0.1-0.1-0.1c0.1 0.1 0.1 0.3 0.1 0.4q0 0.6 0.1 1.1c0.1 0.3 0.2 0.5 0.3 0.8 0.1 0.3 0.1 0.6 0.2 0.8 0 0.1 0 0.2 0.1 0.3-0.1-0.1-0.1-0.3-0.1-0.1q0.1 0.2 0.1 0.4 0 0.2 0 0.4c0.1 0.2 0-0.2 0 0q0.1 0.3 0.1 0.5c0 0.6 0.5 1.2 1.1 1.1 0.6 0 1.1-0.4 1.1-1.1 0-0.3 0-0.7-0.1-1.1 0 0.1 0 0.2 0 0q0-0.1 0-0.2 0-0.3-0.1-0.6-0.1-0.4-0.2-0.8c-0.1-0.3-0.2-0.5-0.3-0.8q0-0.1 0-0.2c-0.1-0.2 0-0.1 0 0 0-0.1-0.1-0.3-0.1-0.4q0-0.6-0.1-1.1-0.1-0.5-0.2-0.9 0-0.1 0-0.2c0-0.2 0 0.2 0 0q0-0.3 0-0.5-1.1 0.3-2.1 0.5c0.1 0.2 0.2 0.4 0.3 0.6q0.1 0.1 0.1 0.2c0.1 0.2 0-0.1 0 0q0 0.1 0.1 0.1 0.2 0.7 0.4 1.4 0.2 0.7 0.4 1.3 0.1 0.4 0.2 0.7 0 0.2 0.1 0.4c0 0 0 0.2 0 0-0.1-0.2 0 0.1 0 0.1q1.1-0.1 2.2-0.3c-0.1-0.2-0.2-0.4-0.2-0.6-0.1-0.2-0.1-0.4-0.2-0.6q-0.1-0.6-0.3-1.3c-0.2-0.9-0.3-1.7-0.7-2.5-0.2-0.5-0.9-0.7-1.3-0.5-0.4 0.1-0.8 0.5-0.8 1q0 0.2 0 0.5c0 0.5 0.5 1.1 1.1 1.1 0.6 0 1.1-0.5 1.1-1.1z"/><path class="f" d="m46.3 47.9q0.5 0 1 0.1 0.3 0 0.5 0 0.2 0 0.3 0c0.2 0.1-0.3 0 0 0 0.4 0.1 0.8 0.1 1.2 0.2 0 0 0.3 0 0.1 0q-0.1 0 0.1 0 0.1 0 0.3 0 0.3 0.1 0.5 0.1 0.1 0 0.3 0c0 0 0.2 0 0.2 0q-0.2-0.1-0.1 0 0.1 0 0.1 0 0.1 0 0.2 0c0.3 0.1 0.5 0.1 0.7 0.1q0.1 0 0.1 0-0.2-0.1-0.1 0 0.1 0 0.3 0c0.4 0.1 0.8 0.1 1.2 0.2q0 0 0.1 0 0 0-0.1 0 0.1 0 0.2 0 0.3 0 0.6 0.1-0.4-0.4-0.8-0.8 0.1 0.1 0.1 0.1c0.1 0.6 0.8 1 1.3 0.8 0.6-0.2 1-0.8 0.8-1.4q0 0 0-0.1c-0.1-0.3-0.4-0.7-0.8-0.8q-0.6-0.1-1.3-0.2-0.2 0-0.5 0-0.1 0-0.3 0-0.1 0 0.1 0 0 0-0.1 0-0.3-0.2-0.7-0.2-0.1 0-0.2 0-0.1 0.1-0.1 0.1 0 0 0.1 0c0-0.1-0.5-0.1-0.6-0.1q-0.3-0.1-0.6-0.1c-0.2 0-0.4 0-0.5 0q0.3 0 0.1 0-0.1 0-0.1 0-0.3 0-0.5-0.1-0.3 0-0.5 0c-0.3 0 0.2 0.1-0.1 0q-0.1 0-0.2 0c-0.7-0.1-1.5-0.2-2.3-0.2-0.6 0-1.2 0.5-1.1 1.1 0 0.6 0.5 1.1 1.1 1.1z"/><path class="f" d="m3.3 59.8q-0.3 0-0.6 0 0 1.2 0 2.3 0.1 0 0.2 0c0.2 0-0.3-0.1 0 0q0.1 0 0.3 0c0.3 0.1 0.7 0.1 1 0.1q0.3-0.1 0.6-0.1 0.1 0 0.2 0c-0.3 0-0.2 0-0.1 0q0.4-0.1 0.8-0.1 1.7 0.1 3.3 0.1 0.8 0 1.7 0c0.6 0 1.1 0 1.7-0.1q0.1 0 0.1 0 0.2-0.1-0.1 0c0.1 0 0.2 0 0.2 0q0.2 0 0.4 0 0.4 0 0.9-0.1c0 0 0.3-0.1 0.4-0.1-0.1 0.1-0.3 0-0.1 0q0.1 0 0.2 0 0.4 0 0.8 0 0.6 0.1 1.2 0.1c0.5 0 1.2-0.1 1.6-0.5 0.4-0.4 0.4-1.2 0-1.6-0.4-0.4-1.2-0.5-1.6 0-0.1 0.1 0.2-0.1 0.1-0.1-0.1 0.1 0.3-0.1 0.2-0.1 0 0-0.1 0.1-0.1 0.1 0 0 0.3-0.1 0.1-0.1q-0.2 0.1-0.5 0-0.5 0-1 0c-0.6 0-1.1 0-1.7 0.1q-0.1 0-0.1 0c-0.3 0.1 0.2 0 0 0q-0.1 0-0.3 0-0.5 0-0.9 0.1c-0.1 0-0.4 0.1-0.5 0 0 0 0.3 0 0.1 0q-0.1 0-0.2 0-0.4 0-0.8 0-0.8 0-1.6 0c-1.1 0-2.1 0.1-3.2 0q-0.9 0-1.9 0.1c0 0-0.1 0.1-0.1 0.1q0.2-0.1 0.1-0.1-0.1 0.1-0.1 0.1-0.1 0-0.2 0-0.1 0-0.2-0.1 0.1 0.1 0.2 0.1c-0.1 0-0.4-0.1-0.4-0.1q-0.4-0.1-0.7-0.1c-0.6 0-1.1 0.5-1.1 1.2 0 0.6 0.5 1.1 1.1 1.1q0.3 0 0.6 0c0.6 0 1.1-0.5 1.1-1.1 0-0.7-0.5-1.2-1.1-1.2z"/><path class="f" d="m1.9 61.9q-0.1-0.1-0.1-0.2-0.1-0.3-0.1-0.1 0 0.1 0.1 0.1 0 0.1 0 0.2 0.2 0.6 0.5 1c0.3 0.4 0.7 0.5 1.1 0.5 0.3 0.1 0.6 0 0.9-0.1 0-0.1 0.4-0.2 0.1-0.1q0.1 0 0.3 0 0.2 0 0.4-0.1 0.2 0 0.4 0c-0.3 0 0 0 0 0 0.6 0 1.1 0 1.7 0q3.3 0 6.7 0 0.6 0 1.3 0 0.2 0 0.5 0 0 0 0.1 0c0.2 0-0.1 0-0.1 0 0 0 0 0 0 0-0.2-0.1-0.6-0.4-0.6-0.7 0 0.3 0.3 0.5 0.5 0.7 0.2 0.1 0.6 0.2 0.8 0.1 0.3-0.1 0.6-0.3 0.7-0.5 0.2-0.3 0.2-0.6 0.1-0.9 0-0.4-0.4-0.7-0.7-0.8q-0.4-0.1-0.7-0.2-0.5 0-0.9 0.1c-1 0-2.1 0-3.2 0q-1.7 0-3.4 0-0.9 0-1.8 0-0.3 0-0.7 0-0.2 0-0.4 0-0.2 0-0.4 0c-0.3 0.1 0.2 0-0.1 0-0.3 0-0.7 0.1-1.1 0.1q-0.1 0.1-0.3 0.2-0.1 0-0.1 0-0.1 0-0.1 0 0.2 0 0.4 0c0.1 0.1 0.2 0.1 0.3 0.2 0.2 0.2 0 0.1 0 0q0-0.1-0.1-0.2c-0.1-0.2 0.1 0.2 0 0 0-0.3-0.2-0.7-0.4-0.9-0.4-0.4-1.2-0.5-1.6 0-0.4 0.4-0.4 1.1 0 1.6z"/><path class="f" d="m93.5 60.6c0 0-0.3 0.1-0.3 0 0 0.1 0.3 0 0.1 0q-0.1 0-0.2 0-0.3 0-0.7 0c-0.4 0-0.9 0.1-1.3 0.1-0.1-0.1-0.3 0-0.4-0.1 0.2 0.1 0.2 0.1 0.1 0q-0.1 0-0.2 0-0.3-0.1-0.7-0.2-0.8-0.1-1.6-0.1-0.7 0-1.5 0-0.1 0-0.3 0-0.1 0-0.2 0c0.1 0 0.3 0 0.1 0q-0.4-0.1-0.7-0.2c-1-0.1-2.1 0-3.1 0q-0.4 0-0.8-0.1c-0.1 0-0.3 0-0.4 0 0 0 0.2 0.1 0 0q-0.2 0-0.4 0c-0.5-0.1-1-0.1-1.6-0.1-0.6 0.1-1.1 0.6-1.1 1.2 0 0.6 0.5 1.1 1.1 1.1 0.5 0 1-0.1 1.4 0 0 0 0.3 0 0.1 0-0.2-0.1 0 0 0.1 0q0.2 0 0.5 0.1 0.4 0 0.8 0 0.7 0 1.4 0 0.4 0 0.8 0 0.2 0 0.3 0c0.1 0 0.3 0 0.4 0 0 0-0.2 0 0 0q0 0 0.1 0 0.2 0.1 0.3 0.1 0.5 0.1 1 0.1c0.5 0.1 1 0 1.5 0q0.3 0 0.7 0 0.1 0 0.3 0 0.1 0 0.1 0.1c-0.3-0.1 0 0 0.1 0 0.5 0.1 1 0.2 1.5 0.3 0.5 0 1 0 1.5 0 0.6 0 1.2 0 1.8-0.2 0.6-0.2 1-0.7 0.8-1.4-0.2-0.5-0.8-1-1.4-0.7z"/><path class="f" d="m82.4 60.4q-0.1 0-0.3 0 0 1.1 0 2.2c0.9 0 1.8-0.1 2.7-0.2q0.1-0.1 0.3-0.1c0 0 0.3 0 0.2 0-0.2 0 0.1 0 0.1 0q0.2 0 0.4-0.1 0.6 0 1.2-0.1 0.8-0.1 1.5-0.2 0.1 0 0.3-0.1 0 0 0.1 0c-0.2 0-0.1 0 0 0q0.3 0 0.6 0 1.2-0.2 2.5-0.2c0.4 0 0.8 0 1.3 0q0.2-0.1 0.5-0.1 0.1 0 0.1 0c-0.3 0-0.1 0 0 0 0.3 0 0.6 0 0.8-0.1q-0.5-0.9-1-1.9-0.1 0.1-0.2 0.2c-0.5 0.4-0.5 1.2 0 1.6 0.4 0.4 1.1 0.4 1.6 0q0-0.1 0.1-0.2c0.4-0.3 0.5-0.9 0.2-1.3-0.3-0.4-0.8-0.7-1.3-0.5-0.1 0-0.1-0.1 0.1 0q0 0-0.1 0-0.1 0-0.3 0-0.2 0-0.4 0-0.1 0-0.2 0c-0.1 0.1 0.1 0.1 0.1 0 0 0.1-0.2 0.1-0.3 0.1q-0.1 0-0.2 0-0.3 0-0.6 0-1.2 0-2.5 0.1-0.7 0.1-1.4 0.2-0.3 0-0.6 0.1-0.1 0-0.1 0c-0.2 0 0 0 0.1 0q-0.2 0-0.4 0-1.3 0.2-2.6 0.3-0.4 0.1-0.7 0.1-0.2 0.1-0.4 0.1c0 0-0.1 0 0 0 0.2 0-0.1 0-0.1 0q-0.7 0.1-1.4 0.1c-0.6 0-1.1 0.5-1.1 1.1 0 0.6 0.5 1.1 1.1 1.1q0.2 0 0.3 0c0.6 0 1.2-0.5 1.1-1.1 0-0.6-0.5-1.1-1.1-1.1z"/><path class="f" d="m80.1 60.9q0.7 0 1.4 0c0.5 0.1 0.9 0.1 1.4 0.1 0.9 0.1 1.9 0 2.8 0.1 1 0 1.9 0 2.8 0.1 0.1 0 0.3 0.1 0.1 0-0.1 0 0 0 0 0q0.3 0.1 0.6 0.1 0.4 0.1 0.7 0.1c0.5 0 1 0 1.4 0q0.8 0 1.6 0 0.2 0 0.4 0c0.1 0 0.3-0.1 0.3 0 0 0-0.3-0.1-0.2-0.1q-0.1 0-0.1 0-0.3-0.3-0.2-0.1c0.4 0.4 1.2 0.4 1.6 0 0.4-0.5 0.4-1.1 0-1.6-0.3-0.4-0.9-0.5-1.4-0.5q-0.6 0.1-1.2 0c-1 0-1.9 0.1-2.9 0q-0.1 0-0.2 0c0.1 0 0.3 0 0.1 0q-0.3-0.1-0.6-0.1-0.4-0.1-0.7-0.1-0.8 0-1.5-0.1c-1 0-1.9 0-2.9 0q-0.8 0-1.6-0.1c-0.6 0-1.1 0-1.7 0-0.6 0-1.1 0.5-1.1 1.1 0 0.6 0.5 1.1 1.1 1.1z"/><path class="f" d="m70.7 35.9q-0.1-0.1-0.1-0.1-0.2-0.2-0.5-0.3-0.3-0.1-0.6 0-0.3 0.1-0.5 0.3-0.2 0.2-0.3 0.5 0 0 0 0 0 0.2 0 0.3 0 0.1 0 0.1-0.1 0 0 0 0 0.2 0 0.3 0 0.1 0 0.1 0 0 0 0.1 0.1 0.1 0.1 0.2 0.1 0.3 0.2 0.4 0.1 0.2 0.3 0.3 0.2 0.1 0.4 0.1 0.3 0.1 0.5 0 0.1 0 0.2-0.1 0.3-0.1 0.4-0.4 0.1-0.1 0.2-0.3 0-0.3 0-0.6c-0.1-0.1-0.1-0.2-0.1-0.4q0 0.2 0 0.3 0 0 0-0.1 0 0.2 0 0.3 0 0 0 0-1 0.2-1.9 0.5 0 0 0.1 0.1 0.1 0.1 0.3 0.2 0.2 0.1 0.5 0.1 0.2 0 0.4-0.1 0.2-0.1 0.4-0.2 0.1-0.1 0.1-0.3 0.2-0.2 0.2-0.5 0-0.2 0-0.3-0.1-0.3-0.3-0.5z"/></svg>