<svg width="100" height="100" viewBox="0 0 100 100" fill="none" xmlns="http://www.w3.org/2000/svg">
<g clip-path="url(#clip0_35_36745)">
<path d="M37.0562 18.2922C34.5393 19.6105 32.1723 21.2285 29.9551 23.1461C18.0899 33.1236 9.37079 50.6517 18.8989 65.4832C26.8989 77.8877 42.809 85.9776 56.6517 87.236C77.0562 88.9439 89.3708 67.2809 89.191 47.8652C88.9214 19.1012 60.5169 5.52813 37.0562 18.2922Z" fill="#0FA6A6"/>
<path fill-rule="evenodd" clip-rule="evenodd" d="M84.5169 43.2809C85.0562 47.955 84.7865 52.8989 83.8876 57.3932C82.809 62.4269 80.9213 66.8314 78.4045 70.2472V70.3371C76.6966 72.9438 74.809 75.2809 72.5618 77.3483C71.8427 78.0075 71.0936 78.6367 70.3146 79.2359L70.2247 79.3258H70.1348L69.5056 80.0449C68.1573 81.4831 67.1685 82.2921 65.5506 83.0112C65.2509 83.1311 64.9513 83.2509 64.6517 83.3708C64.4719 83.4307 64.3221 83.4906 64.2022 83.5505L64.382 83.3708L62.0449 84.4494H61.9551H61.8652L61.6854 84.6292C61.6854 84.6891 61.6554 84.7191 61.5955 84.7191C61.5356 84.779 61.4757 84.8389 61.4157 84.8989H61.236H61.1461C60.1573 85.5281 58.8989 85.7977 57.7303 86.0674C57.1311 86.1872 56.5618 86.3371 56.0225 86.5168C52.9663 87.4157 50.2697 88.0449 47.4831 88.0449C46.824 88.0449 46.1648 88.015 45.5056 87.955C42.4494 87.6854 39.0337 86.9663 34.809 85.7078C31.3034 84.7191 28.8764 83.1011 25.8202 81.0337L25.4607 80.8539C24.7416 80.3745 24.0225 79.9251 23.3034 79.5056C21.236 78.1573 19.2584 76.8989 17.6405 74.7416C16.9213 73.7528 16.2921 72.9438 15.7528 72.1348V72.0449H15.6629C14.4944 70.7865 13.6854 69.5281 13.1461 68.1798C11.4382 63.8651 10.809 59.1011 10.3596 55.4157C10.2697 54.0674 10.2697 52.809 10.3596 51.191V51.1011C10 47.5056 10.3596 44.3595 11.3483 41.7528V41.6629V41.573C11.4082 41.0337 11.4682 40.4644 11.5281 39.8651C11.7079 38.8764 11.7978 37.9775 11.9775 37.0786C12.7865 34.2921 14.3146 30.8764 16.382 27.7303C19.7079 22.7865 23.8427 19.191 29.4157 16.4045C33.6404 14.2472 37.9551 13.0786 42.3596 12.809C43.618 12.6292 44.8764 12.5393 46.1348 12.5393C47.0936 12.5393 48.0225 12.5992 48.9213 12.7191H49.1011C53.6854 13.2584 58.3596 13.7078 62.4944 15.5955V15.6854H62.5843C63.4232 15.9251 64.2022 16.1648 64.9213 16.4045C68.5169 17.8427 71.9326 20 74 22.0674C80.1124 28.3595 83.618 35.2809 84.5169 43.2809ZM54.8539 16.8539C54.4045 19.6404 53.6854 22.5168 53.0562 24.8539L52.7865 25.6629L53.5955 25.8427C53.7154 25.8427 53.8652 25.8427 54.0449 25.8427C54.3446 25.9026 54.6442 25.9625 54.9438 26.0225C55.3034 26.1423 55.6629 26.2322 56.0225 26.2921C59.1685 26.8314 62.1348 27.3708 64.8315 29.0786C65.191 29.3183 65.5506 29.558 65.9101 29.7977L66.1798 29.9775L67.8876 31.0562L67.1685 29.0786C66.5393 27.1011 65.6404 25.3034 64.4719 23.0562C64.1124 22.2472 63.4831 21.4382 62.9438 20.7191C62.3146 19.9101 61.6854 19.0112 61.236 18.2022L61.1461 17.9326L60.8764 17.8427C60.2772 17.6629 59.7079 17.4831 59.1685 17.3034H59.0787C58.9588 17.2434 58.779 17.1835 58.5393 17.1236V17.0337H58.4494C57.6405 16.764 56.6517 16.4944 55.7528 16.2247L54.9438 16.0449L54.8539 16.8539ZM42.4494 59.5505C41.9101 61.4382 41.4607 63.0562 40.9214 64.764C40.2921 66.6517 40.1124 68.5393 40.0225 70.3371C39.9625 71.1161 39.8727 71.8651 39.7528 72.5843L39.6629 73.2135L40.2022 73.3932C42.7191 74.2022 45.5056 74.8314 48.382 75.1011C48.8015 75.1011 49.221 75.1011 49.6404 75.1011C52.6966 75.1011 55.7528 74.7416 58.809 74.0225H59.0787L59.2584 73.7528C59.5581 73.2734 59.8577 72.794 60.1573 72.3146C62.1348 69.2584 64.1124 66.0225 65.8202 62.7865L65.9101 62.6966V62.6067C66.4494 61.0786 66.8989 59.3708 67.2584 57.573C67.3783 57.1535 67.4981 56.7041 67.618 56.2247C67.618 56.1049 67.6479 55.985 67.7079 55.8651L67.7978 55.2359L67.2584 55.0562V54.9663C67.1985 54.9663 67.1685 54.9663 67.1685 54.9663C63.573 53.0786 60.5169 51.7303 57.5506 50.5618V50.4719H57.4607C54.8539 49.7528 52.1573 49.1236 49.4607 48.5843L48.8315 48.4045C48.412 48.2846 47.9625 48.1947 47.4831 48.1348C47.2434 48.0749 47.0037 48.015 46.764 47.955L46.2247 47.8652L45.9551 48.4045C45.5056 49.573 45.1461 50.8314 44.6067 52.3595V52.4494C43.8876 54.7865 43.1685 57.3034 42.4494 59.5505ZM45.0562 45.3483L45.236 44.7191C46.4944 40.4944 47.9326 36.1798 49.4607 31.8651C49.8202 30.6966 50.1798 29.4382 50.5393 27.8202L50.809 27.0112L50 26.9213C46.1348 26.382 42.5393 26.2022 39.1236 26.2022C38.5243 26.2022 37.8951 26.2022 37.236 26.2022C36.0674 26.2022 34.809 26.2921 33.191 26.5618H33.1011H33.0112C32.8914 26.5618 32.7715 26.5618 32.6517 26.5618L32.382 26.6517L32.2022 26.9213C32.1423 26.9213 32.1124 26.9513 32.1124 27.0112C32.0524 27.1311 31.9925 27.221 31.9326 27.2809C31.7528 27.5805 31.5431 27.9101 31.3034 28.2696C31.1236 28.5393 30.9438 28.9887 30.6742 29.4382C28.6966 33.3034 27.618 37.7977 26.8989 41.6629L26.7191 42.382L27.4382 42.4719L27.9775 42.6517C28.6367 42.7715 29.2659 42.8914 29.8652 43.0112C32.5618 43.4607 35.3483 43.9101 37.9551 44.2696C40.1124 44.5393 42.2697 44.8989 44.427 45.2584L45.0562 45.3483ZM68.2472 52.8989L68.3371 51.9101C69.0562 46.4269 69.0562 40.6741 68.2472 34.6517C68.2472 34.5318 68.2472 34.412 68.2472 34.2921C68.1873 34.2322 68.1573 34.1423 68.1573 34.0225V33.7528L67.8876 33.573C63.6629 30.5168 59.1685 28.6292 54.1348 27.6404C54.015 27.5805 53.8951 27.5505 53.7753 27.5505C53.7154 27.4906 53.6554 27.4607 53.5955 27.4607C53.4157 27.4607 53.236 27.4307 53.0562 27.3708L52.427 27.2809L52.2472 27.9101C51.9775 28.8989 51.618 29.9775 51.3483 31.146C51.1685 31.7453 51.0187 32.3745 50.8989 33.0337C49.8202 36.9887 48.8315 41.0337 47.3933 44.8989L47.0337 45.7078L47.8427 45.8876C48.7416 46.0674 49.5805 46.2472 50.3596 46.4269C52.7865 47.0562 55.1236 47.8652 57.5506 48.764L57.6405 48.8539C60.6966 49.6629 63.2135 50.5618 65.4607 51.5505C66 51.8202 66.6292 52.0899 67.3483 52.5393L68.2472 52.8989ZM44.8764 16.4944C44.2772 16.7341 43.6479 17.0037 42.9888 17.3034C41.5506 17.8427 40.5618 18.382 39.573 18.9213V19.0112C38.0449 20.1798 36.5169 21.618 34.9888 23.3258L33.8202 24.6741L35.618 24.4944C35.7978 24.4944 35.9476 24.4944 36.0674 24.4944C36.3071 24.4344 36.5169 24.4045 36.6966 24.4045C38.1348 24.2247 39.573 24.1348 41.1011 24.1348C43.9775 24.1348 46.9438 24.4045 50.6292 25.1236L51.2584 25.2135L51.3483 24.5842C51.5281 23.8651 51.7079 23.146 51.8876 22.4269C52.0075 21.8876 52.1273 21.3183 52.2472 20.7191C52.5169 19.2809 52.7865 17.8427 53.3258 16.5843L53.6854 15.6854L52.6966 15.5056C51.9775 15.4157 51.1685 15.4157 50.4494 15.4157C49.97 15.3558 49.4906 15.3258 49.0112 15.3258C48.8315 15.3258 48.5618 15.2359 48.2921 15.2359H48.2022L48.0225 15.146L47.8427 15.2359C46.8539 15.6854 45.8652 16.1348 44.8764 16.4944ZM19.2584 27.2809L21.6854 26.7416C22.0449 26.6217 22.4045 26.5318 22.764 26.4719C23.0037 26.412 23.2434 26.352 23.4831 26.2921C25.8202 25.7528 28.5169 25.3034 31.3034 24.9438H31.573L31.7528 24.6741C32.6517 23.3558 33.5506 22.1273 34.4494 20.9887C35.7079 19.4607 37.236 18.2022 39.3034 17.2135L43.3483 15.0562L38.8539 15.7753C35.5281 16.4045 32.7416 17.2135 30.1348 18.5618C27.2584 19.9101 24.2921 22.2472 21.0562 25.4831L19.2584 27.2809ZM13.4157 40.764L14.3146 40.6741C14.5543 40.6741 14.824 40.6741 15.1236 40.6741C16.6517 40.6741 18.2697 40.9438 19.7978 41.1236C20.397 41.2434 20.9663 41.3333 21.5056 41.3932C22.3146 41.4831 23.1236 41.6629 24.1124 41.8427L24.7416 41.9326L24.9213 41.2135C25.1011 40.3146 25.3109 39.4457 25.5506 38.6067C26.3596 35.1011 27.7079 31.6854 29.5056 28.3595L30.3146 26.9213L28.7865 27.2809C25.0112 28.1798 21.236 29.4382 17.4607 30.9663H17.2809L17.191 31.146C17.0712 31.3258 16.9213 31.4157 16.7416 31.4157L16.4719 31.5056L16.2921 31.7753C15.1236 34.1123 14.2247 36.6292 13.5955 39.7753L13.4157 40.764ZM14.9438 55.955C16.6517 59.4607 19.5281 62.6067 22.8539 64.8539L24.2022 65.7528L23.9326 64.0449C23.6629 62.8764 23.573 61.7078 23.4831 60.6292C23.0337 55.8651 23.3034 50.5618 24.2022 44.9887L24.382 44.1798H23.6629C20.3371 43.7303 17.1011 43.4607 13.8652 43.2809L13.3258 43.191L13.1461 43.8202C12.3371 47.8652 12.9663 52 14.9438 55.955ZM28.3371 79.6854L27.618 77.7977C26.4494 75.1011 25.6404 72.2247 25.1011 69.3483V69.2584C25.1011 69.1985 25.1011 69.1386 25.1011 69.0786C25.0412 68.9588 25.0112 68.8389 25.0112 68.7191L24.9213 68.4494L24.6517 68.2696C22.3146 67.0112 20.427 65.6629 18.7191 64.0449C18.5993 63.9251 18.4494 63.7753 18.2697 63.5955C16.9213 62.4269 15.573 61.1685 14.4045 59.8202L12.7865 58.1123L13.1461 60.4494C13.5056 62.8764 13.9551 64.6741 14.5843 66.2022C15.0637 67.5206 15.6929 68.8689 16.4719 70.2472L16.5618 70.3371C17.0412 70.9363 17.4906 71.4457 17.9101 71.8651C18.2097 72.1048 18.5094 72.3745 18.809 72.6741C21.1461 74.8314 23.8427 77.2584 26.6292 78.6966L28.3371 79.6854ZM37.0562 73.8427L36.5169 73.6629C35.5581 73.2434 34.5993 72.8539 33.6404 72.4944C31.8427 71.6854 29.8652 70.9663 28.0674 70.0674L26.6292 69.4382L27.1685 70.9663C27.7978 73.1236 28.6067 75.2809 29.3258 77.3483C29.6854 78.2472 30.0449 79.2359 30.4045 80.1348L30.4944 80.4045L30.764 80.5843C31.7228 80.9438 32.6816 81.2734 33.6404 81.573C34.1198 81.7528 34.5693 81.9326 34.9888 82.1123L35.8876 82.382V81.4831C36.1573 79.2359 36.427 76.9887 36.9663 74.4719L37.0562 73.8427ZM37.5955 71.4157C37.9551 69.7977 38.4045 68.1798 38.9438 66.2022C39.3034 64.6741 39.8427 63.146 40.2022 61.8876H40.2921C40.5318 60.9288 40.8015 59.97 41.1011 59.0112C41.3408 58.2921 41.5805 57.573 41.8202 56.8539V56.764C41.8802 56.4644 41.97 56.1648 42.0899 55.8651C42.6292 53.618 43.1685 51.2809 44.0674 49.1236V49.0337C44.1273 48.8539 44.1873 48.7041 44.2472 48.5843L44.3371 48.2247L44.5169 47.4157L43.7978 47.3258C38.3146 46.2472 32.6517 45.2584 27.0787 44.6292L26.4494 44.5393L26.2697 45.1685C25.3708 50.5618 25.6405 56.1348 25.9101 61.618C25.97 62.2172 26 62.8165 26 63.4157C26 64.3146 26.0899 65.2135 26.2697 66.382V66.8314L26.6292 67.0112C27.9775 67.6404 29.3258 68.2696 30.5843 68.8989C31.7528 69.4382 32.9213 70.0674 34.1798 70.6067L34.3596 70.7865C35.0787 71.146 35.8277 71.5056 36.6067 71.8651L37.4157 72.2247L37.5955 71.4157ZM52.6966 82.2022C53.1461 81.573 53.6854 80.8539 54.2247 80.3146C54.824 79.6554 55.3933 78.9962 55.9326 78.3371L56.382 77.8876L57.6405 76.5393L55.8427 76.7191C54.5843 76.779 53.3258 76.809 52.0674 76.809C51.7079 76.809 51.3483 76.809 50.9888 76.809H50.8989C50.4195 76.8689 49.9401 76.8989 49.4607 76.8989C47.4831 76.8989 45.7453 76.7191 44.2472 76.3595C42.9888 76.0899 41.7303 75.7303 40.2022 75.1011L39.4831 74.8314L39.3034 75.6404C38.9438 77.7977 38.4944 80.1348 38.4045 82.8314V83.3708L38.8539 83.5505C42.0899 84.5393 45.4157 85.0786 48.7416 85.1685H48.9213L49.1011 85.0786C49.4607 84.8989 49.8502 84.7191 50.2697 84.5393C50.4494 84.4195 50.6292 84.3296 50.809 84.2696L50.9888 84.1798L51.0787 84.0899C51.618 83.4607 52.1573 82.8314 52.6966 82.2022ZM74 73.4831C71.9326 74.4719 69.6854 74.5618 67.5281 75.1011C65.191 75.7303 62.6742 76 60.2472 76.2696H59.9775L59.7978 76.4494C59.3783 76.9887 58.8989 77.558 58.3596 78.1573V78.2472C57.2809 80.0449 56.1124 81.8427 54.8539 83.3708L53.5955 84.9887L55.573 84.5393C57.5506 84.1798 59.4682 83.6404 61.3258 82.9213H61.4157V82.8314C61.4757 82.8314 61.5056 82.8314 61.5056 82.8314C62.1348 82.382 63.0337 82.1123 63.8427 81.8427L63.9326 81.7528C65.8202 80.8539 67.618 79.6854 69.236 78.4269H69.3258V78.3371C69.9251 77.7378 70.5243 77.1086 71.1236 76.4494C72.0824 75.4906 73.0412 74.5019 74 73.4831ZM79.4831 62.4269L79.1236 62.0674C76.8764 59.7303 73.8202 58.2022 70.9438 56.764L70.2247 56.4045L69.9551 57.2135C69.9551 57.2734 69.9551 57.3333 69.9551 57.3932C69.9551 57.4532 69.9251 57.5131 69.8652 57.573C69.236 59.7303 68.2472 61.9775 66.8989 64.4944V64.5842C66 67.0112 64.9213 69.2584 63.573 71.4157L62.4944 73.1236L64.382 72.4944C65.5206 72.0749 66.6592 71.6255 67.7978 71.1461C68.3371 70.9063 68.9064 70.6666 69.5056 70.4269C72.0225 69.4382 74.809 68.2696 76.7865 66.382C77.6255 65.5431 78.4345 64.4045 79.2135 62.9663L79.4831 62.4269ZM82.4494 53.9775L82.3596 53.7078C82.2996 53.6479 82.2697 53.588 82.2697 53.5281C82 51.9101 81.6404 49.9326 81.0112 48.0449V47.955L80.9213 47.8652L80.8315 47.7753C80.2921 46.7865 79.6629 45.7977 78.9438 44.8989C78.2247 43.9101 77.5056 42.8314 76.7865 41.6629L76.6966 41.4831L76.6067 41.3932V41.3033C75.0787 39.7753 73.4607 38.1573 71.7528 36.6292L70.4045 35.2809L70.5843 37.2584C71.2135 41.4831 71.7528 47.7753 70.764 53.618L70.6742 54.1573L71.2135 54.3371C72.1124 54.8764 72.9214 55.2359 73.7303 55.6854C74.5393 56.0449 75.3483 56.6741 76.1573 57.3034C77.236 58.0225 78.3146 58.8314 79.4831 59.2809C79.5431 59.3408 79.633 59.4007 79.7528 59.4607C79.9925 59.7004 80.2322 59.9401 80.4719 60.1798C80.4719 60.0899 82.3595 54.8764 82.4494 54.1573V53.9775ZM82.9888 48.0449L82.7191 44.4494C82.4494 41.4831 81.9101 38.6966 81.1011 36.2696C80.2022 33.3932 78.8539 30.9663 77.3258 29.0786C76.9663 28.6592 76.6067 28.2397 76.2472 27.8202C74.7191 26.0225 73.191 24.0449 71.3933 22.6067C70.1348 21.5281 68.5169 20.6292 66.4494 19.7303L64.2921 18.8314L65.5506 20.809C65.6704 20.9887 65.7903 21.1386 65.9101 21.2584C66.2697 21.7977 66.5393 22.2472 66.6292 22.5168C67.3483 23.8651 67.9775 25.3034 68.427 26.6517C68.6966 27.5505 68.8764 28.5393 69.1461 29.7078V29.7977C69.3858 30.5168 69.5655 31.2659 69.6854 32.0449L69.7753 32.3146L69.9551 32.4944C71.0337 33.3033 72.0225 34.0225 72.9213 34.6517C74.4494 35.8202 75.7978 37.3483 77.236 39.4157L77.3258 39.5056C78.5243 40.8239 79.5431 42.0225 80.382 43.1011C80.7416 43.5805 81.1011 44.1498 81.4607 44.809L82.9888 48.0449Z" fill="white"/>
</g>
<defs>
<clipPath id="clip0_35_36745">
<rect width="80" height="76.4045" fill="white" transform="translate(10 12)"/>
</clipPath>
</defs>
</svg>
