<svg width="94" height="97" viewBox="0 0 94 97" fill="none" xmlns="http://www.w3.org/2000/svg">
<path d="M23.4307 1.49723C22.2962 3.43928 20.9563 5.4565 19.5976 7.53028M19.5976 7.53028C19.0124 8.42349 18.4238 9.32718 17.8465 10.2399M19.5976 7.53028C19.6039 7.61733 19.5752 7.78764 19.5012 8.06366C19.3018 8.80788 19.1378 9.59215 18.4396 10.0457C18.0946 10.2699 17.7625 10.5773 17.439 10.9294M19.5976 7.53028C19.5576 6.97258 18.0819 9.83247 17.8664 10.2056C17.8597 10.217 17.8531 10.2284 17.8465 10.2399M17.8465 10.2399C17.6832 10.4981 17.5207 10.7571 17.3596 11.0168M17.8465 10.2399C17.7125 10.4713 17.5766 10.701 17.439 10.9294M17.3596 11.0168C17.0603 11.4989 16.7654 11.9834 16.4769 12.47M17.3596 11.0168C16.4961 11.9791 15.6911 13.2389 14.8582 14.0531C13.3795 15.4987 11.8054 17.621 10.6227 19.332C8.99608 21.6851 8.53308 25.8305 7.9592 28.5524C7.55781 30.4561 8.75149 28.2761 9.02226 27.8245C9.02589 27.8184 9.02952 27.8124 9.03316 27.8063M17.3596 11.0168C17.386 10.9874 17.4124 10.9582 17.439 10.9294M16.4769 12.47C14.7638 15.3603 13.2792 18.3266 12.4761 21.3235C12.2279 22.2498 11.5744 23.8756 11.0288 24.7454C10.3484 25.8299 9.63988 26.797 9.03316 27.8063M16.4769 12.47C16.8035 11.9622 17.1255 11.4495 17.439 10.9294M16.4769 12.47C13.9069 16.4666 11.0501 20.1665 9.78942 24.8714C9.53274 25.8294 9.27822 26.8107 9.03316 27.8063M9.03316 27.8063C8.17113 31.3086 7.42601 34.9884 7.11471 38.453C6.77385 42.2467 8.83217 45.7018 10.6218 48.941C11.0183 49.6588 11.3784 50.3509 11.6874 51.0832C12.0583 51.9624 12.0921 51.7608 11.9845 51.1511M11.9845 51.1511C11.8105 50.1645 11.2665 48.1095 11.1827 47.8375C10.9767 47.1689 10.7338 46.4668 10.4811 45.7458M11.9845 51.1511C11.8797 50.9555 11.7771 50.763 11.679 50.5746C11.0065 49.2833 10.3108 49.0024 11.2155 49.2448C11.227 49.2479 10.7918 47.1856 10.4811 45.7458M11.9845 51.1511C12.6492 52.3911 13.4085 53.7612 13.7499 55.0838C14.7619 59.0036 12.2904 63.0206 8.93387 65.3188C7.07384 66.5924 6.05095 68.323 4.81447 70.0742C2.79324 72.9368 4.68025 75.5365 7.72403 77.1229C9.80106 78.2055 10.8896 75.3687 11.7501 73.8857C13.1002 71.5589 14.8935 69.3773 16.7177 67.4045C21.2265 62.5283 27.3205 73.1542 30.9151 75.7899C32.1654 76.7067 36.0302 79.2608 34.2756 80.8858C33.1662 81.9133 32.1394 82.5853 30.9779 83.4743C30.0034 84.2202 28.418 84.3856 27.6064 85.0786C24.8618 87.422 20.9894 91.03 25.2346 93.7502C28.7213 95.9843 32.1946 95.053 33.9027 91.6362C35.0097 89.4217 35.703 86.7517 37.886 85.2289C39.434 84.149 39.3909 82.16 41.6111 82.7549C44.7689 83.6011 47.5988 85.2274 50.7302 86.0664C54.1683 86.9876 57.8304 89.3858 61.5286 88.9598C64.8079 88.5821 68.0732 87.7809 71.3006 87.0452C72.7039 86.7253 74.7821 86.5768 76.0877 85.9167C77.8986 85.0012 79.5972 84.9373 81.1104 83.5493C82.7139 82.0786 84.6767 80.5083 86.0429 78.8189C87.0646 77.5556 88.4425 76.4647 89.5219 75.194C90.7029 73.8036 90.8278 72.2381 91.686 70.8068C93.7005 67.4469 90.8495 63.0087 88.841 59.9175C88.0349 58.6768 86.6422 58.3639 85.3252 58.011C84.3092 57.7388 82.1859 61.5805 81.7703 62.4595C79.4336 67.4016 74.8016 69.0036 69.9336 70.9098C67.5581 71.84 65.3049 73.1195 62.8669 73.8868C61.8144 74.2181 60.5864 74.3209 59.5922 74.7696C57.5684 75.6829 55.4758 76.4877 53.2178 75.8826C51.5642 75.4396 49.7416 75.3852 48.0251 74.9253C44.3778 73.948 48.951 71.5776 50.4519 70.3674C53.4773 67.9279 55.1403 64.5686 56.1494 60.8026C57.599 55.3926 50.244 59.4839 48.2335 61.1892C45.4336 63.5641 41.3923 71.1434 36.9282 66.9366C34.9516 65.0738 21.8684 60.4095 26.0413 56.5448C27.4501 55.24 28.6874 53.2212 30.6559 52.9107C32.2253 52.6632 34.0014 50.8648 35.003 49.7354C37.6731 46.7242 39.5076 42.9817 34.3464 41.7472C30.8712 40.916 25.6021 43.5217 23.4253 46.1509C20.681 49.4653 20.1533 40.8898 20.259 39.2504C20.6349 33.4221 23.2546 28.5429 26.9142 24.1313C27.7384 23.1378 28.2914 21.5187 28.7806 20.3154C29.28 19.087 30.1856 18.2833 30.9402 17.2049C32.1336 15.4995 32.5963 14.2639 33.1787 12.0902C33.9605 9.17275 32.0846 5.17478 29.3722 3.61971C28.002 2.83415 26.0616 2.63619 24.5371 2.22768M10.4811 45.7458C9.70708 43.5378 8.84013 41.1527 8.65331 39.01C8.49151 37.1544 9.5996 42.6154 10.1786 44.3857C10.1973 44.4427 10.3231 45.0138 10.4811 45.7458ZM25.9902 6.52316C25.0473 10.0421 23.9915 13.4859 22.7702 16.9206C22.5309 17.5934 18.2214 25.7407 18.043 25.5639C17.0189 24.5489 17.5993 20.1588 17.907 18.8726C18.1609 17.8109 18.4276 16.7407 18.7131 15.677M18.7131 15.677C18.9525 14.785 19.205 13.8976 19.4743 13.0235C19.988 11.3559 21.248 9.60729 22.1057 8.06228C22.2185 7.85896 22.449 7.62706 22.6808 7.3931M18.7131 15.677C19.4043 14.3009 20.0839 12.9134 20.7483 11.5082C21.1827 10.5894 22.0561 8.66112 22.6808 7.3931M18.7131 15.677C16.3104 20.4605 13.7687 25.105 11.2477 29.8675C10.9104 30.5048 10.0088 32.357 11.1207 30.7015C12.3271 28.9052 13.7271 27.2317 14.8597 25.3861C15.5533 24.2557 17.0195 20.5651 16.6762 21.8461C16.2487 23.4416 15.7607 25.0733 15.2782 26.7268M22.6808 7.3931C22.9706 7.10049 23.2624 6.80466 23.3287 6.55748C23.5472 5.74172 23.1998 6.33951 22.6808 7.3931ZM15.2782 26.7268C15.2174 26.935 15.1568 27.1434 15.0964 27.3522M15.2782 26.7268C15.2519 26.3612 15.2345 25.9955 15.2284 25.6296C15.2147 24.7943 15.1562 25.9806 15.0964 27.3522M15.2782 26.7268C15.4617 29.2832 16.0774 31.8336 16.2561 34.3923C16.4752 37.5281 16.7572 40.7199 16.7804 43.864C16.7992 46.412 16.6203 46.4857 16.048 44.0777C15.5134 41.8282 14.7961 39.6376 14.1034 37.4371M15.0964 27.3522C14.4022 29.7507 13.7371 32.1911 13.3008 34.6297M15.0964 27.3522C15.0574 28.2456 15.0178 29.2176 14.9895 29.761C14.8557 32.3296 14.5823 34.9044 14.1034 37.4371M13.3008 34.6297C13.071 35.9143 12.9047 37.1983 12.8311 38.4756M13.3008 34.6297C13.3495 34.8923 13.3866 35.095 13.4017 35.1465C13.627 35.9131 13.8637 36.6757 14.1034 37.4371M13.3008 34.6297C13.1515 33.8244 12.8932 32.4559 12.825 33.1595C12.6539 34.9244 12.7118 36.7016 12.8311 38.4756M12.8311 38.4756C12.7943 39.1139 12.7807 39.7505 12.7939 40.3847C12.8058 40.9593 12.8988 41.4329 13.0536 41.3666M12.8311 38.4756C12.8961 39.441 12.9792 40.4055 13.0536 41.3666M13.0536 41.3666C13.1409 41.3291 13.2479 41.1198 13.3711 40.6599C13.6562 39.5959 13.8986 38.5203 14.1034 37.4371M13.0536 41.3666C13.0797 41.7045 13.1048 42.042 13.1275 42.3789C13.2862 44.7249 13.3672 51.6528 13.9758 49.3816C14.0367 49.1543 13.6951 47.161 13.8205 47.5316C14.0888 48.3247 14.3824 49.092 14.7044 49.8404M14.7044 49.8404C14.8568 50.1949 15.0156 50.545 15.1811 50.8917M14.7044 49.8404C14.2706 49.9299 13.9499 50.0758 13.8022 50.2996C13.6418 50.5424 14.5467 50.767 15.1811 50.8917M14.7044 49.8404C16.6477 49.4399 20.8597 50.175 21.9458 50.1428C22.8033 50.1174 23.6345 50.0439 24.4237 49.8847M15.1811 50.8917C15.6048 51.7792 16.0723 52.6438 16.589 53.4977M15.1811 50.8917C15.4941 50.9532 15.7413 50.9904 15.7622 50.9935C19.3343 51.5261 21.6886 51.2395 24.4398 49.9385M16.589 53.4977C16.8264 53.8902 17.0743 54.2804 17.3331 54.6696C18.3491 56.1976 18.7913 56.8187 19.0149 56.6858M16.589 53.4977C14.3717 56.7489 12.5356 60.6503 11.391 64.3376C11.2851 64.6785 11.0898 65.2561 10.9067 65.8167M16.589 53.4977C16.7419 53.2734 16.8967 53.0522 17.0532 52.8344C18.7948 50.4103 18.1317 54.2237 18.631 55.7648C18.7196 56.0385 18.859 56.3513 19.0149 56.6858M19.0149 56.6858C19.2358 56.5544 19.2432 55.6863 19.3799 54.2294C19.6184 51.6891 21.049 52.0725 23.1406 52.633L23.1805 52.6437C24.9542 53.119 27.9235 50.0956 28.9911 48.7755C29.3416 48.3421 31.7307 47.1714 30.0666 47.6411C29.2393 47.8746 27.8088 48.5716 26.5952 49.1415M19.0149 56.6858C19.5287 57.7886 20.2214 59.1268 19.8635 60.0735C19.8611 60.0799 19.8586 60.0864 19.8562 60.0928M26.5952 49.1415C26.3922 49.2368 26.1953 49.3286 26.0082 49.414M26.5952 49.1415C26.4038 49.2414 26.208 49.332 26.0082 49.414M26.5952 49.1415C27.3838 48.7298 28.0982 48.1596 28.7152 47.3754C28.9161 47.1202 32.4549 42.1187 33.1764 44.1342C34.0925 46.6936 30.2997 50.5207 28.6168 51.8821C27.7446 52.5877 24.9352 53.9927 26.0548 54.0649C26.5662 54.0979 24.9936 55.8213 24.8763 55.9433C23.6992 57.167 22.7984 58.4384 21.8951 59.8704C21.5884 60.3566 21.327 60.7887 21.078 61.1888M26.0082 49.414C25.1819 49.7916 24.5488 50.0458 24.4398 49.9385M26.0082 49.414C25.5748 49.592 25.1223 49.7298 24.6541 49.8355M24.4398 49.9385C24.4269 49.9258 24.4213 49.908 24.4237 49.8847M24.4398 49.9385C24.511 49.9048 24.5824 49.8705 24.6541 49.8355M24.4237 49.8847C24.4301 49.8208 24.4962 49.7156 24.6334 49.5609C24.8108 49.3609 27.7139 48.1001 26.7498 48.6813C26.0111 49.1266 25.3199 49.5104 24.6541 49.8355M24.4237 49.8847C24.5009 49.8691 24.5777 49.8527 24.6541 49.8355M21.078 61.1888C20.8381 61.5743 20.6099 61.9302 20.3641 62.276M21.078 61.1888C20.7134 60.8804 20.2568 60.4231 19.8562 60.0928M21.078 61.1888C21.1652 61.2624 21.2471 61.3276 21.3217 61.3805C21.3365 61.391 21.3513 61.4014 21.3661 61.4119M20.3641 62.276C20.3341 62.3182 20.3039 62.3603 20.2734 62.4022M20.3641 62.276C20.3729 62.2851 20.3817 62.2942 20.3905 62.3033M20.3641 62.276C19.9776 61.8757 19.64 61.4874 19.3873 61.131M20.2734 62.4022C19.8596 62.97 19.3882 63.5173 18.7275 64.1333C15.8003 66.8625 13.228 69.357 10.9925 72.5735C10.6668 73.0422 9.46948 78.0381 8.42273 76.2251C7.41534 74.4802 10.945 70.3814 11.8128 69.1524C12.1676 68.6498 12.9139 67.4362 13.2465 66.8923M20.2734 62.4022C19.6098 62.9526 17.1134 64.911 17.2205 64.7181C17.8969 63.4997 18.7459 62.3706 19.3873 61.131M20.2734 62.4022C20.298 62.3818 20.32 62.3633 20.3394 62.347C20.3562 62.3327 20.3733 62.3182 20.3905 62.3033M13.2465 66.8923C13.4196 66.6092 13.4806 66.5076 13.3159 66.7823C13.2936 66.8195 13.2705 66.8561 13.2465 66.8923ZM13.2465 66.8923C12.5863 67.8888 11.2912 68.5451 10.3814 69.2752C10.2729 69.3623 7.98046 71.1582 8.03031 70.6707C8.18526 69.155 9.63859 67.359 10.9067 65.8167M10.9067 65.8167C11.4526 65.1528 11.9641 64.5359 12.323 64.0087C12.7914 63.3205 13.6214 61.8078 14.4954 61.4803C14.6813 61.4107 13.1152 64.0653 12.8701 64.3964C12.1618 65.3536 11.2313 66.1965 10.6194 67.2172C10.292 67.7633 10.58 66.8168 10.9067 65.8167ZM19.8562 60.0928C19.7203 60.4497 19.5614 60.7944 19.3873 61.131M19.8562 60.0928C19.3725 59.694 18.9706 59.4806 18.911 59.9388C18.8704 60.2517 19.056 60.664 19.3873 61.131M20.3905 62.3033C20.6714 62.061 21.0026 61.7399 21.3661 61.4119M20.3905 62.3033C22.0739 64.0393 24.6604 65.9931 25.2402 66.5536C28.1238 69.3412 31.104 72.345 35.0194 73.6105C35.954 73.9125 35.0088 73.0229 34.8403 72.8391C34.7753 72.7683 34.7108 72.6968 34.6467 72.6249M21.3661 61.4119C22.489 60.3987 23.9203 59.3206 25.1306 60.3034C28.261 62.8451 30.2794 66.7072 32.6652 70.0913M21.3661 61.4119C23.5934 62.9921 25.7553 64.6582 27.8989 66.3497C29.4392 67.5652 30.984 68.7785 32.5235 69.9993M32.6652 70.0913C32.6761 70.1067 32.687 70.1222 32.698 70.1377M32.6652 70.0913C32.618 70.0604 32.5707 70.0297 32.5235 69.9993M32.6652 70.0913C34.0003 70.9641 35.3003 71.991 36.3842 73.0953M32.698 70.1377C33.3142 71.0094 33.9553 71.8487 34.6467 72.6249M32.698 70.1377C32.6398 70.0915 32.5816 70.0454 32.5235 69.9993M32.698 70.1377C33.932 71.117 35.1625 72.1013 36.3842 73.0953M34.6467 72.6249C35.5501 73.4556 36.4605 74.3024 37.3985 75.1088M34.6467 72.6249C33.9221 71.9586 33.2019 71.3028 32.4755 70.6864C31.3696 69.7481 27.632 67.5506 28.971 68.1078C30.0901 68.5735 31.3184 69.2227 32.5235 69.9993M36.3842 73.0953C37.4484 73.9613 38.5061 74.8347 39.5537 75.7188M36.3842 73.0953C37.0874 73.8118 37.6996 74.5609 38.1713 75.3216M39.5537 75.7188C39.6139 75.7696 39.6741 75.8204 39.7342 75.8713M39.5537 75.7188C39.5427 75.7154 39.5317 75.7121 39.5207 75.7087C39.1836 75.6063 38.7046 75.4697 38.1713 75.3216M39.5537 75.7188C40.3219 75.9542 41.0681 76.2476 41.8148 76.5382M39.7342 75.8713C39.7429 75.8787 39.7517 75.8861 39.7605 75.8935C39.8726 75.9884 40.6786 76.6296 41.4395 77.2737M39.7342 75.8713C40.4261 76.0951 41.1164 76.3236 41.8054 76.5555M39.7342 75.8713C39.2277 75.7074 38.7202 75.5459 38.2118 75.3873M41.4395 77.2737C42.4545 78.133 43.3892 78.9976 42.4893 78.5778C42.042 78.3691 41.6052 78.1376 41.1776 77.8872M41.4395 77.2737C41.5541 77.0327 41.6765 76.7932 41.8054 76.5555M41.4395 77.2737C41.4211 77.3123 41.403 77.351 41.385 77.3897C41.3153 77.5398 41.2482 77.7099 41.1776 77.8872M41.1776 77.8872C40.2588 77.3491 39.3822 76.7237 38.5335 76.0494M41.1776 77.8872C41.0243 78.2722 40.8545 78.6914 40.6059 79.0147M38.5335 76.0494C38.1669 75.7582 37.8056 75.4579 37.4484 75.1517M38.5335 76.0494C38.4625 75.8484 38.3665 75.6447 38.2428 75.4386C38.2325 75.4215 38.2222 75.4044 38.2118 75.3873M38.5335 76.0494C38.8272 76.8812 38.6922 77.6677 38.3147 78.3931M37.4484 75.1517C37.4317 75.1374 37.4151 75.1231 37.3985 75.1088M37.4484 75.1517C37.4643 75.1565 37.4801 75.1613 37.496 75.1662C37.7348 75.2393 37.9734 75.313 38.2118 75.3873M37.4484 75.1517C36.506 74.865 35.5512 74.621 34.5999 74.3661C33.4567 74.0598 35.5015 74.5909 37.3985 75.1088M37.3985 75.1088C37.6619 75.1808 37.9225 75.2524 38.1713 75.3216M38.1713 75.3216C38.1849 75.3435 38.1984 75.3654 38.2118 75.3873M38.3147 78.3931C38.1081 78.7902 37.8289 79.1689 37.5076 79.5267M38.3147 78.3931C36.2617 77.841 34.2061 77.2986 32.1532 76.7486C31.6416 76.6115 28.5684 75.5027 30.5599 76.7557C32.4287 77.9315 35.0442 79.1823 37.5076 79.5267M38.3147 78.3931C39.0789 78.5987 39.8427 78.8056 40.6059 79.0147M37.5076 79.5267C36.6404 80.4923 35.4666 81.3056 34.5866 81.9153L34.5173 81.9633C33.6437 82.5688 32.3527 83.6985 31.7992 83.9649M37.5076 79.5267C38.2771 79.6343 39.0317 79.6534 39.7441 79.5541C40.1171 79.5022 40.391 79.2943 40.6059 79.0147M31.7992 83.9649C31.5489 84.0853 31.4495 84.0292 31.6075 83.6684M31.7992 83.9649C31.9709 83.5915 32.1301 83.2326 32.2597 82.9199M31.7992 83.9649C31.1966 85.2751 30.4392 86.7643 30.2565 87.0666C29.7485 87.9072 29.2648 88.751 28.7332 89.5675M31.6075 83.6684C31.7168 83.419 31.9492 83.0239 32.3399 82.4408C32.414 82.3302 32.4835 82.2279 32.5486 82.1334M31.6075 83.6684C31.8353 83.4261 32.0559 83.1788 32.2597 82.9199M31.6075 83.6684C31.0902 84.2189 30.5361 84.7435 30.0586 85.3204M32.5486 82.1334C33.743 80.3997 33.4366 81.3259 32.4086 82.7244C32.3601 82.7903 32.3104 82.8555 32.2597 82.9199M32.5486 82.1334C32.647 81.7773 32.569 81.7174 32.1917 82.1841C31.6609 82.8403 30.7355 84.266 30.0586 85.3204M32.5486 82.1334C32.4961 82.3231 32.3936 82.5969 32.2597 82.9199M30.0586 85.3204C29.8037 85.6282 29.5707 85.9509 29.3768 86.3004C28.9796 87.0158 29.4023 86.3426 30.0586 85.3204ZM28.7332 89.5675C28.6479 89.6985 28.5614 89.8288 28.4733 89.9583M28.7332 89.5675C28.825 89.6793 28.9258 89.766 29.041 89.8031C29.1318 89.8323 29.2353 89.8605 29.349 89.8879M28.7332 89.5675C28.2629 88.9941 28.0305 87.7574 27.318 89.1244C26.9634 89.8048 27.712 89.9303 28.2532 89.9537C28.3263 89.9568 28.3997 89.9584 28.4733 89.9583M28.4733 89.9583C28.2532 90.282 28.0234 90.6004 27.7795 90.9118C27.2721 91.5592 25.737 92.5036 27.5319 92.1957C29.3062 91.8913 31.3545 91.4481 33.0454 90.8761C34.2641 90.4638 30.8828 90.2566 29.349 89.8879M28.4733 89.9583C28.7621 89.9581 29.055 89.9337 29.349 89.8879M29.349 89.8879C31.2778 89.5869 33.2564 88.3618 34.4723 86.9906C35.3929 85.9524 35.9368 84.1993 36.8065 82.9276M36.8065 82.9276C37.0333 82.5958 37.2824 82.2968 37.566 82.0518M36.8065 82.9276C36.0946 83.4117 35.4521 83.8834 35.3311 83.9656C31.0227 86.8919 36.0922 83.14 37.566 82.0518M36.8065 82.9276C38.1175 82.0361 39.6637 81.1029 38.6214 82.4843C38.0138 83.2896 37.1083 83.8698 38.6197 83.9305C40.1036 83.9902 41.605 84.0761 43.1124 84.1946M37.566 82.0518C37.6856 81.9485 37.8113 81.8549 37.9441 81.7724C37.9486 81.7696 37.8043 81.8759 37.566 82.0518ZM43.1124 84.1946C44.0681 84.2698 45.0262 84.358 45.9837 84.461M43.1124 84.1946C43.0862 84.4918 43.2567 84.9059 43.6782 85.4789C45.9731 88.5984 51.0837 88.8208 54.9361 89.267C56.9741 89.503 57.0374 89.0584 55.219 88.5712C52.0136 87.7123 48.703 86.404 45.9837 84.461M43.1124 84.1946C43.1597 83.6562 43.8521 83.5016 44.8653 83.481M45.9837 84.461C49.4061 84.829 52.8214 85.3849 56.095 86.2018M45.9837 84.461C45.9275 84.4208 45.8716 84.3804 45.8159 84.3397C45.2549 83.9297 44.9612 83.6544 44.8653 83.481M56.095 86.2018C56.1298 86.2106 57.7579 86.6474 56.9498 86.4309L56.095 86.2018ZM56.095 86.2018L49.5034 84.4357C48.9886 84.2977 47.6501 83.8274 46.5368 83.5178M46.5368 83.5178C45.4901 83.2269 44.6425 83.078 44.8653 83.481M46.5368 83.5178C46.4273 83.5132 46.3179 83.5087 46.2085 83.5046C45.7236 83.486 45.269 83.4729 44.8653 83.481M46.5368 83.5178C50.0721 83.6683 53.6227 84.0543 57.1703 84.2476M57.1703 84.2476C58.2126 84.3044 59.2547 84.3445 60.296 84.3572M57.1703 84.2476C55.6845 83.7557 54.2149 83.2095 52.7416 82.6992C48.7439 81.3146 44.6843 80.1324 40.6059 79.0147M57.1703 84.2476C58.4628 84.6754 59.7676 85.0621 61.0978 85.3482C63.4029 85.8439 61.3464 84.8531 60.296 84.3572M60.296 84.3572C60.91 84.3647 61.5238 84.3626 62.1372 84.3488C62.8094 84.3336 64.4198 84.1151 62.8941 83.6836C62.8525 83.6718 62.8108 83.66 62.7692 83.6481M60.296 84.3572C60.1033 84.2662 59.9444 84.1919 59.8526 84.1465C59.7353 84.0885 56.3262 82.4298 56.6204 82.1713C56.7382 82.0678 56.9048 81.976 57.0999 81.8944M62.7692 83.6481C62.4136 83.5471 62.0587 83.4443 61.7044 83.34M62.7692 83.6481C63.569 83.5539 64.378 83.4831 64.8626 83.5359C65.4213 83.5967 68.4156 83.872 68.8771 84.43M62.7692 83.6481C61.241 83.8282 59.7462 84.0938 60.6107 83.7468C60.97 83.6026 61.335 83.4676 61.7044 83.34M61.7044 83.34C60.1591 82.8848 58.6256 82.3993 57.0999 81.8944M61.7044 83.34C64.2765 82.4508 67.0596 81.9147 69.6274 81.0512C71.9321 80.2762 73.9777 78.8145 76.0537 77.4048M57.0999 81.8944C52.7679 80.4609 48.4978 78.8709 44.1937 77.3738M57.0999 81.8944C57.8384 81.5853 58.9845 81.4209 59.4314 81.309C61.912 80.688 64.3986 80.101 66.9062 79.5987C70.014 78.9761 73.0461 78.3194 76.0537 77.4048M44.1937 77.3738C43.5394 77.1462 42.8844 76.9208 42.2282 76.6984M44.1937 77.3738C44.1526 77.3621 44.1056 77.3485 44.0525 77.3329C43.4335 77.1515 42.8294 76.9295 42.2282 76.6984M44.1937 77.3738C45.1966 77.6595 42.7424 76.8365 42.571 76.743C42.3482 76.6216 42.1294 76.4932 41.9141 76.3583M42.2282 76.6984C42.0874 76.6506 41.9464 76.603 41.8054 76.5555M42.2282 76.6984C42.0903 76.6453 41.9525 76.5918 41.8148 76.5382M41.8054 76.5555C41.8085 76.5497 41.8117 76.544 41.8148 76.5382M41.8148 76.5382C41.8475 76.4781 41.8806 76.4182 41.9141 76.3583M41.9141 76.3583C39.0018 74.5336 36.7502 71.5391 34.4518 69.07C34.1363 68.7312 31.4407 66.1414 33.5874 66.7166C36.0385 67.3733 38.3377 68.6701 40.5569 69.862C40.9197 70.0569 42.5504 70.7273 43.6419 71.4213M41.9141 76.3583C42.1816 75.8805 42.4748 75.4099 42.7848 74.9485M43.6419 71.4213C44.2041 71.7787 44.6232 72.1424 44.6523 72.4506M43.6419 71.4213C41.3547 71.6534 39.1793 70.819 36.8058 70.183C35.5953 69.8587 43.7793 72.6809 44.5897 72.5282M43.6419 71.4213C44.3511 71.3493 45.0711 71.1747 45.8111 70.8599C45.982 70.7872 46.1503 70.7046 46.3161 70.6131M44.6523 72.4506C44.6532 72.46 44.6538 72.4695 44.6539 72.4788C44.6543 72.504 44.6321 72.5202 44.5897 72.5282M44.6523 72.4506C44.7647 72.3117 44.877 72.1742 44.989 72.0381C45.3719 71.5727 45.8233 71.0978 46.3161 70.6131M44.6523 72.4506C44.6315 72.4764 44.6106 72.5023 44.5897 72.5282M44.5897 72.5282C43.995 73.2656 43.4013 74.0401 42.8563 74.8426M46.3161 70.6131C47.5972 69.9064 48.7274 68.6719 49.7529 67.3926M46.3161 70.6131C47.3618 69.5846 48.5937 68.5121 49.7529 67.3926M49.7529 67.3926C50.5822 66.3581 51.343 65.2943 52.0598 64.4568C54.0042 62.185 51.135 65.0813 50.6018 65.4887C48.7594 66.8964 46.7884 68.1476 44.7643 69.2774C43.1326 70.1882 44.5555 68.6478 44.9998 68.0385C46.0057 66.6586 47.0519 65.25 48.398 64.1749C49.0044 63.6905 53.7907 61.3263 53.6216 61.9577C53.1053 63.8843 51.5132 65.6926 49.7529 67.3926ZM42.8563 74.8426C42.8324 74.8778 42.8085 74.9131 42.7848 74.9485M42.8563 74.8426C45.2797 75.4946 47.6997 76.1637 50.1352 76.7686C53.0061 77.4817 55.9218 78.0313 58.8007 78.7147M42.8563 74.8426C42.701 74.8008 42.5457 74.7591 42.3904 74.7175C41.9161 74.5904 42.2396 74.7347 42.7848 74.9485M42.7848 74.9485C43.5102 75.233 44.628 75.6405 44.7806 75.6955C49.1645 77.275 54.0546 78.7702 58.8007 78.7147M76.0537 77.4048C76.7238 77.201 77.3928 76.9844 78.061 76.7525C79.4921 76.256 81.0701 75.3787 82.5847 75.1677C83.4689 75.0445 84.2453 74.2891 84.9571 73.3494M76.0537 77.4048C78.166 75.9705 80.3098 74.5899 82.7901 74.0412C83.5606 73.8708 84.2818 73.6428 84.9571 73.3494M84.9571 73.3494C85.542 72.5773 86.0833 71.6806 86.6051 70.9078M84.9571 73.3494C85.3567 73.1758 85.7402 72.9793 86.1084 72.7582M86.6051 70.9078C86.8065 70.6094 87.005 70.3296 87.202 70.0824M86.6051 70.9078C86.7509 70.8382 86.894 70.7703 87.0331 70.7051M86.6051 70.9078C85.4115 71.4773 84.0382 72.1588 83.2301 72.399C81.2113 72.9989 79.1904 73.2231 77.1319 73.4302M87.202 70.0824C87.3521 69.8941 87.5013 69.7248 87.6503 69.5808C88.1737 69.0746 89.1808 67.9967 89.798 67.201M87.202 70.0824C87.299 69.6653 87.3672 69.235 87.4037 68.7913C87.4279 68.4958 87.4388 68.1566 87.4353 67.794M87.202 70.0824C87.1529 70.2933 87.0965 70.5009 87.0331 70.7051M89.798 67.201C90.32 66.528 90.5631 66.0569 89.9991 66.304C89.9729 66.3155 89.9462 66.3275 89.9189 66.34M89.798 67.201C89.8537 66.9107 89.8956 66.6222 89.9189 66.34M89.798 67.201C89.6042 68.2105 89.2426 69.2414 88.9068 70.1046M89.9189 66.34C89.2615 66.642 88.2988 67.2423 87.4353 67.794M89.9189 66.34C90.021 65.107 89.7703 63.9935 88.7829 63.3741C86.7103 62.0738 86.3675 63.3276 85.4821 64.8043C84.0626 67.1719 80.0377 69.1077 77.6695 70.475C75.6284 71.6534 73.8669 73.1003 71.7311 74.1153M87.4353 67.794C86.7165 68.2532 86.0666 68.6787 85.7188 68.8703C82.8826 70.4329 80.0189 71.955 77.1319 73.4302M87.4353 67.794C87.4226 66.4834 87.2219 64.867 86.7854 63.8998C86.3667 62.9721 85.78 64.6579 85.5014 65.0024C83.7092 67.2185 82.0894 68.5387 79.6742 70.1923C77.924 71.3906 76.1046 72.5249 74.3488 73.7258M77.1319 73.4302C74.7794 74.6323 72.4114 75.8032 70.0299 76.9394C67.0558 78.3585 63.4615 80.2864 59.9988 79.8214C58.9853 79.6853 57.9814 79.3291 56.9947 79.0647C56.0995 78.8249 58.8342 79.2952 59.7578 79.3711C59.9345 79.3856 61.093 79.2948 60.8786 79.2374C60.1889 79.0526 59.4958 78.8797 58.8007 78.7147M77.1319 73.4302C76.6668 73.477 76.1998 73.523 75.7304 73.5722C75.2618 73.6213 74.8019 73.6716 74.3488 73.7258M58.8007 78.7147C59.6002 78.7054 60.3957 78.652 61.184 78.5476C64.9775 78.0453 69.6323 77.1507 72.7599 74.8498C73.2811 74.4664 73.812 74.093 74.3488 73.7258M74.3488 73.7258C73.4547 73.8329 72.5871 73.9554 71.7311 74.1153M87.0331 70.7051C86.8076 71.431 86.4938 72.1148 86.1084 72.7582M87.0331 70.7051C88.0594 70.2239 88.8658 69.8886 88.9068 70.1046M86.1084 72.7582C85.4256 73.8983 84.5181 74.9112 83.4798 75.8055M86.1084 72.7582C87.0788 72.1757 87.943 71.4225 88.7144 70.4687C88.7562 70.4169 88.7909 70.3704 88.8188 70.3287M83.4798 75.8055C81.3057 77.678 78.5581 79.0303 76.0979 79.9397C74.3959 80.5688 72.5483 81.0466 70.9137 81.8298C69.9043 82.3135 74.3263 81.7917 74.8536 81.704C76.6147 81.4111 78.3646 81.3406 80.0561 80.7351C81.1051 80.3596 79.9449 81.3358 79.5466 81.4666C76.0408 82.6178 72.4378 83.4583 68.8771 84.43M83.4798 75.8055C85.6291 74.8066 87.5294 73.506 88.5472 71.0026L88.5622 70.9656C88.6419 70.7697 88.7288 70.5561 88.8188 70.3287M83.4798 75.8055C81.5188 76.7169 79.3504 77.3773 77.4559 78.4711M68.8771 84.43C67.6989 84.7516 66.5253 85.0875 65.3614 85.4538C64.8212 85.6239 63.7467 85.5658 63.2965 85.9614C62.0803 87.0303 66.5704 85.733 68.0892 85.172C68.8707 84.8834 69.0485 84.6372 68.8771 84.43ZM88.8188 70.3287C88.8883 70.225 88.9158 70.1517 88.9068 70.1046M88.8188 70.3287C88.8479 70.2554 88.8772 70.1806 88.9068 70.1046M71.7311 74.1153C70.3101 74.3808 68.9214 74.7493 67.4979 75.3206C67.0904 75.4842 64.1962 76.6509 64.8845 76.5252C66.9918 76.1405 69.1571 75.213 71.1237 74.3873C71.3298 74.3008 71.5321 74.2099 71.7311 74.1153ZM87.9786 63.4961C86.9166 64.1093 81.6482 66.4975 81.7473 67.8544C81.9313 70.3719 84.9553 75.8736 83.5968 78.1394C83.3826 78.4966 82.0263 78.913 81.6138 79.1512M50.232 58.5901C50.6665 57.2972 51.7442 57.2592 52.8707 57.5611C54.3163 57.9484 54.304 56.1871 55.7423 57.4625C57.3351 58.875 58.7763 61.4609 57.0763 63.4621C56.4049 64.2526 54.5849 66.6412 54.8534 65.6393C55.3615 63.7428 55.2056 61.9087 55.4962 60.0006C55.8139 57.9148 50.4426 58.8783 49.4533 59.8764C48.5155 60.8226 48.3718 62.2929 48.0116 63.6373M33.1934 80.0654C32.2601 83.5486 31.429 84.2082 28.5569 85.6708C26.4674 86.7348 25.5474 88.4109 24.2635 90.3555C22.6767 92.7588 22.4293 93.6737 25.6508 94.5368C28.4464 95.2859 29.7576 94.0293 32.2197 92.6079C33.3271 91.9685 34.126 90.8808 34.99 89.8871M34.99 89.8871C35.5542 89.2383 36.1461 88.6295 36.8698 88.2117C38.1579 87.468 39.2626 87.0737 40.2674 86.0599C40.871 85.4509 42.8185 83.7795 42.2497 84.421C41.4396 85.3346 40.2427 86.6225 39.12 87.1027C37.5536 87.7727 36.3275 88.9139 34.99 89.8871ZM34.99 89.8871C34.615 90.1599 34.2313 90.4196 33.8288 90.652M17.7967 61.3978C16.7079 62.2397 15.7633 63.2275 15.4822 64.2765C15.1671 65.4526 19.7959 64.1562 17.0187 66.6412C13.8172 69.5059 12.6691 74.6509 10.4172 78.2303C8.61101 81.1011 1.42359 74.7726 2.52647 71.4142C3.87663 67.3028 6.59461 65.5759 9.73956 62.7619C10.8852 61.7368 16.1471 56.5328 12.8825 60.3007C11.6672 61.7034 10.5968 63.4282 9.47142 64.9324C7.69811 67.3027 5.94942 69.0522 3.91007 71.1098C2.85831 72.171 3.04198 74.1564 4.71003 74.6034C8.17348 75.5314 4.8669 72.8241 5.66083 71.1449C7.61971 67.0018 12.2972 64.0044 14.8961 60.1651C15.7778 58.8624 15.0306 60.383 14.847 61.0682C14.638 61.8481 13.6361 63.9469 14.2426 63.4139C16.016 61.8553 16.9628 59.8637 18.1109 57.7955C18.4328 57.2157 19.7393 54.148 19.1283 56.4285L17.7967 61.3978ZM17.7967 61.3978C18.8662 60.5708 20.075 59.8846 20.931 59.4192C22.0533 58.809 23.2542 58.8475 23.661 57.3296C23.7135 57.1334 23.9056 56.6387 24.0359 56.1584M17.7967 61.3978L17.5128 62.4576M24.0359 56.1584C24.1692 55.6673 24.2378 55.1912 24.0267 55.0646C23.133 54.5288 21.7189 54.3949 20.8494 54.8643C20.1645 55.2341 22.4321 56.1635 24.0359 56.1584ZM24.0359 56.1584C24.7667 56.1561 25.3596 55.9597 25.4725 55.4279C25.6936 54.387 25.9289 52.6929 25.8417 51.6207C25.6976 49.8508 29.5511 46.0751 26.5498 47.8079C26.2177 47.9997 28.2788 46.3806 28.2348 46.3787C27.4953 46.3468 25.6539 48.0994 24.9798 48.4481C23.4161 49.2572 21.9235 50.1798 20.3665 50.9976C19.2776 51.5694 14.1814 50.5939 14.5431 49.2443C14.8227 48.2007 18.5693 48.5565 19.4857 48.6156M35.2067 45.0158C34.6382 47.1375 34.0477 48.709 32.5628 50.3835C31.5154 51.5647 30.0819 53.2672 28.8496 54.1627C26.7242 55.7075 26.1066 59.5197 27.7442 61.4377C27.9299 61.6551 28.2318 62.0607 28.5522 62.4283M28.5522 62.4283C29.2096 63.1828 29.9445 63.7777 29.9111 62.2594C29.8852 61.0827 30.1338 59.7004 29.8375 58.5747C29.7245 58.1453 28.7792 61.0994 28.5522 62.4283ZM28.5522 62.4283C28.516 62.64 28.4981 62.8104 28.5046 62.9193C28.577 64.1258 29.4015 65.1975 29.9859 66.2097C30.9758 67.9243 31.5932 69.7454 32.4445 71.522C33.255 73.2136 35.4882 75.2734 34.292 77.2252C33.7383 78.1286 33.1292 79.0616 32.4735 79.8725C31.2328 81.4066 30.0334 83.1305 28.9 84.7501C26.6197 88.0087 23.0188 88.8818 21.8898 93.0951M23.4811 4.54882C25.2212 5.01508 27.2932 5.26126 28.9193 6.03008C30.0466 6.56309 29.4384 7.72693 28.2336 8.99349M28.2336 8.99349C26.3856 10.9361 23.134 13.1204 22.5881 13.6408C22.0492 14.1544 21.5169 14.6829 21.0115 15.2354M28.2336 8.99349C27.6866 8.53198 27.0946 8.13893 26.3845 7.93087C21.7015 6.5586 17.4709 10.2664 14.2051 13.2512C12.1103 15.1657 9.24987 17.387 8.42673 20.2385C7.63453 22.9828 7.23322 25.7235 6.85202 28.545C6.71552 29.5554 6.67004 31.3728 6.62471 33.0285M28.2336 8.99349C29.1554 9.77122 29.9494 10.7434 30.9652 11.3524C31.2645 11.5319 28.709 13.6796 27.2037 14.4907M21.0115 15.2354C20.2876 16.0269 19.6192 16.8677 19.0665 17.7848C18.7213 18.3576 18.138 19.9575 17.9942 20.269M21.0115 15.2354C20.9979 14.9399 20.9417 14.6725 20.8288 14.4473C20.4261 13.6443 18.1442 19.6071 17.9985 20.1509C17.9821 20.2119 17.9715 20.2554 17.966 20.2832M21.0115 15.2354C21.0586 16.259 20.5941 17.6199 20.2019 18.7294M17.9942 20.269C17.9655 20.3312 17.9543 20.342 17.966 20.2832M17.9942 20.269C18.7201 19.9018 19.5562 19.2813 20.2019 18.7294M17.9942 20.269C17.9848 20.2738 17.9753 20.2785 17.966 20.2832M17.966 20.2832C17.0308 20.7497 16.2867 20.7855 16.3847 19.6944C16.6162 17.1179 16.1671 17.9657 15.4543 19.9273C14.3216 23.0447 12.7001 26.0172 11.7001 29.1689C11.0307 31.2788 9.71743 34.3068 9.61507 36.8325M20.2019 18.7294C20.0212 19.2404 19.8559 19.6981 19.7629 20.045C19.2421 21.9887 17.9918 24.5952 18.0252 26.6201C18.0774 29.7826 22.8639 14.9786 21.2375 17.6914C21.1266 17.8764 20.7273 18.2802 20.2019 18.7294ZM9.61507 36.8325C9.59647 37.2915 9.61786 37.734 9.69039 38.1513M9.61507 36.8325C9.65544 37.4047 9.6807 37.8366 9.68665 38.0331C9.68787 38.0734 9.68912 38.1128 9.69039 38.1513M9.61507 36.8325C9.43018 34.212 8.9283 28.6485 8.51193 29.2791C7.97672 30.0897 7.16678 31.5716 6.62471 33.0285M9.69039 38.1513C9.69206 38.1609 9.69375 38.1705 9.69548 38.1801C9.92816 39.4732 9.76888 40.5388 9.69039 38.1513ZM6.62471 33.0285C6.18804 34.2021 5.9252 35.3596 6.11981 36.137C6.48964 37.6143 6.557 35.5018 6.62471 33.0285ZM27.2037 14.4907C26.7328 14.7445 26.3646 14.8674 26.2188 14.7583C25.5994 14.2949 29.3109 10.7194 27.2037 14.4907ZM27.2037 14.4907C27.1623 14.5649 27.1186 14.6419 27.0725 14.7219C25.3854 17.6521 24.5605 20.9771 22.7619 23.7903C22.5674 24.0945 22.2047 24.63 21.8042 25.2033M21.8042 25.2033C20.5768 26.9598 18.9939 29.0704 20.8045 25.9663C22.1074 23.7326 22.1355 24.1491 21.8042 25.2033ZM21.8042 25.2033C21.5922 25.8777 21.2331 26.8131 20.9666 27.4824M20.9666 27.4824C20.6105 28.3768 20.4198 28.7961 20.9666 27.4824ZM20.9666 27.4824C21.0152 27.3657 21.0696 27.2353 21.1302 27.0904C21.2571 26.7869 22.678 23.7435 22.4308 24.666L21.927 26.5463M21.927 26.5463L19.8207 34.4071C19.4755 35.6953 19.1607 37.0179 18.9358 38.3553M21.927 26.5463C21.1405 27.999 20.2379 29.5474 19.6211 30.2465M21.927 26.5463C22.7144 25.0918 23.3854 23.7333 23.5365 23.4191C24.8735 20.6393 27.1767 18.2927 27.978 15.302M18.9358 38.3553C18.6074 40.308 18.4709 42.2926 18.7121 44.249M18.9358 38.3553C18.8624 39.4274 18.8034 40.5009 18.768 41.5755C18.7562 41.9325 18.7285 43.1645 18.7121 44.249M18.9358 38.3553C19.1215 35.641 19.3993 32.936 19.6211 30.2465M18.7121 44.249C18.7136 44.2615 18.7151 44.274 18.7167 44.2864C18.7529 44.5745 18.7686 44.9006 18.7779 45.2429M18.7121 44.249C18.6895 45.7356 18.6882 46.9449 18.7779 45.2429M18.7779 45.2429C18.8036 46.1844 18.781 47.2483 19.0048 47.9804C19.4743 49.5155 19.4882 44.8045 19.6332 43.2058C19.7496 41.9213 19.8489 40.635 19.7998 39.3444C19.7802 38.8286 20.0651 37.3654 19.7807 37.7961C18.6996 39.4335 18.8946 42.8027 18.8063 44.6721C18.796 44.8905 18.7865 45.08 18.7779 45.2429ZM19.6211 30.2465C19.6228 30.2255 19.6245 30.2046 19.6263 30.1836C19.6665 29.694 19.4656 27.0845 19.0107 26.8118C17.7437 26.0521 18.2658 30.0176 19.0092 30.5969C19.1359 30.6957 19.3511 30.5525 19.6211 30.2465ZM31.2949 41.7976C31.5625 41.8383 32.035 41.8911 32.5915 41.9263M32.5915 41.9263C34.2126 42.0288 36.5466 41.9815 36.6067 41.0508C36.7077 39.4843 34.0079 41.0874 32.5915 41.9263ZM32.5915 41.9263C32.3095 42.0933 32.0784 42.23 31.9304 42.3054C31.1887 42.6831 26.8438 44.7288 28.9619 43.1255C30.4332 42.0117 31.7243 40.5876 33.2149 39.491C34.2468 38.7318 37.2032 40.5519 37.7974 41.4663C39.8971 44.698 36.4368 46.1632 34.1812 48.2131C32.6169 49.6348 29.3825 52.6148 28.7411 54.5677C28.0033 56.8146 27.509 59.1659 26.8966 61.4517M29.8184 57.0264C32.3725 57.7108 32.5272 62.7939 34.1749 64.7039C35.8542 66.6504 38.584 67.8377 40.5918 69.4614C41.4322 70.141 41.7871 71.0837 42.8984 71.3815M14.9072 60.8432L16.2093 55.9839" stroke="#6DCDA0" stroke-width="3" stroke-linecap="round"/>
</svg>
