<svg width="100" height="100" viewBox="0 0 100 100" fill="none" xmlns="http://www.w3.org/2000/svg">
<g clip-path="url(#clip0_9_34235)">
<g style="mix-blend-mode:multiply">
<path d="M55.5385 88.1796L19.5385 32.3847L36.4615 10.9488L79.4359 9.71802L88.6667 30.1283L55.5385 88.1796Z" fill="#AFE8D9"/>
<path d="M55.5385 88.1796L19.5385 32.3847L36.4615 10.9488L79.4359 9.71802L88.6667 30.1283L55.5385 88.1796Z" stroke="#AFE8D9" stroke-width="0.8" stroke-miterlimit="10"/>
</g>
<g style="mix-blend-mode:multiply">
<path d="M27.7436 14.3333C26.9231 14.3333 26.4103 14.8461 25.7949 15.3589C25.0427 16.1794 24.2906 16.9657 23.5385 17.7179C21.8974 19.2563 20.4615 20.9999 19.0256 22.7435C16.5641 26.0256 14.6154 29.923 11.3333 32.4871C10.6154 32.8974 10.6154 34.0256 11.5385 34.3333C13.4872 34.8461 15.5385 34.4358 17.5897 34.4358C19.9829 34.4358 22.3761 34.47 24.7692 34.5384C29.5897 34.7435 34.4103 34.9486 39.3333 34.7435C44.359 34.5384 49.282 34.1281 54.2051 34.0256C59.1282 33.923 64.1538 34.0256 69.0769 34.0256C71.8462 34.0256 74.6154 33.923 77.3846 34.0256C79.7436 34.1281 82.1026 34.8461 84.4615 34.3333C84.9744 34.2307 85.282 33.6153 85.0769 33.1025C84.2564 30.1281 81.7949 28.0768 80.7692 25.205C80.2222 23.7008 79.6068 22.1965 78.9231 20.6922C78.5128 19.8717 78.1367 19.0512 77.7949 18.2307C77.4872 17.5127 77.1795 16.8974 77.282 16.1794C76.8718 16.3845 76.4615 16.6239 76.0513 16.8974C76.6667 17.1025 77.0769 19.1538 77.282 19.7691C77.8974 21.4102 78.3077 23.1538 78.8205 24.7948C79.2991 26.4358 79.9145 28.0085 80.6667 29.5127C80.9744 30.1281 81.2821 30.7435 81.6923 31.3589C82.2051 31.8717 82.7179 32.4871 82.9231 33.1025C82.9914 32.829 83.0598 32.5213 83.1282 32.1794C83.265 32.111 83.4017 32.0768 83.5385 32.0768C82.3077 31.6666 81.7949 33.6153 83.0256 34.0256C83.641 34.2307 84.1538 34.0939 84.5641 33.6153C84.8718 33.3076 84.9744 32.9999 84.8718 32.5897C84.359 31.1538 83.1282 30.0256 82.5128 28.6922C81.5897 26.7435 80.9744 24.7948 80.359 22.8461C79.8462 21.205 79.3333 19.564 78.8205 17.923C78.4103 16.6922 77.8974 15.4615 76.6667 14.9486C76.1538 14.7435 75.5385 15.1538 75.4359 15.6666C75.0256 17.3076 75.7436 18.4358 76.359 19.9743C77.1795 21.6153 77.8974 23.3589 78.6154 25.1025C79.1282 26.7435 79.8462 28.0768 80.8718 29.5127C81.6923 30.7435 82.7179 32.0768 83.2308 33.6153C83.4359 33.205 83.641 32.7948 83.8462 32.3845C81.8974 32.7948 79.641 32.1794 77.5897 32.0768C75.2308 31.8717 72.8718 31.9743 70.4103 31.9743C65.5897 32.0768 60.6667 31.9743 55.8462 31.9743C46.1026 32.0768 36.5641 33.3076 26.8205 32.6922C24.2906 32.4871 21.7265 32.3845 19.1282 32.3845C17.8974 32.3845 16.7692 32.3845 15.5385 32.3845C14.4103 32.4871 13.1795 32.6922 12.0513 32.3845C12.1197 32.9999 12.2222 33.6153 12.359 34.2307C15.3333 31.8717 17.282 28.5897 19.4359 25.6153C20.6667 23.8717 22 22.1281 23.5385 20.5897C24.2564 19.7691 24.9744 19.0512 25.7949 18.3333C26.1367 17.9914 26.4786 17.6153 26.8205 17.205C26.9231 17.1025 27.5385 16.3845 27.7436 16.3845C29.0769 16.3845 29.0769 14.4358 27.7436 14.3333Z" fill="black"/>
</g>
<g style="mix-blend-mode:multiply">
<path d="M26.718 13.6154C26.6496 13.547 26.6154 13.5128 26.6154 13.5128C26.3419 14.0598 26.1026 14.6068 25.8974 15.1538C34.4103 15.359 43.0256 15.359 51.5385 15.1538C55.8462 14.9487 60.0513 14.8461 64.359 14.8461C66.547 14.8461 68.7009 14.8461 70.8205 14.8461C71.8462 14.8461 72.8718 14.8461 73.7949 14.8461C74.5128 14.8461 75.3333 14.641 76.0513 14.8461C75.9145 14.2307 75.812 13.6154 75.7436 13C75.2308 13.3077 74.718 13.2051 74.3077 13.6154C73.8974 14.0256 73.7949 14.641 73.8974 15.1538C74.2051 16.1795 75.1282 16.8974 75.7436 17.6154C75.812 17.1367 75.8803 16.6239 75.9487 16.0769C76.4615 15.7692 76.9744 16.282 76.4615 15.7692C76.2564 15.5641 76.1197 15.3931 76.0513 15.2564C75.9487 15.1538 75.7436 14.641 75.7436 14.5384C75.9487 14.7436 75.1282 14.9487 75.1282 14.8461C75.1282 14.9487 75.641 15.9743 75.641 16.0769C75.8462 16.5897 75.9487 17 76.359 17.4102C77.0769 18.1282 78.3077 17.4102 78 16.3846C77.7949 15.5641 77.4872 14.7436 77.0769 14.0256C76.5641 13 74.9231 13.7179 75.2308 14.8461C75.7436 16.8974 76.4615 18.9487 77.0769 21C77.6923 22.9487 78.5128 24.7949 79.2308 26.641C79.8462 28.3846 79.8462 30.2307 80.5641 31.9743C81.1795 33.5128 82.1026 34.0256 83.641 34.4359C83.5043 33.9572 83.3333 33.4786 83.1282 33C83.1282 32.9316 83.1624 32.8974 83.2308 32.8974C83.641 32.8974 84.0513 32.9316 84.4615 33C84.5299 33.0684 84.5641 33.1025 84.5641 33.1025C84.1538 31.8718 82.2051 32.4872 82.6154 33.6154C82.718 33.9231 82.8205 34.2307 83.0256 34.4359C83.3333 34.7436 83.8462 34.7436 84.2564 34.641C84.5641 34.4359 84.6667 34.2307 84.8718 34.0256C85.0769 33.4102 84.8718 32.6923 84.2564 32.4872C83.641 32.3846 83.1282 32.282 82.718 31.8718C82.3077 31.2564 82.2051 30.4359 82.1026 29.7179C81.7949 27.9743 81.3846 26.4359 80.6667 24.7949C79.3333 21.4102 78.1026 17.8205 77.1795 14.2307C76.5641 14.5043 75.9487 14.7778 75.3333 15.0513C75.641 15.6666 75.9487 16.282 76.0513 16.8974C76.6667 16.6239 77.2479 16.3162 77.7949 15.9743C77.6923 15.8718 77.4872 15.2564 77.3846 14.9487C77.1795 14.4359 77.0769 13.9231 76.6667 13.5128C75.9487 12.5897 74.6154 12.6923 73.8974 13.7179C72.9744 15.0513 75.2308 18.7436 76.9744 17.8205C77.5897 17.5128 77.5897 16.6923 77.1795 16.1795C76.8718 15.8718 76.359 15.4615 76.0513 15.0513C75.9829 14.9145 75.9145 14.7778 75.8462 14.641C75.5043 15.0513 75.5043 15.188 75.8462 15.0513C76.1538 15.1538 76.5641 14.9487 76.7692 14.7436C77.6923 14.4359 77.2821 13.2051 76.5641 12.8974C75.4359 12.4872 74.1026 12.7949 72.8718 12.7949C71.1624 12.7949 69.4872 12.7949 67.8462 12.7949C64.4615 12.7949 61.0769 12.7949 57.6923 12.8974C50.9915 13.1025 44.2564 13.2051 37.4872 13.2051C33.5897 13.2051 29.7949 13.3077 25.8974 13.2051C24.8718 13.1025 24.6667 14.2307 25.1795 14.8461C25.3846 15.2564 25.7949 15.359 26.2051 15.5641C27.3333 15.9743 27.8462 14.0256 26.718 13.6154Z" fill="black"/>
</g>
<g style="mix-blend-mode:multiply">
<path d="M25.6923 13.6155C25.4188 13.6155 25.1795 13.6155 24.9744 13.6155C24.6325 13.6155 24.2906 13.6497 23.9487 13.718C23.812 13.718 23.6752 13.7864 23.5385 13.9232C23.4017 13.9915 23.2992 14.0599 23.2308 14.1283C23.2992 14.0599 23.3675 14.0257 23.4359 14.0257C23.5043 14.0257 23.5727 14.0257 23.641 14.0257C23.7094 14.0257 23.7778 14.0257 23.8462 14.0257C23.9145 14.0257 23.9829 14.0599 24.0513 14.1283C24.1197 14.1967 24.188 14.2309 24.2564 14.2309C24.3248 14.2992 24.359 14.3676 24.359 14.436C24.359 14.436 24.359 14.4018 24.359 14.3334C24.359 14.4018 24.3932 14.4702 24.4615 14.5386C24.4615 14.4702 24.4274 14.4018 24.359 14.3334C24.4274 14.4702 24.4615 14.5727 24.4615 14.6411C24.4615 14.6411 24.4615 14.6069 24.4615 14.5386C24.4615 14.4018 24.4274 14.2992 24.359 14.2309C24.2906 14.0941 24.2222 13.9915 24.1539 13.9232C23.9487 13.718 23.641 13.6155 23.4359 13.6155C23.1282 13.6155 22.9231 13.718 22.718 13.9232C22.5128 14.0257 22.4103 14.3334 22.4103 14.5386C22.4103 14.9488 22.5128 15.3591 22.8205 15.6668C23.1282 15.9745 23.5385 16.077 23.9487 15.9745C24.1539 15.9061 24.3248 15.8377 24.4615 15.7693C24.5299 15.7009 24.5983 15.6326 24.6667 15.5642C24.5983 15.5642 24.5299 15.5984 24.4615 15.6668C24.8718 15.5642 25.2821 15.5642 25.6923 15.5642C25.8974 15.5642 26.2051 15.4616 26.4103 15.2565C26.5128 15.1539 26.718 14.8462 26.718 14.5386C26.718 14.3334 26.6154 14.0257 26.4103 13.9232C26.2051 13.718 25.8974 13.6155 25.6923 13.6155Z" fill="black"/>
</g>
<g style="mix-blend-mode:multiply">
<path d="M83.4359 32.4872C82.4103 34.3334 81.1795 36.1795 80.0513 38.0257C78.9231 39.7693 78 41.718 76.9744 43.6667C75.1966 47.4958 73.3162 51.2907 71.3333 55.0513C69.4872 58.7437 67.4359 62.436 65.0769 65.8206C62.8205 69.3078 59.8462 72.3847 57.4872 75.8719C56.1538 77.8206 55.0256 79.8719 53.7949 81.9231C53.2821 82.8462 52.8718 83.359 51.9487 83.8719C51.2308 84.3847 50.9231 85.3078 50.1026 85.718C50.5812 86.1283 51.0598 86.5385 51.5385 86.9488C52.1538 85.2052 53.4872 83.8718 54.7179 82.5385C56.0171 81.171 57.2821 79.7351 58.5128 78.2308C61.1795 75.1539 63.7436 71.8719 65.7949 68.1795C67.7436 64.6924 70 61.3078 71.8462 57.6154C72.7692 55.7693 73.4872 53.9231 74.5128 52.1795C75.5385 50.3334 76.6667 48.4872 77.5898 46.6411C78.718 44.5898 79.9487 42.5385 81.0769 40.4872C81.5898 39.4616 82 38.436 82.3077 37.4103C82.5128 36.8975 82.6154 36.2821 83.0256 35.7693C83.2308 35.2565 83.5385 34.9488 83.641 34.436C83.8462 33.9231 83.4359 33.4103 83.0256 33.2052C82.1026 32.8975 81.3846 33.4103 81.0769 34.2308C80.7692 35.4616 82.7179 36.077 83.0256 34.7437C82.8205 34.8804 82.6154 35.0172 82.4103 35.1539C82.2051 34.7436 81.9658 34.3334 81.6923 33.9231C81.5898 34.3334 81.2821 34.6411 81.0769 34.9488C80.8718 35.359 80.6667 35.7693 80.5641 36.1795C80.2564 37.3078 79.8462 38.436 79.3333 39.4616C78.3077 41.2052 77.2821 42.9488 76.2564 44.7949C75.3333 46.6411 74.3077 48.4872 73.1795 50.3334C72.1538 52.077 71.4359 53.9231 70.5128 55.7693C68.7692 59.4616 66.4103 62.8462 64.4615 66.436C62.4103 70.1283 59.8462 73.4103 57.1795 76.6924C55.7436 78.3334 54.3077 79.9744 52.8718 81.6154C51.5385 83.0513 50.3077 84.4872 49.5897 86.3334C49.2821 87.2565 50.4103 87.8719 51.1282 87.4616C51.9487 87.0513 52.2564 86.436 52.8718 85.8206C53.3846 85.2052 54.1026 85.0001 54.6154 84.3847C55.8462 82.9488 56.7692 81.0001 57.7949 79.359C59.9487 75.5642 62.9231 72.4872 65.3846 68.8975C70.4103 62.0257 74.1026 54.2308 77.7949 46.6411C78.9231 44.2821 80.0513 42.0257 81.2821 39.7693C82.5128 37.6154 83.9487 35.6667 85.1795 33.5129C85.8974 32.3847 84.1538 31.359 83.4359 32.4872Z" fill="black"/>
</g>
<g style="mix-blend-mode:multiply">
<path d="M11.3333 35.2565C12.6667 36.795 13.5897 38.5386 14.8205 40.1796C16.188 41.9574 17.5897 43.7351 19.0256 45.5129C21.7607 49.0685 24.3932 52.6924 26.9231 56.3847C29.4872 60.077 32.0513 63.7693 34.8205 67.3591C37.4872 70.8463 39.8462 74.3334 42.3077 77.9232C43.6068 79.9061 45.0085 81.7864 46.5128 83.5642C47.9487 85.3078 49.1795 87.2565 50.8205 88.8975C51.4359 89.6155 52.7692 88.8975 52.4615 87.9745C52.0513 86.5386 51.1282 85.4104 50.2051 84.2822C49.282 82.9488 48.2564 81.6155 47.2308 80.2822C44.7692 77.4104 42.3077 74.5386 39.9487 71.4616C35.1282 65.2052 30.3077 58.9488 25.1795 52.8975C22.3077 49.4104 19.4359 46.0257 16.5641 42.436C15.8461 41.4104 14.4103 42.8463 15.2308 43.8719C19.9487 49.9232 24.9744 55.6668 29.7949 61.6155C34.6154 67.5642 39.0256 73.9232 44.0513 79.6668C45.3846 81.3078 46.7179 82.8463 47.9487 84.5898C48.7692 85.8206 50.1026 87.0514 50.5128 88.4873C51.0598 88.1454 51.641 87.8035 52.2564 87.4616C50.8205 86.0257 49.7949 84.3847 48.4615 82.8463C47.094 81.2052 45.7949 79.4958 44.5641 77.7181C42.1026 74.1283 39.7436 70.5386 37.0769 67.0514C31.641 59.9745 26.8205 52.3847 21.282 45.3078C19.8462 43.3933 18.3761 41.4787 16.8718 39.5642C15.4359 37.7181 14.3077 35.5642 12.7692 33.8206C11.9487 32.795 10.5128 34.2309 11.3333 35.2565Z" fill="black"/>
</g>
<g style="mix-blend-mode:multiply">
<path d="M12.6667 33.9231C12.2564 33.8205 11.8462 33.8205 11.4359 33.9231C10.8205 34.1282 10.6154 34.6411 10.7179 35.1539C10.9231 36.4872 11.9487 37.5129 12.6667 38.4359C13.5897 39.5641 14.2051 40.7949 15.1282 41.8205C15.5385 41.2735 15.9487 40.7265 16.359 40.1795C15.3333 39.6667 14.6154 38.4359 14 37.5129C13.4872 36.4872 13.2821 35.1539 12.359 34.3334C11.5385 33.6154 10.2051 34.5385 10.8205 35.5641C12.2564 38.2308 13.8974 40.7949 15.641 43.2564C16.2564 43.9744 17.5897 43.7693 17.5897 42.7436C17.5897 41.2052 16.359 39.8718 15.3333 38.8462C14.9231 38.3334 14.5128 37.9231 14.1026 37.4103C13.4872 36.6923 12.8718 36.077 12.4615 35.2564C11.9145 35.5983 11.3333 35.9402 10.7179 36.2821C11.8462 37.9231 12.8718 39.5641 13.8974 41.2052C14.7179 42.4359 16.0513 43.5641 16.4615 45C16.8718 44.5898 17.2821 44.1795 17.6923 43.7693C17.3846 43.6667 17.2821 43.6667 17.1795 43.2564C16.9744 42.9488 16.8718 42.5385 16.6667 42.1282C16.2564 41.1026 15.641 40.1795 15.0256 39.1539C14.4786 38.1282 13.8974 37.1026 13.2821 36.077C13.0769 35.6667 12.8376 35.2564 12.5641 34.8462C12.2564 34.4359 12.0513 34.0257 12.0513 33.6154C11.4359 33.8205 10.8547 34.0599 10.3077 34.3334C11.2308 35.359 11.641 36.7949 12.2564 38.0257C12.4615 38.5385 13.1795 38.6411 13.5897 38.4359C14.1026 38.1282 14.2051 37.5129 14 37C13.2821 35.5641 12.7692 34.1282 11.7436 32.8975C11.1282 32.1795 10 32.7949 10 33.6154C10 34.8462 10.7179 35.7693 11.3333 36.7949C12.0855 37.9573 12.7692 39.1539 13.3846 40.3846C14 41.4103 14.6154 42.4359 15.1282 43.5641C15.4359 44.5898 15.9487 45.5129 17.1795 45.718C17.8974 45.8205 18.6154 45.3077 18.4103 44.4872C17.8974 42.8462 16.6667 41.718 15.7436 40.3846C14.6154 38.7436 13.5897 36.8975 12.4615 35.2564C11.7436 34.1282 10.2051 35.0513 10.7179 36.2821C11.1282 37.1026 11.7436 37.8205 12.359 38.4359C12.7692 38.9146 13.1795 39.3932 13.5897 39.8718C14.3077 40.5898 15.5385 41.8205 15.5385 42.7436C16.1538 42.5385 16.7692 42.3676 17.3846 42.2308C15.641 39.7693 14 37.2052 12.5641 34.5385C12.0171 34.9488 11.4701 35.359 10.9231 35.7693C11.3333 36.077 11.5385 36.6923 11.7436 37.2052C11.9487 37.8205 12.2222 38.4017 12.5641 38.9488C13.1795 40.077 14.1026 41.4103 15.3333 41.9231C16.359 42.4359 17.3846 41.3077 16.5641 40.3846C15.7436 39.4616 15.1282 38.2308 14.3077 37.3077C13.6923 36.4872 12.8718 35.6667 12.6667 34.6411C12.4615 35.0513 12.2222 35.4616 11.9487 35.8718C12.0171 35.8718 12.0855 35.8718 12.1538 35.8718C12.6667 35.9744 13.1795 35.7693 13.3846 35.1539C13.4872 34.6411 13.1795 34.0257 12.6667 33.9231Z" fill="black"/>
</g>
<g style="mix-blend-mode:multiply">
<path d="M71.641 15.3589C71.641 15.3589 71.2308 15.8717 71.1282 15.9743C70.7863 16.4529 70.4444 16.8973 70.1026 17.3076C69.4188 18.1965 68.7009 19.0854 67.9487 19.9743C66.3077 21.8204 64.6667 23.564 63.0256 25.3076C61.4872 27.0512 59.8462 28.6922 58.1026 30.1281C57.5556 30.47 57.0427 30.8802 56.5641 31.3589C56.2906 31.564 56.0171 31.8033 55.7436 32.0768C55.6068 32.1452 55.5043 32.2136 55.4359 32.2819C55.1282 32.4871 55.1282 32.2819 55.3333 32.3845C55.6068 32.5896 55.8462 32.829 56.0513 33.1025C55.7436 31.564 55.0256 30.2307 54.4103 28.8973C53.7949 27.3589 53.0769 25.8204 52.359 24.3845C51.0256 21.7178 49.7949 19.0512 48.5641 16.2819C48.2564 15.4614 47.8462 14.4358 46.8205 14.1281C45.5897 13.7178 44.9744 14.9486 44.359 15.8717C42.8205 18.5384 41.4872 21.4102 39.9487 24.0768C39.1282 25.6153 38 27.1537 37.1795 28.6922C36.7692 29.376 36.3932 30.0597 36.0513 30.7435C35.8461 31.0854 35.7094 31.4272 35.641 31.7691C35.641 32.0768 35.7436 32.5896 35.641 32.7948C35.9829 32.658 36.359 32.4871 36.7692 32.2819C35.1282 31.7691 34.1026 30.1281 32.8718 29.1025C31.2308 27.6666 29.4872 26.4358 28.1538 24.7948C26.7179 23.1537 26.3077 21.205 25.3846 19.3589C25.0769 18.5384 24.4615 17.8204 24.1538 16.8973C23.8461 16.1794 23.4359 15.6666 22.7179 15.4614C21.7949 15.0512 21.282 16.1794 21.5897 16.8973C23.2308 20.1794 25.4872 23.1537 27.9487 26.0255C29.0769 27.2563 30.3077 28.5896 31.3333 29.923C31.7436 30.6409 32.1538 31.3589 32.6667 32.0768C33.0769 32.4871 33.6923 32.7948 34 33.4102C34.4103 32.9315 34.7863 32.4529 35.1282 31.9743C33.7949 31.3589 32.8718 29.4102 31.9487 28.1794C30.7179 26.5384 29.4872 24.7948 28.4615 23.0512C27.4359 21.3076 26.5128 19.4614 25.5897 17.6153C24.7692 16.1794 24.0513 14.6409 22.1026 15.1537C21.7949 15.2563 21.3846 15.564 21.3846 15.8717C21.1795 17.3076 22.2051 18.4358 23.1282 19.4614C24.4615 20.8973 25.7949 22.3332 27.1282 23.7691C28.5641 25.4102 29.8974 27.2563 31.2308 28.9999C31.7094 29.6153 32.188 30.1623 32.6667 30.6409C32.8718 30.9144 33.0769 31.1537 33.282 31.3589C33.3846 31.4614 33.3846 31.6666 33.4872 31.6666C33.7949 31.8717 33.4872 32.0768 33.6923 31.564C34.2393 31.4956 34.7863 31.4272 35.3333 31.3589C33.7949 30.0255 32.5641 28.2819 31.2308 26.7435C30.1026 25.4102 28.1538 24.4871 27.4359 22.8461C26.8889 23.2563 26.3761 23.6666 25.8974 24.0768C28.359 26.7435 30.5128 29.7178 32.359 32.8973C32.8718 33.923 34.5128 33.205 34.2051 32.1794C33.6923 30.9486 33.0769 30.0255 32.2564 28.9999C31.5385 28.1794 30.9231 27.2563 30 26.5384C29.3846 26.1281 28.359 26.7435 28.4615 27.4614C28.5641 28.8973 29.5897 29.8204 30.6154 30.846C31.641 31.9743 32.7692 32.8973 34 33.7178C34.4103 33.923 34.9231 33.923 35.2308 33.6153C35.4359 33.4102 35.6068 33.205 35.7436 32.9999C36.6667 32.0768 35.2308 30.6409 34.4102 31.564C34.2051 31.7691 34 31.9743 33.7949 32.1794C34.2051 32.111 34.6154 32.0426 35.0256 31.9743C34.1026 31.3589 33.282 30.7435 32.4615 29.923C32.1197 29.5127 31.7778 29.1366 31.4359 28.7948C31.1282 28.3845 30.5128 27.9743 30.4102 27.4614C29.9316 27.7349 29.453 28.0084 28.9744 28.2819C29.5897 28.7948 30.1026 29.5127 30.6154 30.2307C31.2308 30.9486 31.8461 31.7691 32.2564 32.6922C32.8718 32.4187 33.4872 32.1452 34.1026 31.8717C32.1538 28.5896 29.8974 25.4102 27.3333 22.6409C26.4102 21.7178 25.282 22.8461 25.6923 23.8717C26.5128 25.6153 28.359 26.5384 29.5897 27.8717C31.1282 29.5127 32.2564 31.3589 33.8974 32.7948C34.3077 33.3076 35.1282 33.205 35.4359 32.5896C36.1538 31.3589 34.9231 30.1281 34.1026 29.3076C32.8718 27.8717 31.8461 26.3332 30.6154 24.8973C29.282 23.0512 27.641 21.5127 26.2051 19.8717C25.5897 19.2563 25.0769 18.5384 24.5641 18.0255C24.2564 17.7178 23.2308 16.6922 23.3333 16.3845C23.0598 16.658 22.8205 16.8973 22.6154 17.1025C23.2308 16.8973 23.5385 18.2307 23.8461 18.6409C24.359 19.564 24.8718 20.4871 25.282 21.4102C26.1026 23.1879 27.094 24.8631 28.2564 26.4358C29.282 27.9743 30.3077 29.3076 31.3333 30.7435C32.2564 32.0768 33.1795 33.3076 34.6154 33.923C35.5385 34.2307 36.1538 33.1025 35.7436 32.3845C35.4359 31.7691 34.9231 31.4614 34.4102 30.9486C33.8974 30.4358 33.4872 29.6153 33.0769 28.8973C32.0513 27.564 30.9231 26.3332 29.7949 25.1025C27.3333 22.2307 25.0769 19.2563 23.3333 15.8717C22.9231 16.3503 22.547 16.829 22.2051 17.3076C21.8974 17.205 22.1026 17.3076 22.2051 17.5127C22.2051 17.6153 22.3077 17.8204 22.4103 18.0255C22.547 18.3674 22.7179 18.7093 22.9231 19.0512C23.4359 19.9743 23.8461 20.8973 24.2564 21.923C24.9744 23.8717 26 25.6153 27.5385 27.1537C28.9744 28.5896 30.7179 29.7178 32.1538 31.1537C33.3846 32.3845 34.4103 33.7178 36.1538 34.2307C36.5641 34.4358 37.0769 34.2307 37.3846 33.8204C37.6923 33.1025 37.4872 32.4871 37.7949 31.7691C38.1026 31.0512 38.5128 30.4358 38.9231 29.7178C39.7436 28.1794 40.8718 26.6409 41.6923 25.1025C42.5128 23.6666 43.2308 22.1281 44.0513 20.5896C44.5299 19.7691 45.0085 18.9486 45.4872 18.1281C45.6239 17.7862 45.7949 17.4785 46 17.205C46.1026 16.8973 46.5128 16.4871 46.6154 16.1794C46.8205 15.8375 46.6838 15.8033 46.2051 16.0768C46.2735 16.2136 46.3419 16.3161 46.4103 16.3845C46.5128 16.5896 46.6154 16.7948 46.7179 16.8973C47.0256 17.6153 47.3333 18.2307 47.641 18.9486C48.359 20.4871 48.8718 22.0255 49.6923 23.564C50.5128 25.3076 51.4359 26.9486 52.1538 28.6922C52.8718 30.3332 53.6923 31.8717 54.1026 33.6153C54.2051 33.923 54.5128 34.2307 54.8205 34.3332C56.2564 34.7435 57.6923 32.9999 58.6154 32.1794C60.4615 30.5384 62.4103 28.9999 64.0513 27.1537C66 25.1025 67.8462 23.0512 69.6923 20.9999C70.5128 20.0426 71.2991 19.0512 72.0513 18.0255C72.7692 17.205 73.5897 16.4871 73.6923 15.3589C73.8974 14.0255 71.8461 14.0255 71.641 15.3589Z" fill="black"/>
</g>
<g style="mix-blend-mode:multiply">
<path d="M46.6154 14.9487C46.6154 14.2308 46.4103 13.6154 46.1026 13C45.5897 12.077 44.2564 12.5898 44.1538 13.5128C44.1538 15.359 45.0769 17.1026 45.8974 18.7436C46.8205 20.6923 47.7436 22.6411 48.7692 24.5898C49.8974 26.4359 51.2308 28.1795 52.5641 29.9231C53.7949 31.5641 54.5128 33.5128 55.7436 35.1539C56.359 35.8718 57.4872 35.2564 57.4872 34.4359C57.4872 32.7949 56.2564 31.7693 55.4359 30.4359C54.9231 29.6154 54.6154 28.7949 54.4102 27.9744C54.2051 27.1539 54.1026 26.4359 53.5897 25.718C52.8718 24.6923 51.1282 25.718 51.8461 26.7436C52.2564 27.359 52.359 27.9744 52.4615 28.5898C52.6667 29.4103 52.9744 30.1282 53.282 30.8462C53.8974 31.8718 55.4359 33.2052 55.4359 34.4359C56.0513 34.1624 56.6325 33.9231 57.1795 33.718C56.5641 33 56.2564 32.0769 55.8461 31.359C55.3675 30.4701 54.8547 29.6496 54.3077 28.8975C53.0769 27.2564 51.7436 25.6154 50.7179 23.8718C49.6923 22.1282 48.8718 20.3846 48.0513 18.5385C47.3333 16.8975 46.1026 15.359 46.2051 13.5128C45.5897 13.718 44.9744 13.8889 44.359 14.0257C44.4615 14.3334 44.5641 14.6411 44.5641 14.9487C44.6667 16.2821 46.7179 16.2821 46.6154 14.9487Z" fill="black"/>
</g>
<g style="mix-blend-mode:multiply">
<path d="M55.5385 35.1538C55.3333 35.0512 55.2308 34.9487 55.2308 34.9487V35.1538C55.3333 35.5641 55.3333 36.0769 55.2308 36.4871C55.2308 37.5128 55.0256 38.641 54.8205 39.6666C54.4103 41.6153 53.7949 43.5641 53.3846 45.5128C53.0769 47.2564 52.8718 49 52.6667 50.7435C52.3248 52.9316 51.9487 55.1196 51.5385 57.3076C50.8205 61.8205 50.3077 66.4358 49.7949 70.9487C49.5214 73.6153 49.2137 76.282 48.8718 78.9487C48.6667 80.1794 48.4615 81.4102 48.2564 82.641C47.9487 83.6666 47.641 84.7948 47.641 85.8205C48.3248 85.7521 48.9744 85.6837 49.5897 85.6153C49.4872 84.8974 49.0769 84.282 48.7692 83.6666C48.0513 82.5384 46.3077 83.5641 47.0256 84.6923C47.3333 85.2051 47.5385 85.6153 47.641 86.1281C47.9487 87.2564 49.5897 86.9487 49.6923 85.8205C49.6923 84.7948 50 83.8717 50.2051 82.8461C50.5128 81.6153 50.7179 80.3846 50.8205 79.1538C51.1624 76.829 51.4701 74.5042 51.7436 72.1794C52.2564 67.2564 52.7692 62.3333 53.5897 57.4102C54 55.017 54.3761 52.5897 54.7179 50.1282C54.9231 48.6923 55.1282 47.2564 55.4359 45.7179C55.9487 43.5641 56.5641 41.4102 56.8718 39.1538C57.1795 37.7179 58.2051 33.8205 56.0513 33.2051C54.8205 32.7948 54.2051 34.7435 55.5385 35.1538Z" fill="black"/>
</g>
<g style="mix-blend-mode:multiply">
<path d="M35.641 36.2822C35.8462 35.4617 35.7436 34.5386 35.1282 33.9232C34.4103 33.3078 33.0769 33.9232 33.3846 34.9488C34.6154 38.0258 36.359 41.0001 37.8974 43.9745C39.4359 47.154 40.9744 50.3334 42.2051 53.7181C44.5641 60.3847 46.4103 67.3591 48.0513 74.2309C48.5641 76.1796 48.9744 78.0258 49.282 79.9745C49.4872 81.5129 49.7949 83.3591 49.5897 85.0001C50.2051 84.795 50.8547 84.624 51.5385 84.4873C50.2051 81.3078 49.5897 77.9232 48.7692 74.6411C47.8462 71.2565 46.6154 67.8719 45.6923 64.3847C44.8718 60.8976 44.2564 57.4104 43.3333 53.9232C42.5128 50.5386 41.4872 47.154 40.2564 43.8719C39.5385 42.1283 38.5128 40.3847 38.1026 38.5386C37.5897 36.795 37.4872 35.154 36.5641 33.6155C36.2564 33.1027 35.4359 33.0001 35.0256 33.4104C33.7949 34.6411 34.5128 36.1796 34.8205 37.6155C35.2308 39.3591 35.7436 41.1027 36.2564 42.8463C37.3846 46.436 38.7179 50.0258 40.0513 53.7181C41.3846 57.2052 42.6154 60.795 43.5385 64.3847C44.5641 67.9745 45.3846 71.6668 46.5128 75.2565C47.0598 77.3078 47.5726 79.3591 48.0513 81.4104C48.4615 83.0514 48.7692 84.795 49.6923 86.3334C50.3077 87.4617 51.7436 86.6411 51.5385 85.6155C51.4701 85.1369 51.2991 84.7266 51.0256 84.3847C50.2051 83.3591 48.4615 84.3847 49.282 85.4104C49.4872 85.7181 49.4872 85.8206 49.5897 86.1283C50.2051 85.8548 50.8205 85.6155 51.4359 85.4104C50.718 84.077 50.4103 82.6411 50.1026 81.2052C49.6923 79.5642 49.2479 77.889 48.7692 76.1796C47.9487 72.795 46.9231 69.5129 46.1026 66.1283C44.359 59.154 41.6923 52.5899 39.3333 45.8206C38.7179 43.9745 38.1368 42.1283 37.5897 40.2822C37.3162 39.3249 37.0769 38.3676 36.8718 37.4104C36.8034 37.0001 36.7009 36.5899 36.5641 36.1796C36.5641 35.8719 36.1538 35.154 36.4615 34.8463C35.9145 34.7779 35.3675 34.7095 34.8205 34.6411C35.641 35.9745 35.7436 37.5129 36.1538 39.0514C36.5641 40.6924 37.3846 42.2309 38 43.7693C39.3333 46.9488 40.359 50.436 41.1795 53.7181C42.1026 57.2052 42.7179 60.6924 43.5385 64.1796C44.359 67.6668 45.6923 71.0514 46.6154 74.5386C47.641 78.2309 48.2564 81.9232 49.7949 85.5129C50.2051 86.5386 51.5385 85.8206 51.641 85.0001C51.8462 83.6668 51.5385 82.1283 51.4359 80.795C51.2308 79.154 50.8205 77.4104 50.5128 75.7693C49.6923 72.2822 48.8034 68.795 47.8462 65.3078C46 58.3335 43.8462 51.5642 40.6667 45.1027C38.9231 41.6155 36.7692 38.1283 35.3333 34.436C34.7863 34.7095 34.2393 35.0172 33.6923 35.3591C33.7949 35.4617 33.6923 35.6668 33.6923 35.7693C33.4872 37.0001 35.4359 37.6155 35.641 36.2822Z" fill="black"/>
</g>
<g style="mix-blend-mode:multiply">
<path d="M56.8718 38.9487C58.2051 38.9487 58.2051 36.8975 56.8718 36.8975C55.641 36.8975 55.641 38.9487 56.8718 38.9487Z" fill="black"/>
</g>
<g style="mix-blend-mode:multiply">
<path d="M58.3077 34.8461C58.3077 34.7093 58.3077 34.5384 58.3077 34.3333C58.3077 32.9999 56.2564 32.9999 56.2564 34.3333C56.2564 36.3845 56.2564 38.4358 56.0513 40.4871C55.8462 42.5384 55.4359 44.4871 55.1282 46.4358C54.4444 50.3333 53.6923 54.1965 52.8718 58.0256C52.1538 61.8204 51.5385 65.5127 51.2308 69.3076C51.1282 71.1538 51.0256 73.1025 50.5128 74.9486C49.8974 76.7948 49.1795 78.6409 49.0769 80.5897C49.7607 80.5897 50.4444 80.5897 51.1282 80.5897C51.1282 80.282 51.1282 79.9743 51.1282 79.564C50.9231 79.8375 50.6838 80.0768 50.4103 80.282C50.547 80.282 50.6496 80.282 50.7179 80.282C52.0513 79.9743 51.5385 78.0256 50.2051 78.3332C50.1368 78.3332 50.0342 78.3332 49.8974 78.3332C49.5897 78.4358 49.2821 78.7435 49.1795 79.0512C49.0769 79.564 49.0769 80.0768 49.0769 80.5897C49.1795 81.923 51.1282 81.923 51.1282 80.5897C51.1282 78.5384 52.1538 76.6922 52.5641 74.7435C53.0769 72.9999 53.1795 71.1538 53.282 69.3076C53.4872 65.4102 54.2051 61.6153 55.0256 57.8204C55.7778 53.9914 56.4957 50.1281 57.1795 46.2307C57.4872 44.282 57.8974 42.4358 58.1026 40.4871C58.3077 38.4358 58.3077 36.3845 58.3077 34.3333C57.6239 34.3333 56.9402 34.3333 56.2564 34.3333C56.2564 34.5384 56.2564 34.7093 56.2564 34.8461C56.2564 36.1794 58.3077 36.1794 58.3077 34.8461Z" fill="black"/>
</g>
<g style="mix-blend-mode:multiply">
<path d="M48.7692 88.282C48.7692 88.2137 48.7692 88.1453 48.7692 88.0769C48.906 87.9401 49.0427 87.8376 49.1795 87.7692C49.2479 87.7008 49.3162 87.6666 49.3846 87.6666C49.7265 88.0085 50.0684 88.3504 50.4103 88.6923C50.4103 88.5897 50.4103 88.5897 50.5128 88.3846C50.5812 88.1795 50.6838 88.0085 50.8205 87.8718C51.0256 87.5299 51.265 87.188 51.5385 86.8461C52.1538 85.9231 52.8718 85.1025 53.5897 84.282C54.2051 83.4615 54.8205 82.5384 55.641 81.8205C56.4615 81 57.1795 80.0769 58 79.2564C58.8205 78.3333 57.4872 76.8974 56.5641 77.8205C55.7436 78.7436 54.9231 79.6666 54.1026 80.4872C53.1795 81.3077 52.5641 82.3333 51.7436 83.2564C51.0256 84.1795 50.2051 85 49.5897 86.0256C49.0769 86.8461 48.359 87.6666 48.4615 88.6923C48.4615 89.2051 48.8718 89.6154 49.3846 89.7179C50.2051 89.7179 50.8205 89.1025 50.718 88.282C50.718 87.0513 48.6667 87.0513 48.7692 88.282Z" fill="black"/>
</g>
<g style="mix-blend-mode:multiply">
<path d="M48.359 87.9743C48.359 88.0426 48.359 88.111 48.359 88.1794C48.2564 89.205 49.7949 89.6153 50.2051 88.6922C52.0513 84.9999 54.7179 81.8204 57.6923 78.846C59.0256 77.4101 60.4615 76.0768 61.5897 74.5384C62.2051 73.7178 62.6154 72.9999 62.9231 72.0768C63.1282 71.3589 63.8462 70.9486 63.9487 70.2307C63.7436 70.4358 63.5043 70.6751 63.2308 70.9486C63.3675 70.8802 63.4701 70.846 63.5385 70.846C64.7692 70.5384 64.2564 68.5896 63.0256 68.8973C62.8889 68.8973 62.7863 68.9315 62.718 68.9999C62.4103 69.1025 62.1026 69.3076 62 69.7178C62 70.0255 61.6923 70.1281 61.4872 70.4358C61.2821 70.7435 61.1795 71.0512 60.9744 71.3589C60.6667 72.2819 60.2564 72.9999 59.641 73.8204C58.4103 75.3589 56.8718 76.6922 55.5385 78.1281C52.7692 80.9999 50.2051 84.0768 48.4615 87.6666C49.0769 87.8717 49.7265 88.0426 50.4103 88.1794C50.4103 88.111 50.4103 88.0426 50.4103 87.9743C50.5128 86.6409 48.4615 86.6409 48.359 87.9743Z" fill="black"/>
</g>
<g style="mix-blend-mode:multiply">
<path d="M50.5128 72.4873C51.0256 73.1026 50.9231 74.2308 50.9231 75.0514C50.8547 76.1454 50.718 77.2736 50.5128 78.436C50.3761 79.53 50.2393 80.624 50.1026 81.718C50 82.2308 49.8974 82.7437 49.7949 83.2565C49.5897 83.7693 49.4872 84.1796 49.4872 84.6924C49.5897 85.8206 51.2308 86.2308 51.4359 85.0001C51.5385 84.2821 51.8462 83.6667 51.8462 83.0513C51.9487 82.2308 51.8462 81.5129 51.8462 80.6924C51.8462 79.2565 52.359 77.9231 52.5641 76.5898C52.8718 75.2565 50.9231 74.7437 50.6154 75.9744C50.4103 77.4103 49.8974 78.7437 49.8974 80.1796C49.7949 80.8975 49.8974 81.718 49.8974 82.436C49.8974 83.1539 49.5897 83.7693 49.4872 84.4872C50.1709 84.5556 50.8547 84.624 51.5385 84.6924C51.4359 84.2821 51.7436 83.8719 51.8462 83.359C51.9487 82.7437 52.0513 82.1283 52.0513 81.5129C52.2564 80.2821 52.4615 78.9488 52.6667 77.718C52.9744 75.4616 53.4872 72.8975 51.9487 71.0514C51.641 70.6411 50.9231 70.7437 50.5128 71.0514C50.1026 71.4616 50.2051 72.077 50.5128 72.4873Z" fill="black"/>
</g>
<path d="M80.5641 34.641C77.0769 41.8205 73.7949 49.1026 69.4872 55.8718C67.3333 59.2564 65.0769 62.4359 62.8205 65.718C61.6923 67.359 60.6667 69 59.5385 70.7436C58.5128 72.1795 57.3846 73.718 56.5641 75.2564C55.5385 77.1026 54.2051 78.641 53.1795 80.3846C52.1538 82.2308 51.2308 84.0769 50.718 86.0257C50.4103 86.8462 51.4359 87.7692 52.1539 87.1539C52.2906 87.0171 52.4615 86.9145 52.6667 86.8462C53.6923 86.0257 52.6667 84.2821 51.641 85.1026C51.5043 85.171 51.3333 85.2735 51.1282 85.4103C51.6068 85.8205 52.1197 86.1966 52.6667 86.5385C53.0769 84.7949 53.8974 83.1539 54.8205 81.6154C55.641 80.0769 56.8718 78.7436 57.7949 77.2051C59.641 73.9231 61.7949 70.8462 63.9487 67.6667C66.1026 64.4872 68.359 61.3077 70.5128 58.0257C72.6667 54.7436 74.5128 51.2564 76.359 47.7693C78.4103 43.7693 80.359 39.6667 82.3077 35.6667C82.9231 34.5385 81.1795 33.5128 80.5641 34.641Z" fill="black"/>
</g>
<defs>
<clipPath id="clip0_9_34235">
<rect width="80" height="81.0256" fill="white" transform="translate(10 9)"/>
</clipPath>
</defs>
</svg>
