<svg width="100" height="100" viewBox="0 0 100 100" fill="none" xmlns="http://www.w3.org/2000/svg">
<g clip-path="url(#clip0_35_36644)">
<path d="M17.1011 25.0111L26.2697 80.2022L84.7865 80.7415L88.8315 26.6291L67.9775 45.7752L53.236 21.6853L41.0112 44.6965L17.1011 25.0111Z" fill="#33BFA6" stroke="#33BFA6" stroke-width="0.8" stroke-miterlimit="10"/>
<path d="M19.7978 76.5167C19.3483 69.4156 18.9888 62.4044 18 55.3931C17.0112 48.3819 15.7528 41.3707 14.4944 34.3594C14.1348 32.4418 13.7753 30.4943 13.4157 28.5167C13.236 27.528 13.0562 26.5392 12.7865 25.4606C12.6966 24.6516 12.2472 23.9325 12.1573 23.1235C11.7978 23.4231 11.4382 23.6928 11.0787 23.9325C11.4382 24.1122 11.9775 24.7415 12.2472 25.0111C12.7266 25.3707 13.236 25.7302 13.7753 26.0898C14.9139 26.9287 16.0524 27.7677 17.191 28.6066C19.618 30.3145 22.0449 31.9325 24.4719 33.7302C26.809 35.3482 29.0562 37.0561 31.3034 38.9437C32.2921 39.7527 33.2809 40.6516 34.3596 41.3707C34.8989 41.7302 35.5281 41.9999 35.8876 42.4493C36.2472 42.8988 36.427 43.2583 37.0562 43.3482C38.1348 43.6179 38.5843 41.91 37.5056 41.6403C37.4157 41.6403 37.1461 41.1909 37.0562 41.101C36.8165 40.8613 36.5768 40.6516 36.3371 40.4718C35.8876 40.2021 35.3483 39.9325 34.8989 39.5729C33.7303 38.7639 32.7416 37.8651 31.6629 36.9662C29.5056 35.0785 27.1685 33.4606 24.8315 31.7527C22.4944 30.1347 20.0674 28.4269 17.6404 26.8089C16.5019 25.9699 15.3633 25.131 14.2247 24.292C13.7453 23.9325 13.2659 23.543 12.7865 23.1235C12.427 22.7639 12.0674 22.4044 11.5281 22.2246C10.9888 22.1347 10.3595 22.4943 10.4494 23.1235C10.4494 23.7527 10.6292 24.3819 10.8989 25.0111C11.1685 25.8201 11.2584 26.6291 11.4382 27.528C11.7378 29.2658 12.0674 31.0336 12.427 32.8313C13.0262 36.307 13.6255 39.7527 14.2247 43.1684C15.4831 50.2696 16.6517 57.2808 17.191 64.3819C17.5506 68.4269 17.8202 72.4718 18.0899 76.5167C18.1798 77.6853 19.8876 77.6853 19.7978 76.5167Z" fill="white"/>
<path d="M37.236 41.281C37.4157 41.8802 37.6255 42.09 37.8652 41.9102C37.8652 41.9102 37.8652 41.8503 37.8652 41.7304C37.9551 41.7304 38.0449 41.4608 38.0449 41.3709C38.1648 41.1312 38.3146 40.9214 38.4944 40.7417C39.0337 39.7529 39.573 38.7641 40.1124 37.8653C41.3708 35.5282 42.7191 33.281 44.0674 31.0338C45.3258 28.8765 46.764 26.8091 48.0225 24.7417C48.6517 23.7529 49.191 22.854 49.7303 21.7754C49.9101 21.3259 50.2697 20.0675 50.809 19.8877C50.5094 19.7679 50.1798 19.648 49.8202 19.5282C50.9888 21.4158 51.8876 23.3933 52.9663 25.281C53.9551 27.3484 55.2135 29.236 56.382 31.1237C57.4607 33.0113 58.4494 34.9888 59.618 36.8765C60.1573 37.8952 60.7566 38.884 61.4157 39.8428C61.9551 40.6518 62.4045 41.4608 63.0337 42.1799C63.8427 42.9888 65.1011 41.7304 64.2921 40.9214C64.2322 40.8615 64.1723 40.7716 64.1124 40.6518C63.3034 39.8428 62.1348 41.1012 62.8539 41.9102C62.9139 41.9701 62.9738 42.06 63.0337 42.1799C63.4532 41.7604 63.8727 41.3409 64.2921 40.9214C63.6629 40.2023 63.2135 39.3035 62.6742 38.5844C62.0749 37.6255 61.5056 36.6667 60.9663 35.7079C59.8876 33.8203 58.809 31.8428 57.7303 29.9551C56.5618 28.1574 55.4831 26.3596 54.4944 24.472C53.4157 22.4945 52.5169 20.5169 51.3483 18.6293C51.1685 18.2697 50.809 18.09 50.3595 18.2697C49.3708 18.4495 48.9213 19.3484 48.4719 20.2473C47.9326 21.3859 47.3333 22.4945 46.6742 23.5731C45.1461 26.1799 43.4382 28.6967 41.8202 31.3035C40.2022 34.09 38.6742 36.8765 37.0562 39.663C36.427 40.6518 35.1685 42.8091 37.236 43.0787C38.4045 43.2585 38.4045 41.4608 37.236 41.281Z" fill="white"/>
<path d="M63.3933 41.8203C65.4607 41.0113 67.0787 39.5731 68.8764 38.3147C70.764 36.8765 72.6517 35.4383 74.5393 34.0001C76.397 32.6218 78.2547 31.2435 80.1124 29.8652C81.0112 29.236 81.9101 28.6068 82.809 28.0675C83.2285 27.8278 83.6479 27.5581 84.0674 27.2585C84.427 26.8989 84.7865 26.5394 85.3258 26.3596C84.9663 26.1798 84.6067 25.9701 84.2472 25.7304C84.5169 27.3484 84.3371 29.0562 84.2472 30.6742C84.1873 32.412 84.0674 34.1499 83.8876 35.8877C83.5281 39.2135 83.0787 42.6293 82.8989 46.045C82.7191 49.4607 82.4494 52.7866 82 56.2023C81.5506 59.4383 81.4607 62.7641 81.3708 66.0899C81.3708 67.9776 81.2809 69.8652 81.0112 71.7529C80.8315 72.472 80.6517 73.281 80.5618 74.0899C80.5618 74.5394 80.4719 74.8989 80.382 75.3484C80.2921 75.7079 80.382 76.1574 80.2921 76.5169C80.4719 76.3371 80.6817 76.1274 80.9214 75.8877C80.8015 75.9476 80.7116 75.9776 80.6517 75.9776C79.573 76.1574 80.0225 77.8652 81.1011 77.6855C81.1611 77.6855 81.2509 77.6555 81.3708 77.5956C81.6405 77.5956 81.9101 77.3259 82 77.0562C82.0899 76.6068 82 76.3371 82 75.8877C82.0899 75.618 82.1798 75.3484 82.2697 75.0787C82.4494 74.2697 82.4494 73.4607 82.6292 72.6517C82.8689 71.0937 83.0487 69.5057 83.1685 67.8877C83.2584 64.472 83.2584 61.0562 83.618 57.6405C83.9775 54.2248 84.427 50.7192 84.6067 47.2135C84.7865 43.7978 85.1461 40.3821 85.5056 36.8765C85.6854 34.8989 85.9551 32.9214 86.0449 30.854C86.0449 29.0562 86.2247 27.0787 85.9551 25.281C85.8652 24.8315 85.3258 24.5619 84.8764 24.6517C83.9775 24.9214 83.3483 25.6405 82.5393 26.0899C81.7303 26.7192 80.7416 27.2585 79.8427 27.8877C77.9551 29.1461 76.0674 30.6742 74.1798 32.1124C72.2921 33.4607 70.4944 34.8989 68.6067 36.2472C66.8989 37.5956 65.0112 39.3034 62.9438 40.2023C61.9551 40.5619 62.4045 42.2697 63.3933 41.8203Z" fill="white"/>
<path d="M21.0562 77.4157C23.0337 77.4157 25.0112 77.5955 26.8989 77.6854C28.9663 77.6854 30.9438 77.5955 33.0112 77.5056C36.9663 77.4157 40.9213 77.5056 44.8764 77.3258C48.7416 77.0562 52.6067 76.7865 56.5618 76.7865C58.4494 76.8764 60.3371 76.5169 62.2247 76.5169C63.1236 76.5169 64.0225 76.6067 64.9213 76.6966C65.9101 76.7865 66.8989 76.7865 67.8876 76.7865C70.0449 76.8764 72.1124 77.3258 74.2697 77.4157C75.3483 77.4157 76.427 77.3258 77.5056 77.5056C78.4944 77.6854 79.4831 77.6854 80.4719 77.6854C81.6404 77.6854 81.6404 75.9775 80.4719 75.9775C78.5843 75.8876 76.6067 75.7978 74.7191 76.0674C72.7416 76.3371 70.8539 76.5169 68.7865 76.5169C67.8876 76.5169 66.8989 76.5169 66 76.427C65.1011 76.2472 64.2022 76.1573 63.3034 76.2472C61.3258 76.3371 59.3483 76.2472 57.4607 76.2472C53.2659 76.2472 49.1011 76.2472 44.9663 76.2472C42.9888 76.2472 40.9213 76.3371 38.8539 76.2472C36.9663 76.2472 35.0787 75.8876 33.2809 75.7079C32.2022 75.5281 31.1236 75.5281 30.1348 75.3483C29.1461 75.0787 28.1573 74.8989 27.0787 74.809C24.9213 74.5393 22.4944 74.7191 20.2472 74.7191C19.1685 74.7191 19.1685 76.5169 20.2472 76.5169C22.3146 76.5169 24.4719 76.427 26.5393 76.5169C28.3371 76.5169 30.0449 77.236 31.8427 77.4157C33.7303 77.5056 35.5281 77.7753 37.3258 77.9551C39.3034 78.2247 41.3708 78.0449 43.4382 78.0449C47.573 77.9551 51.7079 78.0449 55.8427 78.0449C57.8202 78.0449 59.7977 78.0449 61.7753 78.0449C62.6742 78.0449 63.6629 77.8652 64.5618 77.9551C65.4607 78.0449 66.3595 78.2247 67.3483 78.3146C69.5056 78.4045 71.7528 78.4045 73.8202 78.0449C76.0674 77.6854 78.2247 77.6854 80.4719 77.6854C80.4719 77.0861 80.4719 76.5169 80.4719 75.9775C79.573 75.9775 78.6742 75.9775 77.7753 75.7978C76.9663 75.7079 76.1573 75.618 75.2584 75.618C73.2809 75.618 71.3933 75.2584 69.4157 75.0787C67.5281 74.9888 65.6404 74.9888 63.7528 74.809C61.7753 74.6292 59.8876 74.9888 57.9101 75.0787C55.9326 75.0787 54.0449 74.9888 52.0674 75.0787C50.1798 75.1685 48.2022 75.2584 46.2247 75.4382C42.3595 75.7079 38.4045 75.7079 34.5393 75.7079C32.382 75.7978 30.1348 75.9775 27.9775 75.8876C25.6404 75.8876 23.3933 75.7079 21.0562 75.618C19.8876 75.618 19.8876 77.4157 21.0562 77.4157Z" fill="white"/>
<path d="M84.8764 26.6292C84.9363 26.3895 85.0262 26.1797 85.1461 25.9999C84.6667 25.9999 84.1573 25.9999 83.618 25.9999C83.8876 26.4494 83.7978 27.1685 83.7079 27.7078C83.7079 28.5168 83.7079 29.4157 83.7079 30.2247C83.618 31.8426 83.4382 33.5505 83.4382 35.2584C83.2584 38.6741 83.2584 42.1797 83.1685 45.5954C83.0787 52.4269 82.6292 59.1685 82.5393 65.9999C82.5393 67.8876 82.5393 69.6853 82.3596 71.573C82.2697 72.4718 82 73.3707 82 74.1797C82 74.719 82 75.2584 82 75.7078C82 75.7977 82 76.0674 82 76.0674C81.9401 76.367 82.0599 76.3969 82.3596 76.1572C82.6592 76.0973 82.7491 76.0074 82.6292 75.8876C82.4494 74.8089 80.7416 74.8089 80.8315 75.8876C81.0112 76.9662 82.1798 78.4943 83.3483 77.5056C83.7978 77.0561 83.7978 76.5168 83.7978 75.8876C83.7079 74.8988 83.7978 73.91 83.8876 72.9213C84.5169 69.0561 84.3371 65.191 84.427 61.3258C84.5169 57.2808 84.6966 53.3258 84.8764 49.2808C85.0562 45.2359 85.0562 41.1909 85.1461 37.146C85.1461 34.9887 85.3258 32.7415 85.4157 30.4943C85.5056 29.5056 85.5056 28.5168 85.5056 27.4381C85.5955 26.6292 85.5056 25.8202 85.1461 25.1011C84.8764 24.4718 83.8876 24.4718 83.618 25.1011C83.4382 25.4007 83.2884 25.7602 83.1685 26.1797C82.809 27.2584 84.5169 27.7078 84.8764 26.6292Z" fill="white"/>
<path d="M84.3371 24.6517C84.2472 24.8314 83.5281 25.1011 83.3483 25.191C82.8989 25.5505 82.4494 25.9101 82 26.1798C80.9213 26.8989 79.8427 27.618 78.764 28.3371C76.6067 29.8652 74.4494 31.4831 72.2022 33.0112C71.2135 33.6404 70.2247 34.4494 69.3258 35.2584C68.3371 35.9775 67.2584 36.5168 66.2697 37.2359C65.2809 37.8652 64.382 38.764 63.3933 39.3932C63.0337 39.7528 62.6742 40.0225 62.1348 40.2921C61.6854 40.4719 61.3258 40.6517 61.1461 41.1011C60.8764 41.7303 61.1461 42.5393 61.8652 42.4494C62.5843 42.4494 62.9438 42 62.9438 41.2809C63.0337 40.2022 61.236 40.2022 61.1461 41.2809C61.206 41.221 61.236 41.161 61.236 41.1011C61.4757 40.9813 61.7154 40.8314 61.9551 40.6517C61.9551 40.6517 61.9251 40.6517 61.8652 40.6517C62.1049 41.1311 62.3745 41.5805 62.6742 42C62.6742 41.9101 62.9438 41.8202 63.1236 41.8202C63.3933 41.6404 63.573 41.4607 63.8427 41.2809C64.2921 40.9213 64.8315 40.6517 65.2809 40.2921C66.2697 39.4831 67.1685 38.6741 68.2472 38.0449C70.4045 36.7865 72.2921 34.9887 74.4494 33.6404C76.6966 32.1123 78.764 30.4045 81.0112 28.8764C82.0899 28.2472 83.0787 27.618 84.0674 26.8989C84.7865 26.3595 85.6854 26.0899 86.0449 25.1011C86.4045 24.1123 84.6966 23.573 84.3371 24.6517Z" fill="white"/>
<path d="M49.191 19.528C49.191 20.4269 49.191 21.4157 49.4607 22.2246C49.7303 23.2134 50.3596 24.0224 50.8989 24.9213C52.1573 26.8988 53.5056 28.7864 54.6742 30.8539C55.8427 32.8314 56.9213 34.8988 58.0899 36.8763C58.7191 37.8651 59.3483 38.9437 59.8876 40.0224C60.3371 40.8314 60.6966 41.8202 61.4157 42.4494C61.6854 42.6291 62.2247 42.8089 62.4944 42.5393C63.0337 42.1797 63.3034 41.7303 63.2135 41.0112C63.1236 39.9325 61.3258 39.8426 61.5056 41.0112C61.4457 41.3108 61.4757 41.3108 61.5955 41.0112C61.9551 41.0711 62.3146 41.131 62.6742 41.1909C61.9551 40.5617 61.6854 39.573 61.236 38.8539C60.6966 37.8351 60.1573 36.8763 59.618 35.9775C58.5393 34.0898 57.5506 32.1123 56.382 30.2246C55.3034 28.337 54.1348 26.6291 52.9663 24.8314C52.427 23.9325 51.7079 23.1235 51.3483 22.1348C50.9888 21.3258 50.9888 20.4269 50.9888 19.528C50.9888 18.3595 49.191 18.3595 49.191 19.528Z" fill="white"/>
<path d="M50.0899 21.955C50.0899 22.3146 50.1798 22.764 50.3596 23.1236C50.4494 23.3932 50.5393 23.573 50.6292 23.7528C50.809 24.0224 51.0787 24.2022 51.3483 24.382C51.618 24.5618 51.9775 24.5618 52.3371 24.2921C52.4569 24.2322 52.5468 24.1123 52.6067 23.9326C52.6067 23.8726 52.6067 23.8127 52.6067 23.7528C52.6667 23.6329 52.6667 23.5131 52.6067 23.3932C52.6067 23.1236 52.427 22.8539 52.3371 22.5842C52.2172 22.3445 52.0674 22.1048 51.8876 21.8651C51.7079 21.6854 51.4382 21.5955 51.2584 21.5955C50.9888 21.5955 50.7191 21.6854 50.6292 21.8651C50.4494 22.0449 50.3596 22.3146 50.3596 22.4944C50.3596 22.7341 50.4494 22.9438 50.6292 23.1236C50.6292 23.1835 50.6592 23.2434 50.7191 23.3033C50.6592 23.2434 50.5993 23.1835 50.5393 23.1236C50.6592 23.2434 50.779 23.3932 50.8989 23.573C50.839 23.5131 50.809 23.4532 50.809 23.3932C50.8689 23.5131 50.8989 23.6629 50.8989 23.8427C51.3184 23.543 51.7678 23.2135 52.2472 22.8539C52.1873 22.8539 52.1273 22.8239 52.0674 22.764C52.1273 22.8239 52.1873 22.8839 52.2472 22.9438C52.1873 22.8239 52.1273 22.7341 52.0674 22.6741C52.0674 22.7341 52.0974 22.794 52.1573 22.8539C52.0974 22.7341 52.0375 22.6142 51.9775 22.4944C51.9775 22.5543 52.0075 22.6142 52.0674 22.6741C51.9476 22.3745 51.8577 22.0449 51.7978 21.6854C51.7978 21.7453 51.7978 21.8352 51.7978 21.955C51.7978 21.8352 51.7678 21.7153 51.7079 21.5955C51.7079 21.4756 51.6479 21.3857 51.5281 21.3258C51.4382 21.146 51.1685 21.0562 50.8989 21.0562C50.7191 21.0562 50.4494 21.146 50.3596 21.3258C50.1798 21.4157 50 21.6854 50.0899 21.955Z" fill="white"/>
<path d="M48.9213 20.1573C48.7416 19.9775 48.8315 19.9775 48.7416 20.337C48.6517 20.6966 48.4719 20.9662 48.2921 21.3258C47.9326 22.0449 47.4831 22.764 47.0337 23.4831C46.1348 24.8314 45.236 26.1797 44.427 27.528C42.8989 30.2247 41.8202 33.1011 40.2022 35.7977C38.9438 37.955 37.3258 39.7528 37.236 42.4494C37.8352 42.4494 38.4345 42.4494 39.0337 42.4494C39.0337 41.97 39.0337 41.4906 39.0337 41.0112C39.0337 39.8427 37.236 39.8427 37.236 41.0112C37.236 41.4906 37.236 41.97 37.236 42.4494C37.236 43.528 38.9438 43.528 39.0337 42.4494C39.0337 39.7528 41.2809 37.5955 42.4494 35.3483C43.8876 32.4719 45.1461 29.5056 46.9438 26.8089C47.7528 25.5505 48.6517 24.382 49.3708 23.0337C50 21.955 51.1685 20.0674 50.1798 18.8988C49.3708 18.0898 48.1124 19.2584 48.9213 20.1573Z" fill="white"/>
<path d="M13.1461 24.2922C13.0562 23.9327 13.0562 23.5731 12.9663 23.2136C12.427 23.4533 11.8876 23.693 11.3483 23.9327C11.9775 25.0113 13.0562 25.8203 14.0449 26.6293C15.0037 27.5282 15.9925 28.3971 17.0112 29.2361C19.1685 30.9439 21.1461 32.7417 23.4831 34.09C24.6517 34.6293 25.8202 35.1686 26.9888 35.7978C28.1573 36.5169 29.3258 37.4158 30.4045 38.2248C31.3034 39.0338 32.2921 39.8428 33.2809 40.472C34.0899 41.0113 35.2584 41.3709 35.7079 42.2698C35.8277 41.9102 35.9476 41.5207 36.0674 41.1012C36.0075 41.1012 35.9476 41.1312 35.8876 41.1911C36.0674 41.1312 36.2772 41.1012 36.5169 41.1012C36.4569 41.1012 36.397 41.0713 36.3371 41.0113C35.2584 40.8316 34.7191 42.5394 35.8876 42.7192C36.3371 42.8091 36.5169 42.8091 36.9663 42.6293C37.4157 42.4495 37.4157 41.8203 37.236 41.4608C36.7865 40.472 35.9775 40.0226 35.0786 39.4832C34 38.9439 33.1011 38.1349 32.1124 37.4158C31.1236 36.6068 30.1348 35.7978 29.0562 35.0787C27.9775 34.2698 26.7191 33.7304 25.5506 33.1012C23.0337 31.8428 20.9663 30.1349 18.809 28.3372C17.8202 27.5282 16.7416 26.7192 15.7528 25.8203C15.2734 25.4008 14.794 24.9514 14.3146 24.472C13.7753 24.0226 13.1461 23.5731 12.8764 23.0338C12.3371 22.1349 10.8989 22.7641 11.2584 23.663C11.3184 23.9027 11.3483 24.1125 11.3483 24.2922C11.4382 25.4608 13.1461 25.4608 13.1461 24.2922Z" fill="white"/>
<path d="M10.809 24.4719C11.1685 25.1011 11.2584 26 11.4382 26.7191C11.618 27.558 11.7978 28.397 11.9775 29.2359C12.397 30.9737 12.7865 32.7415 13.1461 34.5393C13.7753 38.0449 14.4045 41.5505 14.9438 45.0561C15.4831 48.4719 16.1124 51.8876 16.7416 55.3033C17.3708 58.7191 18 62.0449 18.3595 65.4606C18.5393 67.3183 18.779 69.2059 19.0787 71.1236C19.2584 72.2921 19.2584 73.5505 19.2584 74.8089C19.2584 75.9775 20.9663 75.9775 20.9663 74.8089C20.9663 74.8089 20.9663 74.779 20.9663 74.7191C20.9663 73.5505 19.2584 73.5505 19.2584 74.7191C19.2584 74.779 19.2584 74.8089 19.2584 74.8089C19.2584 75.9775 20.9663 75.9775 20.9663 74.8089C20.9663 73.8202 21.0562 72.8314 20.9663 71.8427C20.7865 70.1348 20.427 68.4269 20.2472 66.6292C20.0674 64.9213 19.9775 63.1236 19.7079 61.4157C19.4382 59.7078 18.9888 58 18.7191 56.2921C17.2809 49.2809 16.382 42.1797 15.0337 35.0786C14.6142 33.1011 14.1948 31.1235 13.7753 29.146C13.5356 28.1273 13.3258 27.1086 13.1461 26.0898C12.8764 25.191 12.7865 24.2921 12.3371 23.573C11.7079 22.5842 10.1798 23.4831 10.809 24.4719Z" fill="white"/>
</g>
<defs>
<clipPath id="clip0_35_36644">
<rect width="80" height="63.8202" fill="white" transform="translate(10 18)"/>
</clipPath>
</defs>
</svg>
