<svg width="100" height="100" viewBox="0 0 100 100" fill="none" xmlns="http://www.w3.org/2000/svg">
<g clip-path="url(#clip0_9_34237)">
<g style="mix-blend-mode:multiply">
<path d="M58.8116 14.6232C47.7971 14.2754 36.7826 20.3044 28.5507 28.8841C19.3913 38.5073 19.5072 51.4928 23.6812 62.971C25.5362 68.0725 28.7826 72.942 33.5362 76.0725C37.942 78.8551 43.2754 80.1304 48.6087 80.5942C70.4058 82.3333 90 71.8986 89.3044 50.6812C88.9565 40.5942 85.4783 30.1594 77.8261 22.8551C71.913 17.2899 65.3043 14.7391 58.8116 14.6232Z" fill="#AFE8D9"/>
<path d="M58.8116 14.6232C47.7971 14.2754 36.7826 20.3044 28.5507 28.8841C19.3913 38.5073 19.5072 51.4928 23.6812 62.971C25.5362 68.0725 28.7826 72.942 33.5362 76.0725C37.942 78.8551 43.2754 80.1304 48.6087 80.5942C70.4058 82.3333 90 71.8986 89.3044 50.6812C88.9565 40.5942 85.4783 30.1594 77.8261 22.8551C71.913 17.2899 65.3043 14.7391 58.8116 14.6232Z" stroke="#AFE8D9" stroke-width="0.8" stroke-miterlimit="10"/>
</g>
<g style="mix-blend-mode:multiply">
<path d="M41.3043 19.029C47.7971 17.2898 54.9855 17.6376 61.1304 20.3043C64.2609 21.5797 67.0435 23.4347 69.3623 25.7536C71.6812 28.3043 73.0725 31.2029 74.4638 34.2174C77.1304 40.0145 79.913 46.3913 79.7971 52.7681C79.7971 55.7826 78.9855 58.6811 77.0145 61C74.5797 63.6666 70.9855 65.6376 67.3913 64.826C63.3333 64.0145 60.087 60.6521 58.1159 57.1739C56.3768 54.2753 54.1739 49.2898 57.6522 46.855C58.8116 45.9275 57.6522 43.9565 56.4928 44.884C53.0145 47.3188 53.1304 51.3768 54.5217 54.971C56.029 58.7971 58.4638 62.2753 61.8261 64.7101C65.0725 67.1449 69.3623 68.0724 73.1884 66.4492C76.6667 64.942 79.5652 62.1594 80.9565 58.6811C83.7391 51.9565 81.0725 44.0724 78.4058 37.8116C77.0145 34.3333 75.7391 30.7391 73.6522 27.7246C71.6812 24.5942 68.8986 21.9275 65.6522 20.0724C58.3478 15.5507 48.9565 14.6232 40.7246 16.8261C39.3333 17.1739 39.913 19.3768 41.3043 19.029Z" fill="black"/>
</g>
<g style="mix-blend-mode:multiply">
<path d="M15.1014 48.4783C17.7681 39.087 21.942 29.8117 29.7101 23.6667C30.8696 22.7392 29.2464 21.116 28.087 22.0436C20.087 28.4204 15.6812 38.1595 13.0145 47.7827C12.5507 49.2899 14.7536 49.8696 15.1014 48.4783Z" fill="black"/>
</g>
<g style="mix-blend-mode:multiply">
<path d="M19.7391 73.7536C25.5362 80.4782 34.1159 84.0724 42.5797 86.0434C50.2319 87.7826 58.3478 86.2753 64.7246 81.7536C68.3188 79.3188 71.3333 75.9565 73.1884 72.0145C72.4928 71.8599 71.7971 71.6666 71.1015 71.4347C71.1015 71.8985 70.9855 72.3623 71.1015 72.826C71.1015 72.942 70.9855 73.1739 70.9855 73.1739C71.1014 73.4058 72.8406 72.942 72.7246 73.1739C72.7246 73.0579 72.7246 72.5942 73.0725 72.2463C72.3768 72.0145 71.7198 71.7439 71.1015 71.4347C70.6377 75.7246 67.1594 79.2029 63.3333 80.5942C61.5942 81.1739 59.971 81.9855 58.2319 82.5652C56.5314 83.1835 54.7923 83.6473 53.0145 83.9565C45.942 85.4637 38.1739 85.3478 31.6812 81.8695C27.971 79.8985 24.9565 76.884 22.9855 73.1739C22.2899 71.8985 20.3188 73.0579 21.0145 74.3333C25.0725 81.7536 32.2609 85.9275 40.4928 86.855C44.5507 87.4347 48.7246 87.0869 52.7826 86.3913C54.715 86.0048 56.6473 85.5024 58.5797 84.884C60.4348 84.3043 62.2899 83.3768 64.1449 82.6811C68.8986 80.942 72.8406 76.6521 73.3043 71.4347C73.4203 70.5072 72.029 69.9275 71.4493 70.6231C70.5217 71.5507 69.8261 73.5217 70.9855 74.5652C71.5652 75.1449 72.4928 75.0289 72.9565 74.3333C73.4203 73.5217 73.4203 72.3623 73.3043 71.4347C73.3043 70.3913 71.7971 69.8116 71.2174 70.855C68.087 77.4637 61.942 82.1014 54.8696 83.7246C47.3333 85.5797 39.2174 83.4927 32.2609 80.2463C28.2029 78.2753 24.3768 75.6087 21.3623 72.1304C20.4348 71.0869 18.8116 72.7101 19.7391 73.7536Z" fill="black"/>
</g>
<g style="mix-blend-mode:multiply">
<path d="M28.5507 65.29C32.029 71.0871 39.6812 71.7827 45.5942 69.5798C52.8985 67.0291 56.6087 60.1885 57.6522 52.8842C58.2319 49.4059 58.5797 45.0001 56.2609 42.1016C55.6812 41.5219 54.5217 41.8697 54.2899 42.6813C53.5942 45.5798 53.7101 48.7103 54.058 51.7248C54.4058 54.5074 55.1015 57.6378 56.6087 60.0726C58.1159 62.5074 60.5507 64.4784 62.9855 65.8697C65.3043 67.145 67.8551 67.8407 70.4058 67.261C79.2174 65.4059 79.2174 53.1161 78.4058 46.2755C77.8261 41.9856 76.7826 38.0436 74.9275 34.1016C72.029 27.9566 67.971 22.3914 61.4783 19.6088C55.3333 17.0581 48.1449 16.3624 41.7681 18.2175C35.2754 20.0726 29.5942 24.0146 24.7246 28.6523C20.087 33.174 15.4493 38.3914 13.1304 44.5363C10.6957 50.7972 10.9275 57.9856 13.5942 64.1305C14.4058 65.7537 15.2174 67.261 16.2609 68.7682C17.0725 69.9277 19.0435 68.8842 18.2319 67.6088C14.5217 62.1595 12.8986 56.1306 14.058 49.6378C15.2174 43.4929 18.8116 38.5074 22.7536 33.9856C26.8116 29.3479 31.5652 25.29 37.1304 22.5074C42.6957 19.6088 48.7246 18.7972 54.8696 19.9566C57.8841 20.6523 60.8986 21.5798 63.5652 23.203C66.2319 24.9421 68.3188 27.261 70.058 29.9277C72.4928 33.7537 74.4638 38.0436 75.5072 42.5653C76.3188 46.2755 76.6667 50.2175 76.4348 54.1595C76.2029 57.5219 75.3913 61.3479 72.7246 63.6668C69.1304 66.7972 64.3768 64.4784 61.2464 61.9277C59.2754 60.1885 58 58.2175 57.3043 55.7827C56.3768 53.0001 56.029 49.9856 56.029 47.0871C56.029 45.8117 56.1449 44.5363 56.4928 43.261C55.8744 43.4156 55.256 43.5702 54.6377 43.7248C56.2609 45.8117 55.913 49.4059 55.5652 51.8407C55.2174 54.9711 54.4058 57.9856 52.7826 60.6523C49.7681 65.9856 44.087 68.8842 37.942 68.4204C34.9275 68.1885 32.1449 66.7972 30.4058 64.1305C29.7101 62.8552 27.7391 64.0146 28.5507 65.29Z" fill="black"/>
</g>
<g style="mix-blend-mode:multiply">
<path d="M53.1304 41.7536C44.2029 39.6666 33.4203 43.7246 29.0145 51.9565C27.7391 54.2753 27.0435 56.942 27.0435 59.6086C27.0435 61.1159 29.3623 61.1159 29.3623 59.6086C29.3623 48.3623 42.3478 41.5217 52.5507 43.9565C53.942 44.3043 54.5217 42.1014 53.1304 41.7536Z" fill="black"/>
</g>
<g style="mix-blend-mode:multiply">
<path d="M57.4203 42.5652C55.913 42.3333 54.5217 41.7536 53.0145 41.2898C51.3913 40.826 49.7681 40.4782 48.1449 40.0144C46.9855 39.5507 45.942 39.0869 44.6667 39.2028C43.2754 39.3188 41.7681 39.7825 40.6087 40.3623C38.2899 41.5217 35.971 43.2608 34.1159 45.1159C33.1884 46.0434 32.4155 47.0869 31.7971 48.2463C31.4493 48.826 31.2174 49.4057 30.8696 49.8695C30.4058 50.5652 29.942 51.1449 29.5942 51.8405C28.6667 54.1594 28.087 56.5941 27.971 59.0289C27.8551 60.1883 27.971 61.3478 28.4348 62.3912C28.8986 63.6666 29.8261 64.5941 30.8696 65.6376C31.7971 66.5652 32.8406 67.8405 34 68.6521C34.9275 69.2318 35.971 69.6956 37.1304 69.9275C39.4493 70.3912 42.1159 70.6231 44.5507 70.1594C47.3333 69.4637 50 67.1449 52.087 65.1738C53.0145 64.2463 53.8261 63.2028 54.6377 62.0434C55.3333 61.2318 56.1449 60.0724 56.029 58.913C55.913 57.5217 53.5942 57.5217 53.8261 58.913C53.8261 59.7246 53.1304 60.4202 52.6667 60.9999C52.087 61.8115 51.3913 62.6231 50.5797 63.4347C48.9565 65.0579 46.8696 66.913 44.6667 67.7246C42.8116 68.4202 40.4928 68.1883 38.5217 67.8405C37.5942 67.7246 36.6667 67.4927 35.7391 67.0289C34.6957 66.4492 33.8841 65.5217 33.0725 64.5941C32.2609 63.7825 31.1015 62.9709 30.6377 61.9275C30.1739 60.9999 30.1739 59.8405 30.2899 58.797C30.4058 56.7101 30.8696 54.3912 31.7971 52.5362C32.3768 51.4927 33.0725 50.6811 33.5362 49.7536C34.1159 48.5941 34.8116 47.5507 35.7391 46.7391C37.3623 45.1159 39.2174 43.7246 41.1884 42.5652C42.3478 41.9854 43.7391 41.4057 45.0145 41.4057C46.2899 41.4057 47.6812 42.2173 48.9565 42.5652C50.3478 43.0289 51.8551 43.2608 53.2464 43.7246C54.6377 44.1883 56.029 44.6521 57.4203 44.884C58.9275 44.9999 58.9275 42.797 57.4203 42.5652Z" fill="black"/>
</g>
<g style="mix-blend-mode:multiply">
<path d="M77.942 61.5798C78.8696 59.7247 80.1449 57.9856 80.4927 55.8986C80.7246 54.6232 80.6087 53.2319 80.6087 51.9566C80.6087 50.6812 80.3768 49.4059 80.1449 48.0145C79.7971 46.6232 77.5942 47.203 77.942 48.7102C78.1739 49.7537 78.2899 50.7972 78.2899 51.9566C78.2899 53.116 78.4058 54.2754 78.2899 55.4348C78.058 57.2899 76.7826 58.7972 75.971 60.4203C75.2754 61.8117 77.2464 62.9711 77.942 61.5798Z" fill="black"/>
</g>
<g style="mix-blend-mode:multiply">
<path d="M15.4493 59.7248C14.9855 58.6813 14.5217 57.7537 13.7101 56.9422C13.1304 56.4784 11.971 56.5943 11.8551 57.4059C11.3913 59.6088 10.9275 62.3914 12.4348 64.2465C12.8986 64.9422 14.2899 65.0581 14.5217 64.0146C14.8696 61.8117 14.4058 59.7248 13.2464 57.9856C12.6667 57.174 11.7391 57.174 11.2754 57.9856C10.3478 59.3769 10.8116 61.1161 11.3913 62.6233C12.087 64.2465 12.6667 65.8697 13.5942 67.3769C14.5217 68.7682 15.6812 70.1595 16.8406 71.4349C17.8841 72.5943 19.1594 73.9856 20.7826 74.4494C22.1739 74.7972 22.7536 72.5943 21.3623 72.2465C20.2029 71.8987 19.2754 70.7393 18.4638 69.8117C17.5362 68.7682 16.4928 67.6088 15.6812 66.3335C14.8696 65.174 14.2899 63.7827 13.8261 62.3914C13.4783 61.5798 12.6667 59.9566 13.2464 59.0291C12.5507 59.0291 11.8937 59.0291 11.2754 59.0291C12.087 60.4204 12.5507 61.8117 12.3188 63.319C13.0145 63.2417 13.7101 63.1644 14.4058 63.0871C13.2464 61.6958 13.5942 59.7248 13.942 58.1016C13.3237 58.2562 12.7053 58.4107 12.087 58.5653C12.7826 59.145 13.1304 60.0726 13.4783 60.8842C14.1739 62.1595 16.1449 61.0001 15.4493 59.7248Z" fill="black"/>
</g>
<g style="mix-blend-mode:multiply">
<path d="M15.3333 57.2899C14.5217 56.2464 13.7101 55.3189 12.8985 54.3913C12.5507 54.0435 11.971 53.9276 11.6232 54.1595C11.1594 54.2754 10.9275 54.6232 10.9275 55.2029C10.8116 56.1305 10.9275 57.174 11.1594 58.2174C11.3913 59.4541 11.7005 60.6909 12.087 61.9276C12.8985 64.0145 14.058 66.7971 16.2609 67.6087C17.6522 68.0725 18.2319 65.8696 16.8406 65.4058C17.0725 65.5218 16.7246 65.2899 16.8406 65.4058C16.7633 65.3285 16.686 65.2512 16.6087 65.174C16.3768 65.058 16.7246 65.2899 16.4928 65.174C16.4155 65.0967 16.3382 65.0194 16.2609 64.9421C15.913 64.5942 15.7971 64.4783 15.5652 63.8986C14.9855 62.9711 14.5217 62.0435 14.1739 61C13.7874 59.8406 13.5169 58.6812 13.3623 57.5218C13.2464 56.9421 13.0145 56.0145 13.1304 55.2029C12.5121 55.4348 11.8937 55.6667 11.2754 55.8986C11.971 56.8261 12.7826 57.6377 13.3623 58.4493C13.7101 59.029 14.4058 59.2609 14.9855 58.9131C15.4493 58.5653 15.6812 57.8696 15.3333 57.2899Z" fill="black"/>
</g>
<g style="mix-blend-mode:multiply">
<path d="M14.4058 64.826C15.913 69.9275 17.5362 76.768 22.7536 79.3188C23.4493 79.6666 24.4928 79.3188 24.4928 78.3912C24.3768 76.5362 22.9855 74.797 21.942 73.4057C20.8985 72.1304 19.3913 70.2753 17.7681 69.9275C16.7246 69.6956 15.913 70.739 16.4928 71.5506C18.8116 75.4927 22.1739 78.739 26 81.0579C27.0435 81.7535 28.3188 80.2463 27.3913 79.3188C24.8406 76.884 22.2899 74.6811 19.8551 72.2463C18.8116 71.2028 17.6522 70.1593 17.0725 68.884C16.4928 67.8405 16.029 66.6811 14.8696 66.1014C13.8261 65.7535 12.7826 66.6811 13.2464 67.7246C14.8696 70.855 16.8406 73.7535 19.1594 76.4202C21.4783 78.9709 24.2609 81.2898 27.5072 82.4492C28.3188 82.797 29.2464 81.8695 28.8985 81.0579C27.8551 77.5796 24.7246 75.4927 22.6377 72.826C22.2899 72.2463 21.5942 72.0144 21.0145 72.3622C20.5507 72.5941 20.3188 73.4057 20.6667 73.8695C21.7101 75.2608 22.8696 76.4202 24.029 77.6956C25.0725 78.855 26.2319 80.1304 26.8116 81.6376C27.2754 81.1738 27.7391 80.7101 28.2029 80.2463C25.1884 79.2028 22.6377 76.884 20.5507 74.5651C18.4638 72.1304 16.6087 69.4637 15.2174 66.5651C14.7536 67.1062 14.2512 67.6086 13.7101 68.0724C14.6377 68.5362 14.8696 69.8115 15.3333 70.6231C16.1449 71.8985 17.3043 72.9419 18.4638 73.9854C20.7826 76.4202 23.3333 78.6231 25.7681 80.9419C26.2319 80.3236 26.6956 79.7439 27.1594 79.2028C23.5652 76.9999 20.5507 73.9854 18.3478 70.3912C17.9613 71.0096 17.5362 71.5893 17.0725 72.1304C17.4203 72.1304 18 72.5941 18.4638 72.9419C19.0821 73.5603 19.6618 74.1787 20.2029 74.797C20.744 75.4154 21.2077 76.111 21.5942 76.884C21.7488 77.1159 21.9034 77.3864 22.058 77.6956C22.058 77.8502 22.0966 78.0048 22.1739 78.1593C22.2899 78.3912 22.1739 78.2753 22.1739 78.3912C22.7923 78.082 23.372 77.7342 23.913 77.3477C21.5942 76.1883 20.2029 73.8695 19.1594 71.5506C18 69.2318 17.3043 66.6811 16.6087 64.2463C16.2609 62.739 14.058 63.4347 14.4058 64.826Z" fill="black"/>
</g>
<g style="mix-blend-mode:multiply">
<path d="M32.4928 20.5362C31.4493 21.5797 30.6377 22.855 29.942 24.1304C29.4783 25.0579 30.5217 26.3333 31.5652 25.7536C32.9565 24.7101 34.5797 23.8985 35.2754 22.1594C35.6232 21.3478 34.5797 20.5362 33.8841 20.7681C29.8261 22.2753 27.3913 25.5217 24.029 27.9565C24.57 28.4203 25.0725 28.9227 25.5362 29.4637C25.9227 28.9227 26.3865 28.4589 26.9275 28.0724C26.3865 27.5314 25.8454 26.9903 25.3043 26.4493C23.3333 28.4203 20.7826 29.5797 19.5072 32.0145C18.9275 33.0579 19.971 34.1014 21.0145 33.5217C22.1739 32.942 23.3333 31.8985 24.3768 30.971C25.5362 30.0435 26.9275 29 27.8551 27.7246C29.1304 26.1014 27.3913 24.942 25.7681 25.5217C24.029 26.2174 22.6377 27.7246 21.2464 28.884C20.4348 29.6956 19.6232 30.5072 18.9275 31.4348C18.1159 32.5942 17.5362 33.9855 17.0725 35.3768C16.6087 36.4203 17.8841 37.1159 18.6956 36.6521C20.2029 35.9565 20.8985 34.3333 21.942 33.1739C23.2174 31.5507 24.9565 30.5072 26.3478 29.1159C27.3913 28.0724 25.8841 26.5652 24.7246 27.4927C22.6377 29.2319 20.2029 30.6232 18.4638 32.8261C16.7246 35.1449 16.029 37.9275 14.7536 40.4782C15.4493 40.7101 16.1449 40.9807 16.8406 41.2898C18.5797 36.3043 22.6377 32.4782 25.7681 28.3043C26.5797 27.2608 24.8406 26.1014 24.029 26.913C19.5072 30.7391 15.5652 35.4927 14.2899 41.4058C13.942 42.7971 16.1449 43.3768 16.4928 41.9855C17.3043 38.971 18.9275 36.3043 19.971 33.4058C20.3188 32.4782 19.0435 31.5507 18.3478 32.1304C13.0145 35.7246 13.2464 42.5652 11.2754 48.0145C11.971 48.2464 12.7053 48.4396 13.4783 48.5942C13.942 45.5797 14.9855 42.7971 16.4928 40.1304C17.0725 39.2029 15.913 37.8116 14.9855 38.5072C14.4058 39.0869 13.3623 39.5507 13.1304 40.3623C12.8985 41.1739 13.3623 41.8695 14.1739 41.9855C15.4493 42.1014 16.4928 40.7101 16.7246 39.5507C16.8406 38.3913 15.4493 38.1594 14.7536 38.7391C11.3913 41.4058 12.2029 46.3913 12.3188 50.1014C12.4348 51.4927 14.6377 51.4927 14.6377 50.1014C14.4058 46.971 13.5942 42.5652 16.3768 40.3623C15.6812 40.0531 15.0242 39.7826 14.4058 39.5507C14.4058 39.3188 14.2899 39.5507 14.1739 39.6666C13.8261 40.2464 13.5942 38.5072 14.9855 40.0145C15.1401 40.3236 15.256 40.5942 15.3333 40.8261C15.3333 41.2898 14.9855 41.2898 15.4493 41.0579C15.6812 40.942 15.913 40.5942 16.1449 40.4782C15.6039 40.0145 15.0628 39.5121 14.5217 38.971C13.0145 41.7536 11.8551 44.7681 11.2754 48.0145C11.0435 49.5217 12.8985 49.9855 13.4783 48.5942C15.1014 43.9565 14.8696 37.1159 19.3913 34.1014C18.8502 33.6377 18.3092 33.2125 17.7681 32.8261C16.7246 35.7246 15.1014 38.3913 14.2899 41.4058C14.9855 41.6377 15.7198 41.8309 16.4928 41.9855C17.6522 36.4203 21.3623 32.1304 25.5362 28.5362C24.9952 28.0724 24.4155 27.6087 23.7971 27.1449C20.4348 31.5507 16.4928 35.4927 14.6377 40.7101C14.1739 41.8695 16.1449 42.6811 16.7246 41.5217C17.8841 39.0869 18.5797 36.4203 20.3188 34.2174C21.942 32.1304 24.2609 30.7391 26.3478 29.1159C25.8068 28.5749 25.2657 28.0338 24.7246 27.4927C23.3333 28.7681 21.8261 29.8116 20.5507 31.2029C19.6232 32.3623 18.9275 34.1014 17.5362 34.7971C18.0773 35.1835 18.6184 35.6087 19.1594 36.0724C19.6232 34.7971 20.2029 33.5217 21.0145 32.3623C21.5942 31.6666 22.2899 31.0869 22.9855 30.5072C23.6812 29.8116 24.3768 29.1159 25.0725 28.5362C25.5362 28.3043 25.8841 28.0724 26.2319 27.8406C26.9275 27.4927 26.8116 27.8406 26.4638 27.029C26.1159 26.2174 26.3478 26.1014 26 26.4493C25.7681 26.7584 25.5362 27.029 25.3043 27.2608C24.6087 27.8792 23.913 28.4589 23.2174 29C22.1739 29.9275 21.1304 30.971 19.8551 31.6666C20.3961 32.1304 20.8985 32.6328 21.3623 33.1739C22.6377 30.971 25.1884 29.8116 26.9275 28.0724C27.971 27.029 26.3478 25.5217 25.3043 26.4493C24.6087 27.029 24.1449 27.6087 23.5652 28.3043C22.9855 29.2319 24.2609 30.5072 25.1884 29.9275C28.3188 27.6087 30.7536 24.3623 34.4638 22.971C34 22.5072 33.5362 22.0435 33.0725 21.5797C32.6087 22.5072 31.2174 23.2029 30.4058 23.7826C30.9469 24.2464 31.4493 24.7488 31.913 25.2898C32.6087 24.1304 33.1884 22.971 34.1159 22.0435C35.1594 21.1159 33.6522 19.4927 32.4928 20.5362Z" fill="black"/>
</g>
<g style="mix-blend-mode:multiply">
<path d="M29.4783 24.1303C30.5217 24.1303 31.4493 24.0144 32.3768 23.5506C33.4203 22.9709 34.6957 22.5071 35.7391 21.8115C36.7826 21.2318 37.3623 20.9999 38.4058 20.8839C39.2174 20.768 40.1449 20.6521 40.7246 20.0723C41.3043 19.4926 41.0725 18.4492 40.2609 18.2173C38.058 17.5216 35.7391 18.2173 33.7681 19.1448C32.8406 19.7245 31.7971 20.3042 30.8696 20.9999C30.4058 21.3477 29.3623 22.9709 28.5507 22.855C28.9372 23.0868 29.285 23.2801 29.5942 23.4347C29.5942 23.4347 29.5942 24.3622 29.4783 24.2463C29.5942 24.2463 29.7101 24.1303 29.7101 24.1303C29.8261 24.0144 30.058 23.8984 30.1739 23.7825C30.6377 23.4733 31.1401 23.1641 31.6812 22.855C32.686 22.2366 33.7681 21.6955 34.9275 21.2318C36.087 20.6521 37.3623 20.6521 38.8696 20.3042C39.913 20.0723 41.5362 20.0723 42.1159 19.0289C42.5797 18.3332 42.2319 17.5216 41.5362 17.2897C40.2609 16.9419 38.9855 17.2897 37.8261 17.7535C36.5507 18.3332 35.2754 18.797 34 19.4926C32.6087 20.1883 31.3333 20.8839 30.058 21.8115C28.5507 22.855 26.9275 23.4347 25.3043 24.3622C25.7681 24.9033 26.2319 25.483 26.6957 26.1013C28.2029 24.826 29.8261 23.7825 31.5652 22.9709C31.1015 22.3525 30.6377 21.7342 30.1739 21.1158C26.9275 24.2463 22.9855 26.5651 20.2029 30.2752C17.6522 33.5216 15.1014 36.9999 13.8261 40.9419C13.4783 41.9854 13.0145 42.9129 12.8986 43.9564C12.6667 44.9999 12.6667 46.0434 12.7826 47.0868C12.7826 49.6376 12.7826 52.0723 12.7826 54.5071C12.7826 56.5941 12.5507 58.797 13.0145 60.8839C13.5942 63.2028 14.9855 64.9419 16.2609 66.797C16.8406 67.8405 17.5362 68.768 18.2319 69.6955C18.9275 70.6231 19.6232 71.5506 20.2029 72.5941C21.1304 74.4492 21.5942 76.4202 23.2174 77.9274C24.3768 78.855 25.8841 77.3477 24.8406 76.3042C23.4493 75.1448 23.1014 73.4057 22.4058 71.8984C21.5942 70.1593 20.2029 68.768 19.1594 67.1448C18 65.5216 16.6087 63.7825 15.7971 61.8115C14.8696 59.9564 14.9855 57.7535 14.9855 55.6665C14.9855 53.5023 14.9855 51.2994 14.9855 49.0579C14.9855 46.9709 14.7536 44.8839 15.4493 42.9129C16.1449 40.9419 16.8406 39.0868 18 37.3477C19.1594 35.6086 20.2029 33.9854 21.3623 32.3622C24.2609 28.4202 28.3188 25.9854 31.7971 22.739C32.8406 21.8115 31.5652 20.4202 30.4058 20.9999C28.5507 21.9274 26.7729 23.0868 25.0725 24.4781C24.029 25.2897 25.4203 26.797 26.4638 26.2173C27.8551 25.5216 29.2464 25.0579 30.5217 24.2463C31.6812 23.4347 32.8406 22.6231 34.1159 21.9274C35.2754 21.3477 36.5507 20.768 37.7101 20.3042C38.6377 19.8405 39.913 19.2608 40.8406 19.4926C40.6087 18.9516 40.4155 18.4105 40.2609 17.8694C40.4928 17.6376 40.4928 17.5989 40.2609 17.7535C40.1063 17.7535 39.913 17.7922 39.6812 17.8694C39.4493 17.9467 39.1787 17.9854 38.8696 17.9854C38.1739 18.14 37.4783 18.2559 36.7826 18.3332C35.6232 18.5651 34.6957 18.797 33.6522 19.2608C31.7971 20.0723 29.8261 20.9999 28.3188 22.3912C27.6232 22.855 27.1594 23.6666 27.6232 24.4781C28.3188 25.8694 30.058 24.9419 30.8696 24.1303C31.4493 23.6666 31.7971 23.0868 32.4928 22.6231C33.1884 22.1593 33.9227 21.6955 34.6957 21.2318C36.087 20.4202 37.942 19.8405 39.5652 20.4202C39.4106 19.7245 39.256 19.0675 39.1015 18.4492C39.2174 18.3332 39.1015 18.4492 38.9855 18.4492C38.8696 18.4492 38.6377 18.5651 38.4058 18.5651C38.0193 18.6424 37.6715 18.681 37.3623 18.681C36.4348 18.797 35.7391 19.1448 34.9275 19.6086C34.1159 20.1883 33.0725 20.5361 32.1449 21.1158C31.2174 21.5796 30.6377 21.8115 29.4783 21.8115C28.087 21.8115 28.087 24.1303 29.4783 24.1303Z" fill="black"/>
</g>
<g style="mix-blend-mode:multiply">
<path d="M27.971 55.5508C27.971 58.2175 26.3478 62.1595 29.2464 63.8987C30.2899 64.4784 31.3333 63.319 30.7536 62.3914C30.5217 61.8117 30.2899 61.0001 30.058 60.1885C29.8261 59.3769 29.3623 58.5653 28.7826 57.8697C28.087 57.29 27.0435 57.5219 26.8116 58.4494C25.8841 61.4639 28.087 65.29 30.9855 66.5653C31.4493 66.7972 31.913 66.7972 32.2609 66.3335C32.6087 65.9856 32.7246 65.4059 32.4928 64.9421C32.2609 64.4784 31.7971 64.1306 31.5652 63.5508C31.3333 62.9711 31.3333 62.2755 31.1015 61.5798C30.8696 61.0001 30.2899 60.6523 29.7101 60.7682C29.1304 61.0001 28.6667 61.5798 28.8986 62.1595C29.1304 62.8552 29.1304 63.6668 29.4783 64.3624C29.7101 65.0581 30.1739 65.5219 30.5217 66.1016C31.0628 65.6378 31.5652 65.1354 32.029 64.5943C30.9855 64.1306 30.1739 63.319 29.5942 62.2755C29.2464 61.6958 29.0145 61.232 28.8986 60.5364C28.7826 60.0726 28.8986 59.4929 29.0145 59.0291C28.3961 59.1837 27.7778 59.3383 27.1594 59.4929C27.6232 59.9566 27.7391 60.5363 27.971 61.232C28.2029 62.0436 28.4348 62.7392 28.8986 63.5508C29.3623 63.0098 29.8647 62.4687 30.4058 61.9277C29.942 61.6958 29.942 61.5798 29.8261 61.1161C29.8261 61.3479 29.8261 61.0001 29.8261 61.0001C29.8261 60.8455 29.8261 60.6909 29.8261 60.5364C29.8261 60.2272 29.8261 59.9566 29.8261 59.7248C29.8261 58.3335 30.1739 56.9421 30.2899 55.5508C30.2899 54.0436 27.971 54.0436 27.971 55.5508Z" fill="black"/>
</g>
<g style="mix-blend-mode:multiply">
<path d="M43.1594 39.8985C43.0048 40.0531 42.8889 40.169 42.8116 40.2463C42.3478 40.942 42.4638 41.9854 43.3913 42.2173C44.6667 42.5651 46.058 42.4492 47.4493 42.3333C48.8406 42.2173 50.4638 41.8695 51.6232 42.6811C52.8986 43.4927 53.2464 44.4202 53.7101 45.8115C53.942 46.5072 54.2899 47.0869 54.5217 47.6666C54.7536 48.4782 54.6377 49.4057 54.6377 50.3333C54.6377 51.7246 56.8406 51.7246 56.9565 50.3333C57.0725 47.4347 55.913 44.4202 53.8261 42.4492C52.744 41.4444 51.5072 40.7874 50.1159 40.4782C49.3043 40.3622 48.3768 40.2463 47.5652 40.1304C46.6377 40.0144 45.5942 40.2463 44.7826 40.0144C45.0145 40.5555 45.2464 41.0965 45.4783 41.6376C45.7101 41.1738 46.6377 41.4057 47.1014 41.5217C48.029 41.8695 48.6087 42.2173 49.6522 42.2173C51.1594 42.3333 52.087 43.9564 53.3623 44.6521C54.4058 45.1159 55.7971 43.7246 54.7536 42.913C53.942 42.2173 53.1304 41.8695 52.3188 41.4057C51.5072 40.942 50.6957 40.4782 49.8841 40.0144C47.913 39.0869 46.1739 39.5506 44.087 39.6666C42.6956 39.6666 42.6956 41.8695 44.087 41.8695C46.6377 41.8695 49.4203 41.2898 51.971 41.9854C53.2464 42.4492 56.3768 44.1883 55.913 45.9275C56.5314 45.7729 57.1498 45.5796 57.7681 45.3477C56.7246 44.4202 56.3768 42.913 55.3333 41.8695C54.5217 40.942 52.7826 42.1014 53.5942 43.2608C55.2174 45.6956 55.1014 48.4782 54.8696 51.2608C54.6377 52.768 54.6377 54.2753 54.2899 55.6666C54.1739 56.3622 54.058 57.8695 53.4783 58.2173C54.0966 58.5265 54.6763 58.8743 55.2174 59.2608C55.2174 58.5651 55.5652 57.8695 55.7971 57.1738C56.029 56.3622 56.1449 55.4347 56.2609 54.6231C56.4928 52.884 56.4928 51.2608 56.4928 49.5217C56.4928 48.5941 55.2174 48.0144 54.5217 48.7101C53.942 49.5217 53.8261 50.4492 53.5942 51.3767C53.4396 52.6907 53.2464 53.9661 53.0145 55.2028C52.6667 56.942 51.971 58.4492 51.3913 60.0724C50.8116 61.4637 50.9275 62.9709 49.8841 64.2463C48.9565 65.4057 47.7971 66.1014 46.4058 66.3333C44.8985 66.6811 43.2754 67.0289 41.7681 67.3767C39.5652 67.8405 36.6667 68.1883 34.8116 66.797C33.5362 65.9854 32.3768 67.9564 33.6522 68.768C35.7391 70.2753 38.7536 70.1593 41.1884 69.6956C42.9275 69.4637 44.5507 68.9999 46.2899 68.6521C47.7971 68.4202 49.0725 67.9564 50.2319 67.0289C51.3913 66.1014 52.3188 65.0579 52.7826 63.6666C53.1304 62.855 53.1304 61.9275 53.3623 61.1159C53.7101 60.3043 54.058 59.4927 54.4058 58.6811C54.9855 56.942 55.3333 55.0869 55.5652 53.3477C55.6425 52.8067 55.7198 52.2656 55.7971 51.7246C55.913 51.3767 55.913 50.5651 56.1449 50.3333C55.5266 50.0241 54.9082 49.7535 54.2899 49.5217C54.1739 51.2608 54.1739 52.9999 53.942 54.855C53.8261 55.6666 53.7101 56.3622 53.4783 57.1738C53.2464 57.8695 53.0145 58.4492 53.0145 59.2608C53.0145 60.0724 53.942 60.6521 54.6377 60.1883C55.7971 59.4927 56.1449 58.2173 56.3768 56.942C56.7246 55.3188 56.8406 53.6956 56.9565 51.9564C57.4203 48.4782 57.5362 45.1159 55.5652 42.1014C54.9469 42.5651 54.3285 43.0289 53.7101 43.4927C54.7536 44.5362 55.1014 45.9275 56.1449 46.9709C56.8406 47.6666 57.8841 47.3188 58.1159 46.5072C58.9275 43.8405 56.1449 41.5217 54.058 40.4782C51.0435 38.855 47.3333 39.5506 44.087 39.6666C44.087 40.3622 44.087 41.0965 44.087 41.8695C45.8261 41.7535 47.4493 41.2898 49.0725 42.2173C49.7681 42.4492 50.3478 42.913 51.0435 43.2608C51.7391 43.6086 52.5507 43.9564 53.1304 44.4202C53.5942 43.8792 54.058 43.2994 54.5217 42.6811C53.5942 42.2173 53.0145 41.4057 52.2029 40.826C51.7391 40.4782 51.3913 40.2463 50.8116 40.1304C50.2319 39.8985 49.4203 40.0144 48.8406 39.7825C46.9855 39.0869 44.6667 38.5072 43.5072 40.4782C43.0435 41.1738 43.5072 41.9854 44.2029 42.2173C44.8985 42.3333 45.4783 42.3333 46.1739 42.3333C46.8696 42.2173 47.6812 42.3333 48.3768 42.4492C49.6522 42.6811 50.9275 43.0289 51.971 43.8405C53.8261 45.3477 54.7536 47.8985 54.6377 50.3333C55.4106 50.3333 56.1836 50.3333 56.9565 50.3333C56.9565 49.4057 56.9565 48.3622 56.8406 47.4347C56.6087 46.6231 56.029 45.8115 55.7971 44.884C55.3333 43.4927 54.8696 42.2173 53.5942 41.2898C53.0145 40.826 52.3188 40.3622 51.6232 40.1304C50.8116 39.8985 50 40.0144 49.0725 40.0144C47.4493 40.1304 45.5942 40.4782 43.971 40.0144C44.1256 40.6328 44.2802 41.2511 44.4348 41.8695C44.5121 41.7922 44.5894 41.6763 44.6667 41.5217C45.5942 40.3622 43.971 38.855 43.1594 39.8985Z" fill="black"/>
</g>
<g style="mix-blend-mode:multiply">
<path d="M55.1015 45.8117C55.1015 50.1015 55.1015 54.6233 56.6087 58.6813C57.3043 60.4204 57.7681 62.2755 59.2754 63.3189C60.7826 64.5943 62.2899 65.7537 64.1449 66.5653C66.9275 67.9566 70.6377 68.5363 73.4203 66.9131C74.9275 65.9856 76.5507 65.0581 77.0145 63.203C77.4783 61.3479 77.8261 59.7247 78.9855 58.1015C80.2609 56.4784 79.6812 54.2755 79.6812 52.3044C79.6812 51.145 79.7971 49.9856 79.6812 48.8262C79.5652 47.6668 78.8696 46.6233 78.8696 45.3479C78.9855 43.9566 76.6667 43.9566 76.6667 45.3479C76.5507 46.1595 76.7826 46.9711 77.0145 47.6668C77.3623 48.5943 77.4783 49.4059 77.4783 50.4494C77.4783 52.0726 77.5942 53.8117 77.5942 55.4349C77.5942 56.3624 77.2464 56.7102 76.7826 57.4059C76.3188 57.9856 76.087 58.7972 75.7391 59.4928C75.3913 60.3044 75.1594 61.0001 74.9275 61.8117C74.8116 62.7392 74.6957 63.4349 73.8841 64.0146C72.8406 64.8262 71.5652 65.5218 70.1739 65.5218C68.7826 65.6378 67.2754 65.4059 66 64.9421C64.4928 64.3624 62.9855 63.4349 61.7101 62.3914C61.1304 62.0436 60.4348 61.5798 60.087 61.116C59.5072 60.4204 59.2754 59.261 58.9275 58.4494C57.3043 54.5073 57.3043 50.1015 57.3043 45.8117C57.3043 44.3044 55.1015 44.3044 55.1015 45.8117Z" fill="black"/>
</g>
<g style="mix-blend-mode:multiply">
<path d="M14.7536 38.2753C13.7101 39.5507 13.1304 40.942 12.6667 42.5652C12.087 44.3043 11.5072 46.0435 11.0435 47.8985C10 51.8406 9.88405 55.7826 10.6956 59.7246C11.0435 61.5797 11.5072 63.4348 12.3188 65.1739C13.0145 66.7971 14.058 68.1884 14.8696 69.6956C16.2609 72.2464 17.0725 75.1449 19.0435 77.2319C20.5507 78.971 24.9565 81.5217 26.9275 79.2029C27.8551 78.0434 26.3478 76.5362 25.3043 77.5797C24.7246 78.3913 22.4058 77 21.7101 76.5362C20.4348 75.8406 19.7391 74.4492 19.0435 73.1739C18.3478 71.7826 17.7681 70.2753 16.9565 68.884C16.1449 67.2608 15.1014 65.7536 14.2899 64.0145C12.5507 60.1884 11.971 55.3188 12.6667 51.1449C13.0145 49.0579 13.5942 46.971 14.2899 44.884C14.8696 43.2608 15.2174 41.2898 16.3768 39.8985C17.3043 38.7391 15.6812 37.1159 14.7536 38.2753Z" fill="black"/>
</g>
<path d="M31.7971 82.9131C33.5362 82.9131 34.9275 83.8406 36.5507 84.3044C38.4058 84.8841 40.2609 84.6522 42.1159 84.8841C43.1594 85 44.087 85.2319 45.1304 85.3478C46.058 85.4638 46.9855 85.4638 47.913 85.5797C49.8841 86.0435 51.7391 86.1594 53.7101 86.0435C55.4879 85.8116 57.2271 85.3865 58.9275 84.7681C59.8551 84.5363 60.6667 84.0725 61.4783 83.8406C62.2899 83.4928 63.2174 83.3768 63.913 83.029C65.6522 82.4493 66.8116 81.1739 67.8551 79.7826C68.4348 78.971 68.8985 78.2754 69.5942 77.4638C70.1739 76.7681 70.6377 76.1884 70.8696 75.2609C71.2174 74.4493 70.058 73.4058 69.2464 73.9855C67.0435 75.6087 65.1884 77.4638 62.9855 79.087C60.7826 80.5942 58.2319 80.8261 55.7971 81.5218C54.6377 81.7536 53.7101 82.3334 52.5507 82.9131C51.5072 83.3768 50.4638 83.1449 49.4203 83.1449C48.1449 83.1449 46.9855 83.3768 45.7101 83.7247C44.3188 84.0725 42.6957 83.8406 41.3043 83.8406C39.7971 83.8406 39.7971 86.0435 41.3043 86.0435C42.6957 86.0435 44.2029 86.2754 45.5942 86.0435C46.9855 85.8116 48.2609 85.3478 49.6522 85.4638C50.8116 85.4638 51.971 85.5797 53.0145 85.116C54.1739 84.6522 55.2174 83.9565 56.4927 83.6087C58.9275 82.9131 61.3623 82.6812 63.5652 81.4058C66 79.7826 67.971 77.5797 70.4058 75.9565C69.8647 75.5701 69.285 75.1449 68.6667 74.6812C68.4348 75.4928 67.7391 76.0725 67.2754 76.6522C66.8116 77.3478 66.2319 78.1594 65.7681 78.8551C65.1884 79.5507 64.6087 80.2464 63.7971 80.5942C63.1014 81.058 62.2899 81.1739 61.5942 81.4058C59.971 81.8696 58.4638 82.6812 56.8406 83.1449C55.1401 83.6087 53.4396 83.8406 51.7391 83.8406C50 83.8406 48.4928 83.2609 46.7536 83.1449C44.8985 83.1449 43.1594 82.6812 41.3043 82.5652C39.4493 82.4493 37.8261 82.4493 36.087 81.7536C34.6957 81.1739 33.4203 80.7102 31.7971 80.5942C30.2899 80.5942 30.2899 82.9131 31.7971 82.9131Z" fill="black"/>
</g>
<defs>
<clipPath id="clip0_9_34237">
<rect width="80" height="74.2029" fill="white" transform="translate(10 13)"/>
</clipPath>
</defs>
</svg>
