<svg width="67" height="150" viewBox="0 0 67 150" fill="none" xmlns="http://www.w3.org/2000/svg">
<path d="M33.7732 147.928C37.3201 148.265 40.6815 147.439 43.9309 146.043C49.323 143.727 38.7013 145.634 37.1997 145.528C37.0445 145.517 36.9226 145.483 36.8295 145.431M36.8295 145.431C36.2781 145.121 36.7359 144.159 37.2617 143.437M36.8295 145.431C35.9526 146.853 34.8998 147.654 32.619 146.67C31.2356 146.073 31.6564 142.627 32.1641 140.431M36.8295 145.431C37.0876 145.013 37.3304 144.541 37.5847 144.045M37.2617 143.437C37.7101 142.82 38.208 142.377 38.1713 142.659C38.1533 142.799 38.1266 142.929 38.0939 143.051M37.2617 143.437C37.307 143.583 37.368 143.721 37.4467 143.85M37.2617 143.437C36.986 142.545 37.2962 141.348 37.7979 140.098M38.0939 143.051C38.09 143.065 38.0861 143.08 38.0821 143.094M38.0939 143.051C37.7618 143.404 37.5583 143.668 37.4467 143.85M38.0939 143.051C38.1028 143.042 38.1118 143.032 38.1209 143.022M38.0821 143.094C37.9609 143.518 37.7663 143.828 37.6061 144.003M38.0821 143.094C37.9152 143.401 37.7584 143.706 37.6061 144.003M38.0821 143.094C38.095 143.07 38.1079 143.046 38.1209 143.022M37.6061 144.003C37.596 144.014 37.5861 144.024 37.5763 144.034M37.6061 144.003C37.599 144.017 37.5918 144.031 37.5847 144.045M37.5763 144.034C37.3631 144.25 37.2273 144.208 37.4467 143.85M37.5763 144.034C37.5791 144.038 37.5819 144.041 37.5847 144.045M37.5763 144.034C37.5287 143.975 37.4855 143.914 37.4467 143.85M38.1209 143.022C38.2247 142.913 38.3406 142.795 38.4697 142.668C38.6549 142.487 38.7797 142.321 38.8643 142.157M38.1209 143.022C38.1482 142.973 38.1757 142.923 38.2035 142.873C38.3444 142.621 38.4872 142.365 38.6302 142.107M38.8643 142.157C38.9951 141.903 39.0295 141.654 39.0415 141.358M38.8643 142.157C39.6926 142.334 41.0452 142.623 41.3888 142.329C41.6976 142.064 41.8385 141.479 41.8904 140.786M38.8643 142.157C38.7804 142.139 38.7018 142.122 38.6302 142.107M39.0415 141.358C39.0557 141.008 39.0388 140.593 39.1124 140.026C39.2209 139.192 38.5569 139.513 37.7979 140.098M39.0415 141.358C38.9055 141.609 38.7678 141.859 38.6302 142.107M39.0415 141.358C39.4095 140.679 39.7657 139.993 40.0765 139.325M37.7979 140.098C37.2786 140.497 36.7147 141.02 36.3236 141.379M37.7979 140.098C37.9001 139.843 38.0102 139.586 38.1249 139.329C38.1505 139.272 38.1761 139.214 38.2017 139.157M36.3236 141.379C35.9173 141.752 35.6973 141.948 35.9071 141.646C36.0496 141.442 36.2211 141.213 36.4154 140.967M36.3236 141.379C36.3527 141.241 36.3832 141.104 36.4154 140.967M36.3236 141.379C36.1091 142.396 35.9735 143.44 35.8279 144.561L35.8189 144.63C35.3099 148.547 35.0577 141.139 34.8841 138.698M36.4154 140.967C36.8628 140.399 37.4306 139.736 38.0403 139.044M36.4154 140.967C36.6556 139.944 36.9888 138.942 37.5069 137.909M38.0403 139.044C38.1817 138.883 38.3254 138.721 38.4703 138.558M38.0403 139.044C37.7812 138.823 37.6186 138.465 37.5069 137.909M38.0403 139.044C38.0904 139.086 38.1441 139.124 38.2017 139.157M38.4703 138.558C39.2271 137.707 40.0186 136.836 40.7056 136.062M38.4703 138.558C38.3812 138.757 38.2916 138.956 38.2017 139.157M38.4703 138.558C38.9876 137.406 39.4907 136.288 39.9447 135.179M40.7056 136.062C40.7073 136.061 40.7089 136.059 40.7106 136.057M40.7056 136.062L40.4711 137.867C40.5496 137.264 40.6302 136.66 40.7106 136.057M40.7056 136.062L40.9071 134.512M40.7106 136.057C41.0867 135.633 41.4313 135.239 41.7216 134.893M40.7106 136.057C40.7794 135.54 40.8481 135.023 40.915 134.506M41.7216 134.893C42.6909 133.739 43.0546 133.127 41.9608 133.778C41.8957 133.817 41.7985 133.882 41.6768 133.967M41.7216 134.893C41.7079 134.587 41.6925 134.277 41.6768 133.967M41.7216 134.893C41.7556 135.657 41.7787 136.402 41.7678 137.107C41.762 137.483 41.8524 138.315 41.8946 139.214M41.6768 133.967C41.4777 134.105 41.2129 134.295 40.915 134.506M41.6768 133.967C41.6084 132.613 41.5346 131.232 41.5781 129.944M40.915 134.506C40.9124 134.508 40.9097 134.51 40.9071 134.512M40.915 134.506C40.9741 134.049 41.0319 133.592 41.0873 133.135M40.9071 134.512C40.6083 134.724 40.2766 134.956 39.9447 135.179M40.9071 134.512L40.9878 133.891C41.0206 133.639 41.0538 133.387 41.0873 133.135M39.9447 135.179C39.4497 135.511 38.9541 135.822 38.5662 136.008M39.9447 135.179C40.4499 133.945 40.8942 132.721 41.2293 131.471M38.5662 136.008C37.8974 136.328 37.5485 136.28 38.0743 135.339C38.3985 134.76 37.983 135.467 37.3281 136.379M38.5662 136.008C39.2867 134.759 39.9577 133.521 40.1495 132.045C40.4375 129.829 40.2395 127.634 39.9999 125.437M38.5662 136.008C38.2193 136.609 37.861 137.212 37.539 137.845C37.5282 137.867 37.5175 137.888 37.5069 137.909M37.3281 136.379C36.5766 137.427 35.5099 138.744 34.8841 138.698M37.3281 136.379C37.326 136.35 37.324 136.32 37.3219 136.29C37.2824 135.711 37.2357 135.133 37.1821 134.557M37.3281 136.379C37.3727 137.007 37.4266 137.51 37.5069 137.909M34.8841 138.698C34.764 138.689 34.6601 138.63 34.5778 138.509C34.3474 138.17 34.4318 137.755 34.6859 137.311M34.8841 138.698C34.8614 138.378 34.84 138.144 34.8196 138.031C34.7759 137.789 34.7311 137.549 34.6859 137.311M34.6859 137.311C35.2174 136.381 36.4913 135.321 37.1821 134.557M34.6859 137.311C34.3113 135.334 33.9018 133.46 33.7242 131.48C33.6322 130.454 32.8785 130.803 32.1284 131.383M37.1821 134.557C37.6824 134.004 37.8768 133.607 37.2616 133.527C37.2358 133.523 37.1742 133.551 37.0866 133.601M37.1821 134.557C37.1524 134.238 37.1206 133.919 37.0866 133.601M37.0866 133.601C36.2795 134.062 33.2641 136.407 35.633 133.615C35.9477 133.244 36.4127 132.683 36.9069 132.071M37.0866 133.601C37.0321 133.09 36.9722 132.58 36.9069 132.071M36.9069 132.071C38.3653 130.266 40.079 128.018 38.9418 128.894C38.1052 129.538 37.4848 130.42 36.7949 131.236M36.9069 132.071C36.8712 131.792 36.8338 131.514 36.7949 131.236M36.7949 131.236C36.3619 131.748 35.9016 132.234 35.3432 132.619C33.9752 133.562 35.0691 132.08 36.62 130.056M36.7949 131.236C36.7397 130.842 36.6814 130.448 36.62 130.056M36.62 130.056C37.7671 128.559 39.1642 126.765 39.9999 125.437M36.62 130.056C36.5257 129.453 36.424 128.851 36.3152 128.251M39.9999 125.437C40.1784 125.153 40.3312 124.891 40.4506 124.657C40.7853 124.002 40.4991 124.155 39.9171 124.686M39.9999 125.437C39.9726 125.187 39.9448 124.936 39.9171 124.686M39.9171 124.686C39.0222 125.502 37.428 127.212 36.3152 128.251M39.9171 124.686C39.7478 123.157 39.5828 121.625 39.5718 120.083M36.3152 128.251C36.0961 128.456 35.8956 128.634 35.7229 128.775C34.0198 130.161 34.7934 128.122 35.8656 125.967M36.3152 128.251C36.1768 127.487 36.0268 126.726 35.8656 125.967M35.8656 125.967C36.6979 124.294 37.7102 122.551 37.8836 122.287C38.1712 121.849 38.8481 121 39.5718 120.083M35.8656 125.967C35.5324 124.397 35.1513 122.836 34.7257 121.282M39.5718 120.083C39.9071 119.658 40.2523 119.218 40.5736 118.798M39.5718 120.083C39.5714 120.022 39.5712 119.962 39.5712 119.901C39.5716 119.514 39.4561 118.739 39.4533 118.075M40.5736 118.798C40.8386 118.451 41.0873 118.118 41.3005 117.816M40.5736 118.798C40.4967 118.641 40.4204 118.483 40.3451 118.324C40.3086 118.248 40.1922 117.971 40.0422 117.626M40.5736 118.798C41.1541 119.985 41.7693 121.143 42.2552 122.36M41.3005 117.816C42.2132 116.526 42.4768 115.825 40.5937 117.209M41.3005 117.816C41.9235 118.406 42.2812 118.969 42.2933 119.925C42.3037 120.738 42.2893 121.55 42.2552 122.36M41.3005 117.816C41.1336 117.658 40.9476 117.498 40.7441 117.328C40.692 117.285 40.6418 117.245 40.5937 117.209M40.5937 117.209C40.427 117.331 40.2435 117.47 40.0422 117.626M40.5937 117.209C40.1908 116.906 39.9236 116.858 39.7499 116.97M40.0422 117.626C39.9478 117.699 39.8494 117.776 39.7469 117.857C39.663 117.924 39.5644 117.997 39.4533 118.075M40.0422 117.626C39.9533 117.422 39.8526 117.194 39.7499 116.97M39.4533 118.075C38.3976 118.823 36.2094 120.098 34.7257 121.282M39.4533 118.075C39.4511 117.565 39.5153 117.121 39.7499 116.97M34.7257 121.282C34.2711 121.645 33.8827 122 33.6132 122.328M34.7257 121.282C34.6056 120.844 34.4819 120.406 34.3547 119.968M33.6132 122.328C33.4692 122.503 33.3591 122.671 33.2911 122.828C32.7887 123.992 32.9071 123.622 33.3879 122.391M33.6132 122.328C33.5408 122.347 33.4657 122.368 33.3879 122.391M33.6132 122.328C34.959 121.967 35.3461 122.204 34.5964 124.076C34.086 125.351 31.8876 125.102 31.7422 126.221C31.5471 127.722 32.4805 128.836 32.2819 130.364C32.2384 130.699 32.1844 131.04 32.1284 131.383M33.3879 122.391C33.6296 121.772 33.9628 120.936 34.3547 119.968M33.3879 122.391C33.3639 122.398 33.3397 122.405 33.3152 122.412C33.1676 122.456 33.0255 122.401 32.8892 122.264M34.3547 119.968C34.9596 118.475 35.7041 116.668 36.4677 114.862M34.3547 119.968C34.3129 119.824 34.2706 119.68 34.228 119.536C34.0442 118.915 33.8305 118.309 33.605 117.708M36.4677 114.862C36.8582 113.939 37.2536 113.016 37.6379 112.135M36.4677 114.862C37.0257 114.461 37.5651 113.819 38.0608 113.063M36.4677 114.862C36.09 115.134 35.7037 115.295 35.3168 115.305C34.9347 115.316 35.1872 112.934 35.6054 110.161M37.6379 112.135C39.4794 107.915 41.064 104.671 40.6136 107.039C40.3817 108.258 39.3747 111.059 38.0608 113.063M37.6379 112.135C37.385 111.708 37.0688 111.351 36.6707 111.109C36.3306 110.901 35.9491 110.558 35.6054 110.161M37.6379 112.135C37.8047 112.418 37.9439 112.731 38.0608 113.063M38.0608 113.063C38.5845 114.551 38.6607 116.42 38.7647 117.58C38.8892 118.967 38.9149 116.317 39.02 115.846C39.0774 115.589 39.424 116.259 39.7499 116.97M35.6054 110.161C36.1409 106.61 36.9482 102.418 37.0438 101.783C37.1014 101.401 38.337 92.0616 37.8922 95.4848C37.6109 97.6502 37.7585 99.6952 37.9017 101.865C37.9222 102.174 38.0836 105.997 38.4096 103.488C38.8143 100.374 38.9505 97.2616 38.8921 94.1552M35.6054 110.161C35.1444 109.628 34.7514 109 34.6169 108.476C34.6115 108.455 34.6061 108.435 34.6009 108.418M38.8921 94.1552C38.827 90.6895 38.5198 87.2308 38.0733 83.783M38.8921 94.1552C39.3283 94.358 39.7703 94.4341 40.2002 94.3172C41.2622 94.0283 41.4525 96.2691 41.4916 97.7652M38.8921 94.1552C38.0355 93.757 37.2017 92.8707 36.5278 92.0009M38.0733 83.783C38.0305 83.4524 37.9864 83.1219 37.9411 82.7915M38.0733 83.783C37.6216 83.6959 37.1714 83.6046 36.7237 83.5059M38.0733 83.783C41.2329 84.3919 44.4604 84.791 47.3588 86.0098M37.9411 82.7915C37.8533 82.1508 37.761 81.5104 37.6649 80.8705C37.66 80.8381 37.655 80.8055 37.65 80.7728M37.9411 82.7915C39.4734 83.0547 40.999 83.3575 42.5356 83.7196C42.8057 83.7832 45.7783 84.6603 44.4281 83.9056C43.1595 83.1965 41.9807 82.3147 40.798 81.4398M37.9411 82.7915C37.5798 82.7294 37.218 82.6696 36.8557 82.6117M37.65 80.7728C37.5994 80.4446 37.5406 80.1051 37.4753 79.7563M37.65 80.7728C37.6905 80.4973 37.7385 80.215 37.7903 79.9277M37.65 80.7728C37.6366 80.8638 37.6241 80.954 37.6125 81.0434C37.5592 81.4532 37.34 81.5376 37.0199 81.4395M37.4753 79.7563C37.4536 79.6406 37.4313 79.5238 37.4082 79.4061M37.4753 79.7563C37.5763 79.8121 37.6816 79.8694 37.7903 79.9277M37.4753 79.7563C37.4004 79.715 37.328 79.6744 37.2583 79.6349M37.4082 79.4061C37.3902 79.3139 37.3717 79.2212 37.3529 79.1278M37.4082 79.4061C37.3665 79.4176 37.3248 79.4292 37.2832 79.4409M37.4082 79.4061C37.5064 79.3791 37.605 79.3527 37.7041 79.3268M37.3529 79.1278C37.3468 79.0977 37.3407 79.0675 37.3346 79.0372M37.3529 79.1278C37.3436 79.1227 37.3343 79.1176 37.325 79.1125M37.3529 79.1278C37.4708 79.1927 37.5878 79.2591 37.7041 79.3268M37.3346 79.0372C37.2649 78.6948 37.1905 78.3452 37.1126 77.9901M37.3346 79.0372C37.3315 79.0614 37.3283 79.0865 37.325 79.1125M37.3346 79.0372C37.3488 78.9255 37.3605 78.834 37.3693 78.7657C37.4003 78.5274 37.4419 78.2127 37.4908 77.8597M37.1126 77.9901C37.095 77.9095 37.0771 77.8286 37.0591 77.7474M37.1126 77.9901C36.7738 78.1402 36.5313 78.3567 36.4077 78.6509M37.1126 77.9901C37.2278 77.9391 37.3542 77.8958 37.4908 77.8597M37.0591 77.7474C37.0522 77.7163 37.0453 77.6852 37.0383 77.654M37.0591 77.7474C37.2057 77.7502 37.3547 77.7514 37.5058 77.7513M37.0591 77.7474C36.9967 77.7462 36.9348 77.7447 36.8733 77.7429C36.1283 77.7209 35.3875 77.7015 34.6498 77.6821M37.0383 77.654C36.4699 75.102 35.7531 72.2989 35.4124 69.8564C34.9778 66.7413 34.7123 63.5869 34.4888 60.4328M37.0383 77.654C37.1971 77.6652 37.3559 77.6759 37.515 77.686M37.0383 77.654C36.3824 77.6078 35.7295 77.5517 35.0807 77.48C34.9369 77.4641 34.7966 77.4541 34.6588 77.449M34.4888 60.4328C34.3305 58.1986 34.1933 55.9646 34.032 53.7447C33.8709 51.5291 34.465 49.3178 34.5972 47.1246M34.4888 60.4328C34.5918 57.9398 34.6982 55.4452 34.7947 52.9453C34.8831 50.6517 35.2245 48.1857 35.1421 45.8927C35.1415 45.878 34.8869 46.4467 34.5972 47.1246M34.4888 60.4328C34.2951 65.1259 34.1139 69.8134 34.0361 74.5206M34.5972 47.1246C34.6325 46.5385 34.6349 45.9538 34.581 45.3706C34.4406 43.8506 34.2099 42.3573 33.9256 40.8785M34.5972 47.1246C34.2486 47.9404 33.8493 48.9144 33.7813 49.2199C33.4422 50.7437 33.6958 53.0442 33.0894 53.4614M33.9256 40.8785C33.2303 37.2616 32.2142 33.7307 31.4135 30.1048C31.3434 29.787 31.2559 26.8291 30.9253 26.7171C30.8337 26.6861 30.7369 27.1913 30.6447 27.9396M33.9256 40.8785C35.3894 38.2381 36.452 35.6968 36.8974 32.6142C36.9247 32.4251 36.9082 31.8896 37.0064 31.469M33.9256 40.8785C33.7656 41.1671 33.6008 41.4568 33.4315 41.7487M30.6447 27.9396C30.4123 29.8259 30.2087 33.2569 30.1886 33.5394C30.148 34.1106 30.0982 34.6805 30.0417 35.2493M30.6447 27.9396C30.5255 30.419 30.35 32.8918 30.0716 35.3503M30.6447 27.9396C30.6704 27.4052 30.6935 26.8705 30.7145 26.3356M30.0417 35.2493C29.8963 36.7139 29.7066 38.1722 29.5166 39.633L29.4798 39.9161C29.3809 40.6773 30.0347 35.6736 30.0615 35.4396C30.0649 35.4098 30.0683 35.38 30.0716 35.3503M30.0417 35.2493C30.0517 35.283 30.0617 35.3166 30.0716 35.3503M30.0417 35.2493C29.2452 32.5639 28.3893 29.9639 27.8964 27.6712C27.8675 27.5366 27.8062 27.1505 27.7238 26.6329M30.0716 35.3503C30.198 35.7775 30.3228 36.2068 30.4442 36.6373M30.7145 26.3356C30.723 26.1179 30.7312 25.9002 30.739 25.6824M30.7145 26.3356C30.4791 26.0586 30.2326 25.8097 29.9734 25.5985M30.7145 26.3356C32.2206 28.1083 33.2659 31.0341 34.2009 32.6232C35.2096 34.3376 35.7931 32.0041 35.6931 31.0502C35.6839 30.9632 35.6742 30.876 35.6638 30.7888M30.739 25.6824C30.7509 25.3521 30.7621 25.0218 30.7726 24.6913M30.739 25.6824C30.4833 25.6531 30.228 25.6252 29.9734 25.5985M30.739 25.6824C32.0675 25.8348 33.4085 26.026 34.7345 26.2841M30.7726 24.6913C30.7736 24.6586 30.7747 24.6258 30.7757 24.5931M30.7726 24.6913C30.6019 24.6338 30.5649 24.598 30.722 24.5943C30.7399 24.5939 30.7578 24.5935 30.7757 24.5931M30.7726 24.6913C31.3198 24.8758 33.241 25.2838 34.5417 25.5729M30.7757 24.5931C30.8727 21.5085 30.9154 18.4191 30.993 15.3394M30.7757 24.5931C31.9113 24.5659 33.0711 24.5223 34.2407 24.4961M30.993 15.3394C30.9967 15.1958 31.0004 15.0522 31.0041 14.9086M30.993 15.3394C31.1375 15.6307 31.3027 15.9666 31.3632 16.2023C31.6634 17.3718 32.2737 18.1998 32.8923 19.1867M30.993 15.3394C30.7556 14.8609 30.574 14.503 31.0041 14.9086M31.0041 14.9086C31.0441 13.3914 31.0935 11.8768 31.1632 10.3664C31.1899 9.78638 31.0683 7.69068 30.7724 5.68789M31.0041 14.9086C31.095 14.9943 31.2133 15.1141 31.364 15.274C31.7295 15.6618 32.088 16.0684 32.4358 16.49M30.7724 5.68789C30.4433 3.45993 29.8985 1.34695 29.1026 1.56344C28.3559 1.76655 27.2989 2.45943 26.4886 2.7811C25.0744 3.34248 25.3054 5.34021 25.1615 6.75234M30.7724 5.68789C31.872 6.83758 32.0955 9.25661 32.4885 10.5386C33.1982 12.8541 33.5646 15.2619 34.5469 17.5145C35.0438 18.6539 37.197 24.489 35.1912 20.6229C34.5086 19.3072 33.6547 18.0151 32.7108 16.8295M30.7724 5.68789C30.5345 5.43915 30.2556 5.24983 29.9251 5.1443C25.4198 3.70578 26.0993 7.8512 25.6516 11.2974C25.4033 13.2077 25.2177 15.1009 25.1745 17.0099M25.1615 6.75234C25.1558 6.80877 25.1495 6.86426 25.1424 6.91869C24.7776 9.72592 23.8696 7.96652 24.8991 6.94698C24.9985 6.84854 25.0856 6.78508 25.1615 6.75234ZM25.1615 6.75234C26.2261 6.29338 25.1031 11.8707 25.082 11.7624C24.648 9.53609 24.077 10.4857 23.8955 12.5966C23.66 15.3355 23.6593 17.8859 24.1567 20.4069M24.1567 20.4069C24.3695 21.4853 24.6734 22.5584 25.0892 23.6385M24.1567 20.4069C24.1928 20.235 24.2386 20.0646 24.2947 19.8959C24.4082 19.5547 24.748 18.2318 25.1745 17.0099M24.1567 20.4069C23.884 21.7043 24.1578 23.087 24.6306 24.4588M25.0892 23.6385C25.1559 23.8118 25.2255 23.9853 25.298 24.1591C25.3541 24.2934 25.4537 24.5715 25.5689 24.8972M25.0892 23.6385C25.5158 22.4208 25.2766 20.7854 25.2165 19.7162C25.1655 18.8083 25.1543 17.9074 25.1745 17.0099M25.0892 23.6385C24.9824 23.9432 24.834 24.2218 24.6306 24.4588M25.5689 24.8972C25.678 25.2057 25.8011 25.5569 25.9144 25.8689M25.5689 24.8972C25.6314 24.4532 25.7576 24.4317 25.9908 25.2814M25.5689 24.8972C25.5158 25.2741 25.5086 25.9557 25.5206 26.6671M25.9144 25.8689C26.221 26.713 26.4558 27.2698 26.1478 25.9166C26.0907 25.6658 26.0385 25.4554 25.9908 25.2814M25.9144 25.8689L25.9908 25.2814M25.9144 25.8689L25.7449 27.1737M25.9908 25.2814L26.4173 21.9985M25.5206 26.6671C25.5247 26.9129 25.5311 27.1622 25.5388 27.4039M25.5206 26.6671C25.2024 25.9445 24.8872 25.2033 24.6306 24.4588M25.5206 26.6671C25.5954 26.8371 25.6704 27.006 25.7449 27.1737M25.5388 27.4039C25.5508 27.7853 25.5659 28.1474 25.5796 28.4456M25.5388 27.4039C25.4441 27.4969 25.3508 27.5917 25.2588 27.6879C25.0616 27.894 24.9209 28.0924 24.8247 28.2872M25.5388 27.4039C25.6052 27.3386 25.6723 27.2742 25.74 27.2109M25.5796 28.4456C25.5936 28.7498 25.6062 28.9876 25.6129 29.1115C25.7376 31.4335 26.0927 33.7294 26.5165 36.0152M25.5796 28.4456L25.74 27.2109M25.5796 28.4456L25.2961 30.6276M26.5165 36.0152C26.7768 37.4193 27.063 38.8196 27.3377 40.2198M26.5165 36.0152C26.5081 36.1851 26.5001 36.3551 26.4925 36.5251M26.5165 36.0152C26.6145 34.0373 26.7682 32.0786 26.9873 30.3747M27.3377 40.2198C27.5349 41.2254 27.7261 42.2309 27.8975 43.2378M27.3377 40.2198C27.5481 41.2249 27.7384 42.2313 27.8975 43.2378M27.3377 40.2198C27.0793 38.9854 26.7906 37.753 26.4925 36.5251M27.8975 43.2378C28.1684 44.8288 28.3896 46.4233 28.5066 48.0266M27.8975 43.2378C27.9943 43.85 28.0796 44.4622 28.1507 45.0742C28.3774 47.0232 27.5686 45.4198 27.1135 44.7597C26.8288 44.3468 26.5943 43.9148 26.3971 43.4683M28.5066 48.0266C28.5317 48.3719 28.5521 48.7176 28.567 49.0637M28.5066 48.0266C28.8326 47.7896 29.1822 47.4706 29.54 47.0992M28.5066 48.0266C28.3436 48.145 28.1866 48.2429 28.0372 48.3166M28.567 49.0637C28.569 49.1098 28.5709 49.1559 28.5727 49.2019C28.5909 49.6691 28.578 50.135 28.5483 50.6003M28.567 49.0637C28.5164 48.9948 28.4662 48.9257 28.4163 48.8564M28.567 49.0637C28.9461 49.58 29.345 50.0867 29.7678 50.5916M28.5483 50.6003C28.5394 50.7394 28.5291 50.8785 28.5176 51.0175M28.5483 50.6003C29.5806 56.2718 30.4144 66.8654 30.2643 62.6887C30.1201 58.6786 29.9966 54.6263 29.7678 50.5916M28.5483 50.6003C28.5312 50.5061 28.514 50.4133 28.4967 50.322M28.5176 51.0175C28.4741 51.5452 28.4146 52.0722 28.3605 52.599M28.5176 51.0175C28.5436 52.1311 28.5454 53.4995 28.5412 54.8028M28.5176 51.0175C28.5119 50.7722 28.505 50.5392 28.4967 50.322M28.3605 52.599C28.2537 53.6381 28.1676 54.6769 28.2648 55.7205C28.3132 56.2403 28.4339 56.733 28.5303 57.2282M28.3605 52.599C28.2974 51.5342 28.2738 50.4677 28.3096 49.3998M28.3605 52.599C28.4041 53.3344 28.4665 54.069 28.5412 54.8028M28.5303 57.2282C28.6259 57.7188 28.6976 58.2118 28.6516 58.7357C28.5344 60.0706 28.5235 59.0491 28.5303 57.2282ZM28.5303 57.2282C28.533 56.5119 28.5384 55.6718 28.5412 54.8028M28.5412 54.8028C28.7515 56.8679 29.0592 58.9268 29.3185 60.9786C29.6985 63.9847 29.4817 67.8838 30.4347 70.8268C30.4667 70.9256 30.4979 71.0025 30.5283 71.0592M28.4967 50.322C28.4867 50.0582 28.4746 49.8177 28.4602 49.6066C28.4417 49.3359 28.4276 49.0783 28.4163 48.8564M28.4967 50.322C28.4349 49.9946 28.3725 49.6859 28.3096 49.3998M28.4163 48.8564C28.3772 48.0923 28.3709 47.7496 28.3331 48.7402M28.4163 48.8564C28.3884 48.8177 28.3607 48.779 28.3331 48.7402M28.3331 48.7402C28.3265 48.9113 28.3191 49.1222 28.3103 49.3775C28.3101 49.3849 28.3098 49.3924 28.3096 49.3998M28.3331 48.7402C28.2331 48.5999 28.1345 48.4588 28.0372 48.3166M28.3096 49.3998C28.2512 49.1344 28.1924 48.8886 28.1333 48.6657C28.0889 48.4982 28.0478 48.3889 28.0098 48.3299M30.5283 71.0592C30.8481 71.6567 31.0822 70.0304 31.2685 68.2667M30.5283 71.0592C29.9688 73.1919 29.4236 75.3359 28.9222 77.4857M30.5283 71.0592C30.7731 70.1261 31.0207 69.1951 31.2685 68.2667M31.2685 68.2667C31.3879 67.1363 31.4878 65.9494 31.5779 65.2553C32.088 61.33 32.6804 57.4023 33.0894 53.4614M31.2685 68.2667C31.4878 67.4455 31.7072 66.6263 31.9252 65.8095C32.8747 62.2517 31.7045 68.4297 31.5914 69.3C31.5036 69.9757 30.9844 75.9797 31.3179 75.5536C32.3925 74.1809 32.2985 71.8306 32.5816 70.2073C32.8114 68.8901 32.9373 65.1618 33.5951 66.326C34.4228 67.791 33.4818 72.86 33.3941 74.326C33.3296 75.4046 33.2418 76.4801 33.1379 77.5536M33.0894 53.4614C33.1801 52.5878 33.2617 51.7135 33.3314 50.8385C33.569 47.8583 33.7528 44.7625 33.4315 41.7487M33.0894 53.4614C32.8344 53.6368 32.4273 53.4792 31.7601 52.7906C31.0384 52.0458 30.3782 51.3206 29.7678 50.5916M33.4315 41.7487C33.2213 39.777 32.7949 37.8404 32.0259 35.9943C30.9726 33.4658 31.0236 32.1837 30.5725 35.6557C30.5293 35.9878 30.4861 36.3146 30.4442 36.6373M33.4315 41.7487C33.3566 41.8777 33.2809 42.0071 33.2043 42.137C32.8813 42.6846 32.4224 43.402 31.8948 44.1566M30.4442 36.6373C30.1305 39.0522 29.8906 41.237 30.305 43.7069C30.3559 44.0104 30.5255 44.8469 30.7274 45.7276M30.4442 36.6373C31.1564 39.1626 31.7541 41.7291 31.8948 44.1566M30.7274 45.7276C31.061 47.183 31.4826 48.7589 31.6016 48.2478C31.9026 46.9561 31.9773 45.5802 31.8948 44.1566M30.7274 45.7276C31.1344 45.2152 31.5309 44.677 31.8948 44.1566M30.7274 45.7276C30.3348 46.2218 29.9324 46.692 29.54 47.0992M27.7238 26.6329C27.6892 26.4152 27.6508 26.1743 27.6096 25.9191M27.7238 26.6329C27.4232 27.5768 27.1799 28.8774 26.9873 30.3747M27.7238 26.6329C27.8348 26.2846 27.9535 25.9848 28.0804 25.7417M27.6096 25.9191C27.2424 23.6452 26.6465 20.2345 26.4173 21.9985M27.6096 25.9191C26.9344 26.2162 26.3205 26.6706 25.7551 27.1968M27.6096 25.9191C27.7633 25.8514 27.9202 25.792 28.0804 25.7417M26.4173 21.9985L27.2247 15.7852M25.7449 27.1737L25.74 27.2109M25.7449 27.1737C25.7483 27.1814 25.7517 27.1891 25.7551 27.1968M25.74 27.2109C25.7451 27.2062 25.7501 27.2015 25.7551 27.1968M27.2247 15.7852L27.6649 12.3975C27.954 10.1724 29.2698 5.03594 29.7843 10.6065C29.946 12.3575 31.2405 19.4251 29.7381 20.8727C29.3309 21.2651 27.7709 17.2307 27.2247 15.7852ZM27.2247 15.7852C27.1343 15.5459 27.0716 15.3776 27.0466 15.312C26.4963 13.8709 25.7551 15.3468 25.1745 17.0099M24.6306 24.4588C24.5394 24.565 24.4372 24.6629 24.3227 24.7511C24.139 24.8926 23.9513 25.0285 23.7604 25.16M25.7551 27.1968C26.1313 28.0442 26.4924 28.8599 26.745 29.618C26.8288 29.8694 26.9095 30.1217 26.9873 30.3747M26.9873 30.3747C28.2918 34.6148 28.7894 39.0769 29.2268 43.477C29.3463 44.6801 29.4496 45.8881 29.54 47.0992M29.54 47.0992C29.6268 48.2609 29.7017 49.4255 29.7678 50.5916M28.0098 48.3299C27.9495 48.2363 27.897 48.2693 27.851 48.3973M28.0098 48.3299C28.0189 48.3256 28.0281 48.3211 28.0372 48.3166M28.0098 48.3299C27.9558 48.3557 27.9029 48.3782 27.851 48.3973M27.851 48.3973C27.5676 49.1874 27.538 53.5952 27.5098 54.155C27.4801 54.7483 27.4991 58.977 26.6594 56.3206C25.7566 53.4642 25.1559 50.3399 23.7398 47.6755C23.3506 46.9434 24.5268 52.4804 24.5989 52.8184C25.615 57.584 26.4168 62.3994 26.8863 67.2511C27.2118 70.6152 27.4663 74.0175 27.5748 77.4099M27.851 48.3973C27.331 48.5891 26.9246 48.4377 26.7231 47.7637C26.6236 47.4307 26.5421 46.7235 26.4834 45.7566M27.5748 77.4099C27.5752 77.4239 27.5757 77.438 27.5761 77.452M27.5748 77.4099C28.024 77.4381 28.4731 77.4632 28.9222 77.4857M27.5748 77.4099C27.55 77.4083 27.5253 77.4068 27.5005 77.4052M27.5761 77.452C27.5876 77.8169 27.5975 78.1816 27.6056 78.5461M27.5761 77.452C27.84 77.642 28.2579 78.1797 28.6151 78.678M27.5761 77.452C27.5492 77.4327 27.524 77.4169 27.5005 77.4052M27.6056 78.5461C27.619 79.1521 27.6274 79.7576 27.6305 80.3624M27.6056 78.5461C27.9421 78.5883 28.2787 78.6323 28.6151 78.678M27.6056 78.5461C27.4456 78.5261 27.2856 78.5065 27.1257 78.4873M27.6305 80.3624C27.631 80.4566 27.6314 80.5508 27.6316 80.6449C27.6329 81.1684 27.5718 82.0613 27.5037 82.9286M27.6305 80.3624C27.4521 80.2916 27.2738 80.2204 27.0957 80.1489M27.6305 80.3624C27.8304 80.4417 28.0305 80.5206 28.2307 80.5991M27.5037 82.9286C27.4355 83.7957 27.3602 84.637 27.3328 85.0576M27.5037 82.9286C27.3167 82.0307 27.1534 81.0805 27.0957 80.1489M27.5037 82.9286C27.5497 83.1494 27.5971 83.3671 27.6447 83.5805M27.3328 85.0576C27.3121 85.3754 27.3188 85.453 27.3766 85.1199M27.3328 85.0576C27.3474 85.0784 27.362 85.0992 27.3766 85.1199M27.3328 85.0576C26.0657 83.2506 24.998 81.11 23.7679 79.2983M27.3766 85.1199C27.3806 85.0971 27.3848 85.0724 27.3892 85.0458C27.4705 84.5574 27.5558 84.0689 27.6447 83.5805M27.3766 85.1199C27.4195 85.1805 27.4625 85.2407 27.5058 85.3005C29.1753 87.6058 28.3438 86.6328 27.8704 84.5692C27.7979 84.2534 27.7211 83.9224 27.6447 83.5805M27.6447 83.5805C27.8258 82.5864 28.0221 81.5924 28.2307 80.5991M28.2307 80.5991C28.3627 79.9704 28.4997 79.342 28.6408 78.714M28.2307 80.5991C28.9441 80.8789 29.6595 81.1538 30.3751 81.4265M28.6408 78.714C28.6432 78.7035 28.6456 78.6929 28.6479 78.6824M28.6408 78.714C28.9608 79.1622 29.227 79.5706 29.281 79.6533L29.2867 79.6621C29.6648 80.2414 30.0258 80.8306 30.3751 81.4265M28.6408 78.714C28.6323 78.702 28.6237 78.69 28.6151 78.678M28.6479 78.6824C28.7377 78.2833 28.8292 77.8844 28.9222 77.4857M28.6479 78.6824C29.7462 78.8319 30.8419 78.9995 31.9252 79.181M28.6479 78.6824C28.637 78.6809 28.626 78.6794 28.6151 78.678M28.9222 77.4857C30.1602 77.5479 31.3987 77.5909 32.6432 77.6273M33.1379 77.5536C33.135 77.5828 33.1322 77.612 33.1293 77.6412M33.1379 77.5536C33.2202 77.5419 33.3019 77.5308 33.3834 77.5204M33.1379 77.5536C32.9756 77.5767 32.8113 77.6018 32.6432 77.6273M33.1293 77.6412C33.1201 77.7359 33.1107 77.8306 33.1013 77.9252M33.1293 77.6412C33.2057 77.6434 33.2821 77.6455 33.3585 77.6476M33.1293 77.6412C32.9672 77.6367 32.8052 77.6321 32.6432 77.6273M33.1013 77.9252C33.0534 78.4029 33.0025 78.8802 32.9493 79.3573M33.1013 77.9252C32.3643 77.816 31.9421 77.7328 32.4828 77.6516C32.5367 77.6435 32.5902 77.6354 32.6432 77.6273M33.1013 77.9252C33.1651 77.9347 33.2314 77.9444 33.2996 77.9542M32.9493 79.3573C32.886 79.9236 32.8195 80.4896 32.7506 81.0554M32.9493 79.3573C32.9809 79.3629 33.0124 79.3685 33.044 79.3741M32.9493 79.3573C32.624 79.2998 32.2974 79.2435 31.9696 79.1884M32.7506 81.0554C32.713 81.3647 32.6746 81.674 32.6358 81.9833M32.7506 81.0554C32.0442 81.4079 31.7362 81.757 32.6358 81.9833M32.7506 81.0554C32.7596 81.0509 32.7687 81.0464 32.7778 81.0419M32.6358 81.9833C32.6238 82.0789 32.6118 82.1745 32.5997 82.27M32.6358 81.9833C32.6379 81.9838 32.64 81.9844 32.6421 81.9849M32.5997 82.27C32.5652 82.5419 32.5305 82.8138 32.4955 83.0857M32.5997 82.27C32.2583 82.1407 31.9166 82.0114 31.5747 81.8819M32.5997 82.27C32.6007 82.2704 32.6018 82.2708 32.6028 82.2712M32.4955 83.0857C32.4198 83.6734 32.3431 84.2611 32.2665 84.8489M32.4955 83.0857L32.2665 84.8489M32.4955 83.0857L32.5314 82.809C32.5548 82.6294 32.5786 82.4501 32.6028 82.2712M32.2665 84.8489C32.2413 85.0426 32.216 85.2363 32.1909 85.4301M32.2665 84.8489L32.1909 85.4301M32.2665 84.8489C32.8255 85.895 33.3815 86.9425 33.9632 87.9748M32.2665 84.8489C32.2665 84.8488 32.2666 84.849 32.2665 84.8489ZM32.2665 84.8489C31.9818 84.3161 31.6962 83.7834 31.4063 83.2535M32.1909 85.4301L31.701 89.1998M32.6028 82.2712C32.6158 82.1757 32.6288 82.0802 32.6421 81.9849M32.6028 82.2712C32.7737 82.336 32.9445 82.4007 33.1151 82.4655C33.4438 82.5904 33.7759 82.7059 34.1109 82.8135M32.6421 81.9849C32.6858 81.6696 32.731 81.3553 32.7778 81.0419M32.6421 81.9849C32.805 82.0255 33.0072 82.0622 33.2532 82.0942C33.5192 82.1287 33.7845 82.1639 34.0491 82.1996M32.7778 81.0419C32.8611 80.4837 32.9497 79.928 33.044 79.3741M32.7778 81.0419C33.1171 80.8749 33.5436 80.7074 33.9712 80.5523M33.044 79.3741C33.1248 78.8998 33.2098 78.4268 33.2996 77.9542M33.044 79.3741C33.2277 79.4067 33.411 79.4397 33.5938 79.473C33.7122 79.4946 33.8369 79.5331 33.966 79.5848M33.2996 77.9542C33.319 77.852 33.3387 77.7498 33.3585 77.6476M33.2996 77.9542C33.5136 77.9852 33.7468 78.0183 33.986 78.054M33.3585 77.6476C33.3668 77.6052 33.3751 77.5628 33.3834 77.5204M33.3585 77.6476C33.5698 77.6534 33.7812 77.6591 33.9929 77.6647M33.3834 77.5204C33.5715 76.5626 33.7795 75.6062 34.0114 74.6458C34.0173 74.6213 34.0257 74.5783 34.0361 74.5206M33.3834 77.5204C33.5883 77.4942 33.7914 77.4728 33.9964 77.4595M34.0361 74.5206C34.1627 73.8218 34.595 70.9681 34.6687 72.8145C34.7301 74.3536 34.7163 75.8999 34.6588 77.449M34.0361 74.5206C34.0252 75.1808 34.0164 75.8413 34.0098 76.5023C34.0065 76.8272 34.0017 77.1461 33.9964 77.4595M34.6588 77.449C34.6559 77.5267 34.6529 77.6044 34.6498 77.6821M34.6588 77.449C34.4328 77.4406 34.2135 77.4455 33.9964 77.4595M34.6498 77.6821C34.6435 77.8399 34.6368 77.9977 34.6297 78.1556M34.6498 77.6821C34.4306 77.6763 34.2116 77.6706 33.9929 77.6647M34.6297 78.1556C34.6038 78.728 34.5727 79.3007 34.5378 79.8735M34.6297 78.1556C34.4164 78.1195 34.1988 78.0857 33.986 78.054M34.6297 78.1556C35.2081 78.2536 35.7544 78.3691 36.085 78.509C36.1933 78.5548 36.3009 78.6021 36.4077 78.6509M34.5378 79.8735C34.5279 80.0367 34.5176 80.1999 34.5071 80.3631M34.5378 79.8735C34.6993 79.9686 34.8636 80.0744 35.0281 80.1851M34.5378 79.8735C34.3414 79.7578 34.1491 79.6581 33.966 79.5848M34.5071 80.3631C34.4668 80.9903 34.4225 81.6175 34.3765 82.2443M34.5071 80.3631C34.3326 80.4233 34.1518 80.4867 33.9712 80.5523M34.5071 80.3631C34.6902 80.3 34.8663 80.2402 35.0281 80.1851M34.3765 82.2443C34.3609 82.457 34.345 82.6697 34.3291 82.8823M34.3765 82.2443C35.2079 82.3588 36.0334 82.4802 36.8557 82.6117M34.3765 82.2443C34.2675 82.2293 34.1583 82.2144 34.0491 82.1996M34.3291 82.8823C34.3062 83.1875 34.283 83.4926 34.2598 83.7976M34.3291 82.8823C34.2562 82.8598 34.1835 82.8368 34.1109 82.8135M34.3291 82.8823C35.1144 83.1258 35.9149 83.3278 36.7237 83.5059M34.2598 83.7976C34.1536 85.1939 34.047 86.5874 33.9632 87.9748M34.2598 83.7976C34.199 83.4715 34.1501 83.1438 34.1109 82.8135M34.2598 83.7976C34.5011 85.0928 34.9286 86.3635 35.6721 87.6793C35.9376 88.1492 36.3628 85.8867 36.7237 83.5059M33.9632 87.9748C33.9484 88.22 33.9343 88.4649 33.921 88.7096C33.8965 89.1621 33.2976 96.5738 33.1284 96.4231C32.936 96.2518 32.7475 96.0737 32.5624 95.8895M33.9632 87.9748C34.3941 88.7397 34.8391 89.4962 35.3097 90.2377C35.5237 90.5749 35.8421 91.0723 36.2314 91.6062M32.5624 95.8895C32.0365 95.3663 31.5384 94.7938 31.0608 94.1875M32.5624 95.8895C32.1209 93.8948 31.7351 91.8926 31.3659 89.9349C31.0987 88.5177 31.2198 92.8324 31.1194 93.6763C31.0992 93.8459 31.0797 94.0163 31.0608 94.1875M32.5624 95.8895C33.1429 98.5129 33.8196 101.123 34.6811 103.603C34.8245 104.015 34.9644 103.913 35.0947 103.534M31.0608 94.1875C30.8122 93.8719 30.5691 93.5471 30.3306 93.2154M31.0608 94.1875C30.8035 96.5209 30.6575 99.007 30.3858 101.448M30.3306 93.2154C30.1371 92.9463 29.9466 92.6727 29.7585 92.3957M30.3306 93.2154C30.6523 89.891 31.0058 86.5699 31.4063 83.2535M30.3306 93.2154C30.1313 95.2746 29.9443 97.335 29.7658 99.3965M29.7585 92.3957C28.1481 90.0236 26.7158 87.402 25.1175 85.2656M29.7585 92.3957C29.5185 93.9311 29.2898 95.4696 29.0762 97.0143M29.7585 92.3957C30.2435 89.2928 30.7747 86.2027 31.3222 83.1001M25.1175 85.2656C25.0742 85.2077 25.0308 85.1502 24.9872 85.093C24.8801 84.9525 22.6446 82.1422 23.7653 84.1257C25.4984 87.1932 26.721 90.2295 27.5868 93.6665C28.0192 95.3834 28.6044 100.585 28.8325 98.8298C28.9113 98.2235 28.9926 97.6185 29.0762 97.0143M25.1175 85.2656C24.5102 83.9075 23.8309 82.5781 23.0529 81.2883M25.1175 85.2656C26.8048 89.0393 27.9353 93.0344 29.0762 97.0143M29.0762 97.0143C29.3041 97.8096 29.5325 98.6043 29.7658 99.3965M31.3222 83.1001C31.3946 82.6899 31.4672 82.2795 31.5401 81.8688M31.3222 83.1001C31.3503 83.1512 31.3783 83.2023 31.4063 83.2535M31.3222 83.1001C31.0135 82.5382 30.6993 81.9795 30.3751 81.4265M31.5401 81.8688C31.5469 81.8307 31.5536 81.7925 31.5604 81.7544C31.5994 81.5346 31.6367 81.3183 31.6722 81.1074M31.5401 81.8688C31.1519 81.7218 30.7635 81.5745 30.3751 81.4265M31.5401 81.8688C31.5516 81.8732 31.5631 81.8776 31.5747 81.8819M31.6722 81.1074C31.7943 80.3819 31.8948 79.7189 31.9696 79.1884M31.6722 81.1074C31.7752 80.2974 31.8591 79.6629 31.9252 79.181M31.6722 81.1074C31.6483 81.2952 31.6234 81.4924 31.5975 81.6993C31.5899 81.7602 31.5823 81.8211 31.5747 81.8819M31.9696 79.1884C32.172 77.7515 32.1855 77.2862 31.9252 79.181M31.9696 79.1884C31.9548 79.1859 31.94 79.1835 31.9252 79.181M31.5747 81.8819C31.5176 82.339 31.4615 82.7962 31.4063 83.2535M29.7658 99.3965C29.7196 99.9308 29.6739 100.465 29.6287 101C29.4572 103.03 28.8288 109.069 29.3743 107.106C29.8719 105.316 30.1689 103.396 30.3858 101.448M29.7658 99.3965C29.9596 100.054 30.1568 100.711 30.36 101.364C30.3687 101.392 30.3773 101.42 30.3858 101.448M30.3858 101.448C30.6443 102.295 30.8236 103.13 30.9538 103.96M35.0947 103.534C35.3841 102.691 35.6258 100.481 35.7508 99.5191C36.0765 97.0128 36.4139 94.5183 36.5278 92.0009M35.0947 103.534C35.429 99.7123 35.6842 95.8829 36.1812 92.058C36.198 91.9287 36.2148 91.7753 36.2314 91.6062M35.0947 103.534C34.9634 105.034 34.8199 106.533 34.6449 108.03C34.6297 108.161 34.6151 108.29 34.6009 108.418M36.5278 92.0009C36.5577 91.3396 36.5721 90.6768 36.5669 90.0118C36.5415 86.7726 36.3942 89.9466 36.2314 91.6062M36.5278 92.0009C36.4251 91.8683 36.3261 91.7362 36.2314 91.6062M34.6009 108.418C34.5046 109.283 34.4231 110.097 34.2472 110.871M34.6009 108.418C34.3995 107.74 34.3359 109.608 34.2472 110.871M34.2472 110.871C34.017 111.883 33.6251 112.825 32.8269 113.724C32.2279 114.398 31.9679 106.653 31.7703 105.261C31.4195 102.788 31.1456 102.886 30.9538 103.96M34.2472 110.871C34.2273 111.154 34.2061 111.407 34.1818 111.594C34.0064 112.944 33.8801 115.236 33.605 117.708M30.9538 103.96C30.6883 105.445 30.5802 108.799 30.6432 109.786C30.7465 111.404 31.5358 120.9 32.8892 122.264M30.9538 103.96C31.3202 106.294 31.2978 108.593 31.5581 111.043C31.8107 113.422 32.7854 115.524 33.605 117.708M32.8892 122.264C31.924 126.639 30.0669 130.065 26.1272 127.947C24.5479 127.098 22.8977 126.928 21.7189 125.458C20.5044 123.943 19.6879 121.934 18.3388 120.586C16.5298 118.779 19.8201 121.758 21.016 122.335M32.8892 122.264C33.2134 120.794 33.437 119.218 33.605 117.708M32.1284 131.383C31.9406 132.536 31.7305 133.723 31.8181 134.856C31.9078 136.017 31.9764 139.17 32.1641 140.431M32.1284 131.383C31.4937 131.875 30.8616 132.533 30.6352 132.666C29.7477 133.188 28.0614 132.631 27.1217 132.509C25.1626 132.254 24.8563 132.277 23.8815 130.71C23.8505 130.66 23.8198 130.609 23.7893 130.556M32.1641 140.431C32.2944 141.306 32.482 141.27 32.774 139.023C32.9084 137.989 32.5154 138.911 32.1641 140.431ZM37.5847 144.045C37.9359 144.473 38.5266 144.772 39.4387 144.89C40.5988 145.041 41.0427 145.179 41.697 144.106C42.4101 142.936 42.4011 140.866 42.4903 139.265M38.6302 142.107C38.4953 142.08 38.3852 142.058 38.3106 142.049M40.0765 139.325C40.1624 139.141 40.2448 138.957 40.3231 138.776C40.4837 138.404 40.5129 137.792 41.0693 138.334C41.2452 138.506 41.3709 138.845 41.4688 139.219M40.0765 139.325C39.1896 139.392 38.6012 139.386 38.2017 139.157M40.0765 139.325C40.3066 139.308 40.5568 139.286 40.8291 139.261C41.0525 139.241 41.2658 139.226 41.4688 139.219M41.4688 139.219C41.6593 139.945 41.7449 140.798 41.8904 140.786M41.4688 139.219C41.6162 139.213 41.7582 139.211 41.8946 139.214M41.8904 140.786C41.9226 140.783 41.9577 140.739 41.9974 140.641C42.1767 140.2 42.314 139.735 42.4232 139.255M41.8904 140.786C41.9276 140.291 41.9193 139.741 41.8946 139.214M42.4232 139.255C42.4594 139.096 42.4925 138.935 42.523 138.773M42.4232 139.255C42.2576 139.231 42.0813 139.218 41.8946 139.214M42.4232 139.255C42.4458 139.258 42.4682 139.262 42.4903 139.265M42.523 138.773C42.7544 137.547 42.8368 136.255 42.9896 135.08L42.5725 138.29C42.5528 138.442 42.5367 138.603 42.523 138.773ZM42.523 138.773C42.5104 138.931 42.4998 139.095 42.4903 139.265M42.4903 139.265C43.4632 139.424 44.0533 139.979 44.2078 141.377C44.2396 141.666 44.9688 144.322 45.1332 143.474C45.9091 139.475 45.3443 136.248 43.9781 132.543C43.7454 131.912 42.2112 128.805 41.7942 128.449M41.2293 131.471C41.2925 131.235 41.3519 130.998 41.407 130.76M41.2293 131.471C41.3705 128.478 40.9319 125.549 40.7261 122.537C40.5008 119.237 41.5261 123.106 41.6975 124.28C41.8359 125.228 41.8916 126.138 41.8778 127.02M41.2293 131.471C41.2052 131.981 41.1643 132.493 41.1026 133.008C41.0975 133.05 41.0924 133.092 41.0873 133.135M41.407 130.76C41.4697 130.49 41.5268 130.218 41.5781 129.944M41.407 130.76C41.3009 131.55 41.1928 132.341 41.0873 133.135M41.407 130.76C41.4815 130.206 41.555 129.653 41.6258 129.101M41.5781 129.944C41.6701 129.453 41.7431 128.955 41.7942 128.449M41.5781 129.944C41.5878 129.658 41.6032 129.377 41.6258 129.101M41.7942 128.449C41.8416 127.98 41.8702 127.504 41.8778 127.02M41.7942 128.449C41.7573 128.418 41.7292 128.408 41.7115 128.423M41.8778 127.02C41.8254 127.487 41.7696 127.955 41.7115 128.423M41.8778 127.02C42.0521 125.466 42.1898 123.915 42.2552 122.36M41.6258 129.101C41.6548 128.875 41.6834 128.649 41.7115 128.423M41.6258 129.101C41.6434 128.888 41.6652 128.678 41.6919 128.472C41.6951 128.448 41.7017 128.432 41.7115 128.423M42.2552 122.36C42.5088 122.995 42.7272 123.646 42.887 124.325M23.7893 130.556C23.1553 129.454 22.6052 127.738 21.0325 127.974C19.9602 128.135 19.1214 128.254 18.3525 128.05M23.7893 130.556C24.7317 130.647 25.2579 130.479 24.0755 129.447C23.3331 128.8 26.0509 129.646 27.0294 129.532C30.1629 129.167 27.3698 129.307 25.768 129.098C23.8544 128.85 22.1576 128.03 20.3658 127.492M23.7893 130.556C22.981 130.478 21.8664 130.209 21.2615 130.13C19.9352 129.958 19.0209 129.169 18.3525 128.05M18.3525 128.05C17.6646 127.867 17.0326 127.426 16.3392 126.526C13.3464 122.639 8.64353 117.299 9.31053 112.166C9.46762 110.957 9.16108 108.689 9.98726 110.3M18.3525 128.05C17.6735 126.913 17.2484 125.436 16.903 123.919M9.98726 110.3C10.0137 110.352 10.0414 110.408 10.0703 110.467C10.8582 112.099 11.3772 113.898 12.234 115.48C12.3028 115.608 12.3739 115.734 12.4469 115.859M9.98726 110.3C9.87203 111.757 9.97693 113.196 10.6636 114.198C11.1131 114.854 11.6602 116.377 12.4469 115.859M9.98726 110.3C10.0906 108.994 10.3711 107.672 10.5677 106.639C10.6684 106.11 12.0256 105.293 12.5594 105.661M12.4469 115.859C13.4572 117.591 14.8337 119.143 15.7219 120.905C16.2605 121.973 16.4514 122.953 16.903 123.919M12.4469 115.859C12.5485 115.792 12.6542 115.691 12.7641 115.549C14.0355 113.914 14.4954 116.551 15.0902 117.469C15.9874 118.852 16.3387 121.439 16.903 123.919M16.903 123.919C17.078 124.293 17.292 124.665 17.5805 125.04C18.3768 126.074 19.6617 126.666 20.3658 127.492M20.3658 127.492C20.3957 127.528 20.4246 127.563 20.4523 127.599C20.8725 128.145 18.2563 127.044 18.4841 127.074C19.1307 127.158 19.7538 127.309 20.3658 127.492ZM12.5594 105.661C12.621 105.704 12.6717 105.762 12.7082 105.839C12.9757 106.4 13.1981 106.976 13.4031 107.558M12.5594 105.661C11.9361 106.591 11.5101 107.684 11.3524 108.897C10.8461 112.794 12.2804 108.762 13.4031 107.558M12.5594 105.661C14.1025 103.361 16.8549 102.065 19.7384 102.44C23.3244 102.906 23.4184 107.98 24.0446 110.786C24.3128 111.988 24.94 113.098 25.4573 114.204C25.754 114.838 25.2668 114.583 24.6775 113.975M13.4031 107.558C13.7528 108.552 14.0515 109.56 14.4361 110.532M13.4031 107.558C13.7712 107.164 14.1058 107.073 14.3275 107.666C14.5434 108.244 14.7762 108.809 15.021 109.368M14.4361 110.532C14.5497 110.819 14.6709 111.103 14.803 111.382C15.489 112.831 16.4129 114.095 17.0993 115.531M14.4361 110.532C14.5616 110.181 14.7668 109.781 15.021 109.368M14.4361 110.532C14.3732 110.707 14.3303 110.871 14.3112 111.018C14.056 112.982 15.1118 113.863 16.5974 115.089C16.7606 115.224 16.9285 115.372 17.0993 115.531M17.0993 115.531C17.2438 115.833 17.3778 116.143 17.4969 116.464C17.7885 117.25 18.0377 117.189 18.2442 116.72M17.0993 115.531C17.4731 115.879 17.8608 116.282 18.2442 116.72M18.2442 116.72C18.2861 116.626 18.3262 116.514 18.3646 116.389M18.2442 116.72C18.464 116.972 18.6824 117.236 18.8959 117.508M18.3646 116.389C18.7431 115.158 18.9502 112.654 18.9827 112.404C19.5823 107.79 19.6907 111.619 20.4123 113.848C21.0861 115.928 21.7107 118.677 21.8812 121.11M18.3646 116.389C18.5346 116.751 18.7117 117.126 18.8959 117.508M18.3646 116.389C18.1001 115.825 17.8527 115.291 17.6228 114.803C16.7374 112.923 15.8158 111.18 15.021 109.368M21.8812 121.11C21.9244 121.727 21.9384 122.323 21.9167 122.884M21.8812 121.11C21.8759 121.108 21.8706 121.106 21.8653 121.104C21.6343 121.016 21.2523 120.851 20.907 120.735M21.8812 121.11C24.1482 121.98 26.1565 123.508 28.2946 124.635C29.6902 125.371 25.3175 121.886 24.6528 121.317C24.0281 120.782 28.9182 121.887 29.358 123.366C30.0517 125.699 25.068 124.794 23.1543 124.464M21.9167 122.884C21.9141 122.952 21.9109 123.019 21.9072 123.086C21.8855 123.479 21.4494 122.978 21.016 122.335M21.9167 122.884C22.3125 123.451 22.7252 123.984 23.1543 124.464M21.9167 122.884C21.7346 122.623 21.5561 122.354 21.3811 122.081M21.016 122.335C20.6382 121.774 20.2624 121.104 20.1648 120.823C20.0911 120.611 20.2526 120.577 20.5086 120.625M21.016 122.335C21.2993 122.471 21.465 122.473 21.4177 122.244C21.4065 122.19 21.3943 122.135 21.3811 122.081M20.5086 120.625C20.626 120.647 20.7633 120.687 20.907 120.735M20.5086 120.625C20.7886 121.12 21.0795 121.609 21.3811 122.081M20.5086 120.625C19.9228 119.589 19.3847 118.522 18.8959 117.508M20.907 120.735C20.4232 119.659 19.6933 118.524 18.8959 117.508M20.907 120.735C21.1155 121.199 21.2783 121.652 21.3811 122.081M23.1543 124.464C22.9217 124.423 22.7344 124.392 22.6082 124.375C21.4389 124.223 22.3847 124.663 23.9537 125.275M23.1543 124.464C23.4147 124.755 23.6812 125.027 23.9537 125.275M23.9537 125.275C25.7195 125.964 28.2747 126.87 29.4931 127.396C30.8324 127.974 26.5386 126.968 25.2698 126.248C24.8167 125.991 24.378 125.662 23.9537 125.275ZM15.021 109.368C16.3194 107.254 18.898 104.759 18.6917 106.347C18.4702 108.051 20.3941 109.506 20.9924 111.228C22.4312 115.368 23.5447 117.178 26.5407 118.15M24.6775 113.975C24.195 113.476 23.6439 112.741 23.3989 112.064M24.6775 113.975C24.5355 113.735 24.3886 113.489 24.2353 113.236C24.0389 112.913 23.6492 112.051 23.2802 111.26M24.6775 113.975C25.5624 115.469 26.2554 116.722 27.1006 117.823M23.3989 112.064C23.3257 111.861 23.2798 111.663 23.2713 111.479M23.3989 112.064C23.3596 111.871 23.317 111.675 23.2713 111.479M23.3989 112.064C23.519 112.651 23.609 113.213 23.6657 113.701C23.9012 115.726 22.712 111.239 22.5105 110.377C22.2082 109.083 22.6311 109.884 23.149 110.981M23.2713 111.479C23.2678 111.404 23.2705 111.331 23.2802 111.26M23.2713 111.479C23.2327 111.313 23.1919 111.147 23.149 110.981M23.2802 111.26C23.3052 111.077 23.3768 110.913 23.5068 110.776C23.3063 110.37 22.6298 109.122 22.2575 108.433M23.2802 111.26C23.236 111.166 23.1922 111.072 23.149 110.981M22.2575 108.433C22.0845 108.113 21.9771 107.914 22.0138 107.976C22.0976 108.119 22.1789 108.272 22.2575 108.433ZM22.2575 108.433C22.6123 109.162 22.9132 110.068 23.149 110.981M27.1006 117.823C27.2637 118.036 27.4324 118.243 27.6093 118.445M27.1006 117.823C26.2748 117.627 25.7231 117.565 26.121 117.854C26.241 117.941 26.3827 118.041 26.5407 118.15M27.1006 117.823C28.6348 118.188 31.1149 119.012 30.2085 118.894C29.2238 118.766 28.3652 118.622 27.6093 118.445M27.6093 118.445C28.0339 118.929 28.5054 119.386 29.058 119.822M27.6093 118.445C27.228 118.355 26.8728 118.258 26.5407 118.15M29.058 119.822C29.4775 120.153 29.9439 120.473 30.4719 120.785C31.2984 121.274 30.3318 120.652 29.058 119.822ZM29.058 119.822C28.2087 119.268 27.2229 118.622 26.5407 118.15M42.887 124.325C42.8972 124.368 42.9071 124.411 42.9167 124.454M42.887 124.325C43.0741 124.043 43.4514 123.558 43.6177 123.332C43.98 122.84 44.3473 122.351 44.7179 121.866M42.887 124.325C42.767 124.505 42.7253 124.602 42.8679 124.492C42.8842 124.48 42.9004 124.467 42.9167 124.454M42.9167 124.454C42.9201 124.469 42.9235 124.485 42.9268 124.5C43.1131 125.351 44.5156 129.073 44.9189 130.162M42.9167 124.454C43.1349 124.282 43.3542 124.081 43.5729 123.861M44.9189 130.162C44.989 130.352 45.0289 130.461 45.027 130.463C44.5975 130.794 44.623 130.621 44.9189 130.162ZM44.9189 130.162C45.5531 129.181 47.4295 126.89 48.7319 125.444M48.7319 125.444C49.704 124.364 50.3562 123.755 49.9331 124.512C49.8286 124.699 49.7341 124.866 49.6497 125.016M48.7319 125.444C49.0434 125.281 49.3817 125.11 49.6497 125.016M48.7319 125.444C48.5857 125.52 48.4455 125.595 48.3211 125.659M49.6497 125.016C49.3198 125.6 49.1457 125.905 49.1373 125.986M49.6497 125.016C49.9706 124.903 50.1907 124.898 50.144 125.146M49.1373 125.986C49.1287 126.069 49.2899 125.925 49.6312 125.612M49.1373 125.986C49.3033 125.861 49.4692 125.735 49.6312 125.612M49.1373 125.986C47.2373 127.424 45.3192 128.88 49.1251 127.042C49.1689 127.021 49.2124 126.999 49.2555 126.977M49.6312 125.612C49.7715 125.484 49.9422 125.327 50.144 125.146M49.6312 125.612C49.7991 125.484 49.9628 125.359 50.118 125.239M50.144 125.146C50.4837 124.842 50.9115 124.469 51.4309 124.048C55.9095 120.416 53.0855 122.764 50.809 124.685C50.6166 124.848 50.3794 125.036 50.118 125.239M50.144 125.146C50.1388 125.174 50.1302 125.205 50.118 125.239M50.118 125.239C50.0737 125.364 49.9819 125.533 49.8313 125.756C49.6847 125.974 49.4719 126.427 49.2555 126.977M49.2555 126.977C50.2205 126.483 51.0193 125.759 51.8027 125.03M49.2555 126.977C48.4821 128.945 47.6624 132.162 49.6543 130.345C52.5307 127.723 55.4337 124.912 57.5871 121.656M51.8027 125.03C52.7471 124.15 53.6693 123.26 54.8336 122.753C55.8769 122.298 58.4785 120.591 57.3497 120.444C57.146 120.418 49.1561 125.246 51.8027 125.03ZM51.8027 125.03C51.9871 125.014 52.2232 124.975 52.5171 124.907C54.1576 124.531 56.1487 123.166 57.5871 121.656M57.5871 121.656C58.2559 120.953 58.8052 120.22 59.1444 119.539C59.2865 119.254 59.4192 118.965 59.5433 118.673M57.5871 121.656C58.2764 120.613 58.8889 119.525 59.3991 118.383M59.5433 118.673C60.6948 115.962 61.1001 112.97 61.4206 109.99M59.5433 118.673C59.8632 119.211 60.4265 119.586 61.398 119.712C63.1832 119.944 63.002 113.821 63.1563 112.634C63.5651 109.487 64.8687 100.135 63.8508 103.14C62.7621 106.354 62.1191 109.81 61.4741 113.134C61.2551 114.262 61.3219 111.759 61.4206 109.99M59.5433 118.673C59.4883 118.581 59.4406 118.484 59.3991 118.383M61.4206 109.99C61.4952 109.296 61.5653 108.602 61.6391 107.913M61.4206 109.99C61.4404 109.635 61.4615 109.309 61.4819 109.048M61.6391 107.913C61.708 107.269 61.7802 106.63 61.8624 105.997L61.6979 107.263C61.653 107.609 61.6105 107.956 61.5691 108.304M61.6391 107.913C62.4318 103.78 64.7926 100.04 65.3452 95.7876C65.5268 94.3907 63.5862 97.9992 62.8642 99.2088C61.4267 101.617 59.952 104.005 58.4913 106.4M61.6391 107.913C61.6142 108.043 61.5908 108.173 61.5691 108.304M61.5691 108.304C61.5396 108.552 61.5107 108.8 61.4819 109.048M61.5691 108.304C61.5566 108.379 61.5447 108.454 61.5333 108.529C61.5178 108.632 61.5001 108.814 61.4819 109.048M61.4819 109.048C61.2207 111.299 60.9656 113.571 60.3563 115.744C60.1007 116.656 59.7781 117.534 59.3991 118.383M59.3991 118.383C58.9115 117.188 59.3031 115.391 59.2132 113.708C59.0805 111.222 58.8265 108.799 58.4913 106.4M48.3211 125.659C48.1921 125.726 48.0803 125.782 47.9965 125.817C47.1001 126.195 45.5856 128.872 46.1731 128.096C46.8236 127.237 47.5566 126.438 48.3211 125.659ZM48.3211 125.659C50.0731 123.875 51.9906 122.201 53.461 120.178C54.2376 119.11 51.6406 122.095 50.6699 122.99C50.2295 123.397 44.7149 128.118 44.6569 127.779C44.385 126.188 47.1568 122.856 47.8626 121.547C48.7339 119.932 49.4676 118.229 50.294 116.584M50.294 116.584C50.4459 116.282 50.601 115.981 50.7607 115.684M50.294 116.584C50.8061 116.493 51.2794 116.255 51.6625 115.812C52.5891 114.74 53.2655 113.744 53.747 112.781M50.294 116.584C50.2106 116.599 50.1261 116.61 50.0408 116.618M50.7607 115.684C50.9203 115.386 51.0846 115.092 51.2549 114.801C52.3254 112.971 51.3569 114.87 50.7607 115.684ZM50.7607 115.684C50.7443 115.706 50.7282 115.728 50.7124 115.748C50.49 116.039 50.2661 116.329 50.0408 116.618M50.0408 116.618C48.2506 118.911 46.3707 121.131 44.3769 123.251C43.775 123.891 43.5375 124.053 43.5729 123.861M50.0408 116.618C49.808 116.638 49.5691 116.631 49.3287 116.602M43.5729 123.861C43.6153 123.632 44.0495 122.895 44.7179 121.866M43.5729 123.861C44.5854 122.843 45.5832 121.415 46.3794 120.516C47.1067 119.695 48.1625 118.144 49.3287 116.602M44.7179 121.866C45.6532 120.425 47.0472 118.412 48.4673 116.415M44.7179 121.866C46.0883 120.071 47.5041 118.313 48.8819 116.526M48.4673 116.415C50.1135 114.1 51.7949 111.807 52.8379 110.454C55.7358 106.695 52.3882 111.689 51.7109 112.674C50.8063 113.989 49.8536 115.265 48.8819 116.526M48.4673 116.415C48.6045 116.458 48.743 116.495 48.8819 116.526M48.4673 116.415C47.7787 116.203 47.1229 115.86 46.6099 115.515C45.9553 115.074 44.6278 113.613 43.3541 112.437M48.8819 116.526C49.0307 116.559 49.18 116.585 49.3287 116.602M49.3287 116.602C50.7865 114.676 52.4168 112.765 53.7939 112.315C53.8801 112.287 53.8517 112.466 53.747 112.781M53.747 112.781C53.0067 115.006 48.4496 124.028 53.5237 114.856C54.1631 113.7 54.8189 112.554 55.4857 111.414M53.747 112.781C55.4247 109.424 54.7357 106.464 54.0168 102.072C53.9621 101.738 53.9015 101.413 53.8355 101.095M55.4857 111.414C55.6178 111.188 55.7504 110.962 55.8833 110.737M55.4857 111.414C55.5206 110.503 55.5791 109.607 55.6564 108.71M55.4857 111.414C55.4551 112.21 55.4426 113.018 55.4515 113.849C55.5064 118.97 55.929 119.342 56.4555 114.189C56.623 112.549 56.7127 110.924 56.7345 109.305M55.8833 110.737C56.1023 110.365 56.3223 109.995 56.5432 109.625M55.8833 110.737C55.8785 109.911 55.8869 109.085 55.9005 108.259M55.8833 110.737C55.8883 111.576 55.907 112.415 55.948 113.254C56.0369 115.071 56.2483 111.865 56.261 111.768C56.3538 111.053 56.4485 110.339 56.5432 109.625M56.5432 109.625C56.6069 109.518 56.6707 109.411 56.7345 109.305M56.5432 109.625C56.6086 109.132 56.6739 108.639 56.7386 108.146M56.7345 109.305C57.3156 108.334 57.9023 107.366 58.4913 106.4M56.7345 109.305C56.7397 108.918 56.741 108.532 56.7386 108.146M58.4913 106.4C58.2299 104.531 57.9192 102.676 57.5781 100.818M57.5781 100.818C57.3542 99.5981 57.1171 98.3772 56.8723 97.15M57.5781 100.818C57.4626 102.137 57.3208 103.455 57.1643 104.772M57.5781 100.818C57.8414 97.8064 57.967 94.7867 57.8133 91.7542C57.6801 89.1266 57.2863 92.8527 56.8723 97.15M56.8723 97.15C56.6523 96.0465 56.4259 94.9379 56.1972 93.8203C56.1405 93.5434 55.5242 91.2922 55.5975 92.9038C55.6459 93.9678 55.7009 95.0302 55.7536 96.0922M56.8723 97.15C56.7689 98.224 56.6642 99.3338 56.5619 100.389M55.7536 96.0922C55.785 96.7226 55.8156 97.3528 55.8436 97.9832M55.7536 96.0922C55.8441 96.9135 55.8987 97.7148 55.9719 98.3891M55.7536 96.0922C55.5868 94.5782 55.2978 92.9965 54.5446 92.0183C54.4725 91.9248 54.381 92.1865 54.2804 92.6753M55.8436 97.9832C55.8438 97.9876 55.844 97.9921 55.8441 97.9966M55.8436 97.9832C55.8864 98.1181 55.9292 98.2534 55.9719 98.3891M55.8436 97.9832C55.8379 97.9655 55.8323 97.9477 55.8267 97.93M55.8441 97.9966C55.9231 99.7767 55.9813 101.558 55.9777 103.345C55.9767 103.885 55.9708 104.425 55.9625 104.964M55.8441 97.9966C55.8384 97.9744 55.8325 97.9522 55.8267 97.93M55.8441 97.9966C55.8978 98.2018 55.9489 98.4073 55.9975 98.6127M55.9625 104.964C55.9575 105.292 55.9516 105.619 55.9452 105.946M55.9625 104.964C55.7157 104.541 55.5162 104.017 55.3526 103.445M55.9625 104.964C55.9908 105.013 56.0197 105.06 56.0492 105.105M55.9452 105.946C55.9303 106.717 55.9132 107.488 55.9005 108.259M55.9452 105.946C55.9787 105.668 56.0134 105.388 56.0492 105.105M55.9452 105.946C55.833 106.881 55.735 107.796 55.6564 108.71M55.9005 108.259C56.0641 107.909 56.2098 107.504 56.2869 107.189C56.4034 106.713 56.491 106.208 56.5508 105.681M55.9005 108.259C55.8214 108.428 55.7381 108.583 55.6564 108.71M56.7386 108.146C56.8599 107.223 56.9789 106.299 57.0917 105.375M56.7386 108.146C56.7337 107.355 56.713 106.564 56.6777 105.774M57.0917 105.375C57.1162 105.174 57.1404 104.973 57.1643 104.772M57.0917 105.375C57.0271 105.697 56.9183 105.918 56.7357 105.81C56.7162 105.798 56.6969 105.786 56.6777 105.774M57.0917 105.375C57.1283 105.192 57.1507 104.978 57.1643 104.772M57.1643 104.772C57.1912 104.365 57.1835 103.993 57.1829 103.981C57.1295 102.806 56.8845 101.595 56.5619 100.389M56.5619 100.389C56.5335 100.682 56.5053 100.971 56.4774 101.254M56.5619 100.389C56.3827 99.7185 56.1795 99.0496 55.9719 98.3891M56.4774 101.254C56.4525 101.506 56.4277 101.754 56.4033 101.995M56.4774 101.254C56.3678 100.385 56.2068 99.499 55.9975 98.6127M56.4774 101.254C56.6314 102.475 56.6836 103.663 56.6254 104.773M56.4033 101.995C56.2982 103.033 56.1981 103.954 56.1077 104.65C56.0879 104.802 56.0684 104.954 56.0492 105.105M56.4033 101.995C56.4954 102.922 56.57 103.848 56.6254 104.773M56.4033 101.995C56.2989 100.943 56.172 99.8885 56.0255 98.8293C56.0158 98.759 56.0064 98.6868 55.9975 98.6127M56.0492 105.105C56.1992 105.337 56.3656 105.533 56.5508 105.681M55.6564 108.71C55.3725 109.148 55.1068 109.232 55.0976 108.273M56.6777 105.774C56.6629 105.44 56.6454 105.106 56.6254 104.773M56.6777 105.774C56.6345 105.745 56.5922 105.714 56.5508 105.681M56.6254 104.773C56.6092 105.082 56.5844 105.385 56.5508 105.681M55.9975 98.6127C55.9886 98.5399 55.9801 98.4653 55.9719 98.3891M54.2804 92.6753C54.2494 92.8263 54.2175 92.9989 54.185 93.1894M54.2804 92.6753C54.3091 92.8483 54.3363 93.0208 54.3621 93.1925C54.401 93.4515 54.4397 93.7126 54.478 93.9755M54.2804 92.6753C54.1059 91.6206 53.8776 90.5441 53.5849 89.4755M54.185 93.1894C54.1757 93.2442 54.1663 93.3005 54.1568 93.3582M54.185 93.1894C54.2846 93.4637 54.3836 93.728 54.478 93.9755M54.185 93.1894C54.0716 92.8771 53.9575 92.5517 53.8486 92.2228M54.1568 93.3582C54.1222 93.5704 54.087 93.8015 54.0516 94.0469M54.1568 93.3582C54.0822 93.202 54.006 93.0469 53.9284 92.8932M54.1568 93.3582C54.2737 93.6028 54.3868 93.8502 54.4961 94.1002M54.0516 94.0469C54.0507 94.0536 54.0497 94.0602 54.0488 94.0669M54.0516 94.0469C54.0063 93.6133 53.964 93.2152 53.9284 92.8932M54.0516 94.0469C54.0532 94.0614 54.0547 94.076 54.0562 94.0906M54.0488 94.0669C54.0202 94.2661 53.9915 94.4745 53.9629 94.6899M54.0488 94.0669C54.0025 93.9203 53.9562 93.7744 53.9095 93.6292M54.0488 94.0669C54.0512 94.0748 54.0537 94.0827 54.0562 94.0906M53.9629 94.6899C53.9121 95.0726 53.8617 95.4772 53.8126 95.8905M53.9629 94.6899C53.996 95.4766 54.0135 96.2513 54.0133 97.0226M53.9629 94.6899C53.9481 94.339 53.9303 93.9857 53.9095 93.6292M53.8126 95.8905C53.6654 97.1313 53.5309 98.45 53.4387 99.4868M53.8126 95.8905C53.8799 96.2677 53.947 96.6451 54.0133 97.0226M53.8126 95.8905C53.7005 95.262 53.5879 94.6339 53.4777 94.006C53.2697 92.8206 53.02 91.7579 52.7131 90.7882M53.4387 99.4868C53.3639 100.328 53.3169 100.984 53.3135 101.262C53.307 101.799 53.3461 105.16 53.6293 102.98C53.7123 102.342 53.7806 101.715 53.8355 101.095M53.4387 99.4868C52.6048 96.5681 51.3104 94.22 49.9988 91.2779C49.2563 89.6121 48.378 87.7466 47.4095 86.0652M53.4387 99.4868C53.5862 100.003 53.7193 100.537 53.8355 101.095M53.8355 101.095C53.9575 99.7171 54.0128 98.375 54.0133 97.0226M54.0133 97.0226C54.5523 100.095 55.0347 103.18 55.1054 106.299M53.9095 93.6292C53.8952 93.3837 53.8795 93.1368 53.8626 92.888C53.8591 92.8378 53.8559 92.7903 53.8529 92.7452M53.9095 93.6292C53.6809 92.9178 53.4455 92.2232 53.1875 91.5442M53.8529 92.7452C53.8308 92.4105 53.8208 92.2172 53.8208 92.1384M53.8529 92.7452C53.6417 92.3345 53.4198 91.9335 53.1875 91.5442M53.8529 92.7452C53.8782 92.7944 53.9034 92.8437 53.9284 92.8932M53.8208 92.1384C53.8207 92.0584 53.8308 92.096 53.8486 92.2228M53.8208 92.1384C53.83 92.1665 53.8393 92.1947 53.8486 92.2228M53.8208 92.1384C53.44 90.9768 53.1305 89.7826 53.1534 88.9792M53.8486 92.2228C53.8674 92.3572 53.895 92.5918 53.9284 92.8932M54.0562 94.0906C54.2267 95.7202 54.4391 97.8252 54.5105 98.273C54.6422 99.099 54.7689 100.77 55.0888 102.347M54.0562 94.0906C54.1009 94.2323 54.1454 94.3747 54.1899 94.5178C54.9236 96.8774 54.9939 99.8019 55.0888 102.347M55.0888 102.347C55.1649 102.723 55.2519 103.093 55.3526 103.445M55.0888 102.347C55.1043 102.765 55.1206 103.173 55.1405 103.566C55.1717 104.182 55.1409 105.289 55.1054 106.299M55.3526 103.445C55.3747 105.07 55.3061 106.671 55.1069 108.203C55.1037 108.228 55.1005 108.252 55.0976 108.273M55.3526 103.445C55.31 100.311 54.9297 97.0899 54.4961 94.1002M55.8267 97.93C55.585 97.1699 55.3436 96.4233 55.1328 95.701M55.8267 97.93C55.6288 97.181 55.3968 96.4347 55.1328 95.701M55.1328 95.701C55.1285 95.6863 55.1242 95.6716 55.12 95.6569C55.0595 95.4487 54.7947 94.8058 54.478 93.9755M55.1328 95.701C54.9378 95.1592 54.7254 94.6242 54.4961 94.1002M54.478 93.9755C54.4841 94.017 54.4901 94.0586 54.4961 94.1002M53.1534 88.9792C53.16 88.7463 53.1946 88.5463 53.2635 88.3894M53.1534 88.9792C53.3245 89.1815 53.473 89.3532 53.5849 89.4755M53.1534 88.9792C52.2949 87.9638 50.868 86.1756 50.6582 85.9729C50.4643 85.7856 50.1788 85.5282 49.845 85.236M53.2635 88.3894C53.324 88.2516 53.4109 88.1471 53.5286 88.0829C53.5425 88.0753 53.5568 88.0681 53.5713 88.0614M53.2635 88.3894C53.3783 88.7498 53.4853 89.1122 53.5849 89.4755M53.2635 88.3894C52.6635 86.5072 51.8485 84.6816 50.7582 83.0787M53.5713 88.0614C54.4401 87.6606 56.4087 88.8347 58.4061 90.3149M53.5713 88.0614C53.1788 87.4774 52.7007 86.8437 52.5572 86.3395C51.9709 84.2789 51.2966 79.8574 54.0996 82.7664C55.9164 84.652 57.3041 87.6046 58.4061 90.3149M53.5713 88.0614C54.0674 88.7995 54.4266 89.4581 53.8008 89.6756C53.7832 89.6817 53.7053 89.6072 53.5849 89.4755M58.4061 90.3149C58.6752 90.5143 58.9448 90.7193 59.2123 90.9268M58.4061 90.3149C58.7775 91.2283 59.1164 92.1142 59.4284 92.9224C59.5108 93.1357 59.8045 94.1851 60.1012 95.2736M59.2123 90.9268C59.4827 91.1364 59.7509 91.3485 60.0143 91.5599M59.2123 90.9268C59.1634 90.4094 59.2193 90.075 59.5231 90.1638M59.2123 90.9268C59.2406 91.2248 59.3036 91.5835 59.3742 91.9571C59.5809 93.0513 59.8294 94.1691 60.1012 95.2736M60.0143 91.5599C61.0336 92.3782 61.9804 93.1861 62.6981 93.798M60.0143 91.5599C59.868 91.0837 59.708 90.6105 59.5231 90.1638M60.0143 91.5599C60.2736 92.4039 60.4902 93.2575 60.7273 93.9897C61.1746 95.371 61.8477 101.961 62.4268 97.5048C62.6027 96.1509 62.702 94.931 62.6981 93.798M62.6981 93.798C63.1564 94.1887 63.5213 94.4996 63.7519 94.6822C64.4811 95.2594 63.705 94.3877 62.6895 93.3006M62.6981 93.798C62.6975 93.6304 62.6947 93.4646 62.6895 93.3006M62.6895 93.3006C61.9052 92.4609 60.9781 91.4926 60.4915 90.9642C60.0329 90.4662 59.7239 90.2226 59.5231 90.1638M62.6895 93.3006C62.5845 89.975 61.515 87.369 58.7635 84.211C56.606 81.7347 54.4625 80.3016 51.3169 79.2903C50.2192 78.9373 49.1045 78.6787 47.9787 78.485M59.5231 90.1638C59.2928 89.6075 59.0237 89.0925 58.694 88.6642C57.1272 86.6295 55.8084 83.3972 53.6281 82.0164C53.2879 81.8009 52.3345 81.371 51.0388 80.863M60.1012 95.2736C60.2878 96.0321 60.4854 96.7843 60.688 97.5184C61.0618 98.8726 60.5778 97.0225 60.1012 95.2736ZM49.845 85.236C48.1568 83.7582 45.232 81.3903 46.6547 82.6917M49.845 85.236C49.4993 84.4704 49.1681 83.6961 48.676 83.02C47.9869 82.0732 46.7652 81.2804 48.3861 82.024C49.2247 82.4088 50.1435 82.9639 50.7582 83.0787M49.845 85.236C49.9692 85.511 50.0952 85.785 50.2313 86.0529M46.6547 82.6917C46.9356 82.9486 47.3861 83.3487 48.049 83.9269C48.8699 84.6428 47.2522 83.8274 45.7216 82.989M46.6547 82.6917C48.1184 83.8002 49.2887 84.8782 50.2313 86.0529M46.6547 82.6917C46.5464 82.6096 46.4365 82.5274 46.3249 82.445C45.5052 81.8394 45.5062 82.3389 45.7216 82.989M45.7216 82.989C44.7634 82.4642 43.8393 81.9303 43.5692 81.7575C42.0053 80.7572 44.7226 83.1912 44.9131 83.3996C45.4499 83.9866 46.0202 84.58 46.5912 85.1854M45.7216 82.989C45.9085 83.5529 46.2567 84.2301 46.3707 84.3976C46.6284 84.7764 46.8815 85.1753 47.1291 85.5881M46.5912 85.1854C46.8479 85.4576 47.1048 85.7322 47.3588 86.0098M46.5912 85.1854C46.7712 85.3183 46.9506 85.4525 47.1291 85.5881M46.5912 85.1854C44.9358 83.9634 43.2286 82.8572 41.6973 81.8737C41.6793 81.8621 41.3214 81.6925 40.798 81.4398M47.3588 86.0098C47.3757 86.0282 47.3926 86.0467 47.4095 86.0652M47.3588 86.0098C47.367 86.0132 47.3752 86.0167 47.3835 86.0202M47.4095 86.0652C48.3744 87.1228 49.2946 88.2226 50.0043 89.3919C50.5536 90.2968 53.2843 91.9636 52.6888 91.0884C51.5234 89.3754 49.8912 87.794 48.1072 86.3536M47.4095 86.0652C47.4008 86.0502 47.3921 86.0352 47.3835 86.0202M48.1072 86.3536C47.7855 86.0938 47.4589 85.8387 47.1291 85.5881M48.1072 86.3536C47.9725 86.2843 47.8365 86.2188 47.6993 86.1575C47.5945 86.1106 47.4892 86.0648 47.3835 86.0202M48.1072 86.3536C49.8764 87.2636 51.4316 88.8454 52.7131 90.7882M47.1291 85.5881C47.2146 85.7306 47.2994 85.8747 47.3835 86.0202M40.798 81.4398C39.9779 81.0437 38.7516 80.4436 37.7903 79.9277M40.798 81.4398C39.8449 80.7347 38.8893 80.0341 37.8821 79.4319M37.7903 79.9277C37.8199 79.7639 37.8507 79.5985 37.8821 79.4319M37.2583 79.6349C37.1828 79.592 37.1105 79.5503 37.0421 79.51M37.2583 79.6349C37.1959 80.1215 37.1142 80.7492 37.0199 81.4395M37.2583 79.6349C37.267 79.5674 37.2753 79.5027 37.2832 79.4409M37.0421 79.51C36.599 79.249 36.3147 79.0459 36.3259 78.9595C36.3404 78.8484 36.3679 78.7456 36.4077 78.6509M37.0421 79.51C36.5343 79.6584 36.0398 79.8216 35.562 79.9983C35.418 80.0516 35.2348 80.1146 35.0281 80.1851M37.0421 79.51C37.1221 79.4866 37.2025 79.4635 37.2832 79.4409M36.4077 78.6509C36.7194 78.7934 37.0248 78.948 37.325 79.1125M37.4908 77.8597C37.6965 77.8053 37.9256 77.7673 38.1749 77.7443M37.4908 77.8597C37.4957 77.824 37.5007 77.7878 37.5058 77.7513M38.1749 77.7443C38.1801 77.7438 38.1854 77.7433 38.1906 77.7429M38.1749 77.7443C38.18 77.7442 38.1852 77.7441 38.1904 77.744M38.1749 77.7443C37.9481 77.7485 37.7248 77.7512 37.5058 77.7513M38.1906 77.7429C38.2315 77.7392 38.2729 77.7359 38.3149 77.733M38.1906 77.7429C38.1915 77.7373 38.1924 77.7318 38.1933 77.7263M38.1906 77.7429C38.1905 77.7432 38.1905 77.7436 38.1904 77.744M38.3149 77.733C38.5648 77.7159 38.8335 77.7126 39.118 77.7218M38.3149 77.733C38.3522 77.7351 38.3896 77.7371 38.4269 77.7391M38.3149 77.733C38.2743 77.7308 38.2338 77.7286 38.1933 77.7263M39.118 77.7218C39.5263 77.735 39.9673 77.7738 40.4328 77.8342M39.118 77.7218C40.7963 77.6782 42.5784 77.6396 44.0966 78.032M39.118 77.7218C38.8853 77.7278 38.6546 77.734 38.4269 77.7391M40.4328 77.8342C41.4758 77.9694 42.642 78.2127 43.8389 78.5175M40.4328 77.8342C41.6535 77.8883 42.8773 77.9423 44.0966 78.032M40.4328 77.8342C39.7629 77.8045 39.0938 77.7748 38.4269 77.7391M43.8389 78.5175C44.9744 78.8066 46.1376 79.1512 47.2495 79.5113M43.8389 78.5175C41.8204 78.528 39.7922 78.8 37.9121 79.2735M43.8389 78.5175C44.4211 78.5144 45.0026 78.5332 45.5794 78.5751M47.2495 79.5113C48.6455 79.9635 49.9607 80.4402 51.0388 80.863M47.2495 79.5113C48.6538 80.4593 49.8101 81.6848 50.7582 83.0787M47.2495 79.5113C46.7278 79.1591 46.1717 78.8451 45.5794 78.5751M51.0388 80.863C50.6793 80.2018 50.1364 79.7603 49.4855 79.354M51.0388 80.863C51.1967 81.1533 51.3193 81.486 51.4001 81.8766C51.6179 82.9291 51.3109 83.1819 50.7582 83.0787M47.9787 78.485C47.25 78.3596 46.5167 78.2614 45.7805 78.1824M47.9787 78.485C46.7025 77.741 44.5183 76.5121 42.3937 75.3842M47.9787 78.485C47.9877 78.4902 47.9966 78.4954 48.0054 78.5006C48.4255 78.7457 48.8286 78.9628 49.2024 79.1828M45.7805 78.1824C45.2207 78.1223 44.6591 78.0734 44.0966 78.032M45.7805 78.1824C46.5613 78.4389 47.3351 78.6857 48.04 78.9067M45.7805 78.1824C42.7958 77.202 39.709 76.0801 39.9811 75.7209C40.1696 75.4721 41.3006 75.3911 42.3937 75.3842M44.0966 78.032C44.309 78.0869 44.5162 78.1502 44.7172 78.2231C45.0129 78.3303 45.3002 78.4478 45.5794 78.5751M38.4269 77.7391C38.3477 77.7409 38.2689 77.7425 38.1904 77.744M38.1933 77.7263C37.9669 77.7137 37.7408 77.7004 37.515 77.686M38.1933 77.7263C38.3749 76.614 38.4867 75.5016 38.3442 74.49C38.3435 74.4848 38.3427 74.4797 38.342 74.4747M37.515 77.686C37.5119 77.7079 37.5089 77.7297 37.5058 77.7513M37.515 77.686C37.6854 76.47 37.9302 74.895 38.1215 74.3723M33.9964 77.4595C33.9953 77.5282 33.9941 77.5966 33.9929 77.6647M33.986 78.054C33.9883 77.9251 33.9906 77.7954 33.9929 77.6647M33.986 78.054C33.9768 78.5781 33.9682 79.0874 33.966 79.5848M37.325 79.1125C37.3126 79.2097 37.2986 79.3197 37.2832 79.4409M37.7041 79.3268C37.7636 79.3615 37.823 79.3965 37.8821 79.4319M37.7041 79.3268C37.7732 79.3088 37.8426 79.291 37.9121 79.2735M37.8821 79.4319C37.8921 79.3792 37.9021 79.3264 37.9121 79.2735M36.8557 82.6117C36.813 82.9082 36.7688 83.208 36.7237 83.5059M36.8557 82.6117C36.9134 82.2107 36.9685 81.8158 37.0199 81.4395M34.0491 82.1996C34.004 81.6608 33.9809 81.1132 33.9712 80.5523M34.0491 82.1996C34.0663 82.4054 34.0868 82.61 34.1109 82.8135M33.9712 80.5523C33.9657 80.2344 33.9645 79.9121 33.966 79.5848M35.0281 80.1851C35.7722 80.6859 36.5194 81.2861 37.0199 81.4395M37.9121 79.2735C38.0075 78.7704 38.1063 78.2572 38.1904 77.744M45.5794 78.5751C46.413 78.6357 47.237 78.7448 48.04 78.9067M48.04 78.9067C48.4329 78.9859 48.8208 79.0777 49.2024 79.1828M48.04 78.9067C48.5695 79.0727 49.0601 79.224 49.4855 79.354M49.2024 79.1828C49.8442 79.3594 50.468 79.5733 51.0675 79.8269C51.087 79.8351 50.4558 79.6503 49.4855 79.354M49.2024 79.1828C49.2988 79.2395 49.3932 79.2964 49.4855 79.354M42.3937 75.3842C43.2725 75.3787 44.1268 75.4211 44.447 75.4627L41.9208 75.1344M42.3937 75.3842C42.2356 75.3003 42.0779 75.217 41.9208 75.1344M41.9208 75.1344L40.0294 74.8887C39.3878 74.8053 38.845 74.6904 38.342 74.4747M41.9208 75.1344C38.3837 73.2748 35.2157 71.8214 36.9712 73.5329C37.3549 73.907 37.7283 74.175 38.1215 74.3723M38.342 74.4747C38.2677 74.4428 38.1942 74.4087 38.1215 74.3723M38.342 74.4747C38.2889 74.1134 38.211 74.1275 38.1215 74.3723M50.2313 86.0529C50.4117 86.4083 50.6098 86.7529 50.8444 87.0753C51.269 87.6586 51.6402 88.2536 51.9717 88.8613M50.2313 86.0529C50.9265 86.9194 51.4979 87.8385 51.9717 88.8613M51.9717 88.8613C52.4449 89.7287 52.837 90.6221 53.1875 91.5442M51.9717 88.8613C52.2509 89.4641 52.4963 90.1029 52.7131 90.7882M53.1875 91.5442C53.0338 91.2868 52.8757 91.0346 52.7131 90.7882M55.1054 106.299C55.0532 107.78 54.9907 109.054 55.0976 108.273M55.1054 106.299C55.1183 106.873 55.1174 107.447 55.1004 108.023C55.0977 108.113 55.0968 108.197 55.0976 108.273M27.5005 77.4052C27.4555 77.4024 27.4104 77.3995 27.3654 77.3965M27.5005 77.4052C27.4437 77.3768 27.3975 77.3719 27.3654 77.3965M27.3654 77.3965C25.5038 77.2756 23.6379 77.0996 21.7489 76.8259C20.1693 76.5969 15.4377 75.1393 19.5849 76.4249C21.4545 77.0044 23.3863 77.441 25.1606 78.2275C25.2013 78.2456 25.2459 78.2652 25.2935 78.286M27.3654 77.3965C27.3484 77.4095 27.3353 77.4306 27.3266 77.4608C27.2313 77.79 27.1661 78.1337 27.1257 78.4873M25.2935 78.286C25.7903 78.504 26.6246 78.8643 27.0783 79.153M25.2935 78.286C25.9025 78.3464 26.5138 78.4138 27.1257 78.4873M25.2935 78.286C24.6717 78.2244 24.0523 78.1699 23.4371 78.1233C22.5191 78.0539 22.6398 78.2061 23.0512 78.4168M27.0783 79.153C27.4397 79.3831 27.5596 79.5676 27.0745 79.5985M27.0783 79.153C27.0854 78.928 27.1008 78.7058 27.1257 78.4873M27.0783 79.153C27.0736 79.3004 27.0724 79.449 27.0745 79.5985M27.0745 79.5985C26.8547 79.6125 26.5108 79.5949 26.0088 79.5356C25.8248 79.5139 25.6381 79.4931 25.449 79.4726M27.0745 79.5985C27.077 79.7809 27.0843 79.9645 27.0957 80.1489M25.449 79.4726C24.9051 79.4139 24.3417 79.3589 23.7679 79.2983M25.449 79.4726C24.9071 79.2447 24.3677 79.0121 23.8318 78.7736C23.6146 78.677 23.379 78.5754 23.1825 78.4815M25.449 79.4726C25.9956 79.7025 26.5447 79.9275 27.0957 80.1489M23.7679 79.2983C23.5088 79.2709 23.2477 79.2424 22.9853 79.2119M23.7679 79.2983C23.5771 79.0173 23.3824 78.7442 23.1825 78.4815M22.9853 79.2119C20.1147 78.8781 17.094 78.3054 15.0394 76.3733C12.0172 73.5312 9.33676 70.4238 7.06777 67.0293M22.9853 79.2119C22.9858 78.8273 23.0026 78.5162 23.0512 78.4168M22.9853 79.2119C22.9843 79.9724 23.047 81.0205 23.0529 81.2883M7.06777 67.0293C6.47586 66.1438 5.91195 65.2387 5.37729 64.3137M7.06777 67.0293C7.01199 67.2393 6.93476 67.4434 6.83044 67.6399C6.21943 68.791 5.8034 66.21 5.37729 64.3137M7.06777 67.0293C7.13898 66.7613 7.17524 66.4836 7.18828 66.1997M5.37729 64.3137C4.56795 62.9135 3.8256 61.4676 3.15453 59.9748C2.76872 59.1164 3.41573 60.123 4.05642 61.219M5.37729 64.3137C5.3608 64.2403 5.34429 64.168 5.32777 64.0969M4.05642 61.219C4.49972 61.9772 4.94 62.7783 5.03308 63.034C5.1338 63.3106 5.23124 63.682 5.32777 64.0969M4.05642 61.219C4.4312 62.2618 4.85884 63.267 5.32777 64.0969M4.05642 61.219C2.64111 57.2809 1.97962 52.8069 2.69511 55.2132C2.74423 55.3784 3.51441 56.4932 3.94772 57.1974M5.32777 64.0969C5.75591 64.8547 6.21846 65.4663 6.70663 65.827C6.871 65.9484 7.03135 66.0728 7.18828 66.1997M7.18828 66.1997C7.23487 65.1852 6.98483 64.0918 6.97417 63.0766C6.93363 59.2138 6.8303 55.3584 7.07095 51.4992C7.20036 49.4239 7.46348 47.37 7.90165 45.356M7.18828 66.1997C9.54727 68.1077 11.1326 70.5824 13.9848 72.0435C14.0104 72.0566 14.0376 72.0709 14.0662 72.0863M7.90165 45.356C8.32243 43.4219 8.90463 41.5245 9.68486 39.6799C9.79627 39.4165 10.3004 38.7178 10.5406 38.808M7.90165 45.356C8.40893 44.4118 8.93293 43.4706 9.47745 42.5471M7.90165 45.356C7.22091 46.623 6.57027 47.8951 5.94049 49.1362C5.83535 49.3434 5.73937 49.518 5.65174 49.6633M10.5406 38.808C10.627 38.8405 10.6792 38.9749 10.6667 39.2684C10.6455 39.7686 10.6112 40.27 10.567 40.7721M10.5406 38.808C10.0917 39.9552 9.73732 41.1932 9.47745 42.5471M10.5406 38.808C11.7223 35.7878 13.5589 33.3962 16.0498 31.1705M10.567 40.7721C10.3254 43.5156 9.78549 46.2808 9.43332 48.9911C8.12046 59.0948 8.78574 47.1566 9.27456 43.7594C9.33419 43.3451 9.40182 42.9412 9.47745 42.5471M10.567 40.7721C11.131 39.8921 11.7172 39.0389 12.3294 38.2267C13.9517 36.0745 14.7052 33.433 16.0498 31.1705M10.567 40.7721C10.1944 41.3535 9.8316 41.9465 9.47745 42.5471M16.0498 31.1705C16.8747 30.4334 17.7713 29.7145 18.7397 28.997C19.2645 28.6082 21.3162 27.5459 22.3123 27.2416M16.0498 31.1705C16.2193 30.8853 16.3981 30.6062 16.5893 30.3348C17.1962 29.4732 17.936 28.7937 18.7436 28.2067M22.3123 27.2416C23.0118 27.0279 23.1909 27.1879 21.9556 28.217C20.349 29.5556 18.6921 30.73 17.0306 32.0094C16.1664 32.6748 15.012 33.821 16.5953 32.1325C17.6435 31.0146 20.1244 28.5508 22.3123 27.2416ZM22.3123 27.2416C22.9681 26.8492 23.5975 26.5605 24.1542 26.4429M24.1542 26.4429C24.2231 26.4283 24.291 26.4164 24.3576 26.4072M24.1542 26.4429C24.169 26.3725 24.181 26.302 24.1902 26.2313C24.3308 25.1494 19.3605 27.903 19.2014 27.9789C19.0488 28.0517 18.8962 28.1277 18.7436 28.2067M24.1542 26.4429C23.9967 27.1932 23.5308 27.9207 22.9552 28.6002M24.3576 26.4072C24.4683 26.3919 24.5757 26.3842 24.6794 26.3847C25.7563 26.3899 25.5238 26.8145 24.6569 27.4674M24.3576 26.4072C24.1979 25.9452 24.0034 25.5205 23.7604 25.16M24.3576 26.4072C24.4741 26.7443 24.5721 27.1012 24.6569 27.4674M24.6569 27.4674C24.2213 27.7954 23.6255 28.1811 22.9552 28.6002M24.6569 27.4674C24.7193 27.737 24.7745 28.0117 24.8247 28.2872M22.9552 28.6002C20.9672 29.843 18.3234 31.3795 17.2562 32.5777C14.5625 35.6021 13.1423 40.2028 11.7381 43.9298C9.64524 49.4849 8.14906 56.6893 8.22492 62.6701C8.27218 66.3967 12.9203 69.1709 15.503 71.1926C17.4784 72.739 19.2647 73.3443 21.5479 74.2242C22.3189 74.5213 25.4783 75.1542 24.7928 75.0651C22.74 74.7984 19.3308 75.0629 17.5043 73.9983C16.4625 73.391 15.5907 72.2522 14.3383 72.0895C14.2049 72.0721 14.1162 72.0719 14.0662 72.0863M22.9552 28.6002C22.1387 29.564 21.1012 30.4314 20.4091 31.1306C18.7382 32.8186 19.6686 32.3521 21.2715 32.5604C23.2535 32.8179 23.8313 34.0193 24.4895 35.9135C25.1237 37.7386 25.2983 39.702 25.7575 41.5432M14.0662 72.0863C13.5974 72.2217 16.5123 73.6489 17.7594 74.4582M14.0662 72.0863C14.922 72.5471 17.0807 73.9996 17.7594 74.4582M17.7594 74.4582C17.8346 74.5069 17.9036 74.5534 17.9656 74.5973C17.9792 74.6069 17.9019 74.5544 17.7594 74.4582ZM3.94772 57.1974C4.1589 57.5406 4.29006 57.7863 4.21874 57.7771C4.10047 57.7617 4.0122 57.5265 3.94772 57.1974ZM3.94772 57.1974C3.79928 56.4398 3.77697 55.1845 3.80509 54.9681C3.99845 53.48 4.32673 50.8954 4.69228 48.4658M4.69228 48.4658C5.29502 44.4596 5.99906 40.8748 6.36658 43.3217C6.3888 43.4696 6.40573 43.6204 6.41786 43.7737M4.69228 48.4658C4.72085 49.2644 4.76146 50.0628 4.98584 50.2284M4.69228 48.4658C4.68061 48.14 4.67095 47.8141 4.65163 47.5312C4.50712 45.4149 4.76578 43.4251 5.03743 41.3354L5.0506 41.234C5.44759 38.1788 6.478 36.5481 8.13541 34.0879C10.5196 30.5491 12.6355 26.5293 16.5224 24.3964C17.417 23.9055 24.914 19.4627 22.119 21.8892C21.0552 22.8128 19.9732 23.816 18.9133 24.8602M6.41786 43.7737C6.5603 45.5736 6.04229 47.7257 5.65174 49.6633M6.41786 43.7737C5.76791 45.8711 5.33129 48.0018 4.98584 50.2284M6.41786 43.7737C6.91457 42.1709 7.53585 40.5875 8.33627 38.9956C9.39677 36.8864 10.9655 34.7187 12.7929 32.8098M5.65174 49.6633C5.52564 50.2889 5.41284 50.8921 5.33984 51.454C5.21632 52.4045 4.38163 54.6797 4.66813 52.4748C4.76699 51.7139 4.87141 50.9659 4.98584 50.2284M5.65174 49.6633C5.33283 50.1919 5.12433 50.3307 4.98584 50.2284M12.7929 32.8098C12.9299 32.6667 13.0683 32.5251 13.2081 32.3851M12.7929 32.8098C12.7661 33.5021 13.0298 33.6884 13.2081 32.3851M12.7929 32.8098C12.8068 32.453 12.8978 31.9619 13.1174 31.4709C14.2129 29.0222 16.4277 26.2736 18.9133 24.8602M13.2081 32.3851C14.9158 30.6741 16.8249 29.2001 18.7436 28.2067M13.2081 32.3851C13.2109 32.3646 13.2137 32.3436 13.2164 32.3224C13.3498 31.2957 13.7184 30.5526 14.3893 29.7495C15.7541 28.1157 17.3085 26.4411 18.9133 24.8602M18.7436 28.2067C20.319 27.0614 22.1523 26.2678 23.7604 25.16M25.7575 41.5432C25.9225 42.2047 26.1242 42.8504 26.3971 43.4683M25.7575 41.5432C25.8594 39.7433 26.0901 37.9071 26.1643 36.161C26.1802 35.7883 26.1651 35.4143 26.1279 35.0397M25.7575 41.5432C25.7085 42.4089 25.6893 43.2661 25.7316 44.101C25.7347 44.162 25.7397 44.225 25.7465 44.2896M26.3971 43.4683C26.4144 44.3266 26.4436 45.1012 26.4834 45.7566M26.3971 43.4683C26.3567 41.4598 26.3821 38.9932 26.4925 36.5251M26.4925 36.5251C26.3721 36.0292 26.2501 35.534 26.1279 35.0397M26.1279 35.0397C25.8162 33.7782 25.5033 32.5226 25.2119 31.2755C24.9316 30.0762 24.3619 29.2247 24.8247 28.2872M26.1279 35.0397C25.9586 33.3319 25.3309 31.6121 25.0858 29.9414L25.0701 29.8346C24.9969 29.3348 24.9199 28.8095 24.8247 28.2872M28.0804 25.7417C28.5933 25.5806 29.1403 25.5134 29.7263 25.573C29.8086 25.5814 29.891 25.5899 29.9734 25.5985M28.0804 25.7417C28.383 25.1619 28.732 24.9039 29.132 25.0765C29.4268 25.2038 29.7067 25.3812 29.9734 25.5985M34.7345 26.2841C35.9705 26.5246 37.1934 26.8231 38.3808 27.2023M34.7345 26.2841C34.9819 27.2128 35.2094 28.1408 35.3888 29.0609M34.7345 26.2841C34.6714 26.047 34.6069 25.8099 34.5417 25.5729M38.3808 27.2023C38.4234 27.2159 38.4659 27.2295 38.5083 27.2433M38.3808 27.2023C38.3949 27.2137 38.4125 27.2274 38.4338 27.2435C38.9299 27.6194 39.4515 27.9024 39.9802 28.1687M38.3808 27.2023C38.2853 27.1249 38.3503 27.1527 38.5083 27.2433M38.5083 27.2433C38.9285 27.3798 39.3441 27.5266 39.7541 27.6846C40.0225 27.7881 40.9037 28.3596 41.5647 28.8187M38.5083 27.2433C38.814 27.4188 39.4679 27.8295 39.9802 28.1687M41.5647 28.8187C42.3385 29.3562 42.8105 29.7398 41.6446 29.0384C41.5656 28.9908 41.4864 28.9448 41.4069 28.8999M41.5647 28.8187C41.7478 28.7672 42.0315 28.7884 42.441 28.9022C42.5607 28.9355 42.6857 28.9743 42.8155 29.0182M41.5647 28.8187C41.4999 28.8369 41.4476 28.8643 41.4069 28.8999M41.4069 28.8999C40.9346 28.633 40.4546 28.4076 39.9802 28.1687M41.4069 28.8999C41.3276 28.9692 41.2918 29.0697 41.2913 29.195M39.9802 28.1687C40.2923 28.3753 40.552 28.5554 40.6483 28.6394C40.8618 28.8256 41.0764 29.0106 41.2913 29.195M41.2913 29.195C41.7799 29.6143 42.27 30.0303 42.7532 30.4506M41.2913 29.195C41.2905 29.3932 41.378 29.6533 41.5211 29.9495M42.7532 30.4506C45.0072 32.4109 47.1115 34.4634 48.2182 37.3699M42.7532 30.4506C42.3892 30.2793 41.9722 30.1096 41.5211 29.9495M42.7532 30.4506C43.133 30.6293 43.4551 30.8096 43.698 30.9823C44.4731 31.5331 49.9787 36.0895 49.8641 35.6168C49.6703 34.8178 49.2723 33.8627 48.7676 32.9034M48.2182 37.3699C48.2589 37.4769 48.2983 37.585 48.3363 37.6944C49.8978 42.1881 50.7132 47.5302 50.4279 52.2514C50.2226 55.6487 49.4949 45.4488 48.2809 42.2692C47.0654 39.0855 43.6827 37.4714 41.2085 35.3906C40.6073 34.8849 40.0397 34.3888 39.4919 33.8897M48.2182 37.3699C50.4251 40.3856 52.0663 43.845 52.8122 47.5C52.8126 47.502 52.813 47.5039 52.8134 47.5059M48.2182 37.3699C47.4019 36.2544 46.5081 35.1997 45.5536 34.2182C44.8822 33.5278 44.1083 33.0328 43.2739 32.6666M39.4919 33.8897C38.6323 33.1064 37.8216 32.3157 37.0064 31.469M39.4919 33.8897C38.6138 32.9481 37.7693 32.0567 37.0518 31.3091M39.4919 33.8897C41.6443 36.1976 43.9983 38.807 45.1776 40.3386C46.6732 42.2809 48.3082 45.1963 48.966 47.5992C49.3197 48.8912 49.2801 51.8307 50.0159 52.8867C50.3036 53.2995 51.1642 53.5751 52.2757 53.7639M37.0064 31.469C36.8884 31.3464 36.7703 31.2227 36.6519 31.0976M37.0064 31.469C37.0194 31.4133 37.0344 31.3597 37.0518 31.3091M36.6519 31.0976C36.2949 30.7204 35.9357 30.3313 35.5696 29.9261C35.5586 29.9139 35.5478 29.9019 35.5372 29.8901M36.6519 31.0976C36.7424 31.1234 36.8322 31.1485 36.9208 31.1728M36.6519 31.0976C36.3221 31.0034 35.9837 30.8993 35.6638 30.7888M35.5372 29.8901C34.6991 28.9609 34.8255 29.0423 35.5103 29.7274M35.5372 29.8901C35.5858 30.1908 35.6284 30.4905 35.6638 30.7888M35.5372 29.8901C35.5284 29.8359 35.5194 29.7817 35.5103 29.7274M35.5103 29.7274C35.8557 30.073 36.3433 30.5722 36.9208 31.1728M35.5103 29.7274C35.4728 29.5058 35.4322 29.2835 35.3888 29.0609M36.9208 31.1728C36.964 31.2177 37.0076 31.2631 37.0518 31.3091M36.9208 31.1728C36.9769 31.1882 37.0324 31.2032 37.0874 31.2179M37.0518 31.3091C37.0627 31.2774 37.0745 31.2469 37.0874 31.2179M52.2757 53.7639C53.8453 54.0305 55.9152 54.1242 57.5786 54.1876M52.2757 53.7639C51.7642 53.962 51.181 54.0857 50.5146 54.1194C49.4756 54.1721 48.1274 53.6332 48.7777 55.2714C49.16 56.2345 49.5386 56.1788 50.5298 56.3076C53.0732 56.6381 56.3857 56.4683 57.5786 54.1876M52.2757 53.7639C53.2398 53.3904 53.9494 52.7522 54.482 51.9522M57.5786 54.1876C57.9408 54.2014 58.2837 54.2138 58.598 54.2262M57.5786 54.1876C57.78 53.8026 57.921 53.3574 57.9876 52.8444C58.5061 48.8544 58.8618 45.051 58.325 41.0288L58.3197 40.989C58.2229 40.2649 57.2691 33.1281 57.4275 33.1855C58.0031 33.3943 58.4753 35.8951 58.6057 36.3334C59.5706 39.5785 60.1865 42.991 59.9051 46.3851C59.7965 47.6947 59.8203 50.2952 59.1214 51.4943C58.7184 52.1856 58.5936 53.5525 57.8499 53.9046C57.5661 54.0389 58.0155 54.1492 58.598 54.2262M58.598 54.2262C59.2714 54.2528 59.8133 54.2795 60.1317 54.3209C60.5871 54.3801 59.4501 54.3388 58.598 54.2262ZM54.482 51.9522C54.6676 51.6735 54.8317 51.3751 54.9776 51.0614M54.482 51.9522C54.6022 51.9757 54.7529 51.7706 54.9382 51.1903C54.9518 51.1476 54.9649 51.1047 54.9776 51.0614M54.482 51.9522C54.1422 51.8857 54.0456 49.9928 54.0988 49.5838C54.7429 44.6269 56.3537 38.9942 55.2832 34.015C55.1941 33.6005 53.5636 29.1366 53.3596 30.3809C53.1101 31.9023 52.9265 33.4164 52.799 34.928M54.9776 51.0614C55.784 49.3282 56.0351 47.1281 56.2861 45.1961C56.7407 41.6977 55.624 46.1432 55.4651 47.3655C55.3106 48.5549 55.3145 49.9085 54.9776 51.0614ZM52.799 34.928C52.7853 35.0896 52.7723 35.2511 52.76 35.4126M52.799 34.928C54.3701 36.0908 55.0041 36.7165 53.5722 35.889C53.3008 35.7322 53.03 35.5733 52.76 35.4126M52.799 34.928C51.6127 34.0501 49.8923 32.8661 48.1233 31.7702M52.76 35.4126C52.4604 39.3245 52.5287 43.2239 52.7916 47.1978C52.7986 47.3032 52.8059 47.4059 52.8134 47.5059M52.76 35.4126C51.4135 34.6117 50.0837 33.7662 48.7676 32.9034M52.8134 47.5059C53.047 50.5908 53.541 51.0727 52.8134 47.5059ZM43.2739 32.6666C42.3185 32.2475 41.2838 31.9973 40.2325 31.8163M43.2739 32.6666C42.7217 31.8431 41.913 30.7608 41.5211 29.9495M43.2739 32.6666C44.0522 33.8277 44.3206 34.4744 42.1921 33.1225C41.668 32.7897 40.9766 32.2702 40.2325 31.8163M40.2325 31.8163C39.706 31.7257 39.1754 31.6524 38.6485 31.584C38.5477 31.5709 37.8834 31.4306 37.0874 31.2179M40.2325 31.8163C39.3021 31.2489 38.2892 30.784 37.4177 30.9149C37.2644 30.9379 37.1597 31.0546 37.0874 31.2179M35.6638 30.7888C34.5157 30.392 33.6054 29.9117 34.1866 29.5068C34.5022 29.2868 34.9134 29.1427 35.3888 29.0609M35.3888 29.0609C37.0892 28.7681 39.611 29.2718 41.5211 29.9495M48.7676 32.9034C48.5675 32.5232 48.3507 32.1423 48.1233 31.7702M48.7676 32.9034C47.7529 32.2382 46.7463 31.5626 45.7466 30.8891C44.7792 30.2373 43.8062 29.6077 42.8155 29.0182M48.1233 31.7702C47.4041 30.5938 46.5782 29.5055 45.8378 28.8046C45.2603 28.2579 48.866 30.109 49.5401 30.2739C53.7906 31.3135 46.7943 26.7127 47.4463 26.7974C47.8127 26.845 48.261 26.8869 48.7326 26.951M48.1233 31.7702C46.2046 30.5815 44.2287 29.4965 42.8155 29.0182M48.7326 26.951C49.852 27.1033 51.1027 27.3811 51.7017 28.1589C51.9316 28.4576 50.9826 27.9229 50.6464 27.7523C50.0319 27.4405 49.3889 27.1821 48.7326 26.951ZM48.7326 26.951C47.3976 26.4811 46.0073 26.1242 44.689 25.6605C41.3791 24.4962 37.7653 24.4172 34.2407 24.4961M34.2407 24.4961C34.3419 24.8546 34.4427 25.2137 34.5417 25.5729M34.2407 24.4961C33.8017 22.9399 33.3571 21.3946 33.0398 19.8942C32.9867 19.6432 32.9376 19.4076 32.8923 19.1867M34.5417 25.5729C35.0408 25.6838 35.4485 25.7773 35.6521 25.8339C38.2283 26.55 40.5679 27.681 42.8155 29.0182M28.0372 48.3166C27.4812 47.5043 26.9681 46.6605 26.4834 45.7566M26.4834 45.7566C26.2307 45.2853 25.9857 44.7976 25.7465 44.2896M32.8923 19.1867C32.5721 17.6256 32.4413 16.8001 32.4358 16.49M32.8923 19.1867C32.9911 19.3443 33.0902 19.506 33.1882 19.6739C33.6041 20.3858 34.4644 24.6625 34.2627 22.9281C34.0978 21.51 33.1795 18.0983 32.7108 16.8295M32.4358 16.49C32.4305 16.1917 32.5412 16.3702 32.7108 16.8295M32.4358 16.49C32.5283 16.6021 32.62 16.7153 32.7108 16.8295M23.7604 25.16C23.037 24.0865 21.884 23.5825 19.941 24.3614C19.5948 24.5002 19.2516 24.6678 18.9133 24.8602M25.7465 44.2896C25.9101 45.8549 27.072 48.3459 25.572 45.0985C25.298 44.5052 24.3925 41.242 25.3664 43.4545C25.4916 43.7392 25.6182 44.0173 25.7465 44.2896ZM23.0512 78.4168C23.0923 78.4378 23.1363 78.4595 23.1825 78.4815M23.0512 78.4168C23.0715 78.3753 23.0974 78.3706 23.1299 78.4129C23.1475 78.4357 23.165 78.4586 23.1825 78.4815M43.3541 112.437C42.8295 111.952 42.3139 111.515 41.8583 111.217M43.3541 112.437C43.741 113.641 44.2227 114.821 44.7557 115.969M43.3541 112.437C42.9893 111.3 42.7088 110.142 42.5492 108.968C42.1754 106.217 43.3676 100.174 41.4916 97.7652M41.8583 111.217C41.6794 111.101 41.5099 111.005 41.3526 110.937M41.8583 111.217C41.8884 111.867 41.8752 112.327 41.6838 111.94C41.5492 111.667 41.4406 111.326 41.3526 110.937M41.8583 111.217C41.8301 110.611 41.7641 109.839 41.7697 109.435C41.8181 105.947 41.7618 102.46 41.511 98.9798C41.4992 98.8153 41.5068 98.3465 41.4916 97.7652M41.3526 110.937C41.1751 110.86 41.0133 110.817 40.8715 110.816C38.6567 110.805 42.9081 113.632 44.7557 115.969M41.3526 110.937C40.8592 108.757 41.0079 105.074 40.8001 103.529C40.7836 103.407 40.7658 103.277 40.7471 103.143M44.7557 115.969C45.0695 116.365 45.3139 116.748 45.4456 117.1C45.5541 117.391 45.8943 118.253 45.7507 117.979C45.407 117.321 45.0723 116.65 44.7557 115.969ZM41.4916 97.7652C41.4412 97.7005 41.3886 97.6384 41.3337 97.5791C41.2816 97.5229 40.9997 101.128 40.7471 103.143M40.7471 103.143C40.5561 104.665 40.3819 105.28 40.3362 102.72C40.2913 100.206 40.5638 101.836 40.7471 103.143ZM23.0529 81.2883C23.0531 81.2954 23.0532 81.3019 23.0533 81.3079C23.0806 83.467 21.2396 78.5838 21.7809 79.3456C22.2329 79.9819 22.6558 80.6299 23.0529 81.2883Z" stroke="#0FA4A4" stroke-width="3" stroke-linecap="round"/>
</svg>
