<svg width="100" height="100" viewBox="0 0 100 100" fill="none" xmlns="http://www.w3.org/2000/svg">
<g clip-path="url(#clip0_9_34238)">
<g style="mix-blend-mode:multiply">
<path d="M55.9 88.381C53.8 86 51.7 83.0476 50 80.2857C47.3 75.6191 44.7 70.8572 42.4 65.9048C38 56.7619 34.4 47.0476 33.3 36.9524C32.1 26.4762 39.7 18.381 49.1 14.0952C54.3 11.8095 60.5 11.1429 65.7 13.2381C77.4 18 76.1 34.381 73.9 44.0952C70.7 57.9048 64.5 76.8571 55.9 88.381Z" fill="#0FA4A4"/>
<path d="M55.9 88.381C53.8 86 51.7 83.0476 50 80.2857C47.3 75.6191 44.7 70.8572 42.4 65.9048C38 56.7619 34.4 47.0476 33.3 36.9524C32.1 26.4762 39.7 18.381 49.1 14.0952C54.3 11.8095 60.5 11.1429 65.7 13.2381C77.4 18 76.1 34.381 73.9 44.0952C70.7 57.9048 64.5 76.8571 55.9 88.381Z" stroke="#6FCFA1" stroke-width="0.8" stroke-miterlimit="10"/>
</g>
<path d="M50 37.619C45 37.619 41 34.1904 41 29.9999C41 25.8094 45 22.3809 50 22.3809C55 22.3809 59 25.8094 59 29.9999C59 34.1904 55 37.619 50 37.619Z" fill="#6CCC9E" stroke="#6FCFA1" stroke-width="0.8" stroke-miterlimit="10"/>
<g style="mix-blend-mode:multiply">
<path d="M51.9 87.1429C43.4 77.619 36.1 66.8572 31.5 55.1429C29.4 49.6191 27.7 43.9048 27.6 38.0952C27.6 32.4762 29.1 26.8572 32.5 22.2857C38.3 14.4762 50.8 10.0952 60.1 14.4762C71.8 20 72.1 34.8571 69.5 45.3333C66.2 58.381 58.4 69.7143 52.8 81.8095C52.1333 83.2698 51.4667 84.7302 50.8 86.1905C51.4667 86.381 52.1 86.5397 52.7 86.6667C57 73.4286 66.5 62.381 71.3 49.2381C73.6 42.8572 74.8 35.9048 73.3 29.2381C72.1 24 68.9 19.2381 64.6 15.8095C60.2 12.2857 54.6 10.0952 48.8 10.1905C43.3 10.2857 37.9 12.2857 34.1 16.0952C25.8 24.2857 27.1 36.4762 29.4 46.7619C30.8 53.2381 33.2 59.5238 36.1 65.6191C37.5667 68.6032 39.1667 71.5556 40.9 74.4762C41.8 75.9048 42.7 77.3333 43.7 78.5714C44.2 79.2381 44.5 79.9048 44.8 80.7619C45 81.5238 45.2 82.381 45.5 83.1429C46.1 84.5714 47.3 85.619 48.2 86.8571C48.6667 86.4762 49.1667 86.0952 49.7 85.7143C49.5667 85.5873 49.4333 85.4286 49.3 85.2381C48.5 84.2857 47.1 85.6191 47.9 86.5714C48.0333 86.7619 48.1667 86.9206 48.3 87.0476C49 87.9048 50.5 86.8571 49.9 85.9048C49 84.6667 47.7 83.6191 47.2 82.1905C46.6 80.6667 46.5 79.1429 45.5 77.9048C43.6 75.4286 42 72.5714 40.5 69.9048C37.4 64.1905 34.8 58.2857 32.9 52.1905C31 46.1905 29.8 40 29.6 33.7143C29.5 29.1429 30.4 24.4762 33 20.4762C35.6 16.4762 39.8 13.6191 44.7 12.5714C50.3 11.3333 56 12.5714 60.8 15.4286C65.3 18.1905 68.9 22.4762 70.7 27.3333C72.8 33.3333 72.2 39.9048 70.4 45.9048C66.5 58.6667 57.7 69.3333 52.5 81.619C51.9 83.1429 51.3333 84.6667 50.8 86.1905C50.4 87.3333 52.3 87.8095 52.7 86.6667C58.1 73.7143 66.6 61.9048 70.7 48.381C74 37.3333 74.6 22.1905 63.8 14.4762C54.9 8.19048 41.6 10.9524 34 17.8095C29.6 21.7143 27 27.2381 26.1 32.8572C25.1 38.7619 26 44.6667 27.8 50.381C31.6 62.9524 38.7 74.4762 47.3 84.6667C48.3667 85.9365 49.4667 87.2064 50.6 88.4762C51.4 89.3333 52.8 88 51.9 87.1429Z" fill="black"/>
</g>
<g style="mix-blend-mode:multiply">
<path d="M27 39.9048C27.9 42.0952 28.5 44.2857 28.9 46.5714C29 47.7143 29.1 48.8571 29.3 50C29.4 51.0476 29.8 52 30 53.0476C30 53.619 30.4 54 30.9 54C31.4 54 32 53.619 31.9 53.0476C31.8 51.9048 31.3 50.8571 31.2 49.7143C31 48.5714 31 47.4286 30.8 46.2857C30.4 44 29.9 41.619 28.9 39.4286C28.7 38.9524 28.3 38.6667 27.7 38.7619C27.3 38.8571 26.8 39.4286 27 39.9048Z" fill="black"/>
</g>
<g style="mix-blend-mode:multiply">
<path d="M53.1 20.381C51.4 20.2857 49.8 20.0952 48.2 20.4762C46.7 20.8571 45.1 21.7143 43.8 22.6667C41.6 24.1905 40.4 26.7619 39.9 29.2381C38.9 34.5714 41.4 39.9048 47.1 41.6191C52.5 43.2381 57.8 39.5238 59.9 34.8571C61 32.5714 61.5 29.9048 60.7 27.5238C59.8 24.7619 57.7 22.5714 54.9 21.5238C49.1 19.3333 41.8 22.0952 39.5 27.7143C38.5 30 38.7 32.7619 40.2 34.8571C41.7 37.1429 44.3 38.6667 47 39.3333C52.8 40.7619 59.4 38.1905 61.7 32.7619C64 27.2381 59.3 22.0952 53.8 20.7619C48.1 19.4286 41.4 22.0952 39 27.4286C38.4 28.8571 38.3 30.4762 38.3 31.9048C38.3 33.2381 38.4 35.5238 40 35.9048C40.9 36.1905 41.7 35.7143 42.3 35.2381C43.3 34.4762 41.9 33.1429 40.9 33.9048C40.8 34 40.5 34.1905 40.5 34.0952C40.4 34.2857 40.6 34 40.6 34.1905C40.6 34.1905 40.6 34.1905 40.6 34.0952C40.5 33.619 40.3 33.1429 40.3 32.5714C40.2 31.3333 40.3 30 40.6 28.7619C41 27.1429 42.5 25.5238 43.9 24.4762C45.8 23.0476 48.3 22.2857 50.8 22.2857C55.3 22.2857 60.8 25.4286 60.4 30.2857C59.9 34.9524 54.7 38 50.1 37.9048C45.8 37.7143 40.5 34.9524 40.8 30.2857C41.1 25.4286 46.5 22.381 51.2 22.6667C56.5 22.9524 60.1 27.4286 58.8 32.2857C57.8 36 54.5 39.9048 50.2 40.0952C45.4 40.2857 41.8 36.4762 41.6 32.1905C41.5 30.1905 42 28.0952 43 26.381C43.6 25.3333 44.3 24.5714 45.3 23.9048C46.4 23.2381 47.7 22.4762 49 22.1905C50.3 21.9048 51.7 22.1905 53.1 22.2857C54.3 22.381 54.3 20.4762 53.1 20.381Z" fill="black"/>
</g>
<g style="mix-blend-mode:multiply">
<path d="M39.3 72.5715C39.3 73.2382 39.6 73.7144 40 74.2858C40.4 74.762 40.7 75.3334 41.1 75.9048C41.9 77.2382 42.9 78.5715 43.8 80.0001C44.7 81.2382 45.4 82.5715 46.2 83.9048C46.9 84.9525 47.5 86.1906 48.6 86.9525C49.3 87.4286 50.1 86.5715 50 85.9048C49.8 84.8572 49.2 83.9048 48.7 82.9525C48.2 82.0001 47.6 81.1429 46.9 80.2858C46.2 79.3334 45.5 78.5715 44.8 77.5239C44.6 77.1429 44.3 76.762 44 76.2858C43.7 75.9048 43.3 75.5239 43.2 75.0477C42.6 75.3652 42.0333 75.6826 41.5 76.0001C43.6 77.7144 44.6 80.2858 45.9 82.4763C46.8 83.8096 47.6 85.0477 48.4 86.381C49 87.3334 49.3 88.2858 50.3 88.9525C50.7 89.1429 51.4 89.0477 51.6 88.5715C52.5 86.9525 50.9 85.7144 49.8 84.6667C49.4 84.1906 49.1 83.8096 48.7 83.3334C48.3 82.9525 47.9 82.6667 47.6 82.1906C47.2 81.2382 47.1 80.381 46.3 79.6191C45.7 79.1429 44.6 79.4286 44.6 80.2858C44.7 80.9525 45.1 81.5239 45.5 82.0953C46 82.8572 46.3 83.7144 46.7 84.4763C47.2 85.3334 47.5 86.2858 48.1 87.0477C48.7 87.8096 49.3 88.4763 49.7 89.2382C50.3 88.9207 50.8667 88.6032 51.4 88.2858C51.2 88.0318 50.9667 87.8096 50.7 87.6191C49.8 86.762 48.4 88.0953 49.4 88.8572C49.5333 88.9842 49.6333 89.1112 49.7 89.2382C50.5 90.2858 52 89.4286 51.4 88.2858C51.1 87.6191 50.5 86.9525 50 86.2858C49.4 85.6191 49.1 84.8572 48.7 84.0001C48.3 83.2382 47.9 82.4763 47.5 81.7144C47.3 81.3334 46.6 80.6667 46.6 80.2858C46.0667 80.4763 45.5 80.6985 44.9 80.9525C45.5 81.4286 45.5 82.2858 45.8 82.9525C46.2 83.7144 46.9 84.2858 47.5 84.9525C48 85.4286 48.4 86.0001 48.9 86.4763C49.1 86.6667 50 87.4286 49.9 87.6191C50.3667 87.4921 50.8333 87.3969 51.3 87.3334C50.9 87.0477 50.6 86.4763 50.4 86.0001C50.1333 85.4921 49.8667 85.0159 49.6 84.5715C48.8 83.3334 48 82.0953 47.3 80.8572C46 78.6667 44.9 76.381 42.9 74.6667C42.2 74.0001 41 74.5715 41.3 75.5239C41.6 76.4763 42.3 77.2382 42.8 78.0001C43.5 78.9525 44.1 79.9048 44.8 80.762C45.6 81.6191 46.2 82.4763 46.7 83.4286C47.2 84.381 47.9 85.3334 48.1 86.381C48.5667 86.0001 49.0667 85.6509 49.6 85.3334C49.1 85.0477 48.9 84.4763 48.6 84.0001C48.3 83.5239 48 83.0477 47.7 82.4763C47 81.3334 46.3 80.1905 45.5 79.0477C44.7 77.8413 43.9 76.6032 43.1 75.3334C42.7 74.8572 42.5 74.2858 42.1 73.8096C41.9 73.4286 41.3 73.0477 41.3 72.5715C41.2 71.4286 39.2 71.4286 39.3 72.5715Z" fill="black"/>
</g>
<g style="mix-blend-mode:multiply">
<path d="M40.5 33.1429C40 33.0476 39.5 33.0476 39.1 33.3333C38.5 33.6191 38.5 34.381 38.9 34.7619C39.1667 35.0794 39.4667 35.3651 39.8 35.6191C39.9333 35.6826 40.0667 35.7778 40.2 35.9048C40.2667 35.9683 40.3333 36.0318 40.4 36.0952C40.4 36.0318 40.4 36.0318 40.4 36.0952C40.5333 36.1587 40.6333 36.2222 40.7 36.2857C41.3 36.7619 41.7 37.3333 42.3 37.8095C42.7 38.1905 43.3 38.1905 43.7 37.8095C44.1 37.4286 44 36.9524 43.7 36.4762C43.3 36.0952 42.9 35.7143 42.4 35.4286C42.2667 35.3016 42.1333 35.1746 42 35.0476C42 34.9841 41.9667 34.9524 41.9 34.9524C41.8 34.8572 42 35.0476 42 34.9524C41.9333 34.8889 41.8667 34.8254 41.8 34.7619C41.2 33.9048 40.6 33.1429 39.5 32.9524C39.1 32.9524 38.6 33.3333 38.5 33.7143C38.3 34.4762 38.4 35.3333 38.9 36C39.1 36.4762 39.6 36.8572 40 37.2381C40.7 38.0952 41.7 39.1429 42.9 38.9524C43.2 38.8572 43.5 38.5714 43.6 38.2857C44 36.7619 42.9 35.1429 41.2 34.8572C40.7 34.8572 40.2 35.0476 40 35.5238C39.7 36.5714 40.7 37.6191 41.3 38.2857C42.1 39.0476 43.1 39.9048 44.2 40.0952C44.9 40.1905 45.7 40 46.1 39.3333C46.4 38.8572 46.2 38.2857 45.8 38C45.3 37.8095 44.7 37.9048 44.4 38.381C44.3 38.5714 44.6 38.1905 44.5 38.2857C44.7 38.1905 44.3 38.4762 44.5 38.2857C44.4 38.381 44.8 38.1905 44.6 38.2857C44.5 38.2857 44.6 38.1905 44.7 38.2857C44.7 38.1905 44.6 38.2857 44.6 38.2857C44.4 38.2857 44.8 38.2857 44.7 38.2857C44.5667 38.2222 44.4333 38.1905 44.3 38.1905C44.1 38.0952 44.5 38.2857 44.4 38.1905C44.3333 38.1905 44.2667 38.1587 44.2 38.0952C44.0667 38.0318 43.9333 37.9683 43.8 37.9048C43.7 37.8095 43.6 37.7143 43.5 37.6191C43.7 37.9048 43.5 37.7143 43.5 37.6191C43.4333 37.6191 43.3667 37.5873 43.3 37.5238C43.1 37.3333 42.9 37.1429 42.7 36.9524C42.5667 36.8254 42.4667 36.6984 42.4 36.5714C42.3333 36.5714 42.3 36.5397 42.3 36.4762C42.2333 36.4127 42.2667 36.4445 42.4 36.5714C42.3 36.5714 42.3 36.4762 42.2 36.4762C42.1333 36.3492 42.0667 36.2222 42 36.0952C42 36.0952 42 36.0635 42 36C41.9333 36 41.9 35.9683 41.9 35.9048C41.9 35.8413 41.9333 35.873 42 36L41.9 35.8095C42 36 41.9 36.0953 41.9 35.9048C41.9 35.8095 41.9 36.1905 41.9 36C41.5 36.254 41.1 36.4762 40.7 36.6667C40.8333 36.7302 40.9667 36.7619 41.1 36.7619C41.1 36.7619 41.1333 36.7937 41.2 36.8572C41.2667 36.8572 41.3333 36.8889 41.4 36.9524C41.3 36.9524 41.3 36.8572 41.4 36.9524C41.4 37.0159 41.4333 37.0476 41.5 37.0476C41.6 37.2381 41.5 37.1429 41.5 37.0476C41.5667 37.1746 41.6333 37.2699 41.7 37.3333C41.7 37.4286 41.6 37.1429 41.7 37.3333C41.7 37.3968 41.7 37.4286 41.7 37.4286C41.7 37.5238 41.7 37.6191 41.7 37.5238C41.7 37.4286 41.7 37.6191 41.7 37.6191V37.7143C41.7 37.5873 41.7 37.5556 41.7 37.6191C41.7 37.6826 41.7 37.7143 41.7 37.7143C41.9 37.5238 42.1333 37.3333 42.4 37.1429C42.4667 37.0794 42.5333 37.0476 42.6 37.0476C42.5333 37.0476 42.5333 37.0476 42.6 37.0476C42.8 37.1429 42.7 37.1429 42.6 37.0476C42.5 37.0476 42.7 37.1429 42.7 37.1429L42.6 37.0476C42.5333 37.0476 42.4667 37.0159 42.4 36.9524C42.6 37.0476 42.3 36.8572 42.4 36.9524C42.4 36.8889 42.3667 36.8572 42.3 36.8572C41.9667 36.6032 41.6667 36.2857 41.4 35.9048C41.2667 35.7778 41.1333 35.6508 41 35.5238C40.9333 35.5238 40.8667 35.4921 40.8 35.4286C40.8 35.3651 40.7667 35.3333 40.7 35.3333C40.7 35.3333 40.6 35.1429 40.6 35.2381C40.7 35.3333 40.5 35.1429 40.5 35.1429C40.5 35.0794 40.5 35.0159 40.5 34.9524C40.5 35.1429 40.5 34.9524 40.5 34.8572C40.4333 34.7937 40.4 34.7302 40.4 34.6667C40.4 34.7619 40.4 34.5714 40.4 34.6667C40.4 34.6032 40.4 34.5397 40.4 34.4762C40.4 34.4127 40.4 34.3492 40.4 34.2857C40.4 34.4762 40.4 34.1905 40.4 34.1905C40.1333 34.4445 39.8333 34.6667 39.5 34.8572C39.3 34.8572 39.2667 34.8572 39.4 34.8572C39.2667 34.7937 39.2333 34.7937 39.3 34.8572C39.3 34.8572 39.3333 34.8572 39.4 34.8572C39.4667 34.9206 39.4333 34.9206 39.3 34.8572C39.4 34.8572 39.7 35.2381 39.7 35.2381C39.7667 35.2381 39.8 35.2699 39.8 35.3333C39.7333 35.2699 39.7333 35.2699 39.8 35.3333C39.8667 35.3968 39.9 35.4603 39.9 35.5238C40.0333 35.6508 40.1667 35.7778 40.3 35.9048C40.5 36.2857 40.8 36.5714 41.1 36.7619C41.5 37.1429 41.9 37.4286 42.3 37.8095C42.7667 37.3651 43.2333 36.9206 43.7 36.4762C43.1 36 42.7 35.4286 42.1 34.9524C41.9 34.8254 41.7 34.6984 41.5 34.5714C41.6 34.5714 41.4 34.4762 41.4 34.4762C41.3333 34.4127 41.2333 34.3492 41.1 34.2857C40.8333 34.0318 40.5667 33.746 40.3 33.4286C40.2333 33.9365 40.1667 34.4445 40.1 34.9524C39.9 35.0476 40.1 34.9524 40 34.9524C40.2 34.9524 39.9 34.9524 40 34.9524C40.5 35.0476 41.1 34.8572 41.2 34.2857C41.3 33.8095 41.1 33.2381 40.5 33.1429Z" fill="black"/>
</g>
</g>
<defs>
<clipPath id="clip0_9_34238">
<rect width="51" height="80" fill="white" transform="translate(25 10)"/>
</clipPath>
</defs>
</svg>
