<svg width="56" height="58" viewBox="0 0 56 58" fill="none" xmlns="http://www.w3.org/2000/svg">
<circle cx="17.434" cy="17.434" r="17.434" fill="#0AB975" fill-opacity="0.13"/>
<path fill-rule="evenodd" clip-rule="evenodd" d="M11.6224 14.2642H49.6602C50.5006 14.265 51.3064 14.5992 51.9007 15.1935C52.4949 15.7878 52.8292 16.5935 52.83 17.434V45.9623C52.8292 46.8027 52.4949 47.6085 51.9007 48.2027C51.3064 48.797 50.5006 49.1312 49.6602 49.1321H11.6224C10.782 49.1312 9.97625 48.797 9.38198 48.2027C8.78771 47.6085 8.45348 46.8027 8.45264 45.9623V17.434C8.45348 16.5935 8.78771 15.7878 9.38198 15.1935C9.97625 14.5992 10.782 14.265 11.6224 14.2642ZM29.0564 17.434H11.6224V45.9623H29.0564V17.434ZM32.2262 17.434V45.9623H49.6602V17.434H32.2262ZM25.8866 22.1887H14.7923V25.3585H25.8866V22.1887ZM46.4904 22.1887H35.396V25.3585H46.4904V22.1887ZM46.4904 30.1132H35.396V33.283H46.4904V30.1132ZM35.396 38.0377H46.4904V41.2076H35.396V38.0377ZM14.7923 30.1132H25.8866V33.283H14.7923V30.1132ZM25.8866 38.0377H14.7923V41.2076H25.8866V38.0377Z" fill="#0AB975"/>
</svg>
