<svg width="100" height="100" viewBox="0 0 100 100" fill="none" xmlns="http://www.w3.org/2000/svg">
<circle cx="64.5" cy="41.5" r="16.5" fill="#0AB975" fill-opacity="0.13"/>
<path d="M66 35H30C29.2044 35 28.4413 35.3161 27.8787 35.8787C27.3161 36.4413 27 37.2044 27 38V62C27 62.7956 27.3161 63.5587 27.8787 64.1213C28.4413 64.6839 29.2044 65 30 65H66C66.7956 65 67.5587 64.6839 68.1213 64.1213C68.6839 63.5587 69 62.7956 69 62V38C69 37.2044 68.6839 36.4413 68.1213 35.8787C67.5587 35.3161 66.7956 35 66 35V35ZM62.7 38L48 48.17L33.3 38H62.7ZM30 62V39.365L47.145 51.23C47.3961 51.4042 47.6944 51.4975 48 51.4975C48.3056 51.4975 48.6039 51.4042 48.855 51.23L66 39.365V62H30Z" fill="#0AB975"/>
</svg>
