<svg width="247" height="223" viewBox="0 0 247 223" fill="none" xmlns="http://www.w3.org/2000/svg">
<g clip-path="url(#clip0_26_34470)">
<path fill-rule="evenodd" clip-rule="evenodd" d="M109.3 83.7999C109.6 82.7999 109.8 81.6999 110 80.6999C110.6 80.2999 111.4 81.5999 111.7 80.1999C111.567 80.1999 111.367 80.1666 111.1 80.0999C111.1 79.6999 111.2 79.2999 111.4 78.7999C111.733 78.6666 112.2 78.4999 112.8 78.2999C112.5 77.7999 112.2 77.3999 111.9 76.8999C112.4 75.5999 112.9 74.2999 113.3 72.8999C113.7 72.8999 114.4 72.7999 114.4 72.6999C114.6 71.3999 115.5 71.4999 116.5 71.8999C116.2 70.4999 115.2 70.5999 114.3 70.4999C114.5 69.6999 114.667 68.8999 114.8 68.0999C115 67.1999 115.2 66.4999 116.4 66.7999C116.5 66.7999 116.7 66.3999 117 65.9999C116.3 65.9999 115.9 66.0999 115.2 66.0999C115.6 65.2999 115.3 64.5999 115.8 63.8999C116.3 63.2999 116 62.2999 116.1 61.4999C116.8 58.2999 117.1 54.9999 117.5 51.6999C117.7 50.5999 117.6 49.4999 117.6 48.3999C117.5 46.5999 118 44.6999 117.4 42.8999C117.3 42.5999 117.5 42.1999 117.6 41.8999C117.9 41.4999 117.9 41.1999 117.6 40.6999C117.1 39.6999 117.4 38.6999 118.2 37.7999C117.1 37.2999 117.1 36.4999 117.8 34.5999C117.6 33.5999 117.4 32.8999 117.4 32.2999C117.6 29.4999 117.6 29.4999 118 29.0999C117.8 28.1999 117.7 27.3999 117.6 26.5999C117.5 25.9999 117.7 25.2999 117.5 24.6999C117.1 23.6999 117.2 22.9999 118.1 22.4999C117 21.4999 118.5 19.8999 116.9 18.9999C117.5 18.7999 117.7 18.6999 117.9 18.6999C117.9 18.4999 117.9 18.3999 117.9 18.2999C117.4 17.8999 117.3 17.4999 117.3 16.7999C117.4 15.4999 117.2 14.1999 117.3 12.8999C117.4 12.0999 117.6 11.3999 117.4 10.5999C117.1 9.8999 117.2 9.0999 117.1 8.2999C117.1 8.0999 117.1 7.8999 117.1 7.6999C117.9 5.7999 117.5 3.7999 117.9 1.7999C117.9 1.2999 118.1 0.899902 118.2 0.399902C118.4 0.399902 118.567 0.399902 118.7 0.399902C118.8 0.899902 119.1 1.3999 119.2 1.8999C121.133 9.76657 123.5 17.4999 126.3 25.0999C128.9 32.2999 131.7 39.4999 134.9 46.5999C135.7 48.1999 136.2 49.9999 136.9 51.6999C137.4 52.7999 138 53.9999 138.7 54.8999C139.2 55.5999 139.1 55.9999 138.7 56.5999C139.6 57.1999 140.3 57.8999 140.2 58.9999C140.2 59.1999 140.5 59.4999 140.8 59.5999C141.6 60.0999 141.7 60.7999 141.6 61.6999C141.6 62.2999 141.7 63.0999 142.1 63.5999C142.9 64.4999 143.2 65.7999 144.3 66.4999C144.5 66.5999 144.5 66.9999 144.7 67.1999C144.9 67.5999 144.9 68.2999 145.7 68.2999C145.8 68.1999 146 68.3999 146.1 68.4999C146.9 70.2999 148.2 71.6999 149.1 73.3999C149.2 73.7999 148.4 74.2999 149.2 74.2999C150.1 74.2999 149.7 74.8999 149.9 75.2999C150 75.5999 150.1 75.9999 150.3 76.3999C150.5 76.1999 150.7 75.9999 151 75.5999C152.2 77.0999 153.8 78.0999 154.6 79.8999C155 80.6999 155.9 81.2999 156.6 81.9999C156.933 82.3332 157.233 82.7332 157.5 83.1999C157.9 83.7999 158 84.4999 159 84.3999C159.7 85.5999 161.4 85.4999 162.2 86.7999C162.5 87.1999 163.2 87.3999 163.7 87.7999C164.3 88.1999 164.8 88.5999 165.4 88.8999C165.7 89.0999 166.1 89.2999 166.5 89.3999C167.1 89.5332 167.7 89.6332 168.3 89.6999C169.2 89.7999 169.9 90.2999 170.8 90.2999C171.7 90.2999 172.5 91.0999 173.4 91.4999C174.733 92.0332 176.067 92.5332 177.4 92.9999C178.8 93.4666 180.2 93.8999 181.6 94.2999C185.5 95.4999 189.5 95.4999 193.6 95.6999C197.7 95.8999 201.8 96.1999 206 96.2999C209.7 96.3999 213.5 96.0999 217.2 95.9999C218.5 95.9999 219.7 95.8999 221 95.8999C221.6 95.9999 222.1 96.2999 222.7 96.4999C222.4 97.4999 222.4 98.3999 222.7 99.3999C223 100.3 222.7 101.3 222.7 102.4C221.3 102.7 220.1 103 218.9 103.4C215.633 104.467 212.367 105.6 209.1 106.8C204.9 108.4 200.6 110 196.6 112.3C193.3 114.1 190.1 116.1 186.9 118.2C183.8 120.2 180.8 122.3 178 124.6C175.9 126.4 174.3 128.6 172.5 130.6C171.7 131.5 171.1 132.6 170.4 133.7C170.1 134.3 169.6 134.3 168.9 134.1C168.9 134.5 168.9 134.8 169 135.2C168.1 135.8 167.2 136.5 166.7 137.6C166.2 138.5 165.4 139.3 164.6 139.9C163.9 140.6 163.4 141.4 162.6 142.1C161.9 142.7 161.7 143.9 161.1 144.8C160.1 146.1 159.7 147.8 158.3 148.7C158.1 148.9 158.1 149.4 157.9 149.7C157.5 150.5 157.1 151.4 156.6 152.2C155.9 153.7 155.2 155.3 154.4 156.8C153.7 158.1 153.6 159.8 152.3 160.7C151.9 161.9 151.6 163 151.2 164.1C151 164.233 150.767 164.333 150.5 164.4C150.5 164.6 150.5 164.767 150.5 164.9C150.5 165.4 150.7 166 150.5 166.2C149.5 167.6 149.9 169.3 149.2 170.7C148.6 172.1 148.4 173.8 147.9 175.3C147.5 176.2 147.1 177 146.9 177.9C146.4 179.7 145.9 181.5 145.5 183.4C144.9 186.6 144.2 189.8 143.6 193C142.9 196.5 142.5 200 142.3 203.5C142 209 141.4 214.4 140.9 219.9C140.8 221.1 140 221.7 138.7 221.9C138.5 221.1 138.3 220.3 138.1 219.5C136.4 213 134.8 206.4 132.9 199.8C130.9 193 128.7 186.3 126.5 179.6C125.3 176 123.9 172.5 122.6 168.9C121.1 164.8 118.8 161.1 116.3 157.5C113.7 153.6 110.9 149.9 107.6 146.6C104.4 143.4 101 140.5 96.8 138.8C94.7 137.9 92.4 137.2 90.3 136.4C88.5 135.8 86.7 134.9 84.8 134.3C83.1 133.8 81.2 133.4 79.4 133.5C75.6 133.6 72 132.9 68.3 132.1C65.7 131.6 63.1 131.2 60.4 131.4C57.8 131.6 55.1 131.8 52.5 131.7C50.1 131.7 47.8 131.3 45.4 131C44.3 130.9 43.5 128.7 44.3 127.8C44.8 127.2 45.6 126.8 46.3 126.5C47.7 126.1 49.1 126 50.5 125.7C61.3 123.5 71.1 119.2 79.9 112.7C83.3 110.2 86.2 107.3 89.4 104.6C91.2 103.1 93.1 101.6 95 100.2C96.1 99.2999 97.3 98.3999 98.4 97.4999C99.8 96.0999 101.2 94.6999 102.7 93.3999C103.3 92.7999 103.1 91.5999 104.2 91.3999C105 89.6999 106.8 88.5999 107.4 86.5999C107.7 85.5999 108.7 84.7999 109.3 83.7999ZM117.6 48.3999C117.6 48.3999 117.633 48.3999 117.7 48.3999C117.633 48.3999 117.6 48.3666 117.6 48.2999C117.6 48.3666 117.6 48.3999 117.6 48.3999ZM118.4 49.5999C119 48.4999 119 48.4999 117.7 48.3999C117.9 48.7999 118.133 49.1999 118.4 49.5999ZM111 85.7999C110.6 86.0999 110.3 86.1999 110 86.3999C110.067 86.5332 110.133 86.6332 110.2 86.6999C110.7 86.5999 111.3 86.4999 112 86.2999C111.4 85.0999 111 83.9999 110.5 82.8999C110.1 83.2332 109.733 83.5332 109.4 83.7999C109.933 84.4666 110.467 85.1332 111 85.7999ZM111.2 87.6999C110.5 86.6999 110 87.3999 109.6 87.6999C108.933 88.2332 109.033 88.9999 109.9 89.9999C109.8 89.3999 109.7 88.9999 109.7 88.5999C110.2 88.2999 110.6 87.9999 111.2 87.6999ZM111.9 82.8999C111.3 84.1999 112.3 83.9999 112.7 84.3999C112.8 84.2999 112.8 84.1999 113 83.9999C112.7 83.6999 112.4 83.3999 111.9 82.8999ZM175.2 106.1C174.9 106.3 174.6 106.4 174.3 106.6C174.3 106.7 174.3 106.9 174.2 107.1C174.6 107.1 174.9 107.1 175.3 107C175.2 106.7 175.2 106.4 175.2 106.1ZM113.8 74.5999C113.867 74.6666 113.967 74.7332 114.1 74.7999C114.2 74.5999 114.3 74.4999 114.4 74.2999C114.5 74.0999 114.5 73.8999 114.5 73.6999C114.367 73.6332 114.267 73.5999 114.2 73.5999C114.067 73.9332 113.933 74.2666 113.8 74.5999ZM116.5 73.4999C116.567 73.4999 116.633 73.4666 116.7 73.3999C116.7 73.1999 116.7 72.8999 116.6 72.6999C116.6 72.6999 116.2 72.7999 115.9 72.7999C116.2 73.0999 116.3 73.2999 116.5 73.4999ZM105.7 94.9999C105.767 95.0666 105.867 95.1332 106 95.1999C106.067 94.9999 106.167 94.7999 106.3 94.5999C106.3 94.5999 106.267 94.5666 106.2 94.4999C106.067 94.6999 105.9 94.8666 105.7 94.9999ZM107.4 92.2999C107.4 92.1666 107.367 92.0332 107.3 91.8999C107.1 91.9666 106.867 92.0332 106.6 92.0999C106.6 92.1666 106.6 92.2332 106.6 92.2999C106.867 92.2999 107.133 92.2999 107.4 92.2999Z" fill="#100F12"/>
<path d="M1.7 71.3001C1.2 71.4001 0.7 71.4001 0 71.4001C0 68.0001 0.4 64.7001 1.6 61.4001C2 61.4001 2.3 61.4001 2.7 61.4001C2.1 60.1001 2.2 59.9 3.2 59.1C5.6 57.3 8.2 55.9001 11 54.9001C12.8 54.3001 14.6 53.4 16.6 53.6C17.9 53.7 19.2 53.3 20.5 53.7C21.1 53.9 21.9 53.7 22.5 53.8C23.5 54.1 24.7 53.8 25.6 54.8C25.9 55.2 26.7 55.2001 27.3 55.4001C27.2 55.6001 27.2 55.8 27.2 56.2C28.2 55.5 28.9 56.3 29.2 56.8C29.7 57.8 31.3 57.8 31 59.1C31.5 59.5 32.2 59.8 32.3 60.2C32.7 61.8 33.8 63.1 34 64.7C34.4 67.3 34.7 70.0001 32.8 72.3001C32.7 72.4001 32.5 72.6 32.5 72.7C32.6 74 31.6 74.5 30.8 75.2C30.3 75.6 29.8 76.1 29.4 76.7C28.7 77.7 27.3 77.5 26.6 78.6C26 79.5 25 80.1 23.6 80.2C22.7 80.2 21.7 80.6 20.9 81.2C19.4 82.3 17.7 82.2001 15.9 82.4001C15.4 82.4001 14.8 82.7 14.2 82.6C13.1 82.6 12 82.5001 10.9 82.3001C10.1 82.2001 9.2 82.0001 8.3 81.9001C7.4 81.9001 7.3 81.5 7.5 80.7C6 80.2 5.1 79.3 4.9 77.6C4.8 76.3 4.1 75.1 2.7 74.5C1.9 74.2 1.2 73.5 0.4 73C1 72.5 1.4 72.2001 1.9 71.8001C1.83333 71.6667 1.76667 71.5001 1.7 71.3001Z" fill="#100F12"/>
<path d="M225.2 162.5C224.5 160.5 225.6 158.9 227 157.3C230.1 153.8 234.1 153.1 238.4 153.9C240.1 154.2 241.6 154.9 243 156.1C244.3 157.3 244.5 159 245.2 160.4C245.3 160.6 245.2 161 245.3 161.2C246.2 162.7 246.3 164.2 246.2 165.9C246.2 166.3 246.5 166.7 245.9 167C245.8 167.1 245.9 167.6 245.8 167.9C245.8 168.2 245.8 168.7 245.6 168.8C244 170.3 243.4 172.7 241 173.4C240.4 175.1 238.4 174.6 237.4 175.7C237.2 175.9 236.7 175.8 236.4 175.9C235.4 175.9 234.4 176.1 233.5 176C232.9 176 232.1 176 231.8 175.1C231.7 174.8 231.2 174.6 230.9 174.4C229 173.5 227.6 172.4 227.4 170.1C227.4 169.9 227.3 169.5 227.1 169.4C225.3 168 225.6 166 225.3 164.1C225.2 163.7 225.2 163.2 225.2 162.5Z" fill="#100F12"/>
</g>
<defs>
<clipPath id="clip0_26_34470">
<rect width="247" height="222" fill="white" transform="translate(0 0.5)"/>
</clipPath>
</defs>
</svg>
