<svg width="40" height="40" viewBox="0 0 40 40" fill="none" xmlns="http://www.w3.org/2000/svg">
<g clip-path="url(#clip0_96_23)">
<path d="M30.2498 13.1605V8.40046C30.8773 8.10582 31.4085 7.6395 31.7819 7.05548C32.1553 6.47147 32.3557 5.79364 32.3598 5.10046V5.00046C32.3598 4.02884 31.9745 3.09688 31.2884 2.40891C30.6023 1.72093 29.6714 1.33311 28.6998 1.33046H28.5898C28.1083 1.33046 27.6316 1.42546 27.1869 1.61001C26.7422 1.79457 26.3383 2.06506 25.9983 2.40598C25.6583 2.7469 25.3889 3.15156 25.2055 3.59677C25.0222 4.04197 24.9285 4.51898 24.9298 5.00046V5.10046C24.9256 5.79037 25.118 6.46719 25.4847 7.05165C25.8513 7.6361 26.3768 8.10398 26.9998 8.40046V13.1605C25.1902 13.4404 23.4863 14.1924 22.0598 15.3405L8.99982 5.17046C9.08657 4.84368 9.13688 4.50831 9.14982 4.17046C9.15972 3.35001 8.92562 2.54513 8.47721 1.85798C8.02881 1.17084 7.38634 0.632436 6.63137 0.311121C5.8764 -0.0101937 5.04297 -0.0999258 4.2369 0.0533171C3.43084 0.20656 2.68848 0.595866 2.10409 1.17181C1.5197 1.74776 1.11962 2.48436 0.954656 3.28811C0.789691 4.09186 0.867277 4.92651 1.17756 5.68608C1.48785 6.44565 2.01684 7.09589 2.69738 7.55425C3.37792 8.01261 4.17931 8.25842 4.99982 8.26046C5.70292 8.25385 6.3922 8.0643 6.99982 7.71046L19.8498 17.7105C18.6941 19.4593 18.0922 21.5157 18.1225 23.6117C18.1529 25.7076 18.814 27.7458 20.0198 29.4605L16.0998 33.3705C15.7772 33.264 15.4396 33.21 15.0998 33.2105C14.4269 33.2105 13.7692 33.4101 13.2098 33.7842C12.6505 34.1582 12.2147 34.6898 11.9577 35.3117C11.7006 35.9335 11.6339 36.6176 11.7659 37.2775C11.8979 37.9373 12.2227 38.5431 12.6992 39.0182C13.1757 39.4933 13.7825 39.8163 14.4427 39.9463C15.1029 40.0764 15.7868 40.0076 16.4079 39.7488C17.029 39.4899 17.5593 39.0526 17.9317 38.4921C18.3041 37.9317 18.5018 37.2733 18.4998 36.6005C18.4933 36.2613 18.4395 35.9247 18.3398 35.6005L22.2098 31.7305C23.4727 32.6932 24.9387 33.3549 26.4961 33.6651C28.0535 33.9753 29.6612 33.9257 31.1966 33.5202C32.732 33.1147 34.1545 32.364 35.3556 31.3253C36.5568 30.2866 37.5049 28.9873 38.1277 27.5265C38.7505 26.0657 39.0315 24.482 38.9493 22.8961C38.8672 21.3103 38.4239 19.7641 37.6534 18.3755C36.883 16.987 35.8056 15.7927 34.5035 14.8837C33.2014 13.9747 31.7089 13.3751 30.1398 13.1305M28.6398 28.8205C27.5821 28.8185 26.5487 28.503 25.6702 27.914C24.7918 27.3249 24.1076 26.4887 23.7042 25.5109C23.3008 24.5331 23.1963 23.4577 23.4038 22.4206C23.6114 21.3835 24.1217 20.4311 24.8703 19.6839C25.6189 18.9367 26.5722 18.4282 27.6098 18.2225C28.6473 18.0169 29.7225 18.1234 30.6995 18.5287C31.6765 18.9339 32.5114 19.6196 33.0989 20.4992C33.6863 21.3788 33.9998 22.4128 33.9998 23.4705C33.9998 24.1739 33.8611 24.8704 33.5916 25.5201C33.3221 26.1699 32.9272 26.7601 32.4293 27.257C31.9315 27.7539 31.3405 28.1478 30.6902 28.4161C30.04 28.6844 29.3432 28.8218 28.6398 28.8205Z" fill="#FF7A59"/>
</g>
<defs>
<clipPath id="clip0_96_23">
<rect width="40" height="40" fill="white"/>
</clipPath>
</defs>
</svg>
