<svg width="40" height="40" viewBox="0 0 40 40" fill="none" xmlns="http://www.w3.org/2000/svg">
<g clip-path="url(#clip0_96_7)">
<mask id="mask0_96_7" style="mask-type:luminance" maskUnits="userSpaceOnUse" x="0" y="0" width="40" height="40">
<path d="M0 0H40V40H0V0Z" fill="white"/>
</mask>
<g mask="url(#mask0_96_7)">
<path d="M35.2 0H4.8C3.52696 0 2.30606 0.505713 1.40589 1.40589C0.505713 2.30606 0 3.52696 0 4.8L0 35.2C0 35.8303 0.124156 36.4545 0.365378 37.0369C0.606601 37.6192 0.960166 38.1484 1.40589 38.5941C1.85161 39.0398 2.38076 39.3934 2.96312 39.6346C3.54548 39.8758 4.16966 40 4.8 40H35.2C36.473 40 37.6939 39.4943 38.5941 38.5941C39.4943 37.6939 40 36.473 40 35.2V4.8C40 3.52696 39.4943 2.30606 38.5941 1.40589C37.6939 0.505713 36.473 0 35.2 0Z" fill="#FF4F00"/>
<path d="M6.02791 32.5394L6.02191 32.5214L9.62991 29.2194V27.6294H3.84291V29.2194H7.29891L7.30491 29.2344L3.73291 32.5394V34.1294H9.68691V32.5394H6.02791ZM13.2399 27.4774C12.5719 27.4774 12.0279 27.5774 11.6069 27.7794C11.2155 27.9551 10.886 28.2442 10.6609 28.6094C10.4451 28.9769 10.3094 29.3858 10.2629 29.8094L12.0189 30.0554C12.0819 29.6814 12.2089 29.4164 12.3999 29.2604C12.6169 29.0974 12.8829 29.0144 13.1549 29.0274C13.5109 29.0274 13.7689 29.1224 13.9299 29.3124C14.0889 29.5024 14.1699 29.7674 14.1699 30.1144V30.2884H12.4819C11.6219 30.2884 11.0049 30.4784 10.6299 30.8594C10.2549 31.2404 10.0669 31.7434 10.0679 32.3694C10.0679 33.0094 10.2549 33.4854 10.6299 33.7974C11.0049 34.1104 11.4759 34.2654 12.0439 34.2634C12.7479 34.2634 13.2899 34.0214 13.6689 33.5364C13.8929 33.2384 14.0529 32.8984 14.1389 32.5354H14.2019L14.4439 34.1254H16.0349V30.0974C16.0349 29.2654 15.8149 28.6204 15.3769 28.1634C14.9379 27.7054 14.2269 27.4774 13.2399 27.4774ZM13.7959 32.4424C13.5429 32.6534 13.2129 32.7584 12.8009 32.7584C12.4609 32.7584 12.2259 32.6984 12.0939 32.5804C12.0294 32.5242 11.9782 32.4545 11.9438 32.3762C11.9094 32.2979 11.8927 32.2129 11.8949 32.1274C11.8912 32.0469 11.9039 31.9664 11.9323 31.8909C11.9606 31.8155 12.0041 31.7466 12.0599 31.6884C12.1203 31.6319 12.1914 31.5882 12.2691 31.5599C12.3468 31.5315 12.4293 31.5191 12.5119 31.5234H14.1719V31.6334C14.1754 31.7882 14.1433 31.9417 14.0781 32.0821C14.0129 32.2226 13.9164 32.3452 13.7959 32.4424ZM25.6549 27.6294H23.7749V34.1314H25.6549V27.6294ZM36.7519 27.6294C36.2209 27.6294 35.8019 27.8164 35.4959 28.1904C35.2759 28.4604 35.1089 28.8574 34.9959 29.3844H34.9399L34.6939 27.6284H33.0899V34.1304H34.9699V30.7964C34.9699 30.3764 35.0679 30.0534 35.2649 29.8294C35.4619 29.6054 35.8249 29.4924 36.3549 29.4924H37.0679V27.6294H36.7519ZM31.2239 27.8414C30.7839 27.5804 30.2309 27.4504 29.5639 27.4504C28.5119 27.4504 27.6889 27.7504 27.0939 28.3484C26.4989 28.9484 26.2019 29.7734 26.2019 30.8254C26.1867 31.4618 26.3256 32.0924 26.6069 32.6634C26.8649 33.1714 27.2649 33.5934 27.7599 33.8774C28.2579 34.1654 28.8499 34.3094 29.5359 34.3104C30.1299 34.3104 30.6259 34.2184 31.0239 34.0354C31.3989 33.8714 31.7239 33.6144 31.9709 33.2884C32.2059 32.9684 32.3809 32.6084 32.4859 32.2254L30.8659 31.7714C30.7981 32.0204 30.6672 32.2478 30.4859 32.4314C30.3019 32.6134 29.9959 32.7054 29.5659 32.7054C29.0549 32.7054 28.6739 32.5584 28.4229 32.2654C28.2409 32.0544 28.1269 31.7524 28.0759 31.3614H32.5099C32.5289 31.1784 32.5379 31.0244 32.5379 30.9014V30.4964C32.5486 29.9523 32.4361 29.4129 32.2089 28.9184C31.9963 28.4683 31.6526 28.0928 31.2229 27.8414H31.2239ZM29.5089 28.9994C30.2709 28.9994 30.7029 29.3744 30.8049 30.1244H28.1099C28.1529 29.8744 28.2569 29.6384 28.4119 29.4374C28.6589 29.1444 29.0239 28.9984 29.5089 28.9994ZM24.7359 25.0084C24.5945 25.0036 24.4536 25.0273 24.3215 25.0779C24.1894 25.1286 24.0688 25.2053 23.9669 25.3034C23.8665 25.4025 23.7877 25.5215 23.7357 25.6526C23.6838 25.7838 23.6596 25.9244 23.6649 26.0654C23.6599 26.2073 23.6841 26.3487 23.7361 26.4808C23.7881 26.6129 23.8667 26.7328 23.9671 26.8332C24.0675 26.9336 24.1875 27.0122 24.3196 27.0642C24.4517 27.1162 24.593 27.1405 24.7349 27.1354C24.8763 27.141 25.0174 27.1171 25.149 27.0651C25.2807 27.0132 25.4 26.9343 25.4995 26.8336C25.599 26.733 25.6763 26.6126 25.7267 26.4804C25.777 26.3481 25.7993 26.2068 25.7919 26.0654C25.798 25.9252 25.7749 25.7853 25.724 25.6545C25.6732 25.5236 25.5957 25.4048 25.4965 25.3055C25.3973 25.2063 25.2786 25.1287 25.1478 25.0777C25.0171 25.0267 24.8771 25.0035 24.7369 25.0094L24.7359 25.0084ZM20.8529 27.4504C20.2129 27.4504 19.6989 27.6514 19.3099 28.0534C19.0219 28.3514 18.8109 28.7964 18.6769 29.3874H18.6169L18.3709 27.6314H16.7659V35.9994H18.6459V32.5524H18.7139C18.7709 32.7824 18.8519 33.0054 18.9539 33.2194C19.1129 33.5674 19.3739 33.8594 19.7019 34.0564C20.0419 34.2414 20.4249 34.3334 20.8119 34.3234C21.5989 34.3234 22.1979 34.0174 22.6099 33.4034C23.0209 32.7914 23.2269 31.9364 23.2269 30.8394C23.2269 29.7794 23.0279 28.9494 22.6299 28.3494C22.2319 27.7494 21.6399 27.4504 20.8529 27.4504ZM21.0429 32.1624C20.8249 32.4794 20.4819 32.6384 20.0149 32.6384C19.8224 32.6472 19.6306 32.6101 19.4554 32.5301C19.2801 32.4501 19.1264 32.3296 19.0069 32.1784C18.7639 31.8724 18.6429 31.4544 18.6429 30.9234V30.8004C18.6429 30.2604 18.7649 29.8484 19.0069 29.5614C19.2499 29.2754 19.5859 29.1334 20.0149 29.1364C20.4899 29.1364 20.8349 29.2874 21.0499 29.5894C21.2659 29.8904 21.3729 30.3114 21.3729 30.8514C21.3749 31.4094 21.2649 31.8464 21.0459 32.1614H21.0439L21.0429 32.1624Z" fill="#FFFDF9"/>
</g>
</g>
<defs>
<clipPath id="clip0_96_7">
<rect width="40" height="40" fill="white"/>
</clipPath>
</defs>
</svg>
