<svg width="40" height="40" viewBox="0 0 40 40" fill="none" xmlns="http://www.w3.org/2000/svg">
<path d="M28.5927 20.4589L29.865 12.7143C30.2317 10.3529 29.865 8.74325 28.6002 7.29303C27.2156 5.68335 24.7085 5 21.5054 5H12.2029C11.8856 4.99961 11.5786 5.11411 11.3371 5.3229C11.0957 5.53169 10.9356 5.82105 10.8857 6.13892L7.009 31.0661C6.99175 31.1819 6.99936 31.3 7.03132 31.4126C7.06328 31.5251 7.11883 31.6292 7.19418 31.7179C7.26952 31.8066 7.36287 31.8778 7.46783 31.9264C7.5728 31.9751 7.68689 32.0002 7.8023 32H14.2909C14.2909 32 29.0342 20.6943 28.5927 20.4589Z" fill="#253B80"/>
<path d="M30.3698 13C30.3698 13.1769 30.3076 13.3539 30.2688 13.5382C28.9944 19.746 24.6348 21.8914 19.0708 21.8914H16.2344C15.9054 21.8898 15.5869 22.0007 15.3371 22.2038C15.0873 22.4069 14.9231 22.6886 14.8745 22.9973L13.4213 31.7265L13.0095 34.2038C12.9925 34.302 12.9984 34.4025 13.0265 34.4984C13.0547 34.5943 13.1045 34.6832 13.1725 34.759C13.2406 34.8347 13.3252 34.8955 13.4205 34.9372C13.5158 34.9788 13.6195 35.0002 13.7244 35H18.7522C19.0401 35 19.3186 34.9029 19.5378 34.7259C19.7571 34.549 19.9028 34.3038 19.9489 34.0342L20.0033 33.7909L20.9436 28.0918L21.0058 27.7748C21.0519 27.5052 21.1977 27.26 21.4169 27.0831C21.6362 26.9061 21.9147 26.809 22.2025 26.809H22.9796C27.852 26.809 31.6598 24.929 32.7788 19.5027C33.2451 17.2319 33.0042 15.3371 31.7686 14.0101C31.373 13.5933 30.8986 13.2507 30.3698 13Z" fill="#179BD7"/>
<path d="M28.7061 12.4378C28.5181 12.3858 28.33 12.3339 28.1269 12.2894L27.51 12.1707C26.7081 12.0538 25.8984 11.9967 25.0878 12.0001H17.7608C17.5863 11.9983 17.4138 12.0364 17.2568 12.1114C17.0843 12.1926 16.9344 12.314 16.8204 12.4653C16.7063 12.6165 16.6315 12.793 16.6023 12.9792L15.0451 22.7181L15 23C15.047 22.6894 15.206 22.406 15.4478 22.2017C15.6896 21.9973 15.998 21.8857 16.3164 21.8874H19.0622C24.4483 21.8874 28.6685 19.729 29.9022 13.4836C29.9398 13.2982 29.9699 13.1202 30 12.9421C29.6742 12.7733 29.3344 12.6318 28.9845 12.5194L28.7061 12.4378Z" fill="#222D65"/>
</svg>
