<svg width="40" height="40" viewBox="0 0 40 40" fill="none" xmlns="http://www.w3.org/2000/svg">
<g clip-path="url(#clip0_96_25)">
<path d="M4.97606 31.8803C3.17306 31.8853 1.51306 30.8843 0.622062 29.2573C0.191205 28.4612 -0.0226712 27.5658 0.00190226 26.661C0.0264757 25.7562 0.288634 24.8737 0.762062 24.1023L9.72306 9.49926C10.6551 7.90126 12.3521 6.94726 14.1511 7.00226C15.9491 7.04526 17.5881 8.09226 18.4341 9.73726C18.8445 10.5439 19.0358 11.4441 18.989 12.3479C18.9421 13.2518 18.6587 14.1274 18.1671 14.8873L9.20206 29.5003C8.27806 30.9913 6.68406 31.8903 4.97606 31.8823V31.8803Z" fill="#F62B54"/>
<path d="M20.352 31.8805C19.4594 31.8766 18.5843 31.6316 17.8195 31.1712C17.0546 30.7109 16.4284 30.0525 16.007 29.2655C15.5775 28.4716 15.3638 27.5788 15.3875 26.6764C15.4112 25.7741 15.6714 24.8938 16.142 24.1235L25.087 9.55449C26.007 7.93549 27.704 6.96049 29.515 7.00749C31.338 7.04549 32.989 8.10649 33.827 9.75949C34.2358 10.5729 34.4212 11.4803 34.3642 12.3888C34.3073 13.2973 34.0101 14.1745 33.503 14.9305L24.558 29.5005C23.642 30.9905 22.052 31.8855 20.352 31.8805Z" fill="#FFCC00"/>
<path d="M35.3841 32.0009C37.9341 32.0009 40.0001 29.9049 40.0001 27.3149C40.0001 24.7289 37.9341 22.6289 35.3841 22.6289C32.8341 22.6289 30.7671 24.7249 30.7671 27.3149C30.7671 29.9049 32.8341 32.0009 35.3841 32.0009Z" fill="#00CA72"/>
</g>
<defs>
<clipPath id="clip0_96_25">
<rect width="40" height="40" fill="white"/>
</clipPath>
</defs>
</svg>
