<svg width="40" height="40" viewBox="0 0 40 40" fill="none" xmlns="http://www.w3.org/2000/svg">
<rect width="40" height="40" rx="5" fill="white"/>
<path d="M32.8234 19.5187C32.8914 18.4041 33.1888 17.8975 33.7668 17.8975C34.3447 17.8975 34.6167 18.4294 34.6167 19.5187H32.8234ZM36.9964 20.1773C37.0365 19.1459 36.7383 18.1295 36.1465 17.281C35.8627 16.9279 35.4976 16.6476 35.0819 16.4639C34.6663 16.2803 34.2123 16.1985 33.7583 16.2256C31.642 16.2256 30.3586 17.7792 30.3586 20.2702C30.3168 20.8318 30.3885 21.396 30.5695 21.9297C30.7505 22.4633 31.0371 22.9556 31.4125 23.3776C31.7761 23.6939 32.1991 23.9359 32.657 24.0894C33.115 24.243 33.599 24.3053 34.0812 24.2726C35.0142 24.3056 35.9382 24.0805 36.75 23.6224L36.4695 21.9336C35.8168 22.2811 35.085 22.4556 34.3447 22.4403C33.9675 22.4736 33.5914 22.3651 33.2908 22.1363C33.1458 21.9938 33.0306 21.8242 32.9518 21.6372C32.8731 21.4503 32.8323 21.2497 32.8319 21.047H36.9964V20.2026V20.1773ZM27.0355 21.8661C26.9627 22.0324 26.8445 22.1751 26.6943 22.278C26.5441 22.381 26.3679 22.4401 26.1856 22.4487C25.9529 22.4506 25.723 22.3986 25.5141 22.2967V18.5983C25.6284 18.456 25.7714 18.3389 25.9338 18.2545C26.0963 18.1702 26.2746 18.1205 26.4575 18.1085C27.0865 18.1085 27.4009 18.7841 27.4009 20.1098C27.4375 20.7115 27.3206 21.3128 27.061 21.8577L27.0355 21.8661ZM29.1093 17.0868C28.8945 16.8094 28.6153 16.5878 28.2957 16.4408C27.976 16.2937 27.6253 16.2257 27.2734 16.2424C26.9009 16.2492 26.5342 16.3357 26.1983 16.4959C25.8625 16.6562 25.5653 16.8866 25.3272 17.1713L25.1912 16.3944H23.0069V27L25.4971 26.5947V24.0615C25.8622 24.1792 26.2437 24.2391 26.6275 24.2388C27.0386 24.2576 27.4491 24.1906 27.8326 24.0423C28.2161 23.894 28.5641 23.6675 28.8543 23.3776C29.6068 22.418 29.9679 21.2121 29.8657 20C29.9426 18.9621 29.6771 17.9276 29.1093 17.0531V17.0868ZM19.5223 16.386H22.0295V24.1375H19.5308V16.3691L19.5223 16.386ZM20.7716 15.6176C21.0329 15.6193 21.2888 15.5437 21.5067 15.4005C21.7246 15.2574 21.8948 15.053 21.9956 14.8136C22.0963 14.5741 22.1231 14.3102 22.0726 14.0555C22.022 13.8009 21.8964 13.5669 21.7116 13.3833C21.5269 13.1998 21.2914 13.075 21.035 13.0247C20.7787 12.9745 20.5131 13.0011 20.2721 13.1012C20.031 13.2014 19.8253 13.3704 19.6812 13.5869C19.5371 13.8035 19.4611 14.0577 19.4628 14.3172C19.4628 14.6621 19.6007 14.9929 19.8461 15.2367C20.0916 15.4806 20.4245 15.6176 20.7716 15.6176ZM18.4429 16.2847C18.1164 16.2689 17.7938 16.3605 17.525 16.5452C17.2561 16.7299 17.056 16.9974 16.9555 17.3064L16.811 16.386H14.6438V24.1375H17.134V19.0712C17.3021 18.8851 17.5123 18.7415 17.7473 18.6519C17.9822 18.5624 18.2352 18.5295 18.4854 18.5561C18.6322 18.5393 18.7805 18.5393 18.9273 18.5561V16.3269C18.7749 16.2865 18.6176 16.2667 18.4599 16.2678L18.4429 16.2847ZM13.6834 18.2099L13.9808 16.3775H12.349V14.1483L10.2157 14.4945L9.90977 16.3775L9.15335 16.4958L8.87288 18.1845H9.93527V21.7817C9.8903 22.1486 9.93134 22.521 10.0552 22.8696C10.179 23.2182 10.3823 23.5337 10.6492 23.7913C11.188 24.1551 11.8357 24.3249 12.485 24.2726C12.9279 24.2816 13.3695 24.2218 13.7939 24.0953V22.1532C13.5575 22.2144 13.3154 22.2512 13.0714 22.263C12.5785 22.263 12.366 22.0096 12.366 21.4186V18.2014L13.6834 18.2099ZM6.55263 19.2907C5.8217 19.012 5.42225 18.8094 5.42225 18.4885C5.42225 18.1677 5.66022 18.0494 6.06818 18.0494C6.77832 18.0843 7.47194 18.2746 8.09946 18.6067L8.40543 16.766C7.62893 16.4056 6.78066 16.2238 5.92369 16.234C5.18863 16.1998 4.46448 16.4207 3.87541 16.8588C3.61525 17.0797 3.40894 17.3563 3.27202 17.6678C3.1351 17.9794 3.07115 18.3177 3.08499 18.6574C3.08499 20.0084 3.9349 20.5911 5.26926 21.0808C6.11917 21.3848 6.43364 21.6128 6.43364 21.9252C6.43364 22.2376 6.15317 22.4403 5.64322 22.4403C4.81468 22.3832 4.00985 22.1408 3.28897 21.731L3 23.614C3.86367 24.0496 4.8191 24.2754 5.78771 24.2726C6.55009 24.3147 7.30454 24.1005 7.92948 23.6647C8.2129 23.4341 8.43758 23.1403 8.58526 22.8073C8.73294 22.4742 8.79945 22.1113 8.77939 21.7479C8.77939 20.3546 7.92948 19.7804 6.55263 19.2907Z" fill="black"/>
</svg>
