<svg width="40" height="40" viewBox="0 0 40 40" fill="none" xmlns="http://www.w3.org/2000/svg">
<g clip-path="url(#clip0_96_31)">
<path d="M8.39999 25.2804C8.39801 26.1106 8.15001 26.9217 7.68731 27.611C7.2246 28.3004 6.56797 28.8372 5.80034 29.1535C5.03272 29.4699 4.18856 29.5516 3.3745 29.3884C2.56044 29.2252 1.813 28.8244 1.22662 28.2367C0.640244 27.6489 0.241224 26.9005 0.0799752 26.0861C-0.0812738 25.2716 0.00248203 24.4277 0.320662 23.6608C0.638842 22.8939 1.17717 22.2386 1.86764 21.7775C2.55811 21.3164 3.36973 21.0704 4.19999 21.0704H8.39999V25.2804ZM10.52 25.2804C10.4922 24.7109 10.5804 24.1417 10.7792 23.6074C10.978 23.073 11.2832 22.5846 11.6764 22.1717C12.0696 21.7589 12.5426 21.4302 13.0666 21.2056C13.5907 20.981 14.1549 20.8652 14.725 20.8652C15.2951 20.8652 15.8593 20.981 16.3834 21.2056C16.9074 21.4302 17.3804 21.7589 17.7736 22.1717C18.1668 22.5846 18.472 23.073 18.6708 23.6074C18.8696 24.1417 18.9578 24.7109 18.93 25.2804V35.8004C18.8773 36.8801 18.4113 37.8982 17.6285 38.6438C16.8457 39.3894 15.806 39.8052 14.725 39.8052C13.6439 39.8052 12.6043 39.3894 11.8215 38.6438C11.0387 37.8982 10.5727 36.8801 10.52 35.8004V25.2804Z" fill="#E01E5A"/>
<path d="M14.7202 8.39999C13.8899 8.39801 13.0789 8.15001 12.3895 7.68731C11.7002 7.2246 11.1634 6.56797 10.847 5.80034C10.5307 5.03272 10.4489 4.18856 10.6121 3.3745C10.7753 2.56044 11.1761 1.813 11.7639 1.22662C12.3517 0.640244 13.1 0.241224 13.9145 0.0799752C14.7289 -0.0812738 15.5729 0.00248203 16.3398 0.320662C17.1066 0.638842 17.762 1.17717 18.2231 1.86764C18.6841 2.55811 18.9302 3.36973 18.9302 4.19999V8.39999H14.7202ZM14.7202 10.52C15.2897 10.4922 15.8588 10.5804 16.3932 10.7792C16.9275 10.978 17.416 11.2832 17.8288 11.6764C18.2417 12.0696 18.5703 12.5426 18.7949 13.0666C19.0195 13.5907 19.1353 14.1549 19.1353 14.725C19.1353 15.2951 19.0195 15.8593 18.7949 16.3834C18.5703 16.9074 18.2417 17.3804 17.8288 17.7736C17.416 18.1668 16.9275 18.472 16.3932 18.6708C15.8588 18.8696 15.2897 18.9578 14.7202 18.93H4.20019C3.12042 18.8773 2.1023 18.4113 1.35673 17.6285C0.611171 16.8457 0.195312 15.806 0.195312 14.725C0.195312 13.6439 0.611171 12.6043 1.35673 11.8215C2.1023 11.0387 3.12042 10.5727 4.20019 10.52H14.7202Z" fill="#36C5F0"/>
<path d="M31.5999 14.7202C31.6019 13.8899 31.8499 13.0789 32.3126 12.3895C32.7753 11.7002 33.432 11.1634 34.1996 10.847C34.9672 10.5307 35.8114 10.4489 36.6254 10.6121C37.4395 10.7753 38.1869 11.1761 38.7733 11.7639C39.3597 12.3517 39.7587 13.1 39.92 13.9145C40.0812 14.7289 39.9975 15.5729 39.6793 16.3398C39.3611 17.1066 38.8228 17.762 38.1323 18.2231C37.4418 18.6841 36.6302 18.9302 35.7999 18.9302H31.5999V14.7202ZM29.4799 14.7202C29.5077 15.2897 29.4195 15.8588 29.2208 16.3932C29.022 16.9275 28.7167 17.416 28.3235 17.8288C27.9303 18.2417 27.4574 18.5703 26.9333 18.7949C26.4093 19.0195 25.8451 19.1353 25.2749 19.1353C24.7048 19.1353 24.1406 19.0195 23.6166 18.7949C23.0925 18.5703 22.6196 18.2417 22.2264 17.8288C21.8332 17.416 21.5279 16.9275 21.3291 16.3932C21.1303 15.8588 21.0422 15.2897 21.0699 14.7202V4.20019C21.1226 3.12042 21.5886 2.1023 22.3714 1.35673C23.1543 0.611171 24.1939 0.195312 25.2749 0.195312C26.356 0.195312 27.3956 0.611171 28.1784 1.35673C28.9613 2.1023 29.4273 3.12042 29.4799 4.20019V14.7202Z" fill="#2EB67D"/>
<path d="M25.2799 31.5995C26.1101 31.6014 26.9212 31.8494 27.6105 32.3121C28.2999 32.7748 28.8367 33.4315 29.153 34.1991C29.4694 34.9667 29.5511 35.8109 29.3879 36.6249C29.2248 37.439 28.824 38.1864 28.2362 38.7728C27.6484 39.3592 26.9 39.7582 26.0856 39.9195C25.2711 40.0807 24.4272 39.997 23.6603 39.6788C22.8934 39.3606 22.2381 38.8223 21.777 38.1318C21.3159 37.4413 21.0699 36.6297 21.0699 35.7995V31.5995H25.2799ZM25.2799 29.4795C24.7104 29.5072 24.1412 29.4191 23.6069 29.2203C23.0725 29.0215 22.5841 28.7162 22.1713 28.323C21.7584 27.9298 21.4297 27.4569 21.2051 26.9328C20.9805 26.4088 20.8647 25.8446 20.8647 25.2745C20.8647 24.7043 20.9805 24.1401 21.2051 23.6161C21.4297 23.092 21.7584 22.6191 22.1713 22.2259C22.5841 21.8327 23.0725 21.5274 23.6069 21.3286C24.1412 21.1299 24.7104 21.0417 25.2799 21.0695H35.7999C36.8796 21.1221 37.8978 21.5881 38.6433 22.371C39.3889 23.1538 39.8047 24.1934 39.8047 25.2745C39.8047 26.3555 39.3889 27.3951 38.6433 28.1779C37.8978 28.9608 36.8796 29.4268 35.7999 29.4795H25.2799Z" fill="#ECB22E"/>
</g>
<defs>
<clipPath id="clip0_96_31">
<rect width="40" height="40" fill="white"/>
</clipPath>
</defs>
</svg>
