<svg version="1.2" xmlns="http://www.w3.org/2000/svg" viewBox="0 0 224 226" width="224" height="226"><style>.a{fill:#0fa6a6}.b{fill:#afe8d9}.c{fill:#fff}.d{fill:#222221}</style><path class="a" d="m65 138.8c0 0 70.7 14.4 85.8 4-0.5 31.1-7 69.1-7 69.1l-14.6 2.8-14-47.2c0 0-0.5-11.5-14 1.2-13.5 12.6-41.1 23-45.9 19.5-4.9-3.4-11.9-19.5-11.9-19.5 0 0 22.1 4 21.6-29.9z"/><path class="b" d="m14.3 95.8l20.5-8.7c0 0-5.9-8.7 1.1-10.4 7-1.7 29.7-6.9 29.7-6.9l-0.1 68.4c0 0 81.6 12.8 86.4 3.5 4.9-9.3 6-58 6-58 0 0 23.7 11.6 32.9 7 9.2-4.7 22.7-16.2 28.1-25.5-8.6-6.4-16.2-15.1-16.2-18.6 0-3.5-11.3 24.4-29.7 11-18.3-13.3-34-27.2-46.9-31.3-13-4.1-45.9-9.3-72.9 2.9-27 12.1-64.8 22-38.9 66.6z"/><path class="c" d="m105 22.2c0 0-2.7-8.7 3.2-11.6 6-2.9 15.2-2.3 15.2-2.3 0 0 4.8 17.4 2.7 18-2.2 0.6-21.1-4.1-21.1-4.1z"/><path class="c" d="m11.6 97c0 0 12.4-8.7 16.2-8.7 3.8 0 13.5 16.8 13.5 16.8l-4.9 1.2 0.5 4-2.1 0.6-0.6 2.3c0 0-15.1-2.9-22.6-16.2z"/><path class="c" d="m198.9 44.3c0 0 13 23.2 16.2 19.1 3.2-4 8.1-15.6 8.1-15.6h-6.5l4.9-4.7h-3.2l1.6-2.8-3.8-0.6 2.7-4.1c0 0-5.4 0-8.1 1.2-2.7 1.1-5.4 0.5-11.9 7.5z"/><path class="d" d="m154.4 68.9c0.4 8.2-0.6 16.3-1.2 24.4q-0.2 3.1-0.2 6.2c-0.1 1 0 2-0.2 2.9q-0.2 1.7-0.4 3.3-0.7 6.2-1.4 12.3c-1.8 16.5-3.5 33.1-5.3 49.7q-1.3 12.5-2.7 25-0.7 6.3-1.4 12.5c-0.2 1.9-0.6 3.7-0.3 5.6 0.2 1.6 1 3.2 2.1 4.3 1.1 1.2 2.5 2 3.8 2.9 0.7 0.4 1.3 0.9 1.8 1.6 0.5 0.9 0.2 1.4-0.4 2.2-1.8 2.1-4.6 2.4-7.1 2.2-1.4-0.1-2.7-0.3-4-0.5q-1-0.1-1.9-0.2c-0.7-0.1-1.3-0.4-1.9-0.7-0.7-0.4-1.5-0.6-2.1-1.2-0.7-0.5-1.2-1.2-1.7-1.9-0.9-1.3-1.6-2.8-2.2-4.3-0.8-1.7-1.2-3.6-1.8-5.4-0.7-2-1.2-3.9-1.9-5.9q-2.1-5.7-4.2-11.5c-2.9-7.6-5.7-15.1-8.3-22.8-0.8-2.5-1.5-6.6-4-7.9-1.1-0.5-2.6-0.4-3.6 0.3-1.2 0.7-2 2.1-2.7 3.4-1.8 3-4 5.7-6.7 7.9-1.5 1.2-3.1 2.3-4.7 3.5-1.5 1.2-3 2.3-4.7 3.2-3.2 1.9-6.6 3.7-10.2 4.8-3.6 1.1-7.3 1.6-11.1 1.9-3.8 0.3-7.6 0.4-11.4 0.8-1.3 0.1-2.6 0.3-3.7 1.2-0.8 0.7-1.4 1.7-1.7 2.8-0.5 1.3-0.6 2.5-1 3.8-0.2 0.7-0.8 0.8-1.4 0.5-0.9-0.4-1.3-1.5-1.8-2.3-1.8-3.1-3.3-6.4-4.2-9.9-0.9-3.5-1.3-7.2-1.2-10.8 0.1-2 2.6-2.5 4-3 1.7-0.6 3.3-1.1 5-1.7 3.1-1.1 6.3-2.5 9-4.7 2.3-2 4.2-4.7 5.2-7.7 1.2-3.3 1.2-6.6 1.3-10q0.1-6.5 0.2-12.9c0.3-17 0.3-33.9 0.8-50.8q0.1-6.1 0.4-12.3c0-0.8-1.1-0.8-1.1 0-0.8 17.2-0.9 34.4-1 51.6-0.1 8.6-0.3 17.2-0.5 25.8-0.1 1.8-0.1 3.5-0.4 5.3-0.3 1.6-0.8 3.1-1.5 4.6-1.5 3.2-4 5.6-6.9 7.3-3.1 1.8-6.4 2.8-9.7 4q-1.3 0.4-2.5 0.9c-0.8 0.3-1.5 0.5-2.2 1-1.4 1.2-1.3 2.7-1.2 4.4 0.1 7.4 2.4 14.6 6.2 20.7 0.7 1.1 1.9 2.2 3.3 1.8 1.3-0.4 1.4-1.8 1.6-2.9 0.3-1.3 0.6-2.5 1.2-3.6 0.8-1.2 1.9-1.7 3.2-1.8 7.6-0.8 15.2-0.5 22.6-2.6 3.5-1 6.9-2.7 10.1-4.5 1.8-0.9 3.4-1.9 5-3.1 1.6-1.2 3.1-2.5 4.7-3.6 2.7-2 5.1-4.5 7-7.4 0.9-1.4 1.5-3.1 2.8-4.2 1-0.9 2.6-1.1 3.6-0.1 1 1 1.5 2.6 2 3.9q0.9 3 1.9 6 2 5.8 4.2 11.6c2.8 7.7 6 15.2 8.4 23.1 0.6 2 1.3 3.9 1.9 5.9q0.7 2.4 1.8 4.6c0.8 1.3 1.7 2.7 2.8 3.7 0.5 0.5 1.1 0.9 1.7 1.2 0.8 0.3 1.6 0.8 2.3 1.1 0.6 0.2 1.2 0.2 1.8 0.2q1.1 0.2 2.1 0.3c1.4 0.2 2.7 0.4 4.1 0.4 2.5 0 5.1-0.6 6.8-2.7 1-1.1 1.4-2.3 0.5-3.7-0.9-1.4-2.3-2.1-3.6-2.9-1.5-1.1-2.8-2.2-3.5-4-0.7-1.7-0.4-3.4-0.2-5.2q1.5-12.8 2.8-25.6c1.8-16.8 3.5-33.6 5.4-50.4q1.3-12.5 2.8-25.1 0.2-1.5 0.3-3c0.2-1 0.2-2.1 0.2-3.2q0.1-3.1 0.3-6.2c0.3-4.1 0.6-8.3 0.9-12.4 0.3-4 0.4-8 0.3-12-0.1-0.8-1.2-0.8-1.2 0z"/><path class="d" d="m77.7 23.1c5.2-0.4 10.5-0.6 15.8-0.5 5.3 0.2 10.5 0.6 15.7 1.5 4.8 0.8 9.6 2 14.2 3.6 4.5 1.7 8.8 3.8 12.9 6.4 3.8 2.4 7.5 5.1 10.2 8.8q0.5 0.6 0.9 1.3c0.4 0.7 1.4 0.1 1-0.6-2.5-4-6.1-7-9.9-9.5-4-2.7-8.3-5-12.7-6.8-4.7-1.8-9.5-3.1-14.3-4.1-5.2-1-10.5-1.5-15.7-1.7-5.4-0.2-10.8-0.1-16.1 0.2q-1 0.1-2 0.2c-0.7 0-0.8 1.3 0 1.2z"/><path class="d" d="m77.3 21.6c-4.5 1.1-9 2.2-13.4 3.3-4.9 1.2-9.8 2.5-14.6 3.9-4.8 1.4-9.5 3-14.1 5.1-5.2 2.3-10.3 5.1-15 8.4-4.2 3-8.3 6.5-11.7 10.5-3.3 3.8-6.1 8.4-7.3 13.5-1.1 5.5-0.3 11.2 1.7 16.4 2.1 5.3 5.2 10 8.6 14.4 3.5 4.6 7.2 9.1 11.8 12.4 2.4 1.6 5 3 7.8 3.7q1 0.2 2 0.3c0.5 0.1 0.9 0.1 1.3-0.3 0.8-1 0.4-2.7-0.1-3.7-0.5-1.2-1.4-2.2-2.6-2.6-0.4-0.2-0.8 0.3-0.7 0.7 0.3 1.3 1.1 2.4 2.2 3.1 0.9 0.5 2.1 0.9 3.2 0.7 0.5 0 1.1-0.3 1.3-0.7 0.3-0.5 0.1-1.2 0.1-1.7-0.2-1.4-0.9-2.5-1.8-3.5q-0.4 0.4-0.8 0.8 0.3 0.3 0.6 0.5c0 0.1 0.1 0.1 0.1 0.2q0 0 0 0-0.1-0.1-0.1-0.3 0.3-0.4 0.6-0.7 0.3 0.2 0.2 0.1 0 0 0 0c0-0.1-0.1-0.1-0.1-0.1q-0.2-0.3-0.5-0.5-0.3 0.5-0.6 0.9c1 0.9 2.2 1.7 3.6 1.7 1.2 0 2.6-0.6 2.8-2 0.2-1.4-0.8-2.9-1.5-4q-1.2-2.2-2.5-4.4-2.4-4.3-4.9-8.6-1.3-2.2-2.5-4.4c-0.4-0.6-0.7-1.2-0.8-2-0.2-0.6-0.3-1.1 0-1.7 1.1-2.8 4.2-3.7 6.6-4.5 2.9-1.1 5.9-2 8.8-2.8 6-1.5 12-2.8 18-4.3q2.3-0.6 4.6-1.2c0.7-0.2 1.4-0.5 2.2-0.8q1-0.5 2.1-0.9 2.2-1 4.3-2c0.4-0.2 0.8-0.4 1.1-0.6 0.3-0.2 0.5-0.5 0.7-0.7 0.5-0.5 1-0.9 1.6-1.2 0.2-0.1 0.3-0.1 0.5-0.2 0.1-0.1 0.2-0.2 0.4-0.4q0.3-0.4 0.8-0.6c0.7-0.4 0.1-1.5-0.6-1.1q-0.4 0.2-0.8 0.6c-0.1 0.1-0.2 0.3-0.4 0.4q-0.1 0.1-0.3 0.2c-0.6 0.3-1.2 0.7-1.7 1.1q-0.3 0.4-0.6 0.7c-0.3 0.3-0.7 0.4-1 0.6q-1.1 0.5-2.2 1.1-2.1 0.9-4.2 1.8c-0.8 0.3-1.5 0.6-2.2 0.8q-1.1 0.3-2.3 0.6c-5.9 1.6-11.9 2.8-17.8 4.3-3 0.8-5.9 1.6-8.8 2.5q-2.2 0.7-4.3 1.6c-1.3 0.5-2.5 1-3.6 1.9-1 0.8-1.8 1.8-2.1 3.1-0.2 0.6-0.1 1.3 0 1.9 0.2 0.7 0.4 1.4 0.7 2 0.8 1.4 1.7 2.8 2.5 4.3q1.3 2.1 2.5 4.3 2.4 4.3 4.9 8.5c0.4 0.7 0.9 1.5 1.2 2.2 0.2 0.5 0.5 1.2 0.4 1.7 0 0.6-0.7 0.9-1.2 1-0.6 0.1-1.2-0.1-1.7-0.3-0.6-0.3-1.2-0.8-1.8-1.2-0.5-0.5-1.1 0.5-0.7 0.9 0.3 0.4 0.8 1 1.2 1 0.3-0.1 0.5-0.3 0.6-0.6 0-0.5-0.7-1-1-1.2-0.5-0.5-1.3 0.3-0.8 0.8 0.7 0.8 1.2 1.6 1.4 2.6q0.1 0.3 0.1 0.6 0 0.2 0 0.4 0 0.1 0 0.2 0 0.3 0.1-0.1c0 0-0.3 0.1-0.3 0.2-0.2 0-0.4 0.1-0.6 0.1-1.7-0.1-3.3-1.1-3.8-3q-0.3 0.4-0.7 0.8c1.1 0.4 1.9 1.5 2.2 2.7q0.1 0.4 0.1 0.9c0 0.2 0 0.5-0.2 0.7 0.1-0.1-0.1-0.1-0.2-0.1q-0.5-0.1-1-0.1c-2.7-0.5-5.3-1.7-7.6-3.3-4.6-3-8.3-7.3-11.7-11.7-3.3-4.2-6.3-8.7-8.5-13.7-2.1-4.8-3.2-10.3-2.4-15.6 0.8-5 3.3-9.5 6.3-13.3 3.2-3.9 7-7.2 11-10.2 4.4-3.3 9.2-6.1 14.2-8.5 4.5-2.1 9.1-3.8 13.9-5.2 4.5-1.4 9.1-2.7 13.7-3.8q6.8-1.8 13.6-3.4 1.4-0.3 2.8-0.7c0.7-0.2 0.4-1.3-0.3-1.2z"/><path class="d" d="m145.5 41.5c0.2 1 1.2 1.7 1.8 2.3 1.1 1 2.3 1.9 3.5 2.8q1.7 1.2 3.4 2.5 0.5 0.3 1.1 0.8 0.1 0 0.1 0.1c0.1 0 0.1 0 0 0-0.1-0.1 0.1 0 0.1 0q0.2 0.2 0.5 0.4 0.7 0.6 1.5 1.2c2 1.6 4.1 3 6.3 4.4 2.1 1.3 4.3 2.6 6.7 3.5 3.2 1.3 6.7 1.7 10.1 1.1 2.7-0.4 5.3-1.7 7.5-3.3 2.4-1.7 4.5-3.8 6.5-5.9 2.1-2.2 4.1-4.5 6.2-6.7 2-2.1 4.2-4.1 6.7-5.6q1.8-1.2 3.8-1.9c0.7-0.3 1.4-0.4 2-0.6 0.8-0.2 1.5-0.6 2.3-0.8 0.7-0.2 1.5-0.5 2.2-0.3q0.2 0 0.4 0.2c0 0 0.1 0.1 0.1 0.1 0 0 0-0.1 0 0 0-0.1 0 0 0 0.1 0-0.2 0-0.1 0 0 0 0-0.1 0.1 0 0q0 0 0 0.1c-0.3 0.3-0.8 0.7-1.2 1-0.5 0.4-1.1 0.7-1.6 1.1-0.4 0.2-0.8 0.4-1.1 0.8-0.1 0.3 0 0.7 0.3 0.9 0.9 0.5 2.1 0.6 3.1 0.3 0.3-0.1 0.7-0.4 1.1-0.4 0.3-0.1 0.4 0.2 0.5 0.5 0 0.1 0.1 0.3 0.1 0.3q0 0 0 0.1c0-0.1 0 0.1 0 0.1 0 0-0.1 0.2-0.1 0.2-0.1 0.1-0.2 0.2-0.3 0.2-0.4 0.4-0.9 0.6-1.4 0.9-0.5 0.4-1 0.8-1.2 1.5-0.1 0.4 0.2 0.7 0.6 0.8 0.8 0.1 1.6-0.3 2.5-0.5 0.3-0.1 0.6-0.1 0.9 0q0.2 0.2 0.3 0.4c0 0 0.1 0.2 0.1 0.1-0.1 0 0 0 0 0 0 0.1 0 0 0 0.1 0 0 0-0.1 0 0-0.1 0.2 0 0-0.1 0.1 0 0.2-0.1 0.2-0.1 0.3q-0.3 0.3-0.7 0.6c-0.5 0.5-1.1 0.9-1.7 1.3-0.4 0.4-1 1-1 1.7 0 0.2 0.2 0.5 0.4 0.6 0.5 0.1 1 0 1.4 0q0.9-0.1 1.7-0.3c0.5-0.1 0.9-0.1 1.4-0.1q0.1 0 0.2 0c0.1 0-0.2 0 0 0q0.1 0 0.1 0c-0.1 0 0 0 0 0 0.1 0.1-0.1-0.1-0.1 0-0.1-0.2 0.1 0 0-0.2 0 0.1 0.1-0.1 0 0.1-0.1 0.1 0 0-0.1 0.2q-0.1 0.2-0.3 0.5-0.4 0.6-0.7 1.3-0.8 1.3-1.5 2.7c-0.9 1.8-1.7 3.7-2.5 5.5-1.6 3.7-3.2 7.5-5.1 11-1.9 3.6-4.2 6.8-7.1 9.6-5.6 5.4-12.5 8.7-19.9 10.1-5.6 1-11.4 1-16.9-0.3-2.7-0.6-5.3-1.5-7.7-3-2.1-1.2-4-3-4.9-5.4q-0.4-0.9-0.6-1.8c-0.1-0.8-1.2-0.4-1.1 0.3 1.2 6 6.9 9 11.9 10.5 5.5 1.7 11.3 2 17 1.3 7.6-1 15-3.9 21.1-9.1 3.2-2.7 5.9-5.9 8.1-9.5 2.1-3.6 3.7-7.4 5.4-11.3 1.6-3.8 3.3-7.7 5.5-11.2 0.3-0.5 0.7-1.1 0.5-1.7-0.1-0.6-0.6-0.8-1.1-0.8-1-0.2-2.2 0.2-3.2 0.3q-0.3 0.1-0.7 0.1-0.2 0-0.3 0c-0.2 0 0.1 0 0 0q-0.1 0-0.2 0 0.3 0.3 0.5 0.6c0-0.2 0-0.1 0-0.1 0-0.1-0.1 0.1 0 0 0.1-0.2 0-0.1 0.2-0.3q0.3-0.3 0.7-0.6c0.6-0.5 1.2-0.9 1.8-1.4 0.5-0.5 0.9-1.1 0.8-1.9-0.2-0.9-1.1-1.6-2-1.6-1 0-1.9 0.7-2.9 0.5q0.2 0.4 0.5 0.8c0 0 0.1-0.2 0-0.1 0 0 0.1-0.1 0.1-0.1 0-0.1 0 0 0 0q0 0 0.1-0.1 0-0.1 0.1-0.1c0.1-0.2 0.4-0.3 0.7-0.5 0.5-0.3 1.1-0.6 1.5-1.1 0.5-0.5 0.7-1.2 0.4-1.8-0.2-1-1-1.8-2-1.5-0.5 0.1-0.9 0.4-1.3 0.5q-1 0.2-2-0.3 0.1 0.4 0.2 0.9c0.1-0.1-0.1 0.1 0 0q0.1 0 0.1-0.1c0.1-0.1 0 0 0 0q0.1-0.1 0.2-0.1 0.3-0.2 0.6-0.5c0.6-0.3 1.2-0.7 1.7-1.1 0.9-0.6 2.1-1.8 1-3-1.2-1.2-3.3-0.4-4.7 0.1-1.3 0.5-2.7 0.8-4.1 1.4-2.7 1.1-5.2 2.8-7.4 4.8-2.3 2-4.3 4.3-6.3 6.5-2.1 2.2-4.1 4.5-6.3 6.5-2 1.8-4.3 3.5-6.9 4.5-2.7 1.1-5.6 1.3-8.5 0.8-4.6-0.7-8.8-3.4-12.8-6-2.9-1.9-5.5-4.2-8.4-6.2q-1.8-1.4-3.6-2.8c-1-0.8-2.1-1.6-2.9-2.5q-0.2-0.1-0.3-0.3 0 0-0.1-0.1c0-0.1 0.1 0.1 0 0q0-0.1-0.1-0.2c-0.1-0.2 0 0.1 0-0.1-0.2-0.7-1.3-0.4-1.1 0.3z"/><path class="d" d="m105.6 21.7c0-3.1 0.8-6.2 2.2-8.8 1.2-2.6 3.2-5.1 6-5.9 2.5-0.8 5.3 0.2 7.1 2.2 1.8 2 2.8 4.9 3.3 7.6 0.5 3 0.5 6.3-0.4 9.3q0.2-0.3 0.4-0.5-0.2 0.1-0.5 0.1c-0.7 0.1-0.4 1.3 0.3 1.2q0.3-0.1 0.5-0.1c0.2 0 0.3-0.2 0.4-0.4 0.9-2.8 0.9-5.9 0.6-8.9-0.4-3-1.4-6.2-3.3-8.6-1.9-2.3-4.7-3.7-7.6-3.4-3.1 0.4-5.6 2.8-7.2 5.6-1.7 2.8-2.7 6.1-2.9 9.5q-0.1 0.5-0.1 1.1c0 0.7 1.2 0.7 1.2 0z"/><path class="d" d="m148.4 141.2c-0.6 0.2-1.1 0.3-1.7 0.4-0.7 0.1-1.3 0.3-2 0.5q-2.1 0.5-4.2 0.9-4.2 0.9-8.5 1.5c-5.7 0.7-11.4 0.9-17.1 0.8-5.7-0.1-11.5-0.5-17.1-1.4-5.6-1-11.1-2.4-16.6-3.5-5.6-1.2-11.1-2.2-16.8-2.3q-1 0-2.1 0c-0.7 0-0.7 1.2 0 1.2 5.7-0.1 11.3 0.7 16.9 1.9 5.6 1.1 11.1 2.6 16.7 3.6 5.7 1 11.5 1.5 17.2 1.7 5.8 0.2 11.6 0 17.3-0.6q4.3-0.5 8.5-1.3 2.2-0.4 4.3-0.9c1.4-0.3 2.7-0.7 4-0.9q0.9-0.2 1.8-0.6c0.6-0.3 0.1-1.4-0.6-1z"/><path class="d" d="m42.4 170q0-0.1-0.1-0.3c0-0.8-1-0.8-1.1 0-0.1 1.2 0.7 2.4 1.3 3.3 0.7 1.2 1.3 2.4 2 3.7 0.7 1.4 1.5 2.8 2.2 4.3 0.3 0.6 0.6 1.2 0.9 1.8 0.3 0.5 0.8 1 1.1 1.4 0.4 0.6 0.6 1.2 0.8 1.9 0.3 0.6 0.6 1.3 1.1 1.8 0.5 0.5 1.3-0.3 0.8-0.9-0.8-0.8-0.9-2.1-1.5-3.1-0.3-0.5-0.7-0.9-1.1-1.4-0.3-0.5-0.5-1-0.8-1.5q-1-2.1-2.1-4.2-0.6-1-1.1-2.1c-0.3-0.5-0.6-1.1-0.9-1.6-0.4-0.6-0.7-1.2-1.1-1.8-0.2-0.5-0.5-1-0.5-1.6q-0.5 0-1.1 0 0 0.2 0 0.3c0 0.8 1.2 0.8 1.2 0z"/><path class="d" d="m129.1 215.7c0.4-0.5 1.3-0.5 2-0.5 0.9-0.1 1.8 0.1 2.7 0.1 2.5 0.2 5-0.6 7.4-1.1 0.8-0.2 0.5-1.4-0.3-1.2-2.4 0.5-4.9 1.3-7.5 1.1-0.9-0.1-1.8-0.2-2.8-0.1-0.8 0-1.8 0.2-2.3 0.9-0.5 0.6 0.3 1.4 0.8 0.8z"/><path class="d" d="m11.4 96.4c1.4 0.2 2.3-0.9 3.2-1.8 1-1.1 2.2-1.8 3.5-2.5 1.3-0.7 2.7-1.4 4-2.1 1.3-0.6 2.7-1.2 4.2-1.6 0.8-0.2 1.7 0 2.6-0.2 0.9-0.1 1.6-0.5 2.5-0.4q0-0.7 0-1.3-0.2 0-0.4 0c-0.7 0-0.7 1.2 0 1.3q0.2 0 0.4 0c0.7 0 0.7-1.2 0-1.3-0.8-0.1-1.5 0.2-2.2 0.4-0.3 0.1-0.7 0.2-1.1 0.2-0.4 0-0.8 0-1.3 0-1.4 0.1-2.9 0.8-4.2 1.4-1.4 0.6-2.7 1.3-4 2-1.3 0.7-2.7 1.3-3.9 2.3-0.5 0.5-1 1-1.5 1.5-0.3 0.4-0.9 1-1.5 0.9-0.3 0-0.6 0.1-0.7 0.5 0 0.3 0.1 0.7 0.4 0.7z"/><path class="d" d="m199.1 47.1c0.4 0.6 0.6 1.3 0.8 2.1 0.3 0.7 0.5 1.5 0.9 2.2 0.9 1.6 2 3.1 3.2 4.6 1.2 1.4 2.4 2.8 3.8 3.9 0.7 0.6 1.4 1.1 2.2 1.5 0.7 0.5 1.4 0.9 2.1 1.3 0.7 0.3 1.3 0.4 2 0.6 0.5 0.2 1.1 0.3 1.4 0.9q0.2-0.4 0.4-0.9-0.2 0.1-0.4 0.1c-0.7 0.2-0.4 1.4 0.3 1.2q0.2 0 0.4-0.1c0.3-0.1 0.5-0.5 0.3-0.9-0.6-1.2-2-1.5-3.2-1.8-0.6-0.2-1.1-0.5-1.7-0.8-0.8-0.5-1.6-0.9-2.3-1.4-1.5-1.1-2.8-2.5-4-3.9-1.2-1.4-2.3-2.8-3.2-4.4-0.5-0.9-0.8-1.7-1.1-2.6-0.3-0.9-0.6-1.8-1.1-2.5-0.2-0.3-0.6-0.2-0.8 0-0.3 0.2-0.2 0.6 0 0.9z"/><path class="d" d="m106.1 11.8c0.8 0.1 1.7 0.2 2.5 0.1 0.7-0.1 1.4-0.4 2.1-0.7 1.3-0.7 2.4-1.8 3.5-2.8 1.3-1.1 2.6-2.3 3.9-3.3 1-0.8 2.2-1.3 3.1-2.3 0.2-0.2 0.4-0.6 0.4-0.9 0-0.3-0.2-0.6-0.3-0.8-0.4-0.3-0.9-0.4-1.4-0.5-0.9-0.1-2 0.2-2.8 0.6-1.2 0.4-2.2 1.2-3.2 1.9-0.9 0.8-1.8 1.7-2.7 2.6-0.8 0.7-1.6 1.5-2.1 2.5-0.2 0.4-0.4 0.9-0.4 1.4 0.1 0.4 0.5 0.7 0.9 0.7 0.7 0.2 1.4-0.1 2.1-0.4 0.8-0.3 1.7-0.8 2.5-1.4q1.2-0.8 2.4-1.7c0.5-0.4 1.1-0.9 1.5-1.5 0.6-0.7 0.9-1.9 0.5-2.8-0.5-0.9-1.6-1.3-2.5-1.4-1.1-0.1-2.3 0.1-3.3 0.5-1.1 0.5-2 1.3-3 2.1-1 0.7-2 1.5-2.8 2.4-0.6 0.8-1.1 1.8-0.8 2.9 0.5 1.6 2.4 1.8 3.8 1.9 1.8 0.1 3.6-0.1 5.4-0.4 0.5-0.2 1.1-0.3 1.6-0.5 1.5-0.5 2.9-1.3 4.2-2.2 1-0.6 1.9-1.3 2.9-1.8 0.8-0.4 1.7-0.9 2.3-1.7 0.5-0.6 0.3-1.7-0.4-2.2-0.6-0.4-1.5-0.2-2.2 0.1-1.4 0.4-2.7 1.1-3.9 1.9-1.5 0.9-4.3 3.3-2.4 5.3 1.1 1.1 2.7 1.3 4.1 0.9 1.1-0.2 2.2-0.8 3.1-1.4 0.7-0.6 1.8-1.4 1.9-2.4 0.1-1.4-1.6-1.3-2.3-0.8-1.7 1.2-2.1 4.6 0.2 5.3 1.4 0.3 2.7-0.6 3.6-1.7 0.4-0.6-0.4-1.4-0.8-0.8-0.5 0.6-1.3 1.3-2.2 1.3-0.6 0-1.1-0.5-1.1-1.1 0-1 0.7-2.4 1.8-2.1q-0.2-0.1-0.4-0.3 0.1 0.1 0.1 0.1c-0.1 0.1-0.1 0.1-0.2 0.3-0.1 0.2-0.4 0.5-0.6 0.7q-0.7 0.6-1.5 1c-0.9 0.5-1.9 0.9-2.9 0.9q-0.8-0.1-1.5-0.4c-0.2-0.2-0.6-0.4-0.7-0.7q-0.1-0.3 0-0.7c0.1-0.3 0.3-0.5 0.5-0.8 0.5-0.6 1.2-1.1 1.8-1.5q1.2-0.7 2.4-1.3c0.6-0.3 1.1-0.5 1.7-0.7 0.2 0 0.3-0.1 0.6-0.1q0.1 0 0.2 0.1c0.1 0-0.1-0.1 0 0q0.1 0 0.1 0c0.1 0 0-0.1 0.1 0 0 0-0.1-0.1 0 0 0 0.1-0.1-0.1 0 0 0 0.2 0 0 0 0.1 0 0 0 0.2 0 0q0 0.1 0 0.2c0 0.1 0 0 0 0 0 0 0 0.1 0 0.1 0-0.1-0.1 0.1-0.1 0.1-0.5 0.4-1.1 0.8-1.6 1.1-0.5 0.3-1 0.5-1.5 0.8-0.9 0.7-1.9 1.3-2.9 1.9-1.2 0.8-2.5 1.4-3.8 1.7q-1.8 0.3-3.5 0.5c-1.2 0-2.5 0.1-3.6-0.2q-0.2-0.1-0.3-0.1c-0.2-0.1-0.2-0.1-0.3-0.1q-0.1-0.1-0.3-0.2c0 0-0.1-0.1 0 0q-0.1-0.1-0.1-0.1-0.1-0.1-0.1-0.1c0-0.1 0 0 0-0.1q-0.1 0-0.1-0.1c-0.1-0.1 0 0 0 0q-0.1-0.1-0.1-0.2c0-0.1 0 0.1 0 0q0-0.2 0-0.4c0.2-0.7 0.8-1.3 1.3-1.8 0.6-0.6 1.3-1.1 2-1.6 0.6-0.5 1.2-1.1 2-1.6 0.7-0.4 1.6-0.7 2.4-0.8 0.7 0 1.3 0 1.9 0.2 0.5 0.2 0.8 0.5 0.8 1 0 0.3-0.1 0.6-0.3 0.9q0 0.1 0 0.1c-0.1 0.1 0.1-0.1 0 0q-0.1 0.1-0.2 0.2-0.5 0.5-1.1 1c-1 0.9-2.1 1.7-3.3 2.3q-0.8 0.5-1.6 0.9-0.4 0.1-0.8 0.2 0 0-0.1 0c-0.1 0.1 0 0-0.1 0q-0.1 0.1-0.3 0.1c-0.1 0 0.1 0 0 0q0-0.1-0.1-0.1c0 0 0 0.1 0 0 0 0 0 0 0 0 0 0 0.2 0.3 0.2 0.3 0 0 0-0.2 0-0.2 0.1-0.1 0.1-0.3 0.2-0.4 0.4-0.7 0.9-1.3 1.4-1.8 1.2-1.3 2.5-2.4 3.9-3.5 1.3-0.8 2.4-1.5 3.9-1.7 0.3 0 0.6 0 0.9 0.1 0.2 0 0.3 0.1 0.4 0.3q0-0.3 0-0.6c-0.4 0.8-1.4 1.2-2.1 1.7-1 0.7-2 1.5-2.9 2.3q-1.4 1.2-2.8 2.5c-0.8 0.8-1.7 1.5-2.7 2.1-0.6 0.2-1.2 0.4-1.8 0.5-0.7 0-1.5-0.1-2.2-0.1-0.8 0-0.8 1.2 0 1.2z"/><path class="d" d="m117.4 14.9c0.3 1.6 1 3.2 1.7 4.8 0.1 0.2 0.5 0.3 0.8 0.2 0.2-0.2 0.3-0.6 0.2-0.9-0.7-1.4-1.3-2.9-1.6-4.5 0-0.3-0.4-0.5-0.7-0.4-0.3 0.1-0.4 0.4-0.4 0.8z"/><path class="d" d="m113.6 16.5c0.8 0 0.8-1.3 0-1.3-0.7 0-0.7 1.3 0 1.3z"/><path class="d" d="m121.7 15.9c0.8 0 0.8-1.2 0-1.2-0.7 0-0.7 1.2 0 1.2z"/><path class="d" d="m112.2 20.9c0.3 0.4 0.7 0.7 1.1 1q1 0.5 2 1c1.2 0.5 2.8 1 4.1 0.8 0.6-0.2 1.2-0.6 1.3-1.3 0-0.3-0.1-0.7-0.4-0.8-0.3 0-0.7 0.1-0.7 0.5 0 0-0.1 0.3-0.1 0.1 0 0.1 0 0.2 0 0.1 0 0-0.1 0.1 0 0 0 0.1-0.2 0.1-0.1 0.1q-0.2 0.1-0.3 0.1c-0.1 0 0 0-0.1 0q-0.1 0-0.2 0-0.2 0-0.4 0c-0.2 0-0.5-0.1-0.8-0.2-1.2-0.2-2.4-0.8-3.6-1.4q-0.3-0.2-0.7-0.5c0 0-0.1-0.1 0 0q-0.1-0.1-0.2-0.1-0.1-0.1-0.1-0.2c-0.2-0.3-0.6-0.2-0.8 0-0.3 0.2-0.2 0.6 0 0.8z"/><path class="d" d="m39 177.6q-0.3-0.1-0.5-0.2c-0.4-0.2-0.7 0.2-0.7 0.5-0.2 1.7 0.7 3.4 1.4 4.8 0.5 1.3 1.1 2.9 2.5 3.2 0.2 0.1 0.4 0 0.5-0.1 1.1-1.5 0.5-3.3-0.2-4.7-0.8-1.8-1.5-3.5-2.3-5.2-0.3-0.6-0.7-1.4-1.4-1.2-0.6 0.1-0.8 0.7-0.8 1.3 0 1.1 0.4 2.2 0.8 3.2 0.5 1.8 1.2 3.7 2.7 4.7 0.2 0.2 0.5 0.1 0.7 0 0.5-0.5 0.3-1.4 0.1-1.9-0.1-0.6-0.4-1.2-0.6-1.8q-0.5-1.7-1-3.5c-0.3-1.1-0.6-2.3-1-3.3q-0.1-0.4-0.2-0.7c0-0.1-0.2-0.4-0.1-0.6 0-0.2 0.4-0.3 0.5-0.3 0.4 0.1 0.7 1.1 0.8 1.4 0.4 1.1 0.9 2 1.4 3 0.5 1.1 1 2.2 1.6 3.2 0.5 1.1 1.2 2.2 1.7 3.4 0.2 0.6 0.5 1.6 1 2.1 0.4 0.3 1 0.2 1-0.4 0-0.9-0.6-1.5-1.1-2.1-0.7-0.8-1.2-1.8-1.8-2.7-0.6-0.8-1.1-1.7-1.7-2.5-0.5-0.8-0.9-1.6-1.6-2.2-0.3-0.2-0.6 0-0.8 0.3-0.6 1 0.1 2.4 0.4 3.4 0.2 0.8 0.4 1.6 0.7 2.3q0.6 1.1 1.3 2.1c0.9 1.2 2.1 2.2 3.5 2.6 0.2 0 0.4 0.1 0.6 0.2 0.2 0.1 0.3 0.3 0.3 0.5 0.2 0.5 0.4 1.2 0.3 1.8-0.1 0.6-0.7 1.1-1.1 1.6q-0.7 0.9-1.3 2c-0.5 1.1-1.3 3.1 0.1 3.9 0.7 0.4 1.3 0 1.6-0.6 0.4-0.6 0.5-1.3 0.5-1.9-0.1-1.3-0.5-2.5-0.9-3.6-0.2-0.6-0.4-1.2-1-1.4-0.6-0.1-1.1 0.3-1.2 0.9-0.3 0.9-0.1 2 0 3q0.5 0 1.1 0c-0.1-1.3-0.6-2.4-1.1-3.5-0.5-1-1-2-1.9-2.5-0.3-0.1-0.5-0.1-0.7 0.1-0.7 0.5-0.4 1.6-0.2 2.3 0.2 0.9 0.3 1.6 1.2 2.1 0.2 0.1 0.6 0 0.7-0.3 0.4-0.6 0.1-1.6-0.1-2.3-0.1-0.8-0.3-1.8-0.9-2.5-0.3-0.4-0.8-0.4-1.2 0.1-0.3 0.4-0.4 1-0.4 1.5 0.1 1.1 0.7 2.3 1.7 2.8 0.4 0.2 0.7 0.1 1-0.2q0.4-0.4 0.4-0.9c0.1-0.6-0.1-1.3 0.2-1.8q-0.4 0.2-0.7 0.3c0.6 0.1 1.1 0.6 1.8 0.8 0.3 0 0.8 0 1.1-0.2 0.2-0.2 0.2-0.6 0.2-0.9 0-0.5-0.2-1.1-0.5-1.6-0.2-0.5-0.5-1-1-1.1-0.3-0.1-0.6 0.1-0.7 0.4-0.1 0.3-0.1 0.6 0 0.9 0 0.3 0.4 0.5 0.7 0.4 0.3-0.1 0.4-0.4 0.4-0.7q0-0.2 0-0.3-0.3 0.2-0.7 0.5c-0.1-0.1 0-0.1 0 0q0.1 0.1 0.2 0.2 0.1 0.2 0.2 0.5 0.2 0.3 0.2 0.7c0 0.1 0 0.1 0 0.2 0.1 0.1 0 0.1 0.1 0q0.1-0.1 0.3-0.3c-0.3 0.1-0.6-0.1-0.9-0.2-0.4-0.2-0.7-0.4-1.1-0.5-0.2 0-0.5 0.1-0.6 0.3-0.3 0.5-0.3 0.9-0.3 1.5 0 0.3 0.1 0.8-0.2 1q0.2 0 0.4 0c-0.8-0.4-1.4-1.9-0.8-2.7q-0.2 0.1-0.4 0.2c-0.2 0-0.2-0.1-0.2-0.1q0 0.1 0 0.1-0.1-0.1 0 0 0.1 0.2 0.2 0.4c0.1 0.4 0.3 0.8 0.4 1.2q0.1 0.6 0.2 1.3c0-0.1 0 0.1 0 0.1q0 0.2 0 0.3 0 0.1 0 0.1 0-0.1 0 0 0 0.1 0.1-0.1 0.4-0.1 0.7-0.2c-0.5-0.3-0.5-0.7-0.6-1.3-0.1-0.2-0.3-1-0.1-1.1q-0.4 0-0.7 0c0.7 0.5 1.1 1.3 1.5 2.1 0.4 0.9 0.9 1.9 1 2.9 0 0.8 1.1 0.8 1.1 0-0.1-0.7-0.1-1.5-0.1-2.2 0-0.2 0-0.3 0.1-0.4q0-0.1 0-0.2c0-0.1 0 0 0 0 0 0 0.1-0.1 0 0q-0.1 0.1-0.1 0.1c-0.2 0-0.2-0.1-0.1 0 0 0 0.1 0.2 0.1 0.2q0.1 0.3 0.2 0.6c0.3 0.9 0.7 1.9 0.7 2.9 0 0.6 0 1-0.3 1.5 0 0-0.1 0.1 0 0.1 0 0-0.2-0.1-0.2-0.2-0.1-0.1 0-0.4 0-0.6 0.2-1.3 1-2.4 1.8-3.4 0.3-0.5 0.8-0.9 1-1.5 0.3-0.5 0.3-1.1 0.2-1.7-0.1-1.1-0.5-2.3-1.5-2.7-0.5-0.1-1-0.2-1.5-0.5q-0.8-0.5-1.4-1.2c-1-1.1-1.7-2.4-2.2-3.9q-0.2-0.9-0.5-1.7c-0.1-0.4-0.3-1.1-0.1-1.4q-0.4 0.1-0.8 0.2c0.3 0.2 0.5 0.5 0.6 0.8q0.4 0.6 0.8 1.1c0.5 0.8 1 1.6 1.5 2.4q0.8 1.2 1.6 2.3 0.3 0.5 0.7 1c0.2 0.2 0.5 0.5 0.5 0.8q0.5-0.2 0.9-0.4c-0.2-0.3-0.3-0.6-0.5-0.9-0.1-0.4-0.2-0.8-0.4-1.2-0.5-1-1-2.1-1.6-3.1-0.6-1.1-1.1-2.2-1.6-3.3-0.5-1-1-1.9-1.4-2.9-0.2-0.7-0.5-1.6-1.2-1.9-0.7-0.4-1.7 0-2.1 0.7-0.5 0.9 0.2 2.1 0.5 3 0.4 1.1 0.6 2.4 1 3.6 0.3 1 0.6 2.2 1 3.2q0.2 0.6 0.4 1.1c0 0.2 0 0.4 0.1 0.5 0 0 0 0.2 0 0.2-0.1 0 0.1-0.2 0-0.1q0.3-0.1 0.7-0.1c-1-0.7-1.6-2.1-2-3.2-0.3-0.9-0.6-1.9-0.8-2.8q-0.1-0.3-0.1-0.6-0.1-0.2-0.1-0.4c0-0.1 0.1-0.1 0.1-0.2-0.1-0.1 0 0-0.1 0.1 0 0 0 0-0.1 0-0.2 0.2-0.2-0.1-0.1 0.1 0.1 0.2 0.2 0.4 0.3 0.7 0.7 1.4 1.3 2.9 2 4.4 0.3 0.6 0.6 1.3 0.8 2 0.2 0.6 0.3 1.4-0.1 1.9q0.3-0.1 0.6-0.2c-0.6-0.1-0.9-0.6-1.1-1-0.3-0.6-0.5-1.1-0.8-1.7-0.6-1.2-1.3-2.6-1.2-4.1q-0.4 0.3-0.7 0.6 0.2 0.1 0.5 0.3c0.2 0.1 0.6-0.2 0.7-0.5 0.1-0.3-0.2-0.6-0.4-0.7z"/><path class="d" d="m43.6 191.8c0-1-0.4-2-0.9-2.8-0.6-1-1.5-1.8-2.5-1.8-0.4 0-0.8 0.4-0.8 0.8 0 0.5 0.3 0.8 0.8 0.8 0 0 0.2 0.1-0.1 0q0.1 0 0.2 0.1 0.1 0 0.2 0c-0.2 0-0.1 0 0 0q0.1 0.1 0.1 0.1 0.1 0.1 0.2 0.2c-0.2-0.2 0-0.1 0 0q0.1 0 0.1 0.1 0.1 0.1 0.2 0.2 0.1 0 0.1 0.1 0 0 0.1 0.1 0 0.1-0.1-0.1c0.1 0.1 0.2 0.2 0.2 0.3q0.2 0.2 0.3 0.5 0.1 0.2 0.1 0.3c0 0 0-0.1 0 0q0.1 0.1 0.1 0.2 0.1 0.3 0.1 0.5 0.1 0.2 0.1 0.3c0 0.2 0-0.2 0-0.1q0 0.1 0 0.2c0 0.4 0.3 0.8 0.8 0.8 0.3 0 0.7-0.4 0.7-0.8z"/><path class="d" d="m134.9 216.4c-1.3 0-2.9-0.5-4 0.3-0.3 0.1-0.7 0.5-0.7 0.9 0 0.3 0.2 0.6 0.4 0.8 0.4 0.4 1 0.7 1.5 0.9 1 0.3 2.5 0.6 3.4-0.2 0.5-0.5 0.6-1.1 0.5-1.7-0.2-0.9-0.9-1.4-1.6-1.7-0.8-0.2-1.6-0.1-2.4-0.1-0.9 0.1-2 0-2.7 0.6-0.2 0.1-0.3 0.4-0.3 0.7 0.2 0.6 0.7 1 1.1 1.3q0.9 0.7 1.9 1.1c0.5 0.3 1.2 0.5 1.9 0.4q0.4-0.1 0.7-0.4c0.4-0.4 0.2-1-0.1-1.4-0.8-1.6-3.1-2.6-4.4-0.9-1.1 1.4 0.1 2.8 1.2 3.7 1.3 1 3 1.7 4.6 1.9 1.1 0.2 2.1 0.1 3.2 0 0.9 0 1.8 0 2.7-0.2 0.8-0.2 1.7-0.7 2.2-1.5 0.5-0.9 0.3-2-0.2-2.9-1.1-1.6-3.5-2.6-5.3-1.7-0.7 0.4-1.4 1.1-1.2 2.1 0.2 0.9 1 1.5 1.7 1.9q1.2 0.8 2.5 1.2 0.8 0.3 1.7 0.6c0.4 0.1 0.8 0.2 1.2 0.2 0.8-0.1 1.7-1.1 1.7-2.1 0-1-0.8-1.7-1.5-2.2-0.8-0.4-1.6-0.8-2.4-1.1-1.1-0.5-2.2-1-3.4-1.1-1 0-1.9 0.4-2.5 1.3-0.5 0.8-0.7 1.8-0.1 2.6 0.9 1.5 2.6 2 4 2.5 1.4 0.4 2.8 1.1 4.2 1.1 0.8 0 1.5-0.3 2-1 0.3-0.5 0.5-1.2 0.5-1.8-0.1-1.2-1-2.1-1.9-2.6-1.2-0.6-2.4-1-3.6-1.2-1.1-0.3-2.2-0.4-3.3-0.6 0.1 0-0.1 0-0.2 0q-0.2 0-0.3-0.1-0.6 0-1.1 0c-0.7 0.1-1.6 0.3-2.1 1-0.6 0.6-0.7 1.9-0.3 2.7 0.4 0.6 1.4 0 1-0.6-0.2-0.4-0.1-1.2 0.2-1.4 0.5-0.3 1.1-0.4 1.6-0.5 0.6 0 1.4 0.2 1.9 0.2 1.8 0.3 3.7 0.6 5.3 1.4 0.7 0.3 1.3 0.7 1.5 1.4 0.1 0.1 0-0.1 0.1 0q0 0.1 0 0.1c0 0.1 0 0.2 0 0.2 0 0.1 0 0.4 0 0.4-0.1 0.4-0.2 0.8-0.6 1-0.9 0.5-2.1 0-2.9-0.3q-1.5-0.5-3-1.1c-0.5-0.2-1-0.5-1.5-0.8-0.3-0.3-0.8-0.7-0.7-1.2 0-0.6 0.5-1.2 1.1-1.4 0.7-0.2 1.5 0.1 2.1 0.3 1.4 0.5 2.9 1 4.1 1.9 0.2 0.2 0.4 0.3 0.5 0.5 0.2 0.3 0.1 0.5 0 0.8-0.4 0.5-0.6 0.5-1.2 0.3-1.5-0.4-2.9-0.9-4.2-1.7-0.3-0.3-1-0.7-1-1.2 0-0.4 0.7-0.7 1-0.7 1.2-0.4 2.9 0.4 3.6 1.7 0.3 0.5 0.2 1.2-0.3 1.6-0.5 0.5-1.1 0.6-1.7 0.7-0.6 0.1-1.2 0.1-1.9 0.1-0.7 0-1.5 0.1-2.2 0.1q-1.4-0.1-2.7-0.5c-0.5-0.2-0.8-0.4-1.3-0.7-0.7-0.4-1.8-1.1-2.1-1.9-0.1-0.2-0.1-0.2 0-0.4 0-0.1 0.2-0.3 0.3-0.4 0.5-0.4 1.1-0.3 1.6 0 0.4 0.3 0.9 0.7 1 1.3q0.1-0.3 0.1-0.6c0 0.1 0 0.1 0 0.1 0.1 0 0 0 0 0 0.1 0-0.1 0.1-0.2 0.1-0.1 0 0.2 0 0 0q-0.1 0-0.1 0c-0.1 0-0.2 0-0.3-0.1-0.4 0-0.9-0.2-1.3-0.4q-0.7-0.4-1.2-0.8-0.2-0.2-0.4-0.4c-0.1-0.1-0.1-0.1-0.1-0.2-0.1-0.1 0 0.1-0.1-0.1q-0.1 0.4-0.2 0.7c0.3-0.2 0.7-0.3 1.1-0.3 0.5 0 1 0 1.5-0.1 0.7 0 1.7-0.1 2.2 0.5q0.1 0.1 0.2 0.4 0 0.1 0 0.2c0 0.1 0 0 0 0.1 0 0.1 0 0-0.1 0.1 0 0-0.2 0.1-0.2 0.2-0.5 0.2-1.2 0.1-1.8-0.1-0.4-0.1-0.7-0.2-1-0.4q-0.1-0.1-0.2-0.1c-0.1-0.1-0.1-0.1-0.1-0.1q-0.1-0.1-0.1-0.2c0.1 0.2-0.1-0.2-0.1 0q0 0.3 0 0.5c0.1-0.2 0.2-0.3 0.5-0.3 0.4-0.1 0.7-0.1 1.1-0.1 0.6 0 1.3 0.1 2 0.2 0.7 0 0.7-1.3 0-1.3z"/><path class="d" d="m141.6 219.5c0.4-0.9 0.7-2 0.6-3 0-0.3-0.2-0.7-0.6-0.6-0.2 0-0.6 0.2-0.5 0.6q0 0.3 0 0.7 0 0-0.1 0.1 0.1-0.1 0 0 0 0.1 0 0.1 0 0.2-0.1 0.4-0.1 0.7-0.4 1.4c-0.1 0.3 0.2 0.7 0.4 0.8 0.4 0 0.6-0.1 0.7-0.5z"/><path class="d" d="m140.5 215.3q0 0.1 0 0.1-0.1 0.2-0.1 0.1 0 0 0.1-0.1c0.1 0 0.2 0 0.3-0.1 0.2-0.1 0.4-0.2 0.6-0.1 0.2 0 0.5 0.2 0.7 0.4q0.4 0.4 0.9 0.8c0.6 0.5 1.4 0.8 2.1 1.2 0.3 0.3 0.6 0.6 0.9 0.8 0.3 0.3 0.8 0.3 1.1 0.6q0.4-0.8 0.8-1.5-0.2 0-0.3-0.2c-0.3-0.3-0.8-0.3-1.1 0-0.3 0.3-0.3 0.9 0 1.2q0.3 0.3 0.6 0.5c0.9 0.4 1.6-0.9 0.8-1.5-0.4-0.2-0.9-0.3-1.2-0.6-0.4-0.3-0.8-0.6-1.2-0.9-0.9-0.5-1.7-0.9-2.4-1.5-0.7-0.7-1.4-1.2-2.4-0.9-0.8 0.3-1.7 0.7-1.7 1.7 0 1.1 1.5 1.1 1.5 0z"/><path class="d" d="m144.9 219.4q0.1 0 0.3 0c0 0 0.2 0.1 0 0q0.1 0.1 0.2 0.1 0.3 0 0.6 0.1 0.1 0.1 0.2 0.1c0 0 0.2 0.1 0.1 0q0.1 0.1 0.3 0.2 0 0 0.1 0.1c-0.1-0.1 0 0 0 0q0.1 0.1 0.1 0.1c0.1 0.1 0-0.1 0.1 0.1q0 0 0 0.1c0.1 0.1 0-0.1 0 0q0.1 0.1 0.1 0.2 0.1 0.4 0.3 0.7c0.2 0.5 0.6 0.9 1.1 0.8 0.3 0 0.6-0.3 0.6-0.6-0.1-0.3-0.3-0.6-0.6-0.6-0.1 0-0.2 0 0 0q-0.1 0 0 0 0 0 0 0c0.1 0.1 0 0 0 0-0.1-0.1 0 0.1 0 0q-0.1-0.1-0.2-0.3c0-0.1 0.1 0.2 0 0q0-0.1 0-0.1c-0.2-0.5-0.3-0.9-0.6-1.2-0.7-0.8-1.8-0.9-2.7-1-0.3 0-0.6 0.3-0.6 0.6 0 0.3 0.3 0.6 0.6 0.6z"/><path class="d" d="m139.5 223.7c0.7 0.1 1.5 0.2 2.2 0.3 0.8 0.1 1.5 0 2.2 0q1.2 0.1 2.4 0.1c0.3 0 0.6-0.1 1-0.2 0.2-0.1 0.4-0.2 0.6-0.2 0.5 0 1 0 1.5-0.1 0.6-0.3 1-0.8 1.2-1.4 0.4-1.4-0.5-2.7-1.3-3.6-0.5-0.5-1.3 0.4-0.8 0.9 0.6 0.6 1.5 1.8 0.8 2.7-0.2 0.3-0.6 0.3-0.9 0.3-0.5 0-0.9 0-1.4 0.2-0.5 0.2-1.2 0.1-1.7 0.1q-1 0-2 0c-0.6 0-1.2 0-1.9 0-0.6-0.1-1.3-0.2-1.9-0.3-0.8 0-0.8 1.2 0 1.2z"/><path class="d" d="m13.1 98.4q-0.2 0-0.3-0.1 0.2 0.3 0.4 0.5c-0.3-1.9-2-3.4-3.1-4.8-1.5-1.9-2.7-4.1-3.9-6.2-0.6-1-1.1-2-1.6-3-0.4-1.1-0.8-2.2-1.3-3.2-1.1-2-1.2-4.2-1.6-6.5-0.2-1.2-0.4-2.3-0.4-3.5 0.1-1.3-0.1-2.7 0.3-4 0.6-2.3 1.5-4.4 2.5-6.6 0.5-0.9 0.9-1.9 1.7-2.6 0.8-0.8 1.8-1.3 2.4-2.2 0.8-1 1.3-1.8 2.3-2.5 0.9-0.7 1.7-1.5 2.6-2.1 1.9-1.5 3.7-2.8 5.4-4.5 0.8-0.8 1.5-1.6 2.3-2.4 0.7-0.7 1.6-1.3 2.4-2.1 0.8-0.8 1.5-1.6 2.4-2.3 1-0.6 1.9-1.3 2.8-2 1.7-1.4 4.1-2.3 6.1-3.1 2.2-0.8 4.3-1.8 6.5-2.6q1.6-0.5 3.3-0.9c1.1-0.3 2.3-0.4 3.4-0.7 1-0.3 1.9-0.7 2.9-1q1.9-0.4 3.9-0.8c2.4-0.4 4.8-0.7 7.2-1.2 1.1-0.2 2.3-0.5 3.4-0.6 1.2-0.1 2.3-0.1 3.4-0.3 1-0.3 2-0.4 3-0.7 1-0.4 2-1 3-1.4 1-0.4 1.9-1 3-1.1 1.2 0 2.4 0.1 3.6-0.1 2.3-0.2 4.5-0.6 6.7-1.2 2.2-0.6 4.6-0.3 6.9-0.3 2.2 0 4.4-0.4 6.6-0.5 2.2-0.2 4.4 0.1 6.4 1.3 1.9 1.1 4 1.1 6.1 1.7 2.2 0.7 4.3 1.6 6.5 2.4q3.4 1.2 6.7 2.7c2.1 1 4.1 2.2 6.1 3.2 2 0.9 4.2 1.6 6.1 2.7 4 2.5 7.1 6.2 10.1 9.9 1.5 1.8 3 3.5 4.8 5.1 1.7 1.5 3.2 2.9 5.1 4 1.9 1.1 4.1 1.4 6 2.4 0.9 0.5 1.7 0.9 2.6 1.2 1.1 0.3 2.1 0.9 3.2 1.3 1.9 0.6 4.3 1.1 6.2 0.8 1.1-0.1 2.1-0.3 3.1-0.5 1.1-0.3 2.3-0.2 3.5-0.5 2-0.5 3.8-1.7 5.7-2.6 1.9-0.9 3.9-1.9 5.6-3.3 1.5-1.2 2.1-3.3 3.3-4.9 0.6-0.7 1.3-1.3 1.9-2 0.6-0.8 0.8-1.9 1.5-2.6 0.6-0.6 1.4-0.9 2-1.7 0.5-0.7 0.9-1.4 1.2-2.3 0.2-0.7-0.9-1.1-1.1-0.3-0.3 1-1 2-1.8 2.6-0.7 0.6-1.4 1-1.8 1.9-0.4 1-0.9 1.7-1.7 2.4-0.6 0.7-1.2 1.4-1.7 2.3-0.6 0.9-1.1 2-1.7 2.9-0.6 0.8-1.6 1.3-2.5 1.9-1.9 1.2-4.1 2.2-6.1 3.2-1 0.5-1.9 1-3 1.3-1 0.3-2.2 0.2-3.3 0.4-1.1 0.2-2.3 0.6-3.4 0.7-1.3 0-2.6-0.3-3.9-0.5-1-0.2-2-0.5-3-0.9-1-0.5-2.1-0.8-3.1-1.2-0.9-0.4-1.7-1-2.6-1.3-1.1-0.4-2.2-0.7-3.3-1.1-2.3-1-4-2.6-5.8-4.2-1.7-1.6-3.2-3.1-4.7-4.9-3-3.7-6-7.3-9.8-9.9-1.8-1.3-3.8-2-5.8-2.9-2.2-0.9-4.3-2.2-6.4-3.3-4.2-2-8.5-3.4-12.8-5-1.1-0.4-2.1-0.8-3.2-1-1.2-0.2-2.5-0.2-3.5-0.8-0.9-0.4-1.6-0.9-2.5-1.2-1-0.4-2-0.6-3-0.7-2.2-0.1-4.3 0.4-6.6 0.5-2.2 0.2-4.5 0-6.8 0-1 0-2 0.2-3 0.5-1.2 0.3-2.3 0.5-3.5 0.7-1.2 0.2-2.4 0.4-3.6 0.5-1.1 0.1-2.2-0.1-3.3 0.1-1 0.2-1.9 0.8-2.8 1.2-1.1 0.4-2 1-3.1 1.3-2.1 0.7-4.3 0.7-6.5 1-2.4 0.3-4.8 0.9-7.2 1.3-2.4 0.4-4.8 0.7-7.2 1.4-1 0.2-2 0.7-3 0.9-1.2 0.3-2.5 0.4-3.7 0.8-2.2 0.6-4.2 1.4-6.3 2.3-1.1 0.5-2.2 0.8-3.2 1.2-1.2 0.5-2.2 1.1-3.4 1.6-1.9 0.8-3.4 2.2-5.1 3.4-1.7 1.2-3.1 2.8-4.7 4.2-1.8 1.6-3.3 3.5-5.2 5-1.8 1.4-3.6 2.9-5.4 4.2-0.7 0.5-1.4 1-1.9 1.8-0.4 0.6-0.7 1.1-1.1 1.6-0.5 0.4-1 0.8-1.5 1.2-1.6 1.3-2.3 3.3-3.2 5.2-0.5 0.9-0.9 1.9-1.1 3-0.3 1-0.8 2-0.9 3.1-0.1 1.2 0 2.4 0 3.5 0 1.2 0.2 2.3 0.4 3.5 0.4 2.1 0.5 4.3 1.4 6.2 1 2 1.8 4 2.8 6 1.2 2.1 2.4 4.3 3.8 6.2q0.9 1.4 2 2.6c0.6 0.8 1.3 1.6 1.5 2.6 0 0.2 0.2 0.4 0.4 0.4q0.1 0.1 0.3 0.1c0.7 0.2 1-1 0.3-1.2z"/><path class="d" d="m199.6 47.5c0.1 0 0 0 0.1 0.1q0.1 0.1 0.3 0.2 0.2 0.3 0.5 0.6 0.5 0.8 1.1 1.6c1 1.3 1.7 2.9 2.6 4.4 0.7 1.4 1.6 2.8 2.7 3.8 1 1 2.3 1.8 3.5 2.5 1.4 0.7 2.9 1.3 4.3 2 0.3 0.1 0.6 0.1 0.8-0.3 0.1-0.2 0-0.7-0.2-0.8-2.6-1.2-5.4-2.1-7.5-4.1-1.2-1.1-2-2.5-2.8-4-0.8-1.5-1.6-3.1-2.7-4.5-0.4-0.5-0.7-1.1-1.2-1.6-0.3-0.5-0.8-1.1-1.5-1.1-0.7 0-0.7 1.2 0 1.2z"/><path class="d" d="m194.9 52q-0.2-0.1-0.4-0.1 0.2 0.3 0.4 0.6 0-0.1 0.1-0.2-0.1 0.1-0.1 0.2 0.1-0.3 0.2-0.6 0 0-0.1 0.1 0.2-0.3 0.4-0.6-0.1 0.1-0.1 0.1 0.1-0.2 0.3-0.3-0.1 0.1-0.1 0.1 0-0.1 0.2-0.1-0.1 0-0.2 0 0.1 0 0.1 0-0.3-0.3-0.7-0.6 0 0.3 0.1 0.7c0 0.1 0 0.3 0.1 0.4 0.1 0.1 0.3 0.2 0.4 0.2q0.3 0 0.4-0.2c0.1-0.1 0.2-0.3 0.2-0.4q0-0.4-0.1-0.7c0-0.2 0-0.3-0.2-0.5q-0.2-0.2-0.5-0.1c-0.5 0.2-0.8 0.6-1.1 1.1-0.2 0.4-0.4 0.9-0.4 1.4 0 0.2 0.2 0.5 0.4 0.6q0.2 0 0.4 0.1 0.2 0 0.4-0.1c0.1-0.1 0.3-0.2 0.3-0.4 0-0.3-0.1-0.7-0.4-0.7z"/><path class="d" d="m204.5 41.1c0.4-0.8 0.9-1.6 1.6-2.2 0.7-0.5 1.5-0.9 2.3-1.3 0.9-0.4 1.8-0.8 2.7-1.2 1-0.3 2.1-0.7 3.1-0.6 0.6 0 1.2 0 1.8-0.1 0.6-0.2 1.2-0.4 1.8-0.3 0.8 0 0.8-1.3 0-1.3-0.6 0-1.1 0.1-1.7 0.3-0.5 0.1-1 0.2-1.6 0.2-1.2-0.1-2.3 0.2-3.4 0.6-1 0.3-2 0.8-2.9 1.2-0.9 0.4-1.8 0.8-2.5 1.3-1 0.8-1.7 1.7-2.1 2.8-0.2 0.3-0.1 0.7 0.2 0.9 0.2 0.1 0.6 0 0.7-0.3z"/><path class="d" d="m13.5 96.4c0-0.7 0-1.4 0.3-2 0.2-0.5 0.7-0.8 1.1-1.1 0.5-0.4 0.9-0.8 1.4-1.3 0.5-0.5 1.1-0.8 1.7-1 1.4-0.7 2.9-1.2 4.4-1.4q1.1-0.2 2.2-0.3c0.7-0.1 1.5 0 2.2-0.1 0.8-0.1 1.6-0.4 2.4-0.4 0.9-0.1 1.9 0 2.8 0 0.7 0 0.7-1.3 0-1.3-0.9 0-1.8 0-2.6 0-0.8 0.1-1.6 0.3-2.3 0.4-0.8 0.2-1.7 0.1-2.5 0.2q-1.1 0-2.3 0.2c-1.6 0.3-3.2 0.9-4.7 1.5-0.7 0.3-1.4 0.6-2 1.2-0.4 0.4-0.8 0.9-1.4 1.3-0.5 0.4-1.1 0.8-1.4 1.5-0.4 0.8-0.4 1.7-0.4 2.6 0 0.8 1.1 0.8 1.1 0z"/><path class="d" d="m41.4 107.5c0.3-1.5 0.7-2.8 0.2-4.3-0.4-1.3-1-2.5-1.9-3.5-0.5-0.5-1-0.8-1.4-1.3-0.5-0.5-0.7-1.2-1.1-1.8-0.4-0.5-0.9-1-1.3-1.6-0.4-0.6-0.6-1.3-1.1-1.9-0.3-0.6-0.8-1.1-1.1-1.7q-0.6-1.1-1.1-2.1-0.5-1.1-1-2.2c-0.3-0.6-0.8-1.2-1-1.9-0.3-1.3-0.1-2.7-0.1-4.1 0-0.5 0-1 0.2-1.6 0.2-0.5 0.6-0.9 1-1.3 1-0.9 2.2-1.6 3.5-2 0.6-0.1 1.2-0.1 1.9-0.2 0.7-0.1 1.3-0.5 2-0.6 0.7-0.1 1.5-0.2 2.2-0.3 0.7-0.2 1.4-0.5 2.1-0.8 1.4-0.5 2.8-1 4.2-1.4q4.4-1.2 8.9-2.2 2.2-0.5 4.4-1c1.4-0.3 2.8-0.6 4.1-1 1.4-0.3 2.7-1 4.1-1.4 1.4-0.4 2.9-0.7 4.2-1.2 1.4-0.5 2.7-1.3 3.9-2.1 1.2-0.7 2.4-1.4 3.4-2.2q0.9-0.7 1.6-1.5c0.5-0.5-0.3-1.4-0.8-0.8-1 1-2.1 1.8-3.2 2.5-1.3 0.8-2.5 1.6-3.8 2.3-1.3 0.7-2.7 1.1-4.2 1.4q-1 0.3-2.1 0.6c-0.7 0.3-1.3 0.6-2 0.8-1.4 0.5-2.7 0.8-4.1 1.1q-2.2 0.5-4.4 1-4.5 1-8.9 2.2c-1.5 0.4-2.9 0.8-4.4 1.3-1.4 0.4-2.7 1.2-4.2 1.3-0.7 0.1-1.5 0.2-2.2 0.4-0.6 0.3-1.2 0.4-1.9 0.5-1.3 0.1-2.6 0.6-3.7 1.4-1.1 0.7-2.2 1.6-2.7 2.8-0.4 1.1-0.2 2.4-0.3 3.6 0 0.7 0 1.4 0.1 2.1 0.1 0.8 0.4 1.4 0.7 2 0.7 1.4 1.4 2.8 2.1 4.2 0.3 0.8 0.7 1.5 1.2 2.1 0.1 0.2 0.3 0.4 0.5 0.7 0.2 0.3 0.4 0.7 0.5 1.1 0.4 0.6 0.8 1.2 1.3 1.7 0.4 0.6 0.8 1.1 1.1 1.8 0.4 0.6 0.9 1 1.4 1.5 0.4 0.4 0.9 0.8 1.2 1.3 0.4 0.6 0.7 1.2 0.9 1.9 0.3 0.6 0.4 1.3 0.4 2-0.1 0.7-0.3 1.4-0.4 2-0.1 0.8 1 1.1 1.1 0.4z"/><path class="d" d="m61.4 69.9c0 1.9 0.3 3.7 0.5 5.6 0.3 1.9 0.4 3.8 0.3 5.7 0 1.9-0.1 3.8 0 5.7 0.1 0.9 0.2 1.9 0.3 2.8 0.1 1 0.1 2 0.1 3q0 2.8 0 5.7c0 1 0 1.9-0.1 2.9-0.2 0.8-0.4 1.7-0.6 2.5-0.3 1.9-0.2 3.8-0.2 5.7 0.1 0.9 0 1.8 0.1 2.7 0.1 0.9 0.3 1.7 0.4 2.6 0 1.9 0 3.8 0 5.7q0 3-0.1 5.9 0 3 0 6c0 1.9 0.2 3.8 0 5.6-0.1 0.9-0.4 1.7-0.7 2.4q-0.4 1.3-0.7 2.6c-0.3 0.9-0.5 1.8-0.6 2.7-0.1 0.9-0.1 1.8-0.2 2.7-0.1 0.8-0.2 1.7-0.5 2.5-0.3 0.8-0.6 1.6-0.9 2.4q-0.4 1.2-0.5 2.5c0 0.9 0.1 1.7 0.1 2.6-0.1 3.4-3.1 4.9-5.5 6.3-1.5 0.9-3 1.8-4.6 2.7-1.4 0.7-2.5 1.9-3.9 2.8-0.6 0.4-1.2 0.9-1.6 1.4-0.5 0.6 0.3 1.5 0.8 0.9 0.5-0.6 1.1-1 1.7-1.4 0.7-0.5 1.2-1 1.8-1.5 1.4-1.2 3.1-1.9 4.6-2.8 1.3-0.8 2.7-1.5 4-2.4 1.1-0.7 2.2-1.6 2.9-2.8q0.7-1.1 0.9-2.4c0.1-0.9 0-1.7 0-2.6-0.1-0.9 0-1.8 0.3-2.6 0.3-0.9 0.6-1.6 0.9-2.4 0.6-1.7 0.6-3.5 0.8-5.3 0.2-1.8 0.7-3.6 1.2-5.3 0.3-0.8 0.7-1.6 0.8-2.5 0.1-0.8 0.1-1.6 0.1-2.4q0-3 0-6 0-6.1 0-12.1c0-0.9 0-1.8 0-2.7 0-1-0.1-1.8-0.3-2.7-0.1-0.9-0.1-1.9-0.1-2.8q0-1.5 0-2.9c0-1 0-1.9 0.2-2.9 0.1-0.8 0.3-1.6 0.5-2.5 0.1-0.9 0.1-1.8 0.1-2.8q0-1.5 0-3c0-1.9 0.1-3.9 0-5.8-0.2-1.9-0.4-3.8-0.4-5.7 0-2 0.1-3.9 0-5.8 0-1.9-0.4-3.8-0.6-5.6q-0.2-1.5-0.2-2.9c0-0.8-1.2-0.8-1.1 0z"/><path class="d" d="m43.4 170.5q0-0.1 0.1-0.2-0.1 0.1-0.1 0.2 0.1-0.2 0.2-0.4 0 0.1-0.1 0.2c0.3-0.4 0.7-0.7 1-1.1q-0.4-0.4-0.8-0.9 0 0.1-0.1 0.1 0.1 0 0.1-0.1c-0.2 0.2-0.4 0.3-0.7 0.5-0.3 0.2-0.6 0.5-0.7 0.9 0 0.2 0 0.4 0.1 0.5 0 0.1 0.2 0.3 0.3 0.3 0.2 0 0.3 0 0.5-0.1 0.1 0 0.2-0.2 0.2-0.3q0-0.1 0.1-0.2-0.1 0.1-0.1 0.1 0 0 0.1-0.1-0.1 0-0.1 0.1 0.1-0.1 0.1-0.1 0 0-0.1 0.1 0.3-0.2 0.5-0.4 0.4-0.1 0.6-0.4c0.2-0.2 0.3-0.6 0-0.9-0.2-0.2-0.5-0.2-0.8 0-0.2 0.3-0.5 0.5-0.7 0.8q-0.3 0.2-0.4 0.5-0.2 0.3-0.3 0.6 0 0.2 0.1 0.4c0 0.2 0.2 0.3 0.3 0.3 0.2 0.1 0.3 0.1 0.5 0 0.1-0.1 0.2-0.2 0.2-0.4z"/><path class="d" d="m62.7 138.2q-0.1 0.2-0.3 0.3c-0.2 0.4-0.1 0.9 0.3 1.1 0.6 0.2 1.3 0.1 1.9-0.1q1-0.2 2.1-0.2c1.5-0.1 3-0.1 4.5-0.1 1.4-0.1 2.8-0.1 4.2 0.2q2.2 0.5 4.4 1.2c1.4 0.3 2.7 1.1 4 1.7 1.4 0.5 2.8 0.8 4.3 0.9 1.4 0.2 2.9 0.3 4.4 0.6q1.1 0.2 2.2 0.4c0.7 0.2 1.5 0.4 2.2 0.6 0.7 0.1 1.4 0.1 2.1 0.2 0.7 0 1.4 0.2 2.2 0.3 1.4 0.2 2.8 0.2 4.2 0.1 3-0.1 6-0.1 9.1-0.1 1.5 0 3 0 4.6 0.2 1.4 0.1 2.9 0.3 4.4 0.3 0.7 0 1.4-0.1 2-0.3 0.7-0.2 1.2-0.5 1.9-0.6 1.4-0.3 2.8 0 4.2 0 1.4 0 2.8 0.2 4.1 0.1 0.7-0.1 1.3-0.4 1.9-0.5 0.7-0.1 1.5 0 2.2 0 1.4 0 2.9 0.1 4.3 0 0.7 0 1.3-0.2 2-0.3 0.6-0.2 1.1-0.1 1.7-0.1 0.6 0 1.1-0.2 1.6-0.7 0.4-0.6-0.4-1.4-0.9-0.8-0.3 0.4-0.9 0.2-1.3 0.2-0.7 0-1.3 0.1-2 0.3-1.3 0.4-2.7 0.2-4.1 0.2q-1-0.1-2.1-0.1c-0.7 0-1.4 0-2.1 0.2-0.6 0.2-1.2 0.4-1.8 0.4-0.7 0-1.4-0.1-2.1-0.1q-2.1-0.1-4.2-0.1c-0.7 0-1.3 0-2 0.2-0.6 0.1-1.2 0.4-1.8 0.6-1.3 0.4-2.9 0.1-4.2 0-1.5-0.1-3-0.3-4.4-0.3-3.1 0-6.2-0.1-9.2 0-1.4 0.1-2.8 0.2-4.2 0.1q-1 0-2.1-0.1c-0.7-0.2-1.3-0.3-2-0.4-0.8 0-1.5 0-2.2-0.2q-1.1-0.3-2.2-0.5-2.1-0.5-4.3-0.7c-1.5-0.2-2.9-0.4-4.4-0.7-1.4-0.3-2.6-1-3.9-1.6-1.4-0.6-2.8-0.9-4.2-1.2-1.5-0.4-2.8-0.8-4.3-0.9-1.4 0-2.8 0.1-4.2 0.1-1.5 0-3 0-4.5 0.2-0.5 0.2-1.1 0.4-1.7 0.2q0.1 0.5 0.3 1 0.1-0.2 0.2-0.4c0.5-0.6-0.3-1.4-0.8-0.8z"/><path class="d" d="m155.3 69.5q0 3.8 0 7.5c0 1.2 0.1 2.4-0.2 3.6-0.2 1.1-0.5 2.1-0.6 3.2-0.2 1.2-0.2 2.5-0.4 3.7q-0.3 1.7-0.6 3.4c-0.5 2.3-0.6 4.6-0.9 7-0.3 2.3-0.1 4.7-0.2 7.1 0 1.3-0.2 2.5-0.3 3.8-0.1 1.2 0 2.4-0.1 3.6-0.1 1.1-0.3 2.3-0.3 3.5-0.1 1.2-0.1 2.4-0.2 3.6-0.1 1.2-0.3 2.4-0.5 3.7-0.1 1.2-0.1 2.4-0.3 3.5-0.2 1.1-0.3 2.2-0.4 3.2-0.1 0.6-0.2 1.1-0.3 1.7-0.1 0.5 0 1.1 0 1.6 0 0.6-0.1 1.1-0.3 1.6-0.1 0.6-0.2 1.2-0.2 1.7-0.2 1.3-0.3 2.5-0.6 3.7-0.3 1.2-0.5 2.3-0.5 3.5 0 1.2-0.2 2.3-0.3 3.5-0.2 1.1-0.1 2.3-0.3 3.4-0.2 1.2-0.5 2.3-0.8 3.5-0.6 2.3-1 4.6-1.4 6.9-0.2 1.2-0.4 2.4-0.5 3.7 0 1.1 0 2.3 0 3.5-0.2 4.8 0.9 9.6 0.2 14.4-0.2 1.1-0.4 2.3-0.5 3.4-0.1 0.6 0 1.2-0.1 1.7-0.1 0.6-0.2 1.1-0.4 1.6-0.3 1.1-0.4 2.2-0.6 3.3-0.2 1.2-0.5 2.4-0.7 3.6-0.3 2.3-0.3 4.7-0.7 7-0.2 1.1-0.3 2.2-0.5 3.3-0.2 0.9-0.4 1.7-0.3 2.7 0 0.6 0.3 1.8-0.1 2.3q0.3 0 0.6-0.1-0.3-0.2-0.6-0.3c-0.7-0.3-1 0.9-0.3 1.2q0.2 0.1 0.4 0.2c0.2 0.1 0.5 0.1 0.7-0.1 1-1.3 0.2-3.2 0.5-4.8 0.2-1 0.3-2.1 0.5-3.2q0.3-1.7 0.5-3.4c0.3-2.4 0.4-4.9 0.9-7.3 0.3-1.1 0.3-2.3 0.6-3.4 0.3-1.1 0.6-2 0.7-3.1 0.1-2.4 0.7-4.6 0.8-7 0-2.4 0-4.9-0.3-7.2-0.3-2.5-0.1-4.9-0.1-7.4 0-2.5 0.5-5 0.9-7.4 0.4-2.4 1.2-4.6 1.7-6.9 0.2-1.2 0.2-2.3 0.2-3.4 0.1-1.1 0.4-2.2 0.5-3.3 0-0.7-0.1-1.3 0-1.9 0-0.7 0.2-1.3 0.3-1.9 0.3-1.2 0.5-2.4 0.6-3.6 0.1-0.6 0.1-1.2 0.3-1.8 0.1-0.5 0.3-1.1 0.3-1.6 0.1-0.6 0-1.1 0-1.6 0-0.6 0.2-1.2 0.3-1.8 0.1-1.1 0.1-2.2 0.4-3.2 0.2-1.2 0.2-2.3 0.3-3.5 0.1-1.2 0.3-2.5 0.5-3.7 0.1-1.2 0.1-2.4 0.2-3.6 0-1.2 0.2-2.4 0.3-3.6 0.1-1.2 0.1-2.4 0.1-3.6 0.1-1.3 0.3-2.5 0.4-3.8 0-1.3 0-2.6 0-3.9 0-1.2 0-2.3 0.1-3.5 0.2-1.1 0.3-2.3 0.4-3.4 0.1-2.4 0.8-4.8 1.1-7.2 0.2-1.2 0.2-2.4 0.4-3.6 0.2-1.1 0.5-2.1 0.7-3.2 0.2-1.2 0.1-2.4 0.1-3.6q0-1.8 0-3.7 0-1.9 0-3.8c0-0.8-1.1-0.8-1.1 0z"/><path class="d" d="m50.1 188.3c2.1 0.1 4.2 0.3 6.3 0.1 1 0 2-0.3 3-0.4 1-0.2 2.1-0.1 3.2-0.1q1.5 0 3.1-0.2c1-0.1 2.1-0.1 3.1-0.3 2-0.3 4-1.1 5.9-1.8 1.9-0.7 3.6-1.7 5.3-2.7 1.7-1 3.5-2 5.2-3.2 1.6-1.1 3.2-2.4 5-3.2 0.8-0.4 1.7-0.6 2.5-1q1.2-0.6 2.3-1.4 0.5-0.5 1.1-0.9c0.3-0.3 0.7-0.5 1.1-0.7q0.5-0.4 0.9-0.9c0.3-0.4 0.4-0.8 0.6-1.3 0.3-1 1.1-1.5 1.8-2 0.7-0.5 1.5-0.9 2.2-1.5 0.7-0.6 1.2-1.4 1.7-2.2 0.2-0.4 0.5-0.8 0.7-1.2 0.2-0.4 0.3-0.7 0.5-1 0.2-0.3 0.5-0.3 0.8-0.1 0.3 0.4 0.2 0.9 0.4 1.4 0.1 0.4 0.3 0.7 0.6 1.1 0.3 0.5 0.5 1 0.8 1.6 0.4 1 0.7 2.1 1 3.2q0.4 1.6 0.9 3.3c0.6 2.1 1.2 4.3 2.1 6.2 0.5 1 1.1 1.8 1.6 2.8 0.4 0.9 0.7 1.9 1 2.9 0.3 1 0.8 1.9 1.2 2.9 0.4 1 0.9 2 1.5 2.9 0.5 0.9 0.9 1.9 1.2 2.9 0.3 1 0.6 2 1 3 0.8 1.9 2 3.6 3 5.4 1 1.8 1.9 3.6 2.6 5.5 0.6 2.2 0.9 4.4 1.5 6.5 0.3 1 0.6 2 0.5 3-0.1 0.8 1.1 0.8 1.1 0 0.1-1.1-0.2-2.2-0.5-3.2q-0.4-1.7-0.8-3.4c-0.2-1-0.4-2.1-0.7-3.2q-0.5-1.5-1.2-2.9c-0.8-1.8-1.9-3.6-3-5.4-0.5-0.9-1.1-1.8-1.5-2.8-0.4-0.9-0.6-2-0.9-3q-0.5-1.5-1.3-2.9c-0.5-0.9-1-1.8-1.4-2.9-0.4-1-1-2-1.3-3q-0.5-1.5-1.1-3c-0.4-1-1.1-1.9-1.5-2.8-0.5-1-0.8-2-1.2-3-0.7-2.2-1.2-4.5-1.9-6.7-0.3-1.1-0.6-2.2-1.1-3.2-0.2-0.5-0.4-1-0.7-1.4-0.3-0.4-0.5-0.8-0.5-1.3-0.1-0.9-0.8-1.8-1.8-1.9-0.9 0-1.4 0.8-1.8 1.6-0.3 0.8-0.9 1.6-1.4 2.4-0.5 0.8-1.2 1.3-2 1.8-0.8 0.5-1.6 1-2.2 1.6-0.3 0.3-0.6 0.7-0.8 1.1-0.2 0.5-0.3 1-0.6 1.5-0.2 0.3-0.5 0.5-0.8 0.6q-0.6 0.4-1.2 0.9c-0.7 0.6-1.5 1.1-2.3 1.6-0.8 0.5-1.6 0.8-2.5 1.1-0.9 0.3-1.7 0.8-2.6 1.3-1.6 1.1-3.2 2.3-4.9 3.4-1.8 1-3.5 2.1-5.3 3.1q-1.4 0.8-2.8 1.4c-1 0.3-2 0.6-2.9 1-1 0.3-2 0.6-3 0.8-1 0.2-2.1 0.3-3.1 0.4q-1.6 0.2-3.2 0.2c-1.1 0-2.2-0.1-3.2 0-1 0.1-2 0.4-3 0.5-1 0.1-2.1 0.1-3.1 0-1.1 0-2.1-0.1-3.2-0.1-0.7 0-0.7 1.2 0 1.2z"/><path class="d" d="m154.6 83c0.4 0.5 0.7 1.1 1.1 1.6 0.4 0.4 0.9 0.8 1.4 1.1q1.7 0.8 3.4 1.6 0.9 0.5 1.8 0.8c0.7 0.2 1.4 0.4 2 0.5 1.4 0.4 2.7 0.9 4 1.3 1.3 0.3 2.6 0.7 4 0.8 1.2 0.1 2.5-0.1 3.7-0.3q1-0.1 1.9 0 0.5 0 0.9 0.1c0.3 0.1 0.5 0.2 0.8 0.4 1.1 0.4 2.4 0.1 3.5 0.1 0.7 0 1.3 0 2 0 0.7-0.1 1.2-0.3 1.9-0.6 1.2-0.5 2.5-0.4 3.8-0.5 1.4-0.1 2.6-0.5 4-0.8 1.3-0.3 2.5-0.8 3.6-1.6 0.5-0.3 1.1-0.7 1.6-1 0.6-0.3 1.2-0.5 1.7-0.7 1.1-0.5 2.1-1.3 3-2.1 1.9-1.6 3-4.1 4.2-6.3 0.7-1.2 1.3-2.3 2-3.5 0.7-1.1 1.6-2 2.3-3.1 0.3-0.6 0.6-1.2 0.7-1.9 0.2-0.4 0.3-0.9 0.4-1.4 0.2-0.8 0.3-1.7 0.6-2.5q0-0.2 0.1-0.4c0.1-0.1 0.1-0.1 0.1-0.1 0-0.1 0.1 0 0 0 0.7-0.3 0.4-1.5-0.3-1.2-0.7 0.2-1 1.1-1.2 1.9-0.2 0.7-0.3 1.6-0.5 2.4-0.1 0.5-0.3 1.2-0.5 1.7-0.2 0.6-0.6 1.1-1 1.6q-1.2 1.5-2.2 3.2c-1.3 2.3-2.4 4.7-3.8 6.9-0.7 0.9-1.5 1.7-2.4 2.4q-0.7 0.5-1.5 1c-0.5 0.3-1.1 0.5-1.6 0.8-1.2 0.5-2.2 1.3-3.3 1.9-1.2 0.6-2.5 0.8-3.8 1.1-0.6 0.2-1.3 0.4-1.9 0.5-0.7 0-1.3 0-1.9 0.1-0.7 0-1.4 0-2 0.2-0.6 0.2-1.2 0.6-1.8 0.7-0.6 0.1-1.3 0.1-2 0.1-0.5 0-1.1 0-1.7 0.1-0.5 0-1.1 0-1.6-0.1-0.3-0.1-0.6-0.3-0.8-0.4-0.3-0.1-0.7-0.2-1-0.2-2.5-0.3-4.9 0.6-7.3 0.1-2.7-0.6-5.3-1.6-8-2.3-1.2-0.3-2.4-0.9-3.5-1.5-1-0.5-2.3-0.9-3-1.9-0.4-0.4-0.7-1-1.1-1.5-0.4-0.6-1.2 0.3-0.8 0.9z"/><path class="d" d="m108.9 10.4q-0.2-0.2-0.2-0.5c-0.2-0.4-0.7-0.6-1-0.3-0.8 0.8-0.8 2.2-1.1 3.2-0.2 1.1-0.6 2.2-1 3.2-0.3 0.9-0.5 1.8-0.7 2.7 0 0.8 0 1.8 0.7 2.4 0.3 0.3 0.8 0.2 0.9-0.3q0.1-0.1 0.1-0.3c0.3-0.7-0.8-1-1.1-0.3q0 0.1-0.1 0.3 0.5-0.2 1-0.3c-0.4-0.4-0.4-1.1-0.3-1.7 0.2-0.8 0.4-1.6 0.7-2.3 0.3-1 0.6-1.9 0.9-2.8q0.2-0.8 0.3-1.7c0.1-0.4 0.2-0.9 0.5-1.2q-0.5-0.1-1-0.3 0.2 0.6 0.6 1c0.5 0.6 1.3-0.3 0.8-0.8z"/><path class="d" d="m12.1 97.7c0.5 0.7 1 1.5 1.5 2.2 0.5 0.8 1 1.5 1.6 2.2q0.7 0.9 1.4 1.9c0.4 0.6 1 1.1 1.6 1.6 2.7 2 5.7 3.6 8.6 5.4 0.7 0.4 1.4 0.8 2.2 0.9 0.2 0 0.5 0 0.7 0.1 0.3 0 0.5 0.3 0.6 0.5 0.2 0.3 0.6 0.2 0.8 0 0.3-0.3 0.2-0.6 0-0.9-0.3-0.5-0.8-0.8-1.4-0.9-0.6 0-1-0.1-1.5-0.4-0.7-0.3-1.4-0.8-2-1.1q-1.2-0.7-2.3-1.4-2.2-1.3-4.4-2.8c-0.6-0.4-1.3-0.8-1.8-1.4-0.4-0.6-0.8-1.3-1.3-1.9-0.6-0.7-1.2-1.5-1.8-2.3-0.6-0.9-1.1-1.7-1.7-2.6-0.2-0.2-0.6-0.2-0.8 0-0.2 0.3-0.2 0.7 0 0.9z"/></svg>