<svg width="224" height="227" viewBox="0 0 224 227" fill="none" xmlns="http://www.w3.org/2000/svg">
<path d="M65.0004 139.3C65.0004 139.3 135.7 153.7 150.8 143.3C150.3 174.4 143.8 212.4 143.8 212.4L129.2 215.2L115.2 168C115.2 168 114.7 156.5 101.2 169.2C87.7004 181.8 60.1004 192.2 55.3004 188.7C50.4004 185.3 43.4004 169.2 43.4004 169.2C43.4004 169.2 65.5004 173.2 65.0004 139.3Z" fill="#0FA6A6"/>
<path d="M14.2999 96.3001L34.7999 87.6001C34.7999 87.6001 28.8999 78.9001 35.8999 77.2001C42.8999 75.5001 65.5999 70.3001 65.5999 70.3001L65.4999 138.7C65.4999 138.7 147.1 151.5 151.9 142.2C156.8 132.9 157.9 84.2001 157.9 84.2001C157.9 84.2001 181.6 95.8001 190.8 91.2001C200 86.5001 213.5 75.0001 218.9 65.7001C210.3 59.3001 202.7 50.6001 202.7 47.1001C202.7 43.6001 191.4 71.5001 173 58.1001C154.7 44.8001 139 30.9001 126.1 26.8001C113.1 22.7001 80.1999 17.5001 53.1999 29.7001C26.1999 41.8001 -11.6001 51.7001 14.2999 96.3001Z" fill="#AFE8D9"/>
<path d="M105 22.6999C105 22.6999 102.3 13.9999 108.2 11.0999C114.2 8.19993 123.4 8.79993 123.4 8.79993C123.4 8.79993 128.2 26.1999 126.1 26.7999C123.9 27.3999 105 22.6999 105 22.6999Z" fill="#1D1C20"/>
<path d="M11.5996 97.4998C11.5996 97.4998 23.9996 88.7998 27.7996 88.7998C31.5996 88.7998 41.2996 105.6 41.2996 105.6L36.3996 106.8L36.8996 110.8L34.7996 111.4L34.1996 113.7C34.1996 113.7 19.0996 110.8 11.5996 97.4998Z" fill="#1D1C20"/>
<path d="M198.9 44.8001C198.9 44.8001 211.9 68.0001 215.1 63.9001C218.3 59.9001 223.2 48.3001 223.2 48.3001H216.7L221.6 43.6001H218.4L220 40.8001L216.2 40.2001L218.9 36.1001C218.9 36.1001 213.5 36.1001 210.8 37.3001C208.1 38.4001 205.4 37.8001 198.9 44.8001Z" fill="#1D1C20"/>
<path d="M154.4 69.3998C154.8 77.5998 153.8 85.6998 153.2 93.7998C153.066 95.8665 153 97.9331 153 99.9998C152.9 101 153 102 152.8 102.9C152.666 104.033 152.533 105.133 152.4 106.2C151.933 110.333 151.466 114.433 151 118.5C149.2 135 147.5 151.6 145.7 168.2C144.833 176.533 143.933 184.866 143 193.2C142.533 197.4 142.066 201.566 141.6 205.7C141.4 207.6 141 209.4 141.3 211.3C141.5 212.9 142.3 214.5 143.4 215.6C144.5 216.8 145.9 217.6 147.2 218.5C147.9 218.9 148.5 219.4 149 220.1C149.5 221 149.2 221.5 148.6 222.3C146.8 224.4 144 224.7 141.5 224.5C140.1 224.4 138.8 224.2 137.5 224C136.833 223.933 136.2 223.866 135.6 223.8C134.9 223.7 134.3 223.4 133.7 223.1C133 222.7 132.2 222.5 131.6 221.9C130.9 221.4 130.4 220.7 129.9 220C129 218.7 128.3 217.2 127.7 215.7C126.9 214 126.5 212.1 125.9 210.3C125.2 208.3 124.7 206.4 124 204.4C122.6 200.6 121.2 196.766 119.8 192.9C116.9 185.3 114.1 177.8 111.5 170.1C110.7 167.6 110 163.5 107.5 162.2C106.4 161.7 104.9 161.8 103.9 162.5C102.7 163.2 101.9 164.6 101.2 165.9C99.3997 168.9 97.1997 171.6 94.4997 173.8C92.9997 175 91.3997 176.1 89.7997 177.3C88.2997 178.5 86.7997 179.6 85.0997 180.5C81.8997 182.4 78.4997 184.2 74.8997 185.3C71.2997 186.4 67.5997 186.9 63.7997 187.2C59.9997 187.5 56.1997 187.6 52.3997 188C51.0997 188.1 49.7997 188.3 48.6997 189.2C47.8997 189.9 47.2997 190.9 46.9997 192C46.4997 193.3 46.3997 194.5 45.9997 195.8C45.7997 196.5 45.1997 196.6 44.5997 196.3C43.6997 195.9 43.2997 194.8 42.7997 194C40.9997 190.9 39.4997 187.6 38.5997 184.1C37.6997 180.6 37.2997 176.9 37.3997 173.3C37.4997 171.3 39.9997 170.8 41.3997 170.3C43.0997 169.7 44.6997 169.2 46.3997 168.6C49.4997 167.5 52.6997 166.1 55.3997 163.9C57.6997 161.9 59.5997 159.2 60.5997 156.2C61.7997 152.9 61.7997 149.6 61.8997 146.2C61.9664 141.866 62.033 137.566 62.0997 133.3C62.3997 116.3 62.3997 99.3998 62.8997 82.4998C62.9664 78.4331 63.0997 74.3331 63.2997 70.1998C63.2997 69.3998 62.1997 69.3998 62.1997 70.1998C61.3997 87.3998 61.2997 104.6 61.1997 121.8C61.0997 130.4 60.8997 139 60.6997 147.6C60.5997 149.4 60.5997 151.1 60.2997 152.9C59.9997 154.5 59.4997 156 58.7997 157.5C57.2997 160.7 54.7997 163.1 51.8997 164.8C48.7997 166.6 45.4997 167.6 42.1997 168.8C41.333 169.066 40.4997 169.366 39.6997 169.7C38.8997 170 38.1997 170.2 37.4997 170.7C36.0997 171.9 36.1997 173.4 36.2997 175.1C36.3997 182.5 38.6997 189.7 42.4997 195.8C43.1997 196.9 44.3997 198 45.7997 197.6C47.0997 197.2 47.1997 195.8 47.3997 194.7C47.6997 193.4 47.9997 192.2 48.5997 191.1C49.3997 189.9 50.4997 189.4 51.7997 189.3C59.3997 188.5 66.9997 188.8 74.3997 186.7C77.8997 185.7 81.2997 184 84.4997 182.2C86.2997 181.3 87.8997 180.3 89.4997 179.1C91.0997 177.9 92.5997 176.6 94.1997 175.5C96.8997 173.5 99.2997 171 101.2 168.1C102.1 166.7 102.7 165 104 163.9C105 163 106.6 162.8 107.6 163.8C108.6 164.8 109.1 166.4 109.6 167.7C110.2 169.7 110.833 171.7 111.5 173.7C112.833 177.566 114.233 181.433 115.7 185.3C118.5 193 121.7 200.5 124.1 208.4C124.7 210.4 125.4 212.3 126 214.3C126.466 215.9 127.066 217.433 127.8 218.9C128.6 220.2 129.5 221.6 130.6 222.6C131.1 223.1 131.7 223.5 132.3 223.8C133.1 224.1 133.9 224.6 134.6 224.9C135.2 225.1 135.8 225.1 136.4 225.1C137.133 225.233 137.833 225.333 138.5 225.4C139.9 225.6 141.2 225.8 142.6 225.8C145.1 225.8 147.7 225.2 149.4 223.1C150.4 222 150.8 220.8 149.9 219.4C149 218 147.6 217.3 146.3 216.5C144.8 215.4 143.5 214.3 142.8 212.5C142.1 210.8 142.4 209.1 142.6 207.3C143.6 198.766 144.533 190.233 145.4 181.7C147.2 164.9 148.9 148.1 150.8 131.3C151.666 122.966 152.6 114.6 153.6 106.2C153.733 105.2 153.833 104.2 153.9 103.2C154.1 102.2 154.1 101.1 154.1 99.9998C154.166 97.9331 154.266 95.8665 154.4 93.7998C154.7 89.6998 155 85.4998 155.3 81.3998C155.6 77.3998 155.7 73.3998 155.6 69.3998C155.5 68.5998 154.4 68.5998 154.4 69.3998Z" fill="white"/>
<path d="M77.6998 23.6C82.8998 23.2 88.1998 23 93.4998 23.1C98.7998 23.3 104 23.7 109.2 24.6C114 25.4 118.8 26.6 123.4 28.2C127.9 29.9 132.2 32 136.3 34.6C140.1 37 143.8 39.7 146.5 43.4C146.833 43.8 147.133 44.2334 147.4 44.7C147.8 45.4 148.8 44.8 148.4 44.1C145.9 40.1 142.3 37.1 138.5 34.6C134.5 31.9 130.2 29.6 125.8 27.8C121.1 26 116.3 24.7 111.5 23.7C106.3 22.7 101 22.2 95.7998 22C90.3998 21.8 84.9998 21.9 79.6998 22.2C79.0332 22.2667 78.3665 22.3334 77.6998 22.4C76.9998 22.4 76.8998 23.7 77.6998 23.6Z" fill="white"/>
<path d="M77.3002 22.1002C72.8002 23.2002 68.3002 24.3002 63.9002 25.4002C59.0002 26.6002 54.1002 27.9002 49.3002 29.3002C44.5002 30.7002 39.8002 32.3002 35.2002 34.4002C30.0002 36.7002 24.9002 39.5002 20.2002 42.8002C16.0002 45.8002 11.9002 49.3002 8.50024 53.3002C5.20024 57.1002 2.40024 61.7002 1.20024 66.8002C0.100237 72.3002 0.900237 78.0002 2.90024 83.2002C5.00024 88.5002 8.10024 93.2002 11.5002 97.6002C15.0002 102.2 18.7002 106.7 23.3002 110C25.7002 111.6 28.3002 113 31.1002 113.7C31.7669 113.833 32.4336 113.933 33.1002 114C33.6002 114.1 34.0002 114.1 34.4002 113.7C35.2002 112.7 34.8002 111 34.3002 110C33.8002 108.8 32.9002 107.8 31.7002 107.4C31.3002 107.2 30.9002 107.7 31.0002 108.1C31.3002 109.4 32.1002 110.5 33.2002 111.2C34.1002 111.7 35.3002 112.1 36.4002 111.9C36.9002 111.9 37.5002 111.6 37.7002 111.2C38.0002 110.7 37.8002 110 37.8002 109.5C37.6002 108.1 36.9002 107 36.0002 106C35.7336 106.267 35.4669 106.533 35.2002 106.8C35.4002 107 35.6002 107.167 35.8002 107.3C35.8002 107.4 35.9002 107.4 35.9002 107.5C35.8336 107.433 35.8002 107.333 35.8002 107.2C36.0002 106.933 36.2002 106.7 36.4002 106.5C36.6002 106.633 36.6669 106.667 36.6002 106.6C36.6002 106.5 36.5002 106.5 36.5002 106.5C36.3669 106.3 36.2002 106.133 36.0002 106C35.8002 106.333 35.6002 106.633 35.4002 106.9C36.4002 107.8 37.6002 108.6 39.0002 108.6C40.2002 108.6 41.6002 108 41.8002 106.6C42.0002 105.2 41.0002 103.7 40.3002 102.6C39.5002 101.133 38.6669 99.6668 37.8002 98.2002C36.2002 95.3335 34.5669 92.4668 32.9002 89.6002C32.0336 88.1335 31.2002 86.6668 30.4002 85.2002C30.0002 84.6002 29.7002 84.0002 29.6002 83.2002C29.4002 82.6002 29.3002 82.1002 29.6002 81.5002C30.7002 78.7002 33.8002 77.8002 36.2002 77.0002C39.1002 75.9002 42.1002 75.0002 45.0002 74.2002C51.0002 72.7002 57.0002 71.4002 63.0002 69.9002C64.5336 69.5002 66.0669 69.1002 67.6002 68.7002C68.3002 68.5002 69.0002 68.2002 69.8002 67.9002C70.4669 67.5668 71.1669 67.2668 71.9002 67.0002C73.3669 66.3335 74.8002 65.6668 76.2002 65.0002C76.6002 64.8002 77.0002 64.6002 77.3002 64.4002C77.6002 64.2002 77.8002 63.9002 78.0002 63.7002C78.5002 63.2002 79.0002 62.8002 79.6002 62.5002C79.8002 62.4002 79.9002 62.4002 80.1002 62.3002C80.2002 62.2002 80.3002 62.1002 80.5002 61.9002C80.7002 61.6335 80.9669 61.4335 81.3002 61.3002C82.0002 60.9002 81.4002 59.8002 80.7002 60.2002C80.4336 60.3335 80.1669 60.5335 79.9002 60.8002C79.8002 60.9002 79.7002 61.1002 79.5002 61.2002C79.4336 61.2668 79.3336 61.3335 79.2002 61.4002C78.6002 61.7002 78.0002 62.1002 77.5002 62.5002C77.3002 62.7668 77.1002 63.0002 76.9002 63.2002C76.6002 63.5002 76.2002 63.6002 75.9002 63.8002C75.1669 64.1335 74.4336 64.5002 73.7002 64.9002C72.3002 65.5002 70.9002 66.1002 69.5002 66.7002C68.7002 67.0002 68.0002 67.3002 67.3002 67.5002C66.5669 67.7002 65.8002 67.9002 65.0002 68.1002C59.1002 69.7002 53.1002 70.9002 47.2002 72.4002C44.2002 73.2002 41.3002 74.0002 38.4002 74.9002C36.9336 75.3668 35.5002 75.9002 34.1002 76.5002C32.8002 77.0002 31.6002 77.5002 30.5002 78.4002C29.5002 79.2002 28.7002 80.2002 28.4002 81.5002C28.2002 82.1002 28.3002 82.8002 28.4002 83.4002C28.6002 84.1002 28.8002 84.8002 29.1002 85.4002C29.9002 86.8002 30.8002 88.2002 31.6002 89.7002C32.4669 91.1002 33.3002 92.5335 34.1002 94.0002C35.7002 96.8668 37.3336 99.7002 39.0002 102.5C39.4002 103.2 39.9002 104 40.2002 104.7C40.4002 105.2 40.7002 105.9 40.6002 106.4C40.6002 107 39.9002 107.3 39.4002 107.4C38.8002 107.5 38.2002 107.3 37.7002 107.1C37.1002 106.8 36.5002 106.3 35.9002 105.9C35.4002 105.4 34.8002 106.4 35.2002 106.8C35.5002 107.2 36.0002 107.8 36.4002 107.8C36.7002 107.7 36.9002 107.5 37.0002 107.2C37.0002 106.7 36.3002 106.2 36.0002 106C35.5002 105.5 34.7002 106.3 35.2002 106.8C35.9002 107.6 36.4002 108.4 36.6002 109.4C36.6669 109.6 36.7002 109.8 36.7002 110C36.7002 110.133 36.7002 110.267 36.7002 110.4C36.7002 110.467 36.7002 110.533 36.7002 110.6C36.7002 110.8 36.7336 110.767 36.8002 110.5C36.8002 110.5 36.5002 110.6 36.5002 110.7C36.3002 110.7 36.1002 110.8 35.9002 110.8C34.2002 110.7 32.6002 109.7 32.1002 107.8C31.9002 108.067 31.6669 108.333 31.4002 108.6C32.5002 109 33.3002 110.1 33.6002 111.3C33.6669 111.567 33.7002 111.867 33.7002 112.2C33.7002 112.4 33.7002 112.7 33.5002 112.9C33.6002 112.8 33.4002 112.8 33.3002 112.8C32.9669 112.733 32.6336 112.7 32.3002 112.7C29.6002 112.2 27.0002 111 24.7002 109.4C20.1002 106.4 16.4002 102.1 13.0002 97.7002C9.70024 93.5002 6.70024 89.0002 4.50024 84.0002C2.40024 79.2002 1.30024 73.7002 2.10024 68.4002C2.90024 63.4002 5.40024 58.9002 8.40024 55.1002C11.6002 51.2002 15.4002 47.9002 19.4002 44.9002C23.8002 41.6002 28.6002 38.8002 33.6002 36.4002C38.1002 34.3002 42.7002 32.6002 47.5002 31.2002C52.0002 29.8002 56.6002 28.5002 61.2002 27.4002C65.7336 26.2002 70.2669 25.0668 74.8002 24.0002C75.7336 23.8002 76.6669 23.5668 77.6002 23.3002C78.3002 23.1002 78.0002 22.0002 77.3002 22.1002Z" fill="white"/>
<path d="M145.5 41.9998C145.7 42.9998 146.7 43.6998 147.3 44.2998C148.4 45.2998 149.6 46.1998 150.8 47.0998C151.933 47.8998 153.066 48.7331 154.2 49.5998C154.533 49.7998 154.9 50.0664 155.3 50.3998C155.366 50.3998 155.4 50.4331 155.4 50.4998C155.5 50.4998 155.5 50.4998 155.4 50.4998C155.3 50.3998 155.5 50.4998 155.5 50.4998C155.633 50.6331 155.8 50.7664 156 50.8998C156.466 51.2998 156.966 51.6998 157.5 52.0998C159.5 53.6998 161.6 55.0998 163.8 56.4998C165.9 57.7998 168.1 59.0998 170.5 59.9998C173.7 61.2998 177.2 61.6998 180.6 61.0998C183.3 60.6998 185.9 59.3998 188.1 57.7998C190.5 56.0998 192.6 53.9998 194.6 51.8998C196.7 49.6998 198.7 47.3998 200.8 45.1998C202.8 43.0998 205 41.0998 207.5 39.5998C208.7 38.7998 209.966 38.1664 211.3 37.6998C212 37.3998 212.7 37.2998 213.3 37.0998C214.1 36.8998 214.8 36.4998 215.6 36.2998C216.3 36.0998 217.1 35.7998 217.8 35.9998C217.933 35.9998 218.066 36.0664 218.2 36.1998L218.3 36.2998C218.3 36.1998 218.3 36.2998 218.3 36.3998C218.3 36.2998 218.3 36.1998 218.3 36.3998C218.3 36.3998 218.3 36.4331 218.3 36.4998C218 36.7998 217.5 37.1998 217.1 37.4998C216.6 37.8998 216 38.1998 215.5 38.5998C215.1 38.7998 214.7 38.9998 214.4 39.3998C214.3 39.6998 214.4 40.0998 214.7 40.2998C215.6 40.7998 216.8 40.8998 217.8 40.5998C218.1 40.4998 218.5 40.1998 218.9 40.1998C219.2 40.0998 219.3 40.3998 219.4 40.6998C219.4 40.7998 219.5 40.9998 219.5 40.9998C219.5 40.9998 219.5 41.0331 219.5 41.0998C219.5 40.9998 219.5 41.1998 219.5 41.1998L219.4 41.3998C219.3 41.4998 219.2 41.5998 219.1 41.5998C218.7 41.9998 218.2 42.1998 217.7 42.4998C217.2 42.8998 216.7 43.2998 216.5 43.9998C216.4 44.3998 216.7 44.6998 217.1 44.7998C217.9 44.8998 218.7 44.4998 219.6 44.2998C219.9 44.1998 220.2 44.1998 220.5 44.2998C220.633 44.4331 220.733 44.5664 220.8 44.6998C220.8 44.6998 220.9 44.8998 220.9 44.7998C220.9 44.8998 220.9 44.7998 220.9 44.8998C220.8 45.0998 220.9 44.8998 220.8 44.9998C220.8 45.1998 220.7 45.1998 220.7 45.2998C220.5 45.4998 220.266 45.6998 220 45.8998C219.5 46.3998 218.9 46.7998 218.3 47.1998C217.9 47.5998 217.3 48.1998 217.3 48.8998C217.3 49.0998 217.5 49.3998 217.7 49.4998C218.2 49.5998 218.7 49.4998 219.1 49.4998C219.7 49.4331 220.266 49.3331 220.8 49.1998C221.3 49.0998 221.7 49.0998 222.2 49.0998C222.266 49.0998 222.333 49.0998 222.4 49.0998C222.5 49.0998 222.2 49.0998 222.4 49.0998C222.466 49.0998 222.5 49.0998 222.5 49.0998C222.6 49.1998 222.4 48.9998 222.4 49.0998C222.3 48.8998 222.5 49.0998 222.4 48.8998C222.4 48.9998 222.5 48.7998 222.4 48.9998C222.3 49.0998 222.4 48.9998 222.3 49.1998C222.233 49.3331 222.133 49.4998 222 49.6998C221.733 50.0998 221.5 50.5331 221.3 50.9998C220.766 51.8664 220.266 52.7664 219.8 53.6998C218.9 55.4998 218.1 57.3998 217.3 59.1998C215.7 62.8998 214.1 66.6998 212.2 70.1998C210.3 73.7998 208 76.9998 205.1 79.7998C199.5 85.1998 192.6 88.4998 185.2 89.8998C179.6 90.8998 173.8 90.8998 168.3 89.5998C165.6 88.9998 163 88.0998 160.6 86.5998C158.5 85.3998 156.6 83.5998 155.7 81.1998C155.433 80.5998 155.233 79.9998 155.1 79.3998C155 78.5998 153.9 78.9998 154 79.6998C155.2 85.6998 160.9 88.6998 165.9 90.1998C171.4 91.8998 177.2 92.1998 182.9 91.4998C190.5 90.4998 197.9 87.5998 204 82.3998C207.2 79.6998 209.9 76.4998 212.1 72.8998C214.2 69.2998 215.8 65.4998 217.5 61.5998C219.1 57.7998 220.8 53.8998 223 50.3998C223.3 49.8998 223.7 49.2998 223.5 48.6998C223.4 48.0998 222.9 47.8998 222.4 47.8998C221.4 47.6998 220.2 48.0998 219.2 48.1998C219 48.2664 218.766 48.2998 218.5 48.2998C218.366 48.2998 218.266 48.2998 218.2 48.2998C218.3 48.2998 218 48.2998 218.2 48.2998C218.133 48.2998 218.066 48.2998 218 48.2998C218.2 48.4998 218.366 48.6998 218.5 48.8998C218.5 48.6998 218.5 48.7998 218.5 48.7998C218.5 48.6998 218.4 48.8998 218.5 48.7998C218.6 48.5998 218.5 48.6998 218.7 48.4998C218.9 48.2998 219.133 48.0998 219.4 47.8998C220 47.3998 220.6 46.9998 221.2 46.4998C221.7 45.9998 222.1 45.3998 222 44.5998C221.8 43.6998 220.9 42.9998 220 42.9998C219 42.9998 218.1 43.6998 217.1 43.4998C217.233 43.7664 217.4 44.0331 217.6 44.2998C217.6 44.2998 217.7 44.0998 217.6 44.1998L217.7 44.0998C217.7 44.0998 217.733 44.0664 217.8 43.9998C217.8 43.9331 217.833 43.8998 217.9 43.8998C218 43.6998 218.3 43.5998 218.6 43.3998C219.1 43.0998 219.7 42.7998 220.1 42.2998C220.6 41.7998 220.8 41.0998 220.5 40.4998C220.3 39.4998 219.5 38.6998 218.5 38.9998C218 39.0998 217.6 39.3998 217.2 39.4998C216.533 39.6331 215.866 39.5331 215.2 39.1998C215.266 39.4664 215.333 39.7664 215.4 40.0998C215.5 39.9998 215.3 40.1998 215.4 40.0998C215.466 40.0998 215.5 40.0664 215.5 39.9998C215.566 39.9331 215.633 39.8998 215.7 39.8998C215.9 39.7664 216.1 39.5998 216.3 39.3998C216.9 39.0998 217.5 38.6998 218 38.2998C218.9 37.6998 220.1 36.4998 219 35.2998C217.8 34.0998 215.7 34.8998 214.3 35.3998C213 35.8998 211.6 36.1998 210.2 36.7998C207.5 37.8998 205 39.5998 202.8 41.5998C200.5 43.5998 198.5 45.8998 196.5 48.0998C194.4 50.2998 192.4 52.5998 190.2 54.5998C188.2 56.3998 185.9 58.0998 183.3 59.0998C180.6 60.1998 177.7 60.3998 174.8 59.8998C170.2 59.1998 166 56.4998 162 53.8998C159.1 51.9998 156.5 49.6998 153.6 47.6998C152.4 46.7664 151.2 45.8331 150 44.8998C149 44.0998 147.9 43.2998 147.1 42.3998C146.966 42.3331 146.866 42.2331 146.8 42.0998C146.8 42.0998 146.766 42.0664 146.7 41.9998C146.8 42.0998 146.7 41.8998 146.7 41.9998C146.7 41.9331 146.666 41.8664 146.6 41.7998C146.5 41.5998 146.6 41.8998 146.6 41.6998C146.4 40.9998 145.3 41.2998 145.5 41.9998Z" fill="white"/>
<path d="M105.6 22.2002C105.6 19.1002 106.4 16.0002 107.8 13.4002C109 10.8002 111 8.30023 113.8 7.50023C116.3 6.70023 119.1 7.70023 120.9 9.70023C122.7 11.7002 123.7 14.6002 124.2 17.3002C124.7 20.3002 124.7 23.6002 123.8 26.6002C123.934 26.4002 124.067 26.2336 124.2 26.1002C124.067 26.1669 123.9 26.2002 123.7 26.2002C123 26.3002 123.3 27.5002 124 27.4002C124.2 27.3336 124.367 27.3002 124.5 27.3002C124.7 27.3002 124.8 27.1002 124.9 26.9002C125.8 24.1002 125.8 21.0002 125.5 18.0002C125.1 15.0002 124.1 11.8002 122.2 9.40023C120.3 7.10023 117.5 5.70023 114.6 6.00023C111.5 6.40023 109 8.80023 107.4 11.6002C105.7 14.4002 104.7 17.7002 104.5 21.1002C104.434 21.4336 104.4 21.8002 104.4 22.2002C104.4 22.9002 105.6 22.9002 105.6 22.2002Z" fill="white"/>
<path d="M148.4 141.7C147.8 141.9 147.3 142 146.7 142.1C146 142.2 145.4 142.4 144.7 142.6C143.3 142.933 141.9 143.233 140.5 143.5C137.7 144.1 134.867 144.6 132 145C126.3 145.7 120.6 145.9 114.9 145.8C109.2 145.7 103.4 145.3 97.8004 144.4C92.2004 143.4 86.7004 142 81.2004 140.9C75.6004 139.7 70.1004 138.7 64.4004 138.6C63.7337 138.6 63.0337 138.6 62.3004 138.6C61.6004 138.6 61.6004 139.8 62.3004 139.8C68.0004 139.7 73.6004 140.5 79.2004 141.7C84.8004 142.8 90.3004 144.3 95.9004 145.3C101.6 146.3 107.4 146.8 113.1 147C118.9 147.2 124.7 147 130.4 146.4C133.267 146.067 136.1 145.633 138.9 145.1C140.367 144.833 141.8 144.533 143.2 144.2C144.6 143.9 145.9 143.5 147.2 143.3C147.8 143.167 148.4 142.967 149 142.7C149.6 142.4 149.1 141.3 148.4 141.7Z" fill="white"/>
<path d="M42.3999 170.5C42.3999 170.433 42.3666 170.333 42.2999 170.2C42.2999 169.4 41.2999 169.4 41.1999 170.2C41.0999 171.4 41.8999 172.6 42.4999 173.5C43.1999 174.7 43.7999 175.9 44.4999 177.2C45.1999 178.6 45.9999 180 46.6999 181.5C46.9999 182.1 47.2999 182.7 47.5999 183.3C47.8999 183.8 48.3999 184.3 48.6999 184.7C49.0999 185.3 49.2999 185.9 49.4999 186.6C49.7999 187.2 50.0999 187.9 50.5999 188.4C51.0999 188.9 51.8999 188.1 51.3999 187.5C50.5999 186.7 50.4999 185.4 49.8999 184.4C49.5999 183.9 49.1999 183.5 48.7999 183C48.4999 182.5 48.2999 182 47.9999 181.5C47.3333 180.1 46.6333 178.7 45.8999 177.3C45.4999 176.633 45.1333 175.933 44.7999 175.2C44.4999 174.7 44.1999 174.1 43.8999 173.6C43.4999 173 43.1999 172.4 42.7999 171.8C42.5999 171.3 42.2999 170.8 42.2999 170.2C41.9666 170.2 41.5999 170.2 41.1999 170.2C41.1999 170.333 41.1999 170.433 41.1999 170.5C41.1999 171.3 42.3999 171.3 42.3999 170.5Z" fill="white"/>
<path d="M129.1 216.2C129.5 215.7 130.4 215.7 131.1 215.7C132 215.6 132.9 215.8 133.8 215.8C136.3 216 138.8 215.2 141.2 214.7C142 214.5 141.7 213.3 140.9 213.5C138.5 214 136 214.8 133.4 214.6C132.5 214.5 131.6 214.4 130.6 214.5C129.8 214.5 128.8 214.7 128.3 215.4C127.8 216 128.6 216.8 129.1 216.2Z" fill="white"/>
<path d="M11.4 96.8998C12.8 97.0998 13.7 95.9998 14.6 95.0998C15.6 93.9998 16.8 93.2998 18.1 92.5998C19.4 91.8998 20.8 91.1998 22.1 90.4998C23.4 89.8998 24.8 89.2998 26.3 88.8998C27.1 88.6998 28 88.8998 28.9 88.6998C29.8 88.5998 30.5 88.1998 31.4 88.2998C31.4 87.8332 31.4 87.3998 31.4 86.9998C31.2667 86.9998 31.1333 86.9998 31 86.9998C30.3 86.9998 30.3 88.1998 31 88.2998C31.1333 88.2998 31.2667 88.2998 31.4 88.2998C32.1 88.2998 32.1 87.0998 31.4 86.9998C30.6 86.8998 29.9 87.1998 29.2 87.3998C28.9 87.4998 28.5 87.5998 28.1 87.5998C27.7 87.5998 27.3 87.5998 26.8 87.5998C25.4 87.6998 23.9 88.3998 22.6 88.9998C21.2 89.5998 19.9 90.2998 18.6 90.9998C17.3 91.6998 15.9 92.2998 14.7 93.2998C14.2 93.7998 13.7 94.2998 13.2 94.7998C12.9 95.1998 12.3 95.7998 11.7 95.6998C11.4 95.6998 11.1 95.7998 11 96.1998C11 96.4998 11.1 96.8998 11.4 96.8998Z" fill="white"/>
<path d="M199.1 47.6001C199.5 48.2001 199.7 48.9001 199.9 49.7001C200.2 50.4001 200.4 51.2001 200.8 51.9001C201.7 53.5001 202.8 55.0001 204 56.5001C205.2 57.9001 206.4 59.3001 207.8 60.4001C208.5 61.0001 209.2 61.5001 210 61.9001C210.7 62.4001 211.4 62.8001 212.1 63.2001C212.8 63.5001 213.4 63.6001 214.1 63.8001C214.6 64.0001 215.2 64.1001 215.5 64.7001C215.634 64.4334 215.767 64.1334 215.9 63.8001C215.767 63.8667 215.634 63.9001 215.5 63.9001C214.8 64.1001 215.1 65.3001 215.8 65.1001C215.934 65.1001 216.067 65.0667 216.2 65.0001C216.5 64.9001 216.7 64.5001 216.5 64.1001C215.9 62.9001 214.5 62.6001 213.3 62.3001C212.7 62.1001 212.2 61.8001 211.6 61.5001C210.8 61.0001 210 60.6001 209.3 60.1001C207.8 59.0001 206.5 57.6001 205.3 56.2001C204.1 54.8001 203 53.4001 202.1 51.8001C201.6 50.9001 201.3 50.1001 201 49.2001C200.7 48.3001 200.4 47.4001 199.9 46.7001C199.7 46.4001 199.3 46.5001 199.1 46.7001C198.8 46.9001 198.9 47.3001 199.1 47.6001Z" fill="white"/>
<path d="M106.1 12.2999C106.9 12.3999 107.8 12.4999 108.6 12.3999C109.3 12.2999 110 11.9999 110.7 11.6999C112 10.9999 113.1 9.89995 114.2 8.89995C115.5 7.79995 116.8 6.59995 118.1 5.59995C119.1 4.79995 120.3 4.29995 121.2 3.29995C121.4 3.09995 121.6 2.69995 121.6 2.39995C121.6 2.09995 121.4 1.79995 121.3 1.59995C120.9 1.29995 120.4 1.19995 119.9 1.09995C119 0.999948 117.9 1.29995 117.1 1.69995C115.9 2.09995 114.9 2.89995 113.9 3.59995C113 4.39995 112.1 5.29995 111.2 6.19995C110.4 6.89995 109.6 7.69995 109.1 8.69995C108.9 9.09995 108.7 9.59995 108.7 10.0999C108.8 10.4999 109.2 10.7999 109.6 10.7999C110.3 10.9999 111 10.6999 111.7 10.3999C112.5 10.0999 113.4 9.59995 114.2 8.99995C115 8.46661 115.8 7.89995 116.6 7.29995C117.1 6.89995 117.7 6.39995 118.1 5.79995C118.7 5.09995 119 3.89995 118.6 2.99995C118.1 2.09995 117 1.69995 116.1 1.59995C115 1.49995 113.8 1.69995 112.8 2.09995C111.7 2.59995 110.8 3.39995 109.8 4.19995C108.8 4.89995 107.8 5.69995 107 6.59995C106.4 7.39995 105.9 8.39995 106.2 9.49995C106.7 11.0999 108.6 11.2999 110 11.3999C111.8 11.4999 113.6 11.2999 115.4 10.9999C115.9 10.7999 116.5 10.6999 117 10.4999C118.5 9.99995 119.9 9.19995 121.2 8.29995C122.2 7.69995 123.1 6.99995 124.1 6.49995C124.9 6.09995 125.8 5.59995 126.4 4.79995C126.9 4.19995 126.7 3.09995 126 2.59995C125.4 2.19995 124.5 2.39995 123.8 2.69995C122.4 3.09995 121.1 3.79995 119.9 4.59995C118.4 5.49995 115.6 7.89995 117.5 9.89995C118.6 10.9999 120.2 11.1999 121.6 10.7999C122.7 10.5999 123.8 9.99995 124.7 9.39995C125.4 8.79995 126.5 7.99995 126.6 6.99995C126.7 5.59995 125 5.69995 124.3 6.19995C122.6 7.39995 122.2 10.7999 124.5 11.4999C125.9 11.7999 127.2 10.8999 128.1 9.79995C128.5 9.19995 127.7 8.39995 127.3 8.99995C126.8 9.59995 126 10.2999 125.1 10.2999C124.5 10.2999 124 9.79995 124 9.19995C124 8.19995 124.7 6.79995 125.8 7.09995C125.667 7.03328 125.533 6.93328 125.4 6.79995C125.467 6.86661 125.5 6.89995 125.5 6.89995C125.4 6.99995 125.4 6.99995 125.3 7.19995C125.2 7.39995 124.9 7.69995 124.7 7.89995C124.233 8.29995 123.733 8.63328 123.2 8.89995C122.3 9.39995 121.3 9.79995 120.3 9.79995C119.767 9.73328 119.267 9.59995 118.8 9.39995C118.6 9.19995 118.2 8.99995 118.1 8.69995C118.033 8.49995 118.033 8.26661 118.1 7.99995C118.2 7.69995 118.4 7.49995 118.6 7.19995C119.1 6.59995 119.8 6.09995 120.4 5.69995C121.2 5.23328 122 4.79995 122.8 4.39995C123.4 4.09995 123.9 3.89995 124.5 3.69995C124.7 3.69995 124.8 3.59995 125.1 3.59995C125.167 3.59995 125.233 3.63328 125.3 3.69995C125.4 3.69995 125.2 3.59995 125.3 3.69995C125.367 3.69995 125.4 3.69995 125.4 3.69995C125.5 3.69995 125.4 3.59995 125.5 3.69995C125.5 3.79995 125.4 3.59995 125.5 3.69995C125.5 3.89995 125.5 3.69995 125.5 3.79995C125.5 3.86661 125.5 3.93328 125.5 3.99995V4.09995C125.5 3.99995 125.4 4.19995 125.4 4.19995C124.9 4.59995 124.3 4.99995 123.8 5.29995C123.3 5.59995 122.8 5.79995 122.3 6.09995C121.4 6.79995 120.4 7.39995 119.4 7.99995C118.2 8.79995 116.9 9.39995 115.6 9.69995C114.4 9.89995 113.233 10.0666 112.1 10.1999C110.9 10.1999 109.6 10.2999 108.5 9.99995C108.367 9.93328 108.267 9.89995 108.2 9.89995C108 9.79995 108 9.79995 107.9 9.79995C107.833 9.73328 107.733 9.66661 107.6 9.59995C107.533 9.53328 107.5 9.49995 107.5 9.49995C107.433 9.43328 107.4 9.39995 107.4 9.39995C107.4 9.29995 107.4 9.39995 107.4 9.29995C107.333 9.29995 107.3 9.26661 107.3 9.19995C107.233 9.13328 107.2 9.06661 107.2 8.99995C107.2 9.09995 107.2 8.89995 107.2 8.99995C107.2 8.86661 107.2 8.73328 107.2 8.59995C107.4 7.89995 108 7.29995 108.5 6.79995C109.1 6.19995 109.8 5.69995 110.5 5.19995C111.1 4.69995 111.7 4.09995 112.5 3.59995C113.2 3.19995 114.1 2.89995 114.9 2.79995C115.6 2.79995 116.2 2.79995 116.8 2.99995C117.3 3.19995 117.6 3.49995 117.6 3.99995C117.6 4.29995 117.5 4.59995 117.3 4.89995C117.3 4.96661 117.3 4.99995 117.3 4.99995C117.4 4.89995 117.2 5.09995 117.3 4.99995C117.233 5.06661 117.167 5.13328 117.1 5.19995C116.767 5.53328 116.4 5.86661 116 6.19995C115 7.09995 113.9 7.89995 112.7 8.49995C112.167 8.83328 111.633 9.13328 111.1 9.39995C110.833 9.46661 110.567 9.53328 110.3 9.59995C110.3 9.59995 110.267 9.59995 110.2 9.59995C110.1 9.69995 110.2 9.59995 110.1 9.59995C110.033 9.66661 109.933 9.69995 109.8 9.69995C109.9 9.69995 109.7 9.69995 109.8 9.69995C109.8 9.63328 109.767 9.59995 109.7 9.59995L109.9 9.89995V9.69995C110 9.59995 110 9.39995 110.1 9.29995C110.5 8.59995 111 7.99995 111.5 7.49995C112.7 6.19995 114 5.09995 115.4 3.99995C116.7 3.19995 117.8 2.49995 119.3 2.29995C119.6 2.29995 119.9 2.29995 120.2 2.39995C120.4 2.39995 120.5 2.49995 120.6 2.69995C120.6 2.49995 120.6 2.29995 120.6 2.09995C120.2 2.89995 119.2 3.29995 118.5 3.79995C117.5 4.49995 116.5 5.29995 115.6 6.09995C114.667 6.89995 113.733 7.73328 112.8 8.59995C112 9.39995 111.1 10.0999 110.1 10.6999C109.5 10.8999 108.9 11.0999 108.3 11.1999C107.6 11.1999 106.8 11.0999 106.1 11.0999C105.3 11.0999 105.3 12.2999 106.1 12.2999Z" fill="white"/>
<path d="M117.4 15.4002C117.7 17.0002 118.4 18.6002 119.1 20.2002C119.2 20.4002 119.6 20.5002 119.9 20.4002C120.1 20.2002 120.2 19.8002 120.1 19.5002C119.4 18.1002 118.8 16.6002 118.5 15.0002C118.5 14.7002 118.1 14.5002 117.8 14.6002C117.5 14.7002 117.4 15.0002 117.4 15.4002Z" fill="white"/>
<path d="M113.6 17.0002C114.4 17.0002 114.4 15.7002 113.6 15.7002C112.9 15.7002 112.9 17.0002 113.6 17.0002Z" fill="white"/>
<path d="M121.7 16.4002C122.5 16.4002 122.5 15.2002 121.7 15.2002C121 15.2002 121 16.4002 121.7 16.4002Z" fill="white"/>
<path d="M112.2 21.4C112.5 21.8 112.9 22.1 113.3 22.4C113.967 22.7333 114.633 23.0666 115.3 23.4C116.5 23.9 118.1 24.4 119.4 24.2C120 24 120.6 23.6 120.7 22.9C120.7 22.6 120.6 22.2 120.3 22.1C120 22.1 119.6 22.2 119.6 22.6C119.6 22.6 119.5 22.9 119.5 22.7C119.5 22.8 119.5 22.9 119.5 22.8C119.5 22.9 119.3 22.9 119.4 22.9C119.267 22.9666 119.167 23 119.1 23C119 23 119.1 23 119 23C118.933 23 118.867 23 118.8 23C118.667 23 118.533 23 118.4 23C118.2 23 117.9 22.9 117.6 22.8C116.4 22.6 115.2 22 114 21.4C113.8 21.2666 113.567 21.1 113.3 20.9C113.233 20.8333 113.167 20.8 113.1 20.8C113.033 20.7333 113 20.6667 113 20.6C112.8 20.3 112.4 20.4 112.2 20.6C111.9 20.8 112 21.2 112.2 21.4Z" fill="white"/>
<path d="M39 178.1C38.8 178.033 38.6333 177.967 38.5 177.9C38.1 177.7 37.8 178.1 37.8 178.4C37.6 180.1 38.5 181.8 39.2 183.2C39.7 184.5 40.3 186.1 41.7 186.4C41.9 186.5 42.1 186.4 42.2 186.3C43.3 184.8 42.7 183 42 181.6C41.2 179.8 40.5 178.1 39.7 176.4C39.4 175.8 39 175 38.3 175.2C37.7 175.3 37.5 175.9 37.5 176.5C37.5 177.6 37.9 178.7 38.3 179.7C38.8 181.5 39.5 183.4 41 184.4C41.2 184.6 41.5 184.5 41.7 184.4C42.2 183.9 42 183 41.8 182.5C41.7 181.9 41.4 181.3 41.2 180.7C40.8667 179.567 40.5333 178.4 40.2 177.2C39.9 176.1 39.6 174.9 39.2 173.9C39.1333 173.633 39.0667 173.4 39 173.2C39 173.1 38.8 172.8 38.9 172.6C38.9 172.4 39.3 172.3 39.4 172.3C39.8 172.4 40.1 173.4 40.2 173.7C40.6 174.8 41.1 175.7 41.6 176.7C42.1 177.8 42.6 178.9 43.2 179.9C43.7 181 44.4 182.1 44.9 183.3C45.1 183.9 45.4 184.9 45.9 185.4C46.3 185.7 46.9 185.6 46.9 185C46.9 184.1 46.3 183.5 45.8 182.9C45.1 182.1 44.6 181.1 44 180.2C43.4 179.4 42.9 178.5 42.3 177.7C41.8 176.9 41.4 176.1 40.7 175.5C40.4 175.3 40.1 175.5 39.9 175.8C39.3 176.8 40 178.2 40.3 179.2C40.5 180 40.7 180.8 41 181.5C41.4 182.233 41.8333 182.933 42.3 183.6C43.2 184.8 44.4 185.8 45.8 186.2C46 186.2 46.2 186.3 46.4 186.4C46.6 186.5 46.7 186.7 46.7 186.9C46.9 187.4 47.1 188.1 47 188.7C46.9 189.3 46.3 189.8 45.9 190.3C45.4333 190.9 45 191.567 44.6 192.3C44.1 193.4 43.3 195.4 44.7 196.2C45.4 196.6 46 196.2 46.3 195.6C46.7 195 46.8 194.3 46.8 193.7C46.7 192.4 46.3 191.2 45.9 190.1C45.7 189.5 45.5 188.9 44.9 188.7C44.3 188.6 43.8 189 43.7 189.6C43.4 190.5 43.6 191.6 43.7 192.6C44.0333 192.6 44.4 192.6 44.8 192.6C44.7 191.3 44.2 190.2 43.7 189.1C43.2 188.1 42.7 187.1 41.8 186.6C41.5 186.5 41.3 186.5 41.1 186.7C40.4 187.2 40.7 188.3 40.9 189C41.1 189.9 41.2 190.6 42.1 191.1C42.3 191.2 42.7 191.1 42.8 190.8C43.2 190.2 42.9 189.2 42.7 188.5C42.6 187.7 42.4 186.7 41.8 186C41.5 185.6 41 185.6 40.6 186.1C40.3 186.5 40.2 187.1 40.2 187.6C40.3 188.7 40.9 189.9 41.9 190.4C42.3 190.6 42.6 190.5 42.9 190.2C43.1667 189.933 43.3 189.633 43.3 189.3C43.4 188.7 43.2 188 43.5 187.5C43.2333 187.633 43 187.733 42.8 187.8C43.4 187.9 43.9 188.4 44.6 188.6C44.9 188.6 45.4 188.6 45.7 188.4C45.9 188.2 45.9 187.8 45.9 187.5C45.9 187 45.7 186.4 45.4 185.9C45.2 185.4 44.9 184.9 44.4 184.8C44.1 184.7 43.8 184.9 43.7 185.2C43.6 185.5 43.6 185.8 43.7 186.1C43.7 186.4 44.1 186.6 44.4 186.5C44.7 186.4 44.8 186.1 44.8 185.8C44.8 185.667 44.8 185.567 44.8 185.5C44.6 185.633 44.3667 185.8 44.1 186C44.1 185.9 44 185.9 44.1 186C44.1667 186.067 44.2333 186.133 44.3 186.2C44.3667 186.333 44.4333 186.5 44.5 186.7C44.6333 186.9 44.7 187.133 44.7 187.4C44.7 187.5 44.7 187.5 44.7 187.6C44.8 187.7 44.7 187.7 44.8 187.6C44.8667 187.533 44.9667 187.433 45.1 187.3C44.8 187.4 44.5 187.2 44.2 187.1C43.8 186.9 43.5 186.7 43.1 186.6C42.9 186.6 42.6 186.7 42.5 186.9C42.2 187.4 42.2 187.8 42.2 188.4C42.2 188.7 42.3 189.2 42 189.4C42.1333 189.4 42.2667 189.4 42.4 189.4C41.6 189 41 187.5 41.6 186.7C41.4667 186.767 41.3333 186.833 41.2 186.9C41 186.9 41 186.8 41 186.8C41 186.867 41 186.9 41 186.9C40.9333 186.833 40.9333 186.833 41 186.9C41.0667 187.033 41.1333 187.167 41.2 187.3C41.3 187.7 41.5 188.1 41.6 188.5C41.6667 188.9 41.7333 189.333 41.8 189.8C41.8 189.7 41.8 189.9 41.8 189.9C41.8 190.033 41.8 190.133 41.8 190.2C41.8 190.267 41.8 190.3 41.8 190.3C41.8 190.233 41.8 190.233 41.8 190.3C41.8 190.367 41.8333 190.333 41.9 190.2C42.1667 190.133 42.4 190.067 42.6 190C42.1 189.7 42.1 189.3 42 188.7C41.9 188.5 41.7 187.7 41.9 187.6C41.6333 187.6 41.4 187.6 41.2 187.6C41.9 188.1 42.3 188.9 42.7 189.7C43.1 190.6 43.6 191.6 43.7 192.6C43.7 193.4 44.8 193.4 44.8 192.6C44.7 191.9 44.7 191.1 44.7 190.4C44.7 190.2 44.7 190.1 44.8 190C44.8 189.933 44.8 189.867 44.8 189.8C44.7333 189.867 44.7 189.9 44.7 189.9C44.5 189.9 44.5 189.8 44.6 189.9L44.7 190.1C44.7667 190.3 44.8333 190.5 44.9 190.7C45.2 191.6 45.6 192.6 45.6 193.6C45.6 194.2 45.6 194.6 45.3 195.1C45.3 195.1 45.2 195.2 45.3 195.2C45.3 195.2 45.1 195.1 45.1 195C45 194.9 45.1 194.6 45.1 194.4C45.3 193.1 46.1 192 46.9 191C47.2 190.5 47.7 190.1 47.9 189.5C48.2 189 48.2 188.4 48.1 187.8C48 186.7 47.6 185.5 46.6 185.1C46.1 185 45.6 184.9 45.1 184.6C44.5667 184.267 44.1 183.867 43.7 183.4C42.7 182.3 42 181 41.5 179.5C41.3667 178.9 41.2 178.333 41 177.8C40.9 177.4 40.7 176.7 40.9 176.4C40.6333 176.467 40.3667 176.533 40.1 176.6C40.4 176.8 40.6 177.1 40.7 177.4C40.9667 177.8 41.2333 178.167 41.5 178.5C42 179.3 42.5 180.1 43 180.9C43.5333 181.7 44.0667 182.467 44.6 183.2C44.8 183.533 45.0333 183.867 45.3 184.2C45.5 184.4 45.8 184.7 45.8 185C46.1333 184.867 46.4333 184.733 46.7 184.6C46.5 184.3 46.4 184 46.2 183.7C46.1 183.3 46 182.9 45.8 182.5C45.3 181.5 44.8 180.4 44.2 179.4C43.6 178.3 43.1 177.2 42.6 176.1C42.1 175.1 41.6 174.2 41.2 173.2C41 172.5 40.7 171.6 40 171.3C39.3 170.9 38.3 171.3 37.9 172C37.4 172.9 38.1 174.1 38.4 175C38.8 176.1 39 177.4 39.4 178.6C39.7 179.6 40 180.8 40.4 181.8C40.5333 182.2 40.6667 182.567 40.8 182.9C40.8 183.1 40.8 183.3 40.9 183.4V183.6C40.8 183.6 41 183.4 40.9 183.5C41.1 183.433 41.3333 183.4 41.6 183.4C40.6 182.7 40 181.3 39.6 180.2C39.3 179.3 39 178.3 38.8 177.4C38.7333 177.2 38.7 177 38.7 176.8C38.6333 176.667 38.6 176.533 38.6 176.4C38.6 176.3 38.7 176.3 38.7 176.2C38.6 176.1 38.7 176.2 38.6 176.3C38.6 176.3 38.6 176.3 38.5 176.3C38.3 176.5 38.3 176.2 38.4 176.4C38.5 176.6 38.6 176.8 38.7 177.1C39.4 178.5 40 180 40.7 181.5C41 182.1 41.3 182.8 41.5 183.5C41.7 184.1 41.8 184.9 41.4 185.4C41.6 185.333 41.8 185.267 42 185.2C41.4 185.1 41.1 184.6 40.9 184.2C40.6 183.6 40.4 183.1 40.1 182.5C39.5 181.3 38.8 179.9 38.9 178.4C38.6333 178.6 38.4 178.8 38.2 179C38.3333 179.067 38.5 179.167 38.7 179.3C38.9 179.4 39.3 179.1 39.4 178.8C39.5 178.5 39.2 178.2 39 178.1Z" fill="white"/>
<path d="M43.6004 192.3C43.6004 191.3 43.2004 190.3 42.7004 189.5C42.1004 188.5 41.2004 187.7 40.2004 187.7C39.8004 187.7 39.4004 188.1 39.4004 188.5C39.4004 189 39.7004 189.3 40.2004 189.3C40.2004 189.3 40.4004 189.4 40.1004 189.3C40.1671 189.3 40.2337 189.334 40.3004 189.4C40.3671 189.4 40.4337 189.4 40.5004 189.4C40.4004 189.4 40.3004 189.4 40.5004 189.4C40.5671 189.467 40.6004 189.5 40.6004 189.5C40.6671 189.567 40.7337 189.634 40.8004 189.7C40.8004 189.6 40.6004 189.5 40.8004 189.7C40.8671 189.7 40.9004 189.734 40.9004 189.8C40.9671 189.867 41.0337 189.934 41.1004 190C41.1671 190 41.2004 190.034 41.2004 190.1C41.2004 190.1 41.2337 190.134 41.3004 190.2C41.3004 190.267 41.2671 190.234 41.2004 190.1C41.3004 190.2 41.4004 190.3 41.4004 190.4C41.5337 190.534 41.6337 190.7 41.7004 190.9C41.7671 191.034 41.8004 191.134 41.8004 191.2C41.8671 191.267 41.9004 191.334 41.9004 191.4C41.9671 191.6 42.0004 191.767 42.0004 191.9C42.0671 192.034 42.1004 192.134 42.1004 192.2C42.1004 192.4 42.1004 192 42.1004 192.1C42.1004 192.167 42.1004 192.234 42.1004 192.3C42.1004 192.7 42.4004 193.1 42.9004 193.1C43.2004 193.1 43.6004 192.7 43.6004 192.3Z" fill="white"/>
<path d="M134.9 216.9C133.6 216.9 132 216.4 130.9 217.2C130.6 217.3 130.2 217.7 130.2 218.1C130.2 218.4 130.4 218.7 130.6 218.9C131 219.3 131.6 219.6 132.1 219.8C133.1 220.1 134.6 220.4 135.5 219.6C136 219.1 136.1 218.5 136 217.9C135.8 217 135.1 216.5 134.4 216.2C133.6 216 132.8 216.1 132 216.1C131.1 216.2 130 216.1 129.3 216.7C129.1 216.8 129 217.1 129 217.4C129.2 218 129.7 218.4 130.1 218.7C130.7 219.167 131.333 219.534 132 219.8C132.5 220.1 133.2 220.3 133.9 220.2C134.167 220.134 134.4 220 134.6 219.8C135 219.4 134.8 218.8 134.5 218.4C133.7 216.8 131.4 215.8 130.1 217.5C129 218.9 130.2 220.3 131.3 221.2C132.6 222.2 134.3 222.9 135.9 223.1C137 223.3 138 223.2 139.1 223.1C140 223.1 140.9 223.1 141.8 222.9C142.6 222.7 143.5 222.2 144 221.4C144.5 220.5 144.3 219.4 143.8 218.5C142.7 216.9 140.3 215.9 138.5 216.8C137.8 217.2 137.1 217.9 137.3 218.9C137.5 219.8 138.3 220.4 139 220.8C139.8 221.334 140.633 221.734 141.5 222C142.033 222.2 142.6 222.4 143.2 222.6C143.6 222.7 144 222.8 144.4 222.8C145.2 222.7 146.1 221.7 146.1 220.7C146.1 219.7 145.3 219 144.6 218.5C143.8 218.1 143 217.7 142.2 217.4C141.1 216.9 140 216.4 138.8 216.3C137.8 216.3 136.9 216.7 136.3 217.6C135.8 218.4 135.6 219.4 136.2 220.2C137.1 221.7 138.8 222.2 140.2 222.7C141.6 223.1 143 223.8 144.4 223.8C145.2 223.8 145.9 223.5 146.4 222.8C146.7 222.3 146.9 221.6 146.9 221C146.8 219.8 145.9 218.9 145 218.4C143.8 217.8 142.6 217.4 141.4 217.2C140.3 216.9 139.2 216.8 138.1 216.6C138.2 216.6 138 216.6 137.9 216.6C137.767 216.6 137.667 216.567 137.6 216.5C137.2 216.5 136.833 216.5 136.5 216.5C135.8 216.6 134.9 216.8 134.4 217.5C133.8 218.1 133.7 219.4 134.1 220.2C134.5 220.8 135.5 220.2 135.1 219.6C134.9 219.2 135 218.4 135.3 218.2C135.8 217.9 136.4 217.8 136.9 217.7C137.5 217.7 138.3 217.9 138.8 217.9C140.6 218.2 142.5 218.5 144.1 219.3C144.8 219.6 145.4 220 145.6 220.7C145.7 220.8 145.6 220.6 145.7 220.7C145.7 220.767 145.7 220.8 145.7 220.8C145.7 220.9 145.7 221 145.7 221C145.7 221.1 145.7 221.4 145.7 221.4C145.6 221.8 145.5 222.2 145.1 222.4C144.2 222.9 143 222.4 142.2 222.1C141.2 221.767 140.2 221.4 139.2 221C138.7 220.8 138.2 220.5 137.7 220.2C137.4 219.9 136.9 219.5 137 219C137 218.4 137.5 217.8 138.1 217.6C138.8 217.4 139.6 217.7 140.2 217.9C141.6 218.4 143.1 218.9 144.3 219.8C144.5 220 144.7 220.1 144.8 220.3C145 220.6 144.9 220.8 144.8 221.1C144.4 221.6 144.2 221.6 143.6 221.4C142.1 221 140.7 220.5 139.4 219.7C139.1 219.4 138.4 219 138.4 218.5C138.4 218.1 139.1 217.8 139.4 217.8C140.6 217.4 142.3 218.2 143 219.5C143.3 220 143.2 220.7 142.7 221.1C142.2 221.6 141.6 221.7 141 221.8C140.4 221.9 139.8 221.9 139.1 221.9C138.4 221.9 137.6 222 136.9 222C135.967 221.934 135.067 221.767 134.2 221.5C133.7 221.3 133.4 221.1 132.9 220.8C132.2 220.4 131.1 219.7 130.8 218.9C130.7 218.7 130.7 218.7 130.8 218.5C130.8 218.4 131 218.2 131.1 218.1C131.6 217.7 132.2 217.8 132.7 218.1C133.1 218.4 133.6 218.8 133.7 219.4C133.767 219.2 133.8 219 133.8 218.8C133.8 218.9 133.8 218.9 133.8 218.9C133.9 218.9 133.7 219 133.6 219C133.8 219 133.5 219 133.6 219C133.533 219 133.5 219 133.5 219C133.4 219 133.3 219 133.2 218.9C132.8 218.9 132.3 218.7 131.9 218.5C131.433 218.234 131.033 217.967 130.7 217.7C130.567 217.567 130.433 217.434 130.3 217.3C130.2 217.2 130.2 217.2 130.2 217.1C130.1 217 130.2 217.2 130.1 217C130.033 217.267 129.967 217.5 129.9 217.7C130.2 217.5 130.6 217.4 131 217.4C131.5 217.4 132 217.4 132.5 217.3C133.2 217.3 134.2 217.2 134.7 217.8C134.767 217.867 134.833 218 134.9 218.2C134.9 218.267 134.9 218.334 134.9 218.4C134.9 218.5 134.9 218.4 134.9 218.5C134.9 218.6 134.9 218.5 134.8 218.6C134.8 218.6 134.6 218.7 134.6 218.8C134.1 219 133.4 218.9 132.8 218.7C132.4 218.6 132.1 218.5 131.8 218.3C131.733 218.234 131.667 218.2 131.6 218.2C131.5 218.1 131.5 218.1 131.5 218.1C131.433 218.034 131.4 217.967 131.4 217.9C131.5 218.1 131.3 217.7 131.3 217.9C131.3 218.1 131.3 218.267 131.3 218.4C131.4 218.2 131.5 218.1 131.8 218.1C132.2 218 132.5 218 132.9 218C133.5 218 134.2 218.1 134.9 218.2C135.6 218.2 135.6 216.9 134.9 216.9Z" fill="white"/>
<path d="M141.6 220C142 219.1 142.3 218 142.2 217C142.2 216.7 142 216.3 141.6 216.4C141.4 216.4 141 216.6 141.1 217C141.1 217.2 141.1 217.433 141.1 217.7C141.1 217.7 141.067 217.733 141 217.8C141.067 217.733 141.067 217.733 141 217.8C141 217.867 141 217.9 141 217.9C141 218.033 140.967 218.167 140.9 218.3C140.834 218.767 140.7 219.233 140.5 219.7C140.4 220 140.7 220.4 140.9 220.5C141.3 220.5 141.5 220.4 141.6 220Z" fill="white"/>
<path d="M140.5 215.8C140.5 215.867 140.5 215.9 140.5 215.9C140.433 216.033 140.4 216.067 140.4 216C140.4 216 140.433 215.967 140.5 215.9C140.6 215.9 140.7 215.9 140.8 215.8C141 215.7 141.2 215.6 141.4 215.7C141.6 215.7 141.9 215.9 142.1 216.1C142.367 216.367 142.667 216.633 143 216.9C143.6 217.4 144.4 217.7 145.1 218.1C145.4 218.4 145.7 218.7 146 218.9C146.3 219.2 146.8 219.2 147.1 219.5C147.367 218.967 147.633 218.467 147.9 218C147.767 218 147.667 217.933 147.6 217.8C147.3 217.5 146.8 217.5 146.5 217.8C146.2 218.1 146.2 218.7 146.5 219C146.7 219.2 146.9 219.367 147.1 219.5C148 219.9 148.7 218.6 147.9 218C147.5 217.8 147 217.7 146.7 217.4C146.3 217.1 145.9 216.8 145.5 216.5C144.6 216 143.8 215.6 143.1 215C142.4 214.3 141.7 213.8 140.7 214.1C139.9 214.4 139 214.8 139 215.8C139 216.9 140.5 216.9 140.5 215.8Z" fill="white"/>
<path d="M144.9 219.9C144.966 219.9 145.066 219.9 145.2 219.9C145.266 219.967 145.333 220 145.4 220C145.6 220 145.8 220.034 146 220.1C146.066 220.167 146.133 220.2 146.2 220.2C146.2 220.2 146.4 220.3 146.3 220.2C146.366 220.267 146.466 220.334 146.6 220.4C146.6 220.4 146.633 220.434 146.7 220.5C146.766 220.567 146.8 220.6 146.8 220.6C146.9 220.7 146.8 220.5 146.9 220.7C146.9 220.7 146.9 220.734 146.9 220.8C147 220.9 146.9 220.7 146.9 220.8C146.966 220.867 147 220.934 147 221C147.066 221.267 147.166 221.5 147.3 221.7C147.5 222.2 147.9 222.6 148.4 222.5C148.7 222.5 149 222.2 149 221.9C148.9 221.6 148.7 221.3 148.4 221.3C148.3 221.3 148.2 221.3 148.4 221.3C148.333 221.3 148.333 221.3 148.4 221.3C148.4 221.4 148.3 221.2 148.4 221.3C148.333 221.234 148.266 221.134 148.2 221C148.3 221.2 148.2 220.9 148.2 221C148.2 220.934 148.2 220.9 148.2 220.9C148 220.4 147.9 220 147.6 219.7C146.9 218.9 145.8 218.8 144.9 218.7C144.6 218.7 144.3 219 144.3 219.3C144.3 219.6 144.6 219.9 144.9 219.9Z" fill="white"/>
<path d="M139.5 224.2C140.2 224.3 141 224.4 141.7 224.5C142.5 224.6 143.2 224.5 143.9 224.5C144.7 224.567 145.5 224.6 146.3 224.6C146.6 224.6 146.9 224.5 147.3 224.4C147.5 224.3 147.7 224.2 147.9 224.2C148.4 224.2 148.9 224.2 149.4 224.1C150 223.8 150.4 223.3 150.6 222.7C151 221.3 150.1 220 149.3 219.1C148.8 218.6 148 219.5 148.5 220C149.1 220.6 150 221.8 149.3 222.7C149.1 223 148.7 223 148.4 223C147.9 223 147.5 223 147 223.2C146.5 223.4 145.8 223.3 145.3 223.3C144.634 223.3 143.967 223.3 143.3 223.3C142.7 223.3 142.1 223.3 141.4 223.3C140.8 223.2 140.1 223.1 139.5 223C138.7 223 138.7 224.2 139.5 224.2Z" fill="white"/>
<path d="M13.0997 98.9C12.9664 98.9 12.8664 98.8666 12.7997 98.8C12.9331 99 13.0664 99.1666 13.1997 99.3C12.8997 97.4 11.1997 95.9 10.0997 94.5C8.59972 92.6 7.39972 90.4 6.19972 88.3C5.59972 87.3 5.09972 86.3 4.59972 85.3C4.19972 84.2 3.79972 83.1 3.29972 82.1C2.19972 80.1 2.09972 77.9 1.69972 75.6C1.49972 74.4 1.29972 73.3 1.29972 72.1C1.39972 70.8 1.19972 69.4 1.59972 68.1C2.19972 65.8 3.09972 63.7 4.09972 61.5C4.59972 60.6 4.99972 59.6 5.79972 58.9C6.59972 58.1 7.59972 57.6 8.19972 56.7C8.99972 55.7 9.49972 54.9 10.4997 54.2C11.3997 53.5 12.1997 52.7 13.0997 52.1C14.9997 50.6 16.7997 49.3 18.4997 47.6C19.2997 46.8 19.9997 46 20.7997 45.2C21.4997 44.5 22.3997 43.9 23.1997 43.1C23.9997 42.3 24.6997 41.5 25.5997 40.8C26.5997 40.2 27.4997 39.5 28.3997 38.8C30.0997 37.4 32.4997 36.5 34.4997 35.7C36.6997 34.9 38.7997 33.9 40.9997 33.1C42.0664 32.7666 43.1664 32.4666 44.2997 32.2C45.3997 31.9 46.5997 31.8 47.6997 31.5C48.6997 31.2 49.5997 30.8 50.5997 30.5C51.8664 30.2333 53.1664 29.9666 54.4997 29.7C56.8997 29.3 59.2997 29 61.6997 28.5C62.7997 28.3 63.9997 28 65.0997 27.9C66.2997 27.8 67.3997 27.8 68.4997 27.6C69.4997 27.3 70.4997 27.2 71.4997 26.9C72.4997 26.5 73.4997 25.9 74.4997 25.5C75.4997 25.1 76.3997 24.5 77.4997 24.4C78.6997 24.4 79.8997 24.5 81.0997 24.3C83.3997 24.1 85.5997 23.7 87.7997 23.1C89.9997 22.5 92.3997 22.8 94.6997 22.8C96.8997 22.8 99.0997 22.4 101.3 22.3C103.5 22.1 105.7 22.4 107.7 23.6C109.6 24.7 111.7 24.7 113.8 25.3C116 26 118.1 26.9 120.3 27.7C122.566 28.5 124.8 29.4 127 30.4C129.1 31.4 131.1 32.6 133.1 33.6C135.1 34.5 137.3 35.2 139.2 36.3C143.2 38.8 146.3 42.5 149.3 46.2C150.8 48 152.3 49.7 154.1 51.3C155.8 52.8 157.3 54.2 159.2 55.3C161.1 56.4 163.3 56.7 165.2 57.7C166.1 58.2 166.9 58.6 167.8 58.9C168.9 59.2 169.9 59.8 171 60.2C172.9 60.8 175.3 61.3 177.2 61C178.3 60.9 179.3 60.7 180.3 60.5C181.4 60.2 182.6 60.3 183.8 60C185.8 59.5 187.6 58.3 189.5 57.4C191.4 56.5 193.4 55.5 195.1 54.1C196.6 52.9 197.2 50.8 198.4 49.2C199 48.5 199.7 47.9 200.3 47.2C200.9 46.4 201.1 45.3 201.8 44.6C202.4 44 203.2 43.7 203.8 42.9C204.3 42.2 204.7 41.5 205 40.6C205.2 39.9 204.1 39.5 203.9 40.3C203.6 41.3 202.9 42.3 202.1 42.9C201.4 43.5 200.7 43.9 200.3 44.8C199.9 45.8 199.4 46.5 198.6 47.2C198 47.9 197.4 48.6 196.9 49.5C196.3 50.4 195.8 51.5 195.2 52.4C194.6 53.2 193.6 53.7 192.7 54.3C190.8 55.5 188.6 56.5 186.6 57.5C185.6 58 184.7 58.5 183.6 58.8C182.6 59.1 181.4 59 180.3 59.2C179.2 59.4 178 59.8 176.9 59.9C175.6 59.9 174.3 59.6 173 59.4C172 59.2 171 58.9 170 58.5C169 58 167.9 57.7 166.9 57.3C166 56.9 165.2 56.3 164.3 56C163.2 55.6 162.1 55.3 161 54.9C158.7 53.9 157 52.3 155.2 50.7C153.5 49.1 152 47.6 150.5 45.8C147.5 42.1 144.5 38.5 140.7 35.9C138.9 34.6 136.9 33.9 134.9 33C132.7 32.1 130.6 30.8 128.5 29.7C124.3 27.7 120 26.3 115.7 24.7C114.6 24.3 113.6 23.9 112.5 23.7C111.3 23.5 110 23.5 109 22.9C108.1 22.5 107.4 22 106.5 21.7C105.5 21.3 104.5 21.1 103.5 21C101.3 20.9 99.1997 21.4 96.8997 21.5C94.6997 21.7 92.3997 21.5 90.0997 21.5C89.0997 21.5 88.0997 21.7 87.0997 22C85.8997 22.3 84.7997 22.5 83.5997 22.7C82.3997 22.9 81.1997 23.1 79.9997 23.2C78.8997 23.3 77.7997 23.1 76.6997 23.3C75.6997 23.5 74.7997 24.1 73.8997 24.5C72.7997 24.9 71.8997 25.5 70.7997 25.8C68.6997 26.5 66.4997 26.5 64.2997 26.8C61.8997 27.1 59.4997 27.7 57.0997 28.1C54.6997 28.5 52.2997 28.8 49.8997 29.5C48.8997 29.7 47.8997 30.2 46.8997 30.4C45.6997 30.7 44.3997 30.8 43.1997 31.2C40.9997 31.8 38.9997 32.6 36.8997 33.5C35.7997 34 34.6997 34.3 33.6997 34.7C32.4997 35.2 31.4997 35.8 30.2997 36.3C28.3997 37.1 26.8997 38.5 25.1997 39.7C23.4997 40.9 22.0997 42.5 20.4997 43.9C18.6997 45.5 17.1997 47.4 15.2997 48.9C13.4997 50.3 11.6997 51.8 9.89972 53.1C9.19972 53.6 8.49972 54.1 7.99972 54.9C7.59972 55.5 7.29972 56 6.89972 56.5C6.39972 56.9 5.89972 57.3 5.39972 57.7C3.79972 59 3.09972 61 2.19972 62.9C1.69972 63.8 1.29972 64.8 1.09972 65.9C0.799718 66.9 0.299718 67.9 0.199718 69C0.0997179 70.2 0.199718 71.4 0.199718 72.5C0.199718 73.7 0.399718 74.8 0.599718 76C0.999718 78.1 1.09972 80.3 1.99972 82.2C2.99972 84.2 3.79972 86.2 4.79972 88.2C5.99972 90.3 7.19972 92.5 8.59972 94.4C9.19972 95.3333 9.86638 96.2 10.5997 97C11.1997 97.8 11.8997 98.6 12.0997 99.6C12.0997 99.8 12.2997 100 12.4997 100C12.5664 100.067 12.6664 100.1 12.7997 100.1C13.4997 100.3 13.7997 99.1 13.0997 98.9Z" fill="white"/>
<path d="M199.6 47.9998C199.7 47.9998 199.6 47.9998 199.7 48.0998C199.767 48.1665 199.867 48.2331 200 48.2998C200.134 48.4998 200.3 48.6998 200.5 48.8998C200.834 49.4331 201.2 49.9665 201.6 50.4998C202.6 51.7998 203.3 53.3998 204.2 54.8998C204.9 56.2998 205.8 57.6998 206.9 58.6998C207.9 59.6998 209.2 60.4998 210.4 61.1998C211.8 61.8998 213.3 62.4998 214.7 63.1998C215 63.2998 215.3 63.2998 215.5 62.8998C215.6 62.6998 215.5 62.1998 215.3 62.0998C212.7 60.8998 209.9 59.9998 207.8 57.9998C206.6 56.8998 205.8 55.4998 205 53.9998C204.2 52.4998 203.4 50.8998 202.3 49.4998C201.9 48.9998 201.6 48.3998 201.1 47.8998C200.8 47.3998 200.3 46.7998 199.6 46.7998C198.9 46.7998 198.9 47.9998 199.6 47.9998Z" fill="white"/>
<path d="M194.9 52.5001C194.766 52.4335 194.633 52.4001 194.5 52.4001C194.633 52.6001 194.766 52.8001 194.9 53.0001C194.966 52.8001 195.033 52.6001 195.1 52.4001C195.1 52.4001 195.066 52.4335 195 52.5001C195.133 52.3001 195.266 52.1001 195.4 51.9001C195.333 51.9668 195.3 52.0001 195.3 52.0001C195.366 51.8668 195.466 51.7668 195.6 51.7001C195.533 51.7668 195.5 51.8001 195.5 51.8001C195.5 51.7335 195.566 51.7001 195.7 51.7001C195.633 51.7001 195.566 51.7001 195.5 51.7001C195.566 51.7001 195.6 51.7001 195.6 51.7001C195.4 51.5001 195.166 51.3001 194.9 51.1001C194.9 51.3001 194.933 51.5335 195 51.8001C195 51.9001 195 52.1001 195.1 52.2001C195.2 52.3001 195.4 52.4001 195.5 52.4001C195.7 52.4001 195.833 52.3335 195.9 52.2001C196 52.1001 196.1 51.9001 196.1 51.8001C196.1 51.5335 196.066 51.3001 196 51.1001C196 50.9001 196 50.8001 195.8 50.6001C195.666 50.4668 195.5 50.4335 195.3 50.5001C194.8 50.7001 194.5 51.1001 194.2 51.6001C194 52.0001 193.8 52.5001 193.8 53.0001C193.8 53.2001 194 53.5001 194.2 53.6001C194.333 53.6001 194.466 53.6335 194.6 53.7001C194.733 53.7001 194.866 53.6668 195 53.6001C195.1 53.5001 195.3 53.4001 195.3 53.2001C195.3 52.9001 195.2 52.5001 194.9 52.5001Z" fill="white"/>
<path d="M204.5 41.6001C204.9 40.8001 205.4 40.0001 206.1 39.4001C206.8 38.9001 207.6 38.5001 208.4 38.1001C209.3 37.7001 210.2 37.3001 211.1 36.9001C212.1 36.6001 213.2 36.2001 214.2 36.3001C214.8 36.3001 215.4 36.3001 216 36.2001C216.6 36.0001 217.2 35.8001 217.8 35.9001C218.6 35.9001 218.6 34.6001 217.8 34.6001C217.2 34.6001 216.7 34.7001 216.1 34.9001C215.6 35.0001 215.1 35.1001 214.5 35.1001C213.3 35.0001 212.2 35.3001 211.1 35.7001C210.1 36.0001 209.1 36.5001 208.2 36.9001C207.3 37.3001 206.4 37.7001 205.7 38.2001C204.7 39.0001 204 39.9001 203.6 41.0001C203.4 41.3001 203.5 41.7001 203.8 41.9001C204 42.0001 204.4 41.9001 204.5 41.6001Z" fill="white"/>
<path d="M13.5004 96.9C13.5004 96.2 13.5004 95.5 13.8004 94.9C14.0004 94.4 14.5004 94.1 14.9004 93.8C15.4004 93.4 15.8004 93 16.3004 92.5C16.8004 92 17.4004 91.7 18.0004 91.5C19.4004 90.8 20.9004 90.3 22.4004 90.1C23.1337 89.9667 23.8671 89.8667 24.6004 89.8C25.3004 89.7 26.1004 89.8 26.8004 89.7C27.6004 89.6 28.4004 89.3 29.2004 89.3C30.1004 89.2 31.1004 89.3 32.0004 89.3C32.7004 89.3 32.7004 88 32.0004 88C31.1004 88 30.2004 88 29.4004 88C28.6004 88.1 27.8004 88.3 27.1004 88.4C26.3004 88.6 25.4004 88.5 24.6004 88.6C23.8671 88.6 23.1004 88.6667 22.3004 88.8C20.7004 89.1 19.1004 89.7 17.6004 90.3C16.9004 90.6 16.2004 90.9 15.6004 91.5C15.2004 91.9 14.8004 92.4 14.2004 92.8C13.7004 93.2 13.1004 93.6 12.8004 94.3C12.4004 95.1 12.4004 96 12.4004 96.9C12.4004 97.7 13.5004 97.7 13.5004 96.9Z" fill="white"/>
<path d="M41.3998 108C41.6998 106.5 42.0998 105.2 41.5998 103.7C41.1998 102.4 40.5998 101.2 39.6998 100.2C39.1998 99.6999 38.6998 99.3999 38.2998 98.8999C37.7998 98.3999 37.5998 97.6999 37.1998 97.0999C36.7998 96.5999 36.2998 96.0999 35.8998 95.4999C35.4998 94.8999 35.2998 94.1999 34.7998 93.5999C34.4998 92.9999 33.9998 92.4999 33.6998 91.8999C33.2998 91.1666 32.9331 90.4666 32.5998 89.7999C32.2665 89.0666 31.9331 88.3333 31.5998 87.5999C31.2998 86.9999 30.7998 86.3999 30.5998 85.6999C30.2998 84.3999 30.4998 82.9999 30.4998 81.5999C30.4998 81.0999 30.4998 80.5999 30.6998 79.9999C30.8998 79.4999 31.2998 79.0999 31.6998 78.6999C32.6998 77.7999 33.8998 77.0999 35.1998 76.6999C35.7998 76.5999 36.3998 76.5999 37.0998 76.4999C37.7998 76.3999 38.3998 75.9999 39.0998 75.8999C39.7998 75.7999 40.5998 75.6999 41.2998 75.5999C41.9998 75.3999 42.6998 75.0999 43.3998 74.7999C44.7998 74.2999 46.1998 73.7999 47.5998 73.3999C50.5331 72.5999 53.4998 71.8666 56.4998 71.1999C57.9665 70.8666 59.4331 70.5333 60.8998 70.1999C62.2998 69.8999 63.6998 69.5999 64.9998 69.1999C66.3998 68.8999 67.6998 68.1999 69.0998 67.7999C70.4998 67.3999 71.9998 67.0999 73.2998 66.5999C74.6998 66.0999 75.9998 65.2999 77.1998 64.4999C78.3998 63.7999 79.5998 63.0999 80.5998 62.2999C81.1998 61.8333 81.7331 61.3333 82.1998 60.7999C82.6998 60.2999 81.8998 59.3999 81.3998 59.9999C80.3998 60.9999 79.2998 61.7999 78.1998 62.4999C76.8998 63.2999 75.6998 64.0999 74.3998 64.7999C73.0998 65.4999 71.6998 65.8999 70.1998 66.1999C69.5331 66.3999 68.8331 66.5999 68.0998 66.7999C67.3998 67.0999 66.7998 67.3999 66.0998 67.5999C64.6998 68.0999 63.3998 68.3999 61.9998 68.6999C60.5331 69.0333 59.0665 69.3666 57.5998 69.6999C54.5998 70.3666 51.6331 71.0999 48.6998 71.8999C47.1998 72.2999 45.7998 72.6999 44.2998 73.1999C42.8998 73.5999 41.5998 74.3999 40.0998 74.4999C39.3998 74.5999 38.5998 74.6999 37.8998 74.8999C37.2998 75.1999 36.6998 75.2999 35.9998 75.3999C34.6998 75.4999 33.3998 75.9999 32.2998 76.7999C31.1998 77.4999 30.0998 78.3999 29.5998 79.5999C29.1998 80.6999 29.3998 81.9999 29.2998 83.1999C29.2998 83.8999 29.2998 84.5999 29.3998 85.2999C29.4998 86.0999 29.7998 86.6999 30.0998 87.2999C30.7998 88.6999 31.4998 90.0999 32.1998 91.4999C32.4998 92.2999 32.8998 92.9999 33.3998 93.5999C33.4998 93.7999 33.6998 93.9999 33.8998 94.2999C34.0998 94.5999 34.2998 94.9999 34.3998 95.3999C34.7998 95.9999 35.1998 96.5999 35.6998 97.0999C36.0998 97.6999 36.4998 98.1999 36.7998 98.8999C37.1998 99.4999 37.6998 99.8999 38.1998 100.4C38.5998 100.8 39.0998 101.2 39.3998 101.7C39.7998 102.3 40.0998 102.9 40.2998 103.6C40.5998 104.2 40.6998 104.9 40.6998 105.6C40.5998 106.3 40.3998 107 40.2998 107.6C40.1998 108.4 41.2998 108.7 41.3998 108Z" fill="white"/>
<path d="M61.4001 70.3998C61.4001 72.2998 61.7001 74.0998 61.9001 75.9998C62.2001 77.8998 62.3001 79.7998 62.2001 81.6998C62.2001 83.5998 62.1001 85.4998 62.2001 87.3998C62.3001 88.2998 62.4001 89.2998 62.5001 90.1998C62.6001 91.1998 62.6001 92.1998 62.6001 93.1998C62.6001 95.0665 62.6001 96.9665 62.6001 98.8998C62.6001 99.8998 62.6001 100.8 62.5001 101.8C62.3001 102.6 62.1001 103.5 61.9001 104.3C61.6001 106.2 61.7001 108.1 61.7001 110C61.8001 110.9 61.7001 111.8 61.8001 112.7C61.9001 113.6 62.1001 114.4 62.2001 115.3C62.2001 117.2 62.2001 119.1 62.2001 121C62.2001 123 62.1668 124.966 62.1001 126.9C62.1001 128.9 62.1001 130.9 62.1001 132.9C62.1001 134.8 62.3001 136.7 62.1001 138.5C62.0001 139.4 61.7001 140.2 61.4001 140.9C61.1334 141.766 60.9001 142.633 60.7001 143.5C60.4001 144.4 60.2001 145.3 60.1001 146.2C60.0001 147.1 60.0001 148 59.9001 148.9C59.8001 149.7 59.7001 150.6 59.4001 151.4C59.1001 152.2 58.8001 153 58.5001 153.8C58.2334 154.6 58.0668 155.433 58.0001 156.3C58.0001 157.2 58.1001 158 58.1001 158.9C58.0001 162.3 55.0001 163.8 52.6001 165.2C51.1001 166.1 49.6001 167 48.0001 167.9C46.6001 168.6 45.5001 169.8 44.1001 170.7C43.5001 171.1 42.9001 171.6 42.5001 172.1C42.0001 172.7 42.8001 173.6 43.3001 173C43.8001 172.4 44.4001 172 45.0001 171.6C45.7001 171.1 46.2001 170.6 46.8001 170.1C48.2001 168.9 49.9001 168.2 51.4001 167.3C52.7001 166.5 54.1001 165.8 55.4001 164.9C56.5001 164.2 57.6001 163.3 58.3001 162.1C58.7668 161.366 59.0668 160.566 59.2001 159.7C59.3001 158.8 59.2001 158 59.2001 157.1C59.1001 156.2 59.2001 155.3 59.5001 154.5C59.8001 153.6 60.1001 152.9 60.4001 152.1C61.0001 150.4 61.0001 148.6 61.2001 146.8C61.4001 145 61.9001 143.2 62.4001 141.5C62.7001 140.7 63.1001 139.9 63.2001 139C63.3001 138.2 63.3001 137.4 63.3001 136.6C63.3001 134.6 63.3001 132.6 63.3001 130.6C63.3001 126.533 63.3001 122.5 63.3001 118.5C63.3001 117.6 63.3001 116.7 63.3001 115.8C63.3001 114.8 63.2001 114 63.0001 113.1C62.9001 112.2 62.9001 111.2 62.9001 110.3C62.9001 109.3 62.9001 108.333 62.9001 107.4C62.9001 106.4 62.9001 105.5 63.1001 104.5C63.2001 103.7 63.4001 102.9 63.6001 102C63.7001 101.1 63.7001 100.2 63.7001 99.1998C63.7001 98.1998 63.7001 97.1998 63.7001 96.1998C63.7001 94.2998 63.8001 92.2998 63.7001 90.3998C63.5001 88.4998 63.3001 86.5998 63.3001 84.6998C63.3001 82.6998 63.4001 80.7998 63.3001 78.8998C63.3001 76.9998 62.9001 75.0998 62.7001 73.2998C62.5668 72.2998 62.5001 71.3331 62.5001 70.3998C62.5001 69.5998 61.3001 69.5998 61.4001 70.3998Z" fill="white"/>
<path d="M43.3998 171C43.4665 170.867 43.5331 170.733 43.5998 170.6C43.5998 170.667 43.5665 170.733 43.4998 170.8C43.7998 170.4 44.1998 170.1 44.4998 169.7C44.2331 169.433 43.9665 169.133 43.6998 168.8C43.4998 169 43.2998 169.1 42.9998 169.3C42.6998 169.5 42.3998 169.8 42.2998 170.2C42.2998 170.4 42.2998 170.6 42.3998 170.7C42.3998 170.8 42.5998 171 42.6998 171C42.8998 171 42.9998 171 43.1998 170.9C43.2998 170.9 43.3998 170.7 43.3998 170.6C43.3998 170.533 43.4331 170.467 43.4998 170.4C43.4331 170.4 43.3998 170.433 43.3998 170.5C43.5998 170.367 43.7665 170.233 43.8998 170.1C44.1665 170.033 44.3665 169.9 44.4998 169.7C44.6998 169.5 44.7998 169.1 44.4998 168.8C44.2998 168.6 43.9998 168.6 43.6998 168.8C43.4998 169.1 43.1998 169.3 42.9998 169.6C42.7998 169.733 42.6665 169.9 42.5998 170.1C42.4665 170.3 42.3665 170.5 42.2998 170.7C42.2998 170.833 42.3331 170.967 42.3998 171.1C42.3998 171.3 42.5998 171.4 42.6998 171.4C42.8998 171.5 42.9998 171.5 43.1998 171.4C43.2998 171.3 43.3998 171.2 43.3998 171Z" fill="white"/>
<path d="M62.6998 138.7C62.6331 138.833 62.5331 138.933 62.3998 139C62.1998 139.4 62.2998 139.9 62.6998 140.1C63.2998 140.3 63.9998 140.2 64.5998 140C65.2665 139.867 65.9665 139.8 66.6998 139.8C68.1998 139.7 69.6998 139.7 71.1998 139.7C72.5998 139.6 73.9998 139.6 75.3998 139.9C76.8665 140.233 78.3331 140.633 79.7998 141.1C81.1998 141.4 82.4998 142.2 83.7998 142.8C85.1998 143.3 86.5998 143.6 88.0998 143.7C89.4998 143.9 90.9998 144 92.4998 144.3C93.2331 144.433 93.9665 144.567 94.6998 144.7C95.3998 144.9 96.1998 145.1 96.8998 145.3C97.5998 145.4 98.2998 145.4 98.9998 145.5C99.6998 145.5 100.4 145.7 101.2 145.8C102.6 146 104 146 105.4 145.9C108.4 145.8 111.4 145.8 114.5 145.8C116 145.8 117.5 145.8 119.1 146C120.5 146.1 122 146.3 123.5 146.3C124.2 146.3 124.9 146.2 125.5 146C126.2 145.8 126.7 145.5 127.4 145.4C128.8 145.1 130.2 145.4 131.6 145.4C133 145.4 134.4 145.6 135.7 145.5C136.4 145.4 137 145.1 137.6 145C138.3 144.9 139.1 145 139.8 145C141.2 145 142.7 145.1 144.1 145C144.8 145 145.4 144.8 146.1 144.7C146.7 144.5 147.2 144.6 147.8 144.6C148.4 144.6 148.9 144.4 149.4 143.9C149.8 143.3 149 142.5 148.5 143.1C148.2 143.5 147.6 143.3 147.2 143.3C146.5 143.3 145.9 143.4 145.2 143.6C143.9 144 142.5 143.8 141.1 143.8C140.433 143.733 139.733 143.7 139 143.7C138.3 143.7 137.6 143.7 136.9 143.9C136.3 144.1 135.7 144.3 135.1 144.3C134.4 144.3 133.7 144.2 133 144.2C131.6 144.133 130.2 144.1 128.8 144.1C128.1 144.1 127.5 144.1 126.8 144.3C126.2 144.4 125.6 144.7 125 144.9C123.7 145.3 122.1 145 120.8 144.9C119.3 144.8 117.8 144.6 116.4 144.6C113.3 144.6 110.2 144.5 107.2 144.6C105.8 144.7 104.4 144.8 103 144.7C102.333 144.7 101.633 144.667 100.9 144.6C100.2 144.4 99.5998 144.3 98.8998 144.2C98.0998 144.2 97.3998 144.2 96.6998 144C95.9665 143.8 95.2331 143.633 94.4998 143.5C93.0998 143.167 91.6665 142.933 90.1998 142.8C88.6998 142.6 87.2998 142.4 85.7998 142.1C84.3998 141.8 83.1998 141.1 81.8998 140.5C80.4998 139.9 79.0998 139.6 77.6998 139.3C76.1998 138.9 74.8998 138.5 73.3998 138.4C71.9998 138.4 70.5998 138.5 69.1998 138.5C67.6998 138.5 66.1998 138.5 64.6998 138.7C64.1998 138.9 63.5998 139.1 62.9998 138.9C63.0665 139.233 63.1665 139.567 63.2998 139.9C63.3665 139.767 63.4331 139.633 63.4998 139.5C63.9998 138.9 63.1998 138.1 62.6998 138.7Z" fill="white"/>
<path d="M155.3 69.9999C155.3 72.5332 155.3 75.0332 155.3 77.4999C155.3 78.6999 155.4 79.8999 155.1 81.0999C154.9 82.1999 154.6 83.1999 154.5 84.2999C154.3 85.4999 154.3 86.7999 154.1 87.9999C153.9 89.1332 153.7 90.2666 153.5 91.3999C153 93.6999 152.9 95.9999 152.6 98.3999C152.3 100.7 152.5 103.1 152.4 105.5C152.4 106.8 152.2 108 152.1 109.3C152 110.5 152.1 111.7 152 112.9C151.9 114 151.7 115.2 151.7 116.4C151.6 117.6 151.6 118.8 151.5 120C151.4 121.2 151.2 122.4 151 123.7C150.9 124.9 150.9 126.1 150.7 127.2C150.5 128.3 150.4 129.4 150.3 130.4C150.2 131 150.1 131.5 150 132.1C149.9 132.6 150 133.2 150 133.7C150 134.3 149.9 134.8 149.7 135.3C149.6 135.9 149.5 136.5 149.5 137C149.3 138.3 149.2 139.5 148.9 140.7C148.6 141.9 148.4 143 148.4 144.2C148.4 145.4 148.2 146.5 148.1 147.7C147.9 148.8 148 150 147.8 151.1C147.6 152.3 147.3 153.4 147 154.6C146.4 156.9 146 159.2 145.6 161.5C145.4 162.7 145.2 163.9 145.1 165.2C145.1 166.3 145.1 167.5 145.1 168.7C144.9 173.5 146 178.3 145.3 183.1C145.1 184.2 144.9 185.4 144.8 186.5C144.7 187.1 144.8 187.7 144.7 188.2C144.6 188.8 144.5 189.3 144.3 189.8C144 190.9 143.9 192 143.7 193.1C143.5 194.3 143.2 195.5 143 196.7C142.7 199 142.7 201.4 142.3 203.7C142.1 204.8 142 205.9 141.8 207C141.6 207.9 141.4 208.7 141.5 209.7C141.5 210.3 141.8 211.5 141.4 212C141.6 212 141.8 211.967 142 211.9C141.8 211.767 141.6 211.667 141.4 211.6C140.7 211.3 140.4 212.5 141.1 212.8C141.233 212.867 141.366 212.933 141.5 213C141.7 213.1 142 213.1 142.2 212.9C143.2 211.6 142.4 209.7 142.7 208.1C142.9 207.1 143 206 143.2 204.9C143.4 203.767 143.566 202.633 143.7 201.5C144 199.1 144.1 196.6 144.6 194.2C144.9 193.1 144.9 191.9 145.2 190.8C145.5 189.7 145.8 188.8 145.9 187.7C146 185.3 146.6 183.1 146.7 180.7C146.7 178.3 146.7 175.8 146.4 173.5C146.1 171 146.3 168.6 146.3 166.1C146.3 163.6 146.8 161.1 147.2 158.7C147.6 156.3 148.4 154.1 148.9 151.8C149.1 150.6 149.1 149.5 149.1 148.4C149.2 147.3 149.5 146.2 149.6 145.1C149.6 144.4 149.5 143.8 149.6 143.2C149.6 142.5 149.8 141.9 149.9 141.3C150.2 140.1 150.4 138.9 150.5 137.7C150.6 137.1 150.6 136.5 150.8 135.9C150.9 135.4 151.1 134.8 151.1 134.3C151.2 133.7 151.1 133.2 151.1 132.7C151.1 132.1 151.3 131.5 151.4 130.9C151.5 129.8 151.5 128.7 151.8 127.7C152 126.5 152 125.4 152.1 124.2C152.2 123 152.4 121.7 152.6 120.5C152.7 119.3 152.7 118.1 152.8 116.9C152.8 115.7 153 114.5 153.1 113.3C153.2 112.1 153.2 110.9 153.2 109.7C153.3 108.4 153.5 107.2 153.6 105.9C153.6 104.6 153.6 103.3 153.6 102C153.6 100.8 153.6 99.6999 153.7 98.4999C153.9 97.3999 154 96.1999 154.1 95.0999C154.2 92.6999 154.9 90.2999 155.2 87.8999C155.4 86.6999 155.4 85.4999 155.6 84.2999C155.8 83.1999 156.1 82.1999 156.3 81.0999C156.5 79.8999 156.4 78.6999 156.4 77.4999C156.4 76.2999 156.4 75.0666 156.4 73.7999C156.4 72.5332 156.4 71.2666 156.4 69.9999C156.4 69.1999 155.3 69.1999 155.3 69.9999Z" fill="white"/>
<path d="M50.1002 188.8C52.2002 188.9 54.3002 189.1 56.4002 188.9C57.4002 188.9 58.4002 188.6 59.4002 188.5C60.4002 188.3 61.5002 188.4 62.6002 188.4C63.6002 188.4 64.6335 188.333 65.7002 188.2C66.7002 188.1 67.8002 188.1 68.8002 187.9C70.8002 187.6 72.8002 186.8 74.7002 186.1C76.6002 185.4 78.3002 184.4 80.0002 183.4C81.7002 182.4 83.5002 181.4 85.2002 180.2C86.8002 179.1 88.4002 177.8 90.2002 177C91.0002 176.6 91.9002 176.4 92.7002 176C93.5002 175.6 94.2669 175.133 95.0002 174.6C95.3335 174.267 95.7002 173.967 96.1002 173.7C96.4002 173.4 96.8002 173.2 97.2002 173C97.5335 172.733 97.8335 172.433 98.1002 172.1C98.4002 171.7 98.5002 171.3 98.7002 170.8C99.0002 169.8 99.8002 169.3 100.5 168.8C101.2 168.3 102 167.9 102.7 167.3C103.4 166.7 103.9 165.9 104.4 165.1C104.6 164.7 104.9 164.3 105.1 163.9C105.3 163.5 105.4 163.2 105.6 162.9C105.8 162.6 106.1 162.6 106.4 162.8C106.7 163.2 106.6 163.7 106.8 164.2C106.9 164.6 107.1 164.9 107.4 165.3C107.7 165.8 107.9 166.3 108.2 166.9C108.6 167.9 108.9 169 109.2 170.1C109.467 171.167 109.767 172.267 110.1 173.4C110.7 175.5 111.3 177.7 112.2 179.6C112.7 180.6 113.3 181.4 113.8 182.4C114.2 183.3 114.5 184.3 114.8 185.3C115.1 186.3 115.6 187.2 116 188.2C116.4 189.2 116.9 190.2 117.5 191.1C118 192 118.4 193 118.7 194C119 195 119.3 196 119.7 197C120.5 198.9 121.7 200.6 122.7 202.4C123.7 204.2 124.6 206 125.3 207.9C125.9 210.1 126.2 212.3 126.8 214.4C127.1 215.4 127.4 216.4 127.3 217.4C127.2 218.2 128.4 218.2 128.4 217.4C128.5 216.3 128.2 215.2 127.9 214.2C127.634 213.067 127.367 211.933 127.1 210.8C126.9 209.8 126.7 208.7 126.4 207.6C126.067 206.6 125.667 205.633 125.2 204.7C124.4 202.9 123.3 201.1 122.2 199.3C121.7 198.4 121.1 197.5 120.7 196.5C120.3 195.6 120.1 194.5 119.8 193.5C119.467 192.5 119.034 191.533 118.5 190.6C118 189.7 117.5 188.8 117.1 187.7C116.7 186.7 116.1 185.7 115.8 184.7C115.467 183.7 115.1 182.7 114.7 181.7C114.3 180.7 113.6 179.8 113.2 178.9C112.7 177.9 112.4 176.9 112 175.9C111.3 173.7 110.8 171.4 110.1 169.2C109.8 168.1 109.5 167 109 166C108.8 165.5 108.6 165 108.3 164.6C108 164.2 107.8 163.8 107.8 163.3C107.7 162.4 107 161.5 106 161.4C105.1 161.4 104.6 162.2 104.2 163C103.9 163.8 103.3 164.6 102.8 165.4C102.3 166.2 101.6 166.7 100.8 167.2C100 167.7 99.2002 168.2 98.6002 168.8C98.3002 169.1 98.0002 169.5 97.8002 169.9C97.6002 170.4 97.5002 170.9 97.2002 171.4C97.0002 171.7 96.7002 171.9 96.4002 172C96.0002 172.267 95.6002 172.567 95.2002 172.9C94.5002 173.5 93.7002 174 92.9002 174.5C92.1002 175 91.3002 175.3 90.4002 175.6C89.5002 175.9 88.7002 176.4 87.8002 176.9C86.2002 178 84.6002 179.2 82.9002 180.3C81.1002 181.3 79.4002 182.4 77.6002 183.4C76.6669 183.933 75.7335 184.4 74.8002 184.8C73.8002 185.1 72.8002 185.4 71.9002 185.8C70.9002 186.1 69.9002 186.4 68.9002 186.6C67.9002 186.8 66.8002 186.9 65.8002 187C64.7335 187.133 63.6669 187.2 62.6002 187.2C61.5002 187.2 60.4002 187.1 59.4002 187.2C58.4002 187.3 57.4002 187.6 56.4002 187.7C55.4002 187.8 54.3002 187.8 53.3002 187.7C52.2002 187.7 51.2002 187.6 50.1002 187.6C49.4002 187.6 49.4002 188.8 50.1002 188.8Z" fill="white"/>
<path d="M154.6 83.5002C155 84.0002 155.3 84.6002 155.7 85.1002C156.1 85.5002 156.6 85.9002 157.1 86.2002C158.234 86.7335 159.367 87.2669 160.5 87.8002C161.1 88.1335 161.7 88.4002 162.3 88.6002C163 88.8002 163.7 89.0002 164.3 89.1002C165.7 89.5002 167 90.0002 168.3 90.4002C169.6 90.7002 170.9 91.1002 172.3 91.2002C173.5 91.3002 174.8 91.1002 176 90.9002C176.667 90.8335 177.3 90.8335 177.9 90.9002C178.234 90.9002 178.534 90.9335 178.8 91.0002C179.1 91.1002 179.3 91.2002 179.6 91.4002C180.7 91.8002 182 91.5002 183.1 91.5002C183.8 91.5002 184.4 91.5002 185.1 91.5002C185.8 91.4002 186.3 91.2002 187 90.9002C188.2 90.4002 189.5 90.5002 190.8 90.4002C192.2 90.3002 193.4 89.9002 194.8 89.6002C196.1 89.3002 197.3 88.8002 198.4 88.0002C198.9 87.7002 199.5 87.3002 200 87.0002C200.6 86.7002 201.2 86.5002 201.7 86.3002C202.8 85.8002 203.8 85.0002 204.7 84.2002C206.6 82.6002 207.7 80.1002 208.9 77.9002C209.6 76.7002 210.2 75.6002 210.9 74.4002C211.6 73.3002 212.5 72.4002 213.2 71.3002C213.5 70.7002 213.8 70.1002 213.9 69.4002C214.1 69.0002 214.2 68.5002 214.3 68.0002C214.5 67.2002 214.6 66.3002 214.9 65.5002C214.9 65.3669 214.934 65.2335 215 65.1002C215.1 65.0002 215.1 65.0002 215.1 65.0002C215.2 65.0002 215.1 64.9002 215.1 65.0002C215.8 64.7002 215.5 63.5002 214.8 63.8002C214.1 64.0002 213.8 64.9002 213.6 65.7002C213.4 66.4002 213.3 67.3002 213.1 68.1002C213 68.6002 212.8 69.3002 212.6 69.8002C212.4 70.4002 212 70.9002 211.6 71.4002C210.8 72.4002 210.067 73.4669 209.4 74.6002C208.1 76.9002 207 79.3002 205.6 81.5002C204.9 82.4002 204.1 83.2002 203.2 83.9002C202.734 84.2335 202.234 84.5669 201.7 84.9002C201.2 85.2002 200.6 85.4002 200.1 85.7002C198.9 86.2002 197.9 87.0002 196.8 87.6002C195.6 88.2002 194.3 88.4002 193 88.7002C192.4 88.9002 191.7 89.1002 191.1 89.2002C190.4 89.2002 189.8 89.2002 189.2 89.3002C188.5 89.3002 187.8 89.3002 187.2 89.5002C186.6 89.7002 186 90.1002 185.4 90.2002C184.8 90.3002 184.1 90.3002 183.4 90.3002C182.9 90.3002 182.3 90.3002 181.7 90.4002C181.2 90.4002 180.6 90.4002 180.1 90.3002C179.8 90.2002 179.5 90.0002 179.3 89.9002C179 89.8002 178.6 89.7002 178.3 89.7002C175.8 89.4002 173.4 90.3002 171 89.8002C168.3 89.2002 165.7 88.2002 163 87.5002C161.8 87.2002 160.6 86.6002 159.5 86.0002C158.5 85.5002 157.2 85.1002 156.5 84.1002C156.1 83.7002 155.8 83.1002 155.4 82.6002C155 82.0002 154.2 82.9002 154.6 83.5002Z" fill="white"/>
<path d="M108.9 10.9C108.767 10.7667 108.7 10.6 108.7 10.4C108.5 10 108 9.80001 107.7 10.1C106.9 10.9 106.9 12.3 106.6 13.3C106.4 14.4 106 15.5 105.6 16.5C105.3 17.4 105.1 18.3 104.9 19.2C104.9 20 104.9 21 105.6 21.6C105.9 21.9 106.4 21.8 106.5 21.3C106.567 21.2333 106.6 21.1333 106.6 21C106.9 20.3 105.8 20 105.5 20.7C105.5 20.7667 105.467 20.8667 105.4 21C105.734 20.8667 106.067 20.7667 106.4 20.7C106 20.3 106 19.6 106.1 19C106.3 18.2 106.5 17.4 106.8 16.7C107.1 15.7 107.4 14.8 107.7 13.9C107.834 13.3667 107.934 12.8 108 12.2C108.1 11.8 108.2 11.3 108.5 11C108.167 10.9333 107.834 10.8333 107.5 10.7C107.634 11.1 107.834 11.4333 108.1 11.7C108.6 12.3 109.4 11.4 108.9 10.9Z" fill="white"/>
<path d="M12.1002 98.1999C12.6002 98.8999 13.1002 99.6999 13.6002 100.4C14.1002 101.2 14.6002 101.9 15.2002 102.6C15.6669 103.2 16.1335 103.833 16.6002 104.5C17.0002 105.1 17.6002 105.6 18.2002 106.1C20.9002 108.1 23.9002 109.7 26.8002 111.5C27.5002 111.9 28.2002 112.3 29.0002 112.4C29.2002 112.4 29.5002 112.4 29.7002 112.5C30.0002 112.5 30.2002 112.8 30.3002 113C30.5002 113.3 30.9002 113.2 31.1002 113C31.4002 112.7 31.3002 112.4 31.1002 112.1C30.8002 111.6 30.3002 111.3 29.7002 111.2C29.1002 111.2 28.7002 111.1 28.2002 110.8C27.5002 110.5 26.8002 110 26.2002 109.7C25.4002 109.233 24.6335 108.767 23.9002 108.3C22.4335 107.433 20.9669 106.5 19.5002 105.5C18.9002 105.1 18.2002 104.7 17.7002 104.1C17.3002 103.5 16.9002 102.8 16.4002 102.2C15.8002 101.5 15.2002 100.7 14.6002 99.8999C14.0002 98.9999 13.5002 98.1999 12.9002 97.2999C12.7002 97.0999 12.3002 97.0999 12.1002 97.2999C11.9002 97.5999 11.9002 97.9999 12.1002 98.1999Z" fill="white"/>
</svg>
