<svg width="157" height="48" viewBox="0 0 157 48" fill="none" xmlns="http://www.w3.org/2000/svg">
<path d="M17.5 16.5C17.5 17.8807 18.6193 19 20 19C21.3807 19 22.5 17.8807 22.5 16.5V6.5C22.5 5.11929 21.3807 4 20 4C18.6193 4 17.5 5.11929 17.5 6.5V16.5Z" fill="#0F8465"/>
<path d="M17.5 41.5C17.5 42.8807 18.6193 44 20 44C21.3807 44 22.5 42.8807 22.5 41.5V31.5C22.5 30.1193 21.3807 29 20 29C18.6193 29 17.5 30.1193 17.5 31.5V41.5Z" fill="#0F8465"/>
<path d="M23.5362 20.4645C22.5599 19.4881 22.5599 17.9052 23.5362 16.9289L30.6072 9.85785C31.5835 8.88154 33.1665 8.88154 34.1428 9.85786C35.1191 10.8342 35.1191 12.4171 34.1428 13.3934L27.0717 20.4645C26.0954 21.4408 24.5125 21.4408 23.5362 20.4645Z" fill="#0F8465"/>
<path d="M5.8585 34.6066C4.88219 35.5829 4.88219 37.1658 5.8585 38.1421C6.83481 39.1184 8.41772 39.1184 9.39403 38.1421L16.4651 31.0711C17.4414 30.0947 17.4414 28.5118 16.4651 27.5355C15.4888 26.5592 13.9059 26.5592 12.9296 27.5355L5.8585 34.6066Z" fill="#0F8465"/>
<path d="M23.5358 27.5356C24.5121 26.5592 26.095 26.5592 27.0713 27.5356L34.1424 34.6066C35.1187 35.5829 35.1187 37.1658 34.1424 38.1422C33.1661 39.1185 31.5832 39.1185 30.6069 38.1422L23.5358 31.0711C22.5595 30.0948 22.5595 28.5119 23.5358 27.5356Z" fill="#0F8465"/>
<path d="M9.39365 9.85789C8.41734 8.88158 6.83443 8.88158 5.85812 9.85789C4.88181 10.8342 4.88181 12.4171 5.85812 13.3934L12.9292 20.4645C13.9055 21.4408 15.4884 21.4408 16.4647 20.4645C17.441 19.4882 17.441 17.9053 16.4647 16.929L9.39365 9.85789Z" fill="#0F8465"/>
<path d="M25 24C25 22.6193 26.1193 21.5 27.5 21.5H37.5C38.8807 21.5 40 22.6193 40 24C40 25.3807 38.8807 26.5 37.5 26.5H27.5C26.1193 26.5 25 25.3807 25 24Z" fill="#0F8465"/>
<path d="M2.5 21.5C1.11929 21.5 0 22.6193 0 24C0 25.3807 1.11929 26.5 2.5 26.5L12.5 26.5C13.8807 26.5 15 25.3807 15 24C15 22.6193 13.8807 21.5 12.5 21.5L2.5 21.5Z" fill="#0F8465"/>
<path d="M50 33.0001V14.6401H63.176V18.0691H54.32V21.9301H62.123V25.2781H54.32V29.5711H63.176V33.0001H50Z" fill="#121212"/>
<path d="M73.9737 26.8171V18.4741H78.1047V33.0001H73.9737V31.0561C73.0287 32.6761 71.5977 33.4321 69.8427 33.4321C67.0887 33.4321 65.0637 31.7581 65.0637 28.1401V18.4741H69.1947V27.3031C69.1947 29.1661 69.8967 30.0841 71.3547 30.0841C72.9477 30.0841 73.9737 28.6801 73.9737 26.8171Z" fill="#121212"/>
<path d="M84.5014 38.9671H80.3704V18.4741H84.5014V19.9861C85.3924 18.7171 86.6344 18.0151 88.1464 18.0151C91.8994 18.0151 94.2484 20.9581 94.2484 25.7101C94.2484 30.6511 91.8454 33.4321 88.1464 33.4321C86.6074 33.4321 85.3654 32.7841 84.5014 31.5421V38.9671ZM87.2824 21.3631C85.4464 21.3631 84.5014 22.9021 84.5014 25.7101C84.5014 28.5181 85.4734 30.0841 87.2824 30.0841C89.0644 30.0841 90.0094 28.5451 90.0094 25.7101C90.0094 22.9021 89.0374 21.3631 87.2824 21.3631Z" fill="#121212"/>
<path d="M95.888 33.0001V13.5601H100.019V20.3911C100.964 18.7711 102.449 18.0151 104.231 18.0151C107.012 18.0151 109.091 19.7161 109.091 23.3071V33.0001H104.96V24.1441C104.96 22.3081 104.231 21.3631 102.719 21.3631C101.072 21.3631 100.019 22.7941 100.019 24.6571V33.0001H95.888Z" fill="#121212"/>
<path d="M117.86 33.4321C113.459 33.4321 110.732 30.5161 110.732 25.7371C110.732 20.7961 113.54 18.0151 117.86 18.0151C122.261 18.0151 125.015 20.9851 125.015 25.7371C125.015 30.6511 122.18 33.4321 117.86 33.4321ZM117.86 30.0841C119.777 30.0841 120.776 28.5721 120.776 25.7371C120.776 22.9291 119.75 21.3631 117.86 21.3631C115.97 21.3631 114.971 22.9021 114.971 25.7371C114.971 28.5451 115.997 30.0841 117.86 30.0841Z" fill="#121212"/>
<path d="M126.66 33.0001V18.4741H130.791V20.4991C131.709 18.7711 133.113 18.0151 134.598 18.0151C135.192 18.0151 135.732 18.1771 136.029 18.4741V21.9571C135.543 21.8491 135.03 21.7951 134.382 21.7951C131.898 21.7951 130.791 23.1991 130.791 25.4941V33.0001H126.66Z" fill="#121212"/>
<path d="M137.141 17.0161V13.5601H141.272V17.0161H137.141ZM137.141 33.0001V18.4741H141.272V33.0001H137.141Z" fill="#121212"/>
<path d="M147.559 23.2801H143.428C143.86 20.0131 146.371 18.0151 150.097 18.0151C154.255 18.0151 156.415 20.4451 156.415 23.8201V29.3821C156.415 31.2721 156.577 32.2441 156.82 33.0001H152.554C152.419 32.5141 152.338 31.8931 152.311 31.1911C151.177 32.7571 149.449 33.4321 147.721 33.4321C144.967 33.4321 142.915 32.0281 142.915 29.2471C142.915 27.2761 144.049 25.7641 146.344 24.9541C148.234 24.3331 150.043 24.1441 152.284 24.1171V23.7931C152.284 22.2001 151.501 21.3631 149.908 21.3631C148.504 21.3631 147.748 22.1461 147.559 23.2801ZM147.046 28.9771C147.046 29.9491 147.775 30.5701 148.99 30.5701C150.826 30.5701 152.284 29.0851 152.284 27.0871V26.5201C148.099 26.6011 147.046 27.6271 147.046 28.9771Z" fill="#121212"/>
</svg>
