<svg width="160" height="48" viewBox="0 0 160 48" fill="none" xmlns="http://www.w3.org/2000/svg">
<path d="M20 4C31.0457 4 40 12.9543 40 24C40 35.0457 31.0457 44 20 44C8.9543 44 0 35.0457 0 24C0 12.9543 8.9543 4 20 4ZM20.001 38.5537C18.1757 39.4112 16.3655 39.9931 14.6475 40.2822C16.3317 40.8356 18.1306 41.1367 20 41.1367C21.8691 41.1367 23.6676 40.8354 25.3516 40.2822C23.6343 39.993 21.8253 39.4107 20.001 38.5537ZM7.32227 27.3457C7.1622 27.8141 7.02424 28.2752 6.91113 28.7275C6.02339 32.2785 6.6752 34.7162 7.98047 36.0215C9.28576 37.3267 11.7235 37.9776 15.2744 37.0898C15.7265 36.9768 16.1872 36.8387 16.6553 36.6787C14.8881 35.5241 13.1507 34.1213 11.5156 32.4863C9.88039 30.8511 8.477 29.1131 7.32227 27.3457ZM32.6787 27.3457C31.524 29.1129 30.1214 30.8503 28.4863 32.4854C26.8509 34.1208 25.1133 35.5239 23.3457 36.6787C23.8142 36.8388 24.2751 36.9777 24.7275 37.0908C28.2785 37.9786 30.7162 37.3268 32.0215 36.0215C33.3267 34.7162 33.9776 32.2784 33.0898 28.7275C32.9767 28.2751 32.8388 27.8141 32.6787 27.3457ZM20.001 12.8115C17.8587 13.9839 15.6778 15.5966 13.6377 17.6367C11.5972 19.6772 9.984 21.8584 8.81152 24.001C9.98394 26.1432 11.5966 28.3242 13.6367 30.3643C15.677 32.4046 17.8585 34.017 20.001 35.1895C22.1434 34.017 24.3249 32.4046 26.3652 30.3643C28.4052 28.3243 30.0171 26.1431 31.1895 24.001C30.017 21.8585 28.4046 19.677 26.3643 17.6367C24.3242 15.5966 22.1432 13.9839 20.001 12.8115ZM3.7168 18.6455C3.16312 20.3302 2.86328 22.1301 2.86328 24C2.86328 25.8704 3.16385 27.6704 3.71777 29.3555C4.00677 27.6372 4.58881 25.8265 5.44629 24.001C4.58852 22.175 4.00584 20.3641 3.7168 18.6455ZM36.2832 18.6494C35.9939 20.3669 35.4119 22.1764 34.5547 24.001C35.4117 25.8255 35.993 27.6352 36.2822 29.3525C36.8356 27.6683 37.1367 25.8694 37.1367 24C37.1367 22.1314 36.8361 20.3331 36.2832 18.6494ZM32.0225 11.9795C30.7172 10.6742 28.2795 10.0234 24.7285 10.9111C24.2755 11.0244 23.8137 11.1619 23.3447 11.3223C25.1123 12.4771 26.8499 13.8802 28.4854 15.5156C30.1209 17.1512 31.5248 18.8885 32.6797 20.6562C32.8399 20.1875 32.9776 19.7261 33.0908 19.2734C33.9785 15.7225 33.3277 13.2848 32.0225 11.9795ZM15.2734 10.9111C11.7225 10.0234 9.28478 10.6743 7.97949 11.9795C6.67422 13.2848 6.02339 15.7225 6.91113 19.2734C7.02422 19.7257 7.16125 20.187 7.32129 20.6553C8.47602 18.8878 9.88033 17.151 11.5156 15.5156C13.1508 13.8805 14.888 12.476 16.6553 11.3213C16.187 11.1613 15.7257 11.0242 15.2734 10.9111ZM20 6.86328C18.1301 6.86328 16.3302 7.16312 14.6455 7.7168C16.3638 8.00581 18.1744 8.58873 20 9.44629C21.8255 8.58866 23.6363 8.00698 25.3545 7.71777C23.6697 7.16403 21.87 6.86328 20 6.86328Z" fill="white" fill-opacity="0.75"/>
<path d="M54.725 19.3655C54.725 23.2805 65.525 19.9595 65.525 27.4655C65.525 31.2455 62.393 33.4325 58.1 33.4325C53.753 33.4325 50.648 31.4345 50 27.2495H54.563C54.914 29.0585 56.183 30.0575 58.127 30.0575C60.071 30.0575 61.097 29.2745 61.097 28.0055C61.097 23.9015 50.27 27.0335 50.27 19.7705C50.27 16.6925 52.835 14.2085 57.344 14.2085C61.151 14.2085 64.445 16.0175 65.012 20.2565H60.395C60.017 18.4475 58.964 17.5835 57.182 17.5835C55.67 17.5835 54.725 18.2855 54.725 19.3655Z" fill="white" fill-opacity="0.75"/>
<path d="M71.2465 38.9675H67.1155V18.4745H71.2465V19.9865C72.1375 18.7175 73.3795 18.0155 74.8915 18.0155C78.6445 18.0155 80.9935 20.9585 80.9935 25.7105C80.9935 30.6515 78.5905 33.4325 74.8915 33.4325C73.3525 33.4325 72.1105 32.7845 71.2465 31.5425V38.9675ZM74.0275 21.3635C72.1915 21.3635 71.2465 22.9025 71.2465 25.7105C71.2465 28.5185 72.2185 30.0845 74.0275 30.0845C75.8095 30.0845 76.7545 28.5455 76.7545 25.7105C76.7545 22.9025 75.7825 21.3635 74.0275 21.3635Z" fill="white" fill-opacity="0.75"/>
<path d="M82.6331 33.0005V13.5605H86.7641V20.3915C87.7091 18.7715 89.1941 18.0155 90.9761 18.0155C93.7571 18.0155 95.8361 19.7165 95.8361 23.3075V33.0005H91.7051V24.1445C91.7051 22.3085 90.9761 21.3635 89.4641 21.3635C87.8171 21.3635 86.7641 22.7945 86.7641 24.6575V33.0005H82.6331Z" fill="white" fill-opacity="0.75"/>
<path d="M111.787 28.2215C111.031 31.5695 108.331 33.4325 104.767 33.4325C100.258 33.4325 97.477 30.5165 97.477 25.7375C97.477 20.7965 100.285 18.0155 104.605 18.0155C108.952 18.0155 111.679 20.9045 111.679 25.6565V26.5745H101.689C101.905 28.8965 102.985 30.1385 104.767 30.1385C106.117 30.1385 107.035 29.5445 107.467 28.2215H111.787ZM104.605 21.3095C103.066 21.3095 102.094 22.3085 101.77 24.1985H107.413C107.089 22.3085 106.117 21.3095 104.605 21.3095Z" fill="white" fill-opacity="0.75"/>
<path d="M113.405 33.0005V18.4745H117.536V20.4995C118.454 18.7715 119.858 18.0155 121.343 18.0155C121.937 18.0155 122.477 18.1775 122.774 18.4745V21.9575C122.288 21.8495 121.775 21.7955 121.127 21.7955C118.643 21.7955 117.536 23.1995 117.536 25.4945V33.0005H113.405Z" fill="white" fill-opacity="0.75"/>
<path d="M132.796 26.8175V18.4745H136.927V33.0005H132.796V31.0565C131.851 32.6765 130.42 33.4325 128.665 33.4325C125.911 33.4325 123.886 31.7585 123.886 28.1405V18.4745H128.017V27.3035C128.017 29.1665 128.719 30.0845 130.177 30.0845C131.77 30.0845 132.796 28.6805 132.796 26.8175Z" fill="white" fill-opacity="0.75"/>
<path d="M139.193 33.0005V13.5605H143.324V33.0005H139.193Z" fill="white" fill-opacity="0.75"/>
<path d="M159.25 28.2215C158.494 31.5695 155.794 33.4325 152.23 33.4325C147.721 33.4325 144.94 30.5165 144.94 25.7375C144.94 20.7965 147.748 18.0155 152.068 18.0155C156.415 18.0155 159.142 20.9045 159.142 25.6565V26.5745H149.152C149.368 28.8965 150.448 30.1385 152.23 30.1385C153.58 30.1385 154.498 29.5445 154.93 28.2215H159.25ZM152.068 21.3095C150.529 21.3095 149.557 22.3085 149.233 24.1985H154.876C154.552 22.3085 153.58 21.3095 152.068 21.3095Z" fill="white" fill-opacity="0.75"/>
</svg>
