<svg width="192" height="48" viewBox="0 0 192 48" fill="none" xmlns="http://www.w3.org/2000/svg">
<path d="M0 24C0 30.6274 5.37258 36 12 36V24C12 30.6274 17.3726 36 24 36V24C24 30.6274 29.3726 36 36 36C42.6274 36 48 30.6274 48 24C48 17.3726 42.6274 12 36 12C29.3726 12 24 17.3726 24 24V12C17.3726 12 12 17.3726 12 24V12C5.37258 12 0 17.3726 0 24Z" fill="white" fill-opacity="0.75"/>
<path d="M58 33.0001V14.6401H62.32V29.4901H70.393V33.0001H58Z" fill="white" fill-opacity="0.75"/>
<path d="M71.9299 17.0161V13.5601H76.0609V17.0161H71.9299ZM71.9299 33.0001V18.4741H76.0609V33.0001H71.9299Z" fill="white" fill-opacity="0.75"/>
<path d="M83.6441 33.0271C79.9721 33.0271 77.6771 30.1651 77.6771 25.5481C77.6771 20.7151 80.0261 18.0151 83.6441 18.0151C85.2641 18.0151 86.5331 18.6361 87.4241 19.8241V18.4741H91.5551V33.4861C91.5551 37.3741 88.8011 39.3991 84.9941 39.3991C81.2951 39.3991 78.6221 37.7791 78.1091 34.2421H82.2401C82.4021 35.5381 83.5091 36.2401 84.9401 36.2401C86.4251 36.2401 87.4241 35.5651 87.4241 33.5401V31.1101C86.5061 32.3791 85.2101 33.0271 83.6441 33.0271ZM84.6431 29.6791C86.4791 29.6791 87.4241 28.2211 87.4241 25.5211C87.4241 22.8481 86.4521 21.3631 84.6431 21.3631C82.8611 21.3631 81.9161 22.8211 81.9161 25.5481C81.9161 28.1941 82.8611 29.6791 84.6431 29.6791Z" fill="white" fill-opacity="0.75"/>
<path d="M93.8157 33.0001V13.5601H97.9467V20.3911C98.8917 18.7711 100.377 18.0151 102.159 18.0151C104.94 18.0151 107.019 19.7161 107.019 23.3071V33.0001H102.888V24.1441C102.888 22.3081 102.159 21.3631 100.647 21.3631C98.9997 21.3631 97.9467 22.7941 97.9467 24.6571V33.0001H93.8157Z" fill="white" fill-opacity="0.75"/>
<path d="M109.821 28.2751V21.6061H108.039V18.4741H109.821V15.0991H113.952V18.4741H116.922V21.6061H113.952V27.7621C113.952 29.1661 114.33 29.9491 116.112 29.9491H116.895V33.0541C116.436 33.2701 115.518 33.4321 114.411 33.4321C111.306 33.4321 109.821 31.6501 109.821 28.2751Z" fill="white" fill-opacity="0.75"/>
<path d="M121.824 22.4971C121.824 25.3591 130.815 22.8481 130.815 28.5991C130.815 31.4611 128.169 33.4321 124.389 33.4321C120.717 33.4321 118.071 31.8121 117.531 28.2211H121.662C121.851 29.5711 122.958 30.3001 124.497 30.3001C125.955 30.3001 126.684 29.7331 126.684 28.8421C126.684 26.0341 117.882 28.5451 117.882 22.7131C117.882 20.2831 119.853 18.0151 123.741 18.0151C127.224 18.0151 129.87 19.6081 130.275 23.2801H126.171C125.928 21.7951 125.064 21.1741 123.606 21.1741C122.526 21.1741 121.824 21.7141 121.824 22.4971Z" fill="white" fill-opacity="0.75"/>
<path d="M136.484 38.9671H132.353V18.4741H136.484V19.9861C137.375 18.7171 138.617 18.0151 140.129 18.0151C143.882 18.0151 146.231 20.9581 146.231 25.7101C146.231 30.6511 143.828 33.4321 140.129 33.4321C138.59 33.4321 137.348 32.7841 136.484 31.5421V38.9671ZM139.265 21.3631C137.429 21.3631 136.484 22.9021 136.484 25.7101C136.484 28.5181 137.456 30.0841 139.265 30.0841C141.047 30.0841 141.992 28.5451 141.992 25.7101C141.992 22.9021 141.02 21.3631 139.265 21.3631Z" fill="white" fill-opacity="0.75"/>
<path d="M161.56 28.2211C160.804 31.5691 158.104 33.4321 154.54 33.4321C150.031 33.4321 147.25 30.5161 147.25 25.7371C147.25 20.7961 150.058 18.0151 154.378 18.0151C158.725 18.0151 161.452 20.9041 161.452 25.6561V26.5741H151.462C151.678 28.8961 152.758 30.1381 154.54 30.1381C155.89 30.1381 156.808 29.5441 157.24 28.2211H161.56ZM154.378 21.3091C152.839 21.3091 151.867 22.3081 151.543 24.1981H157.186C156.862 22.3081 155.89 21.3091 154.378 21.3091Z" fill="white" fill-opacity="0.75"/>
<path d="M176.866 28.2211C176.11 31.5691 173.41 33.4321 169.846 33.4321C165.337 33.4321 162.556 30.5161 162.556 25.7371C162.556 20.7961 165.364 18.0151 169.684 18.0151C174.031 18.0151 176.758 20.9041 176.758 25.6561V26.5741H166.768C166.984 28.8961 168.064 30.1381 169.846 30.1381C171.196 30.1381 172.114 29.5441 172.546 28.2211H176.866ZM169.684 21.3091C168.145 21.3091 167.173 22.3081 166.849 24.1981H172.492C172.168 22.3081 171.196 21.3091 169.684 21.3091Z" fill="white" fill-opacity="0.75"/>
<path d="M183.938 33.4321C180.212 33.4321 177.863 30.5161 177.863 25.7371C177.863 20.7961 180.266 18.0151 183.938 18.0151C185.477 18.0151 186.719 18.6631 187.61 19.9051V13.5601H191.741V33.0001H187.61V31.4611C186.719 32.7301 185.45 33.4321 183.938 33.4321ZM184.829 30.0841C186.665 30.0841 187.61 28.5721 187.61 25.7371C187.61 22.9291 186.638 21.3631 184.829 21.3631C183.047 21.3631 182.102 22.9021 182.102 25.7371C182.102 28.5451 183.074 30.0841 184.829 30.0841Z" fill="white" fill-opacity="0.75"/>
</svg>
