<svg width="188" height="48" viewBox="0 0 188 48" fill="none" xmlns="http://www.w3.org/2000/svg">
<path d="M24.9706 7.03315C21.8464 3.90895 16.781 3.90895 13.6569 7.03315L2.34315 18.3469C-0.781049 21.4711 -0.781049 26.5364 2.34315 29.6606L13.6569 40.9743C16.781 44.0985 21.8464 44.0985 24.9706 40.9743L30.3688 35.576C25.8749 33.8423 22.6868 29.4816 22.6868 24.3763C22.6868 19.0676 26.134 14.564 30.9122 12.982C30.8187 12.8837 30.7238 12.7864 30.6274 12.69L24.9706 7.03315Z" fill="white" fill-opacity="0.75"/>
<path d="M30.3691 35.5798C31.7089 36.0966 33.1646 36.3799 34.6865 36.3799C41.3139 36.3799 46.6865 31.0073 46.6865 24.3799C46.6865 17.7525 41.3139 12.3799 34.6865 12.3799C33.368 12.3799 32.0992 12.5925 30.9125 12.9854C36.8748 19.2535 36.78 29.169 30.6279 35.321L30.3691 35.5798Z" fill="white" fill-opacity="0.75"/>
<path d="M69.607 33L68.149 28.842H60.616L59.131 33H55L62.29 13.614H66.772L74.008 33H69.607ZM64.423 18.096L61.777 25.575H67.015L64.423 18.096Z" fill="white" fill-opacity="0.75"/>
<path d="M78.7457 33H74.9657V13.614H78.7457V33Z" fill="white" fill-opacity="0.75"/>
<path d="M95.4222 25.791C95.4222 30.057 92.9112 33.27 89.0232 33.27C87.3222 33.27 85.8642 32.541 84.7842 31.137V38.211H81.0312V18.582H84.4872V20.688C85.5942 19.149 87.1872 18.312 89.0232 18.312C92.9112 18.312 95.4222 21.552 95.4222 25.791ZM91.5612 25.791C91.5612 23.091 90.0222 21.633 88.1862 21.633C86.3502 21.633 84.8112 23.064 84.8112 25.791C84.8112 28.518 86.3502 29.922 88.1862 29.922C90.0222 29.922 91.5612 28.545 91.5612 25.791Z" fill="white" fill-opacity="0.75"/>
<path d="M100.5 25.143V33H96.7471V13.614H100.5V20.472C101.499 19.149 102.741 18.312 104.631 18.312C107.52 18.312 109.518 20.202 109.518 23.685V33H105.792V24.954C105.792 22.821 104.955 21.633 103.254 21.633C101.769 21.633 100.5 22.821 100.5 25.143Z" fill="white" fill-opacity="0.75"/>
<path d="M120.258 33V31.218C119.313 32.568 117.882 33.27 115.911 33.27C112.914 33.27 110.916 31.515 110.916 28.815C110.916 26.007 113.184 24.495 117.396 24.495C118.206 24.495 118.908 24.549 119.799 24.657V23.793C119.799 22.173 118.881 21.228 117.315 21.228C115.695 21.228 114.723 22.173 114.588 23.793H111.213C111.429 20.472 113.832 18.312 117.315 18.312C121.095 18.312 123.309 20.391 123.309 23.928V33H120.258ZM114.453 28.707C114.453 29.922 115.317 30.678 116.721 30.678C118.638 30.678 119.799 29.625 119.799 27.951V26.925C118.908 26.79 118.287 26.736 117.639 26.736C115.506 26.736 114.453 27.411 114.453 28.707Z" fill="white" fill-opacity="0.75"/>
<path d="M139.157 33L135.539 19.446L131.921 33H127.763L122.795 13.614H126.791L129.923 26.763L133.487 13.614H137.672L141.128 26.817L144.287 13.614H148.31L143.315 33H139.157Z" fill="white" fill-opacity="0.75"/>
<path d="M156.726 33V31.218C155.781 32.568 154.35 33.27 152.379 33.27C149.382 33.27 147.384 31.515 147.384 28.815C147.384 26.007 149.652 24.495 153.864 24.495C154.674 24.495 155.376 24.549 156.267 24.657V23.793C156.267 22.173 155.349 21.228 153.783 21.228C152.163 21.228 151.191 22.173 151.056 23.793H147.681C147.897 20.472 150.3 18.312 153.783 18.312C157.563 18.312 159.777 20.391 159.777 23.928V33H156.726ZM150.921 28.707C150.921 29.922 151.785 30.678 153.189 30.678C155.106 30.678 156.267 29.625 156.267 27.951V26.925C155.376 26.79 154.755 26.736 154.107 26.736C151.974 26.736 150.921 27.411 150.921 28.707Z" fill="white" fill-opacity="0.75"/>
<path d="M174.417 18.582L169.125 33H165.021L159.702 18.582H163.752L167.181 28.734L170.637 18.582H174.417Z" fill="white" fill-opacity="0.75"/>
<path d="M180.747 33.243C176.427 33.243 173.538 30.246 173.538 25.737C173.538 21.444 176.535 18.312 180.693 18.312C185.256 18.312 188.28 22.011 187.605 26.709H177.372C177.615 29.058 178.749 30.354 180.666 30.354C182.313 30.354 183.42 29.544 183.852 28.113H187.578C186.768 31.38 184.257 33.243 180.747 33.243ZM180.612 21.066C178.857 21.066 177.75 22.2 177.426 24.333H183.636C183.528 22.335 182.394 21.066 180.612 21.066Z" fill="white" fill-opacity="0.75"/>
</svg>
