<svg width="178" height="48" viewBox="0 0 178 48" fill="none" xmlns="http://www.w3.org/2000/svg">
<path fill-rule="evenodd" clip-rule="evenodd" d="M20 38C27.732 38 34 31.732 34 24C34 16.268 27.732 10 20 10C12.268 10 6 16.268 6 24C6 31.732 12.268 38 20 38ZM20 44C31.0457 44 40 35.0457 40 24C40 12.9543 31.0457 4 20 4C8.9543 4 0 12.9543 0 24C0 35.0457 8.9543 44 20 44Z" fill="#12715B"/>
<path d="M66.184 20.4132C66.184 21.4585 65.932 22.4385 65.428 23.3532C64.9427 24.2679 64.168 25.0052 63.104 25.5652C62.0587 26.1252 60.7333 26.4052 59.128 26.4052H55.852V33.9092H51.932V14.3652H59.128C60.64 14.3652 61.928 14.6265 62.992 15.1492C64.056 15.6719 64.8493 16.3905 65.372 17.3052C65.9133 18.2199 66.184 19.2559 66.184 20.4132ZM58.96 23.2412C60.0427 23.2412 60.8453 22.9985 61.368 22.5132C61.8907 22.0092 62.152 21.3092 62.152 20.4132C62.152 18.5092 61.088 17.5572 58.96 17.5572H55.852V23.2412H58.96Z" fill="#101828"/>
<path d="M74.7352 34.1612C73.2418 34.1612 71.8978 33.8345 70.7032 33.1812C69.5085 32.5092 68.5658 31.5665 67.8752 30.3532C67.2032 29.1399 66.8672 27.7399 66.8672 26.1532C66.8672 24.5665 67.2125 23.1665 67.9032 21.9532C68.6125 20.7399 69.5738 19.8065 70.7872 19.1532C72.0005 18.4812 73.3538 18.1452 74.8472 18.1452C76.3405 18.1452 77.6938 18.4812 78.9072 19.1532C80.1205 19.8065 81.0725 20.7399 81.7632 21.9532C82.4725 23.1665 82.8272 24.5665 82.8272 26.1532C82.8272 27.7399 82.4632 29.1399 81.7352 30.3532C81.0258 31.5665 80.0552 32.5092 78.8232 33.1812C77.6098 33.8345 76.2472 34.1612 74.7352 34.1612ZM74.7352 30.7452C75.4445 30.7452 76.1072 30.5772 76.7232 30.2412C77.3578 29.8865 77.8618 29.3639 78.2352 28.6732C78.6085 27.9825 78.7952 27.1425 78.7952 26.1532C78.7952 24.6785 78.4032 23.5492 77.6192 22.7652C76.8538 21.9625 75.9112 21.5612 74.7912 21.5612C73.6712 21.5612 72.7285 21.9625 71.9632 22.7652C71.2165 23.5492 70.8432 24.6785 70.8432 26.1532C70.8432 27.6279 71.2072 28.7665 71.9352 29.5692C72.6818 30.3532 73.6152 30.7452 74.7352 30.7452Z" fill="#101828"/>
<path d="M88.5026 13.1892V33.9092H84.5826V13.1892H88.5026Z" fill="#101828"/>
<path d="M106.096 18.3972L96.4916 41.2452H92.3196L95.6796 33.5172L89.4636 18.3972H93.8596L97.8636 29.2332L101.924 18.3972H106.096Z" fill="#101828"/>
<path d="M126.353 18.1732C128.257 18.1732 129.787 18.7612 130.945 19.9372C132.121 21.0945 132.709 22.7185 132.709 24.8092V33.9092H128.789V25.3412C128.789 24.1279 128.481 23.2039 127.865 22.5692C127.249 21.9159 126.409 21.5892 125.345 21.5892C124.281 21.5892 123.431 21.9159 122.797 22.5692C122.181 23.2039 121.873 24.1279 121.873 25.3412V33.9092H117.953V25.3412C117.953 24.1279 117.645 23.2039 117.029 22.5692C116.413 21.9159 115.573 21.5892 114.509 21.5892C113.426 21.5892 112.567 21.9159 111.933 22.5692C111.317 23.2039 111.009 24.1279 111.009 25.3412V33.9092H107.089V18.3972H111.009V20.2732C111.513 19.6199 112.157 19.1065 112.941 18.7332C113.743 18.3599 114.621 18.1732 115.573 18.1732C116.786 18.1732 117.869 18.4345 118.821 18.9572C119.773 19.4612 120.51 20.1892 121.033 21.1412C121.537 20.2452 122.265 19.5265 123.217 18.9852C124.187 18.4439 125.233 18.1732 126.353 18.1732Z" fill="#101828"/>
<path d="M134.301 26.0972C134.301 24.5292 134.609 23.1385 135.225 21.9252C135.859 20.7119 136.709 19.7785 137.773 19.1252C138.855 18.4719 140.059 18.1452 141.385 18.1452C142.542 18.1452 143.55 18.3785 144.409 18.8452C145.286 19.3119 145.986 19.8999 146.509 20.6092V18.3972H150.457V33.9092H146.509V31.6412C146.005 32.3692 145.305 32.9759 144.409 33.4612C143.531 33.9279 142.514 34.1612 141.357 34.1612C140.05 34.1612 138.855 33.8252 137.773 33.1532C136.709 32.4812 135.859 31.5385 135.225 30.3252C134.609 29.0932 134.301 27.6839 134.301 26.0972ZM146.509 26.1532C146.509 25.2012 146.322 24.3892 145.949 23.7172C145.575 23.0265 145.071 22.5039 144.437 22.1492C143.802 21.7759 143.121 21.5892 142.393 21.5892C141.665 21.5892 140.993 21.7665 140.377 22.1212C139.761 22.4759 139.257 22.9985 138.865 23.6892C138.491 24.3612 138.305 25.1639 138.305 26.0972C138.305 27.0305 138.491 27.8519 138.865 28.5612C139.257 29.2519 139.761 29.7839 140.377 30.1572C141.011 30.5305 141.683 30.7172 142.393 30.7172C143.121 30.7172 143.802 30.5399 144.437 30.1852C145.071 29.8119 145.575 29.2892 145.949 28.6172C146.322 27.9265 146.509 27.1052 146.509 26.1532Z" fill="#101828"/>
<path d="M157.729 21.6172V29.1212C157.729 29.6439 157.85 30.0265 158.093 30.2692C158.354 30.4932 158.784 30.6052 159.381 30.6052H161.201V33.9092H158.737C155.433 33.9092 153.781 32.3039 153.781 29.0932V21.6172H151.933V18.3972H153.781V14.5612H157.729V18.3972H161.201V21.6172H157.729Z" fill="#101828"/>
<path d="M171.637 18.1732C172.813 18.1732 173.858 18.4345 174.773 18.9572C175.687 19.4612 176.397 20.2172 176.901 21.2252C177.423 22.2145 177.685 23.4092 177.685 24.8092V33.9092H173.765V25.3412C173.765 24.1092 173.457 23.1665 172.841 22.5132C172.225 21.8412 171.385 21.5052 170.321 21.5052C169.238 21.5052 168.379 21.8412 167.745 22.5132C167.129 23.1665 166.821 24.1092 166.821 25.3412V33.9092H162.901V13.1892H166.821V20.3292C167.325 19.6572 167.997 19.1345 168.837 18.7612C169.677 18.3692 170.61 18.1732 171.637 18.1732Z" fill="#101828"/>
</svg>
