<svg width="149" height="48" viewBox="0 0 149 48" fill="none" xmlns="http://www.w3.org/2000/svg">
<path fill-rule="evenodd" clip-rule="evenodd" d="M12.0039 5H27V10.7613H21.6989C22.5523 12.3274 23.0372 14.1232 23.0372 16.0323C23.0372 22.1252 18.0979 27.0645 12.0049 27.0645C5.91197 27.0645 0.972656 22.1252 0.972656 16.0323C0.972656 9.93965 5.91142 5.00054 12.0039 5ZM12.0049 21.3032C14.916 21.3032 17.2759 18.9433 17.2759 16.0323C17.2759 13.1212 14.916 10.7613 12.0049 10.7613H12.0039C9.09329 10.7618 6.73395 13.1215 6.73395 16.0323C6.73395 18.9433 9.09384 21.3032 12.0049 21.3032Z" fill="#0F8465"/>
<path opacity="0.7" d="M12.0044 42.9997C9.94896 42.9997 8.08625 42.6152 6.41624 41.846C4.74624 41.1089 3.41344 40.0674 2.41786 38.7214C1.45439 37.3754 0.972656 35.8372 0.972656 34.1066C0.972656 32.7606 1.16535 31.655 1.55074 30.7897C1.93612 29.9244 2.5142 29.0912 3.28498 28.29L8.05414 31.3666C7.73298 31.655 7.49212 31.9915 7.33154 32.3761C7.17096 32.7606 7.09067 33.2413 7.09067 33.8182C7.09067 34.8757 7.52423 35.709 8.39135 36.3179C9.28131 36.9522 10.4858 37.2726 12.0049 37.2792C13.524 37.2726 14.7285 36.9522 15.6185 36.3179C16.4856 35.709 16.9192 34.8757 16.9192 33.8182C16.9192 33.2413 16.8389 32.7606 16.6783 32.3761C16.5177 31.9915 16.2768 31.655 15.9557 31.3666L20.7249 28.29C21.4956 29.0912 22.0737 29.9244 22.4591 30.7897C22.8445 31.655 23.0372 32.7606 23.0372 34.1066C23.0372 35.8372 22.5554 37.3754 21.592 38.7214C20.5964 40.0674 19.2636 41.1089 17.5936 41.846C15.9236 42.6152 14.0598 42.9997 12.0044 42.9997Z" fill="#0F8465"/>
<path fill-rule="evenodd" clip-rule="evenodd" d="M88.538 32.3559C89.546 32.9719 90.694 33.2799 91.982 33.2799C92.9153 33.2799 93.7647 33.0932 94.53 32.7199C94.9328 32.5136 95.2968 32.2737 95.622 32.0002V32.9999H99.822V12.6719H95.538V20.2753C95.2271 20.0304 94.8818 19.8199 94.502 19.6439C93.7553 19.2892 92.9153 19.1119 91.982 19.1119C90.694 19.1119 89.546 19.4199 88.538 20.0359C87.5487 20.6519 86.7647 21.4919 86.186 22.5559C85.626 23.6199 85.346 24.8332 85.346 26.1959C85.346 27.5585 85.626 28.7719 86.186 29.8359C86.7647 30.8999 87.5487 31.7399 88.538 32.3559ZM94.334 29.0239C93.886 29.2852 93.354 29.4159 92.738 29.4159C92.1593 29.4159 91.6367 29.2759 91.17 28.9959C90.7033 28.7159 90.3393 28.3332 90.078 27.8479C89.8167 27.3625 89.686 26.8119 89.686 26.1959C89.686 25.5799 89.8167 25.0292 90.078 24.5439C90.358 24.0585 90.722 23.6759 91.17 23.3959C91.6367 23.1159 92.1687 22.9759 92.766 22.9759C93.3633 22.9759 93.886 23.1159 94.334 23.3959C94.8007 23.6759 95.1553 24.0585 95.398 24.5439C95.6593 25.0105 95.79 25.5612 95.79 26.1959C95.79 26.8305 95.6593 27.3905 95.398 27.8759C95.1367 28.3612 94.782 28.7439 94.334 29.0239Z" fill="#121212"/>
<path d="M39.272 32.5239C40.5413 33.0465 41.8947 33.3079 43.332 33.3079C45.292 33.3079 47.0187 32.8972 48.512 32.0759C50.024 31.2545 51.2 30.0412 52.04 28.4359C52.8987 26.8119 53.328 24.8145 53.328 22.4439V21.7999H42.94V25.5239L48.6192 25.614C48.5103 26.0254 48.3626 26.406 48.176 26.7559C47.7467 27.5772 47.1213 28.2119 46.3 28.6599C45.4973 29.0892 44.5173 29.3039 43.36 29.3039C42.2213 29.3039 41.2133 29.0425 40.336 28.5199C39.4587 27.9972 38.768 27.2692 38.264 26.3359C37.76 25.4025 37.508 24.3199 37.508 23.0879C37.508 21.8559 37.76 20.7825 38.264 19.8679C38.7867 18.9345 39.5053 18.2159 40.42 17.7119C41.3347 17.1892 42.3707 16.9279 43.528 16.9279C44.6107 16.9279 45.5813 17.1332 46.44 17.5439C47.2987 17.9545 48.0453 18.5705 48.68 19.3919L51.676 16.3959C50.7613 15.3132 49.604 14.4639 48.204 13.8479C46.8227 13.2319 45.2827 12.9239 43.584 12.9239C42.1093 12.9239 40.728 13.1852 39.44 13.7079C38.152 14.2119 37.0227 14.9305 36.052 15.8639C35.1 16.7785 34.3533 17.8519 33.812 19.0839C33.2707 20.3159 33 21.6505 33 23.0879C33 24.5252 33.2613 25.8692 33.784 27.1199C34.3253 28.3519 35.0627 29.4345 35.996 30.3679C36.9293 31.2825 38.0213 32.0012 39.272 32.5239Z" fill="#121212"/>
<path fill-rule="evenodd" clip-rule="evenodd" d="M57.7844 32.3839C58.923 32.9999 60.1924 33.3079 61.5924 33.3079C63.011 33.3079 64.2804 32.9999 65.4004 32.3839C66.5204 31.7492 67.407 30.8905 68.0604 29.8079C68.7137 28.7252 69.0404 27.5119 69.0404 26.1679C69.0404 24.8239 68.7137 23.6199 68.0604 22.5559C67.407 21.4732 66.5204 20.6239 65.4004 20.0079C64.2804 19.3919 63.011 19.0839 61.5924 19.0839C60.1737 19.0839 58.9044 19.4012 57.7844 20.0359C56.6644 20.6519 55.7777 21.4919 55.1244 22.5559C54.471 23.6199 54.1444 24.8239 54.1444 26.1679C54.1444 27.5119 54.471 28.7252 55.1244 29.8079C55.7777 30.8905 56.6644 31.7492 57.7844 32.3839ZM63.2164 29.0239C62.7497 29.2852 62.2084 29.4159 61.5924 29.4159C60.995 29.4159 60.463 29.2852 59.9964 29.0239C59.5297 28.7439 59.1657 28.3612 58.9044 27.8759C58.643 27.3719 58.5124 26.8119 58.5124 26.1959C58.5124 25.5612 58.643 25.0012 58.9044 24.5159C59.1657 24.0305 59.5297 23.6572 59.9964 23.3959C60.463 23.1159 60.995 22.9759 61.5924 22.9759C62.2084 22.9759 62.7404 23.1159 63.1884 23.3959C63.655 23.6572 64.019 24.0305 64.2804 24.5159C64.5417 24.9825 64.6724 25.5332 64.6724 26.1679C64.6724 26.8025 64.5417 27.3719 64.2804 27.8759C64.0377 28.3612 63.683 28.7439 63.2164 29.0239Z" fill="#121212"/>
<path fill-rule="evenodd" clip-rule="evenodd" d="M77.1652 33.3079C75.7652 33.3079 74.4959 32.9999 73.3572 32.3839C72.2372 31.7492 71.3505 30.8905 70.6972 29.8079C70.0439 28.7252 69.7172 27.5119 69.7172 26.1679C69.7172 24.8239 70.0439 23.6199 70.6972 22.5559C71.3505 21.4919 72.2372 20.6519 73.3572 20.0359C74.4772 19.4012 75.7465 19.0839 77.1652 19.0839C78.5839 19.0839 79.8532 19.3919 80.9732 20.0079C82.0932 20.6239 82.9799 21.4732 83.6332 22.5559C84.2865 23.6199 84.6132 24.8239 84.6132 26.1679C84.6132 27.5119 84.2865 28.7252 83.6332 29.8079C82.9799 30.8905 82.0932 31.7492 80.9732 32.3839C79.8532 32.9999 78.5839 33.3079 77.1652 33.3079ZM77.1652 29.4159C77.7812 29.4159 78.3225 29.2852 78.7892 29.0239C79.2559 28.7439 79.6105 28.3612 79.8532 27.8759C80.1145 27.3719 80.2452 26.8025 80.2452 26.1679C80.2452 25.5332 80.1145 24.9825 79.8532 24.5159C79.5919 24.0305 79.2279 23.6572 78.7612 23.3959C78.3132 23.1159 77.7812 22.9759 77.1652 22.9759C76.5679 22.9759 76.0359 23.1159 75.5692 23.3959C75.1025 23.6572 74.7385 24.0305 74.4772 24.5159C74.2159 25.0012 74.0852 25.5612 74.0852 26.1959C74.0852 26.8119 74.2159 27.3719 74.4772 27.8759C74.7385 28.3612 75.1025 28.7439 75.5692 29.0239C76.0359 29.2852 76.5679 29.4159 77.1652 29.4159Z" fill="#121212"/>
<path d="M111.766 25.1599L109.082 32.9999H105.61L100.906 19.3919H105.106L107.437 27.3018L110.006 19.3919H113.478L116.062 27.275L118.406 19.3919H122.606L117.902 32.9999H114.402L111.766 25.1599Z" fill="#121212"/>
<path fill-rule="evenodd" clip-rule="evenodd" d="M126.285 32.3839C127.443 32.9999 128.777 33.3079 130.289 33.3079C131.465 33.3079 132.529 33.1119 133.481 32.7199C134.452 32.3092 135.301 31.7025 136.029 30.8999L133.677 28.5479C133.248 29.0332 132.763 29.3972 132.221 29.6399C131.699 29.8639 131.101 29.9759 130.429 29.9759C129.986 29.9759 129.572 29.9196 129.185 29.8071L136.197 23.0319C135.656 21.7625 134.863 20.7919 133.817 20.1199C132.772 19.4292 131.503 19.0839 130.009 19.0839C128.591 19.0839 127.312 19.4012 126.173 20.0359C125.053 20.6519 124.167 21.4919 123.513 22.5559C122.879 23.6199 122.561 24.8239 122.561 26.1679C122.561 27.5119 122.888 28.7252 123.541 29.8079C124.213 30.8905 125.128 31.7492 126.285 32.3839ZM131.833 22.9485L126.848 27.7466C126.641 27.2347 126.537 26.6618 126.537 26.0279C126.537 25.3185 126.677 24.7025 126.957 24.1799C127.237 23.6385 127.639 23.2279 128.161 22.9479C128.684 22.6492 129.309 22.4999 130.037 22.4999C130.777 22.4999 131.375 22.6494 131.833 22.9485Z" fill="#121212"/>
<path d="M137.58 32.9999V12.6719H141.864V32.9999H137.58Z" fill="#121212"/>
<path d="M144.321 12.6719V32.9999H148.605V12.6719H144.321Z" fill="#121212"/>
</svg>
