<svg width="174" height="48" viewBox="0 0 174 48" fill="none" xmlns="http://www.w3.org/2000/svg">
<path fill-rule="evenodd" clip-rule="evenodd" d="M40 24C40 35.0457 31.0457 44 20 44C10.192 44 2.03295 36.94 0.327625 27.6246C0.322485 27.5966 0.317401 27.5685 0.312378 27.5403C0.107119 26.3912 0 25.2081 0 24C0 23.0355 0.0682793 22.0869 0.200267 21.1588C1.44779 12.3868 8.38683 5.44779 17.1588 4.20027C17.1735 4.19817 17.1882 4.1961 17.203 4.19403C18.117 4.06613 19.0508 4 20 4C21.2377 4 22.4491 4.11243 23.6246 4.32763C32.94 6.03295 40 14.192 40 24ZM35 24C35 32.2843 28.2843 39 20 39C13.7572 39 8.40507 35.1863 6.1464 29.7615C7.07421 29.9184 8.02757 30 9 30C18.3888 30 26 22.3888 26 13C26 12.0276 25.9184 11.0742 25.7615 10.1464C31.1863 12.4051 35 17.7572 35 24ZM20.3183 9.00331C20.7598 10.2535 21 11.5987 21 13C21 19.6274 15.6274 25 9 25C7.5987 25 6.25349 24.7598 5.00331 24.3183C5.00111 24.2125 5 24.1064 5 24C5 15.7157 11.7157 9 20 9C20.1064 9 20.2125 9.00111 20.3183 9.00331Z" fill="white" fill-opacity="0.75"/>
<path d="M50 32.9999V11.9999H63.71V15.0899H53.84V20.8499H62.81V23.8499H53.84V29.9099H63.71V32.9999H50Z" fill="white" fill-opacity="0.75"/>
<path d="M72.7437 33.3599C71.2237 33.3599 69.8837 33.0299 68.7237 32.3699C67.5637 31.7099 66.6437 30.7899 65.9637 29.6099C65.3038 28.4299 64.9738 27.0799 64.9738 25.5599C64.9738 24.0399 65.3038 22.6899 65.9637 21.5099C66.6437 20.3299 67.5637 19.4099 68.7237 18.7499C69.8837 18.0899 71.2237 17.7599 72.7437 17.7599C74.6437 17.7599 76.2438 18.2599 77.5438 19.2599C78.8438 20.2399 79.6738 21.5999 80.0338 23.3399H75.9837C75.7837 22.6199 75.3838 22.0599 74.7838 21.6599C74.2038 21.2399 73.5138 21.0299 72.7138 21.0299C71.6538 21.0299 70.7537 21.4299 70.0138 22.2299C69.2738 23.0299 68.9037 24.1399 68.9037 25.5599C68.9037 26.9799 69.2738 28.0899 70.0138 28.8899C70.7537 29.6899 71.6538 30.0899 72.7138 30.0899C73.5138 30.0899 74.2038 29.8899 74.7838 29.4899C75.3838 29.0899 75.7837 28.5199 75.9837 27.7799H80.0338C79.6738 29.4599 78.8438 30.8099 77.5438 31.8299C76.2438 32.8499 74.6437 33.3599 72.7437 33.3599Z" fill="white" fill-opacity="0.75"/>
<path d="M81.642 32.9999V11.3999H85.482V32.9999H81.642Z" fill="white" fill-opacity="0.75"/>
<path d="M89.6757 15.8099C88.9757 15.8099 88.3957 15.5999 87.9357 15.1799C87.4957 14.7599 87.2757 14.2299 87.2757 13.5899C87.2757 12.9499 87.4957 12.4299 87.9357 12.0299C88.3957 11.6099 88.9757 11.3999 89.6757 11.3999C90.3757 11.3999 90.9457 11.6099 91.3857 12.0299C91.8457 12.4299 92.0757 12.9499 92.0757 13.5899C92.0757 14.2299 91.8457 14.7599 91.3857 15.1799C90.9457 15.5999 90.3757 15.8099 89.6757 15.8099ZM87.7557 32.9999V18.1199H91.5957V32.9999H87.7557Z" fill="white" fill-opacity="0.75"/>
<path d="M93.8037 39.5999V18.1199H97.2238L97.6437 20.2499C98.1237 19.5899 98.7537 19.0099 99.5337 18.5099C100.334 18.0099 101.364 17.7599 102.624 17.7599C104.024 17.7599 105.274 18.0999 106.374 18.7799C107.474 19.4599 108.344 20.3899 108.984 21.5699C109.624 22.7499 109.944 24.0899 109.944 25.5899C109.944 27.0899 109.624 28.4299 108.984 29.6099C108.344 30.7699 107.474 31.6899 106.374 32.3699C105.274 33.0299 104.024 33.3599 102.624 33.3599C101.504 33.3599 100.524 33.1499 99.6838 32.7299C98.8438 32.3099 98.1637 31.7199 97.6437 30.9599V39.5999H93.8037ZM101.814 29.9999C103.034 29.9999 104.044 29.5899 104.844 28.7699C105.644 27.9499 106.044 26.8899 106.044 25.5899C106.044 24.2899 105.644 23.2199 104.844 22.3799C104.044 21.5399 103.034 21.1199 101.814 21.1199C100.574 21.1199 99.5537 21.5399 98.7537 22.3799C97.9738 23.1999 97.5837 24.2599 97.5837 25.5599C97.5837 26.8599 97.9738 27.9299 98.7537 28.7699C99.5537 29.5899 100.574 29.9999 101.814 29.9999Z" fill="white" fill-opacity="0.75"/>
<path d="M117.724 33.3599C116.404 33.3599 115.244 33.1499 114.244 32.7299C113.244 32.2899 112.444 31.6899 111.844 30.9299C111.244 30.1699 110.884 29.2899 110.764 28.2899H114.634C114.754 28.8699 115.074 29.3699 115.594 29.7899C116.134 30.1899 116.824 30.3899 117.664 30.3899C118.504 30.3899 119.114 30.2199 119.494 29.8799C119.894 29.5399 120.094 29.1499 120.094 28.7099C120.094 28.0699 119.814 27.6399 119.254 27.4199C118.694 27.1799 117.914 26.9499 116.914 26.7299C116.274 26.5899 115.624 26.4199 114.964 26.2199C114.304 26.0199 113.694 25.7699 113.134 25.4699C112.594 25.1499 112.154 24.7499 111.814 24.2699C111.474 23.7699 111.304 23.1599 111.304 22.4399C111.304 21.1199 111.824 20.0099 112.864 19.1099C113.924 18.2099 115.404 17.7599 117.304 17.7599C119.064 17.7599 120.464 18.1699 121.504 18.9899C122.564 19.8099 123.194 20.9399 123.394 22.3799H119.764C119.544 21.2799 118.714 20.7299 117.274 20.7299C116.554 20.7299 115.994 20.8699 115.594 21.1499C115.214 21.4299 115.024 21.7799 115.024 22.1999C115.024 22.6399 115.314 22.9899 115.894 23.2499C116.474 23.5099 117.244 23.7499 118.204 23.9699C119.244 24.2099 120.194 24.4799 121.054 24.7799C121.934 25.0599 122.634 25.4899 123.154 26.0699C123.674 26.6299 123.934 27.4399 123.934 28.4999C123.954 29.4199 123.714 30.2499 123.214 30.9899C122.714 31.7299 121.994 32.3099 121.054 32.7299C120.114 33.1499 119.004 33.3599 117.724 33.3599Z" fill="white" fill-opacity="0.75"/>
<path d="M132.766 33.3599C131.266 33.3599 129.936 33.0399 128.776 32.3999C127.616 31.7599 126.706 30.8599 126.046 29.6999C125.386 28.5399 125.056 27.1999 125.056 25.6799C125.056 24.1399 125.376 22.7699 126.016 21.5699C126.676 20.3699 127.576 19.4399 128.716 18.7799C129.876 18.0999 131.236 17.7599 132.796 17.7599C134.256 17.7599 135.546 18.0799 136.666 18.7199C137.786 19.3599 138.656 20.2399 139.276 21.3599C139.916 22.4599 140.236 23.6899 140.236 25.0499C140.236 25.2699 140.226 25.4999 140.206 25.7399C140.206 25.9799 140.196 26.2299 140.176 26.4899H128.866C128.946 27.6499 129.346 28.5599 130.066 29.2199C130.806 29.8799 131.696 30.2099 132.736 30.2099C133.516 30.2099 134.166 30.0399 134.686 29.6999C135.226 29.3399 135.626 28.8799 135.886 28.3199H139.786C139.506 29.2599 139.036 30.1199 138.376 30.8999C137.736 31.6599 136.936 32.2599 135.976 32.6999C135.036 33.1399 133.966 33.3599 132.766 33.3599ZM132.796 20.8799C131.856 20.8799 131.026 21.1499 130.306 21.6899C129.586 22.2099 129.126 23.0099 128.926 24.0899H136.336C136.276 23.1099 135.916 22.3299 135.256 21.7499C134.596 21.1699 133.776 20.8799 132.796 20.8799Z" fill="white" fill-opacity="0.75"/>
<path d="M141.065 32.9999L143.105 21.3299H141.065L141.635 18.1199H143.675L143.975 16.3799C144.295 14.5799 144.975 13.2999 146.015 12.5399C147.075 11.7799 148.395 11.3999 149.975 11.3999H151.595L150.995 14.6699H149.975C149.315 14.6699 148.815 14.7999 148.475 15.0599C148.155 15.3199 147.935 15.7599 147.815 16.3799L147.515 18.1199H150.725L150.155 21.3299H146.945L144.905 32.9999H141.065Z" fill="white" fill-opacity="0.75"/>
<path d="M154.965 33.3599C153.405 33.3599 152.205 32.9399 151.365 32.0999C150.525 31.2399 150.105 30.0099 150.105 28.4099C150.105 27.8499 150.165 27.2199 150.285 26.5199L151.785 18.1199H155.595L154.185 26.1599C154.145 26.3999 154.115 26.6299 154.095 26.8499C154.075 27.0499 154.065 27.2399 154.065 27.4199C154.065 29.2199 154.945 30.1199 156.705 30.1199C157.785 30.1199 158.735 29.7499 159.555 29.0099C160.375 28.2499 160.905 27.2199 161.145 25.9199L162.495 18.1199H166.335L163.725 32.9999H160.335L160.455 30.5399C159.835 31.3999 159.055 32.0899 158.115 32.6099C157.175 33.1099 156.125 33.3599 154.965 33.3599Z" fill="white" fill-opacity="0.75"/>
<path d="M165.867 32.9999L169.707 11.3999H173.547L169.707 32.9999H165.867Z" fill="white" fill-opacity="0.75"/>
</svg>
