<svg width="158" height="48" viewBox="0 0 158 48" fill="none" xmlns="http://www.w3.org/2000/svg">
<path d="M32 26C32 31.5228 27.5228 36 22 36C16.4772 36 12 31.5228 12 26H4C4 35.9411 12.0589 44 22 44C31.9411 44 40 35.9411 40 26C40 16.0589 31.9411 8 22 8V16C27.5228 16 32 20.4772 32 26Z" fill="#0F8465"/>
<path opacity="0.5" d="M10 4C10 9.52285 5.52285 14 0 14V22C9.94113 22 18 13.9411 18 4H10Z" fill="#0F8465"/>
<path d="M50 13.83H63.77V17.691H54.725V21.471H63.446V25.305H54.725V29.139H63.986V33H50V13.83Z" fill="#121212"/>
<path d="M65.2531 23.199C65.7931 20.04 68.1691 18.366 72.1651 18.366C76.7551 18.366 79.0231 20.472 79.0231 24.657V28.734C79.0231 29.787 79.4551 29.949 79.9411 29.949H80.4271V33L79.7791 33.054C79.0231 33.081 75.7291 33.594 75.2431 30.84C74.4871 32.379 72.8671 33.324 70.1401 33.324C67.2241 33.324 65.0101 31.758 65.0101 29.22C65.0101 26.655 66.9271 25.575 70.4641 24.873L74.2981 24.09C74.2981 22.119 73.6231 21.201 72.1381 21.201C70.8961 21.201 70.1401 21.93 69.8971 23.388L65.2531 23.199ZM69.7891 29.031C69.7891 29.868 70.4641 30.462 71.7331 30.462C73.2991 30.462 74.3791 29.274 74.3791 26.925V26.79L72.3541 27.168C70.8151 27.438 69.7891 27.762 69.7891 29.031Z" fill="#121212"/>
<path d="M90.1465 23.415C89.9305 22.146 88.9315 21.39 87.8515 21.39C86.7175 21.39 85.9075 21.984 85.9615 22.929C86.0155 23.847 87.0415 24.279 88.3105 24.495C92.8735 25.17 94.8175 26.331 94.8175 29.004C94.8175 31.866 92.1715 33.324 88.2295 33.324C83.7745 33.324 81.0745 31.515 80.8315 28.437L85.5025 28.248C85.7455 29.517 86.6365 30.219 88.0675 30.219C89.0395 30.219 90.0925 29.841 90.0385 28.95C90.0115 27.897 88.8775 27.627 87.5545 27.384C83.1535 26.574 81.1825 25.494 81.1825 22.929C81.1825 20.04 83.6125 18.339 87.9865 18.339C91.8205 18.339 94.3045 20.148 94.7635 23.253L90.1465 23.415Z" fill="#121212"/>
<path d="M94.5076 18.69H98.8276L102.176 28.167L105.362 18.69H109.682L104.12 34.215C103.418 36.186 102.095 37.05 99.8806 37.05H97.0726V33.756H98.9356C99.8536 33.756 100.313 33.513 100.583 32.838L100.88 32.109H99.6376L94.5076 18.69Z" fill="#121212"/>
<path d="M125.686 13.83V17.691H120.016V33H115.318V17.691H109.648V13.83H125.686Z" fill="#121212"/>
<path d="M125.796 23.199C126.336 20.04 128.712 18.366 132.708 18.366C137.298 18.366 139.566 20.472 139.566 24.657V28.734C139.566 29.787 139.998 29.949 140.484 29.949H140.97V33L140.322 33.054C139.566 33.081 136.272 33.594 135.786 30.84C135.03 32.379 133.41 33.324 130.683 33.324C127.767 33.324 125.553 31.758 125.553 29.22C125.553 26.655 127.47 25.575 131.007 24.873L134.841 24.09C134.841 22.119 134.166 21.201 132.681 21.201C131.439 21.201 130.683 21.93 130.44 23.388L125.796 23.199ZM130.332 29.031C130.332 29.868 131.007 30.462 132.276 30.462C133.842 30.462 134.922 29.274 134.922 26.925V26.79L132.897 27.168C131.358 27.438 130.332 27.762 130.332 29.031Z" fill="#121212"/>
<path d="M152.359 18.663H157.381L152.332 25.737L157.516 33H152.494L149.686 28.626L146.851 33H141.829L147.013 25.737L141.964 18.663H146.959L149.686 22.821L152.359 18.663Z" fill="#121212"/>
</svg>
