<svg width="170" height="48" viewBox="0 0 170 48" fill="none" xmlns="http://www.w3.org/2000/svg">
<path d="M0 7.5H28.8C31.3202 7.5 32.5804 7.5 33.543 7.99047C34.3897 8.4219 35.0781 9.11031 35.5095 9.95704C36 10.9196 36 12.1798 36 14.7V16.5H7.2C4.67976 16.5 3.41965 16.5 2.45704 16.0095C1.61031 15.5781 0.921901 14.8897 0.490471 14.043C0 13.0804 0 11.8202 0 9.3V7.5Z" fill="white" fill-opacity="0.75"/>
<path d="M0 28.5H28.8C31.3202 28.5 32.5804 28.5 33.543 28.0095C34.3897 27.5781 35.0781 26.8897 35.5095 26.043C36 25.0804 36 23.8202 36 21.3V19.5H7.2C4.67976 19.5 3.41965 19.5 2.45704 19.9905C1.61031 20.4219 0.921901 21.1103 0.490471 21.957C0 22.9196 0 24.1798 0 26.7V28.5Z" fill="white" fill-opacity="0.75"/>
<path d="M14 31.5H28.8C31.3202 31.5 32.5804 31.5 33.543 31.9905C34.3897 32.4219 35.0781 33.1103 35.5095 33.957C36 34.9196 36 36.1798 36 38.7V40.5H21.2C18.6798 40.5 17.4196 40.5 16.457 40.0095C15.6103 39.5781 14.9219 38.8897 14.4905 38.043C14 37.0804 14 35.8202 14 33.3V31.5Z" fill="white" fill-opacity="0.75"/>
<path d="M46 32.9994V13.3164H55.828C57.106 13.3164 58.258 13.4964 59.284 13.8564C60.31 14.1984 61.129 14.7834 61.741 15.6114C62.353 16.4214 62.659 17.5464 62.659 18.9864C62.659 20.2824 62.326 21.3444 61.66 22.1724C61.012 22.9824 60.13 23.4864 59.014 23.6844V23.9004C61.264 24.0984 62.389 25.3854 62.389 27.7614V32.9994H57.907V28.4094C57.907 27.4554 57.682 26.7984 57.232 26.4384C56.8 26.0604 56.179 25.8714 55.369 25.8714H50.428V32.9994H46ZM54.856 17.0424H50.428V22.3884H54.937C55.945 22.3884 56.692 22.1994 57.178 21.8214C57.664 21.4254 57.907 20.8854 57.907 20.2014V19.3374C57.907 18.5094 57.637 17.9244 57.097 17.5824C56.557 17.2224 55.81 17.0424 54.856 17.0424Z" fill="white" fill-opacity="0.75"/>
<path d="M68.6851 33.2694C67.3531 33.2694 66.2731 32.9184 65.4451 32.2164C64.6171 31.4964 64.2031 30.5424 64.2031 29.3544V29.3004C64.2031 27.9144 64.6441 26.8434 65.5261 26.0874C66.4081 25.3314 67.5961 24.8634 69.0901 24.6834L73.1401 24.1434V23.5764C73.1401 22.2084 72.3121 21.5244 70.6561 21.5244C69.8641 21.5244 69.2341 21.6774 68.7661 21.9834C68.3161 22.2894 68.0911 22.7304 68.0911 23.3064H64.3381C64.3381 21.7044 64.9231 20.4624 66.0931 19.5804C67.2631 18.6804 68.9101 18.2304 71.0341 18.2304C72.9781 18.2304 74.4991 18.6444 75.5971 19.4724C76.7131 20.3004 77.2711 21.6144 77.2711 23.4144V30.0834H79.1611V32.9994H74.1931L73.8691 30.7584H73.5721C73.2121 31.5504 72.6091 32.1714 71.7631 32.6214C70.9351 33.0534 69.9091 33.2694 68.6851 33.2694ZM70.4671 30.2994C71.1871 30.2994 71.7901 30.1284 72.2761 29.7864C72.7801 29.4264 73.0681 28.9674 73.1401 28.4094V26.4654L70.4131 26.8704C69.8011 26.9424 69.3061 27.1044 68.9281 27.3564C68.5501 27.5904 68.3611 27.9504 68.3611 28.4364V28.7874C68.3611 29.2374 68.5411 29.6064 68.9011 29.8944C69.2791 30.1644 69.8011 30.2994 70.4671 30.2994Z" fill="white" fill-opacity="0.75"/>
<path d="M81.0348 32.9994V18.5004H85.1928V32.9994H81.0348ZM81.0348 16.6644V13.3164H85.1928V16.6644H81.0348Z" fill="white" fill-opacity="0.75"/>
<path d="M88.4313 32.9994V13.3164H92.5893V32.9994H88.4313Z" fill="white" fill-opacity="0.75"/>
<path d="M101.147 33.2694C99.0769 33.2694 97.4929 32.8194 96.3949 31.9194C95.3149 31.0194 94.7839 29.8494 94.8019 28.4094H98.7709C98.8069 29.1294 99.0499 29.6424 99.4999 29.9484C99.9679 30.2544 100.562 30.4074 101.282 30.4074C102.002 30.4074 102.515 30.2724 102.821 30.0024C103.145 29.7144 103.307 29.3724 103.307 28.9764C103.307 28.3464 103.082 27.9324 102.632 27.7344C102.182 27.5184 101.48 27.3384 100.526 27.1944C99.6619 27.0684 98.8159 26.8704 97.9879 26.6004C97.1599 26.3304 96.4759 25.9074 95.9359 25.3314C95.4139 24.7374 95.1529 23.9274 95.1529 22.9014C95.1529 21.8934 95.4049 21.0474 95.9089 20.3634C96.4309 19.6614 97.1419 19.1304 98.0419 18.7704C98.9419 18.4104 99.9769 18.2304 101.147 18.2304C102.929 18.2304 104.369 18.6264 105.467 19.4184C106.583 20.2104 107.159 21.3264 107.195 22.7664L103.28 22.7394C103.28 22.1814 103.082 21.7584 102.686 21.4704C102.308 21.1644 101.795 21.0114 101.147 21.0114C100.517 21.0114 100.04 21.1374 99.7159 21.3894C99.3919 21.6414 99.2299 21.9744 99.2299 22.3884C99.2299 22.9644 99.4909 23.3424 100.013 23.5224C100.553 23.7024 101.228 23.8554 102.038 23.9814C102.722 24.0714 103.388 24.1974 104.036 24.3594C104.684 24.5034 105.269 24.7374 105.791 25.0614C106.331 25.3854 106.754 25.8354 107.06 26.4114C107.366 26.9694 107.519 27.7074 107.519 28.6254C107.519 30.0474 106.961 31.1814 105.845 32.0274C104.747 32.8554 103.181 33.2694 101.147 33.2694Z" fill="white" fill-opacity="0.75"/>
<path d="M109.922 37.5084V18.5004H113.864L114.08 20.6334H114.269C114.629 19.8774 115.187 19.2924 115.943 18.8784C116.717 18.4464 117.581 18.2304 118.535 18.2304C120.479 18.2304 121.892 18.8874 122.774 20.2014C123.656 21.5154 124.097 23.2704 124.097 25.4664V26.0874C124.097 28.5894 123.593 30.4164 122.585 31.5684C121.595 32.7024 120.245 33.2694 118.535 33.2694C117.599 33.2694 116.744 33.0624 115.97 32.6484C115.196 32.2164 114.629 31.6224 114.269 30.8664H114.08V37.5084H109.922ZM116.861 29.8944C117.761 29.8944 118.454 29.6424 118.94 29.1384C119.426 28.6344 119.669 27.9234 119.669 27.0054V24.5214C119.669 23.6034 119.426 22.8924 118.94 22.3884C118.454 21.8664 117.761 21.6054 116.861 21.6054C116.015 21.6054 115.34 21.8664 114.836 22.3884C114.35 22.9104 114.107 23.6394 114.107 24.5754V26.9514C114.107 27.8874 114.35 28.6164 114.836 29.1384C115.34 29.6424 116.015 29.8944 116.861 29.8944Z" fill="white" fill-opacity="0.75"/>
<path d="M132.599 33.2694C130.997 33.2694 129.656 32.9634 128.576 32.3514C127.514 31.7214 126.722 30.8484 126.2 29.7324C125.678 28.5984 125.417 27.2844 125.417 25.7904V25.5474C125.417 23.9814 125.705 22.6584 126.281 21.5784C126.857 20.4804 127.658 19.6524 128.684 19.0944C129.728 18.5184 130.925 18.2304 132.275 18.2304C133.751 18.2304 135.002 18.5094 136.028 19.0674C137.072 19.6254 137.864 20.4084 138.404 21.4164C138.944 22.4244 139.214 23.6034 139.214 24.9534V26.7894H129.629V27.5454C129.629 28.3194 129.89 28.9404 130.412 29.4084C130.952 29.8764 131.636 30.1104 132.464 30.1104C133.202 30.1104 133.805 29.9484 134.273 29.6244C134.759 29.3004 135.047 28.8684 135.137 28.3284H139.052C138.998 29.3184 138.692 30.1824 138.134 30.9204C137.576 31.6584 136.82 32.2344 135.866 32.6484C134.912 33.0624 133.823 33.2694 132.599 33.2694ZM129.629 24.0894V24.2244H135.137V24.0894C135.137 23.1174 134.885 22.4154 134.381 21.9834C133.877 21.5334 133.22 21.3084 132.41 21.3084C131.546 21.3084 130.862 21.5514 130.358 22.0374C129.872 22.5054 129.629 23.1894 129.629 24.0894Z" fill="white" fill-opacity="0.75"/>
<path d="M147.721 33.2694C146.119 33.2694 144.778 32.9634 143.698 32.3514C142.636 31.7214 141.844 30.8484 141.322 29.7324C140.8 28.5984 140.539 27.2844 140.539 25.7904V25.5474C140.539 23.9814 140.827 22.6584 141.403 21.5784C141.979 20.4804 142.78 19.6524 143.806 19.0944C144.85 18.5184 146.047 18.2304 147.397 18.2304C148.873 18.2304 150.124 18.5094 151.15 19.0674C152.194 19.6254 152.986 20.4084 153.526 21.4164C154.066 22.4244 154.336 23.6034 154.336 24.9534V26.7894H144.751V27.5454C144.751 28.3194 145.012 28.9404 145.534 29.4084C146.074 29.8764 146.758 30.1104 147.586 30.1104C148.324 30.1104 148.927 29.9484 149.395 29.6244C149.881 29.3004 150.169 28.8684 150.259 28.3284H154.174C154.12 29.3184 153.814 30.1824 153.256 30.9204C152.698 31.6584 151.942 32.2344 150.988 32.6484C150.034 33.0624 148.945 33.2694 147.721 33.2694ZM144.751 24.0894V24.2244H150.259V24.0894C150.259 23.1174 150.007 22.4154 149.503 21.9834C148.999 21.5334 148.342 21.3084 147.532 21.3084C146.668 21.3084 145.984 21.5514 145.48 22.0374C144.994 22.5054 144.751 23.1894 144.751 24.0894Z" fill="white" fill-opacity="0.75"/>
<path d="M161.223 33.2694C159.279 33.2694 157.866 32.6124 156.984 31.2984C156.102 29.9844 155.661 28.2294 155.661 26.0334V25.4394C155.661 22.9194 156.156 21.0924 157.146 19.9584C158.154 18.8064 159.504 18.2304 161.196 18.2304C162.15 18.2304 163.005 18.4464 163.761 18.8784C164.535 19.2924 165.102 19.8774 165.462 20.6334H165.651V13.3164H169.809V32.9994H165.867L165.651 30.8664H165.462C165.102 31.6224 164.544 32.2164 163.788 32.6484C163.032 33.0624 162.177 33.2694 161.223 33.2694ZM162.87 29.8944C163.716 29.8944 164.391 29.6334 164.895 29.1114C165.399 28.5894 165.651 27.8604 165.651 26.9244V24.5484C165.651 23.6304 165.399 22.9104 164.895 22.3884C164.391 21.8664 163.716 21.6054 162.87 21.6054C161.988 21.6054 161.304 21.8574 160.818 22.3614C160.332 22.8654 160.089 23.5764 160.089 24.4944V27.0054C160.089 27.9054 160.332 28.6164 160.818 29.1384C161.304 29.6424 161.988 29.8944 162.87 29.8944Z" fill="white" fill-opacity="0.75"/>
</svg>
