<svg width="49" height="24" viewBox="0 0 49 24" fill="none" xmlns="http://www.w3.org/2000/svg">
<path d="M47.7317 20.2076C43.1765 21.8294 38.2126 22.4461 33.3283 22.0929C30.8861 21.9164 28.4502 21.4798 26.0672 20.815C23.5135 20.0999 20.9659 19.1248 18.6871 17.7051C16.4549 16.3171 14.5067 14.4619 13.5934 11.9901C12.8459 10.0275 12.91 7.72583 14.148 6.05836C15.2324 4.61657 17.2412 3.57313 19.1352 4.10313C19.9658 4.33841 21.0702 5.02444 20.8357 6.02095C20.5785 7.10106 19.4514 7.85307 18.4928 8.25734C16.0883 9.22955 13.4332 8.41246 11.1333 7.37479C8.36716 6.11871 5.8156 4.44719 3.5179 2.45304C2.95714 1.97207 2.42711 1.44596 1.89709 0.919854C1.63976 0.645516 1.20541 0.580961 0.912256 0.810762C0.657812 1.03389 0.575304 1.50624 0.832633 1.78058C3.17135 4.16602 5.88005 6.20883 8.84945 7.76848C11.4613 9.15075 14.4523 10.4278 17.4409 9.95247C18.7417 9.74816 20.0868 9.17767 21.0192 8.26004C21.9823 7.29727 22.7177 5.81604 21.9041 4.50223C20.5349 2.24845 17.3419 2.22123 15.3023 3.30981C13.1158 4.46354 11.7879 6.66439 11.7169 9.12661C11.6545 11.7268 12.8086 14.2965 14.6099 16.2169C16.7778 18.5521 19.6926 20.0415 22.6283 21.1488C25.1679 22.0854 27.8145 22.7646 30.5213 23.1544C35.8423 23.9701 41.3425 23.6195 46.4407 22.1033C47.0828 21.9129 47.7403 21.7 48.3591 21.4937C48.7149 21.3726 48.8361 20.8936 48.6716 20.5834C48.4911 20.1962 48.0875 20.0865 47.7317 20.2076Z" fill="#999999"/>
</svg>
