<svg width="27" height="48" viewBox="0 0 27 48" fill="none" xmlns="http://www.w3.org/2000/svg">
<path fill-rule="evenodd" clip-rule="evenodd" d="M12.0039 5H27V10.7613H21.6989C22.5523 12.3274 23.0372 14.1232 23.0372 16.0323C23.0372 22.1252 18.0979 27.0645 12.0049 27.0645C5.91197 27.0645 0.972656 22.1252 0.972656 16.0323C0.972656 9.93965 5.91142 5.00054 12.0039 5ZM12.0049 21.3032C14.916 21.3032 17.2759 18.9433 17.2759 16.0323C17.2759 13.1212 14.916 10.7613 12.0049 10.7613H12.0039C9.09329 10.7618 6.73395 13.1215 6.73395 16.0323C6.73395 18.9433 9.09384 21.3032 12.0049 21.3032Z" fill="#FFD405"/>
<path opacity="0.7" d="M12.0044 42.9997C9.94896 42.9997 8.08625 42.6152 6.41624 41.846C4.74624 41.1089 3.41344 40.0674 2.41786 38.7214C1.45439 37.3754 0.972656 35.8372 0.972656 34.1066C0.972656 32.7606 1.16535 31.655 1.55074 30.7897C1.93612 29.9244 2.5142 29.0912 3.28498 28.29L8.05414 31.3666C7.73298 31.655 7.49212 31.9915 7.33154 32.3761C7.17096 32.7606 7.09067 33.2413 7.09067 33.8182C7.09067 34.8757 7.52423 35.709 8.39135 36.3179C9.28131 36.9522 10.4858 37.2726 12.0049 37.2792C13.524 37.2726 14.7285 36.9522 15.6185 36.3179C16.4856 35.709 16.9192 34.8757 16.9192 33.8182C16.9192 33.2413 16.8389 32.7606 16.6783 32.3761C16.5177 31.9915 16.2768 31.655 15.9557 31.3666L20.7249 28.29C21.4956 29.0912 22.0737 29.9244 22.4591 30.7897C22.8445 31.655 23.0372 32.7606 23.0372 34.1066C23.0372 35.8372 22.5554 37.3754 21.592 38.7214C20.5964 40.0674 19.2636 41.1089 17.5936 41.846C15.9236 42.6152 14.0598 42.9997 12.0044 42.9997Z" fill="#FFD405"/>
</svg>
