<svg width="333" height="300" viewBox="0 0 333 300" fill="none" xmlns="http://www.w3.org/2000/svg">
<path d="M331.999 11.9999C332.248 10.5602 332.178 9.08355 331.794 7.67385C331.41 6.26416 330.722 4.95565 329.779 3.84036C328.835 2.72508 327.658 1.83012 326.332 1.21845C325.005 0.60677 323.56 0.293232 322.099 0.29989H10.4993C9.02992 0.278474 7.57391 0.58115 6.23484 1.18639C4.89577 1.79163 3.70655 2.68455 2.75178 3.80162C1.79702 4.91869 1.10019 6.23246 0.710861 7.64945C0.321535 9.06643 0.249289 10.5518 0.499259 11.9999L45.9993 291C46.38 293.349 47.586 295.485 49.4007 297.025C51.2153 298.565 53.5195 299.407 55.8993 299.4H276.899C281.899 299.4 286.099 295.9 286.899 291L331.999 11.9999ZM200.999 198.8H131.699L112.999 100.8H217.799L200.999 198.8Z" fill="#2684FF"/>
<path d="M317.549 101.278H217.949L201.431 198.79H132.16V299.499H276.882C282.211 299.499 285.941 295.769 286.474 290.973L317.379 101.278H317.549Z" fill="black" fill-opacity="0.14"/>
</svg>
