<svg width="351" height="373" viewBox="0 0 351 373" fill="none" xmlns="http://www.w3.org/2000/svg">
<path d="M337 236L331 219C331 219 356 181 294 168C294 168 298 121 276 99C324 52 313 -19 204 27C148 -80 -67.9998 171 22.0002 211C13.0002 223 13.0002 283 75.0002 289C117 379 219 385 278 358C337 331 371 245 337 236ZM74.0002 276C23.0002 271 18.0002 201 62.0002 194C106 187 117 280 74.0002 276ZM59.0002 181C45.0002 181 28.0002 200 28.0002 200C-39.9998 167 151 -52 192 33C192 33 92.0002 81 59.0002 181ZM259 266C259 262 238 272 200 259C203 238 248 277 323 226L329 247C357 242 329 337 239 336C166 335 143 260 183 219C191 211 154 195 161 160C164 145 177 123 210 129C243 135 250 105 272 116C294 127 281 169 284 175C287 181 319 182 325 199C331 216 284 253 211 243C194 241 184 263 195 277C217 309 307 288 322 257C284 286 206 297 200 266C222 276 259 270 259 266ZM128 108C150 81 179 65 179 65L173 80C173 80 194 64 217 64L209 72C235 73 246 83 246 83C246 83 185 65 128 108ZM263 147C276 146 272 176 272 176H264C264 176 250 148 263 147ZM204 180C195 181 185 186 186 182C190 166 227 170 226 184C225 198 217 178 204 180ZM225 192C226 194 218 192 212 193C206 194 200 197 200 195C200 193 223 184 225 192ZM245 195C248 189 260 195 257 201C254 207 242 201 245 195ZM270 197C264 197 264 184 270 184C276 184 276 198 270 198V197ZM90.0002 250C93.0002 253 84.0002 259 77.0002 254C70.0002 249 85.0002 225 67.0002 219C49.0002 213 54.0002 236 49.0002 233C44.0002 230 56.0002 198 77.0002 211C98.0002 224 71.0002 244 83.0002 250C95.0002 256 88.0002 248 90.0002 250Z" fill="#F7BC0C"/>
</svg>
