<svg width="57" height="50" viewBox="0 0 57 50" fill="none" xmlns="http://www.w3.org/2000/svg">
<path d="M51.4123 0H37.2296C34.2933 0 31.9111 2.39955 31.9111 5.35714V19.6429C31.9111 22.6004 34.2933 25 37.2296 25H46.0937V32.1429C46.0937 36.0826 42.9137 39.2857 39.0024 39.2857H38.116C36.6423 39.2857 35.4567 40.4799 35.4567 41.9643V47.3214C35.4567 48.8058 36.6423 50 38.116 50H39.0024C48.7973 50 56.7308 42.0089 56.7308 32.1429V5.35714C56.7308 2.39955 54.3485 0 51.4123 0ZM19.5012 0H5.31851C2.38225 0 0 2.39955 0 5.35714V19.6429C0 22.6004 2.38225 25 5.31851 25H14.1827V32.1429C14.1827 36.0826 11.0027 39.2857 7.09135 39.2857H6.20493C4.73126 39.2857 3.54567 40.4799 3.54567 41.9643V47.3214C3.54567 48.8058 4.73126 50 6.20493 50H7.09135C16.8863 50 24.8197 42.0089 24.8197 32.1429V5.35714C24.8197 2.39955 22.4375 0 19.5012 0Z" fill="#F7F8FC"/>
</svg>
