<svg width="59" height="52" viewBox="0 0 59 52" fill="none" xmlns="http://www.w3.org/2000/svg">
<path d="M53.4688 0H38.7188C35.665 0 33.1875 2.49554 33.1875 5.57143V20.4286C33.1875 23.5045 35.665 26 38.7188 26H47.9375V33.4286C47.9375 37.5259 44.6303 40.8571 40.5625 40.8571H39.6406C38.108 40.8571 36.875 42.0991 36.875 43.6429V49.2143C36.875 50.758 38.108 52 39.6406 52H40.5625C50.7492 52 59 43.6893 59 33.4286V5.57143C59 2.49554 56.5225 0 53.4688 0ZM20.2812 0H5.53125C2.47754 0 0 2.49554 0 5.57143V20.4286C0 23.5045 2.47754 26 5.53125 26H14.75V33.4286C14.75 37.5259 11.4428 40.8571 7.375 40.8571H6.45312C4.92051 40.8571 3.6875 42.0991 3.6875 43.6429V49.2143C3.6875 50.758 4.92051 52 6.45312 52H7.375C17.5617 52 25.8125 43.6893 25.8125 33.4286V5.57143C25.8125 2.49554 23.335 0 20.2812 0Z" fill="white"/>
</svg>
