<svg width="37" height="48" viewBox="0 0 37 48" fill="none" xmlns="http://www.w3.org/2000/svg">
<path d="M0.5 7.5H29.3C31.8202 7.5 33.0804 7.5 34.043 7.99047C34.8897 8.4219 35.5781 9.11031 36.0095 9.95704C36.5 10.9196 36.5 12.1798 36.5 14.7V16.5H7.7C5.17976 16.5 3.91965 16.5 2.95704 16.0095C2.11031 15.5781 1.4219 14.8897 0.990471 14.043C0.5 13.0804 0.5 11.8202 0.5 9.3V7.5Z" fill="#121212"/>
<path d="M0.5 28.5H29.3C31.8202 28.5 33.0804 28.5 34.043 28.0095C34.8897 27.5781 35.5781 26.8897 36.0095 26.043C36.5 25.0804 36.5 23.8202 36.5 21.3V19.5H7.7C5.17976 19.5 3.91965 19.5 2.95704 19.9905C2.11031 20.4219 1.4219 21.1103 0.990471 21.957C0.5 22.9196 0.5 24.1798 0.5 26.7V28.5Z" fill="#121212"/>
<path d="M14.5 31.5H29.3C31.8202 31.5 33.0804 31.5 34.043 31.9905C34.8897 32.4219 35.5781 33.1103 36.0095 33.957C36.5 34.9196 36.5 36.1798 36.5 38.7V40.5H21.7C19.1798 40.5 17.9196 40.5 16.957 40.0095C16.1103 39.5781 15.4219 38.8897 14.9905 38.043C14.5 37.0804 14.5 35.8202 14.5 33.3V31.5Z" fill="#121212"/>
</svg>
