<svg width="48" height="48" viewBox="0 0 48 48" fill="none" xmlns="http://www.w3.org/2000/svg">
<path d="M25.4706 7.03315C22.3464 3.90895 17.281 3.90895 14.1569 7.03315L2.84315 18.3469C-0.281049 21.4711 -0.281049 26.5364 2.84315 29.6606L14.1569 40.9743C17.281 44.0985 22.3464 44.0985 25.4706 40.9743L30.8688 35.576C26.3749 33.8423 23.1868 29.4816 23.1868 24.3763C23.1868 19.0676 26.634 14.564 31.4122 12.982C31.3187 12.8837 31.2238 12.7864 31.1274 12.69L25.4706 7.03315Z" fill="#121212"/>
<path d="M30.8691 35.5798C32.2089 36.0966 33.6646 36.3799 35.1865 36.3799C41.8139 36.3799 47.1865 31.0073 47.1865 24.3799C47.1865 17.7525 41.8139 12.3799 35.1865 12.3799C33.868 12.3799 32.5992 12.5925 31.4125 12.9854C37.3748 19.2535 37.28 29.169 31.1279 35.321L30.8691 35.5798Z" fill="#121212"/>
</svg>
