<svg width="41" height="48" viewBox="0 0 41 48" fill="none" xmlns="http://www.w3.org/2000/svg">
<path fill-rule="evenodd" clip-rule="evenodd" d="M25.8551 7.71664C24.1703 7.16286 22.3701 6.86328 20.5 6.86328C18.63 6.86328 16.83 7.16282 15.1452 7.71654C16.8639 8.00557 18.6748 8.58863 20.5008 9.44641C22.3263 8.5888 24.1368 8.00578 25.8551 7.71664ZM34.5581 9.7743C30.9456 6.20415 25.9802 4 20.5 4C9.4543 4 0.5 12.9543 0.5 24C0.5 35.0457 9.4543 44 20.5 44C25.9753 44 30.9367 41.7998 34.5483 38.2353C34.58 38.2048 34.6114 38.1739 34.6426 38.1427C34.6738 38.1116 34.7046 38.0802 34.7351 38.0486C38.2997 34.4369 40.5 29.4754 40.5 24C40.5 18.5212 38.297 13.557 34.7285 9.9448C34.7005 9.91577 34.6721 9.88695 34.6435 9.85833C34.6152 9.83005 34.5867 9.80204 34.5581 9.7743ZM36.7848 18.6492C36.4955 20.3668 35.9125 22.1766 35.0552 24.0015C35.9122 25.826 36.4949 27.6356 36.7841 29.353C37.3374 27.6688 37.6367 25.8693 37.6367 24C37.6367 22.1315 37.3376 20.3328 36.7848 18.6492ZM33.1808 20.6567C33.3411 20.1878 33.4779 19.7259 33.5911 19.2731C34.4788 15.7221 33.8274 13.2849 32.5222 11.9796C31.2169 10.6744 28.7797 10.023 25.2287 10.9107C24.776 11.0239 24.3142 11.1607 23.8454 11.3209C25.613 12.4758 27.3503 13.8798 28.9857 15.5153C30.6215 17.1511 32.0258 18.8887 33.1808 20.6567ZM20.5008 12.8103C22.6432 13.9827 24.8241 15.5963 26.8644 17.6366C28.9051 19.6773 30.5189 21.8585 31.6914 24.0013C30.519 26.1436 28.9054 28.3243 26.8653 30.3644C24.8247 32.405 22.6435 34.0188 20.5008 35.1913C18.3581 34.0188 16.177 32.4051 14.1365 30.3646C12.0963 28.3244 10.4828 26.1437 9.31035 24.0013C10.4829 21.8585 12.0967 19.6772 14.1374 17.6365C16.1776 15.5963 18.3584 13.9827 20.5008 12.8103ZM17.1562 11.321C16.6875 11.1608 16.2257 11.024 15.7731 10.9108C12.2221 10.0231 9.78492 10.6745 8.47965 11.9798C7.17438 13.2851 6.52296 15.7223 7.4107 19.2732C7.5239 19.726 7.66071 20.1879 7.82095 20.6567C8.97592 18.8886 10.3802 17.151 12.0161 15.5152C13.6515 13.8798 15.3886 12.4758 17.1562 11.321ZM5.94654 24.0015C5.08864 22.1754 4.5055 20.3643 4.21643 18.6456C3.66278 20.3302 3.36328 22.1301 3.36328 24C3.36328 25.8707 3.66304 27.6713 4.21713 29.3566C4.50604 27.6381 5.08895 25.8273 5.94654 24.0015ZM15.1477 40.2843C16.8317 40.8375 18.6309 41.1367 20.5 41.1367C22.3692 41.1367 24.1685 40.8374 25.8526 40.2842C24.1351 39.995 22.3255 39.4122 20.5008 38.5551C18.6756 39.4124 16.8656 39.9952 15.1477 40.2843ZM17.1559 36.6805C15.3881 35.5256 13.6508 34.1215 12.0152 32.4859C10.3799 30.8506 8.97598 29.1136 7.82123 27.3462C7.66125 27.8144 7.52464 28.2757 7.41159 28.7279C6.52385 32.2788 7.17526 34.716 8.48053 36.0213C9.7858 37.3265 12.223 37.978 15.774 37.0902C16.2262 36.9771 16.6876 36.8405 17.1559 36.6805ZM23.8456 36.6805C24.314 36.8406 24.7755 36.9773 25.2279 37.0904C28.7788 37.9781 31.216 37.3267 32.5213 36.0214C33.8265 34.7162 34.478 32.279 33.5902 28.728C33.4772 28.2757 33.3405 27.8144 33.1805 27.3461C32.0258 29.1135 30.6219 30.8505 28.9866 32.4857C27.351 34.1214 25.6135 35.5256 23.8456 36.6805Z" fill="#121212"/>
</svg>
