<svg width="81" height="81" viewBox="0 0 81 81" fill="none" xmlns="http://www.w3.org/2000/svg">
<path d="M40.5 5.26562C21.1953 5.26562 5.5 20.9609 5.5 40.2656C5.5 59.5703 21.1953 75.2656 40.5 75.2656C59.8047 75.2656 75.5 59.5703 75.5 40.2656C75.5 20.9609 59.8047 5.26562 40.5 5.26562Z" fill="url(#paint0_radial_2480_4837)"/>
<path d="M51.8009 40.1184C46.996 40.1184 43.1015 44.0687 43.1015 48.9417C43.1015 53.8151 46.996 57.7656 51.8009 57.7656C56.6052 57.7656 60.5 53.8151 60.5 48.9417C60.5 44.0687 56.6052 40.1184 51.8009 40.1184ZM29.1993 40.119C24.3949 40.119 20.5 44.0686 20.5 48.9422C20.5 53.8151 24.3949 57.7656 29.1993 57.7656C34.0039 57.7656 37.899 53.8151 37.899 48.9422C37.899 44.0686 34.0039 40.119 29.1993 40.119ZM49.199 29.0889C49.199 33.962 45.3046 37.9131 40.5002 37.9131C35.6954 37.9131 31.8008 33.962 31.8008 29.0889C31.8008 24.2162 35.6954 20.2656 40.5002 20.2656C45.3046 20.2656 49.199 24.2162 49.199 29.0889Z" fill="white"/>
<defs>
<radialGradient id="paint0_radial_2480_4837" cx="0" cy="0" r="1" gradientUnits="userSpaceOnUse" gradientTransform="translate(40.5 43.5222) scale(46.3843)">
<stop stop-color="#FFB900"/>
<stop offset="0.6" stop-color="#F95D8F"/>
<stop offset="0.9991" stop-color="#F95353"/>
</radialGradient>
</defs>
</svg>
