<svg width="81" height="81" viewBox="0 0 81 81" fill="none" xmlns="http://www.w3.org/2000/svg">
<path fill-rule="evenodd" clip-rule="evenodd" d="M28.2964 35.4755C27.9338 35.0008 27.3497 34.7502 26.7562 34.8147C26.1626 34.8792 25.6459 35.2495 25.3937 35.7911L10.6856 65.219C10.4131 65.7643 10.4423 66.4119 10.7625 66.9305C11.0828 67.4491 11.6486 67.7648 12.2578 67.7649H32.7382C33.4083 67.7804 34.0247 67.3992 34.3104 66.7923C38.7283 57.6568 36.0509 43.7664 28.2964 35.4755Z" fill="url(#paint0_linear_2480_4832)"/>
<path fill-rule="evenodd" clip-rule="evenodd" d="M39.0842 8.70968C31.6284 20.1898 30.7679 34.7516 36.8196 47.0311L46.6934 66.7926C46.9911 67.3886 47.5998 67.7651 48.2656 67.7652H68.7423C69.3515 67.7651 69.9173 67.4494 70.2376 66.9308C70.5578 66.4122 70.587 65.7646 70.3145 65.2193C70.3145 65.2193 42.7665 10.0778 42.0742 8.69864C41.7948 8.12577 41.2127 7.76328 40.5757 7.76564C39.9387 7.76799 39.3593 8.13476 39.0842 8.70968Z" fill="#2684FF"/>
<defs>
<linearGradient id="paint0_linear_2480_4832" x1="36.357" y1="40.017" x2="15.727" y2="62.1625" gradientUnits="userSpaceOnUse">
<stop stop-color="#0052CC"/>
<stop offset="0.923" stop-color="#2684FF"/>
</linearGradient>
</defs>
</svg>
