<svg width="80" height="80" viewBox="0 0 80 80" fill="none" xmlns="http://www.w3.org/2000/svg">
<path fill-rule="evenodd" clip-rule="evenodd" d="M12.1758 55.8036C11.5552 56.8568 10.8583 58.0789 10.2664 59.0526C9.73662 59.9843 10.021 61.186 10.9061 61.755L23.3169 69.7034C23.7526 69.9833 24.278 70.0695 24.7752 69.9424C25.2725 69.8154 25.6998 69.4859 25.9614 69.0278C26.4578 68.1634 27.0975 67.0407 27.7944 65.8385C32.711 57.3933 37.6563 58.4266 46.573 62.8579L58.8788 68.9483C59.3449 69.1792 59.8809 69.2038 60.3648 69.0167C60.8486 68.8295 61.239 68.4464 61.4469 67.9548L67.3564 54.045C67.7739 53.0516 67.3491 51.8932 66.4017 51.4419C63.805 50.1702 58.6402 47.6366 53.9909 45.3018C37.2648 36.8467 23.0496 37.3931 12.1758 55.8036Z" fill="url(#paint0_linear_1334_2766)"/>
<path fill-rule="evenodd" clip-rule="evenodd" d="M67.8241 24.2388C68.4447 23.1856 69.1416 21.9635 69.7335 20.9899C70.2633 20.0581 69.9789 18.8564 69.0938 18.2874L56.683 10.339C56.2438 10.0311 55.7014 9.92691 55.1856 10.0512C54.6697 10.1756 54.2266 10.5173 53.9621 10.9947C53.4657 11.8591 52.8261 12.9818 52.1291 14.184C47.2125 22.6292 42.2673 21.5959 33.3505 17.1647L21.0829 11.104C20.6168 10.8732 20.0808 10.8485 19.597 11.0357C19.1131 11.2229 18.7227 11.6059 18.5148 12.0976L12.6053 26.0073C12.1878 27.0007 12.6126 28.1591 13.56 28.6104C16.1567 29.8821 21.3215 32.4157 25.9708 34.7505C42.7351 43.1957 56.9503 42.6294 67.8241 24.2388Z" fill="url(#paint1_linear_1334_2766)"/>
<defs>
<linearGradient id="paint0_linear_1334_2766" x1="67.0223" y1="73.8068" x2="52.1664" y2="41.0586" gradientUnits="userSpaceOnUse">
<stop offset="0.18" stop-color="#0052CC"/>
<stop offset="1" stop-color="#2684FF"/>
</linearGradient>
<linearGradient id="paint1_linear_1334_2766" x1="12.9776" y1="6.22568" x2="27.8568" y2="38.9889" gradientUnits="userSpaceOnUse">
<stop offset="0.18" stop-color="#0052CC"/>
<stop offset="1" stop-color="#2684FF"/>
</linearGradient>
</defs>
</svg>
