<svg width="80" height="80" viewBox="0 0 80 80" fill="none" xmlns="http://www.w3.org/2000/svg">
<g filter="url(#filter0_d_1334_2769)">
<path d="M5 29.8889C5 21.177 5 16.821 6.69545 13.4935C8.18682 10.5665 10.5665 8.18682 13.4935 6.69545C16.821 5 21.177 5 29.8889 5H50.1111C58.823 5 63.179 5 66.5065 6.69545C69.4335 8.18682 71.8132 10.5665 73.3045 13.4935C75 16.821 75 21.177 75 29.8889V50.1111C75 58.823 75 63.179 73.3045 66.5065C71.8132 69.4335 69.4335 71.8132 66.5065 73.3045C63.179 75 58.823 75 50.1111 75H29.8889C21.177 75 16.821 75 13.4935 73.3045C10.5665 71.8132 8.18682 69.4335 6.69545 66.5065C5 63.179 5 58.823 5 50.1111V29.8889Z" fill="white"/>
<path d="M61.2313 15H53.103V26.7781H64.9967V18.3211C64.9999 18.3211 64.409 15.3212 61.2313 15Z" fill="#1967D2"/>
<path d="M53.1064 64.9452V64.9741V64.9998L65.0001 53.2217H64.8936L53.1064 64.9452Z" fill="#1967D2"/>
<path d="M64.9992 53.2218V53.1162L64.8936 53.2218H64.9992Z" fill="#FBBC05"/>
<path d="M65.0001 26.7783H53.1064V53.1161H65.0001V26.7783Z" fill="#FBBC05"/>
<path d="M64.8936 53.2217H53.1064V64.9452L64.8936 53.2217Z" fill="#EA4335"/>
<path d="M53.1064 53.2218H64.8936L65.0001 53.1162H53.1064V53.2218Z" fill="#EA4335"/>
<path d="M53.0771 64.9741H53.1059V64.9453L53.0771 64.9741Z" fill="#34A853"/>
<path d="M26.6255 53.1162V64.9746H53.0771L53.1061 53.1162H26.6255Z" fill="#34A853"/>
<path d="M53.1059 53.2222V53.1162L53.0771 64.9746L53.1059 64.9457V53.2222Z" fill="#34A853"/>
<path d="M15 53.1162V61.3612C15.1066 64.0367 18.0001 64.9746 18.0001 64.9746H26.6257V53.1162H15Z" fill="#188038"/>
<path d="M26.6257 26.7781H53.1063V15H18.3359C18.3359 15 15.2131 15.3212 15 18.6391V53.1159H26.6257V26.7781Z" fill="#4285F4"/>
<path d="M35.2888 47.7852C34.6829 47.7852 34.0988 47.7063 33.5362 47.5485C32.9881 47.3907 32.4832 47.1539 32.0216 46.8383C31.5601 46.5083 31.149 46.0995 30.7883 45.6117C30.4422 45.1239 30.1753 44.5572 29.9878 43.9116L32.6491 42.8571C32.8366 43.5745 33.154 44.1196 33.6011 44.4926C34.0483 44.8513 34.6108 45.0306 35.2888 45.0306C35.5917 45.0306 35.8802 44.9876 36.1542 44.9015C36.4283 44.8011 36.6663 44.6648 36.8682 44.4926C37.0702 44.3205 37.2289 44.1196 37.3442 43.8901C37.4741 43.6462 37.539 43.3736 37.539 43.0723C37.539 42.4411 37.301 41.9461 36.825 41.5875C36.3634 41.2288 35.7215 41.0495 34.8993 41.0495H33.6227V38.4886H34.7911C35.0796 38.4886 35.3609 38.4527 35.635 38.381C35.909 38.3093 36.147 38.2017 36.349 38.0582C36.5653 37.9004 36.7312 37.7067 36.8466 37.4772C36.9764 37.2333 37.0413 36.9535 37.0413 36.6379C37.0413 36.1501 36.8682 35.7556 36.5221 35.4543C36.1759 35.1387 35.7071 34.9809 35.1157 34.9809C34.481 34.9809 33.9906 35.153 33.6444 35.4973C33.3126 35.8273 33.0818 36.2003 32.952 36.6164L30.3556 35.5619C30.4854 35.2032 30.6802 34.8374 30.9398 34.4644C31.1994 34.077 31.524 33.7327 31.9135 33.4314C32.3173 33.1158 32.7861 32.8647 33.3198 32.6782C33.8535 32.4774 34.4666 32.377 35.1589 32.377C35.8657 32.377 36.5076 32.4774 37.0846 32.6782C37.676 32.8791 38.1809 33.1588 38.5992 33.5175C39.0175 33.8618 39.342 34.2779 39.5728 34.7657C39.8036 35.2391 39.919 35.7556 39.919 36.3151C39.919 36.7455 39.8613 37.1328 39.7459 37.4772C39.6449 37.8215 39.5079 38.1299 39.3348 38.4025C39.1617 38.6751 38.9598 38.9118 38.729 39.1127C38.5126 39.2992 38.289 39.4498 38.0583 39.5646V39.7368C38.7506 40.0093 39.3204 40.4469 39.7676 41.0495C40.2291 41.652 40.4599 42.4124 40.4599 43.3306C40.4599 43.9762 40.3373 44.5716 40.0921 45.1167C39.8469 45.6475 39.4935 46.1138 39.0319 46.5155C38.5847 46.9172 38.0438 47.2257 37.4092 47.4409C36.7745 47.6704 36.0677 47.7852 35.2888 47.7852Z" fill="#4285F4"/>
<path d="M45.6269 47.4409V36.0353L43.0088 37.1328L41.9703 34.7441L46.3192 32.7213H48.4613V47.4409H45.6269Z" fill="#4285F4"/>
</g>
<defs>
<filter id="filter0_d_1334_2769" x="-2" y="-1" width="84" height="84" filterUnits="userSpaceOnUse" color-interpolation-filters="sRGB">
<feFlood flood-opacity="0" result="BackgroundImageFix"/>
<feColorMatrix in="SourceAlpha" type="matrix" values="0 0 0 0 0 0 0 0 0 0 0 0 0 0 0 0 0 0 127 0" result="hardAlpha"/>
<feOffset dy="1"/>
<feGaussianBlur stdDeviation="1"/>
<feComposite in2="hardAlpha" operator="out"/>
<feColorMatrix type="matrix" values="0 0 0 0 0.0627451 0 0 0 0 0.0941176 0 0 0 0 0.156863 0 0 0 0.05 0"/>
<feBlend mode="normal" in2="BackgroundImageFix" result="effect1_dropShadow_1334_2769"/>
<feBlend mode="normal" in="SourceGraphic" in2="effect1_dropShadow_1334_2769" result="shape"/>
</filter>
</defs>
</svg>
