<svg width="81" height="81" viewBox="0 0 81 81" fill="none" xmlns="http://www.w3.org/2000/svg">
<g filter="url(#filter0_d_2480_4867)">
<path d="M5.5 30.1545C5.5 21.4426 5.5 17.0866 7.19545 13.7591C8.68682 10.8321 11.0665 8.45244 13.9935 6.96108C17.321 5.26562 21.677 5.26562 30.3889 5.26562H50.6111C59.323 5.26562 63.679 5.26562 67.0065 6.96108C69.9335 8.45244 72.3132 10.8321 73.8045 13.7591C75.5 17.0866 75.5 21.4426 75.5 30.1545V50.3767C75.5 59.0887 75.5 63.4446 73.8045 66.7721C72.3132 69.6991 69.9335 72.0788 67.0065 73.5702C63.679 75.2656 59.323 75.2656 50.6111 75.2656H30.3889C21.677 75.2656 17.321 75.2656 13.9935 73.5702C11.0665 72.0788 8.68682 69.6991 7.19545 66.7721C5.5 63.4446 5.5 59.0887 5.5 50.3767V30.1545Z" fill="white"/>
<path d="M55.6283 21.5732L40.6606 33.2543L25.3506 21.5732V21.5764L25.3691 21.5922V37.9488L40.4879 49.8824L55.6283 38.4097V21.5732Z" fill="#EA4335"/>
<path d="M59.5587 18.7316L55.6279 21.5729V38.4094L67.9968 28.913V23.1925C67.9968 23.1925 66.4954 15.0221 59.5587 18.7316Z" fill="#FBBC05"/>
<path d="M55.6279 38.41V60.2472H65.108C65.108 60.2472 67.8056 59.9694 67.9998 56.8944V28.9136L55.6279 38.41Z" fill="#34A853"/>
<path d="M25.3698 60.2655V37.9484L25.3506 37.9326L25.3698 60.2655Z" fill="#C5221F"/>
<path d="M25.3503 21.5765L21.4411 18.7509C14.5045 15.0414 13 23.2087 13 23.2087V28.9292L25.3503 37.9331V21.5765Z" fill="#C5221F"/>
<path d="M25.3506 21.5762V37.9328L25.3698 37.9486V21.592L25.3506 21.5762Z" fill="#C5221F"/>
<path d="M13 28.9321V56.913C13.1911 59.9911 15.8918 60.2658 15.8918 60.2658H25.3719L25.3503 37.9329L13 28.9321Z" fill="#4285F4"/>
</g>
<defs>
<filter id="filter0_d_2480_4867" x="-1.5" y="-0.734375" width="84" height="84" filterUnits="userSpaceOnUse" color-interpolation-filters="sRGB">
<feFlood flood-opacity="0" result="BackgroundImageFix"/>
<feColorMatrix in="SourceAlpha" type="matrix" values="0 0 0 0 0 0 0 0 0 0 0 0 0 0 0 0 0 0 127 0" result="hardAlpha"/>
<feOffset dy="1"/>
<feGaussianBlur stdDeviation="1"/>
<feComposite in2="hardAlpha" operator="out"/>
<feColorMatrix type="matrix" values="0 0 0 0 0.0627451 0 0 0 0 0.0941176 0 0 0 0 0.156863 0 0 0 0.05 0"/>
<feBlend mode="normal" in2="BackgroundImageFix" result="effect1_dropShadow_2480_4867"/>
<feBlend mode="normal" in="SourceGraphic" in2="effect1_dropShadow_2480_4867" result="shape"/>
</filter>
</defs>
</svg>
