<svg width="80" height="80" viewBox="0 0 80 80" fill="none" xmlns="http://www.w3.org/2000/svg">
<path fill-rule="evenodd" clip-rule="evenodd" d="M14.29 73.0445L5.69159 62.3329C3.62282 59.7557 2.5 56.5865 2.5 53.3247V14.5375C2.5 9.65161 6.40896 5.59742 11.4518 5.25313L51.3303 2.53046C54.2275 2.33266 57.107 3.10273 59.4869 4.71176L73.4981 14.1848C76.0061 15.8805 77.5 18.6525 77.5 21.6106V65.7079C77.5 70.4894 73.6564 74.4482 68.7191 74.7522L24.4583 77.4767C20.5183 77.7192 16.71 76.0592 14.29 73.0445Z" fill="white"/>
<path d="M28.1202 33.9465V33.4387C28.1202 32.1515 29.1512 31.0839 30.4799 30.9952L40.1582 30.3491L53.5426 50.0586V32.7601L50.0975 32.3009V32.0597C50.0975 30.7573 51.152 29.6827 52.4977 29.6138L61.304 29.1627V30.4299C61.304 31.0249 60.8616 31.5337 60.2552 31.6363L58.1361 31.9947V60.009L55.4765 60.9236C53.2546 61.6877 50.7809 60.8698 49.509 58.9504L36.5152 39.3427V58.0572L40.5146 58.8226L40.4589 59.1936C40.2844 60.3556 39.2811 61.2344 38.0675 61.2884L28.1202 61.7312C27.9887 60.4816 28.9253 59.3637 30.2173 59.2279L31.5257 59.0905V34.1379L28.1202 33.9465Z" fill="black"/>
<path fill-rule="evenodd" clip-rule="evenodd" d="M51.6872 7.41671L11.8087 10.1394C9.41997 10.3025 7.56836 12.2229 7.56836 14.5372V53.3244C7.56836 55.499 8.31691 57.6118 9.69609 59.3299L18.2945 70.0415C19.6847 71.7734 21.8725 72.727 24.1359 72.5877L68.3966 69.8631C70.6651 69.7235 72.4311 67.9046 72.4311 65.7077V21.6104C72.4311 20.2512 71.7447 18.9776 70.5924 18.1985L56.5812 8.72549C55.1532 7.76007 53.4255 7.29803 51.6872 7.41671ZM13.7862 15.1422C13.2315 14.7316 13.4955 13.8761 14.1923 13.8261L51.9555 11.1175C53.1587 11.0312 54.3543 11.3626 55.3273 12.052L62.9042 17.4201C63.1919 17.6239 63.0569 18.0638 62.7008 18.0832L22.7097 20.2582C21.4994 20.324 20.3048 19.9684 19.3425 19.256L13.7862 15.1422ZM20.8339 27.0765C20.8339 25.7773 21.8835 24.7042 23.2257 24.6311L65.5076 22.3284C66.8157 22.2572 67.9168 23.2631 67.9168 24.5293V62.7129C67.9168 64.0097 66.8709 65.0818 65.5315 65.158L23.5172 67.5486C22.0615 67.6314 20.8339 66.5128 20.8339 65.1035V27.0765Z" fill="black"/>
</svg>
