<svg width="80" height="80" viewBox="0 0 80 80" fill="none" xmlns="http://www.w3.org/2000/svg">
<path fill-rule="evenodd" clip-rule="evenodd" d="M40 77.5C59.33 77.5 75 61.83 75 42.5C75 23.17 59.33 7.5 40 7.5C20.67 7.5 5 23.17 5 42.5C5 48.7772 6.65249 54.6684 9.54619 59.7624L5 77.5L23.2872 73.2595C28.2534 75.9636 33.9473 77.5 40 77.5ZM40 72.1154C56.3561 72.1154 69.6154 58.8561 69.6154 42.5C69.6154 26.1439 56.3561 12.8846 40 12.8846C23.6439 12.8846 10.3846 26.1439 10.3846 42.5C10.3846 48.8152 12.3613 54.6687 15.7296 59.4755L13.0769 69.4231L23.1998 66.8924C27.9734 70.1864 33.7614 72.1154 40 72.1154Z" fill="#BFC8D0"/>
<path d="M70 40C70 56.5685 56.5685 70 40 70C33.6804 70 27.8172 68.046 22.9816 64.7091L12.7273 67.2727L15.4144 57.196C12.0023 52.3267 10 46.3972 10 40C10 23.4315 23.4315 10 40 10C56.5685 10 70 23.4315 70 40Z" fill="url(#paint0_linear_1334_2839)"/>
<path fill-rule="evenodd" clip-rule="evenodd" d="M40 75C59.33 75 75 59.33 75 40C75 20.67 59.33 5 40 5C20.67 5 5 20.67 5 40C5 46.2772 6.65249 52.1684 9.54619 57.2624L5 75L23.2872 70.7595C28.2534 73.4636 33.9473 75 40 75ZM40 69.6154C56.3561 69.6154 69.6154 56.3561 69.6154 40C69.6154 23.6439 56.3561 10.3846 40 10.3846C23.6439 10.3846 10.3846 23.6439 10.3846 40C10.3846 46.3152 12.3613 52.1687 15.7296 56.9755L13.0769 66.9231L23.1998 64.3924C27.9734 67.6864 33.7614 69.6154 40 69.6154Z" fill="white"/>
<path d="M31.2501 23.7504C30.4179 22.079 29.1413 22.227 27.8517 22.227C25.5469 22.227 21.9531 24.9877 21.9531 30.1256C21.9531 34.3364 23.8086 38.9458 30.061 45.841C36.0951 52.4954 44.0235 55.9378 50.6055 55.8206C57.1875 55.7034 58.5417 50.0393 58.5417 48.1265C58.5417 47.2787 58.0156 46.8557 57.6532 46.7408C55.4102 45.6643 51.2733 43.6586 50.3321 43.2817C49.3908 42.9049 48.8993 43.4146 48.5938 43.6919C47.7402 44.5054 46.0481 46.9027 45.4688 47.4419C44.8894 47.9811 44.0257 47.7082 43.6663 47.5044C42.3436 46.9736 38.7573 45.3784 35.8987 42.6073C32.3633 39.1802 32.1558 38.0011 31.4898 36.9515C30.9569 36.1118 31.3479 35.5967 31.543 35.3715C32.3047 34.4926 33.3565 33.1357 33.8282 32.4614C34.2999 31.7871 33.9254 30.7633 33.7007 30.1256C32.7344 27.3833 31.9158 25.0876 31.2501 23.7504Z" fill="white"/>
<defs>
<linearGradient id="paint0_linear_1334_2839" x1="66.25" y1="17.5" x2="10" y2="70" gradientUnits="userSpaceOnUse">
<stop stop-color="#5BD066"/>
<stop offset="1" stop-color="#27B43E"/>
</linearGradient>
</defs>
</svg>
